<?xml version="1.0" encoding="UTF-8"?>
<svg width="91px" height="91px" viewBox="0 0 91 91" version="1.1" xmlns="http://www.w3.org/2000/svg" xmlns:xlink="http://www.w3.org/1999/xlink">
    <title>Group 3 Copy 12</title>
    <g id="Page-1" stroke="none" stroke-width="1" fill="none" fill-rule="evenodd">
        <g id="02-copy" transform="translate(-1043.000000, -2466.000000)">
            <g id="Group-65" transform="translate(317.000000, 1357.000000)">
                <g id="Group-64" transform="translate(2.000000, 1038.000000)">
                    <g id="Group" transform="translate(724.000000, 71.000000)">
                        <rect id="Rectangle" fill="#921868" fill-rule="nonzero" x="0" y="0" width="90.3557312" height="90.3643725" rx="20"></rect>
                        <g id="Group-2" transform="translate(15.059289, 19.076923)" fill="#FFFFFF">
                            <polygon id="Fill-3" points="29.4122111 8.35676303 29.4152995 8.3599399 14.941529 16.7166147 14.941529 16.7135261 14.9384407 16.7135261 0.470846892 8.3599399 14.941529 0"></polygon>
                            <polygon id="Fill-4" points="29.4153171 43.952966 15.4092964 52.0397831 15.4092964 35.8662372"></polygon>
                            <polygon id="Fill-5" points="0 43.6830554 0 9.17295452 45.2953987 35.3262924 45.2953987 52.0397302 14.4737705 34.2431554 14.4737705 52.0397302"></polygon>
                            <polygon id="Fill-6" points="45.2953987 16.4435007 31.2955546 8.35986048 45.2953987 0.273131611"></polygon>
                            <polygon id="Fill-7" points="60.7077569 8.62985934 60.7077569 43.6830289 46.2339865 52.039792 46.2339865 34.7831972 15.880108 17.2565683 30.3538785 8.8998935 30.357055 8.8998935 46.2339865 18.0696711 46.2339865 0.273096312"></polygon>
                        </g>
                    </g>
                </g>
            </g>
        </g>
    </g>
</svg>