<?xml version="1.0" encoding="utf-8"?>
<!-- Generator: Adobe Illustrator 27.2.0, SVG Export Plug-In . SVG Version: 6.00 Build 0)  -->
<svg version="1.1" id="Layer_1" xmlns="http://www.w3.org/2000/svg" xmlns:xlink="http://www.w3.org/1999/xlink" x="0px" y="0px"
	 viewBox="0 0 180 180" style="enable-background:new 0 0 180 180;" xml:space="preserve">
<style type="text/css">
	.st0{fill:#F5AA00;}
	.st1{fill-rule:evenodd;clip-rule:evenodd;fill:#FFFFFF;}
</style>
<g id="iPad">
	<g id="_x30_4" transform="translate(-1893.000000, -769.000000)">
		<g id="Group-4-Copy" transform="translate(1856.000000, 769.000000)">
			<g id="Group-Copy" transform="translate(37.000000, 0.000000)">
				<path id="Rectangle" class="st0" d="M40,0h100c22.1,0,40,17.9,40,40v100c0,22.1-17.9,40-40,40H40c-22.1,0-40-17.9-40-40V40
					C0,17.9,17.9,0,40,0z"/>
				<g id="Group-2" transform="translate(30.000000, 38.000000)">
					<polygon id="Fill-3" class="st1" points="58.6,16.6 58.6,16.7 29.8,33.3 29.8,33.3 29.8,33.3 0.9,16.7 29.8,0 					"/>
					<polygon id="Fill-4" class="st1" points="58.6,87.6 30.7,103.7 30.7,71.4 					"/>
					<polygon id="Fill-5" class="st1" points="0,87 0,18.3 90.2,70.4 90.2,103.7 28.8,68.2 28.8,103.7 					"/>
					<polygon id="Fill-6" class="st1" points="90.2,32.8 62.3,16.7 90.2,0.5 					"/>
					<polygon id="Fill-7" class="st1" points="120.9,17.2 120.9,87 92.1,103.7 92.1,69.3 31.6,34.4 60.5,17.7 60.5,17.7 92.1,36 
						92.1,0.5 					"/>
				</g>
			</g>
		</g>
	</g>
</g>
</svg>
