<?xml version="1.0" encoding="UTF-8"?>
<svg width="87px" height="87px" viewBox="0 0 87 87" version="1.1" xmlns="http://www.w3.org/2000/svg" xmlns:xlink="http://www.w3.org/1999/xlink">
    <title>L5</title>
    <g id="Page-1" stroke="none" stroke-width="1" fill="none" fill-rule="evenodd">
        <g id="Group-Copy">
            <rect id="Rectangle" fill="#5B4C44" fill-rule="nonzero" x="0" y="0" width="86.3753713" height="86.5064815" rx="19.2"></rect>
            <g id="Group-2" transform="translate(14.395895, 18.262479)" fill="#FFFFFF">
                <polygon id="Fill-3" points="28.1165414 7.999991 28.1194937 8.00303224 14.2833233 16.0029388 14.2833233 15.999982 14.280371 15.999982 0.450105097 8.00303224 14.2833233 0"></polygon>
                <polygon id="Fill-4" points="28.1195106 42.0764992 14.7304845 49.8180689 14.7304845 34.3350139"></polygon>
                <polygon id="Fill-5" points="0 41.8181117 0 8.78133714 43.3000411 33.8181207 43.3000411 49.8180182 13.8361704 32.7812257 13.8361704 49.8180182"></polygon>
                <polygon id="Fill-6" points="43.3000411 15.7414847 29.9169196 8.00295621 43.3000411 0.261470909"></polygon>
                <polygon id="Fill-7" points="58.0334526 8.26142812 58.0334526 41.8180864 44.1972822 49.8180774 44.1972822 33.2982117 15.1805559 16.5198403 29.0167263 8.51993381 29.0197629 8.51993381 44.1972822 17.2982297 44.1972822 0.261437117"></polygon>
            </g>
        </g>
    </g>
</svg>