<?xml version="1.0" encoding="UTF-8"?>
<svg width="29px" height="25px" viewBox="0 0 29 25" version="1.1" xmlns="http://www.w3.org/2000/svg" xmlns:xlink="http://www.w3.org/1999/xlink">
    <title>Readers</title>
    <g id="Page-1" stroke="none" stroke-width="1" fill="none" fill-rule="evenodd">
        <g id="Group-2" transform="translate(0.000000, 0.077778)" fill="#B74333">
            <polygon id="Fill-3" points="13.9971761 3.97657617 13.9986458 3.97808789 7.11062529 7.95462207 7.11062529 7.95315234 7.10915557 7.95315234 0.224074512 3.97808789 7.11062529 0"></polygon>
            <polygon id="Fill-4" points="13.9986542 20.915074 7.33323428 24.7631961 7.33323428 17.0669939"></polygon>
            <polygon id="Fill-5" points="0 20.7866367 0 4.36496191 21.5559336 16.8100605 21.5559336 24.7631709 6.88802051 16.2946484 6.88802051 24.7631709"></polygon>
            <polygon id="Fill-6" points="21.5559336 7.82466045 14.8934531 3.9780501 21.5559336 0.12997002"></polygon>
            <polygon id="Fill-7" points="28.890625 4.10652939 28.890625 20.7866241 22.0026045 24.7632003 22.0026045 16.551628 7.55729199 8.21155967 14.4453125 4.23502549 14.4468242 4.23502549 22.0026045 8.59847568 22.0026045 0.129953223"></polygon>
        </g>
    </g>
</svg>