<?xml version="1.0" encoding="UTF-8"?>
<svg width="199px" height="199px" viewBox="0 0 199 199" version="1.1" xmlns="http://www.w3.org/2000/svg" xmlns:xlink="http://www.w3.org/1999/xlink">
    <title>04</title>
    <g id="Page-1" stroke="none" stroke-width="1" fill="none" fill-rule="evenodd">
        <g id="Group" transform="translate(-0.000000, 0.000000)">
            <path d="M49.0117344,50.3000745 C69.7023312,29.3556476 63.7794413,16.2287874 77.9364176,6.53163579 C99.7215396,-8.38962462 140.377041,4.44760725 164.365584,24.971629 C193.742926,50.1085886 208.898627,96.0059278 191.632912,137.528127 C173.246326,181.747685 124.864483,204.702714 81.6918124,197.784747 C43.141535,191.607048 5.24270361,161.047295 1.44659341,124.395028 C1.03464959,120.422296 -0.783172261,98.9473235 11.9607409,80.4319837 C22.4940486,65.1284714 32.6106223,66.9027152 49.0117344,50.3000745" id="Fill-135" fill="#E5F0F7"></path>
            <path d="M194.344077,131.936883 L20.9324941,131.936883 C18.0249371,131.936883 15.8095416,129.308392 16.2741759,126.411388 L16.2693858,4.12126542 C16.6382193,1.81503649 18.6117176,0.120218572 20.925309,0.120218572 L194.336892,0.120218572 C197.244449,0.120218572 198.925754,2.1341796 198.99521,5.64547374 L199,127.935597 C198.877854,130.510338 196.657668,131.936883 194.344077,131.936883" id="Fill-136" fill="#026BB0"></path>
            <path d="M189.81509,132.084697 L16.4035071,132.084697 C13.4959501,132.084697 11.2805546,129.448527 11.7475839,126.543125 L11.7403988,4.3727406 C12.1116273,2.0595529 14.0827306,0.359935845 16.396322,0.359935845 L189.8103,0.359935845 C192.715462,0.359935845 194.399162,2.37965585 194.466223,5.90150811 L194.473408,128.071892 C194.348867,130.654072 192.128681,132.084697 189.81509,132.084697" id="Fill-137" fill="#FFFFFF"></path>
            <path d="M189.81509,132.153805 L185.985449,132.153805 C185.786662,132.153805 185.626196,131.992793 185.626196,131.793869 C185.626196,131.595184 185.786662,131.433933 185.985449,131.433933 L189.81509,131.433933 C191.800563,131.433933 193.994404,130.288137 194.114155,127.772666 L194.10697,5.88951025 C194.042304,2.55818403 192.516675,0.719871689 189.8103,0.719871689 L16.396322,0.719871689 C14.2575672,0.719871689 12.4541155,2.26303663 12.0996522,4.39337692 L12.1044422,87.0344069 C12.1044422,87.2330915 11.9439757,87.3943427 11.7451889,87.3943427 C11.5464021,87.3943427 11.3859356,87.2330915 11.3859356,87.0344069 L11.3811455,4.36410214 C11.3811455,4.34490556 11.3835405,4.32570898 11.3859356,4.30675236 C11.7859043,1.81119717 13.8935238,0 16.396322,0 L189.8103,0 C192.926224,0 194.753626,2.14401785 194.825476,5.88231153 L194.832661,127.789943 C194.696145,130.660791 192.205322,132.153805 189.81509,132.153805" id="Fill-138" fill="#000000"></path>
            <path d="M35.3217875,45.8757431 C35.2307766,42.7135867 32.6106223,40.28234 29.5018835,40.5186979 C26.4697854,40.7490568 24.1729591,43.3921857 24.3070804,46.492913 C24.374141,47.9876066 24.9920567,49.3138502 25.9740158,50.263121 C26.7260528,50.9916312 27.1715269,51.9927328 27.2026622,53.0610223 L27.2194274,53.6952293 C27.2361925,54.2195358 27.6625065,54.6245837 28.1774362,54.600108 L31.9208559,54.42062 C32.4333907,54.3959044 32.8357544,53.9510237 32.8213843,53.4267172 L32.8046191,52.7951497 C32.7734839,51.7419775 33.1327372,50.6993633 33.8392687,49.9192623 C34.8044627,48.8540922 35.3672929,47.4237071 35.3217875,45.8757431" id="Fill-139" fill="#FFFFFF"></path>
            <path d="M29.9186174,40.8627966 C29.7892862,40.8627966 29.659955,40.8675957 29.5282288,40.8776739 C26.6757573,41.0941153 24.5393975,43.5539169 24.6663337,46.4773158 C24.7262092,47.8385932 25.2794594,49.0911699 26.2230981,50.0042072 C27.0517758,50.8068641 27.5283852,51.8888313 27.5619155,53.0507042 L27.5786807,53.6846712 C27.5834707,53.8444827 27.6481363,53.9903767 27.7630974,54.095478 C27.8708734,54.19626 28.0097847,54.2471309 28.1582761,54.2406521 L31.9040908,54.0609241 C32.2202337,54.0458068 32.4717111,53.7657767 32.462131,53.4370353 L32.4453658,52.8057078 C32.4118355,51.6462345 32.8213843,50.5061977 33.5734213,49.6773854 C34.509875,48.6431698 35.0032495,47.2967698 34.9625342,45.8860612 C34.9218188,44.4304807 34.3158782,43.1035172 33.2596734,42.1494472 C32.3304047,41.3122365 31.1568439,40.8627966 29.9186174,40.8627966 Z M28.1319308,54.9610037 C27.8133929,54.9610037 27.509225,54.8424648 27.2745129,54.6236238 C27.0182455,54.3860662 26.8721491,54.0599643 26.860174,53.7055475 L26.8434089,53.0715805 C26.8146686,52.0985539 26.4170949,51.1931953 25.7225385,50.5222749 C24.6471735,49.4803806 24.0172827,48.0547947 23.9502221,46.5085103 C23.8041257,43.1947009 26.2302832,40.405918 29.4731433,40.1597219 C31.0538579,40.0397433 32.5675119,40.5566111 33.7386778,41.6145826 C34.943374,42.7015888 35.6331404,44.2111598 35.6810408,45.8654249 C35.7265462,47.4628202 35.1685061,48.9884682 34.1051162,50.1611392 C33.4776204,50.8534158 33.1351322,51.8098853 33.1614775,52.7848316 L33.1806376,53.416399 C33.2021928,54.134591 32.6441527,54.746242 31.9376211,54.7800759 L28.1942014,54.9595639 C28.1726462,54.9605238 28.151091,54.9610037 28.1319308,54.9610037 L28.1319308,54.9610037 Z" id="Fill-140" fill="#000000"></path>
            <path d="M30.1653047,58.3501596 L30.1653047,58.3501596 C28.8863628,58.4113487 27.8205779,57.4023285 27.7822576,56.0962413 L27.7391472,54.560755 L32.3663301,54.3387946 L32.4094405,55.8742809 C32.4477608,57.1806081 31.4418515,58.2889705 30.1653047,58.3501596" id="Fill-141" fill="#FFFFFF"></path>
            <path d="M28.1079806,54.903414 L28.1415109,56.0859232 C28.1582761,56.6287064 28.3810131,57.1263777 28.7690067,57.4872734 C29.1450252,57.8364112 29.6336097,58.0149394 30.1461445,57.9907037 C31.2286945,57.9388729 32.0837175,56.9941613 32.0501871,55.8845991 L32.0166568,54.7160074 L28.1079806,54.903414 Z M30.0527386,58.712735 C29.3941075,58.712735 28.7690067,58.4677386 28.2804222,58.0156592 C27.7487273,57.5220672 27.4445594,56.844188 27.4230042,56.1063195 L27.3703138,54.2180961 L32.7136083,53.9618218 L32.7686938,55.8639627 C32.8118042,57.3627356 31.6502184,58.6393081 30.1820698,58.7098555 C30.1389594,58.7117751 30.095849,58.712735 30.0527386,58.712735 L30.0527386,58.712735 Z" id="Fill-142" fill="#000000"></path>
            <path d="M29.6240297,36.8022403 C29.4348229,36.8022403 29.2743564,36.6515472 29.2671713,36.4583816 L29.0971248,32.674976 C29.0875447,32.4762914 29.2408261,32.3083213 29.4396129,32.2994429 C29.6407948,32.2908044 29.8060513,32.4441371 29.8156314,32.6428217 L29.983283,36.4259874 C29.9928631,36.624672 29.8395817,36.792882 29.6407948,36.8017604 C29.6360048,36.8020004 29.6312147,36.8022403 29.6240297,36.8022403" id="Fill-143" fill="#000000"></path>
            <path d="M20.3073933,48.1318209 L20.3073933,48.1318209 L18.2548592,48.1296613 C18.0560724,48.1294214 17.8956059,47.9679301 17.8956059,47.7692456 C17.8956059,47.570561 18.0560724,47.4097896 18.2548592,47.4097896 L20.3073933,47.4119492 C20.5061801,47.4124292 20.6666466,47.5736804 20.6666466,47.772365 C20.6666466,47.9710496 20.5061801,48.1318209 20.3073933,48.1318209" id="Fill-144" fill="#000000"></path>
            <path d="M22.2018558,40.7065844 C22.11324,40.7065844 22.0246242,40.6744301 21.9551686,40.6094017 L19.6415771,38.4389886 C19.4954807,38.3031728 19.4882957,38.0754534 19.6248119,37.9302793 C19.7589332,37.7851051 19.9864603,37.7774265 20.1325567,37.9134823 L22.4461481,40.0838954 C22.5922445,40.2197112 22.5994295,40.4474306 22.4629133,40.5926047 C22.3934576,40.6684312 22.2976567,40.7065844 22.2018558,40.7065844" id="Fill-145" fill="#000000"></path>
            <path d="M39.4124854,48.1318209 C39.2136986,48.1318209 39.0532321,47.9710496 39.0532321,47.772365 C39.0532321,47.5736804 39.2136986,47.4124292 39.4124854,47.4119492 L41.4650194,47.4097896 C41.6638063,47.4097896 41.8242728,47.570561 41.8242728,47.7692456 C41.8242728,47.9679301 41.6638063,48.1294214 41.4650194,48.1296613 L39.4124854,48.1318209" id="Fill-146" fill="#000000"></path>
            <path d="M37.5180228,40.7065844 C37.422222,40.7065844 37.3264211,40.6684312 37.2545704,40.5926047 C37.1204492,40.4474306 37.1276342,40.2197112 37.2713356,40.0838954 L39.587322,37.9134823 C39.7334184,37.7774265 39.9585505,37.7851051 40.0950667,37.9302793 C40.231583,38.0754534 40.2220029,38.3031728 40.0783016,38.4389886 L37.7623151,40.6094017 C37.6928595,40.6744301 37.6066387,40.7065844 37.5180228,40.7065844" id="Fill-147" fill="#000000"></path>
            <path d="M89.492405,28.1400243 C89.4852146,37.2279245 82.1564467,44.5893323 73.1200279,44.5823785 C64.0836091,44.5751749 56.7644213,37.202249 56.7716011,28.1145888 C56.7787914,19.0266887 64.1099544,11.6650408 73.1463732,11.6722343 C82.1803969,11.6791983 89.4995848,19.0521241 89.492405,28.1400243" id="Fill-148" fill="#E5F0F7"></path>
            <path d="M73.4218007,28.1918551 L82.077411,41.858859 C86.498622,38.9162635 89.415759,33.8718826 89.4205527,28.1400243 C89.4229441,24.5065919 88.2541732,21.1479106 86.2734899,18.4239161 L73.4218007,28.1918551" id="Fill-149" fill="#D0E0EA"></path>
            <path d="M76.6359205,12.0708085 L73.4218007,28.1918551 L86.2758849,18.4279954 C83.9718735,15.26032 80.570942,12.9536111 76.6359205,12.0708085" id="Fill-150" fill="#026BB0"></path>
            <path d="M78.1184412,28.1311459 C78.1160442,30.9004923 75.8814885,33.1436124 73.129608,33.1414544 C70.3753325,33.1392932 68.1455668,30.8925737 68.1479599,28.1232273 C68.1503568,25.3541209 70.3825175,23.1107607 73.1367931,23.1129188 C75.8910686,23.1150799 78.1208343,25.3617995 78.1184412,28.1311459" id="Fill-151" fill="#FFFFFF"></path>
            <path d="M116.467535,52.1309481 L116.467535,52.1309481 C116.371734,52.1309481 116.280723,52.092555 116.213662,52.024887 L109.335159,45.1062002 C109.196247,44.9653453 109.196247,44.7376259 109.335159,44.5972509 C109.476465,44.4571159 109.703992,44.4573559 109.845298,44.5982108 L116.467535,51.2611032 L147.135794,20.4364374 C147.274705,20.2958224 147.502233,20.2953425 147.643539,20.4357175 C147.784845,20.5758525 147.784845,20.8038119 147.643539,20.9446668 L116.723802,52.024887 C116.654347,52.0927949 116.563336,52.1309481 116.467535,52.1309481" id="Fill-152" fill="#000000"></path>
            <path d="M45.7425291,83.1998904 C45.6491232,83.1998904 45.5581124,83.1648566 45.4886567,83.095029 C45.3473504,82.9546541 45.3473504,82.7266947 45.4862617,82.5858398 L63.4297681,64.5384166 C63.5662843,64.4028408 63.8057866,64.4028408 63.9399078,64.5384166 L73.3786903,74.0316045 L102.406359,44.8367283 C102.545271,44.6958734 102.772798,44.6953934 102.914104,44.8357684 C103.053015,44.9761434 103.05541,45.2038628 102.914104,45.3447177 L73.6325627,74.7956283 C73.4984414,74.9312042 73.2589392,74.9312042 73.124818,74.7956283 L63.6860355,65.3024404 L45.9964014,83.0940692 C45.9269458,83.1646166 45.8335399,83.1998904 45.7425291,83.1998904" id="Fill-153" fill="#000000"></path>
            <path d="M61.9352742,64.7922913 C61.9352742,63.8207045 62.7184465,63.0331649 63.6860355,63.0331649 C64.6512294,63.0331649 65.4344017,63.8207045 65.4344017,64.7922913 C65.4344017,65.7638782 64.6512294,66.5514178 63.6860355,66.5514178 C62.7184465,66.5514178 61.9352742,65.7638782 61.9352742,64.7922913" id="Fill-154" fill="#026BB0"></path>
            <path d="M63.6860355,62.3132932 C62.3256628,62.3132932 61.2167676,63.425495 61.2167676,64.7922913 C61.2167676,66.1593277 62.3256628,67.2712895 63.6860355,67.2712895 C65.0464081,67.2712895 66.1529083,66.1593277 66.1529083,64.7922913 C66.1529083,63.425495 65.0464081,62.3132932 63.6860355,62.3132932 Z M63.6860355,63.0331649 C64.6512294,63.0331649 65.4344017,63.8207045 65.4344017,64.7922913 C65.4344017,65.7638782 64.6512294,66.5514178 63.6860355,66.5514178 C62.7184465,66.5514178 61.9352742,65.7638782 61.9352742,64.7922913 C61.9352742,63.8207045 62.7184465,63.0331649 63.6860355,63.0331649 L63.6860355,63.0331649 Z" id="Fill-155" fill="#000000"></path>
            <path d="M114.774254,51.6990251 C114.774254,50.7274383 115.557426,49.9401386 116.52262,49.9401386 C117.487814,49.9401386 118.270987,50.7274383 118.270987,51.6990251 C118.270987,52.6706119 117.487814,53.4581516 116.52262,53.4581516 C115.557426,53.4581516 114.774254,52.6706119 114.774254,51.6990251" id="Fill-156" fill="#D0E0EA"></path>
            <path d="M116.52262,49.2202669 C115.162248,49.2202669 114.055747,50.3322287 114.055747,51.6990251 C114.055747,53.0660614 115.162248,54.1780232 116.52262,54.1780232 C117.882993,54.1780232 118.989493,53.0660614 118.989493,51.6990251 C118.989493,50.3322287 117.882993,49.2202669 116.52262,49.2202669 Z M116.52262,49.9401386 C117.487814,49.9401386 118.270987,50.7274383 118.270987,51.6990251 C118.270987,52.6706119 117.487814,53.4581516 116.52262,53.4581516 C115.557426,53.4581516 114.774254,52.6706119 114.774254,51.6990251 C114.774254,50.7274383 115.557426,49.9401386 116.52262,49.9401386 L116.52262,49.9401386 Z" id="Fill-157" fill="#000000"></path>
            <path d="M146.048454,20.5194626 C146.048454,19.5478758 146.831626,18.7603361 147.79682,18.7603361 C148.762014,18.7603361 149.545186,19.5478758 149.545186,20.5194626 C149.545186,21.4910494 148.762014,22.278589 147.79682,22.278589 C146.831626,22.278589 146.048454,21.4910494 146.048454,20.5194626" id="Fill-158" fill="#026BB0"></path>
            <path d="M147.79682,18.0404644 C146.436448,18.0404644 145.329947,19.1526662 145.329947,20.5194626 C145.329947,21.8864989 146.436448,22.9984607 147.79682,22.9984607 C149.157193,22.9984607 150.263693,21.8864989 150.263693,20.5194626 C150.263693,19.1526662 149.157193,18.0404644 147.79682,18.0404644 Z M147.79682,18.7603361 C148.762014,18.7603361 149.545186,19.5478758 149.545186,20.5194626 C149.545186,21.4910494 148.762014,22.278589 147.79682,22.278589 C146.831626,22.278589 146.048454,21.4910494 146.048454,20.5194626 C146.048454,19.5478758 146.831626,18.7603361 147.79682,18.7603361 L147.79682,18.7603361 Z" id="Fill-159" fill="#000000"></path>
            <path d="M71.7907906,74.3377899 C71.7907906,73.3662031 72.5739629,72.5786635 73.5391568,72.5786635 C74.5067458,72.5786635 75.289918,73.3662031 75.289918,74.3377899 C75.289918,75.3091368 74.5067458,76.0969164 73.5391568,76.0969164 C72.5739629,76.0969164 71.7907906,75.3091368 71.7907906,74.3377899" id="Fill-160" fill="#D0E0EA"></path>
            <path d="M73.5391568,71.8587918 C72.1787842,71.8587918 71.0722839,72.9707536 71.0722839,74.3377899 C71.0722839,75.7045863 72.1787842,76.8167881 73.5391568,76.8167881 C74.9019244,76.8167881 76.0084247,75.7045863 76.0084247,74.3377899 C76.0084247,72.9707536 74.9019244,71.8587918 73.5391568,71.8587918 Z M73.5391568,72.5786635 C74.5067458,72.5786635 75.289918,73.3662031 75.289918,74.3377899 C75.289918,75.3091368 74.5067458,76.0969164 73.5391568,76.0969164 C72.5739629,76.0969164 71.7907906,75.3091368 71.7907906,74.3377899 C71.7907906,73.3662031 72.5739629,72.5786635 73.5391568,72.5786635 L73.5391568,72.5786635 Z" id="Fill-161" fill="#000000"></path>
            <path d="M104.492424,41.623461 C104.492424,40.6518742 105.275596,39.8643345 106.24079,39.8643345 C107.205984,39.8643345 107.989156,40.6518742 107.989156,41.623461 C107.989156,42.5948079 107.205984,43.3825874 106.24079,43.3825874 C105.275596,43.3825874 104.492424,42.5948079 104.492424,41.623461" id="Fill-162" fill="#026BB0"></path>
            <path d="M106.24079,39.1444628 C104.880417,39.1444628 103.773917,40.2564246 103.773917,41.623461 C103.773917,42.9902574 104.880417,44.1024591 106.24079,44.1024591 C107.601163,44.1024591 108.707663,42.9902574 108.707663,41.623461 C108.707663,40.2564246 107.601163,39.1444628 106.24079,39.1444628 Z M106.24079,39.8643345 C107.205984,39.8643345 107.989156,40.6518742 107.989156,41.623461 C107.989156,42.5948079 107.205984,43.3825874 106.24079,43.3825874 C105.275596,43.3825874 104.492424,42.5948079 104.492424,41.623461 C104.492424,40.6518742 105.275596,39.8643345 106.24079,39.8643345 L106.24079,39.8643345 Z" id="Fill-163" fill="#000000"></path>
            <path d="M43.5989842,82.9764902 C43.5989842,82.0051433 44.3821565,81.2173637 45.3473504,81.2173637 C46.3125444,81.2173637 47.0957166,82.0051433 47.0957166,82.9764902 C47.0957166,83.948077 46.3125444,84.7356166 45.3473504,84.7356166 C44.3821565,84.7356166 43.5989842,83.948077 43.5989842,82.9764902" id="Fill-164" fill="#D0E0EA"></path>
            <path d="M45.3473504,80.497492 C43.9869778,80.497492 42.8804776,81.6096938 42.8804776,82.9764902 C42.8804776,84.3435265 43.9869778,85.4554883 45.3473504,85.4554883 C46.707723,85.4554883 47.8142233,84.3435265 47.8142233,82.9764902 C47.8142233,81.6096938 46.707723,80.497492 45.3473504,80.497492 Z M45.3473504,81.2173637 C46.3125444,81.2173637 47.0957166,82.0051433 47.0957166,82.9764902 C47.0957166,83.948077 46.3125444,84.7356166 45.3473504,84.7356166 C44.3821565,84.7356166 43.5989842,83.948077 43.5989842,82.9764902 C43.5989842,82.0051433 44.3821565,81.2173637 45.3473504,81.2173637 L45.3473504,81.2173637 Z" id="Fill-165" fill="#000000"></path>
            <path d="M59.4061308,108.387001 L56.5991648,108.327252 C55.3633333,108.301096 54.3789792,107.286317 54.3813698,106.045018 L54.4077194,92.4888747 C54.4101145,91.2173413 55.4471591,90.1939237 56.7093358,90.21504 L59.4923516,90.2615917 C60.728183,90.2824679 61.7197222,91.2950875 61.7197222,92.5387858 C61.7197222,95.9965695 61.7197222,102.600912 61.7197222,106.110047 C61.7197222,107.387339 60.6754925,108.414116 59.4061308,108.387001" id="Fill-166" fill="#E5F0F7"></path>
            <path d="M69.352658,108.387001 L66.5432969,108.327252 C65.3098605,108.301096 64.3231114,107.287037 64.325502,106.046458 L64.3542467,83.9329597 C64.3566417,82.6609464 65.3936863,81.636569 66.658258,81.6576852 L69.4364838,81.7042369 C70.6747103,81.7251132 71.6662494,82.7374928 71.6662494,83.9809511 C71.6662494,88.9842993 71.6662494,101.028233 71.6662494,106.111007 C71.6662494,107.388299 70.6220198,108.414116 69.352658,108.387001" id="Fill-167" fill="#E5F0F7"></path>
            <path d="M79.2967902,108.387001 L76.4898242,108.327252 C75.2539927,108.301096 74.2696386,107.286797 74.2720292,106.045738 L74.2983788,88.4916671 C74.3007739,87.2198938 75.3378185,86.1959963 76.6023902,86.2171126 L79.383011,86.2639042 C80.6188424,86.2845405 81.6103816,87.2971601 81.6103816,88.5406184 C81.6103816,92.7559471 81.6103816,101.82897 81.6103816,106.110047 C81.6103816,107.387099 80.566152,108.414116 79.2967902,108.387001" id="Fill-168" fill="#E5F0F7"></path>
            <path d="M89.2433174,108.387001 L86.4315613,108.327252 C85.2005199,108.301096 84.2137708,107.287517 84.2161614,106.047418 L84.2473011,71.5175726 C84.2473011,70.2453194 85.2843457,69.2204621 86.5489174,69.2412578 L89.3295382,69.28813 C90.5653697,69.3087663 91.5569089,70.3221057 91.5569089,71.565804 C91.5569089,78.4312203 91.5569089,99.1328105 91.5569089,106.111007 C91.5569089,107.388059 90.5126792,108.414116 89.2433174,108.387001" id="Fill-169" fill="#E5F0F7"></path>
            <path d="M99.1898446,108.387001 L96.3780886,108.327252 C95.1446521,108.301096 94.160298,107.287757 94.160298,106.047658 L94.1914333,62.6269173 C94.1938283,61.3544241 95.2308729,60.3293268 96.4954446,60.3501226 L99.2736704,60.3969948 C100.509502,60.417871 101.501041,61.4295307 101.501041,62.6732291 C101.501041,70.6940394 101.501041,97.9491014 101.501041,106.109327 C101.501041,107.386619 100.459206,108.414116 99.1898446,108.387001" id="Fill-170" fill="#E5F0F7"></path>
            <path d="M109.133977,108.387525 L106.322221,108.327252 C105.091179,108.301096 104.10443,107.287997 104.106821,106.047898 L104.137961,56.0160956 C104.137961,54.7433625 105.175005,53.7180252 106.441972,53.7390538 L109.220198,53.7859331 C110.456029,53.8065695 111.447568,54.8184691 111.447568,56.0621674 C111.447568,64.8767563 111.447568,97.1402056 111.447568,106.109087 C111.447568,107.386379 110.403339,108.414116 109.133977,108.387525" id="Fill-171" fill="#D0E0EA"></path>
            <path d="M119.080504,108.387001 L116.268748,108.327252 C115.037707,108.301096 114.050957,107.287517 114.050957,106.047418 L114.082093,70.5063929 C114.084488,69.2338997 115.121532,68.2090423 116.386104,68.229838 L119.16433,68.2767103 C120.402556,68.2973466 121.394095,69.3109259 121.394095,70.5543843 C121.394095,77.5575361 121.394095,98.9921955 121.394095,106.110767 C121.394095,107.388059 120.349866,108.414116 119.080504,108.387001" id="Fill-172" fill="#E5F0F7"></path>
            <path d="M129.024636,108.387001 L126.215275,108.327252 C124.981839,108.301096 123.997485,107.287997 123.997485,106.047658 L124.02862,58.8859841 C124.031015,57.6134909 125.06806,56.5883936 126.332631,56.6091894 L129.110857,56.6560616 C130.346688,56.6766979 131.338228,57.6902772 131.338228,58.9337356 C131.338228,67.4126243 131.338228,97.4903032 131.338228,106.111247 C131.338228,107.388539 130.293998,108.414116 129.024636,108.387001" id="Fill-173" fill="#E5F0F7"></path>
            <path d="M138.971163,108.387526 L136.159407,108.327252 C134.925971,108.301096 133.941617,107.287997 133.941617,106.048138 L133.975147,44.7232285 C133.975147,43.4504953 135.012192,42.4249181 136.279158,42.4459467 L139.057384,42.492826 C140.293216,42.5134624 141.284755,43.5268017 141.284755,44.7702601 C141.284755,54.8400652 141.284755,95.8679524 141.284755,106.110767 C141.284755,107.387819 140.240525,108.414116 138.971163,108.387526" id="Fill-174" fill="#E5F0F7"></path>
            <path d="M149.051812,108.387526 L146.240056,108.327252 C145.006619,108.301096 144.022265,107.288237 144.022265,106.048138 L144.055796,35.2062848 C144.055796,33.9335516 145.09284,32.9082144 146.357412,32.9290102 L149.135638,32.9756424 C150.373864,32.9965187 151.365403,34.0091382 151.365403,35.2528365 C151.365403,46.296628 151.365403,94.8735696 151.365403,106.110527 C151.365403,107.387579 150.321174,108.414116 149.051812,108.387526" id="Fill-175" fill="#D0E0EA"></path>
            <path d="M171.914694,14.6685855 L160.301231,14.6685855 C159.398308,14.6685855 158.667826,13.9355161 158.667826,13.0311173 L158.667826,13.0248784 C158.667826,12.1204796 159.398308,11.3874103 160.301231,11.3874103 L171.914694,11.3874103 C172.817617,11.3874103 173.548099,12.1204796 173.548099,13.0248784 L173.548099,13.0311173 C173.548099,13.9355161 172.817617,14.6685855 171.914694,14.6685855" id="Fill-176" fill="#D0E0EA"></path>
            <path d="M184.893319,14.6685855 L179.391953,14.6685855 C178.48903,14.6685855 177.758548,13.9355161 177.758548,13.0311173 L177.758548,13.0248784 C177.758548,12.1204796 178.48903,11.3874103 179.391953,11.3874103 L184.893319,11.3874103 C185.796243,11.3874103 186.526724,12.1204796 186.526724,13.0248784 L186.526724,13.0311173 C186.526724,13.9355161 185.796243,14.6685855 184.893319,14.6685855" id="Fill-177" fill="#D0E0EA"></path>
            <path d="M185.089711,21.8872188 L160.626954,21.8872188 C159.724031,21.8872188 158.993549,21.1541495 158.993549,20.2497507 L158.993549,20.2435118 C158.993549,19.339113 159.724031,18.6060436 160.626954,18.6060436 L185.089711,18.6060436 C185.990239,18.6060436 186.723116,19.339113 186.723116,20.2435118 L186.723116,20.2497507 C186.723116,21.1541495 185.990239,21.8872188 185.089711,21.8872188" id="Fill-178" fill="#D0E0EA"></path>
            <path d="M185.415434,29.1060921 L166.135505,29.1060921 C165.234977,29.1060921 164.5021,28.3727828 164.5021,27.468384 L164.5021,27.4621451 C164.5021,26.5577463 165.234977,25.824677 166.135505,25.824677 L185.415434,25.824677 C186.318357,25.824677 187.048839,26.5577463 187.048839,27.4621451 L187.048839,27.468384 C187.048839,28.3727828 186.318357,29.1060921 185.415434,29.1060921" id="Fill-179" fill="#D0E0EA"></path>
            <path d="M182.177364,36.3247254 L161.280795,36.3247254 C160.377872,36.3247254 159.644995,35.5914161 159.644995,34.6872573 L159.644995,34.6807785 C159.644995,33.7763797 160.377872,33.0433103 161.280795,33.0433103 L182.177364,33.0433103 C183.080287,33.0433103 183.813164,33.7763797 183.813164,34.6807785 L183.813164,34.6872573 C183.813164,35.5914161 183.080287,36.3247254 182.177364,36.3247254" id="Fill-180" fill="#D0E0EA"></path>
            <path d="M184.953195,43.3480336 L166.283997,43.3480336 C165.381073,43.3480336 164.650592,42.6147243 164.650592,41.7105655 L164.650592,41.7040866 C164.650592,40.7996878 165.381073,40.0666185 166.283997,40.0666185 L184.953195,40.0666185 C185.856118,40.0666185 186.588995,40.7996878 186.588995,41.7040866 L186.588995,41.7105655 C186.588995,42.6147243 185.856118,43.3480336 184.953195,43.3480336" id="Fill-181" fill="#D0E0EA"></path>
            <path d="M137.416785,47.6617447 C137.423979,42.0824992 141.929016,37.5396289 147.475887,37.515054 C153.022759,37.4906776 157.513425,41.993715 157.506249,47.5727206 C157.499055,53.1519661 152.996413,57.6948364 147.449542,57.7194114 C141.900276,57.7437877 137.409609,53.2409903 137.416785,47.6617447" id="Fill-182" fill="#FFFFFF"></path>
            <path d="M137.776043,47.6622246 C137.773652,50.2712796 138.781957,52.7176435 140.616544,54.5504369 C142.431971,56.3628338 144.841363,57.3593762 147.404037,57.3596162 C147.418407,57.3596162 147.432777,57.3593762 147.447147,57.3593762 C152.788047,57.3358604 157.139802,52.945363 157.147004,47.5724806 C157.151777,44.9631857 156.141078,42.5168218 154.306491,40.6840284 C152.493459,38.8716315 150.084066,37.8750891 147.521393,37.8750891 C147.507023,37.8750891 147.492652,37.8750891 147.478282,37.8750891 C142.134988,37.8988449 137.783232,42.2891023 137.776043,47.6622246 Z M147.404037,58.0794878 C144.647366,58.0794878 142.060742,57.0083188 140.108799,55.060346 C138.137696,53.091017 137.055146,50.4632454 137.057537,47.6612648 C137.064726,41.8936528 141.737414,37.1806529 147.473492,37.1552174 C147.490257,37.1552174 147.504628,37.1552174 147.521393,37.1552174 C150.275668,37.1552174 152.864687,38.2261465 154.814235,40.1741193 C156.785339,42.1434483 157.870284,44.7712199 157.865509,47.5734405 C157.858309,53.3410524 153.18562,58.0538124 147.449542,58.0792479 C147.435172,58.0792479 147.418407,58.0794878 147.404037,58.0794878 L147.404037,58.0794878 Z" id="Fill-183" fill="#000000"></path>
            <path d="M152.558124,42.9273886 L149.497286,44.7364261 C149.339215,44.8300094 149.334425,45.0589286 149.487706,45.1589908 L149.940365,45.4517386 C150.055326,45.5258854 150.088857,45.6792181 150.014611,45.7943976 L148.596758,48.0200009 C148.522512,48.1354203 148.369231,48.1690143 148.25427,48.0948675 L145.62214,46.3964502 C145.507179,46.3225434 145.353898,46.3561374 145.282047,46.4715569 L142.113433,51.4093967 C142.039187,51.5248162 142.072717,51.6781488 142.187678,51.7520557 L143.150477,52.373065 C143.265438,52.4469718 143.41872,52.4136177 143.49057,52.2981983 L145.775422,48.7465914 C145.849667,48.6311719 146.002949,48.5975779 146.11791,48.6714847 L148.750039,50.3694221 C148.865,50.4433289 149.015887,50.4099749 149.090132,50.2945554 L151.391749,46.6860786 C151.463599,46.5706592 151.616881,46.5373051 151.731842,46.6114519 L152.220426,46.9274756 C152.376103,47.0280177 152.582075,46.9269957 152.59884,46.7415087 L152.929353,43.1639864 C152.946118,42.9626623 152.730566,42.8246869 152.558124,42.9273886" id="Fill-184" fill="#026BB0"></path>
            <path d="M37.6186138,107.321591 L37.6186138,113.818433 C37.6186138,123.129493 44.9282215,130.677588 53.9430851,130.677588 C62.9603437,130.677588 70.2699515,138.225682 70.2699515,147.536743 C70.2699515,148.366515 69.6017403,149.039115 68.7778527,149.039115 L25.559677,149.039115 C12.0421716,149.039115 1.08494506,137.723452 1.08494506,123.7649 L1.08494506,106.474542 C1.08494506,100.922891 5.44388547,96.4222536 10.8183153,96.4222536 L27.0613559,96.4222536 C32.8908399,96.4222536 37.6186138,101.302024 37.6186138,107.321591" id="Fill-185" fill="#026BB0"></path>
            <polygon id="Fill-186" fill="#026BB0" points="37.6808844 196.985689 42.2290315 196.985689 42.2290315 147.583535 37.6808844 147.583535"></polygon>
            <polyline id="Fill-187" fill="#026BB0" points="61.2742481 196.253819 41.1440865 194.475976 39.2975243 194.475976 18.7482338 196.253819 18.7482338 197.664768 61.2742481 197.664768 61.2742481 196.253819"></polyline>
            <polyline id="Fill-188" fill="#FFFFFF" points="32.6369676 149.90968 26.4721804 154.05926 29.5952894 157.770439 36.6941352 154.28386 32.6369676 149.90968"></polyline>
            <path d="M27.0038754,154.134127 L29.6886953,157.323638 L36.1025647,154.17396 L32.5818821,150.379756 L27.0038754,154.134127 Z M29.5952894,158.130375 C29.4923034,158.130375 29.3893175,158.085743 29.3198618,158.002477 L26.1967529,154.291299 C26.1296923,154.213073 26.100952,154.110371 26.1153221,154.009109 C26.1296923,153.908087 26.1847778,153.817623 26.2709986,153.760274 L32.4357857,149.610933 C32.5842771,149.512311 32.7806689,149.535107 32.90042,149.664924 L36.9575876,154.038864 C37.0366234,154.122129 37.0701537,154.237309 37.0485985,154.349129 C37.0270433,154.461189 36.9551926,154.556932 36.8546017,154.607083 L29.7533609,158.093661 C29.7030654,158.118377 29.6479799,158.130375 29.5952894,158.130375 L29.5952894,158.130375 Z" id="Fill-189" fill="#000000"></path>
            <path d="M27.5307802,152.188314 C26.6015116,152.761812 24.8986508,153.855297 23.4999579,154.991494 C22.6233797,155.704647 22.4269879,156.971381 23.0305335,157.93145 C24.7309993,160.646086 28.9558185,166.496963 33.2740435,170.883382 C33.5710262,171.183568 34.2775578,171.562461 35.2140115,171.052551 C38.4257363,169.304463 34.9936694,163.827439 32.6920531,156.793573 L31.0370928,156.608326 C30.1605146,156.509464 29.4252428,155.890614 29.1761605,155.037326 L28.4432837,152.542251 C28.3283226,152.15088 27.8756634,151.974992 27.5307802,152.188314" id="Fill-190" fill="#026BB0"></path>
            <path d="M27.719987,152.494739 C26.8242487,153.046401 25.1189929,154.140606 23.727485,155.271044 C22.9946082,155.866618 22.8245616,156.927949 23.3347013,157.740204 C25.0902526,160.541705 29.2528012,166.286521 33.5303109,170.630467 C33.6309018,170.731489 34.1697818,171.210683 35.0415699,170.736048 C37.1707446,169.576814 35.915753,166.34771 34.1769669,161.878507 C33.6165317,160.439243 32.9842458,158.816412 32.4214156,157.125674 L30.9987724,156.965862 C29.9737029,156.850683 29.12347,156.133691 28.8312773,155.138588 L28.0984005,152.643753 C28.0744503,152.564807 28.0193648,152.502898 27.9427241,152.473623 C27.8996137,152.457066 27.8109978,152.437629 27.719987,152.494739 Z M34.3110881,171.661083 C33.755443,171.661323 33.3003887,171.422565 33.0201711,171.136057 C28.7019461,166.750838 24.4986821,160.951072 22.7263657,158.122936 C22.0222292,157.002816 22.2593364,155.536437 23.2748258,154.712184 C24.697469,153.55607 26.4338601,152.442428 27.3415735,151.881648 C27.6026309,151.721357 27.9139838,151.692082 28.1989914,151.801503 C28.4863941,151.911643 28.7019461,152.144882 28.7881669,152.440749 L29.5186487,154.935824 C29.7294106,155.651616 30.3425363,156.168004 31.0778081,156.25031 L32.9602956,156.461472 L33.0321463,156.681273 C33.6069516,158.432241 34.2655827,160.124419 34.8451781,161.617193 C36.6486298,166.248368 38.071273,169.906516 35.3840581,171.368815 C35.0032495,171.576858 34.6392062,171.661083 34.3110881,171.661083 L34.3110881,171.661083 Z" id="Fill-191" fill="#000000"></path>
            <path d="M23.7107198,154.822084 C23.7107198,154.822084 23.5694135,154.936064 23.4999579,154.991494 C22.6233797,155.704647 22.4269879,156.971381 23.0305335,157.93145 C24.7309993,160.646086 28.9558185,166.496963 33.2740435,170.883382 C33.5710262,171.183568 34.2775578,171.562461 35.2140115,171.052551 C35.5014141,170.896099 35.920543,170.496091 35.920543,170.496091 L35.6283503,170.173588 C31.4610117,165.577207 27.6337662,160.67992 24.1801442,155.52084 L23.7107198,154.822084" id="Fill-192" fill="#FFFFFF"></path>
            <path d="M23.6340791,155.35191 C22.9802381,155.959002 22.8461168,156.963703 23.3347013,157.740204 C25.0902526,160.541705 29.2528012,166.286521 33.5303109,170.630467 C33.6309018,170.731489 34.1697818,171.210683 35.0415699,170.736048 C35.1469509,170.679418 35.2858621,170.571677 35.4104033,170.468016 L35.3625029,170.415465 C31.1975592,165.821484 27.3343884,160.877645 23.8807664,155.721444 L23.6340791,155.35191 Z M34.3110881,171.661083 C33.755443,171.661083 33.3003887,171.422565 33.0201711,171.136057 C28.7019461,166.750838 24.4986821,160.951072 22.7263657,158.122936 C22.0222292,157.002816 22.2593364,155.536437 23.2748258,154.712184 C23.3418864,154.656034 23.4879828,154.540375 23.4879828,154.540375 C23.5670185,154.478226 23.6676094,154.45111 23.7658053,154.466468 C23.8663963,154.481825 23.9526171,154.538215 24.0100976,154.62148 L24.4771269,155.320236 C27.9115888,160.447642 31.7532044,165.363405 35.8941978,169.931471 L36.1863905,170.254214 C36.3181167,170.398908 36.3109317,170.622308 36.1672303,170.756924 C36.1217249,170.801316 35.704991,171.195086 35.3840581,171.368815 C35.0032495,171.577098 34.6392062,171.661083 34.3110881,171.661083 L34.3110881,171.661083 Z" id="Fill-193" fill="#000000"></path>
            <path d="M33.8129235,161.191029 C33.8033434,161.191029 33.7937633,161.190789 33.7841832,161.189829 L30.6490992,160.941234 C30.4503123,160.925876 30.304216,160.752387 30.3185861,160.554183 C30.3353512,160.356218 30.5077928,160.207924 30.7041847,160.223762 L33.8392687,160.472357 C34.0380556,160.487954 34.186547,160.661444 34.1697818,160.859648 C34.1554117,161.048015 33.9973402,161.191029 33.8129235,161.191029" id="Fill-194" fill="#000000"></path>
            <path d="M31.8106849,163.37152 C31.6118981,163.37152 31.4514051,163.210989 31.4514051,163.012544 C31.4490366,162.81386 31.6095031,162.652129 31.8082899,162.651649 L34.8691283,162.64325 C35.0798902,162.64349 35.2307766,162.803302 35.2307766,163.001986 C35.2307766,163.200911 35.0703101,163.362642 34.8715233,163.363122 L31.8106849,163.37152" id="Fill-195" fill="#000000"></path>
            <path d="M76.6431056,122.634461 C79.1746441,122.6443 87.7607987,124.073725 88.012276,131.952481 C88.0961018,134.638082 90.2420417,139.591759 74.1834178,142.734959 C55.0376103,146.482371 40.7968082,153.773231 37.5874785,155.507882 C37.1204492,155.760317 36.5743841,155.815987 36.0666394,155.659535 C34.4595795,155.165223 31.0706231,153.786429 30.6467041,150.868309 C30.5509032,150.213946 30.8407009,149.562222 31.3723959,149.174211 L35.3265775,146.293524 L31.5783678,144.283403 C27.2984631,141.988932 23.9166917,138.212005 22.3814825,133.58419 C21.0067398,129.444688 20.3265535,122.36115 20.3265535,122.36115 L76.6431056,122.634461" id="Fill-196" fill="#000000"></path>
            <polyline id="Fill-197" fill="#FFFFFF" points="147.281891 197.962315 131.04843 141.576925 114.812574 197.962315 110.920663 197.962315 128.758789 134.337416 133.333281 134.330937 151.173802 197.962315 147.281891 197.962315"></polyline>
            <path d="M79.5099472,183.707176 L79.5099472,183.707176 C80.1230728,186.017964 80.2787493,188.427614 79.9673964,190.798392 L89.1834419,189.256427 C86.9033807,188.39786 85.1574095,186.511796 84.4700382,184.163574 L83.9431333,182.371334 L79.5099472,183.707176" id="Fill-198" fill="#FFFFFF"></path>
            <path d="M79.9458412,183.952652 C80.460771,186.057077 80.6068673,188.210213 80.3793402,190.364309 L87.9787457,189.092776 C86.1321836,188.0624 84.7287006,186.323909 84.125155,184.265076 L83.701236,182.820294 L79.9458412,183.952652 Z M79.9673964,191.158328 C79.8739905,191.158328 79.7853747,191.122574 79.7159191,191.057306 C79.6344883,190.97788 79.596168,190.86438 79.6105381,190.75136 C79.9171009,188.415137 79.7686096,186.076274 79.165064,183.799799 C79.1147685,183.612153 79.2225445,183.418747 79.4069612,183.362837 L83.8401473,182.026515 C83.9311582,181.99892 84.0293541,182.009238 84.1131798,182.05459 C84.1994006,182.100422 84.2616712,182.177688 84.2880165,182.269832 L84.8149213,184.062073 C85.4663674,186.289356 87.147673,188.105112 89.310378,188.919527 C89.4612644,188.976877 89.5570653,189.129249 89.5403002,189.291221 C89.52593,189.453192 89.4037839,189.584448 89.2433174,189.611563 L80.0248769,191.153289 C80.0057168,191.156648 79.9865566,191.158328 79.9673964,191.158328 L79.9673964,191.158328 Z" id="Fill-199" fill="#000000"></path>
            <path d="M79.6273033,187.830361 C79.3303205,188.982636 78.7195898,192.224458 78.4776926,194.17243 C78.3244112,195.394773 79.1195585,196.53217 80.3098846,196.827317 C83.6677057,197.657569 91.6551048,197.453606 98.3108715,197.609578 C98.7659257,197.621576 99.6017884,197.381618 99.9514617,196.273016 C101.153763,192.473773 93.9734863,191.48203 86.9105658,187.730779 C86.9105658,187.730779 86.503412,188.076077 85.8974714,188.405778 C84.884377,188.95816 83.2174415,188.909209 82.2139272,188.335471 L80.6068673,187.415955 C80.2236638,187.197114 79.7398693,187.401557 79.6273033,187.830361" id="Fill-200" fill="#026BB0"></path>
            <path d="M79.9769765,187.920345 C79.6752037,189.087017 79.0668681,192.350435 78.8345509,194.217302 C78.7052197,195.253198 79.3758259,196.225025 80.3937104,196.47698 C82.8533982,197.086471 88.0314362,197.132063 93.0370326,197.177655 C94.7949789,197.194452 96.6128007,197.211249 98.3204516,197.249642 C98.476128,197.254441 99.2760654,197.218448 99.6089735,196.165035 C100.30353,193.970147 97.7384612,192.803235 93.1424136,190.929888 C91.2407659,190.154827 89.092431,189.279943 86.9512812,188.157663 C86.7644694,188.296838 86.4555116,188.512319 86.069913,188.722282 C84.9658077,189.322655 83.157566,189.289541 82.0343006,188.648135 L80.4272407,187.728379 C80.3434149,187.680148 80.242824,187.674149 80.1542081,187.711822 C80.0655923,187.749495 80.0009267,187.825562 79.9769765,187.920345 Z M98.3420068,197.969514 C98.3276366,197.969514 98.3156615,197.969514 98.3036864,197.969514 C96.6008256,197.931121 94.7853988,197.914324 93.0322425,197.897527 C87.7512186,197.849535 82.7623873,197.803943 80.2236638,197.175255 C78.848921,196.834516 77.9459977,195.52435 78.1208343,194.128038 C78.3627315,192.185345 78.9710672,188.937764 79.280025,187.740137 C79.3614558,187.426273 79.5770078,187.174318 79.8763856,187.04858 C80.1733683,186.922843 80.5038814,186.942999 80.784099,187.10329 L82.3911589,188.022807 C83.3060574,188.545673 84.8316865,188.576388 85.7274248,188.089755 C86.290255,187.783089 86.6758536,187.458907 86.6806436,187.455548 L86.8650604,187.299336 L87.0806124,187.412835 C89.2600826,188.570389 91.465898,189.469749 93.4130511,190.262807 C97.7767815,192.04185 101.223218,193.44704 100.29395,196.380997 C99.9227214,197.556787 99.019798,197.969514 98.3420068,197.969514 L98.3420068,197.969514 Z" id="Fill-201" fill="#000000"></path>
            <path d="M78.2932759,195.056433 C78.2884858,195.090027 78.2836958,195.114023 78.2836958,195.123621 C78.1304144,196.347403 79.3063703,197.072074 80.4248456,197.568785 C83.8138021,199.070917 97.5540445,197.835138 97.5540445,197.835138 C97.5540445,197.835138 99.3958165,197.854334 99.8844011,196.743332 C99.9562517,196.580161 99.989782,196.337805 100.006547,196.13624 C100.025707,195.917879 100.004152,195.699518 99.9514617,195.488356 L99.8293156,194.991644 C97.9588032,195.737911 89.5426952,196.30661 83.4353886,195.545946 C80.8727148,195.226803 79.3901961,194.115561 78.5351731,193.691796 C78.5351731,193.691796 78.415422,194.357917 78.2932759,195.056433" id="Fill-202" fill="#FFFFFF"></path>
            <path d="M78.6477392,195.118822 L78.6381591,195.169213 C78.5399632,195.963471 79.1363237,196.601757 80.570942,197.237644 C83.8377523,198.686986 97.3839979,197.489599 97.5205141,197.477601 C97.5324893,197.475202 97.5444644,197.475202 97.5564395,197.475202 C98.0043086,197.482401 99.23535,197.328828 99.556283,196.599358 C99.5754432,196.553766 99.6233436,196.41699 99.6496889,196.107446 C99.664059,195.934676 99.6472939,195.754708 99.6041835,195.574741 L99.5730482,195.454762 C97.0965952,196.145839 89.1810468,196.625753 83.3922782,195.903482 C81.2463383,195.637129 79.8452503,194.839032 78.9159817,194.311126 C78.8776613,194.28881 78.8393409,194.266734 78.8010206,194.245377 C78.7579102,194.490134 78.7028247,194.800639 78.6477392,195.118822 Z M87.4638159,198.674988 C84.4604581,198.674988 81.6199617,198.490221 80.2811443,197.897527 C79.1794341,197.408014 77.7376307,196.58736 77.9268375,195.080429 C77.9268375,195.068431 77.9316275,195.037236 77.9388126,194.994044 C78.0633538,194.295049 78.1807098,193.628447 78.1807098,193.628447 C78.202265,193.517107 78.2717207,193.421364 78.3723116,193.370493 C78.4752976,193.319383 78.5926537,193.318903 78.6956396,193.369294 C78.8656862,193.454238 79.0548929,193.561499 79.27284,193.685077 C80.1494181,194.184908 81.4762604,194.938854 83.480894,195.190809 C89.523535,195.941875 97.8630023,195.389973 99.6951943,194.656664 C99.7933902,194.618031 99.9011662,194.62307 99.9945721,194.671062 C100.085583,194.718333 100.152644,194.803758 100.178989,194.90478 L100.301135,195.401971 C100.363406,195.658726 100.384961,195.91548 100.365801,196.165035 C100.339455,196.472181 100.28916,196.716937 100.212519,196.889706 C99.659269,198.149482 97.7935467,198.195073 97.5684146,198.195073 C97.1061753,198.238266 92.0933938,198.674988 87.4638159,198.674988 L87.4638159,198.674988 Z" id="Fill-203" fill="#000000"></path>
            <path d="M87.6793679,191.218317 C87.5715919,191.218317 87.4662109,191.171765 87.3967553,191.081781 C87.2722141,190.925809 87.2985594,190.699529 87.4542358,190.575952 L89.4397092,189.002792 C89.5953857,188.879694 89.8229128,188.906089 89.9450589,189.062061 C90.067205,189.218034 90.0408598,189.444073 89.8851834,189.567651 L87.8997099,191.140811 C87.8350444,191.192882 87.7560086,191.218317 87.6793679,191.218317" id="Fill-204" fill="#000000"></path>
            <path d="M90.380953,192.258292 C90.273177,192.258292 90.167796,192.21078 90.0959453,192.119596 C89.9737992,191.962664 90.0025394,191.736625 90.1582159,191.614486 L91.897002,190.257528 C92.0526785,190.13539 92.2778105,190.163465 92.3999567,190.320157 C92.5221028,190.476849 92.4957576,190.703129 92.3376861,190.825267 L90.601295,192.182225 C90.5342344,192.233336 90.4575937,192.258292 90.380953,192.258292" id="Fill-205" fill="#000000"></path>
            <path d="M60.1174524,134.939948 C60.1174524,134.939948 67.1324724,136.492711 72.3560158,140.112946 C76.8802128,143.250147 81.653492,149.249798 85.9980623,180.693073 C86.290255,182.803977 84.4915934,184.315707 83.2605519,184.603416 C81.5193708,185.011103 80.0847525,184.851052 78.6118138,183.893143 C76.1018306,182.259994 66.6199377,158.075664 60.9700803,152.943459 C55.3202229,147.811254 31.4514316,146.714169 26.8458039,140.182294 C22.2425712,133.650658 33.544681,133.650658 33.544681,133.650658 L60.1174524,134.939948" id="Fill-206" fill="#000000"></path>
            <path d="M47.1196669,151.693522 C46.9879406,151.693522 46.8610045,151.619135 46.7987339,151.491718 C46.7101181,151.31319 46.7843638,151.097708 46.9615954,151.010124 C47.4238347,150.784084 47.8669138,150.565003 48.2956228,150.352641 C53.9790105,147.548261 57.4062872,145.855123 67.7982886,144.032887 C67.9922854,143.998574 68.1790971,144.12959 68.2126274,144.325395 C68.2485528,144.52096 68.1168265,144.707887 67.9204347,144.741961 C57.6314193,146.546679 54.2376729,148.222301 48.6141607,150.998606 C48.1830567,151.210968 47.7399776,151.430289 47.2777383,151.656809 C47.2274429,151.681524 47.1723574,151.693522 47.1196669,151.693522" id="Fill-207" fill="#CADDFF"></path>
            <path d="M109.773448,128.70418 L65.6786939,128.70418 C64.7302651,128.70418 63.961463,127.933437 63.961463,126.982966 L63.961463,126.137357 L111.490679,126.137357 L111.490679,126.982966 C111.490679,127.933437 110.721877,128.70418 109.773448,128.70418" id="Fill-208" fill="#D0E0EA"></path>
            <path d="M64.3207163,126.497533 L64.3207163,126.982966 C64.3207163,127.733553 64.929052,128.344244 65.6786939,128.344244 L109.773448,128.344244 C110.520695,128.344244 111.131425,127.733553 111.131425,126.982966 L111.131425,126.497533 L64.3207163,126.497533 Z M109.773448,129.064115 L65.6786939,129.064115 C64.5338733,129.064115 63.6022097,128.130442 63.6022097,126.982966 L63.6022097,126.137597 C63.6022097,125.938673 63.7626762,125.777661 63.961463,125.777661 L111.490679,125.777661 C111.689466,125.777661 111.849932,125.938673 111.849932,126.137597 L111.849932,126.982966 C111.849932,128.130442 110.918268,129.064115 109.773448,129.064115 L109.773448,129.064115 Z" id="Fill-209" fill="#000000"></path>
            <path d="M111.490679,126.183669 L84.2952015,126.183669 L92.3400811,102.39143 C92.8574059,101.590932 93.7579343,101.105739 94.7279183,101.105739 L117.717736,101.105739 C118.759571,101.105739 119.432572,102.123637 119.092479,103.022517 C118.955963,103.379813 111.490679,126.183669 111.490679,126.183669" id="Fill-210" fill="#D0E0EA"></path>
            <path d="M84.7957612,125.823733 L111.232016,125.823733 C112.082249,123.222357 118.62545,103.239438 118.757176,102.89486 C118.874532,102.580996 118.829027,102.22322 118.632635,101.93815 C118.426663,101.637964 118.09136,101.465675 117.717736,101.465675 L94.7279183,101.465675 C93.8896605,101.465675 93.1232534,101.870482 92.6658041,102.551001 L84.7957612,125.823733 Z M111.490679,126.543605 L84.2952015,126.543605 C84.1778454,126.543605 84.0700694,126.487695 84.0030088,126.393631 C83.9359482,126.299088 83.916788,126.17815 83.9551084,126.068249 L91.999988,102.27601 C92.0095681,102.247935 92.0239382,102.22082 92.0383083,102.195864 C92.6250888,101.287866 93.6309981,100.745803 94.7279183,100.745803 L117.717736,100.745803 C118.330862,100.745803 118.881717,101.031352 119.224205,101.529263 C119.554718,102.008938 119.631359,102.61483 119.427782,103.150174 C119.303241,103.488754 114.405421,118.438569 111.833167,126.295969 C111.785266,126.443783 111.646355,126.543605 111.490679,126.543605 L111.490679,126.543605 Z" id="Fill-211" fill="#000000"></path>
            <polyline id="Fill-212" fill="#FFFFFF" points="109.763868 123.962385 87.3847802 123.962385 94.2800491 103.374054 116.594471 103.34358 109.763868 123.962385"></polyline>
            <polyline id="Fill-213" fill="#E5F0F7" points="93.3891008 121.380685 90.7737366 121.380685 91.5808591 118.975114 94.1866432 118.971514 93.3891008 121.380685"></polyline>
            <polyline id="Fill-214" fill="#E5F0F7" points="98.2414158 121.380685 95.4416349 121.380685 97.5492544 115.083007 100.33227 115.073649 98.2414158 121.380685"></polyline>
            <polyline id="Fill-215" fill="#026BB0" points="103.666141 121.380685 100.650808 121.380685 104.822937 108.927385 107.797554 108.908908 103.666141 121.380685"></polyline>
            <path d="M10.3273357,93.6790625 C11.5152668,91.0500911 14.6766961,89.3516739 17.1315938,88.3863259 C18.8296646,87.7190049 20.6307213,87.3557096 22.4533332,87.2839624 L28.8935479,87.0300877 C31.3268904,86.854439 34.193732,86.9676988 37.321631,87.5267991 C41.4793896,88.2694667 45.2084391,90.55122 47.8597287,93.8551911 C49.0596348,95.3494048 50.1158396,96.6432542 50.2020604,96.6694095 C53.6868177,101.587813 54.1562421,102.454058 56.6734104,104.289251 C60.8766744,107.353985 68.2341826,104.854831 68.2341826,104.854831 C70.6866854,104.486256 71.5752386,106.326488 72.0231078,107.349666 C72.5595927,108.578247 72.0398729,110.07702 71.5656585,111.039488 C71.2638857,111.655458 70.7465609,112.136093 70.1142751,112.395247 C66.9600308,113.688136 56.2303313,117.718458 51.3109557,114.914318 C47.2106777,112.577134 44.4564022,107.698564 42.2577718,105.302351 C42.0374297,105.059994 41.6398561,105.238762 41.6685963,105.567024 C42.1332306,110.950944 46.5448615,117.342205 47.886074,119.177158 C48.1279712,119.505419 48.4920146,119.717781 48.8943783,119.763853 L58.6037983,120.875815 C58.7355246,120.885653 58.8816209,120.941083 59.0253222,121.018829 C59.6623982,121.361008 60.076737,122.012252 60.1725379,122.732124 C60.3258193,123.881519 60.2276234,126.037535 59.8779501,126.732691 L59.5450421,127.391134 C59.2744046,127.922159 58.7379196,128.260979 58.1439541,128.270577 C52.9850762,128.355042 29.7294106,128.3632 23.4137371,128.327207 C17.6393385,128.294093 15.318562,125.430203 12.2361684,117.330447 C11.0123121,114.111901 7.15872137,100.696852 10.3273357,93.6790625" id="Fill-216" fill="#FFFFFF"></path>
            <path d="M10.6554538,93.8275961 C7.54192492,100.721327 11.4410211,114.22828 12.5714716,117.20231 C15.7760113,125.622889 18.1063679,127.936796 23.4161321,127.967271 C29.7892862,128.003505 53.0090265,127.994626 58.139164,127.910641 C58.5990083,127.903202 59.0133471,127.641649 59.2241091,127.228443 L59.5570172,126.56976 C59.861185,125.965308 59.9641709,123.888478 59.8156796,122.779636 C59.7318538,122.154307 59.3726005,121.614403 58.8552757,121.335813 C58.7043893,121.254707 58.6157734,121.23767 58.5750581,121.234791 L48.8536629,120.121389 C48.3531033,120.06428 47.8956541,119.797447 47.5962763,119.39 C46.2406937,117.53801 41.7835574,111.070203 41.309343,105.597978 C41.2829977,105.291553 41.4458593,105.013682 41.7260769,104.890344 C42.0038994,104.767726 42.3176473,104.833714 42.5236193,105.058554 C43.1678802,105.761149 43.8624367,106.679465 44.6001035,107.652012 C46.3963702,110.022789 48.6333209,112.973543 51.4881874,114.601413 C56.2590716,117.321329 66.8474648,113.345477 69.9777588,112.062186 C70.5310089,111.835426 70.9812731,111.415741 71.2447255,110.880397 C71.7093598,109.932565 72.1644141,108.575607 71.6925947,107.49388 C71.1297645,106.20339 70.2867167,104.924898 68.3180084,105.206368 C67.7144628,105.407452 60.6707025,107.647453 56.4626485,104.580319 C54.1562421,102.898459 53.5287463,102.009658 50.8918268,98.2684845 C50.5996341,97.8533585 50.2810962,97.4029588 49.933818,96.9115264 C49.723056,96.7190807 49.2177063,96.1196675 47.5795111,94.0807509 C44.9497767,90.8017354 41.2829977,88.6001278 37.2593604,87.881216 C34.404494,87.3713068 31.5208872,87.2014171 28.9198931,87.3893036 L22.4677033,87.6436583 C20.6522765,87.7154055 18.9015152,88.0777409 17.2633201,88.7213062 C14.8778779,89.6590591 11.7930893,91.3061255 10.6554538,93.8275961 Z M35.1924563,128.707299 C30.1700947,128.707299 25.7033783,128.7001 23.4113421,128.687143 C17.2058395,128.651629 14.8443476,125.194565 11.9008653,117.458584 C10.6722189,114.233559 6.75396262,100.720367 10.0016127,93.530529 C11.2398392,90.7890177 14.4922794,89.0375698 17.0022626,88.0513456 C18.7147035,87.3782656 20.5445005,86.9991332 22.438963,86.9245065 L28.8791777,86.6706317 C31.5280723,86.4789059 34.4739496,86.652395 37.3862966,87.1723823 C41.5799805,87.9217687 45.4000409,90.21504 48.1399463,93.6296313 C49.7901166,95.6843851 50.2523559,96.2146906 50.3792921,96.347147 L50.4247975,96.3610645 L50.4966482,96.4611267 C50.8535065,96.9659967 51.1792295,97.4281543 51.4786073,97.8531185 C54.0604412,101.516066 54.6735669,102.386151 56.8865674,103.998183 C60.8910445,106.919423 68.0473709,104.538567 68.1192216,104.514091 L68.1814921,104.498974 C70.9836681,104.076889 71.9776023,106.349764 72.3512258,107.205212 C72.9356112,108.540334 72.4206814,110.113733 71.8889865,111.19834 C71.5464983,111.891576 70.966903,112.435079 70.2507913,112.728307 C67.848584,113.712132 61.1640771,116.236482 55.8327576,116.236722 C54.041281,116.236722 52.4030858,115.951653 51.1337241,115.226982 C48.1495264,113.526405 45.8646752,110.510622 44.0276932,108.087054 C43.3163716,107.147142 42.6409753,106.25834 42.0302447,105.58526 C42.5116441,110.86288 46.8538194,117.156478 48.1758717,118.964316 C48.3554983,119.210512 48.6333209,119.371763 48.9350937,119.406317 L58.6445137,120.518279 C58.8025852,120.529797 58.9893969,120.590266 59.1953688,120.701606 C59.9162705,121.089377 60.4144351,121.830365 60.5270012,122.684373 C60.6778876,123.81841 60.6060369,126.086006 60.1964881,126.895142 L59.86358,127.553585 C59.535462,128.206028 58.8792259,128.618515 58.1511391,128.630513 C54.8627737,128.684263 44.1450493,128.707299 35.1924563,128.707299 L35.1924563,128.707299 Z" id="Fill-217" fill="#000000"></path>
            <path d="M62.3975135,128.516053 L73.666093,128.516053 L73.666093,128.509334 C73.666093,126.587757 72.1117236,125.029715 70.1933108,125.029715 L65.8702957,125.029715 C63.9518829,125.029715 62.3975135,126.587757 62.3975135,128.509334 L62.3975135,128.516053" id="Fill-218" fill="#026BB0"></path>
            <path d="M62.775927,128.156117 L73.2876795,128.156117 C73.1080528,126.598795 71.7907906,125.38965 70.1933108,125.38965 L65.8702957,125.38965 C64.2728159,125.38965 62.9531587,126.601674 62.775927,128.156117 Z M73.666093,128.875989 L62.3975135,128.875989 C62.1987267,128.875989 62.0382602,128.714738 62.0382602,128.516053 L62.0382602,128.509334 C62.0382602,126.392192 63.7578861,124.669779 65.8702957,124.669779 L70.1933108,124.669779 C72.3081154,124.669779 74.0253463,126.392192 74.0253463,128.509334 C74.0253463,128.708019 73.8648798,128.875989 73.666093,128.875989 L73.666093,128.875989 Z" id="Fill-219" fill="#000000"></path>
            <path d="M57.5188533,123.186603 C57.7176401,122.794753 58.0529432,122.484488 58.464887,122.335715 C58.7594748,122.229414 59.0492725,122.088559 59.327095,121.940985 L63.1615256,119.897029 C63.8800323,119.543572 64.9074968,120.367346 65.6523487,120.613302 C67.9012745,121.355969 72.5619877,123.105018 72.1763892,124.748005 C71.7644454,126.520569 67.7599682,125.681678 66.337325,125.324142 C66.013997,125.242557 63.0705147,126.313006 62.1412461,126.383793 C60.8551192,126.481456 60.5581365,126.153434 59.9306406,125.821573 C59.643238,125.6704 59.3247,125.602253 58.9798168,125.599853 C58.4505169,125.596494 57.9451672,125.373093 57.6146542,124.957487 L57.6050741,124.947649 C57.2410307,124.489331 57.1763651,123.857763 57.4422126,123.334657 L57.5188533,123.186603" id="Fill-220" fill="#FFFFFF"></path>
            <path d="M63.5567043,120.170341 C63.4704835,120.170341 63.3890527,120.185458 63.3195971,120.220012 L59.4947466,122.258688 C59.1474684,122.443695 58.8600657,122.575672 58.5870332,122.674294 C58.2661002,122.789474 58.0026478,123.029191 57.8397863,123.350014 L57.8397863,123.350254 L57.7631455,123.498308 C57.5619637,123.894717 57.6098641,124.375591 57.8876867,124.723289 C58.1487441,125.052271 58.5463178,125.237038 58.9822118,125.239917 C59.3965507,125.242797 59.7725692,125.331341 60.0982922,125.50315 C60.2012781,125.55786 60.297079,125.612331 60.3880899,125.665121 C60.8263789,125.916836 61.1425219,126.098724 62.1149009,126.024817 C62.55798,125.990983 63.6141848,125.675919 64.4620227,125.422765 C65.8295803,125.014357 66.2032038,124.919094 66.4259409,124.975004 C68.7922228,125.570098 70.6675252,125.641845 71.4459074,125.16697 C71.6542743,125.040033 71.7788155,124.876142 71.8267159,124.665939 C72.0422679,123.743544 69.5753951,122.286763 65.5397826,120.955241 C65.2907003,120.873415 65.034433,120.743599 64.7614004,120.606103 C64.3518516,120.39926 63.8991924,120.170341 63.5567043,120.170341 Z M61.7197222,126.760766 C60.8503292,126.760766 60.4503605,126.530887 60.0312316,126.28949 C59.9474058,126.240779 59.85879,126.190388 59.7629891,126.139997 C59.537857,126.020738 59.2791946,125.961948 58.9774218,125.959789 C58.3235807,125.95547 57.7248252,125.67208 57.3320415,125.182087 C56.8721973,124.60451 56.7931615,123.81913 57.1236746,123.171246 L57.1979203,123.023192 C57.4446076,122.538719 57.8517614,122.174463 58.3427409,121.997135 C58.5822431,121.910511 58.8409055,121.791492 59.1570485,121.623282 L62.991479,119.579326 C63.6668753,119.246985 64.4213073,119.627797 65.0847284,119.963258 C65.3338107,120.088275 65.5661279,120.206334 65.7649147,120.271603 C70.5860944,121.862759 72.8613655,123.396566 72.5284574,124.83007 C72.4326565,125.232238 72.1955494,125.552341 71.8195309,125.781741 C70.5238239,126.573599 67.8030786,126.061771 66.2774495,125.679999 C66.0786626,125.691277 65.2978854,125.924275 64.6655995,126.112642 C63.6932205,126.40299 62.6897062,126.703176 62.1675914,126.742529 C62.0047299,126.755007 61.8562385,126.760766 61.7197222,126.760766 L61.7197222,126.760766 Z" id="Fill-221" fill="#000000"></path>
            <path d="M85.6675493,107.857655 C85.8831013,107.595862 85.7873004,107.195853 85.4783425,107.059558 L78.6716894,104.07089 C77.7064954,103.646886 76.6215504,103.606093 75.6419863,103.963389 C74.636077,104.330764 73.1894836,104.815238 71.5297332,105.237082 C67.2450385,106.325528 66.9241055,111.993318 71.3548966,109.811147 C72.7655646,109.116711 73.6134025,108.591205 73.6134025,108.591205 C73.6014274,108.594804 75.2228574,110.774575 77.8166665,109.791231 C78.9998074,109.342991 79.7542394,108.807646 80.2021086,108.406917 C80.5781271,108.068098 81.1026369,107.9426 81.5912215,108.070977 C82.7647823,108.378123 84.4868033,109.283241 85.6675493,107.857655" id="Fill-222" fill="#FFFFFF"></path>
            <path d="M77.016729,104.080249 C76.5928101,104.080249 76.1712862,104.153676 75.7665275,104.301729 C74.8204937,104.647028 73.3331849,105.150218 71.618349,105.58574 C69.8316624,106.039499 68.8041979,107.339108 68.5766708,108.425874 C68.4545247,109.01185 68.5694857,109.490804 68.8904187,109.7406 C69.3311028,110.084218 70.1741506,109.992075 71.1968251,109.487925 C72.5715678,108.810765 73.4146157,108.290298 73.4241957,108.285259 C73.5535269,108.204873 73.7187835,108.214952 73.8361396,108.310215 C73.8696699,108.33637 73.8960151,108.367085 73.9175703,108.401398 C74.0061861,108.517058 75.4216443,110.314337 77.6897303,109.454571 C78.844131,109.017609 79.5626377,108.497861 79.9626064,108.138885 C80.4296357,107.71872 81.0738967,107.562988 81.6822323,107.722799 C81.8834142,107.77559 82.0941761,107.842778 82.3169132,107.914045 C83.6293854,108.33517 84.6161345,108.56121 85.3897267,107.627776 L85.3897267,107.628016 C85.4328371,107.577385 85.425652,107.522915 85.420862,107.49508 C85.4136769,107.466765 85.3945167,107.415654 85.3322461,107.389019 L78.5279881,104.400592 C78.0417986,104.187509 77.5292638,104.080249 77.016729,104.080249 Z M69.5969503,110.669474 C69.0676504,110.669474 68.6988169,110.502704 68.4497346,110.309298 C67.9036696,109.884574 67.6929076,109.144306 67.8749293,108.27878 C68.1455668,106.972933 69.355053,105.41825 71.4411174,104.887945 C73.127213,104.459621 74.5905716,103.964829 75.5198402,103.62529 C76.5880201,103.235599 77.7591859,103.276632 78.8177857,103.741429 L85.6220438,106.729856 C85.8735212,106.840717 86.0555429,107.059078 86.1202085,107.32903 C86.182479,107.598502 86.1178134,107.874932 85.9429768,108.087534 C84.8005512,109.467048 83.2366017,108.965778 82.0965711,108.599843 C81.8834142,108.531455 81.6822323,108.466907 81.5002106,108.419155 C81.1265872,108.321013 80.7290135,108.416516 80.4416108,108.67495 C79.9961367,109.074958 79.2009893,109.651576 77.9436026,110.127891 C76.0108197,110.86072 74.5714114,109.983436 73.886435,109.395061 C73.7355486,109.264765 73.6181925,109.154144 73.5295767,109.060081 C73.1703234,109.269324 72.4733719,109.661654 71.512968,110.13413 C70.7154256,110.527419 70.0879298,110.669474 69.5969503,110.669474 L69.5969503,110.669474 Z" id="Fill-223" fill="#000000"></path>
            <path d="M75.4120642,108.077936 C74.7270878,108.077936 74.1235422,107.645053 73.8337445,107.322071 C73.6996233,107.174737 73.7115984,106.947258 73.8576948,106.813841 C74.0061861,106.680425 74.2337132,106.692183 74.3654395,106.839517 C74.3989698,106.874311 75.174957,107.707202 75.9437591,107.184095 C76.4922192,106.809522 77.3041317,106.496138 77.9364176,106.742334 C79.3207404,107.283198 79.8620154,107.018045 79.9530263,106.870231 C80.0512222,106.678745 80.0176919,106.578203 80.0057168,106.545329 C79.9554213,106.399915 79.7686096,106.246103 79.4788119,106.112206 L77.5364489,105.316508 C77.3520322,105.241162 77.2634163,105.030959 77.340057,104.846912 C77.4143027,104.662865 77.6226697,104.5748 77.8070864,104.650147 L79.7662145,105.452324 C80.2619841,105.681723 80.566152,105.968472 80.683508,106.310891 C80.781704,106.592121 80.7505687,106.891588 80.5901022,107.200892 C80.5469918,107.303114 80.0081118,108.323892 77.6753602,107.413255 C77.3783774,107.297595 76.8323123,107.448288 76.3461228,107.779429 C76.0323749,107.993951 75.713837,108.077936 75.4120642,108.077936" id="Fill-224" fill="#000000"></path>
            <path d="M48.8943783,120.123789 C48.8776132,120.123789 48.860848,120.122829 48.8464779,120.12067 C48.2596974,120.041724 47.5196356,119.968057 46.6622176,119.882872 C42.9068228,119.509498 37.2282252,118.945359 31.8106849,116.80998 C25.243534,114.222761 20.9660244,110.000473 19.093117,104.260696 C19.0308464,104.07161 19.1338324,103.868366 19.3230392,103.806697 C19.5098509,103.745028 19.7134278,103.84797 19.7756983,104.037056 C23.9741723,116.904763 39.3454248,118.43233 46.7340683,119.16636 C47.5986713,119.252264 48.3435232,119.326411 48.9422788,119.407037 C49.1386706,119.433672 49.2751868,119.61484 49.2488416,119.811845 C49.2248914,119.992772 49.07161,120.123789 48.8943783,120.123789" id="Fill-225" fill="#000000"></path>
            <path d="M30.0551337,85.1716189 C30.1581196,84.8037645 30.4838426,84.5443707 30.8622561,84.5287735 L33.6883823,84.4354301 C34.0500307,84.4203128 34.3589886,84.1630787 34.4428143,83.8062623 L35.2068264,80.5682794 L36.4785832,79.9878229 C36.5791741,79.942471 36.6246796,79.8253718 36.5839642,79.72339 L35.5828449,77.3060609 C35.2858621,76.4174993 35.2930472,74.5117589 34.833203,74.5012008 C34.833203,74.5012008 26.1943579,70.7225943 24.3166604,75.0439841 C24.0340478,75.6973876 24.0172827,76.4378956 24.2448098,77.1136152 L24.704654,78.4931293 C25.1644983,79.8719235 25.1668933,81.3889331 24.6040631,82.7326936 C24.486707,83.0117639 24.048418,83.9212018 23.3299113,85.0122873 C22.7215757,85.9318034 21.4546089,86.8856334 20.5421055,87.4987241 C20.0247807,87.8452224 19.9936454,88.5962885 20.4750448,88.9878987 C21.4114985,89.7468834 22.8221666,90.8127734 23.8424461,91.2254999 C26.2470483,92.1999662 27.4589296,92.4519213 28.685181,92.3158655 C29.880297,92.183889 30.5580883,90.9560279 30.1461445,89.8210302 C29.2887265,87.4627305 30.0551337,85.1716189 30.0551337,85.1716189" id="Fill-226" fill="#FFFFFF"></path>
            <path d="M28.2828172,73.32781 C26.4051198,73.32781 25.1836585,73.9500191 24.6471735,75.1877185 C24.4028812,75.7480186 24.381326,76.3915839 24.5849029,76.9993955 L25.0447472,78.3789097 C25.5524919,79.897599 25.5141716,81.4933145 24.9345762,82.8721088 C24.7932699,83.2106884 24.3382156,84.1354836 23.6292891,85.2109719 C22.9946082,86.1717606 21.7084813,87.1479067 20.7408923,87.7977108 C20.5924009,87.8982529 20.5013901,88.060224 20.49181,88.2416317 C20.4846249,88.4239992 20.5612656,88.5941289 20.7001769,88.7083485 C22.0629446,89.8121518 23.2245303,90.5876935 23.9765673,90.8919593 C26.2709986,91.8217936 27.4493495,92.0905457 28.6468606,91.9580893 C29.0827546,91.9098579 29.4515881,91.6787791 29.6815102,91.3078052 C29.9305925,90.9058768 29.9760979,90.4089254 29.8084464,89.9443682 C28.9342633,87.5414365 29.6527699,85.2431262 29.7102505,85.0650779 C29.8611369,84.5510895 30.3161911,84.1911537 30.845491,84.1690776 L33.6788022,84.0754943 C33.8751941,84.0673357 34.0452406,83.9224016 34.0931411,83.723477 L34.8571532,80.4857341 C34.8811034,80.3772735 34.9553491,80.2868096 35.058335,80.2407378 L36.1935756,79.7226701 L35.2499368,77.4440363 C35.2475418,77.4363577 35.2451468,77.4284391 35.2427517,77.4205205 C35.1182106,77.052666 35.0463599,76.5516353 34.9792993,76.0671617 C34.9194238,75.6484363 34.8308079,75.0288668 34.725427,74.8448196 C34.7134518,74.8409803 34.7014767,74.8364211 34.6895016,74.831142 C34.6679464,74.8217837 32.5315866,73.8960287 30.2084151,73.5051384 C29.5042785,73.3868394 28.8624126,73.32781 28.2828172,73.32781 Z M28.0720553,92.7103552 C26.9487899,92.7103552 25.7321186,92.3796941 23.7059298,91.5592804 C22.6617001,91.1359958 21.248637,90.0794641 20.2499127,89.2676888 C19.9289798,89.0082951 19.7565382,88.6224438 19.7756983,88.2094774 C19.7924635,87.796991 19.9984354,87.4291365 20.3409236,87.1997374 C21.253427,86.5866467 22.4605182,85.6750492 23.0281385,84.8138427 C23.7346701,83.7445933 24.165774,82.848593 24.27355,82.5935184 C24.7836898,81.3757355 24.8148251,79.9602278 24.3645609,78.607109 L23.9023216,77.2278348 C23.6436592,76.4508533 23.6747945,75.6244406 23.9885424,74.9004897 C24.376536,74.0080887 25.0519323,73.366923 25.995571,72.9945094 C29.1378401,71.7575299 34.3134831,73.8881101 34.9242138,74.1489436 C35.4439336,74.2338885 35.5517096,75.0036713 35.6906209,75.9656598 C35.7528915,76.4127001 35.8199521,76.8746178 35.918148,77.1803233 L36.9144772,79.5856546 C37.0318333,79.8680842 36.9072922,80.188907 36.6270746,80.3156045 L35.5157843,80.822874 L34.7924876,83.8888076 C34.6727365,84.4008763 34.2248673,84.7732899 33.7051475,84.795126 L30.8742312,84.8884694 C30.6538892,84.8975878 30.4622874,85.0511604 30.4000168,85.2702413 C30.3976218,85.2750405 30.3976218,85.2805595 30.3952268,85.2853586 C30.3880417,85.3071947 29.6815102,87.4924852 30.4838426,89.6981721 C30.7281349,90.371732 30.6586792,91.0968828 30.2922409,91.6878974 C29.9473577,92.2424386 29.3773424,92.6016546 28.7258963,92.6736417 C28.5079493,92.6978774 28.2923973,92.7103552 28.0720553,92.7103552 L28.0720553,92.7103552 Z" id="Fill-227" fill="#000000"></path>
            <path d="M37.2330152,67.6636196 C35.2068264,66.926231 37.1683496,69.8450707 30.203625,65.3149182 C27.4301893,63.5111597 27.9115888,67.5510796 27.1906871,67.0848427 C24.5274224,65.3638695 24.6208283,65.4195395 23.0880141,65.3715481 C22.0725246,65.3398737 20.9444692,66.9089541 20.7361023,68.2709513 C20.4582797,70.0689508 22.0629446,74.3946598 23.3179362,77.7087091 C23.9645922,79.4160048 26.3284791,80.2860897 27.3774988,78.2783676 C27.6672965,77.7240664 26.42907,75.9663797 27.3870789,75.246508 C29.1498153,73.9233838 29.1929257,76.6730537 30.5556933,76.2941612 C31.8681655,75.9301461 32.4597359,75.6160421 33.9398597,74.9124875 C35.7337313,74.0611193 37.4868876,76.7795947 39.1753782,74.1431846 C40.0543514,72.7684697 40.0088459,68.6726397 37.2330152,67.6636196" id="Fill-228" fill="#000000"></path>
            <polyline id="Fill-229" fill="#FFFFFF" points="36.8354415 197.506396 20.599586 141.113328 4.36612548 197.506396 0.474214397 197.506396 18.3123398 133.873818 22.8868322 133.867339 40.7273526 197.506396 36.8354415 197.506396"></polyline>
            <path d="M37.106079,197.14646 L40.2531382,197.14646 L22.6161947,134.227515 L18.5853723,134.233274 L0.948428793,197.14646 L4.09548797,197.14646 L20.599586,139.814679 L37.106079,197.14646 Z M41.201567,197.866332 L36.564804,197.866332 L36.4905583,197.607178 L20.599586,142.412216 L4.63676299,197.866332 L0,197.866332 L18.0393072,133.514362 L23.1598647,133.506924 L23.2341104,133.769917 L41.201567,197.866332 L41.201567,197.866332 Z" id="Fill-230" fill="#000000"></path>
            <polygon id="Fill-231" fill="#FFFFFF" points="0.438289064 134.827168 150.749883 134.827168 150.749883 128.69986 0.438289064 128.69986"></polygon>
            <path d="M0.797542394,134.467232 L150.390629,134.467232 L150.390629,129.059796 L0.797542394,129.059796 L0.797542394,134.467232 Z M0.0790357328,135.187344 L151.109136,135.187344 L151.109136,128.339925 L0.0790357328,128.339925 L0.0790357328,135.187344 Z" id="Fill-232" fill="#000000"></path>
            <path d="M36.7109004,133.747601 C36.5121135,133.747601 36.351647,133.586589 36.351647,133.387665 L36.351647,129.975713 C36.351647,129.777028 36.5121135,129.615777 36.7109004,129.615777 C36.9096872,129.615777 37.0701537,129.777028 37.0701537,129.975713 L37.0701537,133.387665 C37.0701537,133.586589 36.9096872,133.747601 36.7109004,133.747601" id="Fill-233" fill="#026BB0"></path>
            <path d="M119.624174,183.320125 L120.493567,193.240197 L111.155376,194.226181 L114.055747,190.253209 C114.82934,189.192598 115.092792,187.840439 114.776649,186.563627 L113.983897,183.361157 L119.624174,183.320125" id="Fill-234" fill="#FFFFFF"></path>
            <path d="M114.443741,183.717734 L115.126322,186.477002 C115.468811,187.861555 115.183803,189.315456 114.345545,190.465811 L111.924178,193.78298 L120.105574,192.919374 L119.293661,183.6827 L114.443741,183.717734 Z M110.386573,194.669382 L113.763555,190.040847 C114.477271,189.063021 114.719169,187.827241 114.429371,186.650491 L113.526448,183.004341 L119.952292,182.957789 L120.883956,193.561259 L110.386573,194.669382 L110.386573,194.669382 Z" id="Fill-235" fill="#000000"></path>
            <path d="M121.140223,191.544179 L121.918605,195.625132 C121.918605,195.625132 122.028776,197.115266 120.512727,197.376819 C118.544019,197.715159 110.877553,198.768571 105.448038,197.779947 C104.202626,197.554388 103.642191,196.769728 103.53681,196.3618 C103.251802,195.231602 103.972704,193.610931 106.24558,192.768681 C110.300353,191.265829 111.847537,190.774636 113.81864,189.434235 C114.259324,189.136208 114.917955,189.452952 115.217333,189.849601 C115.217333,189.849601 115.933445,190.897734 115.923865,191.998898 C115.919075,192.394347 116.328624,192.65926 116.690272,192.503528 L120.148684,191.014113 C120.572603,190.831986 121.054002,191.0897 121.140223,191.544179" id="Fill-236" fill="#026BB0"></path>
            <path d="M114.223399,189.677072 C114.146758,189.677072 114.077303,189.693869 114.022217,189.732262 C112.235531,190.945966 110.798517,191.474591 107.651458,192.633105 C107.253884,192.779719 106.82757,192.936411 106.370121,193.106061 C104.305612,193.871524 103.635006,195.284392 103.886483,196.273016 C103.943964,196.505775 104.370278,197.218448 105.510308,197.42721 C110.350648,198.305454 117.401593,197.547189 120.452852,197.021683 C121.566537,196.829717 121.568932,195.821896 121.561747,195.668324 L120.788155,191.611847 C120.7666,191.502186 120.699539,191.409563 120.601343,191.357492 C120.505542,191.306141 120.390581,191.301582 120.28999,191.344774 L116.831578,192.834189 C116.548966,192.956327 116.223243,192.927052 115.966975,192.755003 C115.710708,192.584873 115.559821,192.301244 115.564611,191.995538 C115.574192,191.024672 114.927536,190.061963 114.922745,190.052365 C114.767069,189.847681 114.462901,189.677072 114.223399,189.677072 Z M110.827258,198.557409 C108.97351,198.557409 107.083838,198.444629 105.383372,198.135084 C103.917618,197.868732 103.306888,196.916101 103.189532,196.448185 C102.861414,195.159615 103.639796,193.350817 106.121039,192.431061 C106.580883,192.261171 107.007197,192.104239 107.404771,191.957385 C110.494349,190.819988 111.905018,190.300961 113.617458,189.136448 C114.216214,188.730201 115.076027,189.064941 115.504736,189.63244 C115.547846,189.692909 116.292698,190.801751 116.283118,192.002257 C116.280723,192.087442 116.333414,192.134954 116.364549,192.15559 C116.390894,192.173107 116.46035,192.21054 116.548966,192.172867 L120.007378,190.683452 C120.306755,190.553396 120.646849,190.567313 120.936646,190.721846 C121.228839,190.876618 121.432416,191.151849 121.494686,191.476511 L122.277859,195.598736 C122.323364,196.227424 122.026381,197.482401 120.574998,197.731956 C120.30915,197.777548 115.696338,198.557409 110.827258,198.557409 L110.827258,198.557409 Z" id="Fill-237" fill="#000000"></path>
            <path d="M110.985329,197.088871 C109.351924,197.088871 107.615533,197.000086 105.888722,196.767328 C105.69233,196.740933 105.553419,196.560965 105.579764,196.3642 C105.606109,196.167435 105.785736,196.02826 105.984523,196.054655 C112.783991,196.971292 119.73674,195.593937 119.803801,195.57954 C120.000193,195.541147 120.189399,195.668324 120.22772,195.862689 C120.26604,196.057055 120.141499,196.246621 119.947502,196.287414 C119.894812,196.297012 115.899915,197.088871 110.985329,197.088871" id="Fill-238" fill="#000000"></path>
            <path d="M139.871692,180.242193 C140.065689,182.733429 141.26799,185.617475 142.257134,187.091053 L137.874243,190.421419 L134.559533,187.131605 C135.333125,186.070755 136.025286,183.585518 134.983451,180.307702 L139.871692,180.242193" id="Fill-239" fill="#FFFFFF"></path>
            <path d="M135.021772,187.084094 L137.905379,189.945584 L141.773339,187.005628 C140.808145,185.445666 139.797446,182.891081 139.545969,180.606448 L135.462456,180.661159 C136.264788,183.558882 135.773809,185.849994 135.021772,187.084094 Z M137.843108,190.896774 L134.087713,187.169039 L134.269735,186.919003 C134.899626,186.054437 135.689983,183.712455 134.640963,180.416882 L134.492472,179.954245 L140.202205,179.877698 L140.22855,180.213878 C140.415362,182.574578 141.564972,185.415671 142.554117,186.890448 L142.743323,187.172398 L137.843108,190.896774 L137.843108,190.896774 Z" id="Fill-240" fill="#000000"></path>
            <path d="M142.405625,186.14994 L144.218657,189.365607 C144.218657,189.365607 144.867708,190.75016 143.516916,191.559056 C142.240369,192.32188 138.10177,194.726732 133.948802,196.270616 C132.375272,196.856112 127.80078,197.160858 126.72302,195.752309 C125.999723,194.807357 126.277546,193.574697 128.169613,192.559678 C132.394432,190.292322 133.376392,186.777669 133.984727,185.954855 C134.913996,184.700119 136.497106,186.894048 136.92821,188.56727 C137.031195,188.967758 137.507805,189.12781 137.828738,188.866736 L141.390136,185.957495 C141.715859,185.692582 142.199653,185.784006 142.405625,186.14994" id="Fill-241" fill="#026BB0"></path>
            <path d="M134.628988,185.943337 C134.528397,185.943337 134.408646,185.987009 134.274525,186.169137 C134.169144,186.309752 134.037418,186.573705 133.869766,186.908205 C133.151259,188.34243 131.814837,191.011954 128.33966,192.877141 C127.417576,193.371693 126.864326,193.935593 126.74218,194.508371 C126.665539,194.858708 126.75655,195.202807 127.008028,195.533948 C127.908556,196.712138 132.238756,196.520172 133.824261,195.932277 C137.831133,194.443337 141.809265,192.161829 143.332499,191.249991 C144.333618,190.650098 143.964785,189.68451 143.897724,189.528298 L142.091877,186.326789 C142.029607,186.214489 141.929016,186.180895 141.87393,186.170817 C141.82124,186.160499 141.715859,186.155699 141.617663,186.236325 L138.05387,189.145806 C137.809578,189.345451 137.48625,189.40616 137.186872,189.307778 C136.885099,189.208915 136.659967,188.965599 136.578536,188.657014 C136.259998,187.414035 135.333125,186.074114 134.708024,185.951976 C134.684074,185.947177 134.657728,185.943337 134.628988,185.943337 Z M130.377824,197.127264 C128.737234,197.127264 127.094248,196.829717 126.438012,195.97307 C126.057204,195.473958 125.918292,194.914378 126.038044,194.356238 C126.20809,193.570858 126.885881,192.839708 127.999567,192.242215 C131.273562,190.485008 132.545319,187.94818 133.2279,186.585223 C133.409922,186.219768 133.556018,185.931339 133.697325,185.740573 C133.996702,185.334806 134.406251,185.158917 134.846935,185.245302 C135.943855,185.460303 136.96174,187.260462 137.275488,188.477286 C137.301833,188.577828 137.378474,188.613101 137.409609,188.62366 C137.450324,188.636617 137.526965,188.648855 137.601211,188.587906 L141.162609,185.678424 C141.399716,185.485259 141.706279,185.406313 142.008052,185.463183 C142.307429,185.520053 142.566092,185.70554 142.716978,185.972852 L144.54438,189.212515 C144.815018,189.793451 144.989854,191.095939 143.701332,191.868121 C142.158938,192.790037 138.137696,195.097226 134.073343,196.606557 C133.314121,196.889706 131.848367,197.127264 130.377824,197.127264 L130.377824,197.127264 Z" id="Fill-242" fill="#000000"></path>
            <path d="M130.111976,195.327585 C129.597047,195.327585 129.101277,195.289191 128.677358,195.198008 C128.483361,195.157215 128.35882,194.965249 128.399535,194.771124 C128.442646,194.576518 128.634248,194.45294 128.825849,194.493973 C129.944325,194.732731 131.723826,194.563321 132.904572,194.272733 C138.199966,192.971445 142.166123,189.658115 142.204443,189.624761 C142.357725,189.496864 142.582857,189.51582 142.712188,189.667953 C142.839124,189.819846 142.819964,190.046846 142.669078,190.174983 C142.501426,190.315358 138.540059,193.628927 133.077014,194.972448 C132.260311,195.171612 131.144231,195.327585 130.111976,195.327585" id="Fill-243" fill="#000000"></path>
            <path d="M124.720781,148.719732 C124.01425,156.484988 130.468835,174.496897 132.854277,180.288745 C133.122519,180.938069 133.71409,181.431181 134.470917,181.431181 L139.967493,181.431181 C140.896761,181.431181 141.648798,180.731466 141.641613,179.871699 C141.579343,173.765268 138.813092,156.535139 142.90379,150.125401 C145.272467,146.414703 152.306647,147.980904 155.204624,146.215298 C162.164558,141.976934 159.544404,128.174354 159.544404,128.174354 C159.544404,128.174354 125.70753,137.891902 124.720781,148.719732" id="Fill-244" fill="#FFFFFF"></path>
            <path d="M125.07764,148.752126 C124.419009,155.997155 130.255678,173.035318 133.187185,180.15149 C133.369207,180.59589 133.802706,181.071246 134.470917,181.071246 L139.967493,181.071246 C140.341116,181.071246 140.700369,180.926311 140.949452,180.674116 C141.167399,180.453836 141.284755,180.170206 141.28236,179.875059 C141.26799,178.46603 141.107523,176.44439 140.920712,174.103368 C140.314771,166.476567 139.397477,154.950701 142.602017,149.931516 C144.127646,147.538423 147.430382,147.209921 150.345124,146.920053 C152.196476,146.736006 153.944842,146.562037 155.017812,145.907673 C161.041293,142.241127 159.60907,130.895229 159.257002,128.634592 C155.513582,129.755672 125.975773,138.906681 125.07764,148.752126 Z M139.967493,181.791117 L134.470917,181.791117 C133.615894,181.791117 132.868647,181.268011 132.521369,180.426001 C130.174247,174.725097 123.635836,156.657997 124.363923,148.686858 C125.360252,137.740009 158.0547,128.227865 159.446208,127.828336 L159.824622,127.719635 L159.898867,128.107166 C160.006643,128.680664 162.483096,142.204413 155.391436,146.522684 C154.177159,147.262232 152.349757,147.443879 150.416975,147.636325 C147.530973,147.923314 144.546775,148.220141 143.205563,150.319287 C140.132749,155.134749 141.038068,166.51544 141.636823,174.046018 C141.823635,176.400478 141.986496,178.433876 142.000867,179.86786 C142.005657,180.356413 141.814055,180.82265 141.459592,181.180426 C141.076388,181.568437 140.532718,181.791117 139.967493,181.791117 L139.967493,181.791117 Z" id="Fill-245" fill="#000000"></path>
            <path d="M135.88398,129.643372 C135.88398,129.643372 112.934877,129.834618 105.69712,137.860708 C99.1946347,145.074062 108.836994,177.789351 110.855998,184.145578 C111.064365,184.8045 111.718206,185.25538 112.460663,185.25538 L121.082743,185.25538 C121.264764,185.25538 121.410861,185.119324 121.410861,184.951594 L120.038513,172.513411 C118.570364,156.004594 120.361841,152.514416 120.361841,152.514416 C121.813224,147.844848 134.236205,148.044252 140.990167,148.090804 C162.437591,148.239098 156.136288,129.368141 156.136288,129.368141 L135.88398,129.643372" id="Fill-246" fill="#FFFFFF"></path>
            <path d="M135.886375,130.003308 C135.658848,130.005228 113.011518,130.285498 105.965362,138.101865 C103.328443,141.026943 103.144026,149.034076 105.433668,161.257977 C107.488597,172.233141 110.824862,182.861087 111.198486,184.036637 C111.358952,184.542467 111.876277,184.895444 112.460663,184.895444 L121.044422,184.895444 L119.681655,172.553004 C118.275777,156.746541 119.837331,152.790127 120.026538,152.381959 C121.556957,147.589773 133.426687,147.675918 140.523138,147.727509 L140.992562,147.730868 C147.466307,147.7779 152.019244,146.068685 154.490907,142.657213 C157.956504,137.873665 156.265619,131.108311 155.87044,129.731437 L135.886375,130.003308 Z M121.082743,185.615316 L112.460663,185.615316 C111.555344,185.615316 110.772172,185.068693 110.51351,184.254758 C110.137491,183.074889 106.791645,172.40807 104.727136,161.390913 C102.360854,148.759805 102.597961,140.76155 105.431272,137.619311 C112.690585,129.568506 134.937946,129.291355 135.881585,129.283436 L156.392555,129.004366 L156.476381,129.253682 C156.586552,129.585782 159.144435,137.45158 155.075293,143.076658 C152.459929,146.689214 147.712994,148.496332 140.987772,148.45074 L140.518348,148.447381 C134.061368,148.400109 122.043147,148.313005 120.704329,152.621197 L120.680379,152.679026 C120.666009,152.711181 118.965543,156.398123 120.397766,172.481497 L121.770114,184.951594 C121.770114,185.317529 121.461156,185.615316 121.082743,185.615316 L121.082743,185.615316 Z" id="Fill-247" fill="#000000"></path>
            <path d="M119.846911,115.162673 C119.70321,115.125 116.434005,115.286011 116.127442,115.18139 C114.585047,114.657083 111.337397,113.476734 109.809373,113.466176 C108.084957,113.454658 106.449157,113.168869 105.457618,112.958186 C104.861257,112.831009 104.432548,113.072646 104.319982,113.460657 C104.219391,113.801636 104.327167,114.590135 105.21093,114.79098 C106.233605,115.023738 107.251489,115.281692 108.123277,115.488295 C108.398705,115.553564 108.681318,115.564122 108.422655,115.655066 C107.821505,115.867188 107.167664,116.208167 107.124553,116.69696 C107.047912,117.615516 109.311208,119.707223 111.802032,119.860316 C113.938391,119.991573 114.527567,118.93864 115.344269,118.784348 C115.478391,118.758912 119.034999,118.846257 119.190675,118.813862 C120.80013,118.479842 120.713909,115.389193 119.846911,115.162673" id="Fill-248" fill="#FFFFFF"></path>
            <path d="M105.151055,113.284528 C104.899578,113.284528 104.715161,113.38483 104.664865,113.561199 C104.636125,113.661261 104.63373,113.882981 104.751086,114.081906 C104.858862,114.262594 105.038489,114.382812 105.289966,114.440162 C105.936622,114.586776 106.580883,114.743708 107.186824,114.891522 C107.541287,114.978146 107.883775,115.061651 108.207103,115.137958 C108.264584,115.151875 108.324459,115.163153 108.37715,115.173231 C108.568752,115.209465 108.858549,115.264415 108.882499,115.566761 C108.89208,115.703537 108.841784,115.888784 108.542406,115.994605 C107.785579,116.261197 107.498177,116.548186 107.483807,116.727674 C107.471831,116.856771 107.582002,117.149279 107.924491,117.548088 C108.676528,118.419373 110.216527,119.402238 111.823587,119.5011 C113.148034,119.582206 113.79469,119.190595 114.364705,118.845057 C114.664083,118.664129 114.944301,118.49328 115.277209,118.430651 C115.35864,118.415294 115.535871,118.414334 117.104611,118.439289 C117.890178,118.451767 118.960753,118.468564 119.133195,118.458006 C119.818171,118.304193 120.081623,117.434588 120.100783,116.732473 C120.117549,116.02532 119.904392,115.582838 119.772665,115.51757 C119.633754,115.512771 119.1308,115.527168 118.685325,115.539886 C116.898639,115.590277 116.225638,115.595316 116.010086,115.522129 C115.847224,115.466459 115.665202,115.40359 115.466416,115.335203 C113.8378,114.774183 111.11466,113.83523 109.806978,113.826112 C108.099327,113.814594 106.458737,113.539123 105.383372,113.310203 C105.301941,113.292927 105.222906,113.284528 105.151055,113.284528 Z M112.15889,120.23153 C112.039139,120.23153 111.912203,120.22769 111.780476,120.219772 C109.955469,120.107472 108.255004,119.033183 107.380821,118.018404 C107.079048,117.667107 106.72698,117.14736 106.767695,116.666245 C106.79883,116.300071 107.035937,115.977568 107.471831,115.701857 C107.32334,115.665624 107.170059,115.62867 107.016777,115.590997 C106.413232,115.444143 105.773761,115.287931 105.131895,115.142277 C104.569064,115.01414 104.276872,114.693797 104.13317,114.447601 C103.898458,114.049512 103.900853,113.613029 103.975099,113.360115 C104.149936,112.758062 104.791802,112.448037 105.531863,112.606169 C106.576093,112.828129 108.163993,113.095202 109.811768,113.10624 C111.236806,113.116078 113.921626,114.041833 115.701128,114.654444 C115.89752,114.722352 116.079541,114.785221 116.242403,114.840651 C116.44598,114.882883 117.890178,114.84209 118.66377,114.820254 C119.753505,114.78954 119.846911,114.79098 119.937922,114.814495 C120.574998,114.981026 120.83845,115.907021 120.81929,116.75071 C120.792945,117.721337 120.371421,118.936241 119.262526,119.16612 C119.166725,119.186516 118.900877,119.187716 117.095031,119.159161 C116.400474,119.148123 115.543056,119.134685 115.394565,119.141164 C115.195778,119.183157 114.992201,119.306255 114.735934,119.461027 C114.192264,119.790728 113.464177,120.23153 112.15889,120.23153 L112.15889,120.23153 Z" id="Fill-249" fill="#000000"></path>
            <path d="M137.241957,95.3534841 C132.720155,98.9062908 131.240032,109.187258 128.34445,111.508605 C125.836862,113.521126 116.845948,114.161092 116.845948,114.161092 L116.778888,119.932063 L124.622585,120.237769 C129.343174,120.417017 133.862581,118.496879 135.534307,116.924199 C141.090758,111.693372 152.649135,100.628464 155.563877,93.2456998 L147.449542,92.3933717 C147.449542,92.3933717 142.257134,91.415306 137.241957,95.3534841" id="Fill-250" fill="#000000"></path>
            <path d="M138.209546,113.369473 C138.209546,113.369473 137.754492,115.478937 138.599935,118.069275 C139.65135,121.289741 138.906498,124.844468 136.487525,127.216205 C135.472036,128.211547 134.336795,129.09363 133.15605,129.59922 C133.15605,129.59922 133.726065,133.130431 139.069359,133.626662 C141.24404,133.828226 146.984908,134.31294 151.271997,134.273587 C157.130222,134.220076 161.491557,133.345192 161.491557,133.345192 L162.32742,106.182754 C162.32742,106.182754 163.189628,94.7792664 155.33635,93.2260233 L144.022265,92.5169497 L138.209546,113.369473" id="Fill-251" fill="#000000"></path>
            <path d="M137.488645,115.914939 C137.400029,115.914939 137.313808,115.883505 137.244352,115.819676 C137.098256,115.68482 137.088676,115.457101 137.222797,115.310967 C139.672905,112.649601 141.576948,109.857699 142.726558,107.237366 C142.805594,107.055478 143.018751,106.972453 143.200773,107.052599 C143.382794,107.132745 143.464225,107.345107 143.385189,107.526994 C142.202048,110.219554 140.254895,113.079845 137.752097,115.79904 C137.680246,115.875826 137.584446,115.914939 137.488645,115.914939" id="Fill-252" fill="#CADDFF"></path>
            <path d="M137.584446,79.6257274 C137.584446,79.6257274 134.734369,79.7128319 135.134338,74.6430155 C135.534307,69.5388853 141.109918,69.8474703 143.033121,69.1715108 C144.956324,68.4955513 148.134518,64.3786051 149.358375,63.2805608 C150.582231,62.1827565 154.356786,57.6139708 162.145398,61.9471185 C162.145398,61.9471185 163.517746,63.2409679 168.77482,61.8259401 C173.346917,60.5949595 182.014503,61.787307 180.381097,68.5116284 C179.911673,70.4512027 178.742902,72.0908304 177.157397,73.1567205 C176.869995,73.350126 176.553852,73.5442514 176.204179,73.7330977 C175.195874,74.2794803 174.525268,75.3345723 174.458207,76.5482759 C174.24026,80.4996516 172.204492,88.4273586 158.679801,83.330667 C157.659522,82.9462556 156.550626,83.0789519 155.669258,83.6759655 C154.584313,84.4092748 153.655045,86.6456762 147.844721,86.84868 C144.113276,86.9787368 142.264319,83.1840532 140.990167,81.5381865 C139.493278,79.6065308 137.584446,79.6257274 137.584446,79.6257274" id="Fill-253" fill="#000000"></path>
            <path d="M138.420308,79.6283669 C138.420308,79.6283669 138.408333,80.5351653 138.398753,80.9342142 C138.386778,81.3128667 138.504134,82.5299298 137.833528,83.992949 C137.768862,84.1328441 137.821553,84.3003342 137.950884,84.3821596 L138.952003,85.0120474 C139.021459,85.0554796 139.069359,85.1253072 139.083729,85.2061728 C139.17474,85.7055237 139.517229,87.5373572 139.634585,87.8692181 C139.773496,88.2541095 140.149514,88.5497368 140.321956,88.6078064 C140.77222,88.7613791 142.513401,88.2164362 142.513401,88.2164362 C142.513401,88.2164362 142.257134,87.8881747 143.643852,90.2903865 C144.621021,91.9806453 142.534956,94.7509515 142.534956,94.7509515 C142.534956,94.7509515 150.400209,97.9313446 154.80705,94.1265828 C155.080083,93.8909448 154.960332,93.3995124 154.610658,93.3126478 C150.44332,92.2784322 149.89007,90.1761669 148.247084,86.9110689 C148.170444,86.7570163 147.986027,86.685749 147.813585,86.6706317 C147.111844,86.6077629 145.270072,86.6771106 144.647366,83.7210775 C144.632996,83.6454909 144.635391,83.5655852 144.659341,83.4921583 C144.855733,82.876668 145.693991,79.8839214 143.001986,81.1451366 C141.224879,81.9775482 140.21897,80.7988783 139.857322,80.2261004 C139.739966,80.0391737 139.550759,79.9071972 139.332812,79.8539267 L138.420308,79.6283669" id="Fill-254" fill="#FFFFFF"></path>
            <path d="M143.092997,94.5721833 C144.764722,95.1483207 150.955855,96.9767947 154.574733,93.8537514 C154.610658,93.8227969 154.596288,93.7616078 154.593893,93.74961 C154.586708,93.7150561 154.562758,93.6713839 154.524438,93.6617856 C150.663662,92.7041163 149.734393,90.7856583 148.445871,88.1305315 C148.28301,87.7926717 148.110568,87.4404145 147.926151,87.07304 C147.918966,87.0646415 147.868671,87.0368065 147.78245,87.0291278 C147.73934,87.0252885 147.691439,87.0219291 147.641144,87.0183298 C146.831626,86.9616998 144.934769,86.8290035 144.295298,83.7954642 C144.266558,83.6582087 144.273743,83.5154341 144.316853,83.3824978 C144.632996,82.388595 144.664131,81.5266686 144.393494,81.2871913 C144.206682,81.1225806 143.754023,81.1897686 143.152872,81.4712385 C141.052438,82.4545832 139.866902,80.9142977 139.553154,80.4187861 C139.488488,80.3134448 139.375922,80.2349788 139.248986,80.2035444 L138.772377,80.0862053 C138.767587,80.3739141 138.762797,80.7309704 138.758006,80.9440524 C138.755611,80.9889244 138.758006,81.0467541 138.758006,81.1163417 C138.765192,81.6552857 138.779562,82.7706069 138.178411,84.1002099 L139.143605,84.7073017 C139.296886,84.8040044 139.404662,84.9618963 139.438193,85.1406644 C139.692065,86.5256976 139.902827,87.5488752 139.974678,87.7470799 C140.072874,88.0230307 140.362671,88.2394721 140.436917,88.2673071 C140.621334,88.3224973 141.466777,88.1574067 142.285874,87.9104907 C142.288269,87.9080912 142.290664,87.9056916 142.295454,87.903532 C142.451131,87.7974709 142.681053,87.8459422 142.796014,87.9944758 C142.836729,88.0467864 142.863075,88.1086954 142.87026,88.1730039 C142.9469,88.329696 143.191193,88.7863346 143.955205,90.1101787 C144.815018,91.5967137 143.655827,93.7023384 143.092997,94.5721833 Z M148.989541,96.3673034 C145.634115,96.3673034 142.602017,95.1667974 142.400835,95.084732 C142.295454,95.0429794 142.218814,94.9551551 142.187678,94.8474143 C142.158938,94.7394335 142.180493,94.6237741 142.247554,94.5342701 C142.786434,93.8158382 144.03424,91.685018 143.334894,90.4708344 C142.867865,89.6660178 142.537352,89.0793224 142.348145,88.7268252 C142.33617,88.7021096 142.3218,88.677634 142.309824,88.6538782 C141.663168,88.8412848 140.633309,89.0944397 140.2046,88.9485457 C139.945937,88.8604814 139.478908,88.4955065 139.296886,87.9913563 C139.17953,87.6626149 138.896918,86.1784794 138.736451,85.3009559 L137.761677,84.6869053 C137.47667,84.5081372 137.366499,84.1450819 137.507805,83.8422559 C138.05866,82.6415099 138.04429,81.6176124 138.0395,81.1254601 C138.0395,81.0443546 138.037105,80.9769266 138.0395,80.9243759 C138.04908,80.5267668 138.061055,79.6240477 138.061055,79.6240477 C138.061055,79.5141473 138.113746,79.4109657 138.199966,79.3437777 C138.286187,79.2763497 138.398753,79.2528339 138.504134,79.2787493 L139.419033,79.5043091 C139.730385,79.5810954 139.993838,79.7689819 140.161489,80.0336547 C140.532718,80.6225098 141.378161,81.5081919 142.848704,80.8190347 C143.758813,80.3928707 144.438999,80.368635 144.867708,80.7465676 C145.576635,81.3711763 145.255702,82.803481 145.001829,83.6015788 C144.997039,83.6154963 144.997039,83.6322933 144.999434,83.6466907 C145.526339,86.1487248 146.934612,86.2473472 147.691439,86.3003777 C147.746525,86.304217 147.799215,86.3078164 147.844721,86.3118957 C148.180024,86.3418903 148.443476,86.500982 148.568017,86.7488578 C148.754829,87.1195917 148.927271,87.4752083 149.092527,87.8159476 C150.383444,90.4789929 151.161826,92.0864664 154.696879,92.9630302 C154.991467,93.0359772 155.218994,93.2735348 155.29324,93.5825997 C155.36509,93.889745 155.26929,94.2026492 155.041762,94.3994141 C153.305371,95.8991468 151.082791,96.3673034 148.989541,96.3673034 L148.989541,96.3673034 Z" id="Fill-255" fill="#000000"></path>
            <path d="M143.770788,84.3540846 C143.39956,84.3540846 143.030726,84.2161092 142.901395,84.0104659 C142.793619,83.8424958 142.843914,83.6202954 143.011566,83.5135145 C143.160057,83.4189713 143.351659,83.4472863 143.469015,83.5732638 C143.538471,83.6090174 143.775578,83.6798048 143.998315,83.5941401 C144.201892,83.516154 144.343198,83.319629 144.422234,83.0103241 C144.470134,82.8176385 144.666526,82.7005394 144.858128,82.7494906 C145.04973,82.797962 145.167086,82.9937671 145.119185,83.1864528 C144.896448,84.0651761 144.319248,84.2842571 143.993525,84.3368077 C143.919279,84.3485656 143.845034,84.3540846 143.770788,84.3540846 L143.770788,84.3540846 Z" id="Fill-256" fill="#000000"></path>
            <path d="M137.598816,84.1539603 C137.203637,84.1539603 136.853964,84.0234236 136.571351,83.7693089 C135.639688,82.9301784 135.735488,81.0294772 135.749859,80.8156753 C135.761834,80.6292286 135.91272,80.4828546 136.099532,80.4790153 L142.755299,80.3393602 C142.949295,80.3333613 143.116947,80.4926929 143.121764,80.6916174 C143.124132,80.890542 142.968456,81.0549127 142.769669,81.058992 L136.458785,81.1916883 C136.468365,81.8045391 136.580931,82.8109197 137.052751,83.2346842 C137.246747,83.4103328 137.49583,83.4693623 137.811973,83.415132 C138.008365,83.381538 138.192781,83.5125546 138.226312,83.7085997 C138.259842,83.9046447 138.128116,84.0908515 137.934119,84.1244456 C137.819158,84.1441221 137.708987,84.1539603 137.598816,84.1539603" id="Fill-257" fill="#000000"></path>
            <path d="M143.435485,85.1953747 C143.40914,84.9227833 143.605531,84.6813863 143.873774,84.6559508 C144.142016,84.6305154 144.379124,84.8308796 144.407864,85.1034711 C144.434209,85.3760625 144.237817,85.6174594 143.969575,85.6428949 C143.701332,85.6683304 143.46183,85.4679661 143.435485,85.1953747" id="Fill-258" fill="#5479F7"></path>
            <path d="M147.016043,108.011228 L147.016043,114.50807 C147.016043,123.81913 139.706435,131.367225 130.689177,131.367225 C121.671918,131.367225 114.36231,138.91532 114.36231,148.22638 C114.36231,149.056152 115.030521,149.728752 115.854409,149.728752 L159.072585,149.728752 C172.59009,149.728752 183.547317,138.412849 183.547317,124.454537 L183.547317,107.164179 C183.547317,101.612528 179.190771,97.1118907 173.813946,97.1118907 L157.570906,97.1118907 C151.741422,97.1118907 147.016043,101.991661 147.016043,108.011228" id="Fill-259" fill="#026BB0"></path>
            <path d="M124.222617,143.471148 C124.150766,143.471148 124.078915,143.450271 124.016645,143.405879 C123.853783,143.29166 123.813068,143.0673 123.928029,142.904609 C126.21767,139.635911 129.874869,137.762565 134.79185,137.336161 C137.708987,137.083246 140.535113,136.303385 142.544537,135.196462 C147.583663,132.421597 154.28254,127.506553 154.28254,116.905003 L154.28254,115.681461 C154.28254,104.965931 157.97806,104.421948 164.006331,104.421948 C164.202722,104.421948 164.365584,104.583199 164.365584,104.781884 C164.365584,104.980568 164.202722,105.141819 164.006331,105.141819 C158.088231,105.141819 155.001047,105.610936 155.001047,115.681461 L155.001047,116.905003 C155.001047,127.888325 148.089013,132.96438 142.891815,135.82731 C140.79617,136.981024 137.867058,137.79208 134.85412,138.053393 C130.090421,138.46636 126.70865,140.188533 124.517204,143.318295 C124.445354,143.418117 124.335183,143.471148 124.222617,143.471148" id="Fill-260" fill="#CADDFF"></path>
            <polygon id="Fill-261" fill="#026BB0" points="149.075762 197.787146 153.623909 197.787146 153.623909 148.384512 149.075762 148.384512"></polygon>
            <polyline id="Fill-262" fill="#026BB0" points="130.030546 197.055277 150.160707 195.277194 152.007269 195.277194 172.558955 197.055277 172.558955 198.463826 130.030546 198.463826 130.030546 197.055277"></polyline>
            <path d="M97.6905607,13.3684972 C97.5971549,13.3684972 97.503749,13.3325036 97.4342933,13.2609963 L96.746922,12.561761 C96.6080107,12.4201862 96.6104057,12.1922268 96.751712,12.0528117 C96.8930183,11.9133965 97.1205454,11.9150762 97.2594567,12.056891 L97.9468281,12.7558864 C98.0857394,12.8977011 98.0833444,13.1254205 97.9420381,13.2648357 C97.8725824,13.3339433 97.7815716,13.3684972 97.6905607,13.3684972" id="Fill-263" fill="#000000"></path>
            <path d="M100.981321,16.7171003 C100.887915,16.7171003 100.79451,16.6811067 100.725054,16.6095995 L100.037682,15.9103641 C99.8987712,15.7687894 99.9011662,15.54083 100.042473,15.4014148 C100.183779,15.2619997 100.411306,15.2636794 100.550217,15.4052541 L101.237589,16.1044895 C101.3765,16.2460643 101.374105,16.4740237 101.232799,16.6134388 C101.163343,16.6825465 101.072332,16.7171003 100.981321,16.7171003" id="Fill-264" fill="#000000"></path>
            <path d="M97.0031894,16.7171003 C96.9121785,16.7171003 96.8211677,16.6825465 96.751712,16.6134388 C96.6104057,16.4740237 96.6080107,16.2460643 96.746922,16.1044895 L97.4342933,15.4052541 C97.5732046,15.2636794 97.8007317,15.2619997 97.9420381,15.4014148 C98.0833444,15.54083 98.0857394,15.7687894 97.9468281,15.9103641 L97.2594567,16.6095995 C97.1876061,16.6811067 97.0965952,16.7171003 97.0031894,16.7171003" id="Fill-265" fill="#000000"></path>
            <path d="M100.29395,13.3684972 C100.202939,13.3684972 100.111928,13.3339433 100.042473,13.2648357 C99.9011662,13.1254205 99.8987712,12.8977011 100.037682,12.7558864 L100.725054,12.056651 C100.863965,11.9150762 101.091492,11.9133965 101.232799,12.0528117 C101.374105,12.1922268 101.3765,12.4201862 101.237589,12.561761 L100.550217,13.2609963 C100.478367,13.3325036 100.387356,13.3684972 100.29395,13.3684972" id="Fill-266" fill="#000000"></path>
            <path d="M181.858826,165.825323 C181.858826,165.825323 181.858826,165.825323 181.856431,165.825323 L180.879262,165.819324 C180.680475,165.818124 180.520009,165.656393 180.522404,165.457229 C180.522404,165.259264 180.685265,165.099452 180.881657,165.099452 L180.884052,165.099452 L181.861221,165.105451 C182.060008,165.106651 182.220474,165.268382 182.218079,165.467307 C182.218079,165.665512 182.057613,165.825323 181.858826,165.825323" id="Fill-267" fill="#000000"></path>
            <path d="M186.541094,165.852438 C186.538699,165.852438 186.538699,165.852438 186.538699,165.852438 L185.56153,165.846679 C185.362744,165.84548 185.202277,165.683508 185.204672,165.484584 C185.204672,165.286619 185.365139,165.126808 185.563925,165.126808 L186.54349,165.132567 C186.739881,165.133766 186.900348,165.295737 186.900348,165.494662 C186.897953,165.692627 186.737486,165.852438 186.541094,165.852438" id="Fill-268" fill="#000000"></path>
            <path d="M183.726943,168.681534 C183.530552,168.681534 183.370085,168.521962 183.36769,168.323758 L183.3629,167.340653 C183.360505,167.141968 183.520971,166.979757 183.719758,166.978798 C183.928125,166.981197 184.079012,167.137649 184.081407,167.336574 L184.086197,168.319679 C184.088592,168.518363 183.928125,168.680574 183.729338,168.681534 L183.726943,168.681534" id="Fill-269" fill="#000000"></path>
            <path d="M183.700598,163.973333 C183.501811,163.973333 183.341345,163.813522 183.341345,163.615557 L183.33416,162.632452 C183.33416,162.433528 183.494626,162.271557 183.693413,162.270357 C183.8922,162.270357 184.052666,162.429928 184.052666,162.628133 L184.059851,163.611238 C184.059851,163.810162 183.90178,163.972133 183.702993,163.973333 C183.700598,163.973333 183.700598,163.973333 183.700598,163.973333" id="Fill-270" fill="#000000"></path>
            <path d="M195.268555,160.06395 C195.268555,161.337403 194.243486,162.369699 192.976519,162.369699 C191.709552,162.369699 190.684483,161.337403 190.684483,160.06395 C190.684483,158.790257 191.709552,157.758201 192.976519,157.758201 C194.243486,157.758201 195.268555,158.790257 195.268555,160.06395" id="Fill-271" fill="#E5F0F7"></path>
        </g>
    </g>
</svg>