<?xml version="1.0" encoding="UTF-8"?>
<svg width="201px" height="201px" viewBox="0 0 201 201" version="1.1" xmlns="http://www.w3.org/2000/svg" xmlns:xlink="http://www.w3.org/1999/xlink">
    <title>06</title>
    <g id="Page-1" stroke="none" stroke-width="1" fill="none" fill-rule="evenodd">
        <g id="Group">
            <path d="M9.4180018,37.7963739 C24.9487377,11.4958028 54.5091151,5.06600053 65.6579546,2.64093044 C103.599525,-5.61193053 159.742676,4.30461705 186.830862,49.1305754 C210.604502,88.472969 197.367169,130.492946 195.448683,136.253847 C192.231817,145.916124 184.726893,170.553448 159.927061,182.934167 C121.400396,202.166459 72.6505503,200.989016 53.0467635,178.515463 C43.3793726,167.433005 51.3846611,161.204203 41.2407218,140.256272 C27.654593,112.20085 10.7927703,112.875244 2.93630723,90.4126736 C-5.93306814,65.0561433 7.98232022,40.2275948 9.4180018,37.7963739" id="Fill-3" fill="#E5F0F7"></path>
            <path d="M93.5011335,34.1040155 C94.1640428,30.043926 94.3451355,24.1938384 91.2511929,19.0346196 C82.6959312,4.76735632 54.230781,4.33559082 47.8016582,14.8409694 C44.5385859,20.1727407 46.8788533,28.4410886 51.0145733,33.2343337 C57.1301312,40.3218342 68.3841143,41.2155701 75.5828265,37.8782018 C82.4369137,34.7005351 85.0545274,27.9462772 89.1516143,28.943259 C91.4289931,29.4976015 92.7559093,32.1051093 93.5011335,34.1040155" id="Fill-4" fill="#D0E0EA"></path>
            <path d="M80.9091491,21.9841568 C80.8981738,21.9841568 80.888296,21.9837175 80.8773207,21.9827289 L57.0507796,19.9597686 C56.8510288,19.942744 56.702862,19.7667867 56.7199835,19.5669949 C56.736666,19.3668736 56.9165515,19.220572 57.1122414,19.2356196 L80.9387825,21.2591291 C81.1385333,21.275934 81.2867001,21.4518913 81.2702372,21.6516831 C81.2537742,21.8411503 81.0957296,21.9841568 80.9091491,21.9841568" id="Fill-5" fill="#FFFFFF"></path>
            <path d="M75.0527185,25.7082579 C75.0428408,25.7082579 75.0318654,25.7077087 75.0219876,25.70683 L63.0339752,24.689199 C62.8343341,24.6720646 62.6861673,24.4962171 62.7029595,24.2964253 C62.7198615,24.096304 62.8981007,23.9461581 63.095437,23.9652696 L75.0834494,24.9829006 C75.2832003,24.9999252 75.4313671,25.1758825 75.4138066,25.3756743 C75.3984411,25.5651415 75.239299,25.7082579 75.0527185,25.7082579" id="Fill-6" fill="#FFFFFF"></path>
            <path d="M28.8132575,54.8790646 C28.2791985,53.9748943 22.2938079,43.4354665 27.5462666,32.4409879 C31.2336448,24.7223695 39.4412084,18.9117131 48.3637043,19.3193146 C49.8689694,19.388072 59.3622917,19.8217047 63.7988452,27.8167805 C66.7866565,33.2009435 66.5573821,40.3498424 62.7946035,45.2454547 C58.3227094,51.0633603 50.7044108,51.2999472 49.5754894,51.3175209 C41.6724909,51.4411963 37.7803133,46.0442923 33.3012853,48.1099788 C30.5605284,49.3739721 29.3762914,52.6129273 28.8132575,54.8790646" id="Fill-7" fill="#FFFFFF"></path>
            <path d="M47.4783253,19.6625523 C39.4101482,19.6625523 31.6129519,24.7704777 27.8736604,32.597724 C23.3573164,42.0515323 27.2500428,51.116521 28.6986752,53.9163517 C29.6288336,50.7766882 31.1235623,48.7145164 33.1491674,47.7801412 C35.6068707,46.6470725 37.89292,47.6239543 40.5403867,48.7553754 C43.0160895,49.8134261 45.8163326,51.0165702 49.5697822,50.9542931 C50.9859277,50.9319964 58.2658573,50.5416391 62.5068306,45.0240252 C66.0716144,40.3860883 66.4723233,33.3829419 63.4815487,27.9931772 C59.5653351,20.9359914 51.5930824,19.8301621 48.3470218,19.6821031 C48.0573831,19.6689228 47.7676347,19.6625523 47.4783253,19.6625523 Z M28.8132575,55.2424023 C28.6861633,55.2424023 28.5668616,55.1757318 28.5008999,55.0638088 C27.8125279,53.8983385 21.9289883,43.3572632 27.2186533,32.284142 C29.0814944,28.3848525 32.1269261,24.9201842 35.7935609,22.5282846 C39.6806899,19.9931588 44.0319651,18.7550868 48.3801673,18.9565262 C51.7476149,19.1098573 60.0223474,20.2632456 64.1163612,27.6403838 C67.2434493,33.2757419 66.8180459,40.6063095 63.0821568,45.4667743 C58.7496494,51.1039996 51.6528979,51.6481274 49.5810868,51.6807487 C45.6783728,51.7358864 42.7974612,50.510226 40.2551381,49.4237278 C37.6644139,48.3160312 35.6175168,47.4417363 33.453074,48.4399263 C31.4547975,49.3615606 30.012421,51.5576225 29.1656751,54.9668236 C29.1300053,55.10994 29.0115816,55.2173596 28.8657196,55.238558 C28.8482688,55.2411941 28.8305986,55.2424023 28.8132575,55.2424023 L28.8132575,55.2424023 Z" id="Fill-8" fill="#000000"></path>
            <polyline id="Fill-9" fill="#FFFFFF" points="57.4484155 34.3791548 35.0487757 32.4772338 57.4484155 34.3791548"></polyline>
            <path d="M57.4489642,34.7424925 C57.4385377,34.7424925 57.4281111,34.7420531 57.4176846,34.7410646 L35.0182643,32.8394731 C34.8185135,32.8224485 34.6703467,32.6464912 34.6873584,32.4465896 C34.7041507,32.2464683 34.8828289,32.0970912 35.0797261,32.1155437 L57.4791464,34.0171352 C57.6788972,34.0341598 57.827064,34.2101171 57.8102718,34.4100187 C57.7942478,34.5993761 57.6354349,34.7424925 57.4489642,34.7424925" id="Fill-10" fill="#000000"></path>
            <polyline id="Fill-11" fill="#FFFFFF" points="50.1743028 36.7042741 42.1600146 36.0238398 50.1743028 36.7042741"></polyline>
            <path d="M50.1747418,37.0673921 C50.1643153,37.0673921 50.1538887,37.0669527 50.1435719,37.0662937 L42.1293935,36.3858594 C41.9297524,36.3688348 41.7815856,36.1928775 41.7982681,35.9930857 C41.8150603,35.7929644 41.9918727,35.6430382 42.1908552,35.66193 L50.204924,36.3423643 C50.4046748,36.3591692 50.5528416,36.5351266 50.5360494,36.7349184 C50.5199156,36.9243855 50.3612125,37.0673921 50.1747418,37.0673921" id="Fill-12" fill="#000000"></path>
            <path d="M196.132446,151.628697 L77.523263,135.121437 C74.5456588,134.741404 72.314047,132.20529 72.314047,129.200176 L70.6869559,46.4073004 C70.6869559,46.4073004 73.3910551,44.456722 74.9232098,43.7090681 C75.7024575,43.328596 76.6002386,43.1619747 77.5342383,43.2811468 L195.791113,58.3736083 C198.768718,58.7537509 201,61.2898652 201,64.2943205 L201,145.612976 C201,147.067205 200.335993,148.35009 199.307606,149.195828 C198.361533,149.974566 196.132446,151.628697 196.132446,151.628697" id="Fill-13" fill="#026BB0"></path>
            <path d="M192.512785,152.728155 L74.2570079,137.635584 C71.2787451,137.255551 69.0471333,134.719437 69.0471333,131.715421 L69.0471333,50.3967653 C69.0471333,47.6024264 71.4981417,45.4425006 74.2679832,45.795953 L192.523761,60.8884145 C195.501365,61.2684472 197.733745,63.8046714 197.733745,66.8091266 L197.733745,148.127123 C197.733745,150.922451 195.282956,153.081827 192.512785,152.728155" id="Fill-14" fill="#D0E0EA"></path>
            <path d="M197.733745,89.3384771 C197.532897,89.3384771 197.370462,89.1759197 197.370462,88.9760181 L197.370462,66.8090168 C197.370462,63.9950172 195.267591,61.6047652 192.477664,61.2487865 L182.313421,59.9176835 C182.114767,59.8916523 181.975381,59.7093245 182.000624,59.5104114 C182.026965,59.3112786 182.213545,59.1707983 182.407808,59.1972688 L192.570954,60.5282621 C195.720871,60.930262 198.09593,63.6303616 198.09593,66.8090168 L198.09593,88.9760181 C198.09593,89.1759197 197.933496,89.3384771 197.733745,89.3384771" id="Fill-15" fill="#000000"></path>
            <path d="M189.999437,149.375959 L77.0831527,134.96547 C74.9166246,134.688683 73.2944723,132.844536 73.2944723,130.659897 L73.2944723,52.2205929 C73.2944723,50.3543686 74.9308925,48.911782 76.7813314,49.1479295 L189.697616,63.5588583 C191.863046,63.8353156 193.486296,65.6795727 193.486296,67.8644314 L193.486296,146.303845 C193.486296,148.169959 191.848778,149.612107 189.999437,149.375959" id="Fill-16" fill="#E5F0F7"></path>
            <path d="M80.217704,138.760305 C80.2023386,138.760305 80.1869731,138.759207 80.1716077,138.75701 L74.2109115,137.995846 C71.0602265,137.593846 68.6842893,134.894076 68.6842893,131.715421 L68.6842893,93.1157388 C68.6842893,92.9147388 68.8468338,92.7521814 69.0472431,92.7521814 C69.2476524,92.7521814 69.4101969,92.9147388 69.4101969,93.1157388 L69.4101969,131.715421 C69.4101969,134.529421 71.5133974,136.919453 74.3031042,137.275322 L80.2627028,138.036486 C80.4624536,138.061748 80.6029377,138.244076 80.5776945,138.442879 C80.5546463,138.626305 80.3976992,138.760305 80.217704,138.760305" id="Fill-17" fill="#000000"></path>
            <path d="M193.098867,153.129057 C192.888141,153.129057 192.677415,153.115877 192.466689,153.088418 L101.260685,141.447993 C101.062031,141.422731 100.92045,141.241501 100.945693,141.042698 C100.970936,140.842797 101.154224,140.703305 101.35178,140.727469 L192.558882,152.367893 C193.776045,152.52386 195.00089,152.147123 195.92172,151.335434 C196.842549,150.524844 197.370462,149.35509 197.370462,148.127123 L197.370462,96.0329842 C197.370462,95.8330826 197.532897,95.6705252 197.733745,95.6705252 C197.933496,95.6705252 198.09593,95.8330826 198.09593,96.0329842 L198.09593,148.127123 C198.09593,149.563779 197.479117,150.932336 196.401341,151.881319 C195.483804,152.689713 194.30725,153.129057 193.098867,153.129057" id="Fill-18" fill="#000000"></path>
            <path d="M123.521925,200.618869 L1.90089557,184.923298 C0.949006087,184.800281 0.412093446,184.002872 0.424179269,183.205462 C0.4328368,182.655183 0.477396599,178.781266 0.477396599,178.781266 L64.7847582,141.990583 C68.0068925,140.148633 72.1755385,139.436895 75.8561119,139.90919 L195.941475,155.41145 C196.664749,155.504811 197.283757,155.973811 197.570213,156.644909 L197.763378,157.097433 C197.763378,157.097433 197.66021,160.32881 197.701916,161.083384 C197.734842,161.673203 197.470337,162.282793 196.852427,162.635367 L134.158108,198.50782 C130.936851,200.349771 127.203048,201.091164 123.521925,200.618869" id="Fill-19" fill="#026BB0"></path>
            <path d="M123.521925,196.307804 L2.33573773,180.64079 C0.727194875,180.434298 0.303986547,178.299086 1.71222982,177.495086 L64.0690576,141.853288 C67.2910822,140.011338 71.024886,139.269944 74.7058984,139.742239 L195.892086,155.409253 C197.501068,155.614647 197.923618,157.749859 196.515484,158.554958 L134.158108,194.196755 C130.936851,196.038706 127.203048,196.779001 123.521925,196.307804" id="Fill-20" fill="#FFFFFF"></path>
            <path d="M123.569119,195.947542 C127.148171,196.406656 130.844659,195.671853 133.97921,193.881526 L196.335489,158.239728 C196.946814,157.89045 197.06864,157.28086 196.978643,156.828335 C196.888645,156.374712 196.54402,155.858483 195.84599,155.769516 L74.6587046,140.102502 C71.0807503,139.644485 67.3833846,140.377092 64.2491626,142.168518 L1.89233482,177.810315 C1.28079,178.159594 1.1588542,178.768086 1.24863232,179.221708 C1.33862994,179.674233 1.68347448,180.190462 2.38172432,180.280528 L123.569119,195.947542 Z M125.66321,196.807558 C124.933352,196.807558 124.202395,196.761427 123.475829,196.668066 L2.28920238,181.001052 C1.39943321,180.886823 0.711280662,180.244282 0.536663325,179.363397 C0.361936235,178.481413 0.752877124,177.624692 1.53223458,177.178758 L63.8889526,141.538059 C67.1588296,139.668649 71.016435,138.90419 74.7508973,139.381977 L195.938183,155.048991 C196.828281,155.163221 197.516434,155.805761 197.690941,156.686647 C197.865449,157.567532 197.474727,158.425351 196.69548,158.870187 L134.339201,194.511985 C131.705124,196.017837 128.689106,196.807558 125.66321,196.807558 L125.66321,196.807558 Z" id="Fill-21" fill="#D0E0EA"></path>
            <path d="M147.249469,176.524135 L42.1648437,162.839662 C40.7120407,162.652941 40.3297703,160.72422 41.6017001,159.997105 L66.3102179,146.017173 C69.2203239,144.354255 72.5927104,143.685354 75.9164762,144.111517 L181.000772,157.794892 C182.453905,157.981614 182.835846,159.910335 181.564904,160.637449 L156.856167,174.617381 C153.945512,176.280299 150.573894,176.949201 147.249469,176.524135" id="Fill-22" fill="#D0E0EA"></path>
            <path d="M178.380964,69.0055181 L121.181987,61.8604635 C120.748462,61.8063143 120.434568,61.4433062 120.434568,60.997921 L120.434568,22.3474945 C120.434568,21.7719536 120.950408,21.3063586 121.510149,21.3763241 L178.709126,28.5213787 C179.141553,28.5755279 179.456545,28.938536 179.456545,29.3838114 L179.456545,68.0343477 C179.456545,68.6098886 178.940705,69.0754836 178.380964,69.0055181" id="Fill-23" fill="#FFFFFF"></path>
            <path d="M178.491814,69.3756655 C178.44023,69.3756655 178.387549,69.3725901 178.335965,69.366 L130.902828,63.4406747 C130.704175,63.4158518 130.563691,63.2344026 130.587836,63.0352698 C130.61308,62.8361371 130.798562,62.6958765 130.992826,62.7198207 L178.425962,68.645146 C178.589495,68.6644771 178.751929,68.6110968 178.880341,68.4968673 C179.016435,68.3772559 179.094359,68.2085477 179.094359,68.0343477 L179.094359,29.3838114 C179.094359,29.1198753 178.916559,28.9133836 178.664127,28.8817508 L121.465151,21.736806 C121.303813,21.7178044 121.139184,21.7708552 121.009675,21.8850847 C120.874678,22.0046962 120.796754,22.1732945 120.796754,22.3473846 L120.676025,52.8372125 C120.676025,53.0373338 120.51359,53.1991223 120.31384,53.1991223 C120.312742,53.1991223 120.312742,53.1991223 120.311644,53.1991223 C120.111894,53.1983534 119.949459,53.0349174 119.950551,52.8344666 L120.071285,22.3459568 C120.071285,21.9649355 120.23811,21.5979733 120.530053,21.3404077 C120.815412,21.088334 121.18967,20.9698209 121.555148,21.0159521 L178.753027,28.1608968 C179.372035,28.2380017 179.819828,28.7523639 179.819828,29.3838114 L179.819828,68.0343477 C179.819828,68.4169067 179.653003,68.7839788 179.36106,69.0415443 C179.11631,69.2579213 178.806806,69.3756655 178.491814,69.3756655" id="Fill-24" fill="#000000"></path>
            <path d="M134.433588,63.2450567 C135.352223,61.6011406 136.30488,58.2698132 140.135267,55.4535071 C146.995939,50.4080784 155.216454,49.1957082 164.628888,53.2320731 C168.277084,54.7964679 168.30123,61.8257553 168.000506,66.8988627 C168.000506,66.8995217 167.935752,67.3881823 167.935752,67.3881823 C167.935752,67.3881823 134.432491,63.2468141 134.433588,63.2450567" id="Fill-25" fill="#D0E0EA"></path>
            <path d="M148.984667,45.2552301 C145.796337,44.3578696 144.359668,40.8253226 146.099256,38.0739296 C148.958326,33.5531877 151.612159,28.2038427 157.872481,28.9931245 C164.398406,29.8160162 165.737395,35.9585972 165.56179,41.9754159 C165.466305,45.2349104 162.11554,47.5525609 158.853675,46.6348807 L148.984667,45.2552301" id="Fill-26" fill="#000000"></path>
            <path d="M158.912941,38.7799557 L158.034916,47.7870608 C157.937236,48.7996394 158.214911,50.2463998 159.140131,50.5761276 C159.404636,50.6704768 160.096081,51.0790669 160.366074,51.1896718 C161.958593,51.8420979 161.711648,52.5539453 159.671336,53.4077009 C156.687147,54.6558778 153.055413,55.0800646 149.024178,53.6129845 C147.675312,53.1221272 146.915819,52.0365077 148.677358,51.3218045 L150.148051,50.6264325 C151.522161,50.0692342 151.515576,49.1734114 151.671426,47.7041346 L153.078462,38.9990787 L158.912941,38.7799557" id="Fill-27" fill="#FFFFFF"></path>
            <path d="M153.389063,39.3509934 L152.029221,47.7621281 L152.001783,48.0328739 C151.871176,49.3338819 151.768008,50.3613981 150.284145,50.96308 L148.83211,51.6503241 C148.299807,51.8669208 148.007864,52.1152601 148.011129,52.340424 C148.016644,52.5993076 148.408463,53.0022961 149.1482,53.2715042 C152.663594,54.5510942 156.157039,54.4836548 159.530852,53.0725911 C161.024593,52.4475142 161.041056,52.096588 161.041056,52.08187 C161.039958,52.0045454 160.869841,51.7889372 160.227785,51.5256602 C160.087301,51.468216 159.871087,51.3525586 159.641703,51.2299816 C159.415611,51.1099308 159.13574,50.9604439 159.018305,50.9183767 C157.84614,50.5006702 157.572855,48.7957951 157.673828,47.7519133 L158.511245,39.1587803 L153.389063,39.3509934 Z M154.136482,54.9114662 C152.403479,54.9114662 150.654013,54.592722 148.900157,53.9544648 C147.915671,53.5961796 147.296663,52.9826354 147.285688,52.3536044 C147.279103,51.9643454 147.490926,51.4112111 148.540167,50.9852669 L149.993299,50.2980227 C151.089734,49.8527474 151.15339,49.2200918 151.280704,47.9600526 L151.310337,47.6659117 L152.720666,38.9411951 C152.748104,38.7701803 152.891881,38.6426607 153.065291,38.6360705 L158.898674,38.4171673 C159.007329,38.4131033 159.10501,38.4547312 159.177447,38.5310673 C159.248786,38.6072935 159.283907,38.7110885 159.274029,38.8153229 L158.397101,47.822428 C158.299421,48.8216066 158.595755,49.9967424 159.261957,50.2339883 C159.429879,50.2942883 159.698774,50.4372948 159.983035,50.5888686 C160.186079,50.6974964 160.396805,50.8098587 160.503265,50.8535735 C161.044349,51.0751128 161.76433,51.4436127 161.766531,52.0793438 C161.76872,52.6629027 161.165077,53.1761665 159.810723,53.7428107 C157.949308,54.5217679 156.052773,54.9114662 154.136482,54.9114662 L154.136482,54.9114662 Z" id="Fill-28" fill="#000000"></path>
            <path d="M157.48176,35.2489465 L152.010563,36.4706528 C152.010563,36.4706528 151.156683,43.4338189 154.2177,44.3313991 C157.279814,45.2290891 159.699872,40.2606555 159.699872,40.2606555 C159.699872,40.2606555 160.530704,40.2592276 160.91045,39.8525047 C161.290196,39.4458917 162.286755,37.7544166 160.293637,37.4891625 L160.066448,36.735138 C159.734993,35.6288694 158.628681,34.9928088 157.48176,35.2489465" id="Fill-29" fill="#FFFFFF"></path>
            <path d="M152.343115,36.7687479 C152.141169,38.7820426 152.151047,43.3464993 154.31977,43.9826697 C157.053722,44.7851318 159.350857,40.1481834 159.373905,40.1013932 C159.434269,39.9767293 159.560485,39.8975375 159.698774,39.8973179 C159.874379,39.8961097 160.425341,39.8400933 160.644847,39.6046048 C160.884109,39.3482475 161.241904,38.6945033 161.102518,38.304805 C161.018008,38.0669001 160.729357,37.9136788 160.245345,37.8493149 C160.103764,37.8303133 159.986328,37.7303625 159.945719,37.5936166 L159.719627,36.839702 C159.444147,35.9219119 158.515635,35.389976 157.560782,35.6034972 L152.343115,36.7687479 Z M154.972802,44.8047925 C154.694029,44.8047925 154.40867,44.7656908 154.115629,44.6799089 C150.796693,43.7069812 151.614354,36.7233856 151.650572,36.4266086 C151.66923,36.2740463 151.782276,36.1496021 151.931541,36.1162119 L157.40164,34.8945055 C158.732946,34.5965203 160.028034,35.3438448 160.414365,36.6305741 L160.575702,37.1688806 C161.365925,37.3337445 161.671039,37.7365133 161.78628,38.0599804 C162.079321,38.878259 161.42629,39.8313064 161.174955,40.1007342 C160.828135,40.4724194 160.250833,40.5802784 159.928159,40.6112522 C159.474878,41.4680832 157.543222,44.8047925 154.972802,44.8047925 L154.972802,44.8047925 Z" id="Fill-30" fill="#000000"></path>
            <path d="M128.484965,96.3800661 L71.2859888,89.2352312 C70.8526832,89.1803132 70.5376915,88.8178542 70.5376915,88.3730182 L70.5376915,49.7220425 C70.5376915,49.1465016 71.0535315,48.6809066 71.6134924,48.7508722 L128.81203,55.8959267 C129.245555,55.9500759 129.560546,56.3130841 129.560546,56.7583594 L129.560546,95.4091154 C129.560546,95.9846563 129.044706,96.4503612 128.484965,96.3800661" id="Fill-31" fill="#FFFFFF"></path>
            <path d="M78.6943296,90.0414278 C78.6943296,90.0414278 80.956343,84.2530681 82.4709371,81.8520521 C83.6870026,79.9222327 85.2147671,77.9056429 86.9543552,76.4755775 C93.2585789,71.2938423 102.581015,68.5036772 111.585168,74.8126597 C115.429822,77.506938 115.517625,87.3954774 115.162024,94.0394599 C115.162024,94.0405583 115.130196,94.5875418 115.130196,94.5875418 L78.6943296,90.0414278" id="Fill-32" fill="#D0E0EA"></path>
            <path d="M101.975178,72.8811928 L102.90369,65.5605104 L96.5972712,67.8701428 L95.9475322,72.1638536 C95.7905852,73.3166928 96.6334897,74.0712664 96.6334897,74.0712664 C97.6618772,75.1015286 99.3465887,75.1377745 100.700943,74.4260369 L101.01374,74.2612828 C101.53836,73.9866927 101.901643,73.4649714 101.975178,72.8811928" id="Fill-33" fill="#FFFFFF"></path>
            <path d="M96.9243357,68.1373739 L96.3064252,72.2183323 C96.1791115,73.1519387 96.848606,73.7758075 96.8771418,73.8021681 C97.7398019,74.6654794 99.2379331,74.7852007 100.531923,74.1053156 L100.84472,73.9405615 C101.261782,73.7208894 101.557018,73.2980206 101.615187,72.8355011 L102.469067,66.1068349 L96.9243357,68.1373739 Z M98.7956277,75.2783646 C97.8693107,75.2783646 97.0044555,74.956545 96.3777648,74.3282828 C96.351424,74.3063156 95.4075465,73.4441026 95.5875417,72.1149766 L96.2383782,67.815774 C96.2581338,67.6845199 96.3481314,67.5744642 96.47325,67.5291019 L102.779669,65.2195793 C102.898202,65.1760843 103.031004,65.1972826 103.130879,65.2765842 C103.229657,65.3555564 103.280143,65.4806596 103.26368,65.6062022 L102.335168,72.9268846 C102.246268,73.6319222 101.814938,74.2502992 101.18276,74.5831024 L100.868866,74.7478565 C100.191688,75.1037253 99.4771951,75.2783646 98.7956277,75.2783646 L98.7956277,75.2783646 Z" id="Fill-34" fill="#000000"></path>
            <path d="M101.831401,55.3278547 C104.237191,55.1663957 102.332973,58.7042148 107.753684,58.5537394 C108.49342,58.5332001 108.997187,60.4088703 108.639392,61.2998603 C108.136722,62.5493552 107.328939,61.7510668 105.915318,64.3907565 C104.923149,66.2446792 104.409504,66.850425 104.069269,67.6290527 C103.015638,70.0447867 103.929882,71.3522751 99.662678,71.3909374 C97.209694,71.4131242 96.8409233,71.4859455 94.9235349,69.8073212 C94.5789099,69.5062606 94.5734222,68.7215919 94.7753681,68.282028 C95.0332881,67.7187888 95.6193702,66.5738578 95.7576592,65.8437776 C96.4578846,62.1230815 97.1372569,62.0860667 97.3567633,61.5431471 C97.7441921,60.5837293 92.2290939,55.9724825 101.831401,55.3278547" id="Fill-35" fill="#000000"></path>
            <path d="M103.279046,63.9688763 C102.668818,66.0540038 101.333122,67.7833724 99.6012162,67.545797 C99.2379331,67.4959314 98.1733271,67.216838 97.7979711,67.0356085 C95.7916827,66.0669644 96.5434921,62.6681978 98.1853999,60.8151538 C98.2863729,60.7003751 98.7978228,60.3312162 99.1468379,60.3348143 C100.351928,60.3475818 102.213342,61.3765259 102.213342,61.3765259 C102.213342,61.3765259 103.857445,61.9966602 103.279046,63.9688763" id="Fill-36" fill="#FFFFFF"></path>
            <path d="M99.1402527,60.6980686 C98.9525748,60.6980686 98.5497805,60.9584899 98.4553928,61.0574521 C97.3798115,62.2723487 96.7586084,64.1432959 97.0121382,65.4077285 C97.1372569,66.0286317 97.4544436,66.4661086 97.9560157,66.7082971 C98.2896655,66.8695364 99.3081751,67.1389643 99.6506051,67.1859741 C101.287025,67.4142134 102.441629,65.5383235 102.931128,63.8668386 C103.395384,62.2809159 102.21883,61.7688602 102.082736,61.7156996 L102.037737,61.6946111 C102.020177,61.6847258 100.241077,60.7096014 99.1424478,60.6980686 C99.1424478,60.6980686 99.1413503,60.6980686 99.1402527,60.6980686 Z M99.9063301,67.9300035 C99.7888941,67.9300035 99.6703607,67.9222051 99.5518272,67.9058396 C99.1479355,67.8504822 98.051501,67.5610642 97.6410241,67.3625905 C96.9331159,67.0211102 96.4699574,66.3947152 96.3009375,65.5506252 C96.0013113,64.0602598 96.6795861,61.967334 97.9143095,60.5741735 C98.0613788,60.4072227 98.6617288,59.9715031 99.1424478,59.9715031 C99.1446429,59.9715031 99.1468379,59.9715031 99.1501305,59.9715031 C100.373879,59.9845736 102.137613,60.9220243 102.366997,61.0463587 C103.046369,61.3160062 104.152681,62.2778405 103.628061,64.0711336 C102.927836,66.4603972 101.492264,67.9300035 99.9063301,67.9300035 L99.9063301,67.9300035 Z" id="Fill-37" fill="#000000"></path>
            <path d="M104.676204,66.2779595 C106.452011,66.6689758 106.936022,64.9633318 106.489327,64.040709 C106.300551,63.6527681 105.737517,63.6820943 105.530084,64.0836549 L104.546695,65.9863448 C104.484136,66.1084825 104.547793,66.2497316 104.676204,66.2779595" id="Fill-38" fill="#FFFFFF"></path>
            <path d="M104.969245,65.9595448 C105.426916,66.0139136 105.785809,65.888371 106.017388,65.5951088 C106.335672,65.1909121 106.34116,64.5680319 106.162262,64.1990926 C106.15458,64.182068 106.129336,64.1297861 106.044826,64.1287975 C105.987755,64.1328615 105.899952,64.159332 105.852758,64.250386 L104.969245,65.9595448 Z M105.173386,66.6988512 C104.998878,66.6988512 104.807908,66.6787512 104.598279,66.6326201 C104.597182,66.6326201 104.597182,66.6326201 104.597182,66.6326201 C104.427064,66.5950562 104.28658,66.4829136 104.213046,66.3250792 C104.137316,66.164389 104.141706,65.9800841 104.224021,65.8195038 L105.207409,63.9167041 C105.372039,63.5986189 105.691421,63.4023419 106.042631,63.4023419 C106.047021,63.4023419 106.050314,63.4023419 106.054704,63.4023419 C106.387256,63.4066255 106.671517,63.585878 106.815294,63.8818861 C107.141261,64.5543024 107.044678,65.4638547 106.587007,66.0448874 C106.377379,66.3110201 105.939463,66.6988512 105.173386,66.6988512 L105.173386,66.6988512 Z" id="Fill-39" fill="#000000"></path>
            <path d="M96.9814073,68.0306133 C96.8639714,69.2828541 98.0152825,69.3417262 98.583804,68.8984279 C98.823066,68.7119263 98.7594091,68.3389231 98.4817336,68.2622575 L97.1614026,67.89881 C97.0768926,67.875415 96.9901876,67.9403281 96.9814073,68.0306133" id="Fill-40" fill="#FFFFFF"></path>
            <path d="M128.595816,96.7502136 C128.543134,96.7502136 128.49155,96.7469185 128.439966,96.7403283 L71.2412095,89.5954934 C70.6231893,89.5186082 70.1747377,89.0034771 70.1747377,88.3719199 L70.1747377,58.1529477 C70.1747377,57.9522772 70.3372822,57.7897199 70.5376915,57.7897199 C70.7381009,57.7897199 70.9006453,57.9522772 70.9006453,58.1529477 L70.9006453,88.3719199 C70.9006453,88.6366247 71.0776772,88.8431165 71.3309876,88.874969 L128.529964,96.0198039 C128.692399,96.0395743 128.855931,95.9857547 128.984342,95.8715252 C129.119339,95.7518039 129.197263,95.5826564 129.197263,95.4091154 L129.197263,56.7582496 C129.197263,56.4944234 129.020561,56.2879316 128.768128,56.2565185 L87.8993303,51.0694013 C87.700677,51.044139 87.5590954,50.8623603 87.5843386,50.6634473 C87.6095818,50.4643145 87.7950647,50.3240539 87.9904254,50.3486571 L128.858126,55.5356645 C129.474939,55.6124399 129.923829,56.1265824 129.923829,56.7582496 L129.923829,95.4091154 C129.923829,95.7913449 129.755907,96.1581973 129.465061,96.416312 C129.220311,96.632689 128.90971,96.7502136 128.595816,96.7502136" id="Fill-41" fill="#000000"></path>
            <path d="M190.148701,114.40526 L132.949725,107.260425 C132.5162,107.206605 132.201208,106.843048 132.201208,106.398212 L132.201208,67.7475658 C132.201208,67.1720249 132.717048,66.7064299 133.27679,66.7763955 L190.475766,73.9218894 C190.909291,73.9757091 191.224283,74.338168 191.224283,74.7841024 L191.224283,113.434309 C191.224283,114.00985 190.708443,114.475555 190.148701,114.40526" id="Fill-42" fill="#FFFFFF"></path>
            <path d="M132.201208,99.2522787 C132.001458,99.2522787 131.837925,99.0897214 131.837925,98.8898198 L131.837925,67.747456 C131.837925,67.3650069 132.005848,66.9979348 132.296694,66.7404791 C132.582052,66.4882955 132.957408,66.3698923 133.321788,66.4160234 L180.437739,72.434929 C180.636392,72.4605208 180.776876,72.6424093 180.751633,72.8412125 C180.726389,73.0403453 180.544199,73.1782994 180.345546,73.1552338 L133.230693,67.1367675 C133.071551,67.1162282 132.906921,67.1708167 132.777413,67.2850462 C132.642416,67.4047675 132.564491,67.5731462 132.564491,67.747456 L132.564491,98.8898198 C132.564491,99.0897214 132.402057,99.2522787 132.201208,99.2522787" id="Fill-43" fill="#000000"></path>
            <path d="M190.258455,114.775407 C190.206871,114.775407 190.155287,114.772112 190.103703,114.765522 L171.518096,112.444686 C171.319443,112.419424 171.177861,112.238195 171.203104,112.039391 C171.22725,111.83949 171.411636,111.6989 171.608094,111.723064 L190.1937,114.044998 C190.356135,114.064768 190.519667,114.010948 190.648078,113.896719 C190.783075,113.776998 190.861,113.608949 190.861,113.434309 L190.861,74.7841024 C190.861,74.5204959 190.684297,74.3140041 190.430767,74.2821516 L188.618742,74.1393648 C188.418991,74.1228894 188.269727,73.9482501 188.285092,73.7483484 C188.301555,73.5473485 188.47716,73.3990698 188.675813,73.4144469 L190.504302,73.5594304 C191.138675,73.6385124 191.587566,74.1525451 191.587566,74.7841024 L191.587566,113.434309 C191.587566,113.816539 191.419643,114.183391 191.128797,114.441506 C190.884048,114.657883 190.573446,114.775407 190.258455,114.775407" id="Fill-44" fill="#000000"></path>
            <path d="M186.785863,78.0275609 C186.812204,77.5629544 186.858301,77.0983479 186.919762,76.6370365 C187.056954,75.605676 187.53877,74.4699713 187.564014,73.448496 C187.585964,72.5392732 186.735377,70.399008 185.519312,71.0473702 C185.188954,71.2238767 184.85311,71.4031292 184.577629,71.6579488 C184.077155,72.1169536 184.087032,75.7649383 183.338516,75.6199547 C183.204617,75.593594 181.303691,74.8939384 181.323447,74.9785122 C181.336617,75.0400204 181.370641,75.0828564 181.417835,75.121299 C181.882091,75.5035285 182.703044,77.1345938 183.009256,77.573938 C183.121204,77.7332003 183.468024,77.9034461 183.866428,78.0561182 C183.854356,79.1885279 183.688628,80.9448063 182.849016,82.9361338 C181.849165,85.3085925 179.701295,88.9134116 178.430353,90.0557065 C179.436789,91.7164275 180.728584,95.45964 184.567751,95.5013777 C184.71043,95.2125089 184.846524,94.920345 184.976033,94.6259844 C186.223927,91.7889193 187.204023,88.5498542 187.344507,85.4371007 C187.429017,83.5698878 186.915372,81.7290357 186.790254,79.8629212 C186.749645,79.2522328 186.75184,78.6393477 186.785863,78.0275609" id="Fill-45" fill="#FFFFFF"></path>
            <path d="M178.886926,90.1194114 C179.001069,90.3215097 179.119603,90.5444769 179.242526,90.7762309 C180.186404,92.5566733 181.470516,94.9785581 184.344952,95.1312302 C184.444828,94.9225417 184.544703,94.703968 184.643481,94.4788041 C185.624675,92.2502307 186.826472,88.8683788 186.982322,85.4206252 C187.031711,84.3255598 186.870373,83.25356 186.700256,82.1178553 C186.5916,81.3907407 186.478554,80.6383637 186.428068,79.8870852 C186.388557,79.2873803 186.386362,78.6547247 186.423678,78.006692 C186.450019,77.5519708 186.495017,77.0752823 186.559772,76.5887086 C186.621234,76.1262989 186.74745,75.6474137 186.870373,75.1839056 C187.026223,74.5929877 187.18756,73.9822992 187.200731,73.4386108 C187.214998,72.8679027 186.815497,71.7267061 186.254658,71.3803931 C186.06698,71.2640767 185.892472,71.2600128 185.690527,71.3682013 C185.384315,71.5313078 185.067128,71.7001258 184.824574,71.9245209 C184.696163,72.0782913 184.563361,72.9367699 184.475559,73.5045124 C184.276905,74.7862991 184.134226,75.5870039 183.720457,75.8780694 C183.584363,75.9736268 183.428513,76.0076759 183.270469,75.9769219 C183.205714,75.9637415 183.089376,75.9242006 182.618535,75.7616432 C182.521952,75.727594 182.404516,75.6869547 182.281592,75.6441186 C182.471465,75.9417743 182.676704,76.2954464 182.9006,76.6853644 C183.064133,76.9698397 183.217787,77.2378397 183.306687,77.3652495 C183.30998,77.3696429 183.414245,77.4937577 183.995937,77.7167249 C184.137519,77.7705445 184.230809,77.9078396 184.229711,78.0594133 C184.211053,79.7849376 183.859843,81.4731177 183.183763,83.076724 C182.234398,85.3305597 180.21933,88.756346 178.886926,90.1194114 Z M184.567751,95.8638367 C184.566654,95.8638367 184.565556,95.8638367 184.564459,95.8638367 C181.098453,95.8264924 179.595931,92.991624 178.60047,91.1167227 C178.430353,90.7938047 178.269015,90.4895589 178.119751,90.2435261 C178.029753,90.0941491 178.057192,89.901936 178.187798,89.7855098 C179.419229,88.6783624 181.561611,85.0559696 182.514269,82.7944453 C183.121204,81.3544948 183.451561,79.8442491 183.498755,78.2988559 C182.96755,78.0725936 182.79853,77.9045445 182.711825,77.7815281 C182.604267,77.6277577 182.450612,77.3586593 182.271714,77.046725 C181.94465,76.4788726 181.451858,75.6199547 181.187353,75.4024793 C181.071014,75.306922 180.999675,75.1937908 180.968944,75.0597909 C180.939311,74.9301843 180.984309,74.7917909 181.08199,74.7039221 C181.279546,74.5281844 181.337715,74.5479549 182.856699,75.0751679 C183.033402,75.1366761 183.227665,75.2036761 183.337418,75.239922 C183.513023,74.9752171 183.664483,73.9954796 183.757773,73.393578 C183.92789,72.294229 184.039838,71.6592668 184.332879,71.3901685 C184.643481,71.1029472 185.017739,70.9031555 185.349194,70.7267588 C185.781622,70.4964326 186.226122,70.5089539 186.636599,70.7622358 C187.464138,71.2737423 187.945955,72.6766781 187.927297,73.4572829 C187.910834,74.0855451 187.738521,74.7379712 187.571696,75.3695285 C187.44987,75.8319383 187.334629,76.2679874 187.279753,76.684266 C187.217193,77.1521676 187.173292,77.6112822 187.149147,78.0484297 C187.149147,78.0484297 187.149147,78.0484297 187.148049,78.0484297 C187.112928,78.6657083 187.115123,79.2687082 187.152439,79.8387573 C187.200731,80.5603801 187.311581,81.29738 187.418042,82.0091176 C187.585964,83.1294453 187.759374,84.2882156 187.706693,85.4535761 C187.546453,89.0133624 186.313925,92.4852798 185.307488,94.7720664 C185.170296,95.0840007 185.03091,95.3838531 184.893718,95.6617383 C184.832257,95.7858531 184.70604,95.8638367 184.567751,95.8638367 L184.567751,95.8638367 Z" id="Fill-46" fill="#000000"></path>
            <path d="M168.539394,111.814228 C168.353911,109.550507 168.875239,106.607999 170.558853,102.566032 C171.041767,102.664885 177.050755,103.783016 182.03355,99.3148853 C185.321756,96.3657874 186.540016,92.7642634 186.85391,91.3638538 C186.897812,91.1672473 186.759523,90.9750342 186.559772,90.9574604 C184.665432,90.7927063 181.857945,88.0643789 180.842728,86.772707 C180.637489,86.5112972 180.225915,86.5651169 180.095309,86.8715594 C179.138261,89.0990345 177.944146,90.1611491 177.093559,90.7158211 C172.936107,93.4287715 167.823804,90.0073786 158.43771,89.7207065 C157.438956,89.6899524 155.255965,89.6690836 152.449576,90.1139196 C151.102904,90.3270015 150.110735,90.5895097 148.350294,91.1595587 C145.762313,91.9987062 143.984312,93.7857386 142.21948,95.9451153 C140.08039,98.5625084 138.774327,101.921295 137.805207,107.602015 L168.539394,111.814228" id="Fill-47" fill="#026BB0"></path>
            <path d="M160.846793,84.2409861 C161.521775,84.6056418 162.059566,84.6583631 162.455775,84.6352975 C163.884761,84.5540188 164.942782,83.4084289 165.154606,83.1788715 C166.248845,81.9937406 166.953461,80.0474458 166.304819,78.9051509 C165.837271,78.0824789 165.074486,78.3922165 164.532305,77.4728888 C163.917687,76.428348 164.79681,75.5760203 164.223899,74.6621844 C163.563184,73.609955 161.796158,73.6901353 161.478971,73.704414 C160.389122,73.7538402 160.190469,74.2931352 159.169764,74.2645779 C158.127109,74.2360205 158.056867,73.7099058 157.097624,73.704414 C156.335936,73.7000206 155.18243,74.0251353 154.570007,74.9093155 C153.801735,76.0186596 154.251723,77.479479 154.893779,78.2516264 C155.664247,79.1775443 156.355692,78.6810854 157.505905,79.4345606 C159.497926,80.7416096 158.680265,83.0701338 160.846793,84.2409861" id="Fill-48" fill="#000000"></path>
            <path d="M156.182282,89.1726246 L157.240303,85.5227728 C157.112989,85.5084941 156.059358,85.3206744 155.944117,85.2591663 C155.011215,84.7605106 155.61376,82.2496585 155.61376,82.2496585 L155.145114,81.5851505 L157.280911,77.8715937 C158.848187,79.3401016 159.661458,77.8979543 161.307756,78.6206755 C162.954054,79.3433967 161.758842,81.285298 161.758842,81.285298 C161.758842,81.285298 163.261363,80.6570359 162.779547,82.0354783 C162.415166,83.076724 161.650186,83.1415273 161.157394,83.0997896 L161.27483,89.3582476 C161.27483,89.3582476 164.149267,90.2083786 164.705715,90.3610507 C163.959393,90.3259031 158.472831,92.5896241 152.902856,90.1161163 L156.182282,89.1726246" id="Fill-49" fill="#FFFFFF"></path>
            <path d="M154.027827,90.169936 C157.737485,91.4572144 161.313244,90.7619523 163.218559,90.3094277 C162.28456,90.035936 161.243002,89.7272967 161.171662,89.7064278 C161.019105,89.6613951 160.91484,89.5230016 160.911547,89.3648377 L160.794111,83.1063797 C160.793014,83.0031338 160.83472,82.9042814 160.909352,82.8339863 C160.983984,82.7636912 161.08386,82.7285437 161.188125,82.7373306 C161.622748,82.7735765 162.157246,82.7153634 162.437117,81.915757 C162.544675,81.608216 162.505164,81.5104619 162.504066,81.5093636 C162.440409,81.4753144 162.123222,81.525839 161.898228,81.620298 C161.753354,81.6796095 161.585432,81.6411668 161.482264,81.5203472 C161.380193,81.4006259 161.367023,81.2281833 161.449338,81.0941833 C161.596407,80.8536424 161.938837,80.1100523 161.767622,79.5619705 C161.683112,79.2939705 161.485556,79.0951673 161.161784,78.9534788 C160.551557,78.6854788 160.076325,78.762364 159.573656,78.8458394 C158.94477,78.9479869 158.240154,79.0644132 157.379689,78.4273641 L155.575347,81.56538 L155.910094,82.0398717 C155.970458,82.1255438 155.990214,82.2320848 155.966068,82.3342323 C155.753147,83.2282977 155.649979,84.6616582 156.102162,84.9307565 C156.27667,84.9867729 157.159085,85.1482318 157.280911,85.1625105 C157.387372,85.1745925 157.482857,85.2328056 157.542124,85.3217728 C157.601391,85.41074 157.618951,85.5216744 157.589318,85.6238219 L156.531297,89.2736738 C156.496176,89.3933951 156.401788,89.4878541 156.282157,89.5219033 L154.027827,90.169936 Z M158.585877,91.6362472 C156.7969,91.6362472 154.781831,91.3473784 152.755787,90.4478212 C152.615303,90.3852146 152.529696,90.2435261 152.540671,90.090854 C152.550549,89.9381819 152.655912,89.8085754 152.801883,89.7668377 L155.889241,88.8793624 L156.778242,85.8127399 C156.406178,85.7468383 155.903509,85.6479859 155.774,85.5787892 C154.747808,85.0318056 155.073775,83.0261994 155.224137,82.3265438 L154.847683,81.7938389 C154.766466,81.6785111 154.75988,81.525839 154.830123,81.403921 L156.96592,77.6903642 C157.020796,77.5948068 157.117379,77.5289052 157.227132,77.5124298 C157.337983,77.4970528 157.447736,77.5311019 157.528954,77.6068888 C158.289543,78.3197248 158.779043,78.2384461 159.45622,78.12861 C160.014864,78.0374461 160.645944,77.9331019 161.453728,78.2878723 C161.973958,78.5163313 162.313096,78.8732984 162.460165,79.3466918 C162.616014,79.8431507 162.519432,80.3725605 162.383338,80.7800522 C162.607234,80.7767571 162.837716,80.8272817 163.010028,80.9898391 C163.269046,81.2347735 163.306362,81.6268882 163.121977,82.1551995 C162.920031,82.7340355 162.47992,83.3930518 161.527263,83.4644452 L161.632626,89.0847558 C162.348217,89.2967394 164.35231,89.8876573 164.802298,90.0106737 C164.981196,90.0600999 165.094242,90.2358376 165.064608,90.4181654 C165.036072,90.6015916 164.875833,90.7279031 164.689252,90.724608 C164.600352,90.7191162 164.223899,90.8113785 163.867201,90.8992473 C162.776254,91.1672473 160.866548,91.6362472 158.585877,91.6362472 L158.585877,91.6362472 Z" id="Fill-50" fill="#000000"></path>
            <path d="M157.641999,85.9148875 C157.497125,85.9148875 157.346763,85.9050022 157.189816,85.883035 C156.991163,85.8544776 156.852874,85.6710514 156.880312,85.4733465 C156.908848,85.2745433 157.094331,85.1361499 157.290789,85.1636089 C158.729654,85.3657072 159.546217,84.2475763 159.554998,84.2365927 C159.671336,84.0729369 159.898525,84.0355927 160.06096,84.1520189 C160.223395,84.2695435 160.261808,84.4958057 160.144372,84.6594614 C160.104861,84.7143795 159.226836,85.9148875 157.641999,85.9148875" id="Fill-51" fill="#000000"></path>
            <path d="M163.995612,145.297747 L106.796636,138.152912 C106.363111,138.099092 106.049216,137.735535 106.049216,137.290699 L106.049216,98.6393936 C106.049216,98.0638527 106.563959,97.5981479 107.124798,97.6684429 L164.323774,104.813278 C164.756202,104.868196 165.071193,105.230655 165.071193,105.676589 L165.071193,144.326796 C165.071193,144.902337 164.555353,145.368042 163.995612,145.297747" id="Fill-52" fill="#FFFFFF"></path>
            <path d="M164.040611,144.937484 C164.200851,144.957255 164.366578,144.903435 164.494989,144.789206 C164.631083,144.669485 164.709008,144.501435 164.709008,144.326796 L164.709008,105.676589 C164.709008,105.411884 164.531208,105.205393 164.278775,105.17354 L107.079799,98.0287052 C106.919559,98.010033 106.753832,98.0627543 106.624323,98.1769838 C106.489327,98.2967051 106.411402,98.4658526 106.411402,98.6393936 L106.411402,137.290699 C106.411402,137.554305 106.588105,137.760797 106.841635,137.79265 L164.040611,144.937484 Z M164.106463,145.667894 C164.054879,145.667894 164.002197,145.664599 163.950613,145.658009 L106.751637,138.513174 C106.133726,138.436289 105.685933,137.922256 105.685933,137.290699 L105.685933,98.6393936 C105.685933,98.2571642 105.852758,97.8903118 106.143604,97.6332954 C106.428963,97.3806725 106.801026,97.2631479 107.168699,97.3081807 L164.367675,104.453016 C164.986683,104.529901 165.434476,105.045032 165.434476,105.676589 L165.434476,144.326796 C165.434476,144.709025 165.267652,145.075878 164.975708,145.333993 C164.730958,145.55037 164.421454,145.667894 164.106463,145.667894 L164.106463,145.667894 Z" id="Fill-53" fill="#000000"></path>
            <path d="M156.250329,117.471882 C156.28545,118.541685 155.487544,112.657768 158.177595,112.538047 C160.22559,112.446883 159.906208,117.847522 159.906208,117.847522 C159.898525,118.447226 159.943524,120.388029 159.590119,121.393029 C159.468293,121.736816 159.418904,122.100373 159.444147,122.462832 C159.479268,122.964783 162.228586,138.059551 162.228586,138.059551 C162.746621,140.915288 160.180591,143.370124 157.353349,142.724288 L147.599582,140.497911 L149.421485,131.232142 L154.889389,134.128519 C155.52486,134.464617 156.28984,134.003306 156.28984,133.28388 C156.28984,133.28388 156.441299,124.603537 156.410569,123.687504 C156.331546,121.396324 156.043993,121.6808 155.032068,119.473095 C154.021241,117.264292 154.677566,115.415752 155.430473,115.42344 C155.430473,115.42344 156.18777,115.589292 156.250329,117.471882" id="Fill-54" fill="#FFFFFF"></path>
            <path d="M148.024327,140.221125 L157.434566,142.370616 C158.642949,142.646305 159.898525,142.299223 160.794111,141.442501 C161.689697,140.58578 162.092492,139.345731 161.87079,138.124354 C161.589822,136.577863 159.117082,122.994439 159.081961,122.488095 C159.053426,122.074013 159.108302,121.665423 159.247689,121.27221 C159.539632,120.442947 159.54073,118.865702 159.541827,118.107833 C159.541827,118.003489 159.541827,117.913423 159.542925,117.843128 C159.603289,116.808473 159.573656,113.981293 158.728556,113.123473 C158.570511,112.962014 158.402589,112.892818 158.194058,112.900506 C157.802239,112.91808 157.487247,113.090522 157.23262,113.425522 C156.642148,114.202063 156.519224,115.657391 156.526907,116.609669 C156.571906,116.853505 156.602637,117.134686 156.612514,117.4598 C156.626782,117.887063 156.396301,117.959554 156.256914,117.965046 C155.856315,117.979325 155.837657,117.586112 155.811316,116.934784 C155.809121,116.865587 155.805828,116.786505 155.804731,116.697538 C155.684002,116.082456 155.467789,115.866079 155.374498,115.799079 C155.319622,115.823243 155.246087,115.884751 155.170357,116.002276 C154.795002,116.580014 154.695126,117.865095 155.362426,119.321521 C155.637906,119.924521 155.860705,120.339702 156.038505,120.672505 C156.515932,121.565472 156.713487,121.935619 156.772754,123.675422 C156.804583,124.589258 156.658611,132.9357 156.653123,133.29047 C156.653123,133.750683 156.413861,134.172453 156.015457,134.412994 C155.615955,134.653535 155.130846,134.667814 154.719272,134.44924 L149.682698,131.781323 L148.024327,140.221125 Z M158.257715,143.189993 C157.929553,143.189993 157.600293,143.153747 157.273229,143.079059 L147.175935,140.7736 L149.159175,130.681864 L155.058409,133.806699 C155.246087,133.90665 155.457911,133.901158 155.640101,133.791322 C155.822291,133.681486 155.926557,133.496962 155.926557,133.28388 C155.928752,133.190519 156.078016,124.595848 156.047285,123.699586 C155.993506,122.128931 155.855217,121.870816 155.398644,121.015193 C155.215356,120.673603 154.988167,120.247439 154.701711,119.624669 C153.916976,117.90903 154.065143,116.370227 154.561227,115.606866 C154.791709,115.250997 155.107798,115.057686 155.434863,115.059883 L155.508397,115.06867 C155.568762,115.08185 155.711441,115.125784 155.874973,115.263079 C156.04509,113.870358 156.582881,112.245883 158.16223,112.175588 C158.567219,112.153621 158.945867,112.30849 159.246591,112.613834 C160.469242,113.85608 160.292539,117.461997 160.268393,117.86839 C160.268393,117.920013 160.268393,118.007882 160.268393,118.108931 C160.267296,118.90744 160.265101,120.568161 159.932549,121.513849 C159.826088,121.812603 159.784382,122.123439 159.806332,122.43757 C159.842551,122.85275 161.487751,131.969142 162.585283,137.994748 C162.850886,139.456666 162.367972,140.941649 161.295683,141.967518 C160.465949,142.761632 159.377197,143.189993 158.257715,143.189993 L158.257715,143.189993 Z" id="Fill-55" fill="#000000"></path>
            <path d="M152.122511,130.73788 L150.682549,129.118897 C148.241638,126.405946 145.168549,124.341029 141.736566,123.10757 L139.39114,122.265127 C139.20895,122.200324 125.867351,120.828472 121.334544,122.327734 C118.505107,123.264636 114.805327,125.455865 109.772045,135.658535 C109.399982,136.41201 109.699608,137.364289 110.432759,137.773977 L112.630018,138.5626 L142.21948,142.325583 C141.224019,142.045501 145.402323,142.712206 145.509881,142.689141 C145.978527,142.586993 146.458149,142.578206 146.935575,142.610059 C147.942012,142.679255 148.896865,142.057583 149.219539,141.06137 L152.483599,132.723716 C152.748104,132.046028 152.608718,131.277175 152.122511,130.73788" id="Fill-56" fill="#026BB0"></path>
            <path d="M124.19142,138.204535 C124.082764,138.204535 123.974109,138.155109 123.902769,138.061748 C123.780943,137.902486 123.811674,137.674027 123.970816,137.552109 C126.925372,135.289486 127.835226,132.744585 127.845104,132.719323 C127.909858,132.529306 128.117292,132.428257 128.306067,132.495257 C128.49594,132.56006 128.595816,132.766552 128.531061,132.956568 C128.49155,133.068601 127.550965,135.725535 124.412024,138.129846 C124.346172,138.179272 124.268247,138.204535 124.19142,138.204535" id="Fill-57" fill="#000000"></path>
            <path d="M135.197471,137.831092 C135.121741,137.831092 135.044914,137.806928 134.979062,137.757502 C134.818822,137.636682 134.786994,137.409322 134.907722,137.248961 C137.147785,134.275699 137.343146,131.578126 137.344243,131.551765 C137.357414,131.351864 137.529726,131.198093 137.729477,131.211274 C137.929228,131.224454 138.080687,131.395798 138.068614,131.5957 C138.062029,131.714323 137.866668,134.526126 135.488317,137.686109 C135.415879,137.780568 135.307224,137.831092 135.197471,137.831092" id="Fill-58" fill="#000000"></path>
            <path d="M127.444505,128.515897 C134.883576,131.871388 139.366995,125.250471 139.366995,125.250471 C139.491016,125.113176 139.628207,124.993455 139.775276,124.891307 L139.71162,124.86934 C139.62711,124.838586 139.541502,124.807832 139.45809,124.774881 C136.13586,123.489799 134.024209,120.196915 134.105426,116.631637 L134.15262,114.583194 L128.590328,114.524981 C128.590328,114.524981 128.443259,122.019095 125.876132,122.076209 L124.45812,122.242062 C123.395709,124.670537 124.948717,127.390077 127.444505,128.515897" id="Fill-59" fill="#FFFFFF"></path>
            <path d="M127.592672,128.184192 C134.658582,131.371634 138.890666,125.306488 139.066271,125.046176 C139.072856,125.036291 139.080539,125.026406 139.088221,125.017619 C135.796723,123.628193 133.658731,120.288079 133.742143,116.62285 L133.780557,114.942358 L128.941538,114.891834 C128.876784,116.544866 128.464112,122.355193 125.902472,122.438668 L124.712748,122.57816 C123.859965,124.859455 125.507361,127.242897 127.592672,128.184192 Z M131.55586,129.821848 C130.265162,129.821848 128.840565,129.543962 127.29524,128.846503 C124.428487,127.552635 123.035719,124.58816 124.125568,122.097078 C124.177152,121.978455 124.286905,121.896078 124.415317,121.8818 L125.834425,121.714849 C125.845401,121.713751 125.857474,121.712652 125.868449,121.712652 C127.484016,121.677505 128.172168,117.280768 128.227045,114.517293 C128.231435,114.318489 128.400455,114.160326 128.593621,114.161418 L134.155913,114.219637 C134.253593,114.220735 134.345786,114.260276 134.412735,114.330571 C134.480782,114.399768 134.517001,114.494227 134.514806,114.590883 L134.468709,116.639325 C134.389687,120.088177 136.44756,123.220701 139.588696,124.436586 C139.668816,124.46734 139.750033,124.498094 139.832348,124.526652 L139.896005,124.549717 C140.024416,124.59475 140.116609,124.707881 140.135267,124.84298 C140.152827,124.978078 140.094658,125.112078 139.98271,125.190061 C139.860884,125.274635 139.748936,125.371291 139.650158,125.47893 C139.399921,125.831504 136.442072,129.821848 131.55586,129.821848 L131.55586,129.821848 Z" id="Fill-60" fill="#000000"></path>
            <path d="M134.556512,117.233538 L134.41054,111.112375 C134.548829,109.278113 133.122038,107.701966 131.284769,107.662425 L126.455628,107.558081 C126.455628,107.558081 126.08137,109.917359 124.820306,111.0289 L125.38334,112.088818 L125.940886,114.037309 C126.061614,114.462375 126.41063,114.786391 126.844155,114.86767 L129.755907,114.869866 L134.556512,117.233538" id="Fill-61" fill="#FFFFFF"></path>
            <path d="M134.128474,115.236719 C134.118597,115.236719 134.109816,115.236719 134.099939,115.23562 C133.900188,115.221342 133.750923,115.046702 133.765191,114.846801 L134.048355,111.086015 C134.107621,110.29849 133.848604,109.54172 133.318496,108.957392 C132.789485,108.374163 132.064017,108.042458 131.277086,108.025982 L126.75306,107.928228 C126.61038,108.587244 126.194416,110.128244 125.269196,111.100293 L125.703819,111.917473 C125.715892,111.940539 125.72577,111.964703 125.732355,111.988867 L126.289901,113.938457 C126.372216,114.225129 126.59721,114.439309 126.881471,114.504112 L129.755907,114.507407 C129.956755,114.507407 130.11919,114.669965 130.11919,114.870965 C130.118093,115.070866 129.955658,115.233424 129.755907,115.233424 L126.844155,115.231227 C126.821107,115.231227 126.799156,115.22903 126.776108,115.224637 C126.206489,115.116997 125.75211,114.700719 125.591871,114.138358 L125.0453,112.225014 L124.499826,111.200244 C124.420804,111.050867 124.45373,110.867441 124.579946,110.756506 C125.729062,109.74272 126.093443,107.524032 126.096736,107.502064 C126.125271,107.323032 126.285511,107.197818 126.463311,107.195622 L131.292452,107.299966 C132.281328,107.320835 133.191182,107.736015 133.856287,108.46972 C134.521391,109.203425 134.847358,110.15131 134.772726,111.139834 L134.489562,114.90062 C134.475295,115.091735 134.316152,115.236719 134.128474,115.236719" id="Fill-62" fill="#000000"></path>
            <path d="M130.642713,124.133439 C129.894196,124.133439 129.457378,123.731439 129.435428,123.71057 C129.289456,123.572176 129.282871,123.342619 129.420062,123.196537 C129.556156,123.051554 129.784443,123.044963 129.930415,123.178963 C129.952365,123.198734 130.340892,123.531537 131.024654,123.356898 C131.218917,123.30857 131.416473,123.426095 131.465862,123.620504 C131.515251,123.814914 131.397815,124.012619 131.203552,124.060947 C131.000508,124.11257 130.813928,124.133439 130.642713,124.133439" id="Fill-63" fill="#000000"></path>
            <path d="M125.49419,107.272507 L127.921931,108.560884 C129.347625,109.318753 130.326624,110.711474 130.549423,112.311785 C130.861122,114.549145 131.12892,118.425259 133.259229,121.695078 C134.907722,124.226799 137.689966,125.790865 140.701593,125.980881 C142.687029,126.106094 145.035747,126.858471 146.290226,128.128176 C146.290226,128.128176 150.284145,122.898881 146.271568,118.308833 C142.260089,113.717686 136.984253,114.017539 135.943792,109.145212 C134.948331,104.481573 129.267505,101.026131 125.259319,106.125819 C124.96518,106.50036 125.073836,107.048441 125.49419,107.272507" id="Fill-64" fill="#000000"></path>
            <path d="M188.910685,140.372698 C188.427771,143.109813 185.820035,145.329599 183.084986,145.329599 C180.349936,145.329599 178.523643,143.109813 179.005459,140.372698 C179.488373,137.635584 182.096109,135.416896 184.831159,135.416896 C187.566209,135.416896 189.392502,137.635584 188.910685,140.372698" id="Fill-65" fill="#FFFFFF"></path>
            <polyline id="Fill-66" fill="#000000" points="186.909885 140.079436 186.546601 142.136665 186.302949 142.136665 186.645379 140.199157 186.909885 140.079436"></polyline>
            <path d="M183.814844,141.327174 C183.802772,141.331567 183.792894,141.333764 183.784113,141.33596 C183.776431,141.333764 183.767651,141.331567 183.757773,141.327174 L181.628561,140.318879 L181.625268,140.338649 L181.449663,141.332665 C181.44198,141.3766 181.43759,141.415042 181.472711,141.434813 L183.484487,142.574911 C183.507535,142.588091 183.536071,142.591386 183.564607,142.585895 C183.590948,142.591386 183.620581,142.588091 183.64802,142.574911 L186.061492,141.434813 C186.103199,141.415042 186.113076,141.3766 186.120759,141.332665 L186.295267,140.338649 L186.298559,140.318879 L183.814844,141.327174" id="Fill-67" fill="#026BB0"></path>
            <path d="M186.529041,141.622633 L186.035152,142.437616 C186.028566,142.447501 186.027469,142.458485 186.032956,142.467272 L186.275511,142.919796 C186.279901,142.928583 186.287584,142.932977 186.298559,142.932977 C186.308437,142.932977 186.318315,142.928583 186.3249,142.919796 L186.727694,142.467272 C186.735377,142.458485 186.73867,142.447501 186.736474,142.437616 L186.529041,141.622633" id="Fill-68" fill="#026BB0"></path>
            <path d="M187.603525,139.302895 L184.45251,137.823404 C184.423975,137.810223 184.389951,137.810223 184.357025,137.823404 L180.664928,139.302895 C180.651757,139.307289 180.627612,139.319371 180.625416,139.331453 L180.58371,139.5676 C180.581515,139.579682 180.603466,139.590666 180.613344,139.596157 L183.776431,141.075649 C183.806064,141.088829 183.845575,141.088829 183.879599,141.075649 L187.549746,139.596157 C187.561819,139.590666 187.566209,139.579682 187.568404,139.5676 L187.61011,139.331453 C187.612305,139.319371 187.6145,139.307289 187.603525,139.302895" id="Fill-69" fill="#026BB0"></path>
            <path d="M60.6191853,201 C60.084797,196.724083 59.3272804,192.48551 58.2938443,188.30515 L52.8294522,166.198448 L31.4236276,169.01794 C31.4236276,169.01794 24.7684132,185.329691 28.6804562,201 L60.6191853,201" id="Fill-70" fill="#000000"></path>
            <path d="M16.6371281,201 L45.419026,201 C47.8319501,191.61451 49.1965116,184.728888 49.1965116,184.728888 C49.1965116,184.728888 31.6625603,182.569511 25.2287181,169.830726 C25.2287181,169.830726 16.1610187,183.027527 16.6151775,199.431541 C16.6298844,199.958754 16.6365793,200.481574 16.6371281,201" id="Fill-71" fill="#000000"></path>
            <path d="M28.2324436,195.68723 C28.0414731,195.68723 27.8813431,195.537853 27.8704776,195.344542 C27.7903577,193.952919 27.7702729,192.51187 27.8101133,191.060936 C27.815601,190.863231 27.9769382,190.707264 28.1727379,190.707264 C28.17625,190.707264 28.1795426,190.707264 28.1828352,190.707264 C28.3831348,190.712756 28.5412891,190.879707 28.5356917,191.080707 C28.4964001,192.510772 28.5162654,193.93205 28.5949584,195.302804 C28.6065923,195.503804 28.4537061,195.675148 28.2535162,195.68723 C28.2463823,195.68723 28.2392483,195.68723 28.2324436,195.68723" id="Fill-72" fill="#CADDFF"></path>
            <path d="M51.0079881,195.787181 C50.8635529,195.787181 50.7272394,195.700411 50.6707165,195.557624 C50.2510203,194.501001 49.9579793,193.482821 49.7997152,192.532739 C49.7666794,192.335034 49.9003588,192.147215 50.0979146,192.114264 C50.2966776,192.082411 50.4825995,192.215313 50.515745,192.413018 C50.6655581,193.312575 50.94488,194.280231 51.3451499,195.289624 C51.4193431,195.476345 51.3281382,195.68723 51.1419968,195.760821 C51.0979857,195.778394 51.0526577,195.787181 51.0079881,195.787181" id="Fill-73" fill="#CADDFF"></path>
            <path d="M14.7448732,122.318947 C13.2132674,118.434046 5.09877447,99.5532295 19.3891895,76.291053 C19.5984889,75.9505612 19.6612677,75.5419711 19.6253784,75.1586433 C19.4449441,73.232119 19.0617957,66.9659725 21.3480646,64.1214385 C23.9926776,60.8309702 30.0777241,55.2217531 25.9332239,67.1540118 C25.834885,67.4370593 26.1318772,67.6442101 26.347652,67.4431003 C27.1864957,66.6612873 29.3352438,64.6047171 29.6896368,64.9729974 C30.5201393,65.8355399 27.5622906,71.8002963 25.5916719,75.2014794 C17.9974092,88.31151 22.0488387,109.041966 25.4358224,116.309817 C25.4358224,116.309817 14.9113688,122.741816 14.7448732,122.318947" id="Fill-74" fill="#FFFFFF"></path>
            <path d="M26.4745267,60.2477408 C25.6138421,60.2477408 23.5188731,62.0001749 21.6310083,64.3492385 C19.4257373,67.0930528 19.8149222,73.2903321 19.9867957,75.1245941 C20.0332213,75.6210531 19.9309313,76.1032333 19.6986935,76.4810693 C13.3843726,86.7595267 7.43607856,102.977917 14.9565871,121.868619 L14.9738184,121.912554 C16.2111759,121.414996 21.5125846,118.276981 24.9717859,116.168128 C21.4242333,108.242359 17.8348647,87.8677724 25.2775583,75.0202499 C28.0310465,70.2669851 29.6909539,66.1392366 29.4733133,65.3207383 C29.094555,65.4728613 28.1854693,66.2210644 26.7653726,67.5496413 L26.5950357,67.7089035 C26.3764073,67.9125396 26.0696471,67.944392 25.8308242,67.7888642 C25.5857453,67.6289429 25.4890527,67.3260151 25.5902452,67.0348397 C27.575461,61.3195209 26.9293439,60.4314965 26.6841553,60.2955195 C26.6259861,60.2634473 26.5558538,60.2477408 26.4745267,60.2477408 Z M14.7824088,122.70557 C14.7240201,122.70557 14.686265,122.69239 14.6486197,122.680308 C14.5373299,122.642963 14.4494176,122.559488 14.4071626,122.452947 L14.2821537,122.137718 C13.4036892,119.931111 11.0703362,114.069162 10.7426131,105.978638 C10.3313679,95.8286891 13.1364401,85.776494 19.0800148,76.1010366 C19.2307059,75.8561022 19.2960091,75.5331842 19.2640709,75.1926925 C19.0857219,73.2892338 18.6886349,66.8506446 21.0652306,63.8937484 C21.4943656,63.3595059 25.3103745,58.7008099 27.0358045,59.6601179 C27.6994821,60.0280687 28.3449407,61.1837636 26.4075772,66.8901856 C28.733467,64.7235597 29.5031661,64.2560975 29.9511787,64.7210335 C30.2907551,65.0738269 30.4920425,65.9107776 29.0236544,69.2806574 C28.0887767,71.4260849 26.8001644,73.8406107 25.9056758,75.3838072 C18.5012862,88.1665264 22.2291632,108.569671 25.7648625,116.157145 L25.9019442,116.451505 L25.6252564,116.620653 C25.5996839,116.63603 23.0557146,118.19021 20.4803558,119.702652 C15.9792674,122.345308 15.0924616,122.70557 14.7824088,122.70557 L14.7824088,122.70557 Z" id="Fill-75" fill="#000000"></path>
            <path d="M75.6464833,119.672997 C75.6464833,119.672997 86.997159,121.547898 91.3609461,120.395718 C97.5038326,118.77344 101.36495,98.4307051 101.637138,97.0302955 C101.909326,95.6298859 102.447117,88.284051 103.688425,85.6424941 C104.854004,83.1601994 105.570693,80.6141998 105.950439,79.0490361 C106.178725,78.1044461 106.818586,77.6530199 107.449667,77.7573642 C108.003921,77.8474297 109.056454,78.5382985 108.735975,79.9452983 C108.365009,81.5741669 108.033554,83.2118223 107.730635,84.6034451 C107.63515,85.0427892 107.456252,85.4557728 107.763561,85.1471335 C108.479152,84.426609 109.41425,83.7225599 110.140816,83.9960517 C111.505048,84.5111828 112.935132,89.1901984 111.443586,92.8708044 C109.95204,96.5514103 107.605517,96.1131645 107.188455,97.8485741 C106.77249,99.585082 104.520354,121.631373 102.800522,125.654668 C100.327782,131.439733 77.3213171,135.659634 73.8377507,136.105568 C70.3542939,136.551502 75.6464833,119.672997 75.6464833,119.672997" id="Fill-76" fill="#FFFFFF"></path>
            <path d="M75.8989157,120.081587 C74.1812782,125.630504 72.1494172,134.127421 73.3767872,135.593732 C73.4843454,135.723338 73.6072689,135.768371 73.7916543,135.745306 C79.2354129,135.047847 100.242175,130.715913 102.466872,125.511881 C103.669767,122.696783 105.170093,110.656556 106.065679,103.462294 C106.441035,100.456082 106.711028,98.2846232 106.836147,97.7640003 C107.045776,96.888607 107.677954,96.47123 108.347448,96.0296891 C109.213401,95.45964 110.291178,94.7490008 111.107741,92.7346077 C112.09552,90.2962474 111.73992,87.3427561 110.991403,85.6304121 C110.687387,84.9362483 110.321908,84.4529697 110.012404,84.3354451 C109.582172,84.1739861 108.856703,84.5628057 108.020384,85.4030515 C107.941362,85.4821334 107.701002,85.7248711 107.425522,85.5656088 C107.146748,85.4052482 107.223576,85.1141827 107.305891,84.8055434 C107.328939,84.7198713 107.35528,84.6232155 107.376133,84.5265598 C107.488081,84.0103304 107.604419,83.4600518 107.725148,82.8889043 C107.933679,81.9069701 108.147698,80.8909866 108.381472,79.8651179 C108.485737,79.4060033 108.428666,79.0072984 108.210257,78.6821837 C107.985263,78.3482821 107.627467,78.1538723 107.390401,78.1154297 C106.906389,78.0352494 106.469571,78.4460362 106.302746,79.1336099 C105.893367,80.8261834 105.163508,83.3557075 104.016587,85.7973629 C103.116611,87.7118052 102.583211,92.2853782 102.264926,95.0191975 C102.152978,95.9747711 102.065175,96.7293447 101.992738,97.0994922 L101.979568,97.1675906 C100.983009,102.310114 97.2788385,119.20839 91.4542363,120.746095 C87.4208063,121.812603 77.7954509,120.380341 75.8989157,120.081587 Z M73.7049493,136.477912 C73.3526415,136.477912 73.0495032,136.335125 72.8194605,136.060535 C70.9165596,133.785831 74.845285,121.012997 75.2996632,119.564259 L75.394051,119.263308 L75.7046525,119.314931 C75.8176983,119.332505 87.0289874,121.162374 91.2687534,120.044243 C96.8244603,118.576833 100.572532,100.615344 101.26727,97.0291971 L101.28044,96.9610988 C101.34739,96.617312 101.434095,95.8748203 101.543848,94.9346237 C101.86762,92.1579684 102.4098,87.5097069 103.359166,85.4876252 C104.480843,83.1008879 105.195337,80.6218883 105.597033,78.963364 C105.854953,77.8990527 106.641884,77.2565118 107.507836,77.3982003 C107.877705,77.4586101 108.441836,77.7255117 108.812802,78.2768887 C109.042186,78.6195772 109.278156,79.2006099 109.08938,80.0265769 C108.856703,81.0469538 108.642685,82.0596422 108.436349,83.0393797 C108.344156,83.469937 108.256353,83.8895107 108.169648,84.2915107 C108.978529,83.6489698 109.683145,83.4358879 110.269227,83.6566583 C110.913478,83.899396 111.378832,84.7055926 111.65541,85.3393466 C112.490632,87.2482971 112.852817,90.3599523 111.780528,93.0070011 C110.878357,95.231181 109.646926,96.0439678 108.74695,96.6370824 C108.108186,97.0588529 107.684539,97.3367381 107.54186,97.9342462 C107.426619,98.4153281 107.144553,100.682344 106.786758,103.55236 C105.885684,110.783965 104.377675,122.887898 103.134172,125.797455 C100.336563,132.342585 74.1450596,136.431781 73.883847,136.46583 C73.8234827,136.473519 73.7631185,136.477912 73.7049493,136.477912 L73.7049493,136.477912 Z" id="Fill-77" fill="#000000"></path>
            <path d="M28.3930126,114.744653 C27.6967383,114.939063 26.9597456,114.644702 26.5828531,114.027424 C26.2461303,113.476047 25.6972545,112.372195 25.2744852,111.495703 C24.9203116,110.761998 24.1006748,110.37867 23.3110005,110.577474 L12.3772773,113.329965 C11.5064954,113.549637 10.9537783,114.400866 11.105567,115.286145 C11.6183339,118.276981 13.190768,125.27134 17.638187,134.140601 C18.8110097,136.47901 20.3274696,138.637289 20.6731922,141.231616 C21.5208161,147.587828 23.2453681,166.044678 22.1262147,169.417743 C21.4924998,171.327792 20.840456,172.830349 20.4319546,174.563562 C19.7227295,177.570873 19.5798308,178.395741 20.1243164,178.99984 C24.3804357,183.714003 56.6016695,183.239511 55.20067,174.65143 C54.2413173,168.76971 53.7670737,162.573859 58.0958496,155.35104 C59.2657089,153.399254 61.2092185,153.46845 63.9180372,149.913057 C65.4884957,147.852533 65.1540777,146.147878 65.5643351,143.410763 C65.8928265,141.219534 69.5234622,139.565403 71.9705195,138.688912 C73.3822749,138.182568 74.4688315,137.039174 74.8826011,135.597027 C76.0031812,131.68247 78.2048304,123.977471 79.1959017,120.382538 C79.4922354,119.311636 78.8238384,118.220964 77.7394768,117.977128 C73.9266507,117.119309 68.8225783,118.682276 52.3035148,114.658981 C40.7855753,111.85267 31.5149422,113.871457 28.3930126,114.744653" id="Fill-78" fill="#026BB0"></path>
            <path d="M28.7611248,166.029301 C28.715687,166.029301 28.6695906,166.020514 28.6250308,166.00294 C28.4392187,165.927153 28.34966,165.71517 28.424841,165.529547 C30.1182231,161.344793 32.0179412,155.569614 31.6748527,147.989828 C31.1034775,135.377355 36.312474,125.099996 36.3652653,124.997848 C36.4569092,124.819914 36.6757571,124.749619 36.8538865,124.841881 C37.0321257,124.933045 37.102258,125.152717 37.0106141,125.330652 C36.9585911,125.431701 31.8377264,135.544306 32.3998823,147.956877 C32.749556,155.677253 30.8188875,161.549088 29.0978476,165.80194 C29.0406662,165.943629 28.9047917,166.029301 28.7611248,166.029301" id="Fill-79" fill="#99B9FF"></path>
            <path d="M42.4207882,83.1788715 C44.9715623,83.0481666 47.3978762,84.2959041 48.8014001,86.4311169 C49.4514683,87.4207397 50.0435868,88.3433625 50.1676079,88.6058706 C50.4502224,89.2055755 51.1114854,91.2342473 53.2263197,93.1069519 C53.4351801,93.2914764 53.4803984,93.6001157 53.3211465,93.8285747 L52.1292268,95.5442138 C52.0470216,95.6628367 52.0184858,95.8089186 52.0510825,95.9495088 C52.2526991,96.8172136 53.1951498,99.9552295 53.0009964,100.541754 C52.5895317,101.785098 49.7015958,102.278262 48.8444233,102.397983 C48.6837446,102.41995 48.5443581,102.518803 48.4738965,102.664885 C48.222891,103.185508 47.5667864,104.671589 47.1634434,108.309359 C46.5487157,113.852785 51.8278445,114.414047 50.7922133,115.011555 C43.5694652,119.18203 29.8351696,119.094161 30.5417607,117.488358 C31.1227941,116.16703 38.4469542,112.422719 38.6409978,103.349163 C38.7620556,97.6915085 30.8535695,97.6695413 35.9347035,86.6299201 C37.1155382,84.0630517 39.9402562,83.3062813 42.4207882,83.1788715" id="Fill-80" fill="#FFFFFF"></path>
            <path d="M30.8961537,117.591604 C31.2813874,117.959554 33.9930597,118.385718 38.430601,117.993604 C43.1741341,117.572932 47.5182754,116.418555 50.4042358,114.81385 C50.3079822,114.750145 50.1915341,114.677653 50.087488,114.613948 C48.876142,113.86267 46.3556598,112.300801 46.8024651,108.26872 C47.0870551,105.704048 47.5393481,103.76654 48.1471613,102.506721 C48.2695361,102.253 48.5115419,102.077262 48.7941564,102.037721 C50.4046748,101.812557 52.3824274,101.256787 52.6564811,100.428623 C52.7634905,100.045295 52.1800425,97.8628527 51.930793,96.9314431 C51.8291615,96.550312 51.7438833,96.2317874 51.6975674,96.0318858 C51.6419226,95.7924432 51.690653,95.5398203 51.8310273,95.3366236 L53.0232763,93.6220829 C53.0754091,93.5462961 53.0596046,93.4441485 52.9857407,93.3782469 C51.083169,91.6944603 50.327628,89.9074278 49.9646742,89.0485099 C49.9152853,88.9320837 49.8743473,88.835428 49.8394458,88.7618378 C49.7835814,88.6432149 49.5349904,88.2082641 48.4982617,86.6310185 C47.1645409,84.6023467 44.8449071,83.4139207 42.4394462,83.5413305 C39.2560548,83.7049862 37.1786462,84.7945598 36.2642924,86.7814939 C33.1319361,93.5869354 35.032203,96.0187055 36.8694715,98.3691969 C37.94187,99.7421475 39.050926,101.161229 39.0040614,103.356852 C38.8515045,110.48631 34.4592913,114.343752 32.0994878,116.41526 C31.5320637,116.913915 31.0375158,117.347768 30.8961537,117.591604 Z M35.1699432,118.86021 C32.7363856,118.86021 30.9202994,118.583423 30.4008375,118.117718 C30.1616853,117.903538 30.0901262,117.613571 30.209428,117.342276 C30.3765821,116.962243 30.871569,116.527292 31.6207443,115.869374 C33.8963671,113.871457 38.1324015,110.15131 38.2781538,103.341475 C38.3197502,101.403967 37.3373494,100.147443 36.2976573,98.817328 C34.4180241,96.4119186 32.2873853,93.6857878 35.6050049,86.477248 C36.6265877,84.2574615 38.9769524,82.9921502 42.4021302,82.8164126 C45.0654012,82.6824126 47.6297847,83.9883632 49.1046482,86.2323136 C50.3245549,88.0874445 50.4535149,88.3609362 50.4958797,88.4510018 C50.5341835,88.5322805 50.5790726,88.6388214 50.6331809,88.7662313 C50.9753914,89.5757229 51.6875799,91.2595095 53.466789,92.8345585 C53.8151456,93.1431978 53.880778,93.6594272 53.6194557,94.0361648 L52.4273164,95.7518039 C52.4033902,95.7858531 52.3953783,95.8275908 52.4045975,95.8671318 C52.4499256,96.0626399 52.5331185,96.3734759 52.6321159,96.7436234 C53.2274173,98.9700001 53.501032,100.185885 53.3455117,100.657082 C52.8821337,102.056393 50.0784883,102.592393 48.8945805,102.757147 C48.8529841,102.763737 48.8177533,102.787901 48.8010708,102.823049 C48.0885531,104.298147 47.7133069,106.642048 47.5242021,108.3489 C47.1276638,111.925162 49.3017649,113.27285 50.4698682,113.995571 C50.9848302,114.315194 51.2955415,114.507407 51.2900538,114.855588 C51.288188,114.988489 51.2315554,115.177407 50.9737451,115.326784 C46.5593618,117.874981 39.7645413,118.86021 35.1699432,118.86021 L35.1699432,118.86021 Z" id="Fill-81" fill="#000000"></path>
            <path d="M47.2398316,91.6197718 L50.0050634,87.729379 C51.4239527,85.7325596 50.7334954,82.9482158 48.5531383,81.8344783 C47.9491665,81.525839 47.2412584,81.2073145 46.4546572,80.919544 C38.6345224,78.0561182 30.1885749,83.9762812 30.6448189,92.2963618 C30.8315091,95.7023777 33.3275163,99.5224754 38.3589321,102.760442 C38.3589321,102.760442 41.6067487,99.8893278 41.4014005,96.9907545 C41.4014005,96.9907545 38.7723724,94.2020173 42.163856,92.5259192 C42.8131559,92.2051979 43.5734163,92.1843291 44.2398377,92.4677061 C45.3147605,92.9257224 46.5628739,92.5720503 47.2398316,91.6197718" id="Fill-82" fill="#000000"></path>
            <path d="M42.8891051,98.6042461 C41.917899,98.6042461 40.7143455,98.1890658 39.7317251,96.5569021 C39.6284474,96.3855579 39.683763,96.1614924 39.8553072,96.0582465 C40.026632,95.9550006 40.2499797,96.0099186 40.3536965,96.1823612 C41.975739,98.8766395 44.1874854,97.589361 44.2807756,97.5333446 C44.4527589,97.4311971 44.6758871,97.4861151 44.7789454,97.6585577 C44.8822232,97.8299019 44.8264685,98.0528691 44.654595,98.156115 C44.6397783,98.1649019 43.8870909,98.6042461 42.8891051,98.6042461" id="Fill-83" fill="#000000"></path>
            <path d="M34.1839205,84.1750845 C34.1839205,84.1750845 31.1062213,75.3925941 21.792565,77.5992003 C15.9777309,78.9765443 11.0683606,83.214019 8.61054752,89.8184606 C3.85439272,102.597885 9.45542764,114.192178 1.17400014,125.518471 C-0.69553582,128.075454 1.14733011,131.702241 4.31272207,131.635241 C10.2952591,131.507831 18.2716825,129.613159 23.4369972,121.606111 C27.6693,115.044506 23.1694189,86.2257235 33.2803224,86.0972153 L34.1839205,84.1750845" id="Fill-84" fill="#000000"></path>
            <path d="M134.424808,12.6556714 C134.366639,12.6556714 134.307372,12.6417223 134.252496,12.6121764 C120.897727,5.40671196 94.8730484,3.22437952 94.6107383,3.20307133 C94.4109875,3.18681559 94.2628207,3.01151726 94.2792836,2.81172549 C94.2946491,2.61160421 94.4735468,2.46453374 94.670005,2.47892226 C94.9323152,2.50023046 121.10955,4.69585305 134.597121,11.9727109 C134.773823,12.0680486 134.839675,12.28816 134.74419,12.4648862 C134.678338,12.5866944 134.554317,12.6556714 134.424808,12.6556714" id="Fill-85" fill="#FFFFFF"></path>
            <path d="M132.201208,16.5949413 C132.138649,16.5949413 132.07609,16.5791249 132.019018,16.5455151 C124.134348,11.9526109 110.135328,9.92119319 109.994844,9.90131287 C109.796191,9.87286533 109.657902,9.68910962 109.686437,9.49052605 C109.713876,9.29161297 109.898261,9.15464741 110.096914,9.18188675 C110.238496,9.20220642 124.376903,11.2530651 132.384496,15.9179119 C132.556809,16.0186316 132.616075,16.2411594 132.515102,16.4144807 C132.447055,16.5303577 132.326327,16.5949413 132.201208,16.5949413" id="Fill-86" fill="#FFFFFF"></path>
            <path d="M101.682137,9.16936545 L104.931929,10.656216 C104.940709,9.94195221 104.945099,8.62183275 104.883638,7.23669035 L101.682137,9.16936545 Z M105.284237,11.5803765 C105.232653,11.5803765 105.181069,11.5695028 105.132777,11.5475356 L100.75582,9.54390637 C100.632896,9.48788998 100.551679,9.36871787 100.543996,9.23416871 C100.536313,9.09983923 100.603263,8.9720999 100.719601,8.90257369 L105.028512,6.3014364 C105.137167,6.23564461 105.272164,6.23212985 105.384112,6.29100198 C105.497158,6.35031344 105.570693,6.46410359 105.577278,6.59129373 C105.711177,8.88203434 105.64752,11.2042979 105.646422,11.2275831 C105.64313,11.3493913 105.579473,11.4612044 105.476305,11.5255683 C105.417038,11.5619241 105.351186,11.5803765 105.284237,11.5803765 L105.284237,11.5803765 Z" id="Fill-87" fill="#FFFFFF"></path>
            <path d="M91.8669084,174.996316 C86.5186351,169.711005 86.4396128,161.062515 91.6913032,155.67945 C96.9418962,150.296385 105.534474,150.217303 110.882747,155.501516 C116.231021,160.786826 116.310043,169.435317 111.05945,174.818381 C105.807759,180.201446 97.2151817,180.281626 91.8669084,174.996316" id="Fill-88" fill="#026BB0"></path>
            <path d="M110.569951,164.519055 L101.350682,173.969349 C100.86228,174.470201 100.064375,174.47789 99.5671927,173.985824 L93.0818762,167.577989 C92.5846943,167.087022 92.5770115,166.283022 93.0654133,165.78217 L102.284682,156.330778 C102.773084,155.831024 103.572087,155.823335 104.069269,156.314302 L110.553488,162.723236 C111.05067,163.214203 111.058352,164.018203 110.569951,164.519055" id="Fill-89" fill="#FFFFFF"></path>
            <path d="M103.184658,156.314302 C103.182463,156.314302 103.17917,156.314302 103.176975,156.314302 C102.936616,156.316499 102.712719,156.412056 102.544797,156.584499 L93.3255283,166.035891 C92.9765132,166.392858 92.9820008,166.969497 93.3376012,167.319874 L99.8218201,173.727709 C99.99084,173.89466 100.213639,173.986922 100.450706,173.986922 C100.452901,173.986922 100.456194,173.986922 100.458389,173.985824 C100.698748,173.984726 100.922645,173.88807 101.091665,173.715627 L110.309836,164.265334 C110.658851,163.907268 110.653363,163.331727 110.29886,162.98135 L103.813544,156.573515 C103.644524,156.405466 103.421725,156.314302 103.184658,156.314302 Z M100.449608,174.712939 C100.021571,174.712939 99.6176791,174.547086 99.3114677,174.245037 L92.8272488,167.836104 C92.1895828,167.205645 92.179705,166.170989 92.8063957,165.528448 L102.024567,156.077056 C102.328583,155.76622 102.735767,155.591581 103.17039,155.588286 C103.17478,155.587188 103.180268,155.587188 103.185756,155.587188 C103.613793,155.587188 104.017685,155.754138 104.323896,156.056188 L110.808115,162.464023 C111.446879,163.094482 111.456757,164.130235 110.830066,164.772776 L101.610797,174.22307 C101.306781,174.535004 100.899596,174.708545 100.464974,174.712939 C100.460584,174.712939 100.455096,174.712939 100.449608,174.712939 L100.449608,174.712939 Z" id="Fill-90" fill="#000000"></path>
            <path d="M96.3437413,167.123268 C96.1769164,167.123268 96.0265545,167.006842 95.9892384,166.837694 C95.9464347,166.641088 96.0704558,166.447776 96.266914,166.40494 L102.150783,165.115465 C102.346144,165.070432 102.539309,165.197842 102.582113,165.39335 C102.626014,165.588858 102.501993,165.78217 102.305535,165.825006 L96.421666,167.114481 C96.3953253,167.119973 96.3689845,167.123268 96.3437413,167.123268" id="Fill-91" fill="#000000"></path>
            <path d="M102.252853,165.80853 C102.229805,165.80853 102.20566,165.806334 102.182611,165.80194 C101.985056,165.763498 101.857742,165.572383 101.896156,165.375776 L103.06832,159.430351 C103.107831,159.233744 103.299899,159.106335 103.49526,159.144777 C103.691718,159.18322 103.820129,159.374335 103.780618,159.570941 L102.608454,165.516366 C102.57443,165.688809 102.422971,165.80853 102.252853,165.80853" id="Fill-92" fill="#000000"></path>
            <path d="M66.9362501,164.734334 C66.8589839,164.734334 66.7811688,164.709071 66.7153169,164.658547 C65.2884156,163.562383 64.5017047,162.76058 64.469108,162.727629 C64.3290629,162.583744 64.3315872,162.354187 64.4748152,162.213596 C64.6184821,162.073006 64.8481955,162.076301 64.9881309,162.219088 C64.9959233,162.226777 65.7755003,163.019793 67.1577321,164.083006 C67.3164352,164.204924 67.3465076,164.432285 67.2243522,164.591547 C67.1530127,164.684908 67.045235,164.734334 66.9362501,164.734334 Z M71.8480349,167.829514 C71.7929388,167.829514 71.7369647,167.817432 71.6845027,167.791071 C70.8217328,167.353923 69.9614872,166.866251 69.1275824,166.340137 C68.957904,166.233596 68.907198,166.008432 69.0142074,165.839284 C69.1209972,165.669038 69.3454425,165.618514 69.514682,165.726153 C70.3294897,166.239088 71.1695407,166.716874 72.012116,167.143038 C72.1909039,167.233104 72.2627923,167.451678 72.1723556,167.63071 C72.1082598,167.757022 71.9806168,167.829514 71.8480349,167.829514 Z M77.2642455,169.905415 C77.2335146,169.905415 77.2027837,169.90212 77.1709552,169.893333 C76.2391506,169.648399 75.2963706,169.343054 74.3711512,168.987186 C74.1845708,168.914694 74.0912805,168.704907 74.1626201,168.518186 C74.2350572,168.330366 74.4457834,168.238104 74.6323638,168.308399 C75.53234,168.655481 76.4487792,168.952038 77.3553406,169.190382 C77.5496038,169.242005 77.6659422,169.440808 77.6143582,169.63412 C77.5715544,169.797776 77.4244851,169.905415 77.2642455,169.905415 Z M83.0021426,170.692939 C83.0010451,170.692939 82.9999476,170.692939 82.99885,170.692939 C82.0253392,170.681956 81.0364629,170.608366 80.0596594,170.473267 C79.8610061,170.445808 79.7216196,170.262382 79.7490579,170.063579 C79.7775937,169.864776 79.959784,169.72748 80.1584373,169.752743 C81.1056074,169.884546 82.0637528,169.955939 83.0065327,169.965825 C83.2062836,169.968021 83.3676208,170.132775 83.3654478,170.333775 C83.3632306,170.532579 83.2007959,170.692939 83.0021426,170.692939 L83.0021426,170.692939 Z" id="Fill-93" fill="#026BB0"></path>
            <path d="M135.049304,155.358729 C134.876991,155.358729 134.724434,155.234614 134.692606,155.058876 C134.657485,154.861171 134.789189,154.672253 134.986744,154.637106 C135.956963,154.464663 136.932669,154.324073 137.886424,154.221926 C138.08398,154.199958 138.263975,154.344942 138.285926,154.544844 C138.306779,154.744745 138.163002,154.923778 137.963251,154.944647 C137.025959,155.045696 136.067813,155.181893 135.114058,155.352139 C135.092108,155.356532 135.071254,155.358729 135.049304,155.358729 Z M129.410185,156.739368 C129.255433,156.739368 129.111656,156.639417 129.063364,156.48345 C129.004098,156.292335 129.110558,156.08804 129.302626,156.028729 C130.242114,155.737663 131.190381,155.474057 132.122186,155.245598 C132.316449,155.198368 132.514005,155.316991 132.561199,155.511401 C132.60949,155.706909 132.489859,155.903515 132.295596,155.950745 C131.376962,156.177007 130.442962,156.43622 129.517743,156.722892 C129.481524,156.733876 129.445306,156.739368 129.410185,156.739368 Z M123.966426,158.76804 C123.827039,158.76804 123.69314,158.686761 123.633874,158.550564 C123.553754,158.36604 123.637166,158.152958 123.821552,158.071679 C124.712748,157.682859 125.624797,157.31381 126.533553,156.974417 C126.720134,156.904122 126.93086,157.000778 127.000004,157.188597 C127.070246,157.376417 126.974761,157.585105 126.787083,157.6554 C125.890399,157.989302 124.990423,158.353958 124.1113,158.738384 C124.064106,158.758154 124.014717,158.76804 123.966426,158.76804 Z M118.790465,161.416187 C118.669737,161.416187 118.552301,161.355777 118.483156,161.247039 C118.375598,161.077892 118.426085,160.852728 118.595104,160.746187 C118.633518,160.722023 119.551055,160.142089 121.173207,159.319417 C121.351007,159.229351 121.570514,159.300744 121.660511,159.479777 C121.751606,159.65881 121.679169,159.877384 121.500272,159.967449 C119.91324,160.772547 118.993509,161.35358 118.983631,161.359072 C118.923267,161.397515 118.856317,161.416187 118.790465,161.416187 L118.790465,161.416187 Z" id="Fill-94" fill="#026BB0"></path>
        </g>
    </g>
</svg>