<?xml version="1.0" encoding="UTF-8"?>
<svg width="207px" height="207px" viewBox="0 0 207 207" version="1.1" xmlns="http://www.w3.org/2000/svg" xmlns:xlink="http://www.w3.org/1999/xlink">
    <title>03 2</title>
    <g id="Page-1" stroke="none" stroke-width="1" fill="none" fill-rule="evenodd">
        <g id="Group" transform="translate(-0.000000, 0.000000)">
            <path d="M187.522114,183.936543 C199.545994,173.918492 206.118317,157.340548 206.273077,147.052434 C207.428788,70.3716744 212.311227,33.4468808 166.514645,12.5579077 C155.928538,7.72846682 92.4792918,-11.6439585 44.5210572,10.1318306 C22.3678624,20.1908155 -12.6753716,39.7656635 4.78009781,122.15619 C11.6918946,154.775446 31.9605078,196.343481 62.3933811,203.263542 C81.5312453,207.614007 87.6218138,208.055793 127.397719,204.446629 C161.824408,201.324677 172.814889,196.18998 187.522114,183.936543" id="Fill-49" fill="#E5F0F7"></path>
            <path d="M120.735536,8.71636941 C120.66814,8.71636941 120.600745,8.69864806 120.540837,8.6612086 L119.202909,7.84028601 C119.025684,7.73196117 118.970769,7.50158368 119.078102,7.32536862 C119.187932,7.14890396 119.417577,7.09399275 119.594802,7.20206799 L120.930234,8.02299058 C121.10746,8.13131542 121.162375,8.36169291 121.055041,8.53790797 C120.985149,8.65322151 120.860343,8.71636941 120.735536,8.71636941" id="Fill-50" fill="#000000"></path>
            <path d="M125.415788,11.5892241 C125.350889,11.5892241 125.283493,11.5715027 125.22109,11.5340633 L123.883162,10.7131407 C123.708432,10.6050654 123.653517,10.3746879 123.760851,10.1984729 C123.868185,10.0220082 124.100325,9.96709701 124.275055,10.0751723 L125.612983,10.8958453 C125.790208,11.0041701 125.845123,11.234298 125.735293,11.410513 C125.665402,11.5258266 125.543091,11.5892241 125.415788,11.5892241" id="Fill-51" fill="#000000"></path>
            <path d="M120.580775,12.7653224 C120.51338,12.7653224 120.445984,12.7481002 120.386077,12.7111599 C120.208851,12.6045823 120.153936,12.3742048 120.258774,12.1972409 L121.072514,10.8536635 C121.179848,10.6766996 121.409492,10.619542 121.586718,10.7271181 C121.763943,10.8339453 121.818858,11.0643228 121.711524,11.2412867 L120.900281,12.5848642 C120.830389,12.7009265 120.705582,12.7653224 120.580775,12.7653224" id="Fill-52" fill="#000000"></path>
            <path d="M123.423873,8.06292601 C123.356477,8.06292601 123.289082,8.04570385 123.229174,8.00901318 C123.051949,7.90218592 122.994538,7.67180843 123.101871,7.49484458 L123.915611,6.15126711 C124.020449,5.97430326 124.252589,5.91739527 124.429815,6.02472173 C124.607041,6.13154899 124.661956,6.36192648 124.554622,6.53889033 L123.743378,7.8824678 C123.673486,7.99877973 123.54868,8.06292601 123.423873,8.06292601" id="Fill-53" fill="#000000"></path>
            <path d="M4.96481177,89.0607047 C4.78758622,89.0607047 4.63032973,88.9341594 4.59787998,88.7534516 C2.74824422,78.5966249 3.64435656,67.7871036 7.19386,57.4927493 C7.26125563,57.2970657 7.47342707,57.1937328 7.66812558,57.2608742 C7.86532021,57.3280157 7.96766173,57.541171 7.9002661,57.736605 C4.39569308,67.909905 3.50706915,78.5888874 5.3342397,88.6191687 C5.37168172,88.8225898 5.23689045,89.0175246 5.03220741,89.0547144 C5.0097422,89.058708 4.98727699,89.0607047 4.96481177,89.0607047" id="Fill-54" fill="#000000"></path>
            <path d="M9.22321745,54.0922478 L10.4812693,55.1058588 C10.586107,54.7709004 10.7258905,54.3026576 10.8581856,53.7969753 L9.22321745,54.0922478 Z M10.6709755,56.1134795 C10.586107,56.1134795 10.5037345,56.0850255 10.4363389,56.0306135 L8.11493367,54.1611364 C8.00260762,54.0692849 7.95018879,53.9190279 7.98763081,53.7770075 C8.02257669,53.6349872 8.13989502,53.5271615 8.28467083,53.5009539 L11.2925131,52.9573329 C11.4173198,52.9351189 11.5446227,52.9765519 11.6319874,53.0676545 C11.7168559,53.1587572 11.7518018,53.287549 11.7243443,53.4103504 C11.439785,54.6398623 11.0428996,55.8104695 11.0254266,55.85964 C10.9854885,55.9754527 10.8931315,56.0648082 10.7758132,56.0985037 C10.7408673,56.1084876 10.7059214,56.1134795 10.6709755,56.1134795 L10.6709755,56.1134795 Z" id="Fill-55" fill="#000000"></path>
            <path d="M147.47413,198.900347 C147.296904,198.900347 147.139648,198.775299 147.107198,198.595839 C147.06726,198.392418 147.202051,198.196735 147.404238,198.158297 C169.69472,193.93887 186.311489,182.822594 195.462318,166.011278 C195.559667,165.829322 195.789312,165.76243 195.969033,165.86127 C196.151251,165.96011 196.218647,166.187493 196.118802,166.368949 C191.645728,174.58766 185.44533,181.484009 177.684847,186.866805 C169.370223,192.635477 159.228428,196.681934 147.544022,198.893857 C147.521556,198.89835 147.496595,198.900347 147.47413,198.900347" id="Fill-56" fill="#000000"></path>
            <path d="M157.942919,189.905142 C157.78067,189.905142 157.630902,189.798814 157.583475,189.635079 C157.526064,189.4364 157.640886,189.228736 157.838081,189.171328 C171.491937,185.208486 181.868369,177.320491 191.478487,163.595684 C191.595806,163.425958 191.830442,163.385274 191.997683,163.503832 C192.16742,163.622141 192.209855,163.855763 192.09004,164.025239 C182.375084,177.899804 171.876342,185.876905 158.047756,189.890416 C158.01281,189.900649 157.977864,189.905142 157.942919,189.905142" id="Fill-57" fill="#000000"></path>
            <path d="M197.504156,21.8184337 C197.416792,21.8184337 197.326931,21.7877334 197.257039,21.7253343 C189.970822,15.3251831 181.446522,10.1752604 171.918776,6.41858486 C171.726574,6.34295715 171.631721,6.12555868 171.709101,5.93311985 C171.783985,5.74043142 172.001149,5.64633357 172.193351,5.72196129 C181.800973,9.51033558 190.400157,14.7054352 197.751274,21.1627439 C197.906034,21.2992732 197.921011,21.535641 197.783723,21.6911395 C197.711335,21.7752535 197.606498,21.8184337 197.504156,21.8184337" id="Fill-58" fill="#000000"></path>
            <path d="M188.695297,20.8073187 C188.615421,20.8073187 188.533048,20.7808614 188.463157,20.726699 C179.132605,13.3561171 168.089706,8.13056663 155.643979,5.19456407 C155.444288,5.14714076 155.319481,4.94546686 155.366908,4.74404255 C155.414334,4.54311744 155.614025,4.41782005 155.816212,4.46574256 C168.369273,7.42695436 179.509522,12.7001777 188.927438,20.1391491 C189.089686,20.2674416 189.117144,20.5025614 188.989841,20.6650487 C188.914957,20.7586474 188.805127,20.8073187 188.695297,20.8073187" id="Fill-59" fill="#000000"></path>
            <path d="M201.750081,136.693434 L83.2660589,120.202849 C80.2906664,119.823213 78.0616182,117.289809 78.0616182,114.288412 L76.4366346,31.5798997 C76.4366346,31.5798997 79.1374522,29.6313005 80.6675827,28.8845081 C81.4463768,28.5043727 82.3449852,28.3378919 83.2785396,28.4569494 L201.408111,43.5340701 C204.383503,43.9137062 206.612552,46.4471098 206.612552,49.4485066 L206.612552,130.683901 C206.612552,132.137051 205.94858,133.418729 204.922668,134.263613 C203.976633,135.041605 201.750081,136.693434 201.750081,136.693434" id="Fill-60" fill="#D0E0EA"></path>
            <path d="M198.133182,137.792157 L80.0036109,122.715037 C77.0282185,122.3354 74.7991702,119.801997 74.7991702,116.8006 L74.7991702,35.5652055 C74.7991702,32.7737193 77.2478783,30.6159583 80.0135955,30.9691373 L198.145663,46.046258 C201.121055,46.4258941 203.350104,48.9592977 203.350104,51.9606945 L203.350104,133.196089 C203.350104,135.987575 200.901395,138.145336 198.133182,137.792157" id="Fill-61" fill="#FFFFFF"></path>
            <path d="M195.624567,134.443572 L82.8267392,120.04735 C80.6625905,119.771297 79.0425991,117.929025 79.0425991,115.746305 L79.0425991,37.3872593 C79.0425991,35.5227742 80.6775673,34.0818541 82.5247069,34.3177227 L195.322535,48.7139444 C197.486683,48.989998 199.106675,50.8325187 199.106675,53.0149897 L199.106675,131.374035 C199.106675,133.23852 197.471706,134.67944 195.624567,134.443572" id="Fill-62" fill="#D0E0EA"></path>
            <path d="M198.719774,138.203991 C198.510099,138.203991 198.297927,138.190513 198.085756,138.163557 L97.2693742,125.296612 C97.0646911,125.270155 96.9199153,125.082708 96.9473728,124.877789 C96.9723341,124.672372 97.1595442,124.527855 97.3642273,124.553564 L198.180609,137.420758 C199.39373,137.575757 200.61434,137.201113 201.530421,136.393918 C202.448999,135.585475 202.975683,134.41986 202.975683,133.196089 L202.975683,51.9606945 C202.975683,49.1554804 200.87893,46.7725835 198.098236,46.4176574 L121.474392,36.6382205 C121.269709,36.6117633 121.124933,36.4243164 121.149894,36.2193977 C121.177352,36.0142295 121.362066,35.8689644 121.569245,35.895172 L198.193089,45.6748585 C201.345707,46.0774575 203.724524,48.7798378 203.724524,51.9606945 L203.724524,133.196089 C203.724524,134.635012 203.105482,136.005546 202.024656,136.956009 C201.106079,137.764702 199.927903,138.203991 198.719774,138.203991" id="Fill-63" fill="#000000"></path>
            <path d="M129.217401,185.634048 L7.72304054,169.953653 C6.77201324,169.8316 6.2353443,169.034889 6.24761204,168.238177 C6.25780951,167.688316 6.3002438,163.818324 6.3002438,163.818324 L70.5407646,127.065003 C73.7607782,125.225228 77.9243308,124.514627 81.6011371,124.985865 L201.560375,140.472573 C202.281758,140.565673 202.900799,141.034415 203.187855,141.704831 L203.380057,142.15685 C203.380057,142.15685 203.27522,145.384381 203.317654,146.138412 C203.350104,146.727958 203.085513,147.336474 202.468968,147.689404 L139.84095,183.525458 C136.623433,185.364983 132.891711,186.105536 129.217401,185.634048" id="Fill-64" fill="#026BB0"></path>
            <path d="M22.6649024,167.552036 L8.15736796,165.67607 C6.54985726,165.470153 6.12801051,163.337351 7.53583044,162.533152 L69.8268701,126.928224 C73.0443876,125.088449 76.7736127,124.348146 80.450419,124.819384 L201.510452,140.470077 C203.115467,140.675994 203.53981,142.809045 202.13199,143.612995 L139.84095,179.218172 C136.623433,181.057948 132.891711,181.798251 129.217401,181.327013 L22.6649024,167.552036" id="Fill-65" fill="#FFFFFF"></path>
            <path d="M152.9182,161.56297 L47.9457539,147.892825 C46.4930036,147.706875 46.111095,145.780241 47.3816275,145.054165 L72.0659028,131.088247 C74.9714035,129.426684 78.3411853,128.758015 81.6610443,129.183577 L186.63349,142.853972 C188.08624,143.040171 188.468149,144.966556 187.197616,145.692632 L162.515837,159.65855 C159.60784,161.320113 156.238059,161.988782 152.9182,161.56297" id="Fill-66" fill="#D0E0EA"></path>
            <path d="M131.356589,181.837437 C130.625221,181.837437 129.89635,181.791262 129.169975,181.698412 L69.8842812,174.088717 C69.6795981,174.062509 69.5348223,173.875062 69.5622798,173.669644 C69.5872411,173.464726 69.7719551,173.31971 69.9816304,173.346167 L129.264828,180.955863 C132.836796,181.413123 136.52858,180.681307 139.656236,178.892948 L201.947276,143.288021 C202.553837,142.94183 202.673651,142.338556 202.58379,141.889532 C202.493929,141.440758 202.154455,140.929834 201.463026,140.841477 L80.4029925,125.190534 C76.8310238,124.733024 73.1392407,125.46509 70.011584,127.253448 L61.2850974,132.241632 C61.1053757,132.344716 60.8757313,132.282317 60.7733898,132.102358 C60.6710483,131.923147 60.7334516,131.694267 60.9131733,131.591683 L69.63966,126.603 C72.9095963,124.734771 76.7661243,123.970756 80.4978456,124.447735 L201.557879,140.098678 C202.451495,140.213242 203.142924,140.858948 203.317654,141.743768 C203.494879,142.629086 203.10049,143.490443 202.3192,143.93797 L140.02816,179.543397 C137.394738,181.048213 134.379408,181.837437 131.356589,181.837437" id="Fill-67" fill="#D0E0EA"></path>
            <path d="M189.15209,131.806586 L85.8046278,119.235413 L85.8046278,21.8156882 C85.8046278,18.2679248 88.6052909,15.7327741 92.0599412,16.1528448 L182.896776,27.2019787 C186.351427,27.622299 189.15209,30.8390975 189.15209,34.3866113 L189.15209,131.806586" id="Fill-68" fill="#FFFFFF"></path>
            <path d="M189.219485,37.469127 L189.219485,34.3945984 C189.219485,30.8470846 186.351427,27.6996739 182.896776,27.2793536 L92.0599412,16.2302197 C88.6052909,15.8098994 85.8245969,18.2704208 85.8245969,21.8181841 L85.8245969,24.8927127 L189.219485,37.469127" id="Fill-69" fill="#026BB0"></path>
            <polyline id="Fill-70" fill="#D0E0EA" points="137.494584 97.3011302 92.4543305 91.735879 92.389431 85.5304131 137.427188 91.0954147 137.494584 97.3011302"></polyline>
            <polyline id="Fill-71" fill="#D0E0EA" points="137.494584 88.1347021 92.4543305 82.4783482 92.389431 76.2728823 137.427188 81.9292361 137.494584 88.1347021"></polyline>
            <polyline id="Fill-72" fill="#D0E0EA" points="137.479607 78.5085173 92.371958 72.8676385 92.371958 31.5322268 137.479607 36.7323184 137.479607 78.5085173"></polyline>
            <path d="M92.371958,63.643304 C92.4318652,63.1206491 92.7314014,62.6559006 93.1058216,62.2837524 L106.315366,49.063629 C107.228951,48.1526021 108.701671,48.1438662 109.61276,49.0449092 L115.658398,55.0202473 C116.537037,55.8898411 117.952346,55.9215399 118.880908,55.092131 L119.322724,54.6960215 C120.283735,53.8381587 121.756455,53.9043017 122.62511,54.8450306 L134.768805,67.9910239 C135.208124,68.4667546 137.482103,70.5875753 137.434676,71.2322828 C137.364785,75.4601964 137.479607,78.5085173 137.479607,78.5085173 L92.371958,72.8676385 L92.371958,63.643304" id="Fill-73" fill="#026BB0"></path>
            <path d="M134.057406,43.8827563 C134.057406,46.0702192 132.267678,47.8563311 130.063591,47.8720557 C127.862,47.8880299 126.07976,46.1308711 126.07976,43.9474018 C126.07976,41.7639324 127.862,39.9780701 130.063591,39.9581023 C132.267678,39.9381346 134.057406,41.6952934 134.057406,43.8827563" id="Fill-74" fill="#FFFFFF"></path>
            <path d="M140.999157,38.384397 C140.791978,38.384397 140.624736,38.2166682 140.624736,38.0100024 L140.624736,37.4309387 C140.624736,37.3236122 140.669667,37.2212777 140.752039,37.1501427 C140.831916,37.0790078 140.939249,37.0463106 141.046583,37.0595392 L143.442872,37.3630485 C143.647556,37.3890065 143.792331,37.5762038 143.76737,37.7816217 C143.742409,37.9865403 143.555199,38.1303078 143.348019,38.106097 L141.373577,37.8560014 L141.373577,38.0100024 C141.373577,38.2166682 141.206336,38.384397 140.999157,38.384397 Z M149.338742,38.8611261 L149.291316,38.858131 L146.320916,38.4819892 C146.116233,38.4560312 145.971457,38.2688339 145.996418,38.0636656 C146.02138,37.8582478 146.206094,37.7134818 146.415769,37.7391903 L149.386169,38.1153321 C149.590852,38.1412901 149.735628,38.3284874 149.710667,38.5336556 C149.685705,38.7228497 149.525953,38.8611261 149.338742,38.8611261 Z M155.282039,39.6134097 L155.234612,39.6104145 L152.264212,39.2342728 C152.059529,39.2083147 151.914753,39.0211174 151.939715,38.8156996 C151.964676,38.6105313 152.14939,38.4655158 152.359065,38.4912243 L155.329466,38.867366 C155.534149,38.8935737 155.678924,39.080771 155.653963,39.2859392 C155.629002,39.4751333 155.469249,39.6134097 155.282039,39.6134097 Z M161.225336,40.3654437 L161.177909,40.3626981 L158.207509,39.9865563 C158.002826,39.9603487 157.85805,39.7731514 157.883011,39.5679832 C157.907973,39.3628149 158.095183,39.2175498 158.302362,39.2435078 L161.272762,39.6196496 C161.477445,39.6456076 161.622221,39.8328049 161.59726,40.0382228 C161.572298,40.2274169 161.412546,40.3654437 161.225336,40.3654437 Z M167.168632,41.1177273 L167.121206,41.1147321 L164.150805,40.7385903 C163.946122,40.7126323 163.801347,40.525435 163.826308,40.3202667 C163.851269,40.1150985 164.038479,39.9690846 164.245658,39.9957914 L167.216059,40.3719332 C167.420742,40.3978912 167.565518,40.5850885 167.540556,40.7902568 C167.515595,40.9794509 167.355842,41.1177273 167.168632,41.1177273 Z M173.111929,41.8700108 L173.064502,41.8670157 L170.094102,41.4908739 C169.889419,41.4649159 169.744643,41.2777186 169.769604,41.0723007 C169.794566,40.8673821 169.97928,40.7226161 170.188955,40.7478254 L173.159355,41.1239672 C173.364038,41.1501748 173.508814,41.3373721 173.483853,41.5425404 C173.458891,41.7317344 173.299139,41.8700108 173.111929,41.8700108 Z M179.055225,42.6217952 L179.007799,42.6190497 L176.037398,42.2429079 C175.832715,42.2167003 175.68794,42.0295029 175.712901,41.8243347 C175.737862,41.619416 175.922576,41.4746501 176.132252,41.4998594 L179.102652,41.8760012 C179.307335,41.9022088 179.452111,42.0894061 179.427149,42.2945743 C179.402188,42.4837684 179.242435,42.6217952 179.055225,42.6217952 Z M140.999157,44.3747108 C140.791978,44.3747108 140.624736,44.206982 140.624736,44.0003162 L140.624736,41.0051593 C140.624736,40.7984935 140.791978,40.6307647 140.999157,40.6307647 C141.206336,40.6307647 141.373577,40.7984935 141.373577,41.0051593 L141.373577,44.0003162 C141.373577,44.206982 141.206336,44.3747108 140.999157,44.3747108 Z M182.632186,45.4609544 C182.425007,45.4609544 182.257766,45.2932256 182.257766,45.0865598 L182.257766,43.030135 L181.980695,42.9949419 C181.776012,42.9689838 181.631236,42.7815369 181.656198,42.5766183 C181.681159,42.3712004 181.868369,42.2261849 182.075548,42.2521429 L182.679613,42.3285194 C182.866823,42.3522311 183.006606,42.5114736 183.006606,42.7001685 L183.006606,45.0865598 C183.006606,45.2932256 182.836869,45.4609544 182.632186,45.4609544 Z M140.999157,50.3650246 C140.791978,50.3650246 140.624736,50.1972958 140.624736,49.99063 L140.624736,46.9954731 C140.624736,46.7888073 140.791978,46.6210785 140.999157,46.6210785 C141.206336,46.6210785 141.373577,46.7888073 141.373577,46.9954731 L141.373577,49.99063 C141.373577,50.1972958 141.206336,50.3650246 140.999157,50.3650246 Z M182.632186,51.4512682 C182.425007,51.4512682 182.257766,51.2835394 182.257766,51.0768736 L182.257766,48.0817167 C182.257766,47.8750509 182.425007,47.7073221 182.632186,47.7073221 C182.836869,47.7073221 183.006606,47.8750509 183.006606,48.0817167 L183.006606,51.0768736 C183.006606,51.2835394 182.836869,51.4512682 182.632186,51.4512682 Z M140.999157,56.3553384 C140.791978,56.3553384 140.624736,56.1876097 140.624736,55.9809438 L140.624736,52.9857869 C140.624736,52.7791211 140.791978,52.6113923 140.999157,52.6113923 C141.206336,52.6113923 141.373577,52.7791211 141.373577,52.9857869 L141.373577,55.9809438 C141.373577,56.1876097 141.206336,56.3553384 140.999157,56.3553384 Z M182.632186,57.441582 C182.425007,57.441582 182.257766,57.2738532 182.257766,57.0671874 L182.257766,54.0720305 C182.257766,53.8653647 182.425007,53.6976359 182.632186,53.6976359 C182.836869,53.6976359 183.006606,53.8653647 183.006606,54.0720305 L183.006606,57.0671874 C183.006606,57.2738532 182.836869,57.441582 182.632186,57.441582 Z M140.999157,62.3456523 C140.791978,62.3456523 140.624736,62.1779235 140.624736,61.9712577 L140.624736,58.9761007 C140.624736,58.7694349 140.791978,58.6017061 140.999157,58.6017061 C141.206336,58.6017061 141.373577,58.7694349 141.373577,58.9761007 L141.373577,61.9712577 C141.373577,62.1779235 141.206336,62.3456523 140.999157,62.3456523 Z M182.632186,63.4318958 C182.425007,63.4318958 182.257766,63.2641671 182.257766,63.0575012 L182.257766,60.0623443 C182.257766,59.8556785 182.425007,59.6879497 182.632186,59.6879497 C182.836869,59.6879497 183.006606,59.8556785 183.006606,60.0623443 L183.006606,63.0575012 C183.006606,63.2641671 182.836869,63.4318958 182.632186,63.4318958 Z M140.999157,68.3359661 C140.791978,68.3359661 140.624736,68.1682373 140.624736,67.9615715 L140.624736,64.9664146 C140.624736,64.7597487 140.791978,64.59202 140.999157,64.59202 C141.206336,64.59202 141.373577,64.7597487 141.373577,64.9664146 L141.373577,67.9615715 C141.373577,68.1682373 141.206336,68.3359661 140.999157,68.3359661 Z M182.632186,69.4222097 C182.425007,69.4222097 182.257766,69.2544809 182.257766,69.047815 L182.257766,66.0526581 C182.257766,65.8459923 182.425007,65.6782635 182.632186,65.6782635 C182.836869,65.6782635 183.006606,65.8459923 183.006606,66.0526581 L183.006606,69.047815 C183.006606,69.2544809 182.836869,69.4222097 182.632186,69.4222097 Z M140.999157,74.3262799 C140.791978,74.3262799 140.624736,74.1585511 140.624736,73.9518853 L140.624736,70.9567284 C140.624736,70.7500626 140.791978,70.5823338 140.999157,70.5823338 C141.206336,70.5823338 141.373577,70.7500626 141.373577,70.9567284 L141.373577,73.9518853 C141.373577,74.1585511 141.206336,74.3262799 140.999157,74.3262799 Z M182.632186,75.4125235 C182.425007,75.4125235 182.257766,75.2447947 182.257766,75.0381289 L182.257766,72.042972 C182.257766,71.8363061 182.425007,71.6685773 182.632186,71.6685773 C182.836869,71.6685773 183.006606,71.8363061 183.006606,72.042972 L183.006606,75.0381289 C183.006606,75.2447947 182.836869,75.4125235 182.632186,75.4125235 Z M140.999157,80.3165937 C140.791978,80.3165937 140.624736,80.1488649 140.624736,79.9421991 L140.624736,76.9470422 C140.624736,76.7403764 140.791978,76.5726476 140.999157,76.5726476 C141.206336,76.5726476 141.373577,76.7403764 141.373577,76.9470422 L141.373577,79.9421991 C141.373577,80.1488649 141.206336,80.3165937 140.999157,80.3165937 Z M182.632186,81.4028373 C182.425007,81.4028373 182.257766,81.2351085 182.257766,81.0284427 L182.257766,78.0332858 C182.257766,77.82662 182.425007,77.6588912 182.632186,77.6588912 C182.836869,77.6588912 183.006606,77.82662 183.006606,78.0332858 L183.006606,81.0284427 C183.006606,81.2351085 182.836869,81.4028373 182.632186,81.4028373 Z M140.999157,86.3069076 C140.791978,86.3069076 140.624736,86.1391788 140.624736,85.9325129 L140.624736,82.937356 C140.624736,82.7306902 140.791978,82.5629614 140.999157,82.5629614 C141.206336,82.5629614 141.373577,82.7306902 141.373577,82.937356 L141.373577,85.9325129 C141.373577,86.1391788 141.206336,86.3069076 140.999157,86.3069076 Z M182.632186,87.3931511 C182.425007,87.3931511 182.257766,87.2254223 182.257766,87.0187565 L182.257766,84.0235996 C182.257766,83.8169338 182.425007,83.649205 182.632186,83.649205 C182.836869,83.649205 183.006606,83.8169338 183.006606,84.0235996 L183.006606,87.0187565 C183.006606,87.2254223 182.836869,87.3931511 182.632186,87.3931511 Z M140.999157,92.2972214 C140.791978,92.2972214 140.624736,92.1294926 140.624736,91.9228268 L140.624736,88.9276698 C140.624736,88.721004 140.791978,88.5532752 140.999157,88.5532752 C141.206336,88.5532752 141.373577,88.721004 141.373577,88.9276698 L141.373577,91.9228268 C141.373577,92.1294926 141.206336,92.2972214 140.999157,92.2972214 Z M182.632186,93.3834649 C182.425007,93.3834649 182.257766,93.2157362 182.257766,93.0090703 L182.257766,90.0139134 C182.257766,89.8072476 182.425007,89.6395188 182.632186,89.6395188 C182.836869,89.6395188 183.006606,89.8072476 183.006606,90.0139134 L183.006606,93.0090703 C183.006606,93.2157362 182.836869,93.3834649 182.632186,93.3834649 Z M141.02911,98.261078 L140.981684,98.258582 L140.95173,98.2548381 C140.76452,98.2316256 140.624736,98.0721335 140.624736,97.883189 L140.624736,94.9179837 C140.624736,94.7113178 140.791978,94.5435891 140.999157,94.5435891 C141.206336,94.5435891 141.373577,94.7113178 141.373577,94.9179837 L141.373577,97.7401703 C141.398538,97.799075 141.408523,97.8644693 141.401034,97.9323595 C141.376073,98.1223024 141.21632,98.261078 141.02911,98.261078 Z M146.972407,99.0133615 L146.92498,99.0103664 L143.952084,98.6342246 C143.747401,98.6082666 143.602625,98.4210693 143.627586,98.215901 C143.655044,98.0104832 143.839758,97.8654677 144.046937,97.8914257 L147.017337,98.2675675 C147.224516,98.2935255 147.369292,98.4807228 147.341835,98.6858911 C147.31937,98.8750851 147.157121,99.0133615 146.972407,99.0133615 Z M182.632186,99.3737788 C182.425007,99.3737788 182.257766,99.20605 182.257766,98.9993842 L182.257766,96.0042272 C182.257766,95.7975614 182.425007,95.6298326 182.632186,95.6298326 C182.836869,95.6298326 183.006606,95.7975614 183.006606,96.0042272 L183.006606,98.9993842 C183.006606,99.20605 182.836869,99.3737788 182.632186,99.3737788 Z M152.915703,99.7656451 L152.868277,99.76265 L149.895381,99.3865082 C149.690697,99.3605502 149.545922,99.1733528 149.570883,98.967935 C149.59834,98.7630164 149.783054,98.617252 149.990234,98.6437093 L152.96313,99.0196015 C153.167813,99.0458091 153.312589,99.2330064 153.287627,99.4381746 C153.262666,99.6273687 153.100417,99.7656451 152.915703,99.7656451 Z M158.859,100.517679 L158.811573,100.514934 L155.838677,100.138792 C155.633994,100.112584 155.489218,99.9253868 155.51418,99.7202186 C155.541637,99.5152999 155.726351,99.369286 155.93353,99.3957432 L158.90393,99.771885 C159.11111,99.7980927 159.255885,99.98529 159.228428,100.190458 C159.205963,100.379652 159.043714,100.517679 158.859,100.517679 Z M164.802296,101.269963 L164.75487,101.266968 L161.781974,100.890826 C161.577291,100.864868 161.432515,100.67767 161.457476,100.472502 C161.484934,100.267334 161.667151,100.122568 161.876827,100.148027 L164.849723,100.524169 C165.054406,100.550127 165.199182,100.737324 165.174221,100.942492 C165.149259,101.131686 164.98701,101.269963 164.802296,101.269963 Z M170.745593,102.022246 L170.698166,102.019251 L167.72527,101.643109 C167.520587,101.617151 167.375811,101.429954 167.400773,101.224536 C167.42823,101.019368 167.610448,100.874602 167.820123,100.90031 L170.790523,101.276203 C170.997703,101.30241 171.142478,101.489608 171.115021,101.694776 C171.092556,101.88397 170.930307,102.022246 170.745593,102.022246 Z M176.68889,102.77428 L176.641463,102.771535 L173.668567,102.395393 C173.463884,102.369185 173.319108,102.181988 173.344069,101.97682 C173.371527,101.771651 173.553745,101.626386 173.76342,101.652344 L176.736316,102.028486 C176.940999,102.054694 177.085775,102.241891 177.060814,102.447059 C177.035852,102.636253 176.873604,102.77428 176.68889,102.77428 Z M182.632186,103.526564 L182.58476,103.523569 L179.611863,103.147427 C179.40718,103.121469 179.262404,102.934272 179.287366,102.729103 C179.314823,102.523935 179.497041,102.378171 179.706716,102.404628 L182.257766,102.727356 L182.257766,101.994541 C182.257766,101.787875 182.425007,101.620146 182.632186,101.620146 C182.836869,101.620146 183.006606,101.787875 183.006606,101.994541 L183.006606,103.152169 C183.006606,103.259745 182.95918,103.36208 182.879303,103.432965 C182.809412,103.493617 182.722047,103.526564 182.632186,103.526564 L182.632186,103.526564 Z" id="Fill-75" fill="#026BB0"></path>
            <path d="M154.348485,72.4747737 L157.71577,72.8371877 L156.023391,67.7910971 L154.348485,72.4747737 Z M158.464611,75.0865506 L153.597148,74.5628973 L152.673578,77.1404794 L149.720651,76.8229928 L154.735386,64.3683816 L157.3089,64.645184 L162.351092,78.1820452 L159.400661,77.8645586 L158.464611,75.0865506 L158.464611,75.0865506 Z" id="Fill-76" fill="#026BB0"></path>
            <path d="M166.387342,67.7905979 L166.387342,76.4653211 L167.727766,76.6098375 C168.813585,76.726399 169.644798,76.4738074 170.216413,75.851314 C170.790523,75.2288205 171.085067,74.2816022 171.097548,73.0096589 L171.097548,72.3225199 C171.097548,71.0016557 170.812989,69.9700738 170.24387,69.2277741 C169.677247,68.4854743 168.848531,68.0554197 167.755224,67.9381094 L166.387342,67.7905979 Z M163.609144,78.3173265 L163.609144,65.3230878 L167.755224,65.7693662 C168.940888,65.8966604 169.999249,66.2683094 170.935299,66.8830654 C171.868854,67.4985701 172.597725,68.3090097 173.121913,69.3141344 C173.648598,70.3197583 173.910692,71.4262192 173.910692,72.6340163 L173.910692,73.2320493 C173.910692,74.4398463 173.651094,75.4861544 173.13689,76.3707241 C172.622686,77.2552938 171.896311,77.9059916 170.957764,78.322568 C170.019218,78.739394 168.960857,78.8874047 167.782681,78.7666 L163.609144,78.3173265 L163.609144,78.3173265 Z" id="Fill-77" fill="#026BB0"></path>
            <polyline id="Fill-78" fill="#D0E0EA" points="120.455969 120.050844 92.2022209 116.465142 92.1847479 95.523255 120.438496 99.108957 120.455969 120.050844"></polyline>
            <polyline id="Fill-79" fill="#D0E0EA" points="151.435496 124.126255 123.184244 120.540553 123.166771 99.5986651 151.420519 103.184367 151.435496 124.126255"></polyline>
            <polyline id="Fill-80" fill="#D0E0EA" points="182.579767 127.935096 154.326019 124.349394 154.308547 103.407506 182.562294 106.993458 182.579767 127.935096"></polyline>
            <path d="M93.5276683,21.2396196 C93.5276683,22.2736976 92.7114323,23.0125029 91.7054901,22.8902007 C90.6970517,22.7676489 89.8808157,21.8301647 89.8808157,20.7960868 C89.8808157,19.7622585 90.6970517,19.0232035 91.7054901,19.1457554 C92.7114323,19.2683072 93.5276683,20.2057913 93.5276683,21.2396196" id="Fill-81" fill="#CADDFF"></path>
            <path d="M99.0566065,21.912282 C99.0566065,22.9461103 98.2403705,23.6849157 97.2319321,23.5623638 C96.2259899,23.4400616 95.4097539,22.5025775 95.4097539,21.4687491 C95.4097539,20.4346712 96.2259899,19.6958658 97.2319321,19.8181681 C98.2403705,19.9407199 99.0566065,20.878204 99.0566065,21.912282" id="Fill-82" fill="#CADDFF"></path>
            <path d="M104.585545,22.7054994 C104.585545,23.7393277 103.769309,24.478133 102.76087,24.3558308 C101.754928,24.233279 100.938692,23.2957949 100.938692,22.2619665 C100.938692,21.2278886 101.754928,20.4890832 102.76087,20.6116351 C103.769309,20.7339373 104.585545,21.6714214 104.585545,22.7054994" id="Fill-83" fill="#CADDFF"></path>
            <path d="M188.865034,67.953834 L188.862538,67.9535844 C188.717762,67.9343655 188.600444,67.7975866 188.600444,67.6473296 L188.8875,34.3519174 C188.8875,30.9623982 185.507733,27.7915254 181.351669,27.2858431 L157.281443,24.2539955 C157.136667,24.2355253 157.016853,24.0989961 157.01931,23.9492383 C157.01931,23.7994804 157.136667,23.6929027 157.283939,23.7106241 L157.283939,23.7108737 L181.354165,26.7427213 C185.799781,27.2833471 189.41668,30.7270288 189.41668,34.4188092 L189.129625,67.7167174 C189.129625,67.8657265 189.00981,67.9715553 188.865034,67.953834" id="Fill-84" fill="#000000"></path>
            <path d="M152.364058,23.7597946 L132.971588,21.4008589 C132.824316,21.3833872 132.706997,21.2471075 132.706997,21.0971001 C132.706997,20.9470926 132.824316,20.8397662 132.971588,20.8574875 L152.364058,23.2164232 C152.508833,23.2341445 152.628648,23.3701746 152.628648,23.5204316 C152.628648,23.6704391 152.508833,23.7775159 152.364058,23.7597946" id="Fill-85" fill="#000000"></path>
            <path d="M85.6473713,70.9796913 L85.6473713,70.9796913 C85.5000994,70.9612211 85.3827811,70.8246919 85.3827811,70.674934 L85.5400375,21.7824918 C85.5400375,18.0917097 89.1569366,15.528105 93.6050485,16.0689804 L124.609537,19.8406318 C124.756809,19.8583531 124.874127,19.9946328 124.874127,20.1446402 C124.874127,20.2946476 124.756809,20.4017245 124.609537,20.3840032 L93.6050485,16.6126014 C89.4489844,16.1071687 86.0692181,18.4556213 86.0692181,21.8476365 L85.9119616,70.7410771 C85.9119616,70.8908349 85.7946433,70.9974126 85.6473713,70.9796913" id="Fill-86" fill="#000000"></path>
            <path d="M6.6821524,198.614559 L57.9253002,198.614559 C60.9231578,198.614559 63.354393,196.183989 63.354393,193.185837 L63.354393,158.331695 C63.354393,155.333294 60.9231578,152.902973 57.9253002,152.902973 L6.6821524,152.902973 C3.68429471,152.902973 1.25305958,155.333294 1.25305958,158.331695 L1.25305958,193.185837 C1.25305958,196.183989 3.68429471,198.614559 6.6821524,198.614559" id="Fill-87" fill="#D0E0EA"></path>
            <path d="M2.07928014,160.49969 L62.4882343,160.49969 C63.4317731,160.49969 64.1955903,159.735925 64.1955903,158.793948 L64.1955903,154.597733 C64.1955903,153.655756 63.4317731,152.891991 62.4882343,152.891991 L2.07928014,152.891991 C1.13823739,152.891991 0.374420194,153.655756 0.374420194,154.597733 L0.374420194,158.793948 C0.374420194,159.735925 1.13823739,160.49969 2.07928014,160.49969" id="Fill-88" fill="#D0E0EA"></path>
            <path d="M62.6979096,160.874084 L1.87210097,160.874084 C0.838701235,160.874084 0,160.006487 0,158.940211 L0,154.45147 C0,153.385194 0.838701235,152.517597 1.87210097,152.517597 L39.2941513,152.517597 C39.5013305,152.517597 39.6685715,152.685325 39.6685715,152.891991 C39.6685715,153.098657 39.5013305,153.266386 39.2941513,153.266386 L1.87210097,153.266386 C1.25305958,153.266386 0.748840388,153.798026 0.748840388,154.45147 L0.748840388,158.940211 C0.748840388,159.593655 1.25305958,160.125295 1.87210097,160.125295 L62.6979096,160.125295 C62.9050887,160.125295 63.0723298,160.293024 63.0723298,160.49969 C63.0723298,160.706356 62.9050887,160.874084 62.6979096,160.874084" id="Fill-89" fill="#FFFFFF"></path>
            <path d="M23.3763008,197.695545 L23.3713085,197.695545 C23.1641293,197.692051 22.9993845,197.521826 23.0018806,197.31516 L23.5859761,161.862985 C23.5884722,161.658067 23.7557132,161.494581 23.9603963,161.494581 L23.9678847,161.494581 C24.1725677,161.498075 24.3373126,161.6683 24.3348165,161.874966 L23.750721,197.32739 C23.7482248,197.532059 23.5809838,197.695545 23.3763008,197.695545" id="Fill-90" fill="#FFFFFF"></path>
            <path d="M59.665106,193.211046 C60.2616822,192.605276 63.7188286,181.840932 63.7188286,181.840932 L70.5532452,186.719543 L63.0623452,196.794502 L59.665106,193.211046" id="Fill-91" fill="#FFFFFF"></path>
            <path d="M60.129387,193.157633 L63.0273993,196.213691 L70.0240647,186.802409 L63.9185194,182.443208 C63.0423761,185.157069 60.9381347,191.582679 60.129387,193.157633 Z M63.0623452,197.168897 C62.9600037,197.168897 62.8601583,197.126964 62.7902665,197.052086 L59.3930273,193.468879 C59.2557399,193.323614 59.2557399,193.096232 59.3930273,192.952215 C59.832347,192.41084 62.0613952,185.782308 63.3643775,181.726367 C63.3993234,181.612551 63.4891842,181.522946 63.6015103,181.485506 C63.7163325,181.448067 63.8411392,181.467036 63.9384885,181.536174 L70.770409,186.414786 C70.8527814,186.473191 70.9076964,186.562048 70.9226732,186.661387 C70.93765,186.760726 70.9126886,186.862063 70.8527814,186.942682 L63.3618814,197.017641 C63.2969819,197.106498 63.1946404,197.161658 63.0848104,197.168148 L63.0623452,197.168897 L63.0623452,197.168897 Z" id="Fill-92" fill="#000000"></path>
            <path d="M71.976042,206.822801 L67.433077,206.795331 C64.4252347,206.777859 61.6295639,205.247833 59.9920996,202.72641 L55.4990573,195.607671 C54.2559823,193.640352 54.9524038,191.033817 57.0042265,189.942082 C58.8788236,188.944695 60.8432815,187.972767 61.3050664,188.016696 C62.2386208,188.105801 62.6180333,192.531395 62.6180333,192.531395 L66.6642675,192.687393 C66.6642675,192.687393 68.6661675,201.009936 70.4234462,201.955906 C71.7064594,202.645042 72.6025718,203.657904 73.2041402,204.581411 C73.8331661,205.547349 73.1317523,206.827778 71.976042,206.822801" id="Fill-93" fill="#000000"></path>
            <path d="M71.5192493,205.420055 L71.4643344,205.415063 L65.2489592,204.479076 C63.7387977,204.251944 62.4233348,203.368372 61.6370524,202.057991 L56.1455562,192.875838 C56.0407185,192.698375 56.0981296,192.468497 56.2753552,192.362419 C56.4525807,192.25634 56.6822251,192.313997 56.7895589,192.49171 L62.2810551,201.673613 C62.9500192,202.792054 64.0732797,203.545586 65.3612852,203.740271 L71.5741643,204.676257 C71.7788473,204.706209 71.921127,204.898398 71.8886773,205.103067 C71.8612198,205.287769 71.7014672,205.420055 71.5192493,205.420055" id="Fill-94" fill="#FFFFFF"></path>
            <path d="M63.8486276,198.515469 C63.6838827,198.515469 63.5316185,198.406146 63.4866881,198.239665 C63.4317731,198.040238 63.5515876,197.834321 63.7487822,197.779909 L67.2134171,196.836185 C67.4106117,196.781773 67.6177909,196.899582 67.6727059,197.09901 C67.7251247,197.298188 67.6078064,197.504354 67.4081156,197.558517 L63.9459769,198.50249 C63.9135271,198.511476 63.8810774,198.515469 63.8486276,198.515469" id="Fill-95" fill="#FFFFFF"></path>
            <path d="M65.6508368,200.295092 C65.4835958,200.295092 65.3288355,200.180777 65.2888973,200.009803 C65.2389746,199.808878 65.3612852,199.606206 65.5634721,199.557035 L67.8848773,198.988704 C68.0845681,198.939034 68.286755,199.062335 68.3366777,199.26326 C68.3866004,199.464185 68.2642898,199.666857 68.0621029,199.716028 L65.7406977,200.284359 C65.7107441,200.291847 65.6807904,200.295092 65.6508368,200.295092" id="Fill-96" fill="#FFFFFF"></path>
            <polyline id="Fill-97" fill="#FFFFFF" points="82.9765073 191.157118 90.9092231 199.13347 95.11521 197.587969 87.8015355 187.38322 82.9765073 191.157118"></polyline>
            <path d="M83.5406337,191.192061 L91.0065724,198.699172 L94.5236261,197.406013 L87.7241553,187.918604 L83.5406337,191.192061 Z M90.9092231,199.507865 C90.8118739,199.507865 90.7145246,199.469427 90.6446329,199.397543 L82.711917,191.420941 C82.637033,191.345313 82.5970948,191.240732 82.6045832,191.133905 C82.6095755,191.026828 82.6619943,190.928238 82.7468629,190.862095 L87.5718911,187.088197 C87.6517674,187.025299 87.7566051,186.997094 87.8564505,187.012569 C87.9562959,187.027046 88.0461567,187.082207 88.1060639,187.165073 L95.4197384,197.369572 C95.487134,197.464668 95.5071031,197.586222 95.4721572,197.698041 C95.4372113,197.809611 95.3548389,197.898966 95.245009,197.939401 L91.0390221,199.484902 C90.9965878,199.500377 90.9541535,199.507865 90.9092231,199.507865 L90.9092231,199.507865 Z" id="Fill-98" fill="#000000"></path>
            <path d="M88.403104,197.885488 C88.403104,197.885488 88.0211954,201.279001 88.6701904,204.276903 C89.0171531,205.876816 90.4549266,207 92.0898948,207 L111.557249,207 C112.950092,207 113.579118,205.260313 112.513268,204.366758 C109.05113,201.464451 102.68349,197.032617 94.855612,195.731721 L92.6714942,198.790275 L88.403104,197.885488" id="Fill-99" fill="#000000"></path>
            <path d="M110.631183,204.696225 L90.4574228,204.696225 C90.2502436,204.696225 90.0830026,204.5265 90.0830026,204.321831 C90.0830026,204.114666 90.2502436,203.947436 90.4574228,203.947436 L110.631183,203.947436 C110.838362,203.947436 111.005603,204.114666 111.005603,204.321831 C111.005603,204.5265 110.838362,204.696225 110.631183,204.696225" id="Fill-100" fill="#FFFFFF"></path>
            <path d="M99.3736156,201.108027 C99.3261891,201.108027 99.2787625,201.099042 99.231336,201.079823 C99.0416297,201.00095 98.9492728,200.782054 99.0291491,200.591113 L100.097495,197.998555 C100.174875,197.807364 100.394535,197.716262 100.584241,197.795134 C100.776443,197.873757 100.8688,198.092653 100.788924,198.283844 L99.7205784,200.876152 C99.6606711,201.020668 99.5208876,201.108027 99.3736156,201.108027" id="Fill-101" fill="#FFFFFF"></path>
            <path d="M102.885677,201.789675 C102.848235,201.789675 102.808297,201.783685 102.768359,201.770706 C102.571164,201.70606 102.466326,201.494402 102.531226,201.29797 L103.302532,198.959002 C103.367431,198.763069 103.579602,198.655493 103.776797,198.721137 C103.971496,198.785782 104.078829,198.99744 104.01393,199.193872 L103.240128,201.53284 C103.190205,201.690086 103.042934,201.789675 102.885677,201.789675" id="Fill-102" fill="#FFFFFF"></path>
            <path d="M40.9890267,135.34137 C40.9890267,135.34137 77.242886,131.117949 88.0211954,140.457098 C98.8020008,149.796497 71.0050456,189.956808 71.0050456,189.956808 L62.2136595,183.432608 L70.5532452,155.047256 L37.0401417,145.522657 L40.9890267,135.34137" id="Fill-103" fill="#000000"></path>
            <path d="M21.0374226,153.825731 C26.3017706,155.498527 35.7246788,157.66103 48.8942851,157.481071 C52.6359909,157.430153 56.0906412,159.499058 57.7905089,162.835413 C61.6919673,170.491533 70.1338946,184.276244 83.8875964,193.211046 L90.4574228,189.669273 L73.6908865,151.901343 C72.1607559,148.453169 69.2976895,145.773252 65.7581706,144.474103 L32.5321226,132.281069 C32.5321226,132.281069 22.230575,129.399228 17.1808946,138.603346 C16.2772939,140.246938 14.6023876,137.308689 14.203006,138.635044 C12.8351243,143.182441 16.5144267,152.389304 21.0374226,153.825731" id="Fill-104" fill="#000000"></path>
            <path d="M81.2666551,169.342641 C81.1243754,169.342641 80.987088,169.259775 80.9246846,169.120251 L73.348916,152.053347 C71.8687082,148.716992 69.0555645,146.082502 65.6308678,144.825534 L49.7180095,138.986226 C49.523311,138.915092 49.4234656,138.699939 49.4958535,138.506003 C49.5657453,138.311567 49.782909,138.212228 49.9751114,138.283363 L65.8879696,144.122421 C69.5023726,145.449026 72.4702766,148.229031 74.0328569,151.749588 L81.6086255,168.816492 C81.6934941,169.005436 81.6086255,169.226828 81.4189193,169.310693 C81.3689966,169.332408 81.3190739,169.342641 81.2666551,169.342641" id="Fill-105" fill="#FFFFFF"></path>
            <path d="M72.4228501,184.014667 C72.3230047,184.014667 72.2256554,183.975979 72.1532675,183.899603 C70.6256331,182.310922 69.1254562,180.60518 67.6901788,178.8298 C67.5578837,178.66906 67.5853412,178.433192 67.7450938,178.303152 C67.9073425,178.173612 68.1419792,178.198571 68.2717782,178.358812 C69.6920788,180.117968 71.179775,181.807486 72.6924326,183.380941 C72.8347123,183.52995 72.82972,183.766817 72.6824481,183.910335 C72.6100602,183.979973 72.5152071,184.014667 72.4228501,184.014667" id="Fill-106" fill="#FFFFFF"></path>
            <path d="M67.9797304,178.968826 C67.8723967,178.968826 67.7625667,178.921153 67.6901788,178.8298 C66.9862689,177.958959 66.2823589,177.053173 65.6009141,176.137154 C65.4761074,175.971422 65.5110533,175.736802 65.6782943,175.613252 C65.8430392,175.489701 66.0776759,175.524146 66.2024826,175.690127 C66.8764389,176.598159 67.5728605,177.495957 68.2717782,178.358812 C68.4015772,178.519802 68.3766158,178.755421 68.2168632,178.88571 C68.1469715,178.94137 68.0621029,178.968826 67.9797304,178.968826" id="Fill-107" fill="#FFFFFF"></path>
            <path d="M88.2433513,82.2734296 L78.7979779,87.3754298 C78.7979779,87.3754298 73.0094417,102.485996 64.7222748,103.395775 C56.4326117,104.305554 48.2353055,92.8346024 48.2353055,92.8346024 L42.736321,104.613307 C42.736321,104.613307 50.8138126,117.113344 63.6239755,115.098602 C76.4316423,113.08386 79.9237346,93.8257498 79.9237346,93.8257498 C79.9187424,93.8387288 82.9565382,94.1262639 84.0997679,91.1660504 C85.0732604,88.6458755 84.6663904,87.1622744 84.6663904,87.1622744 C84.6663904,87.1622744 89.21934,84.7309558 88.2433513,82.2734296" id="Fill-108" fill="#FFFFFF"></path>
            <path d="M43.1656561,104.579112 C44.1890713,106.051231 51.9570423,116.552751 63.5640683,114.72895 C75.962369,112.778853 79.5193608,93.9490504 79.5543067,93.7591075 C79.5842603,93.6033594 79.7065709,93.4825547 79.8613313,93.4565967 C79.9062617,93.4493584 79.948696,93.4501072 79.9911303,93.4578447 C80.1508829,93.4710733 82.7393745,93.6490355 83.750309,91.0310188 C84.6613982,88.6788222 84.3094432,87.2733448 84.306947,87.2593674 C84.2620166,87.0918883 84.3393968,86.913926 84.491661,86.832308 C85.5799757,86.2487516 88.143506,84.481609 87.9937379,82.8325255 L79.0975141,87.6395028 C78.4709843,89.2286831 72.8596736,102.878861 64.7622129,103.768173 C64.4277309,103.804614 64.095745,103.822336 63.7637591,103.822336 C56.6372947,103.823084 49.9626307,95.7214345 48.3101896,93.560928 L43.1656561,104.579112 Z M60.8682429,115.689896 C55.419181,115.689896 51.0234879,113.191436 48.1429486,110.904883 C44.5160649,108.026288 42.5041804,104.946268 42.421808,104.816728 C42.3519162,104.708403 42.3419317,104.571624 42.3968466,104.455062 L47.8958312,92.6761087 C47.9532423,92.5555537 48.0680645,92.4741852 48.2028558,92.461955 C48.3326548,92.4469792 48.4624538,92.5083799 48.539834,92.6169544 C48.6222064,92.7297719 56.7071865,103.904453 64.6798405,103.023627 C72.6450061,102.149291 78.391108,87.3906552 78.4485191,87.2413965 C78.4809688,87.1580313 78.540876,87.0886435 78.6207524,87.0462121 L88.0636297,81.9439623 C88.1584828,81.8927951 88.2708088,81.8853072 88.3706542,81.921249 C88.4704996,81.9579397 88.5503759,82.0355642 88.5903141,82.1351532 C89.5488298,84.5487504 86.0592335,86.7891278 85.0832449,87.3577084 C85.1606251,87.9315306 85.2180362,89.3142947 84.4492267,91.3010821 C83.6055332,93.4848011 81.8058201,94.03591 80.8073663,94.1699432 C80.5677374,94.2021412 80.3780311,94.2163682 80.2257669,94.2186145 C79.9811457,95.393964 79.0151416,99.5674656 76.9133963,103.871007 C73.6209947,110.614353 69.0455799,114.624868 63.6813866,115.468504 C62.7153825,115.620259 61.7768359,115.689896 60.8682429,115.689896 L60.8682429,115.689896 Z" id="Fill-109" fill="#000000"></path>
            <path d="M79.6541521,92.5919947 C79.4943995,92.5919947 79.3471275,92.4886618 79.2972048,92.3279217 C79.2348015,92.1302414 79.3471275,91.92083 79.5443222,91.8599285 C79.559299,91.8551861 81.0819411,91.3647292 81.2491821,90.1494443 C81.3739888,89.2508972 81.8906887,88.5727438 82.3025509,88.1619081 C82.6170639,87.8501621 82.8067701,87.4463152 82.8492044,87.0090222 L80.1858288,88.0715542 C79.9961225,88.1476811 79.7764627,88.0545816 79.7015786,87.8623924 C79.6241985,87.6704527 79.7165555,87.4528047 79.9087578,87.375929 L83.0938256,86.1049841 C83.2086478,86.0590583 83.3409429,86.0732853 83.4432845,86.1429227 C83.545626,86.2125601 83.6080293,86.328872 83.6080293,86.4529214 L83.6080293,86.8188298 C83.6080293,87.5289316 83.3334545,88.1943556 82.8317315,88.6923004 C82.5022417,89.0220173 82.0878834,89.5598976 81.9930302,90.2517788 C81.7583936,91.9430441 79.8463545,92.5503121 79.763982,92.5755214 C79.7290361,92.5867532 79.6915941,92.5919947 79.6541521,92.5919947" id="Fill-110" fill="#000000"></path>
            <path d="M18.7509633,87.6205335 C22.9045313,86.6433635 24.6393449,86.6303845 39.7359671,87.1777494 C43.4277502,87.3115331 47.8159549,91.9465384 48.2502823,95.616604 C47.0770991,99.1369118 41.6654792,116.517558 51.1158449,130.097599 C52.4562692,132.024234 54.2784475,134.137567 56.7820705,136.163291 C55.3742506,137.301201 48.8917889,136.653249 45.9563346,137.525089 C41.086376,138.972748 41.8976197,137.907471 37.9736961,138.024532 C27.5872799,138.33453 24.8165705,151.538679 18.1094567,150.08528 C16.3197282,149.697157 13.9459042,148.298918 11.7193521,143.609501 C10.4588041,139.720789 9.04349575,134.38891 8.71150985,129.994266 C7.64566036,115.943486 9.78984001,104.35772 12.2660056,97.0480394 C13.0023653,94.740271 13.8560433,88.7729201 18.7509633,87.6205335" id="Fill-111" fill="#026BB0"></path>
            <path d="M55.6538176,98.1130673 C55.6538176,98.1130673 46.65026,89.0307532 40.7319248,87.3170242 L44.1765906,113.790717 L55.6538176,98.1130673" id="Fill-112" fill="#026BB0"></path>
            <path d="M6.24782497,114.101464 C6.24782497,114.101464 5.71365216,106.670231 7.54581498,100.850641 C10.9829924,89.9520135 18.5637532,87.599817 18.5637532,87.599817 L23.3114013,110.805294 L6.24782497,114.101464" id="Fill-113" fill="#026BB0"></path>
            <path d="M9.13086047,113.609011 C9.13086047,113.609011 11.364901,130.670922 15.8080206,136.791525 C20.8726778,143.768993 42.6190026,134.814472 42.6190026,134.814472 L45.1875252,133.358327 C46.927331,132.373419 48.9966266,132.162261 50.8986812,132.776018 L55.0497531,134.116601 C55.0497531,134.116601 51.6225602,130.003002 48.707075,128.430295 C47.3391932,127.692987 45.5669376,128.39011 44.071753,129.338826 C41.495742,130.971187 38.4654346,131.736449 35.4201504,131.645846 L26.6312603,131.384518 C25.1535486,131.340589 23.9454195,130.197937 23.8181166,128.725817 L21.6614563,111.247829 L9.13086047,113.609011" id="Fill-114" fill="#FFFFFF"></path>
            <path d="M9.55021108,113.910773 C9.89966993,116.371793 12.1212298,131.078763 16.1100529,136.57188 C20.8801662,143.141008 41.6704715,134.795253 42.4542577,134.477018 L45.0028112,133.032853 C46.8274856,131.999025 49.0190918,131.776135 51.0135034,132.419844 L53.861593,133.339607 C52.6609522,132.031472 50.4618576,129.802826 48.5273533,128.760012 C47.2568208,128.07462 45.5120227,128.868337 44.2714437,129.655314 C41.6779599,131.297908 38.6176988,132.117084 35.4076697,132.019991 L26.6187797,131.758663 C24.9538579,131.709243 23.5884722,130.419329 23.4436964,128.758265 L21.3394549,111.689614 L9.55021108,113.910773 Z M23.1965791,139.829862 C19.8742239,139.829862 17.0111575,139.087812 15.5034922,137.01142 C11.0553803,130.884327 8.85129339,114.35805 8.76143254,113.657432 C8.73397506,113.460501 8.8662702,113.277547 9.06346483,113.241106 L21.5915645,110.879924 C21.693906,110.860954 21.7987437,110.884416 21.8811161,110.945567 C21.9659847,111.006469 22.0208997,111.099319 22.0333804,111.201903 L24.1875445,128.679892 C24.3023667,129.976046 25.3557355,130.972185 26.6412449,131.010373 L35.4301349,131.271701 C38.4829075,131.361805 41.4058812,130.585061 43.8695661,129.022837 C45.9213887,127.722689 47.6087757,127.412441 48.8843005,128.100828 C51.8297394,129.689509 55.1945289,133.706514 55.3368086,133.876988 C55.4441423,134.004781 55.4541269,134.187985 55.3592738,134.326012 C55.2669168,134.464039 55.0946835,134.523443 54.9349309,134.472775 L50.783859,133.132442 C48.9866421,132.55238 47.0146957,132.753305 45.3722391,133.68405 L42.8037166,135.140195 L42.7612823,135.160662 C42.1222718,135.423238 31.2915437,139.829862 23.1965791,139.829862 L23.1965791,139.829862 Z" id="Fill-115" fill="#000000"></path>
            <path d="M20.9825077,111.750017 C20.8127705,111.750017 20.6605063,111.635702 20.618072,111.464728 C20.5681493,111.264053 20.6929561,111.061131 20.8926468,111.01196 L22.8720816,110.527244 L21.8886045,105.715524 C21.8461703,105.512852 21.9784654,105.314922 22.1806523,105.273489 C22.3828392,105.232056 22.5800338,105.362595 22.6224681,105.565267 L23.6783331,110.729916 C23.7182712,110.927097 23.5959606,111.121034 23.4012621,111.168707 L21.0723685,111.739284 C21.0424149,111.746772 21.0124613,111.750017 20.9825077,111.750017" id="Fill-116" fill="#000000"></path>
            <path d="M26.8733854,78.503775 C25.790063,79.0501415 24.9738269,79.1287644 24.3847392,79.0950689 C22.2580325,78.9727667 20.895143,77.2575401 20.6230643,76.9138459 C19.2127482,75.1404634 18.5337996,72.2281725 19.726952,70.5181875 C20.5881184,69.2866788 21.6714408,69.7509281 22.6624063,68.3741543 C23.788163,66.8106824 22.6349488,65.5354944 23.6708447,64.1672069 C24.8664932,62.5920039 27.4974191,62.7123094 27.9716846,62.7337747 C29.5966683,62.8081544 29.7888706,63.6143508 31.3264896,63.5729178 C32.8940621,63.5302368 33.1012413,62.7420114 34.5390148,62.7337747 C35.6822445,62.7272852 37.3471663,63.2142478 38.0935105,64.5371087 C39.0320572,66.1974241 38.0735415,68.384887 36.9602654,69.5392704 C35.6248334,70.9252792 34.6862868,70.1817315 32.8166819,71.3106561 C29.5742031,73.2669927 30.3505009,76.7513586 26.8733854,78.503775" id="Fill-117" fill="#000000"></path>
            <path d="M32.9090389,85.8858384 L32.0328957,80.4229218 C32.225098,80.4012069 33.8400971,80.1194126 34.0248111,80.0273115 C35.5224919,79.2815174 35.1056374,75.5228451 35.1056374,75.5228451 L35.9368502,74.528453 L33.4556924,68.9714385 C30.8222704,71.1691349 29.8812276,69.0111244 27.2727669,70.092376 C24.6668024,71.1738773 26.0796146,74.0796787 26.0796146,74.0796787 C26.0796146,74.0796787 23.9479156,73.1401978 24.4047083,75.2031121 C24.7491748,76.7610929 25.88242,76.8586851 26.6287642,76.7957868 L25.2409134,86.16314 C25.2409134,86.16314 20.765344,87.4355825 19.8991852,87.664712 C21.024942,87.6112984 28.812882,91.0000688 37.6417102,87.2970565 L32.9090389,85.8858384" id="Fill-118" fill="#FFFFFF"></path>
            <path d="M21.4842307,87.6142935 C24.1550948,88.2892022 29.9935537,89.6976748 36.4909921,87.3444798 L32.8017051,86.2445084 C32.6644177,86.203325 32.5620762,86.0870131 32.539611,85.9452424 L31.6609716,80.4823257 C31.6459948,80.3812392 31.6709562,80.2776567 31.7333595,80.1962883 C31.7957629,80.1146702 31.8881199,80.062255 31.9904614,80.0507736 C32.1976406,80.0275611 33.6678639,79.7652353 33.8700508,79.6863628 C34.8884737,79.1784341 34.8335587,76.4718106 34.7337133,75.5642781 C34.7237288,75.4626924 34.7536824,75.3611066 34.8185819,75.2829829 L35.5000267,74.4675515 L33.3084205,69.5604861 C31.890616,70.5890729 30.8921621,70.4225921 29.926158,70.2611032 C29.1623409,70.1330602 28.4434541,70.0130044 27.4175427,70.4383166 C26.8084859,70.690409 26.401616,71.0750371 26.2094136,71.580969 C25.8075359,72.6317699 26.4116005,73.9034636 26.4165928,73.916193 C26.4864845,74.0577142 26.459027,74.2264413 26.3491971,74.3392589 C26.2418633,74.4520765 26.0721262,74.4850232 25.9298465,74.4223745 C25.605349,74.2813526 25.031238,74.1503144 24.826555,74.3190416 C24.7017483,74.4228737 24.6792831,74.7156503 24.7691439,75.1224925 C24.9888038,76.1098958 25.550434,76.5129941 26.5988106,76.4223906 C26.7111366,76.4136547 26.8234627,76.4558365 26.903339,76.5394513 C26.9807192,76.6228165 27.0156651,76.7373812 27.0006883,76.8504484 L25.6103413,86.2178016 C25.5878761,86.3633163 25.4830384,86.482873 25.3432549,86.523058 C25.2134559,86.5594991 23.0567956,87.1727575 21.4842307,87.6142935 Z M28.8977506,89.4029014 C25.4980152,89.4029014 22.7372903,88.7037819 21.1622294,88.3051764 C20.6055913,88.1641544 20.0789069,88.029622 19.9166582,88.0386074 C19.7194636,88.042601 19.5597109,87.9110637 19.5297573,87.7218696 C19.4998037,87.5326755 19.6196182,87.3517181 19.8043321,87.3027972 C20.543188,87.1073632 23.9753731,86.1329389 24.9039352,85.8691154 L26.1944368,77.1796661 C24.7591594,77.1192637 24.2274827,76.140097 24.0402726,75.2839813 C23.88052,74.5609005 23.9853576,74.0412408 24.3522894,73.7397283 C24.6742908,73.4776521 25.1111144,73.4631755 25.4830384,73.5203331 C25.3257819,72.944015 25.2084636,72.1061199 25.5079998,71.3188928 C25.7750862,70.6107878 26.3217396,70.0816434 27.1304873,69.7464354 C28.3535932,69.2395051 29.2546978,69.3892629 30.0484686,69.5225474 C31.0544109,69.6905258 31.8506778,69.8240599 33.2160635,68.6836539 C33.3059243,68.608775 33.4282349,68.5798218 33.540561,68.6067782 C33.6553832,68.6329858 33.7502363,68.7116087 33.7976629,68.8186855 L36.2788207,74.3759496 C36.3387279,74.5064885 36.3162627,74.6589919 36.2239057,74.7685647 L35.4950344,75.6426514 C35.5674223,76.4648219 35.7371595,79.592265 34.1920521,80.3622699 C33.9923614,80.4621084 33.0188688,80.6398211 32.4597347,80.7334197 L33.2410248,85.5940602 L37.749044,86.9381369 C37.9013082,86.9833138 38.008642,87.1190943 38.0161304,87.2768392 C38.0261149,87.4348337 37.9337579,87.5810972 37.786486,87.6419987 C34.6089066,88.9753428 31.5586301,89.4029014 28.8977506,89.4029014 L28.8977506,89.4029014 Z" id="Fill-119" fill="#000000"></path>
            <path d="M31.4213427,80.8394982 C29.1124182,80.8394982 28.0540571,79.0845859 28.0066305,79.0032174 C27.9017929,78.8250056 27.9617001,78.5956265 28.1389257,78.490796 C28.3161512,78.3867143 28.5457956,78.445619 28.6506333,78.6233317 C28.6955637,78.6969626 29.721475,80.3620203 31.9804768,80.0517719 C32.187656,80.0255643 32.3748661,80.1670855 32.4023236,80.3720041 C32.4297811,80.5771724 32.2875014,80.7658673 32.0828184,80.7938221 C31.853174,80.8252712 31.631018,80.8394982 31.4213427,80.8394982" id="Fill-120" fill="#000000"></path>
            <path d="M83.2286169,139.629436 L34.3867506,139.629436 C33.2909475,139.629436 32.3998275,138.740124 32.3998275,137.642649 L32.3998275,136.791525 L85.21554,136.791525 L85.21554,137.642649 C85.21554,138.740124 84.3269161,139.629436 83.2286169,139.629436" id="Fill-121" fill="#D0E0EA"></path>
            <path d="M32.7742477,137.16592 L32.7742477,137.642649 C32.7742477,138.531711 33.4981267,139.255291 34.3867506,139.255291 L83.2286169,139.255291 C84.1197369,139.255291 84.8411198,138.531711 84.8411198,137.642649 L84.8411198,137.16592 L32.7742477,137.16592 Z M83.2286169,140.004081 L34.3867506,140.004081 C33.0862645,140.004081 32.0254073,138.944544 32.0254073,137.642649 L32.0254073,136.791525 C32.0254073,136.584859 32.1926483,136.417131 32.3998275,136.417131 L85.21554,136.417131 C85.4227192,136.417131 85.5899602,136.584859 85.5899602,136.791525 L85.5899602,137.642649 C85.5899602,138.944544 84.5315992,140.004081 83.2286169,140.004081 L83.2286169,140.004081 Z" id="Fill-122" fill="#000000"></path>
            <path d="M85.2180362,136.842693 L54.9948381,136.842693 L64.597468,108.556181 C65.171579,107.671112 66.172529,107.13448 67.248363,107.13448 L92.7963009,107.13448 C93.9545074,107.13448 94.7033478,108.26016 94.3239353,109.253803 C94.1741672,109.648914 94.0119185,110.039533 93.8796233,110.441383 L85.2180362,136.842693" id="Fill-123" fill="#D0E0EA"></path>
            <path d="M55.5190264,136.468048 L84.9459575,136.468048 L93.5226761,110.324572 C93.6225215,110.026554 93.7348475,109.734276 93.8471736,109.451733 C93.8896079,109.341661 93.9320422,109.23109 93.9744764,109.120768 C94.1092677,108.767589 94.0568489,108.36499 93.8346929,108.044259 C93.6000563,107.703809 93.2231399,107.508875 92.7963009,107.508875 L67.248363,107.508875 C66.3098164,107.508875 65.4486499,107.961642 64.9369423,108.721913 L55.5190264,136.468048 Z M85.2180362,137.216838 L54.9948381,137.216838 C54.8750236,137.216838 54.7626976,137.158682 54.6903097,137.06084 C54.6204179,136.962499 54.602945,136.836453 54.640387,136.722137 L64.2430169,108.435626 C64.2530014,108.406423 64.2679782,108.377969 64.2829551,108.352261 C64.9319501,107.355373 66.0402338,106.760085 67.248363,106.760085 L92.7963009,106.760085 C93.4727534,106.760085 94.076818,107.073329 94.4512382,107.619196 C94.8131777,108.142849 94.8955501,108.803781 94.6733941,109.386838 C94.6309599,109.499655 94.5860294,109.611974 94.5435951,109.724043 C94.4362614,109.997101 94.3264314,110.279644 94.2340744,110.558194 L85.5724873,136.959254 C85.5225646,137.113005 85.3802849,137.216838 85.2180362,137.216838 L85.2180362,137.216838 Z" id="Fill-124" fill="#000000"></path>
            <path d="M74.0029033,121.606829 C73.6409638,122.802645 74.1926095,124.026666 75.2310015,124.340408 C76.2693935,124.654151 77.4051348,123.939057 77.7645782,122.742991 C78.1240216,121.547175 77.5748719,120.323154 76.5339838,120.009411 C75.4955918,119.695669 74.3623467,120.410763 74.0029033,121.606829" id="Fill-125" fill="#FFFFFF"></path>
            <path d="M76.1395945,137.216838 L59.4903766,137.216838 C59.2831974,137.216838 59.1159564,137.049358 59.1159564,136.842443 C59.1159564,136.635777 59.2831974,136.468048 59.4903766,136.468048 L76.1395945,136.468048 C76.3467737,136.468048 76.5140147,136.635777 76.5140147,136.842443 C76.5140147,137.049358 76.3467737,137.216838 76.1395945,137.216838" id="Fill-126" fill="#FFFFFF"></path>
            <path d="M84.6164677,137.216838 L81.6660366,137.216838 C81.4588574,137.216838 81.2916164,137.049358 81.2916164,136.842443 C81.2916164,136.635777 81.4588574,136.468048 81.6660366,136.468048 L84.6164677,136.468048 C84.8236469,136.468048 84.9908879,136.635777 84.9908879,136.842443 C84.9908879,137.049358 84.8236469,137.216838 84.6164677,137.216838" id="Fill-127" fill="#FFFFFF"></path>
            <path d="M31.9580116,39.5762198 C31.9580116,32.4345178 37.7415556,26.6451291 44.8780045,26.6451291 C52.0144534,26.6451291 57.7979973,32.4345178 57.7979973,39.5762198 C57.7979973,46.7176723 52.0144534,52.507061 44.8780045,52.507061 C37.7415556,52.507061 31.9580116,46.7176723 31.9580116,39.5762198" id="Fill-128" fill="#026BB0"></path>
            <path d="M44.8780045,27.0195237 C37.9587193,27.0195237 32.3324318,32.6524155 32.3324318,39.5762198 C32.3324318,46.4997746 37.9587193,52.132916 44.8780045,52.132916 C51.7972897,52.132916 57.4235771,46.4997746 57.4235771,39.5762198 C57.4235771,32.6524155 51.7972897,27.0195237 44.8780045,27.0195237 Z M44.8780045,52.8817052 C37.5468571,52.8817052 31.5835914,46.9128567 31.5835914,39.5762198 C31.5835914,32.239583 37.5468571,26.2707345 44.8780045,26.2707345 C52.2091519,26.2707345 58.1724175,32.239583 58.1724175,39.5762198 C58.1724175,46.9128567 52.2091519,52.8817052 44.8780045,52.8817052 L44.8780045,52.8817052 Z" id="Fill-129" fill="#000000"></path>
            <path d="M41.8377125,44.3979233 L41.1862214,35.1266647 C41.1512755,34.6536795 41.625541,34.3099852 42.0648607,34.4889458 L51.6575061,38.4076095 C52.1442524,38.6067874 52.1941751,39.2777025 51.7423747,39.5485146 L42.8037166,44.9013592 C42.3943505,45.1464629 41.8726584,44.873654 41.8377125,44.3979233" id="Fill-130" fill="#FFFFFF"></path>
            <path d="M51.0634261,13.9728698 C51.0634261,6.62250513 57.0167072,0.663890053 64.3628314,0.663890053 C71.7064594,0.663890053 77.6597405,6.62250513 77.6597405,13.9728698 C77.6597405,21.3232344 71.7064594,27.2818495 64.3628314,27.2818495 C57.0167072,27.2818495 51.0634261,21.3232344 51.0634261,13.9728698" id="Fill-131" fill="#026BB0"></path>
            <path d="M64.3628314,1.03853426 C57.236367,1.03853426 51.4378463,6.84090199 51.4378463,13.9728698 C51.4378463,21.1050872 57.236367,26.9074549 64.3628314,26.9074549 C71.4892957,26.9074549 77.2853203,21.1050872 77.2853203,13.9728698 C77.2853203,6.84090199 71.4892957,1.03853426 64.3628314,1.03853426 Z M64.3628314,27.6562441 C56.8220087,27.6562441 50.6890059,21.5181692 50.6890059,13.9728698 C50.6890059,6.42806953 56.8220087,0.289745036 64.3628314,0.289745036 C71.9011579,0.289745036 78.0341607,6.42806953 78.0341607,13.9728698 C78.0341607,21.5181692 71.9011579,27.6562441 64.3628314,27.6562441 L64.3628314,27.6562441 Z" id="Fill-132" fill="#000000"></path>
            <path d="M67.952273,15.3009723 C67.2059287,15.2997243 66.5494453,15.6608903 66.1226063,16.2124984 L61.6320601,14.4638259 C61.6370524,14.404422 61.649533,14.347514 61.649533,14.2868621 C61.6520292,14.1745437 61.6320601,14.066718 61.6170833,13.9583932 L66.2199555,11.8265903 C66.6467945,12.3125545 67.2608437,12.6262972 67.952273,12.6275451 C69.23279,12.6300411 70.2736782,11.5822354 70.2736782,10.2925707 C70.2736782,9.00265649 69.23279,7.95135641 67.952273,7.94885684 C66.6717559,7.94661408 65.6308678,8.99417021 65.6308678,10.2838349 C65.6308678,10.3964028 65.6483407,10.5039789 65.6633175,10.6123037 L61.0629414,12.7443563 C60.6361024,12.2581425 60.0220532,11.9446494 59.330624,11.9431518 C58.0501069,11.9409054 57.0092188,12.9884615 57.0067226,14.2783758 C57.0067226,15.5680404 58.0501069,16.6195901 59.3281278,16.6218365 C60.0744721,16.6233341 60.7334516,16.2619185 61.1577945,15.7103104 L65.6483407,17.4592324 C65.6433484,17.5186364 65.6308678,17.5755444 65.6308678,17.6359467 C65.6308678,18.9258609 66.6717559,19.9774106 67.952273,19.9796614 C69.2302939,19.9821529 70.2736782,18.9343472 70.2736782,17.6446826 C70.2736782,16.3550179 69.23279,15.3034682 67.952273,15.3009723" id="Fill-133" fill="#FFFFFF"></path>
            <path d="M25.1835023,25.2608674 C25.1535486,21.7350685 22.2979706,18.9685419 18.8408242,19.1639759 C15.4710424,19.3546676 12.8650779,22.2499859 12.9474503,25.7083938 C12.9873885,27.3754482 13.6438719,28.8667867 14.7122175,29.9462912 C15.5309497,30.7742025 16.0052152,31.8996327 16.0151998,33.0907067 L16.020192,33.7978134 C16.0276804,34.3826178 16.4919615,34.8433727 17.0635763,34.827149 L21.2221366,34.7088403 C21.7912553,34.6926165 22.2505441,34.2054043 22.2430557,33.6208495 L22.2380634,32.916738 C22.2280789,31.7423869 22.6474295,30.5885027 23.4486887,29.7343838 C24.5444918,28.568519 25.1984791,26.9868266 25.1835023,25.2608674" id="Fill-134" fill="#FFFFFF"></path>
            <path d="M19.1852907,19.5286363 C19.077957,19.5286363 18.9706232,19.5316314 18.8632894,19.5378713 C15.6782216,19.7180799 13.2444903,22.4242042 13.3218705,25.6994083 C13.3568164,27.2249415 13.9459042,28.639654 14.9793039,29.6824678 C15.8779124,30.5902499 16.3771393,31.7995445 16.38962,33.087462 L16.3946122,33.794319 C16.3971084,33.9807675 16.4694963,34.1524899 16.5992953,34.2775377 C16.7216059,34.3953472 16.8838546,34.4522552 17.0510956,34.4530039 L21.2121521,34.3344457 C21.5765877,34.3239626 21.8736277,34.0054776 21.8686355,33.6240943 L21.8636432,32.9202324 C21.8511625,31.6348109 22.3304204,30.3800897 23.17661,29.4782979 C24.2449556,28.3411367 24.8240589,26.8445566 24.8090821,25.2641121 C24.7941053,23.6265101 24.1451102,22.1229413 22.9794154,21.030957 C21.9360311,20.0555343 20.6005991,19.5286363 19.1852907,19.5286363 Z M17.0336227,35.2020428 C16.6766754,35.2020428 16.3396973,35.0660127 16.0800993,34.8166659 C15.8055245,34.5510953 15.6507641,34.1904285 15.6457718,33.8010581 L15.6407796,33.0942011 C15.630795,32.0019672 15.2064521,30.9776235 14.4451311,30.2093658 C13.2794362,29.0297732 12.6129683,27.4346025 12.5730301,25.7171296 C12.4856654,22.0360818 15.2289174,18.993252 18.8208551,18.7900805 C20.5581648,18.6917395 22.2180943,19.2935164 23.491123,20.4845905 C24.8065859,21.7178464 25.5429456,23.4128556 25.5579224,25.257373 C25.5753954,27.0315043 24.9214081,28.7125361 23.7232635,29.9907193 C23.0068729,30.753486 22.6024991,31.8187634 22.6124836,32.9134933 L22.6174759,33.6173552 C22.6249643,34.4038335 22.0034267,35.0610208 21.2321211,35.0827357 L17.0735609,35.201294 L17.0336227,35.2020428 L17.0336227,35.2020428 Z" id="Fill-135" fill="#000000"></path>
            <path d="M19.1877869,39.0495714 C17.7674863,39.090006 16.6067837,37.9421122 16.594303,36.4857171 L16.5768301,34.7737353 L21.7188674,34.6274718 L21.7338442,36.3394536 C21.7463249,37.7958487 20.6055913,39.0091368 19.1877869,39.0495714" id="Fill-136" fill="#FFFFFF"></path>
            <path d="M16.9562425,35.1376469 L16.9687232,36.4824723 C16.9737155,37.0979771 17.2133444,37.6663081 17.6451757,38.0823853 C18.059534,38.4809908 18.6061875,38.687407 19.1753062,38.6754264 C20.3909238,38.6407325 21.3694085,37.5944244 21.359424,36.342948 L21.3469433,35.0125991 L16.9562425,35.1376469 Z M19.1129028,39.4249644 C18.3690547,39.4249644 17.6676409,39.1414229 17.1259797,38.6215136 C16.5493726,38.064664 16.2273712,37.3073885 16.2198828,36.4892115 L16.1999137,34.4098238 L22.0882953,34.2423446 L22.1082644,36.3362089 C22.1232412,37.992281 20.8177628,39.3775411 19.1977714,39.4237164 C19.1703139,39.4247148 19.1428565,39.4249644 19.1129028,39.4249644 L19.1129028,39.4249644 Z" id="Fill-137" fill="#000000"></path>
            <path d="M19.0679724,14.9984614 C18.8632894,14.9984614 18.6960484,14.8334782 18.6935522,14.6280604 L18.6511179,10.6140509 C18.6486218,10.4073851 18.8158628,10.2379091 19.023042,10.2356627 L19.0255381,10.2356627 C19.2302212,10.2356627 19.3974622,10.4008956 19.3999583,10.6063134 L19.4423926,14.6203229 C19.4448887,14.8269887 19.2776477,14.9964647 19.0729647,14.9984614 L19.0679724,14.9984614" id="Fill-138" fill="#D0E0EA"></path>
            <path d="M4.10614146,27.4650533 C3.90145842,27.4650533 3.7342174,27.3000701 3.73169327,27.094153 C3.72922513,26.8874872 3.89397002,26.7185104 4.10114919,26.7162641 L8.47437706,26.6720855 L8.47936933,26.6720855 C8.68405237,26.6720855 8.85129339,26.8370687 8.85381711,27.0427362 C8.85628566,27.249402 8.68904464,27.4186283 8.48186546,27.4208747 L4.1086376,27.4650533 L4.10614146,27.4650533" id="Fill-139" fill="#D0E0EA"></path>
            <path d="M33.3383741,27.3824369 L33.3383741,27.3824369 L29.2696746,27.3776945 C29.0624955,27.3774449 28.8952544,27.2097162 28.897723,27.0028007 C28.897723,26.7963845 29.0649916,26.6289053 29.2721708,26.6289053 L33.3383741,26.6336476 C33.5455533,26.6338972 33.7127943,26.801626 33.7127943,27.0085414 C33.7127943,27.2149577 33.5455533,27.3824369 33.3383741,27.3824369" id="Fill-140" fill="#D0E0EA"></path>
            <path d="M10.7433634,19.1876876 C10.6485103,19.1876876 10.5511611,19.1509969 10.4787732,19.0778651 L7.4035353,16.0023382 C7.25626336,15.8560747 7.25626336,15.6192077 7.4035353,15.4729442 C7.54831111,15.3266807 7.7854439,15.3266807 7.93271585,15.4729442 L11.0079537,18.5484712 C11.1552256,18.6947347 11.1552256,18.9316016 11.0079537,19.0778651 C10.9355658,19.1509969 10.8407127,19.1876876 10.7433634,19.1876876" id="Fill-141" fill="#D0E0EA"></path>
            <path d="M27.0106728,19.4178155 C26.9158197,19.4178155 26.8209666,19.3821232 26.7485787,19.3099898 C26.6013067,19.1647247 26.5988106,18.9278577 26.7435864,18.7805958 L29.8063436,15.6788612 C29.9511194,15.531849 30.1882522,15.5298522 30.3355241,15.6753669 C30.4827961,15.820632 30.4852922,16.0577486 30.3380203,16.2047609 L27.2777592,19.3064955 C27.2053713,19.3806256 27.1080221,19.4178155 27.0106728,19.4178155" id="Fill-142" fill="#D0E0EA"></path>
        </g>
    </g>
</svg>