<?xml version="1.0" encoding="UTF-8"?>
<svg width="203px" height="203px" viewBox="0 0 203 203" version="1.1" xmlns="http://www.w3.org/2000/svg" xmlns:xlink="http://www.w3.org/1999/xlink">
    <title>01</title>
    <g id="Page-1" stroke="none" stroke-width="1" fill="none" fill-rule="evenodd">
        <g id="Group" transform="translate(-0.000000, 0.000000)">
            <path d="M9.05367871,63.0563245 C4.66465778,72.793336 -1.83203747,91.4342823 0.779142373,114.620654 C4.12934375,144.368473 20.7156557,167.821074 36.8494443,180.999435 C90.3870543,224.730959 188.392747,196.479571 201.371064,155.284992 C203.726224,147.811708 203.063455,140.603544 202.248846,131.734774 C199.658724,103.525539 186.012095,95.1404189 176.834175,65.188601 C168.480838,37.9304711 176.716694,34.8631744 168.905321,22.7450728 C151.963685,-3.54231775 103.057261,-4.86714234 69.4056258,7.7357188 C56.479953,12.5765477 25.1146514,27.4254985 9.05367871,63.0563245" id="Fill-3" fill="#E5F0F7"></path>
            <path d="M179.850997,166.160468 L8.37827421,166.160468 C4.04200887,166.160468 0.526780043,162.641801 0.526780043,158.30226 L0.526780043,35.4360116 C0.526780043,31.0960269 4.04200887,27.577693 8.37827421,27.577693 L179.850997,27.577693 C184.186708,27.577693 187.702269,31.0960269 187.702269,35.4360116 L187.702269,158.30226 C187.702269,162.641801 184.186708,166.160468 179.850997,166.160468" id="Fill-4" fill="#FFFFFF"></path>
            <path d="M171.496551,149.037473 L15.9928116,149.037473 C12.9306601,149.037473 10.4483768,146.553774 10.4483768,143.488807 L10.4483768,41.7182514 C10.4483768,38.6535061 12.9306601,36.1689192 15.9928116,36.1689192 L171.496551,36.1689192 C174.558813,36.1689192 177.040321,38.6535061 177.040321,41.7182514 L177.040321,143.488807 C177.040321,146.553774 174.558813,149.037473 171.496551,149.037473" id="Fill-5" fill="#FFFFFF"></path>
            <path d="M93.2719869,166.527643 L8.21790166,166.527643 C3.68646282,166.527643 0,162.838145 0,158.30226 L0,35.4361225 C0,30.900681 3.68646282,27.2108509 8.21790166,27.2108509 L58.6259749,27.2108509 C58.8283524,27.2108509 58.9926041,27.3750258 58.9926041,27.577693 C58.9926041,27.7803602 58.8283524,27.9445351 58.6259749,27.9445351 L8.21790166,27.9445351 C4.09077454,27.9445351 0.733147482,31.3052389 0.733147482,35.4361225 L0.733147482,158.30226 C0.733147482,162.433255 4.09077454,165.793293 8.21790166,165.793293 L93.2719869,165.793293 C93.4748077,165.793293 93.6388377,165.958577 93.6388377,166.160468 C93.6388377,166.363468 93.4748077,166.527643 93.2719869,166.527643" id="Fill-6" fill="#000000"></path>
            <path d="M187.541564,141.465462 C187.339852,141.465462 187.175822,141.301288 187.175822,141.098288 L187.175822,98.2919107 C187.175822,98.09002 187.339852,97.9258451 187.541564,97.9258451 C187.744385,97.9258451 187.908415,98.09002 187.908415,98.2919107 L187.908415,141.098288 C187.908415,141.301288 187.744385,141.465462 187.541564,141.465462" id="Fill-7" fill="#000000"></path>
            <path d="M187.541564,81.6570037 C187.339852,81.6570037 187.175822,81.4917195 187.175822,81.2898288 L187.175822,35.4361225 C187.175822,31.3052389 183.81764,27.9445351 179.690292,27.9445351 L105.051112,27.9445351 C104.8494,27.9445351 104.68537,27.7803602 104.68537,27.577693 C104.68537,27.3750258 104.8494,27.2108509 105.051112,27.2108509 L179.690292,27.2108509 C184.222174,27.2108509 187.908415,30.900681 187.908415,35.4361225 L187.908415,81.2898288 C187.908415,81.4917195 187.744385,81.6570037 187.541564,81.6570037" id="Fill-8" fill="#000000"></path>
            <path d="M137.985671,36.3992077 L85.3974399,36.3992077 C85.194619,36.3992077 85.030589,36.2350329 85.030589,36.0323657 C85.030589,35.8296984 85.194619,35.6655236 85.3974399,35.6655236 L137.985671,35.6655236 C138.187383,35.6655236 138.351413,35.8296984 138.351413,36.0323657 C138.351413,36.2350329 138.187383,36.3992077 137.985671,36.3992077" id="Fill-9" fill="#000000"></path>
            <path d="M10.4484876,66.5854185 C10.2461101,66.5854185 10.0818585,66.4211327 10.0818585,66.2185764 L10.0818585,41.5816979 C10.0818585,38.319499 12.7336025,35.6655236 15.9929224,35.6655236 L61.535512,35.6655236 C61.7377787,35.6655236 61.9020303,35.8296984 61.9020303,36.0323657 C61.9020303,36.2350329 61.7377787,36.3992077 61.535512,36.3992077 L15.9929224,36.3992077 C13.1378034,36.3992077 10.815006,38.7240569 10.815006,41.5816979 L10.815006,66.2185764 C10.815006,66.4211327 10.6508652,66.5854185 10.4484876,66.5854185" id="Fill-10" fill="#000000"></path>
            <path d="M115.138956,149.268206 L15.9929224,149.268206 C12.7336025,149.268206 10.0818585,146.613676 10.0818585,143.352364 L10.0818585,104.016954 C10.0818585,103.813954 10.2461101,103.64978 10.4484876,103.64978 C10.6508652,103.64978 10.815006,103.813954 10.815006,104.016954 L10.815006,143.352364 C10.815006,146.209894 13.1378034,148.533856 15.9929224,148.533856 L115.138956,148.533856 C115.341776,148.533856 115.505806,148.698031 115.505806,148.901031 C115.505806,149.104031 115.341776,149.268206 115.138956,149.268206" id="Fill-11" fill="#000000"></path>
            <path d="M177.040321,71.7308584 C176.838608,71.7308584 176.674578,71.5666835 176.674578,71.3640163 L176.674578,41.5816979 C176.674578,38.7240569 174.351559,36.3992077 171.496551,36.3992077 L168.162753,36.3992077 C167.959932,36.3992077 167.795902,36.2350329 167.795902,36.0323657 C167.795902,35.8296984 167.959932,35.6655236 168.162753,35.6655236 L171.496551,35.6655236 C174.756093,35.6655236 177.407172,38.319499 177.407172,41.5816979 L177.407172,71.3640163 C177.407172,71.5666835 177.243142,71.7308584 177.040321,71.7308584" id="Fill-12" fill="#000000"></path>
            <path d="M174.357101,160.152555 L12.5675776,160.152555 C11.4095038,160.152555 10.4707647,159.212987 10.4707647,158.053779 C10.4707647,156.894572 11.4095038,155.955003 12.5675776,155.955003 L174.357101,155.955003 C175.515286,155.955003 176.454025,156.894572 176.454025,158.053779 C176.454025,159.212987 175.515286,160.152555 174.357101,160.152555" id="Fill-13" fill="#D0E0EA"></path>
            <path d="M174.357101,160.152555 L86.2098315,160.152555 L86.2098315,155.955003 L174.357101,155.955003 C175.515286,155.955003 176.454025,156.894572 176.454025,158.053779 C176.454025,159.212987 175.515286,160.152555 174.357101,160.152555" id="Fill-14" fill="#CADDFF"></path>
            <path d="M12.5674667,156.322178 C11.6134329,156.322178 10.8371722,157.098681 10.8371722,158.053779 C10.8371722,159.008878 11.6134329,159.78538 12.5674667,159.78538 L174.357101,159.78538 C175.311356,159.78538 176.088282,159.008878 176.088282,158.053779 C176.088282,157.098681 175.311356,156.322178 174.357101,156.322178 L12.5674667,156.322178 Z M174.357101,160.51973 L12.5674667,160.51973 C11.2092321,160.51973 10.1040247,159.412659 10.1040247,158.053779 C10.1040247,156.69379 11.2092321,155.587828 12.5674667,155.587828 L174.357101,155.587828 C175.71589,155.587828 176.820875,156.69379 176.820875,158.053779 C176.820875,159.412659 175.71589,160.51973 174.357101,160.51973 L174.357101,160.51973 Z" id="Fill-15" fill="#026BB0"></path>
            <path d="M89.6112369,157.979457 C89.6112369,159.797583 88.138292,161.271828 86.3217709,161.271828 C84.5052498,161.271828 83.032305,159.797583 83.032305,157.979457 C83.032305,156.161331 84.5052498,154.687085 86.3217709,154.687085 C88.138292,154.687085 89.6112369,156.161331 89.6112369,157.979457" id="Fill-16" fill="#FFFFFF"></path>
            <path d="M86.3217709,155.05426 C84.7102873,155.05426 83.3991558,156.36655 83.3991558,157.979457 C83.3991558,159.592364 84.7102873,160.904654 86.3217709,160.904654 C87.9332546,160.904654 89.2443861,159.592364 89.2443861,157.979457 C89.2443861,156.36655 87.9332546,155.05426 86.3217709,155.05426 Z M86.3217709,161.639003 C84.3057539,161.639003 82.6654542,159.997255 82.6654542,157.979457 C82.6654542,155.961659 84.3057539,154.32102 86.3217709,154.32102 C88.337788,154.32102 89.9780877,155.961659 89.9780877,157.979457 C89.9780877,159.997255 88.337788,161.639003 86.3217709,161.639003 L86.3217709,161.639003 Z" id="Fill-17" fill="#000000"></path>
            <path d="M64.860998,149.072971 L93.4459917,149.072971 C90.9157185,126.571031 88.3832287,112.213495 88.3832287,112.213495 L45.3348922,104.693621 L41.038526,116.983441 C39.7518882,120.703998 37.9900068,126.176124 36.3482663,132.9439 C35.4670485,136.576823 34.2279572,140.26743 33.227596,149.072971 L64.860998,149.072971" id="Fill-18" fill="#000000"></path>
            <path d="M64.8646555,149.440145 C64.8276379,149.440145 64.790177,149.435708 64.7531594,149.423506 C64.5602025,149.361386 64.4540264,149.155058 64.5155376,148.962042 C66.6201087,142.368424 70.7486766,141.967971 70.9233463,141.954659 C71.1226206,141.93691 71.3018344,142.088883 71.3175724,142.290774 C71.3335321,142.492665 71.1834669,142.669042 70.9823085,142.685681 C70.8207168,142.700102 67.1569743,143.097227 65.2137733,149.185009 C65.164121,149.341419 65.0200406,149.440145 64.8646555,149.440145" id="Fill-19" fill="#D0E0EA"></path>
            <path d="M94.2705854,124.367982 C94.2151592,127.955424 94.4157635,131.130211 87.1906865,131.578364 C78.6300951,132.109714 72.0962715,123.108938 72.0962715,123.108938 C72.0962715,123.108938 94.2883077,123.173277 94.2705854,124.367982" id="Fill-20" fill="#000000"></path>
            <path d="M136.468394,55.3638448 L140.606826,49.8118503 C140.606826,49.8118503 137.944663,45.3262159 140.330856,42.851058 C144.243193,38.7931656 143.440776,31.3199925 145.498909,29.7717569 C146.312409,29.1598728 147.476135,29.8250028 147.44621,30.8429979 L147.28883,36.1094613 C147.32873,37.5225853 149.538701,38.786288 150.724593,38.0285323 C153.018796,36.5626061 155.246501,35.85377 157.817781,35.2361176 C159.173245,34.910652 160.979792,34.6688269 161.949563,34.8642837 C163.42805,35.1625717 163.735052,36.344076 162.652232,37.3979012 C159.3672,40.594652 150.824341,42.1334585 148.777292,48.9044514 C147.991499,51.5003 145.402486,54.8535716 143.39201,58.0751705 L136.468394,55.3638448" id="Fill-21" fill="#FFFFFF"></path>
            <path d="M137.049148,55.1974514 L143.242388,57.6229131 C143.751103,56.8179016 144.295283,56.0017973 144.821731,55.2099863 C146.391099,52.8548536 147.871802,50.6302842 148.425957,48.7981814 C149.825753,44.1672301 154.065042,41.9590782 157.80559,40.0109438 C159.615461,39.0680476 161.325585,38.1775099 162.397321,37.1348886 C162.822912,36.7205689 163.006892,36.281623 162.903819,35.9305329 C162.805179,35.593087 162.43057,35.3355099 161.877523,35.2239154 C160.966492,35.0406607 159.178787,35.2863684 157.903121,35.5927542 C155.320758,36.2134017 153.145144,36.9176897 150.921873,38.3376913 C150.276836,38.750458 149.36248,38.7162919 148.476939,38.2465077 C147.541525,37.7498788 146.945254,36.9348837 146.923088,36.1197777 L147.07936,30.8322378 C147.091551,30.4163651 146.832206,30.1311668 146.585053,30.0030438 C146.294676,29.8527351 145.971049,29.8756974 145.719463,30.0650531 C144.94697,30.6456553 144.596744,32.3727083 144.189994,34.3725356 C143.615889,37.1970088 142.902137,40.7122367 140.594634,43.1058618 C138.427887,45.3536153 140.897203,49.5821164 140.921586,49.6244913 C140.998059,49.7518377 140.989193,49.9124629 140.900528,50.0312678 L137.049148,55.1974514 Z M143.39201,58.4420125 C143.346569,58.4420125 143.302237,58.4340257 143.257905,58.4168317 L136.334288,55.705506 C136.22789,55.6637967 136.146984,55.5747208 136.115951,55.4645683 C136.08381,55.3546377 136.105976,55.2361656 136.174691,55.1444273 L140.17126,49.7833415 C139.65257,48.8202563 137.798366,44.949723 140.067078,42.596476 C142.226067,40.3565984 142.916545,36.9574023 143.471809,34.2262203 C143.925108,31.9915564 144.2842,30.2264548 145.278355,29.4784608 C145.75382,29.1210477 146.384449,29.0725717 146.92198,29.351558 C147.490543,29.6460744 147.830794,30.2216848 147.811953,30.8539799 L147.655681,36.1204433 C147.670089,36.6341553 148.138905,37.2364995 148.820516,37.5982389 C149.458903,37.9374596 150.113914,37.9833842 150.527314,37.7193733 C152.837033,36.24424 155.078037,35.5172116 157.732441,34.87937 C159.026948,34.5683252 160.926593,34.2841252 162.021604,34.5045411 C162.85062,34.6718219 163.429158,35.1159815 163.607596,35.7233176 C163.790467,36.3442979 163.535556,37.0503607 162.908252,37.6609137 C161.758934,38.7787449 160.00337,39.6933542 158.143625,40.661764 C154.53164,42.5431192 150.438649,44.6755066 149.127518,49.0107213 C148.54233,50.9468754 147.031702,53.2152617 145.43241,55.6169847 C144.851655,56.4889973 144.250951,57.3906278 143.702337,58.2696289 C143.633622,58.3794486 143.515033,58.4420125 143.39201,58.4420125 L143.39201,58.4420125 Z" id="Fill-22" fill="#000000"></path>
            <path d="M51.7676379,46.8552607 C48.2140615,47.7995989 45.0463989,48.7985142 42.2360557,49.8830667 C31.2675487,54.1156721 33.171848,71.7412857 38.4129381,91.8835446 C40.6089448,100.32302 40.176482,109.249473 37.4728691,117.540304 C35.6254261,123.205446 34.4007428,128.947129 36.5083063,130.112993 C40.9066371,132.546774 46.9303053,133.922293 53.6400179,131.457452 C67.0595538,126.526659 87.9986449,120.945823 94.2506252,125.274271 L94.91007,93.7338397 L118.389631,89.6649654 C118.389631,89.6649654 113.810091,63.581795 95.641555,51.5608672 C84.1993561,43.9902984 63.106099,43.8419864 51.7676379,46.8552607" id="Fill-23" fill="#026BB0"></path>
            <path d="M147.678956,56.9263901 L136.724413,50.035594 C136.724413,50.035594 117.744594,75.5071021 111.513672,77.310807 C105.283857,79.1145119 94.7360652,79.9065447 94.7360652,79.9065447 C94.7360652,79.9065447 88.1227757,96.2319599 102.312477,103.393534 C124.928663,114.809233 147.678956,56.9263901 147.678956,56.9263901" id="Fill-24" fill="#026BB0"></path>
            <path d="M29.4792895,104.269872 L36.5633894,117.030031 C37.2099778,118.193676 38.6761619,118.616315 39.8422155,117.972927 L44.3025008,115.645637 C44.8076688,115.367206 45.480635,115.130927 46.1766541,114.990047 C47.3521284,114.752659 48.5722675,115.062151 49.503581,115.818687 L56.3948348,121.413943 C59.8575297,125.116752 52.2588412,125.920987 50.7374632,125.759031 C48.123845,125.480599 48.123845,125.480599 48.123845,125.480599 C48.123845,125.480599 45.2420157,125.599293 42.9341805,126.41684 C40.6264561,127.235495 37.3680229,127.752424 34.0294588,126.575468 L33.7683408,126.483397 C31.7717192,125.780107 30.0596009,124.443413 28.8927715,122.675206 L20.3928048,109.798572 L29.4792895,104.269872" id="Fill-25" fill="#FFFFFF"></path>
            <path d="M20.9085017,109.913938 L29.198776,122.473315 C30.3142907,124.163872 31.9805249,125.465069 33.8900333,126.137299 L34.1511513,126.22937 C37.7349845,127.49285 41.1156644,126.671976 42.8119339,126.07185 C45.1448169,125.24432 47.9888528,125.118971 48.1086612,125.113424 C48.1277241,125.113424 48.1449029,125.113424 48.1627468,125.115643 L50.7763649,125.394075 C52.0323025,125.528299 56.1191979,125.004714 56.8197611,123.597025 C57.0744509,123.085643 56.8472472,122.441146 56.1440241,121.683501 L49.2724982,116.103774 C48.4172149,115.409359 47.3156649,115.134255 46.2492484,115.349457 C45.597451,115.481463 44.9521925,115.706648 44.4792764,115.967331 L40.0117871,118.299058 C38.6799302,119.033408 36.9858774,118.54532 36.2429768,117.207517 L29.3440756,104.781255 L20.9085017,109.913938 Z M38.1148026,127.627075 C36.8064419,127.627075 35.3743937,127.438495 33.9076554,126.921566 L33.6466483,126.829495 C31.5871855,126.10402 29.7902814,124.700769 28.5868777,122.877096 L20.086911,110.000463 C20.0320497,109.917266 20.01343,109.815211 20.0351529,109.717594 C20.0568758,109.621086 20.1172787,109.53678 20.202397,109.484643 L29.2889925,103.955943 C29.3743325,103.903807 29.4774053,103.889386 29.5731634,103.9149 C29.6695864,103.940413 29.7513797,104.004752 29.7998129,104.091277 L36.8839128,116.851435 C37.4304208,117.836484 38.678046,118.195894 39.6655508,117.652342 L44.1330401,115.320616 C44.6690192,115.024435 45.3716881,114.778173 46.1040598,114.630637 C47.3853777,114.372173 48.7083681,114.700523 49.7344421,115.533599 L56.6258067,121.129965 C56.6386631,121.139949 56.6508545,121.151042 56.6622701,121.163244 C57.6096541,122.177135 57.8834068,123.10561 57.4757701,123.924266 C56.4708649,125.943173 51.6159102,126.220495 50.6985615,126.123987 L48.1132053,125.847774 C47.8222737,125.862195 45.1691997,126.014167 43.0567597,126.762938 C41.9597538,127.152299 40.1931067,127.627075 38.1148026,127.627075 L38.1148026,127.627075 Z" id="Fill-26" fill="#000000"></path>
            <path d="M44.0109043,81.9043753 C31.7059964,83.8101348 33.7917261,95.0305992 33.7917261,95.0305992 L36.3641151,112.006058 L24.0155397,119.974085 C24.0155397,119.974085 -0.727827591,93.5774299 9.65892714,72.3663704 C18.2611909,54.7999929 48.2488625,47.8762508 48.2488625,47.8762508 L44.0109043,81.9043753" id="Fill-27" fill="#026BB0"></path>
            <path d="M80.9520059,31.7992056 C82.1423315,31.2577613 82.7585522,32.159281 84.5329576,31.9150154 C86.4170856,31.6554416 88.4907348,30.2561837 89.2687689,28.2104318 C90.2086163,25.7397111 88.8542607,23.3848001 88.0008615,21.8997941 C87.1518956,20.422775 86.0701844,18.7779204 84.1960311,18.0678641 C81.7510979,17.1418291 80.7281272,18.5636056 77.9307511,17.6910384 C75.6542811,16.9815368 75.8205277,15.8821199 73.7945359,15.3050674 C72.1060246,14.8238576 67.2397651,15.0985177 66.1508499,17.6910384 C65.4598183,19.3362258 66.9499419,20.3374707 66.207263,22.7751346 C65.7612788,24.2382876 65.0597181,24.4178816 64.5482328,25.547693 C63.2792171,28.3513116 64.8699753,33.2753373 67.8982125,34.9249618 C72.0077175,37.1635083 78.8983063,32.7332274 80.9520059,31.7992056" id="Fill-28" fill="#000000"></path>
            <path d="M77.1726667,36.5024826 L78.1280304,44.3667913 C78.3109017,45.8644432 79.3870713,47.098417 80.8444998,47.4789033 L83.5986517,48.3599011 C84.135074,48.5315082 84.2425802,49.2557634 83.7715482,49.5651443 C76.8124657,54.1337535 67.2115032,54.0531082 60.5497805,48.9884246 L59.7701948,48.3957312 C59.2525029,48.0021552 59.4309409,47.1815028 60.0652271,47.0395137 L63.4726173,46.2767662 C64.9133103,45.9542957 66.0205126,44.7976394 66.2824064,43.3418077 L68.3664737,31.7561651 L77.1726667,36.5024826" id="Fill-29" fill="#FFFFFF"></path>
            <path d="M68.6374557,32.3190187 L66.6432724,43.4068121 C66.3544466,45.0120651 65.1415115,46.2790957 63.5526373,46.6347339 L60.1451363,47.3974814 C59.990527,47.4320913 59.8777009,47.5456825 59.8440083,47.701094 C59.8098723,47.8568383 59.8652879,48.0072579 59.9919678,48.1036552 L60.7713318,48.6963487 C67.2256896,53.6030694 76.6007784,53.8340235 83.5709439,49.2583148 C83.7105911,49.1660219 83.7083745,49.0237 83.7006163,48.9666825 C83.6939664,48.9203142 83.6596088,48.7647918 83.4867123,48.7092164 L80.7325604,47.8283295 C79.1388097,47.4126787 77.9662171,46.0691071 77.7645045,44.411052 L76.831307,36.7354334 L68.6374557,32.3190187 Z M72.4832936,53.2708372 C68.1306252,53.2708372 63.8187427,51.934365 60.3280076,49.2805006 L59.5485327,48.6878071 C59.1939841,48.4183607 59.0327249,47.9804131 59.1275963,47.5446842 C59.2226894,47.1093989 59.5511926,46.7786088 59.9853179,46.681435 L63.3927081,45.9186875 C64.6926456,45.6277208 65.6853595,44.5908678 65.9215405,43.2769143 L68.0056078,31.6911608 C68.0265549,31.5754619 68.1014767,31.476846 68.2072095,31.4257078 C68.3129423,31.3746804 68.4368514,31.3775646 68.540146,31.43314 L77.3466714,36.1794575 C77.4508526,36.2359203 77.5217845,36.3399717 77.5361926,36.4582219 L78.4926646,44.3224197 C78.6578029,45.6796356 79.6164916,46.7792743 80.9364896,47.1240416 L83.7094828,48.010364 C84.0973915,48.1341607 84.3711442,48.4626213 84.4265597,48.8674011 C84.4819753,49.2671891 84.3068622,49.6520017 83.9721524,49.8717519 C80.5142232,52.1425787 76.4810808,53.2708372 72.4832936,53.2708372 L72.4832936,53.2708372 Z" id="Fill-30" fill="#000000"></path>
            <path d="M69.3683865,33.3530985 C69.3683865,33.3530985 66.2660034,31.8424679 67.3566919,28.9605335 C68.353839,26.3257488 70.4913269,28.9462236 70.4913269,28.9462236 C70.4913269,28.9462236 72.2512133,22.6267116 75.9490917,25.1191745 C79.6475243,27.6119701 83.1508942,28.5174832 83.1508942,28.5174832 C83.1508942,28.5174832 81.8486292,34.8774842 79.5089855,39.1094241 C78.098106,41.6616777 76.310401,43.4399798 74.2046108,42.5822771 C68.4370731,40.2344656 69.3683865,33.3530985 69.3683865,33.3530985" id="Fill-31" fill="#FFFFFF"></path>
            <path d="M68.6169519,28.1527488 C68.579491,28.1527488 68.5426951,28.1554111 68.506675,28.1614012 C68.1842675,28.2143143 67.9127314,28.5269121 67.6993816,29.0904313 C66.7422445,31.6195007 69.4151572,32.9675094 69.5293132,33.0236394 C69.6708445,33.093081 69.7526378,33.2458302 69.7315799,33.4021291 C69.6955598,33.6717974 68.9116517,40.0315766 74.3420413,42.2425017 C75.9756912,42.9080755 77.6060161,41.7935722 79.1886837,38.9319378 C81.1714514,35.3437187 82.4160843,30.1329416 82.7197614,28.7761695 C81.7433397,28.4836498 78.8295911,27.502705 75.7440543,25.4235635 C74.9815366,24.9095187 74.291059,24.777957 73.6321684,25.0212242 C71.7950327,25.6987783 70.8536336,29.0113389 70.8443238,29.0448395 C70.8076387,29.1766231 70.7004651,29.2767919 70.566692,29.3051897 C70.4328081,29.3332548 70.2942692,29.2843351 70.2074885,29.1787307 C69.9786224,28.8993007 69.2251928,28.1527488 68.6169519,28.1527488 Z M75.2874303,43.1730847 C74.8840052,43.1730847 74.4772552,43.0896662 74.066072,42.9222744 C68.7537175,40.7594924 68.8828356,34.8704957 68.9805886,33.5629761 C67.7972454,32.8896373 66.1166031,31.2012985 67.0140023,28.8305247 C67.3268784,28.0036602 67.789598,27.5347635 68.3895266,27.437146 C69.1458378,27.313793 69.8800936,27.8348264 70.3332818,28.2513646 C70.7246263,27.1690307 71.7099144,24.9483439 73.3784761,24.3326881 C74.262243,24.0066679 75.1954405,24.168846 76.1541292,24.8148963 C79.7583554,27.2442406 83.207418,28.1533034 83.2417757,28.1622886 C83.4312968,28.2110974 83.5487777,28.3996766 83.5099869,28.59114 C83.4556796,28.8530433 82.168931,35.0547487 79.8292872,39.2871323 C78.4006748,41.871999 76.877856,43.1730847 75.2874303,43.1730847 L75.2874303,43.1730847 Z" id="Fill-32" fill="#000000"></path>
            <path d="M135.218219,2.99328385 L95.7690107,2.99328385 C93.5357648,2.99328385 91.8267498,4.81196417 91.8267498,7.04751553 L91.8267498,18.4743078 C91.8267498,20.7097482 93.5357648,22.5155608 95.7690107,22.5155608 C95.7889603,22.5155608 96.3896647,22.5155608 97.1954065,22.5155608 L97.1954065,30.1462531 L102.385625,22.5155608 C109.931004,22.5155608 135.218219,22.5155608 135.218219,22.5155608 C137.451465,22.5155608 139.364409,20.7097482 139.364409,18.4743078 L139.364409,7.04751553 C139.364409,4.81196417 137.451465,2.99328385 135.218219,2.99328385" id="Fill-33" fill="#FFFFFF"></path>
            <path d="M95.7690107,3.36023686 C93.7640768,3.36023686 92.1936006,4.97991062 92.1936006,7.04751553 L92.1936006,18.4743078 C92.1936006,20.5347023 93.7640768,22.1486078 95.7690107,22.1486078 L97.1954065,22.1486078 C97.397119,22.1486078 97.5622573,22.3127827 97.5622573,22.5154499 L97.5622573,28.9554307 L102.083056,22.3090111 C102.151772,22.2087313 102.264819,22.1486078 102.385625,22.1486078 L135.218219,22.1486078 C137.267486,22.1486078 138.997559,20.4659264 138.997559,18.4743078 L138.997559,7.04751553 C138.997559,5.0487975 137.267486,3.36023686 135.218219,3.36023686 L95.7690107,3.36023686 Z M97.1954065,30.5130952 C97.1588323,30.5130952 97.1233663,30.5077706 97.0879004,30.4968996 C96.9338452,30.449422 96.8285557,30.307211 96.8285557,30.1462531 L96.8285557,22.882292 L95.7690107,22.882292 C93.3528936,22.882292 91.459899,20.9461379 91.459899,18.4743078 L91.459899,7.04751553 C91.459899,4.5684751 93.3528936,2.62655271 95.7690107,2.62655271 L135.218219,2.62655271 C137.664261,2.62655271 139.73126,4.65111718 139.73126,7.04751553 L139.73126,18.4743078 C139.73126,20.8637176 137.664261,22.882292 135.218219,22.882292 L102.57958,22.882292 L97.4979753,30.3526919 C97.4281517,30.4549684 97.3139958,30.5130952 97.1954065,30.5130952 L97.1954065,30.5130952 Z" id="Fill-34" fill="#000000"></path>
            <path d="M119.082325,11.1424581 L131.244926,11.1424581 C132.030718,11.1424581 132.667997,10.5049494 132.667997,9.71846305 C132.667997,8.93208765 132.030718,8.29446798 131.244926,8.29446798 L119.082325,8.29446798 C118.296533,8.29446798 117.660362,8.93208765 117.660362,9.71846305 C117.660362,10.5049494 118.296533,11.1424581 119.082325,11.1424581" id="Fill-35" fill="#D0E0EA"></path>
            <path d="M105.737157,11.1424581 L112.240723,11.1424581 C113.026516,11.1424581 113.663794,10.5049494 113.663794,9.71846305 C113.663794,8.93208765 113.026516,8.29446798 112.240723,8.29446798 L105.737157,8.29446798 C104.951364,8.29446798 104.314086,8.93208765 104.314086,9.71846305 C104.314086,10.5049494 104.951364,11.1424581 105.737157,11.1424581" id="Fill-36" fill="#D0E0EA"></path>
            <path d="M99.9462335,17.2953548 L131.244926,17.2953548 C132.030718,17.2953548 132.667997,16.6578461 132.667997,15.8713597 C132.667997,15.0848734 132.030718,14.4473647 131.244926,14.4473647 L99.9462335,14.4473647 C99.1604413,14.4473647 98.5231626,15.0848734 98.5231626,15.8713597 C98.5231626,16.6578461 99.1604413,17.2953548 99.9462335,17.2953548" id="Fill-37" fill="#D0E0EA"></path>
            <path d="M85.3143166,102.723523 C79.7627886,97.8315555 79.2008751,89.3343971 84.0608172,83.745796 C88.9207593,78.1560857 97.3616531,77.5914573 102.914289,82.4834244 C108.466926,87.3753916 109.027731,95.8725501 104.167789,101.461151 C99.3078466,107.050861 90.8669528,107.61549 85.3143166,102.723523" id="Fill-38" fill="#FFFFFF"></path>
            <path d="M85.5570366,102.44731 C88.1671081,104.747976 91.5086647,105.888326 94.9721354,105.656484 C98.4367144,105.426861 101.604266,103.850561 103.890711,101.220435 C108.611006,95.7926812 108.064609,87.510725 102.672678,82.7585283 C100.061498,80.4589709 96.7166163,79.3186212 93.2575788,79.5493534 C89.7929998,79.7800857 86.6243397,81.3552769 84.3378949,83.9865119 C79.6175999,89.4142659 80.1639971,97.6962222 85.5570366,102.44731 Z M94.0943534,106.419676 C90.7705298,106.419676 87.5974365,105.222752 85.0727048,102.998627 C79.3782048,97.9813096 78.800775,89.2367796 83.7848479,83.5039709 C86.2009651,80.7252004 89.5480632,79.061266 93.2088132,78.8172223 C96.8673466,78.5742879 100.398424,79.7789764 103.157009,82.2083206 C108.850401,87.2256375 109.428939,95.9701676 104.443758,101.701867 C102.027641,104.480637 98.6816511,106.145681 95.0197927,106.389725 C94.7105741,106.409692 94.4024637,106.419676 94.0943534,106.419676 L94.0943534,106.419676 Z" id="Fill-39" fill="#000000"></path>
            <path d="M90.2030747,96.8919872 L90.2030747,88.4802441 C90.2030747,88.050949 90.6541572,87.7702987 91.0376327,87.9610966 L99.4430605,92.1142769 C99.8697601,92.3250419 99.873085,92.9340419 99.4474937,93.1503534 L91.0431742,97.4078069 C90.6585904,97.6030419 90.2030747,97.3235009 90.2030747,96.8919872" id="Fill-40" fill="#026BB0"></path>
            <path d="M63.6881837,191.372402 C63.6881837,191.372402 63.0446986,191.374621 62.4280345,190.936451 C60.5205211,189.583118 56.5553182,186.559194 53.8463853,186.937462 C49.3097374,187.569757 48.7722068,191.278112 48.7722068,191.278112 C48.7722068,191.278112 44.945986,191.135014 45.0222377,193.683052 C45.0807565,195.639839 46.1936113,198.124648 49.2871279,199.492402 C53.504139,201.356009 57.7313466,202.775899 62.3972235,199.716479 C63.3029349,199.123009 64.3778854,198.845686 65.45472,198.954397 C68.076318,199.218407 107.144711,200.060358 107.144711,200.060358 C116.082128,200.060358 124.280302,195.097397 128.430925,187.17485 L136.665673,171.453998 L127.230625,145.070654 L112.436894,179.468615 C105.268341,189.260315 64.4344093,191.542123 63.6881837,191.372402" id="Fill-41" fill="#FFFFFF"></path>
            <path d="M48.672348,191.643069 C48.2776786,191.643069 46.6377113,191.692987 45.8313045,192.496112 C45.5189826,192.806714 45.3741264,193.191637 45.3884236,193.673069 C45.4149122,194.550517 45.7845338,197.542271 49.4354198,199.156287 C53.5740734,200.985506 57.6642938,202.382101 62.1962868,199.410315 C63.178915,198.765817 64.3472961,198.474074 65.4915159,198.58944 C68.0687815,198.849014 106.762344,199.685418 107.152469,199.694293 C115.974622,199.694293 124.006549,194.832276 128.10619,187.005129 L136.265573,171.426266 L127.199592,146.071233 L112.772712,179.613932 C112.761629,179.638337 112.74833,179.662741 112.731705,179.684927 C108.931308,184.877511 95.9396906,187.899216 85.7110918,189.518779 C75.282997,191.169402 64.8097941,191.81279 63.6853021,191.738468 C63.6168085,191.738468 62.900729,191.721828 62.2163472,191.235959 C62.0779192,191.138342 61.9289623,191.03185 61.7702522,190.917593 C59.8463358,189.537637 56.2632783,186.970741 53.8970351,187.301309 C49.7020794,187.885905 49.1560147,191.190479 49.1347352,191.331358 C49.1070274,191.5155 48.9496473,191.649724 48.758907,191.644178 C48.7565796,191.644178 48.7259902,191.643069 48.672348,191.643069 Z M56.7018368,201.857407 C54.0692666,201.857407 51.5526256,200.894544 49.1390576,199.827407 C45.0961621,198.040342 44.6854221,194.681413 44.6558303,193.694145 C44.6353265,193.008604 44.8575428,192.429555 45.3159401,191.973637 C46.2222057,191.074003 47.8131856,190.930905 48.4807211,190.912047 C48.7396224,189.958058 49.8354092,187.126041 53.7958464,186.573615 C56.4546836,186.202003 60.0492674,188.781102 62.1971734,190.320796 C62.3546644,190.433943 62.5028455,190.540435 62.6400544,190.638052 C63.1459982,190.996353 63.683418,191.005227 63.6888487,191.005227 C63.7091308,191.005227 63.7308537,191.007446 63.7514683,191.010774 C64.3071752,191.059582 74.5426455,190.559293 85.8185979,188.758916 C100.122455,186.474888 109.213927,183.199156 112.116593,179.284473 L126.893698,144.925337 C126.953547,144.786676 127.094302,144.697932 127.241708,144.703233 C127.392438,144.707916 127.524327,144.804424 127.575309,144.946413 L137.010358,171.330867 C137.044715,171.427375 137.036957,171.533867 136.9893,171.624828 L128.754552,187.345681 C124.528563,195.414653 116.248375,200.427533 107.144711,200.427533 C105.540986,200.393145 68.0240057,199.582254 65.418035,199.319353 C64.4420566,199.219517 63.440698,199.471326 62.5981602,200.023752 C60.5689543,201.35379 58.6050278,201.857407 56.7018368,201.857407 L56.7018368,201.857407 Z" id="Fill-42" fill="#000000"></path>
            <path d="M73.9530243,184.300681 L70.1745717,177.68044 L67.073186,179.69491 C66.9021737,179.805839 66.7593125,179.955593 66.6571262,180.13197 L66.471595,180.452555 C66.2381848,180.854118 65.8059437,181.102599 65.3466597,181.097052 C65.0974007,181.093725 64.8508016,181.165828 64.6388926,181.30338 L41.5742834,196.254386 C41.3840973,196.377517 41.2106467,196.525052 41.0588081,196.693664 L36.3975861,201.865172 L42.8855257,200.398692 C43.2387443,200.318823 43.5812123,200.192364 43.9038415,200.023752 L68.1770634,187.322386 C68.3843175,187.213675 68.5588764,187.05061 68.6813448,186.852047 L68.712045,186.80102 C68.947561,186.418315 69.3657266,186.183145 69.8098267,186.185364 L70.0340379,186.185364 C70.2395187,186.186473 70.443337,186.136555 70.6275382,186.040047 L73.9530243,184.300681" id="Fill-43" fill="#FFFFFF"></path>
            <path d="M65.3314759,181.463118 C65.1574711,181.463118 64.9871238,181.514145 64.8381668,181.610653 L41.7736685,196.561659 C41.6098601,196.668151 41.4612357,196.795719 41.33112,196.939927 L37.4436097,201.252845 L42.8047298,200.040391 C43.1269157,199.967178 43.4397918,199.852921 43.7340483,199.69873 L68.0072702,186.997364 C68.1561164,186.919714 68.2811338,186.803238 68.3690228,186.65903 L68.4002772,186.609112 C68.6995211,186.121025 69.2376059,185.818189 69.8053934,185.818189 C69.8072775,185.818189 69.8091617,185.818189 69.8113783,185.818189 L70.0354787,185.819298 C70.0363654,185.819298 70.0373628,185.819298 70.0382495,185.819298 C70.182884,185.819298 70.3277402,185.782692 70.4575234,185.715025 L73.4457505,184.150927 L70.0487784,178.199588 L67.272682,180.002184 C67.1505461,180.082052 67.0472516,180.190763 66.9738814,180.317222 L66.7887935,180.636697 C66.4918771,181.14808 65.9465883,181.463118 65.3619544,181.463118 C65.3519796,181.463118 65.341894,181.463118 65.3314759,181.463118 Z M36.3975861,202.232347 C36.2694654,202.232347 36.1479945,202.164681 36.0811634,202.050424 C36.0005892,201.912872 36.018433,201.738713 36.1256067,201.620019 L40.7868287,196.448511 C40.9593926,196.256604 41.1574477,196.086883 41.37512,195.946003 L64.4396183,180.994998 C64.7073862,180.820839 65.0154965,180.729878 65.3314759,180.729878 C65.3421157,180.729878 65.3522013,180.729878 65.3619544,180.729878 C65.6860245,180.729878 65.9888149,180.5535 66.154729,180.268413 L66.3399277,179.947828 C66.4709301,179.722643 66.6553529,179.528517 66.8736901,179.387637 L69.9750758,177.373167 C70.059529,177.317703 70.1635994,177.301063 70.2609091,177.324358 C70.3589946,177.347653 70.4427829,177.410883 70.4928785,177.498517 L74.2711094,184.118757 C74.3209834,184.205282 74.3320665,184.307337 74.3043588,184.403845 C74.276651,184.499244 74.2112607,184.579112 74.1225958,184.625703 L70.7974423,186.365069 C70.5632562,186.4882 70.3008083,186.552539 70.0382495,186.552539 C70.0363654,186.552539 70.0344812,186.552539 70.0328188,186.552539 L69.8084967,186.551429 C69.8074992,186.551429 69.8062801,186.551429 69.8050609,186.551429 C69.4908549,186.551429 69.1918326,186.721151 69.0245886,186.994036 L68.9933342,187.043954 C68.8365083,187.299091 68.612962,187.508746 68.3468566,187.647408 L44.0737455,200.348774 C43.7229652,200.531806 43.3505728,200.669358 42.9660999,200.755883 L36.4782711,202.223473 C36.4515608,202.229019 36.4242964,202.232347 36.3975861,202.232347 L36.3975861,202.232347 Z" id="Fill-44" fill="#000000"></path>
            <path d="M42.740337,199.543429 C42.6076722,199.543429 42.4794407,199.470216 42.4143828,199.344866 L41.0291054,196.658167 C40.9362289,196.478462 41.0069392,196.256604 41.1865963,196.164533 C41.367251,196.071353 41.5876939,196.141238 41.6805704,196.322052 L43.0658478,199.007642 C43.1586134,199.188457 43.088014,199.409205 42.9083569,199.502386 C42.8543822,199.530118 42.7968608,199.543429 42.740337,199.543429" id="Fill-45" fill="#000000"></path>
            <path d="M75.5478833,174.403599 L70.0508842,177.72814 L73.9286415,184.337287 L79.4258622,181.012746 C80.4322082,180.402637 80.7780011,179.105878 80.1961381,178.116391 L78.4228411,175.093577 C77.8420863,174.102981 76.5542293,173.79349 75.5478833,174.403599" id="Fill-46" fill="#026BB0"></path>
            <path d="M70.5503998,177.854599 L74.0572055,183.831451 L79.2363411,180.698817 C80.070899,180.192981 80.360168,179.11808 79.8802695,178.301643 L78.1069725,175.278828 C77.8808772,174.893905 77.516243,174.62102 77.0806769,174.510091 C76.6251612,174.394725 76.1485876,174.467938 75.7374044,174.717528 L70.5503998,177.854599 Z M73.9286415,184.704462 C73.8987171,184.704462 73.8687927,184.700025 73.8388683,184.69226 C73.7439969,184.668965 73.6626469,184.607954 73.6129946,184.522539 L69.7350157,177.913391 C69.6332728,177.740342 69.689575,177.518484 69.8614739,177.414211 L75.3583622,174.08967 C75.9380086,173.738025 76.6129698,173.634861 77.2602232,173.799036 C77.887527,173.957664 78.4128663,174.351462 78.7387096,174.907216 L80.5131149,177.930031 C81.1936176,179.091457 80.7913009,180.614511 79.6153833,181.326675 L74.1181626,184.651216 C74.0605304,184.685604 73.9951401,184.704462 73.9286415,184.704462 L73.9286415,184.704462 Z" id="Fill-47" fill="#000000"></path>
            <path d="M68.5157632,185.608533 C68.3915215,185.608533 68.2702724,185.545304 68.2015571,185.431047 L66.3310613,182.321708 C66.2267692,182.14755 66.2826281,181.922364 66.4561895,181.818091 C66.629086,181.713817 66.8546272,181.769282 66.9591409,181.94344 L68.8296367,185.05167 C68.9339288,185.225828 68.8780699,185.451014 68.7045085,185.555287 C68.6453247,185.590785 68.5802668,185.608533 68.5157632,185.608533" id="Fill-48" fill="#000000"></path>
            <path d="M57.4776543,188.23755 C57.3557401,188.23755 57.2367075,188.176539 57.1669948,188.06561 C57.0593778,187.89367 57.1111359,187.667375 57.2824808,187.559774 L64.1652006,183.235763 C64.3367671,183.128162 64.5627516,183.180298 64.6707011,183.351129 C64.7782072,183.523069 64.7264491,183.749364 64.5551043,183.856965 L57.6724953,188.180976 C57.6118707,188.218692 57.5442637,188.23755 57.4776543,188.23755" id="Fill-49" fill="#000000"></path>
            <path d="M43.1297973,197.144036 C43.007329,197.144036 42.8878531,197.083025 42.8183621,196.972096 C42.7114101,196.800156 42.763944,196.573861 42.9357322,196.46626 L45.6242721,194.791233 C45.7958386,194.683632 46.0220448,194.735768 46.1292184,194.908817 C46.2360596,195.080757 46.1836365,195.307052 46.0117375,195.413544 L43.3233084,197.089681 C43.2629055,197.126287 43.1960743,197.144036 43.1297973,197.144036" id="Fill-50" fill="#000000"></path>
            <path d="M74.5415372,182.047714 C74.4185148,182.047714 74.2988172,181.985593 74.2289936,181.872446 C74.1237041,181.700506 74.176903,181.474211 74.3497995,181.367719 L78.5381054,178.794167 C78.7098935,178.687675 78.9359889,178.742031 79.0423867,178.91508 C79.1476762,179.08702 79.0944773,179.313315 78.9215808,179.419806 L74.733275,181.993358 C74.6734262,182.029965 74.6069276,182.047714 74.5415372,182.047714" id="Fill-51" fill="#FFFFFF"></path>
            <path d="M63.6881837,191.372402 C63.6881837,191.372402 58.058409,190.670222 54.4734675,191.168293 C51.6815222,191.555435 43.416739,189.569806 45.1435978,194.91991 C45.5153251,196.072462 45.7114961,196.840091 46.7345777,197.927194 C47.2941637,198.521774 48.8259598,199.746429 49.6935454,200.130244 C53.9147681,201.996069 57.7399914,202.778118 62.4111882,199.707604 C63.3109148,199.116353 64.3829837,198.845686 65.4535009,198.954397 C66.0771473,199.016517 63.8857955,191.416774 63.6881837,191.372402" id="Fill-52" fill="#FFFFFF"></path>
            <path d="M56.121747,202.136948 C53.9500124,202.136948 51.8158494,201.469156 49.5454751,200.466358 C48.6272397,200.060358 47.06962,198.817954 46.4678073,198.179003 C45.4571388,197.105211 45.1970183,196.290992 44.8679609,195.261571 L44.7947016,195.033058 C44.4105611,193.841681 44.4726265,192.895457 44.9789028,192.21879 C46.0191632,190.829959 48.6904134,190.905391 51.0497851,190.971949 C52.3780954,191.009664 53.6334789,191.045162 54.3646314,190.817757 C58.7093199,189.466643 63.3691011,190.885424 63.7788435,191.01632 C63.8977653,191.034069 64.357825,191.03185 65.8414096,190.930905 C66.0433438,190.916484 66.2184569,191.069566 66.2320891,191.271457 C66.245943,191.473347 66.0934395,191.648615 65.8915053,191.663036 C64.2396791,191.776183 63.7924758,191.771746 63.6068337,191.729593 C63.5960831,191.727375 63.5853325,191.724047 63.575136,191.720719 C63.5278112,191.705189 58.807627,190.20432 54.5823036,191.517719 C53.7342243,191.78173 52.420322,191.745123 51.0290597,191.705189 C48.8489019,191.644178 46.3780341,191.574293 45.5655316,192.659178 C45.205109,193.14061 45.1812803,193.84279 45.4924939,194.807872 L45.5661966,195.037495 C45.8905991,196.052495 46.1048356,196.722506 47.001348,197.675386 C47.5514026,198.259981 49.0428562,199.441375 49.8416157,199.795238 C54.1855284,201.715418 57.769805,202.318872 62.2098082,199.400331 C63.1815749,198.762489 64.3462986,198.474074 65.4900751,198.58944 C66.1561698,198.655998 68.4085895,198.734757 68.4313099,198.735867 C68.6336874,198.742522 68.7918433,198.912244 68.7851875,199.115244 C68.7777678,199.317134 68.6093046,199.475763 68.4060404,199.469107 C68.312499,199.465779 66.1065175,199.389238 65.4165941,199.319353 C64.4412808,199.220626 63.4440229,199.466888 62.6122358,200.013768 C60.3131562,201.52573 58.2000511,202.136948 56.121747,202.136948" id="Fill-53" fill="#000000"></path>
            <path d="M150.256886,126.583233 C150.256886,126.583233 132.919583,128.88279 127.160801,135.904594 C119.868117,144.798878 116.724948,158.013845 115.704194,163.725577 C115.403842,165.402823 115.439308,167.122222 115.809484,168.786156 L116.233967,170.693025 C117.731294,177.426413 123.866902,182.094304 130.750619,181.734894 L130.404826,181.736003 C131.51757,181.67832 133.140137,181.310036 133.612277,180.299473 L135.433232,176.973823 L135.603911,178.171856 C136.973783,187.022877 129.827396,199.146304 129.827396,199.146304 L150.33336,196.377517 C160.870069,195.318145 170.894738,191.163856 178.937749,184.27073 C183.305601,180.527987 186.681515,177.02596 188.138944,172.774052 C190.612693,165.552577 190.386598,163.494845 191.0804,154.734785 C191.55254,148.769025 189.803626,142.809921 186.065294,138.140921 C180.572507,131.277747 169.997007,124.077348 150.256886,126.583233" id="Fill-54" fill="#D0E0EA"></path>
            <path d="M135.433232,176.606648 C135.455398,176.606648 135.476456,176.608867 135.498622,176.612194 C135.653785,176.641036 135.773483,176.765276 135.795649,176.921686 L135.967437,178.120828 C137.174388,185.92579 131.979736,196.024763 130.511224,198.68373 L150.284594,196.01367 C160.952084,194.940987 170.773933,190.784479 178.699462,183.992298 C182.528675,180.70991 186.281415,177.064785 187.792042,172.654249 C189.854608,166.631916 190.025288,164.233632 190.43758,158.440921 C190.51627,157.33385 190.603826,156.105867 190.714658,154.705943 C191.186798,148.736856 189.434559,142.93638 185.77935,138.369435 C180.500467,131.774708 170.061289,124.440085 150.305652,126.94708 C150.132755,126.970375 133.044822,129.308758 127.444529,136.137544 C119.808268,145.45114 116.803638,159.657812 116.064395,163.789916 C115.771801,165.428337 115.806159,167.082287 116.167468,168.706287 L116.591951,170.613156 C118.023888,177.05591 123.754962,181.528566 130.299537,181.384358 C130.327244,181.376593 130.356061,181.371047 130.385985,181.369938 C131.484321,181.312255 132.900742,180.957282 133.279784,180.145282 L135.111821,176.797446 C135.177212,176.678752 135.301343,176.606648 135.433232,176.606648 Z M129.827396,199.513479 C129.705482,199.513479 129.590218,199.452468 129.521503,199.349304 C129.443921,199.231719 129.440596,199.080856 129.511528,198.959943 C129.58246,198.84014 136.5759,186.845391 135.242602,178.228429 L135.225977,178.115282 L133.932579,180.476959 C133.488146,181.432058 132.162607,181.911271 130.921299,182.059916 C130.875858,182.08432 130.823768,182.098741 130.76946,182.102069 C123.680706,182.471462 117.417642,177.707063 115.875982,170.772894 L115.451499,168.866025 C115.069132,167.146626 115.032558,165.395058 115.342885,163.660129 C116.089886,159.483654 119.128874,145.12279 126.878182,135.671643 C132.661347,128.618779 149.494369,126.314785 150.209229,126.219386 L150.210337,126.219386 C170.305117,123.66802 180.954874,131.169036 186.351239,137.911298 C190.123928,142.623561 191.932691,148.608178 191.445034,154.763626 C191.334203,156.161331 191.247755,157.388206 191.169065,158.493058 C190.75234,164.353435 190.579444,166.779451 188.485845,172.892746 C186.917585,177.469675 183.085047,181.200216 179.176036,184.549162 C171.13635,191.440069 161.174854,195.656479 150.369934,196.742473 L129.876162,199.510151 C129.859537,199.512369 129.844021,199.513479 129.827396,199.513479 L129.827396,199.513479 Z" id="Fill-55" fill="#000000"></path>
            <path d="M134.185274,179.619479 C134.126533,179.619479 134.068901,179.606167 134.014594,179.577326 C133.835048,179.483036 133.766332,179.261178 133.860539,179.081473 L138.788088,169.720178 C138.882294,169.540473 139.105065,169.472807 139.283503,169.567096 C139.461941,169.661386 139.530656,169.883244 139.43645,170.061839 L134.508901,179.424244 C134.44351,179.548484 134.316054,179.619479 134.185274,179.619479" id="Fill-56" fill="#000000"></path>
            <path d="M147.539309,91.8280801 L146.26586,90.9783643 C145.243997,90.2961512 144.813973,89.0027195 145.239564,87.8501676 C146.518554,84.3914026 151.182326,78.3635228 168.14502,82.9415611 C185.441316,87.6094517 182.383486,115.387173 167.648497,121.322982 C152.913507,127.25879 147.909484,96.7433424 147.909484,96.7433424 L147.539309,91.8280801" id="Fill-57" fill="#000000"></path>
            <path d="M149.665048,92.4637031 C149.467769,91.4043315 148.057998,91.1713807 147.526009,92.1076211 C146.231502,94.3816648 145.614173,95.9635118 145.408027,96.9285938 C145.129841,98.2275719 146.334575,99.52655 145.685105,100.917599 C145.036743,102.308648 144.017097,103.884949 143.925108,106.389725 C143.834226,108.836818 141.354935,120.051736 150.060715,119.697872 C150.402075,119.683452 150.688019,119.953009 150.683586,120.29467 C150.662528,122.001867 150.571646,126.69749 150.192604,129.239982 C149.986458,130.624375 150.848724,131.942211 152.195322,132.322697 C155.67985,133.307747 162.169009,134.694359 167.024518,133.113621 C168.286884,132.703184 168.949653,131.31879 168.499679,130.068621 C167.925574,128.473462 167.123157,123.989714 167.648497,121.322982 C167.648497,121.322982 164.741398,121.036785 161.502914,119.549228 C156.526599,117.264091 154.077233,111.699894 155.452646,106.395271 C155.748565,105.253812 156.388061,103.632031 155.721966,101.914851 C154.002976,97.4832386 151.431696,101.938146 151.431696,101.938146 L149.665048,92.4637031" id="Fill-58" fill="#FFFFFF"></path>
            <path d="M150.085098,119.329588 C150.336685,119.329588 150.581621,119.428315 150.761168,119.603583 C150.950689,119.787725 151.053762,120.035096 151.050437,120.299107 C151.027162,122.159386 150.932956,126.75961 150.555022,129.293227 C150.376584,130.487932 151.124693,131.638266 152.29507,131.968834 C155.704233,132.932807 162.137976,134.318309 166.91147,132.765304 C167.421293,132.598911 167.832476,132.24061 168.069655,131.75585 C168.310158,131.264435 168.340082,130.708681 168.154995,130.192861 C167.588648,128.620998 166.816155,124.427883 167.222905,121.63802 C166.315199,121.507124 163.951172,121.076719 161.349967,119.883124 C156.290529,117.559162 153.660508,111.848539 155.097987,106.3032 C155.138995,106.14679 155.185544,105.981506 155.234309,105.808457 C155.536878,104.743539 155.912595,103.419047 155.380606,102.047965 C155.085796,101.288102 154.592597,100.372938 153.916528,100.320801 C153.039854,100.253135 152.051241,101.596484 151.748672,102.121178 L151.253258,102.979769 L149.304847,92.5313698 C149.230591,92.1320255 148.924697,91.9434463 148.663136,91.8990747 C148.400466,91.8558124 148.045807,91.9345719 147.844094,92.2895446 C146.353416,94.9074681 145.902334,96.3684025 145.766012,97.006244 C145.662939,97.4876757 145.812561,98.005714 145.971049,98.5525938 C146.190495,99.3102386 146.438756,100.169938 146.017598,101.0729 C145.907875,101.30696 145.788178,101.547676 145.664047,101.796157 C145.055584,103.015266 144.365107,104.396331 144.29085,106.403036 C144.279767,106.723621 144.231001,107.166228 144.168936,107.726419 C143.876342,110.386495 143.331053,115.337255 145.648531,117.823173 C146.653768,118.901402 148.131146,119.408348 150.045199,119.330697 C150.058499,119.330697 150.071798,119.329588 150.085098,119.329588 Z M161.903014,134.195178 C158.191282,134.195178 154.441867,133.338807 152.095574,132.675452 C150.571646,132.245047 149.597441,130.744178 149.830187,129.185626 C150.200362,126.695271 150.294569,122.134982 150.316735,120.290233 C150.317843,120.208146 150.275728,120.1549 150.250236,120.129386 C150.203687,120.085014 150.147163,120.059501 150.075123,120.063938 C147.936084,120.148244 146.270293,119.564758 145.112108,118.323463 C142.56521,115.592391 143.134882,110.423102 143.440776,107.64655 C143.498408,107.121856 143.547174,106.670375 143.558257,106.376413 C143.639163,104.209971 144.398356,102.690244 145.007927,101.467807 C145.129841,101.225982 145.246214,100.990812 145.35372,100.762299 C145.657397,100.108927 145.467876,99.4522276 145.266163,98.7567031 C145.089942,98.1465938 144.907071,97.515408 145.048935,96.8520528 C145.226264,96.0223042 145.744954,94.4948124 147.206815,91.9256976 C147.527117,91.3621785 148.148879,91.0682168 148.78505,91.1758178 C149.420112,91.2823097 149.907768,91.7615228 150.025249,92.3960364 L151.630083,101.001905 C152.149881,100.344096 153.00328,99.5165664 153.973052,99.5886703 C154.820909,99.6541184 155.524687,100.391796 156.063326,101.781736 C156.685088,103.382441 156.253955,104.901058 155.940303,106.009239 C155.892646,106.176741 155.847205,106.336479 155.807306,106.487342 C154.4596,111.687692 156.918941,117.041124 161.655861,119.216441 C164.801247,120.660736 167.656255,120.954697 167.683963,120.958025 L168.086279,120.99685 L168.007589,121.393976 C167.49555,123.997479 168.291317,128.408014 168.844364,129.944381 C169.098167,130.648779 169.056051,131.406424 168.727991,132.078654 C168.402148,132.743118 167.838018,133.234533 167.137565,133.463047 C165.51389,133.991069 163.712886,134.195178 161.903014,134.195178 L161.903014,134.195178 Z" id="Fill-59" fill="#000000"></path>
            <path d="M175.108536,88.5556758 C175.108536,88.5556758 183.619253,84.4901294 189.809168,90.2983698 C195.999083,96.1066102 201.996151,108.884517 192.710725,122.82385 C186.875469,131.583911 184.63114,138.509206 183.768875,142.446074 C183.480714,143.76502 181.755074,144.094479 181.006965,142.971878 C177.269741,137.357763 170.452523,124.974763 173.75418,113.337206 C178.202939,97.6551785 175.108536,88.5556758 175.108536,88.5556758" id="Fill-60" fill="#000000"></path>
            <path d="M143.712312,105.327025 C140.029396,103.115102 142.970852,96.898643 143.098308,96.6357413 L143.26123,96.297408 L151.761972,100.641386 L151.428371,101.294758 L143.607022,97.2979872 C143.068384,98.5814353 141.419217,103.094025 144.089138,104.698058 L143.712312,105.327025" id="Fill-61" fill="#000000"></path>
            <path d="M143.675738,108.622725 C143.581531,108.622725 143.488433,108.587228 143.417501,108.516233 L142.303649,107.410271 C141.736194,106.848971 141.663046,105.969304 142.127428,105.32037 L142.894379,104.249905 C143.01186,104.08573 143.24128,104.048015 143.40531,104.165599 C143.56934,104.284293 143.607022,104.512807 143.489542,104.678091 L142.723699,105.747446 C142.469896,106.102419 142.509795,106.582741 142.819014,106.888905 L143.932866,107.994867 C144.076946,108.137965 144.078054,108.369807 143.936191,108.514014 C143.864151,108.586118 143.769944,108.622725 143.675738,108.622725" id="Fill-62" fill="#000000"></path>
            <path d="M152.639754,109.592244 C151.794113,109.592244 151.193409,109.159621 151.163484,109.137435 C151.000563,109.016523 150.965097,108.7869 151.084794,108.623834 C151.204492,108.461878 151.433912,108.426381 151.595725,108.545075 C151.62565,108.566151 152.26182,109.010976 153.067562,108.804648 C153.832296,108.610523 154.512799,107.902796 155.091337,106.702545 C155.178894,106.520621 155.398339,106.44408 155.580102,106.531714 C155.762973,106.620457 155.839447,106.838987 155.750782,107.02202 C155.071388,108.433036 154.224638,109.273878 153.234917,109.52014 C153.026555,109.571167 152.827059,109.592244 152.639754,109.592244" id="Fill-63" fill="#000000"></path>
            <path d="M177.247575,87.7880474 C177.247575,87.7880474 169.33867,90.1719107 172.576046,97.7638889 C172.576046,97.7638889 168.923054,95.1248889 169.015044,91.0049872 C169.108142,86.8850856 172.160429,85.5428452 174.195288,85.5894354 C176.230146,85.6360255 177.247575,87.7880474 177.247575,87.7880474" id="Fill-64" fill="#FFFFFF"></path>
            <path d="M174.089998,85.9555009 C173.03267,85.9555009 171.925467,86.3492987 171.108642,87.0193097 C170.018065,87.9145064 169.420685,89.2966812 169.381894,91.0138616 C169.326479,93.489796 170.72295,95.4288342 171.744813,96.5103916 C171.249398,94.7266539 171.339171,93.0971075 172.014132,91.6528124 C173.1701,89.1779873 175.691507,87.9843916 176.708936,87.5894845 C176.340977,87.0259654 175.487578,85.9854518 174.186421,85.9566102 C174.15428,85.9555009 174.122139,85.9555009 174.089998,85.9555009 Z M173.430553,98.833244 L172.362142,98.0611785 C172.20587,97.9491402 168.552878,95.2602222 168.649301,90.9972222 C168.703608,88.54902 169.764262,87.1735009 170.64426,86.4513534 C171.630657,85.641572 172.930705,85.1923097 174.203046,85.2222605 C176.438508,85.2732878 177.533519,87.5351293 177.57896,87.6316375 L177.760723,88.0154517 L177.352865,88.1396922 C177.319615,88.1496758 173.969192,89.1935173 172.675794,91.9678506 C171.923251,93.5829763 172.003049,95.4842987 172.912972,97.6196812 L173.430553,98.833244 L173.430553,98.833244 Z" id="Fill-65" fill="#000000"></path>
            <path d="M192.327249,152.683708 C185.800408,156.63167 172.52728,162.261315 151.163484,160.955681 C149.593008,160.859173 148.140013,161.792085 147.585858,163.266331 L146.253668,168.604233 C143.9107,177.991041 139.504057,186.735571 133.355149,194.201091 L130.163215,198.075839 C129.672233,198.672637 130.134398,199.567834 130.904674,199.51126 L144.990194,198.475183 C169.166882,195.273774 187.950531,183.137036 193.975307,161.027785 L195.582358,155.130801 C196.103264,153.216167 194.024073,151.657615 192.327249,152.683708" id="Fill-66" fill="#FFFFFF"></path>
            <path d="M130.658629,199.893965 C130.220847,199.893965 129.83183,199.657686 129.6279,199.262779 C129.409563,198.841249 129.461654,198.350943 129.764223,197.984877 L133.07253,193.96814 C139.14718,186.591364 143.58264,177.79026 145.897901,168.51549 L147.23009,163.176479 C147.233415,163.163167 147.237848,163.149856 147.24339,163.136544 C147.856285,161.505889 149.437845,160.480905 151.185651,160.589615 C172.811008,161.910779 186.126251,156.00714 192.137728,152.369779 C193.056518,151.814025 194.158179,151.870599 195.012686,152.516206 C195.86276,153.158484 196.216311,154.196779 195.935909,155.227309 L194.328858,161.124293 C191.533699,171.384113 185.933405,179.838009 177.685358,186.249703 C169.937158,192.272036 160.083168,196.336473 148.398249,198.330976 C148.20097,198.365364 148.009232,198.23114 147.974875,198.030358 C147.941625,197.830686 148.075731,197.640998 148.275227,197.607719 C172.184812,193.527752 188.288566,180.502473 193.621756,160.931277 L195.228807,155.034293 C195.468202,154.155736 195.045935,153.460211 194.571578,153.100801 C194.092788,152.739173 193.301455,152.522861 192.516771,152.997637 C186.432145,156.67826 172.965063,162.656222 151.141318,161.321746 C149.730439,161.236331 148.441473,162.059424 147.936084,163.376151 L146.608328,168.692976 C144.267576,178.073129 139.782242,186.974069 133.637768,194.434041 L130.329461,198.451888 C130.160998,198.655998 130.248554,198.866763 130.279587,198.925555 C130.309512,198.985457 130.428101,199.178473 130.695204,199.158506 L134.022352,198.913353 C134.228498,198.901151 134.400286,199.050905 134.414694,199.252795 C134.429102,199.454686 134.278372,199.631063 134.075551,199.645484 L130.748403,199.890637 C130.718478,199.892856 130.688554,199.893965 130.658629,199.893965" id="Fill-67" fill="#000000"></path>
            <path d="M37.2335848,181.625074 C37.2307032,181.625074 37.2280432,181.625074 37.2251616,181.623965 C37.0228949,181.619528 36.8625224,181.452025 36.8668448,181.250134 L36.8989858,179.794746 C36.9035299,179.591746 37.0703306,179.430899 37.2735948,179.436446 C37.4760832,179.440883 37.6363449,179.608386 37.6321333,179.811386 L37.5998815,181.265664 C37.5953374,181.465337 37.4320832,181.625074 37.2335848,181.625074" id="Fill-68" fill="#000000"></path>
            <path d="M37.1210913,186.716714 C37.1183205,186.716714 37.1156605,186.716714 37.1127789,186.716714 C36.9105122,186.712276 36.7501397,186.544774 36.7543513,186.341774 L36.7866031,184.887495 C36.7911472,184.684495 36.9695852,184.52032 37.1612121,184.528085 C37.3635896,184.532522 37.5239622,184.701134 37.5197506,184.903025 L37.4874988,186.358413 C37.4829547,186.558085 37.3197005,186.716714 37.1210913,186.716714" id="Fill-69" fill="#000000"></path>
            <path d="M40.4164313,183.466495 C40.4155446,183.466495 40.4147688,183.466495 40.4138821,183.466495 L38.9813907,183.456511 C38.7789023,183.455402 38.6159806,183.289009 38.617412,183.087118 C38.6188623,182.885227 38.7827814,182.723271 38.9839398,182.723271 C38.9849373,182.723271 38.9856022,182.723271 38.9865997,182.723271 L40.4190912,182.733255 C40.6214687,182.734364 40.7845012,182.899648 40.7830699,183.102648 C40.7816196,183.304539 40.6177005,183.466495 40.4164313,183.466495" id="Fill-70" fill="#000000"></path>
            <path d="M35.4025448,183.429888 C35.4015473,183.429888 35.4008823,183.429888 35.3998849,183.429888 L33.9673934,183.419905 C33.7650158,183.418796 33.6020942,183.252402 33.6034161,183.050511 C33.604865,182.847511 33.7604718,182.683337 33.9726024,182.685555 L35.4052047,182.696648 C35.6074714,182.697757 35.7705039,182.863041 35.7690726,183.066041 C35.7676223,183.267932 35.6037032,183.429888 35.4025448,183.429888" id="Fill-71" fill="#000000"></path>
            <path d="M190.28685,192.008025 C190.190427,192.008025 190.094004,191.970309 190.021963,191.894877 C189.882316,191.748451 189.887858,191.51661 190.034155,191.37573 L191.083725,190.369604 C191.23113,190.229834 191.462767,190.23538 191.602414,190.381806 C191.742061,190.528233 191.737628,190.760074 191.591331,190.899845 L190.540653,191.90597 C190.469721,191.974746 190.378839,192.008025 190.28685,192.008025" id="Fill-72" fill="#000000"></path>
            <path d="M186.610583,195.52891 C186.51416,195.52891 186.417737,195.491194 186.345697,195.415763 C186.204942,195.269336 186.210483,195.037495 186.35678,194.897724 L187.407459,193.891599 C187.553756,193.751828 187.785393,193.756265 187.92504,193.902692 C188.065795,194.049118 188.060254,194.280959 187.913957,194.421839 L186.863278,195.427965 C186.792346,195.495632 186.701465,195.52891 186.610583,195.52891" id="Fill-73" fill="#000000"></path>
            <path d="M191.236672,195.563298 C191.141357,195.563298 191.047151,195.526692 190.97511,195.454588 L189.969873,194.432932 C189.828009,194.288724 189.829117,194.056883 189.973198,193.913785 C190.118386,193.771795 190.350023,193.774014 190.491887,193.918222 L191.497125,194.938768 C191.640097,195.082976 191.63788,195.315927 191.4938,195.457916 C191.422868,195.52891 191.32977,195.563298 191.236672,195.563298" id="Fill-74" fill="#000000"></path>
            <path d="M187.716677,191.989167 C187.622471,191.989167 187.528264,191.952561 187.456224,191.879347 L186.449878,190.858801 C186.308014,190.714593 186.310231,190.481642 186.454311,190.339653 C186.598392,190.197664 186.830029,190.198774 186.971893,190.342981 L187.978239,191.364637 C188.120102,191.508845 188.117886,191.741795 187.973805,191.883785 C187.902873,191.95367 187.809775,191.989167 187.716677,191.989167" id="Fill-75" fill="#000000"></path>
            <path d="M33.6487541,172.292621 C33.6487541,171.489495 32.9981757,170.838342 32.1957588,170.838342 C31.3933419,170.838342 30.7427636,171.489495 30.7427636,172.292621 C30.7427636,173.095746 31.3933419,173.746899 32.1957588,173.746899 C32.9981757,173.746899 33.6487541,173.095746 33.6487541,172.292621" id="Fill-76" fill="#D0E0EA"></path>
        </g>
    </g>
</svg>