<?xml version="1.0" encoding="UTF-8"?>
<svg width="160px" height="160px" viewBox="0 0 160 160" version="1.1" xmlns="http://www.w3.org/2000/svg" xmlns:xlink="http://www.w3.org/1999/xlink">
    <title>Group Copy 4</title>
    <g id="Page-1" stroke="none" stroke-width="1" fill="none" fill-rule="evenodd">
        <g id="Group-Copy-4">
            <path d="M7.27745445,49.6995193 C3.82152949,57.3741056 -1.29500974,72.0665085 0.761996817,90.3409762 C3.40012216,113.787481 16.4599009,132.272262 29.1636964,142.659517 C71.3236718,177.128264 148.497016,154.860166 158.716625,122.391993 C160.571587,116.501692 160.050119,110.820548 159.409349,103.829912 C157.369661,81.5963199 146.622812,74.9875627 139.395387,51.3800941 C132.818354,29.8958019 139.303024,27.4782648 133.153171,17.9270559 C119.81053,-2.79193677 81.2989028,-3.83617554 54.8002711,6.09710482 C44.6229954,9.91261488 19.9235228,21.6161084 7.27745445,49.6995193" id="Fill-133" fill="#E5F0F7"></path>
            <path d="M53.370565,108.350191 L19.3577979,107.961951 C13.2079448,107.961951 7.94708802,103.355696 6.86951676,96.344048 L1.04678351,58.44726 C0.354059127,53.9323779 3.3520163,49.7883866 7.31209067,49.7883866 L29.5042859,49.7883866 L53.370565,108.350191" id="Fill-134" fill="#026BB0"></path>
            <path d="M10.2465481,79.3380114 C10.1080032,79.3380114 9.98485223,79.2356501 9.96176142,79.0926143 L7.14083381,60.6961228 C7.11581876,60.5382436 7.22357589,60.390774 7.38136311,60.3664849 C7.53915033,60.3421958 7.68731638,60.4503401 7.71040719,60.6084121 L10.533259,79.0049036 C10.5563498,79.16259 10.4485927,79.3102524 10.2908055,79.3345415 C10.2773359,79.3368547 10.261942,79.3380114 10.2465481,79.3380114" id="Fill-135" fill="#CADDFF"></path>
            <polygon id="Fill-136" fill="#026BB0" points="28.3497452 147.585001 32.0596691 147.585001 32.0596691 107.293808 28.3497452 107.293808"></polygon>
            <polyline id="Fill-137" fill="#026BB0" points="47.5940133 146.987797 31.1745213 145.538162 29.6678458 145.538162 12.90584 146.987797 12.90584 148.13806 47.5940133 148.13806 47.5940133 146.987797"></polyline>
            <path d="M54.9138009,138.543092 L54.0286531,148.112228 L63.5055075,149.063552 L60.5633531,145.231078 C59.7782655,144.207851 59.5088726,142.903565 59.8302198,141.67176 L60.6345498,138.58261 L54.9138009,138.543092" id="Fill-138" fill="#FFFFFF"></path>
            <path d="M54.3423033,147.853145 L62.8685859,148.709046 L60.3343692,145.40727 C59.4915545,144.309634 59.2048436,142.921492 59.5492816,141.5987 L60.2612483,138.869067 L55.1754968,138.833983 L54.3423033,147.853145 Z M64.142429,149.418057 L53.7150029,148.371312 L54.6501808,138.252008 L61.005927,138.29596 L60.1092338,141.74482 C59.8090532,142.893348 60.0592037,144.099707 60.792337,145.054885 L64.142429,149.418057 L64.142429,149.418057 Z" id="Fill-139" fill="#000000"></path>
            <path d="M53.3744134,146.476376 L52.5835531,150.412368 C52.5835531,150.412368 52.4719475,151.851401 54.0094108,152.102389 C56.0086903,152.429328 63.7845215,153.445037 69.2955287,152.491978 C70.5597507,152.273376 71.1273999,151.517908 71.2332328,151.122535 C71.5237922,150.03261 70.7906589,148.470011 68.4854261,147.657482 C64.3714129,146.207847 62.8031619,145.734017 60.8019582,144.440911 C60.3555358,144.15349 59.6859022,144.459031 59.3818732,144.841488 C59.3818732,144.841488 58.6564368,145.852763 58.6679822,146.91493 C58.6718307,147.296616 58.2561961,147.552037 57.8886673,147.401869 L54.380788,145.964956 C53.9516837,145.789149 53.461004,146.037823 53.3744134,146.476376" id="Fill-140" fill="#026BB0"></path>
            <path d="M52.870264,150.449573 C52.8625671,150.623645 52.8683398,151.623161 54.0555924,151.817281 C57.1593825,152.324268 64.3271556,153.058146 69.2474229,152.20687 C70.4442967,152.000028 70.8926433,151.282921 70.9542188,151.048126 C71.2139904,150.073285 70.5231903,148.681866 68.3892143,147.930253 C67.9254739,147.766783 67.4944454,147.615651 67.0903561,147.474543 C63.903824,146.359172 62.4491028,145.849872 60.6441709,144.683995 C60.3632327,144.502212 59.8475379,144.720236 59.6089328,145.021536 C59.6089328,145.021536 58.9469962,145.961486 58.9566174,146.912231 C58.9585416,147.179026 58.8257694,147.430399 58.5987098,147.584422 C58.3581805,147.748663 58.0522272,147.78047 57.7809102,147.669434 L54.2711066,146.232714 C54.1402587,146.178931 53.9940169,146.186449 53.8708659,146.253148 C53.7573361,146.314064 53.6803667,146.413726 53.6572759,146.533437 L52.870264,150.449573 Z M63.8384,153.183254 C58.9065873,153.183254 54.2306977,152.431834 53.9632291,152.388075 C52.5412199,152.155401 52.2506605,150.979307 52.2949179,150.3902 L52.3006906,150.355308 L53.0896267,146.419316 C53.149278,146.131703 53.3340045,145.885342 53.5976246,145.74327 C53.8727901,145.595029 54.1979857,145.578258 54.4904694,145.69739 L57.9983487,147.13411 C58.0907119,147.1717 58.1926963,147.161291 58.2754384,147.105966 C58.3139231,147.07917 58.3793471,147.019219 58.3793471,146.918014 C58.3678017,145.77392 59.1163288,144.717344 59.1471166,144.672814 C59.5146453,144.210743 60.3401419,143.798985 60.9578211,144.19802 C62.705026,145.326499 64.1385806,145.828667 67.2808553,146.928616 C67.6849446,147.069917 68.1178973,147.22105 68.5816378,147.384712 C71.0600517,148.258349 71.8393666,149.973622 71.5122468,151.197138 C71.3967927,151.634149 70.7925831,152.526484 69.3455588,152.776893 C67.6252933,153.074339 65.7126043,153.183254 63.8384,153.183254 L63.8384,153.183254 Z" id="Fill-141" fill="#000000"></path>
            <path d="M63.6748401,151.766582 C58.69877,151.766582 54.6559535,151.00456 54.602075,150.994343 C54.446212,150.964271 54.3442276,150.812753 54.3730911,150.65603 C54.4038788,150.498922 54.5539691,150.397139 54.7117563,150.426248 C54.7810288,150.439934 61.8525901,151.771594 68.7625158,150.884271 C68.920303,150.865379 69.0665448,150.976222 69.0857872,151.134487 C69.1069538,151.292752 68.9953482,151.437715 68.8356367,151.458149 C67.0884319,151.682341 65.3296817,151.766582 63.6748401,151.766582" id="Fill-142" fill="#000000"></path>
            <path d="M36.8029069,141.552242 C36.5816199,144.241586 35.2173377,147.355025 34.0955091,148.945576 L39.069655,152.540364 L42.8353817,148.989142 C41.9560066,147.844277 41.1709189,145.16168 42.3543231,141.622989 L36.8029069,141.552242" id="Fill-143" fill="#FFFFFF"></path>
            <path d="M34.4938256,148.875986 L39.0465642,152.166196 L42.452459,148.951745 C41.5788566,147.636278 40.9919651,145.114837 41.959855,141.907133 L37.066527,141.844868 C36.7932857,144.354935 35.6118058,147.188471 34.4938256,148.875986 Z M39.09467,152.914532 L33.6952683,149.012468 L33.8607525,148.778637 C34.9902781,147.177098 36.3045302,144.091803 36.516196,141.528339 L36.5392868,141.259616 L42.7545638,141.339038 L42.6275644,141.714941 C41.4268421,145.305487 42.337005,147.865868 43.0624413,148.81295 L43.2221528,149.020178 L39.09467,152.914532 L39.09467,152.914532 Z" id="Fill-144" fill="#000000"></path>
            <path d="M33.9281007,147.929482 L31.8672457,151.401089 C31.8672457,151.401089 31.1302639,152.895447 32.665803,153.768506 C34.1128272,154.592022 38.8137318,157.188065 43.5281061,158.853604 C45.3157198,159.485891 50.5092284,159.817457 51.7311173,158.296496 C52.5527653,157.274812 52.2371909,155.944308 50.0897453,154.848985 C45.292629,152.400991 44.1765731,148.607264 43.4857729,147.718976 C42.4332167,146.364569 40.6340575,148.733143 40.145302,150.539019 C40.0298479,150.971403 39.4872139,151.144126 39.1235336,150.862488 L35.0787929,147.721868 C34.7112641,147.435603 34.1609331,147.534688 33.9281007,147.929482" id="Fill-145" fill="#026BB0"></path>
            <path d="M32.1231689,151.537763 C32.0461995,151.700655 31.5805348,152.818917 32.8081963,153.51694 C34.5400072,154.502769 39.0619581,156.968306 43.6243178,158.581797 C45.5004463,159.244928 50.4341833,159.449265 51.5079061,158.115292 C51.8080866,157.741317 51.917768,157.348065 51.8331017,156.950957 C51.6926326,156.298043 51.0460898,155.660357 49.9588974,155.106334 C46.0450046,153.109616 44.5364049,150.246778 43.7263022,148.708661 C43.5338788,148.343553 43.3818643,148.055168 43.2587132,147.896711 C43.0162597,147.584615 42.7834274,147.590013 42.6294886,147.620856 C41.7982194,147.788759 40.761057,149.367937 40.424316,150.614585 C40.3454224,150.907018 40.1241354,151.140463 39.8297276,151.239162 C39.5276228,151.340945 39.1966545,151.285427 38.946504,151.090921 L34.9017633,147.950301 C34.7901577,147.862976 34.6419917,147.827892 34.4995983,147.855843 C34.3610534,147.88206 34.2436751,147.962831 34.1763269,148.077337 L32.1231689,151.537763 Z M47.5382105,159.670951 C45.9180052,159.670951 44.2977998,159.431916 43.4318943,159.127338 C38.8252772,157.498426 34.2686902,155.013226 32.5234096,154.020071 C31.122567,153.222772 31.3130662,151.874534 31.6093983,151.272897 L31.6209437,151.253234 L33.6798745,147.781627 C33.831889,147.524856 34.0916606,147.344808 34.3918412,147.287748 C34.6977945,147.228953 35.0114447,147.304519 35.2558224,147.493242 L39.3005631,150.633862 C39.3986991,150.709621 39.5276228,150.731404 39.6469253,150.690729 C39.7585309,150.653332 39.8393487,150.57044 39.8682123,150.463645 C40.2646045,148.994925 41.4229936,147.27464 42.5140345,147.05411 C42.8392302,146.988954 43.3087433,147.020183 43.7147568,147.541242 C43.8686956,147.740374 44.0322555,148.048421 44.2362243,148.438782 C45.0174635,149.920032 46.4702604,152.677616 50.2205933,154.591058 C51.4674971,155.226623 52.2198728,156.00079 52.3969024,156.829511 C52.5181291,157.398185 52.3661146,157.968786 51.9562527,158.477701 C51.2481344,159.356735 49.3950967,159.670951 47.5382105,159.670951 L47.5382105,159.670951 Z" id="Fill-146" fill="#000000"></path>
            <path d="M47.8826485,157.737461 C46.7242594,157.737461 45.4677343,157.571678 44.5498745,157.357703 C38.3769306,155.913851 33.7568438,152.240027 33.7106622,152.203208 C33.585587,152.10316 33.5663446,151.921184 33.6664048,151.796847 C33.766465,151.672317 33.9473431,151.652462 34.0724183,151.752124 C34.1166757,151.788365 38.6386265,155.381611 44.6826467,156.792885 C46.0373077,157.110957 48.0846931,157.294089 49.3720059,157.033848 C49.5278689,157.001077 49.6798834,157.103246 49.7125954,157.25939 C49.7433831,157.415534 49.6413987,157.567823 49.4855357,157.600594 C49.0121741,157.696979 48.4579946,157.737461 47.8826485,157.737461" id="Fill-147" fill="#000000"></path>
            <path d="M38.4154153,86.7641163 C38.4154153,86.7641163 61.7005756,86.9485978 69.0415298,94.6906538 C75.6397295,101.649097 65.8569219,133.207971 63.8095365,139.339428 C63.5978707,139.9748 62.9340099,140.409883 62.17971,140.409883 L53.4321405,140.409883 C53.2493382,140.409883 53.0992479,140.278799 53.0992479,140.116872 L54.4904694,128.118246 C55.981751,112.193268 54.1652738,108.826335 54.1652738,108.826335 C52.6913102,104.322055 40.087575,104.514248 33.2353763,104.559356 C11.4742096,104.702199 17.8684405,86.4984783 17.8684405,86.4984783 L38.4154153,86.7641163" id="Fill-148" fill="#FFFFFF"></path>
            <path d="M53.3898073,140.113402 C53.39558,140.113402 53.4109739,140.120727 53.4321405,140.120727 L62.17971,140.120727 C62.8070104,140.120727 63.3631141,139.761788 63.5362952,139.247862 C63.9153694,138.113406 67.2981734,127.85897 69.3840435,117.269112 C71.7104429,105.462679 71.5199437,97.7240933 68.8317883,94.8897859 C61.6582425,87.3243078 38.6443992,87.0552 38.4134911,87.0532723 L38.4115668,87.0532723 L18.0762578,86.7905258 C17.7087291,87.9897522 15.9615242,94.4273291 19.2866013,99.0966205 C21.7650151,102.574011 26.4582228,104.31126 33.2334521,104.2702 L33.708738,104.266923 C40.8880565,104.216417 52.8952791,104.134297 54.4308181,108.714914 C54.6097719,109.078865 56.2107349,112.849266 54.7791045,128.145234 L53.3898073,140.113402 Z M62.17971,140.699039 L53.4321405,140.699039 C53.0896267,140.699039 52.8106127,140.437835 52.8106127,140.116872 L52.812537,140.083522 L54.2037584,128.08509 C55.6584796,112.545267 53.9266687,108.99578 53.9093506,108.96166 L53.8901082,108.916359 C52.5162049,104.714922 40.2838469,104.798777 33.7125865,104.845235 L33.2373006,104.848512 C26.2561782,104.89844 21.4071076,103.071166 18.8151638,99.4295355 C14.9782405,94.03986 17.4874421,86.7118754 17.5951992,86.4024785 L17.6644717,86.2066234 L38.4173395,86.4749602 C38.4904604,86.4755385 44.3459057,86.5343336 51.0172263,87.5382833 C60.0264917,88.8934612 66.1609509,91.2329261 69.2512713,94.4915217 C72.1126079,97.5101178 72.3492887,105.211306 69.9516927,117.381112 C67.8581257,128.006247 64.4637762,138.293261 64.0827778,139.431379 C63.8287788,140.189739 63.0648578,140.699039 62.17971,140.699039 L62.17971,140.699039 Z" id="Fill-149" fill="#000000"></path>
            <path d="M54.0055623,107.52494 C54.2153038,115.939766 47.4785593,135.350809 44.7711615,141.602748 C44.4671324,142.303662 43.7955746,142.835709 42.9373661,142.835709 L36.6951498,142.835709 C35.6387451,142.835709 34.784385,142.080627 34.7940062,141.152436 C34.8652029,134.561028 38.0036291,115.961549 33.3604516,109.042431 C30.6722961,105.036849 22.6867234,106.727641 19.3943584,104.821524 C11.4915278,100.246498 14.4663941,85.347059 14.4663941,85.347059 C14.4663941,85.347059 53.5052614,87.4854641 54.0055623,107.52494" id="Fill-150" fill="#FFFFFF"></path>
            <path d="M14.7049992,85.652215 C14.3682582,87.6045964 12.4574934,100.471654 19.538676,104.571115 C20.7836556,105.291885 22.7829351,105.480993 24.899593,105.681089 C28.1784884,105.991257 31.8980334,106.34287 33.6009809,108.881275 C37.2185415,114.273456 36.1813792,126.697526 35.4925033,134.91881 C35.2827617,137.447576 35.0999594,139.631475 35.0826413,141.155327 C35.0807171,141.484965 35.2154135,141.804965 35.4636397,142.056723 C35.7715173,142.368048 36.2198639,142.546553 36.6951498,142.546553 L42.9373661,142.546553 C43.6223935,142.546553 44.2227547,142.140771 44.5056171,141.487664 C47.2130149,135.238617 53.9266687,115.962513 53.7169271,107.53188 C53.4629282,97.3547446 42.8392302,91.9455994 33.9723581,89.2003521 C25.1670615,86.4739964 16.3021137,85.762287 14.7049992,85.652215 Z M42.9373661,143.124865 L36.6951498,143.124865 C36.0659251,143.124865 35.4674882,142.883709 35.0537778,142.463662 C34.6958702,142.101253 34.5015226,141.634555 34.505371,141.149352 C34.5226891,139.604102 34.7054914,137.410564 34.9190814,134.870618 C35.5983362,126.729912 36.6278016,114.427673 33.1218465,109.20378 C31.5709136,106.892845 28.1515491,106.569376 24.8437902,106.256702 C22.6636326,106.05063 20.6027776,105.855739 19.2500408,105.071933 C15.9307365,103.150202 14.0045779,99.108765 13.6793823,93.385018 C13.4350045,89.1008824 14.1758347,85.3279747 14.1835317,85.2903844 L14.2335618,85.0446018 L14.481788,85.0580957 C14.5799239,85.0636861 24.3896709,85.6296608 34.1339938,88.6449798 C39.8720607,90.4205905 44.4690567,92.6868026 47.7979822,95.3803873 C51.9928131,98.7745007 54.1768192,102.857962 54.2941975,107.517615 C54.5058632,116.037693 47.755649,135.435436 45.0347816,141.717639 C44.6595559,142.585686 43.8552259,143.124865 42.9373661,143.124865 L42.9373661,143.124865 Z" id="Fill-151" fill="#000000"></path>
            <path d="M70.6559624,48.5284375 C71.9047906,48.1955225 78.910928,84.9433972 96.7966866,85.1756858 L80.5426787,85.1756858 C80.5426787,85.1756858 63.6305827,67.2998679 63.2611297,56.7790226 C63.0071308,49.5109896 70.6559624,48.5284375 70.6559624,48.5284375" id="Fill-152" fill="#FFFFFF"></path>
            <path d="M80.667754,84.8865298 L93.0944596,84.8865298 C81.2681151,81.2715013 74.9142931,61.683687 72.0529566,52.861344 C71.4410501,50.9789383 70.8637798,49.1952312 70.6020839,48.8285814 C69.7150118,48.9666052 63.3188567,50.1930123 63.5497649,56.7688057 C63.8980513,66.6812668 79.3746685,83.4991592 80.667754,84.8865298 Z M96.7966866,85.4648419 L80.5426787,85.4648419 C80.4637851,85.4648419 80.38874,85.4322636 80.3348614,85.3746252 C79.6402128,84.6413255 63.3419475,67.2987113 62.9724945,56.7890466 C62.7184956,49.5206281 70.1729796,48.3073295 70.6020839,48.2442935 C71.0889152,48.1340286 71.3198233,48.7320033 72.6013634,52.6826456 C75.7109262,62.2654689 82.9903049,84.7070603 96.8005351,84.8865298 C96.9583223,84.8886503 97.087246,85.0185777 97.085343,85.1776136 C97.085343,85.3364566 96.956398,85.4648419 96.7966866,85.4648419 L96.7966866,85.4648419 Z" id="Fill-153" fill="#000000"></path>
            <path d="M59.2029194,72.7849649 C59.2029194,72.7849649 60.0803703,89.4586648 46.8570316,90.9574568 C33.6336928,92.4560561 11.5319367,89.3443518 11.5319367,89.3443518 C11.5319367,89.3443518 17.7472137,40.1936116 45.8410358,38.4137599 C55.7123582,37.7884118 69.3417104,39.4556854 67.8234894,44.3682534 C63.9750207,56.8171911 59.2029194,72.7849649 59.2029194,72.7849649" id="Fill-154" fill="#000000"></path>
            <polyline id="Fill-155" fill="#000000" points="76.3921052 54.6903522 66.7747817 41.544934 60.0572794 61.5117355 69.0723175 68.6419374 76.3921052 54.6903522"></polyline>
            <polyline id="Fill-156" fill="#FFFFFF" points="64.0038842 49.7883866 62.1277556 62.9858529 64.0038842 49.7883866"></polyline>
            <path d="M62.1277556,63.2750089 C62.114286,63.2750089 62.1008164,63.2742378 62.0854225,63.2723101 C61.9276353,63.249756 61.8179539,63.1032502 61.8410447,62.9451783 L63.7171733,49.747712 C63.7402641,49.58964 63.8865059,49.479568 64.0442931,49.5021222 C64.2020803,49.5246763 64.3117617,49.671182 64.2886709,49.8294468 L62.4125423,63.0267203 C62.3913758,63.1709128 62.2682248,63.2750089 62.1277556,63.2750089" id="Fill-157" fill="#000000"></path>
            <path d="M23.0734945,50.9139746 C23.0734945,50.9139746 18.5592407,68.8368286 20.6239442,76.9129562 C23.0888884,86.5574661 50.71897,82.5248962 50.71897,82.5248962 L54.0267289,81.7312593 C56.2626892,81.194393 58.6218006,81.6227295 60.5267926,82.9123653 L62.7896923,84.4441211 C63.3188567,84.8024818 63.9769449,84.21723 63.6844613,83.6473999 C62.7146471,81.7561268 61.1502446,79.0187831 59.4934788,77.3879432 C58.2215598,76.1358976 56.047175,76.3379213 54.0940771,76.9083297 C50.7055003,77.896665 47.0937124,77.7740628 43.7359234,76.6931976 L34.1397665,73.6026981 C32.5214854,73.0818317 31.549747,71.4267027 31.8787911,69.7521038 L36.327621,48.8224127 L23.0734945,50.9139746" id="Fill-158" fill="#FFFFFF"></path>
            <path d="M55.9297967,81.2171399 C57.6115775,81.2171399 59.2741161,81.7166088 60.6884283,82.6727513 L62.951328,84.2046999 C63.1071909,84.3103383 63.2611297,84.2602179 63.353493,84.177712 C63.4458562,84.095399 63.5151286,83.9477366 63.4285381,83.7796406 C62.4298604,81.832464 60.9000941,79.17859 59.2914342,77.594015 C58.0599242,76.3820657 55.8278123,76.7028362 54.1748949,77.1861123 C50.7920909,78.1723271 47.1533636,78.0973393 43.6474086,76.9684742 L34.0512517,73.8777818 C32.2944257,73.3121927 31.2399453,71.5144133 31.5959286,69.6960075 L35.958168,49.1734482 L23.3063269,51.1697813 C22.8406622,53.0897773 18.9921934,69.3644419 20.9029581,76.8412455 C23.2562968,86.0466238 49.9492762,82.3429207 50.6650914,82.2405595 L53.9593807,81.4500069 C54.6097719,81.2938627 55.2717085,81.2171399 55.9297967,81.2171399 Z M63.1360545,84.8423853 C62.9609491,84.8423853 62.7858438,84.7901445 62.6280566,84.6839278 L60.3651569,83.152172 C58.5313616,81.9111144 56.2453711,81.4955008 54.0940771,82.0125118 L50.7863182,82.8061487 C50.7786212,82.8082691 50.7690001,82.8096185 50.7613031,82.8109679 C50.6920307,82.8211848 43.7474688,83.8220501 36.5873926,83.624653 C26.8680847,83.3586294 21.4013348,81.12461 20.3430059,76.9846669 C18.2840751,68.9299368 22.6078298,51.5778768 22.7925563,50.843035 C22.8214198,50.7308425 22.9137831,50.6462161 23.0273129,50.6282885 L36.2833636,48.5367266 C36.3776511,48.5216905 36.4719386,48.5544615 36.5373625,48.6234734 C36.6027865,48.6924853 36.6297258,48.789449 36.6104834,48.8825572 L32.1616535,69.8122482 C31.861473,71.3384137 32.7504693,72.851278 34.2282813,73.3274216 L43.8244382,76.4179211 C47.2207119,77.5111236 50.7420608,77.5845693 54.0132592,76.6307399 C56.6340665,75.8656331 58.5467555,76.0508857 59.6955234,77.1816785 C61.3599861,78.8202293 62.9224644,81.5303923 63.9423087,83.515352 C64.1347321,83.890291 64.05199,84.3303864 63.7364156,84.6102894 C63.5632345,84.7641204 63.3515687,84.8423853 63.1360545,84.8423853 L63.1360545,84.8423853 Z" id="Fill-159" fill="#000000"></path>
            <path d="M41.6692956,38.4764104 C29.6563004,38.8534698 19.8965836,46.0177921 17.4566544,63.5516348 L37.1646629,61.4776151 L41.6692956,38.4764104" id="Fill-160" fill="#000000"></path>
            <path d="M37.1646629,61.7667711 C37.0068757,61.7667711 36.877952,61.639928 36.8760278,61.4816633 L36.6874528,47.5300781 C36.6855286,47.3702712 36.8125281,47.2391871 36.9722395,47.2368739 C37.1357994,47.2424643 37.2627989,47.3627532 37.2647231,47.5221745 L37.4532981,61.4737597 C37.4552223,61.6335666 37.3282229,61.7646506 37.1685114,61.7667711 C37.1665872,61.7667711 37.1665872,61.7667711 37.1646629,61.7667711" id="Fill-161" fill="#FFFFFF"></path>
            <path d="M50.2379114,36.0598371 L41.163222,39.160939 C54.7752561,43.2368823 60.9097153,39.9331784 60.9097153,39.9331784 L57.3614271,38.2499048 L58.2408022,36.2152103 C59.1355712,36.6418118 59.9803101,37.1079313 60.6153074,36.8478837 C62.0854225,36.2456681 62.885904,33.7945889 62.885904,33.7945889 L63.5516891,33.8778658 C63.6517493,33.8902031 63.7498852,33.8603237 63.8249304,33.7955527 C63.8999755,33.7307818 63.9442329,33.6370952 63.9480814,33.5378183 C63.9865661,32.2051946 63.936536,31.2130039 64.3156101,30.0820183 C64.6889116,28.9672255 64.9736983,28.9791773 65.3181363,26.2676649 L59.2664191,22.1826614 L56.1895683,26.720676 C56.1895683,26.720676 55.6623281,25.4915701 54.5289541,25.9110391 C53.7053817,26.2160024 53.3340045,28.8344065 54.101774,29.3523813 L50.2379114,36.0598371" id="Fill-162" fill="#FFFFFF"></path>
            <path d="M42.123415,39.1389632 C52.6297347,42.1109088 58.4543922,40.5670084 60.2035213,39.9185278 L57.2382761,38.5113019 C57.097807,38.4446032 57.0343072,38.2782421 57.0958827,38.1350135 L57.9752578,36.100319 C58.0060456,36.0284155 58.0656969,35.9721265 58.1388178,35.9443675 C58.2119387,35.9171868 58.2927565,35.9202711 58.3639532,35.954006 L58.6121794,36.0735238 C59.3510854,36.4307279 60.0495825,36.7680766 60.5056261,36.580318 C61.8371963,36.0349697 62.6049658,33.728083 62.6126627,33.7047577 C62.6549959,33.5734809 62.7858438,33.4911678 62.9224644,33.5079389 L63.5882495,33.591023 C63.6055677,33.5917941 63.6228858,33.5879387 63.6363554,33.5763724 C63.649825,33.5648062 63.657522,33.5476496 63.6594462,33.5293364 C63.6652189,33.3124694 63.6690674,33.1046626 63.6729159,32.9037955 C63.6940824,31.8705447 63.7114005,30.978402 64.0404446,29.9900667 C64.142429,29.685489 64.2367165,29.4653449 64.3290798,29.2521406 C64.5657606,28.699467 64.7716537,28.2196608 65.0102588,26.408002 L59.3433885,22.5834317 L56.4281734,26.8829889 C56.3704464,26.970314 56.2684619,27.0198561 56.162629,27.0084826 C56.0587204,26.9984585 55.9663571,26.9317599 55.9259482,26.8347962 C55.8816908,26.7360976 55.4737531,25.8697862 54.6290142,26.1824603 C54.3942576,26.2693998 54.0940771,26.8388444 53.9978654,27.6409632 C53.9055021,28.4268893 54.0613651,28.9760929 54.2634097,29.1123818 C54.3884849,29.1972009 54.4269696,29.3651042 54.3519245,29.4969593 L50.4880618,36.2044151 C50.4534256,36.2649451 50.3976228,36.3110173 50.3321989,36.3335715 L42.123415,39.1389632 Z M53.584155,41.4984763 C50.4688195,41.4984763 46.3317156,41.0101882 41.0824042,39.4379505 C40.9611774,39.4019024 40.8784353,39.2920231 40.8763763,39.1663366 C40.8726626,39.0406501 40.9515562,38.9278793 41.0708588,38.8872047 L50.0435637,35.8213798 L53.7380937,29.4048149 C53.3128379,28.8756594 53.3878831,27.8921434 53.4244435,27.5725296 C53.518731,26.7831337 53.8323812,25.8611115 54.4288939,25.6398108 C55.2563147,25.3342693 55.8605242,25.7452564 56.203038,26.1857374 L59.0258898,22.0201557 C59.1163288,21.8884934 59.2952826,21.8537946 59.4261306,21.9426619 L65.4797719,26.0280509 C65.570211,26.0889665 65.6183168,26.1959542 65.6048472,26.3042913 C65.3469998,28.3428413 65.1103189,28.895322 64.8601685,29.4801883 C64.7735779,29.6825975 64.6831389,29.8919464 64.5888514,30.1737772 C64.2867466,31.0780644 64.2694285,31.8886651 64.2501862,32.9149762 C64.2463377,33.117771 64.2424892,33.3275055 64.2347923,33.546493 C64.2309438,33.7265408 64.150126,33.8973356 64.0135053,34.014733 C63.8768847,34.1325159 63.6960067,34.1882266 63.5170529,34.1649013 L63.0802517,34.1103472 C62.8339497,34.7553579 62.0411651,36.5762698 60.7249888,37.1156421 C60.0361129,37.3970873 59.2356314,37.0161725 58.3851198,36.6059565 L57.7366528,38.1082184 L61.0328663,39.6717813 C61.1310022,39.7184318 61.194502,39.8167449 61.1964262,39.9258531 C61.2002747,40.0347685 61.1406234,40.1359731 61.0463359,40.1878285 C60.8885487,40.2718765 58.5198162,41.4984763 53.584155,41.4984763 L53.584155,41.4984763 Z" id="Fill-163" fill="#000000"></path>
            <path d="M54.1460314,25.9993281 C54.1460314,25.9993281 56.0683416,25.8337381 55.9336452,26.706411 C55.743146,27.9233723 55.5026167,28.1662633 55.7258278,28.6489611 C55.8451304,28.9068883 56.1664775,29.0867433 56.4377946,29.0906456 C57.0015952,29.0983096 57.188246,28.1525766 58.1907721,27.1013981 C58.6141037,26.6574472 59.0586018,26.32646 59.3106765,26.1759061 C61.2541532,25.0204386 63.4574016,27.6336379 65.8184372,26.8826034 C67.3886125,26.3825562 68.6316679,24.518271 68.3237904,23.2614061 C68.1948667,22.7359133 67.7522928,22.148541 63.8826574,20.8768328 C59.9668404,19.5895102 58.0079698,18.9460417 56.8341868,19.5372694 C54.0844559,20.9238689 54.1383345,25.6502204 54.1460314,25.9993281" id="Fill-164" fill="#000000"></path>
            <path d="M58.238878,36.5043663 C58.1830752,36.5043663 58.1253481,36.4874025 58.0733938,36.4517399 L56.5224609,35.3600795 C55.7797064,34.8365144 55.3967838,33.9505403 55.5257075,33.047988 L55.5853587,32.6206154 C55.6084495,32.4625435 55.7546914,32.3538208 55.9124786,32.3752183 C56.0702658,32.3977725 56.1799472,32.5442782 56.1568563,32.7023502 L56.0972051,33.1297228 C55.9990691,33.8157936 56.2896285,34.4891416 56.8553534,34.8868275 L58.4062863,35.9784879 C58.5371343,36.0704395 58.567922,36.2506801 58.4755588,36.3813786 C58.419756,36.4615712 58.3312412,36.5043663 58.238878,36.5043663" id="Fill-165" fill="#000000"></path>
            <path d="M114.082084,77.6171475 L57.3537301,77.7384003 C56.8592019,77.7384003 56.5147639,77.3767625 56.5494002,76.8940647 L59.0990107,42.301559 C59.1605862,41.4601149 59.9495223,40.6651287 60.8135036,40.6651287 L116.772164,40.7148635 L114.082084,77.6171475" id="Fill-166" fill="#FFFFFF"></path>
            <path d="M60.8135036,40.9542847 C60.1207792,40.9542847 59.4396002,41.6066207 59.3876459,42.3227637 L56.8380353,76.9152695 C56.8264899,77.0660161 56.8688231,77.1965219 56.9573378,77.2931 C57.0516253,77.393919 57.1920944,77.4492442 57.3537301,77.4492442 L113.814616,77.3285698 L116.462362,41.0038267 L60.8135036,40.9542847 Z M57.3556544,78.0275563 C57.0304588,78.0275563 56.7379751,77.9064963 56.5340063,77.6867377 C56.3358101,77.4723767 56.2395984,77.1832207 56.2626892,76.8728599 L58.8103756,42.2801614 C58.8854207,41.2659949 59.8225229,40.3759726 60.8135036,40.3759726 L116.774088,40.4257075 C116.852982,40.4257075 116.929951,40.4592496 116.98383,40.5182374 C117.039632,40.5768397 117.066572,40.6558757 117.060799,40.7360683 L114.370719,77.6381595 C114.359174,77.7890989 114.234099,77.905918 114.082084,77.9063035 L57.3556544,78.0275563 L57.3556544,78.0275563 Z" id="Fill-167" fill="#FFFFFF"></path>
            <path d="M115.253943,77.573003 L59.683978,77.573003 C59.1875255,77.573003 58.8430875,77.2105941 58.879648,76.7263542 L61.3926981,42.4451731 C61.4638948,41.492886 62.3875273,40.6493215 63.3611899,40.6493215 L118.21534,40.6493215 C118.709868,40.6493215 119.054306,41.0119231 119.01967,41.4961631 L116.454665,76.4778728 C116.412332,77.0584981 115.846607,77.573003 115.253943,77.573003" id="Fill-168" fill="#026BB0"></path>
            <path d="M63.3611899,40.9384775 C62.541466,40.9384775 61.7390603,41.6667651 61.6813333,42.4663779 L59.1663589,76.747559 C59.1548135,76.8992695 59.1971467,77.0311246 59.2875857,77.1282811 C59.3799489,77.2285218 59.5204181,77.283847 59.683978,77.283847 L115.253943,77.283847 C115.698441,77.283847 116.135242,76.8896309 116.16603,76.456668 L118.731034,41.4747655 C118.74258,41.323055 118.702171,41.1913926 118.611732,41.0942362 C118.517444,40.9939954 118.376975,40.9384775 118.21534,40.9384775 L63.3611899,40.9384775 Z M115.253943,77.862159 L59.683978,77.862159 C59.3587824,77.862159 59.068223,77.7412918 58.8642541,77.5219188 C58.666058,77.3071722 58.567922,77.0170524 58.5910128,76.7049566 L61.1059872,42.4239683 C61.186805,41.3245972 62.2412855,40.3601654 63.3611899,40.3601654 L118.21534,40.3601654 C118.540535,40.3601654 118.831095,40.4810327 119.033139,40.7005985 C119.23326,40.915345 119.331395,41.2054649 119.308305,41.5171751 L116.741376,76.4990776 C116.689422,77.2252447 115.992849,77.862159 115.253943,77.862159 L115.253943,77.862159 Z" id="Fill-169" fill="#000000"></path>
            <path d="M81.3835692,86.0215636 L89.8867609,86.0215636 L92.0091914,62.9112506 C92.0342065,62.6346247 91.8437073,62.4248902 91.570466,62.4248902 L84.5027531,62.4248902 C83.9620432,62.4248902 83.5098482,62.8514917 83.4578938,63.4101412 L81.3835692,86.0215636" id="Fill-170" fill="#000000"></path>
            <polyline id="Fill-171" fill="#026BB0" points="82.7189878 86.0215636 91.2221796 86.0215636 93.3157466 62.9029615 84.8106306 62.9029615 82.7189878 86.0215636"></polyline>
            <path d="M83.0345623,85.7324076 L90.9585595,85.7324076 L92.9982479,63.1923103 L85.0742507,63.1923103 L83.0345623,85.7324076 Z M91.2221796,86.3107196 L82.7189878,86.3107196 C82.63817,86.3107196 82.5592764,86.2765992 82.5053978,86.2164547 C82.4515192,86.1565031 82.4226557,86.0763105 82.4303527,85.9953468 L84.5239197,62.8769375 C84.5373893,62.7281185 84.6605403,62.6139983 84.8106306,62.6139983 L93.3157466,62.6139983 C93.3965644,62.6139983 93.4735338,62.6481187 93.5274124,62.7080703 C93.5832152,62.7682148 93.6101544,62.8484074 93.6024575,62.9293711 L91.5108147,86.0475876 C91.4973451,86.1965994 91.3722699,86.3107196 91.2221796,86.3107196 L91.2221796,86.3107196 Z" id="Fill-172" fill="#000000"></path>
            <path d="M97.3566388,86.4537555 L73.9425548,86.4537555 C73.8097826,86.4537555 73.7039497,86.3459966 73.7039497,86.2131776 L73.7039497,82.6465345 C73.7039497,82.5137155 73.8097826,82.4059567 73.9425548,82.4059567 L97.3566388,82.4059567 C97.489411,82.4059567 97.5971681,82.5137155 97.5971681,82.6465345 L97.5971681,86.2131776 C97.5971681,86.3459966 97.489411,86.4537555 97.3566388,86.4537555" id="Fill-173" fill="#000000"></path>
            <polygon id="Fill-174" fill="#026BB0" points="74.904672 86.0986719 98.7998146 86.0986719 98.7998146 82.7610403 74.904672 82.7610403"></polygon>
            <path d="M75.1933071,85.8095158 L98.5111794,85.8095158 L98.5111794,83.0500036 L75.1933071,83.0500036 L75.1933071,85.8095158 Z M98.7998146,86.3878279 L74.904672,86.3878279 C74.7449605,86.3878279 74.6160368,86.258286 74.6160368,86.0986719 L74.6160368,82.7608475 C74.6160368,82.6012334 74.7449605,82.4716915 74.904672,82.4716915 L98.7998146,82.4716915 C98.959526,82.4716915 99.0884497,82.6012334 99.0884497,82.7608475 L99.0884497,86.0986719 C99.0884497,86.258286 98.959526,86.3878279 98.7998146,86.3878279 L98.7998146,86.3878279 Z" id="Fill-175" fill="#000000"></path>
            <path d="M0.87745088,95.2180744 L156.426786,95.2180744 C156.751982,95.2180744 157.015602,94.9539786 157.015602,94.6283889 L157.015602,86.4695627 C157.015602,86.143973 156.751982,85.8798771 156.426786,85.8798771 L0.87745088,85.8798771 C0.552255269,85.8798771 0.288635158,86.143973 0.288635158,86.4695627 L0.288635158,94.6283889 C0.288635158,94.9539786 0.552255269,95.2180744 0.87745088,95.2180744" id="Fill-176" fill="#FFFFFF"></path>
            <path d="M0.87745088,86.1690332 C0.711966723,86.1690332 0.577270316,86.3037799 0.577270316,86.4697554 L0.577270316,94.6281961 C0.577270316,94.7939789 0.711966723,94.9289184 0.87745088,94.9289184 L156.426786,94.9289184 C156.59227,94.9289184 156.726967,94.7939789 156.726967,94.6281961 L156.726967,86.4697554 C156.726967,86.3037799 156.59227,86.1690332 156.426786,86.1690332 L0.87745088,86.1690332 Z M156.426786,95.5072304 L0.87745088,95.5072304 C0.392543815,95.5072304 0,95.1130144 0,94.6281961 L0,86.4697554 C0,85.9849372 0.392543815,85.5907211 0.87745088,85.5907211 L156.426786,85.5907211 C156.911693,85.5907211 157.304237,85.9849372 157.304237,86.4697554 L157.304237,94.6281961 C157.304237,95.1130144 156.911693,95.5072304 156.426786,95.5072304 L156.426786,95.5072304 Z" id="Fill-177" fill="#000000"></path>
            <path d="M41.5884778,92.8602962 C41.4287663,92.8602962 41.2998426,92.7307543 41.2998426,92.5711402 L41.2998426,88.2773661 C41.2998426,88.117752 41.4287663,87.9882101 41.5884778,87.9882101 C41.7481893,87.9882101 41.877113,88.117752 41.877113,88.2773661 L41.877113,92.5711402 C41.877113,92.7307543 41.7481893,92.8602962 41.5884778,92.8602962" id="Fill-178" fill="#5479F7"></path>
            <path d="M24.4724129,151.384511 C24.3184742,151.384511 24.1895505,151.261138 24.1837778,151.104801 L22.461588,97.8659725 C22.4558153,97.7063583 22.5808905,97.5725755 22.740602,97.5673707 C22.7444505,97.5673707 22.7463747,97.5673707 22.7502232,97.5673707 C22.9060861,97.5673707 23.0330856,97.6907439 23.0388583,97.8470809 L24.7610481,151.085909 C24.7668208,151.245523 24.6417456,151.379306 24.4820341,151.384511 C24.4781856,151.384511 24.4762614,151.384511 24.4724129,151.384511" id="Fill-179" fill="#000000"></path>
            <path d="M6.59435124,138.832248 C6.44426096,138.832248 6.31918573,138.717357 6.30571609,138.566224 L2.86710924,95.5317123 C2.8536396,95.372291 2.97294213,95.2331105 3.13265358,95.2201949 C3.2904408,95.2086286 3.43090991,95.3264115 3.44245532,95.4852546 L6.88106217,138.519767 C6.89453181,138.679188 6.77522928,138.818368 6.61744206,138.831284 C6.60974512,138.832248 6.60204818,138.832248 6.59435124,138.832248" id="Fill-180" fill="#000000"></path>
            <path d="M148.710606,125.700709 C148.700985,125.700709 148.68944,125.700324 148.677894,125.698974 C148.518183,125.680276 148.406577,125.536661 148.423895,125.378011 L151.733578,97.1031789 C151.752821,96.9445286 151.895214,96.8319505 152.053001,96.8494927 C152.212713,96.8681914 152.326243,97.0118056 152.307,97.1704559 L148.997317,125.445288 C148.979999,125.592565 148.854924,125.700709 148.710606,125.700709" id="Fill-181" fill="#000000"></path>
            <path d="M105.265242,70.3408254 L144.292564,70.3408254 C145.678013,70.3408254 146.817159,71.432293 146.880659,72.8186997 L147.386733,83.9047488 C147.454081,85.3834926 146.274525,86.6195382 144.796713,86.6195382 L112.640833,86.6195382 L108.018822,92.7128267 L107.741732,86.6195382 L105.771316,86.6195382 C104.385867,86.6195382 103.244796,85.5280707 103.181296,84.1416639 L102.677147,73.0556149 C102.609799,71.5766782 103.78743,70.3408254 105.265242,70.3408254" id="Fill-182" fill="#FFFFFF"></path>
            <path d="M107.766747,93.5995718 L107.464642,86.9856098 L105.879073,86.9856098 C104.276186,86.9856098 102.961934,85.7279738 102.888813,84.1227724 L102.394284,73.2647711 C102.3558,72.438556 102.648283,71.6539793 103.219781,71.0560046 C103.789354,70.4578372 104.559048,70.1283921 105.384545,70.1283921 L132.052509,70.1283921 C132.21222,70.1283921 132.341144,70.257934 132.341144,70.4175481 C132.341144,70.5771623 132.21222,70.7067042 132.052509,70.7067042 L105.384545,70.7067042 C104.71876,70.7067042 104.097232,70.9725349 103.63734,71.4554255 C103.175524,71.938316 102.938843,72.571375 102.969631,73.2383615 L103.464159,84.0963628 C103.52381,85.3921673 104.584063,86.4072977 105.879073,86.4072977 L108.016897,86.4072977 L108.270896,91.979527 L112.498439,86.4072977 L144.679335,86.4072977 C145.34512,86.4072977 145.964724,86.141467 146.42654,85.6585764 C146.886432,85.1758786 147.123113,84.5426269 147.092325,83.8754476 L146.597797,73.0176391 C146.538145,71.7218346 145.477892,70.7067042 144.182883,70.7067042 L135.050466,70.7067042 C134.890755,70.7067042 134.761831,70.5771623 134.761831,70.4175481 C134.761831,70.257934 134.890755,70.1283921 135.050466,70.1283921 L144.182883,70.1283921 C145.787694,70.1283921 147.101946,71.386028 147.175067,72.9912295 L147.669595,83.849038 C147.70808,84.6754459 147.413672,85.4598298 146.844099,86.05819 C146.272601,86.6561647 145.504832,86.9856098 144.679335,86.9856098 L112.78515,86.9856098 L107.766747,93.5995718" id="Fill-183" fill="#000000"></path>
            <path d="M109.258028,75.825344 L115.384791,75.825344 C115.867774,75.825344 116.258393,75.3962365 116.258393,74.9119965 C116.258393,74.4277566 115.867774,73.9984563 115.384791,73.9984563 L109.258028,73.9984563 C108.773121,73.9984563 108.382502,74.4277566 108.382502,74.9119965 C108.382502,75.3962365 108.773121,75.825344 109.258028,75.825344" id="Fill-184" fill="#E5F0F7"></path>
            <path d="M119.025442,75.825344 L122.721896,75.825344 C123.204879,75.825344 123.597423,75.3962365 123.597423,74.9119965 C123.597423,74.4277566 123.204879,73.9984563 122.721896,73.9984563 L119.025442,73.9984563 C118.542459,73.9984563 118.149916,74.4277566 118.149916,74.9119965 C118.149916,75.3962365 118.542459,75.825344 119.025442,75.825344" id="Fill-185" fill="#D0E0EA"></path>
            <path d="M111.815336,79.6198421 L122.991289,79.6198421 C123.474272,79.6198421 123.866816,79.1905418 123.866816,78.7063018 C123.866816,78.2220619 123.474272,77.7929544 122.991289,77.7929544 L111.815336,77.7929544 C111.332353,77.7929544 110.939809,78.2220619 110.939809,78.7063018 C110.939809,79.1905418 111.332353,79.6198421 111.815336,79.6198421" id="Fill-186" fill="#D0E0EA"></path>
            <path d="M115.14811,83.2736176 L123.120213,83.2736176 C123.603196,83.2736176 123.99574,82.8443172 123.99574,82.3600773 C123.99574,81.8758374 123.603196,81.4467298 123.120213,81.4467298 L115.14811,81.4467298 C114.665127,81.4467298 114.274508,81.8758374 114.274508,82.3600773 C114.274508,82.8443172 114.665127,83.2736176 115.14811,83.2736176" id="Fill-187" fill="#026BB0"></path>
            <path d="M109.817981,83.4141474 L111.61714,83.4141474 C112.100123,83.4141474 112.492666,82.9848471 112.492666,82.5006071 C112.492666,82.0163672 112.100123,81.5872596 111.61714,81.5872596 L109.817981,81.5872596 C109.334998,81.5872596 108.942454,82.0163672 108.942454,82.5006071 C108.942454,82.9848471 109.334998,83.4141474 109.817981,83.4141474" id="Fill-188" fill="#E5F0F7"></path>
            <path d="M140.288232,78.9586387 C140.128521,81.9421505 137.584683,84.2991576 134.604044,84.2232059 C131.623405,84.1470615 129.33549,81.6668739 129.495202,78.6833621 C129.652989,75.6998503 132.198751,73.3428432 135.17939,73.4189876 C138.158105,73.4949393 140.446019,75.9751268 140.288232,78.9586387" id="Fill-189" fill="#E5F0F7"></path>
            <path d="M136.959307,77.7468822 C136.899655,78.8655304 135.945235,79.749384 134.827255,79.7208539 C133.711199,79.6925166 132.852991,78.7623981 132.912642,77.6435571 C132.972293,76.5247161 133.926713,75.6408625 135.042769,75.6693925 C136.160749,75.6979226 137.018958,76.6280411 136.959307,77.7468822" id="Fill-190" fill="#D0E0EA"></path>
            <path d="M130.401516,81.9521745 C132.718294,85.2269629 137.190215,84.6949158 139.110601,82.0391141 C136.414748,79.6562757 133.031944,79.9155523 130.401516,81.9521745" id="Fill-191" fill="#D0E0EA"></path>
            <path d="M115.3617,36.4976193 L145.268151,36.4976193 C146.715175,36.4976193 147.906276,37.6370868 147.9717,39.0844091 L148.466228,49.9422176 C148.537425,51.486118 147.305915,52.7763322 145.764603,52.7763322 L144.115534,52.7763322 L139.610902,58.7161751 L139.339585,52.7763322 L115.856228,52.7763322 C114.409204,52.7763322 113.220027,51.6368647 113.152679,50.1897352 L112.658151,39.3317339 C112.588878,37.7878335 113.818464,36.4976193 115.3617,36.4976193" id="Fill-192" fill="#FFFFFF"></path>
            <path d="M115.3617,36.7867754 C114.693991,36.7867754 114.074387,37.0526061 113.612571,37.5354967 C113.152679,38.0181945 112.915998,38.6514461 112.946786,39.3184327 L113.441314,50.176434 C113.500965,51.4722385 114.561218,52.4873689 115.856228,52.4873689 L139.339585,52.4873689 C139.493523,52.4873689 139.620523,52.6088144 139.62822,52.7632238 L139.862976,57.9061527 L143.886551,52.6014891 C143.940429,52.5293929 144.025095,52.4873689 144.115534,52.4873689 L145.764603,52.4873689 C146.430388,52.4873689 147.051916,52.2215381 147.511808,51.7386476 C147.9717,51.255757 148.208381,50.6225054 148.177593,49.9555188 L147.683065,39.0975175 C147.623414,37.8019058 146.563161,36.7867754 145.268151,36.7867754 L115.3617,36.7867754 Z M139.610902,59.0053311 C139.582038,59.0053311 139.553175,59.0010902 139.524311,58.9922227 C139.408857,58.9559818 139.328039,58.8509218 139.322267,58.7292835 L139.064419,53.0656809 L115.856228,53.0656809 C114.251417,53.0656809 112.937165,51.808045 112.864044,50.2028436 L112.369515,39.3448423 C112.332955,38.5186271 112.625439,37.7340505 113.196936,37.1360758 C113.76651,36.5379084 114.536203,36.2084633 115.3617,36.2084633 L145.268151,36.2084633 C146.872962,36.2084633 148.187214,37.4659065 148.260335,39.0711079 L148.754864,49.9291092 C148.793348,50.7553243 148.49894,51.5400938 147.929367,52.1380684 C147.357869,52.7362359 146.5901,53.0656809 145.764603,53.0656809 L144.259852,53.0656809 L139.839886,58.8910181 C139.784083,58.964271 139.699416,59.0053311 139.610902,59.0053311 L139.610902,59.0053311 Z" id="Fill-193" fill="#000000"></path>
            <path d="M125.504339,41.5964038 L129.406687,41.5964038 C129.916609,41.5964038 130.330319,41.1433927 130.330319,40.6323576 C130.330319,40.1211298 129.916609,39.6681187 129.406687,39.6681187 L125.504339,39.6681187 C124.994417,39.6681187 124.580707,40.1211298 124.580707,40.6323576 C124.580707,41.1433927 124.994417,41.5964038 125.504339,41.5964038" id="Fill-194" fill="#E5F0F7"></path>
            <path d="M117.780463,45.6010219 L129.574095,45.6010219 C130.085941,45.6010219 130.497728,45.1480108 130.497728,44.6369757 C130.497728,44.1259407 130.085941,43.6729296 129.574095,43.6729296 L117.780463,43.6729296 C117.268616,43.6729296 116.85683,44.1259407 116.85683,44.6369757 C116.85683,45.1480108 117.268616,45.6010219 117.780463,45.6010219" id="Fill-195" fill="#E5F0F7"></path>
            <path d="M121.299887,49.6058328 L129.71264,49.6058328 C130.222562,49.6058328 130.636273,49.1528217 130.636273,48.6415938 C130.636273,48.1307515 130.222562,47.6775477 129.71264,47.6775477 L121.299887,47.6775477 C120.789965,47.6775477 120.376255,48.1307515 120.376255,48.6415938 C120.376255,49.1528217 120.789965,49.6058328 121.299887,49.6058328" id="Fill-196" fill="#D0E0EA"></path>
            <path d="M145.112288,44.774614 C144.954501,47.7581258 142.408738,50.1151329 139.428099,50.0391813 C136.449385,49.9630369 134.16147,47.4828493 134.319257,44.4993375 C134.478969,41.5158257 137.022806,39.1588186 140.003446,39.234963 C142.984085,39.3109146 145.271999,41.7911022 145.112288,44.774614" id="Fill-197" fill="#E5F0F7"></path>
            <path d="M141.783362,43.5628575 C141.725635,44.6815058 140.771215,45.5653593 139.653235,45.5368293 C138.535255,45.508492 137.677046,44.5783735 137.736697,43.4595324 C137.796349,42.3406914 138.750769,41.4568378 139.868749,41.4853679 C140.986729,41.513898 141.843014,42.4440165 141.783362,43.5628575" id="Fill-198" fill="#026BB0"></path>
            <path d="M135.225572,47.7681499 C137.544274,51.0429382 142.01427,50.5108911 143.934656,47.8550895 C141.240728,45.4722511 137.856,45.7315277 135.225572,47.7681499" id="Fill-199" fill="#026BB0"></path>
            <path d="M96.9525496,7.55599332 L143.10916,7.55599332 C144.556184,7.55599332 145.747285,8.69546081 145.812709,10.1427831 L146.307237,21.0007844 C146.378434,22.544492 145.146924,23.8347061 143.605612,23.8347061 L104.208837,23.8347061 L99.5868265,29.9279946 L99.3097367,23.8347061 L97.4470778,23.8347061 C96.0019778,23.8347061 94.8108767,22.6952387 94.7454527,21.2479164 L94.2509245,10.3899151 C94.1797278,8.84601471 95.4093136,7.55599332 96.9525496,7.55599332" id="Fill-200" fill="#FFFFFF"></path>
            <path d="M96.9525496,7.84514934 C96.2867645,7.84514934 95.6652368,8.11098011 95.2053448,8.59367789 C94.7454527,9.07656844 94.5087719,9.70982013 94.5376354,10.3768067 L95.0340879,21.234808 C95.0918149,22.5304197 96.1520681,23.5455501 97.4470778,23.5455501 L99.3097367,23.5455501 C99.4636755,23.5455501 99.5906749,23.6671884 99.5983719,23.8215977 L99.8389012,29.1179722 L103.979854,23.6598631 C104.033732,23.5877669 104.118398,23.5455501 104.208837,23.5455501 L143.605612,23.5455501 C144.271397,23.5455501 144.892925,23.2797194 145.352817,22.7968288 C145.812709,22.314131 146.04939,21.6808793 146.018602,21.0138928 L145.524074,10.1558915 C145.464423,8.86008697 144.40417,7.84514934 143.10916,7.84514934 L96.9525496,7.84514934 Z M99.5868265,30.2171506 C99.5579629,30.2171506 99.5290994,30.2129096 99.5021601,30.2040422 C99.3847818,30.1678013 99.303964,30.0627413 99.2981913,29.9412957 L99.0345712,24.1238622 L97.4470778,24.1238622 C95.8441906,24.1238622 94.5299385,22.8662263 94.4568176,21.2610248 L93.9622893,10.4032163 C93.9238047,9.57680836 94.2182125,8.79242446 94.7877859,8.19425704 C95.3573593,7.59628239 96.127053,7.2668373 96.9525496,7.2668373 L143.10916,7.2668373 C144.713971,7.2668373 146.028223,8.52428045 146.101344,10.1294819 L146.595873,20.9874832 C146.634357,21.8136983 146.339949,22.598275 145.770376,23.1962497 C145.198878,23.7944171 144.431109,24.1238622 143.605612,24.1238622 L104.353155,24.1238622 L99.8177346,30.1028376 C99.7619318,30.1760904 99.6753412,30.2171506 99.5868265,30.2171506 L99.5868265,30.2171506 Z" id="Fill-201" fill="#000000"></path>
            <path d="M121.232539,20.4400145 L125.184917,20.4400145 C125.675596,20.4400145 126.071989,20.0053166 126.071989,19.514908 C126.071989,19.0244994 125.675596,18.5898015 125.184917,18.5898015 L121.232539,18.5898015 C120.743784,18.5898015 120.345467,19.0244994 120.345467,19.514908 C120.345467,20.0053166 120.743784,20.4400145 121.232539,20.4400145" id="Fill-202" fill="#99B9FF"></path>
            <path d="M109.440831,20.4400145 L117.655387,20.4400145 C118.146067,20.4400145 118.542459,20.0053166 118.542459,19.514908 C118.542459,19.0244994 118.146067,18.5898015 117.655387,18.5898015 L109.440831,18.5898015 C108.952075,18.5898015 108.553759,19.0244994 108.553759,19.514908 C108.553759,20.0053166 108.952075,20.4400145 109.440831,20.4400145" id="Fill-203" fill="#E5F0F7"></path>
            <path d="M101.484122,12.7544402 L107.689777,12.7544402 C108.178533,12.7544402 108.57685,12.3197424 108.57685,11.8295265 C108.57685,11.3391179 108.178533,10.90442 107.689777,10.90442 L101.484122,10.90442 C100.995366,10.90442 100.598974,11.3391179 100.598974,11.8295265 C100.598974,12.3197424 100.995366,12.7544402 101.484122,12.7544402" id="Fill-204" fill="#E5F0F7"></path>
            <path d="M111.376611,12.7544402 L124.640358,12.7544402 C125.129114,12.7544402 125.525506,12.3197424 125.525506,11.8295265 C125.525506,11.3391179 125.129114,10.90442 124.640358,10.90442 L111.376611,10.90442 C110.887855,10.90442 110.491463,11.3391179 110.491463,11.8295265 C110.491463,12.3197424 110.887855,12.7544402 111.376611,12.7544402" id="Fill-205" fill="#E5F0F7"></path>
            <path d="M113.735722,16.5973237 L121.219069,16.5973237 C121.707825,16.5973237 122.106141,16.1626259 122.106141,15.6722173 C122.106141,15.1818086 121.707825,14.7471108 121.219069,14.7471108 L113.735722,14.7471108 C113.246966,14.7471108 112.850574,15.1818086 112.850574,15.6722173 C112.850574,16.1626259 113.246966,16.5973237 113.735722,16.5973237" id="Fill-206" fill="#E5F0F7"></path>
            <path d="M101.803544,16.5973237 L109.99501,16.5973237 C110.48569,16.5973237 110.882082,16.1626259 110.882082,15.6722173 C110.882082,15.1818086 110.48569,14.7471108 109.99501,14.7471108 L101.803544,14.7471108 C101.312865,14.7471108 100.916472,15.1818086 100.916472,15.6722173 C100.916472,16.1626259 101.312865,16.5973237 101.803544,16.5973237" id="Fill-207" fill="#026BB0"></path>
            <path d="M141.71409,15.5594464 C141.556303,18.5429582 139.012465,20.8999653 136.031826,20.8238209 C133.051187,20.7478693 130.763272,18.2674889 130.922983,15.2839771 C131.080771,12.3004653 133.626533,9.94345819 136.605248,10.0196026 C139.585887,10.0955543 141.873801,12.5759346 141.71409,15.5594464" id="Fill-208" fill="#E5F0F7"></path>
            <path d="M138.387089,14.3474971 C138.327437,15.4663382 137.373017,16.3501917 136.255037,16.3216617 C135.137057,16.2931316 134.280772,15.3632059 134.340424,14.2441721 C134.400075,13.1255238 135.352571,12.2416702 136.470551,12.2702003 C137.588531,12.2987304 138.44674,13.2286561 138.387089,14.3474971" id="Fill-209" fill="#D0E0EA"></path>
            <path d="M131.829298,18.5527895 C134.146076,21.8275778 138.617997,21.2957235 140.538383,18.6399219 C137.84253,16.2570835 134.459726,16.5163601 131.829298,18.5527895" id="Fill-210" fill="#D0E0EA"></path>
            <path d="M93.1810502,102.982106 L123.089425,102.982106 C124.534525,102.982106 125.725626,104.121574 125.79105,105.568896 L126.285579,116.426897 C126.356775,117.970798 125.125265,119.260819 123.583953,119.260819 L121.934885,119.260819 L117.430252,125.200662 L117.158935,119.260819 L93.6755784,119.260819 C92.2285542,119.260819 91.0393773,118.121544 90.9720291,116.674029 L90.4775009,105.816221 C90.4082284,104.27232 91.6378142,102.982106 93.1810502,102.982106" id="Fill-211" fill="#FFFFFF"></path>
            <path d="M93.1810502,103.271262 C92.5152651,103.271262 91.8937374,103.537093 91.4338454,104.019984 C90.9720291,104.502874 90.7353483,105.136126 90.766136,105.803112 L91.2606643,116.660921 C91.3203155,117.956725 92.3805687,118.971663 93.6755784,118.971663 L117.158935,118.971663 C117.312874,118.971663 117.439873,119.093301 117.44757,119.247711 L117.682327,124.39064 L121.705901,119.085976 C121.759779,119.01388 121.844446,118.971663 121.934885,118.971663 L123.583953,118.971663 C124.249739,118.971663 124.871266,118.705832 125.331158,118.222942 C125.79105,117.740244 126.027731,117.106992 125.996943,116.440006 L125.502415,105.582004 C125.444688,104.286393 124.382511,103.271262 123.089425,103.271262 L93.1810502,103.271262 Z M117.430252,125.489818 C117.401388,125.489818 117.372525,125.485384 117.343661,125.476517 C117.228207,125.440469 117.147389,125.335409 117.141617,125.213771 L116.883769,119.549975 L93.6755784,119.549975 C92.0707669,119.549975 90.7584391,118.292532 90.6853182,116.687331 L90.1888657,105.829329 C90.1523053,105.002921 90.4447889,104.218537 91.0162865,103.62037 C91.5858599,103.022395 92.3555536,102.69295 93.1810502,102.69295 L123.089425,102.69295 C124.692312,102.69295 126.006565,103.950393 126.079685,105.555788 L126.574214,116.413789 C126.612698,117.240004 126.318291,118.024388 125.748717,118.622555 C125.179144,119.22053 124.40945,119.549975 123.583953,119.549975 L122.079202,119.549975 L117.659236,125.375505 C117.603433,125.448758 117.518767,125.489818 117.430252,125.489818 L117.430252,125.489818 Z" id="Fill-212" fill="#000000"></path>
            <path d="M103.32369,108.080891 L107.226037,108.080891 C107.735959,108.080891 108.149669,107.62788 108.149669,107.116845 C108.149669,106.60581 107.735959,106.152798 107.226037,106.152798 L103.32369,106.152798 C102.813768,106.152798 102.400057,106.60581 102.400057,107.116845 C102.400057,107.62788 102.813768,108.080891 103.32369,108.080891" id="Fill-213" fill="#D0E0EA"></path>
            <path d="M95.5998128,112.085702 L107.39537,112.085702 C107.905292,112.085702 108.319002,111.632691 108.319002,111.121655 C108.319002,110.610428 107.905292,110.157609 107.39537,110.157609 L95.5998128,110.157609 C95.0898907,110.157609 94.6761803,110.610428 94.6761803,111.121655 C94.6761803,111.632691 95.0898907,112.085702 95.5998128,112.085702" id="Fill-214" fill="#D0E0EA"></path>
            <path d="M99.1192375,116.09032 L107.53199,116.09032 C108.041912,116.09032 108.455623,115.637309 108.455623,115.126274 C108.455623,114.615239 108.041912,114.162227 107.53199,114.162227 L99.1192375,114.162227 C98.6093154,114.162227 98.195605,114.615239 98.195605,115.126274 C98.195605,115.637309 98.6093154,116.09032 99.1192375,116.09032" id="Fill-215" fill="#E5F0F7"></path>
            <path d="M122.55064,111.466522 C122.390928,114.449841 119.84709,116.806848 116.866451,116.730897 C113.885812,116.654945 111.599822,114.174565 111.757609,111.191053 C111.91732,108.207348 114.461158,105.850534 117.441797,105.926486 C120.422436,106.00263 122.708427,108.482818 122.55064,111.466522" id="Fill-216" fill="#E5F0F7"></path>
            <path d="M119.221714,110.254573 C119.162063,111.373221 118.209567,112.257075 117.091587,112.228738 C115.973606,112.200015 115.115398,111.270089 115.175049,110.151055 C115.2347,109.032407 116.189121,108.148553 117.307101,108.177083 C118.423157,108.205613 119.281365,109.135732 119.221714,110.254573" id="Fill-217" fill="#026BB0"></path>
            <path d="M112.663923,114.459865 C114.982626,117.734461 119.452622,117.202607 121.373008,114.546805 C118.677156,112.163967 115.294352,112.423243 112.663923,114.459865" id="Fill-218" fill="#026BB0"></path>
            <path d="M104.814971,130.129808 L143.842293,130.129808 C145.227742,130.129808 146.366889,131.221469 146.430388,132.607875 L146.936462,143.693732 C147.00381,145.172668 145.824255,146.408714 144.346443,146.408714 L112.190562,146.408714 L107.568551,152.502002 L107.289537,146.408714 L105.319121,146.408714 C103.933672,146.408714 102.794525,145.317054 102.731025,143.93084 L102.224952,132.844791 C102.157604,131.365854 103.337159,130.129808 104.814971,130.129808" id="Fill-219" fill="#FFFFFF"></path>
            <path d="M107.316476,153.388748 L107.014371,146.774593 L105.428802,146.774593 C103.823991,146.774593 102.511663,145.51715 102.438542,143.911948 L101.942089,133.053947 C101.905529,132.227539 102.198013,131.443155 102.76951,130.844795 C103.339084,130.24682 104.108777,129.917375 104.934274,129.917375 L131.602238,129.917375 C131.76195,129.917375 131.890873,130.046917 131.890873,130.206531 C131.890873,130.366338 131.76195,130.495687 131.602238,130.495687 L104.934274,130.495687 C104.266564,130.495687 103.646961,130.761518 103.187069,131.244408 C102.725253,131.727106 102.488572,132.360358 102.51936,133.027537 L103.013888,143.885539 C103.073539,145.181343 104.133792,146.196281 105.428802,146.196281 L107.566626,146.196281 L107.820625,151.768703 L112.046244,146.196281 L144.22714,146.196281 C144.894849,146.196281 145.514453,145.93045 145.976269,145.447559 C146.436161,144.964669 146.672842,144.33161 146.642054,143.664623 L146.147526,132.806622 C146.087875,131.510818 145.027621,130.495687 143.732612,130.495687 L134.598271,130.495687 C134.440484,130.495687 134.309636,130.366338 134.309636,130.206531 C134.309636,130.046917 134.440484,129.917375 134.598271,129.917375 L143.732612,129.917375 C145.337423,129.917375 146.651675,131.175011 146.722872,132.780212 L147.219324,143.638214 C147.255885,144.464429 146.963401,145.249006 146.391904,145.84698 C145.82233,146.445148 145.052637,146.774593 144.22714,146.774593 L112.332955,146.774593 L107.316476,153.388748" id="Fill-220" fill="#000000"></path>
            <path d="M108.805833,135.61452 L114.932596,135.61452 C115.417503,135.61452 115.808122,135.185412 115.808122,134.701172 C115.808122,134.216932 115.417503,133.787632 114.932596,133.787632 L108.805833,133.787632 C108.322851,133.787632 107.932231,134.216932 107.932231,134.701172 C107.932231,135.185412 108.322851,135.61452 108.805833,135.61452" id="Fill-221" fill="#E5F0F7"></path>
            <path d="M118.575171,135.61452 L122.271626,135.61452 C122.754608,135.61452 123.147152,135.185412 123.147152,134.701172 C123.147152,134.216932 122.754608,133.787632 122.271626,133.787632 L118.575171,133.787632 C118.090264,133.787632 117.699645,134.216932 117.699645,134.701172 C117.699645,135.185412 118.090264,135.61452 118.575171,135.61452" id="Fill-222" fill="#E5F0F7"></path>
            <path d="M111.365065,139.409018 L122.541018,139.409018 C123.024001,139.409018 123.416545,138.979525 123.416545,138.495478 C123.416545,138.011238 123.024001,137.581937 122.541018,137.581937 L111.365065,137.581937 C110.882082,137.581937 110.489538,138.011238 110.489538,138.495478 C110.489538,138.979525 110.882082,139.409018 111.365065,139.409018" id="Fill-223" fill="#D0E0EA"></path>
            <path d="M114.697839,143.062793 L122.669942,143.062793 C123.152925,143.062793 123.545469,142.6333 123.545469,142.149253 C123.545469,141.665013 123.152925,141.235713 122.669942,141.235713 L114.697839,141.235713 C114.214856,141.235713 113.822312,141.665013 113.822312,142.149253 C113.822312,142.6333 114.214856,143.062793 114.697839,143.062793" id="Fill-224" fill="#026BB0"></path>
            <path d="M109.36771,143.20313 L111.166869,143.20313 C111.649852,143.20313 112.042396,142.774023 112.042396,142.289783 C112.042396,141.805543 111.649852,141.376435 111.166869,141.376435 L109.36771,141.376435 C108.884727,141.376435 108.492183,141.805543 108.492183,142.289783 C108.492183,142.774023 108.884727,143.20313 109.36771,143.20313" id="Fill-225" fill="#E5F0F7"></path>
            <path d="M139.836037,138.747814 C139.67825,141.731519 137.134412,144.088333 134.153773,144.012382 C131.173134,143.936237 128.885219,141.45605 129.044931,138.472345 C129.202718,135.489026 131.74848,133.131826 134.727195,133.207971 C137.707834,133.283922 139.995749,135.764495 139.836037,138.747814" id="Fill-226" fill="#E5F0F7"></path>
            <path d="M136.509036,137.535865 C136.449385,138.654899 135.494964,139.538752 134.376984,139.51003 C133.259004,139.481692 132.40272,138.551574 132.460447,137.432733 C132.520098,136.313892 133.474518,135.430038 134.592498,135.458568 C135.710479,135.487098 136.568687,136.417024 136.509036,137.535865" id="Fill-227" fill="#D0E0EA"></path>
            <path d="M129.951245,141.741158 C132.268023,145.016139 136.739944,144.484092 138.658406,141.82829 C135.964478,139.445451 132.579749,139.704728 129.951245,141.741158" id="Fill-228" fill="#D0E0EA"></path>
            <path d="M33.8530556,26.1350387 C33.7645408,26.1350387 33.6779502,26.0951351 33.6221474,26.0199546 C33.5259357,25.8925332 33.5509508,25.7111359 33.6779502,25.6149434 C34.7651427,24.793933 35.8831228,23.9810191 37.0030273,23.1985629 C38.6963535,22.0143726 40.4435583,20.8660377 42.1946116,19.785558 C42.329308,19.7020883 42.5082618,19.7441123 42.5910039,19.8800157 C42.673746,20.015919 42.6314128,20.1942319 42.4967164,20.2780871 C40.7552843,21.3525909 39.0177007,22.4947572 37.3320713,23.6729715 C36.2179396,24.4511868 35.1057322,25.2598598 34.0262367,26.0766292 C33.9742823,26.1159544 33.9127068,26.1350387 33.8530556,26.1350387" id="Fill-229" fill="#000000"></path>
            <path d="M32.1154719,25.1977876 C32.0461995,25.1977876 31.9750028,25.1719564 31.9192,25.1199083 C31.8037459,25.0106073 31.796049,24.8276679 31.9057304,24.7110417 C36.327621,19.9762082 44.9212518,14.6852314 54.8926344,10.5578183 C65.3951056,6.21006843 76.0418945,3.71677246 84.1005881,3.71677246 C84.2602996,3.71677246 84.3892233,3.84612159 84.3892233,4.00592848 C84.3892233,4.1655426 84.2602996,4.2950845 84.1005881,4.2950845 C76.1130912,4.2950845 65.5490444,6.77238051 55.1139213,11.0921787 C45.2137354,15.1897122 36.697074,20.428641 32.3271377,25.1062216 C32.2713349,25.1671371 32.1943655,25.1977876 32.1154719,25.1977876" id="Fill-230" fill="#000000"></path>
            <path d="M30.1161924,26.3291587 C29.3484229,26.3291587 28.6614712,26.8741215 28.5152294,27.6538789 C28.5152294,27.6540716 28.5152294,27.6540716 28.5152294,27.6540716 C28.4344115,28.0793237 28.5248505,28.5111301 28.7692283,28.8691052 C29.0136061,29.2293936 29.3849833,29.4724774 29.8140876,29.5532484 C30.6973112,29.719995 31.5535955,29.1384059 31.7190796,28.2568655 C31.7998975,27.8312279 31.7094585,27.3998071 31.4650807,27.0416392 C31.2207029,26.681158 30.8493257,26.4384597 30.4202214,26.3576888 C30.318237,26.3384117 30.2162526,26.3291587 30.1161924,26.3291587 Z M30.1181166,30.1600905 C29.9834202,30.1600905 29.8467996,30.1475604 29.7082547,30.1217291 C29.1271359,30.0122354 28.6249107,29.6833686 28.2920182,29.1952732 C27.9610499,28.7092983 27.8378989,28.1238538 27.9475802,27.5465056 C28.1727157,26.3519057 29.3291805,25.564823 30.5260543,25.7892081 C31.1071731,25.8987018 31.6093983,26.2275686 31.9422908,26.7154712 C32.2732591,27.2014461 32.3964101,27.7868906 32.2867288,28.3644316 C32.0866084,29.4210077 31.1591274,30.1600905 30.1181166,30.1600905 L30.1181166,30.1600905 Z" id="Fill-231" fill="#000000"></path>
            <path d="M79.338108,9.06577328 C79.6036523,9.31232698 80.0077416,9.67666357 80.4503155,10.0489038 L80.8024504,8.49189497 L79.338108,9.06577328 Z M80.627345,10.8596972 C80.5638453,10.8596972 80.4984213,10.8377214 80.446467,10.7956974 C79.4997437,10.0309761 78.6145959,9.18047184 78.6068989,9.17198993 C78.5357023,9.10374911 78.5029903,9.00370113 78.5222326,8.90712302 C78.541475,8.81035213 78.6088232,8.72996676 78.7011864,8.69430418 L81.0987825,7.75473989 C81.1969184,7.71618576 81.3104482,7.73507065 81.3912661,7.8046675 C81.4720839,7.87445048 81.5086444,7.98317315 81.4855536,8.08765486 L80.9102075,10.6343483 C80.8871167,10.7316975 80.8178442,10.8107335 80.7235568,10.8436973 C80.692769,10.8544924 80.660057,10.8596972 80.627345,10.8596972 L80.627345,10.8596972 Z" id="Fill-232" fill="#000000"></path>
        </g>
    </g>
</svg>