<?xml version="1.0" encoding="UTF-8"?>
<svg width="127px" height="127px" viewBox="0 0 127 127" version="1.1" xmlns="http://www.w3.org/2000/svg" xmlns:xlink="http://www.w3.org/1999/xlink">
    <title>Group 85</title>
    <g id="Page-1" stroke="none" stroke-width="1" fill="none" fill-rule="evenodd">
        <g id="Group-85" transform="translate(0.363163, 0.363163)">
            <rect id="Rectangle-Copy-17" stroke="#026BB0" fill="#026BB0" opacity="0.462695894" transform="translate(63.136837, 63.136837) scale(-1, 1) rotate(22.000000) translate(-63.136837, -63.136837) " x="15.1368367" y="15.1368367" width="96" height="96" rx="20"></rect>
            <g id="heart-copy" transform="translate(63.215380, 66.429960) rotate(-15.000000) translate(-63.215380, -66.429960) translate(35.555379, 42.775924)" fill="#FFFFFF" fill-rule="nonzero">
                <path d="M0,16.0717196 L0,15.4450491 C0,7.89257316 5.45852859,1.450819 12.9007979,0.210439685 C17.7304945,-0.609635701 22.8411104,0.995939279 26.3634391,4.52366909 L27.6600016,5.81807184 L28.8593226,4.52366909 C32.4788929,0.995939279 37.4922673,-0.609635701 42.4192054,0.210439685 C49.8636345,1.450819 55.3200016,7.89257316 55.3200016,15.4450491 L55.3200016,16.0717196 C55.3200016,20.5556649 53.4615941,24.8451272 50.1769697,27.9028524 L30.6529014,46.1303616 C29.8425498,46.8866897 28.7728831,47.3080718 27.6600016,47.3080718 C26.5471185,47.3080718 25.4774551,46.8866897 24.6671035,46.1303616 L5.14195203,27.9028524 C1.86164884,24.8451272 0,20.5556649 0,16.0717196 L0,16.0717196 Z" id="Path"></path>
            </g>
        </g>
    </g>
</svg>