<?xml version="1.0" encoding="UTF-8"?>
<svg width="35px" height="29px" viewBox="0 0 35 29" version="1.1" xmlns="http://www.w3.org/2000/svg" xmlns:xlink="http://www.w3.org/1999/xlink">
    <title>18</title>
    <g id="Page-1" stroke="none" stroke-width="1" fill="none" fill-rule="evenodd">
        <g id="18" transform="translate(17.500000, 14.517074) rotate(-360.000000) translate(-17.500000, -14.517074) translate(1.500000, 1.017074)">
            <path d="M4.13463567,0 L10.4505843,0 C12.7247999,0 14.58522,1.87946066 14.58522,4.17695167 L14.58522,16.4908906 C14.58522,19.689565 15.4218166,26.9962377 8.40530715,26.9962377 C7.20184046,27.0853026 6.32163658,25.5716783 7.77442327,24.7241254 C9.22720997,23.8770513 11.2568454,23.2550336 10.7558354,20.6558712 C8.74231574,20.8057492 6.20550844,20.6678423 4.13463567,20.6678423 C1.86042015,20.6678423 0,18.7883816 0,16.4908906 L0,4.17695167 C0,1.87946066 1.86042015,0 4.13463567,0 Z" id="Path" stroke="#E7F1F8" stroke-width="1.6" fill="#026BB0" opacity="0.0979817708"></path>
            <path d="M10.4505843,-0.4 C11.6981584,-0.4 12.8326771,0.114766476 13.655012,0.94551765 C14.4758763,1.77478311 14.98522,2.91866397 14.98522,4.17695167 L14.98522,4.17695167 L14.98522,16.4908906 C14.98522,16.772571 14.9918001,17.0863925 14.9988507,17.4244207 C15.0442067,19.5989518 15.0839416,22.7239959 13.6926434,24.8722749 C12.7405842,26.3423327 11.1407514,27.3926428 8.419249,27.3962316 C8.01573115,27.4225626 7.6410769,27.3097658 7.3402439,27.1098395 C7.01018441,26.89049 6.7704895,26.5664114 6.67056189,26.2065247 C6.57819808,25.8738788 6.60153424,25.5092792 6.7843743,25.1592513 C6.92940576,24.8816041 7.17946092,24.6081308 7.57294315,24.378574 C7.77774533,24.2591603 7.99371884,24.1440333 8.21262351,24.0274635 C8.9268641,23.6471204 9.69051348,23.2623151 10.1163814,22.5888228 C10.3619765,22.2004243 10.4811292,21.7138038 10.4149023,21.0789266 C9.11263667,21.1524757 7.62872073,21.1238227 6.20446349,21.0957659 C5.4888144,21.0816682 4.78841731,21.0678423 4.13463567,21.0678423 C2.88706158,21.0678423 1.75254295,20.5530758 0.930207977,19.7223246 C0.109343667,18.8930592 -0.4,17.7491783 -0.4,16.4908906 L-0.4,16.4908906 L-0.4,4.17695167 C-0.4,2.91866397 0.109343667,1.77478311 0.930207977,0.94551765 C1.75254295,0.114766476 2.88706158,-0.4 4.13463567,-0.4 L4.13463567,-0.4 Z" id="Path" stroke="#026BB0" stroke-width="0.8"></path>
            <path d="M21.5192548,0 L27.8347294,0 C30.108945,0 31.9688911,1.87946066 31.9688911,4.17695167 L31.9688911,16.4908906 C31.9688911,19.689565 32.8064357,26.9962377 25.7899262,26.9962377 C24.5859856,27.0853026 23.7057817,25.5716783 25.1590424,24.7241254 C26.6118291,23.8770513 28.6414645,23.2550336 28.1399805,20.6558712 C26.1264608,20.8057492 23.5901275,20.6678423 21.5192548,20.6678423 C19.2450392,20.6678423 17.3841451,18.7883816 17.3841451,16.4908906 L17.3841451,4.17695167 C17.3841451,1.87946066 19.2450392,0 21.5192548,0 Z" id="Path" stroke="#E7F1F8" stroke-width="1.6" fill="#026BB0" opacity="0.0979817708"></path>
            <path d="M27.8347294,-0.4 C29.0822864,-0.4 30.2166609,0.114747763 31.0388718,0.945468852 C31.859642,1.77473427 32.3688911,2.91863404 32.3688911,4.17695167 L32.3688911,4.17695167 L32.3688911,16.4908906 C32.3688911,16.7728145 32.3754902,17.0869354 32.3825612,17.4252982 C32.3894169,17.7533562 32.3967299,18.1038767 32.3991662,18.4738859 C32.3909353,20.7991923 32.1559656,23.3765818 30.8663117,25.1469604 C29.8929779,26.4831092 28.3332232,27.3929013 25.8038527,27.3962323 C25.4002359,27.4225593 25.0255224,27.3097744 24.7246548,27.1098839 C24.3944995,26.8905353 24.1547658,26.5664496 24.0548375,26.2065604 C23.9624675,25.8738922 23.9858381,25.509263 24.1687763,25.1592056 C24.3138694,24.8815658 24.5640118,24.6080957 24.9575622,24.378574 C25.1623512,24.259168 25.3783101,24.1440482 25.597199,24.0274861 C26.3114282,23.6471468 27.0750646,23.2623546 27.5008465,22.588871 C27.7464096,22.2004497 27.8654801,21.7137927 27.7990563,21.0789264 C26.4968382,21.152475 25.0131368,21.1238235 23.5890219,21.0957669 C22.8734197,21.0816688 22.1730521,21.0678423 21.5192548,21.0678423 C20.2716636,21.0678423 19.1370008,20.5530571 18.3145418,19.7222758 C17.4935833,18.8930103 16.9841451,17.7491484 16.9841451,16.4908906 L16.9841451,16.4908906 L16.9841451,4.17695167 C16.9841451,2.9186939 17.4935833,1.77483195 18.3145418,0.945566446 C19.1370008,0.114785189 20.2716636,-0.4 21.5192548,-0.4 L21.5192548,-0.4 L27.8347294,-0.4 Z" id="Path" stroke="#026BB0" stroke-width="0.8"></path>
        </g>
    </g>
</svg>