<?xml version="1.0" encoding="UTF-8"?>
<svg width="127px" height="127px" viewBox="0 0 127 127" version="1.1" xmlns="http://www.w3.org/2000/svg" xmlns:xlink="http://www.w3.org/1999/xlink">
    <title>Group 51 Copy</title>
    <g id="Page-1" stroke="none" stroke-width="1" fill="none" fill-rule="evenodd">
        <g id="Group-78" transform="translate(0.363163, 0.363163)">
            <rect id="Rectangle" stroke="#026BB0" fill="#026BB0" opacity="0.462695894" transform="translate(63.136837, 63.136837) rotate(22.000000) translate(-63.136837, -63.136837) " x="15.1368367" y="15.1368367" width="96" height="96" rx="20"></rect>
            <g id="comment-smile" transform="translate(65.269983, 63.816519) rotate(-345.000000) translate(-65.269983, -63.816519) translate(37.658819, 39.615641)" fill="#FFFFFF" fill-rule="nonzero">
                <path d="M27.5654588,0 C12.2876313,0 0.00270029907,10.0624027 0.00270029907,22.47375 C0.00270029907,27.8350354 2.30950174,32.7360434 6.15813255,36.5954746 C4.80754661,42.0388767 0.294428181,46.8890992 0.240404743,46.9431226 C-0.00270072575,47.1862281 -0.0702300226,47.5626643 0.0783344305,47.886805 C0.213393024,48.2109456 0.512790493,48.4017554 0.863942837,48.4017554 C8.02204831,48.4017554 13.3001388,44.9701856 16.0553358,42.8492282 C19.5809058,44.1728025 23.5127299,44.9442587 27.6595695,44.9442587 C42.937397,44.9442587 55.222328,34.8818527 55.222328,22.5677503 C55.222328,10.2536478 42.8432879,0 27.5654604,0 L27.5654588,0 Z M34.3832189,12.1984915 C36.3010509,12.1984915 37.7434774,13.7381595 37.7434774,15.6559915 C37.7434774,17.5738236 36.2048909,19.01625 34.2870589,19.01625 C32.3692269,19.01625 30.9257189,17.5792262 30.9257189,15.6559915 C30.9257189,13.7327585 32.5572274,12.1984915 34.3832189,12.1984915 Z M20.5532189,12.1984915 C22.4710509,12.1984915 23.9134774,13.7381595 23.9134774,15.6559915 C23.9134774,17.5738236 22.5628898,19.01625 20.5532189,19.01625 C18.543548,19.01625 17.0957189,17.5792262 17.0957189,15.6559915 C17.0957189,13.7327585 18.7272257,12.1984915 20.5532189,12.1984915 Z M39.0400399,29.4103574 C36.1767977,32.7598105 32.0051094,34.6776426 27.5654604,34.6776426 C23.1225734,34.6776426 18.9487221,32.7598105 16.0908826,29.4103574 C15.1724842,28.3298886 15.2805311,26.6962204 16.3745057,25.7637754 C17.4522723,24.8399759 19.0945861,24.9588281 20.0237882,26.0609043 C21.8929995,28.2326471 24.6373894,29.4859915 27.4682189,29.4859915 C30.3984496,29.4859915 33.1395983,28.2304874 35.0034069,26.0555032 C35.9350936,24.9620694 37.5695202,24.8259293 38.6489074,25.7583743 C39.8395861,26.6875781 39.9584383,28.3298886 39.0400399,29.4103574 Z" id="Shape"></path>
            </g>
        </g>
    </g>
</svg>