<?xml version="1.0" encoding="UTF-8"?>
<svg width="571px" height="1199px" viewBox="0 0 571 1199" version="1.1" xmlns="http://www.w3.org/2000/svg" xmlns:xlink="http://www.w3.org/1999/xlink">
    <title>top_bg_left</title>
    <defs>
        <rect id="path-1" x="0" y="0" width="571" height="1199"></rect>
    </defs>
    <g id="Page-1" stroke="none" stroke-width="1" fill="none" fill-rule="evenodd">
        <g id="top_bg_left">
            <mask id="mask-2" fill="white">
                <use xlink:href="#path-1"></use>
            </mask>
            <g id="path-1"></g>
            <g id="Group" mask="url(#mask-2)">
                <g transform="translate(-90.000000, -19.000000)">
                    <ellipse id="Oval" fill="#A1B7C6" fill-rule="nonzero" opacity="0.096522" cx="161" cy="303" rx="161" ry="303"></ellipse>
                    <ellipse id="Oval-Copy-4" fill="#A1B7C6" fill-rule="nonzero" opacity="0.096522" cx="289" cy="896" rx="161" ry="303"></ellipse>
                    <g id="Group-8" stroke-width="1" fill="none" fill-rule="evenodd" transform="translate(88.307392, 514.718178)">
                        <g id="Group-2" fill="#738A99" fill-rule="nonzero">
                            <path d="M350.5501,254.433016 C350.06693,254.433016 349.680394,254.042427 349.680394,253.563641 C349.680394,253.084854 350.06693,252.694265 350.5501,252.694265 C351.029068,252.694265 351.415604,253.084854 351.415604,253.563641 C351.415604,254.042427 351.029068,254.433016 350.5501,254.433016" id="Fill-3"></path>
                            <path d="M352.113049,245.378072 C351.63408,245.378072 351.243343,244.991683 351.243343,244.512896 C351.243343,244.02991 351.63408,243.643521 352.113049,243.643521 C352.592017,243.643521 352.982754,244.02991 352.982754,244.512896 C352.982754,244.991683 352.592017,245.378072 352.113049,245.378072" id="Fill-4"></path>
                            <path d="M353.134007,236.251729 C352.655039,236.251729 352.264302,235.86114 352.264302,235.382354 C352.264302,234.903567 352.655039,234.512978 353.134007,234.512978 C353.612975,234.512978 354.003713,234.903567 354.003713,235.382354 C354.003713,235.86114 353.612975,236.251729 353.134007,236.251729" id="Fill-5"></path>
                            <path d="M354.121354,227.116987 C353.642386,227.116987 353.251649,226.730598 353.251649,226.247612 C353.251649,225.768825 353.642386,225.382436 354.121354,225.382436 C354.600322,225.382436 354.991059,225.768825 354.991059,226.247612 C354.991059,226.730598 354.600322,227.116987 354.121354,227.116987" id="Fill-6"></path>
                            <path d="M355.112902,217.986445 C354.629732,217.986445 354.243197,217.595856 354.243197,217.11707 C354.243197,216.638283 354.629732,216.247694 355.112902,216.247694 C355.59187,216.247694 355.978406,216.638283 355.978406,217.11707 C355.978406,217.595856 355.59187,217.986445 355.112902,217.986445" id="Fill-7"></path>
                            <path d="M355.877571,208.834903 C355.398602,208.834903 355.007865,208.448514 355.007865,207.965528 C355.007865,207.486742 355.398602,207.100352 355.877571,207.100352 C356.356539,207.100352 356.747276,207.486742 356.747276,207.965528 C356.747276,208.448514 356.356539,208.834903 355.877571,208.834903" id="Fill-8"></path>
                            <path d="M356.192681,199.653963 C355.713713,199.653963 355.322976,199.267574 355.322976,198.784587 C355.322976,198.305801 355.713713,197.919412 356.192681,197.919412 C356.671649,197.919412 357.062387,198.305801 357.062387,198.784587 C357.062387,199.267574 356.671649,199.653963 356.192681,199.653963" id="Fill-9"></path>
                            <path d="M356.507792,190.473022 C356.028824,190.473022 355.642288,190.086633 355.642288,189.603646 C355.642288,189.12486 356.028824,188.738471 356.507792,188.738471 C356.990962,188.738471 357.377497,189.12486 357.377497,189.603646 C357.377497,190.086633 356.990962,190.473022 356.507792,190.473022" id="Fill-10"></path>
                            <path d="M356.827104,181.292081 C356.348136,181.292081 355.957399,180.905692 355.957399,180.422706 C355.957399,179.943919 356.348136,179.55753 356.827104,179.55753 C357.306072,179.55753 357.692608,179.943919 357.692608,180.422706 C357.692608,180.905692 357.306072,181.292081 356.827104,181.292081" id="Fill-11"></path>
                            <path d="M356.608627,172.11534 C356.129659,172.11534 355.743123,171.724751 355.743123,171.245965 C355.743123,170.767178 356.129659,170.376589 356.608627,170.376589 C357.091797,170.376589 357.478333,170.767178 357.478333,171.245965 C357.478333,171.724751 357.091797,172.11534 356.608627,172.11534" id="Fill-12"></path>
                            <path d="M356.184278,162.938599 C355.70531,162.938599 355.314573,162.54801 355.314573,162.069224 C355.314573,161.590437 355.70531,161.199848 356.184278,161.199848 C356.663247,161.199848 357.053984,161.590437 357.053984,162.069224 C357.053984,162.54801 356.663247,162.938599 356.184278,162.938599" id="Fill-13"></path>
                            <path d="M355.755728,153.761858 C355.27676,153.761858 354.890224,153.37127 354.890224,152.892483 C354.890224,152.413697 355.27676,152.023108 355.755728,152.023108 C356.238898,152.023108 356.625433,152.413697 356.625433,152.892483 C356.625433,153.37127 356.238898,153.761858 355.755728,153.761858" id="Fill-14"></path>
                            <path d="M354.789388,144.635516 C354.31042,144.635516 353.923885,144.244927 353.923885,143.766141 C353.923885,143.287354 354.31042,142.896765 354.789388,142.896765 C355.268357,142.896765 355.659094,143.287354 355.659094,143.766141 C355.659094,144.244927 355.268357,144.635516 354.789388,144.635516" id="Fill-15"></path>
                            <path d="M353.545752,135.534373 C353.066784,135.534373 352.676046,135.143784 352.676046,134.664998 C352.676046,134.186211 353.066784,133.795622 353.545752,133.795622 C354.02472,133.795622 354.415457,134.186211 354.415457,134.664998 C354.415457,135.143784 354.02472,135.534373 353.545752,135.534373" id="Fill-16"></path>
                            <path d="M352.302115,126.42903 C351.823147,126.42903 351.43241,126.042641 351.43241,125.563855 C351.43241,125.080868 351.823147,124.694479 352.302115,124.694479 C352.781083,124.694479 353.17182,125.080868 353.17182,125.563855 C353.17182,126.042641 352.781083,126.42903 352.302115,126.42903" id="Fill-17"></path>
                            <path d="M350.403048,117.453884 C349.92408,117.453884 349.533343,117.067495 349.533343,116.584508 C349.533343,116.105722 349.92408,115.719333 350.403048,115.719333 C350.882016,115.719333 351.272754,116.105722 351.272754,116.584508 C351.272754,117.067495 350.882016,117.453884 350.403048,117.453884" id="Fill-18"></path>
                            <path d="M348.188871,108.537535 C347.709902,108.537535 347.319165,108.151146 347.319165,107.67236 C347.319165,107.189373 347.709902,106.802984 348.188871,106.802984 C348.667839,106.802984 349.054375,107.189373 349.054375,107.67236 C349.054375,108.151146 348.667839,108.537535 348.188871,108.537535" id="Fill-19"></path>
                            <path d="M345.974693,99.6211872 C345.491523,99.6211872 345.104988,99.2347981 345.104988,98.7560116 C345.104988,98.2772251 345.491523,97.8866361 345.974693,97.8866361 C346.453661,97.8866361 346.840197,98.2772251 346.840197,98.7560116 C346.840197,99.2347981 346.453661,99.6211872 345.974693,99.6211872" id="Fill-20"></path>
                            <path d="M342.878206,90.986231 C342.399238,90.986231 342.0085,90.5998419 342.0085,90.1168555 C342.0085,89.638069 342.399238,89.25168 342.878206,89.25168 C343.357174,89.25168 343.747911,89.638069 343.747911,90.1168555 C343.747911,90.5998419 343.357174,90.986231 342.878206,90.986231" id="Fill-21"></path>
                            <path d="M339.52963,82.4310725 C339.050662,82.4310725 338.664126,82.0446834 338.664126,81.565897 C338.664126,81.0829106 339.050662,80.6965215 339.52963,80.6965215 C340.008598,80.6965215 340.399335,81.0829106 340.399335,81.565897 C340.399335,82.0446834 340.008598,82.4310725 339.52963,82.4310725" id="Fill-22"></path>
                            <path d="M336.181054,73.8759141 C335.702086,73.8759141 335.31555,73.489525 335.31555,73.0107385 C335.31555,72.5277522 335.702086,72.1413631 336.181054,72.1413631 C336.660022,72.1413631 337.050759,72.5277522 337.050759,73.0107385 C337.050759,73.489525 336.660022,73.8759141 336.181054,73.8759141" id="Fill-23"></path>
                            <path d="M331.601446,65.9171388 C331.122478,65.9171388 330.735942,65.5265498 330.735942,65.0477634 C330.735942,64.5689769 331.122478,64.1783879 331.601446,64.1783879 C332.080414,64.1783879 332.471151,64.5689769 332.471151,65.0477634 C332.471151,65.5265498 332.080414,65.9171388 331.601446,65.9171388" id="Fill-24"></path>
                            <path d="M326.975621,57.9793629 C326.496653,57.9793629 326.110117,57.588774 326.110117,57.1099875 C326.110117,56.631201 326.496653,56.240612 326.975621,56.240612 C327.458791,56.240612 327.845327,56.631201 327.845327,57.1099875 C327.845327,57.588774 327.458791,57.9793629 326.975621,57.9793629" id="Fill-25"></path>
                            <path d="M322.059895,50.2473813 C321.576725,50.2473813 321.19019,49.8609922 321.19019,49.3822057 C321.19019,48.8992193 321.576725,48.5128302 322.059895,48.5128302 C322.538863,48.5128302 322.925399,48.8992193 322.925399,49.3822057 C322.925399,49.8609922 322.538863,50.2473813 322.059895,50.2473813" id="Fill-26"></path>
                            <path d="M316.0938,43.2587786 C315.614832,43.2587786 315.224095,42.8723895 315.224095,42.3894031 C315.224095,41.9106166 315.614832,41.5242276 316.0938,41.5242276 C316.572768,41.5242276 316.963505,41.9106166 316.963505,42.3894031 C316.963505,42.8723895 316.572768,43.2587786 316.0938,43.2587786" id="Fill-27"></path>
                            <path d="M310.131906,36.2701759 C309.652938,36.2701759 309.262201,35.8795869 309.262201,35.4008004 C309.262201,34.922014 309.652938,34.5356249 310.131906,34.5356249 C310.610875,34.5356249 310.99741,34.922014 310.99741,35.4008004 C310.99741,35.8795869 310.610875,36.2701759 310.131906,36.2701759" id="Fill-28"></path>
                            <path d="M303.552396,29.9199552 C303.073428,29.9199552 302.682691,29.5293662 302.682691,29.0505797 C302.682691,28.5717933 303.073428,28.1812043 303.552396,28.1812043 C304.031364,28.1812043 304.422101,28.5717933 304.422101,29.0505797 C304.422101,29.5293662 304.031364,29.9199552 303.552396,29.9199552" id="Fill-29"></path>
                            <path d="M296.338463,24.2291159 C295.855293,24.2291159 295.468757,23.8427268 295.468757,23.3597404 C295.468757,22.8809539 295.855293,22.4945649 296.338463,22.4945649 C296.817431,22.4945649 297.203967,22.8809539 297.203967,23.3597404 C297.203967,23.8427268 296.817431,24.2291159 296.338463,24.2291159" id="Fill-30"></path>
                            <path d="M289.120328,18.5382766 C288.64136,18.5382766 288.254824,18.1518875 288.254824,17.673101 C288.254824,17.1901146 288.64136,16.8037255 289.120328,16.8037255 C289.603498,16.8037255 289.990033,17.1901146 289.990033,17.673101 C289.990033,18.1518875 289.603498,18.5382766 289.120328,18.5382766" id="Fill-31"></path>
                            <path d="M281.183741,13.9940049 C280.704773,13.9940049 280.318237,13.6034159 280.318237,13.1246294 C280.318237,12.6458429 280.704773,12.255254 281.183741,12.255254 C281.666911,12.255254 282.053446,12.6458429 282.053446,13.1246294 C282.053446,13.6034159 281.666911,13.9940049 281.183741,13.9940049" id="Fill-32"></path>
                            <path d="M272.940446,9.93271955 C272.461478,9.93271955 272.070741,9.54633046 272.070741,9.06754398 C272.070741,8.58455761 272.461478,8.19816852 272.940446,8.19816852 C273.419414,8.19816852 273.810152,8.58455761 273.810152,9.06754398 C273.810152,9.54633046 273.419414,9.93271955 272.940446,9.93271955" id="Fill-33"></path>
                            <path d="M264.592115,6.1696258 C264.113146,6.1696258 263.722409,5.78323671 263.722409,5.30025035 C263.722409,4.82146386 264.113146,4.43507477 264.592115,4.43507477 C265.071083,4.43507477 265.46182,4.82146386 265.46182,5.30025035 C265.46182,5.78323671 265.071083,6.1696258 264.592115,6.1696258" id="Fill-34"></path>
                            <path d="M255.630368,4.13688319 C255.151399,4.13688319 254.760662,3.7504941 254.760662,3.27170762 C254.760662,2.78872126 255.151399,2.40233217 255.630368,2.40233217 C256.109336,2.40233217 256.500073,2.78872126 256.500073,3.27170762 C256.500073,3.7504941 256.109336,4.13688319 255.630368,4.13688319" id="Fill-35"></path>
                            <path d="M246.668621,2.10834047 C246.189652,2.10834047 245.798915,1.7177515 245.798915,1.23896502 C245.798915,0.760178536 246.189652,0.369589565 246.668621,0.369589565 C247.147589,0.369589565 247.538326,0.760178536 247.538326,1.23896502 C247.538326,1.7177515 247.147589,2.10834047 246.668621,2.10834047" id="Fill-36"></path>
                            <path d="M237.52621,1.73455102 C237.047242,1.73455102 236.656505,1.34816193 236.656505,0.865175572 C236.656505,0.38638909 237.047242,0 237.52621,0 C238.005178,0 238.395915,0.38638909 238.395915,0.865175572 C238.395915,1.34816193 238.005178,1.73455102 237.52621,1.73455102" id="Fill-37"></path>
                            <path d="M228.337583,1.81014889 C227.858615,1.81014889 227.467878,1.4237598 227.467878,0.944973318 C227.467878,0.466186837 227.858615,0.0755978655 228.337583,0.0755978655 C228.816552,0.0755978655 229.207289,0.466186837 229.207289,0.944973318 C229.207289,1.4237598 228.816552,1.81014889 228.337583,1.81014889" id="Fill-38"></path>
                            <path d="M219.253994,2.83491996 C218.775025,2.83491996 218.384288,2.44433098 218.384288,1.9655445 C218.384288,1.48675802 218.775025,1.09616905 219.253994,1.09616905 C219.732962,1.09616905 220.123699,1.48675802 220.123699,1.9655445 C220.123699,2.44433098 219.732962,2.83491996 219.253994,2.83491996" id="Fill-39"></path>
                            <path d="M210.275441,4.79626458 C209.796472,4.79626458 209.405735,4.4056756 209.405735,3.92688912 C209.405735,3.44810264 209.796472,3.05751367 210.275441,3.05751367 C210.754409,3.05751367 211.145146,3.44810264 211.145146,3.92688912 C211.145146,4.4056756 210.754409,4.79626458 210.275441,4.79626458" id="Fill-40"></path>
                            <path d="M201.38932,7.05580078 C200.910352,7.05580078 200.519615,6.66521181 200.519615,6.18642532 C200.519615,5.70763884 200.910352,5.31704987 201.38932,5.31704987 C201.868288,5.31704987 202.259026,5.70763884 202.259026,6.18642532 C202.259026,6.66521181 201.868288,7.05580078 201.38932,7.05580078" id="Fill-41"></path>
                            <path d="M192.885534,10.5333026 C192.406566,10.5333026 192.015828,10.1427136 192.015828,9.66392714 C192.015828,9.18514065 192.406566,8.79455168 192.885534,8.79455168 C193.364502,8.79455168 193.751038,9.18514065 193.751038,9.66392714 C193.751038,10.1427136 193.364502,10.5333026 192.885534,10.5333026" id="Fill-42"></path>
                            <path d="M184.377546,14.0108044 C183.898578,14.0108044 183.512042,13.6202154 183.512042,13.1414289 C183.512042,12.6626425 183.898578,12.2762534 184.377546,12.2762534 C184.856514,12.2762534 185.247252,12.6626425 185.247252,13.1414289 C185.247252,13.6202154 184.856514,14.0108044 184.377546,14.0108044" id="Fill-43"></path>
                            <path d="M176.340124,18.4332795 C175.856954,18.4332795 175.470418,18.0426906 175.470418,17.5639041 C175.470418,17.0851176 175.856954,16.6945286 176.340124,16.6945286 C176.819092,16.6945286 177.205628,17.0851176 177.205628,17.5639041 C177.205628,18.0426906 176.819092,18.4332795 176.340124,18.4332795" id="Fill-44"></path>
                            <path d="M168.399335,23.0615489 C167.920367,23.0615489 167.533831,22.6751598 167.533831,22.1921734 C167.533831,21.7133869 167.920367,21.3269978 168.399335,21.3269978 C168.882505,21.3269978 169.269041,21.7133869 169.269041,22.1921734 C169.269041,22.6751598 168.882505,23.0615489 168.399335,23.0615489" id="Fill-45"></path>
                            <path d="M160.689628,28.0258087 C160.206458,28.0258087 159.819922,27.6394196 159.819922,27.1606331 C159.819922,26.6776467 160.206458,26.2912577 160.689628,26.2912577 C161.168596,26.2912577 161.555132,26.6776467 161.555132,27.1606331 C161.555132,27.6394196 161.168596,28.0258087 160.689628,28.0258087" id="Fill-46"></path>
                            <path d="M153.374859,33.5906516 C152.89169,33.5906516 152.505154,33.2000626 152.505154,32.7212761 C152.505154,32.2424896 152.89169,31.8519007 153.374859,31.8519007 C153.853827,31.8519007 154.240363,32.2424896 154.240363,32.7212761 C154.240363,33.2000626 153.853827,33.5906516 153.374859,33.5906516" id="Fill-47"></path>
                            <path d="M146.060091,39.1512946 C145.576921,39.1512946 145.190385,38.7607056 145.190385,38.2819191 C145.190385,37.8031326 145.576921,37.4125436 146.060091,37.4125436 C146.539059,37.4125436 146.925594,37.8031326 146.925594,38.2819191 C146.925594,38.7607056 146.539059,39.1512946 146.060091,39.1512946" id="Fill-48"></path>
                            <path d="M138.942791,44.9471309 C138.463823,44.9471309 138.077287,44.5607418 138.077287,44.0777555 C138.077287,43.598969 138.463823,43.2125799 138.942791,43.2125799 C139.425961,43.2125799 139.812497,43.598969 139.812497,44.0777555 C139.812497,44.5607418 139.425961,44.9471309 138.942791,44.9471309" id="Fill-49"></path>
                            <path d="M132.258244,51.246953 C131.775074,51.246953 131.388538,50.8605639 131.388538,50.3817775 C131.388538,49.8987911 131.775074,49.512402 132.258244,49.512402 C132.737212,49.512402 133.123748,49.8987911 133.123748,50.3817775 C133.123748,50.8605639 132.737212,51.246953 132.258244,51.246953" id="Fill-50"></path>
                            <path d="M125.569495,57.5467751 C125.090527,57.5467751 124.69979,57.1603861 124.69979,56.6815996 C124.69979,56.2028131 125.090527,55.8122241 125.569495,55.8122241 C126.048463,55.8122241 126.434999,56.2028131 126.434999,56.6815996 C126.434999,57.1603861 126.048463,57.5467751 125.569495,57.5467751" id="Fill-51"></path>
                            <path d="M119.010992,63.9767936 C118.532024,63.9767936 118.141286,63.5862046 118.141286,63.1074181 C118.141286,62.6286317 118.532024,62.2380427 119.010992,62.2380427 C119.48996,62.2380427 119.880697,62.6286317 119.880697,63.1074181 C119.880697,63.5862046 119.48996,63.9767936 119.010992,63.9767936" id="Fill-52"></path>
                            <path d="M112.885241,70.8226003 C112.406273,70.8226003 112.015535,70.4362112 112.015535,69.9532249 C112.015535,69.4744384 112.406273,69.0880493 112.885241,69.0880493 C113.364209,69.0880493 113.750745,69.4744384 113.750745,69.9532249 C113.750745,70.4362112 113.364209,70.8226003 112.885241,70.8226003" id="Fill-53"></path>
                            <path d="M106.755288,77.668407 C106.27632,77.668407 105.889784,77.2820179 105.889784,76.8032314 C105.889784,76.3202451 106.27632,75.933856 106.755288,75.933856 C107.238458,75.933856 107.624994,76.3202451 107.624994,76.8032314 C107.624994,77.2820179 107.238458,77.668407 106.755288,77.668407" id="Fill-54"></path>
                            <path d="M100.721969,84.5898116 C100.2388,84.5898116 99.8522643,84.2034225 99.8522643,83.724636 C99.8522643,83.2458495 100.2388,82.8552606 100.721969,82.8552606 C101.200938,82.8552606 101.587473,83.2458495 101.587473,83.724636 C101.587473,84.2034225 101.200938,84.5898116 100.721969,84.5898116" id="Fill-55"></path>
                            <path d="M95.1045973,91.8640062 C94.6256293,91.8640062 94.2348913,91.4734172 94.2348913,90.9946307 C94.2348913,90.5158443 94.6256293,90.1252553 95.1045973,90.1252553 C95.5835653,90.1252553 95.9743023,90.5158443 95.9743023,90.9946307 C95.9743023,91.4734172 95.5835653,91.8640062 95.1045973,91.8640062" id="Fill-56"></path>
                            <path d="M89.4872243,99.1340009 C89.0082563,99.1340009 88.6217203,98.7476118 88.6217203,98.2646255 C88.6217203,97.785839 89.0082563,97.3994499 89.4872243,97.3994499 C89.9661923,97.3994499 90.3569303,97.785839 90.3569303,98.2646255 C90.3569303,98.7476118 89.9661923,99.1340009 89.4872243,99.1340009" id="Fill-57"></path>
                            <path d="M83.9916943,106.492193 C83.5127263,106.492193 83.1219893,106.101604 83.1219893,105.622818 C83.1219893,105.144031 83.5127263,104.757642 83.9916943,104.757642 C84.4706633,104.757642 84.8614003,105.144031 84.8614003,105.622818 C84.8614003,106.101604 84.4706633,106.492193 83.9916943,106.492193" id="Fill-58"></path>
                            <path d="M78.8658943,114.119178 C78.3869263,114.119178 77.9961893,113.728589 77.9961893,113.249802 C77.9961893,112.771016 78.3869263,112.380427 78.8658943,112.380427 C79.3448633,112.380427 79.7356003,112.771016 79.7356003,113.249802 C79.7356003,113.728589 79.3448633,114.119178 78.8658943,114.119178" id="Fill-59"></path>
                            <path d="M73.7400943,121.741963 C73.2611263,121.741963 72.8703893,121.351374 72.8703893,120.872587 C72.8703893,120.393801 73.2611263,120.007412 73.7400943,120.007412 C74.2190633,120.007412 74.6098003,120.393801 74.6098003,120.872587 C74.6098003,121.351374 74.2190633,121.741963 73.7400943,121.741963" id="Fill-60"></path>
                            <path d="M68.7109283,129.431945 C68.2319603,129.431945 67.8454243,129.041356 67.8454243,128.56257 C67.8454243,128.083784 68.2319603,127.693195 68.7109283,127.693195 C69.1940983,127.693195 69.5806343,128.083784 69.5806343,128.56257 C69.5806343,129.041356 69.1940983,129.431945 68.7109283,129.431945" id="Fill-61"></path>
                            <path d="M63.7741953,137.176527 C63.2952273,137.176527 62.9044893,136.790138 62.9044893,136.311351 C62.9044893,135.828365 63.2952273,135.441976 63.7741953,135.441976 C64.2531633,135.441976 64.6396993,135.828365 64.6396993,136.311351 C64.6396993,136.790138 64.2531633,137.176527 63.7741953,137.176527" id="Fill-62"></path>
                            <path d="M58.8332603,144.925308 C58.3542923,144.925308 57.9635543,144.534719 57.9635543,144.055933 C57.9635543,143.577146 58.3542923,143.186557 58.8332603,143.186557 C59.3122283,143.186557 59.7029653,143.577146 59.7029653,144.055933 C59.7029653,144.534719 59.3122283,144.925308 58.8332603,144.925308" id="Fill-63"></path>
                            <path d="M53.7746833,152.590092 C53.2957153,152.590092 52.9049783,152.203702 52.9049783,151.724916 C52.9049783,151.24613 53.2957153,150.855541 53.7746833,150.855541 C54.2536523,150.855541 54.6443893,151.24613 54.6443893,151.724916 C54.6443893,152.203702 54.2536523,152.590092 53.7746833,152.590092" id="Fill-64"></path>
                            <path d="M48.5312423,160.137278 C48.0522743,160.137278 47.6657383,159.74669 47.6657383,159.267903 C47.6657383,158.789117 48.0522743,158.402727 48.5312423,158.402727 C49.0144123,158.402727 49.4009473,158.789117 49.4009473,159.267903 C49.4009473,159.74669 49.0144123,160.137278 48.5312423,160.137278" id="Fill-65"></path>
                            <path d="M43.2920023,167.684465 C42.8088333,167.684465 42.4222973,167.293876 42.4222973,166.81509 C42.4222973,166.336303 42.8088333,165.945714 43.2920023,165.945714 C43.7709703,165.945714 44.1575063,166.336303 44.1575063,166.81509 C44.1575063,167.293876 43.7709703,167.684465 43.2920023,167.684465" id="Fill-66"></path>
                            <path d="M37.9141143,175.126655 C37.4351453,175.126655 37.0486103,174.740266 37.0486103,174.26148 C37.0486103,173.782693 37.4351453,173.392104 37.9141143,173.392104 C38.3972833,173.392104 38.7838193,173.782693 38.7838193,174.26148 C38.7838193,174.740266 38.3972833,175.126655 37.9141143,175.126655" id="Fill-67"></path>
                            <path d="M32.1328843,182.270654 C31.6539153,182.270654 31.2673803,181.880065 31.2673803,181.401278 C31.2673803,180.922492 31.6539153,180.531903 32.1328843,180.531903 C32.6118523,180.531903 33.0025893,180.922492 33.0025893,181.401278 C33.0025893,181.880065 32.6118523,182.270654 32.1328843,182.270654" id="Fill-68"></path>
                            <path d="M26.3516537,189.410452 C25.8726855,189.410452 25.4819483,189.019863 25.4819483,188.541076 C25.4819483,188.06229 25.8726855,187.671701 26.3516537,187.671701 C26.8306219,187.671701 27.2213591,188.06229 27.2213591,188.541076 C27.2213591,189.019863 26.8306219,189.410452 26.3516537,189.410452" id="Fill-69"></path>
                            <path d="M20.4779911,196.466253 C19.9990229,196.466253 19.6124871,196.079864 19.6124871,195.601077 C19.6124871,195.118091 19.9990229,194.731702 20.4779911,194.731702 C20.9569593,194.731702 21.3476965,195.118091 21.3476965,195.601077 C21.3476965,196.079864 20.9569593,196.466253 20.4779911,196.466253" id="Fill-70"></path>
                            <path d="M13.9488983,202.93407 C13.4699301,202.93407 13.0833944,202.543481 13.0833944,202.064695 C13.0833944,201.585908 13.4699301,201.195319 13.9488983,201.195319 C14.432068,201.195319 14.8186037,201.585908 14.8186037,202.064695 C14.8186037,202.543481 14.432068,202.93407 13.9488983,202.93407" id="Fill-71"></path>
                            <path d="M7.4198055,209.397688 C6.9408373,209.397688 6.5543016,209.007099 6.5543016,208.528312 C6.5543016,208.049526 6.9408373,207.663137 7.4198055,207.663137 C7.9029752,207.663137 8.2895109,208.049526 8.2895109,208.528312 C8.2895109,209.007099 7.9029752,209.397688 7.4198055,209.397688" id="Fill-72"></path>
                            <path d="M0.8655039,215.831906 C0.3865357,215.831906 -1.42108547e-14,215.445517 -1.42108547e-14,214.96253 C-1.42108547e-14,214.483744 0.3865357,214.097355 0.8655039,214.097355 C1.3486736,214.097355 1.7352093,214.483744 1.7352093,214.96253 C1.7352093,215.445517 1.3486736,215.831906 0.8655039,215.831906" id="Fill-73"></path>
                        </g>
                    </g>
                    <path d="M373.762557,161.204245 C366.324192,159.589284 360.573524,156.146271 358.624434,148.39537 C357.982314,145.835413 357.340194,143.275457 356.692391,140.7155 C355.822972,146.658804 355.641132,154.863735 349.663165,158.07945 C346.918528,159.558031 343.889767,160.512119 340.792816,160.876366 C345.833174,162.566335 351.220164,165.685447 353.925024,170.407019 C356.470774,174.836511 355.476341,180.458755 357.749332,184.7155 C358.726718,180.066664 358.243708,175.645696 360.437144,171.153128 C363.63638,164.619983 367.69367,162.888531 374.467184,161.350285 C374.22852,161.30312 373.995538,161.254819 373.762557,161.204245" id="Fill-205-Copy-3" fill="#FFFFFF" fill-rule="nonzero"></path>
                    <path d="M218.762557,447.204245 C211.324192,445.589284 205.573524,442.146271 203.624434,434.39537 C202.982314,431.835413 202.340194,429.275457 201.692391,426.7155 C200.822972,432.658804 200.641132,440.863735 194.663165,444.07945 C191.918528,445.558031 188.889767,446.512119 185.792816,446.876366 C190.833174,448.566335 196.220164,451.685447 198.925024,456.407019 C201.470774,460.836511 200.476341,466.458755 202.749332,470.7155 C203.726718,466.066664 203.243708,461.645696 205.437144,457.153128 C208.63638,450.619983 212.69367,448.888531 219.467184,447.350285 C219.22852,447.30312 218.995538,447.254819 218.762557,447.204245" id="Fill-205-Copy-4" fill="#FFFFFF" fill-rule="nonzero"></path>
                    <g id="Group-67" stroke-width="1" fill="none" fill-rule="evenodd" transform="translate(161.453546, 696.500000) scale(-1, 1) translate(-161.453546, -696.500000) translate(72.000001, 641.000000)">
                        <g id="Group-44" stroke-linecap="round" stroke-linejoin="round" transform="translate(18.000000, 29.628603)" stroke="#231F20" stroke-width="0.50193">
                            <path d="M11.3934101,1.87348172 C9.60152078,1.90964513 7.7933308,2.43237087 6.10993687,3.49360274 C0.440394443,7.06654821 -1.66048222,15.3854489 1.41751262,22.0743657 C2.89005333,25.2744992 4.57100545,28.917799 6.4135127,32.9043224 C9.03719972,38.5800062 12.9101672,43.2266763 17.6138106,46.3413327 C22.0128222,49.2547889 27.025783,50.7637897 32.110414,50.7052707 C32.1824142,50.7046132 32.2549425,50.7032981 32.3268767,50.7019831 C37.3359438,50.6007255 42.2239764,48.9806045 46.4786576,46.0099443 C51.09301,42.7881127 54.8335921,38.0546504 57.2965159,32.3204477 C58.4969603,29.5260019 60.5949332,28.9756605 61.7386221,28.8967585 C62.882971,28.8165414 65.0251604,29.074288 66.5272007,31.681999 L70.2440247,38.138155 C73.1642921,43.2095809 77.157634,47.2565959 81.7931048,49.8412938 C86.1513977,52.2721328 91.0145504,53.3820209 95.8565847,53.0519476 C100.698619,52.7218742 105.404044,50.9590721 109.463381,47.9548785 C113.780097,44.7593476 117.299597,40.2001272 119.64109,34.7703547 L121.316037,30.8870614 C122.517141,28.1011633 124.611154,27.5521369 125.752204,27.4725774 C126.892593,27.3930179 129.032802,27.6481344 130.535503,30.2466401 L139.580082,45.879756 C143.219692,52.1702178 150.487693,53.8357074 155.814129,49.6006427 C161.141225,45.3649205 162.509296,36.8323269 158.869686,30.5418651 L149.825106,14.9087493 C146.899559,9.85113122 142.903577,5.81726658 138.270746,3.24440393 C133.913114,0.824085148 129.052601,-0.275940206 124.216506,0.0587357686 C119.380411,0.395384293 114.681585,2.16081649 110.627528,5.16566758 C106.317412,8.35988346 102.803191,12.9151588 100.464338,18.3390136 L98.7893911,22.2216494 C97.5863069,25.0114926 95.4896539,25.5585464 94.3472849,25.6367909 C93.204256,25.7150354 91.0633865,25.4559738 89.5633259,22.8508929 L85.845842,16.3947369 C82.9229348,11.3193659 78.9256332,7.26972086 74.2862027,4.68568043 C69.9226303,2.25549889 65.055518,1.14626831 60.2101839,1.48291683 C55.3648498,1.8175928 50.6581047,3.58697011 46.5981081,6.59971139 C42.2813919,9.8031325 38.764466,14.3715582 36.4279881,19.8111934 C35.1585792,22.7667308 32.9410898,23.228965 31.7240807,23.2447454 C30.5117573,23.2592107 28.2760534,22.8456327 26.9233591,19.9190261 C25.0878473,15.9482831 23.4141546,12.3201062 21.9485434,9.13509559 C19.7845097,4.43253652 15.6361461,1.78734704 11.3934101,1.87348172 Z" id="Stroke-6-Copy"></path>
                        </g>
                        <g id="Group-2" fill-rule="nonzero">
                            <path d="M110.991546,55.5151712 C110.991546,86.0814119 86.1770628,110.860265 55.5664239,110.860265 C24.955785,110.860265 0.139902371,86.0814119 0.139902371,55.5151712 C0.139902371,24.9487909 24.955785,0.169937321 55.5664239,0.169937321 C86.1770628,0.169937321 110.991546,24.9487909 110.991546,55.5151712" id="Fill-115" fill="#FFFFFF"></path>
                            <path d="M55.5664239,0.309671901 C25.0816972,0.309671901 0.279804743,25.0746917 0.279804743,55.5151712 C0.279804743,85.955511 25.0816972,110.720531 55.5664239,110.720531 C86.0511506,110.720531 110.851644,85.955511 110.851644,55.5151712 C110.851644,25.0746917 86.0511506,0.309671901 55.5664239,0.309671901 Z M55.5664239,111 C48.0648587,111 40.7871374,109.532927 33.9375173,106.639722 C27.3201351,103.84517 21.3784814,99.8444296 16.2748429,94.7488684 C11.1726034,89.6533072 7.16579947,83.7194783 4.36635301,77.1124081 C1.4689749,70.2718415 0,63.0055036 0,55.5151712 C0,48.0248388 1.4689749,40.7583612 4.36635301,33.9177946 C7.16579947,27.3107245 11.1726034,21.3768955 16.2748429,16.2813344 C21.3784814,11.1857732 27.3201351,7.18517216 33.9375173,4.39048057 C40.7871374,1.49727609 48.0648587,0.0302027413 55.5664239,0.0302027413 C63.0679891,0.0302027413 70.3443114,1.49727609 77.1953305,4.39048057 C83.8113137,7.18517216 89.7543664,11.1857732 94.8566059,16.2813344 C99.9602444,21.3768955 103.967048,27.3107245 106.765096,33.9177946 C109.662474,40.7583612 111.131449,48.0248388 111.131449,55.5151712 C111.131449,63.0055036 109.662474,70.2718415 106.765096,77.1124081 C103.967048,83.7194783 99.9602444,89.6533072 94.8566059,94.7488684 C89.7543664,99.8444296 83.8113137,103.84517 77.1953305,106.639722 C70.3443114,109.532927 63.0679891,111 55.5664239,111 L55.5664239,111 Z" id="Fill-116" fill="#000000"></path>
                            <path d="M55.5664239,98.6536115 C44.0258773,98.6536115 33.1778474,94.1664547 25.0173421,86.0185313 C16.8582358,77.8707477 12.3645716,67.0378244 12.3645716,55.5151712 C12.3645716,43.9923783 16.8582358,33.159455 25.0173421,25.0116714 C33.1778474,16.8638878 44.0258773,12.376731 55.5664239,12.376731 C67.1055715,12.376731 77.9550004,16.8638878 86.1141067,25.0116714 C94.273213,33.159455 98.7668772,43.9923783 98.7668772,55.5151712 C98.7668772,67.0378244 94.273213,77.8707477 86.1141067,86.018671 C77.9550004,94.1664547 67.1055715,98.6536115 55.5664239,98.6536115" id="Fill-117" fill="#CCD8E1"></path>
                            <path d="M55.5664239,84.858874 C47.7165018,84.858874 40.3366517,81.8065119 34.7867247,76.2642192 C29.2367976,70.7219266 26.1799308,63.3531633 26.1799308,55.5151712 C26.1799308,47.6771792 29.2367976,40.3082761 34.7867247,34.7659835 C40.3366517,29.2236909 47.7165018,26.1713287 55.5664239,26.1713287 C63.4149469,26.1713287 70.794797,29.2236909 76.3461231,34.7659835 C81.8960502,40.3082761 84.952917,47.6771792 84.952917,55.5151712 C84.952917,63.3531633 81.8960502,70.7219266 76.3461231,76.2642192 C70.794797,81.8065119 63.4149469,84.858874 55.5664239,84.858874" id="Fill-118" fill="#FFFFFF"></path>
                            <path d="M55.5664239,71.6419391 C51.2518348,71.6419391 47.196065,69.9644255 44.1461933,66.9184911 C41.0963216,63.8725567 39.4160941,59.8227691 39.4160941,55.5151712 C39.4160941,51.2074336 41.0963216,47.157646 44.1461933,44.1117117 C47.196065,41.0657773 51.2518348,39.3882637 55.5664239,39.3882637 C59.879614,39.3882637 63.9353838,41.0657773 66.9866545,44.1117117 C70.0365262,47.157646 71.7167537,51.2074336 71.7167537,55.5151712 C71.7167537,59.8227691 70.0365262,63.8725567 66.9866545,66.9186308 C63.9353838,69.9644255 59.879614,71.6419391 55.5664239,71.6419391" id="Fill-119" fill="#CCD8E1"></path>
                            <polyline id="Fill-120" fill="#000000" points="70.6283132 47.4691144 56.279926 55.1262899 69.3328172 45.4280114 70.6283132 47.4691144"></polyline>
                            <path d="M119.3689,15.1679292 L106.94557,23.0363834 L106.777687,14.3282641 C106.703539,10.4039582 108.683157,6.72460699 112.003041,4.62230023 L119.080702,0.139754652 L119.3689,15.1679292" id="Fill-121" fill="#FFFFFF"></path>
                            <path d="M118.944996,0.390717957 L112.077189,4.74023622 C108.821661,6.80271862 106.84484,10.475642 106.917589,14.3256092 L107.079876,22.7854201 L119.227599,15.0920534 L118.944996,0.390717957 Z M106.94557,23.176118 C106.923185,23.176118 106.899402,23.1705286 106.878417,23.1594896 C106.835047,23.1354552 106.805667,23.0894826 106.805667,23.0390384 L106.637785,14.3309191 C106.562237,10.3841159 108.589423,6.61868817 111.927493,4.50422451 L119.005154,0.021678932 C119.048524,-0.00528984191 119.101687,-0.00724612603 119.146456,0.0166484871 C119.191224,0.0405431002 119.219205,0.0866555115 119.220604,0.13695996 L119.508803,15.1652743 C119.508803,15.2140416 119.485019,15.2598746 119.443049,15.2860049 L107.019718,23.1544591 C106.997334,23.1688518 106.970752,23.176118 106.94557,23.176118 L106.94557,23.176118 Z" id="Fill-122" fill="#000000"></path>
                            <path d="M119.3689,15.1679292 L106.94557,23.0363834 L114.763314,26.8986472 C118.286056,28.6390414 122.463541,28.418121 125.783424,26.3158143 L132.861085,21.8332687 L119.3689,15.1679292" id="Fill-123" fill="#FFFFFF"></path>
                            <path d="M107.229572,23.0212921 L114.824871,26.7733053 C118.281859,28.4808618 122.452349,28.2603607 125.707877,26.1977385 L132.575684,21.8482203 L119.377295,15.3280651 L107.229572,23.0212921 Z M119.745238,28.194406 C118.017443,28.194406 116.286851,27.806922 114.701757,27.0238494 L106.882614,23.1615856 C106.837845,23.1392281 106.808465,23.0940938 106.805274,23.0437893 C106.802869,22.9933452 106.828052,22.9454162 106.870023,22.9183077 L119.293353,15.0499932 C119.333925,15.0238629 119.387088,15.0210682 119.430457,15.042727 L132.922642,21.7080665 C132.967411,21.730424 132.998189,21.7754186 133,21.8258627 C133.002386,21.8763069 132.978603,21.9242359 132.935233,21.9512047 L125.857572,26.4337502 C124.013659,27.6023505 121.881547,28.194406 119.745238,28.194406 L119.745238,28.194406 Z" id="Fill-124" fill="#000000"></path>
                            <path d="M116.437946,19.3912672 L79.0658252,43.0614666 L76.9211219,39.6854791 L114.293242,16.0150003 C115.065503,15.526069 116.08819,15.7546747 116.577848,16.5255904 L116.948589,17.1092617 C117.438248,17.8804569 117.210207,18.9021961 116.437946,19.3912672" id="Fill-125" fill="#FFFFFF"></path>
                            <path d="M77.1141871,39.7286571 L79.109195,42.8686328 L116.362398,19.2733312 L116.437946,19.3912672 L116.362398,19.2733312 C116.705159,19.0567426 116.941594,18.7202617 117.029733,18.3256513 C117.117871,17.9310408 117.04792,17.5256708 116.831071,17.1842992 L116.46033,16.6003484 C116.012643,15.8959464 115.075297,15.6859253 114.36879,16.133076 L77.1141871,39.7286571 Z M79.0658252,43.2012011 C79.0196574,43.2012011 78.9734897,43.1781449 78.9469082,43.1362246 L76.8036039,39.7603768 C76.7826185,39.7290763 76.7770224,39.6910685 76.7854166,39.655017 C76.7924117,39.6188257 76.8147961,39.5873854 76.8469736,39.5675431 L114.219094,15.8970643 C115.054311,15.3676099 116.166535,15.616058 116.696765,16.4506927 L117.067506,17.0345037 C117.323528,17.4388956 117.407469,17.9191634 117.302542,18.3867153 C117.197616,18.8541274 116.917811,19.2527902 116.512094,19.5093429 L79.1399735,43.1794025 C79.1175891,43.1942144 79.0910077,43.2012011 79.0658252,43.2012011 L79.0658252,43.2012011 Z" id="Fill-126" fill="#000000"></path>
                            <path d="M89.0506575,38.2755572 L73.4221636,48.1735164 C72.149052,48.9800644 70.4618294,48.6030605 69.6545927,47.3313361 L69.0418203,46.3681457 C68.2345836,45.0961418 68.61232,43.4105235 69.8854316,42.6036961 L85.5125265,32.7062958 L89.0506575,38.2755572" id="Fill-127" fill="#FFFFFF"></path>
                            <path d="M85.4691568,32.8991295 L69.9609789,42.7216321 C69.376187,43.091789 68.9704701,43.667216 68.8193755,44.3419942 C68.668281,45.0166328 68.789996,45.7095766 69.1607373,46.2933877 L69.7721107,47.2564384 C70.5373767,48.4609505 72.1406578,48.8195094 73.3480153,48.0554407 L88.8575922,38.2323792 L85.4691568,32.8991295 Z M71.9643809,48.736507 C71.0144438,48.736507 70.082694,48.2657412 69.5356757,47.4060941 L68.9243023,46.4430434 C68.5129894,45.796212 68.3800821,45.0283705 68.5465659,44.2809302 C68.7144488,43.5333502 69.1635354,42.8957413 69.8112834,42.4856204 L85.4369792,32.5883598 C85.5027333,32.5469984 85.5894728,32.5662817 85.6300445,32.6315378 L89.1681755,38.2006595 C89.1877618,38.23196 89.1947569,38.2698281 89.1863628,38.3060193 C89.1779686,38.3422106 89.1569833,38.3736509 89.1248057,38.3934932 L73.4977108,48.2915921 C73.0220428,48.5927202 72.4904138,48.736507 71.9643809,48.736507 L71.9643809,48.736507 Z" id="Fill-128" fill="#000000"></path>
                        </g>
                    </g>
                    <g id="Group" stroke-width="1" fill="none" fill-rule="evenodd" transform="translate(25.000000, 230.000000)">
                        <polyline id="Fill-240" stroke="#000000" stroke-width="0.3" fill="#CCD8E1" fill-rule="nonzero" points="115.336965 48.1980983 106.177019 28.7380129 86.1448942 20.9233235 133 0 115.336965 48.1980983"></polyline>
                        <path d="M106.177019,28.9383742 C106.126954,28.9383742 106.078891,28.920542 106.040841,28.884477 C105.958734,28.8089408 105.954729,28.6821122 106.030828,28.6011662 L123.561691,9.81810146 C123.63779,9.73735588 123.763955,9.73314829 123.844059,9.80848412 C123.926166,9.88402031 123.930172,10.010849 123.854072,10.0917949 L106.32321,28.8746593 C106.283157,28.9169355 106.229087,28.9383742 106.177019,28.9383742" id="Fill-241" fill="#000000" fill-rule="nonzero"></path>
                        <path d="M57.6957924,99.0433694 C47.172068,101.848026 38.0491704,110.033985 34.5015438,120.362006 C33.6668552,122.791786 32.0952055,128.864736 35.5176689,132.768774 C37.5198801,135.052492 41.0126352,136.079944 44.4164743,135.386093 C47.2982325,134.798233 50.085868,133.125217 52.6992762,130.413328 C59.0996232,123.76995 61.7270498,113.394444 59.3920045,103.980671 C58.9734587,102.297036 58.4027143,100.644857 57.6957924,99.0433694 Z M42.3051207,136 C39.5166842,136 36.8794449,134.929871 35.2164761,133.033051 C31.6558325,128.971328 33.2655318,122.72747 34.1226496,120.23157 C37.7055222,109.801365 46.9077232,101.529251 57.5295756,98.6737029 C54.443551,91.9287421 48.9043271,86.1008347 41.9829005,82.5093595 C33.8082396,78.2675117 23.9531872,77.0681493 14.2323097,79.1326716 C9.52457017,80.1324741 3.29925145,82.4222024 0.375037851,87.6522318 C0.320967335,87.7486056 0.199208544,87.7832681 0.102482399,87.7291705 C0.00595651554,87.675073 -0.0284884056,87.553053 0.0255821101,87.4564789 C3.02289103,82.0954132 9.36035601,79.7577986 14.1492014,78.740765 C23.9601963,76.6572084 33.910573,77.8691936 42.1673411,82.153518 C49.1886979,85.7968867 54.8040211,91.7187635 57.9220875,98.5705168 C59.642331,98.131325 61.3966188,97.8343896 63.1689302,97.6929346 C68.167449,97.2942157 73.2240435,98.0303429 78.1124186,98.7422264 C79.4741946,98.9407844 80.8820306,99.145754 82.2658353,99.3226729 C88.1354902,100.073427 94.9563856,100.49118 101.044325,97.896702 C106.479413,95.5797246 111.646151,89.8201404 111.003313,83.2947756 C110.422556,77.4077616 105.626301,72.996809 101.176498,69.3247885 C96.6946526,65.6267211 91.6160293,61.435164 90.3684022,55.5854172 C89.5933915,51.9452542 90.4104571,47.7312566 92.6674005,43.7194235 C94.6880357,40.1319556 97.5357495,37.0966831 100.291343,34.161391 C100.367442,34.0806454 100.493607,34.0768385 100.573711,34.1525751 C100.655819,34.2283116 100.659824,34.3551403 100.583724,34.4356855 C97.8441517,37.3537466 95.0124587,40.3709865 93.0178575,43.9161783 C90.8069742,47.8428579 90.0059295,51.9572759 90.7609141,55.5018666 C91.978502,61.2147666 97.0010522,65.3592389 101.430829,69.0154308 C105.942713,72.7387437 110.805055,77.216617 111.401833,83.2553044 C112.064697,89.9730161 106.771795,95.891086 101.200529,98.2651663 C95.026477,100.897312 88.1374928,100.477555 82.21577,99.7201896 C80.8279601,99.5426696 79.4181215,99.3374997 78.0563455,99.1389417 C73.1879965,98.430264 68.1554333,97.6969418 63.200972,98.0924549 C61.4727181,98.2303035 59.7644903,98.5176215 58.0883043,98.9411851 C58.7932236,100.545077 59.3619653,102.198859 59.7805112,103.883897 C62.1475982,113.428505 59.482122,123.951277 52.9876523,130.691429 C50.3161683,133.462826 47.460444,135.174311 44.4965787,135.778601 C43.7656255,135.92767 43.030667,136 42.3051207,136 L42.3051207,136 Z" id="Fill-251" fill="#000000" fill-rule="nonzero"></path>
                    </g>
                    <path d="M608.764014,226 C604.767039,226 601.528028,229.350159 601.528028,233.482956 C601.528028,233.518969 601.518279,233.58464 601.501219,233.671025 C601.484158,233.58464 601.471972,233.518969 601.471972,233.482956 C601.471972,229.350159 598.232961,226 594.235986,226 C590.241449,226 587,229.350159 587,233.482956 C587,244.183553 601.471972,248 601.471972,248 C601.471972,248 601.484158,247.985877 601.501219,247.960927 C601.518279,247.985877 601.528028,248 601.528028,248 C601.528028,248 616,244.183553 616,233.482956 C616,229.350159 612.760988,226 608.764014,226" id="Fill-54-Copy" fill="#CCD8E1" fill-rule="nonzero"></path>
                </g>
            </g>
        </g>
    </g>
</svg>