<?xml version="1.0" encoding="UTF-8"?>
<svg width="654px" height="1009px" viewBox="0 0 654 1009" version="1.1" xmlns="http://www.w3.org/2000/svg" xmlns:xlink="http://www.w3.org/1999/xlink">
    <title>top_bg_right (1)</title>
    <defs>
        <rect id="path-1" x="0" y="0" width="654" height="1009"></rect>
    </defs>
    <g id="Page-1" stroke="none" stroke-width="1" fill="none" fill-rule="evenodd">
        <g id="top_bg_right-(1)">
            <mask id="mask-2" fill="white">
                <use xlink:href="#path-1"></use>
            </mask>
            <g id="path-1"></g>
            <g id="Group-79" mask="url(#mask-2)">
                <g transform="translate(36.000000, -194.000000)" id="Group">
                    <path d="M32.9697408,295.704245 C25.5313763,294.089284 19.780708,290.646271 17.8316178,282.89537 C17.1894977,280.335413 16.5473777,277.775457 15.8995751,275.2155 C15.0301559,281.158804 14.8483166,289.363735 8.87034908,292.57945 C6.12571192,294.058031 3.09695083,295.012119 0,295.376366 C5.04035851,297.066335 10.4273482,300.185447 13.132208,304.907019 C15.6779584,309.336511 14.6835247,314.958755 16.9565161,319.2155 C17.9339024,314.566664 17.4508918,310.145696 19.6443285,305.653128 C22.8435639,299.119983 26.9008537,297.388531 33.6743681,295.850285 C33.435704,295.80312 33.2027224,295.754819 32.9697408,295.704245" id="Fill-205-Copy" fill="#FFFFFF" fill-rule="nonzero"></path>
                    <g id="Group-47-Copy" transform="translate(437.707184, 601.500000) scale(-1, 1) translate(-437.707184, -601.500000) translate(139.207184, 0.000000)">
                        <ellipse id="Oval" fill="#A1B7C6" fill-rule="nonzero" opacity="0.1" cx="161" cy="388" rx="161" ry="388"></ellipse>
                        <ellipse id="Oval-Copy-4" fill="#A1B7C6" fill-rule="nonzero" opacity="0.1" cx="436" cy="900" rx="161" ry="303"></ellipse>
                        <g id="Group-2" transform="translate(119.127315, 690.218178)" fill="#738A99" fill-rule="nonzero">
                            <path d="M190.730177,254.433016 C190.247007,254.433016 189.860471,254.042427 189.860471,253.563641 C189.860471,253.084854 190.247007,252.694265 190.730177,252.694265 C191.209146,252.694265 191.595681,253.084854 191.595681,253.563641 C191.595681,254.042427 191.209146,254.433016 190.730177,254.433016" id="Fill-3"></path>
                            <path d="M192.293126,245.378072 C191.814157,245.378072 191.42342,244.991683 191.42342,244.512896 C191.42342,244.02991 191.814157,243.643521 192.293126,243.643521 C192.772095,243.643521 193.162832,244.02991 193.162832,244.512896 C193.162832,244.991683 192.772095,245.378072 192.293126,245.378072" id="Fill-4"></path>
                            <path d="M193.314085,236.251729 C192.835116,236.251729 192.444379,235.86114 192.444379,235.382354 C192.444379,234.903567 192.835116,234.512978 193.314085,234.512978 C193.793053,234.512978 194.183791,234.903567 194.183791,235.382354 C194.183791,235.86114 193.793053,236.251729 193.314085,236.251729" id="Fill-5"></path>
                            <path d="M194.301432,227.116987 C193.822463,227.116987 193.431725,226.730598 193.431725,226.247612 C193.431725,225.768825 193.822463,225.382436 194.301432,225.382436 C194.7804,225.382436 195.171137,225.768825 195.171137,226.247612 C195.171137,226.730598 194.7804,227.116987 194.301432,227.116987" id="Fill-6"></path>
                            <path d="M195.292979,217.986445 C194.809809,217.986445 194.423274,217.595856 194.423274,217.11707 C194.423274,216.638283 194.809809,216.247694 195.292979,216.247694 C195.771947,216.247694 196.158483,216.638283 196.158483,217.11707 C196.158483,217.595856 195.771947,217.986445 195.292979,217.986445" id="Fill-7"></path>
                            <path d="M196.057648,208.834903 C195.578679,208.834903 195.187942,208.448514 195.187942,207.965528 C195.187942,207.486742 195.578679,207.100352 196.057648,207.100352 C196.536617,207.100352 196.927354,207.486742 196.927354,207.965528 C196.927354,208.448514 196.536617,208.834903 196.057648,208.834903" id="Fill-8"></path>
                            <path d="M196.372759,199.653963 C195.89379,199.653963 195.503053,199.267574 195.503053,198.784587 C195.503053,198.305801 195.89379,197.919412 196.372759,197.919412 C196.851727,197.919412 197.242465,198.305801 197.242465,198.784587 C197.242465,199.267574 196.851727,199.653963 196.372759,199.653963" id="Fill-9"></path>
                            <path d="M196.687869,190.473022 C196.208901,190.473022 195.822365,190.086633 195.822365,189.603646 C195.822365,189.12486 196.208901,188.738471 196.687869,188.738471 C197.171039,188.738471 197.557574,189.12486 197.557574,189.603646 C197.557574,190.086633 197.171039,190.473022 196.687869,190.473022" id="Fill-10"></path>
                            <path d="M197.007181,181.292081 C196.528213,181.292081 196.137476,180.905692 196.137476,180.422706 C196.137476,179.943919 196.528213,179.55753 197.007181,179.55753 C197.486149,179.55753 197.872685,179.943919 197.872685,180.422706 C197.872685,180.905692 197.486149,181.292081 197.007181,181.292081" id="Fill-11"></path>
                            <path d="M196.788705,172.11534 C196.309737,172.11534 195.923201,171.724751 195.923201,171.245965 C195.923201,170.767178 196.309737,170.376589 196.788705,170.376589 C197.271875,170.376589 197.658411,170.767178 197.658411,171.245965 C197.658411,171.724751 197.271875,172.11534 196.788705,172.11534" id="Fill-12"></path>
                            <path d="M196.364355,162.938599 C195.885387,162.938599 195.49465,162.54801 195.49465,162.069224 C195.49465,161.590437 195.885387,161.199848 196.364355,161.199848 C196.843324,161.199848 197.234061,161.590437 197.234061,162.069224 C197.234061,162.54801 196.843324,162.938599 196.364355,162.938599" id="Fill-13"></path>
                            <path d="M195.935805,153.761858 C195.456837,153.761858 195.070301,153.37127 195.070301,152.892483 C195.070301,152.413697 195.456837,152.023108 195.935805,152.023108 C196.418975,152.023108 196.80551,152.413697 196.80551,152.892483 C196.80551,153.37127 196.418975,153.761858 195.935805,153.761858" id="Fill-14"></path>
                            <path d="M194.969465,144.635516 C194.490497,144.635516 194.103962,144.244927 194.103962,143.766141 C194.103962,143.287354 194.490497,142.896765 194.969465,142.896765 C195.448434,142.896765 195.839171,143.287354 195.839171,143.766141 C195.839171,144.244927 195.448434,144.635516 194.969465,144.635516" id="Fill-15"></path>
                            <path d="M193.72583,135.534373 C193.246861,135.534373 192.856123,135.143784 192.856123,134.664998 C192.856123,134.186211 193.246861,133.795622 193.72583,133.795622 C194.204798,133.795622 194.595535,134.186211 194.595535,134.664998 C194.595535,135.143784 194.204798,135.534373 193.72583,135.534373" id="Fill-16"></path>
                            <path d="M192.482192,126.42903 C192.003224,126.42903 191.612487,126.042641 191.612487,125.563855 C191.612487,125.080868 192.003224,124.694479 192.482192,124.694479 C192.96116,124.694479 193.351897,125.080868 193.351897,125.563855 C193.351897,126.042641 192.96116,126.42903 192.482192,126.42903" id="Fill-17"></path>
                            <path d="M190.583126,117.453884 C190.104158,117.453884 189.713421,117.067495 189.713421,116.584508 C189.713421,116.105722 190.104158,115.719333 190.583126,115.719333 C191.062093,115.719333 191.452831,116.105722 191.452831,116.584508 C191.452831,117.067495 191.062093,117.453884 190.583126,117.453884" id="Fill-18"></path>
                            <path d="M188.368949,108.537535 C187.88998,108.537535 187.499243,108.151146 187.499243,107.67236 C187.499243,107.189373 187.88998,106.802984 188.368949,106.802984 C188.847916,106.802984 189.234453,107.189373 189.234453,107.67236 C189.234453,108.151146 188.847916,108.537535 188.368949,108.537535" id="Fill-19"></path>
                            <path d="M186.154771,99.6211872 C185.6716,99.6211872 185.285066,99.2347981 185.285066,98.7560116 C185.285066,98.2772251 185.6716,97.8866361 186.154771,97.8866361 C186.633739,97.8866361 187.020274,98.2772251 187.020274,98.7560116 C187.020274,99.2347981 186.633739,99.6211872 186.154771,99.6211872" id="Fill-20"></path>
                            <path d="M183.058284,90.986231 C182.579316,90.986231 182.188578,90.5998419 182.188578,90.1168555 C182.188578,89.638069 182.579316,89.25168 183.058284,89.25168 C183.537252,89.25168 183.927989,89.638069 183.927989,90.1168555 C183.927989,90.5998419 183.537252,90.986231 183.058284,90.986231" id="Fill-21"></path>
                            <path d="M179.709708,82.4310725 C179.230739,82.4310725 178.844203,82.0446834 178.844203,81.565897 C178.844203,81.0829106 179.230739,80.6965215 179.709708,80.6965215 C180.188676,80.6965215 180.579413,81.0829106 180.579413,81.565897 C180.579413,82.0446834 180.188676,82.4310725 179.709708,82.4310725" id="Fill-22"></path>
                            <path d="M176.361132,73.8759141 C175.882164,73.8759141 175.495628,73.489525 175.495628,73.0107385 C175.495628,72.5277522 175.882164,72.1413631 176.361132,72.1413631 C176.8401,72.1413631 177.230837,72.5277522 177.230837,73.0107385 C177.230837,73.489525 176.8401,73.8759141 176.361132,73.8759141" id="Fill-23"></path>
                            <path d="M171.781523,65.9171388 C171.302555,65.9171388 170.91602,65.5265498 170.91602,65.0477634 C170.91602,64.5689769 171.302555,64.1783879 171.781523,64.1783879 C172.260492,64.1783879 172.651229,64.5689769 172.651229,65.0477634 C172.651229,65.5265498 172.260492,65.9171388 171.781523,65.9171388" id="Fill-24"></path>
                            <path d="M167.155699,57.9793629 C166.676731,57.9793629 166.290195,57.588774 166.290195,57.1099875 C166.290195,56.631201 166.676731,56.240612 167.155699,56.240612 C167.638869,56.240612 168.025405,56.631201 168.025405,57.1099875 C168.025405,57.588774 167.638869,57.9793629 167.155699,57.9793629" id="Fill-25"></path>
                            <path d="M162.239973,50.2473813 C161.756803,50.2473813 161.370268,49.8609922 161.370268,49.3822057 C161.370268,48.8992193 161.756803,48.5128302 162.239973,48.5128302 C162.718941,48.5128302 163.105477,48.8992193 163.105477,49.3822057 C163.105477,49.8609922 162.718941,50.2473813 162.239973,50.2473813" id="Fill-26"></path>
                            <path d="M156.273877,43.2587786 C155.794909,43.2587786 155.404172,42.8723895 155.404172,42.3894031 C155.404172,41.9106166 155.794909,41.5242276 156.273877,41.5242276 C156.752846,41.5242276 157.143583,41.9106166 157.143583,42.3894031 C157.143583,42.8723895 156.752846,43.2587786 156.273877,43.2587786" id="Fill-27"></path>
                            <path d="M150.311983,36.2701759 C149.833015,36.2701759 149.442278,35.8795869 149.442278,35.4008004 C149.442278,34.922014 149.833015,34.5356249 150.311983,34.5356249 C150.790953,34.5356249 151.177487,34.922014 151.177487,35.4008004 C151.177487,35.8795869 150.790953,36.2701759 150.311983,36.2701759" id="Fill-28"></path>
                            <path d="M143.732473,29.9199552 C143.253505,29.9199552 142.862768,29.5293662 142.862768,29.0505797 C142.862768,28.5717933 143.253505,28.1812043 143.732473,28.1812043 C144.211442,28.1812043 144.602179,28.5717933 144.602179,29.0505797 C144.602179,29.5293662 144.211442,29.9199552 143.732473,29.9199552" id="Fill-29"></path>
                            <path d="M136.518541,24.2291159 C136.03537,24.2291159 135.648834,23.8427268 135.648834,23.3597404 C135.648834,22.8809539 136.03537,22.4945649 136.518541,22.4945649 C136.997509,22.4945649 137.384044,22.8809539 137.384044,23.3597404 C137.384044,23.8427268 136.997509,24.2291159 136.518541,24.2291159" id="Fill-30"></path>
                            <path d="M129.300405,18.5382766 C128.821438,18.5382766 128.434901,18.1518875 128.434901,17.673101 C128.434901,17.1901146 128.821438,16.8037255 129.300405,16.8037255 C129.783575,16.8037255 130.17011,17.1901146 130.17011,17.673101 C130.17011,18.1518875 129.783575,18.5382766 129.300405,18.5382766" id="Fill-31"></path>
                            <path d="M121.363819,13.9940049 C120.884851,13.9940049 120.498315,13.6034159 120.498315,13.1246294 C120.498315,12.6458429 120.884851,12.255254 121.363819,12.255254 C121.846989,12.255254 122.233524,12.6458429 122.233524,13.1246294 C122.233524,13.6034159 121.846989,13.9940049 121.363819,13.9940049" id="Fill-32"></path>
                            <path d="M113.120523,9.93271955 C112.641555,9.93271955 112.250818,9.54633046 112.250818,9.06754398 C112.250818,8.58455761 112.641555,8.19816852 113.120523,8.19816852 C113.599491,8.19816852 113.990229,8.58455761 113.990229,9.06754398 C113.990229,9.54633046 113.599491,9.93271955 113.120523,9.93271955" id="Fill-33"></path>
                            <path d="M104.772192,6.1696258 C104.293223,6.1696258 103.902486,5.78323671 103.902486,5.30025035 C103.902486,4.82146386 104.293223,4.43507477 104.772192,4.43507477 C105.25116,4.43507477 105.641897,4.82146386 105.641897,5.30025035 C105.641897,5.78323671 105.25116,6.1696258 104.772192,6.1696258" id="Fill-34"></path>
                            <path d="M95.8104455,4.13688319 C95.3314765,4.13688319 94.9407395,3.7504941 94.9407395,3.27170762 C94.9407395,2.78872126 95.3314765,2.40233217 95.8104455,2.40233217 C96.2894135,2.40233217 96.6801505,2.78872126 96.6801505,3.27170762 C96.6801505,3.7504941 96.2894135,4.13688319 95.8104455,4.13688319" id="Fill-35"></path>
                            <path d="M86.8486975,2.10834047 C86.3697295,2.10834047 85.9789925,1.7177515 85.9789925,1.23896502 C85.9789925,0.760178536 86.3697295,0.369589565 86.8486975,0.369589565 C87.3276665,0.369589565 87.7184035,0.760178536 87.7184035,1.23896502 C87.7184035,1.7177515 87.3276665,2.10834047 86.8486975,2.10834047" id="Fill-36"></path>
                            <path d="M77.7062875,1.73455102 C77.2273195,1.73455102 76.8365825,1.34816193 76.8365825,0.865175572 C76.8365825,0.38638909 77.2273195,0 77.7062875,0 C78.1852555,0 78.5759925,0.38638909 78.5759925,0.865175572 C78.5759925,1.34816193 78.1852555,1.73455102 77.7062875,1.73455102" id="Fill-37"></path>
                            <path d="M68.5176605,1.81014889 C68.0386925,1.81014889 67.6479555,1.4237598 67.6479555,0.944973318 C67.6479555,0.466186837 68.0386925,0.0755978655 68.5176605,0.0755978655 C68.9966295,0.0755978655 69.3873665,0.466186837 69.3873665,0.944973318 C69.3873665,1.4237598 68.9966295,1.81014889 68.5176605,1.81014889" id="Fill-38"></path>
                            <path d="M59.4340705,2.83491996 C58.9551025,2.83491996 58.5643655,2.44433098 58.5643655,1.9655445 C58.5643655,1.48675802 58.9551025,1.09616905 59.4340705,1.09616905 C59.9130395,1.09616905 60.3037765,1.48675802 60.3037765,1.9655445 C60.3037765,2.44433098 59.9130395,2.83491996 59.4340705,2.83491996" id="Fill-39"></path>
                            <path d="M50.4555185,4.79626458 C49.9765495,4.79626458 49.5858125,4.4056756 49.5858125,3.92688912 C49.5858125,3.44810264 49.9765495,3.05751367 50.4555185,3.05751367 C50.9344865,3.05751367 51.3252235,3.44810264 51.3252235,3.92688912 C51.3252235,4.4056756 50.9344865,4.79626458 50.4555185,4.79626458" id="Fill-40"></path>
                            <path d="M41.5693975,7.05580078 C41.0904295,7.05580078 40.6996925,6.66521181 40.6996925,6.18642532 C40.6996925,5.70763884 41.0904295,5.31704987 41.5693975,5.31704987 C42.0483655,5.31704987 42.4391025,5.70763884 42.4391025,6.18642532 C42.4391025,6.66521181 42.0483655,7.05580078 41.5693975,7.05580078" id="Fill-41"></path>
                            <path d="M33.0656115,10.5333026 C32.5866435,10.5333026 32.1959055,10.1427136 32.1959055,9.66392714 C32.1959055,9.18514065 32.5866435,8.79455168 33.0656115,8.79455168 C33.5445795,8.79455168 33.9311155,9.18514065 33.9311155,9.66392714 C33.9311155,10.1427136 33.5445795,10.5333026 33.0656115,10.5333026" id="Fill-42"></path>
                            <path d="M24.5576235,14.0108044 C24.0786555,14.0108044 23.6921195,13.6202154 23.6921195,13.1414289 C23.6921195,12.6626425 24.0786555,12.2762534 24.5576235,12.2762534 C25.0365915,12.2762534 25.4273295,12.6626425 25.4273295,13.1414289 C25.4273295,13.6202154 25.0365915,14.0108044 24.5576235,14.0108044" id="Fill-43"></path>
                            <path d="M16.5202012,18.4332795 C16.0370316,18.4332795 15.6504958,18.0426906 15.6504958,17.5639041 C15.6504958,17.0851176 16.0370316,16.6945286 16.5202012,16.6945286 C16.9991694,16.6945286 17.3857052,17.0851176 17.3857052,17.5639041 C17.3857052,18.0426906 16.9991694,18.4332795 16.5202012,18.4332795" id="Fill-44"></path>
                            <path d="M8.5794127,23.0615489 C8.1004445,23.0615489 7.7139088,22.6751598 7.7139088,22.1921734 C7.7139088,21.7133869 8.1004445,21.3269978 8.5794127,21.3269978 C9.0625824,21.3269978 9.4491181,21.7133869 9.4491181,22.1921734 C9.4491181,22.6751598 9.0625824,23.0615489 8.5794127,23.0615489" id="Fill-45"></path>
                            <path d="M0.8697054,28.0258087 C0.3865357,28.0258087 -1.42108547e-14,27.6394196 -1.42108547e-14,27.1606331 C-1.42108547e-14,26.6776467 0.3865357,26.2912577 0.8697054,26.2912577 C1.3486736,26.2912577 1.7352093,26.6776467 1.7352093,27.1606331 C1.7352093,27.6394196 1.3486736,28.0258087 0.8697054,28.0258087" id="Fill-46"></path>
                        </g>
                        <g id="Group-2" transform="translate(215.830086, 1001.405098) rotate(180.000000) translate(-215.830086, -1001.405098) translate(124.660170, 948.159001)" fill="#738A99" fill-rule="nonzero">
                            <path d="M181.470126,6.1696258 C180.991157,6.1696258 180.60042,5.78323671 180.60042,5.30025035 C180.60042,4.82146386 180.991157,4.43507477 181.470126,4.43507477 C181.949094,4.43507477 182.339831,4.82146386 182.339831,5.30025035 C182.339831,5.78323671 181.949094,6.1696258 181.470126,6.1696258" id="Fill-34"></path>
                            <path d="M172.508379,4.13688319 C172.02941,4.13688319 171.638673,3.7504941 171.638673,3.27170762 C171.638673,2.78872126 172.02941,2.40233217 172.508379,2.40233217 C172.987347,2.40233217 173.378084,2.78872126 173.378084,3.27170762 C173.378084,3.7504941 172.987347,4.13688319 172.508379,4.13688319" id="Fill-35"></path>
                            <path d="M163.546631,2.10834047 C163.067663,2.10834047 162.676926,1.7177515 162.676926,1.23896502 C162.676926,0.760178536 163.067663,0.369589565 163.546631,0.369589565 C164.0256,0.369589565 164.416337,0.760178536 164.416337,1.23896502 C164.416337,1.7177515 164.0256,2.10834047 163.546631,2.10834047" id="Fill-36"></path>
                            <path d="M154.404221,1.73455102 C153.925253,1.73455102 153.534516,1.34816193 153.534516,0.865175572 C153.534516,0.38638909 153.925253,0 154.404221,0 C154.883189,0 155.273926,0.38638909 155.273926,0.865175572 C155.273926,1.34816193 154.883189,1.73455102 154.404221,1.73455102" id="Fill-37"></path>
                            <path d="M145.215594,1.81014889 C144.736626,1.81014889 144.345889,1.4237598 144.345889,0.944973318 C144.345889,0.466186837 144.736626,0.0755978655 145.215594,0.0755978655 C145.694563,0.0755978655 146.0853,0.466186837 146.0853,0.944973318 C146.0853,1.4237598 145.694563,1.81014889 145.215594,1.81014889" id="Fill-38"></path>
                            <path d="M136.132004,2.83491996 C135.653036,2.83491996 135.262299,2.44433098 135.262299,1.9655445 C135.262299,1.48675802 135.653036,1.09616905 136.132004,1.09616905 C136.610973,1.09616905 137.00171,1.48675802 137.00171,1.9655445 C137.00171,2.44433098 136.610973,2.83491996 136.132004,2.83491996" id="Fill-39"></path>
                            <path d="M127.153452,4.79626458 C126.674483,4.79626458 126.283746,4.4056756 126.283746,3.92688912 C126.283746,3.44810264 126.674483,3.05751367 127.153452,3.05751367 C127.63242,3.05751367 128.023157,3.44810264 128.023157,3.92688912 C128.023157,4.4056756 127.63242,4.79626458 127.153452,4.79626458" id="Fill-40"></path>
                            <path d="M118.267331,7.05580078 C117.788363,7.05580078 117.397626,6.66521181 117.397626,6.18642532 C117.397626,5.70763884 117.788363,5.31704987 118.267331,5.31704987 C118.746299,5.31704987 119.137036,5.70763884 119.137036,6.18642532 C119.137036,6.66521181 118.746299,7.05580078 118.267331,7.05580078" id="Fill-41"></path>
                            <path d="M109.763545,10.5333026 C109.284577,10.5333026 108.893839,10.1427136 108.893839,9.66392714 C108.893839,9.18514065 109.284577,8.79455168 109.763545,8.79455168 C110.242513,8.79455168 110.629049,9.18514065 110.629049,9.66392714 C110.629049,10.1427136 110.242513,10.5333026 109.763545,10.5333026" id="Fill-42"></path>
                            <path d="M101.255557,14.0108044 C100.776589,14.0108044 100.390053,13.6202154 100.390053,13.1414289 C100.390053,12.6626425 100.776589,12.2762534 101.255557,12.2762534 C101.734525,12.2762534 102.125263,12.6626425 102.125263,13.1414289 C102.125263,13.6202154 101.734525,14.0108044 101.255557,14.0108044" id="Fill-43"></path>
                            <path d="M93.2181347,18.4332795 C92.7349651,18.4332795 92.3484293,18.0426906 92.3484293,17.5639041 C92.3484293,17.0851176 92.7349651,16.6945286 93.2181347,16.6945286 C93.6971029,16.6945286 94.0836387,17.0851176 94.0836387,17.5639041 C94.0836387,18.0426906 93.6971029,18.4332795 93.2181347,18.4332795" id="Fill-44"></path>
                            <path d="M85.2773462,23.0615489 C84.798378,23.0615489 84.4118423,22.6751598 84.4118423,22.1921734 C84.4118423,21.7133869 84.798378,21.3269978 85.2773462,21.3269978 C85.7605159,21.3269978 86.1470516,21.7133869 86.1470516,22.1921734 C86.1470516,22.6751598 85.7605159,23.0615489 85.2773462,23.0615489" id="Fill-45"></path>
                            <path d="M77.5676389,28.0258087 C77.0844692,28.0258087 76.6979335,27.6394196 76.6979335,27.1606331 C76.6979335,26.6776467 77.0844692,26.2912577 77.5676389,26.2912577 C78.0466071,26.2912577 78.4331428,26.6776467 78.4331428,27.1606331 C78.4331428,27.6394196 78.0466071,28.0258087 77.5676389,28.0258087" id="Fill-46"></path>
                            <path d="M70.2528702,33.5906516 C69.7697005,33.5906516 69.3831648,33.2000626 69.3831648,32.7212761 C69.3831648,32.2424896 69.7697005,31.8519007 70.2528702,31.8519007 C70.7318384,31.8519007 71.1183741,32.2424896 71.1183741,32.7212761 C71.1183741,33.2000626 70.7318384,33.5906516 70.2528702,33.5906516" id="Fill-47"></path>
                            <path d="M62.9381015,39.1512946 C62.4549318,39.1512946 62.0683961,38.7607056 62.0683961,38.2819191 C62.0683961,37.8031326 62.4549318,37.4125436 62.9381015,37.4125436 C63.4170697,37.4125436 63.8036055,37.8031326 63.8036055,38.2819191 C63.8036055,38.7607056 63.4170697,39.1512946 62.9381015,39.1512946" id="Fill-48"></path>
                            <path d="M55.8208022,44.9471309 C55.341834,44.9471309 54.9552983,44.5607418 54.9552983,44.0777555 C54.9552983,43.598969 55.341834,43.2125799 55.8208022,43.2125799 C56.3039719,43.2125799 56.6905076,43.598969 56.6905076,44.0777555 C56.6905076,44.5607418 56.3039719,44.9471309 55.8208022,44.9471309" id="Fill-49"></path>
                            <path d="M49.1362548,51.246953 C48.6530852,51.246953 48.2665494,50.8605639 48.2665494,50.3817775 C48.2665494,49.8987911 48.6530852,49.512402 49.1362548,49.512402 C49.615223,49.512402 50.0017588,49.8987911 50.0017588,50.3817775 C50.0017588,50.8605639 49.615223,51.246953 49.1362548,51.246953" id="Fill-50"></path>
                            <path d="M42.447506,57.5467751 C41.9685378,57.5467751 41.5778006,57.1603861 41.5778006,56.6815996 C41.5778006,56.2028131 41.9685378,55.8122241 42.447506,55.8122241 C42.9264742,55.8122241 43.3130099,56.2028131 43.3130099,56.6815996 C43.3130099,57.1603861 42.9264742,57.5467751 42.447506,57.5467751" id="Fill-51"></path>
                            <path d="M35.8890029,63.9767936 C35.4100347,63.9767936 35.0192975,63.5862046 35.0192975,63.1074181 C35.0192975,62.6286317 35.4100347,62.2380427 35.8890029,62.2380427 C36.3679711,62.2380427 36.7587083,62.6286317 36.7587083,63.1074181 C36.7587083,63.5862046 36.3679711,63.9767936 35.8890029,63.9767936" id="Fill-52"></path>
                            <path d="M29.7632517,70.8226003 C29.2842836,70.8226003 28.8935463,70.4362112 28.8935463,69.9532249 C28.8935463,69.4744384 29.2842836,69.0880493 29.7632517,69.0880493 C30.2422199,69.0880493 30.6287557,69.4744384 30.6287557,69.9532249 C30.6287557,70.4362112 30.2422199,70.8226003 29.7632517,70.8226003" id="Fill-53"></path>
                            <path d="M23.6332991,77.668407 C23.1543309,77.668407 22.7677952,77.2820179 22.7677952,76.8032314 C22.7677952,76.3202451 23.1543309,75.933856 23.6332991,75.933856 C24.1164688,75.933856 24.5030045,76.3202451 24.5030045,76.8032314 C24.5030045,77.2820179 24.1164688,77.668407 23.6332991,77.668407" id="Fill-54"></path>
                            <path d="M17.5999805,84.5898116 C17.1168108,84.5898116 16.7302751,84.2034225 16.7302751,83.724636 C16.7302751,83.2458495 17.1168108,82.8552606 17.5999805,82.8552606 C18.0789487,82.8552606 18.4654844,83.2458495 18.4654844,83.724636 C18.4654844,84.2034225 18.0789487,84.5898116 17.5999805,84.5898116" id="Fill-55"></path>
                            <path d="M11.9826078,91.8640062 C11.5036397,91.8640062 11.1129024,91.4734172 11.1129024,90.9946307 C11.1129024,90.5158443 11.5036397,90.1252553 11.9826078,90.1252553 C12.461576,90.1252553 12.8523133,90.5158443 12.8523133,90.9946307 C12.8523133,91.4734172 12.461576,91.8640062 11.9826078,91.8640062" id="Fill-56"></path>
                            <path d="M6.36523523,99.1340009 C5.88626704,99.1340009 5.4997313,98.7476118 5.4997313,98.2646255 C5.4997313,97.785839 5.88626704,97.3994499 6.36523523,97.3994499 C6.84420343,97.3994499 7.23494064,97.785839 7.23494064,98.2646255 C7.23494064,98.7476118 6.84420343,99.1340009 6.36523523,99.1340009" id="Fill-57"></path>
                            <path d="M0.869705408,106.492193 C0.390737212,106.492193 0,106.101604 0,105.622818 C0,105.144031 0.390737212,104.757642 0.869705408,104.757642 C1.3486736,104.757642 1.73941082,105.144031 1.73941082,105.622818 C1.73941082,106.101604 1.3486736,106.492193 0.869705408,106.492193" id="Fill-58"></path>
                        </g>
                        <g id="Group-3" transform="translate(262.831361, 288.124822) scale(-1, 1) translate(-262.831361, -288.124822) translate(121.662721, 194.031467)" fill="#738A99" fill-rule="nonzero">
                            <path d="M3.74055586,9.63167241 C3.32633105,9.78758521 2.86107856,9.57710291 2.70499385,9.16153551 C2.54890914,8.74626791 2.75902317,8.28302715 3.1762496,8.12741423 C3.59347603,7.97150148 4.0557269,8.18198369 4.21181161,8.59755113 C4.36789632,9.01281874 4.15778229,9.47605951 3.74055586,9.63167241" id="Fill-94"></path>
                            <path d="M1.08711581,1.55599175 C0.669889376,1.71160467 0.207638508,1.50112246 0.0515537992,1.08585485 C-0.104530909,0.67028741 0.105583122,0.20704665 0.522809554,0.0514337383 C0.937034358,-0.10447901 1.40228686,0.1060032 1.55837156,0.52157064 C1.71445627,0.93683825 1.50434224,1.400079 1.08711581,1.55599175" id="Fill-95"></path>
                            <path d="M281.814469,184.605952 C281.397243,184.761865 280.934992,184.551383 280.778907,184.135815 C280.622823,183.720548 280.832937,183.257307 281.250163,183.101694 C281.664388,182.945781 282.12964,183.156264 282.285725,183.571831 C282.44181,183.987099 282.231696,184.450339 281.814469,184.605952" id="Fill-124"></path>
                            <path d="M273.496955,186.398049 C273.079729,186.553962 272.617478,186.34348 272.461393,185.927913 C272.305309,185.512345 272.515423,185.049404 272.932649,184.893491 C273.346874,184.737879 273.812126,184.948361 273.968211,185.363628 C274.124296,185.779196 273.91118,186.242437 273.496955,186.398049" id="Fill-125"></path>
                            <path d="M265.119409,187.731103 C264.702182,187.886716 264.239931,187.676234 264.083847,187.260967 C263.927762,186.845399 264.137876,186.382458 264.555102,186.226545 C264.969327,186.070933 265.43458,186.281415 265.587663,186.696682 C265.743748,187.11225 265.533633,187.575191 265.119409,187.731103" id="Fill-126"></path>
                            <path d="M256.618795,188.135277 C256.20457,188.29119 255.739318,188.080708 255.583233,187.66514 C255.427149,187.249873 255.637263,186.786632 256.054489,186.631019 C256.468714,186.475106 256.933966,186.685589 257.090051,187.101156 C257.246136,187.516424 257.036022,187.979664 256.618795,188.135277" id="Fill-127"></path>
                            <path d="M248.142195,187.914601 C247.724969,188.070214 247.262718,187.859731 247.106633,187.444464 C246.950548,187.028896 247.160662,186.565955 247.577889,186.410043 C247.992114,186.25413 248.457366,186.464912 248.613451,186.88018 C248.769535,187.295747 248.55642,187.758688 248.142195,187.914601" id="Fill-128"></path>
                            <path d="M239.692609,186.907165 C239.275383,187.063077 238.813132,186.852595 238.657047,186.437028 C238.500963,186.02176 238.711077,185.558519 239.128303,185.402906 C239.542528,185.246994 240.00778,185.457476 240.163865,185.873043 C240.31995,186.288311 240.109836,186.751552 239.692609,186.907165" id="Fill-129"></path>
                            <path d="M231.411115,185.094079 C230.99689,185.249992 230.531638,185.03951 230.375553,184.624242 C230.219468,184.208675 230.429582,183.745434 230.846809,183.589821 C231.264035,183.433908 231.726286,183.64439 231.882371,184.059958 C232.038455,184.475525 231.828341,184.938466 231.411115,185.094079" id="Fill-130"></path>
                            <path d="M223.261692,182.646849 C222.847467,182.802462 222.382215,182.591979 222.22613,182.176712 C222.070045,181.761144 222.283161,181.298203 222.697386,181.142291 C223.114612,180.986378 223.576863,181.19686 223.732948,181.612428 C223.889033,182.027695 223.678919,182.490936 223.261692,182.646849" id="Fill-131"></path>
                            <path d="M215.514488,179.210172 C215.097261,179.365785 214.63501,179.155602 214.478926,178.740035 C214.322841,178.324468 214.532955,177.861527 214.950181,177.705614 C215.364406,177.550001 215.829659,177.760483 215.985743,178.175751 C216.141828,178.591318 215.931714,179.054259 215.514488,179.210172" id="Fill-132"></path>
                            <path d="M207.953384,175.310554 C207.539159,175.466167 207.073907,175.255685 206.917822,174.840417 C206.761737,174.42485 206.971851,173.961909 207.389078,173.805996 C207.803303,173.650084 208.268555,173.860566 208.42464,174.276133 C208.580725,174.691401 208.370611,175.154642 207.953384,175.310554" id="Fill-133"></path>
                            <path d="M201.061644,170.363623 C200.647419,170.519236 200.182167,170.308753 200.026082,169.893486 C199.869997,169.477918 200.080111,169.014977 200.497338,168.859065 C200.914564,168.703152 201.376815,168.913934 201.5329,169.329202 C201.688984,169.744769 201.47887,170.20771 201.061644,170.363623" id="Fill-134"></path>
                            <path d="M194.337995,165.153738 C193.92377,165.309651 193.458518,165.099169 193.302433,164.683601 C193.146348,164.268334 193.359464,163.805093 193.773689,163.64948 C194.190915,163.493567 194.653166,163.70405 194.809251,164.119617 C194.965335,164.534885 194.755221,164.998125 194.337995,165.153738" id="Fill-135"></path>
                            <path d="M188.160642,159.328598 C187.743416,159.484211 187.281165,159.273729 187.12508,158.858461 C186.968996,158.442894 187.17911,157.979953 187.596336,157.82404 C188.010561,157.668127 188.475813,157.87861 188.631898,158.294177 C188.787983,158.709744 188.577869,159.172685 188.160642,159.328598" id="Fill-136"></path>
                            <path d="M182.163388,153.298073 C181.749163,153.453686 181.28391,153.243204 181.127826,152.827636 C180.971741,152.412369 181.184857,151.949128 181.599081,151.793515 C182.016308,151.637602 182.478559,151.848084 182.634643,152.263652 C182.790728,152.678919 182.580614,153.14216 182.163388,153.298073" id="Fill-137"></path>
                            <path d="M176.427275,147.024984 C176.010048,147.180596 175.547797,146.970114 175.391713,146.554847 C175.235628,146.139279 175.445742,145.676338 175.862968,145.520426 C176.277193,145.364513 176.742446,145.575295 176.89853,145.990562 C177.054615,146.40613 176.844501,146.869071 176.427275,147.024984" id="Fill-138"></path>
                            <path d="M170.805223,140.644854 C170.387997,140.800767 169.925746,140.590285 169.769661,140.174717 C169.613577,139.759449 169.823691,139.296209 170.240917,139.140596 C170.655142,138.984683 171.120395,139.195165 171.276479,139.610733 C171.432564,140.026 171.219448,140.489241 170.805223,140.644854" id="Fill-139"></path>
                            <path d="M165.156158,134.289311 C164.738931,134.444924 164.27668,134.234441 164.120596,133.819174 C163.964511,133.403606 164.174625,132.940665 164.58885,132.784753 C165.006076,132.62914 165.468327,132.839622 165.624412,133.25489 C165.780496,133.670457 165.570382,134.133398 165.156158,134.289311" id="Fill-140"></path>
                            <path d="M159.489082,127.948459 C159.071856,128.104372 158.609605,127.89389 158.45352,127.478322 C158.297435,127.062755 158.507549,126.599814 158.924776,126.443901 C159.339001,126.288288 159.804253,126.49877 159.957336,126.914038 C160.113421,127.329606 159.903307,127.792546 159.489082,127.948459" id="Fill-141"></path>
                            <path d="M153.572871,121.845075 C153.158646,122.000688 152.693394,121.790205 152.540311,121.374938 C152.384226,120.95937 152.59434,120.49643 153.008565,120.340517 C153.425791,120.184904 153.888042,120.395386 154.044127,120.810654 C154.200212,121.226221 153.990098,121.689162 153.572871,121.845075" id="Fill-142"></path>
                            <path d="M147.45255,115.939879 C147.038325,116.095792 146.573072,115.88531 146.419989,115.469743 C146.263905,115.054175 146.474019,114.591234 146.888243,114.435321 C147.30547,114.279709 147.767721,114.490191 147.923805,114.905458 C148.07989,115.321026 147.869776,115.783967 147.45255,115.939879" id="Fill-143"></path>
                            <path d="M140.972033,110.464344 C140.554806,110.620256 140.092555,110.409774 139.936471,109.994207 C139.780386,109.578939 139.9905,109.115698 140.407726,108.960086 C140.821951,108.804173 141.287204,109.014655 141.443288,109.430222 C141.599373,109.84549 141.389259,110.308731 140.972033,110.464344" id="Fill-144"></path>
                            <path d="M134.098302,105.456246 C133.681076,105.612159 133.215823,105.401677 133.06274,104.986109 C132.906656,104.570542 133.11677,104.107601 133.530994,103.951688 C133.948221,103.796075 134.410472,104.006558 134.566556,104.421825 C134.722641,104.837393 134.512527,105.300334 134.098302,105.456246" id="Fill-145"></path>
                            <path d="M127.22157,100.448149 C126.804344,100.603762 126.342093,100.39328 126.186008,99.9780124 C126.029923,99.5624454 126.240038,99.0995041 126.657264,98.9435914 C127.071489,98.7876786 127.536741,98.9981609 127.692826,99.4137284 C127.848911,99.8292954 127.638797,100.292236 127.22157,100.448149" id="Fill-146"></path>
                            <path d="M119.840564,96.2289106 C119.423338,96.3848233 118.961087,96.1743411 118.805002,95.7587737 C118.648918,95.3432062 118.859032,94.8802653 119.273257,94.7243526 C119.690483,94.5687397 120.152734,94.7792219 120.308819,95.1944895 C120.464903,95.6100569 120.254789,96.0729978 119.840564,96.2289106" id="Fill-147"></path>
                            <path d="M112.420538,92.0678392 C112.003311,92.223752 111.54106,92.0132698 111.384976,91.5977023 C111.228891,91.1821349 111.439005,90.719194 111.85323,90.5632812 C112.270456,90.4076683 112.732707,90.6181505 112.888792,91.0334181 C113.044876,91.4489855 112.834762,91.9119265 112.420538,92.0678392" id="Fill-148"></path>
                            <path d="M104.910462,88.0758732 C104.496237,88.231786 104.030984,88.0213038 103.8749,87.6057363 C103.718815,87.1904687 103.928929,86.727228 104.346155,86.571615 C104.763382,86.4157023 105.225633,86.6261845 105.381717,87.0417519 C105.537802,87.4570195 105.327688,87.9202603 104.910462,88.0758732" id="Fill-149"></path>
                            <path d="M97.2563078,84.36485 C96.8390813,84.5204629 96.3768305,84.3099807 96.2207457,83.8947131 C96.064661,83.4791457 96.2747751,83.0162047 96.6920015,82.860292 C97.1062263,82.7043792 97.5714788,82.9148614 97.7275635,83.3304289 C97.8836482,83.7459963 97.6705326,84.2089372 97.2563078,84.36485" id="Fill-150"></path>
                            <path d="M89.5991521,80.6535269 C89.1849273,80.8094397 88.7196748,80.5986576 88.5665918,80.18339 C88.4105071,79.7678226 88.6206211,79.3048817 89.0348459,79.1489689 C89.4520723,78.993356 89.9143232,79.2038382 90.0704079,79.6191058 C90.2264926,80.0346733 90.0163786,80.4976142 89.5991521,80.6535269" id="Fill-151"></path>
                            <path d="M81.9389949,76.956296 C81.5217685,77.1122087 81.0595176,76.9017265 80.9034329,76.4861591 C80.7473482,76.0708915 80.9574622,75.6076507 81.3746886,75.4520378 C81.7889134,75.2961251 82.2541659,75.5066073 82.4102507,75.9218749 C82.5663354,76.3374423 82.3532197,76.8003832 81.9389949,76.956296" id="Fill-152"></path>
                            <path d="M74.275836,73.262663 C73.8586096,73.4182759 73.3963587,73.2077937 73.240274,72.7925261 C73.0841893,72.3769587 73.2943033,71.9140178 73.7115298,71.758105 C74.1257546,71.6024921 74.5910071,71.8129743 74.7440902,72.2282419 C74.9001749,72.6438094 74.6900608,73.1067503 74.275836,73.262663" id="Fill-153"></path>
                            <path d="M66.6577016,69.4802797 C66.2404752,69.6358927 65.7782243,69.4254104 65.6221396,69.0101428 C65.4660549,68.5945754 65.6761689,68.1316345 66.0933953,67.9757217 C66.5076201,67.819809 66.9728726,68.0302912 67.1289573,68.4458586 C67.2820404,68.8611262 67.0719264,69.324367 66.6577016,69.4802797" id="Fill-154"></path>
                            <path d="M59.186647,65.4085584 C58.7724222,65.5641713 58.3071697,65.3536891 58.151085,64.9384215 C57.9950003,64.522854 58.2081159,64.0599131 58.6223407,63.9040004 C59.0395672,63.7483874 59.501818,63.9588696 59.6579027,64.3741373 C59.8139874,64.7897047 59.6038734,65.2526456 59.186647,65.4085584" id="Fill-155"></path>
                            <path d="M51.7786266,61.2354937 C51.3644018,61.3911066 50.8991493,61.1806244 50.7430646,60.7653568 C50.5869799,60.3497894 50.7970939,59.8868484 51.2143203,59.7309357 C51.6315468,59.575023 52.0937976,59.7855052 52.2498823,60.2010726 C52.405967,60.61664 52.195853,61.079581 51.7786266,61.2354937" id="Fill-156"></path>
                            <path d="M44.6737707,56.5590108 C44.2565443,56.7146237 43.7942934,56.5041415 43.6382087,56.0888739 C43.482124,55.6733064 43.692238,55.2103655 44.1094645,55.0544528 C44.5236893,54.8988399 44.9889418,55.1093221 45.1450265,55.5245897 C45.3011112,55.9401571 45.0909971,56.403098 44.6737707,56.5590108" id="Fill-157"></path>
                            <path d="M37.6229442,51.8081695 C37.2087193,51.9640822 36.7434669,51.7536 36.5873821,51.3380326 C36.4312974,50.922765 36.6414115,50.4595242 37.0586379,50.3039113 C37.4758643,50.1479985 37.9381152,50.3584807 38.0941999,50.7740482 C38.2502846,51.1893158 38.0401706,51.6525565 37.6229442,51.8081695" id="Fill-158"></path>
                            <path d="M31.1064076,46.3437275 C30.6891811,46.4993404 30.2269303,46.2888582 30.0708456,45.8735906 C29.9147608,45.4580232 30.1248749,44.9950822 30.5421013,44.8391695 C30.9563261,44.6832567 31.4215786,44.8937389 31.5776633,45.3093064 C31.733748,45.7248738 31.5206324,46.1878147 31.1064076,46.3437275" id="Fill-159"></path>
                            <path d="M24.6288922,40.8376088 C24.2146674,40.9935216 23.7494149,40.7830394 23.5933301,40.3674719 C23.4372454,39.9522043 23.6473595,39.4889636 24.0645859,39.3333507 C24.4788107,39.1774379 24.9440632,39.3879201 25.1001479,39.8034876 C25.2562326,40.2187552 25.0461186,40.6819959 24.6288922,40.8376088" id="Fill-160"></path>
                            <path d="M19.0278524,34.4385899 C18.6136276,34.5945026 18.1483751,34.3840204 17.9922904,33.968453 C17.8362057,33.5531854 18.0463197,33.0899446 18.4635462,32.9343317 C18.8807726,32.778419 19.3430235,32.9889012 19.4991082,33.4044686 C19.6551929,33.8197362 19.4450789,34.282977 19.0278524,34.4385899" id="Fill-161"></path>
                            <path d="M13.4598306,28.0176832 C13.0426042,28.1732961 12.5803533,27.9628139 12.4242686,27.5475463 C12.2681839,27.1319788 12.4782979,26.6690379 12.8925227,26.5131252 C13.3097491,26.3575122 13.772,26.5679944 13.9280847,26.9832621 C14.0841694,27.3988295 13.8740554,27.8617704 13.4598306,28.0176832" id="Fill-162"></path>
                            <path d="M9.20352066,20.657702 C8.78629423,20.8136147 8.32104173,20.6031325 8.16795865,20.1875651 C8.01187394,19.7719976 8.22198797,19.3090567 8.63621278,19.153144 C9.05343921,18.9975311 9.51569008,19.2080133 9.67177479,19.6232809 C9.82785949,20.0388483 9.61774546,20.5017892 9.20352066,20.657702" id="Fill-163"></path>
                            <path d="M4.94420909,13.2977208 C4.52998429,13.4536335 4.06473179,13.2431513 3.90864708,12.8275839 C3.755564,12.4120165 3.96567803,11.9490755 4.37990284,11.7931628 C4.79712927,11.6375499 5.25938014,11.8480321 5.41546485,12.2632997 C5.57154955,12.6788671 5.36143552,13.1421079 4.94420909,13.2977208" id="Fill-164"></path>
                        </g>
                        <path d="M249.502557,711.704245 C242.064192,710.089284 236.313524,706.646271 234.364434,698.89537 C233.722314,696.335413 233.080194,693.775457 232.432391,691.2155 C231.562972,697.158804 231.381132,705.363735 225.403165,708.57945 C222.658528,710.058031 219.629767,711.012119 216.532816,711.376366 C221.573174,713.066335 226.960164,716.185447 229.665024,720.907019 C232.210774,725.336511 231.216341,730.958755 233.489332,735.2155 C234.466718,730.566664 233.983708,726.145696 236.177144,721.653128 C239.37638,715.119983 243.43367,713.388531 250.207184,711.850285 C249.96852,711.80312 249.735538,711.754819 249.502557,711.704245" id="Fill-205" fill="#FFFFFF" fill-rule="nonzero" transform="translate(233.370000, 713.215500) scale(-1, 1) translate(-233.370000, -713.215500) "></path>
                        <path d="M266.502557,339.704245 C259.064192,338.089284 253.313524,334.646271 251.364434,326.89537 C250.722314,324.335413 250.080194,321.775457 249.432391,319.2155 C248.562972,325.158804 248.381132,333.363735 242.403165,336.57945 C239.658528,338.058031 236.629767,339.012119 233.532816,339.376366 C238.573174,341.066335 243.960164,344.185447 246.665024,348.907019 C249.210774,353.336511 248.216341,358.958755 250.489332,363.2155 C251.466718,358.566664 250.983708,354.145696 253.177144,349.653128 C256.37638,343.119983 260.43367,341.388531 267.207184,339.850285 C266.96852,339.80312 266.735538,339.754819 266.502557,339.704245" id="Fill-205-Copy-2" fill="#FFFFFF" fill-rule="nonzero" transform="translate(250.370000, 341.215500) scale(-1, 1) translate(-250.370000, -341.215500) "></path>
                        <path d="M288.764014,821.5 C284.767039,821.5 281.528028,824.850159 281.528028,828.982956 C281.528028,829.018969 281.518279,829.08464 281.501219,829.171025 C281.484158,829.08464 281.471972,829.018969 281.471972,828.982956 C281.471972,824.850159 278.232961,821.5 274.235986,821.5 C270.241449,821.5 267,824.850159 267,828.982956 C267,839.683553 281.471972,843.5 281.471972,843.5 C281.471972,843.5 281.484158,843.485877 281.501219,843.460927 C281.518279,843.485877 281.528028,843.5 281.528028,843.5 C281.528028,843.5 296,839.683553 296,828.982956 C296,824.850159 292.760988,821.5 288.764014,821.5" id="Fill-54" fill="#CCD8E1" fill-rule="nonzero" transform="translate(281.500000, 832.500000) scale(-1, 1) translate(-281.500000, -832.500000) "></path>
                        <g id="Group-77-Copy" transform="translate(203.000000, 870.000000) scale(-1, 1) translate(-203.000000, -870.000000) translate(156.000000, 812.500000)">
                            <path d="M59.6547629,76.0122479 L1.99226608,76.0122479 C0.891851914,76.0122479 0,75.1279957 0,74.0381721 L0,33.2337194 C0,32.1438957 0.891851914,31.2596435 1.99226608,31.2596435 L59.6547629,31.2596435 C60.7551771,31.2596435 61.647029,32.1438957 61.647029,33.2337194 L61.647029,74.0381721 C61.647029,75.1279957 60.7551771,76.0122479 59.6547629,76.0122479" id="Fill-19" fill="#FFFFFF" fill-rule="nonzero"></path>
                            <path d="M59.6547629,76.0122479 L1.99226608,76.0122479 C0.891851914,76.0122479 0,75.1279957 0,74.0381721 L0,33.2337194 C0,32.1438957 0.891851914,31.2596435 1.99226608,31.2596435 L59.6547629,31.2596435 C60.7551771,31.2596435 61.647029,32.1438957 61.647029,33.2337194 L61.647029,74.0381721 C61.647029,75.1279957 60.7551771,76.0122479 59.6547629,76.0122479 Z" id="Stroke-20" stroke="#231F20" stroke-width="0.752895" stroke-linecap="round" stroke-linejoin="round"></path>
                            <path d="M4.69662328,68.6618399 L57.5373595,68.6618399 L48.1063731,51.3151525 C46.8371228,48.9810808 44.1953343,48.5837082 42.5139253,50.4751621 L32.1742034,62.1042098 L18.216423,44.1722831 C16.3363832,41.756573 13.0748669,42.5542688 12.0737681,45.6742332 L4.69662328,68.6618399 Z" id="Stroke-21" stroke="#0C0B0B" stroke-width="0.752895" stroke-linecap="round" stroke-linejoin="round"></path>
                            <path d="M64.3513862,72.6198276 L6.68888936,72.6198276 C5.58847519,72.6198276 4.69662328,71.7355754 4.69662328,70.6457517 L4.69662328,29.841299 C4.69662328,28.7512787 5.58847519,27.8678133 6.68888936,27.8678133 L64.3513862,27.8678133 C65.4518004,27.8678133 66.3436523,28.7512787 66.3436523,29.841299 L66.3436523,70.6457517 C66.3436523,71.7355754 65.4518004,72.6198276 64.3513862,72.6198276" id="Fill-23" fill="#FFFFFF" fill-rule="nonzero"></path>
                            <path d="M64.3513862,72.6198276 L6.68888936,72.6198276 C5.58847519,72.6198276 4.69662328,71.7355754 4.69662328,70.6457517 L4.69662328,29.841299 C4.69662328,28.7512787 5.58847519,27.8678133 6.68888936,27.8678133 L64.3513862,27.8678133 C65.4518004,27.8678133 66.3436523,28.7512787 66.3436523,29.841299 L66.3436523,70.6457517 C66.3436523,71.7355754 65.4518004,72.6198276 64.3513862,72.6198276 Z" id="Stroke-24" stroke="#231F20" stroke-width="0.752895" stroke-linecap="round" stroke-linejoin="round"></path>
                            <path d="M9.39423971,65.2694196 L62.2339828,65.2694196 L52.8029964,47.9227322 C51.5337461,45.5886604 48.8929507,45.1912879 47.2115417,47.0827418 L36.8708266,58.7117895 L22.9130462,40.7798628 C21.0339997,38.3641527 17.7714902,39.1618485 16.7703913,42.2818129 L9.39423971,65.2694196 Z" id="Stroke-25" stroke="#0C0B0B" stroke-width="0.752895" stroke-linecap="round" stroke-linejoin="round"></path>
                            <path d="M41.4889908,42.1873877 C41.4889908,44.1939222 40.0002536,45.8207889 38.1629194,45.8207889 C36.3245922,45.8207889 34.835855,44.1939222 34.835855,42.1873877 C34.835855,40.1808532 36.3245922,38.5539866 38.1629194,38.5539866 C40.0002536,38.5539866 41.4889908,40.1808532 41.4889908,42.1873877" id="Fill-26" fill="#231F20" fill-rule="nonzero"></path>
                            <path d="M69.1254754,69.1860962 L11.4629786,69.1860962 C10.3625644,69.1860962 9.47071253,68.3028276 9.47071253,67.213004 L9.47071253,26.4079611 C9.47071253,25.3181375 10.3625644,24.4346722 11.4629786,24.4346722 L69.1254754,24.4346722 C70.2258896,24.4346722 71.1177415,25.3181375 71.1177415,26.4079611 L71.1177415,67.213004 C71.1177415,68.3028276 70.2258896,69.1860962 69.1254754,69.1860962" id="Fill-27" fill="#FFFFFF" fill-rule="nonzero"></path>
                            <path d="M69.1254754,69.1860962 L11.4629786,69.1860962 C10.3625644,69.1860962 9.47071253,68.3028276 9.47071253,67.213004 L9.47071253,26.4079611 C9.47071253,25.3181375 10.3625644,24.4346722 11.4629786,24.4346722 L69.1254754,24.4346722 C70.2258896,24.4346722 71.1177415,25.3181375 71.1177415,26.4079611 L71.1177415,67.213004 C71.1177415,68.3028276 70.2258896,69.1860962 69.1254754,69.1860962 Z" id="Stroke-28" stroke="#231F20" stroke-width="0.752895" stroke-linecap="round" stroke-linejoin="round"></path>
                            <path d="M14.168329,61.8366719 L67.008072,61.8366719 L57.5770856,44.4899844 C56.3078353,42.1559127 53.66704,41.7585402 51.985631,43.649994 L41.6449159,55.2790417 L27.6871355,37.3471151 C25.8080889,34.9314049 22.5455794,35.7291007 21.5444806,38.8490652 L14.168329,61.8366719 Z" id="Stroke-29" stroke="#0C0B0B" stroke-width="0.752895" stroke-linecap="round" stroke-linejoin="round"></path>
                            <path d="M46.26308,38.75464 C46.26308,40.7611745 44.7743428,42.3870576 42.9370087,42.3870576 C41.0986814,42.3870576 39.6099442,40.7611745 39.6099442,38.75464 C39.6099442,36.7471219 41.0986814,35.1212388 42.9370087,35.1212388 C44.7743428,35.1212388 46.26308,36.7471219 46.26308,38.75464" id="Fill-30" fill="#231F20" fill-rule="nonzero"></path>
                            <path d="M72.0413744,66.150721 L14.3798707,66.150721 C13.2794565,66.150721 12.3876046,65.2674524 12.3876046,64.1776288 L12.3876046,23.3727826 C12.3876046,22.282959 13.2794565,21.3994937 14.3798707,21.3994937 L72.0413744,21.3994937 C73.1427817,21.3994937 74.0346336,22.282959 74.0346336,23.3727826 L74.0346336,64.1776288 C74.0346336,65.2674524 73.1427817,66.150721 72.0413744,66.150721" id="Fill-31" fill="#FFFFFF" fill-rule="nonzero"></path>
                            <path d="M72.0413744,66.150721 L14.3798707,66.150721 C13.2794565,66.150721 12.3876046,65.2674524 12.3876046,64.1776288 L12.3876046,23.3727826 C12.3876046,22.282959 13.2794565,21.3994937 14.3798707,21.3994937 L72.0413744,21.3994937 C73.1427817,21.3994937 74.0346336,22.282959 74.0346336,23.3727826 L74.0346336,64.1776288 C74.0346336,65.2674524 73.1427817,66.150721 72.0413744,66.150721 Z" id="Stroke-32" stroke="#231F20" stroke-width="0.752895" stroke-linecap="round" stroke-linejoin="round"></path>
                            <path d="M17.0842279,58.8012966 L69.9249641,58.8012966 L60.4939777,41.4546092 C59.2247274,39.1205375 56.5829389,38.723165 54.9015299,40.6146188 L44.5608148,52.2436665 L30.6040276,34.3117399 C28.7239878,31.8960297 25.4624715,32.6937255 24.4613727,35.8136899 L17.0842279,58.8012966 Z" id="Stroke-33" stroke="#0C0B0B" stroke-width="0.752895" stroke-linecap="round" stroke-linejoin="round"></path>
                            <path d="M49.1799721,35.7192648 C49.1799721,37.7257993 47.6902417,39.352666 45.8529076,39.352666 C44.0155735,39.352666 42.5258431,37.7257993 42.5258431,35.7192648 C42.5258431,33.7127303 44.0155735,32.0858636 45.8529076,32.0858636 C47.6902417,32.0858636 49.1799721,33.7127303 49.1799721,35.7192648" id="Fill-34" fill="#231F20" fill-rule="nonzero"></path>
                            <path d="M76.7389908,62.7592843 L19.076494,62.7592843 C17.9760798,62.7592843 17.0842279,61.8750321 17.0842279,60.7852084 L17.0842279,19.9804607 C17.0842279,18.890637 17.9760798,18.0071717 19.076494,18.0071717 L76.7389908,18.0071717 C77.839405,18.0071717 78.7312569,18.890637 78.7312569,19.9804607 L78.7312569,60.7852084 C78.7312569,61.8750321 77.839405,62.7592843 76.7389908,62.7592843" id="Fill-35" fill="#FFFFFF" fill-rule="nonzero"></path>
                            <path d="M76.7389908,62.7592843 L19.076494,62.7592843 C17.9760798,62.7592843 17.0842279,61.8750321 17.0842279,60.7852084 L17.0842279,19.9804607 C17.0842279,18.890637 17.9760798,18.0071717 19.076494,18.0071717 L76.7389908,18.0071717 C77.839405,18.0071717 78.7312569,18.890637 78.7312569,19.9804607 L78.7312569,60.7852084 C78.7312569,61.8750321 77.839405,62.7592843 76.7389908,62.7592843 Z" id="Stroke-36" stroke="#231F20" stroke-width="0.752895" stroke-linecap="round" stroke-linejoin="round"></path>
                            <path d="M21.7808512,55.4088763 L74.6215874,55.4088763 L65.190601,38.0621889 C63.9213507,35.7281171 61.2795622,35.3307446 59.5981532,37.2221985 L49.2584312,48.8512462 L35.3006508,30.9193195 C33.4206111,28.5039044 30.1590948,29.3013052 29.1579959,32.4212696 L21.7808512,55.4088763 Z" id="Stroke-37" stroke="#0C0B0B" stroke-width="0.752895" stroke-linecap="round" stroke-linejoin="round"></path>
                            <path d="M53.8765954,32.3268445 C53.8765954,34.3333789 52.386865,35.9602456 50.5495309,35.9602456 C48.7121968,35.9602456 47.2224664,34.3333789 47.2224664,32.3268445 C47.2224664,30.32031 48.7121968,28.6933449 50.5495309,28.6933449 C52.386865,28.6933449 53.8765954,30.32031 53.8765954,32.3268445" id="Fill-38" fill="#231F20" fill-rule="nonzero"></path>
                            <path d="M81.51308,59.325553 L23.8505832,59.325553 C22.750169,59.325553 21.8583171,58.4422843 21.8583171,57.3524607 L21.8583171,16.5473195 C21.8583171,15.4575942 22.750169,14.5741289 23.8505832,14.5741289 L81.51308,14.5741289 C82.6134942,14.5741289 83.5053461,15.4575942 83.5053461,16.5473195 L83.5053461,57.3524607 C83.5053461,58.4422843 82.6134942,59.325553 81.51308,59.325553" id="Fill-39" fill="#FFFFFF" fill-rule="nonzero"></path>
                            <path d="M81.51308,59.325553 L23.8505832,59.325553 C22.750169,59.325553 21.8583171,58.4422843 21.8583171,57.3524607 L21.8583171,16.5473195 C21.8583171,15.4575942 22.750169,14.5741289 23.8505832,14.5741289 L81.51308,14.5741289 C82.6134942,14.5741289 83.5053461,15.4575942 83.5053461,16.5473195 L83.5053461,57.3524607 C83.5053461,58.4422843 82.6134942,59.325553 81.51308,59.325553 Z M26.5549404,51.9761286 L79.3956766,51.9761286 L69.9646902,34.6294411 C68.6954399,32.2953694 66.0536514,31.8979969 64.3722424,33.7894507 L54.0325205,45.4184984 L40.0747401,27.48608 C38.1947004,25.0708616 34.933184,25.8684591 33.9320852,28.9881284 L26.5549404,51.9761286 Z" id="Stroke-40" stroke="#231F20" stroke-width="0.752895" stroke-linecap="round" stroke-linejoin="round"></path>
                            <path d="M58.6506846,28.8935066 C58.6506846,30.9006312 57.1609543,32.5265143 55.3236202,32.5265143 C53.486286,32.5265143 51.9965557,30.9006312 51.9965557,28.8935066 C51.9965557,26.8869721 53.486286,25.2603021 55.3236202,25.2603021 C57.1609543,25.2603021 58.6506846,26.8869721 58.6506846,28.8935066" id="Fill-41" fill="#231F20" fill-rule="nonzero"></path>
                            <polyline id="Fill-92" fill="#FFFFFF" fill-rule="nonzero" points="87.7729271 26.9530697 81.3541755 21.6921133 77.7847815 29.1481594 76.2821401 21.0318257 68.7083509 24.4711636 72.8249725 17.2971142 64.7913532 15.1104834 72.601513 12.235631 67.8661567 5.44606904 75.7150494 8.21557844 76.4936819 0 80.7086256 7.1179844 86.6377525 1.3205751 85.2463443 9.45648232 93.5510946 8.78989976 87.2058364 14.1368224 94 18.9129646 85.6684346 18.9690296 87.7729271 26.9530697"></polyline>
                            <polygon id="Stroke-93" stroke="#231F20" stroke-width="0.752895" stroke-linecap="round" stroke-linejoin="round" points="87.7729271 26.9530697 81.3541755 21.6921133 77.7847815 29.1481594 76.2821401 21.0318257 68.7083509 24.4711636 72.8249725 17.2971142 64.7913532 15.1104834 72.601513 12.235631 67.8661567 5.44606904 75.7150494 8.21557844 76.4936819 0 80.7086256 7.1179844 86.6377525 1.3205751 85.2463443 9.45648232 93.5510946 8.78989976 87.2058364 14.1368224 94 18.9129646 85.6684346 18.9690296"></polygon>
                            <path d="M61.9886738,99.9647616 C61.9886738,108.268273 55.1915307,115 46.8073282,115 C38.4231257,115 31.6259826,108.268273 31.6259826,99.9647616 C31.6259826,91.6612498 38.4231257,84.9295233 46.8073282,84.9295233 C55.1915307,84.9295233 61.9886738,91.6612498 61.9886738,99.9647616" id="Fill-98" fill="#FFFFFF" fill-rule="nonzero"></path>
                            <path d="M61.9886738,99.9647616 C61.9886738,108.268273 55.1915307,115 46.8073282,115 C38.4231257,115 31.6259826,108.268273 31.6259826,99.9647616 C31.6259826,91.6612498 38.4231257,84.9295233 46.8073282,84.9295233 C55.1915307,84.9295233 61.9886738,91.6612498 61.9886738,99.9647616 Z M46.8073282,99.798534 C43.2548179,99.798534 40.3756656,102.650961 40.3756656,106.168297 L53.2389908,106.168297 C53.2389908,102.650961 50.3598386,99.798534 46.8073282,99.798534 Z M50.3280576,95.3900597 C50.3280576,97.3159394 48.7519229,98.8769052 46.8073282,98.8769052 C44.8627335,98.8769052 43.2865988,97.3159394 43.2865988,95.3900597 C43.2865988,93.46418 44.8627335,91.9032142 46.8073282,91.9032142 C48.7519229,91.9032142 50.3280576,93.46418 50.3280576,95.3900597 Z" id="Stroke-99" stroke="#231F20" stroke-width="0.752895" stroke-linecap="round" stroke-linejoin="round"></path>
                            <path d="M61.737406,89.5632409 C61.737406,91.7340358 59.9606542,93.4936879 57.7687643,93.4936879 C55.5768743,93.4936879 53.8011157,91.7340358 53.8011157,89.5632409 C53.8011157,87.392446 55.5768743,85.6337775 57.7687643,85.6337775 C59.9606542,85.6337775 61.737406,87.392446 61.737406,89.5632409" id="Fill-100" fill="#8BABE9" fill-rule="nonzero"></path>
                            <path d="M61.737406,89.5632409 C61.737406,91.7340358 59.9606542,93.4936879 57.7687643,93.4936879 C55.5768743,93.4936879 53.8011157,91.7340358 53.8011157,89.5632409 C53.8011157,87.392446 55.5768743,85.6337775 57.7687643,85.6337775 C59.9606542,85.6337775 61.737406,87.392446 61.737406,89.5632409 Z M57.7950135,87.2203168 L57.7950135,91.9032142 L57.7950135,87.2203168 Z M60.1334629,89.5875989 L55.4050587,89.5875989 L60.1334629,89.5875989 Z" id="Stroke-101" stroke="#231F20" stroke-width="0.752895" stroke-linecap="round" stroke-linejoin="round"></path>
                        </g>
                    </g>
                </g>
            </g>
        </g>
    </g>
</svg>