<?xml version="1.0" encoding="UTF-8"?>
<svg width="194px" height="195px" viewBox="0 0 194 195" version="1.1" xmlns="http://www.w3.org/2000/svg" xmlns:xlink="http://www.w3.org/1999/xlink">
    <title>12</title>
    <g id="Page-1" stroke="none" stroke-width="1" fill="none" fill-rule="evenodd">
        <g id="12" transform="translate(0.000000, -0.000000)">
            <path d="M143.265683,49.0727059 C123.491427,28.6166884 129.152878,15.7963261 115.622453,6.32534917 C94.8033099,-8.24777952 55.9471395,4.29000786 33.0233582,24.3349001 C4.94664606,48.8854233 -9.53899581,93.7117577 6.96255885,134.265031 C24.5359005,177.452761 70.7742335,199.871 112.033312,193.115619 C148.877345,187.082008 185.096759,157.235446 188.726015,121.4383 C189.11773,117.558202 190.854487,96.5844453 178.67642,78.5013023 C168.61007,63.554552 158.940391,65.287741 143.265683,49.0727059" id="Fill-57" fill="#FFEFF3"></path>
            <path d="M85.4621038,154.721992 C86.5152489,152.261137 93.3973859,135.852215 90.7271215,125.98285 C90.3554649,124.609838 89.7785122,122.477317 87.9303758,120.72573 C84.2388225,117.227274 80.2775527,119.798517 77.3314365,117.235529 C73.4459138,113.85548 78.2477176,107.566184 74.2227352,98.0789317 C73.2571358,95.8034724 71.7539912,92.2602001 68.2212474,90.3748735 C64.2767316,88.2699499 61.8617894,90.3982248 57.9543213,88.7447606 C53.0821978,86.6830017 53.7839799,82.0823142 49.3054584,77.2934007 C44.5874249,72.2485658 35.1681119,68.1153771 27.9690639,71.6961531 C21.6917243,74.8181577 19.483258,82.6215181 19.5757592,88.020633 C19.7126232,95.9978311 24.9413012,102.70698 30.55603,105.921683 C38.6269964,110.542419 47.0743387,107.701574 48.0602317,110.870518 C48.9781646,113.821043 41.6934586,116.409269 41.8654825,121.877966 C41.9855925,125.696501 45.6986193,129.559852 49.5971204,130.666565 C55.0006539,132.200442 58.334001,127.750005 61.5236409,129.609385 C64.8683146,131.559105 62.7532934,137.356608 64.9969196,142.766573 C66.8476517,147.22904 71.9295547,152.069137 85.4621038,154.721992" id="Fill-58" fill="#F8DDE3"></path>
            <path d="M85.7374837,152.96097 C85.5685274,152.96097 85.4191568,152.839496 85.3891883,152.667545 C81.5164082,130.388235 68.2724534,114.05951 57.8441222,104.284494 C46.5308942,93.6803867 35.9966113,88.2836305 35.8916035,88.2305592 C35.7172199,88.1421072 35.647608,87.9291145 35.7358617,87.7550409 C35.8243514,87.5807313 36.0369626,87.5106772 36.2115822,87.5993652 C36.3175338,87.6529082 46.926856,93.0855169 58.3120556,103.753309 C65.0002232,110.019962 70.6477523,116.842566 75.0977211,124.031951 C80.6636037,133.023871 84.3608203,142.617738 86.0867229,152.546307 C86.120231,152.738778 85.9911541,152.922051 85.7986005,152.955309 C85.7780709,152.959083 85.7577773,152.96097 85.7374837,152.96097" id="Fill-59" fill="#FFF7F9"></path>
            <path d="M97.0127201,145.817344 C112.45995,113.896758 111.10712,99.6493688 106.213995,92.5949028 C104.753561,90.4890357 101.278866,86.543837 99.3257222,79.8587468 C96.7930298,71.1883202 99.2820673,66.3369006 99.2561104,59.216862 C99.2053763,45.2902591 89.5635413,31.6127372 78.5615609,24.7903693 C70.8761736,20.0245713 55.9539827,14.5275694 46.4060647,21.5166989 C42.3685758,24.4721777 38.2050776,30.455784 39.7754744,34.9397147 C42.0221682,41.3559106 54.5157305,38.337218 60.1092219,47.0595365 C63.1615258,51.8184943 60.339295,54.0691869 63.6228519,59.0949161 C68.7970202,67.0145615 78.2123217,65.1108368 79.8669606,70.6566643 C81.4692137,76.0279463 72.9600465,79.2136363 73.9020486,86.0671393 C74.9764312,93.8848879 86.3757892,95.357674 86.5905241,102.861005 C86.7179493,107.32866 82.7028777,107.726577 82.2901619,112.895716 C81.7882485,119.185485 87.4586669,122.030811 92.4612832,131.59024 C95.2665239,136.950436 96.3326475,141.968617 97.0127201,145.817344" id="Fill-60" fill="#F7CDD7"></path>
            <path d="M97.5009472,142.863517 C97.4879687,142.863517 97.4749902,142.863517 97.4620117,142.861394 C97.2675704,142.840165 97.1274027,142.665384 97.1484043,142.471261 C100.163189,114.879873 96.7833549,85.3479649 88.1071192,63.473412 C82.1252171,48.3919787 74.343789,38.9011885 68.8694638,33.5950072 C62.9385318,27.8465656 58.3627897,25.6347919 58.317247,25.6130916 C58.1407396,25.5291211 58.0657003,25.3180155 58.1494705,25.1415831 C58.2337127,24.9651507 58.4449081,24.8903792 58.6209435,24.9741138 C58.8104294,25.0639811 63.3245827,27.2420251 69.3340936,33.0598132 C74.867176,38.4162352 82.7295426,47.9954775 88.7652464,63.2127732 C92.693716,73.1170473 95.6629576,85.1422844 97.3520485,97.9888285 C99.2976415,112.786743 99.4661259,127.778545 97.8523102,142.54792 C97.8324885,142.729305 97.6791064,142.863517 97.5009472,142.863517" id="Fill-61" fill="#FFF7F9"></path>
            <path d="M194,136.656304 L180.183812,136.656304 L180.183812,140.289207 L127.548265,132.465326 C125.806317,132.206574 124.026848,132.386781 122.372917,132.98967 L9.755293,174.044408 L9.755293,170.943632 L1.21120189,170.943632 L1.21120189,178.939228 L1.2154494,178.939228 C1.26335181,179.970461 1.94460432,180.971739 3.19714618,181.194166 L79.6772388,194.77616 C82.5589345,195.288003 85.52912,194.917683 88.1934851,193.710017 L192.643158,146.4233 C193.714473,145.938819 194.122706,144.89933 193.966964,143.951831 L194,143.951831 L194,136.656304" id="Fill-62" fill="#000000"></path>
            <path d="M3.62921177,173.841322 L79.7850782,187.424259 C82.6547394,187.936102 85.6121823,187.564131 88.2654567,186.357881 L192.272682,139.070456 C194.361038,138.120834 193.929208,135.035861 191.659153,134.696913 L127.453168,125.112482 C125.718771,124.85373 123.946854,125.033936 122.300002,125.636826 L3.22546288,169.229784 C0.926147152,170.071848 1.21851704,173.411327 3.62921177,173.841322" id="Fill-63" fill="#FFFFFF"></path>
            <path d="M125.910144,125.352128 C124.723439,125.352128 123.539093,125.559931 122.421763,125.96917 L3.34722467,169.562364 C2.26222326,169.959573 1.95073961,170.940094 2.01350828,171.659268 C2.07651293,172.378442 2.55364926,173.290088 3.69127253,173.493174 L79.8473749,187.076111 C82.6585149,187.577104 85.5189732,187.217399 88.1189178,186.035679 L192.126379,138.74849 C193.105664,138.303399 193.343997,137.368873 193.249608,136.703714 C193.157578,136.038554 192.671475,135.205454 191.607239,135.046947 L127.401019,125.462516 C126.906892,125.388688 126.408282,125.352128 125.910144,125.352128 Z M82.3250858,188.003561 C81.4585949,188.003561 80.5888004,187.926903 79.7227814,187.772642 L3.56691504,174.189705 C2.30658609,173.964919 1.42003753,172.99572 1.30842255,171.720831 C1.19680757,170.446177 1.90165733,169.338049 3.10370108,168.897676 L122.17824,125.304482 C123.87559,124.683194 125.717591,124.495912 127.505554,124.762683 L191.711067,134.347115 C192.905088,134.524962 193.782905,135.411606 193.950446,136.605355 C194.117986,137.799576 193.518616,138.893316 192.418984,139.392421 L88.4119956,186.679846 C86.4815049,187.557527 84.4141501,188.003561 82.3250858,188.003561 L82.3250858,188.003561 Z" id="Fill-64" fill="#000000"></path>
            <path d="M82.3111634,184.922126 C81.6266073,184.922126 80.9380397,184.861036 80.2641023,184.740741 L5.30485226,171.371504 L123.237992,128.196275 C124.094808,127.882565 124.992212,127.723351 125.904717,127.723351 C126.286993,127.723351 126.672572,127.751892 127.050599,127.808501 L189.842165,137.181355 L87.1363285,183.876505 C85.6107665,184.570441 83.9872759,184.922126 82.3113994,184.922126 L82.3111634,184.922126" id="Fill-65" fill="#F7CDD7"></path>
            <path d="M52.4118,41.6873111 C53.5524909,41.6248049 54.8939944,41.9286083 57.5767654,42.5359793 C59.9943033,43.0832028 60.6632852,43.4513993 60.9610825,44.0840086 C61.4486016,45.1197235 60.7203906,46.3962639 60.502352,46.7788486 C59.2663282,48.945099 57.0038242,49.2290891 55.5117703,50.2190448 C50.6861333,53.4212459 53.1466183,58.8590439 49.1447612,62.2596136 C45.3328619,65.4990825 41.7722734,61.6932844 34.9193969,64.7822669 C29.5243584,67.2145811 30.0267438,70.3417749 25.6270371,71.7202121 C20.2534721,73.403632 11.8337385,71.1409099 8.41898092,64.3810482 C5.17199976,57.9535305 7.4163339,49.3722636 11.803298,47.1803031 C15.7881651,45.1890699 18.8671339,49.5883225 24.1930325,47.5242048 C29.4436558,45.4893352 29.8488206,39.8552916 33.9457745,39.9258174 C34.9255322,39.9425643 34.7204722,40.2616994 41.1717234,42.5932962 C44.1596068,43.6731192 44.518285,43.7184067 44.8427471,43.7401069 C48.0569281,43.9533354 48.7270899,41.8894535 52.4118,41.6873111" id="Fill-66" fill="#000000"></path>
            <path d="M63.939291,74.6877204 C66.2348312,88.7388638 66.5012441,88.9457238 66.8113119,90.4175664 C66.8113119,90.4175664 67.7219297,94.5554726 67.9744202,98.5414771 C68.1936386,102.000543 67.5428266,122.773101 56.8013598,127.347135 C52.9226804,128.998948 51.7982716,125.962565 43.5387633,126.292314 C35.0746668,126.630083 33.358675,129.64052 29.6657059,128.5857 C21.6730825,126.302929 19.062755,109.161387 19.5028437,98.5690741 C19.8612859,89.942048 24.1564567,81.7959653 32.7470344,65.5037999 C34.0552658,63.0224243 36.1495214,59.2326655 39.5236917,58.7503068 C41.0704913,58.5290587 41.6885031,58.7663461 47.8983546,60.470287 C54.6530665,62.3237708 56.3674065,60.352115 59.2668002,62.1784735 C62.2622347,64.0652153 62.790577,67.6556621 63.939291,74.6877204" id="Fill-67" fill="#E51D74"></path>
            <polyline id="Fill-68" fill="#FFFFFF" points="51.6106735 156.047358 51.6106735 162.842365 48.3398591 162.643524 47.6961262 156.047358 51.6106735 156.047358"></polyline>
            <path d="M48.6626694,162.308586 L51.2567148,162.46662 L51.2567148,156.401166 L48.0861887,156.401166 L48.6626694,162.308586 Z M51.6106735,163.196173 C51.6035943,163.196173 51.5962791,163.195937 51.5892,163.195465 L48.3181496,162.996625 C48.1447099,162.986011 48.0043062,162.851092 47.9875522,162.677726 L47.3438193,156.081559 C47.3339085,155.982257 47.3667086,155.883663 47.4339608,155.809835 C47.500977,155.735771 47.5960739,155.69355 47.6961262,155.69355 L51.6106735,155.69355 C51.8062946,155.69355 51.9646322,155.852056 51.9646322,156.047358 L51.9646322,162.842365 C51.9646322,162.940016 51.9242809,163.033421 51.8532532,163.100173 C51.7874168,163.162207 51.700579,163.196173 51.6106735,163.196173 L51.6106735,163.196173 Z" id="Fill-69" fill="#000000"></path>
            <path d="M47.8490364,171.31513 C49.180865,171.457833 51.3600707,171.550059 53.9005503,171.112988 C54.7330612,170.969578 55.2606956,170.140487 55.0320383,169.327671 C54.3946766,167.062826 53.1367074,162.842365 52.1347683,160.82094 L51.5311507,161.923171 L51.0481151,160.759377 C50.9655247,160.621628 50.8220535,160.531525 50.6618282,160.516429 L49.4081065,160.399436 C49.145941,160.374905 48.8320977,160.632478 48.786555,160.891701 L47.9601794,161.923171 L47.483751,160.697815 L46.5913031,169.763327 C46.515084,170.537696 47.0748107,171.232339 47.8490364,171.31513" id="Fill-70" fill="#FFFFFF"></path>
            <path d="M47.6956543,162.158099 L46.94361,169.798236 C46.8865047,170.378954 47.3093673,170.901646 47.886556,170.963209 L47.886556,170.963445 C49.2356106,171.107563 51.3631383,171.190826 53.8406133,170.764369 C54.1400623,170.712713 54.4045875,170.53628 54.5664646,170.280123 C54.7297575,170.021607 54.7738844,169.717568 54.691294,169.423435 C54.220293,167.74945 53.089041,163.872183 52.1076315,161.607102 L51.8414545,162.092999 C51.7760902,162.212586 51.6444175,162.282404 51.512037,162.276271 C51.3758809,162.269195 51.2562428,162.184281 51.2040929,162.058561 L50.7342717,160.926139 C50.7087867,160.893588 50.6707951,160.872596 50.629264,160.868586 L49.3750703,160.751593 C49.3104139,160.74381 49.1506605,160.864576 49.1350863,160.953028 C49.1247035,161.011525 49.0999264,161.066247 49.0628787,161.112478 L48.2365032,162.144183 C48.1574524,162.242542 48.032387,162.291839 47.9063777,162.272733 C47.8237873,162.260232 47.749692,162.218954 47.6956543,162.158099 Z M50.1226311,171.787582 C49.2179126,171.787582 48.4342481,171.733804 47.8112808,171.667052 C46.849457,171.563976 46.1441353,170.694551 46.2389962,169.72889 L47.1316801,160.663141 C47.1474902,160.500154 47.2734995,160.36948 47.4358486,160.347073 C47.5970178,160.324429 47.7544114,160.416655 47.8136405,160.569736 L48.0675469,161.22263 L48.4628007,160.729421 C48.5904619,160.331033 49.0359779,160.010719 49.4409066,160.047043 L50.6948643,160.164036 C50.9657607,160.189274 51.2114081,160.34377 51.3515757,160.577284 C51.3605427,160.592144 51.3685657,160.607711 51.3751729,160.623751 L51.5750416,161.105638 L51.8242286,160.650876 C51.8874692,160.535299 52.0125346,160.464773 52.1418475,160.467131 C52.2739921,160.469726 52.3931582,160.545441 52.4519153,160.663849 C53.5161511,162.810994 54.8491596,167.370875 55.3725465,169.231671 C55.5084667,169.71403 55.4327195,170.233892 55.1651267,170.657519 C54.8965901,171.083032 54.4574453,171.375985 53.9604873,171.461371 C52.5463043,171.705027 51.2418485,171.787582 50.1226311,171.787582 L50.1226311,171.787582 Z" id="Fill-71" fill="#000000"></path>
            <path d="M51.0117753,170.247573 C49.0923753,170.247573 47.6175474,169.886924 47.5255181,169.863573 C47.3357962,169.816162 47.2206417,169.624162 47.2680721,169.434757 C47.3155026,169.245116 47.5071123,169.129067 47.6973061,169.177185 C47.7301062,169.185204 50.9841666,169.978914 54.031751,169.178364 C54.2210009,169.128831 54.4142624,169.241578 54.4640525,169.430511 C54.5136068,169.619445 54.4008119,169.813096 54.211562,169.862629 C53.1126382,170.151337 52.0028597,170.247573 51.0117753,170.247573" id="Fill-72" fill="#000000"></path>
            <path d="M52.1347683,166.718217 L49.1497166,166.718217 C48.9543314,166.718217 48.7957579,166.559947 48.7957579,166.364409 C48.7957579,166.169106 48.9543314,166.0106 49.1497166,166.0106 L52.1347683,166.0106 C52.3301535,166.0106 52.488727,166.169106 52.488727,166.364409 C52.488727,166.559947 52.3301535,166.718217 52.1347683,166.718217" id="Fill-73" fill="#000000"></path>
            <polyline id="Fill-74" fill="#FFFFFF" points="27.5509207 152.452194 26.5839055 160.644743 23.5181512 160.538129 23.5181512 152.452194 27.5509207 152.452194"></polyline>
            <path d="M23.8721099,160.196586 L26.2705341,160.279849 L27.1525991,152.806002 L23.8721099,152.806002 L23.8721099,160.196586 Z M26.5841415,160.998552 C26.579894,160.998552 26.5758824,160.998316 26.5716349,160.998316 L23.5058806,160.891937 C23.3152149,160.885333 23.1641925,160.728714 23.1641925,160.538365 L23.1641925,152.452194 C23.1641925,152.256892 23.322766,152.098385 23.5181512,152.098385 L27.5509207,152.098385 C27.6519169,152.098385 27.7481937,152.14155 27.8154458,152.217265 C27.882462,152.292744 27.9143183,152.393462 27.9022837,152.493471 L26.9355045,160.686257 C26.914267,160.864812 26.7627726,160.998552 26.5841415,160.998552 L26.5841415,160.998552 Z" id="Fill-75" fill="#000000"></path>
            <path d="M27.3130604,158.689599 C27.3130604,158.689599 27.7076064,162.328163 27.5856086,163.79175 C27.4985348,164.839023 26.0607545,168.002069 25.2501891,169.716388 C24.916524,170.421882 24.2810502,170.874049 23.5757285,170.904477 C22.7156088,170.941745 21.5192284,170.984909 20.554809,170.98609 C19.2274638,170.987504 18.3144863,169.479337 18.788555,168.073303 C19.225812,166.776006 19.920279,165.149431 21.0123596,163.417657 C21.8349596,162.113755 23.0362954,158.570247 23.0362954,158.570247 L25.5345359,158.570247 L26.0246508,160.6438 L27.3130604,158.689599" id="Fill-76" fill="#FFFFFF"></path>
            <path d="M23.28855,158.924291 C23.0001916,159.753854 22.0303448,162.467564 21.3120446,163.606591 C20.3938757,165.061686 19.6578776,166.602404 19.1241079,168.186521 C18.9150363,168.806629 19.0098972,169.482167 19.3780143,169.99401 C19.6741597,170.405607 20.091359,170.632044 20.5526852,170.632044 C20.5531571,170.632044 20.5538651,170.632044 20.554337,170.632044 C21.5201723,170.631101 22.7222161,170.587465 23.5603903,170.55114 C24.1293199,170.52661 24.6541227,170.148506 24.9302104,169.565194 C26.3337747,166.596507 27.1731288,164.481677 27.2330658,163.762266 C27.3116446,162.815711 27.1648697,160.895711 27.0582102,159.719417 L26.3203243,160.838394 C26.2426893,160.95633 26.1013418,161.017185 25.962826,160.992419 C25.8238382,160.967652 25.7126951,160.862689 25.6801309,160.725412 L25.2544366,158.924291 L23.28855,158.924291 Z M20.5526852,171.339661 C19.8671852,171.339661 19.2298235,170.999769 18.8031853,170.407022 C18.3024517,169.710728 18.171487,168.796015 18.4532382,167.960556 C19.0049418,166.323367 19.7652451,164.731701 20.7129105,163.229195 C21.5038902,161.975534 22.6889439,158.491938 22.7009785,158.457029 C22.7495889,158.313146 22.8845651,158.216675 23.0362954,158.216675 L25.5345359,158.216675 C25.6985368,158.216675 25.8410642,158.329422 25.8790557,158.488871 L26.1803926,159.764704 L27.0176229,158.495004 C27.0997413,158.370228 27.2514716,158.310788 27.3963587,158.345697 C27.5414818,158.380842 27.6490852,158.503024 27.6648954,158.651387 C27.6811775,158.801638 28.0618011,162.340664 27.9383875,163.820998 C27.8517856,164.862138 26.6027833,167.683878 25.5699318,169.867818 C25.1815211,170.689125 24.4233416,171.221961 23.5910667,171.258049 C22.7460493,171.294609 21.5333868,171.338718 20.5550449,171.339661 C20.554337,171.339661 20.5536291,171.339661 20.5526852,171.339661 L20.5526852,171.339661 Z" id="Fill-77" fill="#000000"></path>
            <path d="M22.4602866,169.78031 C22.4593427,169.78031 22.4583988,169.78031 22.457455,169.78031 L19.6123349,169.777479 C19.4169497,169.777244 19.2586122,169.618737 19.2588479,169.423199 C19.2590841,169.228133 19.4174217,169.069863 19.6128069,169.069863 L19.6130428,169.069863 L22.4579269,169.072693 C22.4586348,169.072693 22.4595787,169.072693 22.4602866,169.072693 C23.3168667,169.072693 24.0967557,168.572172 24.4964931,167.766197 C25.8486153,165.039986 25.9210588,164.980782 26.005065,164.912615 C26.1565594,164.788782 26.3795533,164.811662 26.5029669,164.963092 C26.61411,165.099426 26.6070308,165.293313 26.494,165.42092 C26.4449177,165.495219 26.2120129,165.900448 25.130787,168.080379 C24.6107037,169.129303 23.5877631,169.78031 22.4602866,169.78031 L22.4602866,169.78031 Z" id="Fill-78" fill="#000000"></path>
            <path d="M23.6620944,166.819642 L20.9269375,166.819642 C20.7313164,166.819642 20.5729788,166.661372 20.5729788,166.465834 C20.5729788,166.270531 20.7313164,166.112025 20.9269375,166.112025 L23.6620944,166.112025 C23.8574796,166.112025 24.0160531,166.270531 24.0160531,166.465834 C24.0160531,166.661372 23.8574796,166.819642 23.6620944,166.819642" id="Fill-79" fill="#000000"></path>
            <path d="M56.8653084,88.1145101 C56.8653084,88.1145101 56.5394304,113.1172 55.488409,129.394506 C54.4373877,145.672047 52.3638976,158.117373 52.3638976,158.117373 C52.3638976,158.117373 48.7964658,159.399102 46.4544391,158.72781 C46.4544391,158.72781 44.5154533,144.449286 44.0748927,139.622868 C43.6345681,134.796451 44.8040476,132.401876 44.9026841,128.45196 C45.0010846,124.502044 43.1996708,107.062125 43.1996708,107.062125 C43.1996708,107.062125 29.7513639,146.488637 28.2130594,155.196803 C28.2130594,155.196803 24.9559314,155.748744 22.6606273,154.494611 C22.6606273,154.494611 22.5891276,138.989551 22.9147696,136.594269 C23.5181512,132.155862 26.9860026,127.785857 27.6089699,123.071951 C28.2319372,118.357573 28.5932111,106.525987 30.3089669,99.4293001 C32.0247227,92.3328487 35.389926,84.3601321 35.389926,84.3601321 L56.8653084,88.1145101" id="Fill-80" fill="#000000"></path>
            <path d="M33.9545055,97.5048187 C33.8150458,97.5048187 33.6829012,97.4220276 33.6267398,97.2852217 C33.5526444,97.1043077 33.6392463,96.8976836 33.8200012,96.8236198 C38.1335779,95.0571728 39.4075933,90.8435516 39.4198638,90.8013305 C39.4743735,90.6138121 39.6709386,90.5060184 39.8587726,90.5607408 C40.0463707,90.6154632 40.1542102,90.8119447 40.0994646,90.9994631 C40.0449549,91.1858022 38.7145421,95.5838754 34.0885379,97.478401 C34.044647,97.4963273 33.9991043,97.5048187 33.9545055,97.5048187" id="Fill-81" fill="#FFFFFF"></path>
            <path d="M29.8927114,109.155491 C29.8776092,109.155491 29.862035,109.154783 29.8466968,109.15266 C29.6527274,109.127422 29.5160994,108.94981 29.5413484,108.756159 C31.0931034,96.8349416 35.7533236,88.8612815 35.8002822,88.7822643 C35.8998625,88.6143233 36.1167212,88.5586575 36.2852056,88.6581955 C36.453218,88.7574977 36.5089075,88.9745002 36.4095631,89.1426771 C36.3633125,89.2207508 31.7752998,97.0788335 30.2433665,108.847442 C30.2202412,109.025761 30.067803,109.155491 29.8927114,109.155491" id="Fill-82" fill="#FFFFFF"></path>
            <path d="M98.5880723,61.9860018 L92.7267522,64.42209 L90.5862459,69.0241927 C89.3042075,69.8785218 88.0257087,70.5724579 86.7587725,71.1312392 C86.9900255,71.624448 87.2189188,72.1186002 87.4355416,72.6167623 C87.7880844,73.4269834 88.1264689,74.2428654 88.4629657,75.0596908 C91.0249188,72.5125068 92.0105758,70.1259518 92.0105758,70.1259518 C95.6263819,69.9155538 95.7162874,67.1275443 95.5376562,66.4057753 C95.3587891,65.6840063 95.6879707,64.863171 97.3499248,63.7715544 C99.1685646,62.5770976 98.5880723,61.9860018 98.5880723,61.9860018" id="Fill-83" fill="#FFFFFF"></path>
            <path d="M87.2314254,71.3064922 C87.4072249,71.6845954 87.5877438,72.0794454 87.7602397,72.4757108 C88.0471822,73.1356812 88.3291693,73.8095681 88.5854354,74.4284968 C90.7943737,72.1065708 91.674315,70.012969 91.6832819,69.9910329 C91.7351959,69.8655489 91.854362,69.7806349 91.9900461,69.7728511 C93.2567464,69.6990231 94.1730274,69.2897848 94.7136404,68.556694 C95.3196177,67.7346793 95.2620404,66.7654804 95.1940803,66.4906893 C94.9432416,65.4776181 95.5664449,64.5195052 97.1557194,63.4760066 C97.7893055,63.0596921 98.0901704,62.7372548 98.2246747,62.5202524 L92.9896255,64.6959376 L90.9074045,69.1732639 C90.8800317,69.232232 90.8368487,69.2824728 90.782575,69.3185612 C89.6355129,70.0830231 88.4424361,70.7505414 87.2314254,71.3064922 Z M88.4629657,75.4134992 C88.4398404,75.4134992 88.4164791,75.4111404 88.3931178,75.406423 C88.2772553,75.3830716 88.1807426,75.3035827 88.1359078,75.1943739 C87.8305595,74.4534993 87.474241,73.5932733 87.1110794,72.7578139 C86.891861,72.2539909 86.6582482,71.7504037 86.4383219,71.2812539 C86.3977346,71.1951605 86.3939591,71.0960942 86.4272312,71.0069345 C86.4607393,70.9177748 86.5289353,70.8458338 86.6160092,70.8073866 C87.8739784,70.2526152 89.1154295,69.5723597 90.3073265,68.7845465 L92.4055937,64.2730188 C92.4431133,64.1925863 92.5089496,64.1293726 92.5908321,64.095407 L98.4521522,61.6593188 C98.5857126,61.6038888 98.7393307,61.6352598 98.8405629,61.7381001 C98.8783185,61.7765473 99.0642648,61.9867094 99.0246214,62.3560853 C98.968224,62.8834956 98.4700861,63.4592596 97.5443661,64.0673382 C95.8319139,65.1919769 95.7750445,65.8920456 95.8812321,66.3206254 C96.0185681,66.8758686 95.9727895,68.0415491 95.2835139,68.9765465 C94.6452084,69.8424334 93.6243915,70.3420107 92.2472561,70.4634849 C91.9489869,71.1022269 90.8958418,73.1399269 88.7126245,75.310423 C88.6456084,75.376939 88.5557029,75.4134992 88.4629657,75.4134992 L88.4629657,75.4134992 Z" id="Fill-84" fill="#000000"></path>
            <path d="M59.3121069,60.4842034 C59.3121069,60.4842034 51.2859754,59.3362134 43.3860891,59.1067097 C43.3860891,59.1067097 33.4771332,84.9429724 33.4780771,86.6863039 C33.478785,88.4296354 37.7090635,90.660043 43.3860891,89.2377336 C49.0628787,87.8149524 56.2756132,87.6736649 60.331272,88.6206919 C66.4085069,90.0396991 59.3121069,60.4842034 59.3121069,60.4842034" id="Fill-85" fill="#FFFFFF"></path>
            <path d="M43.626781,59.4680659 C39.6544205,69.8318192 33.8313279,85.4644858 33.8320358,86.686068 C33.8320358,87.0594537 34.1281813,87.5043087 34.6440171,87.9064708 C36.1693431,89.0955026 39.4373258,89.8620873 43.2999591,88.8945395 C48.7339331,87.5330851 56.0903748,87.2670212 60.4117386,88.2760826 C60.8414445,88.3763283 61.1718059,88.2923577 61.4509613,88.0111981 C64.1332604,85.3139993 60.6597457,67.6849103 59.0239845,60.8014515 C57.6520406,60.614169 50.5827774,59.6871912 43.626781,59.4680659 Z M39.8191293,90.0498416 C37.2437257,90.0498416 35.2844464,89.3030702 34.2086479,88.4643086 C33.5094615,87.9194438 33.1241184,87.2880139 33.1241184,86.6865397 C33.1231745,84.9283483 42.0389223,61.6307782 43.0557276,58.9800463 C43.1092934,58.8397024 43.2468653,58.7455894 43.3962359,58.7531373 C51.2258024,58.9805181 59.2816664,60.1223755 59.3621331,60.1339332 C59.5058403,60.1544541 59.6224107,60.2605966 59.6561547,60.4016482 C59.8963747,61.4019822 65.4985971,84.9446235 61.9531107,88.5103037 C61.5031113,88.9627066 60.9145959,89.1205051 60.2508054,88.9650653 C56.0245385,87.9784118 48.8110961,88.2430605 43.472219,89.5809276 C42.1545488,89.9109129 40.9293797,90.0498416 39.8191293,90.0498416 L39.8191293,90.0498416 Z" id="Fill-86" fill="#000000"></path>
            <path d="M89.0167931,69.1331657 L92.7175493,71.4789148 C92.7175493,71.4789148 88.8155085,80.4956018 80.326163,83.2496457 C71.8365816,86.0041614 63.8118659,78.1979706 63.8118659,78.1979706 L64.5424366,94.9364062 C64.5424366,94.9364062 60.4409992,97.36589 60.4409992,97.1510104 C60.4409992,96.9361308 58.6478444,59.8122035 58.6478444,59.8122035 C58.6478444,59.8122035 61.9587741,59.8655106 63.4352538,61.9661885 C64.9114976,64.0666306 70.4990896,72.7464921 76.9227321,72.8512193 C83.3463747,72.9561825 89.0167931,69.1331657 89.0167931,69.1331657" id="Fill-87" fill="#E51D74"></path>
            <path d="M68.6113099,67.4355934 L54.022784,65.9321439 C53.5333771,65.9321439 53.0699272,66.3427974 52.9878088,66.849215 L49.4652118,88.5838958 C49.3833293,89.0905493 49.7134548,89.500967 50.2030977,89.500967 L65.6727448,88.7426378 C66.1621517,88.7426378 66.6758637,89.0905493 66.7579821,88.5838958 L70.2805791,66.849215 C70.3626975,66.3427974 69.1009528,67.4355934 68.6113099,67.4355934" id="Fill-88" fill="#000000"></path>
            <path d="M54.0069739,66.2861881 C53.6950183,66.295623 53.3906138,66.5756033 53.337284,66.9058244 L49.814687,88.6405051 C49.7906178,88.7895764 49.8215302,88.9237877 49.9019968,89.0183724 C49.9737325,89.1025788 50.0777963,89.1471586 50.2030977,89.1471586 L65.6552828,88.3890654 C65.6564627,88.3890654 65.6576425,88.3890654 65.6588224,88.3890654 C65.8648263,88.3890654 66.0413338,88.4275125 66.1973116,88.4614781 C66.262204,88.4756305 66.3504577,88.4947361 66.4127544,88.502284 L69.8574805,67.2476032 C69.8034428,67.2782666 69.750585,67.30893 69.7040984,67.3358194 C69.2316815,67.609667 68.9003762,67.7894017 68.6113099,67.7894017 C68.5992753,67.7894017 68.5870047,67.7886941 68.5749701,67.7875147 L54.0069739,66.2861881 Z M50.2189079,89.8543035 C49.8677808,89.8543035 49.5702195,89.7203281 49.3630357,89.4771439 C49.1487727,89.2257041 49.0588672,88.8794437 49.1157366,88.5272865 L52.6383336,66.7926057 C52.7487687,66.1118785 53.3568697,65.5783356 54.022784,65.5783356 C54.0348186,65.5783356 54.0470892,65.5790432 54.0591238,65.5802225 L68.6219287,67.0808416 C68.7590287,67.0657457 69.1410681,66.8442617 69.3487239,66.723731 C69.8454459,66.4357311 70.1734476,66.2453822 70.4537829,66.4380898 C70.521979,66.4850283 70.675597,66.6244288 70.6298184,66.9058244 L67.1072214,88.6405051 C67.0734773,88.8499597 66.982392,89.0063429 66.836561,89.1056451 C66.5928014,89.2714633 66.3030272,89.2084854 66.0469971,89.1528196 C65.9191,89.1252225 65.7867195,89.0964461 65.6727448,89.0964461 L50.2205597,89.8543035 C50.2198517,89.8543035 50.2193798,89.8543035 50.2189079,89.8543035 L50.2189079,89.8543035 Z" id="Fill-89" fill="#000000"></path>
            <path d="M70.0259648,65.9321439 L54.5060556,65.9321439 C54.0164128,65.9321439 53.5529628,66.3427974 53.4708444,66.849215 L49.9484834,88.5838958 C49.866365,89.0905493 50.1967264,89.500967 50.6863693,89.500967 L66.2060425,89.500967 C66.6956854,89.500967 67.1591353,89.0905493 67.2410178,88.5838958 L70.7636148,66.849215 C70.8457332,66.3427974 70.5153717,65.9321439 70.0259648,65.9321439" id="Fill-90" fill="#FFFFFF"></path>
            <path d="M54.5060556,66.2859522 C54.1886727,66.2859522 53.8748293,66.5699423 53.8203197,66.9058244 L50.2977227,88.6405051 C50.2736535,88.7895764 50.3045659,88.9237877 50.3852684,89.0183724 C50.4570041,89.1025788 50.5610679,89.1471586 50.6863693,89.1471586 L66.2060425,89.1471586 C66.5231895,89.1471586 66.8372689,88.8634044 66.8915426,88.5272865 L70.4143755,66.7926057 C70.4384447,66.6435345 70.4075323,66.5093232 70.3268297,66.4149743 C70.2553301,66.330532 70.1510302,66.2859522 70.0259648,66.2859522 L54.5060556,66.2859522 Z M66.2060425,89.8547753 L50.6863693,89.8547753 C50.3519963,89.8547753 50.0534912,89.720564 49.8460714,89.4771439 C49.6320443,89.2257041 49.5419028,88.8794437 49.5990082,88.5272865 L53.1216052,66.7926057 C53.2318043,66.1118785 53.8399054,65.5783356 54.5060556,65.5783356 L70.0259648,65.5783356 C70.3603378,65.5783356 70.658607,65.7125469 70.8662628,65.9564387 C71.0800539,66.2076426 71.1701953,66.553903 71.112854,66.9058244 L67.590493,88.6405051 C67.4800579,89.3214682 66.8719568,89.8547753 66.2060425,89.8547753 L66.2060425,89.8547753 Z" id="Fill-91" fill="#000000"></path>
            <path d="M51.0537784,75.7720249 L51.2210829,77.8179805 L57.4365977,76.6886243 C57.4365977,76.6886243 57.579597,76.894069 57.665963,77.2257054 C57.7813535,77.6700886 57.7948039,78.3413809 57.2251664,79.0504128 C56.954034,79.38771 55.8801233,79.3976167 55.9638935,80.0677296 C56.037045,80.6526927 53.6072365,81.1086337 51.5054297,81.4987663 C49.1530202,81.9356017 49.3540688,78.5840934 49.9359769,76.8685948 C50.3895159,75.5311994 51.0537784,75.7720249 51.0537784,75.7720249" id="Fill-92" fill="#FFFFFF"></path>
            <path d="M50.7330919,76.1932927 C50.5966998,76.3006145 50.4249118,76.528703 50.2710578,76.9820494 C49.8269576,78.2916119 49.7304448,80.1472186 50.3491647,80.8612037 C50.5962278,81.146845 50.9534901,81.240958 51.4407733,81.1508548 C52.7853444,80.901302 55.2647071,80.4411153 55.6073392,80.0571154 C55.5596727,79.398796 56.1923149,79.1546683 56.5745903,79.0072482 C56.6987118,78.9591302 56.9063676,78.8791695 56.9493146,78.8286929 C57.3339497,78.3498723 57.459959,77.8403883 57.3233309,77.3146292 C57.2999697,77.2252336 57.2718889,77.1471599 57.2447521,77.0832385 L51.2843235,78.165892 C51.186395,78.1845259 51.0846908,78.1595234 51.0054041,78.0986684 C50.9261173,78.0378134 50.8763271,77.946295 50.8680681,77.8467569 L50.7330919,76.1932927 Z M51.1101759,81.8912577 C50.457712,81.8912577 50.0513674,81.5985403 49.8139791,81.3246926 C48.8842476,80.2514741 49.1770894,78.0038478 49.60066,76.7549044 C49.8205863,76.1069635 50.1268786,75.6847522 50.5115137,75.4998284 C50.8513141,75.3370766 51.1233903,75.4210471 51.1743604,75.4394451 C51.3046172,75.4866195 51.3952306,75.6052633 51.4065573,75.7432485 L51.5420055,77.4000149 L57.3733571,76.3407128 C57.5099852,76.3154745 57.6477931,76.3730273 57.7268439,76.4864818 C57.7454857,76.5126637 57.9092506,76.7546685 58.008359,77.1367815 C58.1430993,77.6552286 58.1643368,78.446344 57.5010182,79.2718968 C57.3424447,79.4695577 57.0816951,79.5700393 56.8294406,79.6672186 C56.4108254,79.8287911 56.3003903,79.9054495 56.3150206,80.0238574 C56.4193204,80.8571939 54.9492119,81.2192578 51.5700862,81.8466778 C51.4046695,81.8773412 51.2515234,81.8912577 51.1101759,81.8912577 L51.1101759,81.8912577 Z" id="Fill-93" fill="#000000"></path>
            <path d="M50.2769571,81.4192774 L49.0305505,79.5249877 C49.0305505,79.5249877 42.8485438,80.7779408 39.9954007,79.5249877 C35.0114262,77.3360935 35.9539002,69.6886447 36.8019853,65.882139 C37.6498344,62.0756332 39.5236917,58.7503068 39.5236917,58.7503068 C39.5236917,58.7503068 34.944882,61.335938 31.8397203,67.0216376 C28.7343226,72.7071014 27.7241245,85.4307561 38.1088008,87.7298025 C44.9026841,89.2339596 50.2769571,81.4192774 50.2769571,81.4192774" id="Fill-94" fill="#E51D74"></path>
            <path d="M32.7977685,85.3562205 C32.7175378,85.3562205 32.6365993,85.3290952 32.570291,85.2731934 C29.1918732,82.4337638 29.407788,76.5239855 29.4186428,76.273961 C29.4269018,76.0788947 29.5892508,75.9310028 29.7874677,75.9357202 C29.9826169,75.9442116 30.1341113,76.1090863 30.1258522,76.3043885 C30.1232565,76.3621772 29.9156008,82.1179309 33.0257179,84.7316309 C33.1753244,84.8573507 33.1946742,85.0804859 33.0689009,85.2300288 C32.998817,85.3132917 32.8987647,85.3562205 32.7977685,85.3562205" id="Fill-95" fill="#FFFFFF"></path>
            <path d="M51.9629804,49.559782 C52.1168344,49.6513004 52.3133995,49.5866714 52.3815955,49.4196739 C52.7041699,48.6283226 53.2207136,47.0958609 54.2771624,46.8522049 C55.6314083,46.5399101 57.8238285,46.1363327 58.0121346,47.2064849 C58.1773153,48.1447846 57.982638,49.7635756 58.9706547,50.9365681 C59.0652797,51.0490791 58.9836332,51.2290496 58.8665909,51.3177376 L58.2448034,51.8418456 C58.1136027,51.9411478 58.0015158,52.2756146 57.9854697,52.4402534 C57.9359155,52.9495015 57.8719669,54.0323908 57.6959315,54.1720272 C57.3525915,54.4444596 55.6399034,54.338553 55.6399034,54.338553 L54.2663076,59.0595353 C54.2141577,59.2387982 54.3201093,59.4258448 54.4994484,59.4711323 L56.1340297,60.0268472 C56.1340297,60.0268472 54.8217868,61.8654711 50.7215292,61.5880854 C48.100583,61.4107095 46.1828348,59.5647735 46.1828348,59.5647735 C46.1828348,59.5647735 51.2781883,58.8413535 51.966048,52.8209512 C51.9811502,52.688391 51.9240449,52.5577178 51.8180933,52.477993 C51.4115127,52.1727743 50.3170724,51.2731577 50.508682,50.3612757 C50.7118543,49.3932562 51.4355819,49.2460719 51.9629804,49.559782" id="Fill-96" fill="#FFFFFF"></path>
            <path d="M46.9497453,59.735545 C47.6673376,60.267201 49.0631147,61.1212943 50.7453624,61.2349847 C53.4304931,61.4161345 54.8557668,60.651201 55.4700032,60.1747391 L54.3965644,59.8098448 C54.2233606,59.7617268 54.0791815,59.6494517 53.9895119,59.4923608 C53.8977186,59.3319677 53.8748293,59.1383166 53.9262713,58.9607048 L55.300103,54.2397225 C55.3463536,54.0809805 55.496904,53.9746021 55.6616128,53.9854523 C56.4197924,54.0319191 57.2154915,53.9960665 57.4441488,53.9085579 C57.5210759,53.688725 57.5814848,52.991015 57.6083857,52.6815507 C57.6173526,52.5796539 57.6253757,52.4857767 57.6331628,52.4060519 C57.6510967,52.2218357 57.7761621,51.7529218 58.0310124,51.5597424 L58.6185838,51.0639391 C57.879518,50.1154969 57.802355,48.9719884 57.7398223,48.0468976 C57.7202366,47.7577183 57.7015948,47.4845783 57.6636032,47.2680476 C57.6461413,47.1685095 57.5982389,47.097512 57.5083333,47.0380722 C57.0859426,46.7583277 56.0252464,46.8121066 54.3566851,47.1968142 C53.5730205,47.3774923 53.088805,48.5986027 52.7992668,49.3281555 L52.7093613,49.5531775 C52.6380976,49.7279589 52.4953342,49.862406 52.317647,49.9218458 C52.1392518,49.9817574 51.9443385,49.960293 51.7819895,49.8638213 C51.6033583,49.7576788 51.4112767,49.7359785 51.254591,49.8048532 C51.0618015,49.8892954 50.9237576,50.1067696 50.8550896,50.4339244 C50.7550373,50.908971 51.194654,51.5672904 52.0307045,52.1951822 C52.2371804,52.3503861 52.3471435,52.6055998 52.317647,52.8612853 C51.7661793,57.688646 48.4375517,59.2671028 46.9497453,59.735545 Z M51.5455451,61.9704342 C51.2760645,61.9704342 50.9940774,61.9612352 50.697696,61.9411861 C47.9792932,61.7572057 46.0195418,59.8985327 45.9374234,59.8195155 C45.8397308,59.7258743 45.8045709,59.5845868 45.8461021,59.4558006 C45.8876332,59.3272502 45.9990122,59.233609 46.1330446,59.2145033 C46.3296096,59.1857269 50.9671765,58.4450882 51.614449,52.780617 C50.9723679,52.2855212 49.943056,51.3318899 50.1622745,50.2886271 C50.2781369,49.7364503 50.5650795,49.3342881 50.9700082,49.1566764 C51.3180676,49.004067 51.7189848,49.0278901 52.0802587,49.2198901 L52.1413755,49.0675167 C52.5038293,48.153276 53.0519933,46.7715366 54.1976396,46.5075956 C56.1418168,46.0589666 57.2836876,46.0405686 57.8991038,46.4481558 C58.1499425,46.6142098 58.3096958,46.8552712 58.3606659,47.145394 C58.4055007,47.3991925 58.4250864,47.6904947 58.4460879,47.9992514 C58.5039012,48.8542882 58.5758728,49.9183077 59.2413152,50.7089514 C59.3364121,50.8214624 59.379359,50.9672315 59.362369,51.1191332 C59.3420754,51.3016982 59.2365957,51.4814329 59.0803819,51.5996049 L58.4729888,52.1121552 C58.4236706,52.1652264 58.3479234,52.3711429 58.3377766,52.4744549 C58.3302255,52.5522927 58.3222024,52.6435753 58.3137074,52.7426416 C58.2164867,53.8635063 58.145223,54.2670837 57.9158578,54.449177 C57.5741697,54.7204301 56.6021991,54.7359976 55.9015968,54.7062777 L54.606108,59.1583657 L56.2480044,59.6919087 C56.354192,59.7277612 56.4367824,59.8117318 56.4709984,59.918346 C56.5054504,60.0249602 56.4872805,60.1412452 56.4223881,60.2322919 C56.3681144,60.3082428 55.1368101,61.9701984 51.5455451,61.9704342 L51.5455451,61.9704342 Z" id="Fill-97" fill="#000000"></path>
            <path d="M161.75979,63.958837 L175.765464,59.0883117 C175.765464,59.0883117 181.23389,61.1394564 180.71947,68.2368513 C184.280294,69.1190133 187.421088,71.2281826 187.961465,77.4486046 C180.922406,79.8412923 172.513527,83.2788939 172.513527,83.2788939 L167.813663,73.3826394 L161.75979,63.958837" id="Fill-98" fill="#FFFFFF"></path>
            <path d="M162.300403,64.1454119 L168.111461,73.1913471 C168.11972,73.2040842 168.126799,73.217293 168.133406,73.2309736 L172.690034,82.8255475 C174.254532,82.1917589 181.429747,79.3079852 187.583909,77.2037692 C186.946783,70.9357011 183.54406,69.3008708 180.634519,68.5802812 C180.469339,68.5387677 180.356072,68.383092 180.367871,68.2113771 C180.816218,62.0157217 176.510193,59.8060708 175.753193,59.4671225 L162.300403,64.1454119 Z M172.513763,83.6329381 C172.38091,83.6329381 172.254193,83.5576949 172.193784,83.4307956 L167.503596,73.5548261 L161.461992,64.1498935 C161.403471,64.0588468 161.389785,63.945864 161.425181,63.8432596 C161.460577,63.7406552 161.541043,63.6602227 161.643455,63.624606 L175.649129,58.7540808 C175.727236,58.7269555 175.812422,58.7278989 175.889585,58.7571471 C175.946218,58.7781397 181.446265,60.9255203 181.092306,67.9667776 C183.990048,68.7394949 187.725492,70.6229345 188.315423,77.4179412 C188.329582,77.5802213 188.230473,77.7309436 188.074731,77.7835431 C181.127702,80.1453316 172.731566,83.5720831 172.647559,83.6065204 C172.603904,83.6244467 172.558362,83.6329381 172.513763,83.6329381 L172.513763,83.6329381 Z" id="Fill-99" fill="#000000"></path>
            <path d="M161.75979,63.958837 C161.75979,63.958837 162.173449,65.2962324 161.05376,67.318129 C163.133621,68.5206055 165.883173,71.08548 167.133355,74.6712093 C169.260646,77.0379511 170.496198,78.5432875 170.333377,83.5834049 C171.111379,83.3902256 172.513527,83.2788939 172.513527,83.2788939 C172.513527,83.2788939 174.311637,77.1667373 168.360412,73.156438 C168.210333,68.6897259 163.200402,64.7921735 161.75979,63.958837" id="Fill-100" fill="#F8DDE3"></path>
            <path d="M167.443894,74.487229 C169.559152,76.8445359 170.774174,78.4682802 170.698191,83.1463337 C171.247771,83.0484468 171.88584,82.9812232 172.232012,82.9486728 C172.487806,81.8143633 173.249289,76.877558 168.162667,73.449863 C168.068514,73.3864134 168.010464,73.2816861 168.006689,73.1682316 C167.87832,69.348517 163.975335,65.9231807 162.187844,64.6605568 C162.183832,65.2459916 162.055227,66.1203699 161.522873,67.1867482 C163.643322,68.5007923 166.222265,71.0463252 167.443894,74.487229 Z M170.333377,83.9372132 C170.253383,83.9372132 170.174568,83.9100879 170.110855,83.8584319 C170.024489,83.7888496 169.976115,83.6827071 169.979655,83.5720831 C170.142004,78.548005 168.840144,77.0997496 166.870009,74.9075533 C166.838625,74.8726442 166.814556,74.8318383 166.799218,74.7874943 C165.595286,71.3347969 162.950271,68.8234654 160.876545,67.6242911 C160.709476,67.5278194 160.650719,67.3155344 160.743928,67.1466499 C161.765453,65.3021292 161.424237,64.0729991 161.420697,64.0607338 C161.38011,63.921805 161.427776,63.7710827 161.541515,63.6816871 C161.65549,63.5922916 161.81194,63.5802621 161.937005,63.652439 C163.310365,64.4470924 168.422472,68.3257751 168.705639,72.9639662 C174.625481,77.0735678 172.871733,83.31569 172.853091,83.3789037 C172.811796,83.5194836 172.687911,83.6199651 172.541608,83.6317587 C172.527921,83.6327022 171.159045,83.7428545 170.418799,83.9268349 C170.390483,83.9336752 170.36193,83.9372132 170.333377,83.9372132 L170.333377,83.9372132 Z" id="Fill-101" fill="#000000"></path>
            <path d="M167.3252,74.8943444 C167.251341,74.8943444 167.17701,74.8714648 167.113533,74.8238186 C166.956847,74.706826 166.924755,74.4851061 167.041797,74.3287229 L168.077245,72.9446247 C168.11618,72.8922611 168.169038,72.8519269 168.229683,72.8276321 L180.589685,67.9080454 C180.771383,67.8358685 180.97668,67.9243206 181.049831,68.1059422 C181.120623,68.2875638 181.033313,68.4932444 180.851614,68.5656571 L168.584349,73.4482119 L167.608839,74.7523493 C167.539227,74.845283 167.432804,74.8943444 167.3252,74.8943444" id="Fill-102" fill="#000000"></path>
            <path d="M185.285537,76.8096268 C185.125075,76.8096268 184.978773,76.6982951 184.941017,76.5343639 C184.280294,73.6373814 182.814905,71.6890769 180.464619,70.5785906 C180.28764,70.4950918 180.212129,70.2842221 180.294719,70.1075538 C180.379669,69.9308855 180.589685,69.8556422 180.766664,69.9386693 C183.326965,71.148222 184.919779,73.2540891 185.632416,76.3770371 C185.674891,76.567386 185.556905,76.7572631 185.365767,76.8006636 C185.33981,76.8065604 185.311494,76.8096268 185.285537,76.8096268" id="Fill-103" fill="#000000"></path>
            <path d="M183.329325,77.5120542 C183.168864,77.5120542 183.022561,77.4009584 182.984805,77.2367913 C182.324082,74.3398088 180.858693,72.3915044 178.506992,71.281018 C178.330248,71.1975193 178.254501,70.9866495 178.338035,70.8099812 C178.421806,70.6333129 178.632765,70.5578338 178.810452,70.6410967 C181.370754,71.8506494 182.961208,73.9567524 183.673845,77.0794646 C183.71868,77.2700493 183.598334,77.4596906 183.407196,77.5030911 C183.381239,77.5092237 183.355282,77.5120542 183.329325,77.5120542" id="Fill-104" fill="#000000"></path>
            <path d="M172.630333,69.8313474 C172.45477,69.8313474 172.302568,69.7009101 172.279914,69.5223548 C171.845961,66.1149448 169.810226,64.3199573 168.635319,63.5533726 C168.471555,63.4465225 168.42554,63.2271614 168.532435,63.0637019 C168.639331,62.9000066 168.859021,62.8540115 169.022314,62.9608616 C170.299633,63.7941982 172.512111,65.7432102 172.981932,69.4329592 C173.006709,69.6268462 172.869609,69.8039862 172.67564,69.8285169 C172.660302,69.8304039 172.6452,69.8313474 172.630333,69.8313474" id="Fill-105" fill="#000000"></path>
            <path d="M170.702674,70.618453 C170.526875,70.618453 170.374673,70.4877798 170.352019,70.3092245 C169.91783,66.9020504 167.882331,65.106827 166.707424,64.3402423 C166.543895,64.2333922 166.497645,64.0142669 166.60454,63.8505716 C166.711436,63.6868763 166.93089,63.6408812 167.094419,63.7477313 C168.371502,64.5810679 170.584216,66.5303158 171.054037,70.2198289 C171.078814,70.4137159 170.941714,70.5908559 170.747745,70.6153866 C170.732407,70.6175095 170.717541,70.618453 170.702674,70.618453" id="Fill-106" fill="#000000"></path>
            <polyline id="Fill-107" fill="#CADDFF" points="133.53819 75.8005655 174.960325 75.8005655 133.53819 75.8005655"></polyline>
            <path d="M164.868491,113.396473 L93.0578216,104.347943 C91.3172886,104.128582 89.9061733,102.540219 89.9061733,100.800425 L89.9061733,82.5361323 C89.9061733,80.7963389 91.3172886,79.5636707 93.0578216,79.7830319 L164.868491,88.8315616 C166.609024,89.0509228 168.020139,90.6392862 168.020139,92.3790797 L168.020139,110.643373 C168.020139,112.383166 166.609024,113.615834 164.868491,113.396473" id="Fill-108" fill="#FFFFFF"></path>
            <path d="M164.912618,113.045495 C165.656639,113.139372 166.352522,112.939117 166.871661,112.481525 C167.383957,112.030065 167.666181,111.377171 167.666181,110.643373 L167.666181,92.3790797 C167.666181,90.8140676 166.391221,89.3802004 164.824128,89.1827753 L93.0136947,80.1340097 C92.2694376,80.0408402 91.5735547,80.2408598 91.0544153,80.6979802 C90.5421191,81.1496755 90.260132,81.8023339 90.260132,82.5361323 L90.260132,100.800425 C90.260132,102.365437 91.5348553,103.799305 93.1021844,103.99673 L164.912618,113.045495 Z M165.270588,113.775991 C165.123577,113.775991 164.974679,113.766557 164.824128,113.747687 L93.0136947,104.698921 C91.1049134,104.458331 89.5522146,102.709575 89.5522146,100.800425 L89.5522146,82.5361323 C89.5522146,81.5964174 89.9193877,80.7550612 90.5862459,80.1672677 C91.2597114,79.5733415 92.153811,79.3117592 93.1021844,79.4318181 L164.912618,88.4805838 C166.821399,88.7211734 168.374098,90.46993 168.374098,92.3790797 L168.374098,110.643373 C168.374098,111.583087 168.006925,112.424444 167.340067,113.012237 C166.773261,113.511815 166.050713,113.775991 165.270588,113.775991 L165.270588,113.775991 Z" id="Fill-109" fill="#000000"></path>
            <path d="M164.868491,146.292391 L93.0578216,137.243861 C91.3172886,137.0245 89.9061733,135.436137 89.9061733,133.696343 L89.9061733,115.432286 C89.9061733,113.692257 91.3172886,112.459589 93.0578216,112.67895 L164.868491,121.72748 C166.609024,121.947077 168.020139,123.535204 168.020139,125.274998 L168.020139,143.539291 C168.020139,145.279084 166.609024,146.511752 164.868491,146.292391" id="Fill-110" fill="#FFFFFF"></path>
            <path d="M92.6580842,113.00752 C92.0497472,113.00752 91.4897845,113.210134 91.0546513,113.593898 C90.5421191,114.045357 90.260132,114.698488 90.260132,115.432286 L90.260132,133.696343 C90.260132,135.261591 91.5348553,136.695458 93.1021844,136.892883 L164.912618,145.941413 C165.657347,146.035054 166.352522,145.834799 166.871661,145.377443 C167.383957,144.925747 167.666181,144.273089 167.666181,143.539291 L167.666181,125.274998 C167.666181,123.709985 166.391221,122.276118 164.824128,122.078693 L93.0136947,113.029928 C92.8935847,113.014832 92.7748906,113.00752 92.6580842,113.00752 Z M165.270824,146.671909 C165.123813,146.671909 164.974679,146.662474 164.824128,146.643605 L93.0136947,137.594839 C91.1049134,137.354249 89.5522146,135.605493 89.5522146,133.696343 L89.5522146,115.432286 C89.5522146,114.492335 89.9193877,113.650979 90.5862459,113.063186 C91.2599473,112.469495 92.154047,112.208149 93.1021844,112.327972 L164.912618,121.376502 C166.821399,121.617091 168.374098,123.366084 168.374098,125.274998 L168.374098,143.539291 C168.374098,144.479241 168.006689,145.320362 167.339831,145.908155 C166.773261,146.407732 166.050949,146.671909 165.270824,146.671909 L165.270824,146.671909 Z" id="Fill-111" fill="#000000"></path>
            <path d="M164.273604,43.8295025 C164.273604,63.3226896 148.464629,77.1330076 128.963156,74.6756909 C109.461684,72.2183742 93.6527082,54.4239387 93.6527082,34.9307516 C93.6527082,15.4375644 109.461684,1.62724647 128.963156,4.08456317 C148.464629,6.54187986 164.273604,24.3363153 164.273604,43.8295025" id="Fill-112" fill="#E51D74"></path>
            <path d="M162.260051,100.785329 C162.260051,105.402764 158.515404,108.67384 153.896007,108.091943 C149.27661,107.50981 145.532199,103.294774 145.532199,98.6775753 C145.532199,94.0601409 149.27661,90.7890651 153.896007,91.3711977 C158.515404,91.9530945 162.260051,96.1681309 162.260051,100.785329" id="Fill-113" fill="#F8DDE3"></path>
            <path d="M137.872769,94.0700476 C137.857902,94.0700476 137.843036,94.0691041 137.827934,94.0672171 L98.0271658,89.0521021 C97.8331964,89.0278073 97.6958604,88.8506673 97.7201656,88.6567803 C97.7447067,88.4628934 97.92263,88.3253799 98.1156554,88.3499106 L137.916424,93.3652614 C138.110393,93.3895562 138.247729,93.5666963 138.223424,93.7603473 C138.20077,93.9393744 138.048332,94.0700476 137.872769,94.0700476" id="Fill-121" fill="#000000"></path>
            <path d="M132.42558,97.3798064 C132.41095,97.3798064 132.395848,97.3788629 132.380981,97.376976 L127.032194,96.7030891 C126.838224,96.6787942 126.700888,96.5016542 126.725193,96.3077672 C126.749735,96.1138803 126.927658,95.977782 127.120683,96.0008975 L132.469471,96.6750203 C132.663441,96.6993151 132.800777,96.8764551 132.776235,97.0703421 C132.753818,97.2491332 132.60138,97.3798064 132.42558,97.3798064" id="Fill-122" fill="#000000"></path>
            <path d="M117.264349,95.4694774 C117.249719,95.4694774 117.234617,95.4685339 117.21975,95.4666469 L98.0271658,93.0482491 C97.8331964,93.0237184 97.6958604,92.8468143 97.7201656,92.6529273 C97.7447067,92.4590404 97.92263,92.3219986 98.1156554,92.3460576 L117.30824,94.7644553 C117.502209,94.7889861 117.639545,94.9658902 117.615004,95.1597772 C117.592587,95.3385683 117.440149,95.4694774 117.264349,95.4694774" id="Fill-123" fill="#000000"></path>
            <path d="M124.461509,100.372317 C124.446879,100.372317 124.431777,100.371374 124.416911,100.369487 L117.21975,99.4627939 C117.025781,99.4382632 116.888209,99.2613591 116.91275,99.0674721 C116.937291,98.8735851 117.114507,98.7367793 117.30824,98.7606023 L124.5054,99.667531 C124.699134,99.6918258 124.836706,99.8689659 124.812165,100.062853 C124.789747,100.241644 124.637309,100.372317 124.461509,100.372317" id="Fill-124" fill="#000000"></path>
            <path d="M109.084128,98.434627 C109.069497,98.434627 109.054395,98.4336835 109.039529,98.4320324 L98.0271658,97.0443961 C97.8331964,97.0198654 97.6958604,96.8429613 97.7201656,96.6490743 C97.7447067,96.4551874 97.92263,96.3183815 98.1156554,96.3422046 L109.128019,97.7298408 C109.321988,97.7543715 109.459324,97.9312757 109.434783,98.1251626 C109.412365,98.3039537 109.259927,98.434627 109.084128,98.434627" id="Fill-125" fill="#000000"></path>
            <path d="M137.872769,126.965965 C137.857902,126.965965 137.843036,126.965022 137.827934,126.963371 L98.0271658,121.94802 C97.8331964,121.923725 97.6958604,121.746585 97.7201656,121.552934 C97.7447067,121.359047 97.92263,121.222477 98.1156554,121.246064 L137.916424,126.261179 C138.110393,126.28571 138.247729,126.462614 138.223424,126.656501 C138.20077,126.835292 138.048332,126.965965 137.872769,126.965965" id="Fill-126" fill="#000000"></path>
            <path d="M134.903291,130.588019 C134.888661,130.588019 134.873559,130.587076 134.858692,130.585189 L131.889215,130.211095 C131.695245,130.186565 131.55791,130.00966 131.582215,129.815774 C131.606756,129.621887 131.784443,129.484609 131.977705,129.508904 L134.947182,129.883233 C135.141151,129.907528 135.278487,130.084668 135.253946,130.278319 C135.231529,130.457346 135.079091,130.588019 134.903291,130.588019" id="Fill-127" fill="#000000"></path>
            <path d="M128.963628,129.839361 C128.948762,129.839361 128.933896,129.838653 128.918793,129.836766 L114.427252,128.010879 C114.233283,127.986349 114.095947,127.809445 114.120252,127.615558 C114.144793,127.421671 114.321537,127.284865 114.515742,127.308688 L129.007283,129.134575 C129.201252,129.159105 129.338824,129.336009 129.314283,129.529896 C129.29163,129.708688 129.139192,129.839361 128.963628,129.839361" id="Fill-128" fill="#000000"></path>
            <path d="M103.578182,126.640698 C103.563316,126.640698 103.54845,126.63999 103.533347,126.638103 L98.0271658,125.944167 C97.8331964,125.919872 97.6958604,125.742732 97.7201656,125.549081 C97.7447067,125.355194 97.92263,125.21886 98.1156554,125.242211 L103.621837,125.935912 C103.815806,125.960442 103.953142,126.137346 103.928837,126.331233 C103.906184,126.510024 103.753746,126.640698 103.578182,126.640698" id="Fill-129" fill="#000000"></path>
            <path d="M129.751304,133.935046 C129.736438,133.935046 129.721572,133.934102 129.70647,133.931979 L120.818095,132.812294 C120.624125,132.787763 120.486553,132.610623 120.511094,132.416972 C120.5354,132.222849 120.712379,132.086044 120.906584,132.110103 L129.794959,133.230024 C129.988929,133.254554 130.126265,133.431459 130.101959,133.625346 C130.079306,133.804137 129.926868,133.935046 129.751304,133.935046" id="Fill-130" fill="#000000"></path>
            <path d="M110.65712,131.528913 C110.642254,131.528913 110.627388,131.52797 110.612285,131.526083 L98.0271658,129.940314 C97.8331964,129.916019 97.6958604,129.738879 97.7201656,129.544992 C97.7447067,129.351105 97.92263,129.214064 98.1156554,129.238358 L110.700775,130.824127 C110.894744,130.848422 111.03208,131.025562 111.007775,131.219449 C110.985122,131.39824 110.832684,131.528913 110.65712,131.528913" id="Fill-131" fill="#000000"></path>
            <path d="M162.260051,133.681483 C162.260051,138.298682 158.515404,141.569993 153.896007,140.987861 C149.27661,140.405728 145.532199,136.190692 145.532199,131.573493 C145.532199,126.956295 149.27661,123.684983 153.896007,124.267116 C158.515404,124.849248 162.260051,129.064049 162.260051,133.681483" id="Fill-132" fill="#F8DDE3"></path>
            <polyline id="Path-2-Copy" stroke="#000000" points="149.678471 133.372317 152.966385 137.405394 158.113307 128.469477"></polyline>
            <polyline id="Fill-137" fill="#FFFFFF" points="150.89255 134.016658 156.840708 134.766259 150.89255 134.016658"></polyline>
            <path d="M97.7742033,34.6255329 L97.7742033,53.024273 C97.7742033,58.5632601 107.016301,63.0535594 118.417075,63.0535594 C129.817849,63.0535594 139.059946,58.5632601 139.059946,53.024273 L139.059946,34.6255329 L97.7742033,34.6255329" id="Fill-139" fill="#FFFFFF"></path>
            <path d="M98.128162,34.9793412 L98.128162,53.024273 C98.128162,58.3594665 107.229856,62.6997511 118.417075,62.6997511 C129.604293,62.6997511 138.705988,58.3594665 138.705988,53.024273 L138.705988,34.9793412 L98.128162,34.9793412 Z M118.417075,63.4073677 C112.85072,63.4073677 107.611895,62.3513678 103.665728,60.4341985 C99.6383858,58.4776385 97.4202446,55.8460123 97.4202446,53.024273 L97.4202446,34.6255329 C97.4202446,34.4299949 97.5788181,34.2717246 97.7742033,34.2717246 L139.059946,34.2717246 C139.255331,34.2717246 139.413905,34.4299949 139.413905,34.6255329 L139.413905,53.024273 C139.413905,55.8460123 137.195764,58.4776385 133.168422,60.4341985 C129.222254,62.3513678 123.983665,63.4073677 118.417075,63.4073677 L118.417075,63.4073677 Z" id="Fill-140" fill="#000000"></path>
            <path d="M140.210548,30.518526 L119.033907,21.5624581 C118.635113,21.4204631 118.199036,21.4204631 117.800243,21.5624581 L96.6236015,30.518526 L88.1939571,30.518526 L88.1939571,32.5633022 C88.1939571,32.8173366 88.3376643,33.0713709 88.6248428,33.1737395 L117.800243,43.5639104 C118.199036,43.7061413 118.635113,43.7061413 119.033907,43.5639104 L148.209543,33.1737395 C148.496721,33.0713709 148.640192,32.8173366 148.640192,32.5633022 L148.640192,30.518526 L140.210548,30.518526" id="Fill-141" fill="#F8DDE3"></path>
            <path d="M88.5479158,30.8723343 L88.5479158,32.5633022 C88.5479158,32.6118919 88.5620741,32.775823 88.7435369,32.840452 L117.918937,43.2306229 C118.240095,43.345021 118.593818,43.345021 118.915213,43.2306229 L148.090613,32.840452 C148.272075,32.775823 148.286234,32.6118919 148.286234,32.5633022 L148.286234,30.8723343 L140.210548,30.8723343 C140.163353,30.8723343 140.116395,30.8626635 140.07274,30.8442655 L118.896099,21.8881977 C118.594054,21.7815834 118.240331,21.7813475 117.918937,21.8957456 L96.7614094,30.8442655 C96.7177545,30.8626635 96.671032,30.8723343 96.6236015,30.8723343 L88.5479158,30.8723343 Z M118.417075,44.0238612 C118.167888,44.0238612 117.918701,43.9816401 117.681549,43.8971978 L88.5059127,33.5070269 C88.1014559,33.362909 87.8399984,32.9925896 87.8399984,32.5633022 L87.8399984,30.518526 C87.8399984,30.3229879 87.9985719,30.1647177 88.1939571,30.1647177 L96.5518659,30.1647177 L117.662435,21.2367186 C118.155617,21.0602862 118.678532,21.0600503 119.152601,21.2291707 L140.282284,30.1647177 L148.640192,30.1647177 C148.835814,30.1647177 148.994151,30.3229879 148.994151,30.518526 L148.994151,32.5633022 C148.994151,32.9925896 148.73293,33.362909 148.328237,33.5070269 L119.152601,43.8971978 C118.915685,43.9816401 118.666262,44.0238612 118.417075,44.0238612 L118.417075,44.0238612 Z" id="Fill-142" fill="#000000"></path>
            <path d="M148.209543,29.9080887 L119.033907,19.5176819 C118.635113,19.3756869 118.199036,19.3756869 117.800243,19.5176819 L88.6248428,29.9080887 C88.0504858,30.1125899 88.0504858,30.9244621 88.6248428,31.1289633 L117.800243,41.51937 C118.199036,41.6613651 118.635113,41.6613651 119.033907,41.51937 L148.209543,31.1289633 C148.783664,30.9244621 148.783664,30.1125899 148.209543,29.9080887" id="Fill-143" fill="#FFFFFF"></path>
            <path d="M118.417075,19.7651119 C118.248354,19.7651119 118.079634,19.7938883 117.918937,19.8509694 L88.7435369,30.2413761 C88.5620741,30.3060051 88.5479158,30.4699363 88.5479158,30.518526 C88.5479158,30.5671157 88.5620741,30.7310469 88.7435369,30.7956758 L117.918937,41.1860826 C118.240095,41.3002448 118.594054,41.3004806 118.915213,41.1860826 L148.090613,30.7956758 C148.272075,30.7310469 148.286234,30.5671157 148.286234,30.518526 C148.286234,30.4699363 148.272075,30.3060051 148.090613,30.2413761 L118.915213,19.8509694 C118.754515,19.7938883 118.585795,19.7651119 118.417075,19.7651119 Z M118.417075,41.9793209 C118.167888,41.9793209 117.918701,41.9370997 117.681549,41.8526575 L88.5059127,31.4622507 C88.1014559,31.3183687 87.8399984,30.9478134 87.8399984,30.518526 C87.8399984,30.0892386 88.1014559,29.7189192 88.5059127,29.5748013 L117.681549,19.1843945 C118.155853,19.01551 118.678296,19.01551 119.152601,19.1843945 L148.328237,29.5748013 C148.73293,29.7189192 148.994151,30.0894744 148.994151,30.518526 C148.994151,30.9478134 148.73293,31.3183687 148.328237,31.4622507 L119.152601,41.8526575 C118.915449,41.9370997 118.666262,41.9793209 118.417075,41.9793209 L118.417075,41.9793209 Z" id="Fill-144" fill="#000000"></path>
            <path d="M134.978094,45.454662 L134.978094,45.454662 C134.40067,45.454662 133.92141,45.901404 133.881766,46.4776398 L132.761369,62.7101295 L137.195056,62.7101295 L136.074659,46.4776398 C136.034779,45.901404 135.555991,45.454662 134.978094,45.454662" id="Fill-145" fill="#F8DDE3"></path>
            <path d="M133.140577,62.3563212 L136.816084,62.3563212 L135.721644,46.5019346 C135.694743,46.1129814 135.368157,45.8084703 134.978094,45.8084703 C134.588268,45.8084703 134.261682,46.1129814 134.235017,46.5019346 L133.140577,62.3563212 Z M137.195056,63.0639378 L132.761369,63.0639378 C132.663441,63.0639378 132.569523,63.0233678 132.502743,62.9516626 C132.435727,62.8799575 132.401511,62.7837216 132.408354,62.6858346 L133.528516,46.453345 C133.580901,45.6947799 134.217791,45.1008537 134.978094,45.1008537 C135.738634,45.1008537 136.375287,45.6947799 136.427909,46.4531091 L137.548307,62.6858346 C137.554914,62.7837216 137.520934,62.8799575 137.453918,62.9516626 C137.386901,63.0233678 137.29322,63.0639378 137.195056,63.0639378 L137.195056,63.0639378 Z" id="Fill-146" fill="#000000"></path>
            <path d="M134.97833,45.6046767 C134.782709,45.6046767 134.624372,45.4464065 134.624372,45.2508684 L134.624372,36.916088 L118.293897,30.8501623 C118.110547,30.7822311 118.017101,30.5784375 118.085297,30.3951648 C118.153493,30.212128 118.35761,30.1191943 118.540488,30.1868897 L135.101508,36.3384369 C135.24026,36.3900929 135.332289,36.5221814 135.332289,36.6700733 L135.332289,45.2508684 C135.332289,45.4464065 135.173952,45.6046767 134.97833,45.6046767" id="Fill-147" fill="#000000"></path>
            <path d="M170.705034,23.7081876 C170.560855,23.7081876 170.425171,23.6192638 170.372785,23.4758535 C170.305533,23.2925808 170.399686,23.089259 170.583508,23.0220354 L183.034359,18.4638049 C183.218418,18.3970531 183.421354,18.4909302 183.487427,18.6744388 C183.555859,18.8579474 183.46147,19.0610333 183.277411,19.1282569 L170.826796,23.6864874 C170.78668,23.7013473 170.745621,23.7081876 170.705034,23.7081876" id="Fill-148" fill="#E51D74"></path>
            <path d="M160.288737,18.733171 C160.144322,18.733171 160.008874,18.6442471 159.956252,18.5008368 C159.889,18.3173283 159.983389,18.1140064 160.166976,18.0467828 L165.251002,16.1855152 C165.434589,16.1189992 165.638233,16.2124046 165.705249,16.3959132 C165.772501,16.5796577 165.678348,16.7827436 165.494762,16.8499672 L160.410499,18.7114707 C160.370148,18.7260948 160.329089,18.733171 160.288737,18.733171" id="Fill-149" fill="#E51D74"></path>
            <path d="M170.86172,14.8622721 C170.717541,14.8622721 170.581856,14.7733483 170.529234,14.6301739 C170.461982,14.4464294 170.556371,14.2433434 170.739958,14.1761198 L189.507084,7.30563408 C189.691143,7.23888225 189.894079,7.33275939 189.960151,7.51603209 C190.028583,7.69977655 189.934194,7.90286252 189.750136,7.9700861 L170.983481,14.8405719 C170.943366,14.8551959 170.902071,14.8622721 170.86172,14.8622721" id="Fill-150" fill="#E51D74"></path>
            <path d="M6.78086005,156.63751 C6.63668087,156.63751 6.5009967,156.548351 6.44837484,156.40494 C6.38135866,156.221668 6.47551167,156.018582 6.65909825,155.951122 L11.8174564,154.062729 C12.000807,153.996449 12.2042153,154.089855 12.2717034,154.273363 C12.3387196,154.456872 12.2445666,154.660194 12.060744,154.727181 L6.90262184,156.61581 C6.86250652,156.630434 6.82121134,156.63751 6.78086005,156.63751" id="Fill-151" fill="#000000"></path>
            <path d="M15.857305,153.314543 C15.7128899,153.314543 15.5774417,153.225619 15.5248198,153.082208 C15.4575677,152.8987 15.5519567,152.695614 15.7355432,152.62839 L20.8054117,150.772548 C20.9882904,150.70556 21.1921706,150.799437 21.2594227,150.982946 C21.3266749,151.166218 21.2322859,151.369776 21.0486993,151.436764 L15.9788309,153.292842 C15.9389515,153.307702 15.8976563,153.314543 15.857305,153.314543" id="Fill-152" fill="#000000"></path>
            <path d="M58.6476084,137.64909 C58.5034292,137.64909 58.3677451,137.55993 58.3153592,137.416756 C58.248107,137.233247 58.34226,137.029925 58.5258466,136.962937 L65.4332327,134.433916 C65.6170553,134.367164 65.8202275,134.461041 65.8874797,134.644549 C65.9547319,134.828058 65.8603429,135.031144 65.6767563,135.098368 L58.7693702,137.627389 C58.7292549,137.642013 58.6881957,137.64909 58.6476084,137.64909" id="Fill-153" fill="#E51D74"></path>
            <path d="M67.9581381,134.2405 C67.8139589,134.2405 67.6782748,134.151341 67.6258889,134.00793 C67.5586367,133.824658 67.6527897,133.621572 67.8363763,133.554112 L77.9763492,129.841955 C78.1604077,129.775204 78.3633441,129.868845 78.4305962,130.052353 C78.4978484,130.236098 78.4034594,130.439184 78.2198728,130.506407 L68.0798999,134.2188 C68.0397846,134.233188 67.9987254,134.2405 67.9581381,134.2405" id="Fill-154" fill="#E51D74"></path>
            <path d="M1.21120189,151.26387 C1.06702272,151.26387 0.931338547,151.174946 0.878716686,151.031535 C0.811700506,150.848027 0.90585352,150.644941 1.0894401,150.577481 L10.6682705,147.070769 C10.8518571,147.004017 11.0552653,147.097659 11.1225175,147.281403 C11.1897696,147.464912 11.0953806,147.667762 10.9117941,147.735457 L1.33296369,151.242169 C1.29284837,151.256793 1.25155319,151.26387 1.21120189,151.26387" id="Fill-155" fill="#000000"></path>
            <path d="M58.5945146,130.255675 C58.4503354,130.255675 58.3146513,130.166751 58.2620294,130.023577 C58.1950132,129.839832 58.2891662,129.636747 58.4729888,129.569523 L71.8686738,124.665268 C72.0515525,124.598516 72.2554327,124.692629 72.3226849,124.875902 C72.389937,125.05941 72.295548,125.262732 72.1119615,125.329956 L58.7162764,130.233975 C58.6761611,130.248599 58.6351019,130.255675 58.5945146,130.255675" id="Fill-156" fill="#E51D74"></path>
            <path d="M74.4294471,124.458408 C74.2852679,124.458408 74.1495837,124.36972 74.0969618,124.22631 C74.0299457,124.042801 74.1240987,123.839479 74.3079212,123.772256 L81.7948557,121.031421 C81.9779703,120.964433 82.1816146,121.05831 82.2488667,121.242055 C82.3161189,121.425563 82.2219659,121.628649 82.0381433,121.695873 L74.5512088,124.436944 C74.5110935,124.451568 74.4700343,124.458408 74.4294471,124.458408" id="Fill-157" fill="#E51D74"></path>
            <path d="M179.51837,121.678418 C179.374426,121.678418 179.239922,121.589494 179.188008,121.44632 C179.119576,121.262811 179.213965,121.059489 179.398024,120.992266 L189.537761,117.280109 C189.721819,117.213121 189.924755,117.307234 189.990828,117.490507 C190.05926,117.674251 189.964871,117.877337 189.780812,117.944561 L179.641075,121.656954 C179.60096,121.671578 179.560845,121.678418 179.51837,121.678418" id="Fill-158" fill="#000000"></path>
            <path d="M170.155926,117.693829 C170.011511,117.693829 169.876063,117.604905 169.823441,117.461731 C169.756189,117.278222 169.850578,117.0749 170.034164,117.007677 L183.430793,112.103657 C183.612492,112.036906 183.817788,112.130547 183.88386,112.314055 C183.952292,112.497564 183.857903,112.700886 183.673845,112.768109 L170.277452,117.672129 C170.237337,117.686753 170.196277,117.693829 170.155926,117.693829" id="Fill-159" fill="#000000"></path>
            <path d="M185.991094,111.896798 C185.847151,111.896798 185.710287,111.807874 185.658373,111.664463 C185.592301,111.480955 185.68433,111.277869 185.868389,111.210409 L193.355795,108.469574 C193.539854,108.402822 193.74279,108.4967 193.811222,108.680208 C193.877294,108.863717 193.782905,109.066803 193.598847,109.134026 L186.11144,111.875097 C186.071325,111.889721 186.03121,111.896798 185.991094,111.896798" id="Fill-160" fill="#000000"></path>
            <path d="M180.523612,95.6944995 C180.379669,95.6944995 180.245165,95.6055757 180.190891,95.4624012 C180.124819,95.2786568 180.219208,95.0755708 180.403266,95.0083472 L185.561625,93.1199543 C185.745683,93.0529666 185.948619,93.1470796 186.014692,93.3303523 C186.083124,93.5140968 185.988735,93.7171827 185.804676,93.7844063 L180.646318,95.6727992 C180.606203,95.6874233 180.563728,95.6944995 180.523612,95.6944995" id="Fill-161" fill="#E51D74"></path>
            <path d="M174.954662,90.3208588 C174.810247,90.3208588 174.674799,90.2319349 174.622177,90.0887605 C174.554925,89.9052519 174.649314,89.7019301 174.832664,89.6347065 L184.412439,86.1279943 C184.596497,86.0610066 184.799433,86.1551196 184.865506,86.3383924 C184.933938,86.5219009 184.839549,86.7252228 184.65549,86.7924464 L175.076424,90.2993944 C175.036073,90.3140185 174.995013,90.3208588 174.954662,90.3208588" id="Fill-162" fill="#E51D74"></path>
            <path d="M85.6076988,164.814492 C85.4635196,164.814492 85.3278355,164.725333 85.2754496,164.581922 C85.2081974,164.398649 85.3023504,164.195564 85.486173,164.12834 L93.3707211,161.2415 C93.5545436,161.174984 93.7577159,161.268861 93.8249681,161.45237 C93.8919842,161.635642 93.7978312,161.838964 93.6140087,161.906188 L85.7294606,164.792792 C85.6893453,164.80718 85.6482861,164.814492 85.6076988,164.814492" id="Fill-163" fill="#FFFFFF"></path>
            <path d="M96.2354268,160.923544 C96.0912476,160.923544 95.9555635,160.83462 95.9031776,160.69121 C95.8359254,160.507702 95.9300784,160.304616 96.113665,160.237156 L107.688351,155.999948 C107.872173,155.93296 108.075345,156.027073 108.142598,156.21011 C108.209614,156.39409 108.115461,156.597176 107.931874,156.664164 L96.3571886,160.901844 C96.3170733,160.916468 96.2760141,160.923544 96.2354268,160.923544" id="Fill-164" fill="#FFFFFF"></path>
            <path d="M85.5470539,156.374984 C85.4028747,156.374984 85.2671905,156.286297 85.2145687,156.142886 C85.1475525,155.959378 85.2417055,155.756056 85.4252921,155.688832 L100.716308,150.090877 C100.899895,150.024125 101.103067,150.118002 101.170319,150.301275 C101.237571,150.48502 101.143418,150.688105 100.959832,150.755329 L85.6688157,156.35352 C85.6287004,156.368144 85.5874052,156.374984 85.5470539,156.374984" id="Fill-165" fill="#FFFFFF"></path>
            <path d="M103.622545,149.757825 C103.47813,149.757825 103.342446,149.668666 103.29006,149.525255 C103.222808,149.341983 103.317197,149.138897 103.500547,149.071437 L112.046998,145.942828 C112.230349,145.876077 112.433757,145.969718 112.501245,146.153462 C112.568261,146.336971 112.474108,146.540057 112.290286,146.607044 L103.744071,149.736125 C103.703955,149.750749 103.662896,149.757825 103.622545,149.757825" id="Fill-166" fill="#FFFFFF"></path>
            <path d="M118.206115,150.900626 C120.20315,151.58725 121.638571,156.267191 122.574438,158.076802 C122.595675,158.117608 122.616441,158.157471 122.637206,158.19639 C122.896068,158.684409 123.618852,158.586051 123.73967,158.046847 C124.2371,155.828469 124.447115,153.596646 122.387547,151.836803 C118.955092,148.903968 118.331181,146.220686 118.518307,143.100568 C118.637945,141.107212 117.883069,139.512952 117.322162,138.621355 C116.70887,137.646495 116.185011,136.617385 115.734776,135.557375 C107.477863,116.119382 120.708131,121.638792 121.88823,126.314722 C122.730651,129.653258 121.451209,131.681287 124.363581,134.010761 C128.057966,136.966004 128.357415,140.12622 128.274353,141.582259 C128.191054,143.038298 126.901229,145.201482 129.77207,148.030533 C132.642675,150.859349 132.725973,154.104243 131.644275,157.390414 C130.562578,160.677058 132.601144,163.256085 133.724373,164.587583 C133.726261,164.589706 133.728148,164.591829 133.730036,164.594188 C133.942883,164.849873 134.345924,164.786895 134.459663,164.473893 C134.962284,163.090266 136.022745,162.495868 136.761338,162.17461 C137.718207,161.758768 138.758373,159.886414 139.548881,157.265638 C140.339389,154.644862 145.53975,152.273638 147.578316,153.396862 C149.616882,154.520085 150.82341,159.387309 149.159332,161.841795 C147.495018,164.296281 139.132862,166.584477 139.548881,170.161951 C139.964901,173.739661 133.807671,175.861331 133.807671,175.861331 C133.807671,175.861331 133.298678,175.792693 132.779067,175.342884 C131.161004,176.310668 128.745826,177.258638 127.379781,175.424496 C127.176845,175.152064 126.973436,174.84543 126.771444,174.511199 C126.206054,174.477941 125.351598,174.16258 124.072391,173.365332 C119.267048,170.36999 120.515106,167.873755 119.766365,165.752084 C119.017625,163.63065 115.772531,160.385756 115.772531,160.385756 C111.528802,153.708921 116.209316,150.214238 118.206115,150.900626" id="Fill-167" fill="#E51D74"></path>
            <path d="M129.874718,173.485155 C129.872594,173.485155 129.870706,173.485155 129.868819,173.485155 C129.673197,173.481852 129.517456,173.320752 129.520523,173.12545 C129.90445,149.227585 117.411832,127.707076 117.285351,127.492432 C117.186242,127.324019 117.24264,127.107253 117.411124,127.008187 C117.579608,126.908884 117.796467,126.965258 117.895576,127.133906 C118.022765,127.350201 130.615671,149.042661 130.228441,173.137007 C130.225373,173.330423 130.067507,173.485155 129.874718,173.485155" id="Fill-168" fill="#FFFFFF"></path>
            <path d="M134.749673,173.875051 C134.729379,173.875051 134.70885,173.873164 134.68832,173.869626 C134.495767,173.836133 134.366926,173.65286 134.400434,173.460388 C136.258245,162.802974 147.124541,155.841206 147.234032,155.772095 C147.399685,155.667604 147.61796,155.717393 147.72226,155.882483 C147.826559,156.04783 147.777241,156.266247 147.61206,156.370503 C147.504929,156.437962 136.901034,163.238158 135.097733,173.582098 C135.067764,173.753813 134.918393,173.875051 134.749673,173.875051" id="Fill-169" fill="#FFFFFF"></path>
            <path d="M127.241973,173.192673 C127.086939,173.192673 126.944412,173.089833 126.900993,172.933214 C124.894047,165.670237 119.213954,157.820174 119.156848,157.741628 C119.041694,157.58383 119.076382,157.362581 119.234483,157.247712 C119.392349,157.132134 119.613927,157.167515 119.728846,157.32555 C119.786895,157.405038 125.542499,165.358885 127.583425,172.744752 C127.635575,172.932978 127.524904,173.127808 127.336598,173.179936 C127.304978,173.188663 127.273357,173.192673 127.241973,173.192673" id="Fill-170" fill="#FFFFFF"></path>
            <path d="M128.5856,158.634876 C128.491683,158.634876 128.398002,158.597608 128.32839,158.524016 C126.455477,156.545048 125.334608,153.663633 125.287885,153.542159 C125.217565,153.35983 125.308651,153.155093 125.491057,153.084803 C125.6737,153.014985 125.878288,153.105796 125.948372,153.288361 C125.959463,153.316901 127.067825,156.162228 128.842574,158.037884 C128.977079,158.179879 128.970707,158.403721 128.828652,158.537933 C128.76022,158.602562 128.67291,158.634876 128.5856,158.634876" id="Fill-171" fill="#FFFFFF"></path>
            <path d="M128.974955,161.754286 C128.909119,161.754286 128.842574,161.736124 128.783109,161.697441 C126.415833,160.165923 125.490113,157.56496 125.451886,157.455279 C125.387701,157.270591 125.485158,157.069156 125.669689,157.004999 C125.853983,156.940606 126.055975,157.037785 126.120396,157.222237 C126.129127,157.247004 127.009776,159.707151 129.167744,161.103515 C129.331981,161.209893 129.378704,161.428782 129.272516,161.59295 C129.204792,161.697441 129.091053,161.754286 128.974955,161.754286" id="Fill-172" fill="#FFFFFF"></path>
            <path d="M125.725614,169.076703 C125.685263,169.076703 125.644204,169.069863 125.604088,169.055003 C123.745333,168.374983 121.01584,164.544419 120.900685,164.381903 C120.787654,164.222453 120.82541,164.001677 120.985163,163.888694 C121.144916,163.775711 121.365551,163.813686 121.478346,163.9729 C122.228738,165.031731 124.475904,167.888851 125.847376,168.390551 C126.030962,168.457774 126.125351,168.66086 126.058099,168.844369 C126.005713,168.987779 125.870029,169.076703 125.725614,169.076703" id="Fill-173" fill="#FFFFFF"></path>
            <path d="M142.548091,160.324665 C142.37182,160.324665 142.219146,160.193284 142.1972,160.013785 C141.844185,157.144636 143.608551,155.115427 143.683827,155.030513 C143.813376,154.884036 144.037077,154.870592 144.18338,155.000085 C144.329447,155.129343 144.343134,155.352714 144.214293,155.498955 C144.197775,155.517589 142.586791,157.383102 142.89969,159.927456 C142.923523,160.121579 142.785715,160.298011 142.591746,160.32207 C142.577116,160.323957 142.562486,160.324665 142.548091,160.324665" id="Fill-174" fill="#FFFFFF"></path>
            <path d="M137.316582,167.116369 C137.177594,167.116369 137.045921,167.033814 136.989524,166.897951 C136.914485,166.717273 137.000143,166.510178 137.180661,166.435406 C140.085483,165.230571 143.185689,162.643289 143.216837,162.617107 C143.366444,162.491387 143.589674,162.510964 143.715447,162.660743 C143.84122,162.810522 143.821635,163.033657 143.671792,163.159141 C143.542007,163.268114 140.456431,165.842895 137.45203,167.088772 C137.407667,167.107406 137.361652,167.116369 137.316582,167.116369" id="Fill-175" fill="#FFFFFF"></path>
            <path d="M124.7796,143.808185 C124.733822,143.808185 124.687807,143.799222 124.642972,143.780588 C124.462689,143.705109 124.377739,143.497777 124.453014,143.317571 C125.460853,140.909787 124.774881,137.716077 124.767802,137.684235 C124.725799,137.493414 124.846381,137.304716 125.037282,137.262495 C125.228184,137.220274 125.416962,137.341041 125.459201,137.532097 C125.489878,137.671498 126.199447,140.978426 125.106186,143.590711 C125.049317,143.726337 124.91788,143.808185 124.7796,143.808185" id="Fill-176" fill="#FFFFFF"></path>
            <path d="M130.421938,188.840436 L130.422174,188.840436 C135.979562,188.840436 140.484984,184.337163 140.484984,178.782137 L140.484984,173.271454 L120.359128,173.271454 L120.359128,178.782137 C120.359128,184.337163 124.86455,188.840436 130.421938,188.840436" id="Fill-177" fill="#FFFFFF"></path>
            <path d="M120.713087,173.625263 L120.713087,178.782137 C120.713087,184.13337 125.068431,188.486627 130.421938,188.486627 C135.775445,188.486627 140.131025,184.13337 140.131025,178.782137 L140.131025,173.625263 L120.713087,173.625263 Z M130.422174,189.194244 L130.421938,189.194244 C124.678132,189.194244 120.005169,184.523502 120.005169,178.782137 L120.005169,173.271454 C120.005169,173.076152 120.163743,172.917646 120.359128,172.917646 L140.484984,172.917646 C140.680369,172.917646 140.838943,173.076152 140.838943,173.271454 L140.838943,178.782137 C140.838943,184.523502 136.16598,189.194244 130.422174,189.194244 L130.422174,189.194244 Z" id="Fill-178" fill="#000000"></path>
            <polyline id="Path-2" stroke="#000000" points="149.678471 100.372317 152.966385 104.405394 158.113307 95.4694774"></polyline>
        </g>
    </g>
</svg>