<?xml version="1.0" encoding="UTF-8"?>
<svg width="198px" height="198px" viewBox="0 0 198 198" version="1.1" xmlns="http://www.w3.org/2000/svg" xmlns:xlink="http://www.w3.org/1999/xlink">
    <title>11</title>
    <g id="Page-1" stroke="none" stroke-width="1" fill="none" fill-rule="evenodd">
        <g id="11">
            <path d="M142.020999,154.175263 C108.019781,182.69815 42.0835333,184.052432 26.046667,167.621938 C13.3530066,154.616008 4.18669161,137.938956 1.10893334,118.544253 C-6.30925325,71.7968028 24.3822383,26.4952262 66.4999373,8.86780922 C104.109808,-6.87370607 160.532985,-2.03340057 183.614977,26.4024377 C186.116402,29.4847844 199.278781,46.3665456 197.898932,68.6721273 C197.662181,72.5063476 197.042803,75.7166372 196.160369,78.6004931 C192.802814,89.5827732 154.738573,143.508177 142.020999,154.175263" id="Fill-47" fill="#FFEFF3"></path>
            <path d="M196.267983,78.304431 L159.810776,104.367228 C156.678015,106.607783 152.40933,106.394465 149.513319,103.853065 L147.234296,101.850221 C144.529599,99.4759846 140.598103,99.1172663 137.508388,100.962992 L26.0251442,167.59611 C28.1152458,169.734071 30.3033956,171.770156 32.5776365,173.700539 C47.7464172,186.577091 66.7534278,189.833775 85.9756663,192.258232 C118.345935,196.341881 160.198186,191.754113 174.549101,167.343812 C181.859674,154.910636 177.179664,145.793452 179.061712,126.661809 C179.523256,121.977905 180.015889,118.442856 181.23073,113.573614 C185.724209,95.5652378 192.917603,89.3242569 196.267983,78.304431" id="Fill-48" fill="#F7CDD7"></path>
            <path d="M160.719516,152.171702 L160.719516,152.705236 C160.719516,152.707388 160.719516,152.70954 160.717125,152.709301 C160.198186,152.687778 159.676857,152.674386 159.153136,152.674386 C138.641921,152.674386 122.014374,169.266063 122.014374,189.733094 C122.014374,190.896537 122.071768,192.046827 122.174599,193.182769 C122.176991,193.184921 122.172208,193.185638 122.172208,193.183486 C116.942171,179.038028 103.311074,168.95087 87.3196447,168.95087 C80.3343052,168.95087 73.8009442,170.875513 68.2217601,174.221159 C67.7339103,174.513873 67.1145323,174.464131 66.6792938,174.099195 C61.9921095,170.181752 55.956164,167.822342 49.3654089,167.822342 C43.0855385,167.822342 37.1524241,170.096616 32.5680709,173.686669 C47.705763,186.593592 66.731905,194.756346 85.9541435,197.181282 C86.7313552,197.279332 87.5157412,197.367815 88.3120842,197.446733 C91.7246414,197.791103 95.0415417,196.461454 98.7267208,196.480585 C101.307064,196.494934 104.198291,197.941765 106.859942,197.800669 C108.639159,197.705011 110.430333,197.575872 112.231073,197.410862 C116.239094,197.04736 119.912316,195.445085 123.929902,194.744389 C126.682427,194.261315 129.798448,194.768304 132.503145,194.132655 C153.585909,189.169907 172.528351,179.509862 179.02584,165.652575 C185.133529,152.629187 177.741648,145.101603 179.061712,126.661809 C179.028232,126.673766 178.992361,126.685485 178.956489,126.697442 C168.348148,130.320975 160.719516,140.357434 160.719516,152.171702" id="Fill-49" fill="#FFF7F9"></path>
            <path d="M56.7716384,154.800868 C56.6496759,154.800868 56.5277135,154.737255 56.4607537,154.622944 C56.3627055,154.451715 56.4200996,154.231941 56.5898904,154.132217 L61.3512088,151.356694 C61.5233911,151.256731 61.7434017,151.314604 61.84145,151.485833 C61.9418897,151.657061 61.8844956,151.876835 61.7123133,151.976559 L56.9533864,154.752082 C56.8959923,154.785323 56.8338153,154.800868 56.7716384,154.800868" id="Fill-50" fill="#FFFFFF"></path>
            <path d="M53.3447327,162.68167 C53.2227703,162.68167 53.1008078,162.618057 53.0338481,162.503745 C52.9357998,162.332756 52.9931939,162.112982 53.1629848,162.013258 L65.196613,154.997924 C65.3687953,154.8982 65.588806,154.955834 65.6868543,155.127062 C65.7872939,155.298051 65.7298998,155.517826 65.5577175,155.61755 L53.5264807,162.632884 C53.4690866,162.666125 53.4069097,162.68167 53.3447327,162.68167" id="Fill-51" fill="#FFFFFF"></path>
            <path d="M108.067609,96.1595144 C75.3434105,97.6206936 42.5235547,97.6249982 9.79935567,96.1726674 L9.50521094,96.1597536 C12.4586153,74.0454882 12.9823364,51.8030409 11.0668086,29.6320981 L9.50521094,11.5400214 C42.303544,9.66272896 75.266885,9.66272896 108.067609,11.5400214 L106.025336,25.7808985 C102.662999,49.2121382 103.349337,72.8449777 108.067609,96.1595144" id="Fill-52" fill="#FFFFFF"></path>
            <path d="M9.91175244,95.8187321 C42.332241,97.2545618 75.2070995,97.2552792 107.632371,95.8199278 C102.985841,72.62042 102.325809,49.0418666 105.669015,25.7299605 L107.656285,11.8760208 C75.2190566,10.0343611 42.3298496,10.0350785 9.89262108,11.8772166 L11.4231302,29.6010091 C13.3243096,51.5983323 12.814937,73.87426 9.91175244,95.8187321 Z M58.7852145,97.6135192 C42.4111579,97.6135192 26.0418841,97.2526486 9.78261573,96.5309074 L9.488471,96.5182327 C9.38803134,96.5134498 9.29476593,96.4670556 9.23019758,96.3898116 C9.16562922,96.3125676 9.13454076,96.2118873 9.14888928,96.1121636 C12.0903366,74.0942739 12.6164491,51.737515 10.7104869,29.6627087 L9.14649786,11.5711103 C9.1393236,11.4744955 9.17041206,11.3785981 9.232589,11.3051805 C9.29715735,11.2322411 9.38803134,11.1875209 9.48368816,11.1820205 C42.1983215,9.3099893 75.3721075,9.3099893 108.086741,11.1820205 C108.187181,11.18776 108.280446,11.23535 108.345014,11.3133114 C108.407191,11.3907946 108.435888,11.491714 108.42154,11.5911985 L106.379267,25.8315973 C103.026495,49.1994635 103.712833,72.837325 108.419148,96.0884882 C108.440671,96.1910816 108.414365,96.2979797 108.349797,96.3804849 C108.285229,96.4629901 108.187181,96.5132107 108.084349,96.5179936 C91.7294242,97.2481049 75.2549279,97.6135192 58.7852145,97.6135192 L58.7852145,97.6135192 Z" id="Fill-53" fill="#000000"></path>
            <path d="M73.2867888,71.6262921 L41.7726486,71.6262921 C40.330622,71.6262921 39.1612174,70.4563921 39.1612174,69.013388 L39.1612174,68.9988001 C39.1612174,67.555796 40.330622,66.3861352 41.7726486,66.3861352 L73.2867888,66.3861352 C74.7288154,66.3861352 75.8982201,67.555796 75.8982201,68.9988001 L75.8982201,69.013388 C75.8982201,70.4563921 74.7288154,71.6262921 73.2867888,71.6262921" id="Fill-54" fill="#F8DDE3"></path>
            <path d="M66.2464467,84.2503062 L48.8129908,84.2503062 C47.3709642,84.2503062 46.2015595,83.0804063 46.2015595,81.6374022 L46.2015595,81.6228143 C46.2015595,80.1798102 47.3709642,79.0101494 48.8129908,79.0101494 L66.2464467,79.0101494 C67.6908647,79.0101494 68.8602693,80.1798102 68.8602693,81.6228143 L68.8602693,81.6374022 C68.8602693,83.0804063 67.6908647,84.2503062 66.2464467,84.2503062" id="Fill-55" fill="#F8DDE3"></path>
            <path d="M83.7468624,22.570848 L61.750576,19.0027967 C60.9614072,18.8748539 60.3850749,19.7302774 60.801182,20.4113639 L64.3835301,26.2642116 L34.8734003,44.2644564 C34.4309875,44.533256 34.2922851,45.1079227 34.5625156,45.5479504 L41.4689382,56.8372934 C41.7391687,57.2773212 42.3155011,57.4162647 42.7555225,57.1474652 L72.2656522,39.1472204 L75.8551745,45.0125036 C76.2688903,45.6914378 77.2900268,45.5737782 77.541126,44.8180783 L84.4858113,23.7847507 C84.6651679,23.2397381 84.313629,22.6629191 83.7468624,22.570848" id="Fill-56" fill="#E51D74"></path>
            <path d="M38.9818608,139.98078 C37.5254857,139.98078 36.3417325,138.797488 36.3417325,137.343244 C36.3417325,135.889 37.5254857,134.705947 38.9818608,134.705947 C39.1803487,134.705947 39.3405739,134.866653 39.3405739,135.064666 C39.3405739,135.262678 39.1803487,135.423384 38.9818608,135.423384 C37.9224615,135.423384 37.0591587,136.284786 37.0591587,137.343244 C37.0591587,138.401942 37.9224615,139.263344 38.9818608,139.263344 C40.0436515,139.263344 40.9069544,138.401942 40.9069544,137.343244 C40.9069544,137.145232 41.0671796,136.984526 41.2656675,136.984526 C41.4641554,136.984526 41.6243805,137.145232 41.6243805,137.343244 C41.6243805,138.797488 40.4382359,139.98078 38.9818608,139.98078" id="Fill-57" fill="#000000"></path>
            <path d="M34.8877488,187.685291 C34.8160062,187.685291 34.7442636,187.663768 34.6796952,187.619526 C22.9186889,179.288892 12.996685,168.256152 5.98982271,155.713686 C5.89416589,155.540784 5.95395141,155.322205 6.12852511,155.22559 C6.30070739,155.129693 6.52071808,155.190436 6.6163749,155.363816 C13.5706259,167.813494 23.4184958,178.764685 35.0958024,187.034098 C35.2560276,187.14841 35.2942903,187.37225 35.1795021,187.533912 C35.1101509,187.632679 35.0001456,187.685291 34.8877488,187.685291" id="Fill-58" fill="#000000"></path>
            <path d="M23.0143457,188.134646 C22.9330374,188.134646 22.8517291,188.107861 22.7847693,188.05238 C18.2625931,184.316687 14.0536929,180.149337 10.2824226,175.665359 C10.1532859,175.51374 10.1724173,175.28727 10.3254682,175.159805 C10.4761277,175.031862 10.7033126,175.051711 10.8300579,175.203329 C14.5750225,179.654067 18.7528343,183.791045 23.2415307,187.499475 C23.3945816,187.625505 23.4161044,187.851737 23.2893591,188.004311 C23.2200079,188.090404 23.1171768,188.134646 23.0143457,188.134646" id="Fill-59" fill="#000000"></path>
            <path d="M147.358649,121.8282 C146.729706,121.8282 146.095979,121.692604 145.495733,121.418304 C144.048923,120.757306 143.082789,119.419287 142.912999,117.839491 C142.776688,116.575368 142.018607,115.477212 140.882682,114.902067 C139.744366,114.325487 138.407562,114.363511 137.302726,115.004421 L127.39507,120.758741 C127.22528,120.857986 127.005269,120.800113 126.904829,120.628646 C126.80439,120.457418 126.864175,120.237882 127.033966,120.138397 L136.944013,114.384317 C138.256903,113.620247 139.85198,113.575048 141.207916,114.262114 C142.56146,114.947505 143.465417,116.256348 143.625642,117.762965 C143.769127,119.088309 144.579819,120.211098 145.792269,120.765676 C147.009502,121.32169 148.391743,121.198051 149.491797,120.434938 L174.721283,102.916332 C174.8839,102.803934 175.108694,102.843632 175.22109,103.00649 C175.333487,103.169348 175.292833,103.392949 175.130216,103.505826 L149.900729,121.024432 C149.133083,121.557009 148.250649,121.827961 147.358649,121.8282" id="Fill-60" fill="#000000"></path>
            <path d="M21.1179492,43.8662791 C20.9983782,43.8662791 20.8811986,43.8055361 20.8118474,43.6950509 C20.7090163,43.5262141 20.7616275,43.3052437 20.9314184,43.2014545 L38.8240271,32.2325665 C38.9914265,32.1290165 39.2138286,32.1816285 39.3166597,32.3507044 C39.4194908,32.5195412 39.3668795,32.7405116 39.1970887,32.8440617 L21.3068714,43.8131888 C21.2470859,43.8490606 21.1825176,43.8662791 21.1179492,43.8662791" id="Fill-61" fill="#000000"></path>
            <path d="M59.0147909,54.5218864 C58.8952199,54.5218864 58.7756488,54.4611434 58.7086891,54.3506582 C58.605858,54.1818215 58.6584692,53.960851 58.8258687,53.8575401 L64.9622538,50.0964984 C65.1296533,49.9929484 65.3520554,50.0455604 65.4548865,50.2146363 C65.5577175,50.3837122 65.5051063,50.6044435 65.3353154,50.7079935 L59.2013217,54.4690352 C59.1439276,54.5049071 59.0793592,54.5218864 59.0147909,54.5218864" id="Fill-62" fill="#000000"></path>
            <path d="M31.3197493,30.769235 C31.2001783,30.769235 31.0806073,30.7084921 31.0136475,30.5980068 C30.9108164,30.4291701 30.9634277,30.2081996 31.1332185,30.1046496 L40.5482413,24.3314374 C40.7180321,24.2276482 40.9404343,24.2804994 41.0432653,24.4495753 C41.1460964,24.618412 41.0934852,24.8393825 40.9236943,24.9429325 L31.5086716,30.7161447 C31.448886,30.7522557 31.3843177,30.769235 31.3197493,30.769235" id="Fill-63" fill="#000000"></path>
            <path d="M33.2687571,150.315933 C33.1444032,150.315933 33.0248322,150.25232 32.9578724,150.13753 C32.8598242,149.966541 32.9172183,149.747005 33.0894005,149.647282 L42.6096458,144.110106 C42.7818281,144.0111 42.9994474,144.068256 43.099887,144.239962 C43.2003267,144.41119 43.1405412,144.630726 42.9707503,144.73045 L33.4481136,150.267386 C33.393111,150.300388 33.330934,150.315933 33.2687571,150.315933" id="Fill-64" fill="#000000"></path>
            <path d="M56.7716384,183.827874 C56.6472845,183.827874 56.5277135,183.764261 56.4607537,183.649471 C56.3627055,183.478243 56.4200996,183.258707 56.5922819,183.158984 L61.3512088,180.390635 C61.5233911,180.29139 61.7434017,180.348546 61.84145,180.520491 C61.9418897,180.691719 61.8844956,180.911255 61.7123133,181.010979 L56.9509949,183.779327 C56.8959923,183.812329 56.8338153,183.827874 56.7716384,183.827874" id="Fill-65" fill="#000000"></path>
            <path d="M120.632133,37.9096422 C120.632133,36.8698375 121.473913,36.0270886 122.51179,36.0270886 C123.549666,36.0270886 124.391446,36.8698375 124.391446,37.9096422 C124.391446,38.949447 123.549666,39.792435 122.51179,39.792435 C121.473913,39.792435 120.632133,38.949447 120.632133,37.9096422" id="Fill-66" fill="#F8DDE3"></path>
            <path d="M175.783074,184.53431 C175.6922,184.53431 175.603718,184.501547 175.534366,184.434825 C175.390881,184.297795 175.386098,184.070846 175.522409,183.927598 L176.65116,182.747653 C176.789862,182.604166 177.017047,182.599383 177.160532,182.736414 C177.301626,182.873444 177.306409,183.100393 177.170098,183.243641 L176.041348,184.423825 C175.971996,184.497242 175.87634,184.53431 175.783074,184.53431" id="Fill-67" fill="#000000"></path>
            <path d="M171.832447,188.664114 C171.741573,188.664114 171.653091,188.631112 171.58374,188.564629 C171.440254,188.427599 171.435472,188.20065 171.571783,188.057402 L172.700533,186.877458 C172.839235,186.734209 173.064029,186.729187 173.207514,186.866218 C173.350999,187.003487 173.355782,187.230436 173.219471,187.373445 L172.090721,188.55339 C172.018978,188.627046 171.925713,188.664114 171.832447,188.664114" id="Fill-68" fill="#000000"></path>
            <path d="M172.939675,184.597444 C172.848801,184.597444 172.757927,184.563246 172.686185,184.494133 L171.540694,183.364888 C171.3996,183.225945 171.397209,182.998756 171.538303,182.85766 C171.677005,182.716565 171.90419,182.714651 172.045284,182.853834 L173.190774,183.983318 C173.331868,184.122262 173.33426,184.34945 173.193166,184.490546 C173.123815,184.561811 173.030549,184.597444 172.939675,184.597444" id="Fill-69" fill="#000000"></path>
            <path d="M176.950087,188.550281 C176.859213,188.550281 176.768339,188.516083 176.698988,188.447209 L175.551106,187.317725 C175.410013,187.178781 175.410013,186.951593 175.548715,186.810497 C175.687417,186.66964 175.914602,186.667488 176.055696,186.806671 L177.201187,187.936155 C177.34228,188.075098 177.344672,188.302287 177.205969,188.443383 C177.134227,188.514648 177.043353,188.550281 176.950087,188.550281" id="Fill-70" fill="#000000"></path>
            <path d="M185.807909,172.234577 C185.55681,172.234577 185.305711,172.287667 185.071352,172.394087 C184.138698,172.812592 183.715416,173.928923 184.126741,174.882635 C184.32762,175.347773 184.693507,175.703383 185.157443,175.883699 C185.609421,176.058992 186.102054,176.046317 186.546858,175.847109 C187.477121,175.428365 187.900402,174.312034 187.489078,173.358561 C187.288199,172.893423 186.922311,172.537813 186.458376,172.357498 C186.247931,172.275471 186.02792,172.234577 185.807909,172.234577 Z M185.810301,176.724534 C185.501807,176.724534 185.193314,176.667139 184.896778,176.55211 C184.253486,176.301964 183.746505,175.809803 183.4691,175.16674 C182.902333,173.855027 183.490623,172.31756 184.777207,171.739546 C185.396585,171.460702 186.085314,171.443005 186.71904,171.689086 C187.364724,171.939232 187.871705,172.431633 188.14911,173.074695 C188.713485,174.38593 188.127587,175.923158 186.841003,176.501651 C186.510987,176.65016 186.159448,176.724534 185.810301,176.724534 L185.810301,176.724534 Z" id="Fill-71" fill="#000000"></path>
            <path d="M131.95551,25.5682981 C131.862244,25.5682981 131.77137,25.5331437 131.699628,25.4628349 L130.65936,24.4196821 C130.518266,24.2795428 130.518266,24.0525937 130.65936,23.9124544 C130.798062,23.7727935 131.025247,23.7723152 131.166341,23.9129327 L132.209,24.9560855 C132.347702,25.0962248 132.347702,25.3231739 132.209,25.4633132 C132.137257,25.5331437 132.046383,25.5682981 131.95551,25.5682981" id="Fill-72" fill="#000000"></path>
            <path d="M135.602426,29.2193329 C135.50916,29.2193329 135.418286,29.1844176 135.346544,29.114348 L134.306276,28.0711952 C134.165182,27.9308168 134.165182,27.7038677 134.306276,27.5637284 C134.444978,27.4240674 134.672163,27.4238282 134.813257,27.5639675 L135.855916,28.6071203 C135.994619,28.7474987 135.994619,28.9744478 135.855916,29.1145871 C135.784174,29.1844176 135.6933,29.2193329 135.602426,29.2193329" id="Fill-73" fill="#000000"></path>
            <path d="M130.91285,29.2193329 C130.821976,29.2193329 130.728711,29.1844176 130.65936,29.1145871 C130.518266,28.9744478 130.518266,28.7474987 130.65936,28.6073595 L131.699628,27.5642067 C131.840721,27.4235891 132.067906,27.4240674 132.209,27.5637284 C132.347702,27.7038677 132.347702,27.9308168 132.209,28.070956 L131.166341,29.1141088 C131.09699,29.1844176 131.003724,29.2193329 130.91285,29.2193329" id="Fill-74" fill="#000000"></path>
            <path d="M134.559767,25.5682981 C134.466501,25.5682981 134.375627,25.5331437 134.306276,25.4633132 C134.165182,25.3231739 134.165182,25.0962248 134.306276,24.9558464 L135.346544,23.9126936 C135.487638,23.7725543 135.714823,23.7727935 135.855916,23.9124544 C135.994619,24.0525937 135.994619,24.2795428 135.855916,24.4199213 L134.813257,25.463074 C134.743906,25.5331437 134.65064,25.5682981 134.559767,25.5682981" id="Fill-75" fill="#000000"></path>
            <path d="M140.853985,140.389002 C140.241782,140.664258 139.961986,141.399392 140.232216,142.027388 C140.366136,142.333494 140.605278,142.567139 140.908988,142.685516 C141.205524,142.800784 141.530757,142.792414 141.820119,142.661841 C142.432323,142.386345 142.709728,141.651212 142.439497,141.023216 C142.307969,140.717349 142.066436,140.483464 141.762725,140.365087 C141.466189,140.250058 141.143347,140.258189 140.853985,140.389002 Z M141.337052,143.484023 C141.105085,143.484023 140.873117,143.440738 140.650715,143.354167 C140.165256,143.16572 139.782629,142.795284 139.574575,142.311493 C139.148903,141.325735 139.591315,140.169944 140.559841,139.73446 C141.026168,139.524491 141.545106,139.511098 142.02339,139.696436 C142.508848,139.885122 142.889084,140.255319 143.099529,140.73935 C143.522811,141.724869 143.082789,142.880898 142.114264,143.316143 C141.865556,143.428063 141.6025,143.484023 141.337052,143.484023 L141.337052,143.484023 Z" id="Fill-76" fill="#000000"></path>
            <path d="M168.649467,20.942267 C168.649467,15.1437053 173.355782,10.4430608 179.164543,10.4430608 C184.970912,10.4430608 189.679619,15.1437053 189.679619,20.942267 C189.679619,26.7408286 184.970912,31.441234 179.164543,31.441234 C173.355782,31.441234 168.649467,26.7408286 168.649467,20.942267" id="Fill-77" fill="#FFFFFF"></path>
            <path d="M179.164543,10.8020183 C173.563836,10.8020183 169.00818,15.3508054 169.00818,20.942267 C169.00818,26.5337286 173.563836,31.0825157 179.164543,31.0825157 C184.76525,31.0825157 189.320906,26.5337286 189.320906,20.942267 C189.320906,15.3508054 184.76525,10.8020183 179.164543,10.8020183 Z M179.164543,31.7999523 C173.169252,31.7999523 168.290754,26.9292753 168.290754,20.942267 C168.290754,14.9552587 173.169252,10.0845817 179.164543,10.0845817 C185.159834,10.0845817 190.038332,14.9552587 190.038332,20.942267 C190.038332,26.9292753 185.159834,31.7999523 179.164543,31.7999523 L179.164543,31.7999523 Z" id="Fill-78" fill="#000000"></path>
            <path d="M164.258818,21.3009853 C164.060331,21.3009853 163.900105,21.1402795 163.900105,20.942267 C163.900105,15.6334754 166.600019,10.7898218 171.122196,7.98584051 C171.291986,7.88109477 171.511997,7.93322849 171.61722,8.10182609 C171.722442,8.27018454 171.669831,8.49115501 171.50004,8.59542246 C167.1907,11.2678737 164.617532,15.8833825 164.617532,20.942267 C164.617532,21.1402795 164.457306,21.3009853 164.258818,21.3009853" id="Fill-79" fill="#000000"></path>
            <path d="M179.164543,36.1827724 C175.18761,36.1827724 171.421123,34.6632417 168.560984,31.904698 C168.417499,31.7671893 168.415107,31.5400011 168.551418,31.3974703 C168.690121,31.2544613 168.917306,31.2511133 169.0584,31.3881437 C171.784619,34.0173096 175.374141,35.4653358 179.164543,35.4653358 C184.896778,35.4653358 190.112466,32.0878835 192.451276,26.8611188 C192.532584,26.6798465 192.74542,26.5997327 192.924777,26.6800856 C193.106525,26.761156 193.187833,26.9732781 193.106525,27.1540721 C190.652927,32.6386356 185.178966,36.1827724 179.164543,36.1827724" id="Fill-80" fill="#000000"></path>
            <path d="M193.156745,16.1641393 C193.010868,16.1641393 192.874557,16.0744597 192.821946,15.9292984 C192.109302,13.9950894 190.959029,12.195041 189.500263,10.7233394 C189.36156,10.5824827 189.36156,10.3555336 189.502654,10.2158726 C189.643748,10.0764507 189.870933,10.0776465 190.009635,10.2177857 C191.540144,11.7621876 192.74542,13.6514372 193.493935,15.6813045 C193.563286,15.8671206 193.467629,16.0735032 193.281098,16.1418988 C193.240444,16.1569649 193.19979,16.1641393 193.156745,16.1641393" id="Fill-81" fill="#000000"></path>
            <polyline id="Fill-82" fill="#FFFFFF" points="176.445498 21.4894319 178.908661 24.5349503 182.311652 16.9212741 176.445498 21.4894319"></polyline>
            <path d="M178.908661,24.8936685 C178.801047,24.8936685 178.700607,24.845122 178.631256,24.7604645 L176.168093,21.7149462 C176.041348,21.5606973 176.065262,21.3349439 176.220704,21.2103491 C176.373755,21.0859934 176.60094,21.109908 176.725294,21.2636786 L178.820178,23.8545812 L181.984028,16.7746778 C182.065336,16.5938838 182.278172,16.5130526 182.457529,16.5938838 C182.639277,16.6744759 182.720585,16.8865979 182.639277,17.0676311 L179.236285,24.6813073 C179.186066,24.7951406 179.080843,24.8745369 178.956489,24.8905597 C178.939749,24.892712 178.925401,24.8936685 178.908661,24.8936685" id="Fill-83" fill="#000000"></path>
            <path d="M27.4863022,72.3406198 C27.4863022,73.2560688 26.7425704,73.9978983 25.8266563,73.9978983 C24.9107422,73.9978983 24.1670104,73.2560688 24.1670104,72.3406198 C24.1670104,71.425649 24.9107422,70.6838195 25.8266563,70.6838195 C26.7425704,70.6838195 27.4863022,71.425649 27.4863022,72.3406198" id="Fill-84" fill="#F8DDE3"></path>
            <path d="M168.649467,50.585551 C168.649467,44.7869894 173.355782,40.0863448 179.164543,40.0863448 C184.970912,40.0863448 189.679619,44.7869894 189.679619,50.585551 C189.679619,56.3841126 184.970912,61.0847572 179.164543,61.0847572 C173.355782,61.0847572 168.649467,56.3841126 168.649467,50.585551" id="Fill-85" fill="#FFFFFF"></path>
            <path d="M179.164543,40.4453023 C173.563836,40.4453023 169.00818,44.9940894 169.00818,50.585551 C169.00818,56.1770126 173.563836,60.7260389 179.164543,60.7260389 C184.76525,60.7260389 189.320906,56.1770126 189.320906,50.585551 C189.320906,44.9940894 184.76525,40.4453023 179.164543,40.4453023 Z M179.164543,61.4434754 C173.169252,61.4434754 168.290754,56.5725593 168.290754,50.585551 C168.290754,44.5985427 173.169252,39.7278657 179.164543,39.7278657 C185.159834,39.7278657 190.038332,44.5985427 190.038332,50.585551 C190.038332,56.5725593 185.159834,61.4434754 179.164543,61.4434754 L179.164543,61.4434754 Z" id="Fill-86" fill="#000000"></path>
            <path d="M183.672371,51.1398903 L174.324308,51.1398903 C174.12582,51.1398903 173.965595,50.9791845 173.965595,50.781172 C173.965595,50.5829204 174.12582,50.4224537 174.324308,50.4224537 L183.672371,50.4224537 C183.870859,50.4224537 184.031084,50.5829204 184.031084,50.781172 C184.031084,50.9791845 183.870859,51.1398903 183.672371,51.1398903" id="Fill-87" fill="#F8DDE3"></path>
            <path d="M168.649467,80.228835 C168.649467,74.4302734 173.355782,69.7296289 179.164543,69.7296289 C184.970912,69.7296289 189.679619,74.4302734 189.679619,80.228835 C189.679619,86.0271575 184.970912,90.727802 179.164543,90.727802 C173.355782,90.727802 168.649467,86.0271575 168.649467,80.228835" id="Fill-88" fill="#FFFFFF"></path>
            <path d="M179.164543,70.0883472 C173.563836,70.0883472 169.00818,74.6373734 169.00818,80.228835 C169.00818,85.8202966 173.563836,90.3693229 179.164543,90.3693229 C184.76525,90.3693229 189.320906,85.8202966 189.320906,80.228835 C189.320906,74.6373734 184.76525,70.0883472 179.164543,70.0883472 Z M179.164543,91.0867595 C173.169252,91.0867595 168.290754,86.2158433 168.290754,80.228835 C168.290754,74.2418267 173.169252,69.3709106 179.164543,69.3709106 C185.159834,69.3709106 190.038332,74.2418267 190.038332,80.228835 C190.038332,86.2158433 185.159834,91.0867595 179.164543,91.0867595 L179.164543,91.0867595 Z" id="Fill-89" fill="#000000"></path>
            <path d="M183.672371,81.0950201 L174.324308,81.0950201 C174.12582,81.0950201 173.965595,80.9345535 173.965595,80.7363018 C173.965595,80.5382893 174.12582,80.3775835 174.324308,80.3775835 L183.672371,80.3775835 C183.870859,80.3775835 184.031084,80.5382893 184.031084,80.7363018 C184.031084,80.9345535 183.870859,81.0950201 183.672371,81.0950201" id="Fill-90" fill="#F8DDE3"></path>
            <path d="M111.355813,34.3229376 C113.161335,38.1762895 111.571041,42.8293441 107.804553,44.7159631 C104.038066,46.6025822 99.5230638,45.008199 97.7199327,41.1550862 C95.9144102,37.3019735 97.5047049,32.6489189 101.271192,30.7622998 C105.03768,28.8756807 109.552682,30.4698248 111.355813,34.3229376" id="Fill-91" fill="#FFFFFF"></path>
            <path d="M104.478087,46.1159211 C103.600436,46.1159211 102.720393,45.9688466 101.866656,45.6723061 C99.7909029,44.9519998 98.1264742,43.4398826 97.1794717,41.4155157 C95.2376382,37.2720803 96.9546781,32.2502633 101.005745,30.2208743 C103.456951,28.9931012 106.321872,29.0918683 108.670247,30.4841736 C108.840038,30.585093 108.897432,30.8051069 108.794601,30.9756176 C108.694162,31.1458893 108.474151,31.2020885 108.30436,31.101169 C106.16643,29.8339369 103.559782,29.7447356 101.328586,30.8622627 C97.6218845,32.7192277 96.0507212,37.3168005 97.8275466,41.1113226 C98.6932409,42.9592001 100.211793,44.3381132 102.101015,44.9945677 C103.963932,45.6414563 105.970334,45.5068174 107.747159,44.6160003 C111.453861,42.7590353 113.025024,38.1614625 111.248199,34.3669404 C111.164499,34.1875812 111.241025,33.9740243 111.420381,33.8900842 C111.599738,33.8051875 111.812574,33.883149 111.898665,34.0627473 C113.838107,38.2061827 112.121067,43.2279997 108.070001,45.2573886 C106.931685,45.8279898 105.707277,46.1159211 104.478087,46.1159211" id="Fill-92" fill="#000000"></path>
            <path d="M39.1970887,94.3140284 C40.5458499,99.9569063 37.1428584,105.731553 31.5947627,107.212342 C26.0490584,108.693132 20.4555257,105.319027 19.1067645,99.6763886 C17.7580033,94.0335107 21.1609948,88.2586244 26.7090905,86.7780745 C32.2571862,85.2972854 37.8483275,88.6711505 39.1970887,94.3140284" id="Fill-94" fill="#FFFFFF"></path>
            <path d="M28.9426773,108.255974 C27.0295408,108.255974 25.1522757,107.743485 23.471107,106.741226 C20.9266356,105.225043 19.1402444,102.775715 18.4395582,99.8445079 C17.0047058,93.845064 20.6372737,87.682762 26.5392996,86.1079887 C30.1049077,85.1559504 33.8570465,86.0661382 36.5760917,88.5429685 C36.7243598,88.6766508 36.7339255,88.9033608 36.6000059,89.0497179 C36.4684778,89.1965532 36.2412929,89.2068365 36.0930248,89.0736324 C33.5557276,86.7618126 30.0546879,85.9118894 26.723439,86.8012716 C21.1944747,88.2767995 17.7914832,94.0531206 19.137853,99.6775843 C19.7931022,102.41891 21.4623138,104.708728 23.8369944,106.124709 C26.1781951,107.519405 28.9283288,107.897494 31.5804142,107.189385 C37.1093785,105.713857 40.51237,99.9372964 39.1660002,94.3125935 C39.1205632,94.1198422 39.2401342,93.9263735 39.4314479,93.8802184 C39.625153,93.8350199 39.818858,93.9533969 39.864295,94.1459091 C41.2991473,100.145353 37.6665795,106.307655 31.7645536,107.882428 C30.8295081,108.132335 29.8825056,108.255974 28.9426773,108.255974" id="Fill-95" fill="#000000"></path>
            <path d="M51.9290118,119.780636 C51.8070493,123.866915 48.427972,127.165689 44.3840799,127.148775 C40.3377963,127.131252 37.1572069,123.804738 37.2791694,119.718219 C37.3987404,115.6317 40.7778177,112.332927 44.8217098,112.350078 C48.8679934,112.367364 52.0485828,115.694117 51.9290118,119.780636" id="Fill-97" fill="#FFFFFF"></path>
            <path d="M44.4079941,127.741551 C44.396037,127.741551 44.3864713,127.741551 44.3745142,127.741551 C42.2748469,127.732703 40.3186649,126.901911 38.8694641,125.402469 C37.3987404,123.881025 36.6239201,121.858332 36.6884885,119.706261 C36.8176252,115.316267 40.4525845,111.757303 44.7977956,111.757303 C44.8097527,111.757303 44.8193184,111.757303 44.8312755,111.757303 C47.4690124,111.768543 49.8867386,113.098671 51.2976767,115.315071 C51.4052906,115.482234 51.3550708,115.703922 51.1876714,115.810342 C51.0226634,115.916761 50.8002612,115.867976 50.6926473,115.700813 C49.4132373,113.690795 47.2203047,112.484784 44.8288841,112.47474 C44.8193184,112.47474 44.8073613,112.47474 44.7977956,112.47474 C40.8376032,112.47474 37.5230943,115.721858 37.4059147,119.727785 C37.3461292,121.684473 38.0492068,123.522546 39.3860109,124.90385 C40.6989008,126.262914 42.4709434,127.015984 44.3769056,127.024115 C44.3888627,127.024115 44.3984284,127.024115 44.4079941,127.024115 C48.3681865,127.024115 51.6826954,123.776997 51.8022665,119.770831 C51.8070493,119.572818 51.9720573,119.409004 52.1705452,119.423113 C52.3690331,119.428853 52.5244755,119.594341 52.5173012,119.792354 C52.3881645,124.182348 48.7532052,127.741551 44.4079941,127.741551" id="Fill-98" fill="#000000"></path>
            <path d="M130.771756,159.719852 C129.645397,154.683687 128.889708,149.795552 128.889708,149.795552 L87.5061755,162.827788 C85.8584867,167.52891 86.8007064,182.102439 87.2718163,188.213564 C87.4368243,190.360373 87.8194516,193.62184 88.3120842,197.446733 C94.1662818,197.980028 100.465284,198.190476 106.950816,197.795886 C107.10865,194.287621 107.07517,191.390851 107.178001,190.015764 C107.517583,185.471282 108.930912,179.986958 108.930912,179.986958 C110.1888,182.49942 111.38451,190.072681 112.231073,197.413253 C118.998793,196.755603 125.864561,195.739234 132.503145,194.132894 C132.464882,193.349931 132.864249,169.069725 130.771756,159.719852" id="Fill-100" fill="#000000"></path>
            <path d="M125.202138,162.432958 C122.41135,162.432958 120.165806,161.121962 118.941399,158.624327 C118.852916,158.446641 118.92705,158.23141 119.104015,158.144361 C119.283372,158.057552 119.4986,158.13073 119.584691,158.308415 C121.261077,161.729392 124.948647,162.651776 129.446909,160.77568 C129.631049,160.699392 129.839102,160.785963 129.915628,160.96867 C129.992153,161.151617 129.906062,161.361586 129.724314,161.437874 C128.119671,162.106285 126.593945,162.432958 125.202138,162.432958" id="Fill-101" fill="#CADDFF"></path>
            <path d="M107.438666,170.264496 C107.326269,170.264496 107.216264,170.211167 107.144521,170.111682 C105.628361,167.946458 105.767063,164.647685 105.774237,164.508263 C105.783803,164.310251 105.953594,164.158872 106.147299,164.167002 C106.345787,164.176329 106.498838,164.344448 106.489272,164.542222 C106.489272,164.574028 106.357744,167.737684 107.732811,169.699634 C107.847599,169.862014 107.806945,170.085615 107.644328,170.199448 C107.582151,170.243451 107.510409,170.264496 107.438666,170.264496" id="Fill-102" fill="#CADDFF"></path>
            <path d="M152.218016,57.5822317 L146.971239,54.0897504 C146.134242,53.5330196 145.007883,53.7966995 144.493728,54.6565253 C131.792893,75.8591679 110.827309,84.3887715 104.126548,86.6599366 C102.796919,87.1107259 101.364458,87.1463586 100.010914,86.7697044 L97.499922,86.0697254 L88.4483952,88.5769271 L87.0518056,90.4551761 C85.3419399,92.7550387 83.0940045,94.6029162 80.5040961,95.8390594 L79.030981,96.5426256 C79.030981,96.5426256 72.7343707,100.43998 69.3792076,105.239631 C66.476023,109.392154 62.6736643,130.220773 71.3473467,141.37189 C73.1098237,143.638511 76.1445364,144.501348 78.8301017,143.476849 C81.7811147,142.349995 84.0170929,141.361607 85.9900148,138.408398 C86.1980684,138.094879 86.0952374,162.827788 86.0952374,162.827788 C103.985455,169.748898 130.590008,149.194579 130.590008,149.194579 C124.396229,133.431541 121.813495,121.442458 120.768444,113.528176 C119.957753,107.410833 122.609838,101.33295 127.672475,97.792161 C146.459475,84.6496793 151.866477,64.4531219 152.959356,59.4035641 C153.110016,58.7019111 152.815871,57.9806482 152.218016,57.5822317" id="Fill-103" fill="#E51D74"></path>
            <path d="M94.1519332,104.292376 C94.1519332,104.292376 94.1519332,104.292376 94.1495418,104.292376 C93.9534453,104.292136 93.7932202,104.131431 93.7932202,103.93294 L93.8051773,97.4674013 C93.8051773,97.269628 93.9654024,97.1094005 94.1638903,97.1094005 C94.3623782,97.1098788 94.5226034,97.2705846 94.5226034,97.4688362 L94.5106463,103.934375 C94.5106463,104.132148 94.3480297,104.292376 94.1519332,104.292376" id="Fill-104" fill="#000000"></path>
            <path d="M95.9048445,96.1004455 C95.9048445,95.6812234 96.2444262,95.3411584 96.6653162,95.3411584 C97.0838148,95.3411584 97.425788,95.6812234 97.425788,96.1004455 C97.425788,96.5199067 97.0838148,96.8599717 96.6653162,96.8599717 C96.2444262,96.8599717 95.9048445,96.5199067 95.9048445,96.1004455" id="Fill-105" fill="#000000"></path>
            <path d="M146.782317,55.1434256 C146.583829,54.7835116 146.583829,54.3477885 146.791883,53.9928965 C147.064505,53.5227364 147.526049,52.7261426 148.190864,51.553373 C149.360268,49.4859599 150.44119,45.800249 151.9717,44.272109 C153.502209,42.7439691 159.265532,37.7998744 160.525811,37.9797119 C161.78609,38.1595493 161.695216,39.5977705 160.434937,40.8561543 C159.174658,42.1147772 157.464793,43.5529984 157.464793,43.5529984 C157.464793,43.5529984 158.543323,43.103644 159.805993,44.0922716 C161.066272,45.0811384 160.116878,45.9906088 160.812781,46.4545511 C161.707173,47.0485886 161.855441,48.0510867 161.515859,48.6319712 C160.741039,49.9554025 158.758551,48.5685976 158.433318,50.8359364 C158.208524,52.4114271 156.876503,53.8522789 153.782005,55.6465878 C152.952182,56.1279878 152.22519,56.7667455 151.624944,57.515271 C151.376236,57.8252036 150.97926,57.9816048 150.587067,57.9117743 C149.640065,57.7424592 147.891936,57.1584659 146.782317,55.1434256" id="Fill-106" fill="#FFFFFF"></path>
            <path d="M147.095593,54.9702843 C148.135861,56.8552293 149.769201,57.4009594 150.651635,57.5585563 C150.909909,57.6044723 151.175357,57.502118 151.345147,57.2909525 C151.986048,56.491489 152.744128,55.8335996 153.602648,55.3361769 C156.524964,53.6413526 157.86416,52.2801362 158.079388,50.7852375 C158.304181,49.2135731 159.308578,49.0808473 160.045135,48.9839934 C160.614294,48.9089017 160.975398,48.8426584 161.204974,48.4506989 C161.427377,48.0718923 161.391505,47.2707548 160.614294,46.7532439 C160.157532,46.4478551 160.159924,46.0020878 160.162315,45.6440869 C160.164706,45.2270171 160.167098,44.8331444 159.583591,44.3744633 C158.517018,43.5384106 157.636975,43.871062 157.598712,43.8856499 C157.436096,43.9492626 157.247173,43.8868456 157.156299,43.7359448 C157.067817,43.5848048 157.098905,43.3915752 157.232825,43.2784594 C157.249565,43.2641106 158.947473,41.834977 160.181446,40.6024209 C160.946701,39.8371552 161.161929,39.1053699 161.032792,38.7198673 C160.96105,38.5070278 160.774519,38.3774109 160.475591,38.3350821 C159.540546,38.2035521 154.29616,42.4584293 152.22519,44.5258424 C151.29971,45.4506182 150.529673,47.2466011 149.785941,48.9837542 C149.348311,50.0013185 148.936987,50.9622052 148.501748,51.7301015 C147.829759,52.9203288 147.368215,53.7162051 147.100376,54.1739297 C146.956891,54.4183364 146.956891,54.7160726 147.095593,54.9702843 Z M150.773598,58.2869936 C150.69229,58.2869936 150.60859,58.2798192 150.52489,58.2649922 C149.518102,58.0849156 147.650403,57.4624198 146.469041,55.3168061 C146.469041,55.3168061 146.469041,55.3168061 146.469041,55.316567 C146.208376,54.8461677 146.213159,54.2695879 146.480998,53.8118633 C146.748837,53.3558128 147.205598,52.5635237 147.877588,51.3766444 C148.293695,50.6431851 148.697845,49.6999951 149.125909,48.7010842 C149.895947,46.9015141 150.694681,45.0407228 151.718209,44.0181365 C152.371067,43.3659866 158.921168,37.3940445 160.576031,37.6245808 C161.149972,37.7066077 161.554122,38.0148663 161.714347,38.4931573 C161.958272,39.2306821 161.566079,40.2334193 160.688428,41.1101269 C159.980567,41.8165627 159.12683,42.5846982 158.512235,43.1232539 C158.949865,43.1899755 159.475977,43.3777048 160.026004,43.8098407 C160.886916,44.4859051 160.882133,45.1858841 160.879741,45.6493481 C160.87735,45.9867825 160.889307,46.0738315 161.011269,46.1558584 C162.063494,46.8563156 162.252417,48.0805016 161.824352,48.8127652 C161.405854,49.5278103 160.702776,49.6205988 160.138401,49.6954513 C159.4138,49.7906313 158.935516,49.8537657 158.78964,50.8868744 C158.540932,52.6233101 157.096514,54.1397318 153.961362,55.9569987 C153.181758,56.4097012 152.490638,57.0094782 151.90474,57.7395895 C151.624944,58.0889811 151.206445,58.2869936 150.773598,58.2869936 L150.773598,58.2869936 Z" id="Fill-107" fill="#000000"></path>
            <path d="M104.590484,138.083878 L87.7357519,143.086563 C87.0302828,143.295816 86.2889424,142.894769 86.0808888,142.190724 L79.4159997,119.806224 C79.2055547,119.10218 79.6073134,118.361785 80.3127824,118.152533 L97.1651231,113.149848 C97.8705922,112.940356 98.6119326,113.341642 98.8223776,114.045687 L105.487267,136.430187 C105.697712,137.133992 105.295953,137.874626 104.590484,138.083878" id="Fill-108" fill="#FFFFFF"></path>
            <path d="M91.7294242,138.213973 L89.9860786,138.731962 C89.7301966,138.807532 89.4623575,138.66261 89.3858321,138.408159 L88.890808,136.742272 C88.8142825,136.487342 88.9601592,136.219739 89.2136498,136.144169 L90.9593868,135.626179 C91.2152688,135.55037 91.4831079,135.695532 91.5596333,135.949982 L92.0546574,137.61587 C92.1311829,137.87056 91.9853062,138.138403 91.7294242,138.213973" id="Fill-109" fill="#4A3274"></path>
            <path d="M95.7589679,136.960611 L94.0132308,137.478361 C93.7573488,137.553931 93.4895097,137.409009 93.4153757,137.154319 L91.750947,131.56788 C91.6744215,131.31319 91.8202982,131.045347 92.0761802,130.969777 L93.8195258,130.451788 C94.0754078,130.375978 94.3432469,130.52114 94.4197723,130.77583 L96.0818096,136.362269 C96.1583351,136.616959 96.0124584,136.884563 95.7589679,136.960611" id="Fill-110" fill="#4A3274"></path>
            <path d="M99.8076429,135.77158 L98.0619059,136.28933 C97.8084153,136.365378 97.5381848,136.220217 97.4640507,135.965527 L92.7362123,120.086025 C92.6596868,119.831335 92.8055635,119.563492 93.059054,119.487922 L94.804791,118.969932 C95.0606731,118.894123 95.3285122,119.039285 95.4026462,119.293975 L100.132876,135.173477 C100.20701,135.428167 100.063525,135.69601 99.8076429,135.77158" id="Fill-111" fill="#4A3274"></path>
            <path d="M78.7870561,124.570242 C79.7268844,123.480935 80.4347449,123.351796 80.4347449,123.351796 L81.0373829,125.249894 C81.0373829,125.249894 86.7002668,118.708546 89.5819285,122.720213 C91.3731025,125.216414 85.3156343,129.87162 83.60816,132.601467 C82.6515917,134.131042 81.1904338,136.375183 78.9496727,136.203238 C77.376118,136.082469 76.6730403,135.546066 76.261716,134.313988 C75.7212549,132.697364 77.2541555,131.162289 77.1680644,129.064983 C77.0628419,126.568782 77.6176515,125.923567 78.7870561,124.570242" id="Fill-112" fill="#FFFFFF"></path>
            <path d="M80.2075599,123.827217 C79.9516779,123.964248 79.5403536,124.245722 79.0572866,124.804605 C79.0572866,124.804605 79.0572866,124.804605 79.0572866,124.804844 C77.9046219,126.140711 77.4287292,126.693616 77.5267775,129.050156 C77.569823,130.095222 77.239807,131.006605 76.9480537,131.810852 C76.6276033,132.692103 76.35259,133.453303 76.6012977,134.200633 C76.9767507,135.322943 77.5769973,135.738099 78.9759783,135.845715 C81.0589056,136.004986 82.4626695,133.755105 83.3044496,132.410868 C83.8425192,131.548987 84.7847389,130.52114 85.7795698,129.433028 C87.821843,127.202278 90.3639231,124.426277 89.2901752,122.929465 C88.7616713,122.19194 88.1183792,121.816003 87.3268189,121.779892 C87.2861648,121.778218 87.2431192,121.777262 87.2000737,121.777262 C84.5503797,121.777262 81.3410933,125.44695 81.3076134,125.484735 C81.2239137,125.582785 81.0899941,125.627266 80.9632488,125.601199 C80.8365035,125.574893 80.7336724,125.482343 80.6954097,125.358466 L80.2075599,123.827217 Z M79.195989,136.571522 C79.105115,136.571522 79.0142411,136.567934 78.9209757,136.560999 C77.2326327,136.431143 76.3908527,135.83304 75.9221343,134.427582 C75.5921182,133.443737 75.9245257,132.531875 76.2736731,131.566445 C76.5558607,130.788265 76.847614,129.98378 76.8093513,129.080049 C76.699346,126.439882 77.3450295,125.692552 78.5144342,124.33588 C79.5092651,123.183916 80.2840854,123.014362 80.3701765,122.998817 C80.5447502,122.966772 80.7217153,123.0708 80.776718,123.242985 L81.1928252,124.553263 C82.2235275,123.482609 84.9258327,120.949579 87.3602988,121.063173 C88.3718697,121.109328 89.2160412,121.596468 89.8736818,122.51096 C91.2870114,124.480802 88.6421003,127.369202 86.3104652,129.917536 C85.337157,130.980777 84.4164601,131.98495 83.9118704,132.791587 C83.0198705,134.218569 81.5467554,136.571282 79.195989,136.571522 L79.195989,136.571522 Z" id="Fill-113" fill="#000000"></path>
            <path d="M98.3369192,109.672433 C98.2938737,109.672433 98.2508281,109.665258 98.2101739,109.649714 C98.0260345,109.580122 97.9303777,109.373022 97.9997289,109.187685 L99.8841683,104.173281 C99.9535195,103.987704 100.161573,103.893481 100.345712,103.96355 C100.532243,104.033142 100.625509,104.240242 100.556158,104.42558 L98.6717181,109.439983 C98.6191068,109.58371 98.4804045,109.672433 98.3369192,109.672433" id="Fill-114" fill="#FFFFFF"></path>
            <path d="M100.376801,111.709713 C100.281144,111.709713 100.183096,111.670733 100.113745,111.593967 C99.9774337,111.448088 99.9869994,111.221139 100.132876,111.086978 L108.139352,103.722253 C108.282837,103.588331 108.510022,103.597419 108.643942,103.743058 C108.780253,103.888937 108.770687,104.115886 108.62481,104.250047 L100.620726,111.614773 C100.551375,111.678385 100.462892,111.709713 100.376801,111.709713" id="Fill-115" fill="#FFFFFF"></path>
            <path d="M95.6680939,93.191001 L94.1806303,93.6664223 C93.9654024,93.7355354 94.3169413,97.7644201 94.099322,97.7962264 C92.3679335,98.0492424 86.9250603,98.0793747 88.3575212,92.9497031 C88.7688455,91.4734578 88.7305828,89.9070546 88.2618644,88.4475494 L86.1980684,82.0097518 L95.3859062,79.0725664 L98.2866994,88.1158546 C98.9658628,90.2389886 97.7940668,92.5113494 95.6680939,93.191001" id="Fill-116" fill="#FFFFFF"></path>
            <path d="M86.6500469,82.2419621 L88.6038375,88.3380208 C89.0988616,89.8783571 89.1323415,91.5064599 88.7018858,93.0460788 C88.3073014,94.4642118 88.4364381,95.5597374 89.0916873,96.3027626 C90.1726094,97.5300575 92.4588075,97.6242808 93.8075687,97.4721842 C93.8267,97.1127485 93.8003944,96.3460479 93.781263,95.7572717 C93.7143033,93.7042073 93.7190861,93.43756 94.0706249,93.3246833 L95.5580885,92.8495012 C96.4955254,92.5498518 97.26078,91.9039197 97.710367,91.030082 C98.1623455,90.1569617 98.2436538,89.1609205 97.9447263,88.2253832 L95.1539385,79.5233557 L86.6500469,82.2419621 Z M92.7912149,98.240798 C91.5046307,98.240798 89.6321484,98.0033265 88.5536177,96.7769882 C87.7285776,95.8402552 87.5468296,94.5199327 88.0107652,92.8530883 C88.4029582,91.4488258 88.3718697,89.9632538 87.9198912,88.5570781 L85.8560953,82.1192804 C85.8273983,82.0286443 85.8345725,81.9301163 85.8800095,81.8454588 C85.9230551,81.7608013 85.9971891,81.6969494 86.0880631,81.6680128 L95.2759009,78.7310666 C95.4672145,78.6712802 95.6680939,78.7745911 95.7278794,78.9630377 L98.6286725,88.0063259 C98.9849942,89.1245704 98.886946,90.315276 98.3488763,91.3591462 C97.8108067,92.4030165 96.897284,93.1747391 95.7780992,93.5327399 L94.474775,93.948614 C94.4508608,94.2968099 94.4795579,95.1443417 94.4986892,95.7335962 C94.565649,97.7747033 94.5776061,98.0884623 94.1519332,98.1513575 C94.0108394,98.1716849 93.4871183,98.240798 92.7912149,98.240798 L92.7912149,98.240798 Z" id="Fill-117" fill="#000000"></path>
            <path d="M97.1890374,82.3297285 L87.3268189,85.4828623 L84.5766853,76.9059079 C83.4598919,73.4246664 85.3802026,69.6992574 88.8668938,68.5848392 L93.0662283,67.2429937 C94.2332415,66.8696875 95.4839545,67.5125107 95.8570161,68.6785843 L99.0663025,78.6887378 C99.5565437,80.2120948 98.7147637,81.8421108 97.1890374,82.3297285" id="Fill-118" fill="#FFFFFF"></path>
            <path d="M87.3268189,85.8413414 C87.173768,85.8413414 87.0326742,85.7444875 86.9848458,85.5921518 L84.2347122,77.0154366 C83.6655541,75.2402593 83.8209964,73.3502922 84.677125,71.693492 C85.5308621,70.0364526 86.980063,68.81131 88.7592799,68.2431003 L92.956223,66.9012547 C94.309767,66.4688796 95.7661421,67.2166877 96.1989892,68.5690556 L99.4082756,78.5794483 C99.6737233,79.4066527 99.6019807,80.2874257 99.2026135,81.0601049 C98.8056377,81.8339798 98.1288656,82.4062551 97.2990427,82.6714675 L93.7310432,83.8117133 C92.518593,84.1991291 91.2630972,84.3239631 89.9980357,84.1816715 C89.8019392,84.1596701 89.6608454,83.9822241 89.6823682,83.7851682 C89.703891,83.5883514 89.8832475,83.4429509 90.079344,83.4687787 C91.2439658,83.5993521 92.399022,83.4848014 93.5134239,83.1282354 L97.079032,81.9882287 C97.727107,81.7813678 98.2556109,81.3348831 98.5664956,80.7317581 C98.8749889,80.1295896 98.9323829,79.4430028 98.7267208,78.7985056 L95.515043,68.7881129 C95.2017669,67.81216 94.1543247,67.2724086 93.1738422,67.5844935 L88.9768991,68.9265782 C87.3818216,69.4361973 86.0808888,70.5357885 85.3156343,72.0223171 C84.5479882,73.5086065 84.4068944,75.2041483 84.916267,76.7963793 L87.6664007,85.3730945 C87.7285776,85.5617803 87.6233551,85.7638583 87.4344329,85.8243621 C87.3985616,85.8360802 87.3626903,85.8413414 87.3268189,85.8413414" id="Fill-119" fill="#000000"></path>
            <path d="M86.2626368,81.9150502 L83.847302,79.6312104 C83.0413933,78.8692927 82.4196239,77.9313639 82.0417795,76.889646 C82.0346052,76.8729058 82.0298224,76.8561656 82.0226481,76.8394254 C81.4654471,75.2900016 81.1736938,73.6499415 81.2621764,72.005816 C81.5419726,66.7864649 85.1291034,64.7353137 88.7186257,64.8044267 C88.7281914,64.8046659 88.7377571,64.804905 88.7473228,64.8051441 C90.0458641,64.829537 91.2750543,64.2304774 92.0594402,63.197847 L92.9060031,62.0839072 C93.4942926,61.3095539 94.6589144,61.2712907 95.2759009,62.0217293 C96.0674611,62.9809421 96.8303243,64.443317 96.40226,66.2620187 L95.8474504,67.8473144 L87.7357519,70.2985561 C87.0494142,70.5078084 86.6141756,71.1810031 86.7050496,71.8922219 L87.1665938,75.5265165 C87.1928994,75.7218984 87.0757198,75.9072362 86.889189,75.969414 L86.0737146,76.2408442 L84.5455968,76.0516801 L86.2626368,81.9150502" id="Fill-120" fill="#000000"></path>
            <path d="M86.0737146,76.2408442 L85.353897,75.8244918 C84.7608247,75.4822746 84.0027444,75.6941575 83.6751197,76.2932171 C83.4479348,76.7083737 83.4838061,77.2170362 83.7636023,77.5975168 L84.2610178,78.2697549 C84.677125,78.8348557 85.2558487,79.2619697 85.9182722,79.4956148 L86.7122239,79.7754151 L86.0737146,76.2408442" id="Fill-121" fill="#FFFFFF"></path>
        </g>
    </g>
</svg>