<?xml version="1.0" encoding="UTF-8"?>
<svg width="258px" height="237px" viewBox="0 0 258 237" version="1.1" xmlns="http://www.w3.org/2000/svg" xmlns:xlink="http://www.w3.org/1999/xlink">
    <title>Artboard Copy</title>
    <g id="Artboard-Copy" stroke="none" stroke-width="1" fill="none" fill-rule="evenodd">
        <g id="Group-Copy-3" transform="translate(11.000000, 12.000000)">
            <path d="M0.646061767,111.675431 L0.646061767,16.1105687 C0.646061767,7.3905689 7.60854097,0.321435112 16.1969139,0.321435112 L110.415599,0.321435112 C119.003971,0.321435112 125.966451,7.3905689 125.966451,16.1105687 L125.966451,207.355852 C125.966451,216.07638 119.003971,223.144721 110.415599,223.144721 L16.1969139,223.144721 C7.60854097,223.144721 0.646061767,216.07638 0.646061767,207.355852 L0.646061767,111.675431" id="Fill-5" fill="#F8F8F8"></path>
            <polygon id="Fill-6" fill="#FFFFFF" points="7.58868071 194.429224 119.024096 194.429224 119.024096 26.7379363 7.58868071 26.7379363"></polygon>
            <path d="M119.077587,26.2582517 C115.376693,26.2582517 111.675534,26.2582517 107.97464,26.2582517 C99.089422,26.2582517 90.2042043,26.2582517 81.3189867,26.2582517 C70.6182761,26.2582517 59.9175654,26.2582517 49.2168548,26.2582517 C39.9283414,26.2582517 30.6400928,26.2582517 21.3515794,26.2582517 C18.3015723,26.2582517 15.2515653,26.2582517 12.2015582,26.2582517 C10.7628806,26.2582517 9.26223902,26.1347607 7.82753349,26.2582517 C7.76662868,26.2635404 7.70334064,26.2582517 7.64217102,26.2582517 C6.90310437,26.2582517 6.66795884,27.2173565 7.5351904,27.2173565 C11.2360845,27.2173565 14.9369787,27.2173565 18.6378728,27.2173565 C27.5230904,27.2173565 36.4083081,27.2173565 45.2935257,27.2173565 C55.9942363,27.2173565 66.694947,27.2173565 77.3959224,27.2173565 C86.684171,27.2173565 95.9726844,27.2173565 105.260933,27.2173565 C108.31094,27.2173565 111.361212,27.2173565 114.411219,27.2173565 C115.849632,27.2173565 117.350538,27.3408475 118.785244,27.2173565 C118.845884,27.2120678 118.909437,27.2173565 118.970606,27.2173565 C119.709408,27.2173565 119.944818,26.2582517 119.077587,26.2582517" id="Fill-7" fill="#000000"></path>
            <path d="M7.33208609,194.762412 C11.0329802,194.762412 14.7341392,194.762412 18.4350333,194.762412 C27.3202509,194.762412 36.2054686,194.762412 45.0906862,194.762412 C55.7913968,194.762412 66.4921075,194.762412 77.1928181,194.762412 C86.4813315,194.762412 95.7695801,194.762412 105.058094,194.762412 C109.533803,194.762412 114.112785,195.044299 118.582139,194.762412 C118.643574,194.75871 118.706067,194.762412 118.767502,194.762412 C119.211313,194.762412 120.137595,194.095772 119.280426,194.095772 C115.579532,194.095772 111.878638,194.095772 108.177744,194.095772 C99.2925263,194.095772 90.4073086,194.095772 81.522091,194.095772 C70.8213804,194.095772 60.1206697,194.095772 49.4196943,194.095772 C40.1314457,194.095772 30.8429323,194.095772 21.5546837,194.095772 C17.0789744,194.095772 12.4999918,193.814149 8.030373,194.095772 C7.96920338,194.099738 7.90670975,194.095772 7.84501053,194.095772 C7.40119981,194.095772 6.47518187,194.762412 7.33208609,194.762412" id="Fill-8" fill="#000000"></path>
            <path d="M125.32695,104.731375 C125.32695,110.898522 125.32695,117.065669 125.32695,123.232816 C125.32695,136.305676 125.32695,149.3788 125.32695,162.45166 C125.32695,174.287759 125.32695,186.123858 125.32695,197.959957 C125.32695,200.869532 125.32695,203.779107 125.32695,206.688683 C125.32695,213.069757 122.201209,219.220509 116.075509,221.782882 C113.093292,223.02837 109.976554,222.848554 106.833601,222.848554 C102.496649,222.848554 98.1596968,222.848554 93.8227446,222.848554 C80.6259959,222.848554 67.4292472,222.848554 54.2324984,222.848554 C43.2638066,222.848554 32.2953796,222.848554 21.3269526,222.848554 C19.0070089,222.848554 16.5589003,223.02837 14.2569632,222.671383 C9.4483959,221.928321 5.22213156,218.75246 3.02134943,214.439529 C1.75558856,211.961776 1.28556229,209.290456 1.28556229,206.532402 C1.28556229,195.248178 1.28556229,183.963955 1.28556229,172.679731 C1.28556229,166.108264 1.28556229,159.536532 1.28556229,152.965064 C1.28556229,140.606971 1.28556229,128.248878 1.28556229,115.890785 C1.28556229,111.233032 1.28556229,106.575278 1.28556229,101.917789 C1.28556229,89.8016543 1.28556229,77.6855191 1.28556229,65.569384 C1.28556229,53.0362353 1.28556229,40.5028221 1.28556229,27.9696733 C1.28556229,24.4894478 1.28556229,21.0092222 1.28556229,17.5289967 C1.28556229,17.0006561 1.28053102,16.4717866 1.28556229,15.943446 C1.33163811,11.2396809 3.4016073,6.69140346 7.10356064,3.73475868 C9.70684414,1.65577279 12.8309962,0.630030449 16.1497788,0.618659755 C16.9913244,0.615750973 17.8331349,0.618659755 18.6749453,0.618659755 C22.6673881,0.618659755 26.6600957,0.618659755 30.6525385,0.618659755 C43.6038144,0.618659755 56.5548254,0.618659755 69.5061012,0.618659755 C80.9670628,0.618659755 92.4277596,0.618659755 103.888721,0.618659755 C105.966899,0.618659755 108.046666,0.596182803 110.124844,0.618659755 C118.734666,0.711211913 125.267899,8.00934618 125.32695,16.4183708 C125.402949,27.2541129 125.32695,38.0930283 125.32695,48.9287705 C125.32695,52.2519218 125.32695,55.5750731 125.32695,58.8982245 C125.32695,59.1764098 126.605951,58.9735884 126.605951,58.5560459 C126.605951,48.0595735 126.605951,37.5631011 126.605951,27.0666287 C126.605951,23.3589893 126.641964,19.6492344 126.605951,15.9418594 C126.52042,7.15892407 119.444604,0.0911124573 110.657099,0.0242104691 C103.523822,-0.0302630864 96.3878964,0.0242104691 89.2543541,0.0242104691 C75.5735445,0.0242104691 61.892735,0.0242104691 48.2116606,0.0242104691 C38.3445515,0.0242104691 28.4771775,0.0242104691 18.6100684,0.0242104691 C14.3872465,0.0242104691 10.3622329,0.577672371 6.79241649,3.11386592 C2.04819646,6.48487993 0.00682604654,11.7413136 0.00682604654,17.3904329 C0.00682604654,26.3947001 0.00682604654,35.3989672 0.00682604654,44.4032344 C0.00682604654,58.0729237 0.00682604654,71.7426129 0.00682604654,85.4123021 C0.00682604654,93.9868629 0.00682604654,102.561424 0.00682604654,111.13572 C0.00682604654,118.966955 0.00682604654,126.798189 0.00682604654,134.62916 C0.00682604654,143.562558 0.00682604654,152.496221 0.00682604654,161.42962 C0.00682604654,172.626316 0.00682604654,183.823011 0.00682604654,195.019442 C0.00682604654,199.123734 -0.00853255818,203.228025 0.00682604654,207.332317 C0.037543256,215.605687 6.305178,222.806244 14.6962722,223.401223 C16.8213206,223.549306 18.9858246,223.443532 21.1129914,223.443532 C25.8603891,223.443532 30.6077867,223.443532 35.3554492,223.443532 C48.9430479,223.443532 62.5306467,223.443532 76.1185102,223.443532 C86.4649137,223.443532 96.811582,223.443532 107.157986,223.443532 C110.674576,223.443532 114.031756,223.372135 117.322204,221.814614 C123.271015,219.001029 126.605951,213.07769 126.605951,206.613583 C126.605951,198.590633 126.605951,190.567684 126.605951,182.544734 C126.605951,168.927138 126.605951,155.309543 126.605951,141.691947 C126.605951,130.908034 126.605951,120.123857 126.605951,109.339944 C126.605951,107.689606 126.605951,106.039534 126.605951,104.389196 C126.605951,104.111276 125.32695,104.314097 125.32695,104.731375" id="Fill-15" fill="#000000"></path>
            <path d="M60.846761,46.2719947 C66.2964177,46.2719947 71.7463391,46.2719947 77.1959957,46.2719947 C85.8423606,46.2719947 94.4887254,46.2719947 103.13509,46.2719947 C105.14389,46.2719947 107.152689,46.2719947 109.161754,46.2719947 C109.418878,46.2719947 110.601491,45.7777662 109.998268,45.7777662 C104.548612,45.7777662 99.0986901,45.7777662 93.6490334,45.7777662 C85.0026686,45.7777662 76.3563037,45.7777662 67.7099389,45.7777662 C65.7011393,45.7777662 63.6923397,45.7777662 61.6832754,45.7777662 C61.4261511,45.7777662 60.2435386,46.2719947 60.846761,46.2719947" id="Fill-16" fill="#000000"></path>
            <path d="M61.0135872,57.3719072 C66.4635087,57.3719072 71.9131653,57.3719072 77.3630868,57.3719072 C86.0091868,57.3719072 94.6555517,57.3719072 103.301917,57.3719072 C105.310716,57.3719072 107.31978,57.3719072 109.32858,57.3719072 C109.797017,57.3719072 110.690729,56.667453 109.831442,56.667453 C104.381521,56.667453 98.9318639,56.667453 93.4819424,56.667453 C84.8355776,56.667453 76.1894775,56.667453 67.5431127,56.667453 C65.5343131,56.667453 63.5252487,56.667453 61.5164491,56.667453 C61.0480117,56.667453 60.1542998,57.3719072 61.0135872,57.3719072" id="Fill-17" fill="#000000"></path>
            <path d="M47.2882907,51.5223464 C47.2882907,44.2443092 41.3802591,38.3445058 34.0920716,38.3445058 C26.803884,38.3445058 20.8958525,44.2443092 20.8958525,51.5223464 C20.8958525,58.8003836 26.803884,64.700187 34.0920716,64.700187 C41.3802591,64.700187 47.2882907,58.8003836 47.2882907,51.5223464" id="Fill-18" fill="#E51D74"></path>
            <path d="M25.9829931,48.142606 C28.3394797,50.4958107 30.6962311,52.8492799 33.0527177,55.2024846 C33.3680987,55.5174264 34.0078641,55.2675356 34.243804,54.9729553 C37.7701926,50.5709102 42.0774868,45.9271718 47.1222589,43.2960462 C47.9021053,42.8893456 47.1887246,42.4088677 46.6019199,42.7150831 C41.2642752,45.499052 36.7750609,50.2601994 33.0453032,54.9166307 C33.4422437,54.840209 33.8391842,54.7637874 34.2363895,54.6873657 C31.8796381,52.3338966 29.5231515,49.9806919 27.1664001,47.6272227 C26.8287756,47.2900684 25.6149162,47.7750417 25.9829931,48.142606" id="Fill-19" fill="#000000"></path>
            <path d="M127.375205,100.061458 L19.091746,112.143481 C17.5519135,112.315099 16.164343,111.208175 15.9924855,109.670487 L12.453916,78.0451504 C12.2817937,76.5077268 13.390526,75.1220888 14.9300938,74.9502062 L123.213818,62.8684476 C124.753386,62.696565 126.140956,63.8037533 126.313078,65.3411768 L129.851383,96.9667779 C130.023506,98.5042015 128.914773,99.8898395 127.375205,100.061458" id="Fill-20" fill="#FFFFFF"></path>
            <path d="M127.64557,99.7800991 C121.707351,100.442773 115.769131,101.105446 109.830648,101.767855 C96.9336564,103.206909 84.0364005,104.645963 71.1391446,106.085016 C58.6594839,107.477265 46.1798231,108.869779 33.7001624,110.262292 C29.9063222,110.685652 26.112482,111.108748 22.3186419,111.532108 C20.0389483,111.786494 17.0389891,112.583765 16.6065649,109.272777 C15.2645406,98.9963145 14.1989712,88.650041 13.1455828,78.3399951 C12.8039862,74.9972756 15.3018779,75.159903 17.6165256,74.9018147 C21.3486665,74.48533 25.0808075,74.0688453 28.8132132,73.6523606 C41.2669232,72.2630205 53.7206332,70.8734159 66.1743432,69.4838114 C79.091989,68.0426421 92.0096348,66.6012083 104.927281,65.160039 C109.27456,64.6748013 113.622104,64.189828 117.969649,63.7048547 C119.608518,63.5218658 121.292404,63.2026931 122.942394,63.1498062 C125.723891,63.0609561 125.714093,65.8748061 125.932821,67.8308298 C126.239198,70.5685227 126.545576,73.3062155 126.851954,76.0441727 C127.540972,82.2033866 128.230256,88.3626005 128.919275,94.5218143 C129.105432,96.1840511 129.915201,99.3736629 127.486688,99.7983451 C126.954962,99.8911616 126.367363,100.481644 127.263723,100.324835 C129.106756,100.002753 130.60422,98.7990462 130.490619,96.7927798 C130.468375,96.4008876 130.402704,96.0068798 130.359012,95.617103 C130.082557,93.1467537 129.806102,90.67614 129.529912,88.2055262 C128.798524,81.6684351 128.066872,75.131344 127.335485,68.5945174 C127.184282,67.2414048 127.285437,65.2599953 126.565701,64.0414801 C125.754608,62.6677416 124.297394,62.4963879 122.882284,62.6542555 C120.110321,62.9633797 117.338622,63.2727683 114.566923,63.5818925 C102.718025,64.9040662 90.869126,66.2259754 79.0204921,67.5481491 C65.3312088,69.0755241 51.6419255,70.6028992 37.9526422,72.1302742 C30.4700889,72.9650947 22.9756194,73.7295755 15.501275,74.6352645 C13.5136597,74.8761645 11.6870449,75.96828 11.814945,78.2191484 C11.8946509,79.6262057 12.1305909,81.0419892 12.2873545,82.4419067 C13.0235084,89.0215718 13.7596622,95.6012369 14.495816,102.180638 C14.7521458,104.472758 15.0087404,106.764878 15.265335,109.057263 C15.4901532,111.066967 16.6084185,112.588789 18.862691,112.420344 C20.8598392,112.270674 22.8572522,111.974507 24.8472508,111.752382 C35.9488739,110.513769 47.0504971,109.275157 58.1518555,108.036545 C72.0111426,106.49013 85.8704298,104.943716 99.7294521,103.397302 C108.420569,102.42762 117.111685,101.457937 125.802537,100.488255 C126.23655,100.439864 126.670828,100.391472 127.104841,100.343081 C127.466563,100.302622 128.48076,99.687018 127.64557,99.7800991" id="Fill-21" fill="#000000"></path>
            <path d="M60.6166467,83.4515186 C73.5146971,82.0124647 86.4127474,80.5734109 99.3107977,79.1340926 C101.104842,78.9339155 102.898886,78.7337384 104.692929,78.5335613 C105.280528,78.4679815 105.783126,77.8087457 104.889678,77.9084376 C91.9916282,79.3474915 79.0935778,80.7868097 66.1955275,82.2258636 C64.4014836,82.4260407 62.6074397,82.6262177 60.813131,82.8263948 C60.2257967,82.8919747 59.7231996,83.5512105 60.6166467,83.4515186" id="Fill-22" fill="#000000"></path>
            <path d="M61.6626207,94.3303636 C74.7553016,92.8696261 87.8482473,91.4086242 100.941193,89.9478867 C102.770985,89.7437431 104.600778,89.5395995 106.43057,89.3354559 C106.773491,89.2971128 107.81258,88.7132409 106.980302,88.8060575 C93.8873566,90.266795 80.7946757,91.7277969 67.70173,93.1885344 C65.8719376,93.392678 64.0421452,93.5968216 62.2123528,93.8009652 C61.8694322,93.8393083 60.8303432,94.4231802 61.6626207,94.3303636" id="Fill-23" fill="#000000"></path>
            <path d="M47.4360511,90.1520303 C46.6265467,82.9192114 40.0988749,77.7109049 32.8559687,78.5190174 C25.6127978,79.32713 20.3972274,85.8457107 21.206467,93.078794 C22.0157066,100.311613 28.5436432,105.519919 35.7865494,104.711807 C43.0297203,103.903694 48.2452906,97.3851137 47.4360511,90.1520303" id="Fill-24" fill="#E51D74"></path>
            <path d="M25.8482081,89.069699 C28.4520212,91.1470982 31.0555695,93.2244975 33.6593826,95.3018968 C33.9247158,95.513709 34.6666952,95.3346867 34.8451728,95.0527993 C37.9253675,90.1834981 41.747012,85.0434157 46.5677603,81.8019747 C47.1299382,81.4240974 45.8501427,81.4753978 45.5628309,81.6686996 C40.6668784,84.9603832 36.7935972,90.1409241 33.6689155,95.0803005 C34.0642672,94.9970036 34.4593541,94.913971 34.8547058,94.8309385 C32.2508926,92.7535393 29.6473443,90.6758755 27.0435312,88.5984763 C26.729739,88.3480566 25.5646035,88.8433428 25.8482081,89.069699" id="Fill-25" fill="#000000"></path>
            <path d="M61.0114688,126.012025 C66.4611254,126.012025 71.9110469,126.012025 77.3607035,126.012025 C86.0070684,126.012025 94.6534332,126.012025 103.299798,126.012025 C105.308598,126.012025 107.317397,126.012025 109.326462,126.012025 C109.784042,126.012025 110.692053,125.323966 109.83356,125.323966 C104.383904,125.323966 98.9339823,125.323966 93.4843257,125.323966 C84.8379608,125.323966 76.1915959,125.323966 67.5452311,125.323966 C65.5364315,125.323966 63.5276319,125.323966 61.5185676,125.323966 C61.0612519,125.323966 60.1529758,126.012025 61.0114688,126.012025" id="Fill-26" fill="#000000"></path>
            <path d="M61.0074968,136.992148 C66.5019052,136.992148 71.9963136,136.992148 77.4907221,136.992148 C86.2546597,136.992148 95.0188621,136.992148 103.783065,136.992148 C105.80378,136.992148 107.824496,136.992148 109.845212,136.992148 C110.283991,136.992148 111.216894,136.333441 110.360255,136.333441 C104.865846,136.333441 99.3717025,136.333441 93.8772941,136.333441 C85.1130917,136.333441 76.3488892,136.333441 67.5846868,136.333441 C65.5639711,136.333441 63.5432554,136.333441 61.5225396,136.333441 C61.0837602,136.333441 60.1511221,136.992148 61.0074968,136.992148" id="Fill-27" fill="#000000"></path>
            <path d="M47.2882907,131.165329 C47.2882907,123.887556 41.3802591,117.987488 34.0920716,117.987488 C26.803884,117.987488 20.8958525,123.887556 20.8958525,131.165329 C20.8958525,138.443366 26.803884,144.343434 34.0920716,144.343434 C41.3802591,144.343434 47.2882907,138.443366 47.2882907,131.165329" id="Fill-28" fill="#E51D74"></path>
            <path d="M25.976373,127.761261 C28.3331244,130.11473 30.689611,132.467934 33.0463624,134.821139 C33.2958074,135.070501 34.0428181,134.805538 34.2313582,134.569926 C37.8056763,130.107854 42.1315067,125.450894 47.2443333,122.78407 C47.999553,122.390062 46.8391839,122.325805 46.4798455,122.513289 C41.2110497,125.261295 36.7393125,130.009749 33.0574842,134.606154 C33.4525711,134.522328 33.8476579,134.438502 34.2427448,134.354676 C31.8862582,132.001472 29.5295068,129.648002 27.1730202,127.294798 C26.902391,127.024545 25.705479,127.490744 25.976373,127.761261" id="Fill-29" fill="#000000"></path>
            <path d="M61.206629,166.097686 C66.6565505,166.097686 72.1062071,166.097686 77.5561285,166.097686 C86.2024934,166.097686 94.8485934,166.097686 103.494958,166.097686 C105.503758,166.097686 107.512822,166.097686 109.521622,166.097686 C110.247448,166.097686 110.507221,165.17428 109.6384,165.17428 C104.188479,165.17428 98.7388221,165.17428 93.2889006,165.17428 C84.6425358,165.17428 75.9964357,165.17428 67.3500709,165.17428 C65.3412713,165.17428 63.3322069,165.17428 61.3234074,165.17428 C60.5975809,165.17428 60.3378086,166.097686 61.206629,166.097686" id="Fill-30" fill="#000000"></path>
            <path d="M61.0162353,176.992662 C66.5106437,176.992662 72.0050521,176.992662 77.4994606,176.992662 C86.2633982,176.992662 95.0276006,176.992662 103.791803,176.992662 C105.812519,176.992662 107.833235,176.992662 109.85395,176.992662 C110.334833,176.992662 111.211863,176.268904 110.351516,176.268904 C104.857108,176.268904 99.362964,176.268904 93.8685556,176.268904 C85.1043532,176.268904 76.3401507,176.268904 67.5759483,176.268904 C65.5552326,176.268904 63.5345168,176.268904 61.5138011,176.268904 C61.0331827,176.268904 60.1561534,176.992662 61.0162353,176.992662" id="Fill-31" fill="#000000"></path>
            <path d="M47.2882907,171.133317 C47.2882907,163.855544 41.3802591,157.955476 34.0920716,157.955476 C26.803884,157.955476 20.8958525,163.855544 20.8958525,171.133317 C20.8958525,178.411354 26.803884,184.311422 34.0920716,184.311422 C41.3802591,184.311422 47.2882907,178.411354 47.2882907,171.133317" id="Fill-32" fill="#E51D74"></path>
            <path d="M25.976373,167.729249 C28.3331244,170.082453 30.689611,172.435923 33.0463624,174.789127 C33.2958074,175.038489 34.0428181,174.773526 34.2313582,174.537914 C37.8056763,170.075578 42.1315067,165.418882 47.2443333,162.752058 C47.999553,162.35805 46.8391839,162.293793 46.4798455,162.481277 C41.2110497,165.229283 36.7393125,169.977737 33.0574842,174.574142 C33.4525711,174.490316 33.8476579,174.40649 34.2427448,174.322664 C31.8862582,171.96946 29.5295068,169.615991 27.1730202,167.262786 C26.902391,166.992534 25.705479,167.458732 25.976373,167.729249" id="Fill-33" fill="#000000"></path>
            <path d="M136.935626,158.675532 C137.190678,172.126534 142.036318,204.219656 145.107774,217.803139 C145.790967,220.825628 146.921678,223.660369 149.246123,222.623784 C150.43059,222.094915 150.784367,220.653746 151.1919,219.424124 C155.095104,207.650168 156.388139,190.094081 166.425517,160.183868 C167.266004,157.679142 136.892244,156.387379 136.935626,158.675532" id="Fill-34" fill="#E51D74"></path>
            <path d="M136.287433,161.586165 C137.142219,174.251796 139.090378,186.906849 141.079053,199.434974 C142.044527,205.518824 143.042306,211.61616 144.390686,217.628612 C144.899638,219.897462 145.95488,224.279146 149.220437,223.120922 C150.830708,222.549743 151.321124,220.984289 151.803861,219.50081 C152.256145,218.107239 152.669768,216.705735 153.043936,215.291009 C155.394332,206.399391 156.893384,197.290672 159.008105,188.341936 C159.155071,187.72025 157.846412,187.869392 157.712157,188.437662 C155.90143,196.099923 154.462488,203.840721 152.698102,211.511972 C152.037153,214.383998 151.29941,217.239893 150.357769,220.034968 C150.058541,220.923469 149.541114,222.523299 148.312956,222.361994 C147.414742,222.242998 146.856801,221.055686 146.559427,220.341713 C145.993542,218.982518 145.713379,217.51755 145.407796,216.084313 C142.814046,203.919522 141.091763,191.533928 139.498705,179.204923 C138.73819,173.319664 137.983235,167.413249 137.583646,161.49044 C137.538365,160.819305 136.249036,161.016837 136.287433,161.586165" id="Fill-35" fill="#000000"></path>
            <path d="M189.111765,160.692905 C188.34357,163.052192 185.337785,180.425554 185.00784,181.975935 C181.863033,196.756514 177.759903,206.02786 175.065527,220.027035 C174.306865,223.969757 172.100786,225.426793 169.896297,224.154862 C168.773,223.504352 160.11366,203.481883 154.336971,162.590489 C153.244127,154.856037 189.111765,160.692905 189.111765,160.692905" id="Fill-36" fill="#E51D74"></path>
            <path d="M187.698773,163.194193 C185.760147,179.736966 180.953698,195.714112 176.571729,211.727222 C175.771493,214.651077 175.099157,217.604813 174.330167,220.53475 C173.959178,221.946831 172.811519,225.241688 170.751877,224.067598 C170.332428,223.826962 170.181226,223.525507 169.95985,223.097123 C167.63514,218.591155 166.183487,213.490209 164.68311,208.674588 C161.772389,199.331315 159.401603,189.801087 157.778093,180.149219 C157.731752,179.87315 156.442689,180.155301 156.499357,180.491398 C158.078115,189.878302 160.366812,199.147533 163.164991,208.244088 C164.193223,211.586807 165.289775,214.910223 166.507341,218.189214 C167.191859,220.032324 167.848306,221.970631 168.814045,223.692101 C169.597599,225.088316 171.470819,225.101538 172.805693,224.46425 C175.625321,223.118277 175.853847,219.083003 176.531479,216.417501 C178.465339,208.806012 180.736559,201.283372 182.73662,193.689336 C185.408488,183.544561 187.755441,173.282114 188.977769,162.852014 C188.998429,162.674314 187.745379,162.796483 187.698773,163.194193" id="Fill-37" fill="#000000"></path>
            <path d="M150.437739,89.6117902 C150.49679,89.2630007 150.557166,88.9152691 150.619659,88.5688596 C151.683905,82.6865089 152.460838,76.3331999 154.647586,70.7647332 C156.354509,66.3764388 159.243251,61.7361381 163.646139,59.6346752 C165.268326,58.8604103 167.085143,58.5095054 168.868859,58.8297359 C175.959503,60.1019314 178.016497,69.2960627 178.042713,75.2841873 C178.067869,81.049129 176.100644,86.5681464 176.028882,92.3225106 C175.992604,95.2431923 176.436679,98.2252228 177.68205,100.888345 C179.007657,103.722292 180.025297,106.755359 181.101723,109.71121 C182.720997,114.158473 184.133988,118.670259 185.138123,123.298396 C186.468761,129.433017 187.591263,134.879579 188.091477,141.130552 C188.50563,146.307655 188.354957,152.305299 188.556207,157.494831 C189.262968,157.97002 160.964209,165.110023 136.321857,159.137235 C135.377038,136.666629 137.170553,127.044378 147.262215,103.507836 C149.131463,99.1481 149.650214,94.2737746 150.437739,89.6117902" id="Fill-38" fill="#FFFFFF"></path>
            <path d="M188.613934,161.364305 C188.367402,161.706483 184.769517,162.227684 183.39095,162.34906 C179.038639,162.732226 174.673882,162.958317 170.307802,163.017815 C164.553621,163.096088 158.798116,162.884804 153.065385,162.385816 C150.182998,162.134867 147.306437,161.811728 144.438615,161.418249 C142.994377,161.220452 141.552522,161.004409 140.11305,160.771442 C139.389871,160.654297 138.667487,160.532393 137.945633,160.407051 C137.53148,160.335125 136.497422,160.26928 136.107102,160.091316 C135.248609,159.699688 135.403254,156.447141 135.403254,156.447141 C135.403254,156.447141 137.291568,156.778742 137.583911,156.845379 C154.973824,160.813752 171.327295,160.860292 188.98413,157.83939 C188.98413,157.83939 189.023056,160.796034 188.613934,161.364305" id="Fill-39" fill="#FFFFFF"></path>
            <path d="M143.21178,160.793126 C141.96588,160.609872 140.721303,160.417099 139.47911,160.209783 C138.813659,160.09872 136.950236,160.110884 136.467764,159.626704 C135.830912,158.987036 136.012037,157.206862 136.047256,156.38447 C135.706189,156.53652 135.365122,156.68857 135.024055,156.84062 C137.761329,157.321891 140.464709,157.964732 143.199864,158.459489 C143.68419,158.547017 144.711098,157.80898 143.957997,157.672796 C141.222841,157.178038 138.519462,156.535198 135.782453,156.053926 C135.487991,156.002097 134.777523,156.080899 134.759252,156.509812 C134.713441,157.573104 134.54635,159.479414 135.396634,160.279065 C135.938952,160.789424 137.031531,160.724373 137.712076,160.825916 C139.39199,161.076864 141.063694,161.383873 142.744667,161.630855 C143.315319,161.714681 144.069214,160.918997 143.21178,160.793126" id="Fill-40" fill="#000000"></path>
            <path d="M154.845394,159.885057 C166.231151,160.782813 177.632532,160.038958 188.880592,158.132383 C188.702114,158.09166 188.523372,158.051202 188.344894,158.010479 C188.353103,158.829433 188.346483,159.663725 188.23606,160.475804 C188.089888,161.552582 187.772124,161.428033 186.687224,161.619484 C183.703947,162.145974 180.66162,162.305163 177.641271,162.469113 C170.218563,162.871847 162.779702,162.789608 155.367057,162.237997 C155.033404,162.21314 153.888394,162.793046 154.559936,162.843024 C163.198886,163.4856 171.874644,163.503846 180.514919,162.867881 C183.069743,162.679867 185.941008,162.621163 188.388057,161.776823 C189.965757,161.232352 189.63793,159.055261 189.62363,157.6683 C189.621777,157.489542 189.168963,157.532645 189.087933,157.546396 C178.037417,159.419652 166.838611,160.162449 155.65225,159.28003 C155.318333,159.253851 154.173058,159.831905 154.845394,159.885057" id="Fill-41" fill="#000000"></path>
            <path d="M146.996088,162.696791 L150.596621,163.176211 C152.075814,163.366604 153.412542,162.577267 153.603201,161.100134 C153.794124,159.622737 152.766686,158.017354 151.287494,157.826961 L146.92512,157.296241 C145.445928,157.105848 144.582668,158.436483 144.39201,159.913616 C144.201351,161.391013 145.51663,162.506398 146.996088,162.696791" id="Fill-42" fill="#FFFFFF"></path>
            <path d="M146.772858,163.154528 C148.631514,163.402039 151.145559,164.18503 152.864399,163.132844 C155.410485,161.574266 154.178089,157.805806 151.460675,157.363143 C150.422645,157.193904 149.363961,157.107963 148.319841,156.981034 C147.367607,156.865212 146.412196,156.664242 145.511599,157.120392 C144.370561,157.698181 143.666978,159.125865 143.73159,160.386161 C143.815533,162.024863 145.319617,162.890093 146.772858,163.154528 C147.394882,163.26797 148.07172,162.394278 147.219052,162.239055 C145.81427,161.983346 144.818873,160.956282 145.100889,159.49766 C145.32147,158.356888 146.047826,157.762439 147.155764,157.809244 C148.395574,157.861602 149.801681,158.011801 151.014481,158.278616 C153.573013,158.841597 153.686084,162.981323 150.674209,162.699171 C149.520195,162.591017 148.368035,162.392162 147.219052,162.239055 C146.597823,162.156551 145.912776,163.040028 146.772858,163.154528" id="Fill-43" fill="#000000"></path>
            <path d="M164.303646,163.585028 C165.974557,163.022046 165.798198,160.84231 164.984456,159.6193 C164.693172,159.18166 163.463954,159.643892 163.808199,160.161127 C164.095776,160.593477 164.255982,161.069989 164.285905,161.589603 C164.295438,161.754346 164.280344,162.723499 164.08995,162.787492 C163.333142,163.042672 163.527507,163.846554 164.303646,163.585028" id="Fill-44" fill="#000000"></path>
            <path d="M188.243739,62.966024 C189.93398,66.0033214 189.585234,70.3511573 188.268101,73.5513465 C185.839588,79.4519432 180.057338,80.1548107 175.407388,78.5063246 C173.355161,77.7786002 171.36781,76.4704415 170.422197,74.3055144 C169.68313,72.6133965 169.653737,70.5756624 168.963659,68.8544567 C168.181959,66.9042505 166.530115,65.4805339 164.63518,65.1246048 C161.81211,64.5944131 158.839426,66.9161501 156.017414,66.0726033 C153.397183,65.2893476 153.751226,61.6345951 154.414294,59.4326471 C155.260341,56.6232924 157.146537,54.1659004 159.46648,52.5420067 C162.545351,50.3868636 166.315624,49.5943527 169.937077,49.7625332 C172.964575,49.9029481 177.192693,50.4421305 179.807363,52.1038384 C181.89428,53.430243 182.789581,55.9235981 183.735459,58.1699712 C184.525898,60.0466645 186.550585,60.6006553 187.713867,62.1483918 C187.909027,62.4080667 188.085387,62.6814922 188.243739,62.966024" id="Fill-49" fill="#EFB4CE"></path>
            <path d="M154.285864,87.1856015 C154.927218,87.7374768 155.940357,88.3324549 156.817121,88.2737504 C157.06789,88.2568266 157.370031,88.2190124 157.48628,88.5053952 C157.622124,88.8393763 157.197909,89.4920012 157.046441,89.7775907 C156.780843,90.2776368 156.461755,90.746744 156.159084,91.2243132 C155.792596,91.8028964 154.988388,92.553891 154.228137,92.1249779 C153.759964,91.8605432 153.576455,91.1851768 153.471328,90.7041701 C153.225591,89.5774136 153.225856,88.3242574 153.386856,87.1832215 C153.407511,87.0377824 153.497809,86.8920789 153.639214,86.8508271 C153.850792,86.7894782 154.045158,86.9722026 154.209601,87.1186995 C154.234757,87.1411764 154.260178,87.1633889 154.285864,87.1856015" id="Fill-50" fill="#000000"></path>
            <path d="M149.233413,99.4524644 C151.822132,89.3891361 151.62962,78.4431247 156.038599,68.8769337 C157.987023,64.6491511 161.661437,59.3120648 166.815043,59.0153691 C170.98358,58.7755268 174.018758,62.0777877 175.528138,65.6061404 C176.907235,68.8301287 177.450877,72.4571155 177.400564,75.9489762 C177.322447,81.3645996 175.560709,86.591681 175.400238,92.000958 C175.322121,94.6283815 175.612081,97.2938837 176.511354,99.7756037 C177.431017,102.313384 178.614688,104.756496 179.533292,107.302738 C181.279406,112.143216 182.952965,116.99242 184.236732,121.979395 C187.115147,133.162605 188.124313,144.663136 187.733198,156.187466 C187.724459,156.44291 188.9979,156.260714 189.011934,155.845287 C189.382924,144.920695 188.511456,134.003771 185.945509,123.362918 C184.676836,118.101724 182.977327,112.990201 181.149917,107.900361 C180.147106,105.107666 178.923714,102.417042 177.872444,99.6497327 C176.90803,97.1111593 176.595297,94.3607736 176.678975,91.6587795 C176.856128,85.9493691 178.782309,80.432996 178.676652,74.6995221 C178.609657,71.053496 177.926199,67.2223655 176.194384,63.9801312 C174.504408,60.8166985 171.585744,58.436257 167.866048,58.4211065 C163.451773,58.4034671 159.640191,61.4169653 157.196585,64.8548813 C153.862178,69.5464824 152.402317,75.2392334 151.354754,80.8140465 C150.179556,87.066077 149.551971,93.4928988 147.966328,99.6563436 C147.879737,99.9927046 149.141791,99.8094513 149.233413,99.4524644" id="Fill-51" fill="#000000"></path>
            <path d="M136.821542,155.029506 C136.606521,147.154375 136.792943,139.258354 138.320065,131.50645 C139.940927,123.27777 142.918643,115.393119 146.114557,107.663692 C146.284031,107.254347 145.010856,107.396348 144.835291,107.821295 C141.592242,115.663636 138.575865,123.667018 136.970361,132.024742 C135.491698,139.721644 135.329374,147.559489 135.542541,155.371685 C135.553662,155.780236 136.835047,155.528759 136.821542,155.029506" id="Fill-52" fill="#000000"></path>
            <path d="M176.622836,101.22735 C159.529504,110.800946 148.532743,104.697263 146.940479,101.031404 C146.957956,101.071863 144.689119,105.292241 144.261991,106.086074 C144.219888,106.164611 144.228361,106.259543 144.284235,106.329883 C144.695739,106.851084 146.402133,108.964711 147.261156,109.310062 C147.711587,109.4912 148.234044,109.461848 148.666468,109.246598 C148.762327,109.199 148.848653,109.13342 148.931007,109.064403 C149.491861,108.594767 150.043712,108.11376 150.585764,107.621647 C150.910943,107.326538 151.295967,106.800841 151.700852,106.642709 C152.364185,106.383828 152.877904,106.754036 153.154888,107.386035 C153.303708,107.725834 153.369114,108.095778 153.432932,108.461491 C153.583605,109.324342 153.734543,110.186928 153.885216,111.049514 C153.927585,111.290943 153.972337,111.539512 154.10209,111.746829 C154.448453,112.299497 155.687999,112.200863 156.245675,112.249519 C157.193672,112.332287 158.144581,112.367721 159.094696,112.359524 C161.127328,112.342071 163.155194,112.122855 165.143603,111.717476 C167.672477,111.202093 170.135415,110.383403 172.481574,109.305038 C174.621981,108.321341 176.663616,107.122923 178.587678,105.755531 L176.622836,101.22735" id="Fill-53" fill="#FFFFFF"></path>
            <path d="M176.250787,101.130303 C170.156069,104.504754 163.006639,107.036717 155.954921,105.748391 C153.024075,105.213175 148.931272,103.832297 147.57998,100.860315 C147.441222,100.554893 146.396043,100.878825 146.308658,101.139822 C146.049415,101.914616 145.519543,102.66614 145.136108,103.384609 C144.835291,103.948648 144.53368,104.512159 144.231539,105.075669 C144.080866,105.356234 143.649501,105.897003 143.626463,106.22596 C143.56953,107.032751 145.240705,108.40358 145.78064,108.892784 C146.686003,109.712797 147.746541,109.928046 148.891551,109.406052 C149.446844,109.152724 149.89039,108.707945 150.346117,108.310764 C150.6991,108.002962 151.041226,107.598376 151.42122,107.326009 C152.093291,106.844209 152.387223,107.178454 152.639581,107.90565 C153.092924,109.212751 152.602773,111.951501 154.262297,112.390992 C155.892692,112.822549 157.914467,112.667855 159.582994,112.612323 C161.713603,112.541455 163.832561,112.250312 165.909945,111.776181 C170.664227,110.691205 175.100481,108.578636 179.080213,105.784619 C179.607437,105.414674 178.337439,105.555883 178.095144,105.726179 C173.661274,108.83884 168.654633,111.066702 163.258202,111.809764 C161.702217,112.023956 160.126636,112.116508 158.556351,112.081867 C157.650987,112.06177 156.173648,112.214614 155.309065,111.880897 C153.399831,111.143917 154.995802,107.4495 153.135028,106.442003 C151.940234,105.794932 150.771656,106.92539 150.004785,107.662105 C149.159268,108.474449 148.189028,109.504951 147.093006,108.550342 C146.508055,108.041305 145.993542,107.444211 145.494387,106.853199 C145.019065,106.289953 144.896725,106.12098 145.177682,105.449844 C145.433482,104.837942 145.820095,104.252748 146.132828,103.667554 C146.601001,102.791482 147.25586,101.86834 147.5723,100.922986 C147.14835,101.016067 146.724664,101.109148 146.300978,101.202493 C147.822275,104.548915 152.53869,105.947246 155.831258,106.40604 C163.189618,107.431518 170.642778,104.841644 176.994885,101.324662 C177.735011,100.914789 176.566698,100.955511 176.250787,101.130303" id="Fill-54" fill="#000000"></path>
            <path d="M169.148757,166.762475 C170.194201,170.341864 171.820889,174.548756 176.068867,175.053298 C176.461836,175.100103 177.566331,174.458055 176.855863,174.3737 C172.857065,173.898776 171.399851,169.748472 170.427758,166.420297 C170.301446,165.988475 169.024034,166.335678 169.148757,166.762475" id="Fill-55" fill="#000000"></path>
            <path d="M142.57943,166.818536 C142.999143,168.543972 142.499724,170.342657 141.156905,171.533142 C140.510255,172.106437 141.512271,172.620498 142.0199,172.17043 C143.650295,170.724765 144.376916,168.607965 143.858431,166.476357 C143.705639,165.848589 142.425579,166.185743 142.57943,166.818536" id="Fill-56" fill="#000000"></path>
            <path d="M143.387875,107.734296 C138.816836,114.113519 130.083086,114.188355 123.482594,111.181996 C116.356201,107.936324 110.028721,101.491785 107.985761,93.8205334 C107.414051,91.6743811 107.519707,89.6406135 107.366916,87.4645801 C107.227894,85.4852861 105.631658,84.1787141 103.969221,83.3616107 C103.413928,83.0887141 102.503799,83.893389 103.239688,84.2551357 C104.349214,84.8006646 105.445236,85.6053395 105.888782,86.808782 C106.253152,87.7977679 106.011386,88.9573142 106.06064,89.9936339 C106.155704,91.9911739 106.557941,93.9590972 107.229747,95.8424014 C108.595074,99.6685076 110.977247,103.080245 113.862281,105.918951 C119.22111,111.192309 126.800847,115.012598 134.490476,113.946132 C138.493511,113.391084 142.095898,111.453042 144.467214,108.143905 C144.944125,107.478323 143.748008,107.23187 143.387875,107.734296" id="Fill-57" fill="#000000"></path>
            <path d="M176.761593,113.121625 C177.639682,126.484834 172.578492,139.651833 161.913,148.03177 C158.435071,150.764438 154.532396,152.879916 150.42291,154.501166 C149.587985,154.830387 150.358298,155.154319 150.904853,154.938541 C157.830524,152.206401 164.187662,148.056627 168.977164,142.311253 C173.324708,137.096336 176.20021,130.766297 177.428369,124.102542 C178.116063,120.370574 178.28898,116.562978 178.04033,112.779446 C178.017821,112.435152 176.73273,112.682399 176.761593,113.121625" id="Fill-58" fill="#000000"></path>
        </g>
    </g>
</svg>