<?xml version="1.0" encoding="UTF-8"?>
<svg width="183px" height="352px" viewBox="0 0 183 352" version="1.1" xmlns="http://www.w3.org/2000/svg" xmlns:xlink="http://www.w3.org/1999/xlink">
    <title>Artboard</title>
    <g id="Artboard" stroke="none" stroke-width="1" fill="none" fill-rule="evenodd">
        <g id="Group-Copy-3" transform="translate(70.000000, 8.000000)">
            <path d="M58.0710548,170.850573 C57.828794,170.324883 57.3829224,169.868058 57.0019991,169.443663 C56.4768349,168.858318 55.9233803,168.287787 55.3089622,167.795729 C54.9758535,167.529081 54.4012808,167.664807 54.0446632,167.811344 C53.8757182,167.880608 53.185195,168.262564 53.5147176,168.526409 C54.0884933,168.985236 54.6068838,169.514129 55.1017654,170.056634 C55.4547968,170.443794 55.9233803,170.883403 56.1465154,171.368655 C56.4298171,171.983227 58.3085342,171.366653 58.0710548,170.850573" id="Fill-19" fill="#000000"></path>
            <path d="M21.392839,301.772834 C21.392839,301.772834 24.924349,320.234418 25.2666221,322.11657 C25.7555269,324.805473 27.0772034,330.043548 25.0809419,332.460198 C24.1820266,333.54841 23.2580086,333.74099 21.8825406,333.62288 C18.9825824,333.373047 16.6420555,331.168996 13.8891273,330.795048 C10.2667695,330.30299 11.8530203,332.706427 13.6898996,334.939305 C16.619742,338.499819 20.2480767,341.291618 24.619929,342.849868 C26.8050583,343.628993 29.2451991,343.900046 31.4386959,343.145744 C35.192544,341.854542 37.8135835,337.892854 40.2668732,334.947313 C43.6123046,330.931174 45.9843094,326.351712 48.5571358,321.833506 C50.9510557,317.629593 53.9151652,313.796425 58.4408214,311.796164 C75.0819118,304.439716 93.9268588,341.002148 102.670165,339.430285 C106.319219,338.774475 89.2872444,300.529677 84.9221657,288.984531 C83.6913371,285.729501 82.7513809,283.779286 79.1210539,276.333956 C79.1210539,276.333956 60.4578025,287.700135 53.8310912,290.68131 C46.0229596,294.19418 21.4565918,301.753216 21.392839,301.772834" id="Fill-21" fill="#E51D74"></path>
            <path d="M77.4519243,272.962418 C77.4335954,272.925984 77.4136726,272.887948 77.3953437,272.851114 C77.1132373,272.290592 76.8239587,271.720462 76.5287032,271.143124 C76.4884592,271.064651 76.4494106,270.987379 76.4091666,270.908506 C76.1083328,270.32196 75.8003268,269.726606 75.4871409,269.125646 C75.4257788,269.007937 75.3648151,268.891028 75.3030545,268.772918 C74.9890717,268.172359 74.6695105,267.566195 74.343574,266.953625 C74.2905794,266.853932 74.2367879,266.753438 74.1833949,266.653345 C73.8423171,266.01435 73.4964578,265.370951 73.1430279,264.721547 C73.1386449,264.71354 73.1342619,264.705532 73.1294804,264.697124 C72.776449,264.04812 72.4154484,263.393911 72.0504633,262.7369 C71.9902965,262.628799 71.9305282,262.520698 71.869963,262.412197 C71.5177284,261.780009 71.159517,261.145018 70.7965242,260.508025 C70.7275914,260.386712 70.6582602,260.265399 70.5885305,260.143686 C70.217967,259.495883 69.8434189,258.846879 69.4632925,258.196674 C69.418267,258.119402 69.3724447,258.04253 69.3274192,257.965258 C68.9528712,257.327064 68.5739401,256.68847 68.190626,256.049875 C68.1519759,255.985816 68.1141226,255.921356 68.0754724,255.857296 C67.6825954,255.204689 67.28414,254.553683 66.882497,253.903478 C66.8087828,253.784167 66.735467,253.664856 66.6613543,253.545544 C66.2652896,252.907751 65.8652405,252.271559 65.4612067,251.638169 C65.3902816,251.526865 65.3185597,251.416363 65.2476346,251.305059 C64.8276626,250.650049 64.404503,249.997042 63.976562,249.349639 C63.9546469,249.316808 63.9327319,249.284378 63.9108168,249.251548 C63.4928371,248.619359 63.070076,247.992776 62.6449241,247.370197 C62.5815697,247.278111 62.5190122,247.185224 62.4560562,247.093139 C62.0332951,246.477365 61.6069478,245.868399 61.1778114,245.264236 C61.0945342,245.147327 61.0112571,245.030419 60.9279799,244.91391 C60.4972496,244.31175 60.0637302,243.715194 59.6270231,243.127447 C59.5616764,243.039365 59.4963297,242.952885 59.430983,242.865203 C58.9879006,242.272251 58.5424275,241.685305 58.0941652,241.109169 C58.0730471,241.081943 58.051929,241.053917 58.0304124,241.026292 C57.5753763,240.442548 57.1167542,239.870816 56.6565382,239.307091 C56.6083251,239.247836 56.560909,239.185378 56.5122974,239.126523 C57.479747,237.009353 58.3491767,234.974258 59.3162279,232.857088 C58.2627119,232.573224 57.2594012,232.105989 56.3576967,231.489815 C55.4938455,230.899666 54.8571138,229.891127 54.0183652,229.363836 C53.6824673,230.467263 53.2493463,231.469797 52.0547771,231.883782 C51.086929,232.219294 50.0935797,231.913009 49.1329038,231.348884 C47.8136181,230.189004 46.487957,229.15284 45.1611006,228.269618 C45.1555222,228.266014 45.1495454,228.26121 45.1443655,228.257607 L45.1459593,228.260009 C38.639183,223.935584 32.1100932,223.228125 26.2340718,228.952654 C24.1784405,230.954917 22.5491565,233.623001 21.2848575,236.822379 L21.2848575,236.813971 C21.2665286,236.860814 21.2505904,236.908459 21.2322614,236.955302 C21.0844345,237.334455 20.9397952,237.718012 20.8019296,238.111579 C20.7533181,238.250108 20.7086911,238.389838 20.6616733,238.528767 C20.566044,238.812231 20.4728055,239.098898 20.3823561,239.389568 C20.3552612,239.476849 20.3241816,239.562529 20.2978836,239.650211 C20.1815346,240.037772 20.0345046,240.395705 19.9663687,240.791673 C19.9540166,240.864941 19.9285154,240.935007 19.9121788,241.007474 C19.8711379,241.159215 19.8312923,241.312958 19.7914468,241.466702 C19.7229125,241.666087 19.642026,241.861469 19.5448029,242.048843 C19.3093158,242.504468 18.8917346,243.191107 18.4139866,243.428127 C17.99003,243.638323 17.9314571,244.270111 17.5644797,244.018677 C17.3465246,243.869738 16.8671828,244.875474 16.6918624,244.678091 C16.6113744,244.587606 15.5626399,245.77351 15.5917271,245.655801 C14.9514093,248.2334 15.610853,247.705308 15.2877057,250.079118 C15.3191836,250.452666 14.8071685,253.148775 14.517093,253.736122 C14.3485463,254.07844 17.7585275,254.160917 17.8107251,254.564093 C17.7075252,256.439838 17.6505461,259.248853 17.6366001,261.227495 C17.6362017,261.257523 17.6346078,261.287951 17.6346078,261.317579 L17.6354048,261.380037 C17.6218573,263.606909 17.6613043,265.891836 17.749363,268.224007 L17.7501599,268.260441 C17.7509568,268.288867 17.7525506,268.318095 17.753746,268.346521 C17.775661,268.919454 17.8011622,269.49519 17.8286556,270.073328 C17.8354293,270.211457 17.8426015,270.350386 17.8493753,270.488515 C17.8740795,270.983776 17.900776,271.480638 17.9298633,271.979503 C17.9362386,272.092408 17.9422154,272.204512 17.9489891,272.317417 C17.9836547,272.901961 18.0211096,273.488908 18.0613535,274.077856 C18.070518,274.213982 18.0804794,274.35051 18.0900423,274.487037 C18.124708,274.987102 18.1617643,275.488369 18.200016,275.991237 C18.2095789,276.115753 18.2187434,276.240269 18.2287048,276.364784 C18.2749256,276.957736 18.3243341,277.55269 18.3753364,278.148845 C18.3868916,278.28297 18.3992437,278.417095 18.4107989,278.55122 C18.4554259,279.057291 18.5016467,279.564963 18.5494614,280.073436 C18.5618135,280.205159 18.5737672,280.336882 18.5865177,280.469005 C18.6438953,281.069163 18.7032652,281.670923 18.7654242,282.273885 C18.7789717,282.405607 18.7929176,282.53773 18.8064651,282.669453 C18.8594597,283.178727 18.9140481,283.688401 18.9702303,284.199277 C18.98577,284.340608 19.0009113,284.481539 19.0168495,284.623271 C19.0841885,285.229836 19.1535197,285.837201 19.2252417,286.445768 C19.2395861,286.567081 19.2543289,286.688794 19.2686733,286.810107 C19.3308324,287.331792 19.3941868,287.853878 19.459135,288.376765 C19.4770655,288.518497 19.4941991,288.660629 19.5121296,288.802361 C19.5890315,289.414131 19.6675272,290.0259 19.7480152,290.638871 C19.7635549,290.754979 19.7790947,290.871487 19.7946344,290.987595 C19.8643641,291.514486 19.9356876,292.041376 20.0082065,292.568667 C20.0281293,292.714803 20.0480521,292.860939 20.0683733,293.007075 C20.1536427,293.622047 20.240506,294.23702 20.3293616,294.852393 C20.3441044,294.956489 20.3596442,295.060586 20.3747855,295.164683 C20.4520858,295.69798 20.53098,296.231276 20.610671,296.764973 C20.633383,296.916314 20.656095,297.067654 20.6788069,297.219396 C20.771647,297.833968 20.8656825,298.448139 20.9613118,299.062311 C20.9760546,299.154797 20.9907975,299.247684 21.0051419,299.34017 C21.0904113,299.883075 21.1764777,300.42518 21.2637394,300.967284 C21.2776853,301.052964 21.2908344,301.139044 21.3047803,301.225124 L21.3047803,301.22112 C21.334266,301.404892 21.3637517,301.589063 21.3936359,301.772434 C21.3936359,301.772434 45.9958646,294.143333 53.8151529,290.626459 C60.4390751,287.647286 79.1210539,276.333956 79.1210539,276.333956 C78.5946944,275.254151 78.0368568,274.126301 77.450729,272.961216 L77.4519243,272.962418" id="Fill-22" fill="#FFFFFF"></path>
            <path d="M23.6285721,301.43572 C31.4104056,298.979834 39.2460306,296.695308 46.9732757,294.066861 C54.0566169,291.657018 60.3071864,288.257854 66.7199272,284.408271 C70.4781583,282.152171 74.195747,279.828809 77.9527828,277.571107 C78.950515,276.971349 77.4168603,276.826414 76.9004621,277.137103 C72.6772336,279.675066 68.5006243,282.2903 64.2674344,284.811447 C60.3573918,287.140014 56.4178635,289.608712 52.1866658,291.310696 C42.8436842,295.069395 33.0133916,297.633781 23.4221722,300.660599 C22.4168693,300.977694 22.5973696,301.761223 23.6285721,301.43572" id="Fill-24" fill="#000000"></path>
            <path d="M22.6639116,304.474949 C31.1171424,301.987434 39.5687794,299.451874 47.899286,296.571993 C55.3328695,294.002001 62.0838989,290.364615 68.9114318,286.473794 C72.7979655,284.259333 76.6593966,282.00043 80.504491,279.714302 C81.4998325,279.122151 79.9482473,279.068101 79.4708977,279.351965 C72.5162576,283.487014 65.5317333,287.60885 58.3603334,291.355137 C51.2359513,295.077402 43.4780251,297.364331 35.8332603,299.746548 C31.3936705,301.130236 26.9401347,302.469883 22.4790283,303.783105 C21.47253,304.078981 21.6354983,304.777631 22.6639116,304.474949" id="Fill-25" fill="#000000"></path>
            <path d="M34.2968163,245.428389 C32.1292191,244.781787 29.9616218,244.134785 27.7936261,243.488183 C25.7419794,242.876013 23.1858881,242.520482 21.2836622,241.546776 C19.4973867,240.632325 20.5493089,239.011616 21.1374291,237.278804 C21.6574133,235.747778 22.2754176,234.244779 23.0504133,232.825058 C26.0954093,227.245465 31.3267299,224.353172 37.6649596,225.404551 C41.3757745,226.020324 44.8399456,227.907281 47.8040551,230.176593 C49.7811907,231.690002 48.5547451,233.468457 47.6020383,235.484734 C46.7457577,237.295619 45.6763034,239.00521 44.4195752,240.56226 C43.3313935,241.910314 41.2395028,244.209254 40.282413,243.501796 C39.6727763,243.050576 37.8267325,241.99119 36.2472554,240.754839 C35.4877994,242.276255 35.0562723,243.906973 34.2968163,245.428389" id="Fill-26" fill="#FFFFFF"></path>
            <path d="M47.162542,233.795561 C46.2799633,236.390377 45.0586976,238.793013 43.2250059,240.848526 C42.6946618,241.44308 42.1236753,241.992791 41.5403366,242.533695 C41.2610194,242.793136 40.9817022,243.052578 40.6968066,243.306014 C40.5716916,243.417317 39.6946913,244.027485 40.121437,243.878947 C40.4955866,243.855325 40.8701347,243.832103 41.2442843,243.808481 C39.8329553,242.558918 38.4216264,241.309755 37.0102974,240.060192 C36.6863532,239.773526 35.4814242,240.107036 35.3399725,240.509811 C34.6618014,242.44241 33.9836304,244.375009 33.3054593,246.307607 C33.826639,246.140652 34.3474202,245.974097 34.8685998,245.807542 C31.0139425,244.310549 27.1592852,242.813555 23.3046278,241.316161 C22.8930234,241.156413 21.3274923,241.812223 21.892502,242.031627 C25.7471593,243.528621 29.6018166,245.025614 33.4564739,246.522608 C33.8194668,246.663539 34.8689982,246.451341 35.0196144,246.022542 C35.6977854,244.089943 36.3759565,242.157344 37.0541275,240.224746 C36.4974854,240.374885 35.9408432,240.524625 35.3838026,240.674364 C36.79553,241.923927 38.2068589,243.17309 39.6181879,244.422653 C39.8716055,244.646862 40.4888129,244.439869 40.7410351,244.352187 C42.0304367,243.902969 43.2269982,242.397968 44.1677514,241.440677 C46.3736003,239.194987 47.8658157,236.481261 48.876697,233.510496 C49.0101796,233.11733 47.3251118,233.317917 47.162542,233.795561" id="Fill-28" fill="#000000"></path>
            <path d="M20.4198109,236.925675 C19.5806639,239.111309 19.3411922,242.091683 17.3612675,243.498593 C16.731708,243.946209 16.0706705,244.358994 15.4267666,244.786191 C15.1737474,244.953947 14.901204,245.105689 14.6613338,245.290261 C14.2899734,245.575726 13.7138069,245.603752 14.6318481,245.466825 C14.2839966,245.518473 13.6273421,245.713855 13.6452726,246.172281 C13.7424957,248.650989 14.8812812,251.357508 13.7122131,253.722509 C13.6261468,253.896671 13.6189746,254.061224 13.8269683,254.152109 C14.6051516,254.492025 15.3558415,254.718236 16.2141144,254.684204 C16.4241004,254.675796 16.8687766,254.510843 17.0273618,254.589316 C16.4165298,254.287035 16.7866948,255.071765 16.8277357,255.417687 C17.0735827,257.488414 16.7691628,259.583164 16.7703581,261.659096 C16.7715535,263.899182 16.8213604,266.145673 16.8823241,268.384957 C17.1831579,279.458064 18.6841393,290.535975 20.4385383,301.458141 C20.53098,302.032276 22.27223,301.625097 22.1706238,300.991707 C20.316611,289.450565 18.7777763,277.755279 18.5833301,266.051585 C18.5239602,262.502281 18.9295878,258.770808 18.5944868,255.258339 C18.5243587,254.521253 18.6052451,253.887062 17.8784625,253.638831 C17.159649,253.393002 16.0634983,254.213766 15.588141,253.211634 C15.5200052,253.0683 15.9340003,251.94005 15.9583061,251.659789 C16.0057223,251.116884 15.9782288,250.573578 15.9260312,250.031874 C15.7853764,248.580123 15.4347357,247.168809 15.3773581,245.705847 C15.048234,245.941266 14.7195083,246.176285 14.3903842,246.411304 C15.878615,246.189097 17.4397632,244.665679 18.6598335,243.851321 C21.0015558,242.287866 21.1971974,239.184577 22.1503026,236.702267 C22.3610855,236.152155 20.6385629,236.355544 20.4198109,236.925675" id="Fill-29" fill="#000000"></path>
            <path d="M20.5269954,302.005851 C21.7837237,308.575566 23.0528041,315.142879 24.2832343,321.717799 C24.6657514,323.761301 25.1419056,325.807205 25.2550669,327.888742 C25.3307734,329.285242 25.3343595,330.988027 24.4876419,332.181538 C22.9165323,334.3968 19.7691333,332.464201 17.9804671,331.615812 C16.2284588,330.785038 13.4368804,329.559097 11.5378421,330.766621 C9.89700288,331.809592 11.7474296,333.839481 12.5582863,334.858029 C16.3639336,339.640081 22.6137062,344.432141 29.0515497,343.96891 C35.098907,343.534105 39.0607488,337.689865 42.3770929,333.242526 C48.5921999,324.907968 53.9366818,307.056952 67.5012982,312.30824 C75.7278079,315.492804 82.1481194,322.981775 88.0560173,329.252812 C90.6910027,332.049415 93.2801657,334.956121 96.2219618,337.436429 C97.7994466,338.766467 99.8028802,340.366757 102.007135,339.991608 C104.076713,339.63928 104.16756,338.223562 103.897806,336.413077 C103.389377,332.994695 102.119898,329.636369 100.963182,326.399757 C97.6253216,317.060664 93.6961531,307.938573 89.8749661,298.79286 C86.6570405,291.092092 83.5929186,283.433764 79.906011,275.937186 C74.2881887,264.513754 68.1487882,253.234455 60.570167,242.989319 C59.7230508,241.844253 57.8451306,240.183507 57.712445,238.802222 C57.6227925,237.870554 58.3985851,236.701867 58.7731332,235.856279 C59.2365368,234.809305 59.7019327,233.763532 60.1752977,232.721361 C60.2266984,232.607656 60.1107479,232.514369 60.0187047,232.486343 C57.7686272,231.7961 56.6075282,230.402003 54.8296203,229.049544 C54.4698151,228.776089 53.3079193,229.044739 53.1596939,229.499162 C51.7419896,233.844407 47.9765863,229.381453 45.9556206,227.943715 C45.5240935,227.637029 43.9896418,228.327672 44.3331104,228.571899 C46.2767757,229.954386 48.0989121,232.339006 50.6721369,232.427088 C52.8134361,232.500756 54.2415002,231.175923 54.8770365,229.22811 C54.3203944,229.377849 53.7637522,229.527989 53.20711,229.677729 C53.9685583,230.257068 54.5550846,231.010969 55.2990008,231.605523 C55.9863363,232.154434 57.0454307,232.376641 57.6821624,232.918345 C58.7906652,233.860822 56.2262064,238.000675 55.6536261,239.26225 C55.6281249,239.332715 55.6440631,239.392371 55.7010422,239.440416 C69.0110456,255.787231 78.2775239,275.34984 86.2697418,294.752299 C89.8235653,303.379129 93.5248173,311.945503 96.9013282,320.6452 C98.4066926,324.522809 99.8853605,328.427244 101.077539,332.415756 C101.537755,333.95599 103.02758,337.483673 102.174088,339.103581 C101.986017,339.460714 102.352596,339.18846 102.058138,339.232101 C101.637767,339.294559 101.027334,338.96265 100.665138,338.786486 C99.5116094,338.225164 98.4851883,337.366364 97.5209263,336.530786 C94.7185896,334.102526 92.2186806,331.320737 89.6785276,328.624627 C84.0399855,322.639857 78.1583857,316.026902 70.6765891,312.348278 C67.6885723,310.87891 64.3682436,310.063751 61.0479149,310.650697 C56.2811933,311.492681 52.3858935,314.936687 49.6819753,318.805087 C47.7554436,321.561653 46.2552591,324.601283 44.5610268,327.502383 C42.6850989,330.714172 40.5434013,333.623681 38.2283755,336.520377 C35.9077714,339.423879 33.1671953,343.155753 29.0798401,343.18458 C25.2522777,343.211405 21.3418367,340.927279 18.4506445,338.577091 C17.2465123,337.59858 16.1344233,336.508766 15.1115884,335.341279 C14.4079162,334.538532 12.7794291,333.030729 12.7029256,331.917693 C12.6316021,330.878726 13.7895135,331.247068 14.6262697,331.524126 C15.2980655,331.746333 15.9371879,332.053819 16.575115,332.357302 C18.0139374,333.040738 19.427657,333.77382 21.0266585,333.984016 C22.950401,334.236651 24.9873049,333.793038 26.1256919,332.081845 C27.4449777,330.0988 27.0656481,327.26296 26.7185935,325.051301 C25.60252,317.943486 24.0449579,310.881712 22.6941942,303.816336 C22.5491565,303.05723 22.4041187,302.298523 22.2590809,301.539417 C22.1718192,301.083392 20.4289754,301.493774 20.5269954,302.005851" id="Fill-30" fill="#000000"></path>
            <path d="M57.453449,230.952515 C63.2740851,209.775604 63.0720683,186.344594 57.0243126,165.234145 C56.7832471,164.391761 55.05156,164.859396 55.2926255,165.700179 C61.2674639,186.557993 61.5427965,209.778006 55.7879055,230.716696 C55.5145651,231.710821 57.2354939,231.745653 57.453449,230.952515" id="Fill-31" fill="#000000"></path>
            <path d="M39.5695763,207.79456 C35.4822211,195.185223 26.6436839,186.771792 19.8281047,189.002669 C13.0129239,191.233145 10.8014966,203.263142 14.8892503,215.872479 C14.9840827,216.16435 15.4550569,217.617303 15.6220097,218.132582 C17.8884239,225.123489 20.0592088,229.801043 22.1933358,232.852684 C26.5803295,239.125322 35.8515892,239.308293 35.8515892,239.308293 C35.8515892,239.308293 43.4537193,233.663438 43.617883,226.718574 C43.7075354,222.917436 42.7520394,217.610897 40.3023358,210.054263 C40.1405629,209.554998 39.6691902,208.101646 39.5695763,207.79456" id="Fill-32" fill="#FFFFFF"></path>
            <path d="M11.1314176,197.139442 C9.82647628,196.216984 7.66047285,194.637914 7.32258269,192.992382 C7.02573344,194.947802 7.252853,197.071779 7.02493653,199.090058 C6.89822772,200.214705 6.77151891,201.352163 6.91057983,202.475609 C7.12494883,204.209623 7.9680804,205.816719 9.05466821,207.180789 C10.141256,208.544858 11.4689093,209.692727 12.7949688,210.822979 C12.6411651,211.019562 12.3797783,210.702466 12.3391359,210.455437 C12.1650109,209.397652 11.9908859,208.339867 11.8167609,207.282083 C12.0550372,207.449439 12.8128993,207.650426 13.0507772,207.818182 C13.5667769,208.180919 14.0827766,208.544057 14.5983779,208.907195 C14.1062855,208.291823 13.9237929,207.438228 14.1210283,206.673917 C14.2401665,206.651496 14.3597031,206.628675 14.4788413,206.605853 C15.1717552,207.234839 16.0630998,207.382977 16.9476708,207.683256 C16.7839056,207.671645 16.6201405,207.660035 16.4563753,207.648424 C16.3726997,207.116329 16.3906302,206.567818 16.507776,206.042129 C16.7325049,205.037994 17.3764088,204.170386 17.5923716,203.173058 C17.9226911,201.646838 17.2588644,201.913085 16.3874425,200.842489 C15.0896733,199.247404 12.7854059,198.30813 11.1314176,197.139442" id="Fill-33" fill="#EFB4CE"></path>
            <path d="M37.4446138,193.148527 C35.205693,190.16495 32.5579571,187.568934 29.112115,185.803291 C25.7642929,184.088094 21.5984419,182.86936 17.8234757,183.162032 C15.021139,183.380235 12.6519234,185.016558 10.8524989,187.099297 C9.33358698,188.856933 6.59261244,191.546636 8.72913017,193.615762 C12.0502557,196.831956 16.0814288,199.290644 20.4297723,200.827275 C22.6045418,201.59559 24.8597992,202.134091 27.1473315,202.421559 C28.1562205,202.548076 29.2854431,202.435572 30.156865,202.946047 C30.5867983,203.197881 32.0829983,204.63562 32.1487434,205.118869 C32.116867,204.885452 32.4137162,202.156512 32.7587786,202.342685 C33.9095177,202.964064 34.9435094,203.803645 35.7850472,204.80778 C35.9767042,205.036393 36.2297234,205.293832 36.3723704,205.555276 C36.523385,205.832333 36.5158143,206.148227 36.5596444,206.465723 C36.612639,206.846477 36.6799779,207.22523 36.7616613,207.600779 C36.7991161,207.772139 37.0688704,208.41794 37.0031252,208.558871 C37.2876224,207.951106 37.8590074,207.512697 38.1267694,206.897325 C38.4961375,206.048134 38.2192111,205.105257 38.1825532,204.222435 C38.1435045,203.280358 38.152669,202.333477 38.2184141,201.389398 C38.8734748,201.817797 39.3440506,202.451186 39.6110157,203.189874 C39.8174156,203.760405 39.9405383,204.360564 40.1764239,204.919484 C40.4979774,205.682594 41.0398767,206.438097 40.8928466,207.253656 C41.849538,206.100983 41.8053094,204.237649 41.6889605,202.824734 C41.559064,201.250869 41.1223569,199.718643 40.5330414,198.259284 C40.1557042,197.325615 39.7528658,196.533278 39.2014036,195.680084 C38.643566,194.817281 38.0610243,193.970092 37.4446138,193.148527" id="Fill-34" fill="#EFB4CE"></path>
            <path d="M40.4358183,207.561143 C38.7463675,202.481615 36.268772,197.533809 32.61653,193.582932 C30.1249885,190.888023 26.834544,188.398907 23.0619685,188.098227 C14.0273913,187.378757 11.7024042,198.282506 12.0016442,205.21576 C12.2458973,210.875027 13.9508879,216.265244 15.8415586,221.557771 C17.3831825,225.874188 19.1579027,230.808781 22.2507134,234.295226 C24.9247474,237.309632 28.8694556,238.887101 32.754794,239.56293 C33.8019347,239.745099 35.1638552,240.099429 36.1958546,239.689848 C37.3382262,239.236225 38.3702256,237.993469 39.2006066,237.134669 C42.6934665,233.520906 44.782568,229.338212 44.4239582,224.237064 C44.0219167,218.515339 42.1918112,212.978185 40.4358183,207.561143 C40.2043157,206.847678 38.4774101,207.329327 38.7037328,208.027577 C40.0967328,212.323976 41.4789745,216.638392 42.2432119,221.101746 C42.9225783,225.071841 43.0823589,228.861769 41.0275245,232.475132 C40.072427,234.153895 38.8396061,235.660497 37.4800763,237.023766 C36.7046822,237.800489 36.0795057,238.690918 34.9745889,238.647277 C31.781766,238.52156 28.2116058,237.146681 25.6814142,235.250115 C22.4383859,232.819052 20.6405552,228.757672 19.1184557,225.109076 C17.3823856,220.948403 15.8188467,216.556315 14.780472,212.159022 C13.6883058,207.534318 13.2727168,202.610134 14.2473387,197.925774 C14.9697383,194.455344 16.8102037,190.128116 20.6804007,189.335378 C24.549004,188.543041 28.3594328,191.49699 30.839419,194.120232 C34.536288,198.030271 37.0150789,202.94965 38.7037328,208.027577 C38.9408137,208.74064 40.6669224,208.25619 40.4358183,207.561143" id="Fill-35" fill="#000000"></path>
            <path d="M13.8034594,248.365123 C8.91520883,254.624148 2.95670713,260.864757 1.07599775,268.83938 C0.13683843,272.821086 -0.139689602,277.060232 0.0623272742,281.138828 C0.258765775,285.102918 0.821783222,289.625527 3.36631926,292.821302 C3.7882835,293.350995 5.45143624,292.714002 4.96492223,292.102633 C2.5694085,289.094233 2.03388448,284.780618 1.8131402,281.047543 C1.57048087,276.951731 1.87251005,272.656132 2.8176462,268.658812 C4.64894711,260.914003 10.4723724,254.828338 15.2187729,248.750681 C15.8718413,247.914703 14.2198453,247.831826 13.8034594,248.365123" id="Fill-36" fill="#000000"></path>
            <path d="M32.2491541,306.745462 C32.151931,309.606125 30.848185,312.170112 28.7746233,314.105914 C28.0741387,314.759722 29.7759416,314.635607 30.138536,314.297292 C32.433639,312.154898 33.8732583,309.46039 33.9812397,306.279028 C33.9951856,305.860639 32.2698738,306.133293 32.2491541,306.745462" id="Fill-38" fill="#000000"></path>
            <path d="M72.2592539,291.625789 C73.8642321,294.251433 76.4326755,295.903771 79.3959881,296.585606 C79.8151632,296.682096 81.330489,296.005466 80.812497,295.886155 C77.9890422,295.23675 75.521408,293.662885 73.9909409,291.159355 C73.7160067,290.709336 72.0970825,291.360743 72.2592539,291.625789" id="Fill-40" fill="#000000"></path>
            <path d="M26.392657,225.568303 C27.0122551,231.57029 38.1606381,231.802907 37.7016175,225.426572 C37.6330832,224.470482 35.880278,224.700696 35.9404448,225.534272 C36.1336956,228.221974 33.648131,229.083175 31.3876936,228.655177 C29.5201333,228.301648 28.3191888,226.988425 28.1243441,225.10227 C28.035887,224.246273 26.3006138,224.679476 26.392657,225.568303" id="Fill-45" fill="#000000"></path>
            <path d="M111.091121,53.6014382 C111.091121,82.8678792 87.4794524,106.592762 58.3535597,106.592762 C29.2272686,106.592762 5.61599831,82.8678792 5.61599831,53.6014382 C5.61599831,24.3353976 29.2272686,0.610114327 58.3535597,0.610114327 C87.4794524,0.610114327 111.091121,24.3353976 111.091121,53.6014382" id="Fill-48" fill="#E51D74"></path>
            <path d="M48.7567619,117.444463 C48.4431776,117.414835 48.1909553,117.350776 48.0853646,117.228662 C47.7414976,116.831492 48.4993598,116.038354 48.6977905,115.637981 C48.9910537,115.046631 49.2839184,114.455681 49.5767831,113.86433 C50.2242731,112.557914 50.8713646,111.251098 51.5188546,109.944682 C52.2986318,108.371217 53.0780105,106.798153 53.8573892,105.225089 C54.2450863,104.442761 54.7411632,102.386847 55.8432908,103.095907 C56.5680811,103.562341 57.2223449,105.066541 57.78337,105.761588 C59.2138248,107.532837 60.842312,109.142335 62.6265951,110.552448 C63.2633268,111.055716 63.9347242,111.248696 63.4940325,112.093882 C63.1198829,112.81055 62.4640254,113.42352 61.7687207,113.817887 C58.4169141,115.721259 54.7467416,117.251883 50.8502465,117.387209 C50.5055826,117.399221 49.4715909,117.511325 48.7567619,117.444463" id="Fill-49" fill="#E51D74"></path>
            <path d="M54.796947,109.025026 C54.796947,123.290704 54.796947,137.556383 54.796947,151.822061 C54.796947,155.190396 54.8160729,158.558331 54.6076807,161.921462 C54.4120391,165.081603 54.2610245,168.600078 53.3115054,171.643311 C52.4827182,174.298982 49.7931444,175.403611 48.7260809,177.893128 C47.8841447,179.856555 48.0614573,182.117059 49.5524773,183.69693 C50.0270377,184.200198 51.859534,183.483932 51.3367605,182.929816 C49.0811046,180.539191 50.3972027,177.377047 52.4643892,175.408415 C54.296487,173.663591 55.19859,172.106141 55.6368909,169.571782 C56.756949,163.096555 56.7238772,156.552865 56.7238772,150.00517 C56.7238772,136.267583 56.7238772,122.529996 56.7238772,108.79281 C56.7238772,107.967241 54.796947,108.365612 54.796947,109.025026" id="Fill-50" fill="#000000"></path>
            <path d="M48.9810923,116.6253 C48.7834585,116.738606 48.6141149,116.78625 48.5037428,116.719788 C48.1873692,116.52841 48.4049258,116.190496 48.4917891,115.94787 C49.0651664,114.341174 50.059711,112.783324 50.8159793,111.257104 C51.7846244,109.302084 52.7532694,107.346664 53.7223128,105.391644 C53.9717459,104.887975 54.0888918,104.208142 54.4969101,103.800163 C55.055943,103.240842 56.0134313,103.411801 56.6234664,103.810973 C57.0932453,104.118459 57.4594258,104.558068 57.8180357,104.991271 C58.6065789,105.943358 59.2859453,106.93388 59.9951958,107.941217 C60.649858,108.870883 61.6400196,109.592754 62.3512625,110.512811 C62.7182399,110.987653 63.1298443,111.821629 62.2337181,112.019814 C61.628066,112.153538 60.7470811,111.916517 60.1083572,111.934134 C58.6535966,111.974171 57.2056097,112.211992 55.8114144,112.629981 C53.9625814,113.183697 52.2065886,114.054908 50.6526126,115.204778 C50.367717,115.415374 49.555665,116.296194 48.9810923,116.6253" id="Fill-51" fill="#E51D74"></path>
            <path d="M52.2022056,106.501877 C51.2518895,108.458098 50.2386175,110.381088 49.2560265,112.320894 C48.8193194,113.182896 48.3981521,114.051705 47.9749925,114.920513 C47.7239656,115.435393 47.0948046,116.261762 47.0457946,116.860719 C46.8477622,119.281773 52.7986933,117.974156 54.0299204,117.698299 C57.1036052,117.009658 61.288582,115.640784 63.5494178,113.334637 C64.3343749,112.533892 64.9460039,111.544571 64.1291704,110.586079 C62.8573008,109.09429 60.9797791,108.275929 60.1689224,106.336123 C59.8166878,106.646012 59.4640548,106.9555 59.1114218,107.265388 C80.8826251,106.804159 100.902219,92.9668792 108.624284,72.4057411 C116.392171,51.7240908 110.449608,27.8442636 93.9304449,13.2654938 C77.4646749,-1.26643235 53.033782,-4.13670397 33.6082854,6.03196094 C14.2058993,16.189015 2.65029495,37.5945391 4.94699174,59.4825123 C7.252853,81.4589677 23.5377242,100.209621 44.8427348,105.614251 C47.4876816,106.284875 50.1768569,106.745304 52.8899396,107.022362 C52.6990794,106.768926 52.5082193,106.51549 52.3173592,106.262054 C52.2791075,106.342129 52.2404573,106.421803 52.2022056,106.501877 C51.7411927,107.459169 53.6812719,107.411524 54.0315142,106.684047 C54.0701644,106.603973 54.1084161,106.524298 54.1470663,106.444224 C54.3510754,106.02063 53.9661675,105.723953 53.5740874,105.683916 C32.3973795,103.520302 14.2258221,88.2312714 8.50679207,67.5940624 C2.80370027,47.0157083 10.3552266,24.4030606 27.3772403,11.576722 C44.5339319,-1.35091098 68.5129764,-2.033146 86.4418746,9.75542671 C104.177522,21.4170813 113.24796,43.253006 109.09486,64.1324404 C104.950924,84.9642304 87.9185502,101.811111 66.9868923,105.240704 C64.4435517,105.657492 61.877499,105.87049 59.3022819,105.92494 C58.9596103,105.932147 58.0272247,106.333321 58.2447814,106.854205 C58.6826838,107.901981 59.3851607,108.715938 60.1709147,109.527494 C60.5151801,109.883025 60.8733915,110.227745 61.2503303,110.548044 C61.9735268,111.163016 61.9233214,110.859934 61.7739006,112.07026 C61.6065494,113.422719 60.9694192,113.521611 59.8513535,114.10015 C59.3421275,114.363595 58.8285185,114.618632 58.3073389,114.856854 C56.9282848,115.48624 55.5050022,116.020738 54.0307173,116.376268 C53.2150792,116.572851 50.2549542,117.352377 49.4440975,116.799462 C48.8870569,116.419108 49.1667725,116.757423 49.2978643,116.102013 C49.4030566,115.577125 49.8736324,114.952944 50.1174871,114.448874 C51.3801921,111.839245 52.7648246,109.291674 54.0315142,106.684047 C54.4953163,105.728758 52.5548386,105.775601 52.2022056,106.501877" id="Fill-53" fill="#000000"></path>
        </g>
    </g>
</svg>