<svg id="Layer_1" data-name="Layer 1" xmlns="http://www.w3.org/2000/svg" xmlns:xlink="http://www.w3.org/1999/xlink" viewBox="0 0 453.543 255.118"><defs><style>.cls-1,.cls-10,.cls-9{fill:none;}.cls-2{clip-path:url(#clip-path);}.cls-3{fill:#fff;}.cls-4{clip-path:url(#clip-path-2);}.cls-5{fill:#0273b7;}.cls-6{fill:#ee2a7b;}.cls-7{fill:#fbac2a;}.cls-8{fill:#dfdedd;}.cls-10,.cls-9{stroke:#58585a;stroke-linecap:round;stroke-linejoin:round;}.cls-9{stroke-width:1.9957px;}.cls-10{stroke-width:3.3335px;}.cls-11{clip-path:url(#clip-path-4);}.cls-12{fill:#016cb0;}.cls-13{fill:#f4aa1d;}.cls-14{fill:#e41d74;}.cls-15{fill:#77b543;}.cls-16{fill:#056db6;}</style><clipPath id="clip-path"><rect class="cls-1" width="453.543" height="255.118"/></clipPath><clipPath id="clip-path-2"><rect class="cls-1" y="5.2598" width="444.468" height="250.0132"/></clipPath><clipPath id="clip-path-4"><rect class="cls-1" x="15.272" y="205.9899" width="39.8858" height="34.5421"/></clipPath></defs><g class="cls-2"><rect class="cls-3" y="14.944" width="453.543" height="255.118"/><g class="cls-4"><g class="cls-4"><path class="cls-5" d="M318.3043,135.63l-.0015-.0166v-.0011a2.24,2.24,0,0,0-1.4067-1.7764v0a2.1854,2.1854,0,0,0-.4127-.1144.1936.1936,0,0,0-.0333-.003h-2.352c-.3793-.496-2.4035-3.0416-4.1272-3.2654l-.0252-.0011h-4.3718a1.7009,1.7009,0,0,0-1.3889.6052,19.1678,19.1678,0,0,1-2.1557,2.2209,3.6943,3.6943,0,0,1-1.413.363.5341.5341,0,0,0-.5245.5333v3.5691a.5344.5344,0,0,0,.5337.5338h1.0838a1.9745,1.9745,0,0,0,3.891,0h6.3855a1.9745,1.9745,0,0,0,3.8909,0h1.8968a.5345.5345,0,0,0,.5341-.5338v-2.046c0-.0219-.0015-.0441-.0033-.0671"/><path class="cls-6" d="M254.4579,126.0069v15.186h36.6686V95.2645s-10.0005,35.9278-36.6686,30.7424"/><path class="cls-7" d="M420.3926,126.0069v15.186H383.724V95.2645s10.0006,35.9278,36.6686,30.7424"/><path class="cls-8" d="M258.1528,63.4822c-.0315,0-.06.0086-.0915.0089a11.3541,11.3541,0,0,0-17.182-4.3535,15.02,15.02,0,0,0-17.2635-5.1688,9.43,9.43,0,0,0-17.1995,7.4989,7.75,7.75,0,0,0-1.7023,1.13,5.6069,5.6069,0,0,0-.6419-.0648,5.6933,5.6933,0,0,0-5.6929,5.6929h64.5179a4.7437,4.7437,0,0,0-4.7436-4.744Z"/><path class="cls-8" d="M374.1456,63.4627a4.7353,4.7353,0,0,0-1.1838.1659,9.5214,9.5214,0,0,0-8.343-4.9291c-.1378,0-.27.0181-.4063.024a7.1416,7.1416,0,0,0-13.8841,2.3572c0,.1411.0126.2786.0211.4174a7.16,7.16,0,0,0-4.1028,3.6976,3.5567,3.5567,0,0,0-5.4447,3.03h38.1068a4.7631,4.7631,0,0,0-4.7632-4.7632"/><line class="cls-9" x1="412.9443" y1="123.7223" x2="412.9443" y2="135.1552"/><line class="cls-10" x1="418.2926" y1="141.3332" x2="336.6127" y2="141.3332"/><line class="cls-10" x1="382.4562" y1="173.3774" x2="382.4562" y2="76.0041"/><path class="cls-10" d="M336.6125,125.8112c41.6245,0,45.8436-38.7387,45.8436-38.7387"/><path class="cls-10" d="M418.2926,121.53c-29.62,0-35.8364-34.4574-35.8364-34.4574"/><line class="cls-9" x1="352.1443" y1="124.3766" x2="352.1443" y2="135.1554"/><line class="cls-9" x1="368.0248" y1="115.938" x2="368.0248" y2="135.1553"/><line class="cls-9" x1="397.0639" y1="113.7117" x2="397.0639" y2="135.1554"/><line class="cls-10" x1="254.9328" y1="141.3332" x2="336.612" y2="141.3332"/><line class="cls-10" x1="290.7692" y1="167.0478" x2="290.7692" y2="76.0041"/><path class="cls-10" d="M336.6125,125.8112c-41.624,0-45.8435-38.7387-45.8435-38.7387"/><path class="cls-10" d="M290.7692,87.0725S284.5526,121.53,254.9328,121.53"/><line class="cls-9" x1="321.0811" y1="124.3766" x2="321.0811" y2="135.1554"/><line class="cls-9" x1="305.201" y1="115.938" x2="305.201" y2="135.1553"/><line class="cls-9" x1="276.1616" y1="113.7117" x2="276.1616" y2="135.1554"/><line class="cls-9" x1="260.2811" y1="123.7223" x2="260.2811" y2="135.1552"/><line class="cls-9" x1="336.6125" y1="135.1552" x2="336.6125" y2="125.811"/><path class="cls-10" d="M258.5423,178.1744c2.94,1.81,6.17,3.872,9.8694,3.872s6.9311-2.0627,9.8709-3.8713c2.9539-1.8179,5.744-3.5346,9.27-3.5346s6.3162,1.7175,9.27,3.5335c3.1065,1.9116,6.3181,3.8883,10.5205,3.8887s7.4138-1.9764,10.5206-3.8883c2.9531-1.8164,5.7433-3.5339,9.27-3.5328"/><path class="cls-10" d="M327.1339,174.6415c3.5265,0,6.3163,1.7164,9.27,3.5328,2.94,1.81,6.17,3.8721,9.87,3.8721s6.9311-2.0627,9.87-3.8713c2.9535-1.8179,5.7437-3.5347,9.2694-3.5347s6.3163,1.7175,9.27,3.5335c3.1069,1.9116,6.3185,3.8884,10.52,3.8888s7.4145-1.9764,10.5213-3.8884c2.9528-1.8164,5.7433-3.5339,9.2694-3.5328s6.3166,1.7164,9.2709,3.5328"/><path class="cls-10" d="M258.5423,190.0268c2.94,1.81,6.17,3.8721,9.8694,3.8721s6.9311-2.0627,9.8709-3.8713c2.9539-1.8179,5.744-3.5347,9.27-3.5347s6.3162,1.7175,9.27,3.5336c3.1065,1.9115,6.3181,3.8883,10.5205,3.8887s7.4138-1.9764,10.5206-3.8884c2.9531-1.8164,5.7433-3.5339,9.27-3.5327"/><path class="cls-10" d="M327.1339,186.494c3.5265,0,6.3163,1.7164,9.27,3.5328,2.94,1.81,6.17,3.8721,9.87,3.8721s6.9311-2.0627,9.87-3.8714c2.9535-1.8178,5.7437-3.5346,9.2694-3.5346s6.3163,1.7175,9.27,3.5335c3.1069,1.9116,6.3185,3.8884,10.52,3.8888s7.4145-1.9764,10.5213-3.8884c2.9528-1.8164,5.7433-3.5339,9.2694-3.5328s6.3166,1.7164,9.2709,3.5328"/></g></g><g class="cls-11"><polygon class="cls-12" points="15.272 234.775 25.243 240.532 25.243 229.018 45.187 240.532 45.187 229.018 15.272 211.748 15.272 234.775"/><polygon class="cls-13" points="25.243 240.532 35.214 234.775 25.243 229.017 25.243 240.532"/><polygon class="cls-13" points="45.187 205.99 35.215 211.747 45.187 217.504 45.187 205.99"/><polygon class="cls-14" points="45.187 205.99 45.187 217.504 25.243 205.99 15.272 211.747 45.187 229.017 45.187 240.531 55.157 234.775 55.157 211.747 45.187 205.99"/><polygon class="cls-15" points="25.243 205.99 15.273 211.747 25.243 217.504 35.214 211.747 25.243 205.99"/></g><path class="cls-16" d="M48.8442,108.6463H40.229v7.99h9.6021v2.4H37.3682V96.8739H49.3374v2.4H40.229v7.004h8.6152Z"/><path class="cls-16" d="M64.1973,116.5711h-.066a5.6646,5.6646,0,0,1-5.1953,2.8272c-3.7158,0-6.7412-3.2217-6.7412-8.0557,0-5.9521,3.8472-8.583,7.2017-8.583a5.23,5.23,0,0,1,4.8994,2.7627h.0654l.0987-2.4h2.73c-.0655,1.3477-.0987,2.73-.0987,4.373v18.0528H64.1973Zm0-7.0049a4.92,4.92,0,0,0-.1319-1.2158,4.2286,4.2286,0,0,0-4.143-3.289c-2.9922,0-4.8008,2.5322-4.8008,6.1162,0,3.1572,1.5127,5.9189,4.7021,5.9189a4.309,4.309,0,0,0,4.1431-3.1562,4.8539,4.8539,0,0,0,.23-1.3809Z"/><path class="cls-16" d="M85.1729,114.6961c0,1.6446.0327,3.0908.1313,4.3408H82.7393l-.1641-2.5976h-.0659a5.9888,5.9888,0,0,1-5.2613,2.959c-2.499,0-5.4917-1.3809-5.4917-6.9707v-9.3057H74.65v8.8125c0,3.0254.92,5.0635,3.5513,5.0635a4.1823,4.1823,0,0,0,3.8139-2.63,4.2317,4.2317,0,0,0,.2632-1.48v-9.7656h2.8941Z"/><path class="cls-16" d="M93.1924,98.6492a1.7921,1.7921,0,0,1-3.584,0,1.7637,1.7637,0,0,1,1.8086-1.8085A1.7179,1.7179,0,0,1,93.1924,98.6492ZM89.97,119.0369v-15.915h2.8941v15.915Z"/><path class="cls-16" d="M97.6631,95.69h2.8935v23.3466H97.6631Z"/><path class="cls-16" d="M108.644,98.6492a1.7923,1.7923,0,0,1-3.5844,0,1.764,1.764,0,0,1,1.8086-1.8085A1.718,1.718,0,0,1,108.644,98.6492Zm-3.2226,20.3877v-15.915h2.894v15.915Z"/><path class="cls-16" d="M112.9829,119.0369c.0659-1.0849.1314-2.6962.1314-4.11V95.69h2.8613v9.9961h.0654a5.9289,5.9289,0,0,1,5.4258-2.9268c3.9458,0,6.7412,3.2891,6.708,8.1221,0,5.6894-3.584,8.5166-7.1357,8.5166a5.6689,5.6689,0,0,1-5.3267-2.9922h-.0986l-.1319,2.6308Zm2.9927-6.3789a5.4083,5.4083,0,0,0,.1313,1.0518,4.4647,4.4647,0,0,0,4.34,3.3867c3.0254,0,4.834-2.4658,4.834-6.1162,0-3.1895-1.6446-5.9189-4.7354-5.9189a4.6139,4.6139,0,0,0-4.4063,3.5517,5.7344,5.7344,0,0,0-.164,1.1836Z"/><path class="cls-16" d="M131.8208,108.0867c0-1.874-.0327-3.4853-.1313-4.9648h2.5317l.0986,3.124h.1314a4.7761,4.7761,0,0,1,4.4062-3.4863,3.1439,3.1439,0,0,1,.8223.0986v2.73a4.3667,4.3667,0,0,0-.9863-.0986c-2.0391,0-3.4854,1.5459-3.88,3.7158a8.08,8.08,0,0,0-.1319,1.3486v8.4834h-2.8608Z"/><path class="cls-16" d="M145.7939,98.6492a1.792,1.792,0,0,1-3.5839,0,1.7633,1.7633,0,0,1,1.8081-1.8085A1.718,1.718,0,0,1,145.7939,98.6492Zm-3.2226,20.3877v-15.915h2.8935v15.915Z"/><path class="cls-16" d="M163.582,114.6961c0,1.6446.0327,3.0908.1314,4.3408h-2.565l-.164-2.5976h-.0659a5.9881,5.9881,0,0,1-5.2613,2.959c-2.499,0-5.4912-1.3809-5.4912-6.9707v-9.3057H153.06v8.8125c0,3.0254.9209,5.0635,3.5512,5.0635a4.183,4.183,0,0,0,3.8145-2.63,4.234,4.234,0,0,0,.2632-1.48v-9.7656h2.8935Z"/><path class="cls-16" d="M168.3789,107.43c0-1.6445-.0327-2.9922-.1313-4.3076h2.5317l.1318,2.5645h.0987a5.4853,5.4853,0,0,1,4.998-2.9268,4.7044,4.7044,0,0,1,4.5049,3.19h.0659a6.5544,6.5544,0,0,1,1.7759-2.0722,5.429,5.429,0,0,1,3.5185-1.1182c2.1045,0,5.2281,1.3818,5.2281,6.9062v9.3711h-2.8277v-9.01c0-3.0586-1.1181-4.8994-3.4531-4.8994a3.7476,3.7476,0,0,0-3.42,2.6308,4.7807,4.7807,0,0,0-.23,1.4463v9.832h-2.8281v-9.5361c0-2.5322-1.1182-4.373-3.3213-4.373a4.3139,4.3139,0,0,0-3.8145,4.3076v9.6015h-2.8281Z"/><path class="cls-16" d="M217.0063,110.9481c0,5.8857-4.0776,8.45-7.9243,8.45-4.3076,0-7.6289-3.1563-7.6289-8.1875,0-5.3272,3.4854-8.4512,7.8916-8.4512C213.9155,102.76,217.0063,106.0809,217.0063,110.9481Zm-12.6269.164c0,3.4854,2.0059,6.1162,4.8335,6.1162,2.7627,0,4.834-2.5976,4.834-6.1816,0-2.6963-1.3482-6.1162-4.7676-6.1162S204.3794,108.0867,204.3794,111.1121Z"/><path class="cls-16" d="M220.9492,119.0369V105.325h-2.2363v-2.2031h2.2363v-.7568c0-2.2354.4932-4.2744,1.8413-5.5567a5.5353,5.5353,0,0,1,3.88-1.48,6.7017,6.7017,0,0,1,2.4658.46l-.3945,2.2363a4.3226,4.3226,0,0,0-1.8413-.3623c-2.4663,0-3.0913,2.1709-3.0913,4.6035v.8555h3.8476v2.2031H223.81v13.7119Z"/><path class="cls-16" d="M46.082,151.9139l-.23-2.0059h-.0987a5.9275,5.9275,0,0,1-4.8667,2.3672,4.534,4.534,0,0,1-4.8667-4.57c0-3.8476,3.42-5.9521,9.5689-5.9189v-.3291c0-1.3155-.3618-3.6827-3.6172-3.6827a7.9272,7.9272,0,0,0-4.1431,1.1836l-.6577-1.9072a9.8824,9.8824,0,0,1,5.2285-1.414c4.8662,0,6.05,3.3212,6.05,6.5107v5.9521a22.409,22.409,0,0,0,.2632,3.8145Zm-.4272-8.1221c-3.1568-.0654-6.7412.4932-6.7412,3.584a2.5608,2.5608,0,0,0,2.7295,2.7627,3.9592,3.9592,0,0,0,3.8471-2.6641,3.0147,3.0147,0,0,0,.1646-.9209Z"/><path class="cls-16" d="M60.02,130.0467a29.8064,29.8064,0,0,1,5.4917-.46c3.0576,0,5.0308.5586,6.4121,1.8086a5.5207,5.5207,0,0,1,1.7427,4.209A5.818,5.818,0,0,1,69.49,141.26v.0986c1.71.5918,2.73,2.1709,3.2554,4.4727a35.26,35.26,0,0,0,1.71,6.083h-2.96a28.7009,28.7009,0,0,1-1.48-5.294c-.6577-3.0585-1.8418-4.2089-4.4395-4.3076H62.8809v9.6016H60.02Zm2.8609,10.0947h2.9267c3.0576,0,4.9981-1.6767,4.9981-4.209,0-2.86-2.0718-4.11-5.0967-4.1425a11.81,11.81,0,0,0-2.8281.2627Z"/><path class="cls-16" d="M81.16,131.5262a1.7921,1.7921,0,0,1-3.584,0,1.7634,1.7634,0,0,1,1.8086-1.8086A1.7179,1.7179,0,0,1,81.16,131.5262Zm-3.2227,20.3877v-15.915h2.8936v15.915Z"/><path class="cls-16" d="M99.3428,135.9989c-.0659,1.15-.1319,2.4335-.1319,4.373v9.24c0,3.65-.7231,5.8858-2.2685,7.2666a8.4352,8.4352,0,0,1-5.7876,1.9073,10.2779,10.2779,0,0,1-5.294-1.3145l.7232-2.2031a8.9821,8.9821,0,0,0,4.67,1.249c2.959,0,5.1294-1.5459,5.1294-5.5566v-1.7764h-.0659a5.6818,5.6818,0,0,1-5.0635,2.6641c-3.9463,0-6.7744-3.3545-6.7744-7.7608,0-5.3926,3.5185-8.4511,7.1689-8.4511a5.2931,5.2931,0,0,1,4.9649,2.7626h.0659l.1313-2.4Zm-2.9922,6.28a4.1253,4.1253,0,0,0-.1646-1.3154,4.1677,4.1677,0,0,0-4.0444-3.0576c-2.7622,0-4.7353,2.334-4.7353,6.0176,0,3.124,1.5786,5.7216,4.7021,5.7216a4.23,4.23,0,0,0,4.0117-2.96,5.026,5.026,0,0,0,.2305-1.5449Z"/><path class="cls-16" d="M107.1323,131.5262a1.7923,1.7923,0,0,1-3.5844,0,1.7637,1.7637,0,0,1,1.8085-1.8086A1.7183,1.7183,0,0,1,107.1323,131.5262ZM103.91,151.9139v-15.915h2.8935v15.915Z"/><path class="cls-16" d="M125.3477,128.5672v19.2363c0,1.4141.0332,3.0254.1318,4.11h-2.5982l-.1313-2.7617h-.0659a5.8863,5.8863,0,0,1-5.4253,3.123c-3.8477,0-6.8071-3.2549-6.8071-8.0888-.0328-5.294,3.2553-8.55,7.1357-8.55a5.3217,5.3217,0,0,1,4.8008,2.4335h.0659v-9.5029Zm-2.8936,13.9092a5.1175,5.1175,0,0,0-.1318-1.2168,4.2557,4.2557,0,0,0-4.1758-3.3535c-2.9922,0-4.7681,2.6308-4.7681,6.1484,0,3.2227,1.5786,5.8867,4.7022,5.8867a4.3505,4.3505,0,0,0,4.2417-3.4531,5.0253,5.0253,0,0,0,.1318-1.249Z"/><path class="cls-16" d="M137.0488,130.0467a27.7611,27.7611,0,0,1,5.2285-.46c2.8609,0,4.7022.4932,6.0835,1.6114a4.6457,4.6457,0,0,1,1.8413,3.9131,5.2625,5.2625,0,0,1-3.7485,4.8662v.0654a5.7133,5.7133,0,0,1,4.5708,5.5576A5.9741,5.9741,0,0,1,149.15,150.04c-1.5454,1.414-4.0444,2.0713-7.6616,2.0713a33.6008,33.6008,0,0,1-4.44-.2627Zm2.8614,9.0762h2.5976c3.0254,0,4.8008-1.5791,4.8008-3.7158,0-2.5977-1.9732-3.6172-4.8667-3.6172a12.27,12.27,0,0,0-2.5317.1972Zm0,10.6211a15.3026,15.3026,0,0,0,2.4.1308c2.959,0,5.6885-1.0849,5.6885-4.3076,0-3.0244-2.5976-4.2744-5.7217-4.2744H139.91Z"/><path class="cls-16" d="M169.3359,143.825c0,5.8858-4.0771,8.45-7.9243,8.45-4.3076,0-7.6289-3.1562-7.6289-8.1875,0-5.3271,3.4859-8.4511,7.8921-8.4511C166.2451,135.6366,169.3359,138.9578,169.3359,143.825Zm-12.6269.1641c0,3.4853,2.0058,6.1162,4.834,6.1162,2.7622,0,4.834-2.5977,4.834-6.1816,0-2.6963-1.3487-6.1163-4.7681-6.1163S156.709,140.9637,156.709,143.9891Z"/><path class="cls-16" d="M186.728,128.5672v19.2363c0,1.4141.0327,3.0254.1314,4.11h-2.5977l-.1318-2.7617h-.0654a5.8871,5.8871,0,0,1-5.4258,3.123c-3.8472,0-6.8067-3.2549-6.8067-8.0888-.0332-5.294,3.2554-8.55,7.1358-8.55a5.3223,5.3223,0,0,1,4.8008,2.4335h.0654v-9.5029Zm-2.894,13.9092a5.1118,5.1118,0,0,0-.1314-1.2168,4.2557,4.2557,0,0,0-4.1762-3.3535c-2.9922,0-4.7676,2.6308-4.7676,6.1484,0,3.2227,1.5781,5.8867,4.7021,5.8867a4.35,4.35,0,0,0,4.2417-3.4531,5.021,5.021,0,0,0,.1314-1.249Z"/><path class="cls-16" d="M192.5771,135.9989l3.4859,9.4043c.3618,1.0517.7563,2.3017,1.019,3.2548h.0664c.2959-.9531.6245-2.17,1.0191-3.32l3.1567-9.3388h3.0581l-4.34,11.3447c-2.0718,5.458-3.4858,8.2529-5.459,9.9629a7.8264,7.8264,0,0,1-3.5508,1.874l-.7236-2.4326a7.6607,7.6607,0,0,0,2.5322-1.4141,8.7789,8.7789,0,0,0,2.4331-3.2226,2.0807,2.0807,0,0,0,.23-.69,2.5207,2.5207,0,0,0-.1973-.7568l-5.8857-14.665Z"/></g></svg>