<svg id="Layer_1" data-name="Layer 1" xmlns="http://www.w3.org/2000/svg" xmlns:xlink="http://www.w3.org/1999/xlink" viewBox="0 0 453.543 255.118"><defs><style>.cls-1,.cls-11,.cls-5,.cls-6,.cls-8,.cls-9{fill:none;}.cls-2{clip-path:url(#clip-path);}.cls-3{fill:#fff;}.cls-4{fill:#056db6;}.cls-11,.cls-5{stroke:#000;}.cls-11,.cls-5,.cls-6,.cls-8,.cls-9{stroke-miterlimit:10;}.cls-5,.cls-6,.cls-8{stroke-width:0.677px;}.cls-6,.cls-9{stroke:#056db6;}.cls-7{fill:#f6a61c;}.cls-8{stroke:#f6a61c;}.cls-9{stroke-width:0.996px;}.cls-10{clip-path:url(#clip-path-2);}.cls-11{stroke-width:0.5579px;}</style><clipPath id="clip-path"><rect class="cls-1" width="453.543" height="255.118"/></clipPath><clipPath id="clip-path-2"><rect class="cls-1" x="348.936" y="90.3147" width="91.8715" height="72.7153"/></clipPath></defs><g class="cls-2"><rect class="cls-3" y="14.944" width="453.543" height="255.118"/><path class="cls-4" d="M21.04,24.3592H17.2819v3.4854H21.47v1.0468H16.0338v-9.667h5.2207v1.0469H17.2819V23.326H21.04Z"/><path class="cls-4" d="M23.6374,21.9491l.9892,1.4921c.2578.3868.4737.7461.7031,1.1329h.043c.23-.4161.459-.7745.6885-1.1475l.9756-1.4775h1.3623l-2.3662,3.3564L28.47,28.8914H27.0368L26.0182,27.328c-.2724-.4014-.5019-.7891-.7461-1.2051h-.0283c-.23.416-.4736.789-.7324,1.2051l-1.0039,1.5634H22.1169l2.4667-3.5429-2.3525-3.3994Z"/><path class="cls-4" d="M33.5348,28.8914l-.1-.875h-.043a2.5877,2.5877,0,0,1-2.123,1.0332,1.9781,1.9781,0,0,1-2.1231-1.9941c0-1.6777,1.4922-2.5957,4.1739-2.582V24.33a1.4316,1.4316,0,0,0-1.5781-1.6064,3.4588,3.4588,0,0,0-1.8067.5166l-.2871-.8321a4.3114,4.3114,0,0,1,2.2813-.6162c2.122,0,2.6386,1.4483,2.6386,2.84v2.5957a9.6791,9.6791,0,0,0,.1153,1.664Zm-.1855-3.5429c-1.377-.0284-2.9414.2158-2.9414,1.5634a1.1179,1.1179,0,0,0,1.1914,1.2051,1.7277,1.7277,0,0,0,1.6777-1.1621,1.318,1.318,0,0,0,.0723-.4014Z"/><path class="cls-4" d="M36.6061,23.828c0-.7168-.0146-1.3047-.0576-1.8789H37.653l.0576,1.1191h.043a2.3916,2.3916,0,0,1,2.18-1.2764,2.053,2.053,0,0,1,1.9658,1.3906h.0283a2.8542,2.8542,0,0,1,.7744-.9033,2.37,2.37,0,0,1,1.5352-.4873c.9179,0,2.28.6026,2.28,3.0117v4.0879H45.2838v-3.93c0-1.3339-.4873-2.1376-1.5058-2.1376a1.6354,1.6354,0,0,0-1.4922,1.1474,2.0689,2.0689,0,0,0-.1006.6309v4.289H40.9518V24.7323c0-1.1045-.4873-1.9082-1.4482-1.9082A1.7235,1.7235,0,0,0,37.94,24.0867a1.7481,1.7481,0,0,0-.1006.6163v4.1884H36.6061Z"/><path class="cls-4" d="M48.571,24.2157c0-.89-.0284-1.6065-.0577-2.2666h1.1328l.0577,1.19h.0283A2.7306,2.7306,0,0,1,52.2,21.7918c1.6777,0,2.94,1.42,2.94,3.5283,0,2.4952-1.5205,3.73-3.1563,3.73a2.4343,2.4343,0,0,1-2.1367-1.0908H49.819v3.7725H48.571Zm1.248,1.8505a2.8759,2.8759,0,0,0,.0566.5157,1.9483,1.9483,0,0,0,1.8936,1.4775c1.334,0,2.1084-1.09,2.1084-2.6816,0-1.3916-.7315-2.5821-2.0654-2.5821a2.0127,2.0127,0,0,0-1.9073,1.5635,2.0449,2.0449,0,0,0-.0859.5156Z"/><path class="cls-4" d="M56.734,18.7078h1.2618V28.8914H56.734Z"/><path class="cls-4" d="M60.8219,25.65a2.224,2.224,0,0,0,2.3809,2.4092,4.5535,4.5535,0,0,0,1.9219-.3584l.2148.9033a5.61,5.61,0,0,1-2.3086.4307,3.2246,3.2246,0,0,1-3.414-3.5c0-2.0938,1.2334-3.7432,3.2558-3.7432,2.2666,0,2.8692,1.9932,2.8692,3.27a4.9138,4.9138,0,0,1-.043.5888Zm3.7-.9043a1.7963,1.7963,0,0,0-1.749-2.0508,2.0913,2.0913,0,0,0-1.9365,2.0508Z"/><path class="cls-4" d="M70.276,28.8914V28.117l.99-.9609c2.3808-2.2666,3.456-3.4717,3.4707-4.877a1.6633,1.6633,0,0,0-1.8506-1.8213,3.1678,3.1678,0,0,0-1.9785.7891l-.4024-.89a4.0916,4.0916,0,0,1,2.64-.9463A2.6233,2.6233,0,0,1,76,22.1209c0,1.7217-1.2481,3.1133-3.2129,5.0059l-.7461.6885v.0293h4.1875v1.0468Z"/><path class="cls-4" d="M84.1481,18.9373a9.46,9.46,0,0,0-1.8076,5.8662,9.6659,9.6659,0,0,0,1.8076,5.8233h-.99a9.2724,9.2724,0,0,1-1.8789-5.8233,9.4713,9.4713,0,0,1,1.8789-5.8662Z"/><path class="cls-4" d="M92.2809,28.576a6.1932,6.1932,0,0,1-2.5527.459,4.5186,4.5186,0,0,1-4.7764-4.8916,4.811,4.811,0,0,1,5.0488-5.0772,5.1667,5.1667,0,0,1,2.295.4307l-.3008,1.0186a4.5316,4.5316,0,0,0-1.9512-.4024c-2.2656,0-3.7725,1.4492-3.7725,3.9873,0,2.3672,1.3633,3.8877,3.7149,3.8877a4.99,4.99,0,0,0,2.0371-.4023Z"/><path class="cls-4" d="M100.0856,25.3631a3.393,3.393,0,0,1-3.457,3.6865,3.3,3.3,0,0,1-3.3272-3.5722,3.39,3.39,0,0,1,3.4424-3.6856A3.2869,3.2869,0,0,1,100.0856,25.3631Zm-5.5078.0713c0,1.52.875,2.668,2.1084,2.668,1.2051,0,2.1084-1.1328,2.1084-2.6963,0-1.1758-.5879-2.668-2.0791-2.668S94.5778,24.1151,94.5778,25.4344Z"/><path class="cls-4" d="M101.6794,23.828c0-.7168-.0147-1.3047-.0577-1.8789h1.1192l.0713,1.1474h.0293a2.5529,2.5529,0,0,1,2.2949-1.3047c.9609,0,2.4521.5733,2.4521,2.9541v4.1455h-1.2617V24.89c0-1.1182-.416-2.0508-1.6064-2.0508a1.8541,1.8541,0,0,0-1.7793,1.8789v4.1738h-1.2617Z"/><path class="cls-4" d="M111.1618,19.9559v1.9932h1.8076V22.91h-1.8076v3.7441c0,.86.2441,1.3477.9472,1.3477a2.802,2.802,0,0,0,.7305-.086l.0576.9473a3.1027,3.1027,0,0,1-1.1181.1719,1.75,1.75,0,0,1-1.3633-.5313,2.57,2.57,0,0,1-.4873-1.8066V22.91h-1.0762v-.9609h1.0762V20.285Z"/><path class="cls-4" d="M115.7956,19.9989a.7818.7818,0,0,1-1.5635,0,.769.769,0,0,1,.789-.7891A.7493.7493,0,0,1,115.7956,19.9989ZM114.39,28.8914V21.9491h1.2617v6.9423Z"/><path class="cls-4" d="M117.7467,23.828c0-.7168-.0146-1.3047-.0576-1.8789h1.1192l.0712,1.1474h.0293a2.5532,2.5532,0,0,1,2.295-1.3047c.9609,0,2.4521.5733,2.4521,2.9541v4.1455h-1.2617V24.89c0-1.1182-.416-2.0508-1.6064-2.0508a1.8508,1.8508,0,0,0-1.7784,1.8789v4.1738h-1.2627Z"/><path class="cls-4" d="M131.5182,26.9979c0,.7178.0137,1.3486.0567,1.8935h-1.1182l-.0723-1.1328h-.0283a2.612,2.612,0,0,1-2.2949,1.291c-1.09,0-2.3955-.6025-2.3955-3.041V21.9491h1.2627v3.8437c0,1.32.4013,2.209,1.5488,2.209a1.8244,1.8244,0,0,0,1.6641-1.1475,1.8559,1.8559,0,0,0,.1142-.6455v-4.26h1.2627Z"/><path class="cls-4" d="M134.3161,25.65a2.2244,2.2244,0,0,0,2.3808,2.4092,4.5535,4.5535,0,0,0,1.9219-.3584l.2158.9033a5.615,5.615,0,0,1-2.3095.4307,3.2246,3.2246,0,0,1-3.4141-3.5c0-2.0938,1.2344-3.7432,3.2559-3.7432,2.2666,0,2.8691,1.9932,2.8691,3.27a4.71,4.71,0,0,1-.043.5888Zm3.7011-.9043a1.7976,1.7976,0,0,0-1.75-2.0508,2.0913,2.0913,0,0,0-1.9365,2.0508Z"/><path class="cls-4" d="M146.7965,18.7078v8.3907c0,.6172.0137,1.3193.0567,1.7929H145.72l-.0567-1.205h-.0293a2.5676,2.5676,0,0,1-2.3662,1.3632c-1.6787,0-2.97-1.4209-2.97-3.5293-.0137-2.3086,1.42-3.7285,3.1133-3.7285a2.3211,2.3211,0,0,1,2.0937,1.0615h.0283V18.7078Zm-1.2627,6.0674a2.234,2.234,0,0,0-.0576-.5312,1.8558,1.8558,0,0,0-1.8213-1.4629c-1.3046,0-2.0791,1.1474-2.0791,2.6826,0,1.4053.6875,2.5674,2.0508,2.5674a1.8966,1.8966,0,0,0,1.85-1.5059,2.2021,2.2021,0,0,0,.0576-.5459Z"/><path class="cls-4" d="M148.1315,30.6268a9.7044,9.7044,0,0,0,1.8076-5.8662,9.5049,9.5049,0,0,0-1.8076-5.8233h.9756a9.1338,9.1338,0,0,1,1.8789,5.8379,9.31,9.31,0,0,1-1.8789,5.8516Z"/><path d="M16.2692,45.6119c0-.7772-.04-1.0163-.9864-1.0163v-.2989h2.87v.2989c-.9466,0-.9765.2391-.9765,1.0163v3.9258c0,.8569.09,1.0064.9765,1.0064v.2989h-2.87v-.2989c.8967,0,.9864-.15.9864-1.0064Zm7.0241,4.2247c0,.558.07.7274.7373.7274v.279H21.7289v-.279c.7075,0,.7374-.1694.7374-.7274V48.0332c0-1.1957-.4683-1.385-.9167-1.385a1.8263,1.8263,0,0,0-1.2057.6277v2.5607c0,.558.04.7274.7573.7274v.279H18.82v-.279c.6675,0,.6974-.1694.6974-.7274v-2.8c0-.3587-.1494-.4385-.4185-.4385a1.51,1.51,0,0,0-.269.02v-.289l1.2654-.2889h.2292l-.01.807h.04a2.4245,2.4245,0,0,1,1.6042-.8369c.9067,0,1.3352.6277,1.3352,1.7736Zm8.07-1.4447c0,1.6739-.9167,2.5507-2.212,2.5507-1.395,0-2.232-.8967-2.232-2.5109a2.204,2.204,0,0,1,2.232-2.4212A2.1317,2.1317,0,0,1,31.3631,48.3919Zm-3.5173-.09c0,1.5843.4882,2.2518,1.3451,2.2419.8171,0,1.2555-.4783,1.2555-2.1024,0-1.2256-.4484-2.0526-1.3352-2.0526C28.3539,46.3891,27.8458,47.0268,27.8458,48.3022Zm5.6788-1.2355h.03c.5082-.7374.8071-1.0861,1.2854-1.0861a.5146.5146,0,0,1,.5779.558c0,.3786-.2192.538-.4384.538-.3288,0-.5281-.3388-.6477-.3388-.2291,0-.548.4185-.7871.8171v2.2718c0,.6277.1893.7273.9366.7273v.289H31.99v-.289c.6576,0,.7274-.12.7274-.6775v-2.74c0-.3587,0-.5381-.3587-.5381a1.9083,1.9083,0,0,0-.3089.02v-.279l1.2355-.2989h.2391Zm5.709,3.8261h-.2292v-.6875h-.04a2.35,2.35,0,0,1-1.5444.7174c-1.126,0-1.7039-.9864-1.7039-2.2618a2.3893,2.3893,0,0,1,2.2917-2.65,1.9836,1.9836,0,0,1,.9665.2391V44.9443c0-.4384-.05-.5281-.4384-.5281-.09,0-.259.02-.259.02v-.279l1.2554-.3488h.2691v5.9685c0,.5181.13.6177.4982.6177h.2092v.2691Zm-.2591-3.6867a.9348.9348,0,0,0-.9864-.7971c-.837,0-1.4049.6078-1.4049,1.8633,0,1.375.4583,1.933,1.3053,1.933a1.7036,1.7036,0,0,0,1.086-.3687Zm6.1073,2.3515a1.9735,1.9735,0,0,1-1.8633,1.385c-1.1957,0-2.1223-.8668-2.1223-2.471,0-1.664.9366-2.4611,2.1024-2.4611,1.086,0,1.8034.7871,1.8533,2.1821H41.9032c0,1.375.7573,2.0027,1.5544,2.0027a1.5765,1.5765,0,0,0,1.4348-.7771Zm-.9666-1.7337c-.03-.7373-.3587-1.4149-1.0661-1.4149-.6775,0-1.0761.4883-1.1558,1.4149Zm3.0883-.7572h.03c.5082-.7374.8071-1.0861,1.2854-1.0861a.5147.5147,0,0,1,.5779.558c0,.3786-.2192.538-.4385.538-.3288,0-.528-.3388-.6476-.3388-.2292,0-.548.4185-.7872.8171v2.2718c0,.6277.1894.7273.9366.7273v.289H45.6691v-.289c.6576,0,.7273-.12.7273-.6775v-2.74c0-.3587,0-.5381-.3587-.5381a1.9083,1.9083,0,0,0-.3089.02v-.279l1.2356-.2989h.2391Zm7.4124,3.039c-.3886.538-.5978.8369-1.2355.8369-.6676,0-.9565-.3587-.9565-1.2554V46.5485h-.5481v-.2291a2.965,2.965,0,0,0,1.126-1.5544h.259l-.01,1.365h1.1259v.4185H53.2509v2.86c0,.7074.09.9466.4782.9466.3189,0,.4484-.13.6975-.4086Zm4.7624-1.7138c0,1.6739-.9167,2.5507-2.212,2.5507-1.395,0-2.232-.8967-2.232-2.5109a2.204,2.204,0,0,1,2.232-2.4212A2.1317,2.1317,0,0,1,59.3783,48.3919Zm-3.5173-.09c0,1.5843.4882,2.2518,1.3451,2.2419.8171,0,1.2555-.4783,1.2555-2.1024,0-1.2256-.4484-2.0526-1.3352-2.0526C56.3692,46.3891,55.861,47.0268,55.861,48.3022ZM67.7272,50.843H65.4355v-.289c.6576,0,.6974-.1893.6974-.7174v-2.76c0-.3288-.09-.4783-.279-.5281h-1.933v3.1088c0,.7672.1595.9067.8569.9067v.279H62.237v-.279c.7274,0,.837-.13.837-.9067V46.5485h-.7573V46.13h.7573a2.7982,2.7982,0,0,1,.3687-1.644,2.0265,2.0265,0,0,1,1.8134-.7872c.8669,0,1.4647.2491,1.4647.8071a.4346.4346,0,0,1-.4783.4583c-.2989,0-.4284-.2291-.5579-.528-.11-.289-.3388-.3787-.6776-.3787-.6875,0-1.0861.3687-1.0861,1.4647V46.13h1.7138l1.0662-.09h.259v3.7962c0,.568.05.7174.7673.7174Zm5.021-1.0064c0,.558.07.7274.7373.7274v.279H71.1838v-.279c.7075,0,.7374-.1694.7374-.7274V48.0332c0-1.1957-.4683-1.385-.9167-1.385a1.8263,1.8263,0,0,0-1.2057.6277v2.5607c0,.558.04.7274.7573.7274v.279H68.2744v-.279c.6675,0,.6974-.1694.6974-.7274v-2.8c0-.3587-.1494-.4385-.4185-.4385a1.51,1.51,0,0,0-.269.02v-.289L69.55,46.04h.2292l-.01.807h.04a2.4245,2.4245,0,0,1,1.6042-.8369c.9067,0,1.3352.6277,1.3352,1.7736ZM77.54,50.8928H77.311v-.6875h-.04a2.35,2.35,0,0,1-1.5444.7174c-1.126,0-1.7039-.9864-1.7039-2.2618a2.3893,2.3893,0,0,1,2.2918-2.65,1.9839,1.9839,0,0,1,.9665.2391V44.9443c0-.4384-.05-.5281-.4385-.5281-.09,0-.259.02-.259.02v-.279l1.2554-.3488h.2691v5.9685c0,.5181.13.6177.4982.6177h.2092v.2691Zm-.259-3.6867a.935.935,0,0,0-.9865-.7971c-.837,0-1.4049.6078-1.4049,1.8633,0,1.375.4583,1.933,1.3053,1.933a1.7041,1.7041,0,0,0,1.0861-.3687Z"/><path d="M85.0419,47.6844v.05c.3587.2491.5579.7573,1.375,2.3017a.8753.8753,0,0,0,.9167.5082l-.06.2989H85.7593c-.7473-1.6441-.9566-2.0625-1.2655-2.67-.1494-.279-.279-.3388-.6377-.3388h-.2092l-.3687,1.7736c-.1694.827-.06.9366.7971.9366l-.05.2989h-2.75l.06-.2989c.7373,0,.8867-.1,1.0561-.9366l.8769-4.2746c.11-.548.05-.7373-.7473-.7373l.06-.2989h2.3416c1.3949,0,2.212.4085,2.212,1.375C87.1343,47.0766,85.9087,47.535,85.0419,47.6844Zm-1.3253-.2192.3089.01c1.1957-.04,2.1224-.4883,2.1224-1.7637,0-.538-.299-1.0262-1.2854-1.0262a5.3971,5.3971,0,0,0-.5879.03Z"/><path d="M92.41,51.9657a2.7972,2.7972,0,0,1-2.2385,1.053A1.7672,1.7672,0,0,1,88.17,51.1219a3.02,3.02,0,0,1,3.1171-3.1867,3.1487,3.1487,0,0,1,1.1785.2649c.0906,0,.1673-.0906.3207-.258h.2511l-.3417,1.7434h-.3c.0209-.9763-.3905-1.3877-1.22-1.3877A2.366,2.366,0,0,0,89,50.92a1.358,1.358,0,0,0,1.5481,1.5272,2.4471,2.4471,0,0,0,1.6945-.6416Z"/><path d="M93.5612,52.0682a14.2609,14.2609,0,0,0,.5976-2.3818l.9766-.1a12.1485,12.1485,0,0,1-.9463,2.4219Z"/><path d="M98.8815,46.02l.6377,2.4512c.1387.5381.2686,1.0361.3584,1.5342h.03c.1093-.4883.2685-1.0068.4277-1.5244l.7871-2.461h.7373l.7481,2.4112c.1787.5781.3183,1.0859.4277,1.5742h.03a14.4412,14.4412,0,0,1,.3691-1.5645l.6875-2.4209h.8662l-1.5537,4.8223h-.7978L101.9,48.5408a16.1133,16.1133,0,0,1-.4278-1.5839h-.02a13.99,13.99,0,0,1-.4385,1.5937l-.7773,2.292h-.7969L97.984,46.02Z"/><path d="M106.3034,48.5907a1.5449,1.5449,0,0,0,1.6543,1.6738,3.1718,3.1718,0,0,0,1.3349-.249l.1494.6279a3.9033,3.9033,0,0,1-1.6044.2988,2.24,2.24,0,0,1-2.3711-2.4316,2.3412,2.3412,0,0,1,2.2617-2.6006,2.044,2.044,0,0,1,1.9931,2.2724,3.3562,3.3562,0,0,1-.03.4083Zm2.57-.628a1.2477,1.2477,0,0,0-1.2158-1.4248,1.4528,1.4528,0,0,0-1.3448,1.4248Z"/><path d="M113.1471,47.325c0-.498-.01-.9062-.04-1.3047h.7773l.05.7969h.02a1.7741,1.7741,0,0,1,1.5938-.9072c.668,0,1.7041.3994,1.7041,2.0527v2.88h-.877v-2.78c0-.7773-.289-1.4248-1.1162-1.4248a1.2481,1.2481,0,0,0-1.1758.8975,1.2821,1.2821,0,0,0-.0595.4082v2.8994h-.877Z"/><path d="M119.1647,48.5907a1.5453,1.5453,0,0,0,1.6543,1.6738,3.1657,3.1657,0,0,0,1.335-.249l.1494.6279a3.9039,3.9039,0,0,1-1.6045.2988,2.24,2.24,0,0,1-2.3711-2.4316A2.3418,2.3418,0,0,1,120.59,45.91a2.0441,2.0441,0,0,1,1.9932,2.2724,3.3316,3.3316,0,0,1-.03.4083Zm2.5713-.628a1.2489,1.2489,0,0,0-1.2158-1.4248,1.4529,1.4529,0,0,0-1.3448,1.4248Z"/><path d="M124.1559,48.5907a1.5449,1.5449,0,0,0,1.6543,1.6738,3.1688,3.1688,0,0,0,1.335-.249l.1494.6279a3.9021,3.9021,0,0,1-1.6035.2988,2.24,2.24,0,0,1-2.3721-2.4316,2.3412,2.3412,0,0,1,2.2617-2.6006,2.0441,2.0441,0,0,1,1.9932,2.2724,3.3316,3.3316,0,0,1-.03.4083Zm2.57-.628a1.2475,1.2475,0,0,0-1.2148-1.4248,1.4545,1.4545,0,0,0-1.3457,1.4248Z"/><path d="M132.8239,43.7684v5.8291c0,.4277.01.916.04,1.2451h-.7871l-.04-.8369h-.02a1.7849,1.7849,0,0,1-1.6445.9463,2.1983,2.1983,0,0,1-2.0625-2.4512,2.3075,2.3075,0,0,1,2.1621-2.5908,1.6156,1.6156,0,0,1,1.4551.7373h.0195V43.7684Zm-.877,4.2148a1.526,1.526,0,0,0-.04-.3691,1.2891,1.2891,0,0,0-1.2647-1.0166c-.9072,0-1.4453.7978-1.4453,1.8633,0,.9765.4785,1.7841,1.4248,1.7841a1.3177,1.3177,0,0,0,1.2852-1.0468,1.4959,1.4959,0,0,0,.04-.378Z"/><path d="M135.9225,49.9461a2.3025,2.3025,0,0,0,1.1563.3487c.6377,0,.9365-.3194.9365-.7178,0-.418-.249-.6475-.8965-.8867-.8672-.3086-1.2754-.7871-1.2754-1.3653a1.487,1.487,0,0,1,1.6641-1.415,2.3986,2.3986,0,0,1,1.1855.3l-.22.6377a1.8722,1.8722,0,0,0-.9863-.2793c-.5186,0-.8076.2988-.8076.6572,0,.3985.289.5781.9169.8174.837.3184,1.2657.7373,1.2657,1.4551,0,.8467-.6573,1.4443-1.8037,1.4443a2.7507,2.7507,0,0,1-1.3545-.3291Z"/><path d="M140.9635,44.6649a.543.543,0,0,1-1.0859,0,.5345.5345,0,0,1,.5478-.5479A.52.52,0,0,1,140.9635,44.6649Zm-.9765,6.1777V46.02h.8769v4.8223Z"/><path d="M142.318,47.325c0-.498-.01-.9062-.039-1.3047h.7773l.0488.7969h.02A1.7746,1.7746,0,0,1,144.72,45.91c.667,0,1.7031.3994,1.7031,2.0527v2.88h-.877v-2.78c0-.7773-.289-1.4248-1.1152-1.4248a1.2893,1.2893,0,0,0-1.2363,1.3057v2.8994h-.877Z"/><path d="M151.3812,50.9825c-.8868,0-1.5445-.6676-1.5445-2.212,0-2.73,1.395-5.0717,3.0191-5.0717.9466,0,1.385.9765,1.385,2.4213C154.2408,49.1491,152.9355,50.9825,151.3812,50.9825Zm2.2817-3.5073h-3.2383a8.4568,8.4568,0,0,0-.05.8768c0,1.4049.6776,1.7636,1.2056,1.7636C152.537,50.1156,153.3939,49.3584,153.6629,47.4752Zm-3.1386-.5281h3.2084c.01-.1893.02-.4085.02-.5879,0-.9366-.3189-1.7935-1.096-1.7935C151.81,44.5657,150.873,45.4525,150.5243,46.9471Z"/><path d="M160.3473,50.8426l-.0693-.6074h-.03a1.7969,1.7969,0,0,1-1.4746.7168,1.3738,1.3738,0,0,1-1.4746-1.3848c0-1.166,1.0361-1.8037,2.8994-1.7939v-.1a.9935.9935,0,0,0-1.0957-1.1153,2.4,2.4,0,0,0-1.2559.3584l-.1992-.5781a2.9964,2.9964,0,0,1,1.585-.4287c1.4746,0,1.833,1.0068,1.833,1.9736v1.8028a6.8169,6.8169,0,0,0,.0791,1.1562Zm-.1289-2.4609c-.957-.0205-2.043.1494-2.043,1.0859a.7759.7759,0,0,0,.8272.8369,1.1978,1.1978,0,0,0,1.165-.8066.9071.9071,0,0,0,.0508-.2793Z"/><path d="M162.4792,47.325c0-.498-.01-.9062-.04-1.3047h.7774l.05.7969h.02a1.7727,1.7727,0,0,1,1.5937-.9072c.668,0,1.7041.3994,1.7041,2.0527v2.88h-.8769v-2.78c0-.7773-.2891-1.4248-1.1162-1.4248a1.286,1.286,0,0,0-1.2354,1.3057v2.8994h-.8769Z"/><path d="M172.1735,43.7684v5.8291c0,.4277.01.916.0391,1.2451h-.7872l-.039-.8369h-.02a1.7824,1.7824,0,0,1-1.6436.9463,2.1983,2.1983,0,0,1-2.0625-2.4512,2.3075,2.3075,0,0,1,2.1621-2.5908,1.6156,1.6156,0,0,1,1.4551.7373h.02V43.7684Zm-.877,4.2148a1.526,1.526,0,0,0-.04-.3691,1.29,1.29,0,0,0-1.2656-1.0166c-.9063,0-1.4444.7978-1.4444,1.8633,0,.9765.4786,1.7841,1.4248,1.7841a1.3177,1.3177,0,0,0,1.2852-1.0468,1.4959,1.4959,0,0,0,.04-.378Z"/><path d="M179.3473,50.6629a3.2266,3.2266,0,0,1-1.3857.2793,2.2914,2.2914,0,0,1-2.4014-2.4609,2.4506,2.4506,0,0,1,2.5908-2.5606,2.9212,2.9212,0,0,1,1.2159.2491l-.1993.6777a2.0269,2.0269,0,0,0-1.0166-.2295,1.8181,1.8181,0,0,0-.03,3.6269,2.4941,2.4941,0,0,0,1.0761-.2392Z"/><path d="M184.736,48.3914a2.3567,2.3567,0,0,1-2.4,2.5606,2.2928,2.2928,0,0,1-2.3125-2.48,2.3557,2.3557,0,0,1,2.3916-2.5615A2.2835,2.2835,0,0,1,184.736,48.3914Zm-3.8262.05c0,1.0567.6084,1.8536,1.4649,1.8536.8379,0,1.4648-.7872,1.4648-1.8731,0-.8174-.4082-1.8535-1.4443-1.8535S180.91,47.5242,180.91,48.4412Z"/><path d="M185.7223,49.9461a2.2993,2.2993,0,0,0,1.1563.3487c.6367,0,.9355-.3194.9355-.7178,0-.418-.248-.6475-.8965-.8867-.8672-.3086-1.2754-.7871-1.2754-1.3653a1.4876,1.4876,0,0,1,1.6641-1.415,2.3963,2.3963,0,0,1,1.1856.3l-.2188.6377a1.8722,1.8722,0,0,0-.9863-.2793c-.5186,0-.8076.2988-.8076.6572,0,.3985.289.5781.9169.8174.837.3184,1.2657.7373,1.2657,1.4551,0,.8467-.6582,1.4443-1.8037,1.4443a2.7453,2.7453,0,0,1-1.3545-.3291Z"/><path d="M192.2342,50.9825c-.8868,0-1.5445-.6676-1.5445-2.212,0-2.73,1.395-5.0717,3.0191-5.0717.9466,0,1.385.9765,1.385,2.4213C195.0938,49.1491,193.7885,50.9825,192.2342,50.9825Zm2.2817-3.5073h-3.2383a8.4568,8.4568,0,0,0-.05.8768c0,1.4049.6775,1.7636,1.2056,1.7636C193.39,50.1156,194.2469,49.3584,194.5159,47.4752Zm-3.1386-.5281h3.2084c.01-.1893.02-.4085.02-.5879,0-.9366-.3189-1.7935-1.096-1.7935C192.6626,44.5657,191.726,45.4525,191.3773,46.9471Z"/><path d="M195.98,50.3241a.5887.5887,0,0,1,.5977-.627.6285.6285,0,1,1-.5977.627Z"/><path d="M16.7965,70.7674l-1.7031-6.7158h.916l.7979,3.3975c.1992.8369.3779,1.6738.498,2.3222h.02c.11-.668.3193-1.4648.5478-2.332l.8975-3.3877h.9062l.8174,3.4082c.1895.7969.3682,1.5937.4688,2.3008h.02c.14-.7373.3281-1.4844.5381-2.3213l.8867-3.3877h.8867L21.39,70.7674H20.484L19.6364,67.27a20.0905,20.0905,0,0,1-.4375-2.1923h-.02A20.6747,20.6747,0,0,1,18.66,67.27l-.956,3.4971Z"/><path d="M23.95,68.5155a1.5453,1.5453,0,0,0,1.6543,1.6738,3.1649,3.1649,0,0,0,1.3349-.249l.1494.6279a3.9039,3.9039,0,0,1-1.6045.2988,2.24,2.24,0,0,1-2.3711-2.4316,2.3418,2.3418,0,0,1,2.2618-2.6006,2.044,2.044,0,0,1,1.9931,2.2725,3.356,3.356,0,0,1-.03.4082Zm2.5712-.628a1.2488,1.2488,0,0,0-1.2158-1.4248,1.4527,1.4527,0,0,0-1.3447,1.4248Z"/><path d="M31.6608,68.1571h.0205c.1191-.17.2891-.3789.4277-.5479l1.4151-1.6641h1.0566l-1.8633,1.9825,2.1221,2.84H33.7731L32.109,68.4559l-.4482.498v1.8135h-.8662V63.6932h.8662Z"/><path d="M35.4665,67.25c0-.498-.01-.9062-.04-1.3047h.7774l.05.7969h.02a1.7739,1.7739,0,0,1,1.5937-.9072c.668,0,1.7041.3994,1.7041,2.0527v2.88H38.695v-2.78c0-.7773-.2891-1.4248-1.1162-1.4248a1.286,1.286,0,0,0-1.2354,1.3057v2.8994h-.8769Z"/><path d="M45.36,68.3162a2.3569,2.3569,0,0,1-2.4014,2.5606,2.2926,2.2926,0,0,1-2.3115-2.4805,2.3552,2.3552,0,0,1,2.3916-2.5615A2.2839,2.2839,0,0,1,45.36,68.3162Zm-3.8262.05c0,1.0567.6084,1.8536,1.4649,1.8536.8369,0,1.4648-.7872,1.4648-1.8731,0-.8174-.4091-1.8535-1.4453-1.8535S41.5338,67.4491,41.5338,68.366Z"/><path d="M46.8141,65.9451l.6377,2.4512c.14.5381.2686,1.0361.3584,1.5342h.03c.1094-.4883.2685-1.0068.4287-1.5244l.7871-2.461h.7373l.7471,2.4112c.18.5781.3183,1.0859.4287,1.5742h.0293a14.6809,14.6809,0,0,1,.3691-1.5645l.6875-2.4209h.8662l-1.5537,4.8223H50.57l-.7364-2.3017a15.87,15.87,0,0,1-.4287-1.584h-.02a14.0112,14.0112,0,0,1-.4384,1.5937l-.7764,2.292h-.7979l-1.4541-4.8223Z"/><path d="M57.195,64.5594v1.3857h1.2558v.667H57.195v2.6006c0,.5977.17.9365.6582.9365a1.9392,1.9392,0,0,0,.5078-.0595l.04.6582a2.16,2.16,0,0,1-.7773.1191,1.2161,1.2161,0,0,1-.9463-.3681,1.7854,1.7854,0,0,1-.3389-1.2559V66.6121h-.748v-.667h.748V64.7889Z"/><path d="M59.4362,63.6932h.8769V66.702h.02a1.6215,1.6215,0,0,1,.627-.6172,1.8,1.8,0,0,1,.8975-.25c.6474,0,1.6836.3994,1.6836,2.0635v2.8691h-.877V67.9979c0-.7774-.2891-1.4356-1.1162-1.4356a1.261,1.261,0,0,0-1.1758.877,1.0644,1.0644,0,0,0-.06.4189v2.9092h-.8769Z"/><path d="M67.6364,70.7674l-.07-.6074h-.0293a1.7986,1.7986,0,0,1-1.4746.7168,1.3738,1.3738,0,0,1-1.4746-1.3848c0-1.166,1.0361-1.8037,2.8994-1.7939v-.1A.9943.9943,0,0,0,66.39,66.4832a2.4058,2.4058,0,0,0-1.2549.3584l-.1992-.5781a2.9925,2.9925,0,0,1,1.584-.4287c1.4746,0,1.833,1.0068,1.833,1.9736v1.8028a6.81,6.81,0,0,0,.08,1.1562Zm-.13-2.4609c-.9561-.02-2.043.1494-2.043,1.0859a.7758.7758,0,0,0,.8272.8369,1.2,1.2,0,0,0,1.166-.8066.9054.9054,0,0,0,.05-.2793Z"/><path d="M70.8239,64.5594v1.3857H72.08v.667H70.8239v2.6006c0,.5977.17.9365.6572.9365A1.942,1.942,0,0,0,71.99,70.09l.0391.6582a2.151,2.151,0,0,1-.7764.1191,1.22,1.22,0,0,1-.9473-.3681,1.79,1.79,0,0,1-.3388-1.2559V66.6121h-.7471v-.667h.7471V64.7889Z"/><path d="M77.6579,64.5594v1.3857h1.2558v.667H77.6579v2.6006c0,.5977.17.9365.6582.9365a1.9392,1.9392,0,0,0,.5078-.0595l.04.6582a2.1566,2.1566,0,0,1-.7773.1191,1.2175,1.2175,0,0,1-.9463-.3681,1.79,1.79,0,0,1-.3389-1.2559V66.6121h-.747v-.667h.747V64.7889Z"/><path d="M82.57,70.7674l-.0694-.6074h-.03a1.7971,1.7971,0,0,1-1.4746.7168,1.3739,1.3739,0,0,1-1.4747-1.3848c0-1.166,1.0362-1.8037,2.8995-1.7939v-.1a.9935.9935,0,0,0-1.0957-1.1153,2.4094,2.4094,0,0,0-1.2559.3584l-.1992-.5781a2.9948,2.9948,0,0,1,1.584-.4287c1.4756,0,1.834,1.0068,1.834,1.9736v1.8028a6.8169,6.8169,0,0,0,.0791,1.1562Zm-.1289-2.4609c-.9571-.02-2.043.1494-2.043,1.0859a.7758.7758,0,0,0,.8272.8369,1.1979,1.1979,0,0,0,1.165-.8066.9071.9071,0,0,0,.0508-.2793Z"/><path d="M84.7018,67.25c0-.498-.01-.9062-.04-1.3047h.7773l.05.7969h.02a1.7755,1.7755,0,0,1,1.5947-.9072c.667,0,1.7031.3994,1.7031,2.0527v2.88H87.93v-2.78c0-.7773-.289-1.4248-1.1162-1.4248a1.2856,1.2856,0,0,0-1.2353,1.3057v2.8994h-.877Z"/><path d="M93.0882,70.9075c-.8868,0-1.5445-.6676-1.5445-2.212,0-2.73,1.395-5.0717,3.0191-5.0717.9466,0,1.385.9765,1.385,2.4213C95.9478,69.0741,94.6425,70.9075,93.0882,70.9075ZM95.37,67.4H92.1316a8.4568,8.4568,0,0,0-.05.8768c0,1.4049.6775,1.7636,1.2056,1.7636C94.244,70.0406,95.1009,69.2834,95.37,67.4Zm-3.1386-.5281H95.44c.01-.1893.02-.4086.02-.5879,0-.9366-.3189-1.7935-1.0961-1.7935C93.5166,64.4907,92.58,65.3775,92.2313,66.8721Zm7.7609.6377v-.6776h5.9386V67.51Zm0,2.0326v-.6676h5.9386v.6676Z"/><path d="M111.1159,64.2371a2.0552,2.0552,0,0,0,1.0039.2862c.7881,0,1.0322-.503,1.0254-.8789-.0069-.6348-.5791-.9063-1.1709-.9063h-.3418v-.4609h.3418c.4453,0,1.0107-.23,1.0107-.7666,0-.3623-.2305-.6836-.7949-.6836a1.6664,1.6664,0,0,0-.9072.3l-.16-.4463a2.16,2.16,0,0,1,1.1856-.3486c.8925,0,1.2968.53,1.2968,1.081a1.1247,1.1247,0,0,1-.8359,1.0664v.0147a1.18,1.18,0,0,1,1.0107,1.164c0,.7256-.5654,1.36-1.6533,1.36a2.2985,2.2985,0,0,1-1.1777-.3076Z"/><line class="cls-5" x1="110.517" y1="68.198" x2="114.45" y2="68.198"/><path d="M112.7272,76.5955V75.3612h-2.1055v-.4043l2.0215-2.8936h.6631V74.88h.6348v.4815h-.6348v1.2343Zm0-1.7158V73.367q0-.356.02-.7109h-.02c-.14.2646-.251.46-.376.6689l-1.1093,1.541V74.88Z"/><path d="M115.8053,71.993a14.3591,14.3591,0,0,0,.5977-2.3818l.9765-.1a12.2052,12.2052,0,0,1-.9462,2.4218Z"/><path d="M124.8122,69.452c0,.498.01.9365.039,1.3154h-.7763l-.05-.7871h-.0206a1.8129,1.8129,0,0,1-1.5937.8965c-.7578,0-1.6641-.418-1.6641-2.1123V65.9451h.877v2.67c0,.917.2783,1.5341,1.0762,1.5341a1.266,1.266,0,0,0,1.1552-.7968,1.2805,1.2805,0,0,0,.08-.4483v-2.959h.877Z"/><path d="M126.1461,69.8709a2.3025,2.3025,0,0,0,1.1563.3487c.6377,0,.9365-.3194.9365-.7178,0-.418-.249-.6475-.8974-.8867-.8662-.3086-1.2754-.7871-1.2754-1.3653a1.4875,1.4875,0,0,1,1.664-1.415,2.4035,2.4035,0,0,1,1.1866.3l-.22.6377a1.8719,1.8719,0,0,0-.9863-.2793c-.5176,0-.8066.2988-.8066.6572,0,.3985.289.5781.916.8174.8369.3184,1.2656.7373,1.2656,1.4551,0,.8467-.6572,1.4443-1.8037,1.4443a2.7484,2.7484,0,0,1-1.3545-.3291Z"/><path d="M131.1872,64.59a.543.543,0,0,1-1.086,0,.5345.5345,0,0,1,.5479-.5479A.52.52,0,0,1,131.1872,64.59Zm-.9766,6.1777V65.9451h.877v4.8223Z"/><path d="M132.5426,67.25c0-.498-.0107-.9062-.04-1.3047h.7773l.05.7969h.02a1.7738,1.7738,0,0,1,1.5937-.9072c.668,0,1.7041.3994,1.7041,2.0527v2.88h-.876v-2.78c0-.7773-.289-1.4248-1.1162-1.4248A1.286,1.286,0,0,0,133.42,67.868v2.8994h-.877Z"/><path d="M142.2262,65.9451c-.0195.3487-.039.7373-.039,1.3252v2.8a2.7772,2.7772,0,0,1-.6875,2.2022,2.5575,2.5575,0,0,1-1.7539.5771,3.1058,3.1058,0,0,1-1.6045-.3984l.22-.667a2.7165,2.7165,0,0,0,1.4141.3779c.8964,0,1.5546-.4677,1.5546-1.6836V69.94H141.31a1.7231,1.7231,0,0,1-1.5351.8076,2.1562,2.1562,0,0,1-2.0528-2.3516,2.3154,2.3154,0,0,1,2.1729-2.5615,1.6046,1.6046,0,0,1,1.5049.8379h.0195l.04-.7276Zm-.9062,1.9024a1.2459,1.2459,0,0,0-.05-.3984,1.2633,1.2633,0,0,0-1.2256-.9268c-.8369,0-1.4356.708-1.4356,1.8242,0,.9463.4786,1.7334,1.4258,1.7334a1.2823,1.2823,0,0,0,1.2149-.8965,1.5025,1.5025,0,0,0,.07-.4687Z"/><path d="M147.028,64.5594v1.3857h1.2549v.667H147.028v2.6006c0,.5977.1689.9365.6572.9365a1.9332,1.9332,0,0,0,.5078-.0595l.041.6582a2.1642,2.1642,0,0,1-.7773.1191,1.2183,1.2183,0,0,1-.9473-.3681,1.7905,1.7905,0,0,1-.3379-1.2559V66.6121h-.748v-.667h.748V64.7889Z"/><path d="M149.2692,63.6932h.8769V66.702h.02a1.6308,1.6308,0,0,1,.6279-.6172,1.7968,1.7968,0,0,1,.8975-.25c.6474,0,1.6836.3994,1.6836,2.0635v2.8691h-.877V67.9979c0-.7774-.2891-1.4356-1.1162-1.4356a1.26,1.26,0,0,0-1.1758.877,1.0644,1.0644,0,0,0-.06.4189v2.9092h-.8769Z"/><path d="M155.2868,68.5155a1.5449,1.5449,0,0,0,1.6543,1.6738,3.1718,3.1718,0,0,0,1.3349-.249l.1494.6279a3.9033,3.9033,0,0,1-1.6044.2988,2.24,2.24,0,0,1-2.3711-2.4316,2.3412,2.3412,0,0,1,2.2617-2.6006,2.044,2.044,0,0,1,1.9931,2.2725,3.356,3.356,0,0,1-.03.4082Zm2.57-.628a1.2481,1.2481,0,0,0-1.2149-1.4248,1.4537,1.4537,0,0,0-1.3457,1.4248Z"/><path d="M162.1305,67.4491c0-.5674-.01-1.0557-.039-1.504h.7666l.03.9463h.0391a1.449,1.449,0,0,1,1.3359-1.0566.964.964,0,0,1,.2491.03v.8271a1.3438,1.3438,0,0,0-.2989-.03,1.23,1.23,0,0,0-1.1757,1.126,2.4108,2.4108,0,0,0-.04.4092v2.57h-.8672Z"/><path d="M166.3649,64.59a.543.543,0,0,1-1.0859,0,.5345.5345,0,0,1,.5478-.5479A.52.52,0,0,1,166.3649,64.59Zm-.9766,6.1777V65.9451h.877v4.8223Z"/><path d="M171.8747,65.9451c-.02.3487-.04.7373-.04,1.3252v2.8a2.7733,2.7733,0,0,1-.6875,2.2022,2.5531,2.5531,0,0,1-1.7529.5771,3.1063,3.1063,0,0,1-1.6045-.3984l.2188-.667a2.7226,2.7226,0,0,0,1.415.3779c.8965,0,1.5547-.4677,1.5547-1.6836V69.94h-.02a1.7215,1.7215,0,0,1-1.5342.8076,2.1562,2.1562,0,0,1-2.0527-2.3516,2.3153,2.3153,0,0,1,2.1718-2.5615,1.6023,1.6023,0,0,1,1.5049.8379h.02l.0391-.7276Zm-.9063,1.9024a1.2422,1.2422,0,0,0-.0508-.3984,1.2629,1.2629,0,0,0-1.2246-.9268c-.8379,0-1.4355.708-1.4355,1.8242,0,.9463.4785,1.7334,1.4248,1.7334a1.2824,1.2824,0,0,0,1.2158-.8965,1.5293,1.5293,0,0,0,.07-.4687Z"/><path d="M173.2887,63.6932h.877V66.702h.02a1.6315,1.6315,0,0,1,.6279-.6172,1.7968,1.7968,0,0,1,.8975-.25c.6475,0,1.6836.3994,1.6836,2.0635v2.8691h-.877V67.9979c0-.7774-.289-1.4356-1.1162-1.4356a1.26,1.26,0,0,0-1.1757.877,1.0625,1.0625,0,0,0-.06.4189v2.9092h-.877Z"/><path d="M179.8737,64.5594v1.3857H181.13v.667h-1.2558v2.6006c0,.5977.17.9365.6582.9365a1.9332,1.9332,0,0,0,.5078-.0595l.04.6582a2.16,2.16,0,0,1-.7773.1191,1.2175,1.2175,0,0,1-.9463-.3681,1.79,1.79,0,0,1-.3389-1.2559V66.6121h-.747v-.667h.747V64.7889Z"/><path d="M183.9088,67.7479v.6484h-2.4609v-.6484Z"/><path d="M185.9909,64.5594v1.3857h1.2558v.667h-1.2558v2.6006c0,.5977.1689.9365.6572.9365a1.942,1.942,0,0,0,.5088-.0595l.04.6582a2.16,2.16,0,0,1-.7773.1191,1.2213,1.2213,0,0,1-.9473-.3681,1.7955,1.7955,0,0,1-.3379-1.2559V66.6121h-.748v-.667h.748V64.7889Z"/><path d="M188.2321,67.4491c0-.5674-.01-1.0557-.0391-1.504h.7666l.03.9463h.0391a1.449,1.449,0,0,1,1.3359-1.0566.9632.9632,0,0,1,.249.03v.8271a1.3429,1.3429,0,0,0-.2988-.03,1.23,1.23,0,0,0-1.1758,1.126,2.4217,2.4217,0,0,0-.04.4092v2.57h-.8672Z"/><path d="M192.4665,64.59a.543.543,0,0,1-1.086,0,.5345.5345,0,0,1,.5479-.5479A.52.52,0,0,1,192.4665,64.59Zm-.9766,6.1777V65.9451h.877v4.8223Z"/><path d="M196.4919,70.7674l-.07-.6074h-.0293a1.7984,1.7984,0,0,1-1.4746.7168,1.3738,1.3738,0,0,1-1.4746-1.3848c0-1.166,1.0362-1.8037,2.8994-1.7939v-.1a.9942.9942,0,0,0-1.0966-1.1153,2.4056,2.4056,0,0,0-1.2549.3584l-.1992-.5781a2.9921,2.9921,0,0,1,1.5839-.4287c1.4747,0,1.833,1.0068,1.833,1.9736v1.8028a6.82,6.82,0,0,0,.08,1.1562Zm-.13-2.4609c-.9561-.02-2.042.1494-2.042,1.0859a.775.775,0,0,0,.8261.8369,1.2,1.2,0,0,0,1.1661-.8066.9083.9083,0,0,0,.05-.2793Z"/><path d="M198.6227,67.25c0-.498-.01-.9062-.0391-1.3047h.7774l.0488.7969h.02a1.7746,1.7746,0,0,1,1.5948-.9072c.6669,0,1.7031.3994,1.7031,2.0527v2.88h-.877v-2.78c0-.7773-.289-1.4248-1.1152-1.4248A1.2893,1.2893,0,0,0,199.5,67.868v2.8994h-.877Z"/><path d="M208.3073,65.9451c-.0195.3487-.04.7373-.04,1.3252v2.8a2.7733,2.7733,0,0,1-.6875,2.2022,2.5531,2.5531,0,0,1-1.7529.5771,3.1063,3.1063,0,0,1-1.6045-.3984l.2188-.667a2.7229,2.7229,0,0,0,1.415.3779c.8975,0,1.5547-.4677,1.5547-1.6836V69.94h-.02a1.7215,1.7215,0,0,1-1.5342.8076,2.1555,2.1555,0,0,1-2.0517-2.3516,2.3147,2.3147,0,0,1,2.1718-2.5615,1.6017,1.6017,0,0,1,1.5039.8379h.02l.04-.7276Zm-.9063,1.9024a1.2832,1.2832,0,0,0-1.2754-1.3252c-.8369,0-1.4345.708-1.4345,1.8242,0,.9463.4775,1.7334,1.4238,1.7334a1.2827,1.2827,0,0,0,1.2168-.8965,1.5589,1.5589,0,0,0,.0693-.4687Z"/><path d="M209.7213,63.6932h.877v7.0742h-.877Z"/><path d="M212.5612,68.5155a1.5442,1.5442,0,0,0,1.6533,1.6738,3.1735,3.1735,0,0,0,1.3359-.249l.15.6279a3.9081,3.9081,0,0,1-1.6045.2988,2.24,2.24,0,0,1-2.3711-2.4316,2.3412,2.3412,0,0,1,2.2617-2.6006,2.0433,2.0433,0,0,1,1.9922,2.2725,3.395,3.395,0,0,1-.0293.4082Zm2.57-.628a1.2483,1.2483,0,0,0-1.2158-1.4248,1.4527,1.4527,0,0,0-1.3447,1.4248Z"/><path d="M220.4606,64.5594v1.3857h1.2559v.667h-1.2559v2.6006c0,.5977.17.9365.6582.9365a1.9332,1.9332,0,0,0,.5078-.0595l.04.6582a2.1572,2.1572,0,0,1-.7774.1191,1.2175,1.2175,0,0,1-.9463-.3681,1.79,1.79,0,0,1-.3388-1.2559V66.6121h-.7471v-.667h.7471V64.7889Z"/><path d="M227.027,68.3162a2.3569,2.3569,0,0,1-2.4014,2.5606,2.2921,2.2921,0,0,1-2.3115-2.4805,2.3558,2.3558,0,0,1,2.3916-2.5615A2.2839,2.2839,0,0,1,227.027,68.3162Zm-3.8262.05c0,1.0567.6075,1.8536,1.4649,1.8536.8369,0,1.4648-.7872,1.4648-1.8731,0-.8174-.4082-1.8535-1.4453-1.8535S223.2008,67.4491,223.2008,68.366Z"/><path d="M231.529,64.5594v1.3857h1.2558v.667H231.529v2.6006c0,.5977.17.9365.6582.9365a1.9332,1.9332,0,0,0,.5078-.0595l.04.6582a2.1566,2.1566,0,0,1-.7773.1191,1.2175,1.2175,0,0,1-.9463-.3681,1.79,1.79,0,0,1-.3389-1.2559V66.6121h-.7471v-.667h.7471V64.7889Z"/><path d="M233.7711,63.6932h.877V66.702h.0195a1.6311,1.6311,0,0,1,.628-.6172,1.7927,1.7927,0,0,1,.8964-.25c.6475,0,1.6846.3994,1.6846,2.0635v2.8691H237V67.9979c0-.7774-.2891-1.4356-1.1162-1.4356a1.259,1.259,0,0,0-1.1758.877,1.0644,1.0644,0,0,0-.06.4189v2.9092h-.877Z"/><path d="M239.7887,68.5155a1.545,1.545,0,0,0,1.6543,1.6738,3.172,3.172,0,0,0,1.335-.249l.1494.6279a3.9039,3.9039,0,0,1-1.6045.2988,2.24,2.24,0,0,1-2.3711-2.4316,2.3412,2.3412,0,0,1,2.2617-2.6006,2.0441,2.0441,0,0,1,1.9932,2.2725,3.3313,3.3313,0,0,1-.03.4082Zm2.57-.628a1.2481,1.2481,0,0,0-1.2148-1.4248,1.4537,1.4537,0,0,0-1.3457,1.4248Z"/><path d="M246.6325,67.4491c0-.5674-.01-1.0557-.04-1.504h.7676l.03.9463h.0391a1.449,1.449,0,0,1,1.3359-1.0566.95.95,0,0,1,.248.03v.8271a1.33,1.33,0,0,0-.2988-.03,1.2313,1.2313,0,0,0-1.1758,1.126,2.5358,2.5358,0,0,0-.039.4092v2.57h-.8672Z"/><path d="M250.8669,64.59a.543.543,0,0,1-1.086,0,.5339.5339,0,0,1,.5479-.5479A.52.52,0,0,1,250.8669,64.59Zm-.9766,6.1777V65.9451h.8769v4.8223Z"/><path d="M256.3766,65.9451c-.0195.3487-.04.7373-.04,1.3252v2.8a2.7769,2.7769,0,0,1-.6875,2.2022,2.5542,2.5542,0,0,1-1.7539.5771,3.1086,3.1086,0,0,1-1.6045-.3984l.22-.667a2.7229,2.7229,0,0,0,1.415.3779c.8965,0,1.5547-.4677,1.5547-1.6836V69.94h-.02a1.7214,1.7214,0,0,1-1.5342.8076,2.1562,2.1562,0,0,1-2.0527-2.3516,2.3153,2.3153,0,0,1,2.1719-2.5615,1.6034,1.6034,0,0,1,1.5049.8379h.0195l.04-.7276Zm-.9072,1.9024a1.2459,1.2459,0,0,0-.05-.3984,1.2633,1.2633,0,0,0-1.2256-.9268c-.8369,0-1.4346.708-1.4346,1.8242,0,.9463.4785,1.7334,1.4248,1.7334a1.2825,1.2825,0,0,0,1.2159-.8965,1.5279,1.5279,0,0,0,.0693-.4687Z"/><path d="M257.7907,63.6932h.8769V66.702h.02a1.63,1.63,0,0,1,.6279-.6172,1.7931,1.7931,0,0,1,.8965-.25c.6474,0,1.6845.3994,1.6845,2.0635v2.8691h-.8769V67.9979c0-.7774-.2891-1.4356-1.1162-1.4356a1.259,1.259,0,0,0-1.1758.877,1.0644,1.0644,0,0,0-.06.4189v2.9092h-.8769Z"/><path d="M264.3756,64.5594v1.3857h1.2559v.667h-1.2559v2.6006c0,.5977.17.9365.6582.9365a1.9341,1.9341,0,0,0,.5079-.0595l.04.6582a2.1606,2.1606,0,0,1-.7773.1191,1.2172,1.2172,0,0,1-.9463-.3681,1.79,1.79,0,0,1-.3389-1.2559V66.6121h-.7471v-.667h.7471V64.7889Z"/><path d="M266.05,71.993a14.3592,14.3592,0,0,0,.5976-2.3818l.9766-.1a12.2109,12.2109,0,0,1-.9463,2.4218Z"/><path d="M273.6911,70.7674l-.07-.6074h-.0293a1.7986,1.7986,0,0,1-1.4746.7168,1.3739,1.3739,0,0,1-1.4747-1.3848c0-1.166,1.0362-1.8037,2.8995-1.7939v-.1a.9943.9943,0,0,0-1.0967-1.1153,2.4058,2.4058,0,0,0-1.2549.3584l-.1992-.5781a2.9925,2.9925,0,0,1,1.584-.4287c1.4746,0,1.833,1.0068,1.833,1.9736v1.8028a6.8212,6.8212,0,0,0,.08,1.1562Zm-.13-2.4609c-.9561-.02-2.042.1494-2.042,1.0859a.7751.7751,0,0,0,.8262.8369,1.2,1.2,0,0,0,1.166-.8066.9054.9054,0,0,0,.05-.2793Z"/><path d="M275.8219,63.6932h.877v7.0742h-.877Z"/><path d="M282.5378,68.3162a2.357,2.357,0,0,1-2.4014,2.5606,2.2926,2.2926,0,0,1-2.3115-2.4805,2.3552,2.3552,0,0,1,2.3916-2.5615A2.284,2.284,0,0,1,282.5378,68.3162Zm-3.8262.05c0,1.0567.6084,1.8536,1.4648,1.8536.8369,0,1.4649-.7872,1.4649-1.8731,0-.8174-.4092-1.8535-1.4453-1.8535S278.7116,67.4491,278.7116,68.366Z"/><path d="M283.6432,67.25c0-.498-.0107-.9062-.04-1.3047h.7773l.05.7969h.02a1.7755,1.7755,0,0,1,1.5947-.9072c.668,0,1.7031.3994,1.7031,2.0527v2.88h-.876v-2.78c0-.7773-.289-1.4248-1.1162-1.4248A1.2856,1.2856,0,0,0,284.52,67.868v2.8994h-.877Z"/><path d="M293.3278,65.9451c-.0205.3487-.04.7373-.04,1.3252v2.8a2.7772,2.7772,0,0,1-.6875,2.2022,2.5575,2.5575,0,0,1-1.754.5771,3.1057,3.1057,0,0,1-1.6044-.3984l.22-.667a2.72,2.72,0,0,0,1.415.3779c.8965,0,1.5537-.4677,1.5537-1.6836V69.94h-.0195a1.7226,1.7226,0,0,1-1.5342.8076,2.1556,2.1556,0,0,1-2.0527-2.3516,2.3153,2.3153,0,0,1,2.1719-2.5615,1.6043,1.6043,0,0,1,1.5048.8379h.02l.04-.7276Zm-.9072,1.9024a1.2459,1.2459,0,0,0-.05-.3984,1.2633,1.2633,0,0,0-1.2256-.9268c-.8369,0-1.4346.708-1.4346,1.8242,0,.9463.4785,1.7334,1.4248,1.7334a1.2823,1.2823,0,0,0,1.2158-.8965,1.5281,1.5281,0,0,0,.0694-.4687Z"/><path d="M297.4215,65.9451l.6377,2.4512c.14.5381.2686,1.0361.3584,1.5342h.0293c.11-.4883.27-1.0068.4287-1.5244l.7881-2.461H300.4l.748,2.4112c.1787.5781.3184,1.0859.4277,1.5742h.03a14.4248,14.4248,0,0,1,.3682-1.5645l.6875-2.4209h.8672l-1.5547,4.8223h-.7969l-.7373-2.3017a16.3725,16.3725,0,0,1-.4287-1.584h-.0195a14.2429,14.2429,0,0,1-.4385,1.5937l-.7774,2.292h-.7968l-1.4541-4.8223Z"/><path d="M305.3815,64.59a.543.543,0,0,1-1.0859,0,.5345.5345,0,0,1,.5478-.5479A.52.52,0,0,1,305.3815,64.59Zm-.9766,6.1777V65.9451h.877v4.8223Z"/><path d="M307.7926,64.5594v1.3857h1.2559v.667h-1.2559v2.6006c0,.5977.169.9365.6573.9365a1.9405,1.9405,0,0,0,.5087-.0595l.0391.6582a2.1526,2.1526,0,0,1-.7773.1191,1.2188,1.2188,0,0,1-.9463-.3681,1.79,1.79,0,0,1-.3389-1.2559V66.6121h-.7471v-.667h.7471V64.7889Z"/><path d="M310.0338,63.6932h.877V66.702h.0195a1.6242,1.6242,0,0,1,.628-.6172,1.7953,1.7953,0,0,1,.8964-.25c.6485,0,1.6836.3994,1.6836,2.0635v2.8691h-.8759V67.9979c0-.7774-.2891-1.4356-1.1163-1.4356a1.2589,1.2589,0,0,0-1.1757.877,1.0644,1.0644,0,0,0-.06.4189v2.9092h-.877Z"/><path d="M19.0292,80.0628c-.279-1.096-.6576-1.6241-1.664-1.6141-.6775,0-1.0661.3188-1.0661.9366,0,.7473.7174,1.106,1.4647,1.5344.8868.4982,1.8732.9466,1.8732,2.1323a1.791,1.791,0,0,1-2.0227,1.7836,5.7724,5.7724,0,0,1-1.654-.2989c-.1395,0-.259.13-.269.3288h-.3089l-.09-2.1523h.3089c.3488,1.3751.8569,1.6939,1.8733,1.684.7473,0,1.2156-.299,1.2156-1.0562,0-.8769-.837-1.2256-1.6541-1.6939-.7971-.4583-1.6042-.9366-1.6042-1.9828s.8569-1.6042,1.8932-1.6142a3.9281,3.9281,0,0,1,1.3651.3089c.1594,0,.259-.08.3088-.289h.2591l.07,1.9928Zm4.6127,4.7728c-1.9829,0-3.1786-1.2854-3.1786-3.3977A3.077,3.077,0,0,1,23.6419,78.05,3.0173,3.0173,0,0,1,26.81,81.3482C26.81,83.4306,25.6048,84.8356,23.6419,84.8356Zm-.03-6.367c-1.2854,0-2.1024,1.0861-2.1024,2.91,0,1.8732.7074,3.039,2.1422,3.039,1.4149,0,2.1124-1.0363,2.1124-3.039C25.7642,79.5845,24.9073,78.4686,23.612,78.4686Zm5.9375,2.69h3.2682v-1.674c0-.7772-.05-1.0163-.9665-1.0163V78.17h2.85v.2989c-.9466,0-.9765.2292-.9765,1.0163v3.9258c0,.8669.07,1.0064.9765,1.0064v.2989h-2.85v-.2989c.8868,0,.9665-.1395.9665-1.0064V81.5475H29.55v1.8632c0,.8769.08,1.0064.9765,1.0064v.2989h-2.86v-.2989c.8968,0,.9665-.12.9665-1.0064V79.4849c0-.7772-.05-1.0163-.9665-1.0163V78.17h2.86v.2989c-.9466,0-.9765.2391-.9765,1.0163ZM43.687,83.4406a3.0059,3.0059,0,0,1-2.67,1.385c-2.0526,0-3.1287-1.4348-3.1287-3.3778A3.1068,3.1068,0,0,1,41.1561,78.05a5.1123,5.1123,0,0,1,1.664.3587c.1594,0,.2192-.1594.3388-.3587h.2989v2.2817H43.119c-.2192-1.3052-.9266-1.8533-1.9529-1.8533-1.4348,0-2.2419,1.0961-2.2419,2.87,0,1.9928.9765,2.85,2.3814,2.85a2.7543,2.7543,0,0,0,2.1422-.9665Zm4.8117,1.2754v-.2989c.2989,0,.6875-.02.6875-.3687a1.5907,1.5907,0,0,0-.1694-.6178l-.3886-.8967H46.0774L45.629,83.59a1.3424,1.3424,0,0,0-.11.4882c0,.279.1993.3388.6676.3388v.2989H44.0946v-.2989c.558,0,.6975-.1594,1.1757-1.2953l2.1124-5.002h.4085l2.3615,5.41c.2889.6576.4882.8868,1.0263.8868v.2989Zm-1.116-5.3706h-.03l-1.1259,2.79h2.2518ZM53.46,81.1589H56.728v-1.674c0-.7772-.05-1.0163-.9665-1.0163V78.17h2.85v.2989c-.9466,0-.9765.2292-.9765,1.0163v3.9258c0,.8669.07,1.0064.9765,1.0064v.2989h-2.85v-.2989c.8868,0,.9665-.1395.9665-1.0064V81.5475H53.46v1.8632c0,.8769.08,1.0064.9765,1.0064v.2989h-2.86v-.2989c.8967,0,.9665-.12.9665-1.0064V79.4849c0-.7772-.05-1.0163-.9665-1.0163V78.17h2.86v.2989c-.9466,0-.9765.2391-.9765,1.0163Zm13.1809-1.1957c-.2192-1.0861-.3388-1.3452-1.4448-1.3452h-.6277v4.7927c0,.9067.1295,1.0064.9864,1.0064v.2989H62.6651v-.2989c.8369,0,.9764-.1.9764-1.0064V78.618h-.6377c-1.096,0-1.2355.2591-1.4447,1.3452H61.25l.11-1.7935h5.51l.08,1.7935Zm4.0446,4.8724c-1.9828,0-3.1785-1.2854-3.1785-3.3977A3.0769,3.0769,0,0,1,70.6853,78.05a3.0173,3.0173,0,0,1,3.1685,3.2981C73.8538,83.4306,72.6482,84.8356,70.6853,84.8356Zm-.03-6.367c-1.2854,0-2.1024,1.0861-2.1024,2.91,0,1.8732.7074,3.039,2.1423,3.039,1.4148,0,2.1123-1.0363,2.1123-3.039C72.8076,79.5845,71.9507,78.4686,70.6554,78.4686Zm7.7312,6.2474v-.2989c.2989,0,.6875-.02.6875-.3687a1.5907,1.5907,0,0,0-.1694-.6178l-.3886-.8967H75.9653L75.517,83.59a1.3425,1.3425,0,0,0-.11.4882c0,.279.1993.3388.6676.3388v.2989H73.9825v-.2989c.558,0,.6975-.1594,1.1757-1.2953l2.1124-5.002h.4085l2.3615,5.41c.289.6576.4882.8868,1.0263.8868v.2989Zm-1.116-5.3706h-.03l-1.1259,2.79h2.2519Zm4.453,6.5364a1.1654,1.1654,0,0,0,.827-1.2057.85.85,0,0,1-.3089.06.4992.4992,0,0,1-.548-.538.5729.5729,0,0,1,.6177-.5879c.4982,0,.7673.3288.7673.8768a1.71,1.71,0,0,1-1.2356,1.6441ZM93.54,80.292c-.3886,0-.5381.1395-.7374.6576l-1.4846,3.8262H90.84l-1.0561-2.9h-.04l-1.1658,2.9H88.12l-1.4946-3.7564c-.2591-.6178-.4085-.7274-.847-.7274v-.289h2.1423v.289c-.3986,0-.5281.09-.5281.2491a1.0478,1.0478,0,0,0,.11.3886l.8669,2.202.1793.5779h.07l.2092-.5779.7174-1.8134-.11-.2989c-.2391-.6477-.3886-.7274-.827-.7274v-.289h2.0825v.289c-.3786,0-.4982.09-.4982.2491a1.3779,1.3779,0,0,0,.09.4085l.807,2.1821.1794.5779h.06l.1993-.5779L92.3147,80.9a1.413,1.413,0,0,0,.06-.3587c0-.1893-.1893-.2491-.558-.2491v-.289H93.54Zm4.1439,3.1386a1.9735,1.9735,0,0,1-1.8633,1.385c-1.1957,0-2.1223-.8668-2.1223-2.471,0-1.664.9366-2.4611,2.1024-2.4611,1.0861,0,1.8035.7871,1.8533,2.1821H94.5057c0,1.375.7572,2.0027,1.5544,2.0027a1.5767,1.5767,0,0,0,1.4348-.7771Zm-.9665-1.7337c-.03-.7373-.3587-1.4149-1.0662-1.4149-.6775,0-1.0761.4883-1.1558,1.4149Zm9.2756,3.0191h-2.2918v-.289c.6577,0,.6975-.1893.6975-.7174V80.95c0-.3288-.09-.4783-.279-.5281h-1.933V83.53c0,.7672.1594.9067.8569.9067v.279h-2.5408v-.279c.7274,0,.837-.1295.837-.9067V80.4215h-.7573V80.003h.7573a2.7982,2.7982,0,0,1,.3686-1.644,2.0267,2.0267,0,0,1,1.8135-.7872c.8669,0,1.4647.2491,1.4647.8071a.4347.4347,0,0,1-.4783.4583c-.2989,0-.4284-.2291-.558-.528-.11-.289-.3387-.3787-.6775-.3787-.6875,0-1.0861.3687-1.0861,1.4647v.6078h1.7138l1.0662-.09h.259V83.71c0,.568.05.7174.7673.7174Zm5.021-1.0064c0,.558.07.7274.7373.7274v.279H109.45v-.279c.7075,0,.7373-.1694.7373-.7274V81.9062c0-1.1957-.4683-1.385-.9166-1.385a1.8261,1.8261,0,0,0-1.2057.6277V83.71c0,.558.04.7274.7573.7274v.279H106.54v-.279c.6676,0,.6975-.1694.6975-.7274v-2.8c0-.3587-.15-.4385-.4185-.4385a1.5087,1.5087,0,0,0-.269.02v-.289l1.2654-.2889h.2292l-.01.807h.04a2.4243,2.4243,0,0,1,1.6042-.8369c.9067,0,1.3352.6277,1.3352,1.7736Zm4.7919,1.0562h-.2292v-.6875h-.04a2.35,2.35,0,0,1-1.5444.7174c-1.126,0-1.7039-.9864-1.7039-2.2618a2.3893,2.3893,0,0,1,2.2917-2.65,1.9836,1.9836,0,0,1,.9665.2391V78.8173c0-.4384-.05-.5281-.4384-.5281-.09,0-.259.02-.259.02V78.03l1.2554-.3488h.269V83.65c0,.5181.13.6177.4982.6177h.2093v.2691Zm-.2591-3.6867a.9348.9348,0,0,0-.9864-.7971c-.837,0-1.4049.6078-1.4049,1.8633,0,1.375.4583,1.933,1.3053,1.933a1.7036,1.7036,0,0,0,1.086-.3687Zm7.2329,2.9c-.3886.538-.5979.8369-1.2356.8369-.6676,0-.9565-.3587-.9565-1.2554V80.4215h-.548v-.2291a2.9654,2.9654,0,0,0,1.1259-1.5544h.2591l-.01,1.365h1.1259v.4185h-1.1259v2.86c0,.7074.09.9466.4783.9466.3188,0,.4484-.13.6975-.4086Zm1.8529-.2292c0,.5181.05.6775.7373.6775v.289h-2.2618v-.289c.5181,0,.6975-.08.6975-.6376V78.6878c0-.3487-.2192-.3986-.4883-.3986a2.1115,2.1115,0,0,0-.2889.02V78.03l1.3351-.3488h.2691v3.0191h.03a2.32,2.32,0,0,1,1.6141-.817c1.1459,0,1.3352,1.0263,1.3352,1.8433V83.71c0,.5281.11.7174.7373.7174v.289h-2.2917v-.289c.6875,0,.7274-.1992.7274-.6775V82.0257c0-.817-.11-1.5045-.9167-1.5045a1.81,1.81,0,0,0-1.2355.6177Zm6.954.3487a2.0578,2.0578,0,0,1-1.4647.6876,1.0764,1.0764,0,0,1-1.1857-1.116c0-1.3153,1.7636-1.5743,2.62-1.8434V81.388c0-.8668-.2989-1.1956-.8967-1.1956-.568,0-.6676.2092-.6676.807a.4006.4006,0,0,1-.4384.4584.4314.4314,0,0,1-.4185-.4783c0-.558.6676-1.096,1.7536-1.096s1.4946.4982,1.4946,1.5344V83.68c0,.4086.09.4883.299.4883a.6323.6323,0,0,0,.4683-.2491l.1494.1594c-.3288.4783-.5679.6875-1.0761.6875-.4384,0-.538-.2291-.5978-.6676Zm-.03-1.9429c-.9067.2291-1.7437.4982-1.7437,1.2753a.7175.7175,0,0,0,.7174.8071,1.6808,1.6808,0,0,0,1.0263-.4384Zm4.8917,1.8234c-.3886.538-.5979.8369-1.2356.8369-.6676,0-.9565-.3587-.9565-1.2554V80.4215h-.548v-.2291a2.9654,2.9654,0,0,0,1.1259-1.5544h.2591l-.01,1.365H136.21v.4185h-1.1259v2.86c0,.7074.09.9466.4783.9466.3188,0,.4483-.13.6974-.4086Zm1.3547-2.91a.5291.5291,0,0,1-.578-.5779.5884.5884,0,1,1,1.1758.01A.552.552,0,0,1,137.8034,81.0692Zm0,3.7265a.5291.5291,0,0,1-.578-.5779.5884.5884,0,1,1,1.1758.01A.552.552,0,0,1,137.8034,84.7957Z"/><path class="cls-4" d="M109.6071,110.9862a2.3066,2.3066,0,0,0,1.1562.3486c.6377,0,.9366-.3193.9366-.7178,0-.4179-.2491-.6474-.8965-.8867-.8672-.3086-1.2754-.7871-1.2754-1.3652a1.4875,1.4875,0,0,1,1.664-1.4151,2.3974,2.3974,0,0,1,1.1856.3l-.22.6377a1.8663,1.8663,0,0,0-.9864-.2793c-.5175,0-.8066.2989-.8066.6573,0,.3984.2891.5781.917.8173.8369.3184,1.2646.7373,1.2646,1.4551,0,.8467-.6572,1.4444-1.8027,1.4444a2.7524,2.7524,0,0,1-1.3555-.3291Z"/><path class="cls-4" d="M114.6491,105.7049a.543.543,0,0,1-1.086,0,.5339.5339,0,0,1,.5479-.5478A.5209.5209,0,0,1,114.6491,105.7049Zm-.9766,6.1777V107.06h.877v4.8222Z"/><path class="cls-4" d="M116.0036,108.3651c0-.4981-.01-.9063-.04-1.3047h.7774l.05.7969h.0195a1.7756,1.7756,0,0,1,1.5947-.9073c.667,0,1.7041.3994,1.7041,2.0528v2.88h-.8769v-2.78c0-.7774-.2891-1.4248-1.1162-1.4248a1.2859,1.2859,0,0,0-1.2354,1.3056v2.8994h-.8769Z"/><path class="cls-4" d="M125.0662,112.0225c-.8868,0-1.5445-.6676-1.5445-2.212,0-2.73,1.395-5.0717,3.0191-5.0717.9466,0,1.385.9765,1.385,2.4213C127.9258,110.1891,126.6205,112.0225,125.0662,112.0225Zm2.2817-3.5073H124.11a8.4568,8.4568,0,0,0-.05.8768c0,1.4049.6775,1.7636,1.2056,1.7636C126.222,111.1556,127.0789,110.3984,127.3479,108.5152Zm-3.1386-.5281h3.2084c.01-.1893.02-.4085.02-.5879,0-.9366-.3189-1.7935-1.0961-1.7935C125.4946,105.6057,124.558,106.4925,124.2093,107.9871Zm7.7609.6377v-.6776h5.9386v.6776Zm0,2.0326V109.99h5.9386v.6676Z"/><path class="cls-4" d="M143.154,104.5008a2.9145,2.9145,0,0,0,1.4345.4092c1.126,0,1.4746-.7178,1.4639-1.2559-.01-.9062-.8262-1.2949-1.6738-1.2949H143.89v-.6582h.4883c.6386,0,1.4453-.3281,1.4453-1.0957,0-.5176-.3291-.9766-1.1358-.9766a2.3814,2.3814,0,0,0-1.2959.4287l-.2285-.6376a3.0751,3.0751,0,0,1,1.6934-.4981c1.2754,0,1.8535.7568,1.8535,1.544a1.6079,1.6079,0,0,1-1.1953,1.5244v.02a1.6863,1.6863,0,0,1,1.4443,1.664c0,1.0362-.8076,1.9424-2.3613,1.9424a3.2887,3.2887,0,0,1-1.6846-.4385Z"/><line class="cls-6" x1="142.496" y1="109.313" x2="147.428" y2="109.313"/><path class="cls-4" d="M146.81,112.5194H144.34l-.25,1.664a3.529,3.529,0,0,1,.5283-.04,2.7359,2.7359,0,0,1,1.3955.3486,1.8461,1.8461,0,0,1,.9258,1.6641,2.2461,2.2461,0,0,1-2.41,2.2119,3.1767,3.1767,0,0,1-1.6153-.3984l.22-.667a2.9011,2.9011,0,0,0,1.3847.3584,1.4288,1.4288,0,0,0,1.5342-1.4053c-.01-.8369-.5674-1.4346-1.8633-1.4346a6.8147,6.8147,0,0,0-.8965.0694l.419-3.1084H146.81Z"/><path d="M164.3239,111.8826l-.0694-.6074h-.03a1.7968,1.7968,0,0,1-1.4746.7168,1.3738,1.3738,0,0,1-1.4746-1.3847c0-1.1661,1.0371-1.8038,2.9-1.794v-.1a.9942.9942,0,0,0-1.0966-1.1152,2.4022,2.4022,0,0,0-1.2549.3584l-.1992-.5782a2.9947,2.9947,0,0,1,1.5839-.4287c1.4747,0,1.8331,1.0069,1.8331,1.9737v1.8027a6.8212,6.8212,0,0,0,.08,1.1562Zm-.1289-2.4609c-.9571-.02-2.043.1494-2.043,1.0859a.7759.7759,0,0,0,.8272.837,1.2,1.2,0,0,0,1.166-.8067.9073.9073,0,0,0,.05-.2793Z"/><path d="M166.4557,108.3651c0-.4981-.01-.9063-.04-1.3047h.7773l.0508.7969h.0195a1.774,1.774,0,0,1,1.5938-.9073c.668,0,1.7041.3994,1.7041,2.0528v2.88h-.877v-2.78c0-.7774-.289-1.4248-1.1162-1.4248a1.247,1.247,0,0,0-1.1758.8974,1.2821,1.2821,0,0,0-.06.4082v2.8994h-.877Z"/><path d="M176.15,104.8084v5.8291c0,.4278.01.916.04,1.2451h-.7871l-.04-.8369h-.0195a1.7849,1.7849,0,0,1-1.6445.9463,2.1983,2.1983,0,0,1-2.0625-2.4512,2.3075,2.3075,0,0,1,2.1621-2.5908,1.6157,1.6157,0,0,1,1.4551.7373h.0195v-2.8789Zm-.877,4.2149a1.5312,1.5312,0,0,0-.04-.3692,1.2892,1.2892,0,0,0-1.2647-1.0166c-.9072,0-1.4453.7979-1.4453,1.8633,0,.9766.4785,1.7842,1.4248,1.7842a1.3178,1.3178,0,0,0,1.2852-1.0469,1.5,1.5,0,0,0,.04-.3779Z"/><path class="cls-7" d="M193.2858,111.703a3.2214,3.2214,0,0,1-1.3848.2793,2.291,2.291,0,0,1-2.4013-2.461,2.45,2.45,0,0,1,2.59-2.56,2.9222,2.9222,0,0,1,1.2158.249l-.1992.6777a2.0269,2.0269,0,0,0-1.0166-.23,1.8182,1.8182,0,0,0-.0293,3.627,2.4941,2.4941,0,0,0,1.0762-.2393Z"/><path class="cls-7" d="M198.6754,109.4315a2.3568,2.3568,0,0,1-2.4013,2.5605,2.292,2.292,0,0,1-2.3115-2.48,2.3558,2.3558,0,0,1,2.3916-2.5616A2.284,2.284,0,0,1,198.6754,109.4315Zm-3.8261.05c0,1.0566.6074,1.8535,1.4648,1.8535.8369,0,1.4649-.7871,1.4649-1.8731,0-.8173-.4082-1.8535-1.4454-1.8535S194.8493,108.5643,194.8493,109.4813Z"/><path class="cls-7" d="M199.6618,110.9862a2.3,2.3,0,0,0,1.1552.3486c.6377,0,.9366-.3193.9366-.7178,0-.4179-.2491-.6474-.8965-.8867-.8672-.3086-1.2754-.7871-1.2754-1.3652a1.487,1.487,0,0,1,1.6641-1.4151,2.4,2.4,0,0,1,1.1855.3l-.2187.6377a1.8763,1.8763,0,0,0-.9873-.2793c-.5176,0-.8067.2989-.8067.6573,0,.3984.2891.5781.917.8173.8359.3184,1.2647.7373,1.2647,1.4551,0,.8467-.6573,1.4444-1.8038,1.4444a2.7512,2.7512,0,0,1-1.3545-.3291Z"/><path class="cls-7" d="M206.1732,112.0225c-.8868,0-1.5445-.6676-1.5445-2.212,0-2.73,1.395-5.0717,3.0191-5.0717.9466,0,1.385.9765,1.385,2.4213C209.0328,110.1891,207.7275,112.0225,206.1732,112.0225Zm2.2817-3.5073h-3.2383a8.4568,8.4568,0,0,0-.05.8768c0,1.4049.6775,1.7636,1.2056,1.7636C207.329,111.1556,208.1859,110.3984,208.4549,108.5152Zm-3.1386-.5281h3.2084c.01-.1893.02-.4085.02-.5879,0-.9366-.3189-1.7935-1.0961-1.7935C206.6016,105.6057,205.665,106.4925,205.3163,107.9871Zm7.7609.6377v-.6776h5.9386v.6776Zm0,2.0326V109.99h5.9386v.6676Z"/><path class="cls-7" d="M226.7614,105.5076V103.744h-3.01v-.5782l2.8906-4.1347h.9463v4.0254h.9063v.6875h-.9063v1.7636Zm0-2.4511v-2.1621q0-.5084.0293-1.0166h-.0293c-.1992.3789-.3594.6582-.5381.957l-1.585,2.2021v.02Z"/><line class="cls-8" x1="223.603" y1="109.313" x2="228.535" y2="109.313"/><path class="cls-7" d="M227.9176,112.5194H225.446l-.2491,1.664a3.518,3.518,0,0,1,.5284-.04,2.7353,2.7353,0,0,1,1.3945.3486,1.8448,1.8448,0,0,1,.9267,1.6641,2.2464,2.2464,0,0,1-2.4111,2.2119,3.17,3.17,0,0,1-1.6143-.3984l.2188-.667a2.9094,2.9094,0,0,0,1.3857.3584,1.4288,1.4288,0,0,0,1.5342-1.4053c-.01-.8369-.5683-1.4346-1.8633-1.4346a6.7824,6.7824,0,0,0-.8964.0694l.4179-3.1084h3.1Z"/><path d="M15.7008,137.786V131.07h.9473L18.8,134.4676a18.8132,18.8132,0,0,1,1.206,2.1826l.02-.01c-.0791-.8975-.1-1.7139-.1-2.7608v-2.81h.8174v6.7159h-.8769l-2.1319-3.4073a21.3143,21.3143,0,0,1-1.2558-2.2421l-.03.01c.05.8467.07,1.6543.07,2.7695v2.87Z"/><path d="M26.5006,135.3348a2.3568,2.3568,0,0,1-2.4013,2.56,2.2925,2.2925,0,0,1-2.3115-2.48,2.3558,2.3558,0,0,1,2.3916-2.5616A2.284,2.284,0,0,1,26.5006,135.3348Zm-3.8261.05c0,1.0566.6084,1.8535,1.4648,1.8535.8369,0,1.4649-.7871,1.4649-1.873,0-.8174-.4082-1.8535-1.4444-1.8535S22.6745,134.4676,22.6745,135.3846Z"/><path d="M27.9547,132.9637l.6377,2.4512c.14.5381.27,1.0361.3584,1.5342h.03c.1094-.4883.2695-1.0069.4287-1.5245l.7871-2.4609h.7373l.7471,2.4111c.18.5782.3193,1.086.4287,1.5743h.03a14.4248,14.4248,0,0,1,.3682-1.5645l.6875-2.4209h.8671l-1.5546,4.8223h-.7969l-.7373-2.3018a16.1176,16.1176,0,0,1-.4287-1.584h-.02a14.44,14.44,0,0,1-.4384,1.5938l-.7774,2.292h-.7969l-1.455-4.8223Z"/><path d="M37.6286,132.9637l.6377,2.4512c.14.5381.2685,1.0361.3584,1.5342h.03c.1094-.4883.2686-1.0069.4287-1.5245l.7872-2.4609h.7373l.747,2.4111c.18.5782.3184,1.086.4287,1.5743h.0293a14.6827,14.6827,0,0,1,.3692-1.5645l.6875-2.4209h.8672l-1.5547,4.8223h-.7969l-.7373-2.3018a15.8435,15.8435,0,0,1-.4287-1.584h-.02a14.246,14.246,0,0,1-.4375,1.5938l-.7774,2.292h-.7968l-1.4551-4.8223Z"/><path d="M45.05,135.534a1.5454,1.5454,0,0,0,1.6543,1.6738,3.1669,3.1669,0,0,0,1.335-.249l.1494.6279a3.9,3.9,0,0,1-1.6035.2989,2.24,2.24,0,0,1-2.3721-2.4317,2.3418,2.3418,0,0,1,2.2618-2.6006,2.0441,2.0441,0,0,1,1.9931,2.2725,3.1387,3.1387,0,0,1-.03.4082Zm2.5713-.6279a1.2489,1.2489,0,0,0-1.2158-1.4248,1.4545,1.4545,0,0,0-1.3457,1.4248Z"/><path d="M55.3327,137.6063a3.223,3.223,0,0,1-1.3858.2793,2.2907,2.2907,0,0,1-2.4-2.461,2.45,2.45,0,0,1,2.59-2.56,2.9229,2.9229,0,0,1,1.2158.249l-.1992.6777a2.0271,2.0271,0,0,0-1.0166-.2294,1.8181,1.8181,0,0,0-.0293,3.6269,2.4965,2.4965,0,0,0,1.0762-.2392Z"/><path d="M59.029,137.786l-.07-.6075h-.0292a1.799,1.799,0,0,1-1.4756.7168,1.3743,1.3743,0,0,1-1.4746-1.3847c0-1.166,1.0361-1.8037,2.8994-1.794v-.1a.9935.9935,0,0,0-1.0957-1.1152,2.4029,2.4029,0,0,0-1.2559.3584l-.1992-.5781a2.9988,2.9988,0,0,1,1.585-.4288c1.4746,0,1.833,1.0069,1.833,1.9737V136.63a6.72,6.72,0,0,0,.08,1.1563Zm-.13-2.461c-.9571-.02-2.043.1494-2.043,1.086a.7759.7759,0,0,0,.8272.8369,1.2,1.2,0,0,0,1.166-.8067.9348.9348,0,0,0,.05-.2793Z"/><path d="M61.16,134.2684c0-.4981-.01-.9063-.039-1.3047h.7763l.05.7969h.02a1.7742,1.7742,0,0,1,1.5938-.9073c.668,0,1.7041.4,1.7041,2.0528v2.88h-.877v-2.78c0-.7774-.289-1.4248-1.1162-1.4248a1.2472,1.2472,0,0,0-1.1758.8974,1.2824,1.2824,0,0,0-.0595.4083v2.8994H61.16Z"/><path d="M68.9108,136.89a2.3034,2.3034,0,0,0,1.1562.3486c.6377,0,.9366-.3193.9366-.7178,0-.4179-.2491-.6474-.8965-.8867-.8672-.3086-1.2754-.7871-1.2754-1.3652a1.487,1.487,0,0,1,1.6641-1.4151,2.4016,2.4016,0,0,1,1.1855.3l-.22.6376a1.8723,1.8723,0,0,0-.9863-.2792c-.5186,0-.8067.2988-.8067.6572,0,.3984.2881.5781.916.8174.8369.3183,1.2657.7373,1.2657,1.455,0,.8467-.6573,1.4444-1.8038,1.4444a2.7512,2.7512,0,0,1-1.3545-.3291Z"/><path d="M77.0114,136.4705c0,.4981.01.9366.039,1.3155h-.7763l-.05-.7871h-.02a1.8131,1.8131,0,0,1-1.5938.8964c-.7578,0-1.664-.4179-1.664-2.1123v-2.8193h.8769v2.67c0,.917.2783,1.5342,1.0762,1.5342a1.2662,1.2662,0,0,0,1.1553-.7969,1.28,1.28,0,0,0,.08-.4482v-2.959h.877Z"/><path d="M78.4254,137.786c.02-.3291.04-.8174.04-1.2452v-5.8291h.8662v3.0293h.02a1.7957,1.7957,0,0,1,1.6436-.8877,2.1654,2.1654,0,0,1,2.0332,2.462,2.2911,2.2911,0,0,1-2.1621,2.58,1.7167,1.7167,0,0,1-1.6143-.9062h-.03l-.04.7969Zm.9063-1.9327a1.6722,1.6722,0,0,0,.04.3184,1.3535,1.3535,0,0,0,1.3155,1.0264c.916,0,1.4648-.7471,1.4648-1.8535,0-.9659-.498-1.793-1.4355-1.793a1.3978,1.3978,0,0,0-1.335,1.0762,1.7518,1.7518,0,0,0-.05.3584Z"/><path d="M84.0143,136.89a2.3,2.3,0,0,0,1.1553.3486c.6377,0,.9365-.3193.9365-.7178,0-.4179-.249-.6474-.8965-.8867-.8662-.3086-1.2754-.7871-1.2754-1.3652a1.4876,1.4876,0,0,1,1.6641-1.4151,2.3955,2.3955,0,0,1,1.1855.3l-.2187.6376a1.8723,1.8723,0,0,0-.9863-.2792c-.5186,0-.8077.2988-.8077.6572,0,.3984.2891.5781.917.8174.837.3183,1.2657.7373,1.2657,1.455,0,.8467-.6582,1.4444-1.8037,1.4444a2.7521,2.7521,0,0,1-1.3555-.3291Z"/><path d="M89.1354,131.578v1.3857H90.39v.667H89.1354v2.6006c0,.5986.169.9365.6572.9365a1.9274,1.9274,0,0,0,.5078-.06l.04.6582a2.1546,2.1546,0,0,1-.7774.1192,1.2169,1.2169,0,0,1-.9462-.3682,1.7882,1.7882,0,0,1-.3389-1.2558v-2.6309h-.7471v-.667h.7471v-1.1563Z"/><path d="M92.3532,131.6082a.543.543,0,0,1-1.086,0,.5339.5339,0,0,1,.5479-.5478A.5209.5209,0,0,1,92.3532,131.6082Zm-.9766,6.1778v-4.8223h.877v4.8223Z"/><path d="M94.7633,131.578v1.3857h1.2559v.667H94.7633v2.6006c0,.5986.17.9365.6582.9365a1.9343,1.9343,0,0,0,.5079-.06l.04.6582a2.1546,2.1546,0,0,1-.7774.1192,1.2169,1.2169,0,0,1-.9462-.3682,1.7882,1.7882,0,0,1-.3389-1.2558v-2.6309H93.16v-.667h.7471v-1.1563Z"/><path d="M101.0407,136.4705c0,.4981.01.9366.04,1.3155h-.7773l-.05-.7871h-.0205a1.8132,1.8132,0,0,1-1.5938.8964c-.7568,0-1.664-.4179-1.664-2.1123v-2.8193h.8769v2.67c0,.917.2783,1.5342,1.0762,1.5342a1.2344,1.2344,0,0,0,1.2353-1.2451v-2.959h.877Z"/><path d="M103.55,131.578v1.3857h1.2559v.667H103.55v2.6006c0,.5986.17.9365.6582.9365a1.9343,1.9343,0,0,0,.5079-.06l.04.6582a2.158,2.158,0,0,1-.7773.1192,1.2172,1.2172,0,0,1-.9463-.3682,1.7882,1.7882,0,0,1-.3389-1.2558v-2.6309h-.7471v-.667h.7471v-1.1563Z"/><path d="M106.24,135.534a1.5453,1.5453,0,0,0,1.6543,1.6738,3.172,3.172,0,0,0,1.3359-.249l.1485.6279a3.8966,3.8966,0,0,1-1.6035.2989,2.24,2.24,0,0,1-2.3711-2.4317,2.3412,2.3412,0,0,1,2.2617-2.6006,2.0434,2.0434,0,0,1,1.9922,2.2725,3.3933,3.3933,0,0,1-.0293.4082Zm2.5713-.6279a1.2489,1.2489,0,0,0-1.2158-1.4248,1.4528,1.4528,0,0,0-1.3448,1.4248Z"/><path d="M114.14,131.578v1.3857h1.2558v.667H114.14v2.6006c0,.5986.17.9365.6582.9365a1.934,1.934,0,0,0,.5078-.06l.04.6582a2.1536,2.1536,0,0,1-.7773.1192,1.2172,1.2172,0,0,1-.9463-.3682,1.7887,1.7887,0,0,1-.3389-1.2558v-2.6309h-.747v-.667h.747v-1.1563Z"/><path d="M116.3825,130.7117h.8769v3.0088h.02a1.6247,1.6247,0,0,1,.6279-.6172,1.7941,1.7941,0,0,1,.8965-.25c.6474,0,1.6836.4,1.6836,2.0625v2.87h-.876v-2.77c0-.7773-.2891-1.4355-1.1162-1.4355a1.2589,1.2589,0,0,0-1.1758.8769,1.0652,1.0652,0,0,0-.06.419v2.9092h-.8769Z"/><path d="M122.4,135.534a1.5441,1.5441,0,0,0,1.6533,1.6738,3.1633,3.1633,0,0,0,1.3349-.249l.15.6279a3.9092,3.9092,0,0,1-1.6045.2989,2.24,2.24,0,0,1-2.372-2.4317,2.3419,2.3419,0,0,1,2.2627-2.6006,2.0433,2.0433,0,0,1,1.9921,2.2725,3.3977,3.3977,0,0,1-.0292.4082Zm2.57-.6279a1.2489,1.2489,0,0,0-1.2159-1.4248,1.4528,1.4528,0,0,0-1.3447,1.4248Z"/><path d="M126.7829,136.89a2.3031,2.3031,0,0,0,1.1562.3486c.6377,0,.9365-.3193.9365-.7178,0-.4179-.249-.6474-.8974-.8867-.8662-.3086-1.2754-.7871-1.2754-1.3652a1.4875,1.4875,0,0,1,1.6641-1.4151,2.4033,2.4033,0,0,1,1.1865.3l-.22.6376a1.8717,1.8717,0,0,0-.9863-.2792c-.5176,0-.8066.2988-.8066.6572,0,.3984.289.5781.916.8174.8369.3183,1.2656.7373,1.2656,1.455,0,.8467-.6572,1.4444-1.8037,1.4444a2.7484,2.7484,0,0,1-1.3545-.3291Z"/><path d="M131.3356,135.534a1.5453,1.5453,0,0,0,1.6543,1.6738,3.1673,3.1673,0,0,0,1.335-.249l.1494.6279a3.9,3.9,0,0,1-1.6035.2989,2.24,2.24,0,0,1-2.3721-2.4317,2.3418,2.3418,0,0,1,2.2617-2.6006,2.0436,2.0436,0,0,1,1.9932,2.2725,3.1568,3.1568,0,0,1-.03.4082Zm2.5713-.6279a1.2489,1.2489,0,0,0-1.2158-1.4248,1.4545,1.4545,0,0,0-1.3457,1.4248Z"/><path d="M139.1569,131.6082a.5435.5435,0,0,1-1.0869,0,.5346.5346,0,0,1,.5488-.5478A.5209.5209,0,0,1,139.1569,131.6082Zm-.9766,6.1778v-4.8223h.877v4.8223Z"/><path d="M140.5114,134.2684c0-.4981-.01-.9063-.04-1.3047h.7774l.05.7969h.02a1.7746,1.7746,0,0,1,1.5948-.9073c.6669,0,1.7041.4,1.7041,2.0528v2.88h-.877v-2.78c0-.7774-.2891-1.4248-1.1162-1.4248a1.2859,1.2859,0,0,0-1.2354,1.3057v2.8994h-.8769Z"/><path d="M147.0963,131.578v1.3857h1.2559v.667h-1.2559v2.6006c0,.5986.17.9365.6582.9365a1.9289,1.9289,0,0,0,.5079-.06l.04.6582a2.158,2.158,0,0,1-.7773.1192,1.2172,1.2172,0,0,1-.9463-.3682,1.7882,1.7882,0,0,1-.3389-1.2558v-2.6309h-.7471v-.667h.7471v-1.1563Z"/><path d="M153.6628,135.3348a2.3569,2.3569,0,0,1-2.4014,2.56,2.292,2.292,0,0,1-2.3115-2.48,2.3552,2.3552,0,0,1,2.3916-2.5616A2.2841,2.2841,0,0,1,153.6628,135.3348Zm-3.8262.05c0,1.0566.6074,1.8535,1.4648,1.8535.8369,0,1.4639-.7871,1.4639-1.873,0-.8174-.4082-1.8535-1.4443-1.8535S149.8366,134.4676,149.8366,135.3846Z"/><path d="M161.4733,135.3348a2.3569,2.3569,0,0,1-2.4014,2.56,2.292,2.292,0,0,1-2.3115-2.48,2.3553,2.3553,0,0,1,2.3916-2.5616A2.284,2.284,0,0,1,161.4733,135.3348Zm-3.8262.05c0,1.0566.6074,1.8535,1.4649,1.8535.8369,0,1.4638-.7871,1.4638-1.873,0-.8174-.4082-1.8535-1.4443-1.8535S157.6471,134.4676,157.6471,135.3846Z"/><path d="M166.6139,136.4705c0,.4981.01.9366.04,1.3155h-.7774l-.05-.7871h-.02a1.8131,1.8131,0,0,1-1.5937.8964c-.7579,0-1.6641-.4179-1.6641-2.1123v-2.8193h.8769v2.67c0,.917.2793,1.5342,1.0762,1.5342a1.2662,1.2662,0,0,0,1.1553-.7969,1.28,1.28,0,0,0,.08-.4482v-2.959h.8769Z"/><path d="M168.068,134.4676c0-.5674-.01-1.0557-.04-1.5039h.7666l.03.9463h.04a1.4469,1.4469,0,0,1,1.335-1.0567.9675.9675,0,0,1,.249.03v.8272a1.3376,1.3376,0,0,0-.2988-.03,1.23,1.23,0,0,0-1.1758,1.126,2.5165,2.5165,0,0,0-.04.4092v2.57h-.8662Z"/><path d="M174.1549,135.534a1.5453,1.5453,0,0,0,1.6543,1.6738,3.1669,3.1669,0,0,0,1.335-.249l.1494.6279a3.9019,3.9019,0,0,1-1.6045.2989,2.24,2.24,0,0,1-2.3711-2.4317,2.3418,2.3418,0,0,1,2.2617-2.6006,2.0441,2.0441,0,0,1,1.9932,2.2725,3.33,3.33,0,0,1-.03.4082Zm2.5713-.6279a1.2489,1.2489,0,0,0-1.2158-1.4248,1.4537,1.4537,0,0,0-1.3457,1.4248Z"/><path d="M181.946,137.0389h-.02a1.7168,1.7168,0,0,1-1.5752.8564,2.2,2.2,0,0,1-2.042-2.4414,2.3114,2.3114,0,0,1,2.1827-2.6006,1.5848,1.5848,0,0,1,1.4843.8379h.02l.03-.7275h.8272c-.02.4082-.03.8271-.03,1.3252v5.47h-.8769Zm0-2.1231a1.4717,1.4717,0,0,0-.04-.3681,1.28,1.28,0,0,0-1.2549-.9961c-.9072,0-1.455.7666-1.455,1.8525,0,.9571.458,1.794,1.4248,1.794a1.3061,1.3061,0,0,0,1.2558-.9561,1.5033,1.5033,0,0,0,.0694-.4189Z"/><path d="M188.3024,136.4705c0,.4981.01.9366.0391,1.3155h-.7774l-.0488-.7871h-.02a1.8144,1.8144,0,0,1-1.5938.8964c-.7578,0-1.664-.4179-1.664-2.1123v-2.8193h.8759v2.67c0,.917.2793,1.5342,1.0762,1.5342a1.2341,1.2341,0,0,0,1.2363-1.2451v-2.959h.877Z"/><path d="M192.4264,137.786l-.0693-.6075h-.03a1.7967,1.7967,0,0,1-1.4746.7168,1.3738,1.3738,0,0,1-1.4746-1.3847c0-1.166,1.0361-1.8037,2.8994-1.794v-.1a.9935.9935,0,0,0-1.0957-1.1152,2.3978,2.3978,0,0,0-1.2559.3584l-.1992-.5781a2.9954,2.9954,0,0,1,1.584-.4288c1.4746,0,1.834,1.0069,1.834,1.9737V136.63a6.8174,6.8174,0,0,0,.0791,1.1563Zm-.13-2.461c-.956-.02-2.042.1494-2.042,1.086a.7754.7754,0,0,0,.8272.8369,1.2,1.2,0,0,0,1.165-.8067.9043.9043,0,0,0,.05-.2793Z"/><path d="M195.6139,131.578v1.3857H196.87v.667h-1.2559v2.6006c0,.5986.17.9365.6582.9365a1.9274,1.9274,0,0,0,.5078-.06l.04.6582a2.1582,2.1582,0,0,1-.7774.1192,1.2172,1.2172,0,0,1-.9463-.3682,1.7887,1.7887,0,0,1-.3388-1.2558v-2.6309H194.01v-.667h.7471v-1.1563Z"/><path d="M198.8317,131.6082a.543.543,0,0,1-1.0859,0,.5344.5344,0,0,1,.5478-.5478A.52.52,0,0,1,198.8317,131.6082Zm-.9766,6.1778v-4.8223h.877v4.8223Z"/><path d="M204.55,135.3348a2.3566,2.3566,0,0,1-2.4,2.56,2.2927,2.2927,0,0,1-2.3125-2.48,2.3558,2.3558,0,0,1,2.3916-2.5616A2.2835,2.2835,0,0,1,204.55,135.3348Zm-3.8261.05c0,1.0566.6084,1.8535,1.4648,1.8535.8379,0,1.4649-.7871,1.4649-1.873,0-.8174-.4082-1.8535-1.4444-1.8535S200.7243,134.4676,200.7243,135.3846Z"/><path d="M205.6559,134.2684c0-.4981-.01-.9063-.039-1.3047h.7763l.05.7969h.02a1.7742,1.7742,0,0,1,1.5938-.9073c.668,0,1.7041.4,1.7041,2.0528v2.88h-.877v-2.78c0-.7774-.289-1.4248-1.1152-1.4248a1.2453,1.2453,0,0,0-1.1758.8974,1.2272,1.2272,0,0,0-.06.4083v2.8994h-.877Z"/><path d="M213.6169,137.786v-4.1553h-.6778v-.667h.6778v-.23a2.27,2.27,0,0,1,.5576-1.6836,1.6751,1.6751,0,0,1,1.1758-.4482,2.0469,2.0469,0,0,1,.747.1386l-.1191.6778a1.3174,1.3174,0,0,0-.5586-.1094c-.7471,0-.9365.6572-.9365,1.3945v.26h1.166v.667h-1.166v4.1553Z"/><path d="M216.4352,134.4676c0-.5674-.01-1.0557-.0391-1.5039h.7667l.03.9463h.0391a1.4489,1.4489,0,0,1,1.3359-1.0567.967.967,0,0,1,.249.03v.8272a1.3363,1.3363,0,0,0-.2988-.03,1.23,1.23,0,0,0-1.1758,1.126,2.4206,2.4206,0,0,0-.04.4092v2.57h-.8672Z"/><path d="M223.9684,135.3348a2.3575,2.3575,0,0,1-2.4023,2.56,2.2918,2.2918,0,0,1-2.3106-2.48,2.3551,2.3551,0,0,1,2.3906-2.5616A2.2848,2.2848,0,0,1,223.9684,135.3348Zm-3.8262.05c0,1.0566.6075,1.8535,1.4649,1.8535.8359,0,1.4639-.7871,1.4639-1.873,0-.8174-.4082-1.8535-1.4444-1.8535S220.1422,134.4676,220.1422,135.3846Z"/><path d="M225.0729,134.2684c0-.4981-.01-.9063-.04-1.3047H225.8l.04.7773h.03a1.66,1.66,0,0,1,1.5136-.8877,1.4263,1.4263,0,0,1,1.3653.9668h.02a1.9916,1.9916,0,0,1,.5381-.6279,1.6482,1.6482,0,0,1,1.0664-.3389c.6367,0,1.5839.419,1.5839,2.0928v2.84h-.8574v-2.7305c0-.9268-.3388-1.4844-1.0459-1.4844a1.1359,1.1359,0,0,0-1.0361.7969,1.4434,1.4434,0,0,0-.07.4385v2.98h-.8565v-2.89c0-.7676-.3388-1.3252-1.0068-1.3252a1.1983,1.1983,0,0,0-1.0859.877,1.2119,1.2119,0,0,0-.0694.4287v2.9092h-.8574Z"/><path d="M236.2116,135.534a1.5441,1.5441,0,0,0,1.6533,1.6738,3.172,3.172,0,0,0,1.3359-.249l.15.6279a3.9061,3.9061,0,0,1-1.6045.2989,2.24,2.24,0,0,1-2.3711-2.4317,2.3412,2.3412,0,0,1,2.2617-2.6006,2.0434,2.0434,0,0,1,1.9922,2.2725,3.3933,3.3933,0,0,1-.0293.4082Zm2.57-.6279a1.2483,1.2483,0,0,0-1.2158-1.4248,1.4529,1.4529,0,0,0-1.3448,1.4248Z"/><path d="M243.3844,137.786l-.0693-.6075h-.03a1.7967,1.7967,0,0,1-1.4746.7168,1.3738,1.3738,0,0,1-1.4746-1.3847c0-1.166,1.0361-1.8037,2.8994-1.794v-.1a.9935.9935,0,0,0-1.0957-1.1152,2.4,2.4,0,0,0-1.2558.3584l-.1993-.5781a2.9964,2.9964,0,0,1,1.585-.4288c1.4746,0,1.833,1.0069,1.833,1.9737V136.63a6.8174,6.8174,0,0,0,.0791,1.1563Zm-.1289-2.461c-.957-.02-2.0429.1494-2.0429,1.086a.7758.7758,0,0,0,.8271.8369,1.1979,1.1979,0,0,0,1.165-.8067.906.906,0,0,0,.0508-.2793Z"/><path d="M245.5163,134.4676c0-.5674-.01-1.0557-.04-1.5039h.7676l.0293.9463h.04a1.448,1.448,0,0,1,1.335-1.0567.9755.9755,0,0,1,.25.03v.8272a1.337,1.337,0,0,0-.2988-.03,1.23,1.23,0,0,0-1.1758,1.126,2.4206,2.4206,0,0,0-.04.4092v2.57h-.8672Z"/><path d="M248.7741,130.7117h.8769v7.0743h-.8769Z"/><path d="M252.1012,131.6082a.543.543,0,0,1-1.0859,0,.5346.5346,0,0,1,.5488-.5478A.52.52,0,0,1,252.1012,131.6082Zm-.9765,6.1778v-4.8223h.8769v4.8223Z"/><path d="M253.945,135.534a1.5446,1.5446,0,0,0,1.6533,1.6738,3.1642,3.1642,0,0,0,1.335-.249l.15.6279a3.9086,3.9086,0,0,1-1.6044.2989,2.24,2.24,0,0,1-2.3721-2.4317,2.3418,2.3418,0,0,1,2.2617-2.6006,2.0436,2.0436,0,0,1,1.9932,2.2725,3.1568,3.1568,0,0,1-.03.4082Zm2.57-.6279a1.2489,1.2489,0,0,0-1.2158-1.4248,1.4529,1.4529,0,0,0-1.3448,1.4248Z"/><path d="M258.4469,134.4676c0-.5674-.01-1.0557-.039-1.5039h.7675l.0293.9463h.04a1.4469,1.4469,0,0,1,1.3349-1.0567.9622.9622,0,0,1,.2491.03v.8272a1.3315,1.3315,0,0,0-.2989-.03,1.23,1.23,0,0,0-1.1757,1.126,2.5165,2.5165,0,0,0-.04.4092v2.57h-.8672Z"/><path d="M266.7165,137.786l-.0694-.6075h-.03a1.797,1.797,0,0,1-1.4747.7168,1.3738,1.3738,0,0,1-1.4746-1.3847c0-1.166,1.0371-1.8037,2.9-1.794v-.1a.9942.9942,0,0,0-1.0967-1.1152,2.3938,2.3938,0,0,0-1.2548.3584l-.1993-.5781a2.9954,2.9954,0,0,1,1.584-.4288c1.4746,0,1.833,1.0069,1.833,1.9737V136.63a6.8106,6.8106,0,0,0,.08,1.1563Zm-.1289-2.461c-.9571-.02-2.043.1494-2.043,1.086a.7758.7758,0,0,0,.8271.8369,1.2,1.2,0,0,0,1.1661-.8067.9073.9073,0,0,0,.05-.2793Z"/><path d="M268.8483,134.2684c0-.4981-.01-.9063-.04-1.3047h.7773l.05.7969h.02a1.7729,1.7729,0,0,1,1.5938-.9073c.6679,0,1.7041.4,1.7041,2.0528v2.88h-.877v-2.78c0-.7774-.289-1.4248-1.1162-1.4248a1.2855,1.2855,0,0,0-1.2353,1.3057v2.8994h-.877Z"/><path d="M278.5426,130.7117v5.8291c0,.4278.01.9161.04,1.2452h-.7871l-.04-.8369h-.0195a1.785,1.785,0,0,1-1.6445.9462,2.1983,2.1983,0,0,1-2.0625-2.4511,2.3075,2.3075,0,0,1,2.1621-2.5909,1.6154,1.6154,0,0,1,1.455.7374h.02v-2.879Zm-.8769,4.2149a1.5263,1.5263,0,0,0-.04-.3692,1.2891,1.2891,0,0,0-1.2646-1.0166c-.9072,0-1.4453.7979-1.4453,1.8633,0,.9766.4785,1.7842,1.4248,1.7842a1.3176,1.3176,0,0,0,1.2851-1.0469,1.4945,1.4945,0,0,0,.04-.3779Z"/><path d="M282.2184,136.89a2.3,2.3,0,0,0,1.1563.3486c.6367,0,.9355-.3193.9355-.7178,0-.4179-.248-.6474-.8965-.8867-.8672-.3086-1.2754-.7871-1.2754-1.3652a1.4876,1.4876,0,0,1,1.6641-1.4151,2.3955,2.3955,0,0,1,1.1855.3l-.2187.6376a1.8723,1.8723,0,0,0-.9863-.2792c-.5186,0-.8076.2988-.8076.6572,0,.3984.289.5781.9169.8174.837.3183,1.2657.7373,1.2657,1.455,0,.8467-.6582,1.4444-1.8037,1.4444A2.7453,2.7453,0,0,1,282,137.5565Z"/><path d="M287.2594,131.6082a.543.543,0,0,1-1.0859,0,.5338.5338,0,0,1,.5478-.5478A.52.52,0,0,1,287.2594,131.6082Zm-.9765,6.1778v-4.8223h.8769v4.8223Z"/><path d="M288.6139,134.2684c0-.4981-.01-.9063-.04-1.3047h.7676l.04.7773h.03a1.66,1.66,0,0,1,1.5136-.8877,1.4263,1.4263,0,0,1,1.3653.9668h.02a1.9929,1.9929,0,0,1,.5381-.6279,1.6482,1.6482,0,0,1,1.0664-.3389c.6367,0,1.584.419,1.584,2.0928v2.84h-.8575v-2.7305c0-.9268-.3388-1.4844-1.0459-1.4844a1.1359,1.1359,0,0,0-1.0361.7969,1.4434,1.4434,0,0,0-.07.4385v2.98h-.8564v-2.89c0-.7676-.3389-1.3252-1.0069-1.3252a1.1983,1.1983,0,0,0-1.0859.877,1.2119,1.2119,0,0,0-.0694.4287v2.9092h-.8574Z"/><path d="M296.9225,134.5379c0-.6181-.0195-1.1162-.04-1.5742h.7871l.041.8271h.0195a1.8966,1.8966,0,0,1,1.7139-.9375,2.1853,2.1853,0,0,1,2.042,2.4512c0,1.7344-1.0557,2.5908-2.1914,2.5908a1.6889,1.6889,0,0,1-1.4844-.7568H297.79v2.62h-.8672Zm.8672,1.2852a2.0032,2.0032,0,0,0,.04.3584,1.3519,1.3519,0,0,0,1.3145,1.0263c.9277,0,1.4648-.7568,1.4648-1.8632,0-.9659-.5078-1.793-1.4345-1.793a1.3989,1.3989,0,0,0-1.3252,1.0859,1.4485,1.4485,0,0,0-.06.3584Z"/><path d="M302.5915,130.7117h.8769v7.0743h-.8769Z"/><path d="M305.92,131.6082a.5435.5435,0,0,1-1.0869,0,.5344.5344,0,0,1,.5478-.5478A.5211.5211,0,0,1,305.92,131.6082Zm-.9766,6.1778v-4.8223h.877v4.8223Z"/><path d="M307.3639,137.786v-4.1553h-.6777v-.667h.6777v-.23a2.2738,2.2738,0,0,1,.5576-1.6836,1.6767,1.6767,0,0,1,1.1758-.4482,2.0431,2.0431,0,0,1,.7471.1386l-.1191.6778a1.3159,1.3159,0,0,0-.5577-.1094c-.748,0-.9375.6572-.9375,1.3945v.26h1.166v.667H308.23v4.1553Z"/><path d="M310.5016,132.9637l1.0567,2.85c.1093.3184.2285.6973.3086.9863h.0195c.09-.289.1894-.6582.3086-1.0068l.957-2.8291h.9268l-1.3155,3.4375a7.32,7.32,0,0,1-1.6543,3.0186,2.37,2.37,0,0,1-1.0761.5683l-.2188-.7373a2.334,2.334,0,0,0,.7676-.4287,2.67,2.67,0,0,0,.7373-.9766.6226.6226,0,0,0,.0693-.2089.7627.7627,0,0,0-.06-.2295l-1.7842-4.4434Z"/><path d="M110.1227,159.8826a3.1559,3.1559,0,0,0-.6572.0391,2.6334,2.6334,0,0,0-2.252,2.3018h.0293a1.9745,1.9745,0,0,1,3.5176,1.3457,2.1651,2.1651,0,0,1-2.1523,2.2812c-1.3848,0-2.292-1.0762-2.292-2.76a4.0738,4.0738,0,0,1,1.0967-2.92,3.5276,3.5276,0,0,1,2.0722-.956,4.1775,4.1775,0,0,1,.6377-.05Zm-.249,3.7364a1.3166,1.3166,0,0,0-1.335-1.4854,1.4431,1.4431,0,0,0-1.2558.7979.7462.7462,0,0,0-.1.3886c.02,1.0655.5078,1.8526,1.4248,1.8526C109.3659,165.1727,109.8737,164.5457,109.8737,163.619Z"/><path d="M111.6071,165.2225a.5886.5886,0,0,1,.5976-.627.6285.6285,0,1,1-.5976.627Z"/><path d="M113.5993,165.741v-.538l.6875-.668c1.6543-1.5742,2.4013-2.4111,2.4111-3.3877a1.1553,1.1553,0,0,0-1.2851-1.2647,2.2057,2.2057,0,0,0-1.375.5479l-.2793-.6182a2.8391,2.8391,0,0,1,1.833-.6572,1.8222,1.8222,0,0,1,1.9834,1.8828c0,1.1963-.8672,2.1621-2.2325,3.4776l-.5175.4785v.0195h2.9091v.7275Z"/><path d="M122.5758,160.0018h-2.4707l-.25,1.664a3.518,3.518,0,0,1,.5284-.04,2.739,2.739,0,0,1,1.3955.3486,1.8461,1.8461,0,0,1,.9257,1.6641,2.2464,2.2464,0,0,1-2.4111,2.2119,3.1747,3.1747,0,0,1-1.6142-.3984l.22-.667a2.9,2.9,0,0,0,1.3847.3584,1.4288,1.4288,0,0,0,1.5342-1.4053c-.01-.8369-.5674-1.4346-1.8633-1.4346a6.8115,6.8115,0,0,0-.8964.0694l.4189-3.1084h3.0986Z"/><path d="M126.4108,160.5l2.1318,2.1826,2.1328-2.1826.4385.4385-2.1426,2.1826,2.1426,2.1817-.4385.4384-2.1328-2.1816-2.1318,2.1816-.4385-.4384,2.1328-2.1817-2.1328-2.1826Z"/><path class="cls-7" d="M138.5309,159.3651v-1.7637h-3.01v-.5781l2.89-4.1348h.9463v4.0254h.9072v.6875h-.9072v1.7637Zm0-2.4512v-2.1621q0-.5084.0293-1.0166h-.0293c-.2.3789-.3594.6582-.539.957l-1.584,2.2022v.02Z"/><line class="cls-8" x1="135.372" y1="163.171" x2="140.304" y2="163.171"/><path class="cls-7" d="M139.6862,166.3768h-2.4717l-.248,1.664a3.5014,3.5014,0,0,1,.5273-.04,2.741,2.741,0,0,1,1.3955.3486,1.8468,1.8468,0,0,1,.9268,1.6641,2.2473,2.2473,0,0,1-2.4121,2.2119,3.168,3.168,0,0,1-1.6133-.3984l.2187-.667a2.9042,2.9042,0,0,0,1.3848.3584,1.43,1.43,0,0,0,1.5352-1.4053c-.0108-.8369-.5684-1.4346-1.8633-1.4346a6.8158,6.8158,0,0,0-.8975.0694l.419-3.1084h3.0986Z"/><path d="M149.3327,166l-2.3615-2.3515L144.62,166l-.4683-.4683,2.3416-2.3615-2.3416-2.3515.4783-.4683,2.3415,2.3415,2.3615-2.3415.4683.4583L147.46,163.17l2.3415,2.3515Zm3.9146-.2591v-.279c.9367,0,1.2854-.1694,1.2854-.6676V160.58c0-.3488-.08-.4883-.3288-.4883a4.3124,4.3124,0,0,0-1.0163.1594v-.3288l1.933-.548h.2889v5.42c0,.4883.3687.6676,1.2854.6676v.279Zm6.5955.11c-1.6042,0-2.1921-1.5345-2.1921-3.2981,0-1.8931.7672-3.2084,2.212-3.2084,1.2854,0,2.1821,1.1857,2.1821,3.2383C162.0448,164.2863,161.4071,165.8506,159.8428,165.8506Zm-.01-6.1677c-.7871,0-1.2255.9466-1.2255,2.9194,0,1.9331.4384,2.89,1.2355,2.89.7871,0,1.2355-.9366,1.2355-2.85C161.0783,160.62,160.65,159.6829,159.8328,159.6829Zm5.8577,2.8v-.6776h5.9385v.6776Zm0,2.0326v-.6676h5.9385v.6676Zm12.9618-1.933v.05c.3587.2491.558.7573,1.375,2.3017a.8753.8753,0,0,0,.9167.5082l-.06.2989H179.37c-.7473-1.6441-.9565-2.0625-1.2654-2.67-.1495-.2789-.279-.3387-.6377-.3387h-.2093l-.3686,1.7736c-.1694.827-.06.9366.7971.9366l-.05.2989h-2.75l.06-.2989c.7373,0,.8868-.1,1.0562-.9366l.8768-4.2746c.11-.548.05-.7373-.7473-.7373l.06-.2989h2.3415c1.395,0,2.212.4085,2.212,1.375C180.7447,161.9746,179.5192,162.433,178.6523,162.5824Zm-1.3252-.2192.3089.01c1.1956-.04,2.1223-.4883,2.1223-1.7637,0-.538-.2989-1.0262-1.2854-1.0262a5.3952,5.3952,0,0,0-.5878.03Z"/><path d="M186.0271,166.8637a2.7971,2.7971,0,0,1-2.2384,1.053,1.7672,1.7672,0,0,1-2.0014-1.8968,3.02,3.02,0,0,1,3.1171-3.1867,3.148,3.148,0,0,1,1.1785.2649c.0906,0,.1673-.0906.3207-.258h.2511l-.3417,1.7434h-.3c.0209-.9763-.3905-1.3877-1.22-1.3877a2.366,2.366,0,0,0-2.1757,2.6219,1.358,1.358,0,0,0,1.5481,1.5272,2.4471,2.4471,0,0,0,1.6945-.6416Z"/><path d="M190.07,160.5l2.1318,2.1826,2.1328-2.1826.4385.4385-2.1426,2.1826,2.1426,2.1817-.4385.4384-2.1328-2.1816L190.07,165.741l-.4385-.4384,2.1318-2.1817-2.1318-2.1826Z"/><path d="M201.6969,160.0018h-2.4716l-.2491,1.664a3.5176,3.5176,0,0,1,.5283-.04,2.7417,2.7417,0,0,1,1.3956.3486,1.8461,1.8461,0,0,1,.9257,1.6641,2.2464,2.2464,0,0,1-2.4111,2.2119,3.1725,3.1725,0,0,1-1.6143-.3984l.22-.667a2.9,2.9,0,0,0,1.3847.3584,1.4288,1.4288,0,0,0,1.5342-1.4053c-.01-.8369-.5674-1.4346-1.8633-1.4346a6.8115,6.8115,0,0,0-.8964.0694l.4179-3.1084h3.1Z"/><path d="M203.0114,165.2225a.5886.5886,0,0,1,.5976-.627.6285.6285,0,1,1-.5976.627Z"/><path d="M209.2086,159.2645v.5781l-2.82,5.8984h-.9062l2.81-5.7294v-.02h-3.169v-.7275Z"/><path d="M212.7145,160.5l2.1318,2.1826,2.1329-2.1826.4384.4385-2.1425,2.1826,2.1425,2.1817-.4384.4384-2.1329-2.1816-2.1318,2.1816-.4385-.4384,2.1319-2.1817-2.1319-2.1826Z"/><path class="cls-4" d="M226.7477,153.6258H224.277l-.249,1.6641a3.5011,3.5011,0,0,1,.5283-.04,2.7339,2.7339,0,0,1,1.3945.3487,1.8465,1.8465,0,0,1,.9268,1.664,2.2469,2.2469,0,0,1-2.4111,2.2119,3.1722,3.1722,0,0,1-1.6143-.3984l.22-.668a2.8882,2.8882,0,0,0,1.3848.3594,1.4294,1.4294,0,0,0,1.5342-1.4053c-.01-.8369-.5674-1.4345-1.8633-1.4345a6.8155,6.8155,0,0,0-.8965.0693l.418-3.1084h3.0986Z"/><line class="cls-6" x1="222.434" y1="163.171" x2="227.366" y2="163.171"/><path class="cls-4" d="M223.0915,171.1092a2.9214,2.9214,0,0,0,1.4345.4092c1.126,0,1.4746-.7178,1.4649-1.2559-.01-.9062-.8272-1.2949-1.6739-1.2949h-.4882v-.6582h.4882c.6377,0,1.4444-.3281,1.4444-1.0957,0-.5186-.3281-.9766-1.1358-.9766a2.3749,2.3749,0,0,0-1.2949.4287l-.23-.6376a3.0788,3.0788,0,0,1,1.6944-.4981c1.2754,0,1.8525.7568,1.8525,1.544a1.6079,1.6079,0,0,1-1.1953,1.5244v.02a1.6872,1.6872,0,0,1,1.4453,1.664c0,1.0362-.8076,1.9424-2.3623,1.9424a3.2842,3.2842,0,0,1-1.6836-.4385Z"/><path d="M153.9548,196.8824v.05c.3588.2491.558.7573,1.3751,2.3017a.8753.8753,0,0,0,.9167.5082l-.06.2989h-1.5145c-.7473-1.6441-.9566-2.0625-1.2655-2.67-.1494-.2789-.279-.3387-.6377-.3387H152.56l-.3687,1.7736c-.1694.827-.06.9366.7971.9366l-.05.2989h-2.75l.06-.2989c.7374,0,.8868-.1,1.0562-.9366l.8769-4.2746c.11-.548.05-.7373-.7473-.7373l.06-.2989h2.3416c1.3949,0,2.212.4085,2.212,1.375C156.0473,196.2746,154.8217,196.733,153.9548,196.8824Zm-1.3252-.2192.3089.01c1.1957-.04,2.1224-.4883,2.1224-1.7637,0-.538-.299-1.0262-1.2854-1.0262a5.3971,5.3971,0,0,0-.5879.03Z"/><path d="M161.3231,201.1637a2.7972,2.7972,0,0,1-2.2385,1.053,1.7672,1.7672,0,0,1-2.0013-1.8968,3.02,3.02,0,0,1,3.1171-3.1867,3.1472,3.1472,0,0,1,1.1784.2649c.0907,0,.1674-.0906.3208-.258h.2511l-.3417,1.7434h-.3c.0209-.9763-.3905-1.3877-1.22-1.3877a2.366,2.366,0,0,0-2.1757,2.6219,1.358,1.358,0,0,0,1.5481,1.5272,2.4471,2.4471,0,0,0,1.6945-.6416Z"/><path d="M165.48,196.6834v-.5986h5.1416v.5986Zm0,1.9522v-.5977h5.1416v.5977Z"/><path d="M180.3629,183.86a3.1681,3.1681,0,0,0-.6582.039,2.6345,2.6345,0,0,0-2.2519,2.3018h.03a1.9744,1.9744,0,0,1,3.5175,1.3457,2.1657,2.1657,0,0,1-2.1523,2.2813c-1.3848,0-2.292-1.0762-2.292-2.76a4.0774,4.0774,0,0,1,1.0957-2.92,3.5333,3.5333,0,0,1,2.0733-.9561,4.18,4.18,0,0,1,.6376-.05Zm-.249,3.7363a1.3166,1.3166,0,0,0-1.3349-1.4853,1.4433,1.4433,0,0,0-1.2559.7978.7463.7463,0,0,0-.1.3887c.02,1.0654.5078,1.8525,1.4248,1.8525C179.6051,189.15,180.1139,188.5233,180.1139,187.5965Z"/><path d="M181.8463,189.2a.5887.5887,0,0,1,.5977-.6269.6285.6285,0,1,1-.5977.6269Z"/><path d="M183.84,189.7186v-.5381l.6875-.668c1.6533-1.5742,2.4-2.4111,2.41-3.3877a1.1548,1.1548,0,0,0-1.2852-1.2646,2.2056,2.2056,0,0,0-1.375.5478l-.2783-.6181a2.8392,2.8392,0,0,1,1.833-.6573,1.8219,1.8219,0,0,1,1.9824,1.8829c0,1.1953-.8662,2.1621-2.2314,3.4775l-.5186.4785v.02h2.91v.7276Z"/><path d="M192.8161,183.9793h-2.4717l-.249,1.6641a3.5143,3.5143,0,0,1,.5283-.04,2.7341,2.7341,0,0,1,1.3945.3487,1.8447,1.8447,0,0,1,.9268,1.664,2.2465,2.2465,0,0,1-2.4112,2.212,3.169,3.169,0,0,1-1.6142-.3985l.2187-.6679a2.8973,2.8973,0,0,0,1.3858.3593,1.4288,1.4288,0,0,0,1.5342-1.4052c-.01-.837-.5684-1.4346-1.8633-1.4346a6.7865,6.7865,0,0,0-.8965.0693l.418-3.1084h3.1Z"/><path d="M196.65,184.4774l2.1328,2.1826,2.1328-2.1826.4375.4384-2.1416,2.1827,2.1416,2.1816-.4375.4385-2.1328-2.1817-2.1328,2.1817-.4375-.4385,2.1318-2.1816-2.1318-2.1827Z"/><path class="cls-7" d="M207.821,183.8914v-1.2343h-2.1055v-.4043l2.0224-2.8936H208.4v2.8164h.6347v.4815H208.4v1.2343Zm0-1.7158v-1.5127q0-.356.0214-.7109h-.0214c-.14.2646-.251.46-.376.6689l-1.1094,1.541v.0137Z"/><line class="cls-8" x1="205.611" y1="187.149" x2="209.544" y2="187.149"/><path class="cls-7" d="M208.8473,191.53h-1.73l-.1748,1.1641a2.488,2.488,0,0,1,.37-.0274,1.9115,1.9115,0,0,1,.9766.2442,1.2917,1.2917,0,0,1,.6484,1.164,1.5729,1.5729,0,0,1-1.6875,1.5489,2.2165,2.2165,0,0,1-1.13-.2793l.1533-.4678a2.0208,2.0208,0,0,0,.97.2519,1,1,0,0,0,1.0732-.9834c-.0068-.5859-.3974-1.0048-1.3037-1.0048a4.7636,4.7636,0,0,0-.6279.0488l.293-2.1748h2.1689Z"/><path d="M213.7907,184.4774l2.1328,2.1826,2.1318-2.1826.4385.4384-2.1426,2.1827,2.1426,2.1816-.4385.4385-2.1318-2.1817-2.1328,2.1817-.4385-.4385,2.1318-2.1816-2.1318-2.1827Z"/><path d="M223.4547,184.0594h-.0195l-1.1269.6074-.169-.6679,1.4151-.7569h.747v6.4766h-.8467Z"/><path d="M230.9665,186.411c0,2.2011-.8164,3.417-2.252,3.417-1.2656,0-2.1221-1.1856-2.1426-3.3282,0-2.1718.9375-3.3672,2.252-3.3672C230.1891,183.1326,230.9665,184.3485,230.9665,186.411Zm-3.5176.1c0,1.6836.5185,2.64,1.3154,2.64.8975,0,1.3252-1.0459,1.3252-2.7,0-1.5937-.4082-2.64-1.3144-2.64C228.0075,183.81,227.4489,184.7469,227.4489,186.5106Z"/><line class="cls-5" x1="176.218" y1="197.471" x2="231.556" y2="197.471"/><path d="M193.5456,203.9666h-2.4717l-.249,1.6641a3.5165,3.5165,0,0,1,.5283-.04,2.734,2.734,0,0,1,1.3945.3486,1.8447,1.8447,0,0,1,.9268,1.664,2.2465,2.2465,0,0,1-2.4112,2.212,3.1746,3.1746,0,0,1-1.6142-.3985l.22-.667a2.9008,2.9008,0,0,0,1.3848.3584,1.4288,1.4288,0,0,0,1.5342-1.4052c-.01-.837-.5674-1.4346-1.8633-1.4346a6.8141,6.8141,0,0,0-.8965.0693l.4189-3.1084h3.0987Z"/><path d="M194.859,209.1873a.5894.5894,0,0,1,.5987-.6269.6285.6285,0,0,1-.0108,1.2549A.5874.5874,0,0,1,194.859,209.1873Z"/><path d="M201.0563,203.2293v.5781l-2.8193,5.8985h-.9063l2.81-5.73v-.02h-3.169v-.7276Z"/><path d="M204.5534,204.4647l2.1318,2.1826,2.1328-2.1826.4385.4385-2.1426,2.1826,2.1426,2.1816-.4385.4385-2.1328-2.1817-2.1318,2.1817-.4385-.4385,2.1318-2.1816-2.1318-2.1826Z"/><path class="cls-4" d="M216.7887,199.8612H215.06l-.1748,1.164a2.4823,2.4823,0,0,1,.37-.0273,1.9088,1.9088,0,0,1,.9756.2441,1.292,1.292,0,0,1,.6484,1.1641,1.5729,1.5729,0,0,1-1.6875,1.5488,2.2184,2.2184,0,0,1-1.13-.2793l.1543-.4668a2.0287,2.0287,0,0,0,.9687.251,1,1,0,0,0,1.0742-.9834c-.0078-.5859-.3974-1.0049-1.3047-1.0049a4.7465,4.7465,0,0,0-.6269.0488l.293-2.1748h2.1679Z"/><line class="cls-6" x1="213.693" y1="207.136" x2="217.347" y2="207.136"/><path class="cls-4" d="M214.153,214.8289a2.0552,2.0552,0,0,0,1.0039.2862c.7881,0,1.0322-.503,1.0254-.8789-.0069-.6348-.5791-.9063-1.1719-.9063H214.67v-.4609h.3408c.4463,0,1.0117-.23,1.0117-.7666,0-.3623-.23-.6836-.7949-.6836a1.6664,1.6664,0,0,0-.9072.3l-.16-.4463a2.16,2.16,0,0,1,1.1856-.3486c.8925,0,1.2968.53,1.2968,1.081a1.1257,1.1257,0,0,1-.8369,1.0664v.0147a1.1806,1.1806,0,0,1,1.0117,1.164c0,.7256-.5654,1.36-1.6533,1.36a2.2985,2.2985,0,0,1-1.1777-.3076Z"/><path d="M153.9548,232.21v.05c.3588.2491.558.7573,1.3751,2.3017a.8753.8753,0,0,0,.9167.5082l-.06.2989h-1.5145c-.7473-1.6441-.9566-2.0626-1.2655-2.67-.1494-.2789-.279-.3387-.6377-.3387H152.56l-.3687,1.7736c-.1694.827-.06.9366.7971.9366l-.05.2989h-2.75l.06-.2989c.7374,0,.8868-.1,1.0562-.9366l.8769-4.2746c.11-.548.05-.7373-.7473-.7373l.06-.2989h2.3416c1.3949,0,2.212.4085,2.212,1.375C156.0473,231.6026,154.8217,232.061,153.9548,232.21Zm-1.3252-.2192.3089.01c1.1957-.04,2.1224-.4883,2.1224-1.7637,0-.538-.299-1.0262-1.2854-1.0262a5.3971,5.3971,0,0,0-.5879.03Z"/><path d="M161.3231,236.4917a2.7972,2.7972,0,0,1-2.2385,1.053,1.7672,1.7672,0,0,1-2.0013-1.8968,3.02,3.02,0,0,1,3.1171-3.1867,3.1472,3.1472,0,0,1,1.1784.2649c.0907,0,.1674-.0906.3208-.258h.2511l-.3417,1.7434h-.3c.0209-.9763-.3905-1.3877-1.22-1.3877a2.366,2.366,0,0,0-2.1757,2.6219,1.358,1.358,0,0,0,1.5481,1.5272,2.4471,2.4471,0,0,0,1.6945-.6416Z"/><path d="M165.48,232.0116v-.5987h5.1416v.5987Zm0,1.9521v-.5977h5.1416v.5977Z"/><path d="M178.569,223.3348H178.55l-1.126.6074-.17-.668,1.415-.7568h.7471v6.4766h-.8467Z"/><path d="M186.0817,225.6864c0,2.2011-.8174,3.4169-2.252,3.4169-1.2656,0-2.123-1.1855-2.1425-3.3281,0-2.1719.9365-3.3672,2.2519-3.3672C185.3044,222.408,186.0817,223.6239,186.0817,225.6864Zm-3.5176.1c0,1.6836.5176,2.64,1.3145,2.64.8974,0,1.3261-1.0459,1.3261-2.7,0-1.5937-.4091-2.64-1.3154-2.64C183.1217,223.0858,182.5641,224.0223,182.5641,225.786Z"/><path d="M191.192,225.6864c0,2.2011-.8173,3.4169-2.2519,3.4169-1.2656,0-2.1221-1.1855-2.1426-3.3281,0-2.1719.9365-3.3672,2.252-3.3672C190.4147,222.408,191.192,223.6239,191.192,225.6864Zm-3.5175.1c0,1.6836.5185,2.64,1.3154,2.64.8965,0,1.3252-1.0459,1.3252-2.7,0-1.5937-.4082-2.64-1.3154-2.64C188.2321,223.0858,187.6745,224.0223,187.6745,225.786Z"/><line class="cls-5" x1="176.218" y1="232.799" x2="191.013" y2="232.799"/><path d="M181.0348,236.0858h-.02l-1.126.6074-.17-.668,1.416-.7568h.7471v6.4765h-.8467Z"/><path d="M184.75,241.1268a3.66,3.66,0,0,0,.708-.0293,2.4457,2.4457,0,0,0,1.3545-.6279,2.8432,2.8432,0,0,0,.8574-1.7237h-.03a1.9,1.9,0,0,1-1.5244.6973,1.8759,1.8759,0,0,1-1.9131-1.9824,2.2205,2.2205,0,0,1,2.2119-2.3018c1.3252,0,2.1426,1.0762,2.1426,2.73a4.0914,4.0914,0,0,1-1.1162,3.0391,3.24,3.24,0,0,1-1.8828.8672,4.1138,4.1138,0,0,1-.8076.05Zm.3193-3.7266a1.2457,1.2457,0,0,0,1.2451,1.375,1.448,1.448,0,0,0,1.2754-.6767.5813.5813,0,0,0,.08-.3194c0-1.1054-.4082-1.9531-1.3252-1.9531C185.5973,235.826,185.069,236.4842,185.069,237.4Z"/><path d="M194.6247,235.369v-6.7158h.9472l2.1524,3.3974a18.9631,18.9631,0,0,1,1.2051,2.1826l.02-.01c-.0791-.8975-.1-1.7139-.1-2.7608v-2.81h.8174v6.7158h-.877l-2.1318-3.4073a21.3157,21.3157,0,0,1-1.2559-2.2421l-.0293.01c.05.8467.0693,1.6543.0693,2.77v2.8692Z"/><line class="cls-9" x1="334.368" y1="238.428" x2="334.368" y2="59.1"/><g class="cls-10"><polygon class="cls-11" points="361.159 150.121 440.53 150.121 361.159 90.592 361.159 150.121"/><polyline class="cls-11" points="361.159 145.755 365.524 145.755 365.524 150.121"/><path class="cls-11" d="M429.4182,141.7868a13.8927,13.8927,0,0,0-2.7783,8.3338"/><path d="M418.7807,145.7592c-.7458,0-1.0756-.4632-1.0756-1.4053,0-1.366.9107-3.9253,2.4023-3.9253.5731,0,1.0049.4946,1.0049,1.5387C421.1123,143.506,419.99,145.7592,418.7807,145.7592Zm-.22-2.5044a4.7134,4.7134,0,0,0-.1963,1.2954c0,.5417.1178.9813.4553.9813.526,0,.9971-1.0284,1.24-1.8057.055-.18.1021-.4.1256-.471Zm1.6957-.2826a6.8951,6.8951,0,0,0,.1963-1.3032c0-.5731-.0785-1.0128-.4-1.0128-.5653,0-1.209,1.3817-1.4132,2.316Z"/><path d="M401.3688,160.7049v-1.3887H399v-.4541l2.2744-3.2548h.7451v3.1679h.7139v.541h-.7139v1.3887Zm0-1.93v-1.7011q0-.4014.0234-.8008h-.0234c-.1572.2988-.2832.5175-.4238.7529l-1.2471,1.7334v.0156Z"/><path d="M351.778,122.1522a2.3152,2.3152,0,0,0,1.13.3213c.8857,0,1.16-.5645,1.1523-.9883-.0078-.7139-.65-1.02-1.3174-1.02h-.3838v-.5176h.3838c.502,0,1.1377-.2588,1.1377-.8623,0-.4082-.26-.7686-.8945-.7686a1.8685,1.8685,0,0,0-1.0195.3369l-.1807-.5019a2.4207,2.4207,0,0,1,1.333-.3926c1.0039,0,1.459.5967,1.459,1.2158a1.266,1.266,0,0,1-.9414,1.2v.0156a1.328,1.328,0,0,1,1.1377,1.31c0,.8154-.6358,1.5293-1.8584,1.5293a2.59,2.59,0,0,1-1.3262-.3447Z"/><path d="M412.1989,118.4266h-1.9444l-.1962,1.31a2.7211,2.7211,0,0,1,.416-.0313,2.151,2.151,0,0,1,1.0976.2744,1.4529,1.4529,0,0,1,.7295,1.31,1.7684,1.7684,0,0,1-1.8974,1.7412,2.4927,2.4927,0,0,1-1.2715-.3135l.1728-.5254a2.2907,2.2907,0,0,0,1.09.2823,1.125,1.125,0,0,0,1.208-1.1055c-.0078-.6592-.4473-1.13-1.4668-1.13a5.2778,5.2778,0,0,0-.7051.0547l.3291-2.4463h2.4385Z"/></g><path d="M350.9684,170.9979h-2.043v-.7373h4.9727v.7373h-2.0527v5.9785h-.877Z"/><path d="M354.6149,169.9022h.877v3.0088h.0195a1.6233,1.6233,0,0,1,.6279-.6172,1.7931,1.7931,0,0,1,.8965-.25c.6475,0,1.6836.3994,1.6836,2.0635v2.8691h-.876v-2.77c0-.7774-.289-1.4356-1.1162-1.4356a1.259,1.259,0,0,0-1.1758.877,1.0645,1.0645,0,0,0-.06.4189v2.9092h-.877Z"/><path d="M360.6315,174.7244a1.5454,1.5454,0,0,0,1.6543,1.6739,3.1639,3.1639,0,0,0,1.335-.2491l.1494.628a3.9039,3.9039,0,0,1-1.6045.2988,2.24,2.24,0,0,1-2.3711-2.4316,2.3418,2.3418,0,0,1,2.2617-2.6006,2.0441,2.0441,0,0,1,1.9932,2.2724,3.33,3.33,0,0,1-.03.4082Zm2.5713-.6279a1.2489,1.2489,0,0,0-1.2158-1.4248,1.4529,1.4529,0,0,0-1.3448,1.4248Z"/><path d="M367.4762,169.9022h.877v7.0742h-.877Z"/><path d="M370.3151,174.7244a1.5454,1.5454,0,0,0,1.6543,1.6739,3.1639,3.1639,0,0,0,1.335-.2491l.1494.628a3.9039,3.9039,0,0,1-1.6045.2988,2.24,2.24,0,0,1-2.3711-2.4316,2.3418,2.3418,0,0,1,2.2617-2.6006,2.0441,2.0441,0,0,1,1.9932,2.2724,3.33,3.33,0,0,1-.03.4082Zm2.5713-.6279a1.2489,1.2489,0,0,0-1.2158-1.4248,1.4528,1.4528,0,0,0-1.3448,1.4248Z"/><path d="M374.818,173.4588c0-.498-.01-.9062-.039-1.3047h.7763l.05.7969h.0205a1.7741,1.7741,0,0,1,1.5938-.9072c.668,0,1.7041.3994,1.7041,2.0527v2.88h-.877v-2.78c0-.7773-.289-1.4248-1.1152-1.4248a1.2453,1.2453,0,0,0-1.1758.8975,1.227,1.227,0,0,0-.06.4082v2.8994h-.877Z"/><path d="M384.5026,172.1541c-.02.3487-.04.7373-.04,1.3252v2.8a2.7736,2.7736,0,0,1-.6875,2.2022,2.5545,2.5545,0,0,1-1.754.5771,3.1051,3.1051,0,0,1-1.6035-.3984l.2188-.667a2.7229,2.7229,0,0,0,1.415.3779c.8965,0,1.5547-.4677,1.5547-1.6836v-.5381h-.0205a1.7214,1.7214,0,0,1-1.5342.8077,2.1562,2.1562,0,0,1-2.0527-2.3516,2.3153,2.3153,0,0,1,2.1728-2.5615,1.6027,1.6027,0,0,1,1.5039.8379h.02l.041-.7276Zm-.9072,1.9024a1.28,1.28,0,0,0-1.2754-1.3252c-.836,0-1.4346.708-1.4346,1.8242,0,.9463.4785,1.7334,1.4248,1.7334a1.2823,1.2823,0,0,0,1.2158-.8965,1.5281,1.5281,0,0,0,.0694-.4687Z"/><path d="M386.9723,170.7684v1.3857h1.2559v.667h-1.2559v2.6006c0,.5977.17.9365.6582.9365a1.9386,1.9386,0,0,0,.5078-.06l.04.6582a2.1572,2.1572,0,0,1-.7774.1191,1.2172,1.2172,0,0,1-.9463-.3682,1.79,1.79,0,0,1-.3388-1.2558v-2.6309h-.7471v-.667h.7471v-1.1562Z"/><path d="M389.2145,169.9022h.877v3.0088h.0195a1.6233,1.6233,0,0,1,.6279-.6172,1.7931,1.7931,0,0,1,.8965-.25c.6475,0,1.6836.3994,1.6836,2.0635v2.8691h-.876v-2.77c0-.7774-.289-1.4356-1.1162-1.4356a1.2591,1.2591,0,0,0-1.1758.877,1.0645,1.0645,0,0,0-.06.4189v2.9092h-.877Z"/><path d="M394.6237,176.08a2.3025,2.3025,0,0,0,1.1562.3486c.6377,0,.9366-.3193.9366-.7177,0-.418-.2491-.6475-.8965-.8867-.8672-.3086-1.2754-.7872-1.2754-1.3653a1.4869,1.4869,0,0,1,1.664-1.415,2.399,2.399,0,0,1,1.1856.3l-.22.6377a1.8724,1.8724,0,0,0-.9864-.2793c-.5185,0-.8076.2988-.8076.6572,0,.3984.2891.5781.917.8174.8369.3183,1.2656.7373,1.2656,1.4551,0,.8466-.6572,1.4443-1.8037,1.4443a2.7512,2.7512,0,0,1-1.3545-.3291Z"/><path d="M405.3942,174.5252a2.3574,2.3574,0,0,1-2.4014,2.5606,2.2921,2.2921,0,0,1-2.3115-2.4805,2.355,2.355,0,0,1,2.3906-2.5615A2.2842,2.2842,0,0,1,405.3942,174.5252Zm-3.8262.05c0,1.0567.6074,1.8535,1.4649,1.8535.8369,0,1.4648-.7871,1.4648-1.873,0-.8174-.4092-1.8535-1.4453-1.8535S401.568,173.658,401.568,174.575Z"/><path d="M406.59,176.9764v-4.1553h-.6777v-.667h.6777v-.23a2.27,2.27,0,0,1,.5576-1.6836,1.6751,1.6751,0,0,1,1.1758-.4482,2.0447,2.0447,0,0,1,.7471.1387l-.1192.6777a1.3167,1.3167,0,0,0-.5586-.1094c-.747,0-.9365.6573-.9365,1.3946v.26h1.166v.667h-1.166v4.1553Z"/><path d="M413.3034,170.7684v1.3857h1.2558v.667h-1.2558v2.6006c0,.5977.17.9365.6582.9365a1.9332,1.9332,0,0,0,.5078-.06l.04.6582a2.16,2.16,0,0,1-.7773.1191,1.2172,1.2172,0,0,1-.9463-.3682,1.79,1.79,0,0,1-.3389-1.2558v-2.6309H411.7v-.667h.747v-1.1562Z"/><path d="M415.5446,169.9022h.8769v3.0088h.0205a1.6236,1.6236,0,0,1,.628-.6172,1.7931,1.7931,0,0,1,.8965-.25c.6474,0,1.6836.3994,1.6836,2.0635v2.8691h-.877v-2.77c0-.7774-.2891-1.4356-1.1152-1.4356a1.259,1.259,0,0,0-1.1758.877,1.0633,1.0633,0,0,0-.0606.4189v2.9092h-.8769Z"/><path d="M422.05,170.7987a.543.543,0,0,1-1.0859,0,.5345.5345,0,0,1,.5479-.5479A.52.52,0,0,1,422.05,170.7987Zm-.9765,6.1777v-4.8223h.8769v4.8223Z"/><path d="M423.2858,176.08a2.3025,2.3025,0,0,0,1.1562.3486c.6377,0,.9366-.3193.9366-.7177,0-.418-.2491-.6475-.8965-.8867-.8672-.3086-1.2754-.7872-1.2754-1.3653a1.487,1.487,0,0,1,1.6641-1.415,2.3989,2.3989,0,0,1,1.1855.3l-.22.6377a1.8722,1.8722,0,0,0-.9863-.2793c-.5186,0-.8077.2988-.8077.6572,0,.3984.2891.5781.917.8174.8369.3183,1.2657.7373,1.2657,1.4551,0,.8466-.6573,1.4443-1.8038,1.4443a2.7512,2.7512,0,0,1-1.3545-.3291Z"/><path d="M350.7194,184.7166v1.3858h1.2549v.667h-1.2549V189.37c0,.5987.1689.9366.6572.9366a1.9274,1.9274,0,0,0,.5078-.06l.041.6582a2.1642,2.1642,0,0,1-.7773.1191,1.218,1.218,0,0,1-.9473-.3681,1.7889,1.7889,0,0,1-.3379-1.2559v-2.6308h-.748v-.667h.748v-1.1563Z"/><path d="M352.9606,187.6063c0-.5674-.01-1.0557-.04-1.5039h.7675l.03.9463h.0391a1.4489,1.4489,0,0,1,1.3359-1.0567.9548.9548,0,0,1,.2481.03v.8271a1.3315,1.3315,0,0,0-.2989-.03,1.2311,1.2311,0,0,0-1.1757,1.1259,2.525,2.525,0,0,0-.0391.4092v2.57h-.8672Z"/><path d="M357.195,184.7469a.543.543,0,0,1-1.086,0,.5339.5339,0,0,1,.5479-.5478A.52.52,0,0,1,357.195,184.7469Zm-.9766,6.1777v-4.8222h.877v4.8222Z"/><path d="M361.22,190.9246l-.07-.6074h-.0293a1.7988,1.7988,0,0,1-1.4747.7168,1.3746,1.3746,0,0,1-1.4755-1.3848c0-1.166,1.0361-1.8037,2.8994-1.7939v-.1a.9935.9935,0,0,0-1.0957-1.1152,2.4019,2.4019,0,0,0-1.2559.3584l-.1992-.5782a2.9961,2.9961,0,0,1,1.585-.4287c1.4746,0,1.833,1.0069,1.833,1.9737v1.8027a6.7193,6.7193,0,0,0,.08,1.1562Zm-.13-2.4609c-.9561-.02-2.043.1494-2.043,1.0859a.7759.7759,0,0,0,.8272.837,1.2,1.2,0,0,0,1.166-.8067.9348.9348,0,0,0,.05-.2793Z"/><path d="M363.3512,187.4071c0-.4981-.01-.9063-.039-1.3047h.7763l.05.7968h.02a1.7741,1.7741,0,0,1,1.5938-.9072c.668,0,1.7041.3994,1.7041,2.0528v2.88h-.877v-2.78c0-.7774-.289-1.4248-1.1152-1.4248a1.2452,1.2452,0,0,0-1.1758.8974,1.227,1.227,0,0,0-.06.4082v2.8994h-.877Z"/><path d="M373.0358,186.1024c-.02.3486-.04.7373-.04,1.3252v2.8a2.7734,2.7734,0,0,1-.6875,2.2021,2.5575,2.5575,0,0,1-1.7539.5772,3.1027,3.1027,0,0,1-1.6036-.3985l.2188-.667a2.7162,2.7162,0,0,0,1.415.378c.8965,0,1.5537-.4678,1.5537-1.6836v-.5381h-.0195a1.7226,1.7226,0,0,1-1.5342.8076,2.1556,2.1556,0,0,1-2.0527-2.3516,2.3153,2.3153,0,0,1,2.1719-2.5615,1.6032,1.6032,0,0,1,1.5048.8379h.02l.04-.7275Zm-.9072,1.9023a1.2459,1.2459,0,0,0-.05-.3984,1.2635,1.2635,0,0,0-1.2256-.9268c-.8369,0-1.4346.708-1.4346,1.8242,0,.9463.4785,1.7334,1.4248,1.7334a1.2822,1.2822,0,0,0,1.2158-.8964,1.5291,1.5291,0,0,0,.0694-.4688Z"/><path d="M374.45,183.85h.8769v7.0742H374.45Z"/><path d="M377.2887,188.6727a1.5454,1.5454,0,0,0,1.6543,1.6738,3.1685,3.1685,0,0,0,1.335-.249l.1494.6279a3.9,3.9,0,0,1-1.6035.2988,2.24,2.24,0,0,1-2.3721-2.4316,2.3418,2.3418,0,0,1,2.2617-2.6006,2.0436,2.0436,0,0,1,1.9932,2.2725,3.14,3.14,0,0,1-.03.4082Zm2.5713-.6279a1.2489,1.2489,0,0,0-1.2158-1.4249,1.4545,1.4545,0,0,0-1.3457,1.4249Z"/><path d="M386.8034,190.9246l-.0694-.6074h-.03a1.7971,1.7971,0,0,1-1.4746.7168,1.3739,1.3739,0,0,1-1.4747-1.3848c0-1.166,1.0362-1.8037,2.8995-1.7939v-.1a.9935.9935,0,0,0-1.0957-1.1152,2.3993,2.3993,0,0,0-1.2559.3584l-.1992-.5782a2.9948,2.9948,0,0,1,1.584-.4287c1.4746,0,1.8339,1.0069,1.8339,1.9737v1.8027a6.7187,6.7187,0,0,0,.08,1.1562Zm-.13-2.4609c-.9561-.02-2.042.1494-2.042,1.0859a.7759.7759,0,0,0,.8271.837,1.2,1.2,0,0,0,1.1661-.8067.9331.9331,0,0,0,.0488-.2793Z"/><path d="M388.9352,187.6063c0-.5674-.01-1.0557-.04-1.5039h.7676l.03.9463h.0391a1.4489,1.4489,0,0,1,1.3359-1.0567.9548.9548,0,0,1,.2481.03v.8271a1.3315,1.3315,0,0,0-.2989-.03,1.2312,1.2312,0,0,0-1.1757,1.1259,2.525,2.525,0,0,0-.0391.4092v2.57h-.8672Z"/><path d="M392.5915,188.6727a1.5449,1.5449,0,0,0,1.6543,1.6738,3.1718,3.1718,0,0,0,1.3349-.249l.1494.6279a3.9022,3.9022,0,0,1-1.6045.2988,2.24,2.24,0,0,1-2.3711-2.4316,2.3413,2.3413,0,0,1,2.2618-2.6006,2.0441,2.0441,0,0,1,1.9931,2.2725,3.356,3.356,0,0,1-.03.4082Zm2.57-.6279a1.2476,1.2476,0,0,0-1.2149-1.4249,1.4545,1.4545,0,0,0-1.3457,1.4249Z"/><path d="M402.1061,190.9246l-.0693-.6074h-.03a1.7971,1.7971,0,0,1-1.4746.7168,1.3738,1.3738,0,0,1-1.4746-1.3848c0-1.166,1.0361-1.8037,2.8994-1.7939v-.1a.9935.9935,0,0,0-1.0957-1.1152,2.3968,2.3968,0,0,0-1.2559.3584l-.1992-.5782a2.9954,2.9954,0,0,1,1.584-.4287c1.4746,0,1.834,1.0069,1.834,1.9737v1.8027a6.8169,6.8169,0,0,0,.0791,1.1562Zm-.13-2.4609c-.956-.02-2.042.1494-2.042,1.0859a.7755.7755,0,0,0,.8272.837,1.2,1.2,0,0,0,1.165-.8067.9043.9043,0,0,0,.05-.2793Z"/><path d="M349.693,198.2371a9.9813,9.9813,0,0,1,1.6641-.13,2.76,2.76,0,0,1,1.8828.5576,1.8057,1.8057,0,0,1,.5879,1.4052,1.98,1.98,0,0,1-.5176,1.4346,2.784,2.784,0,0,1-2.0527.7373,2.9745,2.9745,0,0,1-.6973-.06v2.69h-.8672Zm.8672,3.2383a2.9049,2.9049,0,0,0,.7168.0694c1.0469,0,1.6836-.5079,1.6836-1.4346,0-.8867-.627-1.3154-1.584-1.3154a3.6054,3.6054,0,0,0-.8164.07Z"/><path d="M355.2819,200.0506l1.0557,2.85c.11.3184.2294.6973.31.9864h.02c.09-.2891.1894-.6583.31-1.0069l.9561-2.8291h.9267l-1.3154,3.4375a7.3461,7.3461,0,0,1-1.6533,3.0186,2.38,2.38,0,0,1-1.0762.5683l-.22-.7373a2.3155,2.3155,0,0,0,.7676-.4287,2.6589,2.6589,0,0,0,.7373-.9766.6467.6467,0,0,0,.0693-.2089.7614.7614,0,0,0-.06-.23l-1.7832-4.4434Z"/><path d="M360.7116,198.6649v1.3857h1.2558v.667h-1.2558v2.6006c0,.5976.1689.9365.6572.9365a1.9368,1.9368,0,0,0,.5088-.06l.04.6582a2.1576,2.1576,0,0,1-.7773.1192,1.221,1.221,0,0,1-.9473-.3682,1.7952,1.7952,0,0,1-.3379-1.2558v-2.6309h-.748v-.667h.748v-1.1562Z"/><path d="M362.9528,197.7987h.8769v3.0087h.02a1.6326,1.6326,0,0,1,.6289-.6171,1.7931,1.7931,0,0,1,.8965-.25c.6474,0,1.6836.3994,1.6836,2.0634v2.8692h-.877v-2.77c0-.7773-.2891-1.4355-1.1152-1.4355a1.2589,1.2589,0,0,0-1.1758.877,1.0454,1.0454,0,0,0-.0606.4189v2.9092h-.8769Z"/><path d="M371.152,204.8729l-.0693-.6074h-.03a1.7971,1.7971,0,0,1-1.4746.7168,1.3738,1.3738,0,0,1-1.4746-1.3848c0-1.166,1.0371-1.8037,2.9-1.794v-.1a.9943.9943,0,0,0-1.0967-1.1152,2.4022,2.4022,0,0,0-1.2549.3584l-.1992-.5781a2.9951,2.9951,0,0,1,1.584-.4287c1.4746,0,1.833,1.0068,1.833,1.9736v1.8027a6.8106,6.8106,0,0,0,.08,1.1563Zm-.1289-2.461c-.957-.02-2.043.1495-2.043,1.086a.7759.7759,0,0,0,.8272.8369,1.2,1.2,0,0,0,1.166-.8066.9054.9054,0,0,0,.05-.2793Z"/><path d="M377.4391,200.0506c-.0195.3486-.04.7373-.04,1.3252v2.8a2.7736,2.7736,0,0,1-.6875,2.2022,2.5539,2.5539,0,0,1-1.753.5771,3.1067,3.1067,0,0,1-1.6044-.3984l.2187-.667a2.7229,2.7229,0,0,0,1.415.3779c.8965,0,1.5547-.4678,1.5547-1.6836v-.5381h-.02a1.7212,1.7212,0,0,1-1.5342.8076,2.1562,2.1562,0,0,1-2.0527-2.3515,2.3152,2.3152,0,0,1,2.1719-2.5615,1.6021,1.6021,0,0,1,1.5049.8379h.02l.039-.7276Zm-.9062,1.9024a1.2453,1.2453,0,0,0-.0508-.3985,1.2631,1.2631,0,0,0-1.2246-.9267c-.8379,0-1.4356.708-1.4356,1.8242,0,.9463.4785,1.7334,1.4248,1.7334a1.2825,1.2825,0,0,0,1.2159-.8965,1.53,1.53,0,0,0,.07-.4688Z"/><path d="M383.2672,202.4217a2.3569,2.3569,0,0,1-2.4013,2.5606,2.292,2.292,0,0,1-2.3115-2.4805,2.3557,2.3557,0,0,1,2.3916-2.5615A2.2839,2.2839,0,0,1,383.2672,202.4217Zm-3.8261.05c0,1.0567.6074,1.8535,1.4648,1.8535.8369,0,1.4649-.7871,1.4649-1.873,0-.8174-.4082-1.8535-1.4454-1.8535S379.4411,201.5545,379.4411,202.4715Z"/><path d="M384.3727,201.5545c0-.5674-.01-1.0556-.04-1.5039H385.1l.0292.9463h.04a1.4468,1.4468,0,0,1,1.3349-1.0566.9624.9624,0,0,1,.2491.03v.8272a1.3374,1.3374,0,0,0-.2989-.03,1.2313,1.2313,0,0,0-1.1757,1.126,2.5239,2.5239,0,0,0-.0391.4092v2.57h-.8672Z"/><path d="M388.029,202.6209a1.5449,1.5449,0,0,0,1.6543,1.6739,3.17,3.17,0,0,0,1.3349-.2491l.1494.628a3.9039,3.9039,0,0,1-1.6045.2988,2.24,2.24,0,0,1-2.3711-2.4317,2.3412,2.3412,0,0,1,2.2618-2.6,2.044,2.044,0,0,1,1.9931,2.2724,3.3542,3.3542,0,0,1-.03.4082Zm2.57-.6279a1.2482,1.2482,0,0,0-1.2149-1.4248,1.4537,1.4537,0,0,0-1.3457,1.4248Z"/><path d="M395.2018,204.8729l-.0693-.6074h-.03a1.7971,1.7971,0,0,1-1.4746.7168,1.3738,1.3738,0,0,1-1.4746-1.3848c0-1.166,1.0361-1.8037,2.8994-1.794v-.1a.9935.9935,0,0,0-1.0957-1.1152,2.4087,2.4087,0,0,0-1.2559.3584l-.1992-.5781a2.9954,2.9954,0,0,1,1.584-.4287c1.4746,0,1.834,1.0068,1.834,1.9736v1.8027a6.7091,6.7091,0,0,0,.08,1.1563Zm-.13-2.461c-.956-.02-2.042.1495-2.042,1.086a.7759.7759,0,0,0,.8272.8369,1.2,1.2,0,0,0,1.166-.8066.9342.9342,0,0,0,.0488-.2793Z"/><path d="M397.3336,201.3553c0-.498-.01-.9062-.04-1.3047h.7774l.05.7969h.02a1.7767,1.7767,0,0,1,1.5947-.9072c.668,0,1.7041.3994,1.7041,2.0527v2.88h-.8769v-2.78c0-.7773-.2891-1.4248-1.1162-1.4248a1.286,1.286,0,0,0-1.2354,1.3057v2.8994h-.877Z"/><path d="M406.26,198.6649v1.3857h1.2549v.667H406.26v2.6006c0,.5976.169.9365.6572.9365a1.9274,1.9274,0,0,0,.5078-.06l.0411.6582a2.1627,2.1627,0,0,1-.7774.1192,1.2177,1.2177,0,0,1-.9472-.3682,1.79,1.79,0,0,1-.3379-1.2558v-2.6309h-.7481v-.667h.7481v-1.1562Z"/><path d="M408.5016,201.5545c0-.5674-.01-1.0556-.04-1.5039h.7676l.03.9463h.0391a1.4488,1.4488,0,0,1,1.3359-1.0566.955.955,0,0,1,.2481.03v.8272a1.331,1.331,0,0,0-.2989-.03,1.2313,1.2313,0,0,0-1.1757,1.126,2.5239,2.5239,0,0,0-.0391.4092v2.57h-.8672Z"/><path d="M412.736,198.6951a.543.543,0,0,1-1.0859,0,.5339.5339,0,0,1,.5478-.5478A.52.52,0,0,1,412.736,198.6951Zm-.9766,6.1778v-4.8223h.877v4.8223Z"/><path d="M414.0905,201.6248c0-.6181-.0195-1.1162-.04-1.5742h.7872l.04.8272h.0205a1.8948,1.8948,0,0,1,1.7129-.9375,2.1853,2.1853,0,0,1,2.043,2.4511c0,1.7344-1.0567,2.5909-2.1914,2.5909a1.6907,1.6907,0,0,1-1.4854-.7569h-.0195v2.62h-.8672Zm.8672,1.2852a1.9157,1.9157,0,0,0,.04.3584,1.352,1.352,0,0,0,1.3145,1.0264c.9267,0,1.4648-.7569,1.4648-1.8633,0-.9658-.5078-1.793-1.4346-1.793a1.5175,1.5175,0,0,0-1.3847,1.4443Z"/><path d="M419.7594,197.7987h.877v7.0742h-.877Z"/><path d="M422.5983,202.6209a1.5454,1.5454,0,0,0,1.6543,1.6739,3.1639,3.1639,0,0,0,1.335-.2491l.1494.628a3.9039,3.9039,0,0,1-1.6045.2988,2.24,2.24,0,0,1-2.3711-2.4317,2.3417,2.3417,0,0,1,2.2617-2.6,2.0441,2.0441,0,0,1,1.9932,2.2724,3.33,3.33,0,0,1-.03.4082Zm2.5713-.6279a1.2489,1.2489,0,0,0-1.2158-1.4248,1.4528,1.4528,0,0,0-1.3448,1.4248Z"/><path d="M426.9323,204.3651a.5841.5841,0,0,1,.5879-.6182.6185.6185,0,0,1,0,1.2354A.5837.5837,0,0,1,426.9323,204.3651Zm.249-1.4248-.14-4.7832h.956l-.1387,4.7832Z"/></g></svg>