<svg id="Layer_1" data-name="Layer 1" xmlns="http://www.w3.org/2000/svg" xmlns:xlink="http://www.w3.org/1999/xlink" viewBox="0 0 453.543 255.118"><defs><style>.cls-1,.cls-11,.cls-12,.cls-14,.cls-16,.cls-17,.cls-19,.cls-3,.cls-7{fill:none;}.cls-2{clip-path:url(#clip-path);}.cls-19,.cls-3{stroke:#4d4c4e;}.cls-11,.cls-12,.cls-14,.cls-16,.cls-17,.cls-19,.cls-3,.cls-7{stroke-miterlimit:10;}.cls-3{stroke-width:0.3985px;}.cls-4{clip-path:url(#clip-path-2);}.cls-5{fill:#fff;}.cls-6{fill:#056db6;}.cls-11,.cls-12,.cls-17,.cls-7{stroke:#000;}.cls-7{stroke-width:0.677px;}.cls-8{fill:#f6a61c;}.cls-9{clip-path:url(#clip-path-3);}.cls-10{fill:url(#Unnamed_Pattern);}.cls-11,.cls-19{stroke-width:0.4384px;}.cls-12,.cls-14{stroke-width:0.8767px;}.cls-13{fill:#016cb0;}.cls-14,.cls-16{stroke:#e14b3a;}.cls-15{fill:#e14b3a;}.cls-16{stroke-width:0.8805px;}.cls-17{stroke-width:0.407px;}.cls-18{fill:#fabf4e;}.cls-19{stroke-dasharray:1.6439 1.6439;}</style><clipPath id="clip-path"><rect class="cls-1" width="4.9814" height="4.9814"/></clipPath><clipPath id="clip-path-2"><rect class="cls-1" width="453.543" height="255.118"/></clipPath><clipPath id="clip-path-3"><rect class="cls-1" x="314.066" y="83.2689" width="125.1629" height="129.6251"/></clipPath><pattern id="Unnamed_Pattern" data-name="Unnamed Pattern" width="4.9814" height="4.9814" patternTransform="matrix(0.55, 0, 0, -0.55, 1175.3911, 13676.4155)" patternUnits="userSpaceOnUse" viewBox="0 0 4.981 4.981"><rect class="cls-1" width="4.9814" height="4.9814"/><g class="cls-2"><line class="cls-3" x1="0.9963" y1="0.9963" x2="4.0847" y2="4.0847"/></g></pattern></defs><g class="cls-4"><rect class="cls-5" y="14.944" width="453.543" height="255.118"/><path class="cls-6" d="M21.04,24.3592H17.2819v3.4854H21.47v1.0468H16.0338v-9.667h5.2207v1.0469H17.2819V23.326H21.04Z"/><path class="cls-6" d="M23.6373,21.9491l.9893,1.4921c.2578.3868.4736.7461.7031,1.1329h.043c.23-.4161.459-.7745.6885-1.1475l.9755-1.4775H28.399l-2.3662,3.3564L28.47,28.8914H27.0367L26.0182,27.328c-.2725-.4014-.502-.7891-.7461-1.2051h-.0283c-.23.416-.4737.789-.7324,1.2051l-1.004,1.5634H22.1168l2.4668-3.5429-2.3525-3.3994Z"/><path class="cls-6" d="M33.5348,28.8914l-.1-.875h-.043a2.5878,2.5878,0,0,1-2.123,1.0332,1.9781,1.9781,0,0,1-2.1231-1.9941c0-1.6777,1.4922-2.5957,4.1738-2.582V24.33a1.4316,1.4316,0,0,0-1.5781-1.6064,3.4587,3.4587,0,0,0-1.8066.5166l-.2871-.8321a4.311,4.311,0,0,1,2.2812-.6162c2.1221,0,2.6387,1.4483,2.6387,2.84v2.5957a9.69,9.69,0,0,0,.1152,1.664Zm-.1856-3.5429c-1.3769-.0284-2.9414.2158-2.9414,1.5634a1.1179,1.1179,0,0,0,1.1914,1.2051,1.7278,1.7278,0,0,0,1.6778-1.1621,1.3208,1.3208,0,0,0,.0722-.4014Z"/><path class="cls-6" d="M36.6061,23.828c0-.7168-.0147-1.3047-.0576-1.8789H37.653l.0576,1.1191h.0429a2.3917,2.3917,0,0,1,2.18-1.2764,2.0528,2.0528,0,0,1,1.9658,1.3906h.0284a2.8542,2.8542,0,0,1,.7744-.9033,2.37,2.37,0,0,1,1.5351-.4873c.918,0,2.28.6026,2.28,3.0117v4.0879H45.2838v-3.93c0-1.3339-.4873-2.1376-1.5058-2.1376a1.6354,1.6354,0,0,0-1.4922,1.1474,2.0658,2.0658,0,0,0-.1006.6309v4.289H40.9518V24.7323c0-1.1045-.4873-1.9082-1.4483-1.9082A1.7235,1.7235,0,0,0,37.94,24.0867a1.7481,1.7481,0,0,0-.1006.6163v4.1884H36.6061Z"/><path class="cls-6" d="M48.5709,24.2157c0-.89-.0283-1.6065-.0576-2.2666h1.1328l.0576,1.19h.0284A2.73,2.73,0,0,1,52.2,21.7918c1.6778,0,2.9405,1.42,2.9405,3.5283,0,2.4952-1.5205,3.73-3.1563,3.73a2.4342,2.4342,0,0,1-2.1367-1.0908H49.819v3.7725H48.5709Zm1.2481,1.8505a2.8759,2.8759,0,0,0,.0566.5157,1.9482,1.9482,0,0,0,1.8936,1.4775c1.3339,0,2.1084-1.09,2.1084-2.6816,0-1.3916-.7315-2.5821-2.0655-2.5821a2.0127,2.0127,0,0,0-1.9072,1.5635,2.04,2.04,0,0,0-.0859.5156Z"/><path class="cls-6" d="M56.734,18.7078h1.2617V28.8914H56.734Z"/><path class="cls-6" d="M60.8219,25.65a2.2239,2.2239,0,0,0,2.3809,2.4092,4.5527,4.5527,0,0,0,1.9218-.3584l.2149.9033a5.61,5.61,0,0,1-2.3086.4307,3.2247,3.2247,0,0,1-3.4141-3.5c0-2.0938,1.2334-3.7432,3.2559-3.7432,2.2666,0,2.8691,1.9932,2.8691,3.27a4.94,4.94,0,0,1-.0429.5888Zm3.7-.9043a1.7963,1.7963,0,0,0-1.749-2.0508,2.0913,2.0913,0,0,0-1.9366,2.0508Z"/><path class="cls-6" d="M70.276,28.8914V28.117l.99-.9609c2.3809-2.2666,3.4561-3.4717,3.4707-4.877a1.6632,1.6632,0,0,0-1.8505-1.8213,3.1678,3.1678,0,0,0-1.9786.7891l-.4023-.89a4.0915,4.0915,0,0,1,2.64-.9463A2.6233,2.6233,0,0,1,76,22.1209c0,1.7217-1.248,3.1133-3.2129,5.0059l-.7461.6885v.0293h4.1875v1.0468Z"/><path class="cls-6" d="M84.1481,18.9373a9.46,9.46,0,0,0-1.8076,5.8662,9.6659,9.6659,0,0,0,1.8076,5.8233h-.99a9.273,9.273,0,0,1-1.8789-5.8233,9.4725,9.4725,0,0,1,1.8789-5.8662Z"/><path class="cls-6" d="M92.2809,28.576a6.1938,6.1938,0,0,1-2.5528.459,4.5185,4.5185,0,0,1-4.7763-4.8916,4.8109,4.8109,0,0,1,5.0488-5.0772,5.1662,5.1662,0,0,1,2.2949.4307l-.3007,1.0186a4.5316,4.5316,0,0,0-1.9512-.4024c-2.2656,0-3.7725,1.4492-3.7725,3.9873,0,2.3672,1.3633,3.8877,3.7149,3.8877a4.99,4.99,0,0,0,2.0371-.4023Z"/><path class="cls-6" d="M100.0856,25.3631A3.393,3.393,0,0,1,96.6285,29.05a3.3,3.3,0,0,1-3.3271-3.5722,3.39,3.39,0,0,1,3.4424-3.6856A3.2869,3.2869,0,0,1,100.0856,25.3631Zm-5.5078.0713c0,1.52.875,2.668,2.1084,2.668,1.205,0,2.1084-1.1328,2.1084-2.6963,0-1.1758-.5879-2.668-2.0791-2.668S94.5778,24.1151,94.5778,25.4344Z"/><path class="cls-6" d="M101.6793,23.828c0-.7168-.0146-1.3047-.0576-1.8789h1.1191l.0713,1.1474h.0293a2.5532,2.5532,0,0,1,2.295-1.3047c.9609,0,2.4521.5733,2.4521,2.9541v4.1455h-1.2617V24.89c0-1.1182-.416-2.0508-1.6065-2.0508a1.8544,1.8544,0,0,0-1.7793,1.8789v4.1738h-1.2617Z"/><path class="cls-6" d="M111.1617,19.9559v1.9932h1.8077V22.91h-1.8077v3.7441c0,.86.2442,1.3477.9473,1.3477a2.802,2.802,0,0,0,.7305-.086l.0576.9473a3.1037,3.1037,0,0,1-1.1182.1719,1.75,1.75,0,0,1-1.3633-.5313,2.57,2.57,0,0,1-.4873-1.8066V22.91h-1.0761v-.9609h1.0761V20.285Z"/><path class="cls-6" d="M115.7955,19.9989a.7817.7817,0,0,1-1.5634,0,.7689.7689,0,0,1,.789-.7891A.7492.7492,0,0,1,115.7955,19.9989ZM114.39,28.8914V21.9491h1.2617v6.9423Z"/><path class="cls-6" d="M117.7467,23.828c0-.7168-.0146-1.3047-.0576-1.8789h1.1191l.0713,1.1474h.0293a2.5531,2.5531,0,0,1,2.2949-1.3047c.961,0,2.4522.5733,2.4522,2.9541v4.1455h-1.2617V24.89c0-1.1182-.4161-2.0508-1.6065-2.0508a1.85,1.85,0,0,0-1.7783,1.8789v4.1738h-1.2627Z"/><path class="cls-6" d="M131.5182,26.9979c0,.7178.0137,1.3486.0566,1.8935h-1.1181l-.0723-1.1328h-.0283a2.612,2.612,0,0,1-2.2949,1.291c-1.09,0-2.3956-.6025-2.3956-3.041V21.9491h1.2627v3.8437c0,1.32.4014,2.209,1.5489,2.209a1.8242,1.8242,0,0,0,1.664-1.1475,1.8559,1.8559,0,0,0,.1143-.6455v-4.26h1.2627Z"/><path class="cls-6" d="M134.316,25.65a2.2245,2.2245,0,0,0,2.3809,2.4092,4.5535,4.5535,0,0,0,1.9219-.3584l.2158.9033a5.6151,5.6151,0,0,1-2.31.4307,3.2246,3.2246,0,0,1-3.414-3.5c0-2.0938,1.2343-3.7432,3.2558-3.7432,2.2666,0,2.8692,1.9932,2.8692,3.27a4.73,4.73,0,0,1-.043.5888Zm3.7012-.9043a1.7976,1.7976,0,0,0-1.75-2.0508,2.0913,2.0913,0,0,0-1.9365,2.0508Z"/><path class="cls-6" d="M146.7965,18.7078v8.3907c0,.6172.0137,1.3193.0566,1.7929H145.72l-.0566-1.205h-.0293a2.5676,2.5676,0,0,1-2.3662,1.3632c-1.6787,0-2.97-1.4209-2.97-3.5293-.0137-2.3086,1.42-3.7285,3.1132-3.7285a2.3212,2.3212,0,0,1,2.0938,1.0615h.0283V18.7078Zm-1.2627,6.0674a2.234,2.234,0,0,0-.0576-.5312,1.8559,1.8559,0,0,0-1.8213-1.4629c-1.3047,0-2.0791,1.1474-2.0791,2.6826,0,1.4053.6875,2.5674,2.0508,2.5674a1.8966,1.8966,0,0,0,1.85-1.5059,2.2021,2.2021,0,0,0,.0576-.5459Z"/><path class="cls-6" d="M148.1315,30.6268a9.705,9.705,0,0,0,1.8076-5.8662,9.5049,9.5049,0,0,0-1.8076-5.8233h.9756a9.1344,9.1344,0,0,1,1.8789,5.8379,9.31,9.31,0,0,1-1.8789,5.8516Z"/><path d="M15.7008,53.5369V46.8211h.9473l2.1513,3.3975a18.815,18.815,0,0,1,1.2061,2.1826l.0195-.01c-.0791-.8974-.1-1.7138-.1-2.7607v-2.81h.8174v6.7158h-.877L17.734,50.13a21.3248,21.3248,0,0,1-1.2559-2.2422l-.03.01c.05.8467.07,1.6543.07,2.77v2.8691Z"/><path d="M26.5006,51.0858a2.3568,2.3568,0,0,1-2.4014,2.56,2.2926,2.2926,0,0,1-2.3115-2.48,2.3558,2.3558,0,0,1,2.3916-2.5615A2.284,2.284,0,0,1,26.5006,51.0858Zm-3.8262.05c0,1.0566.6084,1.8535,1.4649,1.8535.8369,0,1.4648-.7871,1.4648-1.8731,0-.8173-.4082-1.8535-1.4443-1.8535S22.6744,50.2186,22.6744,51.1356Z"/><path d="M27.9547,48.7147l.6377,2.4511c.14.5381.2695,1.0362.3584,1.5342h.03c.1094-.4883.2695-1.0068.4287-1.5244l.7871-2.4609h.7373l.7471,2.4111c.18.5781.3193,1.0859.4287,1.5742h.03a14.4161,14.4161,0,0,1,.3681-1.5644l.6875-2.4209h.8672l-1.5547,4.8222h-.7969l-.7373-2.3017a16.1176,16.1176,0,0,1-.4287-1.584h-.02a14.41,14.41,0,0,1-.4385,1.5937l-.7773,2.292h-.7969l-1.4551-4.8222Z"/><path d="M38.3356,47.3289v1.3858h1.2558v.667H38.3356v2.6006c0,.5976.17.9365.6582.9365a1.934,1.934,0,0,0,.5078-.06l.04.6582a2.1562,2.1562,0,0,1-.7773.1192,1.2172,1.2172,0,0,1-.9463-.3682,1.79,1.79,0,0,1-.3389-1.2559V49.3817h-.747v-.667h.747V47.5584Z"/><path d="M40.5778,46.4627h.8769v3.0088h.02a1.6242,1.6242,0,0,1,.628-.6172,1.7931,1.7931,0,0,1,.8965-.25c.6474,0,1.6836.3994,1.6836,2.0635v2.8691h-.877v-2.77c0-.7773-.2881-1.4355-1.1152-1.4355a1.2589,1.2589,0,0,0-1.1758.8769,1.0646,1.0646,0,0,0-.06.419v2.9091h-.8769Z"/><path d="M48.777,53.5369l-.0694-.6074h-.03a1.7986,1.7986,0,0,1-1.4746.7168,1.3738,1.3738,0,0,1-1.4747-1.3847c0-1.1661,1.0362-1.8038,2.9-1.794v-.1a.9935.9935,0,0,0-1.0957-1.1152,2.4085,2.4085,0,0,0-1.2559.3584l-.1992-.5782a2.9948,2.9948,0,0,1,1.584-.4287c1.4746,0,1.834,1.0069,1.834,1.9737v1.8027a6.8169,6.8169,0,0,0,.0791,1.1562Zm-.13-2.4609c-.9561-.02-2.042.1494-2.042,1.0859a.7759.7759,0,0,0,.8272.837,1.1989,1.1989,0,0,0,1.165-.8067.9043.9043,0,0,0,.05-.2793Z"/><path d="M51.9645,47.3289v1.3858H53.22v.667H51.9645v2.6006c0,.5976.17.9365.6582.9365a1.934,1.934,0,0,0,.5078-.06l.04.6582a2.16,2.16,0,0,1-.7773.1192,1.2172,1.2172,0,0,1-.9463-.3682,1.79,1.79,0,0,1-.3389-1.2559V49.3817h-.747v-.667h.747V47.5584Z"/><path d="M56.8961,48.7147l.6377,2.4511c.14.5381.2686,1.0362.3584,1.5342h.03c.1094-.4883.2685-1.0068.4287-1.5244l.7871-2.4609h.7373l.7471,2.4111c.18.5781.3183,1.0859.4287,1.5742h.0293a14.6738,14.6738,0,0,1,.3691-1.5644l.6875-2.4209h.8662L61.45,53.5369H60.652l-.7364-2.3017a15.87,15.87,0,0,1-.4287-1.584h-.02a14.0055,14.0055,0,0,1-.4384,1.5937l-.7764,2.292h-.7979L56,48.7147Z"/><path d="M64.318,51.285a1.5449,1.5449,0,0,0,1.6543,1.6738,3.1692,3.1692,0,0,0,1.335-.249l.1494.6279a3.9,3.9,0,0,1-1.6036.2989,2.24,2.24,0,0,1-2.372-2.4317,2.3412,2.3412,0,0,1,2.2617-2.6006,2.0442,2.0442,0,0,1,1.9932,2.2725,3.3313,3.3313,0,0,1-.03.4082Zm2.57-.6279a1.2475,1.2475,0,0,0-1.2148-1.4248,1.4543,1.4543,0,0,0-1.3457,1.4248Z"/><path d="M71.1627,46.4627h.876v3.0088h.02a1.6246,1.6246,0,0,1,.6279-.6172,1.7931,1.7931,0,0,1,.8965-.25c.6475,0,1.6836.3994,1.6836,2.0635v2.8691H74.39v-2.77c0-.7773-.2891-1.4355-1.1153-1.4355a1.259,1.259,0,0,0-1.1758.8769,1.0636,1.0636,0,0,0-.06.419v2.9091h-.876Z"/><path d="M79.3619,53.5369l-.0693-.6074h-.03a1.7969,1.7969,0,0,1-1.4746.7168,1.3738,1.3738,0,0,1-1.4746-1.3847c0-1.1661,1.0361-1.8038,2.8994-1.794v-.1a.9935.9935,0,0,0-1.0957-1.1152,2.4054,2.4054,0,0,0-1.2558.3584l-.1993-.5782a2.9954,2.9954,0,0,1,1.584-.4287c1.4746,0,1.834,1.0069,1.834,1.9737v1.8027a6.8169,6.8169,0,0,0,.0791,1.1562Zm-.13-2.4609c-.9561-.02-2.042.1494-2.042,1.0859a.7754.7754,0,0,0,.8271.837,1.2,1.2,0,0,0,1.1651-.8067.9073.9073,0,0,0,.05-.2793Z"/><path d="M81.5934,48.7147l.9463,2.71a12.4687,12.4687,0,0,1,.3886,1.2354h.03c.1094-.3984.249-.7969.4082-1.2354l.9365-2.71h.917l-1.8935,4.8222H82.49l-1.833-4.8222Z"/><path d="M86.4948,51.285a1.5448,1.5448,0,0,0,1.6542,1.6738,3.172,3.172,0,0,0,1.335-.249l.1494.6279a3.9019,3.9019,0,0,1-1.6045.2989,2.24,2.24,0,0,1-2.3711-2.4317A2.3413,2.3413,0,0,1,87.92,48.6043a2.0441,2.0441,0,0,1,1.9931,2.2725,3.3313,3.3313,0,0,1-.03.4082Zm2.57-.6279a1.2478,1.2478,0,0,0-1.2159-1.4248,1.4527,1.4527,0,0,0-1.3447,1.4248Z"/><path d="M93.4283,53.5369V49.3817h-.6777v-.667h.6777v-.23a2.2737,2.2737,0,0,1,.5577-1.6836,1.6766,1.6766,0,0,1,1.1757-.4483,2.0484,2.0484,0,0,1,.7481.1387l-.12.6778a1.3088,1.3088,0,0,0-.5576-.1094c-.7471,0-.9366.6572-.9366,1.3945v.26h1.166v.667h-1.166v4.1552Z"/><path d="M100.6119,51.0858a2.3568,2.3568,0,0,1-2.4013,2.56,2.2926,2.2926,0,0,1-2.3116-2.48,2.3558,2.3558,0,0,1,2.3916-2.5615A2.284,2.284,0,0,1,100.6119,51.0858Zm-3.8261.05c0,1.0566.6084,1.8535,1.4648,1.8535.8369,0,1.4649-.7871,1.4649-1.8731,0-.8173-.4092-1.8535-1.4444-1.8535C97.234,49.2625,96.7858,50.2186,96.7858,51.1356Z"/><path d="M105.7526,52.2215c0,.4981.01.9365.04,1.3154h-.7773l-.05-.7871h-.02a1.8147,1.8147,0,0,1-1.5947.8965c-.7568,0-1.6641-.418-1.6641-2.1123V48.7147h.877v2.67c0,.917.2793,1.5342,1.0762,1.5342a1.2313,1.2313,0,0,0,1.2353-1.2451v-2.959h.877Z"/><path d="M107.2067,50.0194c0-.4981-.01-.9063-.04-1.3047h.7774l.05.7969h.02a1.7756,1.7756,0,0,1,1.5947-.9073c.667,0,1.7041.3994,1.7041,2.0528v2.88h-.8769v-2.78c0-.7774-.2891-1.4248-1.1162-1.4248a1.2859,1.2859,0,0,0-1.2354,1.3056v2.8994h-.8769Z"/><path d="M116.901,46.4627v5.8291c0,.4278.01.916.04,1.2451h-.7871l-.04-.8369h-.02a1.7824,1.7824,0,0,1-1.6436.9463,2.1983,2.1983,0,0,1-2.0625-2.4512,2.3076,2.3076,0,0,1,2.1621-2.5908,1.6156,1.6156,0,0,1,1.4551.7373h.02V46.4627Zm-.877,4.2149a1.5262,1.5262,0,0,0-.04-.3692,1.2894,1.2894,0,0,0-1.2656-1.0166c-.9063,0-1.4444.7979-1.4444,1.8633,0,.9766.4786,1.7842,1.4249,1.7842a1.3178,1.3178,0,0,0,1.2851-1.0469,1.4951,1.4951,0,0,0,.04-.3779Z"/><path d="M123.6169,50.3784v.05c.3587.2491.5579.7573,1.375,2.3017a.8753.8753,0,0,0,.9167.5082l-.06.2989h-1.5145c-.7473-1.6441-.9566-2.0625-1.2655-2.67-.1494-.279-.279-.3388-.6377-.3388h-.2092l-.3687,1.7736c-.1694.827-.06.9366.7972.9366l-.05.2989h-2.75l.06-.2989c.7373,0,.8868-.1,1.0561-.9366l.8769-4.2746c.11-.548.05-.7373-.7473-.7373l.06-.2989h2.3415c1.395,0,2.212.4085,2.212,1.375C125.7093,49.7706,124.4837,50.229,123.6169,50.3784Zm-1.3253-.2192.3089.01c1.1957-.04,2.1224-.4883,2.1224-1.7637,0-.538-.299-1.0262-1.2854-1.0262a5.3971,5.3971,0,0,0-.5879.03Z"/><path d="M130.9851,54.66a2.7972,2.7972,0,0,1-2.2385,1.053,1.7672,1.7672,0,0,1-2.0013-1.8968,3.02,3.02,0,0,1,3.1171-3.1867,3.1472,3.1472,0,0,1,1.1784.2649c.0907,0,.1674-.0906.3208-.258h.2511L131.271,52.38h-.3c.0209-.9763-.3905-1.3877-1.22-1.3877a2.366,2.366,0,0,0-2.1757,2.6219,1.358,1.358,0,0,0,1.5481,1.5272,2.4471,2.4471,0,0,0,1.6945-.6416Z"/><path d="M132.1364,54.7625a14.3692,14.3692,0,0,0,.5976-2.3818l.9766-.1a12.2146,12.2146,0,0,1-.9463,2.4219Z"/><path d="M137.1071,46.4627h.8769v7.0742h-.8769Z"/><path d="M139.9469,51.285a1.5449,1.5449,0,0,0,1.6543,1.6738,3.1723,3.1723,0,0,0,1.335-.249l.1494.6279a3.9019,3.9019,0,0,1-1.6045.2989,2.24,2.24,0,0,1-2.3711-2.4317,2.3412,2.3412,0,0,1,2.2617-2.6006,2.0442,2.0442,0,0,1,1.9932,2.2725,3.3313,3.3313,0,0,1-.03.4082Zm2.57-.6279a1.2475,1.2475,0,0,0-1.2148-1.4248,1.4543,1.4543,0,0,0-1.3457,1.4248Z"/><path d="M145.5055,47.3289v1.3858h1.2559v.667h-1.2559v2.6006c0,.5976.17.9365.6582.9365a1.928,1.928,0,0,0,.5078-.06l.04.6582a2.1558,2.1558,0,0,1-.7773.1192,1.2172,1.2172,0,0,1-.9463-.3682,1.79,1.79,0,0,1-.3389-1.2559V49.3817h-.747v-.667h.747V47.5584Z"/><path d="M148.8531,46.7117a11.4308,11.4308,0,0,1-.9365,2.3614l-.5576.0693a14.1334,14.1334,0,0,0,.5879-2.3408Z"/><path d="M149.3014,52.6405a2.3028,2.3028,0,0,0,1.1553.3486c.6386,0,.9375-.3193.9375-.7178,0-.418-.25-.6474-.8975-.8867-.8662-.3086-1.2754-.7871-1.2754-1.3652a1.4875,1.4875,0,0,1,1.6641-1.4151,2.3967,2.3967,0,0,1,1.1855.3l-.2187.6377a1.8724,1.8724,0,0,0-.9864-.2793c-.5185,0-.8076.2989-.8076.6573,0,.3984.2891.5781.917.8173.8369.3184,1.2656.7373,1.2656,1.4551,0,.8467-.6572,1.4444-1.8037,1.4444a2.7506,2.7506,0,0,1-1.3554-.3292Z"/><path d="M156.7633,47.3289v1.3858h1.2559v.667h-1.2559v2.6006c0,.5976.17.9365.6582.9365a1.934,1.934,0,0,0,.5078-.06l.04.6582a2.1609,2.1609,0,0,1-.7774.1192,1.2158,1.2158,0,0,1-.9463-.3682,1.7855,1.7855,0,0,1-.3388-1.2559V49.3817H155.16v-.667h.7471V47.5584Z"/><path d="M161.6754,53.5369l-.07-.6074h-.0293a1.7984,1.7984,0,0,1-1.4746.7168,1.3738,1.3738,0,0,1-1.4746-1.3847c0-1.1661,1.0361-1.8038,2.8994-1.794v-.1a.9943.9943,0,0,0-1.0967-1.1152,2.4052,2.4052,0,0,0-1.2549.3584l-.1992-.5782a2.9927,2.9927,0,0,1,1.584-.4287c1.4746,0,1.833,1.0069,1.833,1.9737v1.8027a6.81,6.81,0,0,0,.08,1.1562Zm-.13-2.4609c-.956-.02-2.042.1494-2.042,1.0859a.7752.7752,0,0,0,.8262.837,1.2,1.2,0,0,0,1.166-.8067.9043.9043,0,0,0,.05-.2793Z"/><path d="M164.6735,50.9266h.02c.1191-.17.2881-.3789.4287-.5479l1.414-1.664h1.0567L165.73,50.6971l2.1221,2.84h-1.0664l-1.6631-2.3115-.4492.4981v1.8134h-.8672V46.4627h.8672Z"/><path d="M168.7281,51.285a1.5454,1.5454,0,0,0,1.6543,1.6738,3.1685,3.1685,0,0,0,1.335-.249l.1494.6279a3.9,3.9,0,0,1-1.6035.2989,2.24,2.24,0,0,1-2.3721-2.4317,2.3418,2.3418,0,0,1,2.2618-2.6006,2.0435,2.0435,0,0,1,1.9931,2.2725,3.14,3.14,0,0,1-.03.4082Zm2.5713-.6279a1.2488,1.2488,0,0,0-1.2158-1.4248,1.4544,1.4544,0,0,0-1.3457,1.4248Z"/><path d="M178.2428,53.5369l-.0693-.6074h-.03a1.7971,1.7971,0,0,1-1.4746.7168,1.3738,1.3738,0,0,1-1.4746-1.3847c0-1.1661,1.0361-1.8038,2.8994-1.794v-.1a.9935.9935,0,0,0-1.0957-1.1152,2.406,2.406,0,0,0-1.2559.3584l-.1992-.5782a2.9951,2.9951,0,0,1,1.584-.4287c1.4746,0,1.834,1.0069,1.834,1.9737v1.8027a6.8169,6.8169,0,0,0,.0791,1.1562Zm-.13-2.4609c-.956-.02-2.042.1494-2.042,1.0859a.7755.7755,0,0,0,.8272.837,1.2,1.2,0,0,0,1.165-.8067.9043.9043,0,0,0,.05-.2793Z"/><path d="M180.3746,50.0194c0-.4981-.01-.9063-.04-1.3047h.7773l.05.7969h.02a1.7742,1.7742,0,0,1,1.5947-.9073c.667,0,1.7041.3994,1.7041,2.0528v2.88h-.877v-2.78c0-.7774-.289-1.4248-1.1162-1.4248a1.2859,1.2859,0,0,0-1.2353,1.3056v2.8994h-.877Z"/><path d="M190.2682,51.0858a2.3569,2.3569,0,0,1-2.4014,2.56,2.292,2.292,0,0,1-2.3115-2.48,2.3552,2.3552,0,0,1,2.3916-2.5615A2.284,2.284,0,0,1,190.2682,51.0858Zm-3.8262.05c0,1.0566.6074,1.8535,1.4649,1.8535.8369,0,1.4638-.7871,1.4638-1.8731,0-.8173-.4082-1.8535-1.4443-1.8535S186.442,50.2186,186.442,51.1356Z"/><path d="M192.4293,47.3289v1.3858h1.2559v.667h-1.2559v2.6006c0,.5976.17.9365.6582.9365a1.9334,1.9334,0,0,0,.5078-.06l.04.6582a2.16,2.16,0,0,1-.7774.1192,1.2159,1.2159,0,0,1-.9463-.3682,1.7855,1.7855,0,0,1-.3388-1.2559V49.3817h-.7471v-.667h.7471V47.5584Z"/><path d="M194.6705,46.4627h.877v3.0088h.0195a1.6315,1.6315,0,0,1,.6279-.6172,1.7989,1.7989,0,0,1,.8965-.25c.6485,0,1.6846.3994,1.6846,2.0635v2.8691h-.877v-2.77c0-.7773-.289-1.4355-1.1162-1.4355a1.26,1.26,0,0,0-1.1757.8769,1.0646,1.0646,0,0,0-.06.419v2.9091h-.877Z"/><path d="M200.6881,51.285a1.5454,1.5454,0,0,0,1.6543,1.6738,3.1688,3.1688,0,0,0,1.335-.249l.1494.6279a3.9019,3.9019,0,0,1-1.6045.2989,2.24,2.24,0,0,1-2.3711-2.4317,2.3418,2.3418,0,0,1,2.2617-2.6006,2.0442,2.0442,0,0,1,1.9932,2.2725,3.3313,3.3313,0,0,1-.03.4082Zm2.5713-.6279a1.2488,1.2488,0,0,0-1.2158-1.4248,1.4536,1.4536,0,0,0-1.3457,1.4248Z"/><path d="M205.191,50.2186c0-.5674-.01-1.0557-.04-1.5039h.7676l.03.9463h.039a1.449,1.449,0,0,1,1.336-1.0567.954.954,0,0,1,.248.03v.8271a1.3311,1.3311,0,0,0-.2988-.03,1.2312,1.2312,0,0,0-1.1758,1.1259,2.5363,2.5363,0,0,0-.0391.4092v2.57h-.8672Z"/><path d="M210.79,46.4627h.8769v7.0742H210.79Z"/><path d="M217.5055,51.0858a2.3573,2.3573,0,0,1-2.4014,2.56,2.292,2.292,0,0,1-2.3115-2.48,2.355,2.355,0,0,1,2.3906-2.5615A2.2842,2.2842,0,0,1,217.5055,51.0858Zm-3.8262.05c0,1.0566.6074,1.8535,1.4649,1.8535.8369,0,1.4648-.7871,1.4648-1.8731,0-.8173-.4092-1.8535-1.4453-1.8535S213.6793,50.2186,213.6793,51.1356Z"/><path d="M222.9742,51.0858a2.3566,2.3566,0,0,1-2.4,2.56,2.2927,2.2927,0,0,1-2.3125-2.48,2.3557,2.3557,0,0,1,2.3916-2.5615A2.2835,2.2835,0,0,1,222.9742,51.0858Zm-3.8261.05c0,1.0566.6084,1.8535,1.4648,1.8535.8379,0,1.4649-.7871,1.4649-1.8731,0-.8173-.4082-1.8535-1.4444-1.8535S219.1481,50.2186,219.1481,51.1356Z"/><path d="M224.9469,50.9266h.0195c.12-.17.2891-.3789.4287-.5479l1.4151-1.664h1.0566l-1.8633,1.9824,2.1221,2.84h-1.0664l-1.6641-2.3115-.4482.4981v1.8134H224.08V46.4627h.8672Z"/><path d="M233.7643,53.5369l-.07-.6074h-.0293a1.7986,1.7986,0,0,1-1.4746.7168,1.3746,1.3746,0,0,1-1.4756-1.3847c0-1.1661,1.0371-1.8038,2.9-1.794v-.1a.9935.9935,0,0,0-1.0957-1.1152,2.4058,2.4058,0,0,0-1.2559.3584l-.1992-.5782a2.9948,2.9948,0,0,1,1.584-.4287c1.4746,0,1.834,1.0069,1.834,1.9737v1.8027a6.8169,6.8169,0,0,0,.0791,1.1562Zm-.13-2.4609c-.957-.02-2.043.1494-2.043,1.0859a.7759.7759,0,0,0,.8272.837,1.2,1.2,0,0,0,1.166-.8067.9043.9043,0,0,0,.05-.2793Z"/><path d="M236.9518,47.3289v1.3858h1.2558v.667h-1.2558v2.6006c0,.5976.1689.9365.6572.9365a1.9368,1.9368,0,0,0,.5088-.06l.04.6582a2.16,2.16,0,0,1-.7773.1192,1.221,1.221,0,0,1-.9473-.3682,1.7955,1.7955,0,0,1-.3379-1.2559V49.3817h-.748v-.667h.748V47.5584Z"/><path d="M245.8981,51.0858a2.3567,2.3567,0,0,1-2.4,2.56,2.2927,2.2927,0,0,1-2.3125-2.48,2.3557,2.3557,0,0,1,2.3916-2.5615A2.2835,2.2835,0,0,1,245.8981,51.0858Zm-3.8262.05c0,1.0566.6084,1.8535,1.4648,1.8535.8379,0,1.4649-.7871,1.4649-1.8731,0-.8173-.4082-1.8535-1.4443-1.8535S242.0719,50.2186,242.0719,51.1356Z"/><path d="M251.0387,52.2215c0,.4981.0107.9365.041,1.3154h-.7773l-.0508-.7871h-.0195a1.8131,1.8131,0,0,1-1.5938.8965c-.7578,0-1.6641-.418-1.6641-2.1123V48.7147h.877v2.67c0,.917.2783,1.5342,1.0762,1.5342a1.266,1.266,0,0,0,1.1552-.7969,1.28,1.28,0,0,0,.08-.4482v-2.959h.876Z"/><path d="M252.4928,50.2186c0-.5674-.01-1.0557-.04-1.5039h.7675l.03.9463h.04a1.447,1.447,0,0,1,1.335-1.0567.967.967,0,0,1,.249.03v.8271a1.3433,1.3433,0,0,0-.2988-.03A1.23,1.23,0,0,0,253.4,50.5574a2.5307,2.5307,0,0,0-.04.4092v2.57h-.8672Z"/><path d="M258.1823,53.5369V49.3817h-.6778v-.667h.6778v-.23a2.2737,2.2737,0,0,1,.5576-1.6836,1.6766,1.6766,0,0,1,1.1757-.4483,2.0424,2.0424,0,0,1,.7471.1387l-.1191.6778a1.3158,1.3158,0,0,0-.5576-.1094c-.7481,0-.9375.6572-.9375,1.3945v.26h1.166v.667h-1.166v4.1552Z"/><path d="M265.3649,51.0858a2.3567,2.3567,0,0,1-2.4,2.56,2.2927,2.2927,0,0,1-2.3125-2.48,2.3557,2.3557,0,0,1,2.3916-2.5615A2.2835,2.2835,0,0,1,265.3649,51.0858Zm-3.8262.05c0,1.0566.6084,1.8535,1.4648,1.8535.8379,0,1.4649-.7871,1.4649-1.8731,0-.8173-.4082-1.8535-1.4444-1.8535S261.5387,50.2186,261.5387,51.1356Z"/><path d="M266.47,50.2186c0-.5674-.01-1.0557-.039-1.5039h.7666l.03.9463h.0391a1.449,1.449,0,0,1,1.3359-1.0567.9678.9678,0,0,1,.2491.03v.8271a1.3443,1.3443,0,0,0-.2989-.03,1.23,1.23,0,0,0-1.1757,1.1259,2.4222,2.4222,0,0,0-.04.4092v2.57H266.47Z"/><path d="M273.0758,53.3573a3.2138,3.2138,0,0,1-1.3848.2793,2.291,2.291,0,0,1-2.4013-2.461,2.45,2.45,0,0,1,2.5908-2.5605,2.926,2.926,0,0,1,1.2158.249l-.1992.6777a2.03,2.03,0,0,0-1.0166-.23,1.8181,1.8181,0,0,0-.0293,3.627,2.4894,2.4894,0,0,0,1.0752-.2393Z"/><path d="M274.5905,51.285a1.5441,1.5441,0,0,0,1.6533,1.6738,3.1735,3.1735,0,0,0,1.3359-.249l.1494.6279a3.9053,3.9053,0,0,1-1.6045.2989,2.24,2.24,0,0,1-2.3711-2.4317,2.3413,2.3413,0,0,1,2.2618-2.6006,2.0433,2.0433,0,0,1,1.9921,2.2725,3.3741,3.3741,0,0,1-.0293.4082Zm2.57-.6279a1.2483,1.2483,0,0,0-1.2159-1.4248A1.4527,1.4527,0,0,0,274.6,50.6571Z"/><path d="M19.8356,60.411V66.24c0,.4277.0107.916.04,1.2451h-.7871l-.04-.8369h-.02a1.7849,1.7849,0,0,1-1.6445.9463,2.199,2.199,0,0,1-2.0625-2.4512,2.308,2.308,0,0,1,2.1621-2.5908,1.6132,1.6132,0,0,1,1.4551.7373h.02V60.411Zm-.876,4.2148a1.5769,1.5769,0,0,0-.04-.3691A1.2911,1.2911,0,0,0,17.6539,63.24c-.9062,0-1.4453.7978-1.4453,1.8632,0,.9766.4785,1.7842,1.4258,1.7842A1.3185,1.3185,0,0,0,18.92,65.8407a1.5431,1.5431,0,0,0,.04-.378Z"/><path d="M22.2662,61.3074a.543.543,0,0,1-1.0859,0,.5345.5345,0,0,1,.5478-.5478A.52.52,0,0,1,22.2662,61.3074ZM21.29,67.4852V62.6629h.8769v4.8223Z"/><path d="M26.2916,67.4852l-.0693-.6074h-.03a1.7984,1.7984,0,0,1-1.4746.7168A1.3738,1.3738,0,0,1,23.2428,66.21c0-1.166,1.0361-1.8037,2.8994-1.794v-.1a.9935.9935,0,0,0-1.0957-1.1152,2.3978,2.3978,0,0,0-1.2559.3584l-.1992-.5781a2.9954,2.9954,0,0,1,1.584-.4287c1.4746,0,1.834,1.0068,1.834,1.9736v1.8027a6.8174,6.8174,0,0,0,.0791,1.1563Zm-.13-2.461c-.956-.02-2.0419.15-2.0419,1.086a.7754.7754,0,0,0,.8271.8369,1.2,1.2,0,0,0,1.165-.8066.9054.9054,0,0,0,.05-.2793Z"/><path d="M32.5778,62.6629c-.02.3487-.0391.7373-.0391,1.3252v2.8a2.7769,2.7769,0,0,1-.6875,2.2022,2.5579,2.5579,0,0,1-1.7539.5771,3.1073,3.1073,0,0,1-1.6045-.3984l.22-.667a2.7165,2.7165,0,0,0,1.4141.3779c.8974,0,1.5547-.4678,1.5547-1.6836V66.658h-.02a1.723,1.723,0,0,1-1.5351.8077,2.1562,2.1562,0,0,1-2.0527-2.3516,2.3153,2.3153,0,0,1,2.1728-2.5615,1.6016,1.6016,0,0,1,1.5039.8379h.0205l.04-.7276Zm-.9063,1.9024a1.2462,1.2462,0,0,0-.05-.3985,1.2634,1.2634,0,0,0-1.2256-.9267c-.8369,0-1.4355.708-1.4355,1.8242,0,.9463.4785,1.7334,1.4258,1.7334a1.2821,1.2821,0,0,0,1.2148-.8965,1.53,1.53,0,0,0,.07-.4688Z"/><path d="M33.9918,64.1668c0-.5674-.01-1.0556-.039-1.5039h.7666l.03.9463h.04a1.4467,1.4467,0,0,1,1.3349-1.0566.9685.9685,0,0,1,.2491.03V63.41a1.3438,1.3438,0,0,0-.2989-.03,1.23,1.23,0,0,0-1.1758,1.126,2.4217,2.4217,0,0,0-.04.4092v2.57h-.8672Z"/><path d="M39.7809,67.4852l-.07-.6074h-.0293a1.7986,1.7986,0,0,1-1.4746.7168A1.3738,1.3738,0,0,1,36.7321,66.21c0-1.166,1.0361-1.8037,2.8994-1.794v-.1a.9938.9938,0,0,0-1.0967-1.1152,2.3966,2.3966,0,0,0-1.2549.3584l-.1992-.5781a2.9951,2.9951,0,0,1,1.584-.4287c1.4746,0,1.833,1.0068,1.833,1.9736v1.8027a6.8106,6.8106,0,0,0,.08,1.1563Zm-.13-2.461c-.9561-.02-2.042.15-2.042,1.086a.7751.7751,0,0,0,.8262.8369,1.2,1.2,0,0,0,1.166-.8066.9054.9054,0,0,0,.05-.2793Z"/><path d="M41.9127,63.9676c0-.498-.0107-.9062-.04-1.3047h.7666l.04.7774h.03a1.6615,1.6615,0,0,1,1.5146-.8877,1.4279,1.4279,0,0,1,1.3653.9668h.02a1.9922,1.9922,0,0,1,.5381-.628,1.6484,1.6484,0,0,1,1.0664-.3388c.6377,0,1.584.4189,1.584,2.0927v2.84H47.941V64.7547c0-.9267-.34-1.4844-1.0468-1.4844a1.1359,1.1359,0,0,0-1.0362.7969,1.4446,1.4446,0,0,0-.0693.4385v2.98h-.8574v-2.89c0-.7675-.3389-1.3252-1.0059-1.3252a1.3093,1.3093,0,0,0-1.1562,1.3057v2.9092h-.8565Z"/><path d="M50.0114,66.9666A.5894.5894,0,0,1,50.61,66.34a.6285.6285,0,0,1-.0108,1.2549A.5874.5874,0,0,1,50.0114,66.9666Z"/><path d="M16.2692,82.1789c0-.7772-.04-1.0163-.9864-1.0163v-.2989h2.87v.2989c-.9466,0-.9765.2391-.9765,1.0163v3.9258c0,.8569.09,1.0064.9765,1.0064V87.41h-2.87v-.2989c.8967,0,.9864-.1495.9864-1.0064Zm3.2477.5181a3.1025,3.1025,0,0,1,.3189-1.6639,1.3607,1.3607,0,0,1,1.3252-.7274c.6477,0,1.116.2491,1.116.6975a.3875.3875,0,0,1-.4086.4284c-.4982,0-.548-.7573-1.0462-.7573-.3686,0-.4783.299-.4783,1.1359v.8868H21.56v.4185H20.3439v3.1088c0,.7772.1894.8967,1.0164.8967v.289H18.68v-.289c.7273,0,.8369-.12.8369-.8967V83.1155H18.76V82.697Zm12.4743.289c-.3886,0-.5381.1395-.7374.6576L29.7692,87.47h-.4783l-1.0562-2.9h-.04l-1.1658,2.9h-.4584l-1.4946-3.7564c-.259-.6178-.4085-.7274-.8469-.7274v-.289h2.1423v.289c-.3986,0-.5281.09-.5281.2491a1.0478,1.0478,0,0,0,.11.3886l.8668,2.202.1794.5779h.07l.2093-.5779.7174-1.8134-.11-.2989c-.2391-.6477-.3886-.7274-.827-.7274v-.289h2.0825v.289c-.3787,0-.4982.09-.4982.2491a1.3806,1.3806,0,0,0,.09.4085l.8071,2.1821.1794.5779h.06l.1992-.5779.7872-2.2319a1.413,1.413,0,0,0,.06-.3587c0-.1893-.1893-.2491-.558-.2491v-.289h1.7238Zm4.1439,3.1386a1.9736,1.9736,0,0,1-1.8633,1.385c-1.1957,0-2.1223-.8668-2.1223-2.471,0-1.664.9366-2.4611,2.1024-2.4611,1.086,0,1.8034.7871,1.8533,2.1821H32.9565c0,1.375.7573,2.0027,1.5544,2.0027a1.5765,1.5765,0,0,0,1.4348-.7771Zm-.9666-1.7337c-.03-.7373-.3587-1.4149-1.0661-1.4149-.6776,0-1.0761.4883-1.1558,1.4149Zm5.4295-.7572h.03c.5082-.7374.8071-1.0861,1.2854-1.0861a.5146.5146,0,0,1,.5779.558c0,.3786-.2192.538-.4384.538-.3288,0-.5281-.3388-.6477-.3388-.2292,0-.548.4185-.7871.8171v2.2718c0,.6277.1893.7273.9366.7273v.289h-2.491v-.289c.6576,0,.7273-.12.7273-.6775v-2.74c0-.3587,0-.5381-.3587-.5381a1.9076,1.9076,0,0,0-.3088.02v-.279l1.2355-.2989h.2391Zm6.1873,2.4909A1.9735,1.9735,0,0,1,44.922,87.51c-1.1957,0-2.1223-.8668-2.1223-2.471,0-1.664.9366-2.4611,2.1024-2.4611,1.0861,0,1.8035.7871,1.8533,2.1821H43.6068c0,1.375.7572,2.0027,1.5543,2.0027a1.5768,1.5768,0,0,0,1.4349-.7771Zm-.9665-1.7337c-.03-.7373-.3587-1.4149-1.0662-1.4149-.6775,0-1.0761.4883-1.1558,1.4149Zm1.9125,1.385c.2092,1.0263.5878,1.375,1.3252,1.375.4982,0,.8569-.1893.8569-.6576s-.1893-.6576-1.116-1.116c-.9067-.4583-1.3152-.807-1.3152-1.5444,0-.817.6676-1.2554,1.5245-1.2554a2.1878,2.1878,0,0,1,1.0462.259h.01l.1694-.2092h.1993l.03,1.5245h-.269c-.2192-.9466-.5879-1.2356-1.1957-1.2356-.4584,0-.8071.2093-.8071.6577,0,.3886.3288.6377,1.1658,1.0661.9067.4783,1.395.847,1.395,1.5843,0,.9366-.7772,1.2953-1.674,1.2953a2.4946,2.4946,0,0,1-1.1359-.2591h-.02l-.2093.2292h-.2092l-.03-1.7138Zm8.07-.817c0,1.6739-.9167,2.5507-2.212,2.5507-1.395,0-2.2319-.8967-2.2319-2.5109A2.204,2.204,0,0,1,53.59,82.5775,2.1316,2.1316,0,0,1,55.8016,84.9589Zm-3.5173-.09c0,1.5843.4883,2.2518,1.3452,2.2419.817,0,1.2554-.4783,1.2554-2.1024,0-1.2256-.4484-2.0526-1.3352-2.0526C52.7925,82.9561,52.2843,83.5938,52.2843,84.8692ZM58.73,87.41H56.4387v-.289c.6576,0,.6975-.1594.6975-.7174V81.4017c0-.4085-.1694-.4284-.4185-.4284a2.72,2.72,0,0,0-.3189.02v-.269l1.3153-.3488h.2491v6.0282c0,.578.05.7174.7672.7174Zm5.1909-4.424c-.3886,0-.548.1395-.7473.6576L61.6,87.47h-.4783l-1.4846-3.7564c-.2591-.6178-.3786-.7274-.8071-.7274v-.289h2.1024v.289c-.3886,0-.5181.09-.5181.2491a.9759.9759,0,0,0,.1.3886l.847,2.222.1893.5978h.06l.2092-.6078.8569-2.2519a1.1,1.1,0,0,0,.07-.3288c0-.2192-.2093-.269-.568-.269v-.289h1.7437Zm4.1045,3.1386a1.9735,1.9735,0,0,1-1.8633,1.385c-1.1956,0-2.1223-.8668-2.1223-2.471,0-1.664.9366-2.4611,2.1024-2.4611,1.0861,0,1.8035.7871,1.8533,2.1821H64.8473c0,1.375.7573,2.0027,1.5544,2.0027a1.5766,1.5766,0,0,0,1.4348-.7771Zm-.9665-1.7337c-.03-.7373-.3587-1.4149-1.0662-1.4149-.6775,0-1.0761.4883-1.1558,1.4149Zm4.6224-1.6939a3.1035,3.1035,0,0,1,.3188-1.6639,1.3609,1.3609,0,0,1,1.3253-.7274c.6476,0,1.1159.2491,1.1159.6975a.3874.3874,0,0,1-.4085.4284c-.4982,0-.548-.7573-1.0462-.7573-.3687,0-.4783.299-.4783,1.1359v.8868h1.2156v.4185H72.5087v3.1088c0,.7772.1893.8967,1.0163.8967v.289h-2.68v-.289c.7274,0,.837-.12.837-.8967V83.1155h-.7573V82.697Zm6.825,2.2619c0,1.6739-.9167,2.5507-2.212,2.5507-1.395,0-2.232-.8967-2.232-2.5109a2.204,2.204,0,0,1,2.232-2.4212A2.1317,2.1317,0,0,1,78.5067,84.9589Zm-3.5173-.09c0,1.5843.4882,2.2518,1.3451,2.2419.8171,0,1.2555-.4783,1.2555-2.1024,0-1.2256-.4484-2.0526-1.3352-2.0526C75.4976,82.9561,74.9894,83.5938,74.9894,84.8692Zm5.6789-1.2355h.03c.5082-.7374.8071-1.0861,1.2854-1.0861a.5146.5146,0,0,1,.5779.558c0,.3786-.2192.538-.4384.538-.3288,0-.5281-.3388-.6477-.3388-.2291,0-.548.4185-.7871.8171v2.2718c0,.6277.1893.7273.9366.7273v.289h-2.491v-.289c.6576,0,.7274-.12.7274-.6775v-2.74c0-.3587,0-.5381-.3587-.5381a1.9083,1.9083,0,0,0-.3089.02v-.279l1.2355-.2989h.2392Zm6.1174,2.4411a2.0236,2.0236,0,0,1-1.933,1.4348c-1.2455,0-1.9928-.9665-1.9928-2.3515,0-1.5643.8171-2.5806,2.2519-2.5806.9366,0,1.5145.4782,1.5145,1.0562,0,.2889-.1395.4483-.4185.4483-.7373,0-.4085-1.1359-1.2654-1.1359-.8071,0-1.2953.5979-1.2953,1.7437,0,1.2156.4882,2.0725,1.5145,2.0725a1.632,1.632,0,0,0,1.4348-.827Zm4.5131.05a1.9734,1.9734,0,0,1-1.8632,1.385c-1.1957,0-2.1224-.8668-2.1224-2.471,0-1.664.9366-2.4611,2.1024-2.4611,1.0861,0,1.8035.7871,1.8533,2.1821H88.12c0,1.375.7573,2.0027,1.5544,2.0027a1.5765,1.5765,0,0,0,1.4348-.7771Zm-.9665-1.7337c-.03-.7373-.3587-1.4149-1.0661-1.4149-.6776,0-1.0761.4883-1.1559,1.4149Zm1.9125,1.385c.2093,1.0263.5879,1.375,1.3252,1.375.4982,0,.8569-.1893.8569-.6576s-.1893-.6576-1.1159-1.116c-.9068-.4583-1.3153-.807-1.3153-1.5444,0-.817.6676-1.2554,1.5245-1.2554a2.1878,2.1878,0,0,1,1.0462.259h.01l.1694-.2092h.1993l.03,1.5245h-.2691c-.2192-.9466-.5879-1.2356-1.1957-1.2356-.4583,0-.807.2093-.807.6577,0,.3886.3288.6377,1.1657,1.0661.9068.4783,1.395.847,1.395,1.5843,0,.9366-.7772,1.2953-1.6739,1.2953a2.4939,2.4939,0,0,1-1.1359-.2591h-.02l-.2092.2292h-.2093l-.03-1.7138Zm10.5909-2.79c-.3886,0-.548.1395-.7473.6576L100.5141,87.47h-.4782l-1.4847-3.7564c-.259-.6178-.3786-.7274-.8071-.7274v-.289h2.1024v.289c-.3886,0-.5181.09-.5181.2491a.9761.9761,0,0,0,.1.3886l.8469,2.222.1893.5978h.06l.2092-.6078.8569-2.2519a1.1,1.1,0,0,0,.07-.3288c0-.2192-.2093-.269-.568-.269v-.289h1.7437Zm4.1045,3.1386a1.9733,1.9733,0,0,1-1.8632,1.385c-1.1957,0-2.1224-.8668-2.1224-2.471,0-1.664.9367-2.4611,2.1024-2.4611,1.0861,0,1.8035.7871,1.8533,2.1821h-3.1486c0,1.375.7573,2.0027,1.5544,2.0027a1.5765,1.5765,0,0,0,1.4348-.7771Zm-.9665-1.7337c-.03-.7373-.3587-1.4149-1.0661-1.4149-.6776,0-1.0761.4883-1.1558,1.4149Zm3.0883-.7572h.03c.5081-.7374.8071-1.0861,1.2853-1.0861a.5146.5146,0,0,1,.5779.558c0,.3786-.2192.538-.4384.538-.3288,0-.5281-.3388-.6476-.3388-.2292,0-.548.4185-.7872.8171v2.2718c0,.6277.1893.7273.9366.7273v.289h-2.491v-.289c.6577,0,.7274-.12.7274-.6775v-2.74c0-.3587,0-.5381-.3587-.5381a1.9083,1.9083,0,0,0-.3089.02v-.279l1.2356-.2989h.2391Zm5.0712,3.039c-.3886.538-.5978.8369-1.2355.8369-.6676,0-.9566-.3587-.9566-1.2554V83.1155h-.548v-.2291a2.9654,2.9654,0,0,0,1.1259-1.5544h.2591l-.01,1.365h1.126v.4185h-1.126v2.86c0,.7074.09.9466.4783.9466.3188,0,.4484-.13.6975-.4086Zm2.59.7373h-2.2419v-.279c.6676,0,.6975-.1594.6975-.7274v-2.78c0-.4285-.1494-.4683-.4384-.4683a1.55,1.55,0,0,0-.2491.02v-.2889l1.2555-.279h.259v3.7962c0,.578.05.7274.7174.7274Zm-.548-6.3471a.5494.5494,0,0,1-.5679.568.5554.5554,0,0,1-.568-.568.568.568,0,0,1,1.1359,0Zm5.0813,5.0119a2.0237,2.0237,0,0,1-1.933,1.4348c-1.2455,0-1.9928-.9665-1.9928-2.3515,0-1.5643.817-2.5806,2.2518-2.5806.9367,0,1.5146.4782,1.5146,1.0562,0,.2889-.1395.4483-.4185.4483-.7373,0-.4085-1.1359-1.2654-1.1359-.8071,0-1.2954.5979-1.2954,1.7437,0,1.2156.4883,2.0725,1.5146,2.0725a1.6322,1.6322,0,0,0,1.4348-.827Zm3.2178.7174a2.0581,2.0581,0,0,1-1.4647.6876,1.0764,1.0764,0,0,1-1.1858-1.116c0-1.3153,1.7637-1.5743,2.6206-1.8434V84.082c0-.8668-.299-1.1956-.8968-1.1956-.5679,0-.6676.2092-.6676.807a.4006.4006,0,0,1-.4384.4584.4314.4314,0,0,1-.4185-.4783c0-.558.6676-1.096,1.7537-1.096s1.4946.4982,1.4946,1.5344v2.2618c0,.4086.09.4883.2989.4883a.6323.6323,0,0,0,.4683-.2491l.15.1594c-.3288.4783-.568.6875-1.0761.6875-.4385,0-.5381-.2291-.5979-.6676Zm-.03-1.9429c-.9068.2291-1.7437.4982-1.7437,1.2753a.7175.7175,0,0,0,.7174.8071,1.6808,1.6808,0,0,0,1.0263-.4384Zm4.3735,2.5607h-2.2917v-.289c.6576,0,.6974-.1594.6974-.7174V81.4017c0-.4085-.1694-.4284-.4185-.4284a2.72,2.72,0,0,0-.3188.02v-.269l1.3152-.3488h.2491v6.0282c0,.578.05.7174.7673.7174Zm2.8194,0h-2.2917v-.289c.6576,0,.6975-.1594.6975-.7174V81.4017c0-.4085-.1694-.4284-.4185-.4284a2.7174,2.7174,0,0,0-.3188.02v-.269l1.3152-.3488h.2491v6.0282c0,.578.05.7174.7672.7174Zm5.1411-4.424c-.3985,0-.548.1694-.6875.558l-1.5544,4.0852c-.558,1.4647-1.0462,1.9828-1.8533,1.9828-.4484,0-.7373-.1395-.7373-.5181,0-.2989.1993-.4284.4683-.4284.3487,0,.558.2192.8071.2192.3188,0,.8868-1.2356.8868-1.5245a3.8523,3.8523,0,0,0-.2989-.8171l-1.4647-3.1984a.5484.5484,0,0,0-.5979-.3587v-.289h2.1323v.299c-.4484,0-.5679.09-.5679.269a1.339,1.339,0,0,0,.1395.4284l.9764,2.1921.1395.5181h.07l.9565-2.9194a1.1058,1.1058,0,0,0,.05-.2491c0-.1993-.2291-.2491-.558-.2491v-.289h1.6939Zm-.23,5.59a1.1654,1.1654,0,0,0,.827-1.2057.85.85,0,0,1-.3089.06.4992.4992,0,0,1-.548-.538.5729.5729,0,0,1,.6177-.5879c.4982,0,.7673.3288.7673.8768a1.71,1.71,0,0,1-1.2356,1.6441Zm11.8167-5.59c-.3886,0-.5381.1395-.7374.6576L146.1437,87.47h-.4783l-1.0562-2.9h-.04l-1.1658,2.9h-.4583l-1.4946-3.7564c-.2591-.6178-.4086-.7274-.847-.7274v-.289h2.1423v.289c-.3986,0-.5281.09-.5281.2491a1.0478,1.0478,0,0,0,.11.3886l.8669,2.202.1793.5779h.07l.2092-.5779.7174-1.8134-.11-.2989c-.2391-.6477-.3886-.7274-.827-.7274v-.289h2.0825v.289c-.3787,0-.4982.09-.4982.2491a1.3806,1.3806,0,0,0,.09.4085l.8071,2.1821.1794.5779h.06l.1992-.5779.7872-2.2319a1.413,1.413,0,0,0,.06-.3587c0-.1893-.1893-.2491-.558-.2491v-.289h1.7238Zm4.1439,3.1386a1.9736,1.9736,0,0,1-1.8633,1.385c-1.1957,0-2.1223-.8668-2.1223-2.471,0-1.664.9366-2.4611,2.1024-2.4611,1.086,0,1.8034.7871,1.8533,2.1821H149.331c0,1.375.7573,2.0027,1.5544,2.0027a1.5765,1.5765,0,0,0,1.4348-.7771Zm-.9666-1.7337c-.03-.7373-.3587-1.4149-1.0661-1.4149-.6776,0-1.0761.4883-1.1558,1.4149Zm7.8607,1.6839a2.0236,2.0236,0,0,1-1.933,1.4348c-1.2455,0-1.9928-.9665-1.9928-2.3515,0-1.5643.8171-2.5806,2.2519-2.5806.9366,0,1.5145.4782,1.5145,1.0562,0,.2889-.1395.4483-.4185.4483-.7373,0-.4085-1.1359-1.2654-1.1359-.8071,0-1.2953.5979-1.2953,1.7437,0,1.2156.4882,2.0725,1.5145,2.0725a1.6319,1.6319,0,0,0,1.4348-.827Zm3.2178.7174a2.0578,2.0578,0,0,1-1.4647.6876,1.0764,1.0764,0,0,1-1.1857-1.116c0-1.3153,1.7636-1.5743,2.62-1.8434V84.082c0-.8668-.2989-1.1956-.8967-1.1956-.568,0-.6676.2092-.6676.807a.4007.4007,0,0,1-.4384.4584.4314.4314,0,0,1-.4185-.4783c0-.558.6676-1.096,1.7536-1.096s1.4946.4982,1.4946,1.5344v2.2618c0,.4086.09.4883.2989.4883a.6323.6323,0,0,0,.4684-.2491l.1494.1594c-.3288.4783-.5679.6875-1.0761.6875-.4384,0-.5381-.2291-.5978-.6676Zm-.03-1.9429c-.9067.2291-1.7437.4982-1.7437,1.2753a.7175.7175,0,0,0,.7174.8071,1.6808,1.6808,0,0,0,1.0263-.4384Zm6.5756,1.5543c0,.558.07.7274.7373.7274v.279h-2.3017v-.279c.7075,0,.7373-.1694.7373-.7274V84.6c0-1.1957-.4683-1.385-.9166-1.385a1.8261,1.8261,0,0,0-1.2057.6277v2.5607c0,.558.04.7274.7573.7274v.279h-2.2818v-.279c.6676,0,.6975-.1694.6975-.7274v-2.8c0-.3587-.15-.4385-.4185-.4385a1.5087,1.5087,0,0,0-.269.02v-.289l1.2654-.2889h.2292l-.01.807h.04a2.4243,2.4243,0,0,1,1.6042-.8369c.9067,0,1.3352.6277,1.3352,1.7736Zm8.9565,1.0064H175.832v-.289c.6576,0,.6975-.1893.6975-.7174v-2.76c0-.3288-.09-.4783-.279-.5281h-1.933v3.1088c0,.7672.1594.9067.8569.9067v.279h-2.5408v-.279c.7273,0,.837-.13.837-.9067V83.1155h-.7573V82.697h.7573a2.7982,2.7982,0,0,1,.3686-1.644,2.0265,2.0265,0,0,1,1.8135-.7872c.8668,0,1.4647.2491,1.4647.8071a.4348.4348,0,0,1-.4783.4584c-.2989,0-.4285-.2292-.558-.5281-.11-.289-.3388-.3787-.6775-.3787-.6876,0-1.0861.3687-1.0861,1.4647v.6078h1.7138l1.0661-.09h.2591v3.7962c0,.568.05.7174.7672.7174Zm5.021-1.0064c0,.558.07.7274.7374.7274v.279H181.58v-.279c.7074,0,.7373-.1694.7373-.7274V84.6c0-1.1957-.4683-1.385-.9167-1.385a1.8261,1.8261,0,0,0-1.2056.6277v2.5607c0,.558.04.7274.7573.7274v.279h-2.2818v-.279c.6676,0,.6975-.1694.6975-.7274v-2.8c0-.3587-.15-.4385-.4185-.4385a1.5087,1.5087,0,0,0-.269.02v-.289l1.2654-.2889h.2292l-.01.807h.04a2.4241,2.4241,0,0,1,1.6042-.8369c.9067,0,1.3351.6277,1.3351,1.7736Zm4.792,1.0562h-.2292v-.6875h-.04a2.35,2.35,0,0,1-1.5444.7174c-1.1259,0-1.7038-.9864-1.7038-2.2618a2.3892,2.3892,0,0,1,2.2917-2.65,1.9839,1.9839,0,0,1,.9665.2391V81.5113c0-.4384-.05-.5281-.4384-.5281-.09,0-.2591.02-.2591.02v-.279l1.2555-.3488h.269v5.9685c0,.5181.13.6177.4982.6177h.2093v.2691Zm-.2591-3.6867a.9349.9349,0,0,0-.9864-.7971c-.837,0-1.4049.6078-1.4049,1.8633,0,1.375.4583,1.933,1.3052,1.933a1.7039,1.7039,0,0,0,1.0861-.3687Z"/><path d="M195.4379,84.2514v.05c.3587.2491.5579.7573,1.375,2.3017a.8753.8753,0,0,0,.9167.5082l-.06.2989h-1.5145c-.7473-1.6441-.9566-2.0625-1.2655-2.67-.1494-.279-.279-.3388-.6377-.3388h-.2092l-.3687,1.7736c-.1694.827-.06.9366.7971.9366l-.05.2989h-2.75l.06-.2989c.7374,0,.8868-.1,1.0562-.9366l.8769-4.2746c.11-.548.05-.7373-.7473-.7373l.06-.2989h2.3416c1.3949,0,2.212.4085,2.212,1.375C197.53,83.6436,196.3047,84.102,195.4379,84.2514Zm-1.3253-.2192.3089.01c1.1957-.04,2.1224-.4883,2.1224-1.7637,0-.538-.299-1.0262-1.2854-1.0262a5.371,5.371,0,0,0-.5879.03Z"/><path d="M201.4254,89.502l.0488-.2789c.3626,0,.5718-.0419.5718-.4254a2.8813,2.8813,0,0,0-.0279-.3208l-.0767-.5718H200.01l-.4742.6764a.9086.9086,0,0,0-.2022.46c0,.1464.0976.1813.4184.1813l-.0628.2789h-1.6108l.0627-.2789c.4045,0,.5579-.0977,1.0181-.795l2.5941-3.87h.4323l.6834,3.9956c.0837.4882.1744.6695.6346.6695l-.0558.2789Zm.1743-4.0027h-.0349l-1.3388,2.0572h1.6666Z"/><path d="M204.7272,83.3846a.5937.5937,0,1,1,1.1855,0,.5933.5933,0,1,1-1.1855,0Zm0,3.5176a.5937.5937,0,1,1,1.1855,0,.5932.5932,0,1,1-1.1855,0Z"/><path d="M107.3529,112.1764v.05c.3587.2491.5579.7573,1.375,2.3017a.8753.8753,0,0,0,.9167.5082l-.06.2989H108.07c-.7473-1.6441-.9566-2.0626-1.2655-2.67-.1494-.2789-.279-.3387-.6377-.3387h-.2092l-.3687,1.7736c-.1694.827-.06.9366.7972.9366l-.05.2989h-2.75l.06-.2989c.7373,0,.8868-.1,1.0561-.9366l.8769-4.2746c.11-.548.05-.7373-.7473-.7373l.06-.2989h2.3415c1.395,0,2.212.4085,2.212,1.375C109.4453,111.5686,108.22,112.0269,107.3529,112.1764Zm-1.3253-.2192.3089.01c1.1957-.04,2.1224-.4883,2.1224-1.7637,0-.538-.299-1.0263-1.2854-1.0263a5.396,5.396,0,0,0-.5879.03Z"/><path d="M113.34,117.427l.0488-.2789c.3626,0,.5718-.0419.5718-.4254a2.8813,2.8813,0,0,0-.0279-.3208l-.0767-.5718h-1.9316l-.4742.6764a.9086.9086,0,0,0-.2022.46c0,.1464.0976.1813.4184.1813l-.0628.2789h-1.6108l.0627-.2789c.4045,0,.5579-.0977,1.0181-.795l2.5941-3.87H114.1l.6834,3.9956c.0837.4882.1744.6695.6346.6695l-.0558.2789Zm.1743-4.0027H113.48l-1.3388,2.0572h1.6666Z"/><path d="M121.6256,110.034v2.3418h2.252v.5977h-2.252v2.3613h-.6377v-2.3613H118.736v-.5977h2.2519V110.034Z"/><path d="M131.2711,103.3h-.0195l-1.126.6075-.17-.668,1.415-.7568h.7481v6.4765h-.8477Z"/><path d="M138.7828,105.6512c0,2.2012-.8164,3.417-2.2519,3.417-1.2647,0-2.1221-1.1856-2.1416-3.3281,0-2.1719.9365-3.3672,2.2519-3.3672C138.0055,102.3729,138.7828,103.5887,138.7828,105.6512Zm-3.5166.1c0,1.6836.5176,2.64,1.3155,2.64.8964,0,1.3242-1.0459,1.3242-2.7,0-1.5938-.4082-2.64-1.3145-2.64C135.8239,103.0506,135.2662,103.9871,135.2662,105.7508Z"/><path d="M143.8942,105.6512c0,2.2012-.8174,3.417-2.252,3.417-1.2656,0-2.1221-1.1856-2.1426-3.3281,0-2.1719.9375-3.3672,2.252-3.3672C143.1168,102.3729,143.8942,103.5887,143.8942,105.6512Zm-3.5176.1c0,1.6836.5185,2.64,1.3154,2.64.8965,0,1.3252-1.0459,1.3252-2.7,0-1.5938-.4082-2.64-1.3154-2.64C140.9352,103.0506,140.3766,103.9871,140.3766,105.7508Z"/><line class="cls-7" x1="128.92" y1="112.765" x2="143.715" y2="112.765"/><path d="M133.7369,116.0506h-.0195l-1.126.6074-.17-.6679,1.415-.7569h.7471V121.71h-.8467Z"/><path d="M137.4528,121.0916a3.66,3.66,0,0,0,.708-.0293,2.4457,2.4457,0,0,0,1.3545-.6279,2.8432,2.8432,0,0,0,.8574-1.7236h-.03a1.9,1.9,0,0,1-1.5244.6972,1.8759,1.8759,0,0,1-1.9131-1.9824,2.22,2.22,0,0,1,2.2119-2.3017c1.3252,0,2.1426,1.0761,2.1426,2.7294a4.0912,4.0912,0,0,1-1.1162,3.0391,3.24,3.24,0,0,1-1.8828.8672,4.106,4.106,0,0,1-.8076.05Zm.3193-3.7265a1.2457,1.2457,0,0,0,1.2451,1.375,1.4479,1.4479,0,0,0,1.2754-.6768.5812.5812,0,0,0,.08-.3193c0-1.1055-.4082-1.9532-1.3252-1.9532C138.3,115.7908,137.7721,116.4491,137.7721,117.3651Z"/><path d="M147.9606,110.0936l2.1328,2.1826,2.1318-2.1826.4385.4385-2.1426,2.1826,2.1426,2.1816-.4385.4385-2.1318-2.1816-2.1328,2.1816-.4385-.4385,2.1318-2.1816-2.1318-2.1826Z"/><path class="cls-8" d="M160.028,115.1551a3.2234,3.2234,0,0,1-1.3858.2793,2.2907,2.2907,0,0,1-2.4-2.4609,2.45,2.45,0,0,1,2.59-2.5606,2.9229,2.9229,0,0,1,1.2158.249l-.1992.6778a2.0269,2.0269,0,0,0-1.0166-.2295,1.8181,1.8181,0,0,0-.0293,3.6269,2.4979,2.4979,0,0,0,1.0761-.2392Z"/><path class="cls-8" d="M165.4176,112.8836a2.3574,2.3574,0,0,1-2.4014,2.5606,2.2921,2.2921,0,0,1-2.3115-2.48,2.355,2.355,0,0,1,2.3906-2.5615A2.2842,2.2842,0,0,1,165.4176,112.8836Zm-3.8262.05c0,1.0567.6075,1.8535,1.4649,1.8535.8369,0,1.4648-.7871,1.4648-1.873,0-.8174-.4092-1.8535-1.4453-1.8535S161.5914,112.0164,161.5914,112.9334Z"/><path class="cls-8" d="M166.403,114.4383a2.3018,2.3018,0,0,0,1.1562.3486c.6377,0,.9365-.3193.9365-.7177,0-.418-.249-.6475-.8965-.8868-.8671-.3085-1.2753-.7871-1.2753-1.3652a1.4869,1.4869,0,0,1,1.664-1.415,2.3993,2.3993,0,0,1,1.1856.3l-.22.6377a1.8719,1.8719,0,0,0-.9863-.2793c-.5185,0-.8076.2988-.8076.6572,0,.3984.2891.5781.917.8174.8369.3183,1.2656.7373,1.2656,1.4551,0,.8466-.6572,1.4443-1.8037,1.4443a2.7512,2.7512,0,0,1-1.3545-.3291Z"/><path class="cls-8" d="M172.9162,115.4745c-.8868,0-1.5445-.6676-1.5445-2.212,0-2.73,1.395-5.0717,3.0191-5.0717.9466,0,1.385.9765,1.385,2.4213C175.7758,113.6411,174.4705,115.4745,172.9162,115.4745Zm2.2817-3.5073H171.96a8.4568,8.4568,0,0,0-.05.8768c0,1.4049.6775,1.7636,1.2056,1.7636C174.072,114.6076,174.9289,113.85,175.1979,111.9672Zm-3.1387-.5281h3.2085c.01-.1893.02-.4086.02-.5879,0-.9366-.3189-1.7935-1.0961-1.7935C173.3446,109.0577,172.408,109.9445,172.0592,111.4391Z"/><path d="M179.3092,111.9774v-.5987h5.1416v.5987Zm0,1.9521v-.5976h5.1416v.5976Z"/><path d="M189.96,109.6756h-.02l-1.125.6074-.17-.6679,1.415-.7569h.7471v6.4766H189.96Z"/><path d="M197.4723,112.0272c0,2.2011-.8174,3.417-2.252,3.417-1.2656,0-2.123-1.1856-2.1425-3.3282,0-2.1718.9365-3.3671,2.2519-3.3671C196.6949,108.7489,197.4723,109.9647,197.4723,112.0272Zm-3.5176.1c0,1.6836.5176,2.64,1.3145,2.64.8974,0,1.3261-1.0459,1.3261-2.7,0-1.5937-.4091-2.64-1.3154-2.64C194.5123,109.4266,193.9547,110.3631,193.9547,112.1268Z"/><path d="M167.3719,138.4264v.05c.3587.2491.5579.7573,1.375,2.3017a.8753.8753,0,0,0,.9167.5082l-.06.2989h-1.5145c-.7473-1.6441-.9566-2.0625-1.2655-2.67-.1494-.2789-.279-.3387-.6377-.3387h-.2092l-.3687,1.7736c-.1694.827-.06.9366.7971.9366l-.05.2989h-2.75l.06-.2989c.7373,0,.8867-.1,1.0561-.9366l.8769-4.2746c.11-.548.05-.7373-.7473-.7373l.06-.2989h2.3415c1.3949,0,2.212.4085,2.212,1.375C169.4643,137.8186,168.2387,138.277,167.3719,138.4264Zm-1.3253-.2192.3089.01c1.1957-.04,2.1224-.4883,2.1224-1.7637,0-.538-.299-1.0262-1.2854-1.0262a5.3971,5.3971,0,0,0-.5879.03Z"/><path d="M173.3594,143.677l.0488-.2789c.3626,0,.5718-.0419.5718-.4254a2.8813,2.8813,0,0,0-.0279-.3208l-.0767-.5718h-1.9316l-.4742.6764a.9082.9082,0,0,0-.2022.46c0,.1464.0976.1813.4184.1813l-.0628.2789h-1.6108l.0628-.2789c.4044,0,.5578-.0977,1.018-.795l2.5941-3.87h.4323l.6834,3.9957c.0837.4882.1744.6695.6346.6695l-.0558.2789Zm.1743-4.0027h-.0349l-1.3388,2.0572h1.6666Z"/><path d="M179.3092,138.2274v-.5987h5.1416v.5987Zm0,1.9521v-.5976h5.1416v.5976Z"/><path d="M192.3971,129.5506h-.0195l-1.126.6074-.17-.6679,1.415-.7569h.7471V135.21h-.8467Z"/><path d="M197.5074,129.5506h-.0195l-1.126.6074-.1689-.6679,1.4141-.7569h.748V135.21h-.8477Z"/><path d="M205.02,131.9022c0,2.2011-.8173,3.417-2.2519,3.417-1.2656,0-2.1221-1.1856-2.1426-3.3282,0-2.1718.9365-3.3671,2.252-3.3671C204.2428,128.6239,205.02,129.84,205.02,131.9022Zm-3.5175.1c0,1.6836.5185,2.64,1.3154,2.64.8965,0,1.3252-1.0459,1.3252-2.7,0-1.5937-.4082-2.64-1.3154-2.64C202.06,129.3016,201.5026,130.2381,201.5026,132.0018Z"/><line class="cls-7" x1="190.046" y1="139.015" x2="204.841" y2="139.015"/><path d="M194.8629,142.3006h-.0195l-1.126.6074-.1689-.6679,1.414-.7569h.7481V147.96h-.8477Z"/><path d="M198.5787,147.3416a3.6573,3.6573,0,0,0,.708-.0293,2.4451,2.4451,0,0,0,1.3545-.6279,2.8438,2.8438,0,0,0,.8575-1.7236h-.03a1.9,1.9,0,0,1-1.5244.6972,1.8759,1.8759,0,0,1-1.9131-1.9824,2.22,2.22,0,0,1,2.2119-2.3017c1.3252,0,2.1426,1.0761,2.1426,2.7294a4.0912,4.0912,0,0,1-1.1162,3.0391,3.24,3.24,0,0,1-1.8828.8672,4.1026,4.1026,0,0,1-.8077.05Zm.3194-3.7265a1.2457,1.2457,0,0,0,1.2451,1.375,1.4491,1.4491,0,0,0,1.2754-.6768.5812.5812,0,0,0,.08-.3193c0-1.1055-.4092-1.9532-1.3252-1.9532C199.4254,142.0408,198.8981,142.6991,198.8981,143.6151Z"/><path d="M208.4537,141.5848V134.869H209.4l2.1524,3.3974a19.1181,19.1181,0,0,1,1.206,2.1827l.02-.01c-.0791-.8975-.1-1.7139-.1-2.7608v-2.81h.8174v6.7158h-.8769l-2.1328-3.4072a21.4762,21.4762,0,0,1-1.2549-2.2422l-.03.01c.0508.8467.07,1.6543.07,2.77v2.87Z"/><path d="M19.0292,162.8348c-.279-1.096-.6576-1.6241-1.664-1.6142-.6775,0-1.0661.3189-1.0661.9367,0,.7473.7174,1.106,1.4647,1.5344.8868.4982,1.8732.9466,1.8732,2.1323a1.791,1.791,0,0,1-2.0227,1.7836,5.7707,5.7707,0,0,1-1.654-.299c-.1395,0-.259.13-.269.3289h-.3089l-.09-2.1523h.3089c.3488,1.3751.8569,1.6939,1.8733,1.684.7473,0,1.2156-.299,1.2156-1.0562,0-.8769-.837-1.2256-1.6541-1.6939-.7971-.4584-1.6042-.9366-1.6042-1.9828s.8569-1.6042,1.8932-1.6142a3.9281,3.9281,0,0,1,1.3651.3089c.1594,0,.259-.08.3088-.289h.2591l.07,1.9928Zm3.4967,4.6532H20.284v-.279c.6676,0,.6975-.1594.6975-.7274v-2.78c0-.4285-.1495-.4683-.4384-.4683a1.55,1.55,0,0,0-.2491.02v-.289l1.2554-.2789h.2591v3.7962c0,.5779.05.7274.7174.7274Zm-.548-6.3471a.55.55,0,0,1-.568.568.5553.5553,0,0,1-.5679-.568.568.568,0,0,1,1.1359,0Zm5.6193,5.3407c0,.558.07.7274.7374.7274v.279H26.0329v-.279c.7074,0,.7373-.1694.7373-.7274v-1.8034c0-1.1957-.4683-1.385-.9167-1.385a1.8261,1.8261,0,0,0-1.2056.6277v2.5607c0,.558.04.7274.7572.7274v.279H23.1234v-.279c.6676,0,.6975-.1694.6975-.7274v-2.8c0-.3587-.15-.4385-.4185-.4385a1.5087,1.5087,0,0,0-.269.02v-.289l1.2654-.2889h.2291l-.01.807h.04a2.4245,2.4245,0,0,1,1.6042-.8369c.9068,0,1.3352.6277,1.3352,1.7736Zm5.2-.3288a2.0237,2.0237,0,0,1-1.933,1.4348c-1.2455,0-1.9928-.9665-1.9928-2.3515,0-1.5643.817-2.5806,2.2518-2.5806.9366,0,1.5146.4782,1.5146,1.0561,0,.289-.1395.4484-.4185.4484-.7374,0-.4086-1.1359-1.2655-1.1359-.807,0-1.2953.5979-1.2953,1.7437,0,1.2156.4883,2.0725,1.5146,2.0725a1.6322,1.6322,0,0,0,1.4348-.827Zm4.5131.05a1.9735,1.9735,0,0,1-1.8633,1.385c-1.1957,0-2.1223-.8668-2.1223-2.471,0-1.664.9366-2.4611,2.1024-2.4611,1.086,0,1.8034.7871,1.8533,2.1821H34.1322c0,1.375.7573,2.0027,1.5544,2.0027a1.5764,1.5764,0,0,0,1.4348-.7772Zm-.9665-1.7337c-.03-.7373-.3588-1.4149-1.0662-1.4149-.6775,0-1.0761.4883-1.1558,1.4149Zm11.1986-1.4049c-.3886,0-.5381.1395-.7374.6576l-1.4846,3.8262h-.4783l-1.0561-2.8995h-.04l-1.1658,2.8995h-.4583l-1.4946-3.7564c-.2591-.6178-.4085-.7274-.847-.7274v-.289h2.1423v.289c-.3986,0-.5281.09-.5281.2491a1.0478,1.0478,0,0,0,.11.3886l.8669,2.202.1793.5779h.07l.2092-.5779.7174-1.8134-.11-.2989c-.2391-.6477-.3886-.7274-.827-.7274v-.289h2.0825v.289c-.3786,0-.4982.09-.4982.2491a1.3779,1.3779,0,0,0,.09.4085l.807,2.1821.1794.5779h.06l.1993-.5779.7871-2.2319a1.413,1.413,0,0,0,.06-.3587c0-.1893-.1893-.2491-.558-.2491v-.289h1.7238Zm4.1439,3.1386a1.9735,1.9735,0,0,1-1.8633,1.385c-1.1957,0-2.1223-.8668-2.1223-2.471,0-1.664.9366-2.4611,2.1024-2.4611,1.0861,0,1.8035.7871,1.8533,2.1821H48.5083c0,1.375.7572,2.0027,1.5543,2.0027a1.5766,1.5766,0,0,0,1.4349-.7772Zm-.9665-1.7337c-.03-.7373-.3587-1.4149-1.0662-1.4149-.6775,0-1.0761.4883-1.1558,1.4149Zm6.6351,2.4013a2.0577,2.0577,0,0,1-1.4647.6875,1.0763,1.0763,0,0,1-1.1857-1.1159c0-1.3153,1.7636-1.5743,2.6205-1.8434V164.16c0-.8668-.2989-1.1957-.8968-1.1957-.5679,0-.6675.2093-.6675.8071a.4007.4007,0,0,1-.4385.4584.4314.4314,0,0,1-.4184-.4783c0-.558.6675-1.096,1.7536-1.096s1.4946.4982,1.4946,1.5344v2.2618c0,.4086.09.4883.2989.4883a.6321.6321,0,0,0,.4683-.2491l.15.1594c-.3288.4783-.5679.6875-1.0761.6875-.4384,0-.5381-.2292-.5978-.6676Zm-.03-1.9429c-.9067.2291-1.7437.4982-1.7437,1.2753a.7175.7175,0,0,0,.7174.8071,1.6808,1.6808,0,0,0,1.0263-.4384Zm3.6063-1.2157h.03c.5081-.7373.8071-1.086,1.2853-1.086a.5146.5146,0,0,1,.5779.558c0,.3786-.2192.538-.4384.538-.3288,0-.5281-.3388-.6476-.3388-.2292,0-.5481.4185-.7872.8171v2.2718c0,.6277.1893.7273.9366.7273v.289h-2.491v-.289c.6576,0,.7274-.12.7274-.6775v-2.74c0-.3587,0-.5381-.3587-.5381a1.9083,1.9083,0,0,0-.3089.02v-.279l1.2355-.2989h.2392Zm6.1872,2.491a1.9734,1.9734,0,0,1-1.8632,1.385c-1.1957,0-2.1224-.8668-2.1224-2.471,0-1.664.9366-2.4611,2.1024-2.4611,1.0861,0,1.8035.7871,1.8533,2.1821H63.9405c0,1.375.7573,2.0027,1.5544,2.0027a1.5764,1.5764,0,0,0,1.4348-.7772Zm-.9665-1.7337c-.03-.7373-.3587-1.4149-1.0661-1.4149-.6776,0-1.0761.4883-1.1559,1.4149Zm6.7149,2.2818c-.3886.538-.5979.8369-1.2356.8369-.6676,0-.9565-.3587-.9565-1.2554v-3.1387h-.548v-.2292a2.9647,2.9647,0,0,0,1.1259-1.5543h.2591l-.01,1.365h1.1259v.4185H71.5023v2.86c0,.7074.09.9466.4783.9466.3188,0,.4483-.13.6974-.4086Zm1.8529-3.0391h.03c.5082-.7373.8071-1.086,1.2854-1.086a.5146.5146,0,0,1,.5779.558c0,.3786-.2192.538-.4384.538-.3288,0-.5281-.3388-.6477-.3388-.2291,0-.548.4185-.7871.8171v2.2718c0,.6277.1893.7273.9366.7273v.289h-2.491v-.289c.6576,0,.7274-.12.7274-.6775v-2.74c0-.3587,0-.5381-.3587-.5381a1.9083,1.9083,0,0,0-.3089.02v-.279l1.2355-.2989H74.72Zm6.8746-.6476c-.3985,0-.548.1694-.6875.558l-1.5544,4.0852c-.5579,1.4647-1.0462,1.9828-1.8533,1.9828-.4483,0-.7373-.1395-.7373-.5181,0-.2989.1993-.4284.4683-.4284.3488,0,.558.2192.8071.2192.3188,0,.8868-1.2356.8868-1.5245a3.85,3.85,0,0,0-.2989-.8171l-1.4647-3.1984a.5484.5484,0,0,0-.5979-.3587v-.289h2.1323v.299c-.4484,0-.5679.09-.5679.269a1.34,1.34,0,0,0,.1395.4284l.9764,2.1921.14.5181h.07l.9565-2.9194a1.1,1.1,0,0,0,.05-.2491c0-.1993-.2291-.2491-.5579-.2491v-.289h1.6938Zm2.4605,4.424H81.8135v-.279c.6676,0,.6975-.1594.6975-.7274v-2.78c0-.4285-.1495-.4683-.4384-.4683a1.55,1.55,0,0,0-.2491.02v-.289l1.2554-.2789h.2591v3.7962c0,.5779.05.7274.7174.7274Zm-.548-6.3471a.55.55,0,0,1-.568.568.5553.5553,0,0,1-.5679-.568.568.568,0,0,1,1.1359,0Zm5.6193,5.3407c0,.558.07.7274.7374.7274v.279H87.5624v-.279c.7074,0,.7373-.1694.7373-.7274v-1.8034c0-1.1957-.4683-1.385-.9167-1.385a1.8261,1.8261,0,0,0-1.2056.6277v2.5607c0,.558.04.7274.7573.7274v.279H84.6529v-.279c.6676,0,.6975-.1694.6975-.7274v-2.8c0-.3587-.1495-.4385-.4185-.4385a1.5087,1.5087,0,0,0-.269.02v-.289l1.2654-.2889h.2292l-.01.807h.04a2.4241,2.4241,0,0,1,1.6042-.8369c.9067,0,1.3351.6277,1.3351,1.7736Zm2.2213-.8469a1.4622,1.4622,0,0,1-.7673-1.3551,1.6269,1.6269,0,0,1,1.8035-1.6241,2.47,2.47,0,0,1,1.106.2491l1.2854-.07v.5381l-.9366-.03v.05a1.7108,1.7108,0,0,1,.3587,1.0263,1.5574,1.5574,0,0,1-1.7637,1.5145,2.5748,2.5748,0,0,1-.8569-.1494,1.6682,1.6682,0,0,0-.259.6675c0,.299.259.3986,1.1757.3986,1.2555,0,2.212.04,2.212,1.1857,0,1.3352-1.4746,1.7935-2.73,1.7935-1.3053,0-1.6939-.548-1.6939-1.096,0-.3288.269-.6676.8071-1.1857v-.04a.8783.8783,0,0,1-.558-.7174,1.7541,1.7541,0,0,1,.8171-1.1359Zm-.289,2.76c0,.5779.4783.8669,1.4946.8669,1.1758,0,1.6441-.5181,1.6441-.9466,0-.7174-1.0662-.6975-1.7338-.7074-.7971-.01-.9864-.02-1.1259-.02A1.637,1.637,0,0,0,91.059,168.3947Zm.3986-4.155c0,.8569.3387,1.3452.9864,1.3452.4982,0,.8669-.279.8669-1.2256,0-.8071-.3587-1.3451-.9964-1.3451C91.7963,163.0142,91.4576,163.4028,91.4576,164.24Zm8.8868,2.511c-.3886.538-.5978.8369-1.2355.8369-.6676,0-.9566-.3587-.9566-1.2554v-3.1387h-.548v-.2292A2.9648,2.9648,0,0,0,98.73,161.41h.259l-.01,1.365h1.1259v.4185H98.9794v2.86c0,.7074.09.9466.4782.9466.3189,0,.4484-.13.6975-.4086Zm4.7624-1.7138c0,1.6739-.9167,2.5507-2.212,2.5507-1.395,0-2.232-.8967-2.232-2.5109a2.204,2.204,0,0,1,2.232-2.4212A2.1317,2.1317,0,0,1,105.1068,165.0369Zm-3.5173-.09c0,1.5843.4882,2.2518,1.3451,2.2419.8171,0,1.2555-.4783,1.2555-2.1024,0-1.2256-.4484-2.0526-1.3352-2.0526C102.0976,163.0341,101.59,163.6718,101.59,164.9472Zm11.8662,2.5408h-2.2918v-.289c.6577,0,.6975-.1893.6975-.7174v-2.76c0-.3288-.09-.4783-.279-.5281h-1.933v3.1088c0,.7672.1594.9067.8569.9067v.279h-2.5408v-.279c.7274,0,.837-.13.837-.9067v-3.1088h-.7573v-.4185h.7573a2.7989,2.7989,0,0,1,.3686-1.644,2.0267,2.0267,0,0,1,1.8135-.7872c.8669,0,1.4647.2491,1.4647.8071a.4347.4347,0,0,1-.4783.4583c-.2989,0-.4284-.2291-.558-.528-.11-.289-.3387-.3787-.6775-.3787-.6875,0-1.0861.3687-1.0861,1.4647v.6078h1.7138l1.0662-.09h.259v3.7962c0,.568.05.7174.7673.7174Zm5.021-1.0064c0,.558.07.7274.7373.7274v.279h-2.3017v-.279c.7075,0,.7374-.1694.7374-.7274v-1.8034c0-1.1957-.4684-1.385-.9167-1.385a1.8261,1.8261,0,0,0-1.2057.6277v2.5607c0,.558.04.7274.7573.7274v.279h-2.2818v-.279c.6676,0,.6975-.1694.6975-.7274v-2.8c0-.3587-.15-.4385-.4185-.4385a1.5087,1.5087,0,0,0-.269.02v-.289l1.2654-.2889h.2292l-.01.807h.04a2.4243,2.4243,0,0,1,1.6042-.8369c.9067,0,1.3352.6277,1.3352,1.7736Zm4.7919,1.0562h-.2292V166.85H123a2.35,2.35,0,0,1-1.5444.7174c-1.126,0-1.7039-.9864-1.7039-2.2618a2.3893,2.3893,0,0,1,2.2917-2.65,1.9836,1.9836,0,0,1,.9665.2391v-1.3053c0-.4384-.05-.5281-.4384-.5281-.09,0-.259.02-.259.02v-.279l1.2554-.3488h.269v5.9685c0,.5181.13.6177.4982.6177h.2093v.269Zm-.2591-3.6867a.9348.9348,0,0,0-.9864-.7971c-.837,0-1.4049.6078-1.4049,1.8633,0,1.375.4583,1.933,1.3053,1.933a1.7036,1.7036,0,0,0,1.086-.3687Zm7.2329,2.9c-.3886.538-.5979.8369-1.2356.8369-.6676,0-.9565-.3587-.9565-1.2554v-3.1387h-.548v-.2292a2.9647,2.9647,0,0,0,1.1259-1.5543h.2591l-.01,1.365h1.1259v.4185h-1.1259v2.86c0,.7074.09.9466.4783.9466.3188,0,.4484-.13.6975-.4086Zm1.8529-.2292c0,.5181.05.6775.7373.6775v.289h-2.2618v-.289c.5181,0,.6975-.08.6975-.6377V161.46c0-.3488-.2192-.3986-.4883-.3986a2.1115,2.1115,0,0,0-.2889.02v-.279l1.3351-.3488h.2691v3.0191h.03a2.32,2.32,0,0,1,1.6141-.817c1.1459,0,1.3352,1.0263,1.3352,1.8433v1.9828c0,.5281.11.7174.7373.7174v.289H133.52v-.289c.6875,0,.7274-.1992.7274-.6775v-1.7238c0-.817-.11-1.5045-.9167-1.5045a1.81,1.81,0,0,0-1.2355.6177Zm8.2493-.3189a1.9733,1.9733,0,0,1-1.8632,1.385c-1.1957,0-2.1224-.8668-2.1224-2.471,0-1.664.9367-2.4611,2.1024-2.4611,1.0861,0,1.8035.7871,1.8533,2.1821h-3.1486c0,1.375.7573,2.0027,1.5544,2.0027a1.5764,1.5764,0,0,0,1.4348-.7772Zm-.9665-1.7337c-.03-.7373-.3587-1.4149-1.0661-1.4149-.6776,0-1.0761.4883-1.1558,1.4149Zm7.8607,1.6839a2.0236,2.0236,0,0,1-1.933,1.4348c-1.2455,0-1.9928-.9665-1.9928-2.3515,0-1.5643.8171-2.5806,2.2519-2.5806.9366,0,1.5145.4782,1.5145,1.0561,0,.289-.1395.4484-.4185.4484-.7373,0-.4085-1.1359-1.2654-1.1359-.8071,0-1.2953.5979-1.2953,1.7437,0,1.2156.4882,2.0725,1.5145,2.0725a1.632,1.632,0,0,0,1.4348-.827Zm4.9715-1.1159c0,1.6739-.9167,2.5507-2.2121,2.5507-1.3949,0-2.2319-.8967-2.2319-2.5109a2.204,2.204,0,0,1,2.2319-2.4212A2.1317,2.1317,0,0,1,152.21,165.0369Zm-3.5173-.09c0,1.5843.4882,2.2518,1.3451,2.2419.817,0,1.2555-.4783,1.2555-2.1024,0-1.2256-.4484-2.0526-1.3352-2.0526C149.2011,163.0341,148.693,163.6718,148.693,164.9472Zm8.18,1.2554a1.9735,1.9735,0,0,1-1.8633,1.385c-1.1957,0-2.1223-.8668-2.1223-2.471,0-1.664.9366-2.4611,2.1024-2.4611,1.0861,0,1.8035.7871,1.8533,2.1821h-3.1486c0,1.375.7572,2.0027,1.5543,2.0027a1.5766,1.5766,0,0,0,1.4349-.7772Zm-.9665-1.7337c-.03-.7373-.3587-1.4149-1.0662-1.4149-.6775,0-1.0761.4883-1.1558,1.4149Zm9.9434,3.0191H163.558v-.289c.6577,0,.6975-.1893.6975-.7174v-2.76c0-.3288-.09-.4783-.279-.5281h-1.933v3.1088c0,.7672.1594.9067.8569.9067v.279H160.36v-.279c.7274,0,.837-.13.837-.9067v-3.1088h-2.1722v3.1088c0,.7772.1893.8967.9167.8967v.289h-2.5906v-.289c.7273,0,.8369-.12.8369-.8967v-3.1088H157.43v-.4185h.7572a2.8739,2.8739,0,0,1,.3289-1.6042,1.4258,1.4258,0,0,1,1.365-.7473c.6477,0,1.1259.2591,1.1259.6975a.3954.3954,0,0,1-.4085.4384c-.259,0-.3686-.1395-.5679-.4085s-.289-.3487-.4883-.3487c-.3686,0-.5181.2889-.5181,1.1259v.8469h2.1722a2.7982,2.7982,0,0,1,.3686-1.644,2.0267,2.0267,0,0,1,1.8135-.7872c.8668,0,1.4647.2491,1.4647.8071a.4347.4347,0,0,1-.4783.4583c-.2989,0-.4284-.2291-.558-.528-.11-.289-.3387-.3787-.6775-.3787-.6875,0-1.0861.3687-1.0861,1.4647v.6078h1.7138l1.0662-.09h.259v3.7962c0,.568.05.7174.7672.7174Zm4.4826-1.3352a2.0237,2.0237,0,0,1-1.933,1.4348c-1.2455,0-1.9928-.9665-1.9928-2.3515,0-1.5643.817-2.5806,2.2519-2.5806.9366,0,1.5145.4782,1.5145,1.0561,0,.289-.1395.4484-.4185.4484-.7373,0-.4085-1.1359-1.2654-1.1359-.8071,0-1.2954.5979-1.2954,1.7437,0,1.2156.4883,2.0725,1.5146,2.0725a1.6322,1.6322,0,0,0,1.4348-.827Zm2.7495,1.3352H170.84v-.279c.6675,0,.6974-.1594.6974-.7274v-2.78c0-.4285-.1494-.4683-.4384-.4683a1.55,1.55,0,0,0-.2491.02v-.289l1.2555-.2789h.259v3.7962c0,.5779.05.7274.7175.7274Zm-.5481-6.3471a.5494.5494,0,0,1-.5679.568.5554.5554,0,0,1-.568-.568.568.568,0,0,1,1.1359,0Zm5.1511,5.0617a1.9735,1.9735,0,0,1-1.8633,1.385c-1.1957,0-2.1223-.8668-2.1223-2.471,0-1.664.9366-2.4611,2.1024-2.4611,1.086,0,1.8035.7871,1.8533,2.1821h-3.1486c0,1.375.7572,2.0027,1.5543,2.0027a1.5766,1.5766,0,0,0,1.4349-.7772Zm-.9665-1.7337c-.03-.7373-.3587-1.4149-1.0662-1.4149-.6775,0-1.0761.4883-1.1558,1.4149Zm6.0575,2.0127c0,.558.07.7274.7373.7274v.279h-2.3017v-.279c.7075,0,.7374-.1694.7374-.7274v-1.8034c0-1.1957-.4683-1.385-.9167-1.385a1.8263,1.8263,0,0,0-1.2057.6277v2.5607c0,.558.04.7274.7573.7274v.279H178.302v-.279c.6675,0,.6974-.1694.6974-.7274v-2.8c0-.3587-.1494-.4385-.4185-.4385a1.51,1.51,0,0,0-.269.02v-.289l1.2654-.2889h.2292l-.01.807h.04a2.4245,2.4245,0,0,1,1.6042-.8369c.9067,0,1.3352.6277,1.3352,1.7736Zm4.0546.2691c-.3886.538-.5978.8369-1.2355.8369-.6676,0-.9566-.3587-.9566-1.2554v-3.1387h-.548v-.2292a2.9647,2.9647,0,0,0,1.1259-1.5543h.2591l-.01,1.365h1.126v.4185h-1.126v2.86c0,.7074.09.9466.4783.9466.3189,0,.4484-.13.6975-.4086Zm7.1534-1.7138c0,1.6739-.9167,2.5507-2.212,2.5507-1.3949,0-2.2319-.8967-2.2319-2.5109a2.204,2.204,0,0,1,2.2319-2.4212A2.1316,2.1316,0,0,1,193.9838,165.0369Zm-3.5173-.09c0,1.5843.4883,2.2518,1.3452,2.2419.817,0,1.2554-.4783,1.2554-2.1024,0-1.2256-.4483-2.0526-1.3351-2.0526C190.9747,163.0341,190.4665,163.6718,190.4665,164.9472Zm4.8718-2.1722a3.1031,3.1031,0,0,1,.3189-1.664,1.3608,1.3608,0,0,1,1.3252-.7273c.6476,0,1.1159.2491,1.1159.6975a.3874.3874,0,0,1-.4085.4284c-.4982,0-.548-.7573-1.0462-.7573-.3687,0-.4783.299-.4783,1.1359v.8868h1.2156v.4185h-1.2156v3.1088c0,.7772.1893.8967,1.0164.8967v.289h-2.68v-.289c.7274,0,.837-.12.837-.8967v-3.1088h-.7572v-.4185Zm5.898,0a3.1041,3.1041,0,0,1,.3188-1.664,1.361,1.361,0,0,1,1.3253-.7273c.6476,0,1.1159.2491,1.1159.6975a.3874.3874,0,0,1-.4085.4284c-.4982,0-.548-.7573-1.0462-.7573-.3687,0-.4783.299-.4783,1.1359v.8868h1.2156v.4185h-1.2156v3.1088c0,.7772.1893.8967,1.0163.8967v.289h-2.68v-.289c.7274,0,.837-.12.837-.8967v-3.1088h-.7573v-.4185Zm3.8657.9366h.03c.5081-.7373.8071-1.086,1.2853-1.086a.5146.5146,0,0,1,.5779.558c0,.3786-.2192.538-.4384.538-.3288,0-.5281-.3388-.6476-.3388-.2292,0-.548.4185-.7872.8171v2.2718c0,.6277.1893.7273.9366.7273v.289h-2.491v-.289c.6577,0,.7274-.12.7274-.6775v-2.74c0-.3587,0-.5381-.3587-.5381a1.9083,1.9083,0,0,0-.3089.02v-.279l1.2356-.2989h.2391Zm4.5232,3.7764h-2.2419v-.279c.6676,0,.6974-.1594.6974-.7274v-2.78c0-.4285-.1494-.4683-.4384-.4683a1.55,1.55,0,0,0-.2491.02v-.289l1.2555-.2789h.2591v3.7962c0,.5779.05.7274.7174.7274Zm-.5481-6.3471a.5494.5494,0,0,1-.5679.568.5553.5553,0,0,1-.5679-.568.568.568,0,0,1,1.1358,0Zm5.0813,5.0119a2.0236,2.0236,0,0,1-1.933,1.4348c-1.2455,0-1.9928-.9665-1.9928-2.3515,0-1.5643.8171-2.5806,2.2519-2.5806.9366,0,1.5145.4782,1.5145,1.0561,0,.289-.1395.4484-.4185.4484-.7373,0-.4085-1.1359-1.2654-1.1359-.8071,0-1.2953.5979-1.2953,1.7437,0,1.2156.4882,2.0725,1.5145,2.0725a1.632,1.632,0,0,0,1.4348-.827Zm3.2975.5979c-.3886.538-.5978.8369-1.2355.8369-.6676,0-.9566-.3587-.9566-1.2554v-3.1387h-.548v-.2292a2.9647,2.9647,0,0,0,1.1259-1.5543h.2591l-.01,1.365h1.126v.4185h-1.126v2.86c0,.7074.09.9466.4783.9466.3189,0,.4484-.13.6975-.4086Zm2.59.7373h-2.2419v-.279c.6676,0,.6975-.1594.6975-.7274v-2.78c0-.4285-.1494-.4683-.4384-.4683a1.55,1.55,0,0,0-.2491.02v-.289l1.2555-.2789h.259v3.7962c0,.5779.05.7274.7174.7274Zm-.548-6.3471a.5494.5494,0,0,1-.5679.568.5554.5554,0,0,1-.568-.568.568.568,0,0,1,1.1359,0Zm5.6094,3.896c0,1.6739-.9167,2.5507-2.212,2.5507-1.395,0-2.2319-.8967-2.2319-2.5109a2.204,2.204,0,0,1,2.2319-2.4212A2.1316,2.1316,0,0,1,225.1075,165.0369Zm-3.5173-.09c0,1.5843.4882,2.2518,1.3451,2.2419.8171,0,1.2555-.4783,1.2555-2.1024,0-1.2256-.4484-2.0526-1.3352-2.0526C222.0984,163.0341,221.59,163.6718,221.59,164.9472Zm8.6481,1.5344c0,.558.07.7274.7374.7274v.279H228.674v-.279c.7074,0,.7373-.1694.7373-.7274v-1.8034c0-1.1957-.4683-1.385-.9167-1.385a1.8261,1.8261,0,0,0-1.2056.6277v2.5607c0,.558.04.7274.7573.7274v.279h-2.2818v-.279c.6676,0,.6975-.1694.6975-.7274v-2.8c0-.3587-.1495-.4385-.4185-.4385a1.5087,1.5087,0,0,0-.269.02v-.289l1.2654-.2889h.2292l-.01.807h.04a2.4241,2.4241,0,0,1,1.6042-.8369c.9067,0,1.3351.6277,1.3351,1.7736Zm1.5636,2.1722a1.1654,1.1654,0,0,0,.8271-1.2057.85.85,0,0,1-.3089.06.4993.4993,0,0,1-.5481-.538.573.573,0,0,1,.6178-.5879c.4982,0,.7672.3288.7672.8768a1.71,1.71,0,0,1-1.2355,1.6441Zm11.8168-5.59c-.3886,0-.5381.1395-.7374.6576l-1.4846,3.8262h-.4783l-1.0562-2.8995h-.04l-1.1658,2.8995h-.4584l-1.4946-3.7564c-.259-.6178-.4085-.7274-.8469-.7274v-.289h2.1423v.289c-.3986,0-.5281.09-.5281.2491a1.0478,1.0478,0,0,0,.11.3886l.8668,2.202.1794.5779h.07l.2093-.5779.7174-1.8134-.11-.2989c-.2391-.6477-.3886-.7274-.827-.7274v-.289h2.0825v.289c-.3787,0-.4982.09-.4982.2491a1.3806,1.3806,0,0,0,.09.4085l.8071,2.1821.1794.5779h.06l.1993-.5779.7872-2.2319a1.4176,1.4176,0,0,0,.06-.3587c0-.1893-.1894-.2491-.558-.2491v-.289h1.7238Zm4.1439,3.1386a1.9735,1.9735,0,0,1-1.8633,1.385c-1.1957,0-2.1223-.8668-2.1223-2.471,0-1.664.9366-2.4611,2.1024-2.4611,1.086,0,1.8034.7871,1.8533,2.1821H244.584c0,1.375.7573,2.0027,1.5544,2.0027a1.5764,1.5764,0,0,0,1.4348-.7772Zm-.9665-1.7337c-.03-.7373-.3588-1.4149-1.0662-1.4149-.6775,0-1.0761.4883-1.1558,1.4149Zm11.1986-1.4049c-.3886,0-.5381.1395-.7374.6576l-1.4846,3.8262h-.4783l-1.0561-2.8995h-.04l-1.1658,2.8995h-.4583l-1.4946-3.7564c-.2591-.6178-.4086-.7274-.847-.7274v-.289h2.1423v.289c-.3986,0-.5281.09-.5281.2491a1.0478,1.0478,0,0,0,.11.3886l.8669,2.202.1793.5779h.07l.2092-.5779.7174-1.8134-.11-.2989c-.2391-.6477-.3886-.7274-.827-.7274v-.289h2.0825v.289c-.3787,0-.4982.09-.4982.2491a1.3779,1.3779,0,0,0,.09.4085l.807,2.1821.1794.5779h.06l.1992-.5779.7872-2.2319a1.413,1.413,0,0,0,.06-.3587c0-.1893-.1893-.2491-.558-.2491v-.289h1.7238Zm2.43,4.424h-2.2419v-.279c.6676,0,.6975-.1594.6975-.7274v-2.78c0-.4285-.1494-.4683-.4384-.4683a1.55,1.55,0,0,0-.2491.02v-.289l1.2555-.2789h.259v3.7962c0,.5779.05.7274.7174.7274Zm-.548-6.3471a.55.55,0,0,1-.568.568.5553.5553,0,0,1-.5679-.568.568.568,0,0,1,1.1359,0Zm3.4173,6.3471h-2.2917v-.289c.6576,0,.6975-.1594.6975-.7174V161.48c0-.4085-.1694-.4284-.4185-.4284a2.72,2.72,0,0,0-.3189.02v-.269l1.3153-.3488h.2491v6.0282c0,.5779.05.7174.7672.7174Zm2.82,0h-2.2917v-.289c.6576,0,.6974-.1594.6974-.7174V161.48c0-.4085-.1693-.4284-.4184-.4284a2.72,2.72,0,0,0-.3189.02v-.269l1.3153-.3488h.2491v6.0282c0,.5779.05.7174.7672.7174Zm8.2395,0h-2.2917v-.289c.6577,0,.6975-.1893.6975-.7174v-2.76c0-.3288-.09-.4783-.279-.5281h-1.933v3.1088c0,.7672.1594.9067.8569.9067v.279H268.863v-.279c.7273,0,.837-.13.837-.9067v-3.1088h-.7573v-.4185H269.7a2.7982,2.7982,0,0,1,.3686-1.644,2.0265,2.0265,0,0,1,1.8135-.7872c.8668,0,1.4647.2491,1.4647.8071a.4347.4347,0,0,1-.4783.4583c-.2989,0-.4284-.2291-.558-.528-.11-.289-.3388-.3787-.6775-.3787-.6876,0-1.0861.3687-1.0861,1.4647v.6078h1.7138l1.0661-.09h.2591v3.7962c0,.568.05.7174.7672.7174Zm5.021-1.0064c0,.558.07.7274.7374.7274v.279H277.81v-.279c.7074,0,.7373-.1694.7373-.7274v-1.8034c0-1.1957-.4683-1.385-.9167-1.385a1.8261,1.8261,0,0,0-1.2056.6277v2.5607c0,.558.04.7274.7573.7274v.279H274.9v-.279c.6676,0,.6975-.1694.6975-.7274v-2.8c0-.3587-.1495-.4385-.4185-.4385a1.5087,1.5087,0,0,0-.269.02v-.289l1.2654-.2889h.2291l-.01.807h.04a2.4241,2.4241,0,0,1,1.6041-.8369c.9068,0,1.3352.6277,1.3352,1.7736Zm4.792,1.0562h-.2292V166.85h-.04a2.35,2.35,0,0,1-1.5444.7174c-1.1259,0-1.7038-.9864-1.7038-2.2618a2.3893,2.3893,0,0,1,2.2917-2.65,1.9839,1.9839,0,0,1,.9665.2391v-1.3053c0-.4384-.05-.5281-.4384-.5281-.09,0-.2591.02-.2591.02v-.279l1.2555-.3488h.269v5.9685c0,.5181.13.6177.4982.6177h.2093v.269Zm-.2591-3.6867a.9349.9349,0,0,0-.9864-.7971c-.837,0-1.4049.6078-1.4049,1.8633,0,1.375.4583,1.933,1.3052,1.933a1.7039,1.7039,0,0,0,1.0861-.3687Zm7.2329,2.9c-.3886.538-.5979.8369-1.2356.8369-.6675,0-.9565-.3587-.9565-1.2554v-3.1387H288.4v-.2292a2.9647,2.9647,0,0,0,1.1259-1.5543h.2591l-.01,1.365h1.1259v.4185h-1.1259v2.86c0,.7074.09.9466.4783.9466.3188,0,.4483-.13.6975-.4086Zm1.8528-.2292c0,.5181.05.6775.7374.6775v.289h-2.2618v-.289c.5181,0,.6974-.08.6974-.6377V161.46c0-.3488-.2192-.3986-.4882-.3986a2.114,2.114,0,0,0-.289.02v-.279l1.3352-.3488h.269v3.0191h.03a2.32,2.32,0,0,1,1.6142-.817c1.1459,0,1.3352,1.0263,1.3352,1.8433v1.9828c0,.5281.11.7174.7373.7174v.289h-2.2917v-.289c.6875,0,.7274-.1992.7274-.6775v-1.7238c0-.817-.11-1.5045-.9167-1.5045a1.81,1.81,0,0,0-1.2356.6177Zm6.4858.9665h-2.2419v-.279c.6676,0,.6975-.1594.6975-.7274v-2.78c0-.4285-.1495-.4683-.4384-.4683a1.55,1.55,0,0,0-.2491.02v-.289l1.2554-.2789h.2591v3.7962c0,.5779.05.7274.7174.7274Zm-.548-6.3471a.55.55,0,0,1-.568.568.5553.5553,0,0,1-.5679-.568.568.568,0,0,1,1.1359,0Zm1.4743,4.713c.2092,1.0263.5879,1.375,1.3252,1.375.4982,0,.8569-.1893.8569-.6576s-.1893-.6576-1.116-1.116c-.9067-.4583-1.3152-.807-1.3152-1.5444,0-.817.6676-1.2554,1.5245-1.2554a2.1878,2.1878,0,0,1,1.0462.259h.01l.1694-.2092h.1992l.03,1.5245h-.269c-.2192-.9466-.5879-1.2356-1.1957-1.2356-.4583,0-.807.2093-.807.6577,0,.3886.3288.6377,1.1657,1.0661.9068.4783,1.395.8469,1.395,1.5843,0,.9366-.7772,1.2953-1.674,1.2953a2.4946,2.4946,0,0,1-1.1359-.2591h-.02l-.2092.2292h-.2093l-.03-1.7138Z"/><path d="M16.16,179.1834a1.5442,1.5442,0,0,0,1.6533,1.6739,3.1639,3.1639,0,0,0,1.335-.2491l.15.628a3.9116,3.9116,0,0,1-1.6045.2988,2.24,2.24,0,0,1-2.3721-2.4317,2.3418,2.3418,0,0,1,2.2627-2.6,2.0433,2.0433,0,0,1,1.9922,2.2724,3.3724,3.3724,0,0,1-.0293.4082Zm2.57-.6279a1.2489,1.2489,0,0,0-1.2158-1.4248,1.4527,1.4527,0,0,0-1.3447,1.4248Z"/><path d="M23.9508,180.6883H23.93a1.7153,1.7153,0,0,1-1.5742.8565,2.1989,2.1989,0,0,1-2.042-2.4415,2.3105,2.3105,0,0,1,2.1816-2.6,1.5848,1.5848,0,0,1,1.4844.8379h.02l.0293-.7276h.8272c-.02.4082-.0293.8272-.0293,1.3252v5.47h-.877Zm0-2.1221a1.5226,1.5226,0,0,0-.04-.3691,1.2815,1.2815,0,0,0-1.2559-.9961c-.9062,0-1.4541.7666-1.4541,1.8525,0,.9571.458,1.794,1.4248,1.794a1.3057,1.3057,0,0,0,1.2549-.9561,1.472,1.472,0,0,0,.07-.4189Z"/><path d="M30.3063,180.12c0,.4981.01.9366.04,1.3155H29.569l-.05-.7871H29.5a1.8149,1.8149,0,0,1-1.5947.8965c-.7568,0-1.6631-.418-1.6631-2.1124v-2.8193h.876v2.67c0,.917.2793,1.5342,1.0762,1.5342a1.2313,1.2313,0,0,0,1.2353-1.2451v-2.959h.877Z"/><path d="M34.4313,181.4354l-.07-.6074h-.0293a1.7991,1.7991,0,0,1-1.4756.7168,1.3744,1.3744,0,0,1-1.4746-1.3848c0-1.166,1.0361-1.8037,2.8994-1.794v-.1a.9935.9935,0,0,0-1.0957-1.1152,2.4112,2.4112,0,0,0-1.2559.3584l-.1992-.5781a2.9988,2.9988,0,0,1,1.585-.4287c1.4746,0,1.833,1.0068,1.833,1.9736v1.8027a6.72,6.72,0,0,0,.08,1.1563Zm-.13-2.461c-.957-.02-2.043.1495-2.043,1.086a.7759.7759,0,0,0,.8272.8369,1.2,1.2,0,0,0,1.166-.8066.9359.9359,0,0,0,.05-.2793Z"/><path d="M37.6188,175.2274v1.3857h1.2558v.667H37.6188v2.6006c0,.5976.1689.9365.6572.9365a1.9429,1.9429,0,0,0,.5088-.06l.0391.6582a2.1485,2.1485,0,0,1-.7764.1192,1.22,1.22,0,0,1-.9473-.3682,1.79,1.79,0,0,1-.3388-1.2558V177.28h-.7471v-.667h.7471v-1.1562Z"/><path d="M40.8365,175.2576a.543.543,0,0,1-1.0859,0,.5345.5345,0,0,1,.5479-.5478A.52.52,0,0,1,40.8365,175.2576Zm-.9765,6.1778v-4.8223h.8769v4.8223Z"/><path d="M46.5553,178.9842a2.357,2.357,0,0,1-2.4014,2.5606,2.2926,2.2926,0,0,1-2.3115-2.4805,2.3557,2.3557,0,0,1,2.3916-2.5615A2.2839,2.2839,0,0,1,46.5553,178.9842Zm-3.8262.05c0,1.0567.6084,1.8535,1.4649,1.8535.8369,0,1.4648-.7871,1.4648-1.873,0-.8174-.4092-1.8535-1.4443-1.8535C43.1774,177.161,42.7291,178.117,42.7291,179.034Z"/><path d="M47.6608,177.9178c0-.498-.01-.9062-.04-1.3047h.7774l.05.7969h.02a1.7758,1.7758,0,0,1,1.5947-.9072c.667,0,1.7032.3994,1.7032,2.0527v2.88h-.876v-2.78c0-.7773-.2891-1.4248-1.1162-1.4248a1.286,1.286,0,0,0-1.2354,1.3057v2.8994h-.8769Z"/><path d="M59.566,180.12c0,.4981.0108.9366.04,1.3155H58.83l-.0508-.7871h-.02a1.8145,1.8145,0,0,1-1.5938.8965c-.7578,0-1.664-.418-1.664-2.1124v-2.8193h.8769v2.67c0,.917.2784,1.5342,1.0752,1.5342a1.2345,1.2345,0,0,0,1.2364-1.2451v-2.959h.8759Z"/><path d="M60.901,180.5389a2.3028,2.3028,0,0,0,1.1553.3486c.6386,0,.9375-.3193.9375-.7177,0-.418-.25-.6475-.8975-.8868-.8662-.3086-1.2754-.7871-1.2754-1.3652a1.4876,1.4876,0,0,1,1.6641-1.415,2.3956,2.3956,0,0,1,1.1855.3l-.2187.6377a1.8713,1.8713,0,0,0-.9863-.2793c-.5186,0-.8077.2988-.8077.6572,0,.3984.2891.5781.917.8174.8369.3183,1.2657.7373,1.2657,1.4551,0,.8466-.6582,1.4443-1.8038,1.4443a2.7517,2.7517,0,0,1-1.3554-.3291Z"/><path d="M65.4537,179.1834a1.5454,1.5454,0,0,0,1.6543,1.6739,3.1667,3.1667,0,0,0,1.335-.2491l.1494.628a3.9039,3.9039,0,0,1-1.6045.2988,2.24,2.24,0,0,1-2.3711-2.4317,2.3417,2.3417,0,0,1,2.2617-2.6,2.044,2.044,0,0,1,1.9932,2.2724,3.33,3.33,0,0,1-.03.4082Zm2.5713-.6279a1.2489,1.2489,0,0,0-1.2158-1.4248,1.4545,1.4545,0,0,0-1.3457,1.4248Z"/><path d="M70.0465,181.4354V177.28h-.6777v-.667h.6777v-.23a2.2738,2.2738,0,0,1,.5576-1.6836,1.6767,1.6767,0,0,1,1.1758-.4482,2.0364,2.0364,0,0,1,.7471.1387l-.1192.6777a1.3119,1.3119,0,0,0-.5576-.1094c-.7471,0-.9365.6572-.9365,1.3945v.26h1.165v.667h-1.165v4.1553Z"/><path d="M76.901,180.12c0,.4981.01.9366.04,1.3155h-.7773l-.05-.7871h-.02a1.815,1.815,0,0,1-1.5948.8965c-.7568,0-1.664-.418-1.664-2.1124v-2.8193h.8769v2.67c0,.917.2793,1.5342,1.0762,1.5342a1.2313,1.2313,0,0,0,1.2353-1.2451v-2.959h.877Z"/><path d="M78.3551,174.3612h.877v7.0742h-.877Z"/><path d="M80.4967,177.41a.5942.5942,0,1,1,1.1865,0,.5938.5938,0,1,1-1.1865,0Zm0,3.5176a.5942.5942,0,1,1,1.1865,0,.5937.5937,0,1,1-1.1865,0Z"/><path d="M138.7062,202.4158c.01-.9466-.03-1.2355-1.3252-1.2355h-1.4946l-.538,2.5906h1.106c.8469,0,1.0561-.1893,1.2255-.9864h.3189l-.4584,2.3216h-.3288c.1594-.847,0-.9566-.8569-.9566h-1.0761l-.4284,2.1323a1.54,1.54,0,0,0-.04.3388c0,.3487.3189.4185.9366.4185l-.05.2989h-2.87l.06-.2989c.6875,0,.9266-.12,1.0761-.8569l.8868-4.2646c.1395-.6875.03-.827-.7772-.827l.06-.2989h5.1414l-.2691,1.6241Zm3.815,1.664v-.6776H148.46v.6776Zm0,2.0326v-.6676H148.46v.6676Zm13.8984-.9366c0,.06-.06.4185-.06.6377,0,.6477.1495.8669.4484.8669.3188,0,.4683-.2093.6477-.3986l.1594.1694a1.4935,1.4935,0,0,1-1.2555.9665c-.4882,0-.6576-.3288-.6576-.7971,0-.1893.03-.3886.08-.9167h-.06c-.5978,1.4647-1.2056,1.7636-1.6939,1.7636-.538,0-.7074-.538-.7871-.817h-.05c-.16.8071-.14,1.4647-.3189,2.202a.7686.7686,0,0,1-.837.6477l-.1394-.03a29.1373,29.1373,0,0,1,1.0163-3.6169c.2092-1.0662.4882-2.6206.6377-3.1985l.8967-.02.05.09-.9068,2.4511a1.8959,1.8959,0,0,0-.06.4683c0,.4982.1794.9964.6776.9964.9067,0,1.7636-1.8533,1.8234-2.1024.12-.538.279-1.3352.4384-1.8832l.8769-.02.05.09Zm9.3152,2.4213-2.3614-2.3515-2.3515,2.3515-.4683-.4683,2.3415-2.3615-2.3415-2.3515.4782-.4683,2.3416,2.3415,2.3614-2.3415.4683.4583-2.3415,2.3615,2.3415,2.3515Zm6.7544-3.4177v.05c.3587.2491.558.7573,1.375,2.3017a.8754.8754,0,0,0,.9167.5082l-.06.2989h-1.5145c-.7473-1.6441-.9565-2.0625-1.2654-2.67-.15-.2789-.279-.3387-.6377-.3387h-.2092l-.3687,1.7736c-.1694.827-.06.9366.7971.9366l-.05.2989h-2.75l.06-.2989c.7373,0,.8868-.1,1.0562-.9366l.8768-4.2746c.11-.548.05-.7373-.7473-.7373l.06-.2989H172.37c1.395,0,2.212.4085,2.212,1.375C174.5816,203.5716,173.3561,204.03,172.4892,204.1794Zm-1.3252-.2192.3089.01c1.1957-.04,2.1223-.4883,2.1223-1.7637,0-.538-.2989-1.0262-1.2853-1.0262a5.3971,5.3971,0,0,0-.5879.03Z"/><path d="M178.4864,209.43l.0488-.2789c.3626,0,.5718-.0419.5718-.4254a2.8813,2.8813,0,0,0-.0279-.3208l-.0767-.5718h-1.9316l-.4742.6764a.9082.9082,0,0,0-.2022.46c0,.1464.0976.1813.4184.1813l-.0628.2789h-1.6108l.0628-.2789c.4044,0,.5578-.0977,1.018-.795l2.5941-3.87h.4323l.6834,3.9956c.0837.4882.1744.67.6346.67l-.0558.2789Zm.1743-4.0027h-.0349l-1.3388,2.0572h1.6666Z"/><path d="M138.7062,226.3458c.01-.9466-.03-1.2355-1.3252-1.2355h-1.4946l-.538,2.5906h1.106c.8469,0,1.0561-.1893,1.2255-.9864h.3189l-.4584,2.3216h-.3288c.1594-.847,0-.9566-.8569-.9566h-1.0761l-.4284,2.1323a1.54,1.54,0,0,0-.04.3388c0,.3487.3189.4185.9366.4185l-.05.2989h-2.87l.06-.2989c.6875,0,.9266-.12,1.0761-.8569l.8868-4.2646c.1395-.6875.03-.827-.7772-.827l.06-.2989h5.1414l-.2691,1.6241Zm3.815,1.664v-.6776H148.46v.6776Zm0,2.0326v-.6676H148.46v.6676Z"/><path d="M155.3981,219.2332h-.02l-1.1259.6075-.169-.668,1.4141-.7569h.748v6.4766h-.8476Z"/><path d="M160.5094,219.2332h-.02l-1.126.6075-.17-.668,1.416-.7569h.7471v6.4766h-.8467Z"/><path d="M168.0211,221.5848c0,2.2012-.8174,3.417-2.2519,3.417-1.2657,0-2.1221-1.1856-2.1426-3.3281,0-2.1719.9375-3.3672,2.2519-3.3672C167.2438,218.3065,168.0211,219.5223,168.0211,221.5848Zm-3.5176.1c0,1.6836.5186,2.64,1.3155,2.64.8965,0,1.3252-1.0459,1.3252-2.7,0-1.5938-.4082-2.64-1.3155-2.64C165.0621,218.9842,164.5035,219.9207,164.5035,221.6844Z"/><line class="cls-7" x1="153.047" y1="228.698" x2="167.842" y2="228.698"/><path d="M157.8629,231.9832h-.0195l-1.126.6075-.1689-.668,1.414-.7569h.7481v6.4766h-.8477Z"/><path d="M161.5787,237.0242a3.6492,3.6492,0,0,0,.708-.0293,2.4444,2.4444,0,0,0,1.3545-.6279,2.8463,2.8463,0,0,0,.8575-1.7236h-.03a1.9,1.9,0,0,1-1.5244.6973,1.8759,1.8759,0,0,1-1.9131-1.9825,2.22,2.22,0,0,1,2.2119-2.3017c1.3252,0,2.1426,1.0761,2.1426,2.73a4.0911,4.0911,0,0,1-1.1162,3.039,3.24,3.24,0,0,1-1.8828.8672,4.1026,4.1026,0,0,1-.8077.05Zm.3194-3.7265a1.2457,1.2457,0,0,0,1.2451,1.375,1.4491,1.4491,0,0,0,1.2754-.6768.5812.5812,0,0,0,.08-.3193c0-1.1055-.4092-1.9531-1.3252-1.9531C162.4254,231.7235,161.8981,232.3817,161.8981,233.2977Z"/><path d="M176.87,231.5271l-2.3615-2.3515-2.3515,2.3515-.4683-.4683,2.3416-2.3615-2.3416-2.3515.4783-.4683,2.3415,2.3415,2.3615-2.3415.4683.4583-2.3415,2.3615,2.3415,2.3515Zm7.691-2.4213c0,.06-.06.4185-.06.6377,0,.6477.1495.8669.4484.8669.3188,0,.4683-.2093.6477-.3986l.1594.1694a1.4935,1.4935,0,0,1-1.2555.9665c-.4882,0-.6576-.3288-.6576-.7971,0-.1893.03-.3886.08-.9167h-.06c-.5978,1.4647-1.2056,1.7636-1.6939,1.7636-.538,0-.7074-.538-.7871-.817h-.05c-.16.8071-.1395,1.4647-.3189,2.202a.7686.7686,0,0,1-.837.6477l-.1395-.03a29.1551,29.1551,0,0,1,1.0164-3.6169c.2092-1.0662.4882-2.6206.6377-3.1985l.8967-.02.05.09-.9067,2.4511a1.8959,1.8959,0,0,0-.06.4683c0,.4982.1794.9964.6776.9964.9067,0,1.7636-1.8533,1.8234-2.1024.12-.538.279-1.3352.4384-1.8832l.8769-.02.05.09Z"/><g class="cls-9"><rect class="cls-10" x="314.285" y="203.5396" width="124.726" height="9.3545"/><line class="cls-11" x1="314.285" y1="203.5396" x2="439.011" y2="203.5396"/><line class="cls-12" x1="329.8758" y1="203.5396" x2="414.3214" y2="91.4764"/><path class="cls-13" d="M325.6584,201.2747v-.0987h.0987c.3454,0,.4441-.1295.4441-.3763a1.0093,1.0093,0,0,0-.0123-.13l-.08-.697h-1.2213l-.5182.8635a.2635.2635,0,0,0-.0617.16c.0062.1111.1049.1789.2653.1789h.1788v.0987H323.407v-.0987a.83.83,0,0,0,.6661-.4565l2.196-3.5591h.111l.4811,3.5838c.0432.3023.1974.4318.4565.4318h.0987v.0987Zm.2529-2.93h-.037l-.8574,1.4h1.0486Z"/><path class="cls-13" d="M414.8276,85.1853c.5181,0,1.4557.0556,1.4557.8945a.9617.9617,0,0,1-.5613.9067,2.146,2.146,0,0,1-.4565.16l.0185.0247a.8744.8744,0,0,1,.7834.8512c0,.6107-.5058,1.1905-1.7826,1.1905h-1.9986l.0247-.0987h.1233c.4688,0,.586-.1789.6354-.3886l.7587-3.0533a.8375.8375,0,0,0,.0123-.13c0-.16-.1172-.2591-.4811-.2591h-.1172l.0308-.0987Zm-1.11,3.7381a1.4965,1.4965,0,0,0,.4379.0555,1.03,1.03,0,0,0,1.172-1.061c0-.45-.3948-.6661-.8759-.6661a1.3318,1.3318,0,0,0-.3146.0246Zm.4749-1.9245a1.7146,1.7146,0,0,0,.327.037.9331.9331,0,0,0,1.0362-1.0055c0-.4749-.4009-.6045-.734-.6045a1.7953,1.7953,0,0,0-.2652.0185Z"/><line class="cls-14" x1="329.8758" y1="203.5396" x2="329.8758" y2="173.4063"/><polygon class="cls-15" points="329.876 170.488 328.345 174.531 329.876 173.187 331.406 174.531 329.876 170.488"/><polygon class="cls-14" points="329.876 170.488 328.345 174.531 329.876 173.187 331.406 174.531 329.876 170.488"/><path d="M330.3705,165.4345h-1.0424l-.9253-1.943c-.0616.0061-.13.0123-.1789.0123a1.5027,1.5027,0,0,1-.2343-.0247l-.3825,1.4743a.5611.5611,0,0,0-.0185.1418c0,.1481.111.2406.4688.2406h.1172l-.0247.0987h-2.0047l.0247-.0987h.0987c.4688,0,.5921-.1727.6477-.3824l.7648-3.0657a.6813.6813,0,0,0,.0309-.1542c0-.13-.1049-.2283-.475-.2283h-.1234l.0247-.0986H328.81c.987,0,1.3324.4071,1.3324.9314,0,.512-.438.9252-1.098,1.0548l.7094,1.4125a.7822.7822,0,0,0,.6292.5305Zm-2.3254-2.1774a.8554.8554,0,0,0,.1974.0246c.82,0,1.1781-.3577,1.1781-.8759,0-.6661-.3824-.771-.771-.771a1.064,1.064,0,0,0-.21.0185Z"/><path d="M332.198,166.9756v-.069h.069c.2415,0,.3106-.0906.3106-.2632a.6957.6957,0,0,0-.0087-.0905l-.056-.4875h-.8541l-.3624.6039a.1842.1842,0,0,0-.0431.1122c.0043.0776.0733.1251.1855.1251h.1251v.069h-.94v-.069a.58.58,0,0,0,.4659-.3192l1.5356-2.489h.0777l.3364,2.5062c.03.2114.1381.302.3192.302h.0691v.069Zm.1768-2.049h-.0259l-.6.9792h.7333Z"/><line class="cls-14" x1="329.8758" y1="203.5396" x2="360.009" y2="203.5396"/><polygon class="cls-15" points="362.927 203.54 358.884 202.009 360.228 203.54 358.884 205.07 362.927 203.54"/><polygon class="cls-14" points="362.927 203.54 358.884 202.009 360.228 203.54 358.884 205.07 362.927 203.54"/><path d="M370.6528,198.2337h-.0987c.0061-.0494.0061-.1357.0061-.2221-.0185-.4811-.3886-.5366-.6785-.5366h-.9067l-.3825,1.53h.512c.3824,0,.6662-.0616.7957-.586h.0987l-.37,1.4928H369.53a2.3225,2.3225,0,0,0,.0309-.3763c0-.29-.253-.3084-.4318-.3084h-.5983l-.3825,1.5668a.8.8,0,0,0-.0247.13c0,.1542.1172.2529.4873.2529h.1974l-.0246.0987h-2.11l.0246-.0987h.1111c.4688,0,.5983-.1727.6538-.3824l.7649-3.0657a.6772.6772,0,0,0,.0247-.1481c0-.13-.0987-.24-.4688-.24h-.1172l.0247-.0925H370.9Z"/><line class="cls-14" x1="376.79" y1="141.2822" x2="376.79" y2="171.4155"/><polygon class="cls-15" points="376.79 174.333 378.32 170.291 376.79 171.635 375.26 170.291 376.79 174.333"/><polygon class="cls-14" points="376.79 174.333 378.32 170.291 376.79 171.635 375.26 170.291 376.79 174.333"/><path d="M372.4225,178.617H372.41l-.6963.377-.1045-.4131.875-.4688h.4629v4.0069h-.5244Z"/><path d="M377.07,180.0721c0,1.3623-.5048,2.1143-1.3925,2.1143-.7832,0-1.3125-.7334-1.3252-2.0586,0-1.3438.5791-2.084,1.3935-2.084C376.59,178.0438,377.07,178.7967,377.07,180.0721Zm-2.1757.0615c0,1.042.32,1.6338.8144,1.6338.5547,0,.8194-.6475.8194-1.67,0-.9863-.253-1.6338-.8135-1.6338C375.24,178.4637,374.8942,179.0428,374.8942,180.1336Z"/><path d="M378.6276,182.119v-4.1553h.5859l1.3311,2.1025a11.78,11.78,0,0,1,.746,1.35l.0127-.0058c-.05-.5547-.0615-1.0606-.0615-1.707v-1.7393h.5059v4.1553h-.543l-1.3193-2.1084a12.948,12.948,0,0,1-.7764-1.3867l-.0185.0058c.03.5244.0429,1.0235.0429,1.7139v1.7754Z"/><line class="cls-14" x1="386.1729" y1="128.8308" x2="360.9161" y2="112.4287"/><polygon class="cls-15" points="358.458 110.833 361.027 114.333 360.732 112.309 362.701 111.755 358.458 110.833"/><polygon class="cls-16" points="358.459 110.833 361.027 114.333 360.732 112.309 362.701 111.755 358.459 110.833"/><path d="M341.2145,104.7791h-.0127l-.6963.376-.1055-.4131.876-.4687h.4619V108.28h-.5234Z"/><path d="M345.8619,106.2332c0,1.3623-.5048,2.1143-1.3935,2.1143-.7822,0-1.3125-.7334-1.3252-2.0586,0-1.3438.5791-2.084,1.3935-2.084C345.3815,104.2049,345.8619,104.9578,345.8619,106.2332Zm-2.1757.0616c0,1.0419.32,1.6337.8134,1.6337.5547,0,.82-.6474.82-1.6709,0-.9863-.2529-1.6328-.8144-1.6328C344.0309,104.6248,343.6862,105.2039,343.6862,106.2948Z"/><path d="M349.024,106.2332c0,1.3623-.5048,2.1143-1.3925,2.1143-.7832,0-1.3135-.7334-1.3252-2.0586,0-1.3438.5791-2.084,1.3926-2.084C348.5436,104.2049,349.024,104.9578,349.024,106.2332Zm-2.1757.0616c0,1.0419.32,1.6337.8134,1.6337.5547,0,.82-.6474.82-1.6709,0-.9863-.253-1.6328-.8145-1.6328C347.193,104.6248,346.8483,105.2039,346.8483,106.2948Z"/><line class="cls-17" x1="339.7598" y1="110.314" x2="349.0064" y2="110.314"/><path d="M342.7555,112.67h-.0117l-.6973.3759-.1045-.4131.875-.4687h.4619v4.0068h-.5234Z"/><path d="M345.0543,115.7889a2.3174,2.3174,0,0,0,.4385-.0186,1.5164,1.5164,0,0,0,.8379-.3886,1.7625,1.7625,0,0,0,.53-1.0664h-.0186a1.1747,1.1747,0,0,1-.9434.4316,1.1612,1.1612,0,0,1-1.1835-1.2266,1.3744,1.3744,0,0,1,1.3691-1.4248c.8193,0,1.3252.6661,1.3252,1.6895a2.53,2.53,0,0,1-.69,1.88,2.0037,2.0037,0,0,1-1.1651.5371,2.5947,2.5947,0,0,1-.5.03Zm.1973-2.3057a.7714.7714,0,0,0,.7715.8506.8983.8983,0,0,0,.789-.4189.365.365,0,0,0,.0489-.1973c0-.6846-.253-1.209-.82-1.209C345.5787,112.5086,345.2516,112.9158,345.2516,113.4832Z"/><path d="M351.16,111.8553V107.7h.585l1.332,2.1026a11.9186,11.9186,0,0,1,.7451,1.35l.0127-.0059c-.05-.5547-.0615-1.06-.0615-1.707V107.7h.5058v4.1553h-.5429l-1.3194-2.1084a12.9467,12.9467,0,0,1-.7763-1.3867l-.0186.0058c.03.5245.043,1.0235.043,1.7139v1.7754Z"/><circle class="cls-18" cx="388.5114" cy="131.1693" r="3.1181" transform="translate(-5.5447 17.7398) rotate(-2.5972)"/><path class="cls-13" d="M397.7329,130.5074h-.0987a2.3383,2.3383,0,0,0,.0062-.2591.8315.8315,0,0,0-.9376-.8882,2.1763,2.1763,0,0,0-1.9677,2.2946,1.1859,1.1859,0,0,0,1.2028,1.32,1.8034,1.8034,0,0,0,1.3324-.6045.9383.9383,0,0,0,.1048-.1233l.1234.08a2.1979,2.1979,0,0,1-.549.5675,2.0387,2.0387,0,0,1-1.19.3763,1.6468,1.6468,0,0,1-1.7765-1.7148,2.5505,2.5505,0,0,1,2.7326-2.4242c.3331,0,.6539.1666.9746.1666a.2789.2789,0,0,0,.2591-.1666h.111Z"/><line class="cls-19" x1="386.1729" y1="128.8308" x2="386.1729" y2="89.8539"/><line class="cls-19" x1="386.1729" y1="128.8308" x2="386.1729" y2="147.5396"/><path class="cls-11" d="M386.1729,116.3581a12.4757,12.4757,0,0,0-10.46,5.68"/><path d="M377.9128,116.6777c-.586,0-.8451-.3639-.8451-1.1041,0-1.0733.7156-3.0842,1.8876-3.0842.45,0,.7895.3886.7895,1.209C379.7448,114.9074,378.8627,116.6777,377.9128,116.6777ZM377.74,114.71a3.7059,3.7059,0,0,0-.1542,1.0178c0,.4256.0925.7711.3578.7711.4132,0,.7834-.8081.9746-1.4188.0431-.1418.08-.3146.0987-.37Zm1.3323-.222a5.4146,5.4146,0,0,0,.1543-1.024c0-.45-.0617-.7957-.3146-.7957-.4441,0-.95,1.0857-1.11,1.82Z"/><path class="cls-11" d="M342.3484,203.54a12.4739,12.4739,0,0,0-4.9663-9.961"/><path d="M343.8623,198.4c-.586,0-.8451-.3639-.8451-1.1041,0-1.0733.7156-3.0842,1.8876-3.0842.45,0,.7895.3886.7895,1.209C345.6943,196.6292,344.8123,198.4,343.8623,198.4Zm-.1727-1.9677a3.7059,3.7059,0,0,0-.1542,1.0178c0,.4256.0925.771.3578.771.4132,0,.7833-.808.9746-1.4187.0431-.1419.08-.3146.0987-.37Zm1.3324-.2221a5.42,5.42,0,0,0,.1542-1.0239c0-.45-.0617-.7957-.3146-.7957-.4441,0-.95,1.0856-1.11,1.82Z"/></g></g></svg>