<svg id="Layer_1" data-name="Layer 1" xmlns="http://www.w3.org/2000/svg" xmlns:xlink="http://www.w3.org/1999/xlink" viewBox="0 0 453.543 255.118"><defs><style>.cls-1,.cls-10,.cls-13,.cls-14,.cls-16,.cls-18,.cls-19,.cls-21,.cls-3,.cls-7,.cls-9{fill:none;}.cls-2{clip-path:url(#clip-path);}.cls-21,.cls-3{stroke:#4d4c4e;}.cls-10,.cls-13,.cls-14,.cls-16,.cls-18,.cls-19,.cls-21,.cls-3,.cls-7,.cls-9{stroke-miterlimit:10;}.cls-3{stroke-width:0.3985px;}.cls-4{clip-path:url(#clip-path-2);}.cls-5{fill:#fff;}.cls-6{fill:#056db6;}.cls-13,.cls-14,.cls-18,.cls-7{stroke:#000;}.cls-10,.cls-7,.cls-9{stroke-width:0.677px;}.cls-8{fill:#ed2024;}.cls-9{stroke:#ed2024;}.cls-10{stroke:#056db6;}.cls-11{clip-path:url(#clip-path-3);}.cls-12{fill:url(#Unnamed_Pattern);}.cls-13,.cls-21{stroke-width:0.4384px;}.cls-14,.cls-16{stroke-width:0.8767px;}.cls-15{fill:#016cb0;}.cls-16,.cls-19{stroke:#e14b3a;}.cls-17{fill:#e14b3a;}.cls-18{stroke-width:0.407px;}.cls-19{stroke-width:0.8805px;}.cls-20{fill:#fabf4e;}.cls-21{stroke-dasharray:1.6439 1.6439;}</style><clipPath id="clip-path"><rect class="cls-1" width="4.9814" height="4.9814"/></clipPath><clipPath id="clip-path-2"><rect class="cls-1" width="453.543" height="255.118"/></clipPath><clipPath id="clip-path-3"><rect class="cls-1" x="314.066" y="85.0899" width="125.1629" height="129.6251"/></clipPath><pattern id="Unnamed_Pattern" data-name="Unnamed Pattern" width="4.9814" height="4.9814" patternTransform="matrix(0.55, 0, 0, -0.55, 1174.9558, 13678.2358)" patternUnits="userSpaceOnUse" viewBox="0 0 4.981 4.981"><rect class="cls-1" width="4.9814" height="4.9814"/><g class="cls-2"><line class="cls-3" x1="0.9963" y1="0.9963" x2="4.0847" y2="4.0847"/></g></pattern></defs><g class="cls-4"><rect class="cls-5" y="14.944" width="453.543" height="255.118"/><path class="cls-6" d="M21.04,24.3592H17.2818v3.4854H21.47v1.0468H16.0338v-9.667h5.2207v1.0469H17.2818V23.326H21.04Z"/><path class="cls-6" d="M23.6373,21.9491l.9893,1.4921c.2578.3868.4736.7461.7031,1.1329h.043c.2294-.4161.4589-.7745.6884-1.1475l.9756-1.4775H28.399l-2.3662,3.3564L28.47,28.8914H27.0367L26.0182,27.328c-.2725-.4014-.502-.7891-.7461-1.2051h-.0284c-.2294.416-.4736.789-.7324,1.2051l-1.0039,1.5634H22.1168l2.4668-3.5429L22.231,21.9491Z"/><path class="cls-6" d="M33.5348,28.8914l-.1-.875h-.043A2.5879,2.5879,0,0,1,31.2691,29.05a1.978,1.978,0,0,1-2.123-1.9941c0-1.6777,1.4922-2.5957,4.1738-2.582V24.33a1.4316,1.4316,0,0,0-1.5781-1.6064,3.4587,3.4587,0,0,0-1.8066.5166l-.2872-.8321a4.3116,4.3116,0,0,1,2.2813-.6162c2.1221,0,2.6387,1.4483,2.6387,2.84v2.5957a9.69,9.69,0,0,0,.1152,1.664Zm-.1856-3.5429c-1.3769-.0284-2.9414.2158-2.9414,1.5634a1.1179,1.1179,0,0,0,1.1914,1.2051,1.7276,1.7276,0,0,0,1.6777-1.1621,1.318,1.318,0,0,0,.0723-.4014Z"/><path class="cls-6" d="M36.606,23.828c0-.7168-.0146-1.3047-.0576-1.8789h1.1045l.0576,1.1191h.043a2.3916,2.3916,0,0,1,2.18-1.2764,2.0528,2.0528,0,0,1,1.9658,1.3906h.0283a2.8544,2.8544,0,0,1,.7745-.9033,2.37,2.37,0,0,1,1.5351-.4873c.918,0,2.28.6026,2.28,3.0117v4.0879H45.2838v-3.93c0-1.3339-.4873-2.1376-1.5059-2.1376a1.6357,1.6357,0,0,0-1.4922,1.1474,2.069,2.069,0,0,0-.1.6309v4.289H40.9518V24.7323c0-1.1045-.4874-1.9082-1.4483-1.9082A1.7235,1.7235,0,0,0,37.94,24.0867a1.7481,1.7481,0,0,0-.1006.6163v4.1884H36.606Z"/><path class="cls-6" d="M48.5709,24.2157c0-.89-.0283-1.6065-.0576-2.2666h1.1328l.0576,1.19h.0283A2.7306,2.7306,0,0,1,52.2,21.7918c1.6777,0,2.94,1.42,2.94,3.5283,0,2.4952-1.52,3.73-3.1562,3.73a2.4342,2.4342,0,0,1-2.1367-1.0908h-.0284v3.7725h-1.248Zm1.248,1.8505a2.8756,2.8756,0,0,0,.0567.5157,1.9482,1.9482,0,0,0,1.8935,1.4775c1.334,0,2.1084-1.09,2.1084-2.6816,0-1.3916-.7314-2.5821-2.0654-2.5821a2.0126,2.0126,0,0,0-1.9072,1.5635,2.04,2.04,0,0,0-.086.5156Z"/><path class="cls-6" d="M56.734,18.7078h1.2617V28.8914H56.734Z"/><path class="cls-6" d="M60.8219,25.65a2.2239,2.2239,0,0,0,2.3808,2.4092,4.5535,4.5535,0,0,0,1.9219-.3584l.2148.9033a5.6093,5.6093,0,0,1-2.3085.4307,3.2246,3.2246,0,0,1-3.4141-3.5c0-2.0938,1.2334-3.7432,3.2559-3.7432,2.2666,0,2.8691,1.9932,2.8691,3.27a4.9138,4.9138,0,0,1-.043.5888Zm3.7-.9043a1.7963,1.7963,0,0,0-1.7491-2.0508,2.0913,2.0913,0,0,0-1.9365,2.0508Z"/><path class="cls-6" d="M70.276,28.8914V28.117l.99-.9609c2.3809-2.2666,3.4561-3.4717,3.4707-4.877a1.6633,1.6633,0,0,0-1.8506-1.8213,3.1678,3.1678,0,0,0-1.9785.7891l-.4023-.89a4.0913,4.0913,0,0,1,2.64-.9463A2.6233,2.6233,0,0,1,76,22.1209c0,1.7217-1.248,3.1133-3.2129,5.0059l-.7461.6885v.0293h4.1875v1.0468Z"/><path class="cls-6" d="M84.148,18.9373A9.46,9.46,0,0,0,82.34,24.8035a9.6666,9.6666,0,0,0,1.8076,5.8233h-.99a9.273,9.273,0,0,1-1.8789-5.8233,9.4719,9.4719,0,0,1,1.8789-5.8662Z"/><path class="cls-6" d="M92.2809,28.576a6.1938,6.1938,0,0,1-2.5528.459,4.5185,4.5185,0,0,1-4.7763-4.8916,4.8109,4.8109,0,0,1,5.0488-5.0772,5.1662,5.1662,0,0,1,2.2949.4307l-.3008,1.0186a4.531,4.531,0,0,0-1.9512-.4024c-2.2656,0-3.7724,1.4492-3.7724,3.9873,0,2.3672,1.3633,3.8877,3.7148,3.8877a4.9894,4.9894,0,0,0,2.0371-.4023Z"/><path class="cls-6" d="M100.0855,25.3631a3.393,3.393,0,0,1-3.457,3.6865,3.3,3.3,0,0,1-3.3271-3.5722,3.39,3.39,0,0,1,3.4423-3.6856A3.2868,3.2868,0,0,1,100.0855,25.3631Zm-5.5078.0713c0,1.52.875,2.668,2.1084,2.668,1.2051,0,2.1084-1.1328,2.1084-2.6963,0-1.1758-.5879-2.668-2.0791-2.668S94.5777,24.1151,94.5777,25.4344Z"/><path class="cls-6" d="M101.6793,23.828c0-.7168-.0147-1.3047-.0576-1.8789h1.1191l.0713,1.1474h.0293a2.5531,2.5531,0,0,1,2.2949-1.3047c.961,0,2.4522.5733,2.4522,2.9541v4.1455h-1.2617V24.89c0-1.1182-.4161-2.0508-1.6065-2.0508a1.8541,1.8541,0,0,0-1.7793,1.8789v4.1738h-1.2617Z"/><path class="cls-6" d="M111.1617,19.9559v1.9932h1.8076V22.91h-1.8076v3.7441c0,.86.2442,1.3477.9473,1.3477a2.8011,2.8011,0,0,0,.73-.086l.0577.9473a3.1037,3.1037,0,0,1-1.1182.1719,1.75,1.75,0,0,1-1.3633-.5313,2.57,2.57,0,0,1-.4873-1.8066V22.91h-1.0762v-.9609h1.0762V20.285Z"/><path class="cls-6" d="M115.7955,19.9989a.7818.7818,0,0,1-1.5635,0,.769.769,0,0,1,.7891-.7891A.7493.7493,0,0,1,115.7955,19.9989ZM114.39,28.8914V21.9491h1.2617v6.9423Z"/><path class="cls-6" d="M117.7467,23.828c0-.7168-.0147-1.3047-.0576-1.8789h1.1191l.0713,1.1474h.0293a2.5529,2.5529,0,0,1,2.2949-1.3047c.9609,0,2.4522.5733,2.4522,2.9541v4.1455h-1.2618V24.89c0-1.1182-.416-2.0508-1.6064-2.0508a1.85,1.85,0,0,0-1.7783,1.8789v4.1738h-1.2627Z"/><path class="cls-6" d="M131.5182,26.9979c0,.7178.0136,1.3486.0566,1.8935h-1.1182l-.0722-1.1328h-.0284a2.6119,2.6119,0,0,1-2.2949,1.291c-1.09,0-2.3955-.6025-2.3955-3.041V21.9491h1.2627v3.8437c0,1.32.4014,2.209,1.5488,2.209a1.8244,1.8244,0,0,0,1.6641-1.1475,1.8559,1.8559,0,0,0,.1143-.6455v-4.26h1.2627Z"/><path class="cls-6" d="M134.316,25.65a2.2245,2.2245,0,0,0,2.3809,2.4092,4.5527,4.5527,0,0,0,1.9218-.3584l.2159.9033a5.6155,5.6155,0,0,1-2.31.4307,3.2247,3.2247,0,0,1-3.4141-3.5c0-2.0938,1.2344-3.7432,3.2559-3.7432,2.2666,0,2.8691,1.9932,2.8691,3.27a4.7341,4.7341,0,0,1-.0429.5888Zm3.7012-.9043a1.7976,1.7976,0,0,0-1.75-2.0508,2.0911,2.0911,0,0,0-1.9365,2.0508Z"/><path class="cls-6" d="M146.7965,18.7078v8.3907c0,.6172.0137,1.3193.0566,1.7929H145.72l-.0566-1.205h-.0293a2.5676,2.5676,0,0,1-2.3662,1.3632c-1.6788,0-2.97-1.4209-2.97-3.5293-.0136-2.3086,1.42-3.7285,3.1133-3.7285a2.3213,2.3213,0,0,1,2.0938,1.0615h.0283V18.7078Zm-1.2627,6.0674a2.2392,2.2392,0,0,0-.0576-.5312,1.8559,1.8559,0,0,0-1.8213-1.4629c-1.3047,0-2.0791,1.1474-2.0791,2.6826,0,1.4053.6875,2.5674,2.0508,2.5674a1.8966,1.8966,0,0,0,1.85-1.5059,2.2068,2.2068,0,0,0,.0576-.5459Z"/><path class="cls-6" d="M148.1314,30.6268a9.7044,9.7044,0,0,0,1.8077-5.8662,9.5049,9.5049,0,0,0-1.8077-5.8233h.9756a9.1338,9.1338,0,0,1,1.8789,5.8379,9.31,9.31,0,0,1-1.8789,5.8516Z"/><path d="M15.7008,39.535H19.318v.7275h-2.75V42.494h2.541v.7177H16.568v3.0391h-.8672Z"/><path d="M21.5,40.0731a.543.543,0,0,1-1.0859,0,.5339.5339,0,0,1,.5478-.5479A.52.52,0,0,1,21.5,40.0731Zm-.9766,6.1777V41.4285H21.4v4.8223Z"/><path d="M22.8541,42.7332c0-.498-.01-.9062-.04-1.3047h.7773l.05.7969h.0195a1.7758,1.7758,0,0,1,1.5948-.9072c.6679,0,1.7041.3994,1.7041,2.0527v2.88h-.877v-2.78c0-.7773-.2891-1.4248-1.1162-1.4248a1.286,1.286,0,0,0-1.2354,1.3057v2.8994h-.8769Z"/><path d="M31.0533,46.2508l-.0693-.6074h-.03a1.7969,1.7969,0,0,1-1.4746.7168,1.3738,1.3738,0,0,1-1.4746-1.3848c0-1.166,1.0361-1.8037,2.8994-1.7939v-.1a.9935.9935,0,0,0-1.0957-1.1153,2.4,2.4,0,0,0-1.2559.3584l-.1992-.5781a2.9954,2.9954,0,0,1,1.584-.4287c1.4756,0,1.834,1.0068,1.834,1.9736v1.8028a6.7087,6.7087,0,0,0,.08,1.1562ZM30.9244,43.79c-.957-.0205-2.043.1494-2.043,1.0859a.7758.7758,0,0,0,.8272.8369,1.2,1.2,0,0,0,1.166-.8066.9359.9359,0,0,0,.05-.2793Z"/><path d="M33.1852,39.1766h.8769v7.0742h-.8769Z"/><path d="M35.5367,39.1766h.877v7.0742h-.877Z"/><path d="M38.2066,41.4285l1.0557,2.85c.1094.3183.2295.6972.3086.9863h.02c.09-.2891.19-.6582.3086-1.0069l.957-2.8291h.9258L40.4684,44.866a7.3452,7.3452,0,0,1-1.6543,3.0186,2.382,2.382,0,0,1-1.0762.5684l-.2188-.7373a2.3213,2.3213,0,0,0,.7666-.4288,2.6582,2.6582,0,0,0,.7373-.9765.6291.6291,0,0,0,.07-.209.7759.7759,0,0,0-.0606-.23L37.25,41.4285Z"/><path d="M45.0309,41.4285l.6376,2.4512c.14.5381.2686,1.0361.3584,1.5342h.03c.1094-.4883.2686-1.0068.4278-1.5244l.7871-2.461h.7373l.748,2.4112c.1787.5781.3184,1.0859.4278,1.5742h.03a14.664,14.664,0,0,1,.3682-1.5645l.6875-2.4209h.8672l-1.5547,4.8223h-.7969l-.7373-2.3017a16.4091,16.4091,0,0,1-.4287-1.584h-.02a14.0319,14.0319,0,0,1-.4385,1.5937l-.7774,2.292h-.7968l-1.4551-4.8223Z"/><path d="M52.9908,40.0731a.543.543,0,0,1-1.0859,0,.5345.5345,0,0,1,.5478-.5479A.52.52,0,0,1,52.9908,40.0731Zm-.9765,6.1777V41.4285h.8769v4.8223Z"/><path d="M55.4019,40.0428v1.3857h1.2549v.667H55.4019v2.6006c0,.5987.169.9365.6573.9365a1.9481,1.9481,0,0,0,.5088-.0595l.039.6582a2.1566,2.1566,0,0,1-.7773.1191,1.219,1.219,0,0,1-.9463-.3681,1.7888,1.7888,0,0,1-.3389-1.2559V42.0955h-.747v-.667h.747V40.2723Z"/><path d="M57.6432,39.1766H58.52v3.0088h.02a1.6242,1.6242,0,0,1,.628-.6172,1.7957,1.7957,0,0,1,.8965-.25c.6474,0,1.6836.3994,1.6836,2.0625v2.87h-.876v-2.77c0-.7774-.2891-1.4356-1.1162-1.4356a1.259,1.259,0,0,0-1.1758.877,1.0644,1.0644,0,0,0-.06.4189v2.9092h-.8769Z"/><path d="M65.2447,46.2508c.02-.3291.04-.8174.04-1.2451V39.1766h.8662v3.0293h.02a1.7954,1.7954,0,0,1,1.6435-.8877A2.1647,2.1647,0,0,1,69.8482,43.78a2.2917,2.2917,0,0,1-2.163,2.58,1.7162,1.7162,0,0,1-1.6133-.9063h-.03l-.04.7969Zm.9063-1.9326a1.6732,1.6732,0,0,0,.04.3184,1.354,1.354,0,0,0,1.3154,1.0263c.917,0,1.4649-.7471,1.4649-1.8535,0-.9658-.4981-1.793-1.4346-1.793a1.398,1.398,0,0,0-1.3359,1.0762,1.7459,1.7459,0,0,0-.05.3584Z"/><path d="M75.317,43.8A2.357,2.357,0,0,1,72.9156,46.36a2.2926,2.2926,0,0,1-2.3115-2.48,2.3557,2.3557,0,0,1,2.3916-2.5615A2.2839,2.2839,0,0,1,75.317,43.8Zm-3.8262.05c0,1.0567.6084,1.8536,1.4649,1.8536.8369,0,1.4648-.7872,1.4648-1.8731,0-.8174-.4092-1.8535-1.4443-1.8535C71.9391,41.9764,71.4908,42.9324,71.4908,43.8494Z"/><path d="M77.4781,40.0428v1.3857H78.734v.667H77.4781v2.6006c0,.5987.17.9365.6582.9365a1.9386,1.9386,0,0,0,.5078-.0595l.04.6582a2.1572,2.1572,0,0,1-.7774.1191,1.2175,1.2175,0,0,1-.9463-.3681,1.7888,1.7888,0,0,1-.3388-1.2559V42.0955h-.7471v-.667h.7471V40.2723Z"/><path d="M79.72,39.1766h.877v3.0088h.0195a1.624,1.624,0,0,1,.6279-.6172,1.7931,1.7931,0,0,1,.8965-.25c.6475,0,1.6836.3994,1.6836,2.0625v2.87h-.877v-2.77c0-.7774-.288-1.4356-1.1152-1.4356a1.2591,1.2591,0,0,0-1.1758.877,1.0645,1.0645,0,0,0-.0595.4189v2.9092H79.72Z"/><path d="M92.9759,43.0924v.05c.3587.2491.5579.7573,1.375,2.3017a.8753.8753,0,0,0,.9167.5082l-.06.2989H93.6933c-.7473-1.6441-.9566-2.0626-1.2655-2.67-.1494-.2789-.279-.3387-.6377-.3387h-.2092l-.3687,1.7736c-.1694.827-.06.9366.7971.9366l-.05.2989H89.21l.06-.2989c.7374,0,.8868-.1,1.0562-.9366l.8769-4.2746c.11-.548.05-.7373-.7473-.7373l.06-.2989h2.3416c1.3949,0,2.212.4085,2.212,1.375C95.0683,42.4846,93.8427,42.9429,92.9759,43.0924Zm-1.3253-.2192.3089.01c1.1957-.04,2.1224-.4883,2.1224-1.7637,0-.538-.299-1.0263-1.2854-1.0263a5.396,5.396,0,0,0-.5879.03Z"/><path d="M100.3441,47.3737a2.7972,2.7972,0,0,1-2.2385,1.053A1.7672,1.7672,0,0,1,96.1043,46.53a3.02,3.02,0,0,1,3.1171-3.1868,3.1463,3.1463,0,0,1,1.1784.265c.0907,0,.1674-.0907.3208-.2581h.2511l-.3417,1.7434h-.3c.0209-.9763-.3905-1.3877-1.22-1.3877a2.366,2.366,0,0,0-2.1757,2.6219,1.358,1.358,0,0,0,1.5481,1.5272,2.4471,2.4471,0,0,0,1.6945-.6416Z"/><path d="M106.8434,46.2508l-.0694-.6074h-.03a1.7969,1.7969,0,0,1-1.4746.7168,1.3738,1.3738,0,0,1-1.4746-1.3848c0-1.166,1.0362-1.8037,2.8994-1.7939v-.1a.9935.9935,0,0,0-1.0957-1.1153,2.4,2.4,0,0,0-1.2558.3584l-.1992-.5781a2.9947,2.9947,0,0,1,1.5839-.4287c1.4756,0,1.834,1.0068,1.834,1.9736v1.8028a6.8273,6.8273,0,0,0,.0791,1.1562Zm-.129-2.4609c-.957-.0205-2.0429.1494-2.0429,1.0859a.7758.7758,0,0,0,.8271.8369,1.1979,1.1979,0,0,0,1.1651-.8066.91.91,0,0,0,.0507-.2793Z"/><path d="M108.9752,42.7332c0-.498-.01-.9062-.04-1.3047h.7773l.05.7969h.02a1.7758,1.7758,0,0,1,1.5948-.9072c.6669,0,1.7031.3994,1.7031,2.0527v2.88h-.876v-2.78c0-.7773-.2891-1.4248-1.1162-1.4248a1.286,1.286,0,0,0-1.2354,1.3057v2.8994h-.8769Z"/><path d="M118.67,39.1766v5.8291c0,.4277.01.916.0391,1.2451h-.7871l-.0391-.8369h-.02a1.7822,1.7822,0,0,1-1.6435.9463,2.1983,2.1983,0,0,1-2.0625-2.4512,2.3075,2.3075,0,0,1,2.1621-2.5908,1.6154,1.6154,0,0,1,1.455.7373h.02V39.1766Zm-.8769,4.2148a1.5261,1.5261,0,0,0-.04-.3691,1.29,1.29,0,0,0-1.2656-1.0166c-.9062,0-1.4443.7978-1.4443,1.8633,0,.9765.4785,1.7842,1.4248,1.7842a1.3176,1.3176,0,0,0,1.2851-1.0469,1.4958,1.4958,0,0,0,.04-.378Z"/><path d="M125.0829,43.0924v.05c.3587.2491.5579.7573,1.375,2.3017a.8753.8753,0,0,0,.9167.5082l-.06.2989H125.8c-.7473-1.6441-.9566-2.0626-1.2655-2.67-.1494-.2789-.279-.3387-.6377-.3387h-.2092l-.3687,1.7736c-.1694.827-.06.9366.7971.9366l-.05.2989h-2.75l.06-.2989c.7373,0,.8867-.1,1.0561-.9366l.8769-4.2746c.11-.548.05-.7373-.7473-.7373l.06-.2989h2.3416c1.3949,0,2.212.4085,2.212,1.375C127.1753,42.4846,125.95,42.9429,125.0829,43.0924Zm-1.3253-.2192.3089.01c1.1957-.04,2.1224-.4883,2.1224-1.7637,0-.538-.299-1.0263-1.2854-1.0263a5.396,5.396,0,0,0-.5879.03Z"/><path d="M131.07,48.343l.0488-.2789c.3626,0,.5718-.0419.5718-.4254a2.8813,2.8813,0,0,0-.0279-.3208l-.0767-.5718h-1.9316l-.4742.6764a.9086.9086,0,0,0-.2022.46c0,.1464.0976.1813.4184.1813l-.0628.2789h-1.6108l.0627-.2789c.4045,0,.5579-.0977,1.0181-.795l2.5941-3.87h.4323l.6834,3.9956c.0837.4882.1744.67.6346.67l-.0558.2789Zm.1743-4.0027H131.21l-1.3388,2.0572h1.6666Z"/><path d="M137.5582,43.6405h.0195c.1192-.17.2891-.3789.4287-.5479l1.4151-1.6641h1.0556l-1.8632,1.9825,2.122,2.84h-1.0654l-1.6641-2.3115-.4482.498v1.8135h-.8672V39.1766h.8672Z"/><path d="M141.3629,42.7332c0-.498-.01-.9062-.0391-1.3047h.7774l.0488.7969h.02a1.7745,1.7745,0,0,1,1.5947-.9072c.667,0,1.7032.3994,1.7032,2.0527v2.88h-.877v-2.78c0-.7773-.2891-1.4248-1.1152-1.4248a1.29,1.29,0,0,0-1.2364,1.3057v2.8994h-.8769Z"/><path d="M151.2574,43.8a2.3576,2.3576,0,0,1-2.4023,2.5606,2.2919,2.2919,0,0,1-2.3106-2.48,2.3551,2.3551,0,0,1,2.3907-2.5615A2.2847,2.2847,0,0,1,151.2574,43.8Zm-3.8262.05c0,1.0567.6075,1.8536,1.4649,1.8536.8359,0,1.4639-.7872,1.4639-1.8731,0-.8174-.4082-1.8535-1.4444-1.8535S147.4312,42.9324,147.4312,43.8494Z"/><path d="M152.7105,41.4285l.6387,2.4512c.1387.5381.2686,1.0361.3584,1.5342h.0293c.11-.4883.27-1.0068.4287-1.5244l.7871-2.461h.7373l.7471,2.4112c.18.5781.3193,1.0859.4287,1.5742h.03a14.664,14.664,0,0,1,.3682-1.5645l.6875-2.4209h.8671l-1.5546,4.8223h-.7969l-.7373-2.3017a16.1251,16.1251,0,0,1-.4287-1.584h-.02a14.4385,14.4385,0,0,1-.4384,1.5937l-.7774,2.292h-.7969l-1.455-4.8223Z"/><path d="M159.6949,42.7332c0-.498-.01-.9062-.04-1.3047h.7763l.0508.7969h.02a1.7738,1.7738,0,0,1,1.5937-.9072c.668,0,1.7041.3994,1.7041,2.0527v2.88h-.876v-2.78c0-.7773-.289-1.4248-1.1162-1.4248a1.2856,1.2856,0,0,0-1.2353,1.3057v2.8994h-.877Z"/><path d="M164.6559,47.4764a14.3692,14.3692,0,0,0,.5976-2.3818l.9766-.1a12.1485,12.1485,0,0,1-.9463,2.4219Z"/><path d="M169.7867,41.4285l.6377,2.4512c.14.5381.2686,1.0361.3584,1.5342h.03c.1094-.4883.2685-1.0068.4287-1.5244l.7871-2.461h.7373l.7471,2.4112c.18.5781.3183,1.0859.4287,1.5742h.0293a14.6809,14.6809,0,0,1,.3691-1.5645l.6875-2.4209h.8662L174.34,46.2508h-.7978l-.7364-2.3017a15.8778,15.8778,0,0,1-.4287-1.584h-.02a14.2014,14.2014,0,0,1-.4375,1.5937l-.7773,2.292h-.7979L168.89,41.4285Z"/><path d="M177.2281,43.9989a1.5454,1.5454,0,0,0,1.6543,1.6738,3.1741,3.1741,0,0,0,1.336-.249l.1484.6279a3.8983,3.8983,0,0,1-1.6035.2988,2.24,2.24,0,0,1-2.3711-2.4316,2.3412,2.3412,0,0,1,2.2617-2.6006,2.0433,2.0433,0,0,1,1.9922,2.2725,3.3741,3.3741,0,0,1-.0293.4082Zm2.5713-.628a1.2489,1.2489,0,0,0-1.2158-1.4248,1.4527,1.4527,0,0,0-1.3447,1.4248Z"/><path d="M187.2711,46.0711a3.2176,3.2176,0,0,1-1.3848.2793A2.2908,2.2908,0,0,1,183.485,43.89a2.4506,2.4506,0,0,1,2.5908-2.5606,2.9154,2.9154,0,0,1,1.2148.2491l-.1992.6777a2.0226,2.0226,0,0,0-1.0156-.2295,1.8182,1.8182,0,0,0-.03,3.627,2.4945,2.4945,0,0,0,1.0762-.2393Z"/><path d="M190.9674,46.2508l-.07-.6074h-.0293a1.7986,1.7986,0,0,1-1.4746.7168,1.3747,1.3747,0,0,1-1.4756-1.3848c0-1.166,1.0371-1.8037,2.9-1.7939v-.1a.9935.9935,0,0,0-1.0957-1.1153,2.3975,2.3975,0,0,0-1.2559.3584l-.1992-.5781a2.9948,2.9948,0,0,1,1.584-.4287c1.4746,0,1.834,1.0068,1.834,1.9736v1.8028a6.8169,6.8169,0,0,0,.0791,1.1562Zm-.13-2.4609c-.957-.0205-2.043.1494-2.043,1.0859a.7758.7758,0,0,0,.8272.8369,1.2,1.2,0,0,0,1.166-.8066.9054.9054,0,0,0,.05-.2793Z"/><path d="M193.0992,42.7332c0-.498-.01-.9062-.04-1.3047h.7763l.0508.7969h.02a1.7738,1.7738,0,0,1,1.5937-.9072c.668,0,1.7041.3994,1.7041,2.0527v2.88h-.876v-2.78c0-.7773-.289-1.4248-1.1162-1.4248a1.2856,1.2856,0,0,0-1.2353,1.3057v2.8994h-.877Z"/><path d="M200.74,42.9324c0-.5673-.01-1.0556-.039-1.5039h.7666l.03.9463h.039a1.4491,1.4491,0,0,1,1.336-1.0566.9632.9632,0,0,1,.249.03v.8271a1.3438,1.3438,0,0,0-.2989-.03,1.23,1.23,0,0,0-1.1757,1.126,2.4211,2.4211,0,0,0-.04.4092v2.57H200.74Z"/><path d="M204.3961,43.9989a1.5453,1.5453,0,0,0,1.6543,1.6738,3.1683,3.1683,0,0,0,1.3349-.249l.1495.6279a3.9027,3.9027,0,0,1-1.6036.2988,2.24,2.24,0,0,1-2.372-2.4316,2.3418,2.3418,0,0,1,2.2617-2.6006,2.0435,2.0435,0,0,1,1.9932,2.2725,3.1584,3.1584,0,0,1-.03.4082Zm2.5713-.628a1.2489,1.2489,0,0,0-1.2158-1.4248,1.4544,1.4544,0,0,0-1.3457,1.4248Z"/><path d="M208.78,45.3543a2.3018,2.3018,0,0,0,1.1553.3487c.6386,0,.9375-.3194.9375-.7178,0-.418-.25-.6475-.8975-.8867-.8662-.3086-1.2754-.7871-1.2754-1.3653a1.4875,1.4875,0,0,1,1.6641-1.415,2.3959,2.3959,0,0,1,1.1855.3l-.2187.6377a1.8724,1.8724,0,0,0-.9864-.2793c-.5185,0-.8076.2988-.8076.6572,0,.3985.2891.5781.917.8174.8369.3184,1.2656.7373,1.2656,1.4551,0,.8467-.6572,1.4443-1.8037,1.4443a2.7517,2.7517,0,0,1-1.3554-.3291Z"/><path d="M217.2086,43.8a2.357,2.357,0,0,1-2.4014,2.5606,2.2926,2.2926,0,0,1-2.3115-2.48,2.3557,2.3557,0,0,1,2.3916-2.5615A2.2839,2.2839,0,0,1,217.2086,43.8Zm-3.8262.05c0,1.0567.6084,1.8536,1.4649,1.8536.8369,0,1.4648-.7872,1.4648-1.8731,0-.8174-.4082-1.8535-1.4453-1.8535C213.8316,41.9764,213.3824,42.9324,213.3824,43.8494Z"/><path d="M218.3141,39.1766h.8769v7.0742h-.8769Z"/><path d="M221.0035,41.4285l.9473,2.71a12.46,12.46,0,0,1,.3886,1.2354h.0293c.1094-.3985.25-.7969.4092-1.2354l.9365-2.71h.9161l-1.8926,4.8223h-.8369l-1.833-4.8223Z"/><path d="M225.9059,43.9989a1.5446,1.5446,0,0,0,1.6533,1.6738,3.1649,3.1649,0,0,0,1.3349-.249l.15.6279a3.9112,3.9112,0,0,1-1.6045.2988,2.24,2.24,0,0,1-2.372-2.4316,2.3418,2.3418,0,0,1,2.2617-2.6006,2.0434,2.0434,0,0,1,1.9931,2.2725,3.1622,3.1622,0,0,1-.03.4082Zm2.57-.628a1.2489,1.2489,0,0,0-1.2159-1.4248,1.4528,1.4528,0,0,0-1.3447,1.4248Z"/><path d="M232.6,46.2508V42.0955h-.6777v-.667H232.6v-.2294a2.2735,2.2735,0,0,1,.5576-1.6836,1.6764,1.6764,0,0,1,1.1758-.4483,2.0522,2.0522,0,0,1,.748.1387l-.12.6777a1.3138,1.3138,0,0,0-.5576-.1094c-.748,0-.9375.6573-.9375,1.3946v.26h1.166v.667h-1.166v4.1553Z"/><path d="M239.7838,43.8a2.357,2.357,0,0,1-2.4014,2.5606,2.2921,2.2921,0,0,1-2.3115-2.48,2.3552,2.3552,0,0,1,2.3916-2.5615A2.2839,2.2839,0,0,1,239.7838,43.8Zm-3.8262.05c0,1.0567.6074,1.8536,1.4649,1.8536.8369,0,1.4638-.7872,1.4638-1.8731,0-.8174-.4082-1.8535-1.4443-1.8535S235.9576,42.9324,235.9576,43.8494Z"/><path d="M240.8883,42.9324c0-.5673-.01-1.0556-.0391-1.5039h.7676l.0293.9463h.04a1.4471,1.4471,0,0,1,1.335-1.0566.9576.9576,0,0,1,.249.03v.8271a1.3364,1.3364,0,0,0-.2988-.03,1.2305,1.2305,0,0,0-1.1758,1.126,2.53,2.53,0,0,0-.04.4092v2.57h-.8672Z"/><path d="M247.5045,46.0711a3.2214,3.2214,0,0,1-1.3848.2793,2.2908,2.2908,0,0,1-2.4013-2.4609,2.4506,2.4506,0,0,1,2.5908-2.5606,2.9245,2.9245,0,0,1,1.2158.2491l-.1992.6777a2.0328,2.0328,0,0,0-1.0166-.2295,1.8182,1.8182,0,0,0-.03,3.627,2.4948,2.4948,0,0,0,1.0762-.2393Z"/><path d="M249.0182,43.9989a1.5453,1.5453,0,0,0,1.6543,1.6738,3.1649,3.1649,0,0,0,1.3349-.249l.1494.6279a3.9039,3.9039,0,0,1-1.6045.2988,2.24,2.24,0,0,1-2.3711-2.4316,2.3418,2.3418,0,0,1,2.2618-2.6006,2.044,2.044,0,0,1,1.9931,2.2725,3.356,3.356,0,0,1-.03.4082Zm2.5712-.628a1.2488,1.2488,0,0,0-1.2158-1.4248,1.4527,1.4527,0,0,0-1.3447,1.4248Z"/><path d="M253.4019,45.3543a2.2993,2.2993,0,0,0,1.1563.3487c.6367,0,.9355-.3194.9355-.7178,0-.418-.248-.6475-.8964-.8867-.8672-.3086-1.2754-.7871-1.2754-1.3653a1.4875,1.4875,0,0,1,1.664-1.415,2.3963,2.3963,0,0,1,1.1856.3l-.2188.6377a1.8719,1.8719,0,0,0-.9863-.2793c-.5186,0-.8076.2988-.8076.6572,0,.3985.289.5781.917.8174.8369.3184,1.2656.7373,1.2656,1.4551,0,.8467-.6582,1.4443-1.8037,1.4443a2.7455,2.7455,0,0,1-1.3545-.3291Z"/><path d="M259.5689,39.1766h.877v3.0088h.0195a1.6242,1.6242,0,0,1,.628-.6172,1.7953,1.7953,0,0,1,.8964-.25c.6485,0,1.6836.3994,1.6836,2.0625v2.87h-.8759v-2.77c0-.7774-.2891-1.4356-1.1163-1.4356a1.2589,1.2589,0,0,0-1.1757.877,1.0644,1.0644,0,0,0-.06.4189v2.9092h-.877Z"/><path d="M269.4625,43.8A2.3576,2.3576,0,0,1,267.06,46.36a2.2919,2.2919,0,0,1-2.3106-2.48,2.355,2.355,0,0,1,2.3906-2.5615A2.2847,2.2847,0,0,1,269.4625,43.8Zm-3.8262.05c0,1.0567.6074,1.8536,1.4649,1.8536.8359,0,1.4638-.7872,1.4638-1.8731,0-.8174-.4082-1.8535-1.4443-1.8535S265.6363,42.9324,265.6363,43.8494Z"/><path d="M270.567,42.9324c0-.5673-.01-1.0556-.04-1.5039h.7676l.03.9463h.04a1.4471,1.4471,0,0,1,1.335-1.0566.9632.9632,0,0,1,.249.03v.8271a1.3429,1.3429,0,0,0-.2988-.03,1.23,1.23,0,0,0-1.1758,1.126,2.53,2.53,0,0,0-.04.4092v2.57h-.8672Z"/><path d="M274.8014,40.0731a.543.543,0,0,1-1.086,0,.5345.5345,0,0,1,.5479-.5479A.52.52,0,0,1,274.8014,40.0731Zm-.9766,6.1777V41.4285h.877v4.8223Z"/><path d="M275.608,45.743l2.1826-2.84c.209-.26.4082-.4883.627-.7471v-.0205h-2.61v-.7071h3.6768l-.01.5479-2.1523,2.8c-.1992.2686-.3985.5078-.6172.7568v.02h2.8193v.6973h-3.916Z"/><path d="M284.7848,43.8a2.3577,2.3577,0,0,1-2.4024,2.5606,2.2918,2.2918,0,0,1-2.31-2.48,2.355,2.355,0,0,1,2.3906-2.5615A2.2847,2.2847,0,0,1,284.7848,43.8Zm-3.8262.05c0,1.0567.6074,1.8536,1.4648,1.8536.836,0,1.4639-.7872,1.4639-1.8731,0-.8174-.4082-1.8535-1.4443-1.8535S280.9586,42.9324,280.9586,43.8494Z"/><path d="M285.8893,42.7332c0-.498-.01-.9062-.04-1.3047h.7774l.0507.7969h.02a1.7738,1.7738,0,0,1,1.5937-.9072c.668,0,1.7041.3994,1.7041,2.0527v2.88h-.8769v-2.78c0-.7773-.2891-1.4248-1.1162-1.4248a1.247,1.247,0,0,0-1.1758.8975,1.2792,1.2792,0,0,0-.06.4082v2.8994h-.8769Z"/><path d="M292.4752,40.0428v1.3857H293.73v.667h-1.2549v2.6006c0,.5987.1689.9365.6572.9365a1.9326,1.9326,0,0,0,.5078-.0595l.041.6582a2.1642,2.1642,0,0,1-.7773.1191,1.2183,1.2183,0,0,1-.9473-.3681,1.7889,1.7889,0,0,1-.3379-1.2559V42.0955h-.748v-.667h.748V40.2723Z"/><path d="M297.3863,46.2508l-.0693-.6074h-.03a1.7969,1.7969,0,0,1-1.4746.7168,1.3738,1.3738,0,0,1-1.4746-1.3848c0-1.166,1.0371-1.8037,2.9-1.7939v-.1a.9943.9943,0,0,0-1.0967-1.1153,2.3942,2.3942,0,0,0-1.2549.3584l-.1992-.5781a2.9951,2.9951,0,0,1,1.584-.4287c1.4746,0,1.833,1.0068,1.833,1.9736v1.8028a6.81,6.81,0,0,0,.08,1.1562Zm-.1289-2.4609c-.957-.0205-2.043.1494-2.043,1.0859a.7759.7759,0,0,0,.8272.8369,1.2,1.2,0,0,0,1.166-.8066.9054.9054,0,0,0,.05-.2793Z"/><path d="M299.5182,39.1766h.8769v7.0742h-.8769Z"/><path d="M301.87,39.1766h.877v7.0742h-.877Z"/><path d="M304.54,41.4285l1.0557,2.85c.1094.3183.2295.6972.31.9863h.0195c.09-.2891.19-.6582.3086-1.0069l.957-2.8291h.9268l-1.3154,3.4375a7.3336,7.3336,0,0,1-1.6543,3.0186,2.3768,2.3768,0,0,1-1.0762.5684l-.2188-.7373a2.32,2.32,0,0,0,.7666-.4288,2.6592,2.6592,0,0,0,.7383-.9765.646.646,0,0,0,.0694-.209.7946.7946,0,0,0-.06-.23l-1.7842-4.4434Z"/><path d="M308.7037,42.2254a.5938.5938,0,1,1,1.1856,0,.5933.5933,0,1,1-1.1856,0Zm0,3.5176a.5938.5938,0,1,1,1.1856,0,.5933.5933,0,1,1-1.1856,0Z"/><path d="M136.7452,69.2538c.01-.9466-.03-1.2356-1.3252-1.2356h-1.4946l-.538,2.5907h1.106c.8469,0,1.0561-.1893,1.2255-.9864h.3189l-.4584,2.3216h-.3288c.1594-.847,0-.9566-.8569-.9566h-1.0761l-.4284,2.1323a1.54,1.54,0,0,0-.04.3388c0,.3487.3189.4185.9366.4185l-.05.2989h-2.87l.06-.2989c.6875,0,.9266-.12,1.0761-.8569l.8868-4.2646c.1395-.6875.03-.827-.7772-.827l.06-.2989h5.1414l-.2691,1.6241Zm4.2634,1.664V70.24h5.9386v.6776Zm0,2.0326v-.6676h5.9386V72.95Z"/><path d="M153.8853,62.1405h-.02l-1.125.6074-.17-.668,1.4151-.7568h.747V67.8h-.8467Z"/><path d="M161.3971,64.492c0,2.2012-.8174,3.417-2.252,3.417-1.2646,0-2.1221-1.1855-2.1416-3.3281,0-2.1719.9365-3.3672,2.252-3.3672C160.62,61.2137,161.3971,62.43,161.3971,64.492Zm-3.5166.1c0,1.6836.5175,2.64,1.3144,2.64.8965,0,1.3252-1.0459,1.3252-2.7,0-1.5938-.4082-2.64-1.3154-2.64C158.4381,61.8914,157.8805,62.828,157.8805,64.5916Z"/><path d="M166.5084,64.492c0,2.2012-.8174,3.417-2.252,3.417-1.2656,0-2.122-1.1855-2.1425-3.3281,0-2.1719.9365-3.3672,2.2519-3.3672C165.731,61.2137,166.5084,62.43,166.5084,64.492Zm-3.5176.1c0,1.6836.5186,2.64,1.3154,2.64.8965,0,1.3252-1.0459,1.3252-2.7,0-1.5938-.4091-2.64-1.3154-2.64C163.5484,61.8914,162.9908,62.828,162.9908,64.5916Z"/><line class="cls-7" x1="151.534" y1="71.605" x2="166.329" y2="71.605"/><path d="M156.3512,74.8914h-.02l-1.1269.6075-.169-.668,1.4151-.7568h.747v6.4765h-.8466Z"/><path d="M160.067,79.9324a3.6485,3.6485,0,0,0,.707-.0292,2.4488,2.4488,0,0,0,1.3555-.628,2.8394,2.8394,0,0,0,.8564-1.7236h-.0293a1.9018,1.9018,0,0,1-1.5254.6973,1.8757,1.8757,0,0,1-1.9121-1.9825,2.2205,2.2205,0,0,1,2.2119-2.3017c1.3252,0,2.1417,1.0761,2.1417,2.73a4.0949,4.0949,0,0,1-1.1153,3.039,3.239,3.239,0,0,1-1.8838.8672,4.0917,4.0917,0,0,1-.8066.05Zm.3183-3.7265a1.2459,1.2459,0,0,0,1.2461,1.375,1.45,1.45,0,0,0,1.2754-.6768.5813.5813,0,0,0,.0791-.3193c0-1.1055-.4082-1.9531-1.3252-1.9531C160.9137,74.6317,160.3853,75.29,160.3853,76.2059Z"/><path d="M170.5748,68.9344l2.1318,2.1826,2.1328-2.1826.4385.4385-2.1426,2.1826,2.1426,2.1816-.4385.4385-2.1328-2.1816-2.1318,2.1816-.4385-.4385,2.1319-2.1816-2.1319-2.1826Z"/><path d="M179.0846,73.2791a2.3014,2.3014,0,0,0,1.1552.3487c.6387,0,.9375-.3194.9375-.7178,0-.418-.25-.6475-.8974-.8867-.8662-.3086-1.2754-.7871-1.2754-1.3653a1.4875,1.4875,0,0,1,1.664-1.415,2.3963,2.3963,0,0,1,1.1856.3l-.2188.6377a1.8716,1.8716,0,0,0-.9863-.2793c-.5185,0-.8076.2988-.8076.6572,0,.3985.2891.5782.917.8174.8369.3184,1.2656.7373,1.2656,1.4551,0,.8467-.6572,1.4443-1.8037,1.4443a2.7524,2.7524,0,0,1-1.3555-.3291Z"/><path d="M184.1256,67.9979a.543.543,0,0,1-1.086,0,.5345.5345,0,0,1,.5479-.5479A.52.52,0,0,1,184.1256,67.9979Zm-.9766,6.1777V69.3533h.877v4.8223Z"/><path d="M185.48,70.658c0-.498-.01-.9062-.0391-1.3047h.7764l.05.7969h.02a1.7739,1.7739,0,0,1,1.5937-.9072c.668,0,1.7041.3994,1.7041,2.0527v2.88h-.8769v-2.78c0-.7773-.2891-1.4248-1.1152-1.4248a1.2451,1.2451,0,0,0-1.1758.8975,1.2269,1.2269,0,0,0-.0606.4082v2.8994H185.48Z"/><path d="M194.5432,74.3155c-.8868,0-1.5445-.6676-1.5445-2.212,0-2.73,1.395-5.0717,3.0191-5.0717.9466,0,1.385.9765,1.385,2.4213C197.4028,72.4821,196.0975,74.3155,194.5432,74.3155Zm2.2817-3.5073h-3.2383a8.4568,8.4568,0,0,0-.05.8768c0,1.4049.6775,1.7636,1.2056,1.7636C195.699,73.4486,196.5559,72.6914,196.8249,70.8082Zm-3.1387-.5281h3.2085c.01-.1893.02-.4085.02-.5879,0-.9366-.3189-1.7935-1.0961-1.7935C194.9716,67.8987,194.035,68.7855,193.6862,70.28Z"/><path d="M15.5816,99.0213a3.07,3.07,0,0,0,1.5547.4385c.8867,0,1.4043-.4678,1.4043-1.1455,0-.6279-.3584-.9863-1.2656-1.335-1.0957-.3886-1.7734-.957-1.7734-1.9033a1.9335,1.9335,0,0,1,2.1718-1.8232,3.0471,3.0471,0,0,1,1.4854.3291l-.2393.707a2.6822,2.6822,0,0,0-1.2754-.3193c-.917,0-1.2656.5488-1.2656,1.0068,0,.6279.4082.9365,1.335,1.2949,1.1357.4385,1.7138.9873,1.7138,1.9736,0,1.0362-.7675,1.9327-2.3515,1.9327a3.4727,3.4727,0,0,1-1.7139-.4287Z"/><path d="M24.6178,98.7625c0,.4981.01.9366.04,1.3155h-.7773l-.05-.7872h-.02a1.8147,1.8147,0,0,1-1.5947.8965c-.7568,0-1.6641-.4179-1.6641-2.1123V95.2557h.877v2.67c0,.917.2793,1.5342,1.0762,1.5342a1.2313,1.2313,0,0,0,1.2353-1.2451v-2.959h.877Z"/><path d="M26.0318,100.078c.02-.3291.04-.8174.04-1.2452V93.0037h.8672V96.033h.02a1.7971,1.7971,0,0,1,1.6445-.8877c1.1953,0,2.042.9971,2.0322,2.462a2.291,2.291,0,0,1-2.1621,2.58,1.7186,1.7186,0,0,1-1.6142-.9062H26.83l-.04.7969Zm.9073-1.9327a1.6727,1.6727,0,0,0,.039.3184A1.3542,1.3542,0,0,0,28.2935,99.49c.917,0,1.4649-.7471,1.4649-1.8535,0-.9659-.4981-1.793-1.4346-1.793A1.3969,1.3969,0,0,0,26.9889,96.92a1.6851,1.6851,0,0,0-.05.3584Z"/><path d="M31.6207,99.1815a2.3066,2.3066,0,0,0,1.1562.3486c.6377,0,.9366-.3193.9366-.7178,0-.4179-.2491-.6474-.8965-.8867-.8672-.3086-1.2754-.7871-1.2754-1.3652a1.4872,1.4872,0,0,1,1.6631-1.4151,2.4038,2.4038,0,0,1,1.1865.3l-.22.6377a1.8722,1.8722,0,0,0-.9863-.2793c-.5176,0-.8067.2989-.8067.6573,0,.3984.2891.5781.916.8174.8379.3183,1.2657.7373,1.2657,1.455,0,.8467-.6573,1.4444-1.8038,1.4444a2.7512,2.7512,0,0,1-1.3545-.3291Z"/><path d="M36.7418,93.87v1.3858h1.2559v.667H36.7418v2.6006c0,.5976.17.9365.6582.9365a1.934,1.934,0,0,0,.5078-.06l.04.6582a2.1576,2.1576,0,0,1-.7773.1192,1.2158,1.2158,0,0,1-.9463-.3682,1.7854,1.7854,0,0,1-.3389-1.2559V95.9227h-.748v-.667h.748V94.0994Z"/><path d="M39.96,93.9a.543.543,0,0,1-1.086,0,.5344.5344,0,0,1,.5479-.5478A.52.52,0,0,1,39.96,93.9Zm-.9766,6.1778V95.2557h.877v4.8223Z"/><path d="M42.3707,93.87v1.3858h1.2559v.667H42.3707v2.6006c0,.5976.17.9365.6572.9365a1.9368,1.9368,0,0,0,.5088-.06l.0391.6582a2.1485,2.1485,0,0,1-.7764.1192,1.22,1.22,0,0,1-.9473-.3682,1.79,1.79,0,0,1-.3388-1.2559V95.9227h-.7471v-.667h.7471V94.0994Z"/><path d="M48.6471,98.7625c0,.4981.0107.9366.04,1.3155H47.91l-.05-.7872h-.02a1.8147,1.8147,0,0,1-1.5947.8965c-.7568,0-1.6641-.4179-1.6641-2.1123V95.2557h.877v2.67c0,.917.2793,1.5342,1.0762,1.5342a1.2345,1.2345,0,0,0,1.2363-1.2451v-2.959h.876Z"/><path d="M51.1578,93.87v1.3858h1.2549v.667H51.1578v2.6006c0,.5976.169.9365.6572.9365a1.9423,1.9423,0,0,0,.5088-.06l.0391.6582a2.1546,2.1546,0,0,1-.7774.1192,1.2183,1.2183,0,0,1-.9462-.3682A1.79,1.79,0,0,1,50.3,98.5535V95.9227h-.7471v-.667H50.3V94.0994Z"/><path d="M54.3756,93.9a.543.543,0,0,1-1.086,0,.5339.5339,0,0,1,.5479-.5478A.52.52,0,0,1,54.3756,93.9Zm-.9766,6.1778V95.2557h.877v4.8223Z"/><path d="M55.73,96.56c0-.4981-.01-.9063-.04-1.3047h.7774l.05.7969h.02a1.7758,1.7758,0,0,1,1.5947-.9073c.668,0,1.7041.3995,1.7041,2.0528v2.88h-.8769v-2.78c0-.7774-.2891-1.4248-1.1162-1.4248a1.2859,1.2859,0,0,0-1.2354,1.3056v2.9H55.73Z"/><path d="M65.4146,95.2557c-.02.3486-.04.7373-.04,1.3252v2.8a2.7765,2.7765,0,0,1-.6875,2.2021,2.5574,2.5574,0,0,1-1.7539.5772,3.1073,3.1073,0,0,1-1.6045-.3984l.22-.667a2.7176,2.7176,0,0,0,1.4151.3779c.8965,0,1.5537-.4678,1.5537-1.6836v-.5381h-.02a1.7227,1.7227,0,0,1-1.5342.8076,2.1557,2.1557,0,0,1-2.0528-2.3515,2.3153,2.3153,0,0,1,2.1719-2.5616,1.6034,1.6034,0,0,1,1.5049.8379h.0195l.04-.7275Zm-.9072,1.9023a1.2431,1.2431,0,0,0-.05-.3984,1.2635,1.2635,0,0,0-1.2256-.9268c-.8369,0-1.4345.708-1.4345,1.8243,0,.9462.4785,1.7334,1.4248,1.7334a1.2825,1.2825,0,0,0,1.2158-.8965,1.5286,1.5286,0,0,0,.0693-.4688Z"/><path d="M73.5338,97.6268a2.3569,2.3569,0,0,1-2.4014,2.56,2.2925,2.2925,0,0,1-2.3115-2.48,2.3553,2.3553,0,0,1,2.3916-2.5616A2.284,2.284,0,0,1,73.5338,97.6268Zm-3.8262.05c0,1.0566.6084,1.8535,1.4649,1.8535.8369,0,1.4648-.7871,1.4648-1.873,0-.8174-.4092-1.8536-1.4453-1.8536S69.7076,96.76,69.7076,97.6766Z"/><path d="M78.6744,98.7625c0,.4981.01.9366.04,1.3155h-.7773l-.05-.7872h-.0195a1.8148,1.8148,0,0,1-1.5948.8965c-.7568,0-1.664-.4179-1.664-2.1123V95.2557h.8769v2.67c0,.917.2793,1.5342,1.0762,1.5342a1.2313,1.2313,0,0,0,1.2354-1.2451v-2.959h.8769Z"/><path d="M80.1285,96.76c0-.5674-.01-1.0557-.04-1.5039h.7675l.0293.9463h.04A1.4469,1.4469,0,0,1,82.26,95.1453a.9622.9622,0,0,1,.2491.03v.8272a1.3315,1.3315,0,0,0-.2989-.03,1.2312,1.2312,0,0,0-1.1757,1.126,2.5226,2.5226,0,0,0-.0391.4091v2.57h-.8672Z"/><path d="M86.2154,97.826A1.5453,1.5453,0,0,0,87.87,99.5a3.1669,3.1669,0,0,0,1.335-.249l.1494.6279a3.9019,3.9019,0,0,1-1.6045.2989,2.24,2.24,0,0,1-2.3711-2.4317A2.3418,2.3418,0,0,1,87.64,95.1453a2.0442,2.0442,0,0,1,1.9932,2.2725,3.33,3.33,0,0,1-.03.4082Zm2.5713-.6279a1.2489,1.2489,0,0,0-1.2158-1.4248,1.4545,1.4545,0,0,0-1.3457,1.4248Z"/><path d="M94.0064,99.3309h-.0195a1.7152,1.7152,0,0,1-1.5742.8564,2.2,2.2,0,0,1-2.043-2.4414,2.3113,2.3113,0,0,1,2.1826-2.6006,1.5848,1.5848,0,0,1,1.4844.8379h.02l.03-.7275h.8272c-.0205.4082-.03.8271-.03,1.3252v5.47h-.877Zm0-2.1221a1.4745,1.4745,0,0,0-.04-.3691,1.28,1.28,0,0,0-1.2549-.9961c-.9072,0-1.4551.7666-1.4551,1.8525,0,.9571.458,1.794,1.4248,1.794a1.3062,1.3062,0,0,0,1.2559-.9561,1.4717,1.4717,0,0,0,.0693-.4189Z"/><path d="M100.3629,98.7625c0,.4981.01.9366.04,1.3155h-.7773l-.05-.7872h-.02a1.8158,1.8158,0,0,1-1.5947.8965c-.7568,0-1.664-.4179-1.664-2.1123V95.2557h.8769v2.67c0,.917.2793,1.5342,1.0762,1.5342a1.2341,1.2341,0,0,0,1.2353-1.2451v-2.959h.877Z"/><path d="M104.4869,100.078l-.0693-.6075h-.03a1.7968,1.7968,0,0,1-1.4746.7168,1.3738,1.3738,0,0,1-1.4746-1.3847c0-1.166,1.0361-1.8037,2.8994-1.794v-.1a.9935.9935,0,0,0-1.0957-1.1152,2.4085,2.4085,0,0,0-1.2559.3584l-.1992-.5781a2.9954,2.9954,0,0,1,1.584-.4288c1.4756,0,1.834,1.0069,1.834,1.9737v1.8027a6.7091,6.7091,0,0,0,.08,1.1563Zm-.1289-2.461c-.957-.02-2.043.1494-2.043,1.086a.7759.7759,0,0,0,.8272.8369,1.2,1.2,0,0,0,1.166-.8067.9348.9348,0,0,0,.05-.2793Z"/><path d="M107.6754,93.87v1.3858H108.93v.667h-1.2549v2.6006c0,.5976.1689.9365.6572.9365a1.928,1.928,0,0,0,.5078-.06l.04.6582a2.1546,2.1546,0,0,1-.7774.1192,1.2172,1.2172,0,0,1-.9463-.3682,1.79,1.79,0,0,1-.3388-1.2559V95.9227h-.7471v-.667h.7471V94.0994Z"/><path d="M110.8932,93.9a.5435.5435,0,0,1-1.087,0,.5347.5347,0,0,1,.5489-.5478A.5209.5209,0,0,1,110.8932,93.9Zm-.9766,6.1778V95.2557h.8769v4.8223Z"/><path d="M116.6119,97.6268a2.3568,2.3568,0,0,1-2.4014,2.56,2.292,2.292,0,0,1-2.3115-2.48,2.3553,2.3553,0,0,1,2.3916-2.5616A2.284,2.284,0,0,1,116.6119,97.6268Zm-3.8262.05c0,1.0566.6075,1.8535,1.4649,1.8535.8369,0,1.4638-.7871,1.4638-1.873,0-.8174-.4082-1.8536-1.4443-1.8536S112.7857,96.76,112.7857,97.6766Z"/><path d="M117.7174,96.56c0-.4981-.0108-.9063-.04-1.3047h.7774l.05.7969h.02a1.7746,1.7746,0,0,1,1.5947-.9073c.667,0,1.7032.3995,1.7032,2.0528v2.88h-.877v-2.78c0-.7774-.289-1.4248-1.1152-1.4248a1.2891,1.2891,0,0,0-1.2363,1.3056v2.9h-.876Z"/><path d="M125.6773,100.078V95.9227H125v-.667h.6777v-.23a2.2738,2.2738,0,0,1,.5577-1.6836,1.6765,1.6765,0,0,1,1.1757-.4482,2.0427,2.0427,0,0,1,.7471.1386l-.1191.6778a1.3139,1.3139,0,0,0-.5586-.1094c-.7471,0-.9366.6572-.9366,1.3945v.26H127.71v.667h-1.1661v4.1553Z"/><path d="M132.8609,97.6268a2.3573,2.3573,0,0,1-2.4013,2.56,2.292,2.292,0,0,1-2.3116-2.48,2.3551,2.3551,0,0,1,2.3907-2.5616A2.2842,2.2842,0,0,1,132.8609,97.6268Zm-3.8261.05c0,1.0566.6074,1.8535,1.4648,1.8535.8369,0,1.4639-.7871,1.4639-1.873,0-.8174-.4082-1.8536-1.4444-1.8536S129.0348,96.76,129.0348,97.6766Z"/><path d="M133.9654,96.76c0-.5674-.01-1.0557-.04-1.5039h.7676l.03.9463h.04a1.4468,1.4468,0,0,1,1.3349-1.0567.9683.9683,0,0,1,.2491.03v.8272a1.3379,1.3379,0,0,0-.2989-.03,1.23,1.23,0,0,0-1.1757,1.126,2.5164,2.5164,0,0,0-.04.4091v2.57h-.8672Z"/><path d="M144.8872,95.1558c.01-.9466-.03-1.2355-1.3252-1.2355h-1.4946l-.538,2.5906h1.106c.8469,0,1.0561-.1893,1.2255-.9864h.3189l-.4584,2.3216h-.3288c.1594-.847,0-.9566-.8569-.9566H141.46l-.4284,2.1323a1.5408,1.5408,0,0,0-.04.3388c0,.3487.3189.4185.9366.4185l-.05.2989h-2.87l.06-.2989c.6875,0,.9266-.12,1.0761-.8569l.8868-4.2646c.1395-.6875.03-.827-.7772-.827l.06-.2989h5.1414l-.2691,1.6241Z"/><path d="M145.484,101.3035a14.2585,14.2585,0,0,0,.5976-2.3818l.9766-.1a12.09,12.09,0,0,1-.9463,2.4219Z"/><path class="cls-8" d="M149.2142,123.22c.01-.9466-.03-1.2355-1.3252-1.2355h-1.4946l-.538,2.5906h1.106c.8469,0,1.0561-.1893,1.2255-.9864h.3189l-.4584,2.3216H147.72c.1594-.847,0-.9566-.8569-.9566h-1.0761l-.4284,2.1323a1.54,1.54,0,0,0-.04.3388c0,.3487.3188.4185.9366.4185l-.05.2989h-2.87l.06-.2989c.6876,0,.9267-.12,1.0762-.8569l.8868-4.2646c.1395-.6875.03-.827-.7772-.827l.06-.2989h5.1415l-.2691,1.6241Z"/><path class="cls-8" d="M151.7105,124.784v-.5986h5.1407v.5986Zm0,1.9522v-.5977h5.1407v.5977Z"/><path class="cls-8" d="M164.7994,116.1073h-.02l-1.126.6074-.1689-.668,1.415-.7568h.7471v6.4765h-.8467Z"/><path class="cls-8" d="M169.91,116.1073h-.02l-1.1269.6074-.169-.668,1.4151-.7568h.747v6.4765H169.91Z"/><path class="cls-8" d="M177.4215,118.4588c0,2.2012-.8164,3.417-2.252,3.417-1.2646,0-2.122-1.1855-2.1416-3.3281,0-2.1719.9365-3.3672,2.252-3.3672C176.6441,115.1805,177.4215,116.3963,177.4215,118.4588Zm-3.5166.1c0,1.6836.5176,2.64,1.3154,2.64.8965,0,1.3242-1.0459,1.3242-2.7,0-1.5938-.4082-2.64-1.3144-2.64C174.4625,115.8582,173.9049,116.7948,173.9049,118.5584Z"/><line class="cls-9" x1="162.448" y1="125.572" x2="177.243" y2="125.572"/><path class="cls-8" d="M167.2643,128.8582h-.0206l-1.125.6075-.17-.668,1.4151-.7569h.747v6.4766h-.8466Z"/><path class="cls-8" d="M170.98,133.8992a3.64,3.64,0,0,0,.707-.0293,2.4511,2.4511,0,0,0,1.3555-.6279,2.845,2.845,0,0,0,.8564-1.7236H173.87a1.9013,1.9013,0,0,1-1.5244.6973,1.8767,1.8767,0,0,1-1.9141-1.9825,2.2213,2.2213,0,0,1,2.2129-2.3017c1.3252,0,2.1416,1.0761,2.1416,2.73A4.0872,4.0872,0,0,1,173.67,133.7a3.239,3.239,0,0,1-1.8828.8672,4.0917,4.0917,0,0,1-.8066.05Zm.3183-3.7265a1.2459,1.2459,0,0,0,1.2461,1.375,1.4491,1.4491,0,0,0,1.2754-.6768.5815.5815,0,0,0,.0791-.3193c0-1.1055-.4082-1.9531-1.3252-1.9531C171.8268,128.5985,171.2984,129.2567,171.2984,130.1727Z"/><path class="cls-8" d="M186.2707,128.4011l-2.3615-2.3515-2.3515,2.3515-.4683-.4683,2.3416-2.3615-2.3416-2.3515.4783-.4683,2.3415,2.3415,2.3615-2.3415.4683.4583-2.3415,2.3615,2.3415,2.3515Zm7.691-2.4213c0,.06-.06.4185-.06.6377,0,.6477.1495.8669.4484.8669.3188,0,.4683-.2093.6477-.3986l.1594.1694a1.4935,1.4935,0,0,1-1.2555.9665c-.4882,0-.6576-.3288-.6576-.7971,0-.1893.03-.3886.08-.9167h-.06c-.5978,1.4647-1.2056,1.7636-1.6939,1.7636-.538,0-.7074-.538-.7871-.817h-.05c-.1595.8071-.1395,1.4647-.3189,2.202a.7686.7686,0,0,1-.837.6477l-.1395-.03a29.1551,29.1551,0,0,1,1.0164-3.6169c.2092-1.0662.4882-2.6206.6377-3.1985l.8967-.02.05.09-.9068,2.4511a1.8959,1.8959,0,0,0-.06.4683c0,.4982.1794.9964.6776.9964.9067,0,1.7636-1.8533,1.8234-2.1024.12-.538.279-1.3352.4384-1.8832l.8769-.02.05.09Z"/><path class="cls-8" d="M120.8619,142.3573h-.02l-1.126.6074-.17-.668,1.415-.7568h.7481v6.4765h-.8477Z"/><path class="cls-8" d="M125.9732,142.3573h-.0205l-1.1259.6074-.169-.668,1.415-.7568h.7471v6.4765h-.8467Z"/><path class="cls-8" d="M133.485,144.7088c0,2.2012-.8174,3.417-2.252,3.417-1.2656,0-2.1221-1.1855-2.1426-3.3281,0-2.1719.9365-3.3672,2.252-3.3672C132.7076,141.4305,133.485,142.6463,133.485,144.7088Zm-3.5176.1c0,1.6836.5185,2.64,1.3154,2.64.8965,0,1.3252-1.0459,1.3252-2.7,0-1.5938-.4082-2.64-1.3154-2.64C130.525,142.1082,129.9674,143.0448,129.9674,144.8084Z"/><line class="cls-9" x1="118.511" y1="151.823" x2="133.306" y2="151.823"/><path class="cls-8" d="M123.3277,155.1082h-.0195l-1.126.6075-.1689-.668,1.415-.7569h.7471v6.4766h-.8477Z"/><path class="cls-8" d="M127.0445,160.1492a3.643,3.643,0,0,0,.7071-.0293,2.4505,2.4505,0,0,0,1.3554-.6279,2.8451,2.8451,0,0,0,.8565-1.7236h-.03a1.9,1.9,0,0,1-1.5244.6973,1.8765,1.8765,0,0,1-1.9131-1.9825,2.22,2.22,0,0,1,2.2119-2.3017c1.3252,0,2.1426,1.0761,2.1426,2.73a4.0911,4.0911,0,0,1-1.1162,3.039,3.24,3.24,0,0,1-1.8828.8672,4.0931,4.0931,0,0,1-.8067.05Zm.3184-3.7265a1.2457,1.2457,0,0,0,1.2451,1.375,1.4479,1.4479,0,0,0,1.2754-.6768.5812.5812,0,0,0,.08-.3193c0-1.1055-.4082-1.9531-1.3252-1.9531C127.8912,154.8485,127.3629,155.5067,127.3629,156.4227Z"/><path class="cls-8" d="M142.3347,154.6521l-2.3615-2.3515-2.3515,2.3515-.4683-.4683,2.3415-2.3615-2.3415-2.3515.4783-.4683,2.3415,2.3415,2.3615-2.3415.4683.4583-2.3415,2.3615,2.3415,2.3515Zm7.691-2.4213c0,.06-.06.4185-.06.6377,0,.6477.1495.8669.4484.8669.3188,0,.4683-.2093.6477-.3986l.1594.1694a1.4935,1.4935,0,0,1-1.2555.9665c-.4882,0-.6576-.3288-.6576-.7971,0-.1893.03-.3886.08-.9167h-.06c-.5978,1.4647-1.2056,1.7636-1.6939,1.7636-.538,0-.7074-.538-.7871-.817h-.05c-.16.8071-.1395,1.4647-.3189,2.202a.7686.7686,0,0,1-.837.6477l-.1395-.03a29.1551,29.1551,0,0,1,1.0164-3.6169c.2092-1.0662.4882-2.6206.6377-3.1985l.8967-.02.05.09-.9067,2.4511a1.8959,1.8959,0,0,0-.06.4683c0,.4982.1794.9964.6776.9964.9067,0,1.7636-1.8533,1.8234-2.1024.12-.538.279-1.3352.4384-1.8832l.8768-.02.05.09Z"/><path d="M154.4771,151.035v-.5986h5.1416v.5986Zm0,1.9521V152.39h5.1416v.5976Z"/><path d="M167.566,142.3573h-.0195l-1.126.6074-.1689-.668,1.414-.7568h.7481v6.4765h-.8477Z"/><path d="M175.0777,144.7088c0,2.2012-.8164,3.417-2.2519,3.417-1.2647,0-2.1221-1.1855-2.1416-3.3281,0-2.1719.9365-3.3672,2.2519-3.3672C174.3,141.4305,175.0777,142.6463,175.0777,144.7088Zm-3.5166.1c0,1.6836.5176,2.64,1.3155,2.64.8964,0,1.3242-1.0459,1.3242-2.7,0-1.5938-.4082-2.64-1.3145-2.64C172.1187,142.1082,171.5611,143.0448,171.5611,144.8084Z"/><path d="M180.1891,144.7088c0,2.2012-.8174,3.417-2.252,3.417-1.2656,0-2.1221-1.1855-2.1426-3.3281,0-2.1719.9375-3.3672,2.252-3.3672C179.4117,141.4305,180.1891,142.6463,180.1891,144.7088Zm-3.5176.1c0,1.6836.5185,2.64,1.3154,2.64.8965,0,1.3252-1.0459,1.3252-2.7,0-1.5938-.4082-2.64-1.3154-2.64C177.23,142.1082,176.6715,143.0448,176.6715,144.8084Z"/><line class="cls-7" x1="165.215" y1="151.823" x2="180.01" y2="151.823"/><path d="M170.0309,155.1082h-.02l-1.126.6075-.1689-.668,1.4141-.7569h.748v6.4766h-.8476Z"/><path d="M173.7467,160.1492a3.65,3.65,0,0,0,.708-.0293,2.4451,2.4451,0,0,0,1.3545-.6279,2.8457,2.8457,0,0,0,.8574-1.7236h-.03a1.9,1.9,0,0,1-1.5244.6973,1.8759,1.8759,0,0,1-1.9131-1.9825,2.22,2.22,0,0,1,2.2119-2.3017c1.3252,0,2.1426,1.0761,2.1426,2.73a4.0911,4.0911,0,0,1-1.1162,3.039,3.239,3.239,0,0,1-1.8828.8672,4.1017,4.1017,0,0,1-.8076.05Zm.3193-3.7265a1.2457,1.2457,0,0,0,1.2451,1.375,1.4491,1.4491,0,0,0,1.2754-.6768.5812.5812,0,0,0,.08-.3193c0-1.1055-.4092-1.9531-1.3252-1.9531C174.5934,154.8485,174.066,155.5067,174.066,156.4227Z"/><path d="M184.2545,149.1512l2.1328,2.1826,2.1318-2.1826.4385.4385-2.1416,2.1826,2.1416,2.1816-.4385.4385-2.1318-2.1816-2.1328,2.1816-.4385-.4385,2.1328-2.1816L183.816,149.59Z"/><path d="M192.7652,153.4959a2.3057,2.3057,0,0,0,1.1563.3487c.6377,0,.9365-.3194.9365-.7178,0-.418-.249-.6475-.8965-.8867-.8672-.3086-1.2754-.7871-1.2754-1.3653a1.4876,1.4876,0,0,1,1.6641-1.415,2.3956,2.3956,0,0,1,1.1855.3l-.22.6377a1.8689,1.8689,0,0,0-.9863-.2793c-.5176,0-.8067.2988-.8067.6572,0,.3985.2891.5781.9161.8174.8378.3184,1.2656.7373,1.2656,1.4551,0,.8467-.6572,1.4443-1.8028,1.4443a2.7517,2.7517,0,0,1-1.3554-.3291Z"/><path d="M197.8062,148.2147a.543.543,0,0,1-1.0859,0,.5347.5347,0,0,1,.5488-.5479A.52.52,0,0,1,197.8062,148.2147Zm-.9765,6.1777V149.57h.8769v4.8223Z"/><path d="M199.1617,150.8748c0-.498-.01-.9062-.04-1.3047h.7773l.05.7969h.02a1.7743,1.7743,0,0,1,1.5947-.9072c.667,0,1.7041.3994,1.7041,2.0527v2.88h-.877v-2.78c0-.7773-.289-1.4248-1.1162-1.4248a1.2856,1.2856,0,0,0-1.2353,1.3057v2.8994h-.877Z"/><path d="M208.2242,154.5325c-.8868,0-1.5445-.6676-1.5445-2.212,0-2.73,1.395-5.0717,3.0191-5.0717.9466,0,1.385.9765,1.385,2.4213C211.0838,152.6991,209.7785,154.5325,208.2242,154.5325Zm2.2817-3.5073h-3.2383a8.4568,8.4568,0,0,0-.05.8768c0,1.4049.6775,1.7636,1.2056,1.7636C209.38,153.6656,210.2369,152.9084,210.5059,151.0252Zm-3.1387-.5281h3.2085c.01-.1893.02-.4085.02-.5879,0-.9366-.3189-1.7935-1.0961-1.7935C208.6526,148.1157,207.716,149.0025,207.3672,150.4971Z"/><path d="M16.9762,178.3778h-2.043v-.7373h4.9727v.7373H17.8531v5.9785h-.8769Z"/><path d="M20.6227,177.2821H21.5v3.0087h.02a1.624,1.624,0,0,1,.628-.6171,1.7927,1.7927,0,0,1,.8964-.25c.6475,0,1.6846.3994,1.6846,2.0625v2.87h-.8769v-2.77c0-.7773-.2891-1.4355-1.1162-1.4355a1.2589,1.2589,0,0,0-1.1758.877,1.0644,1.0644,0,0,0-.06.4189v2.9092h-.8769Z"/><path d="M26.64,182.1043a1.5447,1.5447,0,0,0,1.6533,1.6739,3.1719,3.1719,0,0,0,1.336-.2491l.1494.628a3.9077,3.9077,0,0,1-1.6045.2988,2.24,2.24,0,0,1-2.3711-2.4317,2.3412,2.3412,0,0,1,2.2617-2.6005,2.0432,2.0432,0,0,1,1.9922,2.2724,3.3724,3.3724,0,0,1-.0293.4082Zm2.57-.6279a1.2489,1.2489,0,0,0-1.2158-1.4248,1.4527,1.4527,0,0,0-1.3447,1.4248Z"/><path d="M31.1432,180.8387c0-.498-.0108-.9063-.04-1.3047h.7774l.05.7969h.02a1.7745,1.7745,0,0,1,1.5947-.9072c.667,0,1.7032.3994,1.7032,2.0527v2.88h-.877v-2.78c0-.7773-.2881-1.4248-1.1152-1.4248a1.286,1.286,0,0,0-1.2354,1.3057v2.8994h-.8769Z"/><path d="M36.1041,185.5819a14.2693,14.2693,0,0,0,.5977-2.3819l.9765-.1a12.151,12.151,0,0,1-.9463,2.4219Z"/><path d="M41.0758,181.0379c0-.5674-.0108-1.0556-.04-1.5039h.7666l.03.9463h.04a1.4467,1.4467,0,0,1,1.3349-1.0566.9672.9672,0,0,1,.249.03v.8272a1.3429,1.3429,0,0,0-.2988-.03,1.2306,1.2306,0,0,0-1.1758,1.126,2.53,2.53,0,0,0-.04.4092v2.57h-.8662Z"/><path d="M44.732,182.1043a1.5447,1.5447,0,0,0,1.6533,1.6739,3.1719,3.1719,0,0,0,1.336-.2491l.1494.628a3.9077,3.9077,0,0,1-1.6045.2988,2.24,2.24,0,0,1-2.3711-2.4317,2.3412,2.3412,0,0,1,2.2617-2.6005,2.0433,2.0433,0,0,1,1.9922,2.2724,3.3724,3.3724,0,0,1-.0293.4082Zm2.57-.6279a1.2489,1.2489,0,0,0-1.2158-1.4248,1.4527,1.4527,0,0,0-1.3447,1.4248Z"/><path d="M51.9049,184.3563l-.0694-.6074h-.03a1.7971,1.7971,0,0,1-1.4746.7168,1.3739,1.3739,0,0,1-1.4747-1.3848c0-1.166,1.0362-1.8037,2.8995-1.794v-.1a.9935.9935,0,0,0-1.0957-1.1152,2.4,2.4,0,0,0-1.2559.3584l-.1992-.5781a2.9948,2.9948,0,0,1,1.584-.4287c1.4746,0,1.834,1.0068,1.834,1.9736V183.2a6.8174,6.8174,0,0,0,.0791,1.1563Zm-.13-2.461c-.9561-.02-2.042.15-2.042,1.086a.7759.7759,0,0,0,.8272.8369,1.2012,1.2012,0,0,0,1.166-.8066.9342.9342,0,0,0,.0488-.2793Z"/><path d="M54.0367,181.0379c0-.5674-.01-1.0556-.04-1.5039h.7676l.0292.9463h.04a1.4468,1.4468,0,0,1,1.3349-1.0566.9624.9624,0,0,1,.2491.03v.8272a1.3374,1.3374,0,0,0-.2989-.03,1.2313,1.2313,0,0,0-1.1757,1.126,2.5239,2.5239,0,0,0-.0391.4092v2.57h-.8672Z"/><path d="M57.2945,181.0379c0-.5674-.01-1.0556-.04-1.5039h.7676l.0293.9463h.04a1.4469,1.4469,0,0,1,1.335-1.0566.9621.9621,0,0,1,.249.03v.8272a1.3371,1.3371,0,0,0-.2988-.03,1.2313,1.2313,0,0,0-1.1758,1.126,2.5239,2.5239,0,0,0-.0391.4092v2.57h-.8672Z"/><path d="M63.0826,184.3563l-.0693-.6074h-.03a1.7971,1.7971,0,0,1-1.4746.7168,1.3738,1.3738,0,0,1-1.4746-1.3848c0-1.166,1.0361-1.8037,2.8994-1.794v-.1a.9935.9935,0,0,0-1.0957-1.1152,2.4,2.4,0,0,0-1.2559.3584l-.1992-.5781a2.9954,2.9954,0,0,1,1.584-.4287c1.4756,0,1.834,1.0068,1.834,1.9736V183.2a6.7091,6.7091,0,0,0,.08,1.1563Zm-.1289-2.461c-.957-.02-2.043.15-2.043,1.086a.7759.7759,0,0,0,.8272.8369,1.2,1.2,0,0,0,1.166-.8066.9359.9359,0,0,0,.05-.2793Z"/><path d="M65.2144,180.8387c0-.498-.01-.9063-.04-1.3047h.7774l.05.7969h.02a1.7755,1.7755,0,0,1,1.5947-.9072c.668,0,1.7041.3994,1.7041,2.0527v2.88H68.443v-2.78c0-.7773-.2891-1.4248-1.1162-1.4248a1.286,1.286,0,0,0-1.2354,1.3057v2.8994h-.877Z"/><path d="M74.899,179.534c-.02.3486-.04.7373-.04,1.3252v2.8a2.7769,2.7769,0,0,1-.6875,2.2022,2.5579,2.5579,0,0,1-1.7539.5771,3.107,3.107,0,0,1-1.6045-.3984l.22-.667a2.7175,2.7175,0,0,0,1.415.3779c.8965,0,1.5538-.4678,1.5538-1.6836v-.5381h-.02a1.7224,1.7224,0,0,1-1.5342.8076,2.1556,2.1556,0,0,1-2.0527-2.3515,2.3152,2.3152,0,0,1,2.1719-2.5615,1.6033,1.6033,0,0,1,1.5049.8379h.0195l.04-.7276Zm-.9072,1.9024a1.2462,1.2462,0,0,0-.05-.3985,1.2634,1.2634,0,0,0-1.2256-.9267c-.8369,0-1.4346.708-1.4346,1.8242,0,.9463.4785,1.7334,1.4248,1.7334a1.2825,1.2825,0,0,0,1.2159-.8965,1.5281,1.5281,0,0,0,.0693-.4688Z"/><path d="M77.2887,178.1785a.543.543,0,0,1-1.086,0,.5347.5347,0,0,1,.5489-.5478A.52.52,0,0,1,77.2887,178.1785Zm-.9756,6.1778V179.534h.876v4.8223Z"/><path d="M78.6441,180.8387c0-.498-.01-.9063-.04-1.3047h.7773l.05.7969h.02a1.7744,1.7744,0,0,1,1.5947-.9072c.667,0,1.7031.3994,1.7031,2.0527v2.88h-.8759v-2.78c0-.7773-.2891-1.4248-1.1163-1.4248a1.286,1.286,0,0,0-1.2353,1.3057v2.8994h-.877Z"/><path d="M88.3277,179.534c-.0195.3486-.039.7373-.039,1.3252v2.8a2.7772,2.7772,0,0,1-.6875,2.2022,2.5579,2.5579,0,0,1-1.7539.5771,3.1068,3.1068,0,0,1-1.6045-.3984l.22-.667a2.7165,2.7165,0,0,0,1.4141.3779c.8974,0,1.5546-.4678,1.5546-1.6836v-.5381h-.02a1.7229,1.7229,0,0,1-1.5351.8076,2.1562,2.1562,0,0,1-2.0528-2.3515,2.3153,2.3153,0,0,1,2.1729-2.5615,1.6016,1.6016,0,0,1,1.5039.8379h.02l.04-.7276Zm-.9062,1.9024a1.2462,1.2462,0,0,0-.05-.3985,1.2634,1.2634,0,0,0-1.2256-.9267c-.8369,0-1.4356.708-1.4356,1.8242,0,.9463.4786,1.7334,1.4258,1.7334a1.2823,1.2823,0,0,0,1.2149-.8965,1.53,1.53,0,0,0,.07-.4688Z"/><path d="M92.1734,184.3563V180.201h-.6777v-.667h.6777v-.23a2.2738,2.2738,0,0,1,.5576-1.6836,1.6754,1.6754,0,0,1,1.1758-.4482,2.04,2.04,0,0,1,.7471.1387l-.1191.6777a1.3174,1.3174,0,0,0-.5586-.1094c-.7471,0-.9366.6572-.9366,1.3945v.26h1.1661v.667H93.04v4.1553Z"/><path d="M99.357,181.9051a2.3574,2.3574,0,0,1-2.4013,2.5606,2.2921,2.2921,0,0,1-2.3116-2.4805,2.355,2.355,0,0,1,2.3907-2.5615A2.2847,2.2847,0,0,1,99.357,181.9051Zm-3.8261.05c0,1.0567.6074,1.8535,1.4638,1.8535.8369,0,1.4649-.7871,1.4649-1.873,0-.8174-.4082-1.8535-1.4444-1.8535S95.5309,181.0379,95.5309,181.9549Z"/><path d="M100.4615,181.0379c0-.5674-.01-1.0556-.04-1.5039h.7676l.03.9463h.04a1.4467,1.4467,0,0,1,1.3349-1.0566.9685.9685,0,0,1,.2491.03v.8272a1.3438,1.3438,0,0,0-.2989-.03,1.23,1.23,0,0,0-1.1758,1.126,2.4217,2.4217,0,0,0-.04.4092v2.57h-.8672Z"/><path d="M112.38,182.1938c0,.06-.06.4185-.06.6377,0,.6477.1494.8669.4484.8669.3188,0,.4683-.2093.6476-.3986l.1594.1694a1.4935,1.4935,0,0,1-1.2554.9665c-.4882,0-.6576-.3288-.6576-.7971,0-.1893.03-.3886.08-.9167h-.06c-.5978,1.4647-1.2057,1.7636-1.6939,1.7636-.538,0-.7074-.538-.7871-.817h-.05c-.1594.8071-.1395,1.4647-.3188,2.202a.7686.7686,0,0,1-.837.6477l-.1395-.03a29.1547,29.1547,0,0,1,1.0163-3.6169c.2093-1.0662.4883-2.6206.6377-3.1985l.8968-.02.05.09-.9067,2.4511a1.8959,1.8959,0,0,0-.06.4683c0,.4982.1794.9964.6776.9964.9067,0,1.7636-1.8533,1.8234-2.1024.12-.538.279-1.3352.4384-1.8832l.8768-.02.05.09Z"/><path d="M119.4019,184.3563l-.0693-.6074h-.03a1.7969,1.7969,0,0,1-1.4746.7168,1.3738,1.3738,0,0,1-1.4746-1.3848c0-1.166,1.0371-1.8037,2.9-1.794v-.1a.9942.9942,0,0,0-1.0967-1.1152,2.3942,2.3942,0,0,0-1.2549.3584l-.1992-.5781a2.9927,2.9927,0,0,1,1.584-.4287c1.4746,0,1.833,1.0068,1.833,1.9736V183.2a6.8106,6.8106,0,0,0,.08,1.1563Zm-.1289-2.461c-.957-.02-2.0429.15-2.0429,1.086a.7758.7758,0,0,0,.8271.8369,1.2,1.2,0,0,0,1.166-.8066.9054.9054,0,0,0,.05-.2793Z"/><path d="M121.5338,180.8387c0-.498-.01-.9063-.04-1.3047h.7774l.05.7969h.02a1.7741,1.7741,0,0,1,1.5938-.9072c.6679,0,1.7041.3994,1.7041,2.0527v2.88h-.877v-2.78c0-.7773-.2891-1.4248-1.1162-1.4248a1.248,1.248,0,0,0-1.1758.8975,1.2783,1.2783,0,0,0-.06.4082v2.8994h-.8769Z"/><path d="M131.2281,177.2821v5.8291c0,.4277.01.916.04,1.2451h-.7872l-.04-.8369h-.0195a1.7852,1.7852,0,0,1-1.6446.9463,2.1984,2.1984,0,0,1-2.0625-2.4512,2.3076,2.3076,0,0,1,2.1622-2.5908,1.6154,1.6154,0,0,1,1.455.7373h.02v-2.8789Zm-.8769,4.2148a1.5255,1.5255,0,0,0-.04-.3691,1.289,1.289,0,0,0-1.2646-1.0166c-.9072,0-1.4453.7978-1.4453,1.8632,0,.9766.4785,1.7842,1.4248,1.7842a1.3177,1.3177,0,0,0,1.2851-1.0469,1.4945,1.4945,0,0,0,.04-.3779Z"/><path d="M134.9039,183.46a2.3,2.3,0,0,0,1.1563.3486c.6367,0,.9355-.3193.9355-.7177,0-.418-.248-.6475-.8965-.8868-.8672-.3086-1.2754-.7871-1.2754-1.3652a1.4876,1.4876,0,0,1,1.6641-1.415,2.3956,2.3956,0,0,1,1.1855.3l-.2187.6377a1.8713,1.8713,0,0,0-.9863-.2793c-.5186,0-.8077.2988-.8077.6572,0,.3984.2891.5781.917.8174.8369.3183,1.2657.7373,1.2657,1.4551,0,.8466-.6582,1.4443-1.8038,1.4443a2.7449,2.7449,0,0,1-1.3544-.3291Z"/><path d="M143.0035,183.0408c0,.4981.01.9366.04,1.3155h-.7773l-.05-.7871h-.0195a1.8145,1.8145,0,0,1-1.5938.8965c-.7578,0-1.664-.418-1.664-2.1124V179.534h.8759v2.67c0,.917.2793,1.5342,1.0762,1.5342a1.2313,1.2313,0,0,0,1.2354-1.2451v-2.959h.8769Z"/><path d="M144.4176,184.3563c.02-.3291.04-.8174.04-1.2451v-5.8291h.8672v3.0293h.02a1.7955,1.7955,0,0,1,1.6436-.8877c1.1953,0,2.042.997,2.0322,2.4619a2.2911,2.2911,0,0,1-2.1621,2.58,1.7162,1.7162,0,0,1-1.6133-.9063h-.03l-.04.7969Zm.9072-1.9326a1.6721,1.6721,0,0,0,.04.3183,1.3532,1.3532,0,0,0,1.3145,1.0264c.917,0,1.4648-.7471,1.4648-1.8535,0-.9658-.498-1.793-1.4345-1.793a1.3978,1.3978,0,0,0-1.335,1.0762,1.7518,1.7518,0,0,0-.05.3584Z"/><path d="M150.0074,183.46a2.3,2.3,0,0,0,1.1553.3486c.6377,0,.9365-.3193.9365-.7177,0-.418-.249-.6475-.8965-.8868-.8672-.3086-1.2754-.7871-1.2754-1.3652a1.487,1.487,0,0,1,1.6641-1.415,2.3986,2.3986,0,0,1,1.1855.3l-.2187.6377a1.8754,1.8754,0,0,0-.9873-.2793c-.5176,0-.8066.2988-.8066.6572,0,.3984.289.5781.9169.8174.836.3183,1.2647.7373,1.2647,1.4551,0,.8466-.6572,1.4443-1.8037,1.4443a2.7509,2.7509,0,0,1-1.3545-.3291Z"/><path d="M155.1275,178.1483v1.3857h1.2559v.667h-1.2559v2.6006c0,.5986.17.9365.6582.9365a1.9274,1.9274,0,0,0,.5078-.06l.04.6582a2.1582,2.1582,0,0,1-.7774.1192,1.2169,1.2169,0,0,1-.9462-.3682,1.788,1.788,0,0,1-.3389-1.2558V180.201h-.7471v-.667h.7471v-1.1562Z"/><path d="M158.3453,178.1785a.543.543,0,0,1-1.0859,0,.5344.5344,0,0,1,.5478-.5478A.52.52,0,0,1,158.3453,178.1785Zm-.9766,6.1778V179.534h.877v4.8223Z"/><path d="M160.7564,178.1483v1.3857h1.2559v.667h-1.2559v2.6006c0,.5986.169.9365.6573.9365a1.9368,1.9368,0,0,0,.5088-.06l.04.6582a2.158,2.158,0,0,1-.7773.1192,1.2207,1.2207,0,0,1-.9473-.3682,1.7931,1.7931,0,0,1-.3379-1.2558V180.201h-.7481v-.667H159.9v-1.1562Z"/><path d="M167.0328,183.0408c0,.4981.0107.9366.041,1.3155h-.7773l-.0508-.7871h-.0195a1.8132,1.8132,0,0,1-1.5938.8965c-.7578,0-1.664-.418-1.664-2.1124V179.534h.8769v2.67c0,.917.2783,1.5342,1.0762,1.5342a1.2662,1.2662,0,0,0,1.1553-.7969,1.28,1.28,0,0,0,.08-.4482v-2.959h.876Z"/><path d="M169.5435,178.1483v1.3857h1.2549v.667h-1.2549v2.6006c0,.5986.169.9365.6573.9365a1.928,1.928,0,0,0,.5078-.06l.041.6582a2.1616,2.1616,0,0,1-.7773.1192,1.218,1.218,0,0,1-.9473-.3682,1.7886,1.7886,0,0,1-.3379-1.2558V180.201h-.748v-.667h.748v-1.1562Z"/><path d="M172.7613,178.1785a.543.543,0,0,1-1.0859,0,.5338.5338,0,0,1,.5478-.5478A.52.52,0,0,1,172.7613,178.1785Zm-.9765,6.1778V179.534h.8769v4.8223Z"/><path d="M174.1158,180.8387c0-.498-.01-.9063-.04-1.3047h.7773l.0508.7969h.0195a1.7741,1.7741,0,0,1,1.5938-.9072c.668,0,1.7041.3994,1.7041,2.0527v2.88h-.877v-2.78c0-.7773-.289-1.4248-1.1162-1.4248a1.2471,1.2471,0,0,0-1.1758.8975,1.2813,1.2813,0,0,0-.06.4082v2.8994h-.877Z"/><path d="M183.8,179.534c-.0195.3486-.04.7373-.04,1.3252v2.8a2.7769,2.7769,0,0,1-.6875,2.2022,2.5546,2.5546,0,0,1-1.7539.5771,3.11,3.11,0,0,1-1.6045-.3984l.22-.667a2.7229,2.7229,0,0,0,1.415.3779c.8965,0,1.5547-.4678,1.5547-1.6836v-.5381h-.02a1.7213,1.7213,0,0,1-1.5342.8076,2.1562,2.1562,0,0,1-2.0527-2.3515,2.3152,2.3152,0,0,1,2.1719-2.5615,1.603,1.603,0,0,1,1.5048.8379h.02l.04-.7276Zm-.9072,1.9024a1.2462,1.2462,0,0,0-.05-.3985,1.2634,1.2634,0,0,0-1.2256-.9267c-.8369,0-1.4346.708-1.4346,1.8242,0,.9463.4785,1.7334,1.4248,1.7334a1.2823,1.2823,0,0,0,1.2158-.8965,1.5283,1.5283,0,0,0,.0694-.4688Z"/><path class="cls-6" d="M187.2672,183.46a2.3063,2.3063,0,0,0,1.1562.3486c.6377,0,.9366-.3193.9366-.7177,0-.418-.2491-.6475-.8965-.8868-.8672-.3086-1.2754-.7871-1.2754-1.3652a1.4875,1.4875,0,0,1,1.664-1.415,2.3963,2.3963,0,0,1,1.1856.3l-.22.6377a1.8684,1.8684,0,0,0-.9864-.2793c-.5175,0-.8066.2988-.8066.6572,0,.3984.2891.5781.916.8174.8379.3183,1.2656.7373,1.2656,1.4551,0,.8466-.6572,1.4443-1.8027,1.4443a2.7524,2.7524,0,0,1-1.3555-.3291Z"/><path class="cls-6" d="M192.3082,178.1785a.543.543,0,0,1-1.0859,0,.5346.5346,0,0,1,.5488-.5478A.52.52,0,0,1,192.3082,178.1785Zm-.9766,6.1778V179.534h.877v4.8223Z"/><path class="cls-6" d="M193.6637,180.8387c0-.498-.01-.9063-.04-1.3047h.7774l.05.7969h.02a1.7745,1.7745,0,0,1,1.5947-.9072c.667,0,1.7041.3994,1.7041,2.0527v2.88h-.8769v-2.78c0-.7773-.2891-1.4248-1.1162-1.4248a1.286,1.286,0,0,0-1.2354,1.3057v2.8994h-.8769Z"/><path class="cls-6" d="M202.7262,184.4955c-.8868,0-1.5445-.6676-1.5445-2.212,0-2.73,1.395-5.0717,3.0191-5.0717.9466,0,1.385.9765,1.385,2.4213C205.5858,182.6621,204.2805,184.4955,202.7262,184.4955Zm2.2817-3.5073H201.77a8.4568,8.4568,0,0,0-.05.8768c0,1.4049.6775,1.7636,1.2056,1.7636C203.882,183.6286,204.7389,182.8714,205.0079,180.9882Zm-3.1387-.5281h3.2085c.01-.1893.02-.4085.02-.5879,0-.9366-.3189-1.7935-1.0961-1.7935C203.1546,178.0787,202.218,178.9655,201.8692,180.46Zm7.761.6377V180.42h5.9386v.6776Zm0,2.0326v-.6676h5.9386v.6676Z"/><path class="cls-6" d="M220.6158,177.8241a2.0563,2.0563,0,0,0,1.0039.2861c.7881,0,1.0322-.5029,1.0254-.8789-.0068-.6348-.5791-.9063-1.1719-.9063h-.3408v-.4609h.3408c.4463,0,1.0118-.23,1.0118-.7666,0-.3633-.2305-.6836-.795-.6836a1.6672,1.6672,0,0,0-.9072.3l-.16-.4463a2.1593,2.1593,0,0,1,1.1855-.3486c.8926,0,1.2969.53,1.2969,1.081a1.1257,1.1257,0,0,1-.8369,1.0664v.0147a1.1806,1.1806,0,0,1,1.0117,1.164c0,.7256-.5655,1.36-1.6533,1.36a2.2992,2.2992,0,0,1-1.1778-.3076Z"/><line class="cls-10" x1="220.156" y1="181.786" x2="223.81" y2="181.786"/><path class="cls-6" d="M223.2525,186.1668h-1.73l-.1748,1.1641a2.4671,2.4671,0,0,1,.37-.0274,1.9114,1.9114,0,0,1,.9765.2442,1.2919,1.2919,0,0,1,.6485,1.164,1.5735,1.5735,0,0,1-1.6875,1.5489,2.214,2.214,0,0,1-1.13-.2793l.1533-.4678a2.0162,2.0162,0,0,0,.9687.252,1.0006,1.0006,0,0,0,1.0743-.9834c-.0069-.586-.3975-1.0049-1.3038-1.0049a4.765,4.765,0,0,0-.6279.0488l.293-2.1748h2.1689Z"/><path d="M225.1656,185.5819a14.3578,14.3578,0,0,0,.5977-2.3819l.9765-.1a12.147,12.147,0,0,1-.9472,2.4219Z"/><path d="M127.8745,213.8748c0,.06-.06.4185-.06.6377,0,.6477.1494.8669.4484.8669.3188,0,.4683-.2093.6476-.3986l.16.1694a1.4938,1.4938,0,0,1-1.2555.9665c-.4882,0-.6576-.3288-.6576-.7971,0-.1893.03-.3886.08-.9167h-.06c-.5978,1.4647-1.2056,1.7636-1.6939,1.7636-.538,0-.7074-.538-.7871-.817h-.05c-.1594.8071-.1395,1.4647-.3188,2.202a.7686.7686,0,0,1-.837.6477l-.1395-.03a29.1547,29.1547,0,0,1,1.0163-3.6169c.2093-1.0662.4883-2.6206.6377-3.1985l.8968-.02.05.09-.9067,2.4511a1.8959,1.8959,0,0,0-.06.4683c0,.4982.1794.9964.6776.9964.9067,0,1.7636-1.8533,1.8234-2.1024.12-.538.279-1.3352.4384-1.8832l.8768-.02.05.09Zm4.6619-1.096v-.6776h5.9385v.6776Zm0,2.0326v-.6676h5.9385v.6676Z"/><path d="M145.4137,204.0028h-.02l-1.126.6074-.17-.668,1.416-.7568h.747v6.4765h-.8466Z"/><path d="M152.9254,206.3543c0,2.2012-.8174,3.417-2.252,3.417-1.2656,0-2.123-1.1855-2.1425-3.3281,0-2.1719.9365-3.3672,2.2519-3.3672C152.148,203.076,152.9254,204.2918,152.9254,206.3543Zm-3.5176.1c0,1.6836.5176,2.64,1.3154,2.64.8965,0,1.3252-1.0459,1.3252-2.7,0-1.5938-.4082-2.64-1.3154-2.64C149.9654,203.7537,149.4078,204.69,149.4078,206.4539Z"/><path d="M158.0357,206.3543c0,2.2012-.8173,3.417-2.2519,3.417-1.2647,0-2.1221-1.1855-2.1416-3.3281,0-2.1719.9365-3.3672,2.2519-3.3672C157.2584,203.076,158.0357,204.2918,158.0357,206.3543Zm-3.5166.1c0,1.6836.5176,2.64,1.3145,2.64.8965,0,1.3252-1.0459,1.3252-2.7,0-1.5938-.4082-2.64-1.3154-2.64C155.0768,203.7537,154.5191,204.69,154.5191,206.4539Z"/><line class="cls-7" x1="143.062" y1="213.467" x2="157.857" y2="213.467"/><path d="M147.88,216.7528h-.02l-1.126.6074-.1689-.668,1.415-.7568h.7471v6.4765H147.88Z"/><path d="M151.5953,221.7938a3.65,3.65,0,0,0,.707-.0293,2.4512,2.4512,0,0,0,1.3555-.6279,2.8512,2.8512,0,0,0,.8565-1.7237h-.03a1.9,1.9,0,0,1-1.5244.6973,1.8764,1.8764,0,0,1-1.9131-1.9824,2.2207,2.2207,0,0,1,2.2129-2.3018c1.3242,0,2.1416,1.0762,2.1416,2.73a4.0914,4.0914,0,0,1-1.1162,3.0391,3.24,3.24,0,0,1-1.8829.8671,4.0929,4.0929,0,0,1-.8066.05Zm.3184-3.7266a1.2458,1.2458,0,0,0,1.2461,1.375,1.4492,1.4492,0,0,0,1.2754-.6767.59.59,0,0,0,.0791-.3194c0-1.1054-.4083-1.9531-1.3252-1.9531C152.442,216.493,151.9137,217.1512,151.9137,218.0672Z"/><path d="M162.1031,210.7957l2.1319,2.1826,2.1318-2.1826.4394.4385-2.1425,2.1826,2.1425,2.1817-.4394.4384-2.1318-2.1816-2.1319,2.1816-.4394-.4384,2.1328-2.1817-2.1328-2.1826Z"/><path class="cls-6" d="M171.857,208.6551a2.9263,2.9263,0,0,0,1.4356.4092c1.125,0,1.4746-.7178,1.4648-1.2559-.0107-.9062-.8271-1.2949-1.6738-1.2949h-.4883v-.6582h.4883c.6367,0,1.4443-.3281,1.4443-1.0957,0-.5176-.3291-.9766-1.1357-.9766a2.3811,2.3811,0,0,0-1.2959.4287l-.23-.6376a3.0839,3.0839,0,0,1,1.6943-.4981c1.2754,0,1.8535.7568,1.8535,1.5439a1.6078,1.6078,0,0,1-1.1962,1.5245v.02a1.6864,1.6864,0,0,1,1.4453,1.664c0,1.0362-.8067,1.9424-2.3614,1.9424a3.2815,3.2815,0,0,1-1.6836-.4385Z"/><line class="cls-10" x1="171.2" y1="213.467" x2="176.132" y2="213.467"/><path class="cls-6" d="M175.5143,216.6727h-2.4717l-.2481,1.664a3.504,3.504,0,0,1,.5274-.04,2.7413,2.7413,0,0,1,1.3955.3486,1.8468,1.8468,0,0,1,.9267,1.6641,2.2472,2.2472,0,0,1-2.4121,2.2119,3.1682,3.1682,0,0,1-1.6133-.3984l.2188-.668a2.8913,2.8913,0,0,0,1.3848.3594,1.43,1.43,0,0,0,1.5351-1.4053c-.0107-.8369-.5683-1.4346-1.8633-1.4346a6.8141,6.8141,0,0,0-.8974.0694l.4189-3.1084h3.0987Z"/><path d="M180.3775,210.7957l2.1319,2.1826,2.1328-2.1826.4385.4385-2.1426,2.1826,2.1426,2.1817-.4385.4384-2.1328-2.1816-2.1319,2.1816-.4384-.4384,2.1328-2.1817-2.1328-2.1826Z"/><path d="M194.2935,204.0028h-.02l-1.1259.6074-.169-.668,1.4151-.7568h.747v6.4765h-.8467Z"/><path d="M198.0094,209.0438a3.65,3.65,0,0,0,.707-.0293,2.4518,2.4518,0,0,0,1.3555-.6279,2.8506,2.8506,0,0,0,.8564-1.7237h-.03a1.9,1.9,0,0,1-1.5244.6973,1.8765,1.8765,0,0,1-1.9131-1.9824,2.2208,2.2208,0,0,1,2.2129-2.3018c1.3243,0,2.1416,1.0762,2.1416,2.73a4.0914,4.0914,0,0,1-1.1162,3.0391,3.2389,3.2389,0,0,1-1.8828.8671,4.0929,4.0929,0,0,1-.8066.05Zm.3183-3.7266a1.2459,1.2459,0,0,0,1.2461,1.375,1.4492,1.4492,0,0,0,1.2754-.6767.59.59,0,0,0,.0791-.3194c0-1.1054-.4082-1.9531-1.3252-1.9531C198.856,203.743,198.3277,204.4012,198.3277,205.3172Z"/><line class="cls-7" x1="189.476" y1="213.467" x2="204.271" y2="213.467"/><path d="M191.8277,216.7528h-.02l-1.126.6074-.17-.668,1.416-.7568h.7471v6.4765h-.8467Z"/><path d="M196.9381,216.7528h-.02l-1.126.6074-.1689-.668,1.415-.7568h.7471v6.4765h-.8467Z"/><path d="M204.45,219.1043c0,2.2012-.8174,3.417-2.252,3.417-1.2646,0-2.122-1.1855-2.1416-3.3281,0-2.1719.9366-3.3672,2.252-3.3672C203.6725,215.826,204.45,217.0418,204.45,219.1043Zm-3.5166.1c0,1.6836.5176,2.64,1.3145,2.64.8964,0,1.3251-1.0459,1.3251-2.7,0-1.5938-.4082-2.64-1.3154-2.64C201.4908,216.5037,200.9332,217.44,200.9332,219.2039Z"/><path d="M127.8745,240.1648c0,.06-.06.4185-.06.6377,0,.6477.1494.8669.4484.8669.3188,0,.4683-.2093.6476-.3986l.16.1694a1.4938,1.4938,0,0,1-1.2555.9665c-.4882,0-.6576-.3288-.6576-.7971,0-.1893.03-.3886.08-.9167h-.06c-.5978,1.4647-1.2056,1.7636-1.6939,1.7636-.538,0-.7074-.538-.7871-.817h-.05c-.1594.8071-.1395,1.4647-.3188,2.202a.7686.7686,0,0,1-.837.6477l-.1395-.03a29.1547,29.1547,0,0,1,1.0163-3.6169c.2093-1.0662.4883-2.6206.6377-3.1985l.8968-.02.05.09-.9067,2.4511a1.8959,1.8959,0,0,0-.06.4683c0,.4982.1794.9964.6776.9964.9067,0,1.7636-1.8533,1.8234-2.1024.12-.538.279-1.3352.4384-1.8832l.8768-.02.05.09Zm4.6619-1.096v-.6776h5.9385v.6776Zm0,2.0326v-.6676h5.9385v.6676Z"/><path d="M149.6725,230.0936a3.16,3.16,0,0,0-.6573.039,2.6334,2.6334,0,0,0-2.2519,2.3018h.0293A1.9745,1.9745,0,0,1,150.31,233.78a2.1652,2.1652,0,0,1-2.1524,2.2813c-1.3848,0-2.291-1.0762-2.291-2.76a4.0731,4.0731,0,0,1,1.0957-2.92,3.5305,3.5305,0,0,1,2.0723-.9561,4.1985,4.1985,0,0,1,.6377-.05Zm-.2491,3.7363a1.3161,1.3161,0,0,0-1.3349-1.4853,1.4435,1.4435,0,0,0-1.2559.7978.7463.7463,0,0,0-.1.3887c.02,1.0654.5088,1.8525,1.4248,1.8525C148.9156,235.3836,149.4234,234.7567,149.4234,233.83Z"/><line class="cls-7" x1="143.062" y1="239.757" x2="152.925" y2="239.757"/><path d="M145.4137,243.0428h-.02l-1.126.6074-.17-.6679,1.416-.7569h.747v6.4766h-.8466Z"/><path d="M150.524,243.0428h-.02l-1.126.6074-.1689-.6679,1.415-.7569h.7471v6.4766h-.8467Z"/><g class="cls-11"><rect class="cls-12" x="314.285" y="205.3606" width="124.726" height="9.3545"/><line class="cls-13" x1="314.285" y1="205.3606" x2="439.011" y2="205.3606"/><line class="cls-14" x1="329.8758" y1="205.3606" x2="414.3214" y2="93.2974"/><path class="cls-15" d="M325.6584,203.0957v-.0987h.0987c.3454,0,.4441-.13.4441-.3763a1.0093,1.0093,0,0,0-.0123-.13l-.08-.697h-1.2213l-.5182.8635a.2635.2635,0,0,0-.0617.16c.0062.111.1049.1789.2653.1789h.1788v.0987H323.407v-.0987a.83.83,0,0,0,.6661-.4565l2.196-3.5591h.111l.4811,3.5838c.0432.3023.1974.4318.4565.4318h.0987v.0987Zm.2529-2.93h-.037l-.8574,1.4h1.0486Z"/><path class="cls-15" d="M414.8276,87.0064c.5181,0,1.4557.0555,1.4557.8944a.9617.9617,0,0,1-.5613.9067,2.14,2.14,0,0,1-.4565.16l.0185.0247a.8744.8744,0,0,1,.7834.8512c0,.6107-.5058,1.1905-1.7826,1.1905h-1.9986l.0247-.0987h.1233c.4688,0,.586-.1789.6354-.3886l.7587-3.0533a.8375.8375,0,0,0,.0123-.13c0-.16-.1172-.259-.4811-.259h-.1172l.0308-.0987Zm-1.11,3.738a1.4965,1.4965,0,0,0,.4379.0555,1.03,1.03,0,0,0,1.172-1.061c0-.45-.3948-.6661-.8759-.6661a1.3318,1.3318,0,0,0-.3146.0246Zm.4749-1.9245a1.7146,1.7146,0,0,0,.327.037.9331.9331,0,0,0,1.0362-1.0055c0-.475-.4009-.6045-.734-.6045a1.7953,1.7953,0,0,0-.2652.0185Z"/><line class="cls-16" x1="329.8758" y1="205.3606" x2="329.8758" y2="175.2273"/><polygon class="cls-17" points="329.876 172.309 328.345 176.352 329.876 175.008 331.406 176.352 329.876 172.309"/><polygon class="cls-16" points="329.876 172.309 328.345 176.352 329.876 175.008 331.406 176.352 329.876 172.309"/><path d="M323.9684,157.2811h-.0127l-.6963.3769-.1055-.4131.876-.4687h.4619v4.0068h-.5234Z"/><path d="M327.1305,157.2811h-.0127l-.6963.3769-.1055-.4131.876-.4687h.4619v4.0068h-.5234Z"/><path d="M331.7779,158.7362c0,1.3623-.5049,2.1142-1.3926,2.1142-.7832,0-1.3134-.7334-1.3251-2.0586,0-1.3437.5791-2.084,1.3925-2.084C331.2975,156.7078,331.7779,157.4608,331.7779,158.7362Zm-2.1758.0615c0,1.042.32,1.6338.8135,1.6338.5547,0,.82-.6475.82-1.67,0-.9864-.2529-1.6338-.8144-1.6338C329.9469,157.1278,329.6021,157.7069,329.6021,158.7977Z"/><line class="cls-18" x1="322.5135" y1="162.8175" x2="331.7601" y2="162.8175"/><path d="M325.5094,165.1717h-.0127l-.6963.377-.1055-.4131.876-.4688h.4619v4.0069h-.5234Z"/><path d="M327.8082,168.2918a2.312,2.312,0,0,0,.4375-.0185,1.5133,1.5133,0,0,0,.8389-.3887,1.7616,1.7616,0,0,0,.53-1.0664h-.0195a1.1723,1.1723,0,0,1-.9424.4316,1.1606,1.1606,0,0,1-1.1836-1.2265,1.3736,1.3736,0,0,1,1.3682-1.4248c.82,0,1.3262.666,1.3262,1.6894a2.53,2.53,0,0,1-.6914,1.88,2.0012,2.0012,0,0,1-1.1651.5371,2.589,2.589,0,0,1-.499.03Zm.1973-2.3056a.7707.7707,0,0,0,.7705.8505.8961.8961,0,0,0,.789-.4189.3645.3645,0,0,0,.05-.1973c0-.6845-.2529-1.2089-.82-1.2089C328.3316,165.0116,328.0055,165.4188,328.0055,165.9862Z"/><path d="M333.9127,164.3582V160.203h.5859l1.3311,2.1025a11.7815,11.7815,0,0,1,.7461,1.35l.0127-.0059c-.05-.5546-.0616-1.0605-.0616-1.708V160.203h.5059v4.1552h-.543l-1.3193-2.1084a12.9654,12.9654,0,0,1-.7764-1.3867l-.0185.0059c.03.5244.0429,1.0234.0429,1.7138v1.7754Z"/><line class="cls-16" x1="329.8758" y1="205.3606" x2="360.009" y2="205.3606"/><polygon class="cls-17" points="362.927 205.361 358.884 203.83 360.228 205.361 358.884 206.891 362.927 205.361"/><polygon class="cls-16" points="362.927 205.361 358.884 203.83 360.228 205.361 358.884 206.891 362.927 205.361"/><path d="M370.6528,200.0547h-.0987c.0061-.0494.0061-.1357.0061-.2221-.0185-.4811-.3886-.5366-.6785-.5366h-.9067l-.3825,1.53h.512c.3824,0,.6662-.0616.7957-.586h.0987l-.37,1.4928H369.53a2.3225,2.3225,0,0,0,.0309-.3763c0-.29-.253-.3084-.4318-.3084h-.5983l-.3825,1.5668a.8.8,0,0,0-.0247.13c0,.1542.1172.2529.4873.2529h.1974l-.0246.0987h-2.11l.0246-.0987h.1111c.4688,0,.5983-.1727.6538-.3824l.7649-3.0657a.6772.6772,0,0,0,.0247-.1481c0-.13-.0987-.24-.4688-.24h-.1172l.0247-.0925H370.9Z"/><line class="cls-16" x1="376.79" y1="143.1032" x2="376.79" y2="173.2365"/><polygon class="cls-17" points="376.79 176.154 378.32 172.112 376.79 173.456 375.26 172.112 376.79 176.154"/><polygon class="cls-16" points="376.79 176.154 378.32 172.112 376.79 173.456 375.26 172.112 376.79 176.154"/><path d="M372.4225,180.4373H372.41l-.6963.377-.1045-.4131.875-.4688h.4629v4.0069h-.5244Z"/><path d="M377.07,181.8924c0,1.3623-.5049,2.1143-1.3926,2.1143-.7832,0-1.3125-.7334-1.3252-2.0586,0-1.3438.5791-2.084,1.3936-2.084C376.5894,179.8641,377.07,180.617,377.07,181.8924Zm-2.1758.0615c0,1.042.32,1.6338.8145,1.6338.5547,0,.8193-.6474.8193-1.67,0-.9863-.2529-1.6338-.8135-1.6338C375.24,180.284,374.8941,180.8631,374.8941,181.9539Z"/><path d="M378.6275,183.9393V179.784h.586l1.331,2.1026a11.7662,11.7662,0,0,1,.7461,1.35l.0127-.0059c-.05-.5547-.0615-1.06-.0615-1.707V179.784h.5059v4.1553h-.543l-1.3194-2.1084a12.9641,12.9641,0,0,1-.7763-1.3867l-.0186.0058c.03.5244.043,1.0235.043,1.7139v1.7754Z"/><line class="cls-16" x1="386.1729" y1="130.6518" x2="360.9161" y2="114.2496"/><polygon class="cls-17" points="358.458 112.654 361.027 116.154 360.732 114.13 362.701 113.576 358.458 112.654"/><polygon class="cls-19" points="358.459 112.654 361.027 116.154 360.732 114.13 362.701 113.576 358.459 112.654"/><path d="M341.2144,106.5994h-.0126l-.6963.377-.1055-.4131.876-.4687h.4619v4.0068h-.5235Z"/><path d="M345.8619,108.0545c0,1.3623-.5049,2.1143-1.3935,2.1143-.7823,0-1.3125-.7334-1.3252-2.0586,0-1.3438.5791-2.084,1.3935-2.084C345.3814,106.0262,345.8619,106.7791,345.8619,108.0545Zm-2.1758.0615c0,1.042.32,1.6338.8135,1.6338.5547,0,.82-.6474.82-1.67,0-.9863-.2529-1.6338-.8144-1.6338C344.0309,106.4461,343.6861,107.0252,343.6861,108.116Z"/><path d="M349.024,108.0545c0,1.3623-.5049,2.1143-1.3926,2.1143-.7832,0-1.3134-.7334-1.3252-2.0586,0-1.3438.5791-2.084,1.3926-2.084C348.5435,106.0262,349.024,106.7791,349.024,108.0545Zm-2.1758.0615c0,1.042.32,1.6338.8135,1.6338.5547,0,.82-.6474.82-1.67,0-.9863-.2529-1.6338-.8144-1.6338C347.193,106.4461,346.8482,107.0252,346.8482,108.116Z"/><line class="cls-18" x1="339.7598" y1="112.135" x2="349.0064" y2="112.135"/><path d="M342.7555,114.49h-.0118l-.6972.3769-.1045-.4131.875-.4687h.4619v4.0068h-.5234Z"/><path d="M345.0543,117.61a2.3177,2.3177,0,0,0,.4385-.0186,1.51,1.51,0,0,0,.8379-.3886,1.7619,1.7619,0,0,0,.53-1.0664h-.0185a1.1747,1.1747,0,0,1-.9434.4316,1.1613,1.1613,0,0,1-1.1836-1.2266,1.3744,1.3744,0,0,1,1.3692-1.4248c.8193,0,1.3252.666,1.3252,1.69a2.53,2.53,0,0,1-.6905,1.88,2.0037,2.0037,0,0,1-1.165.5371,2.5939,2.5939,0,0,1-.5.03Zm.1973-2.3057a.7715.7715,0,0,0,.7714.8506.8986.8986,0,0,0,.7891-.4189.3651.3651,0,0,0,.0488-.1973c0-.6846-.2529-1.209-.82-1.209C345.5787,114.33,345.2516,114.7371,345.2516,115.3045Z"/><path d="M351.16,113.6756V109.52h.5849l1.3321,2.1026a11.9186,11.9186,0,0,1,.7451,1.35l.0127-.0059c-.05-.5547-.0616-1.0605-.0616-1.707V109.52h.5059v4.1553h-.543l-1.3193-2.1084a12.9654,12.9654,0,0,1-.7764-1.3867l-.0185.0059c.03.5244.0429,1.0234.0429,1.7138v1.7754Z"/><circle class="cls-20" cx="388.5114" cy="132.9903" r="3.1181" transform="translate(-5.6272 17.7416) rotate(-2.5972)"/><path class="cls-15" d="M397.7329,132.3284h-.0987a2.3383,2.3383,0,0,0,.0062-.2591.8315.8315,0,0,0-.9376-.8882,2.1763,2.1763,0,0,0-1.9677,2.2946,1.1859,1.1859,0,0,0,1.2028,1.32,1.8034,1.8034,0,0,0,1.3324-.6045.9383.9383,0,0,0,.1048-.1233l.1234.08a2.1979,2.1979,0,0,1-.549.5675,2.0387,2.0387,0,0,1-1.19.3763,1.6468,1.6468,0,0,1-1.7765-1.7148,2.5505,2.5505,0,0,1,2.7326-2.4242c.3331,0,.6539.1666.9746.1666a.2789.2789,0,0,0,.2591-.1666h.111Z"/><line class="cls-21" x1="386.1729" y1="130.6518" x2="386.1729" y2="91.6749"/><line class="cls-21" x1="386.1729" y1="130.6518" x2="386.1729" y2="149.3606"/><path class="cls-13" d="M386.1729,118.1791a12.4757,12.4757,0,0,0-10.46,5.68"/><path d="M377.9128,118.4987c-.586,0-.8451-.3639-.8451-1.1041,0-1.0733.7156-3.0842,1.8876-3.0842.45,0,.7895.3886.7895,1.209C379.7448,116.7284,378.8627,118.4987,377.9128,118.4987Zm-.1727-1.9677a3.7064,3.7064,0,0,0-.1542,1.0178c0,.4256.0925.7711.3578.7711.4132,0,.7834-.8081.9746-1.4188.0431-.1418.08-.3145.0987-.37Zm1.3323-.222a5.4146,5.4146,0,0,0,.1543-1.024c0-.45-.0617-.7957-.3146-.7957-.4441,0-.95,1.0856-1.11,1.82Z"/><path class="cls-13" d="M342.3484,205.3606a12.4739,12.4739,0,0,0-4.9663-9.961"/><path d="M343.8623,200.2205c-.586,0-.8451-.3639-.8451-1.1041,0-1.0733.7156-3.0842,1.8876-3.0842.45,0,.7895.3886.7895,1.209C345.6943,198.45,344.8123,200.2205,343.8623,200.2205Zm-.1727-1.9677a3.7059,3.7059,0,0,0-.1542,1.0178c0,.4256.0925.771.3578.771.4132,0,.7833-.808.9746-1.4187.0431-.1419.08-.3146.0987-.37Zm1.3324-.2221a5.42,5.42,0,0,0,.1542-1.0239c0-.45-.0617-.7957-.3146-.7957-.4441,0-.95,1.0856-1.11,1.82Z"/></g></g></svg>