<svg id="Layer_1" data-name="Layer 1" xmlns="http://www.w3.org/2000/svg" xmlns:xlink="http://www.w3.org/1999/xlink" viewBox="0 0 453.543 255.118"><defs><style>.cls-1,.cls-10,.cls-11,.cls-12,.cls-14,.cls-16,.cls-17,.cls-19,.cls-20,.cls-21,.cls-22,.cls-23,.cls-24,.cls-25,.cls-6,.cls-7,.cls-9{fill:none;}.cls-2{clip-path:url(#clip-path);}.cls-3{fill:#fff;}.cls-4{fill:#056db6;}.cls-5{clip-path:url(#clip-path-2);}.cls-10,.cls-11,.cls-19,.cls-20,.cls-22,.cls-23,.cls-25,.cls-6{stroke:#000;}.cls-10,.cls-11,.cls-12,.cls-14,.cls-16,.cls-17,.cls-19,.cls-20,.cls-21,.cls-22,.cls-23,.cls-24,.cls-25,.cls-6,.cls-7,.cls-9{stroke-miterlimit:10;}.cls-11,.cls-12,.cls-14,.cls-6,.cls-7{stroke-width:0.4782px;}.cls-24,.cls-7,.cls-9{stroke:#f4aa1d;}.cls-8{fill:#f4aa1d;}.cls-10,.cls-9{stroke-width:0.4797px;}.cls-11{stroke-dasharray:1.7933 1.7933;}.cls-12{stroke:#d73f96;}.cls-13{fill:#d73f96;}.cls-14,.cls-16{stroke:#76b543;}.cls-15{fill:#76b543;}.cls-16{stroke-width:0.4783px;}.cls-17{stroke:#056db6;stroke-width:0.996px;}.cls-18{clip-path:url(#clip-path-3);}.cls-19{stroke-width:0.444px;}.cls-20{stroke-width:2.3811px;}.cls-21{stroke:#fff;stroke-width:1.0205px;}.cls-22{stroke-width:0.6803px;}.cls-23{stroke-width:0.4797px;}.cls-24{stroke-width:0.4797px;}.cls-25{stroke-width:0.677px;}</style><clipPath id="clip-path"><rect class="cls-1" width="453.543" height="255.118"/></clipPath><clipPath id="clip-path-2"><rect class="cls-1" x="14.944" y="69.5164" width="97.3404" height="179.2656"/></clipPath><clipPath id="clip-path-3"><rect class="cls-1" x="194.852" y="77.1038" width="218.5008" height="97.4622"/></clipPath></defs><g class="cls-2"><rect class="cls-3" y="14.944" width="453.543" height="255.118"/><path class="cls-4" d="M21.04,24.3592H17.2818v3.4854H21.47v1.0468H16.0337v-9.667h5.2207v1.0469H17.2818V23.326H21.04Z"/><path class="cls-4" d="M23.6372,21.9491l.9893,1.4921c.2578.3868.4736.7461.7031,1.1329h.043c.23-.4161.459-.7745.6885-1.1475l.9756-1.4775H28.399l-2.3663,3.3564L28.47,28.8914H27.0367L26.0181,27.328c-.2725-.4014-.502-.7891-.7461-1.2051h-.0283c-.23.416-.4736.789-.7324,1.2051l-1.0039,1.5634H22.1167l2.4668-3.5429L22.231,21.9491Z"/><path class="cls-4" d="M33.5347,28.8914l-.1-.875h-.043a2.5878,2.5878,0,0,1-2.123,1.0332,1.9781,1.9781,0,0,1-2.1231-1.9941c0-1.6777,1.4922-2.5957,4.1739-2.582V24.33a1.4316,1.4316,0,0,0-1.5782-1.6064,3.4587,3.4587,0,0,0-1.8066.5166l-.2871-.8321a4.311,4.311,0,0,1,2.2812-.6162c2.1221,0,2.6387,1.4483,2.6387,2.84v2.5957a9.69,9.69,0,0,0,.1152,1.664Zm-.1855-3.5429c-1.377-.0284-2.9415.2158-2.9415,1.5634a1.1179,1.1179,0,0,0,1.1915,1.2051,1.7277,1.7277,0,0,0,1.6777-1.1621,1.318,1.318,0,0,0,.0723-.4014Z"/><path class="cls-4" d="M36.606,23.828c0-.7168-.0147-1.3047-.0576-1.8789h1.1045l.0576,1.1191h.0429a2.3918,2.3918,0,0,1,2.18-1.2764,2.053,2.053,0,0,1,1.9659,1.3906h.0283a2.8542,2.8542,0,0,1,.7744-.9033,2.37,2.37,0,0,1,1.5351-.4873c.918,0,2.28.6026,2.28,3.0117v4.0879H45.2837v-3.93c0-1.3339-.4873-2.1376-1.5058-2.1376a1.6354,1.6354,0,0,0-1.4922,1.1474,2.0689,2.0689,0,0,0-.1006.6309v4.289H40.9517V24.7323c0-1.1045-.4873-1.9082-1.4483-1.9082A1.7235,1.7235,0,0,0,37.94,24.0867a1.7481,1.7481,0,0,0-.1006.6163v4.1884H36.606Z"/><path class="cls-4" d="M48.5708,24.2157c0-.89-.0283-1.6065-.0576-2.2666H49.646l.0576,1.19h.0284A2.73,2.73,0,0,1,52.2,21.7918c1.6778,0,2.9405,1.42,2.9405,3.5283,0,2.4952-1.52,3.73-3.1563,3.73a2.4342,2.4342,0,0,1-2.1367-1.0908h-.0283v3.7725H48.5708Zm1.2481,1.8505a2.8759,2.8759,0,0,0,.0566.5157,1.9483,1.9483,0,0,0,1.8936,1.4775c1.334,0,2.1084-1.09,2.1084-2.6816,0-1.3916-.7315-2.5821-2.0655-2.5821a2.0127,2.0127,0,0,0-1.9072,1.5635,2.04,2.04,0,0,0-.0859.5156Z"/><path class="cls-4" d="M56.7339,18.7078h1.2617V28.8914H56.7339Z"/><path class="cls-4" d="M60.8218,25.65a2.2239,2.2239,0,0,0,2.3809,2.4092,4.5527,4.5527,0,0,0,1.9218-.3584l.2149.9033a5.61,5.61,0,0,1-2.3086.4307,3.2247,3.2247,0,0,1-3.4141-3.5c0-2.0938,1.2334-3.7432,3.2559-3.7432,2.2666,0,2.8691,1.9932,2.8691,3.27a4.94,4.94,0,0,1-.0429.5888Zm3.7-.9043a1.7963,1.7963,0,0,0-1.749-2.0508,2.0911,2.0911,0,0,0-1.9365,2.0508Z"/><path class="cls-4" d="M70.5777,27.4432a4.218,4.218,0,0,0,2.0654.5879c1.62,0,2.1221-1.0332,2.1084-1.8076-.0147-1.3047-1.19-1.8643-2.41-1.8643h-.7031v-.9473h.7031c.918,0,2.08-.4726,2.08-1.5771,0-.7461-.4736-1.4063-1.6347-1.4063a3.4236,3.4236,0,0,0-1.8653.6172l-.33-.9179A4.4361,4.4361,0,0,1,73.03,19.411c1.836,0,2.668,1.09,2.668,2.2226a2.3145,2.3145,0,0,1-1.7217,2.1944v.0293a2.4275,2.4275,0,0,1,2.08,2.3945c0,1.4922-1.1621,2.7978-3.3994,2.7978a4.7326,4.7326,0,0,1-2.4239-.6318Z"/><path class="cls-4" d="M84.148,18.9373A9.46,9.46,0,0,0,82.34,24.8035a9.6659,9.6659,0,0,0,1.8076,5.8233h-.99a9.273,9.273,0,0,1-1.8789-5.8233,9.4725,9.4725,0,0,1,1.8789-5.8662Z"/><path class="cls-4" d="M92.2808,28.576a6.1936,6.1936,0,0,1-2.5527.459,4.5185,4.5185,0,0,1-4.7764-4.8916,4.8109,4.8109,0,0,1,5.0488-5.0772,5.1662,5.1662,0,0,1,2.2949.4307l-.3007,1.0186a4.5316,4.5316,0,0,0-1.9512-.4024c-2.2656,0-3.7725,1.4492-3.7725,3.9873,0,2.3672,1.3633,3.8877,3.7149,3.8877a4.99,4.99,0,0,0,2.0371-.4023Z"/><path class="cls-4" d="M100.0855,25.3631A3.393,3.393,0,0,1,96.6284,29.05a3.3,3.3,0,0,1-3.3271-3.5722,3.39,3.39,0,0,1,3.4424-3.6856A3.2869,3.2869,0,0,1,100.0855,25.3631Zm-5.5078.0713c0,1.52.875,2.668,2.1084,2.668,1.205,0,2.1084-1.1328,2.1084-2.6963,0-1.1758-.5879-2.668-2.0791-2.668S94.5777,24.1151,94.5777,25.4344Z"/><path class="cls-4" d="M101.6792,23.828c0-.7168-.0146-1.3047-.0576-1.8789h1.1192l.0712,1.1474h.0293a2.5532,2.5532,0,0,1,2.295-1.3047c.9609,0,2.4521.5733,2.4521,2.9541v4.1455h-1.2617V24.89c0-1.1182-.416-2.0508-1.6065-2.0508a1.8544,1.8544,0,0,0-1.7793,1.8789v4.1738h-1.2617Z"/><path class="cls-4" d="M111.1617,19.9559v1.9932h1.8076V22.91h-1.8076v3.7441c0,.86.2441,1.3477.9472,1.3477a2.802,2.802,0,0,0,.73-.086l.0576.9473a3.1037,3.1037,0,0,1-1.1182.1719,1.75,1.75,0,0,1-1.3632-.5313,2.57,2.57,0,0,1-.4873-1.8066V22.91h-1.0762v-.9609h1.0762V20.285Z"/><path class="cls-4" d="M115.7954,19.9989a.7817.7817,0,0,1-1.5634,0,.7689.7689,0,0,1,.789-.7891A.7492.7492,0,0,1,115.7954,19.9989ZM114.39,28.8914V21.9491h1.2617v6.9423Z"/><path class="cls-4" d="M117.7466,23.828c0-.7168-.0146-1.3047-.0576-1.8789h1.1191l.0713,1.1474h.0293a2.5531,2.5531,0,0,1,2.2949-1.3047c.961,0,2.4522.5733,2.4522,2.9541v4.1455h-1.2617V24.89c0-1.1182-.416-2.0508-1.6065-2.0508a1.85,1.85,0,0,0-1.7783,1.8789v4.1738h-1.2627Z"/><path class="cls-4" d="M131.5181,26.9979c0,.7178.0137,1.3486.0566,1.8935h-1.1181l-.0723-1.1328h-.0283a2.612,2.612,0,0,1-2.2949,1.291c-1.09,0-2.3955-.6025-2.3955-3.041V21.9491h1.2627v3.8437c0,1.32.4013,2.209,1.5488,2.209a1.8241,1.8241,0,0,0,1.664-1.1475,1.8559,1.8559,0,0,0,.1143-.6455v-4.26h1.2627Z"/><path class="cls-4" d="M134.3159,25.65a2.2245,2.2245,0,0,0,2.3809,2.4092,4.5535,4.5535,0,0,0,1.9219-.3584l.2158.9033a5.6151,5.6151,0,0,1-2.31.4307,3.2246,3.2246,0,0,1-3.414-3.5c0-2.0938,1.2343-3.7432,3.2558-3.7432,2.2666,0,2.8692,1.9932,2.8692,3.27a4.71,4.71,0,0,1-.043.5888Zm3.7012-.9043a1.7976,1.7976,0,0,0-1.75-2.0508,2.0913,2.0913,0,0,0-1.9365,2.0508Z"/><path class="cls-4" d="M146.7964,18.7078v8.3907c0,.6172.0137,1.3193.0567,1.7929H145.72l-.0566-1.205h-.0293a2.5676,2.5676,0,0,1-2.3662,1.3632c-1.6787,0-2.97-1.4209-2.97-3.5293-.0137-2.3086,1.42-3.7285,3.1133-3.7285a2.3211,2.3211,0,0,1,2.0937,1.0615h.0283V18.7078Zm-1.2627,6.0674a2.234,2.234,0,0,0-.0576-.5312,1.8558,1.8558,0,0,0-1.8213-1.4629c-1.3047,0-2.0791,1.1474-2.0791,2.6826,0,1.4053.6875,2.5674,2.0508,2.5674a1.8966,1.8966,0,0,0,1.85-1.5059,2.2021,2.2021,0,0,0,.0576-.5459Z"/><path class="cls-4" d="M148.1314,30.6268a9.705,9.705,0,0,0,1.8076-5.8662,9.5049,9.5049,0,0,0-1.8076-5.8233h.9756a9.1344,9.1344,0,0,1,1.8789,5.8379,9.31,9.31,0,0,1-1.8789,5.8516Z"/><path d="M15.7007,47.5057h3.6172v.7275h-2.75v2.2315h2.541v.7177h-2.541v3.0391h-.8672Z"/><path d="M21.5,48.0438a.543.543,0,0,1-1.0859,0,.5339.5339,0,0,1,.5479-.5479A.52.52,0,0,1,21.5,48.0438Zm-.9765,6.1777V49.3992H21.4v4.8223Z"/><path d="M22.854,50.9032c0-.5674-.01-1.0557-.04-1.504h.7676l.0293.9463h.04a1.4479,1.4479,0,0,1,1.335-1.0566.9711.9711,0,0,1,.25.03v.8271a1.3465,1.3465,0,0,0-.3-.03,1.23,1.23,0,0,0-1.1748,1.126,2.4211,2.4211,0,0,0-.04.4092v2.57H22.854Z"/><path d="M25.9917,53.325a2.3057,2.3057,0,0,0,1.1563.3487c.6377,0,.9365-.3194.9365-.7178,0-.418-.249-.6475-.8965-.8867-.8672-.3086-1.2754-.7871-1.2754-1.3653a1.4876,1.4876,0,0,1,1.6641-1.415,2.3986,2.3986,0,0,1,1.1855.3l-.22.6377a1.8719,1.8719,0,0,0-.9863-.2793c-.5176,0-.8067.2988-.8067.6572,0,.3985.2891.5781.9161.8174.8378.3184,1.2656.7373,1.2656,1.4551,0,.8467-.6572,1.4443-1.8028,1.4443a2.7517,2.7517,0,0,1-1.3554-.3291Z"/><path d="M31.1128,48.0135v1.3857h1.2559v.667H31.1128v2.6006c0,.5987.17.9365.6582.9365a1.9343,1.9343,0,0,0,.5078-.0595l.04.6582a2.1608,2.1608,0,0,1-.7774.1191,1.2175,1.2175,0,0,1-.9463-.3681,1.7888,1.7888,0,0,1-.3388-1.2559V50.0662h-.7471v-.667h.7471V48.243Z"/><path d="M36.0445,49.3992l.6377,2.4512c.14.5381.2685,1.0362.3584,1.5342h.03c.1094-.4883.2686-1.0068.4287-1.5244l.7872-2.461h.7373l.747,2.4112c.18.5781.3184,1.0859.4287,1.5742h.0293a14.6827,14.6827,0,0,1,.3692-1.5645l.6875-2.4209h.8662l-1.5537,4.8223H39.8L39.064,51.92a15.8435,15.8435,0,0,1-.4287-1.584h-.02a14.0319,14.0319,0,0,1-.4385,1.5937L37.4,54.2215h-.7978L35.148,49.3992Z"/><path d="M43.4663,51.97a1.545,1.545,0,0,0,1.6543,1.6738,3.1685,3.1685,0,0,0,1.335-.249l.1494.6279a3.9021,3.9021,0,0,1-1.6035.2988A2.24,2.24,0,0,1,42.6294,51.89a2.3412,2.3412,0,0,1,2.2617-2.6006,2.0441,2.0441,0,0,1,1.9932,2.2725,3.3313,3.3313,0,0,1-.03.4082Zm2.57-.628a1.2476,1.2476,0,0,0-1.2149-1.4248,1.4545,1.4545,0,0,0-1.3457,1.4248Z"/><path d="M54.4761,47.1473v5.8291c0,.4277.01.916.0391,1.2451h-.7871l-.0391-.8369h-.02a1.7824,1.7824,0,0,1-1.6436.9463A2.1983,2.1983,0,0,1,49.9624,51.88a2.307,2.307,0,0,1,2.1621-2.5908,1.6125,1.6125,0,0,1,1.4541.7373h.0206V47.1473Zm-.8769,4.2148a1.5776,1.5776,0,0,0-.04-.3691,1.291,1.291,0,0,0-1.2656-1.0166c-.9072,0-1.4443.7978-1.4443,1.8633,0,.9765.4775,1.7842,1.4248,1.7842a1.3178,1.3178,0,0,0,1.2851-1.0469,1.5426,1.5426,0,0,0,.04-.3779Z"/><path d="M55.9292,50.9032c0-.5674-.01-1.0557-.039-1.504h.7666l.03.9463h.04a1.4469,1.4469,0,0,1,1.3349-1.0566.9634.9634,0,0,1,.2491.03v.8271a1.3438,1.3438,0,0,0-.2989-.03,1.23,1.23,0,0,0-1.1757,1.126,2.4108,2.4108,0,0,0-.04.4092v2.57h-.8672Z"/><path d="M61.7183,54.2215l-.07-.6074h-.0293a1.7984,1.7984,0,0,1-1.4746.7168A1.3738,1.3738,0,0,1,58.67,52.9461c0-1.166,1.0361-1.8037,2.8994-1.7939v-.1a.9938.9938,0,0,0-1.0967-1.1153,2.3969,2.3969,0,0,0-1.2549.3584l-.1992-.5781a2.9951,2.9951,0,0,1,1.584-.4287c1.4746,0,1.833,1.0068,1.833,1.9736v1.8028a6.81,6.81,0,0,0,.08,1.1562Zm-.13-2.4609c-.956-.02-2.042.1494-2.042,1.0859a.7751.7751,0,0,0,.8262.8369,1.2,1.2,0,0,0,1.166-.8066.9054.9054,0,0,0,.05-.2793Z"/><path d="M63.96,49.3992l.6377,2.4512c.14.5381.2686,1.0362.3584,1.5342h.03c.1093-.4883.2685-1.0068.4287-1.5244l.7871-2.461h.7373l.7471,2.4112c.1787.5781.3183,1.0859.4287,1.5742h.0293a14.4648,14.4648,0,0,1,.3691-1.5645l.6875-2.4209h.8672l-1.5547,4.8223h-.7969L66.9781,51.92a16.1153,16.1153,0,0,1-.4278-1.584h-.02a13.99,13.99,0,0,1-.4385,1.5937l-.7773,2.292h-.7969L63.063,49.3992Z"/><path d="M75.9546,54.2215l-.0693-.6074h-.03a1.7984,1.7984,0,0,1-1.4746.7168,1.3738,1.3738,0,0,1-1.4746-1.3848c0-1.166,1.0361-1.8037,2.8994-1.7939v-.1A.9935.9935,0,0,0,74.71,49.9373a2.4,2.4,0,0,0-1.2559.3584l-.1992-.5781a2.9954,2.9954,0,0,1,1.584-.4287c1.4746,0,1.834,1.0068,1.834,1.9736v1.8028a6.8169,6.8169,0,0,0,.0791,1.1562Zm-.13-2.4609c-.956-.02-2.042.1494-2.042,1.0859a.7759.7759,0,0,0,.8272.8369,1.1988,1.1988,0,0,0,1.165-.8066.9054.9054,0,0,0,.05-.2793Z"/><path d="M80.5171,54.2215V50.0662h-.6777v-.667h.6777V49.17a2.2735,2.2735,0,0,1,.5576-1.6836,1.6764,1.6764,0,0,1,1.1758-.4483,2.0488,2.0488,0,0,1,.7481.1387l-.12.6777a1.31,1.31,0,0,0-.5576-.1094c-.747,0-.9365.6573-.9365,1.3946v.26H82.55v.667h-1.166v4.1553Z"/><path d="M87.7007,51.77a2.3569,2.3569,0,0,1-2.4014,2.5606,2.2921,2.2921,0,0,1-2.3115-2.48,2.3558,2.3558,0,0,1,2.3916-2.5615A2.2839,2.2839,0,0,1,87.7007,51.77Zm-3.8262.05c0,1.0567.6075,1.8536,1.4649,1.8536.8369,0,1.4648-.7871,1.4648-1.8731,0-.8174-.4082-1.8535-1.4453-1.8535S83.8745,50.9032,83.8745,51.82Z"/><path d="M88.8062,50.9032c0-.5674-.01-1.0557-.04-1.504h.7676l.0293.9463h.04a1.4468,1.4468,0,0,1,1.3349-1.0566.9576.9576,0,0,1,.249.03v.8271a1.3364,1.3364,0,0,0-.2988-.03,1.2314,1.2314,0,0,0-1.1758,1.126,2.5358,2.5358,0,0,0-.039.4092v2.57h-.8672Z"/><path d="M95.4117,54.0418a3.2217,3.2217,0,0,1-1.3848.2793A2.2909,2.2909,0,0,1,91.6255,51.86,2.4506,2.4506,0,0,1,94.2163,49.3a2.9159,2.9159,0,0,1,1.2149.2491l-.1992.6777a2.0256,2.0256,0,0,0-1.0157-.23,1.8182,1.8182,0,0,0-.03,3.627,2.494,2.494,0,0,0,1.0761-.2393Z"/><path d="M96.9253,51.97A1.545,1.545,0,0,0,98.58,53.6434a3.1685,3.1685,0,0,0,1.335-.249l.1494.6279a3.9021,3.9021,0,0,1-1.6035.2988A2.24,2.24,0,0,1,96.0884,51.89,2.3412,2.3412,0,0,1,98.35,49.2889a2.0441,2.0441,0,0,1,1.9932,2.2725,3.3313,3.3313,0,0,1-.03.4082Zm2.57-.628a1.2475,1.2475,0,0,0-1.2148-1.4248,1.4545,1.4545,0,0,0-1.3457,1.4248Z"/><path d="M107.9351,47.1473v5.8291c0,.4277.01.916.0391,1.2451h-.7872l-.039-.8369h-.02a1.7824,1.7824,0,0,1-1.6436.9463,2.1983,2.1983,0,0,1-2.0625-2.4512,2.3069,2.3069,0,0,1,2.1621-2.5908,1.6125,1.6125,0,0,1,1.4541.7373h.02V47.1473Zm-.877,4.2148a1.5775,1.5775,0,0,0-.04-.3691,1.291,1.291,0,0,0-1.2656-1.0166c-.9073,0-1.4444.7978-1.4444,1.8633,0,.9765.4776,1.7842,1.4248,1.7842a1.3178,1.3178,0,0,0,1.2852-1.0469,1.5428,1.5428,0,0,0,.04-.3779Z"/><path d="M110.3648,48.0438a.543.543,0,0,1-1.086,0,.5345.5345,0,0,1,.5479-.5479A.52.52,0,0,1,110.3648,48.0438Zm-.9766,6.1777V49.3992h.877v4.8223Z"/><path d="M114.39,54.2215l-.07-.6074h-.0293a1.7988,1.7988,0,0,1-1.4747.7168,1.3738,1.3738,0,0,1-1.4746-1.3848c0-1.166,1.0362-1.8037,2.8995-1.7939v-.1a.9938.9938,0,0,0-1.0967-1.1153,2.3966,2.3966,0,0,0-1.2549.3584l-.1992-.5781a2.9948,2.9948,0,0,1,1.584-.4287c1.4746,0,1.833,1.0068,1.833,1.9736v1.8028a6.8212,6.8212,0,0,0,.08,1.1562Zm-.13-2.4609c-.9561-.02-2.042.1494-2.042,1.0859a.7751.7751,0,0,0,.8262.8369,1.2,1.2,0,0,0,1.166-.8066.9054.9054,0,0,0,.05-.2793Z"/><path d="M120.6763,49.3992c-.0195.3487-.0391.7374-.0391,1.3252v2.8a2.7769,2.7769,0,0,1-.6875,2.2022,2.5571,2.5571,0,0,1-1.7539.5771,3.1063,3.1063,0,0,1-1.6045-.3984l.22-.667a2.7172,2.7172,0,0,0,1.415.3779c.8965,0,1.5537-.4677,1.5537-1.6836v-.538H119.76a1.7226,1.7226,0,0,1-1.5342.8076,2.1556,2.1556,0,0,1-2.0527-2.3516,2.3147,2.3147,0,0,1,2.1718-2.5615,1.6018,1.6018,0,0,1,1.504.8379h.02l.04-.7276Zm-.9062,1.9024a1.243,1.243,0,0,0-.05-.3984,1.2631,1.2631,0,0,0-1.2255-.9268c-.837,0-1.4346.708-1.4346,1.8242,0,.9463.4775,1.7334,1.4248,1.7334a1.2823,1.2823,0,0,0,1.2158-.8965,1.559,1.559,0,0,0,.0694-.4687Z"/><path d="M122.09,50.9032c0-.5674-.01-1.0557-.04-1.504h.7676l.03.9463h.04a1.4471,1.4471,0,0,1,1.335-1.0566.9632.9632,0,0,1,.249.03v.8271a1.3429,1.3429,0,0,0-.2988-.03,1.23,1.23,0,0,0-1.1758,1.126,2.4217,2.4217,0,0,0-.04.4092v2.57H122.09Z"/><path d="M127.8794,54.2215l-.0693-.6074h-.03a1.7984,1.7984,0,0,1-1.4746.7168,1.3738,1.3738,0,0,1-1.4746-1.3848c0-1.166,1.0361-1.8037,2.8994-1.7939v-.1a.9935.9935,0,0,0-1.0957-1.1153,2.3978,2.3978,0,0,0-1.2559.3584l-.1992-.5781a2.9954,2.9954,0,0,1,1.584-.4287c1.4746,0,1.834,1.0068,1.834,1.9736v1.8028a6.8169,6.8169,0,0,0,.0791,1.1562Zm-.13-2.4609c-.956-.02-2.0419.1494-2.0419,1.0859a.7753.7753,0,0,0,.8271.8369,1.2,1.2,0,0,0,1.165-.8066.9054.9054,0,0,0,.05-.2793Z"/><path d="M130.0113,50.7039c0-.498-.0108-.9062-.04-1.3047h.7666l.04.7774h.03a1.6605,1.6605,0,0,1,1.5147-.8877,1.4256,1.4256,0,0,1,1.3642.9668h.0206a1.9916,1.9916,0,0,1,.538-.6279,1.6481,1.6481,0,0,1,1.0664-.3389c.6377,0,1.584.4189,1.584,2.0928v2.84h-.8574v-2.73c0-.9267-.3379-1.4843-1.0459-1.4843a1.1358,1.1358,0,0,0-1.0361.7968,1.4408,1.4408,0,0,0-.07.4385v2.98H133.03v-2.89c0-.7676-.3389-1.3252-1.0058-1.3252a1.2,1.2,0,0,0-1.087.8769,1.2348,1.2348,0,0,0-.0693.4287v2.9092h-.8564Z"/><path d="M138.1109,53.703a.5886.5886,0,0,1,.5976-.627.6285.6285,0,1,1-.5976.627Z"/><g class="cls-5"><line class="cls-6" x1="27.006" y1="222.8264" x2="27.006" y2="69.7536"/><line class="cls-6" x1="27.006" y1="222.8264" x2="112.0465" y2="222.8264"/><line class="cls-6" x1="112.0465" y1="222.8264" x2="27.006" y2="75.5316"/><line class="cls-7" x1="112.0465" y1="222.8264" x2="98.2435" y2="198.9188"/><polygon class="cls-8" points="97.081 196.905 97.651 200.377 98.184 198.815 99.802 199.135 97.081 196.905"/><polygon class="cls-9" points="97.081 196.905 97.651 200.377 98.184 198.815 99.802 199.135 97.081 196.905"/><path d="M103.1688,190.8928h-.1077a4.16,4.16,0,0,0,.0337-.4778c0-.4441-.39-.4778-.6662-.4778h-.66l-.895,3.62a.75.75,0,0,0-.0336.1682c0,.1414.1077.249.5114.249h.1413l-.0269.1077H99.2524l.0269-.1077h.1212c.5248,0,.6594-.1884.7133-.4172l.8949-3.62h-.6123a1.1982,1.1982,0,0,0-1.1507.9556H99.138l.31-1.2045h4.0307Z"/><line class="cls-6" x1="27.006" y1="75.5316" x2="40.809" y2="99.4392"/><polygon points="41.972 101.453 41.402 97.981 40.869 99.543 39.25 99.223 41.972 101.453"/><polygon class="cls-10" points="41.972 101.453 41.402 97.981 40.869 99.543 39.25 99.223 41.972 101.453"/><path d="M48.7434,96.625h-.1077a4.16,4.16,0,0,0,.0337-.4778c0-.4441-.39-.4778-.6662-.4778h-.66l-.895,3.62a.75.75,0,0,0-.0336.1682c0,.1414.1077.249.5114.249h.1413l-.0269.1077H44.827l.0269-.1077h.1212c.5248,0,.6594-.1884.7133-.4172l.8949-3.62H45.971a1.1982,1.1982,0,0,0-1.1507.9556h-.1077l.31-1.2045h4.0307Z"/><line class="cls-11" x1="112.0465" y1="222.8264" x2="112.0465" y2="188.8102"/><line class="cls-6" x1="98.4399" y1="222.8264" x2="98.4399" y2="236.8356"/><polygon points="98.44 239.153 99.678 235.872 98.44 236.955 97.202 235.872 98.44 239.153"/><polygon class="cls-6" points="98.44 239.153 99.678 235.872 98.44 236.955 97.202 235.872 98.44 239.153"/><path d="M93.6763,242.9041h-.0137l-.7607.41-.1143-.45.9561-.5117h.5039v4.374h-.5713Z"/><path d="M98.7476,244.492c0,1.4873-.5518,2.3086-1.5215,2.3086-.8535,0-1.4326-.8008-1.4463-2.248,0-1.4668.6328-2.2744,1.52-2.2744C98.2222,242.2782,98.7476,243.0994,98.7476,244.492Zm-2.375.0674c0,1.1377.35,1.7832.8877,1.7832.6055,0,.8955-.706.8955-1.8232,0-1.0772-.2764-1.7832-.8887-1.7832C96.7486,242.7362,96.3726,243.369,96.3726,244.5594Z"/><path d="M100.4458,246.7264v-4.5352h.64l1.4531,2.294a13.1048,13.1048,0,0,1,.8145,1.4736l.0136-.0058c-.0547-.6065-.0683-1.1582-.0683-1.8643v-1.8975h.5527v4.5352h-.5928l-1.4394-2.3018a14.43,14.43,0,0,1-.8487-1.5136l-.02.0068c.0332.5723.0469,1.1172.0469,1.8711v1.9375Z"/><line class="cls-12" x1="69.5262" y1="222.8264" x2="69.5262" y2="236.8356"/><polygon class="cls-13" points="69.526 239.153 70.765 235.872 69.526 236.955 68.288 235.872 69.526 239.153"/><polygon class="cls-12" points="69.526 239.153 70.765 235.872 69.526 236.955 68.288 235.872 69.526 239.153"/><path d="M64.7632,242.9041H64.75l-.7607.41-.1143-.45.9551-.5117h.5049v4.374h-.5713Z"/><path d="M69.8345,244.492c0,1.4873-.5518,2.3086-1.5215,2.3086-.8545,0-1.4326-.8008-1.4463-2.248,0-1.4668.6328-2.2744,1.5205-2.2744C69.3091,242.2782,69.8345,243.0994,69.8345,244.492Zm-2.376.0674c0,1.1377.35,1.7832.8887,1.7832.6055,0,.8945-.706.8945-1.8232,0-1.0772-.2754-1.7832-.8877-1.7832C67.8355,242.7362,67.4585,243.369,67.4585,244.5594Z"/><path d="M71.5327,246.7264v-4.5352h.6387l1.4531,2.294a12.7635,12.7635,0,0,1,.8145,1.4736l.0137-.0058c-.0537-.6065-.0674-1.1582-.0674-1.8643v-1.8975h.5517v4.5352h-.5918l-1.44-2.3018a14.2367,14.2367,0,0,1-.8476-1.5136l-.02.0068c.0341.5723.0468,1.1172.0468,1.8711v1.9375Z"/><line class="cls-6" x1="27.006" y1="222.8264" x2="27.006" y2="198.6121"/><polygon points="27.006 196.294 25.768 199.575 27.006 198.493 28.244 199.575 27.006 196.294"/><polygon class="cls-6" points="27.006 196.294 25.768 199.575 27.006 198.493 28.244 199.575 27.006 196.294"/><path d="M21.8018,192.8542H20.6645l-1.0093-2.12c-.0673.0067-.1413.0135-.1952.0135a1.656,1.656,0,0,1-.2557-.0269l-.4172,1.6082a.6144.6144,0,0,0-.02.1548c0,.1615.1211.2624.5114.2624h.1279l-.0269.1077h-2.187l.0269-.1077h.1077c.5114,0,.646-.1884.7065-.4172l.8345-3.3444a.7476.7476,0,0,0,.0336-.1682c0-.1413-.1144-.249-.5181-.249h-.1346l.0269-.1076h1.8236c1.0766,0,1.4535.4441,1.4535,1.0161,0,.5585-.4778,1.0093-1.1978,1.1507l.7738,1.5409a.8534.8534,0,0,0,.6864.5787Zm-2.5369-2.3754a.9328.9328,0,0,0,.2153.0269c.895,0,1.2853-.39,1.2853-.9555,0-.7268-.4172-.8411-.8412-.8411a1.1624,1.1624,0,0,0-.2288.02Z"/><path d="M25.47,191.5378a.8381.8381,0,0,0-.6212.3623l-2.0752,2.7106h-.113v-2.687c0-.273-.1788-.3859-.4659-.3859l.0189-.0753h1.3835l-.0188.0753h-.0895c-.3058,0-.3294.1741-.3294.3294v1.84l.0189.0047,1.3176-1.7223a.7061.7061,0,0,0,.1788-.3483c0-.0706-.0659-.1035-.2447-.1035h-.0941l.0188-.0753h1.1341Z"/><line class="cls-14" x1="27.006" y1="222.8264" x2="40.8945" y2="202.9916"/><polygon class="cls-15" points="42.224 201.093 39.328 203.07 40.963 202.894 41.356 204.491 42.224 201.093"/><polygon class="cls-16" points="42.224 201.093 39.328 203.07 40.963 202.894 41.356 204.491 42.224 201.093"/><path d="M44.9918,198.3034H43.8545l-1.0093-2.12c-.0673.0068-.1413.0135-.1952.0135a1.656,1.656,0,0,1-.2557-.0269l-.4172,1.6082a.6144.6144,0,0,0-.02.1548c0,.1615.1211.2624.5114.2624h.1279l-.0269.1077h-2.187l.0269-.1077h.1077c.5114,0,.646-.1884.7065-.4172l.8345-3.3443a.75.75,0,0,0,.0336-.1683c0-.1413-.1144-.249-.5181-.249h-.1346l.0269-.1076h1.8236c1.0767,0,1.4535.4441,1.4535,1.0161,0,.5585-.4778,1.0093-1.1978,1.1507l.7738,1.5409a.8534.8534,0,0,0,.6864.5787Zm-2.5369-2.3754a.9328.9328,0,0,0,.2153.0269c.895,0,1.2853-.39,1.2853-.9555,0-.7267-.4172-.8411-.8412-.8411a1.1624,1.1624,0,0,0-.2288.02Z"/><line class="cls-6" x1="30.4076" y1="222.8264" x2="51.22" y2="222.8264"/><polygon points="53.538 222.826 50.257 221.588 51.34 222.826 50.257 224.065 53.538 222.826"/><polygon class="cls-6" points="53.538 222.826 50.257 221.588 51.34 222.826 50.257 224.065 53.538 222.826"/><path d="M56.213,229.55H55.0757l-1.0093-2.12c-.0673.0067-.1413.0135-.1952.0135a1.656,1.656,0,0,1-.2557-.0269l-.4172,1.6082a.6144.6144,0,0,0-.02.1548c0,.1615.1211.2624.5114.2624h.1279l-.0269.1077h-2.187l.0269-.1077h.1077c.5114,0,.646-.1884.7065-.4172l.8345-3.3444a.7476.7476,0,0,0,.0336-.1682c0-.1413-.1144-.249-.5181-.249H52.66l.0269-.1076h1.8236c1.0767,0,1.4535.4441,1.4535,1.0161,0,.5585-.4778,1.0093-1.1978,1.1507l.7739,1.5409a.8531.8531,0,0,0,.6863.5787Zm-2.5369-2.3754a.9334.9334,0,0,0,.2153.0269c.895,0,1.2853-.39,1.2853-.9555,0-.7268-.4172-.8411-.8412-.8411a1.1624,1.1624,0,0,0-.2288.02Z"/><path d="M60.6482,228.2332h-.0847c-.3576,0-.4564.1318-.4988.2965l-.5788,2.334a.5943.5943,0,0,0-.0188.1318c0,.0988.0894.16.367.16h.0894l-.0188.0753H58.3565l.0188-.0753H58.46c.3389,0,.4518-.1176.4942-.2918l.287-1.1388H57.9236l-.2871,1.1388a.4054.4054,0,0,0-.0188.113c0,.1129.0847.1788.3623.1788h.0942l-.0189.0753H56.5024l.0188-.0753h.0848c.3529,0,.4611-.1318.4988-.2918l.5788-2.334a.4372.4372,0,0,0,.0188-.113c0-.0988-.0753-.1835-.367-.1835h-.0942l.0189-.0753H58.813l-.0188.0753h-.0848c-.3717,0-.4564.1318-.4941.2965l-.2447,1.0211h1.3083l.2494-1.0211a.6235.6235,0,0,0,.0188-.113c0-.1129-.0894-.1835-.3577-.1835h-.0941l.0189-.0753h1.5529Z"/><path class="cls-6" d="M106.0938,212.516a11.9067,11.9067,0,0,0-5.9529,10.31"/><path d="M95.6675,212.8338a2.105,2.105,0,0,0-.4443.0274,1.776,1.776,0,0,0-1.5205,1.5546h.02a1.3336,1.3336,0,0,1,2.376.9083,1.4627,1.4627,0,0,1-1.4541,1.541c-.9346,0-1.5469-.7266-1.5469-1.8643a2.7464,2.7464,0,0,1,.74-1.9717,2.382,2.382,0,0,1,1.3994-.6455,2.8079,2.8079,0,0,1,.4307-.0342Zm-.168,2.5235a.8886.8886,0,0,0-.9023-1.002.9737.9737,0,0,0-.8477.5381.507.507,0,0,0-.0673.2627c.0136.72.3427,1.251.9619,1.251C95.1558,216.4071,95.5,215.9832,95.5,215.3573Z"/><path d="M99.5279,214.5565c0,1.4873-.5518,2.3086-1.5215,2.3086-.8545,0-1.4326-.8008-1.4463-2.2481,0-1.4668.6328-2.2744,1.52-2.2744C99.0025,212.3426,99.5279,213.1639,99.5279,214.5565Zm-2.376.0674c0,1.1377.35,1.7832.8887,1.7832.6054,0,.8945-.7061.8945-1.8233,0-1.0771-.2754-1.7832-.8877-1.7832C97.5288,212.8006,97.1519,213.4334,97.1519,214.6239Z"/><path d="M99.5933,211.1473h2.35v3.29h-2.35Zm.2344,2.8437.7988-1.1982-.7988-1.1992Zm1.7392-2.6084H99.9683l.8,1.1983Zm0,2.8194-.7988-1.1983-.8,1.1983Zm.1407-.211v-2.3974l-.7989,1.1992Z"/><path class="cls-6" d="M37.211,222.8264a10.2067,10.2067,0,0,0-4.3518-8.3593"/><path d="M40.0121,218.0436c-.6393,0-.9219-.397-.9219-1.2045,0-1.1709.78-3.3646,2.0591-3.3646.4912,0,.8613.424.8613,1.3189C42.0106,216.1124,41.0483,218.0436,40.0121,218.0436Zm-.1885-2.1466a4.0458,4.0458,0,0,0-.1682,1.11c0,.4643.101.8412.39.8412.4509,0,.8546-.8815,1.0632-1.5477.0471-.1548.0875-.3432.1077-.4038Zm1.4535-.2422a5.9084,5.9084,0,0,0,.1683-1.1171c0-.4912-.0673-.868-.3432-.868-.4845,0-1.0363,1.1843-1.2113,1.9851Z"/><line class="cls-6" x1="30.0049" y1="207.5191" x2="109.0476" y2="207.5191"/><polygon points="27.687 207.519 30.968 208.757 29.885 207.519 30.968 206.281 27.687 207.519"/><polygon class="cls-6" points="27.687 207.519 30.968 208.757 29.885 207.519 30.968 206.281 27.687 207.519"/><polygon points="111.365 207.519 108.084 206.281 109.167 207.519 108.084 208.757 111.365 207.519"/><polygon class="cls-6" points="111.365 207.519 108.084 206.281 109.167 207.519 108.084 208.757 111.365 207.519"/><path d="M61.4,201.4022h-.0127l-.7607.41-.1143-.45.9551-.5117h.5049v4.374H61.4Z"/><path d="M63.565,205.2244v-.3632l.4638-.4512c1.1172-1.0625,1.6221-1.6279,1.6289-2.2881a.7808.7808,0,0,0-.8681-.8545,1.491,1.491,0,0,0-.9287.37l-.1885-.417a1.9185,1.9185,0,0,1,1.2383-.4443,1.2307,1.2307,0,0,1,1.3388,1.2725c0,.8066-.5849,1.46-1.5068,2.3476l-.3506.3233v.0136H66.357v.4912Z"/><path d="M66.9605,204.1141a1.25,1.25,0,0,1,.8681-1.1709l-.0068-.02a1.0835,1.0835,0,0,1-.6934-.9824,1.2262,1.2262,0,0,1,1.3536-1.1641,1.13,1.13,0,0,1,1.2714,1.0771,1.11,1.11,0,0,1-.7207,1.0225v.02a1.2111,1.2111,0,0,1,.8819,1.13,1.3474,1.3474,0,0,1-1.4873,1.2725C67.5122,205.2987,66.9605,204.7537,66.9605,204.1141Zm2.3554-.0274c0-.5312-.37-.7871-.9628-.955a.9509.9509,0,0,0-.7872.9013.81.81,0,0,0,.875.835A.7921.7921,0,0,0,69.3159,204.0867ZM67.687,201.9c0,.4375.33.6729.835.8076a.8618.8618,0,0,0,.666-.7939.6807.6807,0,0,0-.74-.7139A.6963.6963,0,0,0,67.687,201.9Z"/><path d="M73.8335,205.1033a2.1742,2.1742,0,0,1-.9355.1885,1.5468,1.5468,0,0,1-1.6211-1.6621,1.6542,1.6542,0,0,1,1.749-1.73,1.992,1.992,0,0,1,.8213.168l-.1348.458a1.3692,1.3692,0,0,0-.6865-.1553,1.2283,1.2283,0,0,0-.02,2.45,1.6832,1.6832,0,0,0,.7275-.1621Z"/><path d="M74.5249,202.8494c0-.3369-.0068-.6123-.0273-.8818h.5185l.0264.5244h.02a1.122,1.122,0,0,1,1.0225-.5986.9623.9623,0,0,1,.9219.6533h.0136a1.3482,1.3482,0,0,1,.3633-.4248,1.1166,1.1166,0,0,1,.7207-.2285c.4307,0,1.0693.2832,1.0693,1.4131v1.9179h-.5781v-1.8437c0-.626-.23-1.0029-.707-1.0029a.7671.7671,0,0,0-.7.539.9831.9831,0,0,0-.0469.2959v2.0117H76.564v-1.9511c0-.5186-.2295-.8955-.68-.8955a.886.886,0,0,0-.7812.8818v1.9648h-.5782Z"/><line class="cls-6" x1="30.0049" y1="219.4248" x2="95.4411" y2="219.4248"/><polygon points="27.687 219.425 30.968 220.663 29.885 219.425 30.968 218.186 27.687 219.425"/><polygon class="cls-6" points="27.687 219.425 30.968 220.663 29.885 219.425 30.968 218.186 27.687 219.425"/><polygon points="97.759 219.425 94.478 218.186 95.561 219.425 94.478 220.663 97.759 219.425"/><polygon class="cls-6" points="97.759 219.425 94.478 218.186 95.561 219.425 94.478 220.663 97.759 219.425"/><path d="M55.3365,216.6414a2.4265,2.4265,0,0,0,.4775-.02,1.65,1.65,0,0,0,.916-.4238,1.9186,1.9186,0,0,0,.5781-1.1641h-.02a1.2852,1.2852,0,0,1-1.03.4707,1.2668,1.2668,0,0,1-1.292-1.3388,1.5,1.5,0,0,1,1.4942-1.5547c.8945,0,1.4472.7265,1.4472,1.8437a2.7631,2.7631,0,0,1-.7539,2.0528,2.1845,2.1845,0,0,1-1.2724.5849,2.7125,2.7125,0,0,1-.5449.0342Zm.2158-2.5166a.8412.8412,0,0,0,.8408.9287.9774.9774,0,0,0,.8613-.458.3852.3852,0,0,0,.0537-.2148c0-.7471-.2754-1.3193-.8945-1.3193C55.9087,213.0614,55.5523,213.5057,55.5523,214.1248Z"/><path d="M60.94,213.1014a2.1122,2.1122,0,0,0-.4444.0273,1.7761,1.7761,0,0,0-1.5205,1.5547h.02a1.3334,1.3334,0,0,1,2.3759.9082,1.4626,1.4626,0,0,1-1.4541,1.541c-.9345,0-1.5478-.7265-1.5478-1.8642a2.7545,2.7545,0,0,1,.74-1.9717,2.3876,2.3876,0,0,1,1.4-.6455,2.7981,2.7981,0,0,1,.4307-.0342Zm-.169,2.5234a.8879.8879,0,0,0-.9013-1.0019.9734.9734,0,0,0-.8477.5381.5067.5067,0,0,0-.0674.2627c.0137.72.3438,1.2509.9619,1.2509C60.4283,216.6746,60.771,216.2508,60.771,215.6248Z"/><path d="M65.3492,216.9373a2.1785,2.1785,0,0,1-.9356.1885,1.5476,1.5476,0,0,1-1.6221-1.6621,1.655,1.655,0,0,1,1.75-1.73,1.9959,1.9959,0,0,1,.8213.168l-.1347.458a1.37,1.37,0,0,0-.6866-.1553,1.2283,1.2283,0,0,0-.02,2.45,1.6753,1.6753,0,0,0,.7266-.1621Z"/><path d="M66.0406,214.6834c0-.3369-.0069-.6123-.0274-.8818h.5176l.0273.5244h.02a1.122,1.122,0,0,1,1.0225-.5986.9622.9622,0,0,1,.9219.6533h.0137a1.3342,1.3342,0,0,1,.3632-.4248,1.114,1.114,0,0,1,.72-.2285c.4306,0,1.07.2832,1.07,1.4131v1.9179h-.5791v-1.8437c0-.626-.2285-1.003-.7061-1.003a.7672.7672,0,0,0-.7.5391.9862.9862,0,0,0-.0469.2959v2.0117h-.5791v-1.9511c0-.5186-.2285-.8956-.68-.8956a.8091.8091,0,0,0-.7334.5928.8239.8239,0,0,0-.0469.2891v1.9648h-.5781Z"/><line class="cls-6" x1="30.0049" y1="233.0312" x2="66.5274" y2="233.0312"/><polygon points="27.687 233.031 30.968 234.269 29.885 233.031 30.968 231.793 27.687 233.031"/><polygon class="cls-6" points="27.687 233.031 30.968 234.269 29.885 233.031 30.968 231.793 27.687 233.031"/><polygon points="68.845 233.031 65.564 231.793 66.647 233.031 65.564 234.269 68.845 233.031"/><polygon class="cls-6" points="68.845 233.031 65.564 231.793 66.647 233.031 65.564 234.269 68.845 233.031"/><path d="M43.0327,235.9647a2.0959,2.0959,0,0,0-.4433.0273,1.7772,1.7772,0,0,0-1.5215,1.5547h.02a1.3329,1.3329,0,0,1,2.375.9082,1.4624,1.4624,0,0,1-1.4531,1.541c-.9356,0-1.5479-.7265-1.5479-1.8642a2.75,2.75,0,0,1,.74-1.9717,2.3808,2.3808,0,0,1,1.3994-.6455,2.7931,2.7931,0,0,1,.4306-.0342Zm-.1679,2.5234a.8879.8879,0,0,0-.9014-1.0019.976.976,0,0,0-.8486.538.5061.5061,0,0,0-.0664.2627c.0127.72.3427,1.251.9619,1.251C42.521,239.5379,42.8648,239.1141,42.8648,238.4881Z"/><path d="M45.8169,239.9217V238.73H43.7847v-.39l1.9512-2.793h.6386v2.7187h.6133v.4639h-.6133v1.1914Zm0-1.6553v-1.46q0-.3443.02-.6866h-.02c-.1347.2559-.2431.4444-.3642.6456l-1.0694,1.4873v.0136Z"/><path d="M50.8921,239.8006a2.1687,2.1687,0,0,1-.9345.1885,1.5475,1.5475,0,0,1-1.6221-1.6621,1.655,1.655,0,0,1,1.75-1.73,1.9866,1.9866,0,0,1,.82.168l-.1348.458a1.3651,1.3651,0,0,0-.6855-.1553,1.2282,1.2282,0,0,0-.0205,2.45,1.6744,1.6744,0,0,0,.7265-.1621Z"/><path d="M51.5835,237.5467c0-.3369-.0068-.6123-.0263-.8818h.5175l.0274.5244h.02a1.1219,1.1219,0,0,1,1.0225-.5986.963.963,0,0,1,.9218.6533h.0137a1.3344,1.3344,0,0,1,.3633-.4248,1.1137,1.1137,0,0,1,.72-.2285c.4307,0,1.07.2832,1.07,1.413v1.918h-.5791V238.078c0-.626-.2285-1.003-.706-1.003a.7661.7661,0,0,0-.7.5391.9526.9526,0,0,0-.0469.2959v2.0117h-.5791v-1.9512c0-.5185-.2285-.8955-.68-.8955a.8092.8092,0,0,0-.7334.5928.8239.8239,0,0,0-.0469.2891v1.9648h-.5791Z"/></g><line class="cls-17" x1="155.041" y1="242.596" x2="155.041" y2="53.306"/><path d="M170.3648,47.3631a9.02,9.02,0,0,1,1.664-.14,2.7517,2.7517,0,0,1,1.9434.5478,1.6758,1.6758,0,0,1,.5273,1.2754,1.7635,1.7635,0,0,1-1.2646,1.7139v.03a1.6728,1.6728,0,0,1,.9863,1.3545,10.632,10.632,0,0,0,.5176,1.8438h-.8965a8.743,8.743,0,0,1-.4482-1.6045c-.1992-.9268-.5586-1.2754-1.3457-1.3047h-.8164v2.9092h-.8672Zm.8672,3.0586h.8867c.9267,0,1.5146-.5078,1.5146-1.2754,0-.8662-.6279-1.2451-1.5449-1.2549a3.6219,3.6219,0,0,0-.8564.0791Z"/><path d="M176.0435,51.7371a1.5454,1.5454,0,0,0,1.6543,1.6739,3.1631,3.1631,0,0,0,1.3349-.2491l.1495.628a3.9043,3.9043,0,0,1-1.6045.2988,2.24,2.24,0,0,1-2.3711-2.4316,2.3418,2.3418,0,0,1,2.2617-2.6006,2.0441,2.0441,0,0,1,1.9932,2.2724,3.35,3.35,0,0,1-.03.4082Zm2.5713-.6279a1.2489,1.2489,0,0,0-1.2158-1.4248,1.4528,1.4528,0,0,0-1.3448,1.4248Z"/><path d="M180.4273,53.0926a2.2993,2.2993,0,0,0,1.1562.3486c.6367,0,.9356-.3193.9356-.7177,0-.418-.2481-.6475-.8965-.8868-.8672-.3085-1.2754-.7871-1.2754-1.3652a1.4875,1.4875,0,0,1,1.6641-1.415,2.3959,2.3959,0,0,1,1.1855.3l-.2187.6377a1.8724,1.8724,0,0,0-.9864-.2793c-.5185,0-.8076.2988-.8076.6572,0,.3984.2891.5781.917.8174.8369.3183,1.2656.7373,1.2656,1.4551,0,.8466-.6582,1.4443-1.8037,1.4443a2.7455,2.7455,0,0,1-1.3545-.3291Z"/><path d="M188.856,51.5379a2.357,2.357,0,0,1-2.4014,2.5606,2.2926,2.2926,0,0,1-2.3115-2.48,2.3552,2.3552,0,0,1,2.3916-2.5615A2.2839,2.2839,0,0,1,188.856,51.5379Zm-3.8262.05c0,1.0567.6084,1.8535,1.4649,1.8535.8369,0,1.4648-.7871,1.4648-1.873,0-.8174-.4092-1.8535-1.4453-1.8535S185.03,50.6707,185.03,51.5877Z"/><path d="M189.9615,46.9149h.8769v7.0742h-.8769Z"/><path d="M192.6509,49.1668l.9463,2.71a12.2093,12.2093,0,0,1,.3887,1.2353h.03c.1094-.3984.2491-.7968.4092-1.2353l.9356-2.71h.917l-1.8936,4.8223h-.8359l-1.834-4.8223Z"/><path d="M198.0806,47.8114a.543.543,0,0,1-1.0859,0,.5345.5345,0,0,1,.5478-.5479A.52.52,0,0,1,198.0806,47.8114Zm-.9766,6.1777V49.1668h.877v4.8223Z"/><path d="M199.4351,50.4715c0-.498-.01-.9062-.0391-1.3047h.7764l.05.7969h.0205a1.7741,1.7741,0,0,1,1.5938-.9072c.6679,0,1.7041.3994,1.7041,2.0527v2.88h-.877v-2.78c0-.7773-.2891-1.4248-1.1152-1.4248a1.2451,1.2451,0,0,0-1.1758.8975,1.2265,1.2265,0,0,0-.0606.4082v2.8994h-.8769Z"/><path d="M209.12,49.1668c-.02.3487-.04.7373-.04,1.3252v2.8a2.7733,2.7733,0,0,1-.6875,2.2022,2.5547,2.5547,0,0,1-1.7539.5771,3.1061,3.1061,0,0,1-1.6035-.3984l.2187-.667a2.7233,2.7233,0,0,0,1.4151.3779c.8965,0,1.5547-.4678,1.5547-1.6836v-.5381h-.02a1.7214,1.7214,0,0,1-1.5342.8077,2.1562,2.1562,0,0,1-2.0527-2.3516,2.3153,2.3153,0,0,1,2.1728-2.5615,1.6027,1.6027,0,0,1,1.5039.8379h.02l.0411-.7276Zm-.9073,1.9024a1.28,1.28,0,0,0-1.2754-1.3252c-.8359,0-1.4345.708-1.4345,1.8242,0,.9463.4785,1.7334,1.4248,1.7334a1.2824,1.2824,0,0,0,1.2158-.8965,1.5279,1.5279,0,0,0,.0693-.4687Z"/><path d="M218.5252,49.1664c0-1.086-.04-1.3351-1.1458-1.3351h-.568l-.9864,4.8524c-.1893.9067-.07,1.0064.7772,1.0064l-.06.2989h-2.84l.06-.2989c.837,0,.9765-.1,1.1658-1.0064l.9865-4.8524h-.568c-1.106,0-1.2156.2491-1.654,1.3351h-.3189l.4086-1.7237h5.3506l-.2989,1.7237Z"/><path d="M224.8511,53.9891l-.0693-.6074h-.03a1.7971,1.7971,0,0,1-1.4746.7168,1.3738,1.3738,0,0,1-1.4746-1.3848c0-1.166,1.0361-1.8037,2.8994-1.7939v-.1a.9935.9935,0,0,0-1.0957-1.1152,2.4,2.4,0,0,0-1.2559.3584l-.1992-.5781a2.9961,2.9961,0,0,1,1.585-.4287c1.4746,0,1.833,1.0068,1.833,1.9736v1.8027a6.8174,6.8174,0,0,0,.0791,1.1563Zm-.1289-2.4609c-.957-.0206-2.043.1494-2.043,1.0859a.7759.7759,0,0,0,.8272.8369,1.1979,1.1979,0,0,0,1.165-.8066.9071.9071,0,0,0,.0508-.2793Z"/><path d="M226.9829,50.4715c0-.498-.01-.9062-.04-1.3047h.7773l.05.7969h.02a1.7726,1.7726,0,0,1,1.5937-.9072c.668,0,1.7041.3994,1.7041,2.0527v2.88h-.8769v-2.78c0-.7773-.2891-1.4248-1.1163-1.4248A1.286,1.286,0,0,0,227.86,51.09v2.8994h-.877Z"/><path d="M236.6773,46.9149V52.744c0,.4277.01.916.039,1.2451h-.7871l-.039-.8369h-.02a1.7824,1.7824,0,0,1-1.6436.9463,2.1984,2.1984,0,0,1-2.0625-2.4512,2.3075,2.3075,0,0,1,2.1621-2.5908,1.6156,1.6156,0,0,1,1.4551.7373H235.8V46.9149ZM235.8,51.13a1.5254,1.5254,0,0,0-.04-.3691,1.29,1.29,0,0,0-1.2656-1.0166c-.9063,0-1.4444.7978-1.4444,1.8633,0,.9765.4785,1.7841,1.4248,1.7841a1.3177,1.3177,0,0,0,1.2852-1.0468,1.4959,1.4959,0,0,0,.04-.378Z"/><path d="M243.3219,50.83v.05c.3587.2491.5579.7573,1.375,2.3017a.8753.8753,0,0,0,.9167.5082l-.06.2989h-1.5145c-.7473-1.6441-.9566-2.0625-1.2655-2.67-.1494-.2789-.279-.3387-.6377-.3387h-.2092l-.3687,1.7736c-.1694.827-.06.9366.7971.9366l-.05.2989h-2.75l.06-.2989c.7374,0,.8868-.1,1.0562-.9366l.8769-4.2746c.11-.548.05-.7373-.7473-.7373l.06-.2989h2.3416c1.3949,0,2.212.4085,2.212,1.375C245.4143,50.2226,244.1887,50.681,243.3219,50.83Zm-1.3253-.2192.3089.01c1.1957-.04,2.1224-.4883,2.1224-1.7637,0-.538-.299-1.0262-1.2854-1.0262a5.3971,5.3971,0,0,0-.5879.03Z"/><path d="M249.8072,47.8114a.543.543,0,0,1-1.086,0,.5345.5345,0,0,1,.5479-.5479A.52.52,0,0,1,249.8072,47.8114Zm-.9766,6.1777V49.1668h.877v4.8223Z"/><path d="M251.1617,50.4715c0-.498-.01-.9062-.0391-1.3047H251.9l.0489.7969h.02a1.7743,1.7743,0,0,1,1.5947-.9072c.667,0,1.7031.3994,1.7031,2.0527v2.88H254.39v-2.78c0-.7773-.2891-1.4248-1.1153-1.4248a1.29,1.29,0,0,0-1.2363,1.3057v2.8994h-.8769Z"/><path d="M257.7476,47.7811v1.3857h1.2558v.667h-1.2558v2.6006c0,.5986.1689.9365.6572.9365a1.942,1.942,0,0,0,.5088-.0595l.0391.6582a2.1532,2.1532,0,0,1-.7774.1191,1.2187,1.2187,0,0,1-.9463-.3682,1.7885,1.7885,0,0,1-.3388-1.2558V49.8338h-.7471v-.667h.7471V48.0106Z"/><path d="M264.313,51.5379a2.3569,2.3569,0,0,1-2.4013,2.5606,2.2927,2.2927,0,0,1-2.3116-2.48,2.3557,2.3557,0,0,1,2.3916-2.5615A2.2839,2.2839,0,0,1,264.313,51.5379Zm-3.8262.05c0,1.0567.6084,1.8535,1.4649,1.8535.8369,0,1.4648-.7871,1.4648-1.873,0-.8174-.4082-1.8535-1.4443-1.8535S260.4868,50.6707,260.4868,51.5877Z"/><path d="M268.0982,49.1668l.9463,2.71a12.2331,12.2331,0,0,1,.3886,1.2353h.03c.1094-.3984.249-.7968.4092-1.2353l.9355-2.71h.917l-1.8935,4.8223h-.836l-1.8339-4.8223Z"/><path d="M273,51.7371a1.5455,1.5455,0,0,0,1.6543,1.6739,3.1719,3.1719,0,0,0,1.336-.2491l.1484.628a3.8983,3.8983,0,0,1-1.6035.2988,2.24,2.24,0,0,1-2.3711-2.4316,2.3412,2.3412,0,0,1,2.2617-2.6006,2.0433,2.0433,0,0,1,1.9922,2.2724,3.3724,3.3724,0,0,1-.0293.4082Zm2.5713-.6279a1.2489,1.2489,0,0,0-1.2158-1.4248,1.4527,1.4527,0,0,0-1.3447,1.4248Z"/><path d="M277.5034,50.6707c0-.5674-.01-1.0556-.04-1.5039h.7666l.03.9463h.04a1.4471,1.4471,0,0,1,1.335-1.0566.9677.9677,0,0,1,.249.03v.8272a1.3429,1.3429,0,0,0-.2988-.03A1.2305,1.2305,0,0,0,278.41,51.01a2.53,2.53,0,0,0-.04.4092v2.57h-.8663Z"/><path d="M281.8169,47.7811v1.3857h1.2549v.667h-1.2549v2.6006c0,.5986.169.9365.6573.9365a1.9338,1.9338,0,0,0,.5078-.0595l.041.6582a2.1648,2.1648,0,0,1-.7774.1191,1.2179,1.2179,0,0,1-.9472-.3682,1.7881,1.7881,0,0,1-.3379-1.2558V49.8338h-.7481v-.667h.7481V48.0106Z"/><path d="M285.0347,47.8114a.543.543,0,0,1-1.0859,0,.5339.5339,0,0,1,.5478-.5479A.52.52,0,0,1,285.0347,47.8114Zm-.9766,6.1777V49.1668h.877v4.8223Z"/><path d="M289.8277,53.8094a3.2268,3.2268,0,0,1-1.3858.2793,2.2914,2.2914,0,0,1-2.4013-2.4609,2.4506,2.4506,0,0,1,2.5908-2.5606,2.9229,2.9229,0,0,1,1.2158.249l-.1992.6778a2.0269,2.0269,0,0,0-1.0166-.23,1.8181,1.8181,0,0,0-.03,3.6269,2.4943,2.4943,0,0,0,1.0762-.2392Z"/><path d="M293.523,53.9891l-.07-.6074h-.0293a1.7986,1.7986,0,0,1-1.4746.7168,1.3738,1.3738,0,0,1-1.4746-1.3848c0-1.166,1.0361-1.8037,2.8994-1.7939v-.1a.9938.9938,0,0,0-1.0967-1.1152,2.3993,2.3993,0,0,0-1.2549.3584l-.1992-.5781a2.9948,2.9948,0,0,1,1.584-.4287c1.4746,0,1.834,1.0068,1.834,1.9736v1.8027a6.8174,6.8174,0,0,0,.0791,1.1563Zm-.1289-2.4609c-.9571-.0206-2.043.1494-2.043,1.0859a.7756.7756,0,0,0,.8262.8369,1.1983,1.1983,0,0,0,1.166-.8066.9071.9071,0,0,0,.0508-.2793Z"/><path d="M295.6548,46.9149h.877v7.0742h-.877Z"/><path d="M303.0171,53.9891l-.0693-.6074h-.03a1.7969,1.7969,0,0,1-1.4746.7168,1.3738,1.3738,0,0,1-1.4746-1.3848c0-1.166,1.0361-1.8037,2.8994-1.7939v-.1a.9935.9935,0,0,0-1.0957-1.1152,2.4,2.4,0,0,0-1.2559.3584l-.1992-.5781a2.9964,2.9964,0,0,1,1.585-.4287c1.4746,0,1.833,1.0068,1.833,1.9736v1.8027a6.8174,6.8174,0,0,0,.0791,1.1563Zm-.1289-2.4609c-.957-.0206-2.043.1494-2.043,1.0859a.7759.7759,0,0,0,.8272.8369,1.1978,1.1978,0,0,0,1.165-.8066.9071.9071,0,0,0,.0508-.2793Z"/><path d="M305.149,50.4715c0-.498-.0108-.9062-.04-1.3047h.7774l.05.7969h.0195a1.7756,1.7756,0,0,1,1.5947-.9072c.668,0,1.7031.3994,1.7031,2.0527v2.88h-.8759v-2.78c0-.7773-.2891-1.4248-1.1162-1.4248a1.286,1.286,0,0,0-1.2354,1.3057v2.8994h-.8769Z"/><path d="M314.8433,46.9149V52.744c0,.4277.01.916.0391,1.2451h-.7872l-.039-.8369h-.02a1.7824,1.7824,0,0,1-1.6436.9463,2.1984,2.1984,0,0,1-2.0625-2.4512,2.3075,2.3075,0,0,1,2.1621-2.5908,1.6156,1.6156,0,0,1,1.4551.7373h.0195V46.9149Zm-.877,4.2148a1.5254,1.5254,0,0,0-.04-.3691,1.29,1.29,0,0,0-1.2656-1.0166c-.9063,0-1.4444.7978-1.4444,1.8633,0,.9765.4786,1.7841,1.4248,1.7841a1.3177,1.3177,0,0,0,1.2852-1.0468,1.4959,1.4959,0,0,0,.04-.378Z"/><path d="M318.6382,46.9149h.877v3.0088h.0195a1.63,1.63,0,0,1,.6279-.6172,1.7931,1.7931,0,0,1,.8965-.25c.6475,0,1.6846.3994,1.6846,2.0625v2.87h-.877V51.22c0-.7774-.289-1.4356-1.1162-1.4356a1.259,1.259,0,0,0-1.1758.877,1.0645,1.0645,0,0,0-.06.4189v2.9092h-.877Z"/><path d="M328.5318,51.5379a2.357,2.357,0,0,1-2.4014,2.5606,2.292,2.292,0,0,1-2.3115-2.48,2.3551,2.3551,0,0,1,2.3916-2.5615A2.284,2.284,0,0,1,328.5318,51.5379Zm-3.8262.05c0,1.0567.6074,1.8535,1.4648,1.8535.837,0,1.4639-.7871,1.4639-1.873,0-.8174-.4082-1.8535-1.4443-1.8535S324.7056,50.6707,324.7056,51.5877Z"/><path d="M329.6363,50.6707c0-.5674-.01-1.0556-.0391-1.5039h.7676l.0293.9463h.04a1.4471,1.4471,0,0,1,1.335-1.0566.9621.9621,0,0,1,.249.03v.8272a1.3364,1.3364,0,0,0-.2988-.03,1.2305,1.2305,0,0,0-1.1758,1.126,2.5289,2.5289,0,0,0-.04.4092v2.57h-.8671Z"/><path d="M333.8706,47.8114a.543.543,0,0,1-1.0859,0,.5347.5347,0,0,1,.5488-.5479A.52.52,0,0,1,333.8706,47.8114Zm-.9765,6.1777V49.1668h.8769v4.8223Z"/><path d="M334.6773,53.4813l2.1826-2.84c.209-.26.4082-.4882.6279-.747v-.02h-2.6113v-.7071h3.6777l-.0107.5479-2.1524,2.8c-.1992.2685-.3984.5078-.6171.7568v.0205h2.8193v.6973h-3.916Z"/><path d="M343.854,51.5379a2.3569,2.3569,0,0,1-2.4013,2.5606,2.2921,2.2921,0,0,1-2.3116-2.48,2.3552,2.3552,0,0,1,2.3916-2.5615A2.2839,2.2839,0,0,1,343.854,51.5379Zm-3.8261.05c0,1.0567.6074,1.8535,1.4648,1.8535.8369,0,1.4639-.7871,1.4639-1.873,0-.8174-.4082-1.8535-1.4444-1.8535S340.0279,50.6707,340.0279,51.5877Z"/><path d="M344.9585,50.4715c0-.498-.01-.9062-.039-1.3047h.7773l.0488.7969h.02a1.7746,1.7746,0,0,1,1.5948-.9072c.667,0,1.7031.3994,1.7031,2.0527v2.88h-.877v-2.78c0-.7773-.289-1.4248-1.1152-1.4248a1.2893,1.2893,0,0,0-1.2363,1.3057v2.8994h-.877Z"/><path d="M351.5445,47.7811v1.3857H352.8v.667h-1.2558v2.6006c0,.5986.17.9365.6582.9365a1.9392,1.9392,0,0,0,.5078-.0595l.04.6582a2.1606,2.1606,0,0,1-.7773.1191,1.2158,1.2158,0,0,1-.9463-.3682,1.7836,1.7836,0,0,1-.3389-1.2558V49.8338h-.7471v-.667h.7471V48.0106Z"/><path d="M356.4566,53.9891l-.07-.6074h-.0293a1.7986,1.7986,0,0,1-1.4746.7168,1.3739,1.3739,0,0,1-1.4747-1.3848c0-1.166,1.0362-1.8037,2.9-1.7939v-.1a.9943.9943,0,0,0-1.0967-1.1152,2.3966,2.3966,0,0,0-1.2549.3584l-.1992-.5781a2.9925,2.9925,0,0,1,1.584-.4287c1.4746,0,1.833,1.0068,1.833,1.9736v1.8027a6.8216,6.8216,0,0,0,.08,1.1563Zm-.13-2.4609c-.9561-.0206-2.042.1494-2.042,1.0859a.7751.7751,0,0,0,.8262.8369,1.2,1.2,0,0,0,1.166-.8066.9054.9054,0,0,0,.05-.2793Z"/><path d="M358.5874,46.9149h.877v7.0742h-.877Z"/><path d="M366.7183,53.8094a3.2266,3.2266,0,0,1-1.3857.2793,2.2914,2.2914,0,0,1-2.4014-2.4609,2.4506,2.4506,0,0,1,2.5908-2.5606,2.9222,2.9222,0,0,1,1.2158.249l-.1992.6778a2.0269,2.0269,0,0,0-1.0166-.23,1.8181,1.8181,0,0,0-.03,3.6269,2.4943,2.4943,0,0,0,1.0762-.2392Z"/><path d="M372.107,51.5379a2.3567,2.3567,0,0,1-2.4,2.5606,2.2928,2.2928,0,0,1-2.3125-2.48,2.3557,2.3557,0,0,1,2.3916-2.5615A2.2835,2.2835,0,0,1,372.107,51.5379Zm-3.8262.05c0,1.0567.6084,1.8535,1.4648,1.8535.8379,0,1.4649-.7871,1.4649-1.873,0-.8174-.4082-1.8535-1.4444-1.8535S368.2808,50.6707,368.2808,51.5877Z"/><path d="M373.2124,50.4715c0-.498-.01-.9062-.039-1.3047h.7666l.04.7774h.0293a1.6632,1.6632,0,0,1,1.5156-.8877,1.4257,1.4257,0,0,1,1.3643.9668h.02a1.9807,1.9807,0,0,1,.5381-.628,1.6455,1.6455,0,0,1,1.0654-.3388c.6387,0,1.585.4189,1.585,2.0927v2.84h-.8574v-2.73c0-.9267-.3389-1.4844-1.0459-1.4844a1.1359,1.1359,0,0,0-1.0362.7969,1.4434,1.4434,0,0,0-.07.4385v2.98h-.8564v-2.89c0-.7675-.3389-1.3252-1.0069-1.3252a1.1983,1.1983,0,0,0-1.0859.877,1.2119,1.2119,0,0,0-.0693.4287v2.9092h-.8575Z"/><path d="M381.521,50.741c0-.6181-.0195-1.1162-.039-1.5742h.7871l.039.8272h.02a1.8964,1.8964,0,0,1,1.7139-.9375,2.1853,2.1853,0,0,1,2.043,2.4511c0,1.7344-1.0567,2.5909-2.1924,2.5909a1.689,1.689,0,0,1-1.4844-.7569h-.0205v2.62h-.8672Zm.8672,1.2852a1.9937,1.9937,0,0,0,.04.3584,1.3522,1.3522,0,0,0,1.3154,1.0264c.9267,0,1.4648-.7569,1.4648-1.8633,0-.9658-.5078-1.793-1.4355-1.793a1.5236,1.5236,0,0,0-1.3848,1.4444Z"/><path d="M391.5542,51.5379a2.3569,2.3569,0,0,1-2.4013,2.5606,2.2927,2.2927,0,0,1-2.3116-2.48,2.3557,2.3557,0,0,1,2.3916-2.5615A2.2839,2.2839,0,0,1,391.5542,51.5379Zm-3.8261.05c0,1.0567.6084,1.8535,1.4648,1.8535.8369,0,1.4648-.7871,1.4648-1.873,0-.8174-.4082-1.8535-1.4453-1.8535C388.1773,49.7147,387.7281,50.6707,387.7281,51.5877Z"/><path d="M392.66,50.4715c0-.498-.01-.9062-.04-1.3047h.7773l.05.7969h.0195a1.777,1.777,0,0,1,1.5948-.9072c.6679,0,1.7041.3994,1.7041,2.0527v2.88h-.877v-2.78c0-.7773-.289-1.4248-1.1162-1.4248a1.2856,1.2856,0,0,0-1.2353,1.3057v2.8994h-.877Z"/><path d="M398.6773,51.7371a1.5449,1.5449,0,0,0,1.6543,1.6739,3.17,3.17,0,0,0,1.3349-.2491l.1494.628a3.9033,3.9033,0,0,1-1.6044.2988,2.24,2.24,0,0,1-2.3711-2.4316,2.3412,2.3412,0,0,1,2.2617-2.6006,2.044,2.044,0,0,1,1.9931,2.2724,3.3542,3.3542,0,0,1-.03.4082Zm2.57-.6279a1.2481,1.2481,0,0,0-1.2149-1.4248,1.4538,1.4538,0,0,0-1.3457,1.4248Z"/><path d="M403.18,50.4715c0-.498-.0107-.9062-.04-1.3047h.7773l.05.7969h.0195a1.7758,1.7758,0,0,1,1.5948-.9072c.6679,0,1.7031.3994,1.7031,2.0527v2.88h-.876v-2.78c0-.7773-.289-1.4248-1.1162-1.4248a1.2856,1.2856,0,0,0-1.2353,1.3057v2.8994h-.877Z"/><path d="M409.7652,47.7811v1.3857h1.2558v.667h-1.2558v2.6006c0,.5986.17.9365.6582.9365a1.9392,1.9392,0,0,0,.5078-.0595l.04.6582a2.1566,2.1566,0,0,1-.7773.1191,1.2172,1.2172,0,0,1-.9463-.3682,1.7885,1.7885,0,0,1-.3389-1.2558V49.8338h-.747v-.667h.747V48.0106Z"/><path d="M411.8872,53.0926a2.3025,2.3025,0,0,0,1.1563.3486c.6377,0,.9365-.3193.9365-.7177,0-.418-.249-.6475-.8965-.8868-.8672-.3085-1.2754-.7871-1.2754-1.3652a1.487,1.487,0,0,1,1.6641-1.415,2.3986,2.3986,0,0,1,1.1855.3l-.22.6377a1.8719,1.8719,0,0,0-.9863-.2793c-.5186,0-.8076.2988-.8076.6572,0,.3984.289.5781.917.8174.8369.3183,1.2656.7373,1.2656,1.4551,0,.8466-.6572,1.4443-1.8037,1.4443a2.7509,2.7509,0,0,1-1.3545-.3291Z"/><path d="M173.0054,67.9364l-.07-.6075h-.0293a1.7981,1.7981,0,0,1-1.4746.7168,1.3738,1.3738,0,0,1-1.4746-1.3847c0-1.1661,1.0361-1.8037,2.8994-1.794v-.1a.9938.9938,0,0,0-1.0967-1.1152,2.3984,2.3984,0,0,0-1.2549.3584l-.1992-.5782a2.996,2.996,0,0,1,1.584-.4287c1.4746,0,1.834,1.0069,1.834,1.9737V66.78a6.8174,6.8174,0,0,0,.0791,1.1563Zm-.1289-2.461c-.957-.02-2.043.1494-2.043,1.086a.7756.7756,0,0,0,.8262.8369,1.1984,1.1984,0,0,0,1.166-.8067.906.906,0,0,0,.0508-.2793Z"/><path d="M175.1372,60.8621h.877v7.0743h-.877Z"/><path d="M177.4878,60.8621h.877v7.0743h-.877Z"/><path d="M184.2036,65.4852a2.3568,2.3568,0,0,1-2.4013,2.56,2.292,2.292,0,0,1-2.3115-2.48,2.3552,2.3552,0,0,1,2.3916-2.5616A2.284,2.284,0,0,1,184.2036,65.4852Zm-3.8261.05c0,1.0566.6074,1.8535,1.4648,1.8535.8369,0,1.4639-.7871,1.4639-1.873,0-.8174-.4082-1.8536-1.4444-1.8536S180.3775,64.618,180.3775,65.535Z"/><path d="M185.6577,63.1141l.6377,2.4512c.14.538.2686,1.0361.3584,1.5341h.0293c.11-.4882.27-1.0068.4287-1.5244l.7881-2.4609h.7364l.748,2.4111c.1787.5781.3184,1.086.4277,1.5742h.03a14.4234,14.4234,0,0,1,.3682-1.5644l.6875-2.4209h.8672l-1.5547,4.8223h-.7969l-.7373-2.3018a16.4013,16.4013,0,0,1-.4287-1.584h-.0195a14.2447,14.2447,0,0,1-.4385,1.5938l-.7774,2.292h-.7968l-1.4541-4.8223Z"/><path d="M192.521,67.04a2.3067,2.3067,0,0,0,1.1563.3486c.6377,0,.9365-.3193.9365-.7178,0-.4179-.249-.6474-.8965-.8867-.8672-.3086-1.2754-.7871-1.2754-1.3652a1.4876,1.4876,0,0,1,1.6641-1.4151,2.3967,2.3967,0,0,1,1.1855.3l-.22.6377a1.8689,1.8689,0,0,0-.9863-.2793c-.5176,0-.8067.2989-.8067.6573,0,.3984.2891.5781.9161.8174.8378.3183,1.2656.7373,1.2656,1.455,0,.8467-.6572,1.4444-1.8028,1.4444a2.7517,2.7517,0,0,1-1.3554-.3291Z"/><path d="M202.9624,66.6209c0,.4981.0108.9365.041,1.3155h-.7773l-.0508-.7872h-.0195a1.813,1.813,0,0,1-1.5938.8965c-.7578,0-1.664-.4179-1.664-2.1123V63.1141h.8769v2.67c0,.917.2784,1.5342,1.0762,1.5342a1.2662,1.2662,0,0,0,1.1553-.7969,1.28,1.28,0,0,0,.08-.4482v-2.959h.8759Z"/><path d="M204.2974,67.04a2.3028,2.3028,0,0,0,1.1553.3486c.6386,0,.9375-.3193.9375-.7178,0-.4179-.25-.6474-.8975-.8867-.8662-.3086-1.2754-.7871-1.2754-1.3652a1.4875,1.4875,0,0,1,1.6641-1.4151,2.3967,2.3967,0,0,1,1.1855.3l-.2187.6377a1.8724,1.8724,0,0,0-.9864-.2793c-.5185,0-.8076.2989-.8076.6573,0,.3984.2891.5781.917.8174.8369.3183,1.2656.7373,1.2656,1.455,0,.8467-.6572,1.4444-1.8037,1.4444a2.7517,2.7517,0,0,1-1.3554-.3291Z"/><path d="M211.7593,61.7283v1.3858h1.2559v.667h-1.2559v2.6006c0,.5986.17.9365.6582.9365a1.934,1.934,0,0,0,.5078-.06l.04.6582a2.1586,2.1586,0,0,1-.7774.1192,1.2158,1.2158,0,0,1-.9463-.3682,1.7839,1.7839,0,0,1-.3388-1.2559V63.7811h-.7471v-.667h.7471V61.9578Z"/><path d="M218.3257,65.4852a2.3575,2.3575,0,0,1-2.4023,2.56,2.2918,2.2918,0,0,1-2.3106-2.48,2.3551,2.3551,0,0,1,2.3906-2.5616A2.2848,2.2848,0,0,1,218.3257,65.4852Zm-3.8262.05c0,1.0566.6075,1.8535,1.4649,1.8535.8359,0,1.4639-.7871,1.4639-1.873,0-.8174-.4082-1.8536-1.4444-1.8536S214.5,64.618,214.5,65.535Z"/><path d="M221.8609,67.9364V63.7811h-.6778v-.667h.6778v-.23a2.2743,2.2743,0,0,1,.5586-1.6836,1.6749,1.6749,0,0,1,1.1757-.4482,2.0427,2.0427,0,0,1,.7471.1386l-.12.6778a1.3088,1.3088,0,0,0-.5576-.1094c-.7471,0-.9365.6572-.9365,1.3945v.26h1.166v.667h-1.166v4.1553Z"/><path d="M229.0445,65.4852a2.3569,2.3569,0,0,1-2.4014,2.56,2.2925,2.2925,0,0,1-2.3115-2.48,2.3558,2.3558,0,0,1,2.3916-2.5616A2.2841,2.2841,0,0,1,229.0445,65.4852Zm-3.8262.05c0,1.0566.6084,1.8535,1.4648,1.8535.837,0,1.4649-.7871,1.4649-1.873,0-.8174-.4082-1.8536-1.4453-1.8536C225.6675,63.6619,225.2183,64.618,225.2183,65.535Z"/><path d="M230.15,64.618c0-.5674-.01-1.0557-.04-1.5039h.7676l.03.9463h.0391a1.449,1.449,0,0,1,1.3359-1.0567.9542.9542,0,0,1,.2481.03v.8272a1.3249,1.3249,0,0,0-.2988-.03,1.2312,1.2312,0,0,0-1.1758,1.126,2.5339,2.5339,0,0,0-.0391.4091v2.57H230.15Z"/><path d="M233.4077,64.4188c0-.4981-.01-.9063-.04-1.3047h.7676l.04.7773h.0293a1.6629,1.6629,0,0,1,1.5147-.8877,1.4271,1.4271,0,0,1,1.3652.9668h.02a1.9781,1.9781,0,0,1,.5371-.6279,1.65,1.65,0,0,1,1.0664-.3389c.6377,0,1.584.419,1.584,2.0928v2.84h-.8564V65.2059c0-.9268-.3389-1.4844-1.0459-1.4844a1.138,1.138,0,0,0-1.0371.7969,1.4728,1.4728,0,0,0-.0694.4385v2.98h-.8564v-2.89c0-.7676-.3389-1.3252-1.0069-1.3252a1.1984,1.1984,0,0,0-1.0859.877,1.2115,1.2115,0,0,0-.0693.4287v2.9092h-.8575Z"/><path d="M245.1138,61.7283v1.3858H246.37v.667h-1.2559v2.6006c0,.5986.17.9365.6582.9365a1.928,1.928,0,0,0,.5078-.06l.04.6582a2.1586,2.1586,0,0,1-.7774.1192,1.2172,1.2172,0,0,1-.9463-.3682,1.7888,1.7888,0,0,1-.3388-1.2559V63.7811H243.51v-.667h.7471V61.9578Z"/><path d="M247.7046,63.1141l.6367,2.4512c.14.538.27,1.0361.3594,1.5341h.0293c.1094-.4882.27-1.0068.4287-1.5244l.7871-2.4609h.7373l.7481,2.4111c.1787.5781.3183,1.086.4277,1.5742h.03a14.4234,14.4234,0,0,1,.3682-1.5644l.6875-2.4209h.8671l-1.5546,4.8223h-.7969l-.7373-2.3018a16.3725,16.3725,0,0,1-.4287-1.584h-.02a14.2235,14.2235,0,0,1-.4384,1.5938l-.7774,2.292h-.7969l-1.455-4.8223Z"/><path d="M259.0025,65.4852a2.3569,2.3569,0,0,1-2.4014,2.56,2.292,2.292,0,0,1-2.3115-2.48,2.3552,2.3552,0,0,1,2.3916-2.5616A2.2841,2.2841,0,0,1,259.0025,65.4852Zm-3.8262.05c0,1.0566.6074,1.8535,1.4648,1.8535.837,0,1.4639-.7871,1.4639-1.873,0-.8174-.4082-1.8536-1.4443-1.8536S255.1763,64.618,255.1763,65.535Z"/><path d="M262.937,65.6844a1.545,1.545,0,0,0,1.6543,1.6738,3.17,3.17,0,0,0,1.335-.249l.1494.6279a3.9019,3.9019,0,0,1-1.6045.2989A2.24,2.24,0,0,1,262.1,65.6043a2.3412,2.3412,0,0,1,2.2617-2.6006,2.0441,2.0441,0,0,1,1.9932,2.2725,3.33,3.33,0,0,1-.03.4082Zm2.57-.6279a1.2482,1.2482,0,0,0-1.2149-1.4248,1.4537,1.4537,0,0,0-1.3457,1.4248Z"/><path d="M270.7281,67.1893h-.02a1.7178,1.7178,0,0,1-1.5752.8564,2.1989,2.1989,0,0,1-2.042-2.4414,2.3113,2.3113,0,0,1,2.1817-2.6006,1.5829,1.5829,0,0,1,1.4844.8379h.02l.03-.7275h.8262c-.0195.4082-.0293.8271-.0293,1.3252v5.47h-.8769Zm0-2.1231a1.4712,1.4712,0,0,0-.04-.3681,1.2812,1.2812,0,0,0-1.2549-.9961c-.9072,0-1.455.7666-1.455,1.8525,0,.9571.458,1.794,1.4248,1.794a1.3058,1.3058,0,0,0,1.2548-.9561,1.4692,1.4692,0,0,0,.07-.4189Z"/><path d="M277.0835,66.6209c0,.4981.0108.9365.041,1.3155h-.7773l-.0508-.7872h-.0195a1.813,1.813,0,0,1-1.5938.8965c-.7578,0-1.664-.4179-1.664-2.1123V63.1141h.8769v2.67c0,.917.2783,1.5342,1.0762,1.5342a1.2662,1.2662,0,0,0,1.1553-.7969,1.28,1.28,0,0,0,.08-.4482v-2.959h.8759Z"/><path d="M281.2085,67.9364l-.07-.6075h-.0293a1.7981,1.7981,0,0,1-1.4746.7168A1.3738,1.3738,0,0,1,278.16,66.661c0-1.1661,1.0361-1.8037,2.8994-1.794v-.1a.9938.9938,0,0,0-1.0967-1.1152,2.398,2.398,0,0,0-1.2548.3584l-.1993-.5782a2.9963,2.9963,0,0,1,1.584-.4287c1.4746,0,1.834,1.0069,1.834,1.9737V66.78a6.8174,6.8174,0,0,0,.0791,1.1563Zm-.1289-2.461c-.957-.02-2.0429.1494-2.0429,1.086a.7756.7756,0,0,0,.8261.8369,1.1983,1.1983,0,0,0,1.166-.8067.906.906,0,0,0,.0508-.2793Z"/><path d="M284.396,61.7283v1.3858h1.2559v.667H284.396v2.6006c0,.5986.17.9365.6582.9365a1.9334,1.9334,0,0,0,.5078-.06l.04.6582a2.1582,2.1582,0,0,1-.7774.1192,1.2159,1.2159,0,0,1-.9463-.3682,1.7839,1.7839,0,0,1-.3388-1.2559V63.7811h-.7471v-.667h.7471V61.9578Z"/><path d="M287.6138,61.7586a.543.543,0,0,1-1.0859,0,.5344.5344,0,0,1,.5478-.5478A.52.52,0,0,1,287.6138,61.7586Zm-.9766,6.1778V63.1141h.877v4.8223Z"/><path d="M293.3335,65.4852a2.3575,2.3575,0,0,1-2.4023,2.56,2.2918,2.2918,0,0,1-2.3106-2.48,2.3551,2.3551,0,0,1,2.3907-2.5616A2.2848,2.2848,0,0,1,293.3335,65.4852Zm-3.8261.05c0,1.0566.6074,1.8535,1.4648,1.8535.8359,0,1.4639-.7871,1.4639-1.873,0-.8174-.4082-1.8536-1.4444-1.8536S289.5074,64.618,289.5074,65.535Z"/><path d="M294.438,64.4188c0-.4981-.01-.9063-.04-1.3047h.7773l.0508.7969h.02a1.7742,1.7742,0,0,1,1.5938-.9073c.668,0,1.7041.3995,1.7041,2.0528v2.88h-.877v-2.78c0-.7774-.289-1.4248-1.1162-1.4248a1.2471,1.2471,0,0,0-1.1758.8974,1.2821,1.2821,0,0,0-.06.4082v2.9h-.877Z"/><path d="M299.8482,67.04a2.3,2.3,0,0,0,1.1552.3486c.6377,0,.9366-.3193.9366-.7178,0-.4179-.2491-.6474-.8965-.8867-.8672-.3086-1.2754-.7871-1.2754-1.3652a1.4875,1.4875,0,0,1,1.6641-1.4151,2.397,2.397,0,0,1,1.1855.3l-.2187.6377a1.8733,1.8733,0,0,0-.9873-.2793c-.5176,0-.8067.2989-.8067.6573,0,.3984.2891.5781.917.8174.8369.3183,1.2647.7373,1.2647,1.455,0,.8467-.6573,1.4444-1.8028,1.4444a2.7524,2.7524,0,0,1-1.3555-.3291Z"/><path d="M303.7036,63.911a.5938.5938,0,1,1,1.1856,0,.5933.5933,0,1,1-1.1856,0Zm0,3.5175a.5938.5938,0,1,1,1.1856,0,.5933.5933,0,1,1-1.1856,0Z"/><g class="cls-18"><polyline class="cls-6" points="382.177 80.341 382.177 145.374 317.144 145.374"/><polygon points="382.177 78.023 380.939 81.304 382.177 80.221 383.416 81.304 382.177 78.023"/><polygon class="cls-6" points="382.177 78.023 380.939 81.304 382.177 80.221 383.416 81.304 382.177 78.023"/><polygon points="314.826 145.374 318.107 146.612 317.024 145.374 318.107 144.136 314.826 145.374"/><polygon class="cls-6" points="314.826 145.374 318.107 146.612 317.024 145.374 318.107 144.136 314.826 145.374"/><polyline class="cls-6" points="378.436 145.374 378.436 141.632 382.177 141.632"/><path d="M391.21,100.9394h-.1077a4.16,4.16,0,0,0,.0337-.4778c0-.4441-.39-.4778-.6662-.4778h-.66l-.895,3.62a.75.75,0,0,0-.0336.1683c0,.1413.1077.2489.5114.2489h.1413l-.0269.1077h-2.2139l.027-.1077h.1211c.5249,0,.6594-.1884.7133-.4172l.8949-3.62h-.6123a1.1982,1.1982,0,0,0-1.1507.9556h-.1076l.31-1.2045H391.52Z"/><path d="M393.3159,103.5233a1.5567,1.5567,0,0,0,.7813.2353c.4307,0,.6318-.2148.6318-.4844,0-.2832-.1679-.4375-.6054-.5986-.585-.209-.8614-.5322-.8614-.9219a1.0046,1.0046,0,0,1,1.1241-.956,1.627,1.627,0,0,1,.8007.2021l-.1484.4307a1.2609,1.2609,0,0,0-.666-.1885c-.35,0-.5449.2022-.5449.4444,0,.2685.1953.39.6191.5517.5654.2149.8545.4981.8545.9824,0,.5713-.4443.9756-1.2178.9756a1.8651,1.8651,0,0,1-.915-.2217Z"/><path d="M396.7193,99.9569a.3667.3667,0,0,1-.7334,0,.3609.3609,0,0,1,.37-.37A.3515.3515,0,0,1,396.7193,99.9569Zm-.6592,4.1718v-3.2568h.5918v3.2568Z"/><path d="M397.6333,101.7537c0-.3369-.0068-.6123-.0263-.8818h.5244l.0342.5381h.0136a1.1966,1.1966,0,0,1,1.0762-.6123c.4512,0,1.15.2695,1.15,1.3867v1.9443h-.5918v-1.8769c0-.5254-.1953-.9629-.7539-.9629a.8413.8413,0,0,0-.794.6055.87.87,0,0,0-.04.2763v1.958h-.5928Z"/><path d="M404.7906,100.1717a2.1062,2.1062,0,0,0-.4444.0274,1.7759,1.7759,0,0,0-1.5205,1.5546h.0195a1.3329,1.3329,0,0,1,2.375.9082,1.4625,1.4625,0,0,1-1.4531,1.5411c-.9355,0-1.5478-.7266-1.5478-1.8643a2.75,2.75,0,0,1,.74-1.9717,2.3845,2.3845,0,0,1,1.3994-.6455,2.8185,2.8185,0,0,1,.4317-.0342Zm-.169,2.5234a.8879.8879,0,0,0-.9014-1.0019.9734.9734,0,0,0-.8476.5381.4975.4975,0,0,0-.0674.2627c.0127.72.3428,1.2509.9619,1.2509C404.2788,103.7449,404.6216,103.3211,404.6216,102.6951Z"/><path d="M408.65,101.8944c0,1.4873-.5517,2.3086-1.5205,2.3086-.8545,0-1.4336-.8008-1.4463-2.2481,0-1.4668.6319-2.2744,1.52-2.2744C408.1255,99.6805,408.65,100.5018,408.65,101.8944Zm-2.375.0673c0,1.1377.35,1.7832.8887,1.7832.6055,0,.8945-.706.8945-1.8232,0-1.0771-.2754-1.7832-.8886-1.7832C406.6519,100.1385,406.2749,100.7713,406.2749,101.9617Z"/><path d="M408.5992,98.4852h2.35v3.29h-2.35Zm.2343,2.8437.8-1.1982-.8-1.1992Zm1.7393-2.6084h-1.5977l.7989,1.1983Zm0,2.8194-.7988-1.1983-.7989,1.1983Zm.1416-.211V98.9315l-.7988,1.1992Z"/><path d="M388.9605,116.2733v-.4043h3.4726v.4043Zm0,1.3183v-.4033h3.4726v.4033Z"/><path d="M398.232,108.1112h-.4307L396.732,105.23l-.5049.2158-.1279-.3164.9287-.3906.8271,2.3291a2.9679,2.9679,0,0,1,.1279.4307h.0137c.0205-.1153.0537-.29.0869-.4375l1.252-5.1553h.4443Z"/><line class="cls-19" x1="402.1244" y1="107.2496" x2="405.4868" y2="107.2496"/><path d="M402.5679,113.285a1.9809,1.9809,0,0,0,.9688.2764c.7607,0,.996-.4854.99-.8487-.0078-.6123-.5586-.874-1.1309-.874h-.33v-.4443h.33c.4307,0,.9756-.2227.9756-.74,0-.35-.2217-.6592-.7666-.6592a1.6008,1.6008,0,0,0-.875.2891l-.1553-.4307a2.0834,2.0834,0,0,1,1.1436-.3369c.8613,0,1.2519.5118,1.2519,1.043a1.0872,1.0872,0,0,1-.8076,1.03v.0127a1.14,1.14,0,0,1,.9756,1.124c0,.7-.5449,1.3125-1.5937,1.3125a2.2311,2.2311,0,0,1-1.1377-.2959Z"/><line class="cls-19" x1="395.8838" y1="116.8598" x2="405.4868" y2="116.8598"/><path d="M399.3062,123.2479v-.3633l.4648-.4512c1.1172-1.0625,1.6211-1.6279,1.628-2.2881a.7809.7809,0,0,0-.8682-.8545,1.4929,1.4929,0,0,0-.9287.37l-.1885-.417a1.92,1.92,0,0,1,1.2383-.4444,1.2315,1.2315,0,0,1,1.34,1.2725c0,.8066-.5859,1.46-1.5078,2.3477l-.35.3232v.0137h1.9649v.4912Z"/><path d="M410.4028,115.3514h-.1077a4.16,4.16,0,0,0,.0337-.4778c0-.4441-.39-.4777-.6662-.4777h-.6595l-.8949,3.62a.7445.7445,0,0,0-.0337.1682c0,.1414.1077.249.5114.249h.1413l-.0269.1077h-2.2138l.0269-.1077h.1211c.5249,0,.6594-.1884.7133-.4172l.8949-3.62H407.63a1.1981,1.1981,0,0,0-1.1507.9555h-.1077l.31-1.2045h4.0307Z"/><path d="M339.628,153.6614H339.52a4.16,4.16,0,0,0,.0337-.4778c0-.4441-.39-.4778-.6662-.4778h-.66l-.8949,3.62a.7442.7442,0,0,0-.0337.1683c0,.1413.1077.2489.5114.2489h.1414l-.027.1077h-2.2139l.027-.1077h.1211c.5249,0,.6594-.1884.7133-.4172l.895-3.62h-.6124a1.1982,1.1982,0,0,0-1.1507.9556h-.1077l.31-1.2045h4.0307Z"/><path d="M344.1372,156.73a2.1776,2.1776,0,0,1-.9355.1885,1.5476,1.5476,0,0,1-1.6221-1.6621,1.6549,1.6549,0,0,1,1.75-1.73,1.9885,1.9885,0,0,1,.82.1679l-.1338.4581a1.3692,1.3692,0,0,0-.6865-.1553,1.2283,1.2283,0,0,0-.0205,2.45,1.6841,1.6841,0,0,0,.7276-.1621Z"/><path d="M347.7749,155.1961a1.5917,1.5917,0,0,1-1.6211,1.73,1.5489,1.5489,0,0,1-1.5615-1.6758,1.591,1.591,0,0,1,1.6153-1.73A1.5419,1.5419,0,0,1,347.7749,155.1961Zm-2.584.0332c0,.7139.4112,1.252.99,1.252.5644,0,.9883-.5313.9883-1.2647,0-.5517-.2754-1.2519-.9756-1.2519S345.1909,154.61,345.1909,155.2293Z"/><path d="M348.439,156.2459a1.5557,1.5557,0,0,0,.7812.2354c.4307,0,.6319-.2149.6319-.4844,0-.2832-.168-.4375-.6055-.5986-.5849-.209-.8613-.5323-.8613-.9219a1.0046,1.0046,0,0,1,1.124-.9561,1.6273,1.6273,0,0,1,.8008.2022l-.1484.4307a1.2613,1.2613,0,0,0-.6661-.1885c-.35,0-.5449.2021-.5449.4443,0,.2686.1953.39.6192.5518.5654.2148.8544.498.8544.9824,0,.5713-.4443.9756-1.2177.9756a1.8655,1.8655,0,0,1-.9151-.2217Z"/><path d="M354.607,152.8944a2.0964,2.0964,0,0,0-.4434.0273,1.7782,1.7782,0,0,0-1.5215,1.5547h.02a1.3335,1.3335,0,0,1,2.376.9082,1.4632,1.4632,0,0,1-1.4541,1.541c-.9355,0-1.5478-.7265-1.5478-1.8642a2.75,2.75,0,0,1,.74-1.9717,2.3811,2.3811,0,0,1,1.4-.6455,2.782,2.782,0,0,1,.43-.0342Zm-.168,2.5234a.8879.8879,0,0,0-.9014-1.002.9734.9734,0,0,0-.8476.5381.4975.4975,0,0,0-.0674.2627c.0137.72.3428,1.251.9619,1.251C354.0962,156.4676,354.439,156.0438,354.439,155.4178Z"/><path d="M358.4673,154.617c0,1.4873-.5517,2.3086-1.5205,2.3086-.8545,0-1.4336-.8008-1.4473-2.248,0-1.4668.6329-2.2744,1.5215-2.2744C357.9429,152.4032,358.4673,153.2244,358.4673,154.617Zm-2.375.0674c0,1.1377.35,1.7832.8877,1.7832.6065,0,.8955-.706.8955-1.8232,0-1.0772-.2763-1.7832-.8877-1.7832C356.4693,152.8612,356.0923,153.494,356.0923,154.6844Z"/><path d="M358.1343,151.2069h2.35v3.29h-2.35Zm.2344,2.8437.7988-1.1982-.7988-1.1992Zm1.7392-2.6084h-1.5986l.7988,1.1983Zm0,2.8194-.8-1.1983-.7988,1.1983Zm.1407-.211v-2.3974l-.7989,1.1992Z"/><path d="M337.3784,165.5994v-.4043h3.4727v.4043Zm0,1.3184v-.4033h3.4727v.4033Z"/><path d="M345.8892,160.1434h-.0127l-.7607.41-.1143-.45.9551-.5117h.5049v4.3741h-.5723Z"/><line class="cls-19" x1="344.3018" y1="166.1852" x2="347.6642" y2="166.1852"/><path d="M344.604,172.5731V172.21l.4639-.4512c1.1172-1.0625,1.6221-1.6279,1.6289-2.2881a.78.78,0,0,0-.8682-.8545,1.491,1.491,0,0,0-.9287.37l-.1884-.417a1.92,1.92,0,0,1,1.2382-.4444,1.2308,1.2308,0,0,1,1.3389,1.2725c0,.8076-.585,1.46-1.5068,2.3476l-.3506.3233v.0137h1.9658v.4912Z"/><path d="M352.5808,164.6768h-.1077a4.16,4.16,0,0,0,.0337-.4778c0-.4441-.39-.4777-.6662-.4777h-.6595l-.895,3.62a.75.75,0,0,0-.0336.1683c0,.1413.1077.2489.5114.2489h.1413l-.0269.1077h-2.2139l.0269-.1077h.1212c.5248,0,.6594-.1884.7133-.4172l.8949-3.62h-.6123a1.1981,1.1981,0,0,0-1.1507.9555H348.55l.31-1.2045H352.89Z"/><polyline class="cls-7" points="382.177 85.443 382.177 145.374 322.246 145.374"/><polygon class="cls-8" points="382.177 83.125 380.939 86.406 382.177 85.324 383.416 86.406 382.177 83.125"/><polygon class="cls-7" points="382.177 83.125 380.939 86.406 382.177 85.324 383.416 86.406 382.177 83.125"/><polygon class="cls-8" points="319.929 145.374 323.21 146.612 322.127 145.374 323.21 144.136 319.929 145.374"/><polygon class="cls-7" points="319.929 145.374 323.21 146.612 322.127 145.374 323.21 144.136 319.929 145.374"/><line class="cls-20" x1="292.2448" y1="119.8621" x2="280.1288" y2="119.8621"/><line class="cls-21" x1="292.2448" y1="119.8621" x2="280.1288" y2="119.8621"/><polygon points="296.168 119.862 290.573 117.753 292.415 119.862 290.573 121.971 296.168 119.862"/><polygon class="cls-22" points="296.168 119.862 290.573 117.753 292.415 119.862 290.573 121.971 296.168 119.862"/><polyline class="cls-6" points="230.609 89.062 263.121 145.374 198.087 145.374"/><polygon points="229.446 87.048 230.016 90.52 230.549 88.958 232.168 89.277 229.446 87.048"/><polygon class="cls-23" points="229.446 87.048 230.016 90.52 230.549 88.958 232.168 89.277 229.446 87.048"/><polygon points="195.769 145.374 199.051 146.612 197.968 145.374 199.051 144.136 195.769 145.374"/><polygon class="cls-6" points="195.769 145.374 199.051 146.612 197.968 145.374 199.051 144.136 195.769 145.374"/><path class="cls-6" d="M257.1682,135.0638a11.9066,11.9066,0,0,0-5.953,10.31"/><path d="M244.6822,134.1912a2.1062,2.1062,0,0,0-.4444.0274,1.7761,1.7761,0,0,0-1.52,1.5547h.02a1.3329,1.3329,0,0,1,2.375.9082,1.4624,1.4624,0,0,1-1.4531,1.541c-.9355,0-1.5479-.7266-1.5479-1.8643a2.75,2.75,0,0,1,.74-1.9716,2.3812,2.3812,0,0,1,1.3994-.6456,2.804,2.804,0,0,1,.4307-.0341Zm-.168,2.5235a.888.888,0,0,0-.9014-1.002.9737.9737,0,0,0-.8486.5381.5069.5069,0,0,0-.0674.2627c.0137.72.3438,1.251.9629,1.251C244.17,137.7645,244.5142,137.3407,244.5142,136.7147Z"/><path d="M248.5425,135.9139c0,1.4873-.5517,2.3086-1.5215,2.3086-.8535,0-1.4326-.8008-1.4463-2.2481,0-1.4668.6329-2.2744,1.52-2.2744C248.0171,133.7,248.5425,134.5213,248.5425,135.9139Zm-2.375.0674c0,1.1377.35,1.7832.8877,1.7832.6055,0,.8955-.7061.8955-1.8233,0-1.0771-.2764-1.7832-.8887-1.7832C246.5435,134.158,246.1675,134.7908,246.1675,135.9813Z"/><path d="M248.607,132.5047h2.3506v3.29H248.607Zm.2353,2.8438.7988-1.1983-.7988-1.1992Zm1.7393-2.6084h-1.5977l.7988,1.1982Zm0,2.8193-.7989-1.1982-.7988,1.1982Zm.1406-.2109V132.951l-.7988,1.1992Z"/><path d="M256.43,110.4152h-.1077a4.16,4.16,0,0,0,.0337-.4778c0-.4441-.39-.4778-.6662-.4778h-.66l-.8949,3.62a.7442.7442,0,0,0-.0337.1683c0,.1413.1077.2489.5114.2489h.1413l-.0269.1077h-2.2139l.027-.1077h.1211c.5249,0,.6594-.1884.7133-.4172l.8949-3.62h-.6123a1.1982,1.1982,0,0,0-1.1507.9556h-.1077l.31-1.2045H256.74Z"/><line class="cls-7" x1="263.1208" y1="145.3742" x2="234.1809" y2="95.2543"/><polygon class="cls-8" points="233.018 93.241 233.588 96.712 234.121 95.15 235.74 95.47 233.018 93.241"/><polygon class="cls-24" points="233.018 93.241 233.588 96.712 234.121 95.15 235.74 95.47 233.018 93.241"/></g><path d="M187.1831,182.6248l-2.1923-6.7158h.9365l1.0459,3.3086c.289.9063.5381,1.7236.7177,2.5107h.02c.1894-.7773.4687-1.624.7676-2.5009l1.1357-3.3184h.9268l-2.4014,6.7158Z"/><path d="M191.0874,180.3729a1.5454,1.5454,0,0,0,1.6543,1.6738,3.1737,3.1737,0,0,0,1.336-.249l.1484.6279a3.8966,3.8966,0,0,1-1.6035.2988,2.24,2.24,0,0,1-2.3711-2.4316,2.3412,2.3412,0,0,1,2.2617-2.6006,2.0434,2.0434,0,0,1,1.9922,2.2725,3.3741,3.3741,0,0,1-.0293.4082Zm2.5713-.628a1.2489,1.2489,0,0,0-1.2158-1.4248,1.4527,1.4527,0,0,0-1.3447,1.4248Z"/><path d="M195.5913,179.3065c0-.5674-.01-1.0557-.04-1.5039h.7666l.03.9463h.04a1.447,1.447,0,0,1,1.335-1.0567.9675.9675,0,0,1,.249.03v.8271a1.3433,1.3433,0,0,0-.2988-.03,1.23,1.23,0,0,0-1.1758,1.1259,2.5307,2.5307,0,0,0-.04.4092v2.57h-.8663Z"/><path d="M199.9048,176.4168v1.3858H201.16v.667h-1.2549v2.6c0,.5977.169.9366.6572.9366a1.9289,1.9289,0,0,0,.5079-.06l.041.6582a2.1652,2.1652,0,0,1-.7774.1191,1.2176,1.2176,0,0,1-.9472-.3681,1.79,1.79,0,0,1-.3379-1.2559V178.47H198.3v-.667h.7481v-1.1563Z"/><path d="M203.1226,176.4471a.543.543,0,0,1-1.0859,0,.5339.5339,0,0,1,.5478-.5479A.52.52,0,0,1,203.1226,176.4471Zm-.9766,6.1777v-4.8222h.877v4.8222Z"/><path d="M207.9156,182.4451a3.2253,3.2253,0,0,1-1.3858.2793,2.2914,2.2914,0,0,1-2.4014-2.4609,2.4506,2.4506,0,0,1,2.5909-2.56,2.9229,2.9229,0,0,1,1.2158.249l-.1992.6777a2.0269,2.0269,0,0,0-1.0166-.23,1.8182,1.8182,0,0,0-.03,3.627,2.4948,2.4948,0,0,0,1.0762-.2393Z"/><path d="M211.6109,182.6248l-.07-.6074h-.0293a1.7986,1.7986,0,0,1-1.4746.7168,1.3739,1.3739,0,0,1-1.4747-1.3848c0-1.166,1.0362-1.8037,2.8995-1.7939v-.1a.9938.9938,0,0,0-1.0967-1.1152,2.4076,2.4076,0,0,0-1.2549.3584l-.1992-.5782a2.9948,2.9948,0,0,1,1.584-.4287c1.4746,0,1.8339,1.0069,1.8339,1.9736v1.8028a6.8273,6.8273,0,0,0,.0791,1.1562Zm-.1289-2.4609c-.9571-.02-2.043.1494-2.043,1.0859a.7756.7756,0,0,0,.8262.8369,1.1983,1.1983,0,0,0,1.166-.8066.906.906,0,0,0,.0508-.2793Z"/><path d="M213.7427,175.5506h.877v7.0742h-.877Z"/><path d="M218.4644,175.909h3.6172v.7276h-2.75v2.2314h2.541v.7178h-2.541v3.039h-.8672Z"/><path d="M227.2622,180.1737a2.3568,2.3568,0,0,1-2.4013,2.56,2.2926,2.2926,0,0,1-2.3116-2.48,2.3552,2.3552,0,0,1,2.3916-2.5615A2.284,2.284,0,0,1,227.2622,180.1737Zm-3.8261.05c0,1.0566.6084,1.8535,1.4648,1.8535.8369,0,1.4649-.7871,1.4649-1.8731,0-.8173-.4092-1.8535-1.4454-1.8535S223.4361,179.3065,223.4361,180.2235Z"/><path d="M228.3677,179.3065c0-.5674-.0107-1.0557-.04-1.5039h.7675l.0293.9463h.04a1.4479,1.4479,0,0,1,1.3349-1.0567.9744.9744,0,0,1,.25.03v.8271a1.3457,1.3457,0,0,0-.3-.03,1.2312,1.2312,0,0,0-1.1757,1.1259,2.5188,2.5188,0,0,0-.04.4092v2.57h-.8662Z"/><path d="M234.9732,182.4451a3.22,3.22,0,0,1-1.3848.2793,2.2909,2.2909,0,0,1-2.4014-2.4609,2.45,2.45,0,0,1,2.59-2.56,2.9229,2.9229,0,0,1,1.2158.249l-.1992.6777a2.0269,2.0269,0,0,0-1.0166-.23,1.8182,1.8182,0,0,0-.0293,3.627,2.4948,2.4948,0,0,0,1.0762-.2393Z"/><path d="M236.4868,180.3729a1.5454,1.5454,0,0,0,1.6543,1.6738,3.165,3.165,0,0,0,1.335-.249l.1494.6279a3.9022,3.9022,0,0,1-1.6045.2988,2.24,2.24,0,0,1-2.3711-2.4316,2.3418,2.3418,0,0,1,2.2618-2.6006,2.0441,2.0441,0,0,1,1.9931,2.2725,3.3313,3.3313,0,0,1-.03.4082Zm2.5713-.628a1.2489,1.2489,0,0,0-1.2158-1.4248,1.4527,1.4527,0,0,0-1.3447,1.4248Z"/><path d="M240.8706,181.7283a2.2993,2.2993,0,0,0,1.1563.3487c.6367,0,.9355-.3194.9355-.7178,0-.418-.248-.6475-.8965-.8867-.8671-.3086-1.2753-.7871-1.2753-1.3652a1.4875,1.4875,0,0,1,1.664-1.4151,2.3974,2.3974,0,0,1,1.1856.3l-.2188.6377a1.8719,1.8719,0,0,0-.9863-.2793c-.5186,0-.8076.2988-.8076.6572,0,.3985.289.5782.917.8174.8369.3184,1.2656.7373,1.2656,1.4551,0,.8467-.6582,1.4443-1.8037,1.4443a2.7445,2.7445,0,0,1-1.3545-.3291Z"/><path d="M173.2449,199.3924v.05c.3587.2491.5579.7573,1.375,2.3017a.8753.8753,0,0,0,.9167.5082l-.06.2989h-1.5145c-.7473-1.6441-.9566-2.0626-1.2655-2.67-.1494-.2789-.279-.3387-.6377-.3387H171.85l-.3687,1.7736c-.1694.827-.06.9366.7972.9366l-.05.2989h-2.75l.06-.2989c.7373,0,.8867-.1,1.0561-.9366l.8769-4.2746c.11-.548.05-.7373-.7473-.7373l.06-.2989h2.3415c1.3949,0,2.212.4085,2.212,1.375C175.3373,198.7846,174.1117,199.243,173.2449,199.3924Zm-1.3253-.2192.3089.01c1.1957-.04,2.1224-.4883,2.1224-1.7637,0-.538-.299-1.0263-1.2854-1.0263a5.396,5.396,0,0,0-.5879.03Z"/><path d="M180.02,200.6822c.16-.2162.272-.37.272-.4951,0-.1325-.1325-.1674-.4393-.1674l.0348-.2789h1.6946l-.0349.2789c-.4045,0-.5579.0976-1.053.7183l-3.1658,3.9468h-.3069l-.0558-3.9747c-.0139-.5021-.1324-.69-.509-.69l.0488-.2789h1.8619l-.0419.2789a.57.57,0,0,0-.6345.6v.1465l.0279,2.1338-.0419.774h.0558Z"/><path d="M188.0577,200.3091V202.95H187.34v-2.6405H184.73v-.6776H187.34v-2.64h.7174v2.64h2.6106v.6776Zm10.9094-2.5807c0-1.0861-.04-1.3352-1.1459-1.3352h-.5679l-.9865,4.8525c-.1893.9067-.07,1.0064.7772,1.0064l-.06.2989h-2.84l.06-.2989c.8369,0,.9764-.1,1.1658-1.0064l.9864-4.8525h-.568c-1.106,0-1.2156.2491-1.654,1.3352h-.3188l.4085-1.7237h5.3507l-.299,1.7237Z"/><path d="M201.8238,201.6541a2.2986,2.2986,0,0,0,1.1552.3487c.6377,0,.9366-.3194.9366-.7178,0-.418-.2491-.6475-.8965-.8867-.8672-.3086-1.2754-.7871-1.2754-1.3653a1.4875,1.4875,0,0,1,1.664-1.415,2.399,2.399,0,0,1,1.1856.3l-.2188.6377a1.8716,1.8716,0,0,0-.9863-.2793c-.5185,0-.8076.2988-.8076.6572,0,.3985.2891.5782.917.8174.8369.3184,1.2656.7373,1.2656,1.4551,0,.8467-.6582,1.4443-1.8037,1.4443a2.7524,2.7524,0,0,1-1.3555-.3291Z"/><path d="M206.8648,196.3729a.543.543,0,0,1-1.086,0,.534.534,0,0,1,.5479-.5479A.52.52,0,0,1,206.8648,196.3729Zm-.9766,6.1777v-4.8223h.877v4.8223Z"/><path d="M208.2193,199.033c0-.498-.01-.9062-.04-1.3047h.7774l.05.7969h.02a1.7728,1.7728,0,0,1,1.5937-.9072c.668,0,1.7041.3994,1.7041,2.0527v2.88h-.8769v-2.78c0-.7773-.2891-1.4248-1.1162-1.4248a1.286,1.286,0,0,0-1.2354,1.3057v2.8994h-.8769Z"/><path d="M219.5337,196.6922a3.1559,3.1559,0,0,0-.6572.0391,2.6335,2.6335,0,0,0-2.252,2.3017h.0293a1.9745,1.9745,0,0,1,3.5176,1.3457,2.1651,2.1651,0,0,1-2.1523,2.2813c-1.3848,0-2.291-1.0762-2.291-2.76a4.0731,4.0731,0,0,1,1.0957-2.92,3.5283,3.5283,0,0,1,2.0722-.9561,4.19,4.19,0,0,1,.6377-.05Zm-.249,3.7363a1.3166,1.3166,0,0,0-1.335-1.4853,1.4432,1.4432,0,0,0-1.2558.7978.7468.7468,0,0,0-.1.3887c.02,1.0654.5088,1.8526,1.4248,1.8526C218.7769,201.9823,219.2847,201.3553,219.2847,200.4285Z"/><path d="M225.2525,199.243c0,2.2012-.8174,3.417-2.252,3.417-1.2656,0-2.1221-1.1856-2.1426-3.3281,0-2.1719.9366-3.3672,2.252-3.3672C224.4751,195.9647,225.2525,197.1805,225.2525,199.243Zm-3.5176.1c0,1.6836.5185,2.64,1.3154,2.64.8965,0,1.3252-1.0459,1.3252-2.7,0-1.5938-.4092-2.64-1.3154-2.64C222.2925,196.6424,221.7349,197.5789,221.7349,199.3426Z"/><path d="M228.7583,199.1932v-.5986H233.9v.5986Zm0,1.9521v-.5976H233.9v.5976Z"/><path d="M239.4185,196.8914h-.02l-1.125.6075-.17-.668,1.415-.7568h.7471v6.4765h-.8467Z"/><path d="M246.9312,199.243c0,2.2012-.8174,3.417-2.252,3.417-1.2656,0-2.123-1.1856-2.1425-3.3281,0-2.1719.9365-3.3672,2.2519-3.3672C246.1538,195.9647,246.9312,197.1805,246.9312,199.243Zm-3.5176.1c0,1.6836.5176,2.64,1.3145,2.64.8974,0,1.3261-1.0459,1.3261-2.7,0-1.5938-.4091-2.64-1.3154-2.64C243.9712,196.6424,243.4136,197.5789,243.4136,199.3426Z"/><path d="M252.7886,197.25v2.3418h2.252v.5977h-2.252v2.3613H252.15v-2.3613H249.898v-.5977H252.15V197.25Z"/><path d="M260.0015,196.8914h-.0205l-1.126.6075-.17-.668,1.416-.7568h.7471v6.4765h-.8467Z"/><path d="M267.5132,199.243c0,2.2012-.8174,3.417-2.2519,3.417-1.2657,0-2.1221-1.1856-2.1426-3.3281,0-2.1719.9375-3.3672,2.2519-3.3672C266.7359,195.9647,267.5132,197.1805,267.5132,199.243Zm-3.5176.1c0,1.6836.5186,2.64,1.3155,2.64.8965,0,1.3252-1.0459,1.3252-2.7,0-1.5938-.4082-2.64-1.3155-2.64C264.5542,196.6424,263.9956,197.5789,263.9956,199.3426Z"/><path d="M183.7089,227.4564v.05c.3587.2491.5579.7573,1.375,2.3017a.8753.8753,0,0,0,.9167.5082l-.06.2989h-1.5145c-.7473-1.6441-.9566-2.0625-1.2655-2.67-.1494-.2789-.2789-.3387-.6377-.3387h-.2092l-.3687,1.7736c-.1694.827-.06.9366.7972.9366l-.05.2989h-2.75l.06-.2989c.7373,0,.8868-.1,1.0561-.9366l.8769-4.2746c.11-.548.05-.7373-.7473-.7373l.06-.2989h2.3415c1.395,0,2.212.4085,2.212,1.375C185.8013,226.8486,184.5757,227.307,183.7089,227.4564Zm-1.3252-.2192.3088.01c1.1957-.04,2.1224-.4883,2.1224-1.7637,0-.538-.299-1.0262-1.2854-1.0262a5.3971,5.3971,0,0,0-.5879.03Z"/><path d="M190.4843,228.7462c.16-.2162.272-.37.272-.4951,0-.1325-.1325-.1674-.4393-.1674l.0348-.2789h1.6945l-.0348.2789c-.4045,0-.5579.0976-1.053.7183l-3.1659,3.9468h-.3068l-.0558-3.9747c-.0139-.5021-.1325-.69-.509-.69l.0488-.2789h1.8619l-.0419.2789a.57.57,0,0,0-.6345.6v.1465l.0279,2.1338-.0419.774h.0558Z"/><path d="M197.8628,225.3143v2.3418h2.252v.5976h-2.252v2.3614h-.6377v-2.3614h-2.2519v-.5976h2.2519v-2.3418Z"/><path d="M208.6353,224.5184h-.6377l-1.584-4.2647-.748.3194-.19-.4688,1.375-.5771,1.2266,3.4472a4.7677,4.7677,0,0,1,.1894.6377h.02c.0292-.17.08-.4287.1289-.6474l1.8535-7.6328h.6582Z"/><line class="cls-25" x1="213.068" y1="214.725" x2="218" y2="214.725"/><path d="M213.7251,223.1971a2.9222,2.9222,0,0,0,1.4346.4092c1.126,0,1.4746-.7178,1.4648-1.2559-.01-.9062-.8261-1.2949-1.6738-1.2949h-.4883v-.6582h.4883c.6377,0,1.4453-.3281,1.4453-1.0957,0-.5186-.3291-.9766-1.1367-.9766a2.38,2.38,0,0,0-1.2949.4287l-.23-.6377a3.0823,3.0823,0,0,1,1.6943-.498c1.2754,0,1.8535.7568,1.8535,1.5439a1.6078,1.6078,0,0,1-1.1962,1.5245v.02a1.6863,1.6863,0,0,1,1.4453,1.664c0,1.0362-.8076,1.9424-2.3623,1.9424a3.2869,3.2869,0,0,1-1.6836-.4385Z"/><line class="cls-25" x1="205.158" y1="228.045" x2="218" y2="228.045"/><path d="M209.5611,236.99v-.5381l.6875-.668c1.6533-1.5742,2.4013-2.4111,2.4111-3.3877a1.1548,1.1548,0,0,0-1.2852-1.2646A2.2061,2.2061,0,0,0,210,231.68l-.2793-.6181a2.84,2.84,0,0,1,1.834-.6573,1.822,1.822,0,0,1,1.9825,1.8828c0,1.1954-.8672,2.1622-2.2325,3.4776l-.5175.4785v.0195h2.9091v.7276Z"/><path d="M224.6652,225.7924c0-1.086-.04-1.3351-1.1458-1.3351h-.568l-.9864,4.8524c-.1893.9067-.07,1.0064.7772,1.0064l-.06.2989h-2.84l.06-.2989c.8369,0,.9764-.1,1.1657-1.0064l.9865-4.8524h-.568c-1.106,0-1.2156.2491-1.654,1.3351h-.3188l.4085-1.7237h5.3506l-.2989,1.7237Zm3.9645,1.5644v-.6776h5.9385v.6776Zm0,2.0326v-.6676h5.9385v.6676Zm13.6294,1.2256h-3.9258v-.3388l1.5145-1.5145c.9864-1.0163,1.4846-1.6441,1.4846-2.69a1.1512,1.1512,0,0,0-1.2455-1.2256,1.4575,1.4575,0,0,0-1.4547.9765l-.2392-.1a1.972,1.972,0,0,1,1.953-1.5245,1.7294,1.7294,0,0,1,1.9131,1.7238c0,.8868-.568,1.5743-1.6242,2.64l-1.3152,1.2455v.05l.6975-.03h1.385c.5281,0,.6576-.2092.8868-.807h.2889Zm3.0881.11c-1.6042,0-2.1921-1.5345-2.1921-3.2981,0-1.8931.7672-3.2084,2.212-3.2084,1.2854,0,2.1821,1.1857,2.1821,3.2383C247.5492,229.16,246.9115,230.7246,245.3472,230.7246Zm-.01-6.1677c-.7871,0-1.2256.9466-1.2256,2.9194,0,1.9331.4385,2.89,1.2356,2.89.7871,0,1.2355-.9366,1.2355-2.85C246.5827,225.4935,246.1543,224.5569,245.3372,224.5569Z"/><path d="M319,177.992v2.81h3.2481v-2.81h.8769v6.7158h-.8769v-3.1484H319v3.1484h-.8662V177.992Z"/><path d="M328.9624,182.2567a2.3566,2.3566,0,0,1-2.4,2.5605,2.2928,2.2928,0,0,1-2.3125-2.4805,2.3558,2.3558,0,0,1,2.3916-2.5615A2.2835,2.2835,0,0,1,328.9624,182.2567Zm-3.8261.05c0,1.0566.6084,1.8535,1.4648,1.8535.8379,0,1.4648-.7871,1.4648-1.8731,0-.8173-.4082-1.8535-1.4443-1.8535S325.1363,181.39,325.1363,182.3065Z"/><path d="M330.0679,181.39c0-.5674-.01-1.0557-.0391-1.5039h.7666l.03.9463h.0391a1.4489,1.4489,0,0,1,1.3359-1.0567.967.967,0,0,1,.249.03v.8271a1.3427,1.3427,0,0,0-.2988-.03,1.23,1.23,0,0,0-1.1758,1.1259,2.4227,2.4227,0,0,0-.04.4092v2.57h-.8672Z"/><path d="M334.3023,178.53a.543.543,0,0,1-1.086,0,.5339.5339,0,0,1,.5479-.5478A.52.52,0,0,1,334.3023,178.53Zm-.9766,6.1777v-4.8222h.877v4.8222Z"/><path d="M335.1089,184.2l2.1826-2.84c.209-.26.4082-.4883.628-.7471v-.02h-2.6114v-.707h3.6768l-.01.5478-2.1523,2.8c-.1992.2686-.3985.5078-.6182.7569v.02h2.82v.6972h-3.916Z"/><path d="M344.2847,182.2567a2.3567,2.3567,0,0,1-2.4,2.5605,2.2927,2.2927,0,0,1-2.3125-2.4805,2.3557,2.3557,0,0,1,2.3916-2.5615A2.2835,2.2835,0,0,1,344.2847,182.2567Zm-3.8262.05c0,1.0566.6084,1.8535,1.4649,1.8535.8379,0,1.4648-.7871,1.4648-1.8731,0-.8173-.4082-1.8535-1.4443-1.8535S340.4585,181.39,340.4585,182.3065Z"/><path d="M345.39,181.19c0-.4981-.01-.9063-.0391-1.3047h.7764l.05.7968h.02a1.7739,1.7739,0,0,1,1.5937-.9072c.668,0,1.7041.3994,1.7041,2.0528v2.88h-.8769v-2.78c0-.7774-.2891-1.4248-1.1153-1.4248a1.245,1.245,0,0,0-1.1757.8974,1.2269,1.2269,0,0,0-.0606.4082v2.8994H345.39Z"/><path d="M351.9761,178.5v1.3858h1.2559v.667h-1.2559v2.6006c0,.5986.169.9365.6572.9365a1.9368,1.9368,0,0,0,.5088-.06l.0391.6582a2.1532,2.1532,0,0,1-.7774.1191,1.2183,1.2183,0,0,1-.9462-.3681,1.7883,1.7883,0,0,1-.3389-1.2559v-2.6308h-.7471v-.667h.7471v-1.1563Z"/><path d="M356.8872,184.7078l-.0693-.6074h-.03a1.7969,1.7969,0,0,1-1.4746.7168,1.3738,1.3738,0,0,1-1.4746-1.3848c0-1.166,1.0361-1.8037,2.8994-1.7939v-.1a.9935.9935,0,0,0-1.0957-1.1152,2.3989,2.3989,0,0,0-1.2558.3584l-.1993-.5782a2.9954,2.9954,0,0,1,1.584-.4287c1.4746,0,1.834,1.0069,1.834,1.9737v1.8027a6.7087,6.7087,0,0,0,.08,1.1562Zm-.13-2.4609c-.9561-.02-2.042.1494-2.042,1.0859a.7759.7759,0,0,0,.8271.837,1.2,1.2,0,0,0,1.166-.8067.9333.9333,0,0,0,.0489-.2793Z"/><path d="M359.0191,177.6336h.8769v7.0742h-.8769Z"/><path d="M363.7417,177.992h3.6172v.7276h-2.751v2.2314h2.5411v.7178h-2.5411v3.039h-.8662Z"/><path d="M372.5386,182.2567a2.3568,2.3568,0,0,1-2.4014,2.5605,2.2926,2.2926,0,0,1-2.3115-2.4805,2.3558,2.3558,0,0,1,2.3916-2.5615A2.284,2.284,0,0,1,372.5386,182.2567Zm-3.8262.05c0,1.0566.6084,1.8535,1.4649,1.8535.8369,0,1.4648-.7871,1.4648-1.8731,0-.8173-.4082-1.8535-1.4453-1.8535C369.1617,180.4334,368.7124,181.39,368.7124,182.3065Z"/><path d="M373.6441,181.39c0-.5674-.01-1.0557-.04-1.5039h.7676l.03.9463h.039a1.4491,1.4491,0,0,1,1.336-1.0567.954.954,0,0,1,.248.03v.8271a1.3305,1.3305,0,0,0-.2988-.03,1.2312,1.2312,0,0,0-1.1758,1.1259,2.5369,2.5369,0,0,0-.039.4092v2.57h-.8672Z"/><path d="M380.25,184.5282a3.2139,3.2139,0,0,1-1.3847.2792,2.2909,2.2909,0,0,1-2.4014-2.4609,2.45,2.45,0,0,1,2.5908-2.56,2.9269,2.9269,0,0,1,1.2159.249l-.1993.6777a2.03,2.03,0,0,0-1.0166-.23,1.8181,1.8181,0,0,0-.0293,3.627,2.489,2.489,0,0,0,1.0752-.2393Z"/><path d="M381.7632,182.4559a1.5454,1.5454,0,0,0,1.6543,1.6738,3.1735,3.1735,0,0,0,1.3359-.249l.1485.6279a3.897,3.897,0,0,1-1.6035.2988,2.24,2.24,0,0,1-2.3711-2.4316,2.3412,2.3412,0,0,1,2.2617-2.6006,2.0434,2.0434,0,0,1,1.9922,2.2725,3.3741,3.3741,0,0,1-.0293.4082Zm2.5713-.6279a1.2488,1.2488,0,0,0-1.2158-1.4248,1.4527,1.4527,0,0,0-1.3447,1.4248Z"/><path d="M386.147,183.8114a2.3035,2.3035,0,0,0,1.1563.3486c.6376,0,.9365-.3193.9365-.7178,0-.418-.249-.6474-.8965-.8867-.8672-.3086-1.2754-.7871-1.2754-1.3652a1.487,1.487,0,0,1,1.6641-1.4151,2.4,2.4,0,0,1,1.1855.3l-.22.6377a1.8722,1.8722,0,0,0-.9863-.2793c-.5186,0-.8077.2989-.8077.6573,0,.3984.2891.5781.917.8173.8369.3184,1.2657.7373,1.2657,1.4551,0,.8467-.6573,1.4443-1.8038,1.4443a2.75,2.75,0,0,1-1.3544-.3291Z"/><path d="M333.4009,201.4744v.05c.3587.2491.558.7573,1.375,2.3017a.8753.8753,0,0,0,.9167.5082l-.06.2989h-1.5145c-.7473-1.6441-.9566-2.0626-1.2655-2.67-.1494-.2789-.2789-.3387-.6377-.3387h-.2092l-.3687,1.7736c-.1694.827-.06.9366.7972.9366l-.05.2989h-2.75l.06-.2989c.7373,0,.8868-.1,1.0561-.9366l.8769-4.2746c.11-.548.05-.7373-.7473-.7373l.06-.2989h2.3415c1.395,0,2.212.4085,2.212,1.375C335.4933,200.8666,334.2677,201.325,333.4009,201.4744Zm-1.3252-.2192.3088.01c1.1957-.04,2.1224-.4883,2.1224-1.7637,0-.538-.299-1.0262-1.2854-1.0262a5.3985,5.3985,0,0,0-.5879.03Z"/><path d="M338.0146,204.0473h2.4686l.23-1.1855c.1255-.5788.1394-.76-.5439-.76l.0488-.2789h2.1547l-.0488.2789c-.69,0-.7392.1674-.8716.76l-.5579,2.8312c-.1325.6554-.0767.76.5579.76l-.0489.272h-2.1547l.0488-.272c.6415,0,.7182-.0976.8577-.7531l.258-1.3249h-2.4685l-.258,1.3249c-.1325.6555-.07.7531.5509.7531l-.0488.272h-2.1478l.0488-.272c.6276,0,.7182-.0976.8577-.7531l.5579-2.8381c.1255-.5927.1394-.76-.53-.76l.0488-.2789h2.1617l-.0488.2789c-.6973,0-.7671.1813-.8925.76Z"/><path d="M346.0728,201.3748v-.6776h5.9385v.6776Zm0,2.0326V202.74h5.9385v.6676Zm14.7851-3.597c0-1.0861-.04-1.3351-1.1459-1.3351h-.5679l-.9864,4.8524c-.1894.9067-.07,1.0064.7771,1.0064l-.06.2989h-2.84l.06-.2989c.837,0,.9765-.1,1.1658-1.0064l.9864-4.8524h-.5679c-1.106,0-1.2156.249-1.654,1.3351h-.3189l.4086-1.7237h5.3506l-.2989,1.7237Z"/><path d="M367.2779,204.453a3.223,3.223,0,0,1-1.3858.2793,2.2907,2.2907,0,0,1-2.4-2.461,2.45,2.45,0,0,1,2.59-2.56,2.9229,2.9229,0,0,1,1.2158.249l-.1992.6777a2.0269,2.0269,0,0,0-1.0166-.23,1.8182,1.8182,0,0,0-.0293,3.627,2.4977,2.4977,0,0,0,1.0761-.2393Z"/><path d="M372.6675,202.1815a2.3573,2.3573,0,0,1-2.4014,2.56,2.292,2.292,0,0,1-2.3115-2.48,2.3551,2.3551,0,0,1,2.3906-2.5616A2.2842,2.2842,0,0,1,372.6675,202.1815Zm-3.8262.05c0,1.0566.6075,1.8535,1.4649,1.8535.8369,0,1.4648-.7871,1.4648-1.8731,0-.8173-.4092-1.8535-1.4453-1.8535S368.8413,201.3143,368.8413,202.2313Z"/><path d="M373.6529,203.7362a2.3031,2.3031,0,0,0,1.1562.3486c.6377,0,.9365-.3193.9365-.7178,0-.4179-.249-.6474-.8964-.8867-.8672-.3086-1.2754-.7871-1.2754-1.3652a1.4869,1.4869,0,0,1,1.664-1.4151,2.4,2.4,0,0,1,1.1856.3l-.22.6377a1.8716,1.8716,0,0,0-.9863-.2793c-.5185,0-.8076.2989-.8076.6573,0,.3984.2891.5781.917.8173.8369.3184,1.2656.7373,1.2656,1.4551,0,.8467-.6572,1.4444-1.8037,1.4444a2.7512,2.7512,0,0,1-1.3545-.3291Z"/><path d="M382.4175,198.7742a3.1559,3.1559,0,0,0-.6572.0391,2.6334,2.6334,0,0,0-2.252,2.3018h.03a1.9738,1.9738,0,0,1,3.5166,1.3457,2.1649,2.1649,0,0,1-2.1514,2.2812c-1.3857,0-2.292-1.0762-2.292-2.76a4.0734,4.0734,0,0,1,1.0958-2.92,3.5276,3.5276,0,0,1,2.0722-.956,4.1775,4.1775,0,0,1,.6377-.05Zm-.249,3.7364a1.3166,1.3166,0,0,0-1.335-1.4854,1.4431,1.4431,0,0,0-1.2558.7979.7462.7462,0,0,0-.1.3886c.0205,1.0655.5087,1.8526,1.4257,1.8526C381.6607,204.0643,382.1685,203.4373,382.1685,202.5106Z"/><path d="M388.1363,201.325c0,2.2012-.8174,3.417-2.252,3.417-1.2656,0-2.1221-1.1855-2.1426-3.3281,0-2.1719.9375-3.3672,2.252-3.3672C387.3589,198.0467,388.1363,199.2625,388.1363,201.325Zm-3.5176.1c0,1.6836.5185,2.64,1.3154,2.64.8965,0,1.3252-1.0459,1.3252-2.7,0-1.5938-.4082-2.64-1.3154-2.64C385.1773,198.7244,384.6187,199.661,384.6187,201.4246Z"/><path d="M333.4009,225.3744v.05c.3587.2491.558.7573,1.375,2.3017a.8753.8753,0,0,0,.9167.5082l-.06.2989h-1.5145c-.7473-1.6441-.9566-2.0625-1.2655-2.67-.1494-.2789-.2789-.3387-.6377-.3387h-.2092l-.3687,1.7736c-.1694.827-.06.9366.7972.9366l-.05.2989h-2.75l.06-.2989c.7373,0,.8868-.1,1.0561-.9366l.8769-4.2746c.11-.548.05-.7373-.7473-.7373l.06-.2989h2.3415c1.395,0,2.212.4085,2.212,1.375C335.4933,224.7666,334.2677,225.225,333.4009,225.3744Zm-1.3252-.2192.3088.01c1.1957-.04,2.1224-.4883,2.1224-1.7637,0-.538-.299-1.0262-1.2854-1.0262a5.3985,5.3985,0,0,0-.5879.03Z"/><path d="M338.0146,227.9473h2.4686l.23-1.1855c.1255-.5788.1394-.76-.5439-.76l.0488-.2789h2.1547l-.0488.2789c-.69,0-.7392.1674-.8716.76l-.5579,2.8312c-.1325.6554-.0767.76.5579.76l-.0489.272h-2.1547l.0488-.272c.6415,0,.7182-.0976.8577-.7531l.258-1.3249h-2.4685l-.258,1.3249c-.1325.6555-.07.7531.5509.7531l-.0488.272h-2.1478l.0488-.272c.6276,0,.7182-.0976.8577-.7531l.5579-2.8381c.1255-.5927.1394-.76-.53-.76l.0488-.2789h2.1617l-.0488.2789c-.6973,0-.7671.1813-.8925.76Z"/><path d="M345.8531,225.1756v-.5986h5.1416v.5986Zm0,1.9522V226.53h5.1416v.5977Z"/><path d="M358.9419,216.4979h-.0195l-1.126.6074-.17-.668,1.415-.7568h.7471v6.4766h-.8467Z"/><line class="cls-25" x1="356.591" y1="225.962" x2="361.523" y2="225.962"/><path d="M357.0386,234.908V234.37l.6875-.6679c1.6543-1.5742,2.4014-2.4112,2.4121-3.3877a1.1556,1.1556,0,0,0-1.2861-1.2647,2.2106,2.2106,0,0,0-1.375.5479l-.2783-.6182a2.8391,2.8391,0,0,1,1.833-.6572,1.8222,1.8222,0,0,1,1.9834,1.8828c0,1.1953-.8672,2.1621-2.2325,3.4775l-.5175.4786v.0195h2.9091v.7275Z"/><path d="M368.1882,223.71c0-1.086-.04-1.3351-1.1458-1.3351h-.568l-.9864,4.8524c-.1894.9067-.07,1.0064.7772,1.0064l-.06.2989h-2.84l.06-.2989c.837,0,.9765-.1,1.1658-1.0064l.9864-4.8524H365.01c-1.106,0-1.2156.2491-1.654,1.3351h-.3189l.4086-1.7237h5.3506l-.2989,1.7237Z"/></g></svg>