<svg id="Layer_1" data-name="Layer 1" xmlns="http://www.w3.org/2000/svg" xmlns:xlink="http://www.w3.org/1999/xlink" viewBox="0 0 453.543 255.118"><defs><style>.cls-1,.cls-5,.cls-7,.cls-8,.cls-9{fill:none;}.cls-2{clip-path:url(#clip-path);}.cls-3{fill:#fff;}.cls-4{fill:#056db6;}.cls-5,.cls-7,.cls-8{stroke:#000;}.cls-5,.cls-7,.cls-8,.cls-9{stroke-miterlimit:10;}.cls-5{stroke-width:0.677px;}.cls-6{clip-path:url(#clip-path-2);}.cls-7,.cls-9{stroke-width:0.6376px;}.cls-8{stroke-width:0.592px;}.cls-9{stroke:#76b543;}.cls-10{fill:#76b543;}</style><clipPath id="clip-path"><rect class="cls-1" width="453.543" height="255.118"/></clipPath><clipPath id="clip-path-2"><rect class="cls-1" x="157.129" y="124.3514" width="139.2856" height="127.7976"/></clipPath></defs><g class="cls-2"><rect class="cls-3" y="14.944" width="453.543" height="255.118"/><path class="cls-4" d="M21.04,24.3592H17.2817v3.4854H21.47v1.0468H16.0337v-9.667h5.2207v1.0469H17.2817V23.326H21.04Z"/><path class="cls-4" d="M23.6372,21.9491l.9892,1.4921c.2578.3868.4737.7461.7032,1.1329h.0429c.23-.4161.459-.7745.6885-1.1475l.9756-1.4775h1.3623l-2.3662,3.3564L28.47,28.8914H27.0366L26.018,27.328c-.2724-.4014-.5019-.7891-.7461-1.2051h-.0283c-.23.416-.4736.789-.7324,1.2051l-1.0039,1.5634H22.1167l2.4668-3.5429-2.3526-3.3994Z"/><path class="cls-4" d="M33.5346,28.8914l-.1-.875h-.0429A2.5879,2.5879,0,0,1,31.269,29.05a1.978,1.978,0,0,1-2.123-1.9941c0-1.6777,1.4922-2.5957,4.1738-2.582V24.33a1.4316,1.4316,0,0,0-1.5781-1.6064,3.4588,3.4588,0,0,0-1.8067.5166l-.2871-.8321a4.3114,4.3114,0,0,1,2.2813-.6162c2.122,0,2.6386,1.4483,2.6386,2.84v2.5957a9.6891,9.6891,0,0,0,.1153,1.664Zm-.1855-3.5429c-1.377-.0284-2.9414.2158-2.9414,1.5634a1.1179,1.1179,0,0,0,1.1914,1.2051,1.7276,1.7276,0,0,0,1.6777-1.1621,1.318,1.318,0,0,0,.0723-.4014Z"/><path class="cls-4" d="M36.6059,23.828c0-.7168-.0146-1.3047-.0576-1.8789h1.1045l.0576,1.1191h.043a2.3916,2.3916,0,0,1,2.18-1.2764,2.053,2.053,0,0,1,1.9658,1.3906h.0283a2.8555,2.8555,0,0,1,.7744-.9033,2.37,2.37,0,0,1,1.5352-.4873c.918,0,2.28.6026,2.28,3.0117v4.0879H45.2837v-3.93c0-1.3339-.4873-2.1376-1.5059-2.1376a1.6354,1.6354,0,0,0-1.4922,1.1474,2.0689,2.0689,0,0,0-.1006.6309v4.289H40.9516V24.7323c0-1.1045-.4873-1.9082-1.4482-1.9082A1.7235,1.7235,0,0,0,37.94,24.0867a1.7481,1.7481,0,0,0-.1006.6163v4.1884H36.6059Z"/><path class="cls-4" d="M48.5708,24.2157c0-.89-.0284-1.6065-.0576-2.2666H49.646l.0576,1.19h.0283A2.7306,2.7306,0,0,1,52.2,21.7918c1.6777,0,2.94,1.42,2.94,3.5283,0,2.4952-1.52,3.73-3.1562,3.73a2.4345,2.4345,0,0,1-2.1368-1.0908h-.0283v3.7725h-1.248Zm1.248,1.8505a2.8665,2.8665,0,0,0,.0567.5157,1.9481,1.9481,0,0,0,1.8935,1.4775c1.334,0,2.1084-1.09,2.1084-2.6816,0-1.3916-.7314-2.5821-2.0654-2.5821a2.0125,2.0125,0,0,0-1.9072,1.5635,2.04,2.04,0,0,0-.086.5156Z"/><path class="cls-4" d="M56.7339,18.7078h1.2617V28.8914H56.7339Z"/><path class="cls-4" d="M60.8217,25.65a2.224,2.224,0,0,0,2.3809,2.4092,4.5535,4.5535,0,0,0,1.9219-.3584l.2148.9033a5.61,5.61,0,0,1-2.3086.4307,3.2246,3.2246,0,0,1-3.414-3.5c0-2.0938,1.2334-3.7432,3.2558-3.7432,2.2666,0,2.8692,1.9932,2.8692,3.27a4.9138,4.9138,0,0,1-.043.5888Zm3.7-.9043a1.7963,1.7963,0,0,0-1.749-2.0508,2.0913,2.0913,0,0,0-1.9365,2.0508Z"/><path class="cls-4" d="M70.5776,27.4432a4.218,4.218,0,0,0,2.0654.5879c1.62,0,2.1221-1.0332,2.1084-1.8076-.0146-1.3047-1.19-1.8643-2.41-1.8643h-.7031v-.9473h.7031c.9179,0,2.08-.4726,2.08-1.5771,0-.7461-.4737-1.4063-1.6348-1.4063a3.4229,3.4229,0,0,0-1.8652.6172l-.33-.9179A4.4358,4.4358,0,0,1,73.03,19.411c1.8359,0,2.6679,1.09,2.6679,2.2226A2.3144,2.3144,0,0,1,73.976,23.828v.0293a2.4274,2.4274,0,0,1,2.08,2.3945c0,1.4922-1.1621,2.7978-3.3994,2.7978a4.7322,4.7322,0,0,1-2.4238-.6318Z"/><path class="cls-4" d="M84.1479,18.9373A9.46,9.46,0,0,0,82.34,24.8035a9.6666,9.6666,0,0,0,1.8076,5.8233h-.99a9.273,9.273,0,0,1-1.8789-5.8233,9.4719,9.4719,0,0,1,1.8789-5.8662Z"/><path class="cls-4" d="M92.2807,28.576a6.1932,6.1932,0,0,1-2.5527.459,4.5186,4.5186,0,0,1-4.7764-4.8916,4.811,4.811,0,0,1,5.0489-5.0772,5.1665,5.1665,0,0,1,2.2949.4307l-.3008,1.0186a4.5313,4.5313,0,0,0-1.9512-.4024c-2.2656,0-3.7724,1.4492-3.7724,3.9873,0,2.3672,1.3632,3.8877,3.7148,3.8877a4.9894,4.9894,0,0,0,2.0371-.4023Z"/><path class="cls-4" d="M100.0854,25.3631a3.393,3.393,0,0,1-3.457,3.6865,3.3,3.3,0,0,1-3.3272-3.5722,3.39,3.39,0,0,1,3.4424-3.6856A3.2868,3.2868,0,0,1,100.0854,25.3631Zm-5.5078.0713c0,1.52.875,2.668,2.1084,2.668,1.2051,0,2.1084-1.1328,2.1084-2.6963,0-1.1758-.5879-2.668-2.0791-2.668S94.5776,24.1151,94.5776,25.4344Z"/><path class="cls-4" d="M101.6792,23.828c0-.7168-.0147-1.3047-.0576-1.8789h1.1191l.0713,1.1474h.0293a2.5529,2.5529,0,0,1,2.2949-1.3047c.9609,0,2.4521.5733,2.4521,2.9541v4.1455h-1.2617V24.89c0-1.1182-.416-2.0508-1.6064-2.0508a1.8541,1.8541,0,0,0-1.7793,1.8789v4.1738h-1.2617Z"/><path class="cls-4" d="M111.1616,19.9559v1.9932h1.8076V22.91h-1.8076v3.7441c0,.86.2441,1.3477.9473,1.3477a2.8011,2.8011,0,0,0,.73-.086l.0576.9473a3.1027,3.1027,0,0,1-1.1181.1719,1.75,1.75,0,0,1-1.3633-.5313,2.57,2.57,0,0,1-.4873-1.8066V22.91H108.852v-.9609h1.0762V20.285Z"/><path class="cls-4" d="M115.7954,19.9989a.7818.7818,0,0,1-1.5635,0,.769.769,0,0,1,.7891-.7891A.7493.7493,0,0,1,115.7954,19.9989ZM114.39,28.8914V21.9491h1.2617v6.9423Z"/><path class="cls-4" d="M117.7466,23.828c0-.7168-.0147-1.3047-.0577-1.8789h1.1192l.0713,1.1474h.0293a2.5529,2.5529,0,0,1,2.2949-1.3047c.9609,0,2.4521.5733,2.4521,2.9541v4.1455H122.394V24.89c0-1.1182-.416-2.0508-1.6064-2.0508a1.8508,1.8508,0,0,0-1.7784,1.8789v4.1738h-1.2626Z"/><path class="cls-4" d="M131.518,26.9979c0,.7178.0137,1.3486.0567,1.8935h-1.1182l-.0723-1.1328h-.0283a2.612,2.612,0,0,1-2.2949,1.291c-1.09,0-2.3955-.6025-2.3955-3.041V21.9491h1.2627v3.8437c0,1.32.4014,2.209,1.5488,2.209a1.8244,1.8244,0,0,0,1.6641-1.1475,1.8559,1.8559,0,0,0,.1142-.6455v-4.26h1.2627Z"/><path class="cls-4" d="M134.3159,25.65a2.2244,2.2244,0,0,0,2.3808,2.4092,4.5532,4.5532,0,0,0,1.9219-.3584l.2158.9033a5.6146,5.6146,0,0,1-2.3095.4307,3.2247,3.2247,0,0,1-3.4141-3.5c0-2.0938,1.2344-3.7432,3.2559-3.7432,2.2666,0,2.8691,1.9932,2.8691,3.27a4.71,4.71,0,0,1-.043.5888Zm3.7012-.9043a1.7977,1.7977,0,0,0-1.75-2.0508,2.0913,2.0913,0,0,0-1.9366,2.0508Z"/><path class="cls-4" d="M146.7964,18.7078v8.3907c0,.6172.0136,1.3193.0566,1.7929H145.72l-.0567-1.205h-.0293A2.5676,2.5676,0,0,1,143.268,29.05c-1.6787,0-2.97-1.4209-2.97-3.5293-.0137-2.3086,1.42-3.7285,3.1133-3.7285a2.3211,2.3211,0,0,1,2.0937,1.0615h.0284V18.7078Zm-1.2627,6.0674a2.2341,2.2341,0,0,0-.0577-.5312,1.8558,1.8558,0,0,0-1.8212-1.4629c-1.3047,0-2.0791,1.1474-2.0791,2.6826,0,1.4053.6875,2.5674,2.0507,2.5674a1.8966,1.8966,0,0,0,1.85-1.5059,2.202,2.202,0,0,0,.0577-.5459Z"/><path class="cls-4" d="M148.1313,30.6268a9.7044,9.7044,0,0,0,1.8076-5.8662,9.5049,9.5049,0,0,0-1.8076-5.8233h.9756a9.1338,9.1338,0,0,1,1.8789,5.8379,9.31,9.31,0,0,1-1.8789,5.8516Z"/><path d="M15.7007,48.4862V41.77h.9472l2.1514,3.3975a18.8132,18.8132,0,0,1,1.206,2.1826l.02-.01c-.0791-.8975-.1-1.7139-.1-2.7608V41.77h.8173v6.7159h-.8769l-2.1318-3.4073a21.3068,21.3068,0,0,1-1.2559-2.2422l-.03.01c.05.8467.07,1.6543.07,2.77v2.8692Z"/><path d="M26.5005,46.035a2.3569,2.3569,0,0,1-2.4014,2.5605,2.2925,2.2925,0,0,1-2.3115-2.48,2.3558,2.3558,0,0,1,2.3916-2.5616A2.2841,2.2841,0,0,1,26.5005,46.035Zm-3.8262.05c0,1.0566.6084,1.8535,1.4648,1.8535.8369,0,1.4649-.7871,1.4649-1.873,0-.8174-.4082-1.8536-1.4444-1.8536S22.6743,45.1678,22.6743,46.0848Z"/><path d="M27.9546,43.6639l.6377,2.4512c.14.5381.2695,1.0361.3584,1.5341h.03c.1094-.4882.27-1.0068.4287-1.5244l.7871-2.4609h.7374l.747,2.4111c.18.5782.3194,1.086.4287,1.5742h.03a14.4289,14.4289,0,0,1,.3682-1.5644l.6875-2.4209h.8672l-1.5547,4.8223h-.7969l-.7373-2.3018a16.1176,16.1176,0,0,1-.4287-1.584h-.02a14.44,14.44,0,0,1-.4384,1.5938l-.7774,2.292h-.7968l-1.4551-4.8223Z"/><path d="M33.6733,49.7117A14.3566,14.3566,0,0,0,34.271,47.33l.9765-.1a12.2059,12.2059,0,0,1-.9463,2.4219Z"/><path d="M39.7007,42.2782v1.3857h1.2558v.667H39.7007v2.6006c0,.5976.17.9365.6572.9365a1.9368,1.9368,0,0,0,.5088-.06l.039.6582a2.1479,2.1479,0,0,1-.7763.1192,1.22,1.22,0,0,1-.9473-.3682,1.79,1.79,0,0,1-.3389-1.2559V44.3309h-.747v-.667h.747V42.5076Z"/><path d="M41.9419,41.4119h.8769v3.0088h.0195a1.6318,1.6318,0,0,1,.628-.6172,1.7993,1.7993,0,0,1,.8965-.25c.6484,0,1.6845.4,1.6845,2.0635v2.8692H45.17v-2.77c0-.7773-.2891-1.4355-1.1162-1.4355a1.2589,1.2589,0,0,0-1.1758.8769,1.0652,1.0652,0,0,0-.06.419v2.9092h-.8769Z"/><path d="M50.1421,48.4862l-.07-.6075h-.0293a1.7987,1.7987,0,0,1-1.4755.7168,1.3743,1.3743,0,0,1-1.4746-1.3847c0-1.166,1.0361-1.8037,2.8994-1.794v-.1A.9935.9935,0,0,0,48.896,44.202,2.4109,2.4109,0,0,0,47.64,44.56l-.1992-.5781a2.9984,2.9984,0,0,1,1.5849-.4288c1.4747,0,1.8331,1.0069,1.8331,1.9737V47.33a6.72,6.72,0,0,0,.08,1.1563Zm-.13-2.461c-.9571-.02-2.043.1494-2.043,1.086a.7759.7759,0,0,0,.8272.8369,1.2,1.2,0,0,0,1.166-.8067.9348.9348,0,0,0,.05-.2793Z"/><path d="M53.33,42.2782v1.3857h1.2548v.667H53.33v2.6006c0,.5976.1689.9365.6572.9365a1.9429,1.9429,0,0,0,.5088-.06l.039.6582a2.1536,2.1536,0,0,1-.7773.1192,1.2187,1.2187,0,0,1-.9463-.3682,1.79,1.79,0,0,1-.3389-1.2559V44.3309h-.747v-.667h.747V42.5076Z"/><path d="M58.2612,43.6639l.6367,2.4512c.14.5381.27,1.0361.3594,1.5341h.0293c.11-.4882.27-1.0068.4287-1.5244l.7871-2.4609H61.24l.7471,2.4111c.18.5782.3193,1.086.4287,1.5742h.03a14.4507,14.4507,0,0,1,.3681-1.5644l.6875-2.4209h.8672l-1.5547,4.8223h-.7968L61.28,46.1844A16.4015,16.4015,0,0,1,60.851,44.6h-.02a14.4182,14.4182,0,0,1-.4385,1.5938l-.7773,2.292h-.7969l-1.4551-4.8223Z"/><path d="M65.6831,46.2342a1.5446,1.5446,0,0,0,1.6533,1.6738,3.172,3.172,0,0,0,1.3359-.249l.1494.6279a3.9051,3.9051,0,0,1-1.6044.2989,2.24,2.24,0,0,1-2.3711-2.4317,2.3412,2.3412,0,0,1,2.2617-2.6006A2.0434,2.0434,0,0,1,69.1,45.826a3.3933,3.3933,0,0,1-.0293.4082Zm2.57-.6279a1.2489,1.2489,0,0,0-1.2158-1.4248,1.4528,1.4528,0,0,0-1.3448,1.4248Z"/><path d="M72.5268,41.4119h.877v3.0088h.0195a1.6322,1.6322,0,0,1,.6279-.6172,1.7978,1.7978,0,0,1,.8975-.25c.6475,0,1.6836.4,1.6836,2.0635v2.8692h-.877v-2.77c0-.7773-.289-1.4355-1.1162-1.4355a1.26,1.26,0,0,0-1.1758.8769,1.0653,1.0653,0,0,0-.0595.419v2.9092h-.877Z"/><path d="M80.726,48.4862l-.0693-.6075h-.03a1.7967,1.7967,0,0,1-1.4746.7168,1.3738,1.3738,0,0,1-1.4746-1.3847c0-1.166,1.0361-1.8037,2.8994-1.794v-.1a.9934.9934,0,0,0-1.0957-1.1152,2.4081,2.4081,0,0,0-1.2558.3584l-.1993-.5781a2.999,2.999,0,0,1,1.585-.4288c1.4746,0,1.833,1.0069,1.833,1.9737V47.33a6.7091,6.7091,0,0,0,.08,1.1563Zm-.1289-2.461c-.957-.02-2.0429.1494-2.0429,1.086a.7758.7758,0,0,0,.8271.8369,1.2,1.2,0,0,0,1.166-.8067.9348.9348,0,0,0,.05-.2793Z"/><path d="M82.9575,43.6639l.9463,2.71a12.2251,12.2251,0,0,1,.3886,1.2353h.03c.1094-.3984.249-.7969.4082-1.2353l.9365-2.71h.917l-1.8925,4.8223h-.837L82.021,43.6639Z"/><path d="M87.8589,46.2342a1.5453,1.5453,0,0,0,1.6543,1.6738,3.1633,3.1633,0,0,0,1.3349-.249l.1494.6279a3.9,3.9,0,0,1-1.6035.2989,2.24,2.24,0,0,1-2.3721-2.4317,2.342,2.342,0,0,1,2.2627-2.6006,2.0433,2.0433,0,0,1,1.9922,2.2725,3.3724,3.3724,0,0,1-.0293.4082Zm2.5712-.6279a1.2488,1.2488,0,0,0-1.2158-1.4248A1.4527,1.4527,0,0,0,87.87,45.6063Z"/><path d="M94.7934,48.4862V44.3309h-.6777v-.667h.6777v-.23a2.2738,2.2738,0,0,1,.5576-1.6836,1.6767,1.6767,0,0,1,1.1758-.4482,2.0431,2.0431,0,0,1,.7471.1386l-.1191.6778a1.3174,1.3174,0,0,0-.5586-.1094c-.7471,0-.9366.6572-.9366,1.3945v.26h1.1661v.667H95.66v4.1553Z"/><path d="M101.977,46.035a2.3568,2.3568,0,0,1-2.4013,2.5605,2.292,2.292,0,0,1-2.3116-2.48,2.3551,2.3551,0,0,1,2.3907-2.5616A2.2842,2.2842,0,0,1,101.977,46.035Zm-3.8262.05c0,1.0566.6075,1.8535,1.4639,1.8535.8379,0,1.4649-.7871,1.4649-1.873,0-.8174-.4082-1.8536-1.4444-1.8536S98.1508,45.1678,98.1508,46.0848Z"/><path d="M107.1176,47.1707c0,.4981.01.9366.0391,1.3155H106.38l-.0507-.7871h-.02a1.8131,1.8131,0,0,1-1.5937.8964c-.7578,0-1.6641-.4179-1.6641-2.1123V43.6639h.877v2.67c0,.917.2783,1.5342,1.0761,1.5342a1.2662,1.2662,0,0,0,1.1553-.7969,1.28,1.28,0,0,0,.08-.4482v-2.959h.8769Z"/><path d="M108.5717,44.9686c0-.4981-.0107-.9063-.04-1.3047h.7764l.0508.7969h.0195a1.774,1.774,0,0,1,1.5937-.9073c.668,0,1.7041.4,1.7041,2.0528v2.88h-.8769v-2.78c0-.7774-.2891-1.4248-1.1162-1.4248a1.248,1.248,0,0,0-1.1758.8974,1.2792,1.2792,0,0,0-.06.4082v2.8995h-.876Z"/><path d="M118.2651,41.4119V47.241c0,.4278.01.9161.04,1.2452h-.7871l-.04-.837h-.0195a1.7851,1.7851,0,0,1-1.6446.9463,2.1983,2.1983,0,0,1-2.0625-2.4511,2.3076,2.3076,0,0,1,2.1621-2.5909,1.6146,1.6146,0,0,1,1.4551.7373h.02V41.4119Zm-.8769,4.2149a1.5767,1.5767,0,0,0-.0391-.3692,1.291,1.291,0,0,0-1.2656-1.0166c-.9073,0-1.4453.7979-1.4453,1.8633,0,.9766.4785,1.7842,1.4248,1.7842a1.32,1.32,0,0,0,1.2861-1.0469,1.5435,1.5435,0,0,0,.0391-.3779Z"/><path d="M127.2532,43.6634c0-1.0861-.04-1.3352-1.1458-1.3352h-.568l-.9864,4.8525c-.1893.9067-.07,1.0064.7772,1.0064l-.06.2989h-2.84l.06-.2989c.837,0,.9765-.1,1.1658-1.0064l.9865-4.8525h-.568c-1.106,0-1.2156.2491-1.654,1.3352h-.3189L122.51,41.94h5.3506l-.2989,1.7237Z"/><path d="M128.4588,49.6518a1.1654,1.1654,0,0,0,.827-1.2057.85.85,0,0,1-.3089.06.4992.4992,0,0,1-.548-.538.5729.5729,0,0,1,.6177-.5879c.4982,0,.7673.3288.7673.8768a1.71,1.71,0,0,1-1.2356,1.6441Zm11.8167-5.59c-.3886,0-.5381.14-.7374.6576l-1.4846,3.8262h-.4783l-1.0561-2.9h-.04l-1.1658,2.9h-.4583l-1.4946-3.7564c-.2591-.6178-.4085-.7274-.847-.7274v-.289h2.1423v.289c-.3986,0-.5281.09-.5281.2491a1.0478,1.0478,0,0,0,.11.3886l.8669,2.202.1793.5779h.07l.2092-.5779.7174-1.8134-.11-.2989c-.2391-.6477-.3886-.7274-.827-.7274v-.289h2.0825v.289c-.3787,0-.4982.09-.4982.2491a1.3792,1.3792,0,0,0,.09.4085l.807,2.1821.1794.5779h.06l.1993-.5779L139.05,44.67a1.413,1.413,0,0,0,.06-.3587c0-.1893-.1893-.2491-.558-.2491v-.289h1.7238Zm4.1439,3.1386a1.9735,1.9735,0,0,1-1.8633,1.385c-1.1957,0-2.1223-.8668-2.1223-2.471,0-1.664.9366-2.4611,2.1024-2.4611,1.0861,0,1.8035.7871,1.8533,2.1821h-3.1486c0,1.375.7572,2.0027,1.5543,2.0027a1.5766,1.5766,0,0,0,1.4349-.7772Zm-.9665-1.7337c-.03-.7373-.3587-1.4149-1.0662-1.4149-.6775,0-1.0761.4883-1.1558,1.4149Zm8.3987,2.0127c0,.558.07.7274.7374.7274v.279h-2.3017v-.279c.7074,0,.7373-.1694.7373-.7274V45.6761c0-1.1956-.4683-1.3849-.9167-1.3849a1.8261,1.8261,0,0,0-1.2056.6277V47.48c0,.558.04.7274.7572.7274v.279h-2.2817v-.279c.6676,0,.6975-.1694.6975-.7274v-2.8c0-.3587-.1495-.4384-.4185-.4384a1.5087,1.5087,0,0,0-.269.02v-.289l1.2654-.289h.2292l-.01.8071h.04a2.4245,2.4245,0,0,1,1.6042-.8369c.9068,0,1.3352.6277,1.3352,1.7735Zm5.27-.279a1.9733,1.9733,0,0,1-1.8632,1.385c-1.1957,0-2.1224-.8668-2.1224-2.471,0-1.664.9367-2.4611,2.1024-2.4611,1.0861,0,1.8035.7871,1.8533,2.1821h-3.1486c0,1.375.7573,2.0027,1.5544,2.0027a1.5764,1.5764,0,0,0,1.4348-.7772Zm-.9665-1.7337c-.03-.7373-.3587-1.4149-1.0661-1.4149-.6776,0-1.0761.4883-1.1558,1.4149Zm5.5893,1.7337a1.9736,1.9736,0,0,1-1.8633,1.385c-1.1957,0-2.1223-.8668-2.1223-2.471,0-1.664.9366-2.4611,2.1024-2.4611,1.086,0,1.8034.7871,1.8533,2.1821H158.566c0,1.375.7573,2.0027,1.5544,2.0027a1.5764,1.5764,0,0,0,1.4348-.7772Zm-.9666-1.7337c-.03-.7373-.3587-1.4149-1.0661-1.4149-.6776,0-1.0761.4883-1.1558,1.4149Zm5.111,3.0689H165.66v-.6875h-.04a2.35,2.35,0,0,1-1.5444.7174c-1.1259,0-1.7038-.9864-1.7038-2.2618a2.3892,2.3892,0,0,1,2.2917-2.65,1.9839,1.9839,0,0,1,.9665.2391V42.5873c0-.4384-.05-.5281-.4384-.5281-.09,0-.2591.02-.2591.02V41.8l1.2555-.3488h.269V47.42c0,.5182.13.6178.4982.6178h.2093v.269Zm-.2591-3.6867a.9349.9349,0,0,0-.9864-.7971c-.837,0-1.4049.6078-1.4049,1.8633,0,1.375.4583,1.933,1.3052,1.933A1.7039,1.7039,0,0,0,165.63,47.48Zm7.2329,2.9c-.3886.538-.5979.8369-1.2356.8369-.6676,0-.9565-.3587-.9565-1.2554V44.1915h-.548v-.2292a2.9647,2.9647,0,0,0,1.1259-1.5543h.2591l-.01,1.365h1.1259v.4185h-1.1259v2.86c0,.7074.09.9466.4783.9466.3188,0,.4483-.13.6974-.4086Zm4.7623-1.7138c0,1.6739-.9167,2.5507-2.212,2.5507-1.395,0-2.2319-.8967-2.2319-2.5109a2.204,2.204,0,0,1,2.2319-2.4212A2.1316,2.1316,0,0,1,177.6251,46.0349Zm-3.5173-.09c0,1.5842.4882,2.2518,1.3451,2.2419.8171,0,1.2555-.4783,1.2555-2.1024,0-1.2256-.4484-2.0526-1.3352-2.0526C174.616,44.0321,174.1078,44.67,174.1078,45.9452ZM185.974,48.486h-2.2917v-.289c.6576,0,.6974-.1893.6974-.7174V44.72c0-.3288-.09-.4783-.2789-.5281h-1.9331V47.3c0,.7672.16.9067.8569.9067v.279h-2.5408v-.279c.7274,0,.837-.13.837-.9067V44.1915h-.7573V43.773h.7573a2.798,2.798,0,0,1,.3687-1.644,2.0265,2.0265,0,0,1,1.8134-.7872c.8669,0,1.4647.2491,1.4647.8071a.4346.4346,0,0,1-.4783.4583c-.2989,0-.4284-.2291-.5579-.5281-.11-.2889-.3388-.3786-.6776-.3786-.6875,0-1.0861.3687-1.0861,1.4647v.6078h1.7138l1.0662-.09h.2591V47.48c0,.568.05.7174.7672.7174Zm5.021-1.0064c0,.558.07.7274.7373.7274v.279h-2.3017v-.279c.7075,0,.7374-.1694.7374-.7274V45.6761c0-1.1956-.4683-1.3849-.9167-1.3849a1.8258,1.8258,0,0,0-1.2056.6277V47.48c0,.558.04.7274.7572.7274v.279h-2.2817v-.279c.6676,0,.6974-.1694.6974-.7274v-2.8c0-.3587-.1494-.4384-.4184-.4384a1.5106,1.5106,0,0,0-.2691.02v-.289l1.2655-.289h.2291l-.01.8071h.04a2.4245,2.4245,0,0,1,1.6042-.8369c.9067,0,1.3352.6277,1.3352,1.7735Zm4.7919,1.0562h-.2291v-.6875h-.04a2.35,2.35,0,0,1-1.5444.7174c-1.126,0-1.7039-.9864-1.7039-2.2618a2.3893,2.3893,0,0,1,2.2918-2.65,1.9839,1.9839,0,0,1,.9665.2391V42.5873c0-.4384-.05-.5281-.4385-.5281-.09,0-.259.02-.259.02V41.8l1.2554-.3488h.2691V47.42c0,.5182.13.6178.4982.6178h.2092v.269Zm-.259-3.6867a.9349.9349,0,0,0-.9865-.7971c-.8369,0-1.4049.6078-1.4049,1.8633,0,1.375.4583,1.933,1.3053,1.933a1.7041,1.7041,0,0,0,1.0861-.3687Zm7.2328,2.9c-.3886.538-.5978.8369-1.2355.8369-.6676,0-.9566-.3587-.9566-1.2554V44.1915h-.548v-.2292a2.9647,2.9647,0,0,0,1.1259-1.5543h.2591l-.01,1.365h1.126v.4185h-1.126v2.86c0,.7074.09.9466.4783.9466.3189,0,.4484-.13.6975-.4086Zm1.8529-.2292c0,.5181.05.6775.7373.6775v.289h-2.2618v-.289c.5181,0,.6975-.08.6975-.6377V42.4578c0-.3488-.2192-.3986-.4882-.3986a2.1225,2.1225,0,0,0-.289.02V41.8l1.3352-.3488h.269v3.0191h.03a2.32,2.32,0,0,1,1.6142-.817c1.1458,0,1.3351,1.0262,1.3351,1.8433V47.48c0,.5281.11.7174.7374.7174v.289h-2.2917v-.289c.6875,0,.7273-.1992.7273-.6775V45.7957c0-.817-.11-1.5045-.9167-1.5045a1.81,1.81,0,0,0-1.2355.6177Zm8.2494-.3189A1.9735,1.9735,0,0,1,211,48.5856c-1.1957,0-2.1223-.8668-2.1223-2.471,0-1.664.9366-2.4611,2.1024-2.4611,1.0861,0,1.8035.7871,1.8533,2.1821h-3.1486c0,1.375.7572,2.0027,1.5543,2.0027a1.5766,1.5766,0,0,0,1.4349-.7772Zm-.9665-1.7337c-.03-.7373-.3587-1.4149-1.0662-1.4149-.6775,0-1.0761.4883-1.1558,1.4149Zm5.4294-.7573h.03c.5082-.7373.8071-1.086,1.2854-1.086a.5146.5146,0,0,1,.5779.5579c0,.3787-.2192.5381-.4384.5381-.3288,0-.5281-.3388-.6477-.3388-.2291,0-.548.4185-.7871.8171V47.47c0,.6277.1893.7273.9366.7273v.289h-2.491v-.289c.6576,0,.7274-.12.7274-.6775v-2.74c0-.3587,0-.5381-.3587-.5381a1.9083,1.9083,0,0,0-.3089.02v-.279l1.2355-.299h.2391Zm6.1873,2.491a1.9735,1.9735,0,0,1-1.8633,1.385c-1.1957,0-2.1223-.8668-2.1223-2.471,0-1.664.9366-2.4611,2.1024-2.4611,1.0861,0,1.8035.7871,1.8533,2.1821h-3.1486c0,1.375.7572,2.0027,1.5544,2.0027a1.5766,1.5766,0,0,0,1.4348-.7772Zm-.9665-1.7337c-.03-.7373-.3587-1.4149-1.0662-1.4149-.6775,0-1.0761.4883-1.1558,1.4149Zm1.9125,1.385c.2092,1.0263.5879,1.375,1.3252,1.375.4982,0,.8569-.1893.8569-.6576s-.1893-.6576-1.116-1.116c-.9067-.4583-1.3152-.807-1.3152-1.5444,0-.817.6676-1.2554,1.5245-1.2554a2.1878,2.1878,0,0,1,1.0462.259h.01l.1693-.2092h.1993l.03,1.5245h-.269c-.2192-.9466-.5879-1.2356-1.1957-1.2356-.4583,0-.8071.2093-.8071.6577,0,.3886.3288.6377,1.1658,1.0661.9067.4783,1.395.8469,1.395,1.5843,0,.9366-.7772,1.2953-1.674,1.2953a2.4946,2.4946,0,0,1-1.1359-.2591h-.02l-.2092.2292H224.23l-.03-1.7138Zm8.6682,1.4547-1.2655.2292h-.2192v-.7672h-.05a2.2613,2.2613,0,0,1-1.6341.817c-.827,0-1.3053-.4683-1.3053-1.8234V44.74c0-.538-.1395-.5779-.6775-.5878v-.279l1.2853-.15h.2192v2.91c0,1.0163.3787,1.3152.8968,1.3152a1.7812,1.7812,0,0,0,1.2256-.5978V44.73c0-.5281-.1694-.5779-.8071-.5779v-.279l1.395-.15h.2391V47.38c0,.5879.12.6576.5978.6576h.1Zm2.8888.1794h-2.2917v-.289c.6576,0,.6975-.1594.6975-.7174V42.4777c0-.4085-.1694-.4284-.4185-.4284a2.7174,2.7174,0,0,0-.3188.02V41.8L235,41.4514h.2491V47.48c0,.5779.05.7174.7672.7174Zm3.3376-.7373c-.3886.538-.5978.8369-1.2355.8369-.6676,0-.9566-.3587-.9566-1.2554V44.1915h-.548v-.2292a2.9648,2.9648,0,0,0,1.126-1.5543h.259l-.01,1.365h1.1259v.4185h-1.1259v2.86c0,.7074.09.9466.4782.9466.3189,0,.4484-.13.6975-.4086Zm3.0586.12a2.0581,2.0581,0,0,1-1.4647.6875,1.0763,1.0763,0,0,1-1.1858-1.1159c0-1.3153,1.7637-1.5743,2.6206-1.8434V45.158c0-.8668-.2989-1.1957-.8968-1.1957-.5679,0-.6676.2093-.6676.8071a.4006.4006,0,0,1-.4384.4584.4314.4314,0,0,1-.4185-.4783c0-.558.6676-1.096,1.7537-1.096s1.4946.4982,1.4946,1.5344V47.45c0,.4086.09.4883.2989.4883a.6323.6323,0,0,0,.4683-.2491l.15.1594c-.3288.4783-.568.6875-1.0761.6875-.4385,0-.5381-.2292-.5979-.6676Zm-.03-1.943c-.9067.2292-1.7437.4982-1.7437,1.2754a.7175.7175,0,0,0,.7174.8071,1.6808,1.6808,0,0,0,1.0263-.4384ZM248.958,47.48c0,.558.07.7274.7374.7274v.279h-2.3017v-.279c.7074,0,.7373-.1694.7373-.7274V45.6761c0-1.1956-.4683-1.3849-.9167-1.3849a1.8261,1.8261,0,0,0-1.2056.6277V47.48c0,.558.04.7274.7572.7274v.279h-2.2817v-.279c.6676,0,.6975-.1694.6975-.7274v-2.8c0-.3587-.15-.4384-.4185-.4384a1.5087,1.5087,0,0,0-.269.02v-.289l1.2654-.289h.2292l-.01.8071h.04a2.4245,2.4245,0,0,1,1.6042-.8369c.9068,0,1.3352.6277,1.3352,1.7735Zm4.0546.2691c-.3886.538-.5978.8369-1.2355.8369-.6676,0-.9565-.3587-.9565-1.2554V44.1915h-.5481v-.2292a2.9648,2.9648,0,0,0,1.126-1.5543h.259l-.01,1.365h1.1259v.4185h-1.1259v2.86c0,.7074.09.9466.4782.9466.3189,0,.4484-.13.6975-.4086ZM256.4,43.773a3.1041,3.1041,0,0,1,.3188-1.664,1.3609,1.3609,0,0,1,1.3252-.7273c.6477,0,1.116.2491,1.116.6974a.3875.3875,0,0,1-.4085.4285c-.4982,0-.548-.7573-1.0462-.7573-.3687,0-.4783.299-.4783,1.1359v.8868h1.2156v.4185h-1.2156V47.3c0,.7772.1893.8967,1.0163.8967v.289h-2.68v-.289c.7274,0,.837-.12.837-.8967V44.1915h-.7573V43.773Zm6.825,2.2619c0,1.6739-.9167,2.5507-2.212,2.5507-1.395,0-2.232-.8967-2.232-2.5109a2.204,2.204,0,0,1,2.232-2.4212A2.1317,2.1317,0,0,1,263.2247,46.0349Zm-3.5173-.09c0,1.5842.4882,2.2518,1.3451,2.2419.8171,0,1.2555-.4783,1.2555-2.1024,0-1.2256-.4484-2.0526-1.3352-2.0526C260.2155,44.0321,259.7074,44.67,259.7074,45.9452Zm5.6788-1.2356h.03c.5082-.7373.8071-1.086,1.2854-1.086a.5146.5146,0,0,1,.5779.5579c0,.3787-.2192.5381-.4385.5381-.3288,0-.528-.3388-.6476-.3388-.2292,0-.548.4185-.7872.8171V47.47c0,.6277.1894.7273.9367.7273v.289h-2.4911v-.289c.6577,0,.7274-.12.7274-.6775v-2.74c0-.3587,0-.5381-.3587-.5381a1.9061,1.9061,0,0,0-.3088.02v-.279l1.2355-.299h.2391Zm6.1175,2.4412a2.0237,2.0237,0,0,1-1.933,1.4348c-1.2455,0-1.9928-.9665-1.9928-2.3515,0-1.5643.8171-2.5806,2.2519-2.5806.9366,0,1.5145.4782,1.5145,1.0561,0,.289-.1395.4484-.4185.4484-.7373,0-.4085-1.1359-1.2654-1.1359-.8071,0-1.2953.5979-1.2953,1.7437,0,1.2156.4882,2.0725,1.5145,2.0725a1.6322,1.6322,0,0,0,1.4348-.827Zm4.5131.05a1.9734,1.9734,0,0,1-1.8632,1.385c-1.1957,0-2.1224-.8668-2.1224-2.471,0-1.664.9366-2.4611,2.1024-2.4611,1.0861,0,1.8035.7871,1.8533,2.1821h-3.1486c0,1.375.7573,2.0027,1.5544,2.0027a1.5764,1.5764,0,0,0,1.4348-.7772Zm-.9665-1.7337c-.03-.7373-.3587-1.4149-1.0661-1.4149-.6776,0-1.0761.4883-1.1559,1.4149Zm6.6351,2.4013a2.0581,2.0581,0,0,1-1.4647.6875A1.0763,1.0763,0,0,1,279.035,47.44c0-1.3153,1.7636-1.5743,2.62-1.8434V45.158c0-.8668-.2989-1.1957-.8967-1.1957-.568,0-.6676.2093-.6676.8071a.4006.4006,0,0,1-.4384.4584.4314.4314,0,0,1-.4185-.4783c0-.558.6676-1.096,1.7536-1.096s1.4946.4982,1.4946,1.5344V47.45c0,.4086.09.4883.299.4883a.6323.6323,0,0,0,.4683-.2491l.1494.1594c-.3288.4783-.5679.6875-1.0761.6875-.4384,0-.538-.2292-.5978-.6676Zm-.03-1.943c-.9067.2292-1.7437.4982-1.7437,1.2754a.7175.7175,0,0,0,.7174.8071,1.68,1.68,0,0,0,1.0263-.4384Zm4.8916,1.8235c-.3885.538-.5978.8369-1.2355.8369-.6676,0-.9565-.3587-.9565-1.2554V44.1915h-.548v-.2292a2.9647,2.9647,0,0,0,1.1259-1.5543h.259l-.01,1.365h1.1259v.4185h-1.1259v2.86c0,.7074.09.9466.4782.9466.3189,0,.4484-.13.6975-.4086Zm5.4795,0c-.3886.538-.5978.8369-1.2355.8369-.6676,0-.9566-.3587-.9566-1.2554V44.1915h-.548v-.2292a2.9647,2.9647,0,0,0,1.1259-1.5543h.2591l-.01,1.365h1.1259v.4185h-1.1259v2.86c0,.7074.09.9466.4782.9466.3189,0,.4484-.13.6975-.4086ZM293.88,47.52c0,.5181.05.6775.7374.6775v.289H292.355v-.289c.5182,0,.6975-.08.6975-.6377V42.4578c0-.3488-.2192-.3986-.4882-.3986a2.1225,2.1225,0,0,0-.289.02V41.8l1.3352-.3488h.269v3.0191h.03a2.32,2.32,0,0,1,1.6142-.817c1.1458,0,1.3352,1.0262,1.3352,1.8433V47.48c0,.5281.11.7174.7373.7174v.289h-2.2917v-.289c.6875,0,.7273-.1992.7273-.6775V45.7957c0-.817-.11-1.5045-.9166-1.5045a1.81,1.81,0,0,0-1.2356.6177Zm8.2494-.3189a1.9735,1.9735,0,0,1-1.8633,1.385c-1.1957,0-2.1223-.8668-2.1223-2.471,0-1.664.9366-2.4611,2.1024-2.4611,1.0861,0,1.8035.7871,1.8533,2.1821H298.95c0,1.375.7572,2.0027,1.5544,2.0027a1.5766,1.5766,0,0,0,1.4348-.7772Zm-.9665-1.7337c-.03-.7373-.3588-1.4149-1.0662-1.4149-.6775,0-1.0761.4883-1.1558,1.4149Zm5.43,2.0526c0,.5181.05.6775.7373.6775v.289h-2.2618v-.289c.5181,0,.6975-.08.6975-.6377V42.4578c0-.3488-.2192-.3986-.4883-.3986a2.1219,2.1219,0,0,0-.2889.02V41.8l1.3351-.3488h.2691v3.0191h.03a2.32,2.32,0,0,1,1.6141-.817c1.1459,0,1.3352,1.0262,1.3352,1.8433V47.48c0,.5281.11.7174.7373.7174v.289h-2.2917v-.289c.6875,0,.7274-.1992.7274-.6775V45.7957c0-.817-.11-1.5045-.9167-1.5045a1.81,1.81,0,0,0-1.2355.6177Zm6.4857.9665h-2.2419v-.279c.6676,0,.6975-.1594.6975-.7274V44.7c0-.4285-.15-.4683-.4384-.4683a1.5525,1.5525,0,0,0-.2492.02v-.289l1.2555-.279h.2591V47.48c0,.5779.05.7274.7174.7274Zm-.548-6.3471a.55.55,0,0,1-.568.568.5553.5553,0,0,1-.5679-.568.568.568,0,0,1,1.1359,0Zm5.6193,5.3407c0,.558.07.7274.7374.7274v.279h-2.3017v-.279c.7075,0,.7373-.1694.7373-.7274V45.6761c0-1.1956-.4683-1.3849-.9167-1.3849a1.8261,1.8261,0,0,0-1.2056.6277V47.48c0,.558.04.7274.7572.7274v.279h-2.2817v-.279c.6676,0,.6975-.1694.6975-.7274v-2.8c0-.3587-.1495-.4384-.4185-.4384a1.5087,1.5087,0,0,0-.269.02v-.289l1.2654-.289h.2292l-.01.8071h.04a2.4241,2.4241,0,0,1,1.6042-.8369c.9067,0,1.3351.6277,1.3351,1.7735Zm2.2213-.8469a1.4622,1.4622,0,0,1-.7672-1.3551,1.6268,1.6268,0,0,1,1.8034-1.6241,2.47,2.47,0,0,1,1.1061.2491l1.2853-.07v.5381l-.9366-.03v.05a1.7108,1.7108,0,0,1,.3587,1.0263,1.5574,1.5574,0,0,1-1.7637,1.5145,2.5737,2.5737,0,0,1-.8568-.1494,1.6658,1.6658,0,0,0-.2591.6675c0,.299.2591.3986,1.1758.3986,1.2554,0,2.2119.04,2.2119,1.1857,0,1.3352-1.4746,1.7935-2.73,1.7935-1.3053,0-1.6939-.548-1.6939-1.096,0-.3288.2691-.6676.8071-1.1857v-.04a.8783.8783,0,0,1-.558-.7174,1.7541,1.7541,0,0,1,.8171-1.1359Zm-.289,2.76c0,.5779.4783.8669,1.4946.8669,1.1758,0,1.6441-.5181,1.6441-.9466,0-.7174-1.0662-.6975-1.7338-.7074-.7971-.01-.9864-.02-1.1259-.02A1.637,1.637,0,0,0,320.0812,49.3927Zm.3986-4.155c0,.8569.3387,1.3452.9864,1.3452.4982,0,.8669-.279.8669-1.2256,0-.8071-.3587-1.3451-.9964-1.3451C320.8185,44.0122,320.48,44.4008,320.48,45.2377Zm7.8111,1.9629a1.9735,1.9735,0,0,1-1.8633,1.385c-1.1957,0-2.1223-.8668-2.1223-2.471,0-1.664.9366-2.4611,2.1024-2.4611,1.086,0,1.8035.7871,1.8533,2.1821h-3.1486c0,1.375.7572,2.0027,1.5543,2.0027a1.5766,1.5766,0,0,0,1.4349-.7772Zm-.9666-1.7337c-.03-.7373-.3587-1.4149-1.0661-1.4149-.6775,0-1.0761.4883-1.1558,1.4149Zm1.8827,4.1849a1.1654,1.1654,0,0,0,.827-1.2057.85.85,0,0,1-.3089.06.4992.4992,0,0,1-.548-.538.573.573,0,0,1,.6178-.5879c.4981,0,.7672.3288.7672.8768a1.71,1.71,0,0,1-1.2356,1.6441Z"/><path d="M337.0668,45.3274v.05c.3587.2491.558.7573,1.3751,2.3017a.8753.8753,0,0,0,.9167.5082l-.06.2989h-1.5146c-.7472-1.6441-.9565-2.0626-1.2654-2.67-.1494-.2789-.279-.3387-.6377-.3387h-.2092l-.3687,1.7736c-.1693.827-.06.9366.7971.9366l-.05.2989h-2.75l.06-.2989c.7374,0,.8868-.1,1.0562-.9366l.8769-4.2746c.11-.548.05-.7373-.7473-.7373l.06-.2989h2.3416c1.3949,0,2.212.4085,2.212,1.375C339.1593,44.72,337.9337,45.1779,337.0668,45.3274Zm-1.3252-.2192.3089.01c1.1957-.04,2.1224-.4883,2.1224-1.7637,0-.538-.299-1.0263-1.2854-1.0263a5.396,5.396,0,0,0-.5879.03Z"/><path d="M340.0249,47.9676a.5886.5886,0,0,1,.5976-.6269.6284.6284,0,1,1-.5976.6269Z"/><path d="M16.7964,62.4334l-1.7032-6.7158h.916l.7979,3.3975c.1992.8369.3779,1.6738.498,2.3222h.02c.11-.6679.3193-1.4648.5478-2.332l.8975-3.3877h.9062l.8174,3.4082c.1895.7969.3682,1.5938.4688,2.3008h.02c.14-.7373.3281-1.4844.5381-2.3213l.8867-3.3877h.8867L21.39,62.4334h-.9062l-.8477-3.497a20.0965,20.0965,0,0,1-.4375-2.1924h-.02a20.657,20.657,0,0,1-.5186,2.1924l-.956,3.497Z"/><path d="M23.95,60.1815a1.5453,1.5453,0,0,0,1.6543,1.6738,3.1649,3.1649,0,0,0,1.3349-.249l.1494.6279a3.9016,3.9016,0,0,1-1.6044.2988,2.24,2.24,0,0,1-2.3711-2.4316,2.3418,2.3418,0,0,1,2.2617-2.6006,2.0441,2.0441,0,0,1,1.9931,2.2725,3.356,3.356,0,0,1-.03.4082Zm2.5713-.628a1.2489,1.2489,0,0,0-1.2159-1.4248A1.4528,1.4528,0,0,0,23.96,59.5535Z"/><path d="M34.2319,62.2537a3.22,3.22,0,0,1-1.3848.2793,2.2909,2.2909,0,0,1-2.4013-2.4609,2.45,2.45,0,0,1,2.59-2.56,2.9222,2.9222,0,0,1,1.2158.249l-.1992.6777a2.0269,2.0269,0,0,0-1.0166-.23,1.8182,1.8182,0,0,0-.0293,3.627,2.4941,2.4941,0,0,0,1.0762-.2393Z"/><path d="M37.9272,62.4334l-.0693-.6074h-.03a1.7969,1.7969,0,0,1-1.4746.7168,1.3738,1.3738,0,0,1-1.4746-1.3848c0-1.166,1.0371-1.8037,2.9-1.7939v-.1a.9943.9943,0,0,0-1.0967-1.1153,2.4034,2.4034,0,0,0-1.2549.3584L35.228,57.93a2.9925,2.9925,0,0,1,1.584-.4287c1.4746,0,1.833,1.0068,1.833,1.9736v1.8028a6.81,6.81,0,0,0,.08,1.1562Zm-.1289-2.4609c-.957-.02-2.043.1494-2.043,1.0859a.7758.7758,0,0,0,.8272.8369,1.2,1.2,0,0,0,1.166-.8066.9048.9048,0,0,0,.05-.2793Z"/><path d="M40.0591,58.9158c0-.498-.01-.9062-.04-1.3046h.7774l.05.7968h.02a1.7726,1.7726,0,0,1,1.5937-.9072c.668,0,1.7041.3994,1.7041,2.0527v2.88h-.8769v-2.78c0-.7774-.2891-1.4249-1.1162-1.4249a1.2461,1.2461,0,0,0-1.1758.8975,1.2792,1.2792,0,0,0-.06.4082v2.8994h-.8769Z"/><path d="M52.0952,55.3592v5.8291c0,.4277.01.916.039,1.2451h-.7871l-.039-.8369h-.0205a1.7824,1.7824,0,0,1-1.6436.9463,2.1983,2.1983,0,0,1-2.0625-2.4512,2.3069,2.3069,0,0,1,2.1621-2.5908,1.6125,1.6125,0,0,1,1.4541.7373h.0205V55.3592Zm-.877,4.2149a1.5777,1.5777,0,0,0-.04-.3692,1.291,1.291,0,0,0-1.2656-1.0166c-.9073,0-1.4444.7979-1.4444,1.8633,0,.9766.4776,1.7842,1.4248,1.7842a1.3178,1.3178,0,0,0,1.2852-1.0469,1.5422,1.5422,0,0,0,.04-.3779Z"/><path d="M57.9126,59.9823a2.3569,2.3569,0,0,1-2.4014,2.56,2.2926,2.2926,0,0,1-2.3115-2.48,2.3557,2.3557,0,0,1,2.3916-2.5615A2.284,2.284,0,0,1,57.9126,59.9823Zm-3.8262.05c0,1.0566.6084,1.8535,1.4648,1.8535.837,0,1.4649-.7871,1.4649-1.8731,0-.8174-.4092-1.8535-1.4444-1.8535C54.5346,58.159,54.0864,59.1151,54.0864,60.0321Z"/><path d="M62.4155,56.2254v1.3858h1.2559v.667H62.4155v2.6005c0,.5977.1689.9366.6572.9366a1.9423,1.9423,0,0,0,.5088-.06l.0391.6582a2.151,2.151,0,0,1-.7764.1191,1.2194,1.2194,0,0,1-.9473-.3681,1.79,1.79,0,0,1-.3388-1.2559V58.2782H60.811v-.667h.7471V56.4549Z"/><path d="M64.6567,55.3592h.877V58.368h.02a1.6308,1.6308,0,0,1,.6279-.6172,1.7989,1.7989,0,0,1,.8965-.25c.6484,0,1.6846.3994,1.6846,2.0635v2.8691h-.877v-2.77c0-.7773-.289-1.4356-1.1162-1.4356a1.2591,1.2591,0,0,0-1.1758.877,1.0645,1.0645,0,0,0-.0595.4189v2.9092h-.877Z"/><path d="M71.1626,56.2557a.543.543,0,0,1-1.086,0,.5339.5339,0,0,1,.5479-.5479A.52.52,0,0,1,71.1626,56.2557Zm-.9766,6.1777V57.6112h.877v4.8222Z"/><path d="M72.3979,61.5369a2.2986,2.2986,0,0,0,1.1553.3487c.6377,0,.9365-.3194.9365-.7178,0-.418-.249-.6475-.8965-.8867-.8672-.3086-1.2754-.7871-1.2754-1.3653a1.4876,1.4876,0,0,1,1.6641-1.415,2.3967,2.3967,0,0,1,1.1855.3l-.2187.6377a1.8722,1.8722,0,0,0-.9863-.2793c-.5186,0-.8076.2988-.8076.6572,0,.3985.289.5782.9169.8174.837.3184,1.2657.7373,1.2657,1.4551,0,.8467-.6582,1.4443-1.8037,1.4443a2.7511,2.7511,0,0,1-1.3555-.3291Z"/><path d="M78.7632,62.4334c.02-.3291.04-.8174.04-1.2451V55.3592H79.67v3.0293H79.69a1.7982,1.7982,0,0,1,1.6445-.8877c1.1954,0,2.042.9971,2.0323,2.4619a2.2911,2.2911,0,0,1-2.1621,2.58,1.7188,1.7188,0,0,1-1.6143-.9062H79.561l-.04.7968Zm.9072-1.9326a1.5956,1.5956,0,0,0,.04.3184,1.3533,1.3533,0,0,0,1.3154,1.0263c.9161,0,1.4639-.747,1.4639-1.8535,0-.9658-.498-1.7929-1.4346-1.7929A1.3978,1.3978,0,0,0,79.72,59.2752a1.7528,1.7528,0,0,0-.05.3584Z"/><path d="M84.7905,57.6112l1.0566,2.85c.1094.3183.23.6972.3086.9863h.02c.0889-.2891.1885-.6582.3086-1.0068l.9561-2.8291h.9267l-1.3154,3.4375a7.3327,7.3327,0,0,1-1.6533,3.0185,2.3811,2.3811,0,0,1-1.0762.5684l-.22-.7373a2.3155,2.3155,0,0,0,.7676-.4287,2.6606,2.6606,0,0,0,.7373-.9766.623.623,0,0,0,.0693-.209.7621.7621,0,0,0-.06-.23l-1.7832-4.4433Z"/><path d="M91.3862,61.5369a2.2993,2.2993,0,0,0,1.1562.3487c.6368,0,.9356-.3194.9356-.7178,0-.418-.2481-.6475-.8965-.8867-.8662-.3086-1.2754-.7871-1.2754-1.3653a1.4876,1.4876,0,0,1,1.6641-1.415,2.3967,2.3967,0,0,1,1.1855.3l-.2187.6377a1.8722,1.8722,0,0,0-.9863-.2793c-.5186,0-.8077.2988-.8077.6572,0,.3985.2891.5782.917.8174.8369.3184,1.2657.7373,1.2657,1.4551,0,.8467-.6583,1.4443-1.8038,1.4443a2.7507,2.7507,0,0,1-1.3554-.3291Z"/><path d="M99.4858,61.118c0,.498.0108.9365.04,1.3154H98.75l-.0508-.7871h-.02a1.8143,1.8143,0,0,1-1.5938.8965c-.7578,0-1.664-.418-1.664-2.1123V57.6112h.8769v2.67c0,.917.2783,1.5342,1.0752,1.5342a1.2677,1.2677,0,0,0,1.1563-.7969,1.2806,1.2806,0,0,0,.08-.4483V57.6112h.876Z"/><path d="M100.9,62.4334c.02-.3291.04-.8174.04-1.2451V55.3592h.8672v3.0293h.0195a1.7983,1.7983,0,0,1,1.6446-.8877c1.1953,0,2.042.9971,2.0322,2.4619a2.2911,2.2911,0,0,1-2.1621,2.58,1.7188,1.7188,0,0,1-1.6143-.9062h-.0293l-.04.7968Zm.9072-1.9326a1.5956,1.5956,0,0,0,.04.3184,1.3534,1.3534,0,0,0,1.3155,1.0263c.916,0,1.4638-.747,1.4638-1.8535,0-.9658-.498-1.7929-1.4345-1.7929a1.3978,1.3978,0,0,0-1.335,1.0761,1.7528,1.7528,0,0,0-.05.3584Z"/><path d="M106.49,61.5369a2.2986,2.2986,0,0,0,1.1553.3487c.6377,0,.9365-.3194.9365-.7178,0-.418-.249-.6475-.8965-.8867-.8672-.3086-1.2754-.7871-1.2754-1.3653a1.4876,1.4876,0,0,1,1.6641-1.415,2.4,2.4,0,0,1,1.1855.3l-.2187.6377a1.8763,1.8763,0,0,0-.9873-.2793c-.5176,0-.8066.2988-.8066.6572,0,.3985.289.5782.9169.8174.837.3184,1.2657.7373,1.2657,1.4551,0,.8467-.6582,1.4443-1.8037,1.4443a2.7511,2.7511,0,0,1-1.3555-.3291Z"/><path d="M111.61,56.2254v1.3858h1.2559v.667H111.61v2.6005c0,.5977.17.9366.6582.9366a1.9274,1.9274,0,0,0,.5078-.06l.04.6582a2.1608,2.1608,0,0,1-.7774.1191,1.2168,1.2168,0,0,1-.9462-.3681,1.79,1.79,0,0,1-.3389-1.2559V58.2782h-.7471v-.667h.7471V56.4549Z"/><path d="M114.8276,56.2557a.543.543,0,0,1-1.0859,0,.5347.5347,0,0,1,.5488-.5479A.52.52,0,0,1,114.8276,56.2557Zm-.9756,6.1777V57.6112h.876v4.8222Z"/><path d="M117.2387,56.2254v1.3858h1.2559v.667h-1.2559v2.6005c0,.5977.17.9366.6582.9366a1.9343,1.9343,0,0,0,.5079-.06l.04.6582a2.1608,2.1608,0,0,1-.7774.1191,1.2168,1.2168,0,0,1-.9462-.3681,1.79,1.79,0,0,1-.3389-1.2559V58.2782h-.7481v-.667h.7481V56.4549Z"/><path d="M123.5161,61.118c0,.498.01.9365.039,1.3154h-.7763l-.0508-.7871h-.0195a1.8131,1.8131,0,0,1-1.5938.8965c-.7578,0-1.664-.418-1.664-2.1123V57.6112h.8769v2.67c0,.917.2783,1.5342,1.0762,1.5342a1.2662,1.2662,0,0,0,1.1553-.7969,1.2806,1.2806,0,0,0,.08-.4483V57.6112h.877Z"/><path d="M126.0258,56.2254v1.3858h1.2559v.667h-1.2559v2.6005c0,.5977.169.9366.6573.9366a1.9429,1.9429,0,0,0,.5088-.06l.04.6582a2.1606,2.1606,0,0,1-.7773.1191,1.2194,1.2194,0,0,1-.9473-.3681,1.7905,1.7905,0,0,1-.3379-1.2559V58.2782h-.748v-.667h.748V56.4549Z"/><path d="M129.2436,56.2557a.543.543,0,0,1-1.0859,0,.5345.5345,0,0,1,.5478-.5479A.52.52,0,0,1,129.2436,56.2557Zm-.9765,6.1777V57.6112h.8769v4.8222Z"/><path d="M130.5981,58.9158c0-.498-.01-.9062-.04-1.3046h.7773l.05.7968h.02A1.7741,1.7741,0,0,1,133,57.5008c.6679,0,1.7041.3994,1.7041,2.0527v2.88h-.877v-2.78c0-.7774-.289-1.4249-1.1162-1.4249a1.2481,1.2481,0,0,0-1.1758.8975,1.2821,1.2821,0,0,0-.06.4082v2.8994h-.877Z"/><path d="M140.2827,57.6112c-.0195.3486-.04.7373-.04,1.3252v2.8a2.773,2.773,0,0,1-.6875,2.2021,2.5532,2.5532,0,0,1-1.7529.5772,3.1063,3.1063,0,0,1-1.6045-.3985l.2188-.667a2.7229,2.7229,0,0,0,1.415.378c.8965,0,1.5547-.4678,1.5547-1.6836v-.5381h-.02a1.7215,1.7215,0,0,1-1.5342.8076,2.1562,2.1562,0,0,1-2.0527-2.3516,2.3153,2.3153,0,0,1,2.1719-2.5615,1.6021,1.6021,0,0,1,1.5048.8379h.02l.0391-.7275Zm-.9063,1.9023a1.2451,1.2451,0,0,0-.0507-.3984,1.2632,1.2632,0,0,0-1.2247-.9268c-.8378,0-1.4355.708-1.4355,1.8242,0,.9463.4785,1.7334,1.4248,1.7334a1.2822,1.2822,0,0,0,1.2158-.8965,1.5293,1.5293,0,0,0,.07-.4687Z"/><path d="M149.0522,57.6114c0-1.0861-.04-1.3352-1.1458-1.3352h-.568l-.9864,4.8525c-.1893.9067-.07,1.0064.7772,1.0064l-.06.2989h-2.84l.06-.2989c.837,0,.9765-.1,1.1658-1.0064l.9865-4.8525h-.568c-1.106,0-1.2156.2491-1.654,1.3352h-.3189l.4086-1.7238H149.66l-.2989,1.7238Z"/><path d="M153.6831,56.2557a.543.543,0,0,1-1.086,0,.5348.5348,0,0,1,.5489-.5479A.52.52,0,0,1,153.6831,56.2557Zm-.9766,6.1777V57.6112h.877v4.8222Z"/><path d="M155.0385,58.9158c0-.498-.01-.9062-.04-1.3046h.7773l.05.7968h.0195a1.7744,1.7744,0,0,1,1.5947-.9072c.667,0,1.7041.3994,1.7041,2.0527v2.88h-.8769v-2.78c0-.7774-.2891-1.4249-1.1163-1.4249a1.286,1.286,0,0,0-1.2353,1.3057v2.8994h-.877Z"/><path d="M161.6235,56.2254v1.3858h1.2559v.667h-1.2559v2.6005c0,.5977.1689.9366.6572.9366a1.9368,1.9368,0,0,0,.5088-.06l.04.6582a2.1612,2.1612,0,0,1-.7774.1191,1.2209,1.2209,0,0,1-.9473-.3681,1.7955,1.7955,0,0,1-.3378-1.2559V58.2782h-.7481v-.667h.7481V56.4549Z"/><path d="M168.1889,59.9823a2.3566,2.3566,0,0,1-2.4,2.56,2.2928,2.2928,0,0,1-2.3125-2.48,2.3558,2.3558,0,0,1,2.3916-2.5615A2.2834,2.2834,0,0,1,168.1889,59.9823Zm-3.8261.05c0,1.0566.6084,1.8535,1.4648,1.8535.8379,0,1.4648-.7871,1.4648-1.8731,0-.8174-.4082-1.8535-1.4443-1.8535S164.3628,59.1151,164.3628,60.0321Z"/><path d="M172.6919,56.2254v1.3858h1.2558v.667h-1.2558v2.6005c0,.5977.1689.9366.6572.9366a1.9368,1.9368,0,0,0,.5088-.06l.04.6582a2.1606,2.1606,0,0,1-.7773.1191,1.2209,1.2209,0,0,1-.9473-.3681,1.7955,1.7955,0,0,1-.3379-1.2559V58.2782h-.748v-.667h.748V56.4549Z"/><path d="M174.9331,55.3592h.8769V58.368h.02a1.6329,1.6329,0,0,1,.6289-.6172,1.7927,1.7927,0,0,1,.8964-.25c.6475,0,1.6836.3994,1.6836,2.0635v2.8691h-.8769v-2.77c0-.7773-.2891-1.4356-1.1152-1.4356a1.259,1.259,0,0,0-1.1758.877,1.0454,1.0454,0,0,0-.0606.4189v2.9092h-.8769Z"/><path d="M180.9507,60.1815a1.5453,1.5453,0,0,0,1.6542,1.6738,3.1685,3.1685,0,0,0,1.335-.249l.1494.6279a3.9,3.9,0,0,1-1.6035.2988,2.24,2.24,0,0,1-2.3721-2.4316,2.3418,2.3418,0,0,1,2.2618-2.6006,2.0435,2.0435,0,0,1,1.9931,2.2725,3.14,3.14,0,0,1-.03.4082Zm2.5712-.628a1.2489,1.2489,0,0,0-1.2158-1.4248,1.4545,1.4545,0,0,0-1.3457,1.4248Z"/><path d="M188.851,56.2254v1.3858h1.2559v.667H188.851v2.6005c0,.5977.17.9366.6582.9366a1.9343,1.9343,0,0,0,.5079-.06l.04.6582a2.1606,2.1606,0,0,1-.7773.1191,1.2156,1.2156,0,0,1-.9463-.3681,1.7854,1.7854,0,0,1-.3389-1.2559V58.2782h-.7471v-.667h.7471V56.4549Z"/><path d="M191.4409,57.6112l.6387,2.4511c.1386.5381.2685,1.0362.3584,1.5342h.0293c.11-.4883.2695-1.0068.4287-1.5244l.7871-2.4609h.7373l.747,2.4111c.18.5781.3194,1.0859.4288,1.5742h.03a14.6569,14.6569,0,0,1,.3682-1.5644l.6875-2.4209h.8672l-1.5547,4.8222h-.7969l-.7373-2.3017a16.1176,16.1176,0,0,1-.4287-1.584h-.0195a14.4323,14.4323,0,0,1-.4385,1.5937l-.7773,2.292H192l-1.4551-4.8222Z"/><path d="M202.74,59.9823a2.3573,2.3573,0,0,1-2.4014,2.56,2.2921,2.2921,0,0,1-2.3115-2.48,2.355,2.355,0,0,1,2.3906-2.5615A2.2842,2.2842,0,0,1,202.74,59.9823Zm-3.8262.05c0,1.0566.6075,1.8535,1.4649,1.8535.8369,0,1.4648-.7871,1.4648-1.8731,0-.8174-.4091-1.8535-1.4453-1.8535S198.9135,59.1151,198.9135,60.0321Z"/><path d="M206.6743,60.1815a1.5442,1.5442,0,0,0,1.6533,1.6738,3.1735,3.1735,0,0,0,1.3359-.249l.1495.6279a3.9064,3.9064,0,0,1-1.6045.2988,2.24,2.24,0,0,1-2.3711-2.4316,2.3412,2.3412,0,0,1,2.2617-2.6006,2.0434,2.0434,0,0,1,1.9922,2.2725,3.395,3.395,0,0,1-.0293.4082Zm2.57-.628a1.2483,1.2483,0,0,0-1.2158-1.4248,1.4527,1.4527,0,0,0-1.3447,1.4248Z"/><path d="M214.4653,61.6864h-.0205a1.7152,1.7152,0,0,1-1.5742.8564,2.2,2.2,0,0,1-2.042-2.4414,2.3106,2.3106,0,0,1,2.1816-2.6006,1.5874,1.5874,0,0,1,1.4854.8379h.0195l.0293-.7275h.8272c-.02.4082-.0293.8271-.0293,1.3252v5.47h-.877Zm0-2.1221a1.48,1.48,0,0,0-.04-.3692,1.2807,1.2807,0,0,0-1.2559-.996c-.9062,0-1.4541.7666-1.4541,1.8525,0,.957.458,1.7939,1.4248,1.7939a1.3061,1.3061,0,0,0,1.2559-.956,1.5076,1.5076,0,0,0,.0693-.419Z"/><path d="M220.8217,61.118c0,.498.01.9365.0391,1.3154h-.7773l-.0489-.7871h-.02a1.8142,1.8142,0,0,1-1.5937.8965c-.7578,0-1.6641-.418-1.6641-2.1123V57.6112h.876v2.67c0,.917.2793,1.5342,1.0762,1.5342a1.2675,1.2675,0,0,0,1.1562-.7969,1.2805,1.2805,0,0,0,.08-.4483V57.6112h.8769Z"/><path d="M224.9458,62.4334l-.07-.6074h-.0293a1.7986,1.7986,0,0,1-1.4746.7168,1.3747,1.3747,0,0,1-1.4756-1.3848c0-1.166,1.0371-1.8037,2.9-1.7939v-.1a.9935.9935,0,0,0-1.0957-1.1153,2.4067,2.4067,0,0,0-1.2559.3584l-.1992-.5781a2.9948,2.9948,0,0,1,1.584-.4287c1.4746,0,1.8339,1.0068,1.8339,1.9736v1.8028a6.8273,6.8273,0,0,0,.0791,1.1562Zm-.13-2.4609c-.957-.02-2.043.1494-2.043,1.0859a.7758.7758,0,0,0,.8272.8369,1.2,1.2,0,0,0,1.166-.8066.9048.9048,0,0,0,.05-.2793Z"/><path d="M228.1333,56.2254v1.3858h1.2558v.667h-1.2558v2.6005c0,.5977.1689.9366.6572.9366a1.9368,1.9368,0,0,0,.5088-.06l.04.6582a2.1606,2.1606,0,0,1-.7773.1191,1.2209,1.2209,0,0,1-.9473-.3681,1.7955,1.7955,0,0,1-.3379-1.2559V58.2782h-.748v-.667h.748V56.4549Z"/><path d="M231.351,56.2557a.543.543,0,0,1-1.0859,0,.5345.5345,0,0,1,.5479-.5479A.52.52,0,0,1,231.351,56.2557Zm-.9765,6.1777V57.6112h.8769v4.8222Z"/><path d="M237.07,59.9823a2.3569,2.3569,0,0,1-2.4014,2.56,2.2926,2.2926,0,0,1-2.3115-2.48,2.3557,2.3557,0,0,1,2.3916-2.5615A2.284,2.284,0,0,1,237.07,59.9823Zm-3.8262.05c0,1.0566.6084,1.8535,1.4649,1.8535.8369,0,1.4648-.7871,1.4648-1.8731,0-.8174-.4082-1.8535-1.4453-1.8535C233.6928,58.159,233.2436,59.1151,233.2436,60.0321Z"/><path d="M238.1753,58.9158c0-.498-.01-.9062-.04-1.3046h.7774l.05.7968h.0195a1.7769,1.7769,0,0,1,1.5947-.9072c.668,0,1.7041.3994,1.7041,2.0527v2.88h-.8769v-2.78c0-.7774-.2891-1.4249-1.1162-1.4249a1.286,1.286,0,0,0-1.2354,1.3057v2.8994h-.8769Z"/><path d="M243.5854,61.5369a2.2986,2.2986,0,0,0,1.1553.3487c.6377,0,.9365-.3194.9365-.7178,0-.418-.249-.6475-.8965-.8867-.8672-.3086-1.2754-.7871-1.2754-1.3653a1.4876,1.4876,0,0,1,1.6641-1.415,2.4,2.4,0,0,1,1.1855.3l-.2187.6377a1.8722,1.8722,0,0,0-.9863-.2793c-.5186,0-.8076.2988-.8076.6572,0,.3985.289.5782.9169.8174.837.3184,1.2657.7373,1.2657,1.4551,0,.8467-.6582,1.4443-1.8037,1.4443a2.7511,2.7511,0,0,1-1.3555-.3291Z"/><path d="M250.3393,57.6112l.6387,2.4511c.1387.5381.2686,1.0362.3584,1.5342h.0293c.11-.4883.2695-1.0068.4287-1.5244l.7871-2.4609h.7373l.7471,2.4111c.18.5781.3193,1.0859.4287,1.5742h.03a14.6551,14.6551,0,0,1,.3681-1.5644l.6875-2.4209h.8672l-1.5547,4.8222h-.7968l-.7373-2.3017a16.1178,16.1178,0,0,1-.4288-1.584h-.02a14.41,14.41,0,0,1-.4385,1.5937l-.7773,2.292h-.7969l-1.4551-4.8222Z"/><path d="M257.7612,60.1815a1.5453,1.5453,0,0,0,1.6543,1.6738,3.1735,3.1735,0,0,0,1.3359-.249l.1485.6279a3.897,3.897,0,0,1-1.6035.2988,2.24,2.24,0,0,1-2.3711-2.4316,2.3412,2.3412,0,0,1,2.2617-2.6006,2.0434,2.0434,0,0,1,1.9922,2.2725,3.395,3.395,0,0,1-.0293.4082Zm2.5713-.628a1.2489,1.2489,0,0,0-1.2158-1.4248,1.4528,1.4528,0,0,0-1.3448,1.4248Z"/><path d="M264.6958,62.4334V58.2782h-.6778v-.667h.6778v-.2295a2.2735,2.2735,0,0,1,.5576-1.6836,1.6764,1.6764,0,0,1,1.1758-.4483,2.0522,2.0522,0,0,1,.748.1387l-.12.6777a1.314,1.314,0,0,0-.5576-.1093c-.7481,0-.9375.6572-.9375,1.3945v.26h1.166v.667h-1.166v4.1552Z"/><path d="M271.8794,59.9823a2.3569,2.3569,0,0,1-2.4014,2.56,2.292,2.292,0,0,1-2.3115-2.48,2.3552,2.3552,0,0,1,2.3916-2.5615A2.284,2.284,0,0,1,271.8794,59.9823Zm-3.8262.05c0,1.0566.6074,1.8535,1.4648,1.8535.8369,0,1.4639-.7871,1.4639-1.8731,0-.8174-.4082-1.8535-1.4443-1.8535S268.0532,59.1151,268.0532,60.0321Z"/><path d="M277.02,61.118c0,.498.01.9365.04,1.3154h-.7773l-.05-.7871h-.02a1.813,1.813,0,0,1-1.5938.8965c-.7578,0-1.664-.418-1.664-2.1123V57.6112h.8769v2.67c0,.917.2793,1.5342,1.0762,1.5342a1.2662,1.2662,0,0,0,1.1553-.7969,1.2806,1.2806,0,0,0,.08-.4483V57.6112h.877Z"/><path d="M278.4741,58.9158c0-.498-.01-.9062-.04-1.3046h.7773l.05.7968h.02a1.7746,1.7746,0,0,1,1.5948-.9072c.6669,0,1.7041.3994,1.7041,2.0527v2.88h-.877v-2.78c0-.7774-.2891-1.4249-1.1162-1.4249a1.286,1.286,0,0,0-1.2354,1.3057v2.8994h-.8769Z"/><path d="M288.1674,55.3592v5.8291c0,.4277.0108.916.04,1.2451H287.42l-.04-.8369h-.0195a1.7849,1.7849,0,0,1-1.6445.9463,2.1989,2.1989,0,0,1-2.0625-2.4512,2.3075,2.3075,0,0,1,2.1621-2.5908,1.6132,1.6132,0,0,1,1.4551.7373h.0195V55.3592Zm-.8769,4.2149a1.5767,1.5767,0,0,0-.0391-.3692,1.29,1.29,0,0,0-1.2656-1.0166c-.9062,0-1.4453.7979-1.4453,1.8633,0,.9766.4785,1.7842,1.4258,1.7842a1.3184,1.3184,0,0,0,1.2851-1.0469,1.5435,1.5435,0,0,0,.0391-.3779Z"/><path d="M292.312,57.6112l.6377,2.4511c.14.5381.2685,1.0362.3584,1.5342h.03c.1094-.4883.2686-1.0068.4288-1.5244l.7871-2.4609h.7373l.747,2.4111c.18.5781.3184,1.0859.4288,1.5742h.0293a14.65,14.65,0,0,1,.3691-1.5644l.6875-2.4209h.8662l-1.5537,4.8222h-.7979l-.7363-2.3017a15.8435,15.8435,0,0,1-.4287-1.584h-.0205a14.2169,14.2169,0,0,1-.4375,1.5937l-.7774,2.292H292.87l-1.4541-4.8222Z"/><path d="M299.2954,55.3592h.8769V58.368h.02a1.63,1.63,0,0,1,.6279-.6172,1.7989,1.7989,0,0,1,.8965-.25c.6484,0,1.6845.3994,1.6845,2.0635v2.8691h-.8769v-2.77c0-.7773-.2891-1.4356-1.1162-1.4356a1.26,1.26,0,0,0-1.1758.877,1.0644,1.0644,0,0,0-.06.4189v2.9092h-.8769Z"/><path d="M305.313,60.1815a1.5453,1.5453,0,0,0,1.6543,1.6738,3.1683,3.1683,0,0,0,1.3349-.249l.1494.6279a3.9022,3.9022,0,0,1-1.6045.2988,2.24,2.24,0,0,1-2.3711-2.4316,2.3418,2.3418,0,0,1,2.2618-2.6006,2.0441,2.0441,0,0,1,1.9931,2.2725,3.356,3.356,0,0,1-.03.4082Zm2.5712-.628a1.2488,1.2488,0,0,0-1.2158-1.4248,1.4537,1.4537,0,0,0-1.3457,1.4248Z"/><path d="M309.8159,58.9158c0-.498-.01-.9062-.04-1.3046h.7774l.05.7968h.0195a1.777,1.777,0,0,1,1.5948-.9072c.6679,0,1.7041.3994,1.7041,2.0527v2.88h-.877v-2.78c0-.7774-.2891-1.4249-1.1162-1.4249a1.286,1.286,0,0,0-1.2354,1.3057v2.8994h-.8769Z"/><path d="M317.686,59.1151c0-.5674-.01-1.0557-.04-1.5039h.7675l.03.9462h.04a1.4468,1.4468,0,0,1,1.3349-1.0566.967.967,0,0,1,.249.03v.8271a1.3427,1.3427,0,0,0-.2988-.03,1.23,1.23,0,0,0-1.1758,1.1259,2.5307,2.5307,0,0,0-.04.4092v2.57h-.8672Z"/><path d="M321.3432,60.1815a1.5447,1.5447,0,0,0,1.6534,1.6738,3.1649,3.1649,0,0,0,1.3349-.249l.15.6279a3.91,3.91,0,0,1-1.6045.2988,2.24,2.24,0,0,1-2.3721-2.4316,2.3418,2.3418,0,0,1,2.2618-2.6006,2.0435,2.0435,0,0,1,1.9931,2.2725,3.14,3.14,0,0,1-.03.4082Zm2.57-.628a1.2488,1.2488,0,0,0-1.2158-1.4248,1.4527,1.4527,0,0,0-1.3447,1.4248Z"/><path d="M325.726,61.5369a2.2993,2.2993,0,0,0,1.1563.3487c.6367,0,.9355-.3194.9355-.7178,0-.418-.248-.6475-.8964-.8867-.8672-.3086-1.2754-.7871-1.2754-1.3653a1.4875,1.4875,0,0,1,1.664-1.415,2.3974,2.3974,0,0,1,1.1856.3l-.2188.6377a1.8719,1.8719,0,0,0-.9863-.2793c-.5186,0-.8076.2988-.8076.6572,0,.3985.289.5782.917.8174.8369.3184,1.2656.7373,1.2656,1.4551,0,.8467-.6582,1.4443-1.8037,1.4443a2.7445,2.7445,0,0,1-1.3545-.3291Z"/><path d="M334.1548,59.9823a2.3569,2.3569,0,0,1-2.4014,2.56,2.2926,2.2926,0,0,1-2.3115-2.48,2.3557,2.3557,0,0,1,2.3916-2.5615A2.284,2.284,0,0,1,334.1548,59.9823Zm-3.8262.05c0,1.0566.6084,1.8535,1.4648,1.8535.8369,0,1.4649-.7871,1.4649-1.8731,0-.8174-.4082-1.8535-1.4444-1.8535S330.3286,59.1151,330.3286,60.0321Z"/><path d="M335.26,55.3592h.877v7.0742h-.877Z"/><path d="M337.9507,57.6112l.9462,2.71a12.4621,12.4621,0,0,1,.3887,1.2354h.0293c.11-.3985.249-.7969.4092-1.2354l.9365-2.71h.917l-1.8935,4.8222h-.837l-1.8339-4.8222Z"/><path d="M343.3794,56.2557a.543.543,0,0,1-1.086,0,.5345.5345,0,0,1,.5479-.5479A.52.52,0,0,1,343.3794,56.2557Zm-.9766,6.1777V57.6112h.877v4.8222Z"/><path d="M344.7339,58.9158c0-.498-.01-.9062-.0391-1.3046h.7773l.0489.7968h.02a1.7743,1.7743,0,0,1,1.5947-.9072c.667,0,1.7031.3994,1.7031,2.0527v2.88h-.8769v-2.78c0-.7774-.2891-1.4249-1.1153-1.4249a1.29,1.29,0,0,0-1.2363,1.3057v2.8994h-.8769Z"/><path d="M354.4184,57.6112c-.0195.3486-.04.7373-.04,1.3252v2.8a2.7734,2.7734,0,0,1-.6875,2.2021,2.5534,2.5534,0,0,1-1.7529.5772,3.1058,3.1058,0,0,1-1.6045-.3985l.2187-.667a2.7232,2.7232,0,0,0,1.4151.378c.8974,0,1.5546-.4678,1.5546-1.6836v-.5381h-.0205a1.7214,1.7214,0,0,1-1.5341.8076,2.1555,2.1555,0,0,1-2.0518-2.3516,2.3147,2.3147,0,0,1,2.1719-2.5615,1.6017,1.6017,0,0,1,1.5039.8379h.0205l.04-.7275Zm-.9062,1.9023a1.2832,1.2832,0,0,0-1.2754-1.3252c-.8369,0-1.4346.708-1.4346,1.8242,0,.9463.4776,1.7334,1.4238,1.7334a1.2825,1.2825,0,0,0,1.2168-.8965,1.5559,1.5559,0,0,0,.0694-.4687Z"/><path d="M359.14,56.2557a.543.543,0,0,1-1.0859,0,.5345.5345,0,0,1,.5478-.5479A.52.52,0,0,1,359.14,56.2557Zm-.9766,6.1777V57.6112h.877v4.8222Z"/><path d="M360.4956,58.9158c0-.498-.01-.9062-.04-1.3046h.7764l.0508.7968h.02a1.7741,1.7741,0,0,1,1.5938-.9072c.6679,0,1.7041.3994,1.7041,2.0527v2.88h-.876v-2.78c0-.7774-.2891-1.4249-1.1162-1.4249a1.286,1.286,0,0,0-1.2354,1.3057v2.8994h-.8769Z"/><path d="M367.0805,56.2254v1.3858h1.2549v.667h-1.2549v2.6005c0,.5977.169.9366.6573.9366a1.928,1.928,0,0,0,.5078-.06l.041.6582a2.1648,2.1648,0,0,1-.7774.1191,1.2179,1.2179,0,0,1-.9472-.3681,1.7905,1.7905,0,0,1-.3379-1.2559V58.2782h-.7481v-.667h.7481V56.4549Z"/><path d="M373.646,59.9823a2.3569,2.3569,0,0,1-2.4014,2.56,2.2926,2.2926,0,0,1-2.3115-2.48,2.3557,2.3557,0,0,1,2.3916-2.5615A2.284,2.284,0,0,1,373.646,59.9823Zm-3.8262.05c0,1.0566.6084,1.8535,1.4648,1.8535.837,0,1.4649-.7871,1.4649-1.8731,0-.8174-.4082-1.8535-1.4453-1.8535C370.269,58.159,369.82,59.1151,369.82,60.0321Z"/><path d="M377.4311,57.6112l.9473,2.71a12.4886,12.4886,0,0,1,.3887,1.2354h.0293c.1093-.3985.249-.7969.4082-1.2354l.9375-2.71h.916l-1.8926,4.8222h-.8379l-1.833-4.8222Z"/><path d="M382.3335,60.1815a1.5446,1.5446,0,0,0,1.6533,1.6738,3.1649,3.1649,0,0,0,1.3349-.249l.15.6279a3.91,3.91,0,0,1-1.6045.2988,2.24,2.24,0,0,1-2.372-2.4316,2.3418,2.3418,0,0,1,2.2617-2.6006,2.0436,2.0436,0,0,1,1.9932,2.2725,3.1584,3.1584,0,0,1-.03.4082Zm2.57-.628a1.2489,1.2489,0,0,0-1.2158-1.4248,1.4528,1.4528,0,0,0-1.3448,1.4248Z"/><path d="M386.8354,59.1151c0-.5674-.01-1.0557-.039-1.5039h.7675l.0293.9462h.04a1.4468,1.4468,0,0,1,1.3349-1.0566.9627.9627,0,0,1,.2491.03v.8271a1.3385,1.3385,0,0,0-.2989-.03,1.2306,1.2306,0,0,0-1.1758,1.1259,2.5307,2.5307,0,0,0-.04.4092v2.57h-.8672Z"/><path d="M391.15,56.2254v1.3858h1.2558v.667H391.15v2.6005c0,.5977.1689.9366.6572.9366a1.9368,1.9368,0,0,0,.5088-.06l.039.6582a2.1526,2.1526,0,0,1-.7773.1191,1.2186,1.2186,0,0,1-.9463-.3681,1.79,1.79,0,0,1-.3389-1.2559V58.2782h-.747v-.667h.747V56.4549Z"/><path d="M394.3676,56.2557a.543.543,0,0,1-1.0859,0,.5345.5345,0,0,1,.5479-.5479A.52.52,0,0,1,394.3676,56.2557Zm-.9765,6.1777V57.6112h.8769v4.8222Z"/><path d="M399.16,62.2537a3.2121,3.2121,0,0,1-1.3847.2793,2.2909,2.2909,0,0,1-2.4014-2.4609,2.45,2.45,0,0,1,2.5908-2.56,2.926,2.926,0,0,1,1.2158.249l-.1992.6777a2.03,2.03,0,0,0-1.0166-.23,1.8181,1.8181,0,0,0-.0293,3.627,2.489,2.489,0,0,0,1.0752-.2393Z"/><path d="M402.8559,62.4334l-.0693-.6074h-.03a1.7969,1.7969,0,0,1-1.4746.7168,1.3738,1.3738,0,0,1-1.4746-1.3848c0-1.166,1.0361-1.8037,2.8994-1.7939v-.1a.9935.9935,0,0,0-1.0957-1.1153,2.407,2.407,0,0,0-1.2559.3584l-.1992-.5781a2.9954,2.9954,0,0,1,1.584-.4287c1.4746,0,1.834,1.0068,1.834,1.9736v1.8028a6.8169,6.8169,0,0,0,.0791,1.1562Zm-.13-2.4609c-.956-.02-2.0419.1494-2.0419,1.0859a.7753.7753,0,0,0,.8271.8369,1.2,1.2,0,0,0,1.165-.8066.9048.9048,0,0,0,.05-.2793Z"/><path d="M404.9878,55.3592h.8769v7.0742h-.8769Z"/><path d="M412.35,62.4334l-.0694-.6074h-.03a1.7973,1.7973,0,0,1-1.4747.7168,1.3738,1.3738,0,0,1-1.4746-1.3848c0-1.166,1.0362-1.8037,2.8995-1.7939v-.1a.9935.9935,0,0,0-1.0958-1.1153,2.4093,2.4093,0,0,0-1.2558.3584L409.65,57.93a2.9948,2.9948,0,0,1,1.584-.4287c1.4746,0,1.8339,1.0068,1.8339,1.9736v1.8028a6.7187,6.7187,0,0,0,.08,1.1562Zm-.13-2.4609c-.9561-.02-2.042.1494-2.042,1.0859a.7758.7758,0,0,0,.8271.8369,1.2,1.2,0,0,0,1.1661-.8066.9337.9337,0,0,0,.0488-.2793Z"/><path d="M414.4819,58.9158c0-.498-.01-.9062-.04-1.3046h.7773l.05.7968h.0195a1.7746,1.7746,0,0,1,1.5948-.9072c.667,0,1.7041.3994,1.7041,2.0527v2.88h-.877v-2.78c0-.7774-.289-1.4249-1.1162-1.4249a1.2856,1.2856,0,0,0-1.2353,1.3057v2.8994h-.877Z"/><path d="M424.1762,55.3592v5.8291c0,.4277.01.916.04,1.2451h-.7871l-.04-.8369h-.02a1.7822,1.7822,0,0,1-1.6435.9463,2.1983,2.1983,0,0,1-2.0625-2.4512,2.3069,2.3069,0,0,1,2.1621-2.5908,1.6126,1.6126,0,0,1,1.4541.7373h.0205V55.3592Zm-.8769,4.2149a1.5263,1.5263,0,0,0-.04-.3692,1.2894,1.2894,0,0,0-1.2656-1.0166c-.9062,0-1.4443.7979-1.4443,1.8633,0,.9766.4775,1.7842,1.4248,1.7842a1.3176,1.3176,0,0,0,1.2851-1.0469,1.495,1.495,0,0,0,.04-.3779Z"/><path d="M15.6714,69.3065h.8769v3.0088h.0195a1.6236,1.6236,0,0,1,.628-.6172,1.7931,1.7931,0,0,1,.8965-.25c.6474,0,1.6835.3994,1.6835,2.0635v2.8691h-.8769v-2.77c0-.7774-.2881-1.4356-1.1152-1.4356a1.259,1.259,0,0,0-1.1758.877,1.0644,1.0644,0,0,0-.06.4189v2.9092h-.8769Z"/><path d="M25.5639,73.93a2.3567,2.3567,0,0,1-2.4,2.5606,2.2928,2.2928,0,0,1-2.3125-2.48,2.3557,2.3557,0,0,1,2.3916-2.5615A2.2839,2.2839,0,0,1,25.5639,73.93Zm-3.8261.05c0,1.0567.6084,1.8535,1.4648,1.8535.8369,0,1.4648-.7871,1.4648-1.873,0-.8174-.4082-1.8535-1.4443-1.8535S21.7378,73.0623,21.7378,73.9793Z"/><path d="M26.6694,73.0623c0-.5674-.01-1.0556-.04-1.5039h.7675l.03.9463h.0391a1.449,1.449,0,0,1,1.3359-1.0566.9672.9672,0,0,1,.249.03v.8272a1.3423,1.3423,0,0,0-.2988-.03,1.23,1.23,0,0,0-1.1758,1.126,2.4217,2.4217,0,0,0-.04.4092v2.57h-.8672Z"/><path d="M30.9038,70.203a.543.543,0,0,1-1.086,0,.534.534,0,0,1,.5479-.5479A.52.52,0,0,1,30.9038,70.203Zm-.9766,6.1777V71.5584h.877v4.8223Z"/><path d="M31.71,75.8729l2.1817-2.84c.21-.26.4091-.4882.6279-.747v-.02H31.91v-.7071h3.6768l-.01.5479-2.1523,2.8c-.1992.2685-.3985.5078-.6182.7568v.0205h2.82v.6973H31.71Z"/><path d="M40.8862,73.93a2.3567,2.3567,0,0,1-2.4,2.5606,2.2928,2.2928,0,0,1-2.3125-2.48,2.3557,2.3557,0,0,1,2.3916-2.5615A2.2834,2.2834,0,0,1,40.8862,73.93Zm-3.8262.05c0,1.0567.6084,1.8535,1.4649,1.8535.8379,0,1.4648-.7871,1.4648-1.873,0-.8174-.4082-1.8535-1.4443-1.8535S37.06,73.0623,37.06,73.9793Z"/><path d="M41.9917,72.8631c0-.498-.01-.9062-.04-1.3047h.7774l.05.7969h.0205a1.7739,1.7739,0,0,1,1.5937-.9072c.668,0,1.7041.3994,1.7041,2.0527v2.88H45.22V73.6c0-.7773-.2891-1.4248-1.1162-1.4248a1.286,1.286,0,0,0-1.2354,1.3057v2.8994h-.8769Z"/><path d="M48.5776,70.1727v1.3857h1.2549v.667H48.5776V74.826c0,.5977.169.9365.6572.9365a1.9326,1.9326,0,0,0,.5078-.0595l.04.6582a2.1572,2.1572,0,0,1-.7774.1191,1.2169,1.2169,0,0,1-.9462-.3682,1.7894,1.7894,0,0,1-.3389-1.2558V72.2254h-.7471v-.667H47.72V70.4022Z"/><path d="M53.4887,76.3807l-.0693-.6074h-.03a1.7969,1.7969,0,0,1-1.4746.7168A1.3738,1.3738,0,0,1,50.44,75.1053c0-1.166,1.0361-1.8037,2.8994-1.7939v-.1a.9935.9935,0,0,0-1.0957-1.1152,2.409,2.409,0,0,0-1.2558.3584l-.1993-.5781a2.9954,2.9954,0,0,1,1.584-.4287c1.4756,0,1.834,1.0068,1.834,1.9736v1.8027a6.7091,6.7091,0,0,0,.08,1.1563ZM53.36,73.92c-.957-.0206-2.0429.1494-2.0429,1.0859a.7758.7758,0,0,0,.8271.8369,1.2,1.2,0,0,0,1.166-.8066.9359.9359,0,0,0,.05-.2793Z"/><path d="M55.6206,69.3065h.8769v7.0742h-.8769Z"/><path d="M63.7505,76.201a3.2214,3.2214,0,0,1-1.3848.2793,2.2909,2.2909,0,0,1-2.4014-2.4609,2.45,2.45,0,0,1,2.5908-2.5606,2.9307,2.9307,0,0,1,1.2159.249l-.2.6778a2.0256,2.0256,0,0,0-1.0157-.23,1.8181,1.8181,0,0,0-.03,3.6269,2.4941,2.4941,0,0,0,1.0761-.2392Z"/><path d="M69.14,73.93A2.3569,2.3569,0,0,1,66.7387,76.49a2.2926,2.2926,0,0,1-2.3115-2.48,2.3557,2.3557,0,0,1,2.3916-2.5615A2.2839,2.2839,0,0,1,69.14,73.93Zm-3.8262.05c0,1.0567.6084,1.8535,1.4649,1.8535.8369,0,1.4648-.7871,1.4648-1.873,0-.8174-.4082-1.8535-1.4453-1.8535C65.7632,72.1063,65.3139,73.0623,65.3139,73.9793Z"/><path d="M70.2456,72.8631c0-.498-.01-.9062-.04-1.3047h.7676l.04.7774h.0292a1.6629,1.6629,0,0,1,1.5147-.8877,1.426,1.426,0,0,1,1.3652.9668h.02a1.98,1.98,0,0,1,.5371-.628,1.65,1.65,0,0,1,1.0665-.3388c.6377,0,1.5839.4189,1.5839,2.0927v2.84h-.8564V73.65c0-.9267-.3389-1.4844-1.0459-1.4844a1.1381,1.1381,0,0,0-1.0371.7969,1.4729,1.4729,0,0,0-.0693.4385v2.98h-.8565v-2.89c0-.7675-.3389-1.3252-1.0068-1.3252a1.1984,1.1984,0,0,0-1.086.877,1.2119,1.2119,0,0,0-.0693.4287v2.9092h-.8574Z"/><path d="M78.5542,73.1326c0-.6181-.02-1.1162-.0391-1.5742h.7871l.0391.8272h.02a1.8963,1.8963,0,0,1,1.7139-.9375,2.1846,2.1846,0,0,1,2.0419,2.4511c0,1.7344-1.0556,2.5909-2.1914,2.5909a1.6916,1.6916,0,0,1-1.4853-.7569h-.0195v2.62h-.8672Zm.8672,1.2852a1.9157,1.9157,0,0,0,.04.3584,1.3522,1.3522,0,0,0,1.3154,1.0264c.9258,0,1.4649-.7569,1.4649-1.8633,0-.9658-.5088-1.793-1.4356-1.793a1.3991,1.3991,0,0,0-1.3252,1.086,1.4469,1.4469,0,0,0-.0595.3584Z"/><path d="M88.5874,73.93A2.357,2.357,0,0,1,86.186,76.49a2.292,2.292,0,0,1-2.3115-2.48,2.3551,2.3551,0,0,1,2.3916-2.5615A2.284,2.284,0,0,1,88.5874,73.93Zm-3.8262.05c0,1.0567.6074,1.8535,1.4648,1.8535.837,0,1.4649-.7871,1.4649-1.873,0-.8174-.4092-1.8535-1.4453-1.8535S84.7612,73.0623,84.7612,73.9793Z"/><path d="M89.6928,72.8631c0-.498-.01-.9062-.04-1.3047H90.43l.05.7969h.02a1.7744,1.7744,0,0,1,1.5947-.9072c.667,0,1.7031.3994,1.7031,2.0527v2.88h-.8759V73.6c0-.7773-.2891-1.4248-1.1163-1.4248A1.286,1.286,0,0,0,90.57,73.4813v2.8994h-.877Z"/><path d="M95.71,74.1287a1.5442,1.5442,0,0,0,1.6533,1.6739,3.1633,3.1633,0,0,0,1.335-.2491l.15.628a3.9116,3.9116,0,0,1-1.6045.2988,2.24,2.24,0,0,1-2.3721-2.4316,2.3419,2.3419,0,0,1,2.2627-2.6006,2.0433,2.0433,0,0,1,1.9922,2.2724,3.3724,3.3724,0,0,1-.0293.4082Zm2.57-.6279a1.2489,1.2489,0,0,0-1.2158-1.4248A1.4527,1.4527,0,0,0,95.72,73.5008Z"/><path d="M100.2133,72.8631c0-.498-.0107-.9062-.04-1.3047h.7774l.05.7969h.0195a1.7744,1.7744,0,0,1,1.5947-.9072c.667,0,1.7031.3994,1.7031,2.0527v2.88h-.8769V73.6c0-.7773-.2891-1.4248-1.1152-1.4248a1.29,1.29,0,0,0-1.2364,1.3057v2.8994h-.876Z"/><path d="M106.7983,70.1727v1.3857h1.2559v.667h-1.2559V74.826c0,.5977.17.9365.6572.9365a1.942,1.942,0,0,0,.5088-.0595l.0391.6582a2.151,2.151,0,0,1-.7764.1191,1.2191,1.2191,0,0,1-.9472-.3682,1.7894,1.7894,0,0,1-.3389-1.2558V72.2254h-.7471v-.667h.7471V70.4022Z"/><path d="M108.92,75.4842a2.2986,2.2986,0,0,0,1.1553.3486c.6376,0,.9365-.3193.9365-.7177,0-.418-.249-.6475-.8965-.8868-.8672-.3085-1.2754-.7871-1.2754-1.3652a1.4875,1.4875,0,0,1,1.6641-1.415,2.3959,2.3959,0,0,1,1.1855.3l-.2187.6377a1.8733,1.8733,0,0,0-.9873-.2793c-.5176,0-.8067.2988-.8067.6572,0,.3984.2891.5781.917.8174.8369.3183,1.2647.7373,1.2647,1.4551,0,.8466-.6573,1.4443-1.8028,1.4443a2.7517,2.7517,0,0,1-1.3554-.3291Z"/><path d="M112.7758,75.8621a.5887.5887,0,0,1,.5977-.6269.6285.6285,0,1,1-.5977.6269Z"/><path d="M44.9179,118.2234v.05c.3587.2491.5579.7573,1.375,2.3017a.8753.8753,0,0,0,.9167.5082l-.06.2989H45.6353c-.7473-1.6441-.9566-2.0625-1.2655-2.67-.1494-.279-.279-.3388-.6377-.3388h-.2092l-.3687,1.7736c-.1694.827-.06.9366.7971.9366l-.05.2989h-2.75l.06-.2989c.7373,0,.8867-.1,1.0561-.9366l.8769-4.2746c.11-.548.05-.7373-.7473-.7373l.06-.2989h2.3416c1.3949,0,2.212.4085,2.212,1.375C47.01,117.6156,45.7847,118.074,44.9179,118.2234Zm-1.3253-.2192.3089.01c1.1957-.04,2.1224-.4883,2.1224-1.7637,0-.538-.299-1.0262-1.2854-1.0262a5.371,5.371,0,0,0-.5879.03Z"/><path d="M51.6933,119.5132c.16-.2162.272-.37.272-.4951,0-.1325-.1325-.1674-.4393-.1674l.0348-.2789h1.6945l-.0348.2789c-.4045,0-.5579.0976-1.053.7183l-3.1658,3.9468h-.3069l-.0558-3.9747c-.0139-.5021-.1325-.69-.509-.69l.0488-.2789h1.8619l-.0419.2789a.57.57,0,0,0-.6345.6v.1465l.0279,2.1338-.0419.774h.0558Z"/><path d="M59.0727,116.0809v2.3418h2.252v.5976h-2.252v2.3614H58.435V119.02H56.1831v-.5976H58.435v-2.3418Z"/><path d="M69.8442,115.285h-.6377l-1.584-4.2647-.748.3194-.1895-.4688,1.375-.5771,1.2256,3.4472a4.5041,4.5041,0,0,1,.1895.6377h.02c.0293-.17.0791-.4287.1289-.6474l1.8535-7.6328h.6582Z"/><line class="cls-5" x1="74.277" y1="105.492" x2="79.209" y2="105.492"/><path d="M74.9341,113.9647a2.9225,2.9225,0,0,0,1.4345.4092c1.126,0,1.4746-.7178,1.4649-1.2559-.01-.9063-.8272-1.2949-1.6739-1.2949h-.4882v-.6582H76.16c.6377,0,1.4453-.3282,1.4453-1.0957,0-.5186-.3291-.9766-1.1367-.9766a2.3807,2.3807,0,0,0-1.2949.4287l-.23-.6377a3.0824,3.0824,0,0,1,1.6944-.498c1.2753,0,1.8535.7568,1.8535,1.5439a1.6077,1.6077,0,0,1-1.1963,1.5244v.02a1.6865,1.6865,0,0,1,1.4453,1.6641c0,1.0361-.8076,1.9424-2.3613,1.9424a3.2881,3.2881,0,0,1-1.6846-.4385Z"/><line class="cls-5" x1="66.367" y1="118.812" x2="79.209" y2="118.812"/><path d="M70.77,127.7576v-.538l.6875-.668c1.6543-1.5742,2.4014-2.4111,2.4111-3.3877a1.1548,1.1548,0,0,0-1.2851-1.2647,2.2057,2.2057,0,0,0-1.375.5479l-.2793-.6182a2.84,2.84,0,0,1,1.834-.6572,1.8219,1.8219,0,0,1,1.9824,1.8828c0,1.1953-.8672,2.1621-2.2324,3.4776l-.5176.4785v.02h2.9092v.7275Z"/><path d="M85.8742,116.5594c0-1.086-.04-1.3351-1.1458-1.3351H84.16l-.9864,4.8524c-.1893.9067-.07,1.0064.7772,1.0064l-.06.2989h-2.84l.06-.2989c.837,0,.9765-.1,1.1658-1.0064l.9865-4.8524h-.568c-1.106,0-1.2156.2491-1.654,1.3351h-.3189l.4086-1.7237H86.482l-.2989,1.7237Zm4.3132,1.5644v-.6776h5.9385v.6776Zm0,2.0326v-.6676h5.9385v.6676Zm13.6294,1.2256H99.891v-.3388l1.5145-1.5145c.9864-1.0163,1.4846-1.6441,1.4846-2.69a1.1511,1.1511,0,0,0-1.2455-1.2255,1.4575,1.4575,0,0,0-1.4547.9764l-.2391-.1a1.9718,1.9718,0,0,1,1.9529-1.5245,1.7294,1.7294,0,0,1,1.9131,1.7238c0,.8868-.568,1.5743-1.6242,2.64l-1.3152,1.2455v.05l.6975-.03h1.385c.5281,0,.6576-.2092.8868-.807h.2889Zm3.0881.11c-1.6042,0-2.1921-1.5344-2.1921-3.2981,0-1.8931.7672-3.2084,2.212-3.2084,1.2854,0,2.1821,1.1857,2.1821,3.2383C109.1069,119.9273,108.4692,121.4916,106.9049,121.4916Zm-.01-6.1677c-.7871,0-1.2255.9466-1.2255,2.9194,0,1.9331.4384,2.89,1.2355,2.89.7872,0,1.2355-.9366,1.2355-2.85C108.14,116.2605,107.712,115.3239,106.8949,115.3239Z"/><path d="M23.7709,148.4794v.05c.3587.2491.5579.7573,1.375,2.3017a.8753.8753,0,0,0,.9167.5082l-.06.2989H24.4883c-.7473-1.6441-.9566-2.0626-1.2655-2.67-.1494-.2789-.279-.3387-.6377-.3387h-.2092l-.3687,1.7736c-.1694.827-.06.9366.7971.9366l-.05.2989h-2.75l.06-.2989c.7373,0,.8867-.1,1.0561-.9366l.8769-4.2746c.11-.548.05-.7373-.7473-.7373l.06-.2989h2.3415c1.3949,0,2.212.4085,2.212,1.375C25.8633,147.8716,24.6377,148.33,23.7709,148.4794Zm-1.3253-.2192.3089.01c1.1957-.04,2.1224-.4883,2.1224-1.7637,0-.538-.299-1.0263-1.2854-1.0263a5.396,5.396,0,0,0-.5879.03Z"/><path d="M30.5463,149.7682c.16-.2162.272-.37.272-.4951,0-.1325-.1325-.1674-.4393-.1674l.0348-.2789h1.6945l-.0348.2789c-.4045,0-.5579.0976-1.053.7183l-3.1658,3.9468h-.3069l-.0558-3.9747c-.0139-.5021-.1324-.69-.509-.69l.0488-.2789h1.8619l-.0419.2789a.57.57,0,0,0-.6345.6v.1465l.0279,2.1338-.0419.774h.0558Z"/><path d="M37.9243,146.3367v2.3418h2.2519v.5977H37.9243v2.3613h-.6377v-2.3613h-2.252v-.5977h2.252v-2.3418Z"/><path d="M48.6967,145.54h-.6376l-1.584-4.2647-.7471.3194-.19-.4688,1.375-.5771,1.2256,3.4472a4.64,4.64,0,0,1,.19.6377h.02c.03-.17.08-.4287.13-.6474l1.8535-7.6329h.6572Z"/><line class="cls-5" x1="53.13" y1="135.748" x2="58.062" y2="135.748"/><path d="M53.7876,144.22a2.9226,2.9226,0,0,0,1.4345.4091c1.126,0,1.4746-.7177,1.4649-1.2558-.01-.9063-.8272-1.2949-1.6738-1.2949h-.4883V141.42h.4883c.6376,0,1.4443-.3282,1.4443-1.0957,0-.5176-.3291-.9766-1.1358-.9766a2.3749,2.3749,0,0,0-1.2949.4287l-.23-.6377a3.0787,3.0787,0,0,1,1.6934-.498c1.2754,0,1.8535.7568,1.8535,1.5439a1.6078,1.6078,0,0,1-1.1953,1.5244v.02a1.6864,1.6864,0,0,1,1.4443,1.6641c0,1.0361-.8066,1.9424-2.3613,1.9424a3.2815,3.2815,0,0,1-1.6836-.4385Z"/><line class="cls-5" x1="45.22" y1="149.067" x2="58.062" y2="149.067"/><path d="M49.6225,158.0125v-.5381l.6875-.6679c1.6543-1.5742,2.4024-2.4112,2.4121-3.3877a1.1553,1.1553,0,0,0-1.2851-1.2647,2.2057,2.2057,0,0,0-1.375.5479l-.2793-.6182a2.8391,2.8391,0,0,1,1.833-.6572,1.8222,1.8222,0,0,1,1.9834,1.8828c0,1.1963-.8672,2.1621-2.2324,3.4775l-.5176.4786v.0195h2.9092v.7275Z"/><path d="M63.5473,144.8573a6.5692,6.5692,0,0,0-1.2558,4.0751,6.7146,6.7146,0,0,0,1.2558,4.0459H62.86a6.44,6.44,0,0,1-1.3056-4.0459,6.5734,6.5734,0,0,1,1.3056-4.0751Z"/><path d="M69.38,145.2616v-.5381l.6875-.668c1.6534-1.5742,2.4014-2.4111,2.4112-3.3877a1.1553,1.1553,0,0,0-1.2852-1.2646,2.2056,2.2056,0,0,0-1.375.5478l-.2793-.6182a2.84,2.84,0,0,1,1.833-.6572,1.8222,1.8222,0,0,1,1.9834,1.8828c0,1.1953-.8672,2.1621-2.2324,3.4776l-.5176.4785v.0195h2.9092v.7276Z"/><path d="M78.3569,139.5223H75.8862l-.25,1.6641a3.5022,3.5022,0,0,1,.5283-.04,2.7385,2.7385,0,0,1,1.3955.3486,1.8461,1.8461,0,0,1,.9258,1.6641,2.2464,2.2464,0,0,1-2.4111,2.2119,3.1751,3.1751,0,0,1-1.6143-.3984l.22-.668a2.8882,2.8882,0,0,0,1.3848.3594,1.4288,1.4288,0,0,0,1.5342-1.4053c-.01-.8369-.5674-1.4345-1.8633-1.4345a6.8155,6.8155,0,0,0-.8965.0693l.419-3.1084h3.0986Z"/><line class="cls-5" x1="67.443" y1="149.067" x2="80.285" y2="149.067"/><path d="M70.92,161.7088h-.6377l-1.585-4.2646-.747.3193-.1895-.4687,1.375-.5772,1.2256,3.4473a4.4862,4.4862,0,0,1,.1894.6377h.0205c.0293-.17.0791-.4287.129-.6475l1.8535-7.6328h.6572Z"/><line class="cls-5" x1="75.353" y1="151.916" x2="80.285" y2="151.916"/><path d="M76.01,160.39a2.9229,2.9229,0,0,0,1.4346.4092c1.126,0,1.4746-.7178,1.4648-1.2559-.01-.9062-.8271-1.2949-1.6738-1.2949h-.4883V157.59h.4883c.6377,0,1.4453-.3281,1.4453-1.0957,0-.5176-.3291-.9766-1.1367-.9766a2.38,2.38,0,0,0-1.2949.4287l-.23-.6377a3.0823,3.0823,0,0,1,1.6943-.498c1.2754,0,1.8535.7568,1.8535,1.5439a1.6088,1.6088,0,0,1-1.1962,1.5244v.02a1.6874,1.6874,0,0,1,1.4453,1.6641c0,1.0361-.8077,1.9424-2.3623,1.9424a3.2869,3.2869,0,0,1-1.6836-.4385Z"/><path d="M81.6792,152.9783a6.75,6.75,0,0,0,1.2549-4.0761,6.6079,6.6079,0,0,0-1.2549-4.0449h.6777a6.3534,6.3534,0,0,1,1.3047,4.0556,6.4754,6.4754,0,0,1-1.3047,4.0654Z"/><path d="M89.9751,148.28v-.5986h5.1416v.5986Zm0,1.9522v-.5977h5.1416v.5977Z"/><path d="M98.7221,151.6375v-.5381l.6875-.6679c1.6543-1.5742,2.4014-2.4112,2.4112-3.3877a1.1549,1.1549,0,0,0-1.2852-1.2647,2.2057,2.2057,0,0,0-1.375.5479l-.2793-.6182a2.8422,2.8422,0,0,1,1.834-.6572,1.8219,1.8219,0,0,1,1.9824,1.8828c0,1.1963-.8662,2.1621-2.2314,3.4775l-.5186.4786v.0195h2.9092v.7275Z"/><path d="M108.1372,148.33c0,2.2012-.8164,3.417-2.252,3.417-1.2646,0-2.122-1.1855-2.1416-3.3281,0-2.1719.9365-3.3672,2.252-3.3672C107.36,145.0516,108.1372,146.2674,108.1372,148.33Zm-3.5166.1c0,1.6836.5176,2.64,1.3144,2.64.8975,0,1.3252-1.0459,1.3252-2.7,0-1.5938-.4082-2.64-1.3144-2.64C105.1782,145.7293,104.6206,146.6658,104.6206,148.43Z"/><path d="M54.3029,180.01v.05c.3587.2491.5579.7573,1.375,2.3017a.8753.8753,0,0,0,.9167.5082l-.06.2989H55.02c-.7473-1.6441-.9566-2.0625-1.2655-2.67-.1494-.2789-.279-.3387-.6377-.3387h-.2092l-.3687,1.7736c-.1694.827-.06.9366.7971.9366l-.05.2989h-2.75l.06-.2989c.7373,0,.8867-.1,1.0561-.9366l.8769-4.2746c.11-.548.05-.7373-.7473-.7373l.06-.2989h2.3415c1.3949,0,2.212.4085,2.212,1.375C56.3953,179.4026,55.17,179.861,54.3029,180.01Zm-1.3253-.2192.3089.01c1.1957-.04,2.1224-.4883,2.1224-1.7637,0-.538-.299-1.0262-1.2854-1.0262a5.3971,5.3971,0,0,0-.5879.03Z"/><path d="M61.0783,181.3c.16-.2162.272-.37.272-.4951,0-.1325-.1325-.1674-.4393-.1674l.0348-.2789H62.64l-.0348.2789c-.4045,0-.5579.0976-1.053.7183l-3.1658,3.9468H58.08l-.0558-3.9747c-.0139-.5021-.1324-.69-.509-.69l.0488-.2789h1.8619l-.0419.2789a.57.57,0,0,0-.6345.6v.1465l.0279,2.1338-.0419.774h.0558Z"/><path d="M68.4565,177.868V180.21h2.252v.5976h-2.252v2.3614h-.6377v-2.3614H65.5669V180.21h2.2519V177.868Z"/><path d="M76.2,176.7928v-.5381l.6875-.668c1.6543-1.5742,2.4013-2.4111,2.4111-3.3876a1.1548,1.1548,0,0,0-1.2851-1.2647,2.2051,2.2051,0,0,0-1.375.5479l-.2793-.6182a2.844,2.844,0,0,1,1.8339-.6572,1.8219,1.8219,0,0,1,1.9825,1.8828c0,1.1953-.8662,2.1621-2.2315,3.4775l-.5185.4785v.02h2.91v.7275Z"/><path d="M85.1772,171.0535H82.7055l-.249,1.6641a3.5176,3.5176,0,0,1,.5283-.04,2.7344,2.7344,0,0,1,1.3946.3486,1.8448,1.8448,0,0,1,.9267,1.6641,2.2464,2.2464,0,0,1-2.4111,2.2119,3.1684,3.1684,0,0,1-1.6143-.3985l.2188-.6679a2.8965,2.8965,0,0,0,1.3857.3593,1.4287,1.4287,0,0,0,1.5342-1.4052c-.01-.8369-.5684-1.4346-1.8633-1.4346a6.8024,6.8024,0,0,0-.8965.0693l.418-3.1084h3.1Z"/><line class="cls-5" x1="75.752" y1="180.599" x2="85.615" y2="180.599"/><path d="M78.6655,189.5438v-.5381l.6875-.668c1.6533-1.5742,2.4-2.4111,2.4111-3.3877a1.1555,1.1555,0,0,0-1.2861-1.2646,2.2056,2.2056,0,0,0-1.375.5478l-.2783-.6181a2.8392,2.8392,0,0,1,1.833-.6573,1.8214,1.8214,0,0,1,1.9824,1.8829c0,1.1962-.8662,2.1621-2.2314,3.4775l-.5186.4785v.02H82.8v.7276Z"/><path d="M89.9751,179.8114v-.5987h5.1416v.5987Zm0,1.9521v-.5977h5.1416v.5977Z"/><path d="M98.7221,183.1688v-.5381l.6875-.668c1.6543-1.5742,2.4014-2.4111,2.4112-3.3877a1.1548,1.1548,0,0,0-1.2852-1.2646,2.2056,2.2056,0,0,0-1.375.5478l-.2793-.6181a2.8422,2.8422,0,0,1,1.834-.6573,1.8219,1.8219,0,0,1,1.9824,1.8829c0,1.1962-.8662,2.1621-2.2314,3.4775l-.5186.4785v.02h2.9092v.7276Z"/><path d="M108.1372,179.8612c0,2.2011-.8164,3.417-2.252,3.417-1.2646,0-2.122-1.1856-2.1416-3.3282,0-2.1718.9365-3.3672,2.252-3.3672C107.36,176.5828,108.1372,177.7987,108.1372,179.8612Zm-3.5166.1c0,1.6836.5176,2.64,1.3144,2.64.8975,0,1.3252-1.0459,1.3252-2.7,0-1.5937-.4082-2.64-1.3144-2.64C105.1782,177.2606,104.6206,178.1971,104.6206,179.9608Z"/><path d="M75.7659,206.1v.05c.3587.2491.5579.7573,1.375,2.3017a.8753.8753,0,0,0,.9167.5082l-.06.2989H76.4833c-.7473-1.6441-.9566-2.0626-1.2655-2.67-.1494-.2789-.279-.3387-.6377-.3387h-.2092l-.3687,1.7736c-.1694.827-.06.9366.7971.9366l-.05.2989H72l.06-.2989c.7374,0,.8868-.1,1.0562-.9366l.8769-4.2746c.11-.548.05-.7373-.7473-.7373l.06-.2989h2.3416c1.3949,0,2.212.4085,2.212,1.375C77.8583,205.4926,76.6327,205.951,75.7659,206.1Zm-1.3253-.2192.3089.01c1.1957-.04,2.1224-.4883,2.1224-1.7637,0-.538-.299-1.0263-1.2854-1.0263a5.396,5.396,0,0,0-.5879.03Z"/><path d="M82.5423,207.39c.16-.2162.272-.37.272-.4951,0-.1325-.1325-.1674-.4393-.1674l.0348-.2789h1.6945l-.0348.2789c-.4045,0-.5579.0976-1.053.7183l-3.1658,3.9468h-.3069l-.0558-3.9747c-.0139-.5021-.1324-.69-.509-.69l.0488-.2789H80.89l-.0419.2789a.57.57,0,0,0-.6345.6v.1465l.0279,2.1338-.0419.774h.0558Z"/><path d="M87.5844,205.9012v-.5986H92.726v.5986Zm0,1.9521v-.5976H92.726v.5976Z"/><path d="M100.6733,197.2244h-.02l-1.126.6075-.1689-.668,1.415-.7568h.7471v6.4765h-.8467Z"/><path d="M107.7466,197.1444h-2.4708l-.249,1.664a3.5142,3.5142,0,0,1,.5274-.04,2.7364,2.7364,0,0,1,1.3955.3486,1.8468,1.8468,0,0,1,.9267,1.6641,2.2469,2.2469,0,0,1-2.4111,2.2119,3.17,3.17,0,0,1-1.6143-.3984l.2188-.667a2.905,2.905,0,0,0,1.3848.3584,1.43,1.43,0,0,0,1.5351-1.4053c-.01-.8369-.5683-1.4346-1.8633-1.4346a6.7856,6.7856,0,0,0-.8965.0694l.418-3.1084h3.0987Z"/><line class="cls-5" x1="98.322" y1="206.689" x2="108.185" y2="206.689"/><path d="M101.2358,215.6346v-.5381l.6875-.668c1.6543-1.5742,2.4014-2.4111,2.4111-3.3877a1.1547,1.1547,0,0,0-1.2851-1.2646,2.2051,2.2051,0,0,0-1.375.5479l-.2793-.6182a2.8419,2.8419,0,0,1,1.834-.6572,1.8219,1.8219,0,0,1,1.9824,1.8828c0,1.1953-.8662,2.1621-2.2315,3.4775l-.5185.4785v.02h2.9092v.7275Z"/><g class="cls-6"><polyline class="cls-7" points="204.027 128.667 204.027 215.379 290.738 215.379"/><polygon points="204.027 125.577 202.376 129.952 204.027 128.508 205.678 129.952 204.027 125.577"/><polygon class="cls-7" points="204.027 125.577 202.376 129.952 204.027 128.508 205.678 129.952 204.027 125.577"/><polygon points="293.828 215.379 289.454 213.728 290.897 215.379 289.454 217.03 293.828 215.379"/><polygon class="cls-7" points="293.828 215.379 289.454 213.728 290.897 215.379 289.454 217.03 293.828 215.379"/><polyline class="cls-7" points="204.027 210.39 209.016 210.39 209.016 215.379"/><path d="M166.2727,149.9162h-1.5163l-1.3458-2.8262c-.09.0089-.1885.0179-.26.0179a2.1913,2.1913,0,0,1-.341-.0359l-.5563,2.1444a.8155.8155,0,0,0-.0269.2063c0,.2154.1615.35.6819.35h.1705l-.0359.1436h-2.916l.0359-.1436h.1436c.6819,0,.8613-.2512.9421-.5562l1.1125-4.4592a.9914.9914,0,0,0,.0449-.2243c0-.1884-.1526-.332-.6909-.332h-.1794l.0359-.1435h2.4314c1.4356,0,1.938.5921,1.938,1.3548,0,.7447-.637,1.3458-1.597,1.5342l1.0318,2.0546a1.1376,1.1376,0,0,0,.9151.7716ZM162.89,146.749a1.2457,1.2457,0,0,0,.2871.0359c1.1933,0,1.7137-.52,1.7137-1.274,0-.969-.5563-1.1216-1.1216-1.1216a1.5373,1.5373,0,0,0-.305.027Z"/><path d="M171.1637,148.161a1.1177,1.1177,0,0,0-.8283.4831l-2.767,3.6141h-.1506v-3.5827c0-.3639-.2384-.5145-.6211-.5145l.0251-.1h1.8446l-.0251.1h-.1192c-.4078,0-.4392.2321-.4392.4392v2.4533l.0251.0063,1.7569-2.2965a.9407.9407,0,0,0,.2384-.4643c0-.0941-.0879-.138-.3263-.138h-.1255l.0251-.1h1.5122Z"/><path d="M174.6889,146.8924v-.5381h4.63v.5381Zm0,1.7588v-.5391h4.63v.5391Z"/><path d="M186.0376,139.619h-.0186l-1.0137.5478-.1523-.6015,1.2734-.6817H186.8v5.8321h-.7627Z"/><path d="M192.4048,139.5477h-2.2256l-.2246,1.498a3.2042,3.2042,0,0,1,.4765-.0351,2.47,2.47,0,0,1,1.2559.3135,1.6635,1.6635,0,0,1,.834,1.498,2.0234,2.0234,0,0,1-2.1709,1.9922,2.864,2.864,0,0,1-1.4541-.3584l.1972-.6016a2.6151,2.6151,0,0,0,1.2481.3233,1.2864,1.2864,0,0,0,1.3808-1.2657c-.0088-.7529-.5107-1.292-1.6777-1.292a5.9318,5.9318,0,0,0-.8066.0635l.3769-2.8h2.79Z"/><line class="cls-8" x1="183.9202" y1="147.6746" x2="192.8866" y2="147.6746"/><path d="M186.5659,156.1932v-.4844l.6191-.6015c1.4883-1.417,2.1621-2.1709,2.1709-3.05a1.04,1.04,0,0,0-1.1572-1.14,1.9834,1.9834,0,0,0-1.2383.4932l-.2519-.5567a2.5621,2.5621,0,0,1,1.6513-.5918,1.641,1.641,0,0,1,1.7852,1.6963c0,1.0762-.78,1.9463-2.01,3.1309l-.4658.4306v.0176h2.6191v.6553Z"/><path d="M256.8447,238.0338h-1.5163l-1.3458-2.8262c-.09.0089-.1885.0179-.26.0179a2.1926,2.1926,0,0,1-.341-.0359l-.5563,2.1444a.8155.8155,0,0,0-.0269.2063c0,.2154.1615.35.6819.35h.1705l-.0359.1436h-2.916l.0359-.1436h.1436c.6819,0,.8613-.2512.9421-.5562l1.1125-4.4592a.9914.9914,0,0,0,.0449-.2243c0-.1884-.1526-.332-.6909-.332h-.1794l.0359-.1435h2.4314c1.4356,0,1.938.5921,1.938,1.3548,0,.7447-.637,1.3458-1.597,1.5342l1.0318,2.0546a1.1376,1.1376,0,0,0,.9151.7716Zm-3.3825-3.1672a1.2457,1.2457,0,0,0,.2871.0359c1.1933,0,1.7137-.52,1.7137-1.274,0-.969-.5563-1.1216-1.1216-1.1216a1.5373,1.5373,0,0,0-.305.027Z"/><path d="M262.7584,236.2786h-.113c-.4768,0-.6086.1757-.665.3953l-.7718,3.1121a.7938.7938,0,0,0-.0251.1757c0,.1317.1192.2133.4894.2133h.1192l-.0251.1h-2.0642l.025-.1h.113c.4517,0,.6023-.1569.6588-.389l.3828-1.5184h-1.7569l-.3827,1.5184a.5372.5372,0,0,0-.0251.1506c0,.1506.1129.2384.4831.2384h.1255l-.0251.1h-2.0706l.0251-.1h.113c.4705,0,.6149-.1757.6651-.389l.7717-3.1121a.58.58,0,0,0,.0251-.1506c0-.1318-.1-.2447-.4894-.2447h-.1255l.0251-.1h2.0706l-.0251.1h-.113c-.4956,0-.6086.1757-.6588.3953l-.3263,1.3615h1.7444l.3325-1.3615a.8355.8355,0,0,0,.0251-.1506c0-.1506-.1192-.2447-.4769-.2447h-.1255l.0252-.1h2.07Z"/><path d="M266.2846,235.01v-.5381h4.6289v.5381Zm0,1.7588v-.5391h4.6289v.5391Z"/><path d="M280.0786,232.8328v-.4843l.6191-.6016c1.4893-1.417,2.1621-2.1709,2.1709-3.05a1.04,1.04,0,0,0-1.1572-1.14,1.98,1.98,0,0,0-1.2373.4932l-.252-.5566a2.5624,2.5624,0,0,1,1.6514-.5918,1.6407,1.6407,0,0,1,1.7852,1.6953c0,1.0771-.78,1.9473-2.01,3.1318l-.4668.4307v.0176h2.62v.6552Z"/><path d="M288.16,227.6649H285.935l-.2246,1.498a3.1782,3.1782,0,0,1,.4756-.0351,2.4689,2.4689,0,0,1,1.2559.3134,1.6625,1.6625,0,0,1,.8349,1.4981,2.0237,2.0237,0,0,1-2.1719,1.9922,2.86,2.86,0,0,1-1.4531-.3584l.1973-.6016a2.6106,2.6106,0,0,0,1.2471.3233,1.2867,1.2867,0,0,0,1.3818-1.2657c-.01-.7529-.5117-1.292-1.6777-1.292a5.95,5.95,0,0,0-.8077.0635l.376-2.8h2.791Z"/><line class="cls-8" x1="275.5146" y1="235.7922" x2="292.8018" y2="235.7922"/><path d="M275.9174,247.703v-.4844l.6192-.6016c1.49-1.417,2.1621-2.1709,2.1719-3.05a1.0405,1.0405,0,0,0-1.1582-1.14,1.98,1.98,0,0,0-1.2373.4931l-.251-.5566a2.5573,2.5573,0,0,1,1.65-.5918,1.6409,1.6409,0,0,1,1.7851,1.6963c0,1.0762-.78,1.9463-2.01,3.1308l-.4668.4307v.0176h2.62v.6553Z"/><path d="M283.1284,239.8992h-.5742l-1.4258-3.84-.6738.2871-.17-.4219,1.2383-.52,1.1035,3.1045a3.91,3.91,0,0,1,.17.5742h.0185c.0264-.1523.0713-.3857.1162-.583l1.669-6.873h.5927Z"/><line class="cls-8" x1="288.3186" y1="238.7506" x2="292.8018" y2="238.7506"/><path d="M288.9106,246.7967a2.6372,2.6372,0,0,0,1.292.3682c1.0137,0,1.3281-.6465,1.3184-1.1309-.0088-.8164-.7442-1.166-1.5069-1.166h-.4394v-.5928h.4394c.5742,0,1.3008-.2959,1.3008-.9863,0-.4668-.2959-.88-1.0225-.88a2.1419,2.1419,0,0,0-1.166.3858l-.207-.5743a2.7781,2.7781,0,0,1,1.5254-.4482c1.1484,0,1.6689.6816,1.6689,1.3906a1.4491,1.4491,0,0,1-1.0771,1.3731v.0175a1.5191,1.5191,0,0,1,1.3008,1.4991c0,.9326-.7266,1.749-2.126,1.749a2.9651,2.9651,0,0,1-1.5166-.3945Z"/><polyline class="cls-9" points="204.027 135.471 204.027 215.379 283.935 215.379"/><polygon class="cls-10" points="204.027 132.38 202.376 136.755 204.027 135.311 205.678 136.755 204.027 132.38"/><polygon class="cls-9" points="204.027 132.38 202.376 136.755 204.027 135.311 205.678 136.755 204.027 132.38"/><polygon class="cls-10" points="287.025 215.379 282.65 213.728 284.094 215.379 282.65 217.03 287.025 215.379"/><polygon class="cls-9" points="287.025 215.379 282.65 213.728 284.094 215.379 282.65 217.03 287.025 215.379"/></g><path d="M362.1689,115.0174v.05c.3587.2491.558.7573,1.375,2.3017a.8753.8753,0,0,0,.9167.5082l-.06.2989h-1.5145c-.7473-1.6441-.9566-2.0626-1.2655-2.67-.1494-.2789-.2789-.3387-.6376-.3387h-.2093l-.3687,1.7736c-.1694.827-.06.9366.7972.9366l-.05.2989h-2.75l.06-.2989c.7373,0,.8868-.1,1.0561-.9366l.8769-4.2746c.11-.548.05-.7373-.7473-.7373l.06-.2989h2.3415c1.395,0,2.212.4085,2.212,1.375C364.2613,114.41,363.0357,114.868,362.1689,115.0174Zm-1.3252-.2192.3088.01c1.1957-.04,2.1224-.4883,2.1224-1.7637,0-.538-.2989-1.0263-1.2854-1.0263a5.3973,5.3973,0,0,0-.5879.03Z"/><path d="M366.7836,117.59h2.4686l.23-1.1855c.1255-.5788.1395-.76-.5439-.76l.0488-.2789h2.1547l-.0488.2789c-.69,0-.7392.1674-.8717.76l-.5578,2.8311c-.1325.6555-.0767.76.5578.76l-.0488.272h-2.1547l.0488-.272c.6416,0,.7183-.0976.8577-.7531l.258-1.3249h-2.4685l-.258,1.3249c-.1325.6555-.07.7531.5509.7531l-.0489.272H364.81l.0488-.272c.6276,0,.7183-.0976.8577-.7531l.5579-2.8381c.1255-.5927.1395-.76-.53-.76l.0488-.2789h2.1617l-.0488.2789c-.6973,0-.767.1813-.8926.76Z"/><path d="M374.6225,114.8182V114.22h5.1407v.5986Zm0,1.9521v-.5976h5.1407v.5976Z"/><path d="M387.7114,106.1414h-.0205l-1.126.6075-.1689-.668,1.415-.7568h.7471v6.4765h-.8467Z"/><line class="cls-5" x1="385.36" y1="115.606" x2="390.292" y2="115.606"/><path d="M385.8081,124.5516v-.5381l.6875-.668c1.6543-1.5742,2.4013-2.4111,2.4111-3.3877a1.1552,1.1552,0,0,0-1.2851-1.2646,2.2056,2.2056,0,0,0-1.375.5478l-.2793-.6181a2.8391,2.8391,0,0,1,1.833-.6572,1.8222,1.8222,0,0,1,1.9834,1.8828c0,1.1963-.8672,2.1621-2.2315,3.4775l-.5185.4785v.02h2.9091v.7275Z"/><path d="M396.9572,113.3534c0-1.0861-.04-1.3352-1.1458-1.3352h-.568l-.9864,4.8525c-.1893.9067-.07,1.0064.7772,1.0064l-.06.2989h-2.84l.06-.2989c.8369,0,.9764-.1,1.1657-1.0064l.9865-4.8525h-.568c-1.106,0-1.2156.2491-1.654,1.3352h-.3189l.4086-1.7237h5.3506l-.2989,1.7237Z"/><path d="M362.1689,143.9334v.05c.3587.2491.558.7573,1.375,2.3017a.8753.8753,0,0,0,.9167.5082l-.06.2989h-1.5145c-.7473-1.6441-.9566-2.0626-1.2655-2.67-.1494-.2789-.2789-.3387-.6376-.3387h-.2093l-.3687,1.7736c-.1694.827-.06.9366.7972.9366l-.05.2989h-2.75l.06-.2989c.7373,0,.8868-.1,1.0561-.9366l.8769-4.2746c.11-.548.05-.7373-.7473-.7373l.06-.2989h2.3415c1.395,0,2.212.4085,2.212,1.375C364.2613,143.3256,363.0357,143.784,362.1689,143.9334Zm-1.3252-.2192.3088.01c1.1957-.04,2.1224-.4883,2.1224-1.7637,0-.538-.2989-1.0263-1.2854-1.0263a5.3973,5.3973,0,0,0-.5879.03Z"/><path d="M366.7836,146.5063h2.4686l.23-1.1855c.1255-.5788.1395-.76-.5439-.76l.0488-.2789h2.1547l-.0488.2789c-.69,0-.7392.1674-.8717.76l-.5578,2.8312c-.1325.6554-.0767.76.5578.76l-.0488.272h-2.1547l.0488-.272c.6416,0,.7183-.0976.8577-.7531l.258-1.3249h-2.4685l-.258,1.3249c-.1325.6555-.07.7531.5509.7531l-.0489.272H364.81l.0488-.272c.6276,0,.7183-.0976.8577-.7531l.5579-2.8381c.1255-.5927.1395-.76-.53-.76l.0488-.2789h2.1617l-.0488.2789c-.6973,0-.767.1813-.8926.76Z"/><path d="M374.6225,143.7342v-.5986h5.1407v.5986Zm0,1.9522v-.5977h5.1407v.5977Z"/><path d="M387.7114,135.0565h-.0205l-1.126.6074-.1689-.668,1.415-.7568h.7471v6.4766h-.8467Z"/><line class="cls-5" x1="385.36" y1="144.522" x2="390.292" y2="144.522"/><path d="M385.8081,153.4666v-.5381l.6875-.6679c1.6543-1.5742,2.4013-2.4112,2.4111-3.3877a1.1553,1.1553,0,0,0-1.2851-1.2647,2.2057,2.2057,0,0,0-1.375.5479l-.2793-.6182a2.8391,2.8391,0,0,1,1.833-.6572,1.8222,1.8222,0,0,1,1.9834,1.8828c0,1.1953-.8672,2.1621-2.2315,3.4775l-.5185.4786v.0195h2.9091v.7275Z"/><path d="M395.7768,140.3114a6.5755,6.5755,0,0,0-1.2549,4.0752,6.721,6.721,0,0,0,1.2549,4.0458h-.6875a6.4466,6.4466,0,0,1-1.3047-4.0458,6.5807,6.5807,0,0,1,1.3047-4.0752Z"/><path d="M401.61,140.7157v-.5381l.6875-.668c1.6543-1.5742,2.4014-2.4111,2.4112-3.3877a1.1548,1.1548,0,0,0-1.2852-1.2646,2.2056,2.2056,0,0,0-1.375.5478l-.2793-.6182a2.8419,2.8419,0,0,1,1.834-.6572,1.8219,1.8219,0,0,1,1.9824,1.8828c0,1.1963-.8672,2.1621-2.2314,3.4776l-.5186.4785v.0195h2.91v.7276Z"/><path d="M410.5864,134.9764h-2.4707l-.249,1.6641a3.4974,3.4974,0,0,1,.5273-.04,2.7353,2.7353,0,0,1,1.3955.3487,1.8465,1.8465,0,0,1,.9268,1.664,2.247,2.247,0,0,1-2.4112,2.2119,3.1691,3.1691,0,0,1-1.6142-.3984l.2187-.667a2.9042,2.9042,0,0,0,1.3848.3584,1.43,1.43,0,0,0,1.5352-1.4053c-.01-.8369-.5684-1.4345-1.8633-1.4345a6.7865,6.7865,0,0,0-.8965.0693l.418-3.1084h3.0986Z"/><line class="cls-5" x1="399.673" y1="144.522" x2="412.515" y2="144.522"/><path d="M403.15,157.1639h-.6377l-1.584-4.2647-.7471.3194-.1894-.4688,1.375-.5771,1.2256,3.4472a4.48,4.48,0,0,1,.1884.6377h.02c.03-.17.08-.4287.13-.6474l1.8535-7.6328h.6573Z"/><line class="cls-5" x1="407.583" y1="147.371" x2="412.515" y2="147.371"/><path d="M408.24,155.8426a2.9263,2.9263,0,0,0,1.4356.4092c1.125,0,1.4746-.7178,1.4648-1.2559-.0107-.9062-.8271-1.2949-1.6738-1.2949h-.4883v-.6582h.4883c.6367,0,1.4443-.3281,1.4443-1.0957,0-.5176-.3291-.9766-1.1357-.9766a2.3811,2.3811,0,0,0-1.2959.4287l-.2295-.6376a3.0839,3.0839,0,0,1,1.6943-.4981c1.2754,0,1.8535.7568,1.8535,1.5439a1.6078,1.6078,0,0,1-1.1963,1.5245v.02a1.6864,1.6864,0,0,1,1.4454,1.664c0,1.0362-.8067,1.9424-2.3614,1.9424a3.2815,3.2815,0,0,1-1.6836-.4385Z"/><path d="M413.9087,148.4324a6.7425,6.7425,0,0,0,1.2558-4.0751,6.6031,6.6031,0,0,0-1.2558-4.0459h.6777a6.3473,6.3473,0,0,1,1.3057,4.0556,6.4691,6.4691,0,0,1-1.3057,4.0654Z"/><path d="M362.1689,175.4644v.05c.3587.2491.558.7573,1.375,2.3017a.8753.8753,0,0,0,.9167.5082l-.06.2989h-1.5145c-.7473-1.6441-.9566-2.0626-1.2655-2.67-.1494-.2789-.2789-.3387-.6376-.3387h-.2093l-.3687,1.7736c-.1694.827-.06.9366.7972.9366l-.05.2989h-2.75l.06-.2989c.7373,0,.8868-.1,1.0561-.9366l.8769-4.2746c.11-.548.05-.7373-.7473-.7373l.06-.2989h2.3415c1.395,0,2.212.4085,2.212,1.375C364.2613,174.8566,363.0357,175.3149,362.1689,175.4644Zm-1.3252-.2192.3088.01c1.1957-.04,2.1224-.4883,2.1224-1.7637,0-.538-.2989-1.0263-1.2854-1.0263a5.3973,5.3973,0,0,0-.5879.03Z"/><path d="M366.7836,178.0373h2.4686l.23-1.1855c.1255-.5788.1395-.76-.5439-.76l.0488-.2789h2.1547l-.0488.2789c-.69,0-.7392.1674-.8717.76l-.5578,2.8312c-.1325.6554-.0767.76.5578.76l-.0488.272h-2.1547l.0488-.272c.6416,0,.7183-.0976.8577-.7531l.258-1.3249h-2.4685l-.258,1.3249c-.1325.6555-.07.7531.5509.7531l-.0489.272H364.81l.0488-.272c.6276,0,.7183-.0976.8577-.7531l.5579-2.8381c.1255-.5927.1395-.76-.53-.76l.0488-.2789h2.1617l-.0488.2789c-.6973,0-.767.1813-.8926.76Z"/><path d="M374.6225,175.2655v-.5987h5.1407v.5987Zm0,1.9521V176.62h5.1407v.5977Z"/><path d="M389.7632,172.2469v-.5381l.6875-.668c1.6542-1.5742,2.4013-2.4111,2.4111-3.3876a1.1553,1.1553,0,0,0-1.2852-1.2647,2.2053,2.2053,0,0,0-1.375.5479l-.2793-.6182a2.84,2.84,0,0,1,1.833-.6572,1.8222,1.8222,0,0,1,1.9834,1.8828c0,1.1963-.8671,2.1621-2.2314,3.4775l-.5186.4785v.02h2.9092v.7275Z"/><path d="M398.74,166.5076H396.269l-.25,1.6641a3.529,3.529,0,0,1,.5283-.04,2.7349,2.7349,0,0,1,1.3955.3486,1.8459,1.8459,0,0,1,.9258,1.6641,2.2461,2.2461,0,0,1-2.41,2.2119,3.1756,3.1756,0,0,1-1.6153-.3985l.22-.667a2.9,2.9,0,0,0,1.3847.3584,1.4287,1.4287,0,0,0,1.5342-1.4052c-.01-.8369-.5674-1.4346-1.8633-1.4346a6.817,6.817,0,0,0-.8965.0693l.419-3.1084H398.74Z"/><line class="cls-5" x1="385.36" y1="176.053" x2="403.133" y2="176.053"/><path d="M385.8081,188.3807v-.5381l.6875-.668c1.6543-1.5742,2.4013-2.4111,2.4111-3.3877a1.1552,1.1552,0,0,0-1.2851-1.2646,2.2056,2.2056,0,0,0-1.375.5478l-.2793-.6181a2.8391,2.8391,0,0,1,1.833-.6572,1.8222,1.8222,0,0,1,1.9834,1.8828c0,1.1953-.8672,2.1621-2.2315,3.4775l-.5185.4785v.02h2.9091v.7275Z"/><path d="M393.768,188.6951H393.13l-1.5839-4.2646-.7481.3193-.1894-.4687,1.375-.5772,1.2265,3.4473a4.7644,4.7644,0,0,1,.19.6377h.0195c.0293-.17.08-.4287.1289-.6475l1.8535-7.6328h.6582Z"/><line class="cls-5" x1="398.202" y1="178.902" x2="403.134" y2="178.902"/><path d="M398.8589,187.3739a2.927,2.927,0,0,0,1.4355.4091c1.125,0,1.4746-.7177,1.4648-1.2558-.0107-.9063-.8271-1.2949-1.6738-1.2949h-.4883v-.6582h.4883c.6367,0,1.4444-.3282,1.4444-1.0958,0-.5175-.3291-.9765-1.1358-.9765a2.3814,2.3814,0,0,0-1.2959.4287l-.2295-.6377a3.0851,3.0851,0,0,1,1.6944-.498c1.2753,0,1.8535.7568,1.8535,1.5439a1.6077,1.6077,0,0,1-1.1963,1.5244v.02a1.6865,1.6865,0,0,1,1.4453,1.6641c0,1.0361-.8066,1.9424-2.3613,1.9424a3.281,3.281,0,0,1-1.6836-.4385Z"/></g></svg>