<svg id="Layer_1" data-name="Layer 1" xmlns="http://www.w3.org/2000/svg" xmlns:xlink="http://www.w3.org/1999/xlink" viewBox="0 0 453.543 255.118"><defs><style>.cls-1,.cls-10,.cls-11,.cls-12,.cls-14,.cls-15,.cls-16,.cls-17,.cls-5,.cls-6,.cls-7,.cls-8{fill:none;}.cls-2{clip-path:url(#clip-path);}.cls-3{fill:#fff;}.cls-4{fill:#056db6;}.cls-10,.cls-11,.cls-14,.cls-16,.cls-5,.cls-6{stroke:#000;}.cls-10,.cls-11,.cls-12,.cls-14,.cls-15,.cls-16,.cls-17,.cls-5,.cls-6,.cls-7,.cls-8{stroke-miterlimit:10;}.cls-5{stroke-width:0.677px;}.cls-6{stroke-width:0.474px;}.cls-12,.cls-17,.cls-7{stroke:#76b543;}.cls-7{stroke-width:0.398px;}.cls-8{stroke:#056db6;stroke-width:0.996px;}.cls-9{clip-path:url(#clip-path-2);}.cls-10,.cls-12{stroke-width:0.4384px;}.cls-11{stroke-width:0.407px;}.cls-13{fill:#76b543;}.cls-14{stroke-width:2.1827px;}.cls-15{stroke:#fff;stroke-width:0.9354px;}.cls-16{stroke-width:0.6236px;}.cls-17{stroke-width:0.4384px;}</style><clipPath id="clip-path"><rect class="cls-1" width="453.543" height="255.118"/></clipPath><clipPath id="clip-path-2"><rect class="cls-1" x="119.001" y="163.5022" width="215.54" height="87.8608"/></clipPath></defs><g class="cls-2"><rect class="cls-3" y="14.944" width="453.543" height="255.118"/><path class="cls-4" d="M21.04,24.3594h-3.758v3.4853H21.47v1.0469h-5.436v-9.667H21.255v1.0469H17.2819v3.0547H21.04Z"/><path class="cls-4" d="M23.6372,21.9492l.99,1.4922c.2583.3867.4734.7461.7029,1.1328h.043c.23-.416.459-.7744.6885-1.1474l.9753-1.4776h1.3627l-2.3666,3.3565,2.4382,3.5859H27.0365l-1.0183-1.5635c-.2725-.4013-.502-.789-.7459-1.2051h-.0286c-.23.4161-.4733.7891-.7316,1.2051l-1.0039,1.5635H22.1168l2.4671-3.543-2.3523-3.3994Z"/><path class="cls-4" d="M33.5355,28.8916l-.1-.875H33.392A2.5863,2.5863,0,0,1,31.2692,29.05a1.9782,1.9782,0,0,1-2.1228-1.9941c0-1.6778,1.4917-2.5957,4.1739-2.5821V24.33a1.4313,1.4313,0,0,0-1.5777-1.6065,3.46,3.46,0,0,0-1.8073.5166l-.2869-.832a4.3081,4.3081,0,0,1,2.2807-.6162c2.1228,0,2.6391,1.4482,2.6391,2.84v2.5957a9.7639,9.7639,0,0,0,.1148,1.6641Zm-.1865-3.543c-1.377-.0283-2.94.2159-2.94,1.5635a1.1173,1.1173,0,0,0,1.1905,1.2051,1.7274,1.7274,0,0,0,1.6781-1.1621,1.3141,1.3141,0,0,0,.0718-.4014Z"/><path class="cls-4" d="M36.6063,23.8281c0-.7168-.0144-1.3047-.0573-1.8789h1.1043l.0574,1.1192h.0431a2.3918,2.3918,0,0,1,2.18-1.2764,2.0517,2.0517,0,0,1,1.9649,1.3906h.0287a2.8609,2.8609,0,0,1,.7745-.9033,2.37,2.37,0,0,1,1.5348-.4873c.918,0,2.2806.6025,2.2806,3.0117v4.0879H45.2839v-3.93c0-1.334-.4876-2.1377-1.5059-2.1377a1.6346,1.6346,0,0,0-1.4917,1.1475,2.0744,2.0744,0,0,0-.1.6308v4.2891H40.9523V24.7324c0-1.1045-.4877-1.9082-1.4488-1.9082A1.8823,1.8823,0,0,0,37.84,24.7031v4.1885H36.6063Z"/><path class="cls-4" d="M48.5709,24.2158c0-.89-.0285-1.6064-.0574-2.2666h1.1332l.0574,1.19h.0287A2.73,2.73,0,0,1,52.2,21.792c1.6783,0,2.9405,1.42,2.9405,3.5283,0,2.4951-1.5205,3.73-3.1556,3.73a2.4352,2.4352,0,0,1-2.1372-1.0908h-.0287v3.7724H48.5709Zm1.2479,1.8506a2.8353,2.8353,0,0,0,.0574.5156A1.9477,1.9477,0,0,0,51.77,28.06c1.3339,0,2.1086-1.09,2.1086-2.6817,0-1.3916-.7316-2.582-2.0655-2.582a2.0136,2.0136,0,0,0-1.9077,1.5635,2.04,2.04,0,0,0-.0861.5156Z"/><path class="cls-4" d="M56.7338,18.708H57.996V28.8916H56.7338Z"/><path class="cls-4" d="M60.8221,25.65a2.2241,2.2241,0,0,0,2.381,2.4092,4.56,4.56,0,0,0,1.922-.3584l.2151.9033a5.6144,5.6144,0,0,1-2.3092.4307,3.2242,3.2242,0,0,1-3.4137-3.5c0-2.0938,1.2335-3.7432,3.2559-3.7432,2.2663,0,2.8686,1.9932,2.8686,3.2695a4.7741,4.7741,0,0,1-.0429.5889Zm3.7006-.9043a1.7972,1.7972,0,0,0-1.75-2.0508,2.0915,2.0915,0,0,0-1.9363,2.0508Z"/><path class="cls-4" d="M70.5776,27.4434a4.2194,4.2194,0,0,0,2.0655.5879c1.6207,0,2.1228-1.0333,2.1085-1.8077-.0144-1.3047-1.1906-1.8642-2.41-1.8642H71.639v-.9473h.7029c.918,0,2.08-.4726,2.08-1.5771,0-.7461-.4732-1.4063-1.6351-1.4063a3.4222,3.4222,0,0,0-1.8646.6172l-.33-.918a4.4339,4.4339,0,0,1,2.4385-.7168c1.8359,0,2.6677,1.09,2.6677,2.2227a2.315,2.315,0,0,1-1.7212,2.1943v.0293a2.4283,2.4283,0,0,1,2.08,2.3946c0,1.4921-1.1619,2.7978-3.3995,2.7978a4.7336,4.7336,0,0,1-2.4239-.6318Z"/><path class="cls-4" d="M84.1483,18.9375a9.4583,9.4583,0,0,0-1.8072,5.8662,9.6681,9.6681,0,0,0,1.8072,5.8233h-.99A9.2714,9.2714,0,0,1,81.28,24.8037a9.4688,9.4688,0,0,1,1.8789-5.8662Z"/><path class="cls-4" d="M92.2816,28.5762a6.1938,6.1938,0,0,1-2.553.459,4.5182,4.5182,0,0,1-4.7763-4.8916,4.8106,4.8106,0,0,1,5.0488-5.0772,5.1684,5.1684,0,0,1,2.2949.4307l-.3012,1.0185a4.5311,4.5311,0,0,0-1.9507-.4023c-2.2661,0-3.7722,1.4492-3.7722,3.9873,0,2.3672,1.3625,3.8877,3.7148,3.8877a4.99,4.99,0,0,0,2.0369-.4024Z"/><path class="cls-4" d="M100.0861,25.3633A3.3931,3.3931,0,0,1,96.6293,29.05a3.3008,3.3008,0,0,1-3.3277-3.5723A3.3894,3.3894,0,0,1,96.744,21.792,3.2872,3.2872,0,0,1,100.0861,25.3633Zm-5.5079.0713c0,1.5205.8749,2.6679,2.1084,2.6679,1.2049,0,2.1084-1.1328,2.1084-2.6962,0-1.1758-.588-2.668-2.08-2.668S94.5782,24.1152,94.5782,25.4346Z"/><path class="cls-4" d="M101.68,23.8281c0-.7168-.0143-1.3047-.0574-1.8789h1.1189l.0716,1.1475h.0287a2.5538,2.5538,0,0,1,2.295-1.3047c.9609,0,2.4526.5732,2.4526,2.9541v4.1455h-1.2622V24.89c0-1.1181-.4159-2.0507-1.6065-2.0507a1.7927,1.7927,0,0,0-1.6923,1.291,1.8115,1.8115,0,0,0-.0862.5879v4.1738H101.68Z"/><path class="cls-4" d="M111.162,19.9561v1.9931h1.8074v.961H111.162v3.7441c0,.86.2439,1.3477.9468,1.3477a2.8088,2.8088,0,0,0,.7314-.086l.0574.9473a3.1086,3.1086,0,0,1-1.1188.1719,1.7483,1.7483,0,0,1-1.3627-.5313,2.57,2.57,0,0,1-.4875-1.8066V22.91h-1.0758v-.961h1.0758v-1.664Z"/><path class="cls-4" d="M115.7958,19.999a.7818.7818,0,0,1-1.5635,0,.7687.7687,0,0,1,.7888-.789A.749.749,0,0,1,115.7958,19.999ZM114.39,28.8916V21.9492h1.2622v6.9424Z"/><path class="cls-4" d="M117.7469,23.8281c0-.7168-.0142-1.3047-.0573-1.8789h1.1189l.0716,1.1475h.0287a2.5537,2.5537,0,0,1,2.2949-1.3047c.961,0,2.4527.5732,2.4527,2.9541v4.1455h-1.2622V24.89c0-1.1181-.4159-2.0507-1.6065-2.0507a1.793,1.793,0,0,0-1.6924,1.291,1.8143,1.8143,0,0,0-.0861.5879v4.1738h-1.2623Z"/><path class="cls-4" d="M131.5181,26.998c0,.7178.0142,1.3487.0573,1.8936h-1.1187l-.0718-1.1328h-.0286a2.6117,2.6117,0,0,1-2.2949,1.291c-1.09,0-2.3954-.6025-2.3954-3.041v-4.06h1.2622V25.793c0,1.32.4016,2.209,1.5491,2.209a1.8244,1.8244,0,0,0,1.6638-1.1475,1.8467,1.8467,0,0,0,.1148-.6455v-4.26h1.2622Z"/><path class="cls-4" d="M134.3165,25.65a2.2241,2.2241,0,0,0,2.3811,2.4092,4.56,4.56,0,0,0,1.9219-.3584l.2151.9033a5.6146,5.6146,0,0,1-2.3093.4307,3.2242,3.2242,0,0,1-3.4136-3.5c0-2.0938,1.2334-3.7432,3.2559-3.7432,2.2663,0,2.8686,1.9932,2.8686,3.2695a4.77,4.77,0,0,1-.043.5889Zm3.7005-.9043a1.7971,1.7971,0,0,0-1.75-2.0508,2.0915,2.0915,0,0,0-1.9363,2.0508Z"/><path class="cls-4" d="M146.7965,18.708v8.3906c0,.6172.0144,1.3194.0574,1.793h-1.1331l-.0573-1.2051h-.0289a2.5683,2.5683,0,0,1-2.3664,1.3633c-1.6782,0-2.969-1.4209-2.969-3.5293-.0144-2.3086,1.42-3.7285,3.1123-3.7285a2.3208,2.3208,0,0,1,2.0942,1.0615h.0286V18.708Zm-1.2622,6.0674a2.2346,2.2346,0,0,0-.0574-.5313,1.8567,1.8567,0,0,0-1.8215-1.4628c-1.3052,0-2.08,1.1474-2.08,2.6826,0,1.4052.6884,2.5674,2.0512,2.5674a1.8975,1.8975,0,0,0,1.85-1.5059,2.2028,2.2028,0,0,0,.0574-.5459Z"/><path class="cls-4" d="M148.132,30.627a9.7067,9.7067,0,0,0,1.8073-5.8663,9.5078,9.5078,0,0,0-1.8073-5.8232h.9753a9.1336,9.1336,0,0,1,1.8789,5.8379,9.31,9.31,0,0,1-1.8789,5.8516Z"/><path d="M24.34,46.24c-.4683.01-.6675.1793-.8469.6875l-1.923,5.62H21.301l-1.4946-3.9557h-.04L18.262,52.5468h-.2491L15.94,47.3257c-.3089-.837-.5779-1.0662-1.096-1.0861v-.2989h2.5707V46.24c-.5082,0-.6577.1195-.6577.3288a1.6519,1.6519,0,0,0,.1395.548l1.1559,2.91.3088.837h.05l1.1259-2.91-.279-.7672c-.3188-.8669-.4783-.9466-1.0462-.9466v-.2989h2.6006V46.24c-.4982,0-.7573.1195-.7573.3388a1.98,1.98,0,0,0,.1694.5779l1.0363,2.69.3288.9865h.05l1.1359-3.3081a3.1291,3.1291,0,0,0,.1793-.8668c0-.299-.2092-.4185-.6675-.4185v-.2989H24.34Zm3.6855,4.962a1.9735,1.9735,0,0,1-1.8633,1.385c-1.1956,0-2.1223-.8668-2.1223-2.471,0-1.664.9366-2.4611,2.1024-2.4611,1.0861,0,1.8035.7871,1.8533,2.1821H24.847c0,1.375.7573,2.0027,1.5544,2.0027a1.5765,1.5765,0,0,0,1.4348-.7772Zm-.9665-1.7337c-.03-.7373-.3587-1.4149-1.0661-1.4149-.6776,0-1.0762.4883-1.1559,1.4149ZM34.92,51.1518a2.0237,2.0237,0,0,1-1.933,1.4348c-1.2455,0-1.9928-.9665-1.9928-2.3515,0-1.5643.817-2.5806,2.2519-2.5806.9366,0,1.5145.4782,1.5145,1.0561,0,.289-.1395.4484-.4185.4484-.7373,0-.4085-1.1359-1.2654-1.1359-.8071,0-1.2954.5979-1.2954,1.7437,0,1.2156.4883,2.0725,1.5146,2.0725a1.6322,1.6322,0,0,0,1.4348-.827Zm3.2178.7174a2.0579,2.0579,0,0,1-1.4647.6875,1.0763,1.0763,0,0,1-1.1858-1.1159c0-1.3153,1.7637-1.5743,2.6206-1.8434V49.159c0-.8668-.299-1.1957-.8968-1.1957-.5679,0-.6676.2093-.6676.8071a.4006.4006,0,0,1-.4384.4584.4314.4314,0,0,1-.4185-.4783c0-.558.6676-1.096,1.7537-1.096s1.4946.4982,1.4946,1.5344v2.2618c0,.4086.09.4883.2989.4883a.6323.6323,0,0,0,.4683-.2491l.15.1594c-.3288.4783-.568.6875-1.0761.6875-.4385,0-.5381-.2292-.5979-.6676Zm-.03-1.9429c-.9068.2291-1.7437.4982-1.7437,1.2753a.7175.7175,0,0,0,.7174.8071,1.6808,1.6808,0,0,0,1.0263-.4384Zm6.5755,1.5543c0,.558.07.7274.7373.7274v.279H43.1188v-.279c.7074,0,.7373-.1694.7373-.7274V49.6772c0-1.1957-.4683-1.385-.9167-1.385a1.8261,1.8261,0,0,0-1.2056.6277v2.5607c0,.558.04.7274.7572.7274v.279H40.2093v-.279c.6676,0,.6975-.1694.6975-.7274v-2.8c0-.3587-.1495-.4385-.4185-.4385a1.5106,1.5106,0,0,0-.2691.02v-.289l1.2655-.2889h.2291l-.01.807h.04a2.4245,2.4245,0,0,1,1.6042-.8369c.9068,0,1.3352.6277,1.3352,1.7736Zm8.6676.827-1.2654.2292h-.2192V51.77h-.05a2.2613,2.2613,0,0,1-1.6341.817c-.827,0-1.3053-.4683-1.3053-1.8234V48.7405c0-.538-.1395-.5779-.6776-.5878v-.279l1.2854-.1495h.2192v2.9095c0,1.0163.3786,1.3152.8968,1.3152a1.7809,1.7809,0,0,0,1.2255-.5978v-2.62c0-.5281-.1693-.5779-.807-.5779v-.279l1.3949-.1495h.2392V51.381c0,.5879.1195.6576.5978.6576h.1Zm.9459-1.4547c.2093,1.0263.5879,1.375,1.3252,1.375.4982,0,.8569-.1893.8569-.6576s-.1893-.6576-1.1159-1.116c-.9068-.4583-1.3153-.807-1.3153-1.5444,0-.817.6676-1.2554,1.5245-1.2554a2.1878,2.1878,0,0,1,1.0462.259h.01l.1694-.2092h.1993l.03,1.5245h-.269c-.2192-.9466-.5879-1.2356-1.1957-1.2356-.4583,0-.807.2093-.807.6577,0,.3886.3288.6377,1.1657,1.0661.9068.4783,1.395.8469,1.395,1.5843,0,.9366-.7772,1.2953-1.6739,1.2953a2.4939,2.4939,0,0,1-1.1359-.2591h-.02l-.2092.2292h-.2093l-.03-1.7138Zm7.612.3487a1.9735,1.9735,0,0,1-1.8633,1.385c-1.1956,0-2.1223-.8668-2.1223-2.471,0-1.664.9366-2.4611,2.1024-2.4611,1.0861,0,1.8035.7871,1.8533,2.1821H58.73c0,1.375.7573,2.0027,1.5544,2.0027a1.5765,1.5765,0,0,0,1.4348-.7772Zm-.9665-1.7337c-.03-.7373-.3587-1.4149-1.0661-1.4149-.6776,0-1.0762.4883-1.1559,1.4149ZM67.6569,51.75c-.3886.538-.5978.8369-1.2355.8369-.6676,0-.9565-.3587-.9565-1.2554V48.1925h-.5481v-.2292a2.9648,2.9648,0,0,0,1.126-1.5543h.259l-.01,1.365h1.1259v.4185H66.2919v2.86c0,.7074.09.9466.4782.9466.3189,0,.4484-.13.6975-.4086Zm1.8529-.2292c0,.5181.05.6775.7374.6775v.289H67.9854v-.289c.5181,0,.6974-.08.6974-.6377V46.4588c0-.3488-.2192-.3986-.4882-.3986a2.114,2.114,0,0,0-.289.02v-.279l1.3352-.3488h.269v3.0191h.03a2.32,2.32,0,0,1,1.6142-.817c1.1459,0,1.3352,1.0263,1.3352,1.8433v1.9828c0,.5281.11.7174.7373.7174v.289H70.9347v-.289c.6875,0,.7274-.1992.7274-.6775V49.7967c0-.817-.11-1.5045-.9167-1.5045A1.81,1.81,0,0,0,69.51,48.91Zm8.2494-.3189a1.9735,1.9735,0,0,1-1.8633,1.385c-1.1956,0-2.1223-.8668-2.1223-2.471,0-1.664.9366-2.4611,2.1024-2.4611,1.0861,0,1.8035.7871,1.8533,2.1821H74.5807c0,1.375.7573,2.0027,1.5544,2.0027a1.5765,1.5765,0,0,0,1.4348-.7772Zm-.9665-1.7337c-.03-.7373-.3587-1.4149-1.0662-1.4149-.6775,0-1.0761.4883-1.1558,1.4149Zm6.5654-3.5272c1.2754,0,2.4611.3288,2.4611,1.654,0,1.5544-1.3053,2.0426-2.6106,2.0426a1.7658,1.7658,0,0,1-.5679-.08v1.7038c0,.8171.1992.9267,1.0063.9267v.2989h-2.81v-.2989c.7772,0,.8868-.13.8868-.9665V46.9371c0-.5879-.2093-.6975-.847-.6975v-.2989Zm-.7174,3.2482a3.6139,3.6139,0,0,0,.538.04c1.0761,0,1.654-.3388,1.654-1.4946,0-.8968-.5181-1.4049-1.5942-1.4049-.1993,0-.3886.02-.5978.04ZM90.98,48.063c-.3986,0-.5481.1694-.6876.558l-1.5543,4.0852c-.558,1.4647-1.0463,1.9828-1.8533,1.9828-.4484,0-.7374-.1395-.7374-.5181,0-.2989.1993-.4284.4683-.4284.3488,0,.558.2192.8071.2192.3189,0,.8868-1.2356.8868-1.5245a3.8448,3.8448,0,0,0-.2989-.8171l-1.4647-3.1984a.5484.5484,0,0,0-.5979-.3587v-.289H88.08v.299c-.4483,0-.5679.09-.5679.269a1.34,1.34,0,0,0,.1395.4284l.9765,2.1921.1395.5181h.07l.9565-2.9194a1.1006,1.1006,0,0,0,.05-.2491c0-.1993-.2292-.2491-.558-.2491v-.289H90.98ZM93.9883,51.75c-.3886.538-.5979.8369-1.2356.8369-.6676,0-.9565-.3587-.9565-1.2554V48.1925h-.548v-.2292a2.9647,2.9647,0,0,0,1.1259-1.5543h.259l-.01,1.365h1.1259v.4185H92.6232v2.86c0,.7074.09.9466.4783.9466.3188,0,.4483-.13.6974-.4086Zm1.8528-.2292c0,.5181.05.6775.7374.6775v.289H94.3167v-.289c.5181,0,.6974-.08.6974-.6377V46.4588c0-.3488-.2192-.3986-.4882-.3986a2.114,2.114,0,0,0-.289.02v-.279l1.3352-.3488h.269v3.0191h.03a2.32,2.32,0,0,1,1.6142-.817c1.1459,0,1.3352,1.0263,1.3352,1.8433v1.9828c0,.5281.11.7174.7373.7174v.289H97.266v-.289c.6875,0,.7274-.1992.7274-.6775V49.7967c0-.817-.11-1.5045-.9167-1.5045a1.81,1.81,0,0,0-1.2356.6177Zm6.9541.3487a2.0577,2.0577,0,0,1-1.4647.6875,1.0763,1.0763,0,0,1-1.1857-1.1159c0-1.3153,1.7636-1.5743,2.62-1.8434V49.159c0-.8668-.2989-1.1957-.8968-1.1957-.5679,0-.6675.2093-.6675.8071a.4007.4007,0,0,1-.4385.4584.4314.4314,0,0,1-.4184-.4783c0-.558.6675-1.096,1.7536-1.096s1.4946.4982,1.4946,1.5344v2.2618c0,.4086.09.4883.2989.4883a.6321.6321,0,0,0,.4683-.2491l.15.1594c-.3288.4783-.5679.6875-1.0761.6875-.4384,0-.5381-.2292-.5978-.6676Zm-.03-1.9429c-.9067.2291-1.7437.4982-1.7437,1.2753a.7175.7175,0,0,0,.7174.8071,1.6808,1.6808,0,0,0,1.0263-.4384Zm3.0583.7074a1.4622,1.4622,0,0,1-.7673-1.3551,1.6269,1.6269,0,0,1,1.8035-1.6241,2.47,2.47,0,0,1,1.106.2491l1.2854-.07v.5381l-.9366-.03v.05a1.7114,1.7114,0,0,1,.3587,1.0263,1.5574,1.5574,0,0,1-1.7637,1.5145,2.5748,2.5748,0,0,1-.8569-.1494,1.6682,1.6682,0,0,0-.259.6675c0,.299.259.3986,1.1757.3986,1.2555,0,2.212.04,2.212,1.1857,0,1.3352-1.4747,1.7935-2.73,1.7935-1.3053,0-1.6939-.548-1.6939-1.096,0-.3288.269-.6676.8071-1.1857v-.04a.8783.8783,0,0,1-.558-.7174,1.7538,1.7538,0,0,1,.8171-1.1359Zm-.289,2.76c0,.5779.4783.8669,1.4946.8669,1.1757,0,1.6441-.5181,1.6441-.9466,0-.7174-1.0662-.6975-1.7338-.7074-.7971-.01-.9864-.02-1.1259-.02A1.6359,1.6359,0,0,0,105.5346,53.3937Zm.3986-4.155c0,.8569.3387,1.3452.9864,1.3452.4982,0,.8669-.279.8669-1.2256,0-.8071-.3587-1.3451-.9964-1.3451C106.2719,48.0132,105.9332,48.4018,105.9332,49.2387Zm8.2694.7972c0,1.6739-.9167,2.5507-2.212,2.5507-1.395,0-2.2319-.8967-2.2319-2.5109a2.204,2.204,0,0,1,2.2319-2.4212A2.1316,2.1316,0,0,1,114.2026,50.0359Zm-3.5173-.09c0,1.5843.4882,2.2518,1.3451,2.2419.8171,0,1.2555-.4783,1.2555-2.1024,0-1.2256-.4484-2.0526-1.3352-2.0526C111.1935,48.0331,110.6853,48.6708,110.6853,49.9462Zm5.6789-1.2356h.03c.5081-.7373.807-1.086,1.2853-1.086a.5146.5146,0,0,1,.5779.558c0,.3786-.2192.538-.4384.538-.3288,0-.5281-.3388-.6477-.3388-.2291,0-.548.4185-.7871.8171v2.2718c0,.6277.1893.7273.9366.7273v.289H114.83v-.289c.6576,0,.7274-.12.7274-.6775V48.78c0-.3587,0-.5381-.3587-.5381a1.9083,1.9083,0,0,0-.3089.02v-.279l1.2355-.2989h.2392Zm6.1872,2.491a1.9735,1.9735,0,0,1-1.8633,1.385c-1.1956,0-2.1223-.8668-2.1223-2.471,0-1.664.9366-2.4611,2.1024-2.4611,1.0861,0,1.8035.7871,1.8533,2.1821h-3.1486c0,1.375.7573,2.0027,1.5544,2.0027a1.5765,1.5765,0,0,0,1.4348-.7772Zm-.9665-1.7337c-.03-.7373-.3587-1.4149-1.0661-1.4149-.6776,0-1.0762.4883-1.1559,1.4149Zm4.2939,2.4013a2.0577,2.0577,0,0,1-1.4647.6875,1.0763,1.0763,0,0,1-1.1857-1.1159c0-1.3153,1.7636-1.5743,2.6205-1.8434V49.159c0-.8668-.2989-1.1957-.8968-1.1957-.5679,0-.6675.2093-.6675.8071a.4007.4007,0,0,1-.4385.4584.4314.4314,0,0,1-.4184-.4783c0-.558.6675-1.096,1.7536-1.096s1.4946.4982,1.4946,1.5344v2.2618c0,.4086.09.4883.2989.4883a.6321.6321,0,0,0,.4683-.2491l.15.1594c-.3288.4783-.5679.6875-1.0761.6875-.4384,0-.5381-.2292-.5978-.6676Zm-.03-1.9429c-.9067.2291-1.7437.4982-1.7437,1.2753a.7175.7175,0,0,0,.7174.8071,1.6808,1.6808,0,0,0,1.0263-.4384Zm6.5755,1.5543c0,.558.07.7274.7374.7274v.279H130.86v-.279c.7074,0,.7373-.1694.7373-.7274V49.6772c0-1.1957-.4683-1.385-.9166-1.385a1.8261,1.8261,0,0,0-1.2057.6277v2.5607c0,.558.04.7274.7573.7274v.279h-2.2818v-.279c.6676,0,.6975-.1694.6975-.7274v-2.8c0-.3587-.1495-.4385-.4185-.4385a1.5087,1.5087,0,0,0-.269.02v-.289l1.2654-.2889h.2292l-.01.807h.04a2.4241,2.4241,0,0,1,1.6042-.8369c.9067,0,1.3351.6277,1.3351,1.7736Zm6.3959.2691c-.3886.538-.5979.8369-1.2356.8369-.6675,0-.9565-.3587-.9565-1.2554V48.1925h-.548v-.2292a2.9647,2.9647,0,0,0,1.1259-1.5543h.2591l-.01,1.365h1.1259v.4185h-1.1259v2.86c0,.7074.09.9466.4783.9466.3188,0,.4484-.13.6975-.4086Zm1.8529-.2292c0,.5181.05.6775.7373.6775v.289h-2.2618v-.289c.5181,0,.6975-.08.6975-.6377V46.4588c0-.3488-.2192-.3986-.4883-.3986a2.1115,2.1115,0,0,0-.2889.02v-.279l1.3351-.3488h.2691v3.0191h.03a2.32,2.32,0,0,1,1.6141-.817c1.1459,0,1.3352,1.0263,1.3352,1.8433v1.9828c0,.5281.11.7174.7373.7174v.289H142.098v-.289c.6875,0,.7274-.1992.7274-.6775V49.7967c0-.817-.11-1.5045-.9167-1.5045a1.81,1.81,0,0,0-1.2355.6177Zm8.2493-.3189a1.9733,1.9733,0,0,1-1.8632,1.385c-1.1957,0-2.1223-.8668-2.1223-2.471,0-1.664.9366-2.4611,2.1024-2.4611,1.086,0,1.8034.7871,1.8533,2.1821H145.744c0,1.375.7573,2.0027,1.5544,2.0027a1.5764,1.5764,0,0,0,1.4348-.7772Zm-.9665-1.7337c-.03-.7373-.3587-1.4149-1.0661-1.4149-.6776,0-1.0761.4883-1.1558,1.4149Zm6.0476.568c0,1.6739-.9167,2.5507-2.212,2.5507-1.395,0-2.2319-.8967-2.2319-2.5109a2.204,2.204,0,0,1,2.2319-2.4212A2.1316,2.1316,0,0,1,154.0036,50.0359Zm-3.5173-.09c0,1.5843.4882,2.2518,1.3452,2.2419.817,0,1.2554-.4783,1.2554-2.1024,0-1.2256-.4484-2.0526-1.3352-2.0526C150.9945,48.0331,150.4863,48.6708,150.4863,49.9462Zm5.6789-1.2356h.03c.5081-.7373.807-1.086,1.2853-1.086a.5146.5146,0,0,1,.5779.558c0,.3786-.2192.538-.4384.538-.3288,0-.5281-.3388-.6477-.3388-.2291,0-.548.4185-.7871.8171v2.2718c0,.6277.1893.7273.9366.7273v.289h-2.491v-.289c.6576,0,.7274-.12.7274-.6775V48.78c0-.3587,0-.5381-.3587-.5381a1.9083,1.9083,0,0,0-.3089.02v-.279l1.2355-.2989h.2392Zm6.1872,2.491a1.9735,1.9735,0,0,1-1.8633,1.385c-1.1956,0-2.1223-.8668-2.1223-2.471,0-1.664.9366-2.4611,2.1024-2.4611,1.0861,0,1.8035.7871,1.8533,2.1821h-3.1486c0,1.375.7573,2.0027,1.5544,2.0027a1.5765,1.5765,0,0,0,1.4348-.7772Zm-.9665-1.7337c-.03-.7373-.3587-1.4149-1.0662-1.4149-.6775,0-1.0761.4883-1.1558,1.4149Zm3.1082,2.0526c0,.558.13.6775.7473.6775v.289H162.97v-.289c.6277,0,.6975-.12.6975-.7174v-2.79c0-.3587-.1395-.4484-.4185-.4484a1.815,1.815,0,0,0-.269.02v-.289l1.2455-.2889h.2391v.807h.04a2.5137,2.5137,0,0,1,1.674-.8369,1.1661,1.1661,0,0,1,1.106.827h.04a2.337,2.337,0,0,1,1.5842-.827c.7772,0,1.2854.4384,1.2854,1.644v2.0327c0,.6277.03.8668.7174.8668v.289H168.659v-.289c.6776,0,.7075-.259.7075-.8668V49.4181c0-.9067-.3886-1.1259-.8569-1.1259a2.0436,2.0436,0,0,0-1.1459.6177v2.4213c0,.6875.05.8668.7672.8668v.289H165.77v-.289c.7074,0,.7672-.1693.7672-.8668V49.3583c0-.8469-.3388-1.0661-.7971-1.0661a1.9584,1.9584,0,0,0-1.2455.6377Zm12.0949.2292c-.3886.538-.5979.8369-1.2356.8369-.6676,0-.9565-.3587-.9565-1.2554V48.1925h-.548v-.2292a2.9647,2.9647,0,0,0,1.1259-1.5543h.2591l-.01,1.365H176.35v.4185h-1.1259v2.86c0,.7074.09.9466.4783.9466.3188,0,.4483-.13.6974-.4086Zm4.7623-1.7138c0,1.6739-.9167,2.5507-2.212,2.5507-1.395,0-2.2319-.8967-2.2319-2.5109a2.204,2.204,0,0,1,2.2319-2.4212A2.1316,2.1316,0,0,1,181.3513,50.0359Zm-3.5173-.09c0,1.5843.4883,2.2518,1.3452,2.2419.817,0,1.2554-.4783,1.2554-2.1024,0-1.2256-.4484-2.0526-1.3352-2.0526C178.3422,48.0331,177.834,48.6708,177.834,49.9462ZM189.7,52.487h-2.2917v-.289c.6576,0,.6975-.1893.6975-.7174v-2.76c0-.3288-.09-.4783-.279-.5281h-1.933v3.1088c0,.7672.1594.9067.8569.9067v.279H184.21v-.279c.7274,0,.837-.13.837-.9067V48.1925H184.29V47.774h.7573a2.7982,2.7982,0,0,1,.3687-1.644,2.0265,2.0265,0,0,1,1.8134-.7872c.8669,0,1.4647.2491,1.4647.8071a.4346.4346,0,0,1-.4782.4583c-.299,0-.4285-.2291-.558-.528-.11-.289-.3388-.3787-.6776-.3787-.6875,0-1.086.3687-1.086,1.4647v.6078h1.7138l1.0661-.09h.2591v3.7962c0,.568.05.7174.7672.7174Zm5.021-1.0064c0,.558.07.7274.7373.7274v.279h-2.3017v-.279c.7075,0,.7374-.1694.7374-.7274V49.6772c0-1.1957-.4683-1.385-.9167-1.385a1.8258,1.8258,0,0,0-1.2056.6277v2.5607c0,.558.04.7274.7572.7274v.279h-2.2817v-.279c.6675,0,.6974-.1694.6974-.7274v-2.8c0-.3587-.1494-.4385-.4184-.4385a1.5106,1.5106,0,0,0-.2691.02v-.289l1.2655-.2889h.2291l-.01.807h.04a2.4245,2.4245,0,0,1,1.6042-.8369c.9067,0,1.3352.6277,1.3352,1.7736Zm4.7919,1.0562h-.2291v-.6875h-.04a2.35,2.35,0,0,1-1.5444.7174c-1.1259,0-1.7039-.9864-1.7039-2.2618a2.3893,2.3893,0,0,1,2.2918-2.65,1.9839,1.9839,0,0,1,.9665.2391V46.5883c0-.4384-.05-.5281-.4384-.5281-.09,0-.2591.02-.2591.02v-.279l1.2555-.3488h.269v5.9685c0,.5181.13.6177.4982.6177h.2092v.269Zm-.259-3.6867a.9349.9349,0,0,0-.9865-.7971c-.8369,0-1.4049.6078-1.4049,1.8633,0,1.375.4584,1.933,1.3053,1.933a1.7041,1.7041,0,0,0,1.0861-.3687Z"/><path d="M16.7275,60.2266v1.3857H17.983v.667H16.7275V64.88c0,.5986.1694.9365.6576.9365a1.9339,1.9339,0,0,0,.5082-.06l.04.6582a2.1554,2.1554,0,0,1-.7772.1192,1.2176,1.2176,0,0,1-.9466-.3682,1.788,1.788,0,0,1-.3388-1.2558V62.2793h-.7473v-.667h.7473V60.4561Z"/><path d="M18.969,59.36h.8768v3.0087h.02a1.6259,1.6259,0,0,1,.6277-.6171,1.7963,1.7963,0,0,1,.8969-.25c.6475,0,1.6838.3994,1.6838,2.0625v2.87h-.8768v-2.77c0-.7773-.289-1.4355-1.116-1.4355a1.26,1.26,0,0,0-1.1758.8769,1.0651,1.0651,0,0,0-.06.419v2.9092H18.969Z"/><path d="M24.9863,64.1826A1.5449,1.5449,0,0,0,26.64,65.8564a3.1683,3.1683,0,0,0,1.3352-.249l.1494.628a3.9039,3.9039,0,0,1-1.6041.2988,2.24,2.24,0,0,1-2.3715-2.4317,2.3414,2.3414,0,0,1,2.2619-2.6005,2.0438,2.0438,0,0,1,1.9928,2.2724,3.322,3.322,0,0,1-.03.4082Zm2.5707-.6279A1.2485,1.2485,0,0,0,26.3414,62.13a1.4534,1.4534,0,0,0-1.3451,1.4248Z"/><path d="M31.8306,62.917c0-.4981-.01-.9063-.04-1.3047h.7673l.04.7773h.03a1.6616,1.6616,0,0,1,1.5145-.8876,1.4265,1.4265,0,0,1,1.365.9668h.02a1.992,1.992,0,0,1,.538-.628,1.6485,1.6485,0,0,1,1.0661-.3388c.6377,0,1.5844.4189,1.5844,2.0927v2.84h-.8569V63.7041c0-.9268-.3389-1.4844-1.0463-1.4844a1.1361,1.1361,0,0,0-1.0363.7969,1.4534,1.4534,0,0,0-.07.4385v2.98H34.85v-2.89c0-.7676-.3387-1.3252-1.0063-1.3252a1.1981,1.1981,0,0,0-1.0861.877,1.2121,1.2121,0,0,0-.07.4287v2.9092h-.8568Z"/><path d="M42.81,66.4346l-.07-.6075h-.03a1.7976,1.7976,0,0,1-1.4747.7168,1.3739,1.3739,0,0,1-1.4747-1.3847c0-1.166,1.0363-1.8037,2.9-1.794v-.1A.9937.9937,0,0,0,41.5642,62.15a2.3985,2.3985,0,0,0-1.2555.3584l-.1992-.5781a2.9953,2.9953,0,0,1,1.5842-.4287c1.4748,0,1.8334,1.0068,1.8334,1.9736v1.8027a6.7928,6.7928,0,0,0,.08,1.1563Zm-.13-2.461c-.9566-.02-2.0426.1494-2.0426,1.086a.7757.7757,0,0,0,.827.8369A1.2,1.2,0,0,0,42.63,65.09a.9163.9163,0,0,0,.05-.2793Z"/><path d="M49.0962,61.6123c-.02.3486-.04.7373-.04,1.3252v2.8a2.7751,2.7751,0,0,1-.6875,2.2022,2.5561,2.5561,0,0,1-1.7537.5771,3.1059,3.1059,0,0,1-1.6042-.3984l.2192-.667a2.7205,2.7205,0,0,0,1.4149.3779c.8968,0,1.5544-.4678,1.5544-1.6836v-.5381h-.02a1.7223,1.7223,0,0,1-1.5345.8076,2.1558,2.1558,0,0,1-2.0526-2.3515,2.3151,2.3151,0,0,1,2.1721-2.5615,1.603,1.603,0,0,1,1.5046.8378h.02l.04-.7275ZM48.19,63.5146a1.2458,1.2458,0,0,0-.05-.3984,1.2634,1.2634,0,0,0-1.2255-.9267c-.837,0-1.4349.708-1.4349,1.8242,0,.9463.4783,1.7334,1.425,1.7334a1.2821,1.2821,0,0,0,1.2156-.8965,1.5287,1.5287,0,0,0,.07-.4688Z"/><path d="M50.51,62.917c0-.4981-.01-.9063-.04-1.3047h.7772l.05.7969h.02a1.7743,1.7743,0,0,1,1.5942-.9072c.6676,0,1.7039.3994,1.7039,2.0527v2.88h-.8769v-2.78c0-.7773-.2889-1.4248-1.1159-1.4248a1.2863,1.2863,0,0,0-1.2355,1.3057v2.8994H50.51Z"/><path d="M57.016,60.2568a.5431.5431,0,0,1-1.0861,0,.5343.5343,0,0,1,.548-.5478A.52.52,0,0,1,57.016,60.2568ZM56.04,66.4346V61.6123h.8768v4.8223Z"/><path d="M59.4269,60.2266v1.3857h1.2555v.667H59.4269V64.88c0,.5986.1694.9365.6576.9365a1.9357,1.9357,0,0,0,.5082-.06l.04.6582a2.1544,2.1544,0,0,1-.7771.1192,1.2179,1.2179,0,0,1-.9466-.3682A1.7885,1.7885,0,0,1,58.57,64.91V62.2793h-.7473v-.667H58.57V60.4561Z"/><path d="M65.7037,65.1191c0,.4981.01.9366.04,1.3155h-.7771l-.05-.7871h-.02a1.8141,1.8141,0,0,1-1.5942.8964c-.7572,0-1.664-.4179-1.664-2.1123V61.6123h.8769v2.67c0,.917.2789,1.5342,1.076,1.5342a1.2332,1.2332,0,0,0,1.2356-1.2451v-2.959h.8768Z"/><path d="M71.3226,59.36v5.8291c0,.4277.01.916.04,1.2451h-.7871l-.04-.8369h-.02a1.7836,1.7836,0,0,1-1.644.9462,2.1984,2.1984,0,0,1-2.0625-2.4511,2.3074,2.3074,0,0,1,2.1621-2.5908,1.6143,1.6143,0,0,1,1.4548.7373h.02V59.36Zm-.8768,4.2148a1.5449,1.5449,0,0,0-.04-.3691A1.29,1.29,0,0,0,69.1405,62.19c-.9067,0-1.4448.7978-1.4448,1.8632,0,.9766.4783,1.7842,1.4249,1.7842A1.3181,1.3181,0,0,0,70.4059,64.79a1.5132,1.5132,0,0,0,.04-.3779Z"/><path d="M73.2646,64.1826a1.545,1.545,0,0,0,1.6541,1.6738,3.1683,3.1683,0,0,0,1.3352-.249l.1494.628a3.9039,3.9039,0,0,1-1.6041.2988,2.24,2.24,0,0,1-2.3715-2.4317A2.3414,2.3414,0,0,1,74.69,61.502a2.0438,2.0438,0,0,1,1.9928,2.2724,3.3262,3.3262,0,0,1-.03.4082Zm2.5707-.6279A1.2485,1.2485,0,0,0,74.62,62.13a1.4533,1.4533,0,0,0-1.3451,1.4248Z"/><path d="M84.4731,63.9834a2.3568,2.3568,0,0,1-2.4012,2.56,2.2922,2.2922,0,0,1-2.3116-2.48,2.3553,2.3553,0,0,1,2.3913-2.5615A2.284,2.284,0,0,1,84.4731,63.9834Zm-3.8261.05c0,1.0566.6078,1.8535,1.4647,1.8535.837,0,1.4647-.7871,1.4647-1.873,0-.8174-.4086-1.8535-1.4447-1.8535S80.647,63.1162,80.647,64.0332Z"/><path d="M85.668,66.4346V62.2793h-.6775v-.667h.6775v-.2295a2.2727,2.2727,0,0,1,.558-1.6836,1.6755,1.6755,0,0,1,1.1757-.4482,2.0447,2.0447,0,0,1,.7473.1386l-.12.6778a1.3122,1.3122,0,0,0-.558-.1094c-.7472,0-.9365.6572-.9365,1.3945v.26h1.1658v.667H86.5349v4.1553Z"/><path d="M93.2709,63.2764v.05c.3587.2491.5579.7573,1.375,2.3017a.8753.8753,0,0,0,.9167.5082l-.06.2989H93.9883c-.7473-1.6441-.9566-2.0625-1.2655-2.67-.1494-.2789-.279-.3387-.6377-.3387h-.2092L91.5072,65.2c-.1694.827-.06.9366.7972.9366l-.05.2989h-2.75l.06-.2989c.7373,0,.8867-.1,1.0561-.9366l.8769-4.2746c.11-.548.05-.7373-.7473-.7373l.06-.2989h2.3415c1.3949,0,2.212.4085,2.212,1.375C95.3633,62.6686,94.1377,63.127,93.2709,63.2764Zm-1.3253-.2192.3089.01c1.1957-.04,2.1224-.4883,2.1224-1.7637,0-.538-.299-1.0262-1.2854-1.0262a5.3971,5.3971,0,0,0-.5879.03Z"/><path d="M96.2291,62.4092a.5938.5938,0,1,1,1.1857,0,.5934.5934,0,1,1-1.1857,0Zm0,3.5176a.5938.5938,0,1,1,1.1857,0,.5933.5933,0,1,1-1.1857,0Z"/><path d="M26.1639,96.5234v.05c.3587.2491.5579.7573,1.375,2.3017a.8753.8753,0,0,0,.9167.5082l-.06.2989H26.8813c-.7473-1.6441-.9566-2.0626-1.2655-2.67-.1494-.2789-.279-.3387-.6377-.3387h-.2092L24.4,98.4465c-.1694.827-.06.9366.7971.9366l-.05.2989h-2.75l.06-.2989c.7373,0,.8867-.1,1.0561-.9366l.8769-4.2746c.11-.548.05-.7373-.7473-.7373l.06-.2989h2.3415c1.3949,0,2.212.4085,2.212,1.375C28.2563,95.9156,27.0307,96.3739,26.1639,96.5234Zm-1.3253-.2192.3089.01c1.1957-.04,2.1224-.4883,2.1224-1.7637,0-.538-.299-1.0263-1.2854-1.0263a5.396,5.396,0,0,0-.5879.03Z"/><path d="M29.1669,96.0957v-.3769l.481-.4668c1.1576-1.1016,1.6806-1.6875,1.6877-2.3711a.8089.8089,0,0,0-.9-.8858,1.547,1.547,0,0,0-.9623.3838l-.1952-.4326a1.99,1.99,0,0,1,1.2831-.46,1.2757,1.2757,0,0,1,1.3876,1.3184c0,.8359-.6066,1.5127-1.562,2.4336l-.3626.334v.0146h2.0362v.5088Z"/><path d="M36.0715,96.3242v-.5986H41.213v.5986Zm0,1.9522v-.5977H41.213v.5977Z"/><path d="M48.2445,92.9023a6.57,6.57,0,0,0-1.2555,4.0752,6.7185,6.7185,0,0,0,1.2555,4.0459H47.557a6.4417,6.4417,0,0,1-1.3053-4.0459,6.577,6.577,0,0,1,1.3053-4.0752Z"/><path d="M53.9825,87.6475h-.02l-1.1258.6074-.1695-.668,1.415-.7568H54.83v6.4765h-.847Z"/><path d="M61.0562,87.5674H58.5851l-.2492,1.664a3.5168,3.5168,0,0,1,.5281-.04,2.7366,2.7366,0,0,1,1.395.3486,1.846,1.846,0,0,1,.9267,1.6641,2.2468,2.2468,0,0,1-2.4114,2.2119,3.1713,3.1713,0,0,1-1.6141-.3984l.2192-.668a2.89,2.89,0,0,0,1.385.3594,1.4291,1.4291,0,0,0,1.5344-1.4053c-.01-.8369-.568-1.4346-1.8633-1.4346a6.8094,6.8094,0,0,0-.8967.0694l.4185-3.1084h3.0989Z"/><line class="cls-5" x1="51.631" y1="97.112" x2="61.494" y2="97.112"/><path d="M54.5454,106.0576V105.52l.6875-.6679c1.6541-1.5743,2.4014-2.4112,2.4113-3.3877a1.1551,1.1551,0,0,0-1.2853-1.2647,2.2051,2.2051,0,0,0-1.375.5479l-.2791-.6182a2.84,2.84,0,0,1,1.8334-.6572,1.822,1.822,0,0,1,1.9829,1.8828c0,1.1963-.8669,2.1621-2.2319,3.4775l-.5182.4785v.02h2.91v.7275Z"/><path d="M62.8893,101.0234a6.7474,6.7474,0,0,0,1.2554-4.0761,6.6052,6.6052,0,0,0-1.2554-4.045h.6775a6.348,6.348,0,0,1,1.3053,4.0557,6.4692,6.4692,0,0,1-1.3053,4.0654Z"/><path d="M67.8248,89.2324v-.3769l.4811-.4668c1.1576-1.1016,1.6806-1.6875,1.6876-2.3711a.8089.8089,0,0,0-.9-.8858,1.5467,1.5467,0,0,0-.9623.3838l-.1952-.4326a1.99,1.99,0,0,1,1.2831-.46,1.2757,1.2757,0,0,1,1.3876,1.3184c0,.8359-.6066,1.5127-1.5621,2.4336l-.3625.334v.0146h2.0361v.5088Z"/><path d="M77.066,94.3809v2.3418h2.252V97.32H77.066v2.3613h-.6377V97.32H74.1765v-.5976h2.2518V94.3809Z"/><path d="M85.7955,92.9023A6.57,6.57,0,0,0,84.54,96.9775a6.7185,6.7185,0,0,0,1.2555,4.0459H85.108a6.4417,6.4417,0,0,1-1.3053-4.0459,6.577,6.577,0,0,1,1.3053-4.0752Z"/><path d="M94.0934,93.3066v-.538l.6875-.668c1.654-1.5742,2.4014-2.4111,2.4114-3.3877a1.1552,1.1552,0,0,0-1.2854-1.2647,2.2057,2.2057,0,0,0-1.375.5479l-.2791-.6182a2.84,2.84,0,0,1,1.8334-.6572,1.822,1.822,0,0,1,1.9828,1.8828c0,1.1953-.8669,2.1621-2.232,3.4776l-.518.4785v.0195h2.9094v.7275Z"/><path d="M103.07,87.5674h-2.4711l-.2491,1.664a3.5146,3.5146,0,0,1,.5281-.04,2.7371,2.7371,0,0,1,1.395.3486,1.8463,1.8463,0,0,1,.9266,1.6641,2.2467,2.2467,0,0,1-2.4112,2.2119,3.1719,3.1719,0,0,1-1.6143-.3984l.2192-.668a2.8911,2.8911,0,0,0,1.385.3594,1.4291,1.4291,0,0,0,1.5345-1.4053c-.01-.8369-.5679-1.4346-1.8633-1.4346a6.8064,6.8064,0,0,0-.8967.0694l.4184-3.1084H103.07Z"/><line class="cls-5" x1="89.69" y1="97.112" x2="107.463" y2="97.112"/><path d="M90.1383,109.4414v-.5381l.6875-.6679c1.6541-1.5743,2.4014-2.4112,2.4114-3.3877a1.1551,1.1551,0,0,0-1.2854-1.2647,2.2051,2.2051,0,0,0-1.375.5479l-.2791-.6182a2.84,2.84,0,0,1,1.8334-.6572,1.8219,1.8219,0,0,1,1.9828,1.8828c0,1.1953-.8668,2.1621-2.2319,3.4775l-.5181.4785v.02h2.9094v.7275Z"/><path d="M98.0994,109.7539h-.6377l-1.5843-4.2646-.7473.3193-.1893-.4688,1.375-.5771,1.2256,3.4473a4.5208,4.5208,0,0,1,.1893.6377h.02c.03-.17.08-.4288.1295-.6475l1.8534-7.6328h.6576Z"/><line class="cls-5" x1="102.532" y1="99.961" x2="107.464" y2="99.961"/><path d="M103.19,108.4346a2.9228,2.9228,0,0,0,1.4348.4092c1.126,0,1.4747-.7178,1.4647-1.2559-.01-.9063-.827-1.2949-1.6739-1.2949h-.4883v-.6582h.4883c.6377,0,1.4448-.3282,1.4448-1.0957,0-.5176-.3289-.9766-1.136-.9766a2.38,2.38,0,0,0-1.2953.4287l-.2291-.6377a3.0791,3.0791,0,0,1,1.6938-.498c1.2754,0,1.8533.7568,1.8533,1.5439a1.6079,1.6079,0,0,1-1.1957,1.5244v.02a1.6867,1.6867,0,0,1,1.4448,1.6641c0,1.0361-.8071,1.9424-2.3614,1.9424a3.285,3.285,0,0,1-1.684-.4385Z"/><path d="M108.8583,101.0234a6.7474,6.7474,0,0,0,1.2553-4.0761,6.6052,6.6052,0,0,0-1.2553-4.045h.6775a6.348,6.348,0,0,1,1.3053,4.0557,6.4692,6.4692,0,0,1-1.3053,4.0654Z"/><path d="M114.3029,86.4072V86.03l.481-.4668c1.1576-1.1016,1.6806-1.6875,1.6877-2.3711a.8089.8089,0,0,0-.9-.8858,1.5467,1.5467,0,0,0-.9623.3838l-.1952-.4326a1.99,1.99,0,0,1,1.2831-.46,1.2756,1.2756,0,0,1,1.3876,1.3183c0,.8369-.6066,1.5127-1.562,2.4336l-.3626.334v.0146h2.0362v.5088Z"/><path d="M121.2075,96.3242v-.5986h5.1415v.5986Zm0,1.9522v-.5977h5.1415v.5977Z"/><path d="M132.3933,93.3066v-.538l.6875-.668c1.6539-1.5742,2.4013-2.4111,2.4113-3.3877a1.1552,1.1552,0,0,0-1.2854-1.2647,2.2056,2.2056,0,0,0-1.3749.5479l-.2791-.6182a2.84,2.84,0,0,1,1.8334-.6572,1.8221,1.8221,0,0,1,1.9829,1.8828c0,1.1953-.8669,2.1621-2.2319,3.4776l-.5182.4785v.0195h2.91v.7275Z"/><path d="M137.504,93.3066v-.538l.6875-.668c1.6541-1.5742,2.4012-2.4111,2.4112-3.3877a1.1552,1.1552,0,0,0-1.2854-1.2647,2.2062,2.2062,0,0,0-1.375.5479l-.2788-.6182a2.8393,2.8393,0,0,1,1.8332-.6572,1.8221,1.8221,0,0,1,1.9829,1.8828c0,1.1953-.8669,2.1621-2.2319,3.4776l-.5183.4785v.0195h2.91v.7275Z"/><path d="M146.4808,87.5674H144.01l-.249,1.664a3.5168,3.5168,0,0,1,.5281-.04,2.7369,2.7369,0,0,1,1.395.3486,1.846,1.846,0,0,1,.9265,1.6641,2.2466,2.2466,0,0,1-2.4111,2.2119,3.1719,3.1719,0,0,1-1.6143-.3984l.2193-.668a2.89,2.89,0,0,0,1.385.3594,1.4291,1.4291,0,0,0,1.5344-1.4053c-.01-.8369-.5679-1.4346-1.8633-1.4346a6.8064,6.8064,0,0,0-.8967.0694l.4185-3.1084h3.0988Z"/><line class="cls-5" x1="131.945" y1="97.112" x2="146.74" y2="97.112"/><path d="M140.0348,106.0576v-1.7637h-3.0093v-.5781l2.89-4.1347h.9465v4.0253h.9067v.6875h-.9067v1.7637Zm0-2.4512v-2.1621q0-.5082.03-1.0166h-.03c-.2.3789-.3589.6582-.5381.9571l-1.5842,2.2021v.0195Z"/><path d="M153.4362,94.3809v2.3418h2.2519V97.32h-2.2519v2.3613h-.6377V97.32h-2.2517v-.5976h2.2517V94.3809Z"/><path d="M164.8761,87.4482a3.1626,3.1626,0,0,0-.6577.0391,2.6331,2.6331,0,0,0-2.2517,2.3018h.03a1.9743,1.9743,0,0,1,3.5173,1.3457,2.1654,2.1654,0,0,1-2.1521,2.2812c-1.385,0-2.2918-1.0762-2.2918-2.76a4.0735,4.0735,0,0,1,1.096-2.92,3.53,3.53,0,0,1,2.0725-.956,4.1775,4.1775,0,0,1,.6377-.05Zm-.249,3.7364a1.3166,1.3166,0,0,0-1.3352-1.4854,1.443,1.443,0,0,0-1.2556.7979.7462.7462,0,0,0-.1.3886c.02,1.0655.5083,1.8526,1.4251,1.8526C164.1188,92.7383,164.6271,92.1113,164.6271,91.1846Z"/><path d="M166.29,93.3066v-.538l.6875-.668c1.654-1.5742,2.4011-2.4111,2.4111-3.3877a1.1552,1.1552,0,0,0-1.2854-1.2647,2.2064,2.2064,0,0,0-1.375.5479l-.2788-.6182a2.8393,2.8393,0,0,1,1.8332-.6572,1.822,1.822,0,0,1,1.9829,1.8828c0,1.1953-.8669,2.1621-2.2319,3.4776l-.5183.4785v.0195h2.91v.7275Z"/><path d="M175.267,87.5674h-2.4712l-.249,1.664a3.5153,3.5153,0,0,1,.528-.04,2.7366,2.7366,0,0,1,1.395.3486,1.8461,1.8461,0,0,1,.9266,1.6641,2.2467,2.2467,0,0,1-2.4112,2.2119,3.1712,3.1712,0,0,1-1.6142-.3984l.2192-.668a2.8908,2.8908,0,0,0,1.385.3594,1.4291,1.4291,0,0,0,1.5344-1.4053c-.01-.8369-.5678-1.4346-1.8632-1.4346a6.8067,6.8067,0,0,0-.8968.0694l.4185-3.1084h3.0989Z"/><line class="cls-5" x1="160.731" y1="97.112" x2="175.526" y2="97.112"/><path d="M165.5475,100.3984h-.02l-1.126.6075-.1692-.668,1.4148-.7568h.7473v6.4765h-.8469Z"/><path d="M168.755,106.0576V105.52l.6875-.6679c1.6541-1.5743,2.4011-2.4112,2.4111-3.3877a1.1551,1.1551,0,0,0-1.2854-1.2647,2.2058,2.2058,0,0,0-1.375.5479l-.2788-.6182a2.84,2.84,0,0,1,1.8333-.6572,1.822,1.822,0,0,1,1.9829,1.8828c0,1.1963-.867,2.1621-2.2319,3.4775l-.5184.4785v.02h2.91v.7275Z"/><path d="M179.8866,96.3242v-.5986h5.1414v.5986Zm0,1.9522v-.5977h5.1414v.5977Z"/><path d="M191.2806,92.3a2.9215,2.9215,0,0,0,1.4349.4092c1.1257,0,1.4746-.7178,1.4646-1.2559-.01-.9062-.827-1.2949-1.6739-1.2949h-.4883V89.5h.4883c.6377,0,1.4446-.3281,1.4446-1.0957,0-.5176-.3286-.9766-1.1357-.9766a2.3793,2.3793,0,0,0-1.2954.4287l-.2293-.6376a3.08,3.08,0,0,1,1.6941-.4981c1.2754,0,1.8533.7568,1.8533,1.5439a1.6082,1.6082,0,0,1-1.1958,1.5245v.02a1.6866,1.6866,0,0,1,1.4448,1.664c0,1.0362-.8071,1.9424-2.3616,1.9424a3.2842,3.2842,0,0,1-1.6838-.4385Z"/><path d="M196.182,93.3066v-.538l.6875-.668c1.6538-1.5742,2.4011-2.4111,2.4111-3.3877a1.1551,1.1551,0,0,0-1.2854-1.2647,2.2071,2.2071,0,0,0-1.375.5479l-.2788-.6182a2.84,2.84,0,0,1,1.8333-.6572,1.8221,1.8221,0,0,1,1.9829,1.8828c0,1.1953-.867,2.1621-2.2319,3.4776l-.5181.4785v.0195h2.9094v.7275Z"/><path d="M205.1588,87.5674h-2.4712l-.249,1.664a3.5168,3.5168,0,0,1,.5281-.04,2.7369,2.7369,0,0,1,1.395.3486,1.846,1.846,0,0,1,.9265,1.6641,2.2466,2.2466,0,0,1-2.4111,2.2119,3.1719,3.1719,0,0,1-1.6143-.3984l.2193-.668a2.89,2.89,0,0,0,1.385.3594,1.4291,1.4291,0,0,0,1.5344-1.4053c-.01-.8369-.5679-1.4346-1.8633-1.4346a6.8094,6.8094,0,0,0-.8967.0694L202.06,86.83h3.0989Z"/><line class="cls-5" x1="190.623" y1="97.112" x2="205.418" y2="97.112"/><path d="M196.2128,105.0508a2.9221,2.9221,0,0,0,1.4348.4092c1.1257,0,1.4746-.7178,1.4646-1.2559-.01-.9062-.8269-1.2949-1.6738-1.2949H196.95v-.6582h.4883c.6376,0,1.4445-.3281,1.4445-1.0957,0-.5186-.3286-.9766-1.1357-.9766a2.3793,2.3793,0,0,0-1.2954.4287l-.2293-.6377a3.0807,3.0807,0,0,1,1.6941-.498c1.2754,0,1.8533.7568,1.8533,1.5439a1.608,1.608,0,0,1-1.1958,1.5244v.02a1.6867,1.6867,0,0,1,1.4448,1.6641c0,1.0361-.8071,1.9424-2.3616,1.9424a3.2848,3.2848,0,0,1-1.6838-.4385Z"/><rect class="cls-3" x="86.107" y="121.003" width="56.926" height="29.149"/><path d="M94.7259,136.0934v.05c.3587.2491.5579.7573,1.375,2.3017a.8753.8753,0,0,0,.9167.5082l-.06.2989H95.4433c-.7473-1.6441-.9566-2.0625-1.2655-2.67-.1494-.2789-.279-.3387-.6377-.3387h-.2092l-.3687,1.7736c-.1694.827-.06.9366.7971.9366l-.05.2989H90.96l.06-.2989c.7374,0,.8868-.1,1.0562-.9366l.8769-4.2746c.11-.548.05-.7373-.7473-.7373l.06-.2989h2.3416c1.3949,0,2.212.4085,2.212,1.375C96.8183,135.4856,95.5927,135.944,94.7259,136.0934Zm-1.3253-.2192.3089.01c1.1957-.04,2.1224-.4883,2.1224-1.7637,0-.538-.299-1.0262-1.2854-1.0262a5.3971,5.3971,0,0,0-.5879.03Zm7.3921.12v-.6776h5.9386v.6776Zm0,2.0326v-.6676h5.9386v.6676Z"/><path d="M114.3374,129.4082H112.608l-.1743,1.1641a2.4669,2.4669,0,0,1,.37-.0274,1.9091,1.9091,0,0,1,.9762.2442,1.2917,1.2917,0,0,1,.6486,1.164,1.573,1.573,0,0,1-1.6875,1.5489,2.2177,2.2177,0,0,1-1.13-.2793l.1535-.4668a2.0325,2.0325,0,0,0,.9692.2509,1,1,0,0,0,1.074-.9834c-.0071-.5859-.3975-1.0048-1.3041-1.0048a4.76,4.76,0,0,0-.6275.0488l.2928-2.1748h2.1687Z"/><path d="M117.2527,133.55h-.4463l-1.1088-2.9844-.523.2237-.1325-.3282.9623-.4043.8578,2.4131a3.1619,3.1619,0,0,1,.1324.4463h.0139c.021-.1191.0558-.3.0907-.4541l1.297-5.3408h.46Z"/><line class="cls-6" x1="120.356" y1="126.695" x2="127.804" y2="126.695"/><path d="M120.8162,132.7207a2.0537,2.0537,0,0,0,1.0041.2861c.788,0,1.0321-.5029,1.0252-.8789-.007-.6347-.5789-.9062-1.1715-.9062h-.3418v-.461h.3418c.4462,0,1.0111-.2294,1.0111-.7666,0-.3632-.23-.6836-.7951-.6836a1.6633,1.6633,0,0,0-.9065.3l-.16-.4463a2.1588,2.1588,0,0,1,1.1856-.3487c.8925,0,1.297.53,1.297,1.0811a1.1254,1.1254,0,0,1-.8368,1.0664v.0146a1.18,1.18,0,0,1,1.0111,1.1641c0,.7256-.5648,1.36-1.6527,1.36a2.3024,2.3024,0,0,1-1.1785-.3077Z"/><path d="M124.6029,132.9922a2.5363,2.5363,0,0,0,.4951-.02,1.7094,1.7094,0,0,0,.9484-.44,1.9867,1.9867,0,0,0,.6-1.206h-.021a1.3309,1.3309,0,0,1-1.0669.4883,1.3132,1.3132,0,0,1-1.3388-1.3877,1.5541,1.5541,0,0,1,1.5481-1.6114c.9274,0,1.4992.753,1.4992,1.9112a2.86,2.86,0,0,1-.781,2.1259,2.2656,2.2656,0,0,1-1.318.6075,2.8364,2.8364,0,0,1-.5648.0341Zm.2231-2.6074a.8719.8719,0,0,0,.8718.9619,1.0151,1.0151,0,0,0,.8925-.4737.4091.4091,0,0,0,.0558-.2236c0-.7744-.2859-1.3672-.9275-1.3672C125.1957,129.2822,124.826,129.7432,124.826,130.3848Z"/><line class="cls-5" x1="111.318" y1="136.682" x2="127.804" y2="136.682"/><path d="M118.1942,144.376a2.0541,2.0541,0,0,0,1.0042.2861c.7879,0,1.0321-.5029,1.0251-.8789-.0071-.6348-.5788-.9062-1.1715-.9062H118.71v-.461h.3417c.4463,0,1.0111-.23,1.0111-.7666,0-.3623-.23-.6836-.7949-.6836a1.6639,1.6639,0,0,0-.9066.3l-.16-.4463a2.16,2.16,0,0,1,1.1855-.3486c.8926,0,1.297.53,1.297,1.0811a1.1253,1.1253,0,0,1-.8368,1.0664v.0146a1.18,1.18,0,0,1,1.0111,1.1641c0,.7256-.5648,1.36-1.6527,1.36a2.3023,2.3023,0,0,1-1.1784-.3076Z"/><path d="M131.4174,139.252v-6.7159h.9465l2.1521,3.3975a18.9909,18.9909,0,0,1,1.2058,2.1826l.02-.01c-.08-.8974-.1-1.7138-.1-2.7607v-2.81h.8171v6.7159h-.8769l-2.1322-3.4073a21.3734,21.3734,0,0,1-1.2555-2.2422l-.03.01c.05.8467.07,1.6543.07,2.77v2.8692Z"/><line class="cls-7" x1="85.709" y1="120.803" x2="143.432" y2="120.803"/><line class="cls-7" x1="85.908" y1="150.351" x2="85.908" y2="120.803"/><line class="cls-7" x1="143.233" y1="150.351" x2="143.233" y2="120.803"/><line class="cls-7" x1="85.709" y1="150.351" x2="143.432" y2="150.351"/><line class="cls-8" x1="224.779" y1="147.76" x2="224.779" y2="48.134"/><path d="M240.4232,54.32a.5892.5892,0,1,1,.5879.6279A.5809.5809,0,0,1,240.4232,54.32Zm3.3179,0a.5939.5939,0,1,1,.5879.6279A.5812.5812,0,0,1,243.7411,54.32Zm3.3181,0a.5886.5886,0,0,1,.5979-.6269.6284.6284,0,1,1-.5979.6269Z"/><path d="M251.93,54.2212a2.0585,2.0585,0,0,1-1.4648.6875,1.0763,1.0763,0,0,1-1.1857-1.1159c0-1.3153,1.7637-1.5743,2.6206-1.8434V51.511c0-.8669-.299-1.1957-.8968-1.1957-.5679,0-.6676.2093-.6676.8071a.4006.4006,0,0,1-.4384.4584.4314.4314,0,0,1-.4185-.4783c0-.558.6676-1.096,1.7537-1.096s1.4946.4982,1.4946,1.5344v2.2618c0,.4086.09.4883.2989.4883a.6323.6323,0,0,0,.4683-.2491l.1495.1594c-.3289.4783-.568.6875-1.0762.6875-.4384,0-.538-.2292-.5978-.6676Zm-.03-1.943c-.9068.2292-1.7437.4982-1.7437,1.2754a.7175.7175,0,0,0,.7174.8071,1.6808,1.6808,0,0,0,1.0263-.4384Zm6.5755,1.5544c0,.558.07.7274.7373.7274v.279h-2.3016V54.56c.7074,0,.7373-.1694.7373-.7274V52.0291c0-1.1956-.4683-1.385-.9167-1.385a1.8261,1.8261,0,0,0-1.2056.6278v2.5607c0,.558.04.7274.7572.7274v.279h-2.2817V54.56c.6676,0,.6975-.1694.6975-.7274v-2.8c0-.3587-.1495-.4384-.4185-.4384a1.5106,1.5106,0,0,0-.2691.02v-.289l1.2655-.289h.2291l-.01.8071h.04a2.4245,2.4245,0,0,1,1.6042-.8369c.9067,0,1.3352.6277,1.3352,1.7735Zm4.7919,1.0562h-.2291v-.6875h-.04a2.35,2.35,0,0,1-1.5444.7174c-1.126,0-1.7038-.9864-1.7038-2.2618a2.3892,2.3892,0,0,1,2.2917-2.65,1.9839,1.9839,0,0,1,.9665.2391V48.94c0-.4384-.05-.5281-.4384-.5281-.09,0-.2591.02-.2591.02v-.2789l1.2555-.3488h.269v5.9684c0,.5182.13.6178.4982.6178h.2092v.269Zm-.259-3.6867a.9349.9349,0,0,0-.9864-.7971c-.837,0-1.405.6078-1.405,1.8633,0,1.375.4584,1.933,1.3053,1.933a1.7039,1.7039,0,0,0,1.0861-.3687Zm11.7166-.7871c-.3886,0-.538.1395-.7373.6576l-1.4847,3.8262h-.4782l-1.0562-2.9h-.04l-1.1658,2.9h-.4584L267.81,51.1423c-.2591-.6177-.4085-.7273-.8469-.7273v-.289h2.1422v.289c-.3985,0-.528.09-.528.2491a1.0494,1.0494,0,0,0,.11.3886l.8669,2.202.1794.5779h.07l.2093-.5779.7174-1.8134-.11-.299c-.2392-.6476-.3887-.7273-.8271-.7273v-.289h2.0825v.289c-.3786,0-.4982.09-.4982.2491a1.3823,1.3823,0,0,0,.09.4085l.8071,2.1821.1793.5779h.06l.1993-.5779.7871-2.2319a1.413,1.413,0,0,0,.06-.3587c0-.1893-.1893-.2491-.5579-.2491v-.289h1.7237Zm4.1439,3.1386a1.9734,1.9734,0,0,1-1.8632,1.385c-1.1957,0-2.1224-.8668-2.1224-2.471,0-1.664.9366-2.4611,2.1024-2.4611,1.0861,0,1.8035.7871,1.8533,2.1821h-3.1486c0,1.375.7573,2.0027,1.5544,2.0027a1.5764,1.5764,0,0,0,1.4348-.7772Zm-.9665-1.7337c-.03-.7373-.3587-1.4149-1.0661-1.4149-.6776,0-1.0762.4882-1.1559,1.4149Zm7.8607,1.6839a2.0238,2.0238,0,0,1-1.933,1.4348c-1.2455,0-1.9928-.9665-1.9928-2.3515,0-1.5643.817-2.5806,2.2519-2.5806.9365,0,1.5145.4782,1.5145,1.0561,0,.289-.1395.4484-.4185.4484-.7373,0-.4085-1.1359-1.2654-1.1359-.8071,0-1.2954.5979-1.2954,1.7437,0,1.2156.4883,2.0725,1.5146,2.0725a1.6322,1.6322,0,0,0,1.4348-.827Zm3.2177.7174a2.0577,2.0577,0,0,1-1.4646.6875,1.0763,1.0763,0,0,1-1.1858-1.1159c0-1.3153,1.7636-1.5743,2.6206-1.8434V51.511c0-.8669-.299-1.1957-.8968-1.1957-.5679,0-.6676.2093-.6676.8071a.4006.4006,0,0,1-.4384.4584.4314.4314,0,0,1-.4185-.4783c0-.558.6676-1.096,1.7537-1.096s1.4946.4982,1.4946,1.5344v2.2618c0,.4086.09.4883.2989.4883a.6323.6323,0,0,0,.4683-.2491l.15.1594c-.3289.4783-.568.6875-1.0762.6875-.4384,0-.538-.2292-.5978-.6676Zm-.03-1.943c-.9068.2292-1.7437.4982-1.7437,1.2754a.7175.7175,0,0,0,.7174.8071,1.6808,1.6808,0,0,0,1.0263-.4384Zm6.5755,1.5544c0,.558.07.7274.7373.7274v.279h-2.3017V54.56c.7075,0,.7374-.1694.7374-.7274V52.0291c0-1.1956-.4683-1.385-.9167-1.385a1.8264,1.8264,0,0,0-1.2057.6278v2.5607c0,.558.04.7274.7573.7274v.279h-2.2817V54.56c.6676,0,.6974-.1694.6974-.7274v-2.8c0-.3587-.1494-.4384-.4185-.4384a1.51,1.51,0,0,0-.269.02v-.289l1.2654-.289h.2292l-.01.8071h.04a2.4245,2.4245,0,0,1,1.6042-.8369c.9067,0,1.3352.6277,1.3352,1.7735Zm8.6676.827-1.2654.2292H302.71v-.7672h-.05a2.2613,2.2613,0,0,1-1.6341.817c-.827,0-1.3053-.4683-1.3053-1.8234V51.0925c0-.538-.1395-.5779-.6775-.5878v-.279l1.2853-.15h.2192v2.91c0,1.0163.3786,1.3152.8968,1.3152a1.7812,1.7812,0,0,0,1.2256-.5978v-2.62c0-.5281-.1694-.5779-.8071-.5779v-.279l1.3949-.15h.2392V53.733c0,.5879.12.6576.5978.6576h.1Zm.9459-1.4547c.2093,1.0263.5879,1.375,1.3252,1.375.4982,0,.8569-.1893.8569-.6576s-.1893-.6576-1.1159-1.116c-.9068-.4583-1.3153-.807-1.3153-1.5444,0-.817.6676-1.2554,1.5245-1.2554a2.1878,2.1878,0,0,1,1.0462.259h.01l.1694-.2092h.1993l.03,1.5245h-.2691c-.2192-.9466-.5879-1.2356-1.1957-1.2356-.4583,0-.807.2093-.807.6577,0,.3885.3288.6376,1.1657,1.0661.9068.4783,1.395.8469,1.395,1.5843,0,.9366-.7772,1.2953-1.6739,1.2953A2.4939,2.4939,0,0,1,305.35,54.69h-.02l-.2092.2292h-.2093l-.03-1.7138Zm7.612.3487a1.9735,1.9735,0,0,1-1.8633,1.385c-1.1957,0-2.1223-.8668-2.1223-2.471,0-1.664.9366-2.4611,2.1024-2.4611,1.0861,0,1.8035.7871,1.8533,2.1821h-3.1486c0,1.375.7572,2.0027,1.5544,2.0027a1.5765,1.5765,0,0,0,1.4348-.7772Zm-.9665-1.7337c-.03-.7373-.3587-1.4149-1.0662-1.4149-.6775,0-1.0761.4882-1.1558,1.4149Zm6.7148,2.2818c-.3886.538-.5978.8369-1.2355.8369-.6676,0-.9565-.3587-.9565-1.2554V50.5445H315.76v-.2292a2.9642,2.9642,0,0,0,1.126-1.5543h.259l-.01,1.365h1.1259v.4185h-1.1259v2.86c0,.7074.09.9466.4783.9466.3188,0,.4483-.13.6974-.4086Zm1.853-3.0391h.03c.5082-.7373.8071-1.086,1.2854-1.086a.5146.5146,0,0,1,.5779.5579c0,.3787-.2192.5381-.4384.5381-.3288,0-.5281-.3388-.6477-.3388-.2292,0-.548.4185-.7871.8171v2.2718c0,.6277.1893.7273.9366.7273v.289h-2.491V54.55c.6576,0,.7274-.1195.7274-.6775v-2.74c0-.3587,0-.5381-.3587-.5381a1.9083,1.9083,0,0,0-.3089.02v-.279l1.2355-.299h.2392Zm4.5231,3.7764h-2.2419V54.56c.6676,0,.6975-.1594.6975-.7274v-2.78c0-.4285-.1495-.4683-.4384-.4683a1.55,1.55,0,0,0-.2491.02v-.289l1.2554-.279h.2591v3.7963c0,.5779.05.7274.7174.7274Zm-.548-6.3471a.5494.5494,0,0,1-.5679.568.5554.5554,0,0,1-.568-.568.568.568,0,0,1,1.1359,0Zm2.1021,4.4938a1.4622,1.4622,0,0,1-.7672-1.3551,1.6268,1.6268,0,0,1,1.8034-1.6241,2.47,2.47,0,0,1,1.106.2491l1.2854-.07v.5381l-.9366-.03v.05A1.7108,1.7108,0,0,1,329.28,51.77a1.5574,1.5574,0,0,1-1.7637,1.5145,2.5711,2.5711,0,0,1-.8568-.1495,1.6667,1.6667,0,0,0-.2591.6676c0,.299.2591.3986,1.1757.3986,1.2555,0,2.212.04,2.212,1.1857,0,1.3352-1.4747,1.7935-2.73,1.7935-1.3053,0-1.6939-.548-1.6939-1.096,0-.3288.269-.6676.8071-1.1857v-.04a.8783.8783,0,0,1-.558-.7174,1.7538,1.7538,0,0,1,.8171-1.1359Zm-.289,2.76c0,.5779.4783.8669,1.4946.8669,1.1758,0,1.6441-.5181,1.6441-.9466,0-.7174-1.0662-.6975-1.7338-.7074-.7971-.01-.9864-.02-1.1259-.02A1.637,1.637,0,0,0,326.1417,55.7457Zm.3986-4.155c0,.8569.3387,1.3452.9864,1.3452.4982,0,.8669-.279.8669-1.2256,0-.8071-.3587-1.3451-.9964-1.3451C326.879,50.3652,326.54,50.7538,326.54,51.5907Zm8.2694.7971c0,1.674-.9167,2.5508-2.212,2.5508-1.395,0-2.2319-.8967-2.2319-2.5109a2.204,2.204,0,0,1,2.2319-2.4212A2.1316,2.1316,0,0,1,334.81,52.3878Zm-3.5173-.09c0,1.5842.4882,2.2518,1.3451,2.2419.8171,0,1.2555-.4783,1.2555-2.1024,0-1.2256-.4484-2.0526-1.3352-2.0526C331.8006,50.3851,331.2924,51.0228,331.2924,52.2982Zm8.6482,1.5344c0,.558.07.7274.7373.7274v.279h-2.3017V54.56c.7074,0,.7373-.1694.7373-.7274V52.0291c0-1.1956-.4683-1.385-.9167-1.385a1.8261,1.8261,0,0,0-1.2056.6278v2.5607c0,.558.04.7274.7573.7274v.279h-2.2818V54.56c.6676,0,.6975-.1694.6975-.7274v-2.8c0-.3587-.1495-.4384-.4185-.4384a1.5087,1.5087,0,0,0-.269.02v-.289l1.2654-.289h.2292l-.01.8071h.04a2.4241,2.4241,0,0,1,1.6041-.8369c.9068,0,1.3353.6277,1.3353,1.7735Zm5.7285-1.4448c0,1.674-.9167,2.5508-2.212,2.5508-1.395,0-2.2319-.8967-2.2319-2.5109a2.204,2.204,0,0,1,2.2319-2.4212A2.1317,2.1317,0,0,1,345.6691,52.3878Zm-3.5173-.09c0,1.5842.4882,2.2518,1.3451,2.2419.8171,0,1.2555-.4783,1.2555-2.1024,0-1.2256-.4484-2.0526-1.3352-2.0526C342.66,50.3851,342.1518,51.0228,342.1518,52.2982Zm5.6988,1.5743c0,.558.13.6775.7473.6775v.289h-2.2718V54.55c.6278,0,.6975-.1195.6975-.7174v-2.79c0-.3587-.1395-.4484-.4185-.4484a1.815,1.815,0,0,0-.269.02v-.289l1.2455-.289h.2391v.8071h.04a2.5135,2.5135,0,0,1,1.6739-.8369,1.166,1.166,0,0,1,1.106.827h.04a2.3372,2.3372,0,0,1,1.5842-.827c.7772,0,1.2854.4384,1.2854,1.644v2.0327c0,.6277.03.8668.7174.8668v.289h-2.2518V54.55c.6775,0,.7074-.259.7074-.8668V51.77c0-.9067-.3886-1.126-.8569-1.126a2.044,2.044,0,0,0-1.1459.6178v2.4213c0,.6875.05.8668.7673.8668v.289H349.126V54.55c.7074,0,.7672-.1694.7672-.8668V51.71c0-.8469-.3388-1.0662-.7971-1.0662a1.9591,1.9591,0,0,0-1.2455.6377Zm10.9693-.3189a1.9735,1.9735,0,0,1-1.8633,1.385c-1.1957,0-2.1223-.8668-2.1223-2.471,0-1.664.9366-2.4611,2.1023-2.4611,1.0861,0,1.8035.7871,1.8534,2.1821h-3.1486c0,1.375.7572,2.0027,1.5543,2.0027a1.5766,1.5766,0,0,0,1.4349-.7772Zm-.9666-1.7337c-.03-.7373-.3587-1.4149-1.0661-1.4149-.6776,0-1.0761.4882-1.1558,1.4149Zm4.3736,2.2818c-.3886.538-.5978.8369-1.2355.8369-.6676,0-.9565-.3587-.9565-1.2554V50.5445h-.5481v-.2292a2.9648,2.9648,0,0,0,1.126-1.5543h.259l-.01,1.365h1.1259v.4185h-1.1259v2.86c0,.7074.09.9466.4782.9466.3189,0,.4484-.13.6975-.4086Zm1.8529-3.0391h.03c.5082-.7373.8071-1.086,1.2854-1.086a.5146.5146,0,0,1,.5779.5579c0,.3787-.2192.5381-.4384.5381-.3288,0-.5281-.3388-.6477-.3388-.2291,0-.548.4185-.7871.8171v2.2718c0,.6277.1893.7273.9366.7273v.289h-2.491V54.55c.6576,0,.7274-.1195.7274-.6775v-2.74c0-.3587,0-.5381-.3587-.5381a1.9083,1.9083,0,0,0-.3089.02v-.279l1.2355-.299h.2391Zm6.8747-.6476c-.3985,0-.548.1694-.6875.558l-1.5544,4.0852c-.5579,1.4647-1.0462,1.9828-1.8533,1.9828-.4484,0-.7373-.1395-.7373-.5181,0-.2989.1993-.4284.4683-.4284.3488,0,.558.2192.8071.2192.3188,0,.8868-1.2356.8868-1.5245a3.8428,3.8428,0,0,0-.2989-.8171l-1.4647-3.1984a.5484.5484,0,0,0-.5979-.3587v-.289h2.1323v.2989c-.4484,0-.5679.09-.5679.2691a1.34,1.34,0,0,0,.1395.4284l.9764,2.1921.14.5181h.07l.9565-2.9194a1.1006,1.1006,0,0,0,.05-.2491c0-.1993-.2292-.2491-.558-.2491v-.289h1.6938Zm5.35,3.6867c-.3887.538-.5979.8369-1.2356.8369-.6676,0-.9565-.3587-.9565-1.2554V50.5445h-.5481v-.2292a2.9642,2.9642,0,0,0,1.126-1.5543h.2591l-.01,1.365h1.1259v.4185h-1.1259v2.86c0,.7074.09.9466.4783.9466.3188,0,.4483-.13.6974-.4086Zm4.7623-1.7139c0,1.674-.9167,2.5508-2.212,2.5508-1.395,0-2.2319-.8967-2.2319-2.5109a2.204,2.204,0,0,1,2.2319-2.4212A2.1316,2.1316,0,0,1,381.0666,52.3878Zm-3.5173-.09c0,1.5842.4882,2.2518,1.3451,2.2419.8171,0,1.2555-.4783,1.2555-2.1024,0-1.2256-.4484-2.0526-1.3352-2.0526C378.0575,50.3851,377.5493,51.0228,377.5493,52.2982Zm11.8662,2.5408h-2.2917V54.55c.6576,0,.6974-.1893.6974-.7174v-2.76c0-.3288-.09-.4783-.279-.5281h-1.9329v3.1088c0,.7672.1594.9067.8568.9067v.279h-2.5408V54.56c.7274,0,.837-.13.837-.9067V50.5445h-.7573V50.126h.7573a2.798,2.798,0,0,1,.3687-1.644,2.0265,2.0265,0,0,1,1.8134-.7872c.8669,0,1.4647.2491,1.4647.8071a.4346.4346,0,0,1-.4783.4583c-.2989,0-.4284-.2291-.5579-.5281-.11-.2889-.3388-.3786-.6776-.3786-.6875,0-1.086.3687-1.086,1.4647v.6078h1.7138l1.0661-.09h.2591v3.7963c0,.568.05.7174.7672.7174Zm5.021-1.0064c0,.558.07.7274.7373.7274v.279h-2.3017V54.56c.7075,0,.7374-.1694.7374-.7274V52.0291c0-1.1956-.4683-1.385-.9167-1.385a1.8264,1.8264,0,0,0-1.2057.6278v2.5607c0,.558.04.7274.7573.7274v.279h-2.2818V54.56c.6676,0,.6975-.1694.6975-.7274v-2.8c0-.3587-.1494-.4384-.4185-.4384a1.51,1.51,0,0,0-.269.02v-.289l1.2654-.289h.2292l-.01.8071h.04a2.4245,2.4245,0,0,1,1.6042-.8369c.9067,0,1.3352.6277,1.3352,1.7735Zm4.7919,1.0562h-.2291v-.6875h-.04a2.35,2.35,0,0,1-1.5444.7174c-1.1259,0-1.7039-.9864-1.7039-2.2618a2.3893,2.3893,0,0,1,2.2918-2.65,1.9839,1.9839,0,0,1,.9665.2391V48.94c0-.4384-.05-.5281-.4385-.5281-.09,0-.259.02-.259.02v-.2789l1.2554-.3488h.2691v5.9684c0,.5182.13.6178.4982.6178h.2092v.269Zm-.259-3.6867a.935.935,0,0,0-.9865-.7971c-.837,0-1.4049.6078-1.4049,1.8633,0,1.375.4583,1.933,1.3053,1.933a1.7041,1.7041,0,0,0,1.0861-.3687Zm7.2328,2.9c-.3886.538-.5978.8369-1.2355.8369-.6676,0-.9566-.3587-.9566-1.2554V50.5445h-.548v-.2292a2.9647,2.9647,0,0,0,1.1259-1.5543h.2591l-.01,1.365h1.1259v.4185h-1.1259v2.86c0,.7074.09.9466.4782.9466.3189,0,.4484-.13.6975-.4086Zm1.8529-.2292c0,.5181.05.6775.7373.6775v.289h-2.2618V54.55c.5181,0,.6975-.08.6975-.6377V48.8108c0-.3488-.2192-.3986-.4882-.3986a2.1225,2.1225,0,0,0-.289.02v-.2789l1.3352-.3488h.269v3.0191h.03a2.32,2.32,0,0,1,1.6142-.817c1.1458,0,1.3351,1.0262,1.3351,1.8433v1.9828c0,.5281.11.7174.7374.7174v.289H409.48V54.55c.6876,0,.7274-.1992.7274-.6775V52.1487c0-.817-.11-1.5046-.9167-1.5046a1.81,1.81,0,0,0-1.2355.6178Zm8.2494-.3189a1.9735,1.9735,0,0,1-1.8633,1.385c-1.1957,0-2.1223-.8668-2.1223-2.471,0-1.664.9366-2.4611,2.1024-2.4611,1.0861,0,1.8035.7871,1.8533,2.1821H413.126c0,1.375.7572,2.0027,1.5544,2.0027a1.5766,1.5766,0,0,0,1.4348-.7772ZM415.338,51.82c-.03-.7373-.3588-1.4149-1.0662-1.4149-.6775,0-1.0761.4882-1.1558,1.4149Z"/><path d="M242.7448,68.7871l-.07-.6074h-.03a1.7977,1.7977,0,0,1-1.4746.7168,1.374,1.374,0,0,1-1.4748-1.3848c0-1.166,1.0364-1.8037,2.9-1.7939v-.1a.9937.9937,0,0,0-1.0959-1.1153,2.4075,2.4075,0,0,0-1.2556.3584l-.1992-.5781a2.9945,2.9945,0,0,1,1.5842-.4287c1.4746,0,1.8335,1.0068,1.8335,1.9736v1.8028a6.793,6.793,0,0,0,.08,1.1562Zm-.13-2.4609c-.9565-.02-2.0425.1494-2.0425,1.0859a.7756.7756,0,0,0,.8269.8369,1.2,1.2,0,0,0,1.1658-.8066.9143.9143,0,0,0,.05-.2793Z"/><path d="M244.8763,65.2695c0-.498-.01-.9062-.04-1.3047h.7771l.05.7969h.02a1.7744,1.7744,0,0,1,1.5942-.9072c.6677,0,1.7039.3994,1.7039,2.0527v2.88h-.8767v-2.78c0-.7773-.2891-1.4248-1.116-1.4248a1.2867,1.2867,0,0,0-1.2356,1.3057v2.8994h-.877Z"/><path d="M254.56,63.9648c-.02.3487-.04.7373-.04,1.3252v2.8a2.7751,2.7751,0,0,1-.6875,2.2022,2.5554,2.5554,0,0,1-1.7536.5771,3.1061,3.1061,0,0,1-1.6043-.3984l.2193-.667a2.72,2.72,0,0,0,1.4148.3779c.8967,0,1.5544-.4677,1.5544-1.6836V67.96h-.02a1.7223,1.7223,0,0,1-1.5344.8076,2.1559,2.1559,0,0,1-2.0525-2.3516,2.3151,2.3151,0,0,1,2.1721-2.5615,1.6032,1.6032,0,0,1,1.5046.8379h.02l.04-.7276Zm-.9067,1.9024a1.2832,1.2832,0,0,0-1.2754-1.3252c-.8369,0-1.4348.708-1.4348,1.8242,0,.9463.4783,1.7334,1.4248,1.7334a1.2819,1.2819,0,0,0,1.2156-.8965,1.5226,1.5226,0,0,0,.07-.4687Z"/><path d="M255.9745,61.7129h.8769v7.0742h-.8769Z"/><path d="M258.8138,66.5352a1.5451,1.5451,0,0,0,1.6541,1.6738,3.17,3.17,0,0,0,1.3352-.249l.1494.6279a3.9041,3.9041,0,0,1-1.6042.2988,2.24,2.24,0,0,1-2.3714-2.4316,2.3415,2.3415,0,0,1,2.2617-2.6006,2.0438,2.0438,0,0,1,1.993,2.2725,3.3,3.3,0,0,1-.03.4082Zm2.5708-.628a1.2485,1.2485,0,0,0-1.2155-1.4248,1.4534,1.4534,0,0,0-1.3452,1.4248Z"/><path d="M266.3651,68.9265c-.8868,0-1.5444-.6676-1.5444-2.212,0-2.73,1.395-5.0717,3.0191-5.0717.9466,0,1.385.9765,1.385,2.4213C269.2248,67.0931,267.92,68.9265,266.3651,68.9265Zm2.2818-3.5073h-3.2383a8.4568,8.4568,0,0,0-.05.8768c0,1.4049.6775,1.7636,1.2056,1.7636C267.521,68.06,268.3779,67.3024,268.6469,65.4192Zm-3.1387-.5281h3.2084c.01-.1893.02-.4085.02-.5879,0-.9366-.3189-1.7935-1.0961-1.7935C266.7936,62.51,265.857,63.3965,265.5082,64.8911Z"/><path d="M272.6215,68.7871c.02-.3291.04-.8174.04-1.2451V61.7129h.8669v3.0293h.02a1.7967,1.7967,0,0,1,1.6441-.8877,2.1645,2.1645,0,0,1,2.0324,2.4619,2.2911,2.2911,0,0,1-2.1621,2.58,1.7174,1.7174,0,0,1-1.614-.9063h-.03l-.04.7969Zm.9067-1.9326a1.65,1.65,0,0,0,.04.3184,1.3534,1.3534,0,0,0,1.3152,1.0263c.9167,0,1.4648-.7471,1.4648-1.8535,0-.9658-.4983-1.793-1.4348-1.793a1.3976,1.3976,0,0,0-1.3352,1.0762,1.7188,1.7188,0,0,0-.05.3584Z"/><path d="M278.8182,66.5352a1.5451,1.5451,0,0,0,1.6541,1.6738,3.17,3.17,0,0,0,1.3352-.249l.1494.6279a3.9041,3.9041,0,0,1-1.6042.2988,2.24,2.24,0,0,1-2.3714-2.4316,2.3415,2.3415,0,0,1,2.2617-2.6006,2.0438,2.0438,0,0,1,1.993,2.2725,3.3,3.3,0,0,1-.03.4082Zm2.5708-.628a1.2485,1.2485,0,0,0-1.2155-1.4248,1.4535,1.4535,0,0,0-1.3453,1.4248Z"/><path d="M284.3771,62.5791v1.3857h1.2556v.667h-1.2556v2.6006c0,.5977.1694.9365.6577.9365a1.9362,1.9362,0,0,0,.508-.0595l.04.6582a2.1588,2.1588,0,0,1-.7774.1191,1.218,1.218,0,0,1-.9465-.3681,1.79,1.79,0,0,1-.3386-1.2559V64.6318h-.7473v-.667h.7473V62.8086Z"/><path d="M286.9674,63.9648l.6377,2.4512c.1394.5381.269,1.0361.3586,1.5342h.03c.11-.4883.2691-1.0068.4285-1.5244l.7874-2.461h.7373l.7473,2.4112c.1792.5781.3188,1.0859.4284,1.5742h.03a14.5049,14.5049,0,0,1,.3687-1.5645l.6875-2.4209h.8669l-1.5544,4.8223h-.7971l-.7373-2.3017a16.0892,16.0892,0,0,1-.4285-1.584h-.02a14.2218,14.2218,0,0,1-.4383,1.5937l-.7773,2.292h-.7971l-1.4546-4.8223Z"/><path d="M294.39,66.5352a1.5451,1.5451,0,0,0,1.6541,1.6738,3.17,3.17,0,0,0,1.3352-.249l.1494.6279a3.9041,3.9041,0,0,1-1.6042.2988,2.24,2.24,0,0,1-2.3714-2.4316,2.3415,2.3415,0,0,1,2.2617-2.6006,2.0438,2.0438,0,0,1,1.993,2.2725,3.3,3.3,0,0,1-.03.4082Zm2.5708-.628a1.2485,1.2485,0,0,0-1.2155-1.4248A1.4535,1.4535,0,0,0,294.4,65.9072Z"/><path d="M299.3807,66.5352a1.5451,1.5451,0,0,0,1.6541,1.6738,3.17,3.17,0,0,0,1.3352-.249l.1494.6279a3.9041,3.9041,0,0,1-1.6042.2988,2.24,2.24,0,0,1-2.3714-2.4316,2.3415,2.3415,0,0,1,2.2617-2.6006,2.0438,2.0438,0,0,1,1.993,2.2725,3.3,3.3,0,0,1-.03.4082Zm2.5708-.628a1.2485,1.2485,0,0,0-1.2155-1.4248,1.4535,1.4535,0,0,0-1.3453,1.4248Z"/><path d="M303.8837,65.2695c0-.498-.01-.9062-.04-1.3047h.7771l.05.7969h.02a1.7745,1.7745,0,0,1,1.5942-.9072c.6678,0,1.7039.3994,1.7039,2.0527v2.88h-.8767v-2.78c0-.7773-.2891-1.4248-1.116-1.4248a1.2867,1.2867,0,0,0-1.2356,1.3057v2.8994h-.8769Z"/><path d="M313.27,65.6284v.05c.3587.2491.558.7573,1.3751,2.3017a.8753.8753,0,0,0,.9167.5082l-.06.2989h-1.5146c-.7472-1.6441-.9565-2.0625-1.2654-2.67-.1494-.279-.279-.3388-.6377-.3388h-.2092l-.3687,1.7736c-.1693.827-.06.9366.7971.9366l-.05.2989h-2.75l.06-.2989c.7374,0,.8868-.1,1.0562-.9366l.8769-4.2746c.11-.548.05-.7373-.7473-.7373l.06-.2989H313.15c1.3949,0,2.212.4085,2.212,1.375C315.3623,65.0206,314.1367,65.479,313.27,65.6284Zm-1.3252-.2192.3089.01c1.1957-.04,2.1224-.4883,2.1224-1.7637,0-.538-.299-1.0262-1.2854-1.0262a5.3971,5.3971,0,0,0-.5879.03Z"/><path d="M321.4486,68.7871l-.07-.6074h-.03a1.7977,1.7977,0,0,1-1.4746.7168A1.374,1.374,0,0,1,318.4,67.5117c0-1.166,1.0364-1.8037,2.9-1.7939v-.1a.9938.9938,0,0,0-1.0962-1.1153,2.4079,2.4079,0,0,0-1.2554.3584l-.1992-.5781a2.9956,2.9956,0,0,1,1.5842-.4287c1.4747,0,1.8335,1.0068,1.8335,1.9736v1.8028a6.793,6.793,0,0,0,.08,1.1562Zm-.1294-2.4609c-.9565-.02-2.0427.1494-2.0427,1.0859a.7756.7756,0,0,0,.8269.8369,1.2,1.2,0,0,0,1.1658-.8066.9147.9147,0,0,0,.05-.2793Z"/><path d="M323.58,65.2695c0-.498-.01-.9062-.04-1.3047h.7771l.05.7969h.02a1.7746,1.7746,0,0,1,1.5943-.9072c.6677,0,1.7038.3994,1.7038,2.0527v2.88h-.8767v-2.78c0-.7773-.289-1.4248-1.116-1.4248a1.2867,1.2867,0,0,0-1.2355,1.3057v2.8994h-.877Z"/><path d="M333.2743,61.7129V67.542c0,.4277.01.916.04,1.2451h-.7871l-.04-.8369h-.02a1.7838,1.7838,0,0,1-1.6441.9463,2.1985,2.1985,0,0,1-2.0625-2.4512,2.3073,2.3073,0,0,1,2.1621-2.5908,1.6147,1.6147,0,0,1,1.4549.7373h.02V61.7129Zm-.877,4.2148a1.5357,1.5357,0,0,0-.04-.3691,1.29,1.29,0,0,0-1.2653-1.0166c-.9068,0-1.4449.7978-1.4449,1.8633,0,.9765.4783,1.7842,1.4248,1.7842a1.3182,1.3182,0,0,0,1.2854-1.0469,1.5054,1.5054,0,0,0,.04-.378Z"/><path d="M338.1256,62.5791v1.3857h1.2556v.667h-1.2556v2.6006c0,.5977.1694.9365.6577.9365a1.937,1.937,0,0,0,.5081-.0595l.04.6582a2.1586,2.1586,0,0,1-.7773.1191,1.2182,1.2182,0,0,1-.9466-.3681,1.79,1.79,0,0,1-.3386-1.2559V64.6318h-.7473v-.667h.7473V62.8086Z"/><path d="M340.3671,61.7129h.8769v3.0088h.02a1.6274,1.6274,0,0,1,.6279-.6172,1.7957,1.7957,0,0,1,.8968-.25c.6477,0,1.6838.3994,1.6838,2.0635v2.8691h-.8767V66.0176c0-.7774-.2891-1.4356-1.116-1.4356a1.26,1.26,0,0,0-1.1758.877,1.0641,1.0641,0,0,0-.06.4189v2.9092h-.8769Z"/><path d="M346.3844,66.5352a1.545,1.545,0,0,0,1.6541,1.6738,3.17,3.17,0,0,0,1.3352-.249l.1494.6279a3.9047,3.9047,0,0,1-1.6043.2988,2.24,2.24,0,0,1-2.3713-2.4316,2.3415,2.3415,0,0,1,2.2617-2.6006,2.0437,2.0437,0,0,1,1.9929,2.2725,3.3036,3.3036,0,0,1-.03.4082Zm2.5708-.628a1.2485,1.2485,0,0,0-1.2156-1.4248,1.4534,1.4534,0,0,0-1.3452,1.4248Z"/><path d="M353.2286,61.7129h.877v3.0088h.02a1.6274,1.6274,0,0,1,.6279-.6172,1.7953,1.7953,0,0,1,.8967-.25c.6477,0,1.6839.3994,1.6839,2.0635v2.8691h-.8767V66.0176c0-.7774-.2891-1.4356-1.116-1.4356a1.26,1.26,0,0,0-1.1758.877,1.0641,1.0641,0,0,0-.06.4189v2.9092h-.877Z"/><path d="M363.1219,66.3359a2.357,2.357,0,0,1-2.4013,2.5606,2.2923,2.2923,0,0,1-2.3115-2.4805A2.3554,2.3554,0,0,1,360.8,63.8545,2.284,2.284,0,0,1,363.1219,66.3359Zm-3.8261.05c0,1.0567.6079,1.8536,1.4648,1.8536.8369,0,1.4646-.7872,1.4646-1.8731,0-.8174-.4084-1.8535-1.4448-1.8535S359.2958,65.4688,359.2958,66.3857Z"/><path d="M364.2272,65.4688c0-.5674-.01-1.0557-.04-1.504h.7673l.03.9463h.04a1.4477,1.4477,0,0,1,1.3352-1.0566.9644.9644,0,0,1,.2493.03v.8271a1.3431,1.3431,0,0,0-.2991-.03,1.2305,1.2305,0,0,0-1.1758,1.126,2.4974,2.4974,0,0,0-.04.4092v2.57h-.8669Z"/><path d="M368.4615,62.6094a.5431.5431,0,0,1-1.0861,0,.5344.5344,0,0,1,.5481-.5479A.52.52,0,0,1,368.4615,62.6094Zm-.9765,6.1777V63.9648h.8769v4.8223Z"/><path d="M369.2684,68.2793l2.1822-2.84c.2092-.26.4084-.4883.6276-.7471v-.0205h-2.6105v-.7071h3.6767l-.01.5479-2.1523,2.8c-.1993.2686-.3985.5078-.6177.7568v.02h2.82v.6973h-3.9158Z"/><path d="M378.4445,66.3359a2.3571,2.3571,0,0,1-2.4014,2.5606,2.2923,2.2923,0,0,1-2.3115-2.4805,2.3554,2.3554,0,0,1,2.3913-2.5615A2.2841,2.2841,0,0,1,378.4445,66.3359Zm-3.8262.05c0,1.0567.6079,1.8536,1.4648,1.8536.8369,0,1.4646-.7872,1.4646-1.8731,0-.8174-.4084-1.8535-1.4448-1.8535S374.6183,65.4688,374.6183,66.3857Z"/><path d="M379.55,65.2695c0-.498-.01-.9062-.04-1.3047h.7771l.05.7969h.02a1.7745,1.7745,0,0,1,1.5942-.9072c.6678,0,1.7039.3994,1.7039,2.0527v2.88h-.8767v-2.78c0-.7773-.2891-1.4248-1.116-1.4248a1.2871,1.2871,0,0,0-1.2356,1.3057v2.8994H379.55Z"/><path d="M386.1349,62.5791v1.3857h1.2556v.667h-1.2556v2.6006c0,.5977.1694.9365.6577.9365a1.937,1.937,0,0,0,.5081-.0595l.04.6582a2.1586,2.1586,0,0,1-.7773.1191,1.2181,1.2181,0,0,1-.9466-.3681,1.79,1.79,0,0,1-.3386-1.2559V64.6318h-.7473v-.667h.7473V62.8086Z"/><path d="M391.0468,68.7871l-.07-.6074h-.03a1.7977,1.7977,0,0,1-1.4746.7168,1.374,1.374,0,0,1-1.4748-1.3848c0-1.166,1.0364-1.8037,2.9-1.7939v-.1a.9938.9938,0,0,0-1.0962-1.1153,2.4073,2.4073,0,0,0-1.2553.3584l-.1992-.5781a2.995,2.995,0,0,1,1.5842-.4287c1.4746,0,1.8335,1.0068,1.8335,1.9736v1.8028a6.793,6.793,0,0,0,.08,1.1562Zm-.1294-2.4609c-.9566-.02-2.0428.1494-2.0428,1.0859a.7756.7756,0,0,0,.8269.8369,1.2,1.2,0,0,0,1.1658-.8066.9148.9148,0,0,0,.05-.2793Z"/><path d="M393.1783,61.7129h.877v7.0742h-.877Z"/><path d="M395.32,64.7617a.5939.5939,0,1,1,1.1858,0,.5934.5934,0,1,1-1.1858,0Zm0,3.5176a.5939.5939,0,1,1,1.1858,0,.5934.5934,0,1,1-1.1858,0Z"/><path d="M296.3175,98.5811v1.3857h1.2556v.667h-1.2556v2.6006c0,.5976.1694.9365.6577.9365a1.9318,1.9318,0,0,0,.5081-.06l.04.6582a2.156,2.156,0,0,1-.7773.1192,1.2179,1.2179,0,0,1-.9466-.3682,1.79,1.79,0,0,1-.3386-1.2559v-2.6308h-.7473v-.667h.7473V98.8105Z"/><path d="M301.2294,104.7891l-.07-.6075h-.03a1.7976,1.7976,0,0,1-1.4746.7168,1.374,1.374,0,0,1-1.4749-1.3847c0-1.166,1.0364-1.8037,2.9-1.794v-.1a.9938.9938,0,0,0-1.0962-1.1152,2.4067,2.4067,0,0,0-1.2554.3584l-.1992-.5781a2.9951,2.9951,0,0,1,1.5842-.4288c1.4746,0,1.8335,1.0069,1.8335,1.9737v1.8027a6.7935,6.7935,0,0,0,.08,1.1563Zm-.1294-2.461c-.9566-.0205-2.0427.1494-2.0427,1.086a.7756.7756,0,0,0,.8269.8369,1.2,1.2,0,0,0,1.1657-.8067.9108.9108,0,0,0,.05-.2793Z"/><path d="M303.361,101.2715c0-.4981-.01-.9063-.04-1.3047h.7771l.05.7969h.02a1.7745,1.7745,0,0,1,1.5942-.9073c.6678,0,1.7039.4,1.7039,2.0528v2.88H306.59v-2.78c0-.7774-.2891-1.4248-1.116-1.4248a1.2866,1.2866,0,0,0-1.2356,1.3056v2.9h-.8769Z"/><path d="M311.7462,104.9285c-.8868,0-1.5445-.6676-1.5445-2.212,0-2.73,1.395-5.0717,3.0191-5.0717.9466,0,1.385.9765,1.385,2.4213C314.6058,103.0951,313.3005,104.9285,311.7462,104.9285Zm2.2817-3.5073H310.79a8.4568,8.4568,0,0,0-.05.8768c0,1.4049.6776,1.7636,1.2056,1.7636C312.902,104.0616,313.7589,103.3044,314.0279,101.4212Zm-3.1386-.5281h3.2084c.01-.1893.02-.4085.02-.5879,0-.9366-.3189-1.7935-1.0961-1.7935C312.1746,98.5117,311.238,99.3985,310.8893,100.8931Zm7.7609.6377v-.6776h5.9386v.6776Zm0,2.0326v-.6676h5.9386v.6676Z"/><path d="M334.9147,84.7705h-.0139l-.7881.4258-.1187-.4678.99-.5293h.5231v4.5322h-.5927Z"/><path d="M339.8658,84.7148h-1.7294l-.1744,1.1641a2.4672,2.4672,0,0,1,.37-.0273,1.91,1.91,0,0,1,.9763.2441,1.292,1.292,0,0,1,.6484,1.1641,1.573,1.573,0,0,1-1.6875,1.5488,2.2163,2.2163,0,0,1-1.13-.2793l.1533-.4668a2.0327,2.0327,0,0,0,.9692.251,1,1,0,0,0,1.074-.9834c-.0071-.586-.3974-1.0049-1.3039-1.0049a4.7631,4.7631,0,0,0-.6277.0488l.2929-2.1748h2.1687Z"/><line class="cls-5" x1="333.269" y1="91.989" x2="340.32" y2="91.989"/><path d="M335.2806,100.3857v-.3769l.4812-.4668c1.1575-1.1016,1.6807-1.6875,1.6875-2.3711a.8087.8087,0,0,0-.8994-.8857,1.5472,1.5472,0,0,0-.9624.3837l-.1953-.4326a1.9917,1.9917,0,0,1,1.2832-.46,1.2757,1.2757,0,0,1,1.3877,1.3183c0,.8369-.6067,1.5127-1.562,2.4336l-.3626.334v.0147h2.0362v.5087Z"/><line class="cls-5" x1="329.176" y1="102.219" x2="344.413" y2="102.219"/><path d="M333.5306,108.7324v-.3769l.4812-.4668c1.1575-1.1016,1.6807-1.6875,1.6875-2.3711a.8088.8088,0,0,0-.8994-.8858,1.5473,1.5473,0,0,0-.9624.3838l-.1953-.4326a1.9918,1.9918,0,0,1,1.2832-.46,1.2757,1.2757,0,0,1,1.3877,1.3184c0,.8359-.6067,1.5127-1.562,2.4336l-.3626.334v.0146h2.0362v.5088Z"/><path d="M339.8138,104.7158h-1.7294L337.91,105.88a2.4651,2.4651,0,0,1,.37-.0274,1.91,1.91,0,0,1,.9763.2442,1.2918,1.2918,0,0,1,.6484,1.164,1.573,1.573,0,0,1-1.6875,1.5489,2.2163,2.2163,0,0,1-1.13-.2793l.1533-.4678a2.02,2.02,0,0,0,.9692.252,1,1,0,0,0,1.074-.9834c-.0071-.586-.3974-1.0049-1.3039-1.0049a4.7587,4.7587,0,0,0-.6277.0488l.2929-2.1748h2.1687Z"/><line class="cls-5" x1="330.371" y1="111.989" x2="343.217" y2="111.989"/><path d="M330.6847,120.4463v-.377l.4812-.4668c1.1577-1.1015,1.6807-1.6875,1.6875-2.3711a.8088.8088,0,0,0-.8994-.8857,1.5465,1.5465,0,0,0-.9624.3838l-.1953-.4326a1.9908,1.9908,0,0,1,1.2832-.46,1.2757,1.2757,0,0,1,1.3877,1.3184c0,.8369-.6067,1.5127-1.562,2.4336l-.3628.334v.0146h2.0363v.5088Z"/><path d="M336.46,120.5713h-.4463l-1.1086-2.9844-.523.2236-.1326-.3281.9624-.4043.8577,2.4131a3.1609,3.1609,0,0,1,.1323.4463h.0142c.0208-.1191.0557-.3.0906-.4541l1.2971-5.3408h.46Z"/><line class="cls-6" x1="339.563" y1="113.716" x2="343.217" y2="113.716"/><path d="M340.0231,119.7422a2.0537,2.0537,0,0,0,1.0041.2861c.7881,0,1.032-.5029,1.0252-.8789-.0071-.6348-.5789-.9062-1.1717-.9062h-.3415v-.461h.3415c.4463,0,1.0113-.23,1.0113-.7666,0-.3633-.23-.6836-.795-.6836a1.6623,1.6623,0,0,0-.9064.3l-.16-.4463a2.1583,2.1583,0,0,1,1.1853-.3486c.8925,0,1.2971.53,1.2971,1.0811a1.1255,1.1255,0,0,1-.8369,1.0664v.0146a1.18,1.18,0,0,1,1.0112,1.1641c0,.7256-.565,1.36-1.6526,1.36a2.3031,2.3031,0,0,1-1.1785-.3076Z"/><path d="M348.7733,101.4316v-.5986h5.1416v.5986Zm0,1.9522v-.5977h5.1416v.5977Z"/><path d="M361.8624,92.72h-.02l-1.126.6074-.1692-.6679,1.4148-.7569h.7474v6.4766h-.847Z"/><path d="M368.9359,92.64h-2.4712l-.249,1.6641a3.5168,3.5168,0,0,1,.5281-.04,2.7359,2.7359,0,0,1,1.395.3486,1.846,1.846,0,0,1,.9265,1.6641,2.2466,2.2466,0,0,1-2.4111,2.2119A3.1708,3.1708,0,0,1,365.04,98.09l.2193-.6679a2.8916,2.8916,0,0,0,1.385.3594,1.4291,1.4291,0,0,0,1.5344-1.4053c-.01-.8369-.5679-1.4346-1.8633-1.4346a6.8088,6.8088,0,0,0-.8967.0693l.4184-3.1084h3.0989Z"/><path d="M372.8514,98.6924h-.6377l-1.5844-4.2647-.7473.3194-.1893-.4688,1.375-.5771,1.2256,3.4472a4.5306,4.5306,0,0,1,.19.6377h.02c.03-.17.08-.4287.13-.6474l1.8533-7.6328h.6574Z"/><line class="cls-5" x1="377.284" y1="88.899" x2="382.216" y2="88.899"/><path d="M377.9418,97.3721a2.9221,2.9221,0,0,0,1.4348.4092c1.1257,0,1.4746-.7178,1.4646-1.2559-.01-.9063-.8269-1.2949-1.6738-1.2949h-.4883v-.6582h.4883c.6377,0,1.4445-.3282,1.4445-1.0957,0-.5176-.3286-.9766-1.1357-.9766a2.3793,2.3793,0,0,0-1.2954.4287l-.2293-.6377a3.0807,3.0807,0,0,1,1.6941-.498c1.2754,0,1.8533.7568,1.8533,1.5439a1.608,1.608,0,0,1-1.1958,1.5244v.02a1.6867,1.6867,0,0,1,1.4448,1.6641c0,1.0361-.8071,1.9424-2.3615,1.9424a3.2849,3.2849,0,0,1-1.6839-.4385Z"/><line class="cls-5" x1="359.511" y1="102.219" x2="382.216" y2="102.219"/><path d="M366.3805,111.165v-.538l.6875-.668c1.654-1.5742,2.4011-2.4111,2.4111-3.3877a1.1551,1.1551,0,0,0-1.2854-1.2647,2.2064,2.2064,0,0,0-1.375.5479l-.2788-.6182a2.84,2.84,0,0,1,1.8333-.6572,1.8221,1.8221,0,0,1,1.9829,1.8828c0,1.1963-.867,2.1621-2.232,3.4776l-.5183.4785v.0195h2.91v.7275Z"/><path d="M375.3571,105.4258h-2.4712l-.2491,1.664a3.518,3.518,0,0,1,.5281-.04,2.7366,2.7366,0,0,1,1.395.3486,1.8461,1.8461,0,0,1,.9266,1.6641,2.2467,2.2467,0,0,1-2.4112,2.2119,3.1712,3.1712,0,0,1-1.6142-.3984l.2192-.667a2.903,2.903,0,0,0,1.385.3584,1.4291,1.4291,0,0,0,1.5344-1.4053c-.01-.8369-.5678-1.4346-1.8632-1.4346a6.8111,6.8111,0,0,0-.8968.0694l.4185-3.1084h3.0989Z"/><rect class="cls-3" x="314.52" y="130.437" width="48.906" height="17.363"/><path d="M321.3952,142.8185c-.8868,0-1.5444-.6676-1.5444-2.212,0-2.73,1.3949-5.0717,3.019-5.0717.9466,0,1.385.9765,1.385,2.4213C324.2548,140.9851,322.95,142.8185,321.3952,142.8185Zm2.2817-3.5073h-3.2383a8.4846,8.4846,0,0,0-.05.8768c0,1.4049.6775,1.7636,1.2057,1.7636C322.551,141.9516,323.4079,141.1944,323.6769,139.3112Zm-3.1386-.5281h3.2084c.01-.1893.02-.4086.02-.5879,0-.9366-.3188-1.7935-1.096-1.7935C321.8236,136.4017,320.887,137.2885,320.5383,138.7831Zm7.761.6377v-.6776h5.9385v.6776Zm0,2.0326v-.6676h5.9385v.6676Zm13.1013-.3487v1.5743h-.8868v-1.5743h-2.76v-.6277l3.0391-4.2248h.6078v4.165h1.0163v.6875Zm-.8868-3.7664h-.04l-2.1721,3.039v.04h2.212Zm6.1968-.8071a3.1914,3.1914,0,0,0-2.76,2.64l.07.01a1.7611,1.7611,0,0,1,1.2953-.6177c1.0861,0,1.7935.7871,1.7935,2.0924a1.8792,1.8792,0,0,1-1.9728,2.1423c-1.4847,0-2.1324-1.2156-2.1324-2.68a3.6206,3.6206,0,0,1,3.6867-3.8759Zm-1.6938,2.6106a1.0545,1.0545,0,0,0-1.116,1.1857c0,1.2355.4085,2.1223,1.2754,2.1223.6676,0,1.0661-.4484,1.0661-1.7138C346.2423,139.8393,345.8438,139.1418,345.0168,139.1418Z"/><path d="M347.3419,134.2119h3.4866v4.8809h-3.4866Zm.3487,4.2188,1.1855-1.7784-1.1855-1.7783Zm2.58-3.87H347.9l1.1855,1.7774Zm0,4.1836-1.1853-1.7783L347.9,138.7441Zm.2093-.3134V134.874l-1.1856,1.7783Z"/><path d="M354.9259,136.82a3.1626,3.1626,0,0,0-.6577.0391,2.6331,2.6331,0,0,0-2.2517,2.3017h.03a1.9743,1.9743,0,0,1,3.5173,1.3457,2.1654,2.1654,0,0,1-2.1521,2.2813c-1.385,0-2.2917-1.0762-2.2917-2.76a4.0732,4.0732,0,0,1,1.0959-2.92,3.53,3.53,0,0,1,2.0725-.9561,4.19,4.19,0,0,1,.6377-.05Zm-.249,3.7363a1.3165,1.3165,0,0,0-1.3352-1.4853,1.4431,1.4431,0,0,0-1.2556.7978.7468.7468,0,0,0-.1.3887c.02,1.0654.5083,1.8526,1.425,1.8526C354.1686,142.11,354.6769,141.4834,354.6769,140.5566Z"/><path d="M355.5629,134.2119h3.4865v4.8809h-3.4865Zm.3486,4.2188,1.1855-1.7784-1.1855-1.7783Zm2.58-3.87h-2.3709l1.1856,1.7774Zm0,4.1836-1.1853-1.7783-1.1856,1.7783Zm.2092-.3134V134.874l-1.1853,1.7783Z"/><line class="cls-7" x1="314.122" y1="130.237" x2="363.825" y2="130.237"/><line class="cls-7" x1="314.321" y1="147.999" x2="314.321" y2="130.237"/><line class="cls-7" x1="363.625" y1="147.999" x2="363.625" y2="130.237"/><line class="cls-7" x1="314.122" y1="147.999" x2="363.825" y2="147.999"/><g class="cls-9"><polyline class="cls-10" points="151.243 166.469 151.243 226.083 210.857 226.083"/><polygon points="151.243 164.345 150.108 167.352 151.243 166.36 152.378 167.352 151.243 164.345"/><polygon class="cls-10" points="151.243 164.345 150.108 167.352 151.243 166.36 152.378 167.352 151.243 164.345"/><polygon points="212.982 226.083 209.974 224.948 210.967 226.083 209.974 227.218 212.982 226.083"/><polygon class="cls-10" points="212.982 226.083 209.974 224.948 210.967 226.083 209.974 227.218 212.982 226.083"/><polyline class="cls-10" points="151.243 222.653 154.673 222.653 154.673 226.083"/><path d="M125.2873,181.0779h-1.0425l-.9252-1.943c-.0617.0062-.13.0123-.1789.0123a1.5146,1.5146,0,0,1-.2344-.0246l-.3825,1.4742a.5619.5619,0,0,0-.0185.1419c0,.148.1111.2406.4688.2406h.1172l-.0246.0986H121.062l.0246-.0986h.0987c.4688,0,.5922-.1728.6477-.3825l.7649-3.0657a.6844.6844,0,0,0,.0308-.1542c0-.13-.1049-.2282-.475-.2282H122.03l.0247-.0987h1.6716c.9869,0,1.3324.4071,1.3324.9314,0,.512-.438.9253-1.098,1.0548l.7093,1.4126a.7826.7826,0,0,0,.6292.53Zm-2.3255-2.1774a.8569.8569,0,0,0,.1974.0247c.82,0,1.1781-.3578,1.1781-.8759,0-.6662-.3824-.7711-.771-.7711a1.0623,1.0623,0,0,0-.21.0185Z"/><path d="M128.65,179.8712a.7684.7684,0,0,0-.5694.3322l-1.9023,2.4847h-.1035V180.225c0-.25-.1639-.3538-.4271-.3538l.0173-.069h1.2682l-.0173.069h-.0819c-.28,0-.302.16-.302.302V181.86l.0173.0044,1.2078-1.5788a.6468.6468,0,0,0,.1639-.3193c0-.0647-.06-.0949-.2243-.0949H127.61l.0173-.069h1.04Z"/><path d="M131.0736,179.001v-.37h3.1809v.37Zm0,1.208v-.37h3.1809v.37Z"/><path d="M138.8749,174h-.0122l-.6968.377-.1047-.4131.8752-.4688h.4624v4.0069h-.5239Z"/><path d="M143.2516,173.9512h-1.5288l-.1541,1.0293a2.2332,2.2332,0,0,1,.3267-.0244,1.6878,1.6878,0,0,1,.863.2158,1.1412,1.1412,0,0,1,.5735,1.0293,1.39,1.39,0,0,1-1.4919,1.3681,1.9642,1.9642,0,0,1-.9988-.2461l.1357-.413a1.7955,1.7955,0,0,0,.857.2216.884.884,0,0,0,.9492-.8691c-.0061-.5176-.3513-.8877-1.1529-.8877a4.1279,4.1279,0,0,0-.5546.043l.2588-1.9229h1.9172Z"/><line class="cls-11" x1="137.42" y1="179.5368" x2="143.5844" y2="179.5368"/><path d="M139.2384,185.3926v-.333l.4255-.4131c1.0232-.9736,1.4856-1.4912,1.4917-2.0957a.7149.7149,0,0,0-.7951-.7832,1.37,1.37,0,0,0-.8509.3388l-.1726-.3818a1.7586,1.7586,0,0,1,1.1343-.4072,1.1274,1.1274,0,0,1,1.2268,1.165c0,.74-.5364,1.3379-1.3808,2.1524l-.3206.2959v.0117h1.8v.45Z"/><path d="M187.5555,241.6588h-1.0424l-.9253-1.943c-.0617.0061-.1295.0123-.1789.0123a1.5052,1.5052,0,0,1-.2344-.0247l-.3824,1.4743a.5611.5611,0,0,0-.0185.1418c0,.1481.111.2406.4688.2406h.1172l-.0247.0987H183.33l.0247-.0987h.0987c.4688,0,.5921-.1727.6477-.3824l.7648-3.0657a.6813.6813,0,0,0,.0309-.1542c0-.13-.1049-.2283-.475-.2283h-.1234l.0247-.0986h1.6716c.987,0,1.3324.4071,1.3324.9314,0,.5119-.438.9252-1.098,1.0548l.7094,1.4125a.7822.7822,0,0,0,.6292.5305Zm-2.3254-2.1774a.8547.8547,0,0,0,.1973.0246c.82,0,1.1782-.3577,1.1782-.8759,0-.6662-.3824-.771-.771-.771a1.0565,1.0565,0,0,0-.21.0185Z"/><path d="M191.6212,240.4521h-.0776c-.3279,0-.4185.1208-.4573.2718l-.5306,2.14a.5465.5465,0,0,0-.0172.1208c0,.0906.0819.1467.3364.1467h.082l-.0172.069H189.52l.0173-.069h.0777c.3105,0,.4141-.1079.4529-.2675l.2631-1.0439h-1.2078l-.2631,1.0439a.3682.3682,0,0,0-.0173.1036c0,.1035.0777.1639.3322.1639h.0862l-.0172.069h-1.4235l.0172-.069h.0777c.3235,0,.4227-.1208.4572-.2675l.5306-2.14a.4017.4017,0,0,0,.0173-.1036c0-.0906-.0691-.1682-.3365-.1682h-.0863l.0173-.069h1.4235l-.0173.069h-.0776c-.3408,0-.4184.1208-.4529.2718l-.2244.936h1.1992l.2287-.936a.5737.5737,0,0,0,.0172-.1036c0-.1035-.082-.1682-.3278-.1682h-.0863l.0173-.069h1.4235Z"/><path d="M194.0453,239.5811v-.37h3.1809v.37Zm0,1.208v-.37h3.1809v.37Z"/><path d="M203.5289,238.083v-.333l.4256-.4131c1.0232-.9736,1.4856-1.4912,1.4917-2.0957a.7149.7149,0,0,0-.7952-.7832,1.3693,1.3693,0,0,0-.8508.3389l-.1726-.3819a1.7588,1.7588,0,0,1,1.1342-.4072,1.1277,1.1277,0,0,1,1.2268,1.166c0,.7393-.5363,1.3369-1.3808,2.1514l-.3206.2959v.0117h1.8v.45Z"/><path d="M209.0831,234.5322h-1.5288l-.154,1.0293a2.2316,2.2316,0,0,1,.3266-.0244,1.6889,1.6889,0,0,1,.8631.2158,1.1415,1.1415,0,0,1,.5735,1.0293,1.39,1.39,0,0,1-1.492,1.3682,1.9658,1.9658,0,0,1-.9988-.2461l.1358-.4131a1.795,1.795,0,0,0,.8569.2217.884.884,0,0,0,.9492-.8691c-.0061-.5176-.3513-.8877-1.1528-.8877a4.15,4.15,0,0,0-.5547.0429l.2588-1.9228h1.9172Z"/><line class="cls-11" x1="200.3911" y1="240.1177" x2="212.276" y2="240.1177"/><path d="M200.6686,248.3066v-.333l.4255-.4131c1.0232-.9736,1.4856-1.4912,1.4917-2.0957a.7149.7149,0,0,0-.7952-.7832,1.37,1.37,0,0,0-.8508.3389l-.1726-.3818a1.7584,1.7584,0,0,1,1.1343-.4073,1.1275,1.1275,0,0,1,1.2268,1.1651c0,.74-.5364,1.3379-1.3809,2.1523l-.3205.2959v.0117h1.8v.45Z"/><path d="M205.6246,242.9414H205.23l-.98-2.6387-.4622.1973-.1172-.29.8509-.3575.758,2.1329a2.8241,2.8241,0,0,1,.1172.3945h.0125c.0183-.1045.0493-.2647.08-.4l1.1465-4.7217h.407Z"/><line class="cls-11" x1="209.1938" y1="242.1516" x2="212.276" y2="242.1516"/><path d="M209.6005,247.6836a1.8142,1.8142,0,0,0,.8877.2529c.6967,0,.9126-.4433.9062-.7763-.0061-.5616-.5117-.8018-1.0356-.8018h-.302v-.4063h.302c.3945,0,.894-.2041.894-.6787,0-.32-.2036-.6035-.7029-.6035a1.4746,1.4746,0,0,0-.8015.2647l-.1416-.3946a1.9029,1.9029,0,0,1,1.0479-.3086c.789,0,1.1467.4688,1.1467.9561a.9952.9952,0,0,1-.74.9434v.0117a1.0438,1.0438,0,0,1,.8938,1.0293c0,.6416-.4992,1.2021-1.4609,1.2021a2.0434,2.0434,0,0,1-1.042-.27Z"/><polyline class="cls-12" points="151.243 171.147 151.243 226.083 206.18 226.083"/><polygon class="cls-13" points="151.243 169.022 150.108 172.03 151.243 171.037 152.378 172.03 151.243 169.022"/><polygon class="cls-12" points="151.243 169.022 150.108 172.03 151.243 171.037 152.378 172.03 151.243 169.022"/><polygon class="cls-13" points="208.305 226.083 205.297 224.948 206.289 226.083 205.297 227.218 208.305 226.083"/><polygon class="cls-12" points="208.305 226.083 205.297 224.948 206.289 226.083 205.297 227.218 208.305 226.083"/><line class="cls-14" x1="229.1968" y1="202.6972" x2="240.3031" y2="202.6972"/><line class="cls-15" x1="229.1968" y1="202.6972" x2="240.3031" y2="202.6972"/><polygon points="243.9 202.697 238.771 200.764 240.459 202.697 238.771 204.631 243.9 202.697"/><polygon class="cls-16" points="243.9 202.697 238.771 200.764 240.459 202.697 238.771 204.631 243.9 202.697"/><polygon class="cls-10" points="322.741 226.083 260.378 226.083 322.741 163.72 322.741 226.083"/><polyline class="cls-10" points="319.311 226.083 319.311 222.653 322.741 222.653"/><path class="cls-10" d="M271.2918,226.0833a10.9154,10.9154,0,0,0-3.1964-7.717"/><path d="M275.9854,221.496c-.586,0-.8451-.3639-.8451-1.1041,0-1.0733.7155-3.0842,1.8875-3.0842.45,0,.79.3886.79,1.209C277.8174,219.7257,276.9353,221.496,275.9854,221.496Zm-.1728-1.9677a3.7059,3.7059,0,0,0-.1542,1.0178c0,.4256.0926.771.3578.771.4133,0,.7834-.808.9746-1.4187.0432-.1419.08-.3146.0987-.37Zm1.3324-.2221a5.42,5.42,0,0,0,.1542-1.0239c0-.45-.0617-.7957-.3146-.7957-.4441,0-.95,1.0856-1.11,1.82Z"/><path d="M319.9342,238.083v-.333l.4255-.4131c1.0232-.9736,1.4856-1.4912,1.4917-2.0957a.7149.7149,0,0,0-.7951-.7832,1.37,1.37,0,0,0-.8509.3389l-.1726-.3819a1.7591,1.7591,0,0,1,1.1343-.4072,1.1277,1.1277,0,0,1,1.2268,1.166c0,.7393-.5364,1.3369-1.3808,2.1514l-.3206.2959v.0117h1.8v.45Z"/><path d="M325.4884,234.5322H323.96l-.1541,1.0293a2.2344,2.2344,0,0,1,.3267-.0244,1.6883,1.6883,0,0,1,.863.2158,1.1413,1.1413,0,0,1,.5735,1.0293,1.39,1.39,0,0,1-1.4919,1.3682,1.9656,1.9656,0,0,1-.9988-.2461l.1357-.4131a1.7954,1.7954,0,0,0,.857.2217.884.884,0,0,0,.9492-.8691c-.0061-.5176-.3513-.8877-1.1528-.8877a4.147,4.147,0,0,0-.5547.0429l.2588-1.9228h1.9172Z"/><line class="cls-11" x1="316.7964" y1="240.1177" x2="328.6813" y2="240.1177"/><path d="M317.0739,248.3066v-.333l.4255-.4131c1.0232-.9736,1.4856-1.4912,1.4917-2.0957a.7149.7149,0,0,0-.7952-.7832,1.37,1.37,0,0,0-.8508.3389l-.1726-.3818a1.7584,1.7584,0,0,1,1.1343-.4073,1.1275,1.1275,0,0,1,1.2268,1.1651c0,.74-.5364,1.3379-1.3809,2.1523l-.32.2959v.0117h1.8v.45Z"/><path d="M322.03,242.9414h-.3945l-.98-2.6387-.4622.1973-.1172-.29.8508-.3575.7581,2.1329a2.8241,2.8241,0,0,1,.1172.3945h.0124c.0183-.1045.0493-.2647.08-.4l1.1465-4.7217h.407Z"/><line class="cls-11" x1="325.5992" y1="242.1516" x2="328.6813" y2="242.1516"/><path d="M326.0057,247.6836a1.8145,1.8145,0,0,0,.8877.2529c.6968,0,.9126-.4433.9063-.7763-.0061-.5616-.5117-.8018-1.0357-.8018h-.302v-.4063h.302c.3946,0,.8941-.2041.8941-.6787,0-.32-.2036-.6035-.7029-.6035a1.4741,1.4741,0,0,0-.8015.2647l-.1416-.3946a1.9026,1.9026,0,0,1,1.0478-.3086c.7891,0,1.1468.4688,1.1468.9561a.9952.9952,0,0,1-.74.9434v.0117a1.0438,1.0438,0,0,1,.8938,1.0293c0,.6416-.4992,1.2021-1.4609,1.2021a2.0434,2.0434,0,0,1-1.042-.27Z"/><path d="M327.3475,174h-.0122l-.6968.377-.1047-.4131.8753-.4688h.4624v4.0069h-.524Z"/><path d="M331.7242,173.9512h-1.5288l-.154,1.0293a2.2316,2.2316,0,0,1,.3266-.0244,1.6879,1.6879,0,0,1,.8631.2158,1.1414,1.1414,0,0,1,.5735,1.0293,1.39,1.39,0,0,1-1.492,1.3681,1.9648,1.9648,0,0,1-.9988-.2461l.1358-.413a1.7951,1.7951,0,0,0,.8569.2216.884.884,0,0,0,.9492-.8691c-.0061-.5176-.3513-.8877-1.1528-.8877a4.1309,4.1309,0,0,0-.5547.043l.2588-1.9229h1.9172Z"/><line class="cls-11" x1="325.8929" y1="179.5368" x2="332.0573" y2="179.5368"/><path d="M327.7113,185.3926v-.333l.4253-.4131c1.0234-.9736,1.4858-1.4912,1.4919-2.0957a.7149.7149,0,0,0-.7951-.7832,1.37,1.37,0,0,0-.8509.3388l-.1726-.3818a1.7575,1.7575,0,0,1,1.1343-.4072,1.1274,1.1274,0,0,1,1.2268,1.165c0,.74-.5364,1.3379-1.3808,2.1524l-.3206.2959v.0117h1.8v.45Z"/><path d="M290.6189,192.2842h-1.0424l-.9253-1.943c-.0617.0061-.13.0123-.1788.0123a1.5052,1.5052,0,0,1-.2345-.0247l-.3824,1.4743a.5611.5611,0,0,0-.0185.1418c0,.1481.111.2406.4688.2406h.1172l-.0247.0987h-2.0047l.0247-.0987h.0987c.4688,0,.5921-.1727.6476-.3824l.7649-3.0657a.6813.6813,0,0,0,.0309-.1542c0-.13-.1049-.2283-.475-.2283h-.1234l.0247-.0986h1.6716c.987,0,1.3324.4071,1.3324.9314,0,.512-.4379.9252-1.098,1.0548l.7094,1.4125a.7822.7822,0,0,0,.6292.53Zm-2.3254-2.1774a.8553.8553,0,0,0,.1973.0246c.82,0,1.1782-.3577,1.1782-.8759,0-.6662-.3824-.771-.7711-.771a1.0637,1.0637,0,0,0-.21.0185Z"/><line class="cls-12" x1="260.3784" y1="226.0833" x2="316.1203" y2="170.3415"/><polygon class="cls-13" points="317.623 168.839 314.693 170.163 316.198 170.264 316.299 171.769 317.623 168.839"/><polygon class="cls-17" points="317.623 168.839 314.693 170.163 316.198 170.264 316.299 171.769 317.623 168.839"/></g></g></svg>