<svg id="Layer_1" data-name="Layer 1" xmlns="http://www.w3.org/2000/svg" xmlns:xlink="http://www.w3.org/1999/xlink" viewBox="0 0 453.543 255.118"><defs><style>.cls-1,.cls-6{fill:none;}.cls-2{clip-path:url(#clip-path);}.cls-3{fill:#fff;}.cls-4{fill:#056db6;}.cls-5{clip-path:url(#clip-path-2);}.cls-6{stroke:#000;stroke-miterlimit:10;stroke-width:0.5579px;}</style><clipPath id="clip-path"><rect class="cls-1" width="453.543" height="255.118"/></clipPath><clipPath id="clip-path-2"><rect class="cls-1" x="192.659" y="109.8527" width="68.2255" height="64.4833"/></clipPath></defs><g class="cls-2"><rect class="cls-3" y="14.944" width="453.543" height="255.118"/><path class="cls-4" d="M16.0341,19.2244H21.24v1.0469h-3.958v3.2129h3.6573v1.0322H17.2821v4.375h-1.248Z"/><path class="cls-4" d="M24.3827,19.9989a.7813.7813,0,0,1-1.5625,0,.769.769,0,0,1,.7891-.7891A.7485.7485,0,0,1,24.3827,19.9989Zm-1.4053,8.8925V21.9491H24.24v6.9423Z"/><path class="cls-4" d="M26.3349,23.828c0-.7168-.0147-1.3047-.0576-1.8789h1.1191l.0713,1.1474h.0283a2.5542,2.5542,0,0,1,2.2949-1.3047c.961,0,2.4531.5733,2.4531,2.9541v4.1455H30.9823V24.89c0-1.1182-.416-2.0508-1.6074-2.0508a1.85,1.85,0,0,0-1.7783,1.8789v4.1738H26.3349Z"/><path class="cls-4" d="M40.2919,18.7078v8.3907c0,.6172.0146,1.3193.0576,1.7929H39.2167l-.0576-1.205h-.0283A2.57,2.57,0,0,1,36.7636,29.05c-1.6778,0-2.9688-1.4209-2.9688-3.5293-.0146-2.3086,1.42-3.7285,3.1123-3.7285a2.32,2.32,0,0,1,2.0938,1.0615H39.03V18.7078ZM39.03,24.7752a2.2392,2.2392,0,0,0-.0576-.5312,1.8567,1.8567,0,0,0-1.8213-1.4629c-1.3057,0-2.08,1.1474-2.08,2.6826,0,1.4053.6885,2.5674,2.0508,2.5674a1.8977,1.8977,0,0,0,1.8506-1.5059,2.2068,2.2068,0,0,0,.0576-.5459Z"/><path class="cls-4" d="M43.7929,19.9989a.7813.7813,0,0,1-1.5625,0,.769.769,0,0,1,.789-.7891A.7485.7485,0,0,1,43.7929,19.9989Zm-1.4053,8.8925V21.9491H43.65v6.9423Z"/><path class="cls-4" d="M45.745,23.828c0-.7168-.0146-1.3047-.0576-1.8789h1.1191l.0713,1.1474h.0284a2.5541,2.5541,0,0,1,2.2949-1.3047c.9609,0,2.4531.5733,2.4531,2.9541v4.1455H50.3925V24.89c0-1.1182-.416-2.0508-1.6074-2.0508a1.8508,1.8508,0,0,0-1.7784,1.8789v4.1738H45.745Z"/><path class="cls-4" d="M59.6874,21.9491c-.0283.5019-.0566,1.0615-.0566,1.9082v4.03c0,1.5918-.3155,2.5674-.99,3.17a3.6806,3.6806,0,0,1-2.5244.8321,4.48,4.48,0,0,1-2.3086-.5742l.3155-.961a3.91,3.91,0,0,0,2.0361.5449c1.291,0,2.2383-.6738,2.2383-2.4238V27.701h-.0293a2.4773,2.4773,0,0,1-2.209,1.1621,3.1032,3.1032,0,0,1-2.9541-3.3857c0-2.3516,1.5342-3.6856,3.1269-3.6856a2.3115,2.3115,0,0,1,2.1661,1.2041h.0283l.0576-1.0468Zm-1.3047,2.74a1.79,1.79,0,0,0-.0722-.5742,1.8168,1.8168,0,0,0-1.7637-1.334c-1.2051,0-2.0654,1.0185-2.0654,2.625,0,1.3623.6884,2.4961,2.0507,2.4961a1.8461,1.8461,0,0,0,1.75-1.291,2.2136,2.2136,0,0,0,.1006-.6748Z"/><path class="cls-4" d="M66.6181,19.9559v1.9932h1.8076V22.91H66.6181v3.7441c0,.86.2431,1.3477.9463,1.3477a2.8045,2.8045,0,0,0,.7314-.086l.0576.9473a3.1088,3.1088,0,0,1-1.1191.1719,1.7478,1.7478,0,0,1-1.3623-.5313,2.57,2.57,0,0,1-.4873-1.8066V22.91H64.3085v-.9609h1.0762V20.285Z"/><path class="cls-4" d="M69.8456,18.7078h1.2627v4.3311h.0283a2.342,2.342,0,0,1,.9043-.8887,2.5977,2.5977,0,0,1,1.29-.3584c.9326,0,2.4248.5733,2.4248,2.9688v4.1308H74.4931V24.9041c0-1.1191-.416-2.0654-1.6065-2.0654A1.813,1.813,0,0,0,71.1942,24.1a1.5429,1.5429,0,0,0-.0859.6026v4.1884H69.8456Z"/><path class="cls-4" d="M78.5107,25.65a2.2239,2.2239,0,0,0,2.3808,2.4092,4.557,4.557,0,0,0,1.9219-.3584l.2158.9033a5.619,5.619,0,0,1-2.31.4307,3.2241,3.2241,0,0,1-3.414-3.5c0-2.0938,1.2334-3.7432,3.2568-3.7432,2.2656,0,2.8682,1.9932,2.8682,3.27a4.71,4.71,0,0,1-.043.5888Zm3.7-.9043a1.7963,1.7963,0,0,0-1.749-2.0508,2.0921,2.0921,0,0,0-1.9365,2.0508Z"/><path class="cls-4" d="M88.2372,27.3709a4.4179,4.4179,0,0,0,2.2383.6309c1.2764,0,2.0225-.6738,2.0225-1.6494,0-.9033-.5166-1.42-1.8223-1.9219-1.5772-.56-2.5527-1.377-2.5527-2.7393,0-1.5058,1.248-2.625,3.1269-2.625a4.3852,4.3852,0,0,1,2.1367.4737l-.3437,1.0185a3.8453,3.8453,0,0,0-1.836-.459c-1.32,0-1.8222.7881-1.8222,1.4483,0,.9033.5879,1.3486,1.9218,1.8642,1.6358.6319,2.4678,1.42,2.4678,2.84,0,1.4922-1.1045,2.7832-3.3857,2.7832a4.9923,4.9923,0,0,1-2.4668-.6172Z"/><path class="cls-4" d="M101.248,26.9979c0,.7178.0146,1.3486.0576,1.8935h-1.1182l-.0723-1.1328h-.0283a2.612,2.612,0,0,1-2.2949,1.291c-1.0908,0-2.3955-.6025-2.3955-3.041V21.9491h1.2617v3.8437c0,1.32.4024,2.209,1.55,2.209a1.7771,1.7771,0,0,0,1.7783-1.793v-4.26h1.2618Z"/><path class="cls-4" d="M103.3437,23.828c0-.7168-.0137-1.3047-.0567-1.8789h1.1035l.0577,1.1191h.0429a2.3932,2.3932,0,0,1,2.1807-1.2764,2.0516,2.0516,0,0,1,1.9648,1.3906h.0283a2.88,2.88,0,0,1,.7745-.9033,2.37,2.37,0,0,1,1.5351-.4873c.918,0,2.28.6026,2.28,3.0117v4.0879h-1.2334v-3.93c0-1.3339-.4873-2.1376-1.5059-2.1376a1.6366,1.6366,0,0,0-1.4922,1.1474,2.1012,2.1012,0,0,0-.1.6309v4.289H107.69V24.7323c0-1.1045-.4882-1.9082-1.4492-1.9082a1.7246,1.7246,0,0,0-1.5635,1.2626,1.75,1.75,0,0,0-.1.6163v4.1884h-1.2343Z"/><path class="cls-4" d="M124.9628,25.3631a3.3935,3.3935,0,0,1-3.457,3.6865,3.3011,3.3011,0,0,1-3.3282-3.5722,3.39,3.39,0,0,1,3.4424-3.6856A3.2876,3.2876,0,0,1,124.9628,25.3631Zm-5.5078.0713c0,1.52.875,2.668,2.1084,2.668,1.2041,0,2.1084-1.1328,2.1084-2.6963,0-1.1758-.5879-2.668-2.08-2.668S119.455,24.1151,119.455,25.4344Z"/><path class="cls-4" d="M126.6855,28.8914V22.91H125.71v-.9609h.9756v-.33a3.2743,3.2743,0,0,1,.8027-2.4239,2.4162,2.4162,0,0,1,1.6924-.6455,2.9223,2.9223,0,0,1,1.0761.2012l-.1718.9756a1.89,1.89,0,0,0-.8037-.1582c-1.0752,0-1.3477.9473-1.3477,2.0078v.3731h1.6777V22.91h-1.6777v5.9814Z"/><path class="cls-4" d="M134.8769,19.2244h5.207v1.0469h-3.959v3.2129h3.6572v1.0322h-3.6572v4.375h-1.248Z"/><path class="cls-4" d="M147.5429,25.3631a3.393,3.393,0,0,1-3.4571,3.6865,3.3,3.3,0,0,1-3.3271-3.5722,3.39,3.39,0,0,1,3.4424-3.6856A3.2869,3.2869,0,0,1,147.5429,25.3631Zm-5.5078.0713c0,1.52.875,2.668,2.1093,2.668,1.2041,0,2.1075-1.1328,2.1075-2.6963,0-1.1758-.5879-2.668-2.0791-2.668S142.0351,24.1151,142.0351,25.4344Z"/><path class="cls-4" d="M149.1366,24.1151c0-.8174-.0136-1.5205-.0566-2.166h1.1035l.043,1.3632h.0576a2.0829,2.0829,0,0,1,1.9219-1.5205,1.3359,1.3359,0,0,1,.3584.043v1.19a1.8576,1.8576,0,0,0-.43-.0429,1.77,1.77,0,0,0-1.6924,1.62,3.603,3.603,0,0,0-.0576.5888v3.7h-1.2481Z"/><path class="cls-4" d="M158.6474,28.6336a4.6555,4.6555,0,0,1-1.9942.4014,3.2978,3.2978,0,0,1-3.456-3.543,3.5275,3.5275,0,0,1,3.7285-3.6865,4.2029,4.2029,0,0,1,1.75.3594l-.2871.9746a2.9262,2.9262,0,0,0-1.4629-.3291,2.4015,2.4015,0,0,0-2.4522,2.624,2.38,2.38,0,0,0,2.4092,2.5967,3.5705,3.5705,0,0,0,1.5488-.3447Z"/><path class="cls-4" d="M160.828,25.65a2.2247,2.2247,0,0,0,2.3819,2.4092,4.56,4.56,0,0,0,1.9218-.3584l.2149.9033a5.6113,5.6113,0,0,1-2.31.4307,3.2239,3.2239,0,0,1-3.4131-3.5c0-2.0938,1.2334-3.7432,3.2559-3.7432,2.2666,0,2.8682,1.9932,2.8682,3.27a4.73,4.73,0,0,1-.043.5888Zm3.7012-.9043a1.797,1.797,0,0,0-1.75-2.0508,2.092,2.092,0,0,0-1.9365,2.0508Z"/><path class="cls-4" d="M167.1415,27.6a3.3,3.3,0,0,0,1.6631.502c.918,0,1.3486-.459,1.3486-1.0323,0-.6025-.3584-.9326-1.291-1.2773-1.2471-.4443-1.8359-1.1328-1.8359-1.9648a2.1409,2.1409,0,0,1,2.3955-2.0362,3.4663,3.4663,0,0,1,1.707.43l-.3154.918a2.7045,2.7045,0,0,0-1.4209-.4014c-.7451,0-1.1611.4307-1.1611.9463,0,.5742.416.832,1.3193,1.1768,1.2051.4589,1.8223,1.0615,1.8223,2.0937,0,1.22-.9473,2.08-2.5967,2.08a3.9517,3.9517,0,0,1-1.95-.4736Z"/><path class="cls-4" d="M177.9726,25.85l-1.0049,3.041h-1.29l3.2842-9.667h1.5059l3.2988,9.667h-1.334L181.4,25.85Zm3.17-.9756-.9473-2.7822c-.2148-.6309-.3584-1.2051-.5019-1.7637h-.0293c-.1426.5733-.3008,1.1612-.4873,1.7491l-.9463,2.7968Z"/><path class="cls-4" d="M189.9648,28.6336a4.6555,4.6555,0,0,1-1.9942.4014,3.2978,3.2978,0,0,1-3.456-3.543,3.5277,3.5277,0,0,1,3.7294-3.6865,4.2063,4.2063,0,0,1,1.75.3594l-.2871.9746a2.9344,2.9344,0,0,0-1.4629-.3291,2.4017,2.4017,0,0,0-2.4531,2.624,2.3811,2.3811,0,0,0,2.41,2.5967,3.5818,3.5818,0,0,0,1.5488-.3447Z"/><path class="cls-4" d="M192.9638,19.9559v1.9932h1.8076V22.91h-1.8076v3.7441c0,.86.2441,1.3477.9463,1.3477a2.82,2.82,0,0,0,.7324-.086l.0566.9473a3.1088,3.1088,0,0,1-1.1191.1719,1.7478,1.7478,0,0,1-1.3623-.5313,2.57,2.57,0,0,1-.4873-1.8066V22.91h-1.0762v-.9609H191.73V20.285Z"/><path class="cls-4" d="M197.5976,19.9989a.7818.7818,0,0,1-1.5635,0,.769.769,0,0,1,.7891-.7891A.7487.7487,0,0,1,197.5976,19.9989Zm-1.4053,8.8925V21.9491h1.2617v6.9423Z"/><path class="cls-4" d="M199.5487,23.828c0-.7168-.0136-1.3047-.0566-1.8789H200.61l.0712,1.1474h.0293a2.5532,2.5532,0,0,1,2.295-1.3047c.9609,0,2.4531.5733,2.4531,2.9541v4.1455h-1.2627V24.89c0-1.1182-.416-2.0508-1.6064-2.0508a1.8508,1.8508,0,0,0-1.7784,1.8789v4.1738h-1.2627Z"/><path class="cls-4" d="M213.4921,21.9491c-.0293.5019-.0576,1.0615-.0576,1.9082v4.03c0,1.5918-.3155,2.5674-.9893,3.17a3.6822,3.6822,0,0,1-2.5244.8321,4.4816,4.4816,0,0,1-2.31-.5742l.3155-.961a3.9145,3.9145,0,0,0,2.0371.5449c1.29,0,2.2373-.6738,2.2373-2.4238V27.701h-.0293a2.4767,2.4767,0,0,1-2.208,1.1621,3.1033,3.1033,0,0,1-2.9551-3.3857c0-2.3516,1.5352-3.6856,3.127-3.6856a2.31,2.31,0,0,1,2.166,1.2041h.0283l.0576-1.0468Zm-1.3057,2.74a1.8458,1.8458,0,0,0-1.8359-1.9082c-1.2041,0-2.0654,1.0185-2.0654,2.625,0,1.3623.6884,2.4961,2.0507,2.4961a1.8443,1.8443,0,0,0,1.75-1.291,2.1833,2.1833,0,0,0,.1006-.6748Z"/><path class="cls-4" d="M225.17,25.3631a3.3935,3.3935,0,0,1-3.457,3.6865,3.3011,3.3011,0,0,1-3.3281-3.5722,3.39,3.39,0,0,1,3.4433-3.6856A3.2873,3.2873,0,0,1,225.17,25.3631Zm-5.5078.0713c0,1.52.875,2.668,2.1084,2.668,1.2041,0,2.1084-1.1328,2.1084-2.6963,0-1.1758-.5879-2.668-2.08-2.668S219.662,24.1151,219.662,25.4344Z"/><path class="cls-4" d="M226.7636,23.828c0-.7168-.0147-1.3047-.0576-1.8789h1.1181l.0723,1.1474h.0293a2.5518,2.5518,0,0,1,2.2949-1.3047c.9609,0,2.4522.5733,2.4522,2.9541v4.1455H231.41V24.89c0-1.1182-.4161-2.0508-1.6055-2.0508a1.7938,1.7938,0,0,0-1.6934,1.291,1.8343,1.8343,0,0,0-.0859.5879v4.1738h-1.2617Z"/><path class="cls-4" d="M241.9267,28.8914l-.1006-.875h-.043A2.5864,2.5864,0,0,1,239.66,29.05a1.9786,1.9786,0,0,1-2.1231-1.9941c0-1.6777,1.4922-2.5957,4.1738-2.582V24.33a1.4308,1.4308,0,0,0-1.5771-1.6064,3.4623,3.4623,0,0,0-1.8076.5166l-.2871-.8321a4.311,4.311,0,0,1,2.2812-.6162c2.1231,0,2.6387,1.4483,2.6387,2.84v2.5957a9.7916,9.7916,0,0,0,.1152,1.664Zm-.1866-3.5429c-1.3769-.0284-2.94.2158-2.94,1.5634a1.1172,1.1172,0,0,0,1.19,1.2051,1.7268,1.7268,0,0,0,1.6778-1.1621,1.3208,1.3208,0,0,0,.0722-.4014Z"/><path class="cls-4" d="M248.412,19.3533a12.046,12.046,0,0,1,2.28-.2011,3.9927,3.9927,0,0,1,2.6533.7031,2.0263,2.0263,0,0,1,.8027,1.707,2.2939,2.2939,0,0,1-1.6347,2.1221v.0293a2.4917,2.4917,0,0,1,1.9941,2.4238,2.6053,2.6053,0,0,1-.8183,1.9366,4.8568,4.8568,0,0,1-3.3418.9033,14.7131,14.7131,0,0,1-1.9356-.1143Zm1.2471,3.959h1.1338c1.3193,0,2.0937-.6884,2.0937-1.6211,0-1.1328-.86-1.5781-2.123-1.5781a5.3634,5.3634,0,0,0-1.1045.086Zm0,4.6328a6.6941,6.6941,0,0,0,1.0478.0567c1.2911,0,2.4805-.4727,2.4805-1.8789,0-1.3194-1.1328-1.8643-2.4951-1.8643h-1.0332Z"/><path class="cls-4" d="M262.4257,25.3631A3.3928,3.3928,0,0,1,258.97,29.05a3.3,3.3,0,0,1-3.3271-3.5722,3.3888,3.3888,0,0,1,3.4414-3.6856A3.2869,3.2869,0,0,1,262.4257,25.3631Zm-5.5078.0713c0,1.52.875,2.668,2.1094,2.668,1.205,0,2.1084-1.1328,2.1084-2.6963,0-1.1758-.5889-2.668-2.08-2.668S256.9179,24.1151,256.9179,25.4344Z"/><path class="cls-4" d="M270.0155,18.7078v8.3907c0,.6172.0147,1.3193.0577,1.7929h-1.1338l-.0567-1.205h-.0293a2.5676,2.5676,0,0,1-2.3662,1.3632c-1.6787,0-2.97-1.4209-2.97-3.5293-.0137-2.3086,1.4209-3.7285,3.1133-3.7285a2.32,2.32,0,0,1,2.0937,1.0615h.0293V18.7078Zm-1.2617,6.0674a2.234,2.234,0,0,0-.0576-.5312,1.8567,1.8567,0,0,0-1.8213-1.4629c-1.3057,0-2.08,1.1474-2.08,2.6826,0,1.4053.6885,2.5674,2.0508,2.5674a1.8977,1.8977,0,0,0,1.8506-1.5059,2.2021,2.2021,0,0,0,.0576-.5459Z"/><path class="cls-4" d="M272.57,21.9491l1.5205,4.1025c.1573.459.3291,1.0039.4444,1.42h.0293c.1289-.416.2714-.9463.4443-1.4482l1.377-4.0742H277.72l-1.8935,4.9482c-.9033,2.3818-1.52,3.6006-2.3809,4.3467a3.4265,3.4265,0,0,1-1.5488.8174L271.58,31a3.3244,3.3244,0,0,0,1.1055-.6172,3.8308,3.8308,0,0,0,1.06-1.4052.9022.9022,0,0,0,.1006-.3008,1.0847,1.0847,0,0,0-.0859-.33l-2.5674-6.3974Z"/><path d="M24.34,73.6086c-.4683.01-.6675.1793-.8469.6875l-1.923,5.62H21.301L19.8064,75.96h-.04L18.262,79.9158h-.2491L15.94,74.6947c-.3089-.837-.5779-1.0662-1.096-1.0861V73.31h2.5707v.2989c-.5082,0-.6577.12-.6577.3288a1.6519,1.6519,0,0,0,.1395.548l1.1559,2.91.3088.837h.05l1.1259-2.9095-.279-.7672c-.3188-.8669-.4783-.9466-1.0462-.9466V73.31h2.6006v.2989c-.4982,0-.7573.12-.7573.3388a1.98,1.98,0,0,0,.1694.5779l1.0363,2.69.3288.9865h.05l1.1359-3.3081a3.1291,3.1291,0,0,0,.1793-.8668c0-.299-.2092-.4185-.6675-.4185V73.31H24.34Zm3.6855,4.962a1.9735,1.9735,0,0,1-1.8633,1.385c-1.1956,0-2.1223-.8668-2.1223-2.471,0-1.664.9366-2.4611,2.1024-2.4611,1.0861,0,1.8035.7871,1.8533,2.1821H24.847c0,1.375.7573,2.0027,1.5544,2.0027a1.5766,1.5766,0,0,0,1.4348-.7771Zm-.9665-1.7337c-.03-.7373-.3587-1.4149-1.0661-1.4149-.6776,0-1.0762.4883-1.1559,1.4149ZM34.92,78.5208a2.0237,2.0237,0,0,1-1.933,1.4348c-1.2455,0-1.9928-.9665-1.9928-2.3515,0-1.5643.817-2.5806,2.2519-2.5806.9366,0,1.5145.4782,1.5145,1.0562,0,.2889-.1395.4483-.4185.4483-.7373,0-.4085-1.1359-1.2654-1.1359-.8071,0-1.2954.5979-1.2954,1.7437,0,1.2156.4883,2.0725,1.5146,2.0725a1.6322,1.6322,0,0,0,1.4348-.827Zm3.2178.7174a2.058,2.058,0,0,1-1.4647.6876A1.0764,1.0764,0,0,1,35.487,78.81c0-1.3153,1.7637-1.5743,2.6206-1.8434V76.528c0-.8668-.299-1.1956-.8968-1.1956-.5679,0-.6676.2092-.6676.807a.4006.4006,0,0,1-.4384.4584.4314.4314,0,0,1-.4185-.4783c0-.558.6676-1.096,1.7537-1.096s1.4946.4982,1.4946,1.5344V78.82c0,.4086.09.4883.2989.4883a.6323.6323,0,0,0,.4683-.2491l.15.1594c-.3288.4783-.568.6875-1.0761.6875-.4385,0-.5381-.2291-.5979-.6676Zm-.03-1.9429c-.9068.2291-1.7437.4982-1.7437,1.2753a.7175.7175,0,0,0,.7174.8071,1.6808,1.6808,0,0,0,1.0263-.4384ZM44.6831,78.85c0,.558.07.7274.7373.7274v.279H43.1188v-.279c.7074,0,.7373-.1694.7373-.7274V77.0462c0-1.1957-.4683-1.385-.9167-1.385a1.8261,1.8261,0,0,0-1.2056.6277V78.85c0,.558.04.7274.7572.7274v.279H40.2093v-.279c.6676,0,.6975-.1694.6975-.7274v-2.8c0-.3587-.1495-.4385-.4185-.4385a1.5106,1.5106,0,0,0-.2691.02v-.289l1.2655-.2889h.2291l-.01.807h.04a2.4245,2.4245,0,0,1,1.6042-.8369c.9068,0,1.3352.6277,1.3352,1.7736ZM53.64,79.856H51.348v-.289c.6576,0,.6974-.1893.6974-.7174V76.09c0-.3288-.09-.4783-.2789-.5281H49.8334V78.67c0,.7672.16.9067.8569.9067v.279H48.15v-.279c.7274,0,.837-.1295.837-.9067V75.5615h-.7573V75.143h.7573a2.7982,2.7982,0,0,1,.3687-1.644,2.0265,2.0265,0,0,1,1.8134-.7872c.8669,0,1.4647.2491,1.4647.8071a.4346.4346,0,0,1-.4782.4583c-.299,0-.4285-.2291-.558-.528-.11-.289-.3388-.3787-.6776-.3787-.6875,0-1.0861.3687-1.0861,1.4647v.6078h1.7138l1.0662-.09h.2591V78.85c0,.568.05.7174.7672.7174Zm5.021-1.0064c0,.558.07.7274.7373.7274v.279H57.0963v-.279c.7075,0,.7374-.1694.7374-.7274V77.0462c0-1.1957-.4683-1.385-.9167-1.385a1.8263,1.8263,0,0,0-1.2057.6277V78.85c0,.558.04.7274.7573.7274v.279H54.1869v-.279c.6675,0,.6974-.1694.6974-.7274v-2.8c0-.3587-.1494-.4385-.4184-.4385a1.5106,1.5106,0,0,0-.2691.02v-.289l1.2654-.2889h.2292l-.01.807h.04a2.4245,2.4245,0,0,1,1.6042-.8369c.9067,0,1.3352.6277,1.3352,1.7736Zm4.7919,1.0562h-.2291v-.6875h-.04a2.35,2.35,0,0,1-1.5444.7174c-1.1259,0-1.7039-.9864-1.7039-2.2618a2.3893,2.3893,0,0,1,2.2918-2.65,1.9839,1.9839,0,0,1,.9665.2391V73.9573c0-.4384-.05-.5281-.4384-.5281-.09,0-.2591.02-.2591.02V73.17l1.2555-.3488h.269V78.79c0,.5181.1295.6177.4982.6177h.2092v.2691Zm-.259-3.6867a.9349.9349,0,0,0-.9865-.7971c-.8369,0-1.4049.6078-1.4049,1.8633,0,1.375.4584,1.933,1.3053,1.933a1.7041,1.7041,0,0,0,1.0861-.3687Zm7.2328,2.9c-.3886.538-.5978.8369-1.2355.8369-.6676,0-.9566-.3587-.9566-1.2554V75.5615h-.548v-.2291a2.9654,2.9654,0,0,0,1.1259-1.5544h.2591l-.01,1.365h1.126v.4185h-1.126v2.86c0,.7074.09.9466.4783.9466.3189,0,.4484-.13.6975-.4086Zm1.8529-.2292c0,.5181.05.6775.7373.6775v.289H70.7548v-.289c.5181,0,.6975-.08.6975-.6376V73.8278c0-.3488-.2192-.3986-.4882-.3986a2.1121,2.1121,0,0,0-.289.02V73.17l1.3352-.3488h.269v3.0191h.03a2.32,2.32,0,0,1,1.6142-.817c1.1458,0,1.3351,1.0263,1.3351,1.8433V78.85c0,.5281.11.7174.7374.7174v.289H73.7041v-.289c.6876,0,.7274-.1992.7274-.6775V77.1657c0-.817-.11-1.5045-.9167-1.5045a1.81,1.81,0,0,0-1.2355.6177Zm8.2494-.3189a1.9735,1.9735,0,0,1-1.8633,1.385c-1.1957,0-2.1223-.8668-2.1223-2.471,0-1.664.9366-2.4611,2.1024-2.4611,1.086,0,1.8035.7871,1.8533,2.1821H77.35c0,1.375.7572,2.0027,1.5543,2.0027a1.5765,1.5765,0,0,0,1.4348-.7771Zm-.9665-1.7337c-.03-.7373-.3587-1.4149-1.0662-1.4149-.6775,0-1.0761.4883-1.1558,1.4149Zm4.2537,1.385c.2092,1.0263.5879,1.375,1.3252,1.375.4982,0,.8569-.1893.8569-.6576s-.1893-.6576-1.116-1.116c-.9067-.4583-1.3152-.807-1.3152-1.5444,0-.817.6676-1.2554,1.5245-1.2554a2.1878,2.1878,0,0,1,1.0462.259h.01l.1693-.2092h.1993l.03,1.5245h-.269c-.2192-.9466-.5879-1.2356-1.1957-1.2356-.4583,0-.8071.2093-.8071.6577,0,.3886.3288.6377,1.1658,1.0661.9067.4783,1.395.847,1.395,1.5843,0,.9366-.7772,1.2953-1.674,1.2953a2.4946,2.4946,0,0,1-1.1359-.2591h-.02l-.2092.2292h-.2093l-.03-1.7138Zm8.6682,1.4548-1.2655.2291h-.2192v-.7672h-.05a2.2613,2.2613,0,0,1-1.6341.817c-.827,0-1.3053-.4683-1.3053-1.8234V76.11c0-.538-.1395-.5779-.6775-.5878v-.279l1.2853-.15h.2192v2.91c0,1.0163.3787,1.3152.8968,1.3152A1.7812,1.7812,0,0,0,90.96,78.72V76.1c0-.5281-.1694-.5779-.8071-.5779v-.279l1.395-.15h.2391V78.75c0,.5879.12.6576.5978.6576h.1Zm2.1415-.7872c0,.558.13.6775.7473.6775v.289H93.1011v-.289c.6278,0,.6975-.1195.6975-.7174V76.06c0-.3587-.1395-.4484-.4185-.4484a1.8167,1.8167,0,0,0-.269.02v-.289l1.2455-.2889h.2391v.807h.04a2.5137,2.5137,0,0,1,1.6739-.8369,1.1661,1.1661,0,0,1,1.1061.827h.04a2.3372,2.3372,0,0,1,1.5843-.827c.7772,0,1.2853.4384,1.2853,1.644V78.7c0,.6277.03.8668.7174.8668v.289H98.7906v-.289c.6775,0,.7074-.259.7074-.8668V76.7871c0-.9067-.3886-1.1259-.8569-1.1259a2.0436,2.0436,0,0,0-1.1458.6177V78.7c0,.6875.05.8668.7672.8668v.289H95.901v-.289c.7075,0,.7673-.1693.7673-.8668V76.7273c0-.8469-.3388-1.0661-.7972-1.0661a1.9587,1.9587,0,0,0-1.2455.6377Zm13.7689-1.4846c0,1.6739-.9167,2.5507-2.2121,2.5507-1.3949,0-2.2319-.8967-2.2319-2.5109a2.204,2.204,0,0,1,2.2319-2.4212A2.1317,2.1317,0,0,1,108.3945,77.4049Zm-3.5173-.09c0,1.5843.4882,2.2518,1.3451,2.2419.8171,0,1.2555-.4783,1.2555-2.1024,0-1.2256-.4484-2.0526-1.3352-2.0526C105.3853,75.4021,104.8772,76.04,104.8772,77.3152Zm4.8717-2.1722a3.1031,3.1031,0,0,1,.3189-1.664,1.3608,1.3608,0,0,1,1.3252-.7273c.6477,0,1.116.2491,1.116.6975a.3875.3875,0,0,1-.4086.4284c-.4982,0-.548-.7573-1.0462-.7573-.3686,0-.4782.299-.4782,1.1359v.8868h1.2156v.4185H110.576V78.67c0,.7772.1893.8967,1.0163.8967v.289h-2.68v-.289c.7273,0,.8369-.1195.8369-.8967V75.5615h-.7572V75.143Zm5.898,0a3.1031,3.1031,0,0,1,.3189-1.664,1.3608,1.3608,0,0,1,1.3252-.7273c.6476,0,1.116.2491,1.116.6975a.3875.3875,0,0,1-.4086.4284c-.4982,0-.548-.7573-1.0462-.7573-.3687,0-.4783.299-.4783,1.1359v.8868H117.69v.4185h-1.2156V78.67c0,.7772.1894.8967,1.0164.8967v.289h-2.68v-.289c.7273,0,.8369-.1195.8369-.8967V75.5615H114.89V75.143Zm6.825,2.2619c0,1.6739-.9167,2.5507-2.212,2.5507-1.395,0-2.2319-.8967-2.2319-2.5109a2.204,2.204,0,0,1,2.2319-2.4212A2.1316,2.1316,0,0,1,122.4719,77.4049Zm-3.5173-.09c0,1.5843.4883,2.2518,1.3452,2.2419.817,0,1.2554-.4783,1.2554-2.1024,0-1.2256-.4484-2.0526-1.3352-2.0526C119.4628,75.4021,118.9546,76.04,118.9546,77.3152Zm5.6789-1.2355h.03c.5081-.7374.8071-1.0861,1.2853-1.0861a.5146.5146,0,0,1,.5779.558c0,.3786-.2192.538-.4384.538-.3288,0-.5281-.3388-.6476-.3388-.2292,0-.5481.4185-.7872.8171V78.84c0,.6277.1893.7273.9366.7273v.289h-2.491v-.289c.6576,0,.7274-.1195.7274-.6775v-2.74c0-.3587,0-.5381-.3587-.5381a1.9083,1.9083,0,0,0-.3089.02v-.279l1.2355-.2989h.2392Zm6.1175,2.4411a2.0238,2.0238,0,0,1-1.933,1.4348c-1.2455,0-1.9928-.9665-1.9928-2.3515,0-1.5643.817-2.5806,2.2518-2.5806.9366,0,1.5146.4782,1.5146,1.0562,0,.2889-.1395.4483-.4185.4483-.7374,0-.4086-1.1359-1.2655-1.1359-.807,0-1.2953.5979-1.2953,1.7437,0,1.2156.4883,2.0725,1.5145,2.0725a1.6319,1.6319,0,0,0,1.4348-.827Zm4.513.05a1.9733,1.9733,0,0,1-1.8632,1.385c-1.1957,0-2.1224-.8668-2.1224-2.471,0-1.664.9367-2.4611,2.1024-2.4611,1.0861,0,1.8035.7871,1.8533,2.1821h-3.1486c0,1.375.7573,2.0027,1.5544,2.0027a1.5765,1.5765,0,0,0,1.4348-.7771Zm-.9665-1.7337c-.03-.7373-.3587-1.4149-1.0661-1.4149-.6776,0-1.0761.4883-1.1558,1.4149Zm1.9125,1.385c.2093,1.0263.5879,1.375,1.3252,1.375.4982,0,.857-.1893.857-.6576s-.1894-.6576-1.116-1.116c-.9067-.4583-1.3153-.807-1.3153-1.5444,0-.817.6676-1.2554,1.5245-1.2554a2.1878,2.1878,0,0,1,1.0462.259h.01l.1694-.2092h.1993l.03,1.5245h-.2691c-.2192-.9466-.5878-1.2356-1.1956-1.2356-.4584,0-.8071.2093-.8071.6577,0,.3886.3288.6377,1.1658,1.0661.9067.4783,1.3949.847,1.3949,1.5843,0,.9366-.7772,1.2953-1.6739,1.2953a2.4942,2.4942,0,0,1-1.1359-.2591h-.02l-.2093.2292h-.2092l-.03-1.7138Zm8.658,1.0163a2.0582,2.0582,0,0,1-1.4648.6876,1.0764,1.0764,0,0,1-1.1857-1.116c0-1.3153,1.7637-1.5743,2.6206-1.8434V76.528c0-.8668-.299-1.1956-.8968-1.1956-.5679,0-.6676.2092-.6676.807a.4006.4006,0,0,1-.4384.4584.4314.4314,0,0,1-.4185-.4783c0-.558.6676-1.096,1.7537-1.096s1.4946.4982,1.4946,1.5344V78.82c0,.4086.09.4883.2989.4883a.6323.6323,0,0,0,.4683-.2491l.1495.1594c-.3289.4783-.568.6875-1.0762.6875-.4384,0-.538-.2291-.5978-.6676Zm-.03-1.9429c-.9068.2291-1.7437.4982-1.7437,1.2753a.7175.7175,0,0,0,.7174.8071,1.6808,1.6808,0,0,0,1.0263-.4384Zm6.0374,1.2255a2.0236,2.0236,0,0,1-1.933,1.4348c-1.2455,0-1.9928-.9665-1.9928-2.3515,0-1.5643.8171-2.5806,2.2519-2.5806.9366,0,1.5145.4782,1.5145,1.0562,0,.2889-.1395.4483-.4185.4483-.7373,0-.4085-1.1359-1.2654-1.1359-.8071,0-1.2953.5979-1.2953,1.7437,0,1.2156.4882,2.0725,1.5145,2.0725a1.6319,1.6319,0,0,0,1.4348-.827Zm3.2975.5979c-.3886.538-.5978.8369-1.2355.8369-.6676,0-.9566-.3587-.9566-1.2554V75.5615h-.548v-.2291a2.966,2.966,0,0,0,1.126-1.5544h.259l-.01,1.365h1.1259v.4185H152.808v2.86c0,.7074.09.9466.4782.9466.3189,0,.4484-.13.6975-.4086Zm2.59.7373h-2.2419v-.279c.6675,0,.6974-.1594.6974-.7274V76.07c0-.4285-.1494-.4683-.4384-.4683a1.55,1.55,0,0,0-.2491.02v-.2889l1.2555-.279h.2591V78.85c0,.578.05.7274.7174.7274Zm-.5481-6.3471a.5494.5494,0,0,1-.5679.568.5554.5554,0,0,1-.568-.568.568.568,0,0,1,1.1359,0Zm5.6194,5.3407c0,.558.07.7274.7373.7274v.279H160.27v-.279c.7075,0,.7374-.1694.7374-.7274V77.0462c0-1.1957-.4683-1.385-.9167-1.385a1.8263,1.8263,0,0,0-1.2057.6277V78.85c0,.558.04.7274.7573.7274v.279h-2.2818v-.279c.6676,0,.6975-.1694.6975-.7274v-2.8c0-.3587-.1494-.4385-.4185-.4385a1.51,1.51,0,0,0-.269.02v-.289l1.2654-.2889h.2292l-.01.807h.04a2.4245,2.4245,0,0,1,1.6042-.8369c.9067,0,1.3352.6277,1.3352,1.7736Zm2.2212-.8469a1.4621,1.4621,0,0,1-.7672-1.3551,1.6269,1.6269,0,0,1,1.8035-1.6241,2.47,2.47,0,0,1,1.106.2491l1.2853-.07v.5381l-.9366-.03v.05a1.7108,1.7108,0,0,1,.3587,1.0263,1.5574,1.5574,0,0,1-1.7636,1.5145,2.5738,2.5738,0,0,1-.8569-.1494,1.6669,1.6669,0,0,0-.2591.6675c0,.299.2591.3986,1.1758.3986,1.2554,0,2.212.04,2.212,1.1857,0,1.3352-1.4747,1.7935-2.73,1.7935-1.3052,0-1.6938-.548-1.6938-1.096,0-.3288.269-.6676.807-1.1857v-.04a.8783.8783,0,0,1-.5579-.7174,1.7539,1.7539,0,0,1,.817-1.1359Zm-.289,2.76c0,.5779.4783.8669,1.4946.8669,1.1758,0,1.6441-.5181,1.6441-.9466,0-.7174-1.0661-.6975-1.7337-.7074-.7972-.01-.9865-.02-1.126-.02A1.637,1.637,0,0,0,163.7668,80.7627Zm.3986-4.155c0,.8569.3388,1.3452.9864,1.3452.4982,0,.8669-.279.8669-1.2256,0-.8071-.3587-1.3451-.9964-1.3451C164.5042,75.3822,164.1654,75.7708,164.1654,76.6077Zm10.5608.7972c0,1.6739-.9167,2.5507-2.212,2.5507-1.395,0-2.2319-.8967-2.2319-2.5109a2.204,2.204,0,0,1,2.2319-2.4212A2.1316,2.1316,0,0,1,174.7262,77.4049Zm-3.5173-.09c0,1.5843.4883,2.2518,1.3452,2.2419.817,0,1.2554-.4783,1.2554-2.1024,0-1.2256-.4484-2.0526-1.3352-2.0526C171.7171,75.4021,171.2089,76.04,171.2089,77.3152Zm8.6482,1.5344c0,.558.07.7274.7373.7274v.279h-2.3017v-.279c.7075,0,.7373-.1694.7373-.7274V77.0462c0-1.1957-.4683-1.385-.9166-1.385a1.8261,1.8261,0,0,0-1.2057.6277V78.85c0,.558.04.7274.7573.7274v.279h-2.2818v-.279c.6676,0,.6975-.1694.6975-.7274v-2.8c0-.3587-.15-.4385-.4185-.4385a1.5087,1.5087,0,0,0-.269.02v-.289l1.2654-.2889h.2292l-.01.807h.04a2.4241,2.4241,0,0,1,1.6042-.8369c.9067,0,1.3352.6277,1.3352,1.7736Zm6.3161.3886a2.0578,2.0578,0,0,1-1.4647.6876,1.0763,1.0763,0,0,1-1.1857-1.116c0-1.3153,1.7636-1.5743,2.6205-1.8434V76.528c0-.8668-.2989-1.1956-.8968-1.1956-.5679,0-.6676.2092-.6676.807a.4006.4006,0,0,1-.4384.4584.4314.4314,0,0,1-.4185-.4783c0-.558.6676-1.096,1.7537-1.096s1.4946.4982,1.4946,1.5344V78.82c0,.4086.09.4883.2989.4883a.6323.6323,0,0,0,.4683-.2491l.1495.1594c-.3288.4783-.568.6875-1.0761.6875-.4384,0-.5381-.2291-.5979-.6676Zm-.03-1.9429c-.9067.2291-1.7437.4982-1.7437,1.2753a.7175.7175,0,0,0,.7174.8071,1.6808,1.6808,0,0,0,1.0263-.4384Zm5.7482-1.4249h.03a2.063,2.063,0,0,1,1.5344-.8469c.9865,0,1.664.9167,1.664,2.212,0,1.7835-1.0063,2.72-2.3913,2.72a3.4839,3.4839,0,0,1-1.664-.3985v-5.6c0-.4484-.06-.5281-.4384-.5281a1.8738,1.8738,0,0,0-.279.02V73.17l1.2853-.3488h.2591Zm0,3.2084a1.2368,1.2368,0,0,0,1.0163.4683c.9466,0,1.3053-.8868,1.3053-1.9928,0-.9565-.2491-1.8533-1.1957-1.8533a1.5429,1.5429,0,0,0-1.1259.6078Zm8.3591-1.6739c0,1.6739-.9167,2.5507-2.212,2.5507-1.395,0-2.2319-.8967-2.2319-2.5109a2.204,2.204,0,0,1,2.2319-2.4212A2.1316,2.1316,0,0,1,200.2506,77.4049Zm-3.5173-.09c0,1.5843.4883,2.2518,1.3452,2.2419.817,0,1.2554-.4783,1.2554-2.1024,0-1.2256-.4484-2.0526-1.3352-2.0526C197.2415,75.4021,196.7333,76.04,196.7333,77.3152Zm7.7016,2.5906h-.2292v-.6875h-.04a2.35,2.35,0,0,1-1.5444.7174c-1.1259,0-1.7038-.9864-1.7038-2.2618a2.3892,2.3892,0,0,1,2.2917-2.65,1.9839,1.9839,0,0,1,.9665.2391V73.9573c0-.4384-.05-.5281-.4384-.5281-.09,0-.2591.02-.2591.02V73.17l1.2555-.3488h.269V78.79c0,.5181.13.6177.4982.6177h.2093v.2691Zm-.2591-3.6867a.9349.9349,0,0,0-.9864-.7971c-.837,0-1.4049.6078-1.4049,1.8633,0,1.375.4583,1.933,1.3052,1.933a1.7039,1.7039,0,0,0,1.0861-.3687Zm6.6951-.7871c-.3986,0-.548.1694-.6875.558l-1.5544,4.0852c-.558,1.4647-1.0462,1.9828-1.8533,1.9828-.4484,0-.7373-.14-.7373-.5181,0-.2989.1992-.4284.4683-.4284.3487,0,.558.2192.8071.2192.3188,0,.8867-1.2356.8867-1.5245a3.8467,3.8467,0,0,0-.2989-.8171l-1.4647-3.1984a.5482.5482,0,0,0-.5978-.3587v-.289h2.1323v.299c-.4484,0-.568.09-.568.269a1.339,1.339,0,0,0,.1395.4284l.9765,2.1921.1395.5181h.07l.9566-2.9194a1.1058,1.1058,0,0,0,.05-.2491c0-.1993-.2292-.2491-.558-.2491v-.289h1.6939Zm3.8651.4384h.03a2.0628,2.0628,0,0,1,1.5344-.8469c.9865,0,1.664.9167,1.664,2.212,0,1.7835-1.0064,2.72-2.3913,2.72a3.4839,3.4839,0,0,1-1.664-.3985v-5.6c0-.4484-.06-.5281-.4384-.5281a1.8738,1.8738,0,0,0-.279.02V73.17l1.2853-.3488h.2591Zm0,3.2084a1.2368,1.2368,0,0,0,1.0163.4683c.9466,0,1.3053-.8868,1.3053-1.9928,0-.9565-.2491-1.8533-1.1957-1.8533a1.5427,1.5427,0,0,0-1.1259.6078Zm8.4886-3.6468c-.3985,0-.548.1694-.6875.558l-1.5544,4.0852c-.558,1.4647-1.0462,1.9828-1.8533,1.9828-.4484,0-.7373-.14-.7373-.5181,0-.2989.1993-.4284.4683-.4284.3487,0,.558.2192.8071.2192.3188,0,.8868-1.2356.8868-1.5245a3.8523,3.8523,0,0,0-.2989-.8171l-1.4648-3.1984a.5482.5482,0,0,0-.5978-.3587v-.289h2.1323v.299c-.4484,0-.5679.09-.5679.269a1.339,1.339,0,0,0,.1395.4284l.9764,2.1921.1395.5181h.07l.9565-2.9194a1.1058,1.1058,0,0,0,.05-.2491c0-.1993-.2291-.2491-.558-.2491v-.289h1.6939Zm2.8886,2.79c.2093,1.0263.5879,1.375,1.3252,1.375.4982,0,.8569-.1893.8569-.6576s-.1893-.6576-1.1159-1.116c-.9067-.4583-1.3153-.807-1.3153-1.5444,0-.817.6676-1.2554,1.5245-1.2554a2.1878,2.1878,0,0,1,1.0462.259h.01l.1694-.2092h.1993l.03,1.5245h-.2691c-.2192-.9466-.5878-1.2356-1.1956-1.2356-.4584,0-.8071.2093-.8071.6577,0,.3886.3288.6377,1.1658,1.0661.9067.4783,1.3949.847,1.3949,1.5843,0,.9366-.7772,1.2953-1.6739,1.2953a2.4942,2.4942,0,0,1-1.1359-.2591h-.02l-.2093.2292h-.2092l-.03-1.7138Zm7.612.3487a1.9733,1.9733,0,0,1-1.8632,1.385c-1.1957,0-2.1224-.8668-2.1224-2.471,0-1.664.9367-2.4611,2.1024-2.4611,1.0861,0,1.8035.7871,1.8533,2.1821h-3.1486c0,1.375.7573,2.0027,1.5544,2.0027a1.5765,1.5765,0,0,0,1.4348-.7771Zm-.9665-1.7337c-.03-.7373-.3587-1.4149-1.0661-1.4149-.6776,0-1.0761.4883-1.1558,1.4149Zm3.0185-.9466h.03a2.0272,2.0272,0,0,1,1.5444-.8668c.9865,0,1.674.9266,1.674,2.2319,0,1.6939-.9864,2.7-2.1821,2.7a1.7235,1.7235,0,0,1-1.0064-.2789h-.04v1.3052c0,.6477.1893.7772.9665.7772v.289h-2.5209v-.279c.6277,0,.7274-.1694.7274-.7274V76.11c0-.3786-.05-.5081-.3787-.5081-.13,0-.3188.02-.3188.02v-.2889l1.2554-.279h.2491Zm.02,3.0191a1.5242,1.5242,0,0,0,1.096.6576c.6975,0,1.2256-.6476,1.2256-2.0326,0-1.2555-.4384-1.8334-1.1758-1.8334a1.5363,1.5363,0,0,0-1.1458.6078Zm6.6054.3288a2.0578,2.0578,0,0,1-1.4647.6876,1.0764,1.0764,0,0,1-1.1857-1.116c0-1.3153,1.7636-1.5743,2.6205-1.8434V76.528c0-.8668-.2989-1.1956-.8968-1.1956-.5679,0-.6676.2092-.6676.807a.4006.4006,0,0,1-.4384.4584.4314.4314,0,0,1-.4185-.4783c0-.558.6676-1.096,1.7537-1.096s1.4946.4982,1.4946,1.5344V78.82c0,.4086.09.4883.2989.4883a.6323.6323,0,0,0,.4683-.2491l.1495.1594c-.3288.4783-.568.6875-1.0761.6875-.4384,0-.5381-.2291-.5979-.6676Zm-.03-1.9429c-.9067.2291-1.7437.4982-1.7437,1.2753a.7175.7175,0,0,0,.7174.8071,1.6808,1.6808,0,0,0,1.0263-.4384ZM245.979,76.08h.03c.5081-.7374.807-1.0861,1.2853-1.0861a.5146.5146,0,0,1,.5779.558c0,.3786-.2192.538-.4384.538-.3288,0-.5281-.3388-.6476-.3388-.2292,0-.5481.4185-.7872.8171V78.84c0,.6277.1893.7273.9366.7273v.289h-2.491v-.289c.6576,0,.7274-.1195.7274-.6775v-2.74c0-.3587,0-.5381-.3587-.5381a1.9083,1.9083,0,0,0-.3089.02v-.279l1.2355-.2989h.2392Zm4.842,3.1585a2.0578,2.0578,0,0,1-1.4647.6876,1.0764,1.0764,0,0,1-1.1857-1.116c0-1.3153,1.7636-1.5743,2.62-1.8434V76.528c0-.8668-.2989-1.1956-.8967-1.1956-.568,0-.6676.2092-.6676.807a.4006.4006,0,0,1-.4384.4584.4314.4314,0,0,1-.4185-.4783c0-.558.6676-1.096,1.7537-1.096s1.4945.4982,1.4945,1.5344V78.82c0,.4086.09.4883.299.4883a.6323.6323,0,0,0,.4683-.2491l.1494.1594c-.3288.4783-.5679.6875-1.0761.6875-.4384,0-.538-.2291-.5978-.6676Zm-.03-1.9429c-.9067.2291-1.7437.4982-1.7437,1.2753a.7175.7175,0,0,0,.7174.8071,1.68,1.68,0,0,0,1.0263-.4384Zm4.8917,1.8234c-.3886.538-.5979.8369-1.2356.8369-.6676,0-.9565-.3587-.9565-1.2554V75.5615h-.548v-.2291a2.9654,2.9654,0,0,0,1.1259-1.5544h.2591l-.01,1.365h1.1259v.4185h-1.1259v2.86c0,.7074.09.9466.4783.9466.3188,0,.4484-.13.6975-.4086Zm4.304-.5481a1.9735,1.9735,0,0,1-1.8633,1.385c-1.1957,0-2.1223-.8668-2.1223-2.471,0-1.664.9366-2.4611,2.1024-2.4611,1.086,0,1.8034.7871,1.8533,2.1821h-3.1486c0,1.375.7572,2.0027,1.5543,2.0027a1.5768,1.5768,0,0,0,1.4349-.7771Zm-.9665-1.7337c-.03-.7373-.3587-1.4149-1.0662-1.4149-.6775,0-1.0761.4883-1.1558,1.4149Zm3.8554,3.0191H260.584v-.289c.6576,0,.6975-.1594.6975-.7174V73.8477c0-.4085-.1694-.4284-.4185-.4284a2.7174,2.7174,0,0,0-.3188.02V73.17l1.3152-.3488h.2491V78.85c0,.578.05.7174.7672.7174Zm5.1411-4.424c-.3985,0-.548.1694-.6875.558l-1.5544,4.0852c-.558,1.4647-1.0462,1.9828-1.8533,1.9828-.4483,0-.7373-.14-.7373-.5181,0-.2989.1993-.4284.4683-.4284.3487,0,.558.2192.8071.2192.3188,0,.8868-1.2356.8868-1.5245a3.8481,3.8481,0,0,0-.299-.8171l-1.4646-3.1984a.5484.5484,0,0,0-.5979-.3587v-.289h2.1323v.299c-.4484,0-.5679.09-.5679.269a1.3411,1.3411,0,0,0,.1394.4284l.9765,2.1921.1395.5181h.07l.9565-2.9194a1.1058,1.1058,0,0,0,.05-.2491c0-.1993-.2291-.2491-.558-.2491v-.289h1.6939Zm6.4956,3.0888a2.0237,2.0237,0,0,1-1.933,1.4348c-1.2455,0-1.9928-.9665-1.9928-2.3515,0-1.5643.817-2.5806,2.2518-2.5806.9367,0,1.5146.4782,1.5146,1.0562,0,.2889-.1395.4483-.4185.4483-.7374,0-.4085-1.1359-1.2654-1.1359-.8071,0-1.2954.5979-1.2954,1.7437,0,1.2156.4883,2.0725,1.5146,2.0725a1.6322,1.6322,0,0,0,1.4348-.827Zm4.9714-1.1159c0,1.6739-.9167,2.5507-2.212,2.5507-1.3949,0-2.2319-.8967-2.2319-2.5109a2.204,2.204,0,0,1,2.2319-2.4212A2.1316,2.1316,0,0,1,279.4838,77.4049Zm-3.5172-.09c0,1.5843.4882,2.2518,1.3451,2.2419.817,0,1.2554-.4783,1.2554-2.1024,0-1.2256-.4483-2.0526-1.3351-2.0526C276.4747,75.4021,275.9666,76.04,275.9666,77.3152Zm8.6481,1.5344c0,.558.07.7274.7373.7274v.279H283.05v-.279c.7075,0,.7374-.1694.7374-.7274V77.0462c0-1.1957-.4684-1.385-.9167-1.385a1.8261,1.8261,0,0,0-1.2057.6277V78.85c0,.558.04.7274.7573.7274v.279h-2.2818v-.279c.6676,0,.6975-.1694.6975-.7274v-2.8c0-.3587-.1495-.4385-.4185-.4385a1.5087,1.5087,0,0,0-.269.02v-.289l1.2654-.2889h.2292l-.01.807h.04a2.4243,2.4243,0,0,1,1.6042-.8369c.9067,0,1.3352.6277,1.3352,1.7736Zm1.5934-.6277c.2093,1.0263.5879,1.375,1.3253,1.375.4982,0,.8569-.1893.8569-.6576s-.1894-.6576-1.116-1.116c-.9067-.4583-1.3153-.807-1.3153-1.5444,0-.817.6676-1.2554,1.5245-1.2554a2.1883,2.1883,0,0,1,1.0463.259h.01l.1694-.2092h.1993l.03,1.5245h-.269c-.2193-.9466-.5879-1.2356-1.1957-1.2356-.4584,0-.8071.2093-.8071.6577,0,.3886.3288.6377,1.1658,1.0661.9067.4783,1.3949.847,1.3949,1.5843,0,.9366-.7772,1.2953-1.6739,1.2953a2.4946,2.4946,0,0,1-1.1359-.2591h-.02l-.2093.2292h-.2092l-.03-1.7138Zm5.8484,1.6341h-2.2419v-.279c.6676,0,.6975-.1594.6975-.7274V76.07c0-.4285-.1494-.4683-.4384-.4683a1.55,1.55,0,0,0-.2491.02v-.2889l1.2555-.279h.259V78.85c0,.578.05.7274.7174.7274Zm-.548-6.3471a.5494.5494,0,0,1-.5679.568.5554.5554,0,0,1-.568-.568.568.568,0,0,1,1.1359,0Zm4.6728,6.3969h-.2292v-.6875h-.04a2.35,2.35,0,0,1-1.5444.7174c-1.1259,0-1.7038-.9864-1.7038-2.2618a2.3893,2.3893,0,0,1,2.2917-2.65,1.9839,1.9839,0,0,1,.9665.2391V73.9573c0-.4384-.05-.5281-.4384-.5281-.09,0-.2591.02-.2591.02V73.17l1.2555-.3488h.269V78.79c0,.5181.13.6177.4982.6177h.2093v.2691Zm-.2591-3.6867a.9349.9349,0,0,0-.9864-.7971c-.837,0-1.4049.6078-1.4049,1.8633,0,1.375.4583,1.933,1.3052,1.933a1.7039,1.7039,0,0,0,1.0861-.3687Zm6.1072,2.3515a1.9735,1.9735,0,0,1-1.8633,1.385c-1.1956,0-2.1223-.8668-2.1223-2.471,0-1.664.9366-2.4611,2.1024-2.4611,1.0861,0,1.8035.7871,1.8533,2.1821h-3.1486c0,1.375.7573,2.0027,1.5544,2.0027a1.5766,1.5766,0,0,0,1.4348-.7771Zm-.9665-1.7337c-.03-.7373-.3587-1.4149-1.0661-1.4149-.6776,0-1.0761.4883-1.1559,1.4149Zm3.0883-.7572h.03c.5081-.7374.8071-1.0861,1.2853-1.0861a.5146.5146,0,0,1,.5779.558c0,.3786-.2192.538-.4384.538-.3288,0-.5281-.3388-.6476-.3388-.2292,0-.5481.4185-.7872.8171V78.84c0,.6277.1893.7273.9366.7273v.289h-2.491v-.289c.6577,0,.7274-.1195.7274-.6775v-2.74c0-.3587,0-.5381-.3587-.5381a1.9083,1.9083,0,0,0-.3089.02v-.279l1.2355-.2989h.2392Zm4.5232,3.7763h-2.2419v-.279c.6675,0,.6974-.1594.6974-.7274V76.07c0-.4285-.1494-.4683-.4384-.4683a1.55,1.55,0,0,0-.2491.02v-.2889l1.2555-.279h.2591V78.85c0,.578.05.7274.7174.7274Zm-.5481-6.3471a.5494.5494,0,0,1-.5679.568.5554.5554,0,0,1-.568-.568.568.568,0,0,1,1.1359,0Zm5.6194,5.3407c0,.558.07.7274.7373.7274v.279h-2.3017v-.279c.7075,0,.7374-.1694.7374-.7274V77.0462c0-1.1957-.4683-1.385-.9167-1.385a1.8263,1.8263,0,0,0-1.2057.6277V78.85c0,.558.04.7274.7573.7274v.279h-2.2817v-.279c.6676,0,.6974-.1694.6974-.7274v-2.8c0-.3587-.1494-.4385-.4185-.4385a1.51,1.51,0,0,0-.269.02v-.289l1.2654-.2889h.2292l-.01.807h.04a2.4245,2.4245,0,0,1,1.6042-.8369c.9067,0,1.3352.6277,1.3352,1.7736Zm2.2212-.8469a1.4621,1.4621,0,0,1-.7672-1.3551,1.6269,1.6269,0,0,1,1.8035-1.6241,2.47,2.47,0,0,1,1.106.2491l1.2853-.07v.5381l-.9366-.03v.05a1.7108,1.7108,0,0,1,.3587,1.0263,1.5574,1.5574,0,0,1-1.7636,1.5145,2.5738,2.5738,0,0,1-.8569-.1494,1.6669,1.6669,0,0,0-.2591.6675c0,.299.2591.3986,1.1758.3986,1.2554,0,2.212.04,2.212,1.1857,0,1.3352-1.4747,1.7935-2.73,1.7935-1.3053,0-1.6939-.548-1.6939-1.096,0-.3288.269-.6676.8071-1.1857v-.04a.8783.8783,0,0,1-.558-.7174,1.7539,1.7539,0,0,1,.817-1.1359Zm-.2889,2.76c0,.5779.4783.8669,1.4945.8669,1.1758,0,1.6441-.5181,1.6441-.9466,0-.7174-1.0661-.6975-1.7337-.7074-.7971-.01-.9865-.02-1.1259-.02A1.6359,1.6359,0,0,0,315.678,80.7627Zm.3985-4.155c0,.8569.3388,1.3452.9865,1.3452.4982,0,.8668-.279.8668-1.2256,0-.8071-.3587-1.3451-.9964-1.3451C316.4153,75.3822,316.0765,75.7708,316.0765,76.6077Zm8.8869,2.511c-.3886.538-.5979.8369-1.2356.8369-.6676,0-.9565-.3587-.9565-1.2554V75.5615h-.548v-.2291a2.9654,2.9654,0,0,0,1.1259-1.5544h.2591l-.01,1.365h1.1259v.4185h-1.1259v2.86c0,.7074.09.9466.4783.9466.3188,0,.4484-.13.6974-.4086Zm1.8529-.2292c0,.5181.05.6775.7373.6775v.289h-2.2618v-.289c.5181,0,.6975-.08.6975-.6376V73.8278c0-.3488-.2192-.3986-.4883-.3986a2.1115,2.1115,0,0,0-.2889.02V73.17l1.3351-.3488h.2691v3.0191h.03a2.32,2.32,0,0,1,1.6141-.817c1.1459,0,1.3352,1.0263,1.3352,1.8433V78.85c0,.5281.11.7174.7373.7174v.289h-2.2917v-.289c.6875,0,.7274-.1992.7274-.6775V77.1657c0-.817-.11-1.5045-.9167-1.5045a1.81,1.81,0,0,0-1.2355.6177Zm8.2493-.3189a1.9733,1.9733,0,0,1-1.8632,1.385c-1.1957,0-2.1224-.8668-2.1224-2.471,0-1.664.9367-2.4611,2.1024-2.4611,1.0861,0,1.8035.7871,1.8534,2.1821h-3.1487c0,1.375.7573,2.0027,1.5544,2.0027a1.5765,1.5765,0,0,0,1.4348-.7771Zm-.9665-1.7337c-.03-.7373-.3587-1.4149-1.0661-1.4149-.6776,0-1.0761.4883-1.1558,1.4149Zm5.4295,2.0526c0,.5181.05.6775.7373.6775v.289h-2.2618v-.289c.5181,0,.6975-.08.6975-.6376V73.8278c0-.3488-.2192-.3986-.4882-.3986a2.114,2.114,0,0,0-.289.02V73.17l1.3352-.3488h.269v3.0191h.03a2.32,2.32,0,0,1,1.6142-.817c1.1458,0,1.3351,1.0263,1.3351,1.8433V78.85c0,.5281.11.7174.7374.7174v.289h-2.2917v-.289c.6875,0,.7273-.1992.7273-.6775V77.1657c0-.817-.11-1.5045-.9166-1.5045a1.81,1.81,0,0,0-1.2356.6177Zm8.7077-1.4846c0,1.6739-.9167,2.5507-2.212,2.5507-1.395,0-2.2319-.8967-2.2319-2.5109a2.204,2.204,0,0,1,2.2319-2.4212A2.1317,2.1317,0,0,1,348.2363,77.4049Zm-3.5173-.09c0,1.5843.4882,2.2518,1.3451,2.2419.8171,0,1.2555-.4783,1.2555-2.1024,0-1.2256-.4484-2.0526-1.3352-2.0526C345.2272,75.4021,344.719,76.04,344.719,77.3152Zm5.6789-1.2355h.03c.5081-.7374.8071-1.0861,1.2853-1.0861a.5146.5146,0,0,1,.5779.558c0,.3786-.2192.538-.4384.538-.3288,0-.5281-.3388-.6476-.3388-.2292,0-.5481.4185-.7872.8171V78.84c0,.6277.1893.7273.9366.7273v.289h-2.491v-.289c.6577,0,.7274-.1195.7274-.6775v-2.74c0-.3587,0-.5381-.3587-.5381a1.9083,1.9083,0,0,0-.3089.02v-.279l1.2356-.2989h.2391Zm4.5232,3.7763h-2.2419v-.279c.6675,0,.6974-.1594.6974-.7274V76.07c0-.4285-.1494-.4683-.4384-.4683a1.55,1.55,0,0,0-.2491.02v-.2889l1.2555-.279h.2591V78.85c0,.578.05.7274.7174.7274Zm-.5481-6.3471a.5494.5494,0,0,1-.5679.568.5553.5553,0,0,1-.5679-.568.568.568,0,0,1,1.1358,0Zm4.9618,6.3471h-3.8262v-.289l2.8-3.9756v-.03h-1.3452c-.7373,0-.8967.3787-.9864,1.0462h-.3089l.05-1.4647h3.6767v.289l-2.8,3.9856v.03H357.84c.857,0,1.0662-.2591,1.2655-1.1857h.3288Zm5.21-2.4511c0,1.6739-.9167,2.5507-2.212,2.5507-1.3949,0-2.2319-.8967-2.2319-2.5109a2.204,2.204,0,0,1,2.2319-2.4212A2.1316,2.1316,0,0,1,364.5452,77.4049Zm-3.5172-.09c0,1.5843.4882,2.2518,1.3451,2.2419.817,0,1.2554-.4783,1.2554-2.1024,0-1.2256-.4483-2.0526-1.3351-2.0526C361.5361,75.4021,361.028,76.04,361.028,77.3152Zm8.6481,1.5344c0,.558.07.7274.7373.7274v.279h-2.3017v-.279c.7075,0,.7374-.1694.7374-.7274V77.0462c0-1.1957-.4684-1.385-.9167-1.385a1.8261,1.8261,0,0,0-1.2057.6277V78.85c0,.558.04.7274.7573.7274v.279h-2.2818v-.279c.6676,0,.6975-.1694.6975-.7274v-2.8c0-.3587-.1495-.4385-.4185-.4385a1.5087,1.5087,0,0,0-.269.02v-.289l1.2654-.2889h.2292l-.01.807h.04a2.4243,2.4243,0,0,1,1.6042-.8369c.9067,0,1.3352.6277,1.3352,1.7736Zm4.0546.2691c-.3886.538-.5979.8369-1.2356.8369-.6675,0-.9565-.3587-.9565-1.2554V75.5615h-.548v-.2291a2.9654,2.9654,0,0,0,1.1259-1.5544h.2591l-.01,1.365h1.1259v.4185h-1.1259v2.86c0,.7074.09.9466.4783.9466.3188,0,.4484-.13.6975-.4086Zm3.0585.12a2.0578,2.0578,0,0,1-1.4647.6876,1.0764,1.0764,0,0,1-1.1857-1.116c0-1.3153,1.7636-1.5743,2.62-1.8434V76.528c0-.8668-.2989-1.1956-.8968-1.1956-.5679,0-.6675.2092-.6675.807a.4006.4006,0,0,1-.4384.4584.4314.4314,0,0,1-.4185-.4783c0-.558.6676-1.096,1.7536-1.096s1.4946.4982,1.4946,1.5344V78.82c0,.4086.09.4883.299.4883a.6323.6323,0,0,0,.4683-.2491l.1494.1594c-.3288.4783-.5679.6875-1.0761.6875-.4384,0-.538-.2291-.5978-.6676Zm-.03-1.9429c-.9067.2291-1.7437.4982-1.7437,1.2753a.7175.7175,0,0,0,.7174.8071,1.6808,1.6808,0,0,0,1.0263-.4384Zm4.3735,2.5607h-2.2917v-.289c.6576,0,.6975-.1594.6975-.7174V73.8477c0-.4085-.1694-.4284-.4185-.4284a2.7174,2.7174,0,0,0-.3188.02V73.17l1.3152-.3488h.2491V78.85c0,.578.05.7174.7672.7174Zm5.5992-.6178a2.0578,2.0578,0,0,1-1.4647.6876,1.0764,1.0764,0,0,1-1.1858-1.116c0-1.3153,1.7637-1.5743,2.6206-1.8434V76.528c0-.8668-.299-1.1956-.8968-1.1956-.5679,0-.6676.2092-.6676.807a.4006.4006,0,0,1-.4384.4584.4314.4314,0,0,1-.4185-.4783c0-.558.6676-1.096,1.7537-1.096s1.4946.4982,1.4946,1.5344V78.82c0,.4086.09.4883.2989.4883a.6323.6323,0,0,0,.4683-.2491l.15.1594c-.3289.4783-.568.6875-1.0761.6875-.4385,0-.5381-.2291-.5979-.6676Zm-.03-1.9429c-.9068.2291-1.7437.4982-1.7437,1.2753a.7175.7175,0,0,0,.7174.8071,1.6808,1.6808,0,0,0,1.0263-.4384Zm6.5755,1.5543c0,.558.07.7274.7374.7274v.279h-2.3017v-.279c.7074,0,.7373-.1694.7373-.7274V77.0462c0-1.1957-.4683-1.385-.9167-1.385a1.8263,1.8263,0,0,0-1.2057.6277V78.85c0,.558.04.7274.7573.7274v.279h-2.2817v-.279c.6676,0,.6975-.1694.6975-.7274v-2.8c0-.3587-.1495-.4385-.4185-.4385a1.5106,1.5106,0,0,0-.2691.02v-.289l1.2655-.2889h.2291l-.01.807h.04a2.4245,2.4245,0,0,1,1.6042-.8369c.9068,0,1.3352.6277,1.3352,1.7736Zm4.7919,1.0562H397.84v-.6875h-.04a2.35,2.35,0,0,1-1.5444.7174c-1.1259,0-1.7039-.9864-1.7039-2.2618a2.3893,2.3893,0,0,1,2.2918-2.65,1.9839,1.9839,0,0,1,.9665.2391V73.9573c0-.4384-.05-.5281-.4384-.5281-.09,0-.2591.02-.2591.02V73.17l1.2555-.3488h.269V78.79c0,.5181.13.6177.4982.6177h.2092v.2691Zm-.259-3.6867a.9349.9349,0,0,0-.9865-.7971c-.8369,0-1.4049.6078-1.4049,1.8633,0,1.375.4584,1.933,1.3053,1.933a1.7041,1.7041,0,0,0,1.0861-.3687Zm9.0861-.7871c-.3886,0-.548.1395-.7473.6576l-1.5743,3.8262h-.4783l-1.4846-3.7564c-.2591-.6178-.3786-.7274-.8071-.7274v-.289h2.1024v.289c-.3886,0-.5181.09-.5181.2491a.9759.9759,0,0,0,.1.3886l.847,2.222.1893.5978h.06l.2092-.6078.8569-2.2519a1.1,1.1,0,0,0,.07-.3288c0-.2192-.2093-.269-.568-.269v-.289h1.7437Zm4.1045,3.1386a1.9733,1.9733,0,0,1-1.8632,1.385c-1.1957,0-2.1224-.8668-2.1224-2.471,0-1.664.9366-2.4611,2.1024-2.4611,1.0861,0,1.8035.7871,1.8534,2.1821h-3.1487c0,1.375.7573,2.0027,1.5544,2.0027a1.5765,1.5765,0,0,0,1.4348-.7771Zm-.9665-1.7337c-.03-.7373-.3587-1.4149-1.0661-1.4149-.6776,0-1.0761.4883-1.1558,1.4149Zm3.0883-.7572h.03c.5082-.7374.8071-1.0861,1.2854-1.0861a.5146.5146,0,0,1,.5779.558c0,.3786-.2192.538-.4384.538-.3288,0-.5281-.3388-.6477-.3388-.2292,0-.548.4185-.7871.8171V78.84c0,.6277.1893.7273.9366.7273v.289h-2.491v-.289c.6576,0,.7274-.1195.7274-.6775v-2.74c0-.3587,0-.5381-.3587-.5381a1.9083,1.9083,0,0,0-.3089.02v-.279l1.2355-.2989h.2392Zm5.0712,3.039c-.3886.538-.5979.8369-1.2356.8369-.6675,0-.9565-.3587-.9565-1.2554V75.5615h-.548v-.2291A2.9654,2.9654,0,0,0,416.58,73.778h.2591l-.01,1.365h1.1259v.4185H416.829v2.86c0,.7074.09.9466.4783.9466.3188,0,.4483-.13.6975-.4086Zm2.59.7373h-2.2419v-.279c.6676,0,.6975-.1594.6975-.7274V76.07c0-.4285-.1494-.4683-.4384-.4683a1.55,1.55,0,0,0-.2491.02v-.2889l1.2555-.279h.259V78.85c0,.578.05.7274.7174.7274Zm-.548-6.3471a.55.55,0,0,1-.568.568.5553.5553,0,0,1-.5679-.568.568.568,0,0,1,1.1359,0Zm5.0813,5.0119a2.0237,2.0237,0,0,1-1.933,1.4348c-1.2455,0-1.9928-.9665-1.9928-2.3515,0-1.5643.817-2.5806,2.2518-2.5806.9367,0,1.5145.4782,1.5145,1.0562,0,.2889-.1394.4483-.4184.4483-.7374,0-.4086-1.1359-1.2655-1.1359-.807,0-1.2953.5979-1.2953,1.7437,0,1.2156.4883,2.0725,1.5146,2.0725a1.6322,1.6322,0,0,0,1.4348-.827Zm3.2177.7174a2.0578,2.0578,0,0,1-1.4647.6876,1.0764,1.0764,0,0,1-1.1857-1.116c0-1.3153,1.7637-1.5743,2.62-1.8434V76.528c0-.8668-.2989-1.1956-.8967-1.1956-.568,0-.6676.2092-.6676.807a.4006.4006,0,0,1-.4384.4584.4314.4314,0,0,1-.4185-.4783c0-.558.6676-1.096,1.7537-1.096s1.4946.4982,1.4946,1.5344V78.82c0,.4086.09.4883.2989.4883a.6323.6323,0,0,0,.4683-.2491l.1494.1594c-.3288.4783-.5679.6875-1.0761.6875-.4384,0-.538-.2291-.5978-.6676Zm-.03-1.9429c-.9067.2291-1.7437.4982-1.7437,1.2753a.7176.7176,0,0,0,.7175.8071,1.68,1.68,0,0,0,1.0262-.4384Zm4.3735,2.5607h-2.2917v-.289c.6576,0,.6975-.1594.6975-.7174V73.8477c0-.4085-.1694-.4284-.4185-.4284a2.7174,2.7174,0,0,0-.3188.02V73.17l1.3152-.3488h.2491V78.85c0,.578.05.7174.7672.7174Z"/><path d="M15.7607,93.8035V89.6483h-.6768v-.667h.6768v-.23a2.2705,2.2705,0,0,1,.5585-1.6836A1.6752,1.6752,0,0,1,17.495,86.62a2.0468,2.0468,0,0,1,.7471.1387l-.1191.6778a1.3174,1.3174,0,0,0-.5586-.1094c-.7471,0-.9366.6572-.9366,1.3945v.26h1.1661v.667H16.6278v4.1552Z"/><path d="M22.9442,91.3524a2.3568,2.3568,0,0,1-2.4013,2.56,2.2925,2.2925,0,0,1-2.3115-2.48,2.3557,2.3557,0,0,1,2.3916-2.5615A2.284,2.284,0,0,1,22.9442,91.3524Zm-3.8261.05c0,1.0566.6084,1.8535,1.4648,1.8535.8369,0,1.4649-.7871,1.4649-1.8731,0-.8173-.4082-1.8535-1.4444-1.8535S19.1181,90.4852,19.1181,91.4022Z"/><path d="M24.05,90.4852c0-.5674-.01-1.0557-.04-1.5039h.7676l.0292.9463h.04a1.4479,1.4479,0,0,1,1.3349-1.0567.9694.9694,0,0,1,.25.03v.8271a1.3427,1.3427,0,0,0-.2988-.03,1.23,1.23,0,0,0-1.1758,1.126,2.42,2.42,0,0,0-.04.4091v2.57H24.05Z"/><path d="M30.6552,93.6239a3.2176,3.2176,0,0,1-1.3848.2793,2.291,2.291,0,0,1-2.4014-2.461A2.4506,2.4506,0,0,1,29.46,88.8817a2.9229,2.9229,0,0,1,1.2158.249l-.1992.6777a2.03,2.03,0,0,0-1.0166-.23,1.8182,1.8182,0,0,0-.03,3.627,2.4948,2.4948,0,0,0,1.0762-.2393Z"/><path d="M32.17,91.5516a1.5443,1.5443,0,0,0,1.6534,1.6738,3.1649,3.1649,0,0,0,1.3349-.249l.15.6279a3.91,3.91,0,0,1-1.6045.2989,2.24,2.24,0,0,1-2.3721-2.4317,2.342,2.342,0,0,1,2.2627-2.6006,2.0433,2.0433,0,0,1,1.9922,2.2725,3.3741,3.3741,0,0,1-.0293.4082Zm2.57-.6279a1.2488,1.2488,0,0,0-1.2158-1.4248A1.4527,1.4527,0,0,0,32.18,90.9237Z"/><path d="M36.5526,92.9071a2.3035,2.3035,0,0,0,1.1563.3486c.6377,0,.9365-.3193.9365-.7178,0-.418-.249-.6474-.8974-.8867-.8663-.3086-1.2754-.7871-1.2754-1.3652a1.4875,1.4875,0,0,1,1.664-1.4151,2.4045,2.4045,0,0,1,1.1866.3l-.22.6377a1.8719,1.8719,0,0,0-.9863-.2793c-.5176,0-.8066.2989-.8066.6573,0,.3984.289.5781.916.8173.8369.3184,1.2656.7373,1.2656,1.4551,0,.8467-.6572,1.4444-1.8037,1.4444a2.7484,2.7484,0,0,1-1.3545-.3291Z"/><path d="M40.4081,93.285a.5887.5887,0,0,1,.5977-.627.6285.6285,0,0,1-.01,1.2549A.5868.5868,0,0,1,40.4081,93.285Z"/><g class="cls-5"><line class="cls-6" x1="230.7406" y1="143.2595" x2="247.0847" y2="143.2595"/><polygon points="249.789 143.259 245.961 141.815 247.224 143.259 245.961 144.704 249.789 143.259"/><polygon class="cls-6" points="249.789 143.259 245.961 141.815 247.224 143.259 245.961 144.704 249.789 143.259"/><path d="M255.7743,141.0711v1.8438h1.7725v.4707h-1.7725v1.8584h-.5019v-1.8584H253.5v-.4707h1.7725v-1.8438Z"/><line class="cls-6" x1="222.8036" y1="143.2595" x2="206.4595" y2="143.2595"/><polygon points="203.755 143.259 207.583 144.704 206.32 143.259 207.583 141.815 203.755 143.259"/><polygon class="cls-6" points="203.755 143.259 207.583 144.704 206.32 143.259 207.583 141.815 203.755 143.259"/><path d="M199.3446,142.0985v.4707h-4.0468v-.4707Z"/><line class="cls-6" x1="226.7721" y1="139.291" x2="226.7721" y2="122.9469"/><polygon points="226.772 120.243 225.327 124.071 226.772 122.807 228.217 124.071 226.772 120.243"/><polygon class="cls-6" points="226.772 120.243 225.327 124.071 226.772 122.807 228.217 124.071 226.772 120.243"/><path d="M226.6728,112.3231v1.8437h1.7724v.4707h-1.7724v1.8584h-.502v-1.8584h-1.7725v-.4707h1.7725v-1.8437Z"/><line class="cls-6" x1="226.7721" y1="147.228" x2="226.7721" y2="163.5721"/><polygon points="226.772 166.276 228.217 162.448 226.772 163.712 225.327 162.448 226.772 166.276"/><polygon class="cls-6" points="226.772 166.276 228.217 162.448 226.772 163.712 225.327 162.448 226.772 166.276"/><path d="M228.4452,169.6815v.4707h-4.0469v-.4707Z"/></g><path d="M15.7011,196.5116h3.6172v.7275h-2.75v2.2314h2.541v.7178h-2.541v3.0391h-.8672Z"/><path d="M24.4989,200.7762a2.3568,2.3568,0,0,1-2.4013,2.5605,2.292,2.292,0,0,1-2.3116-2.48,2.3552,2.3552,0,0,1,2.3916-2.5615A2.2839,2.2839,0,0,1,24.4989,200.7762Zm-3.8261.05c0,1.0566.6074,1.8535,1.4648,1.8535.8369,0,1.4648-.7871,1.4648-1.873,0-.8174-.4091-1.8535-1.4453-1.8535S20.6728,199.909,20.6728,200.826Z"/><path d="M25.6044,199.909c0-.5674-.0107-1.0557-.04-1.5039h.7675l.0293.9463h.04a1.4467,1.4467,0,0,1,1.3349-1.0566.9629.9629,0,0,1,.2491.03v.8272a1.3322,1.3322,0,0,0-.2989-.03,1.2305,1.2305,0,0,0-1.1757,1.126,2.5165,2.5165,0,0,0-.04.4092v2.57h-.8662Z"/><path d="M33.873,203.2274l-.0694-.6075h-.03a1.7967,1.7967,0,0,1-1.4746.7168,1.3738,1.3738,0,0,1-1.4746-1.3847c0-1.166,1.0362-1.8037,2.8994-1.794v-.1a.9934.9934,0,0,0-1.0957-1.1152,2.4,2.4,0,0,0-1.2558.3584l-.1992-.5781a2.9984,2.9984,0,0,1,1.5849-.4287c1.4746,0,1.833,1.0068,1.833,1.9736v1.8027a6.7191,6.7191,0,0,0,.08,1.1563Zm-.129-2.461c-.957-.02-2.0429.1494-2.0429,1.086a.7758.7758,0,0,0,.8271.8369,1.2,1.2,0,0,0,1.166-.8067.9348.9348,0,0,0,.05-.2793Z"/><path d="M38.3065,203.2274c.02-.3291.04-.8174.04-1.2451v-5.8291h.8662v3.0292h.02a1.7956,1.7956,0,0,1,1.6436-.8876,2.1653,2.1653,0,0,1,2.0332,2.4619,2.2911,2.2911,0,0,1-2.1621,2.58,1.7167,1.7167,0,0,1-1.6143-.9062h-.03l-.04.7969Zm.9063-1.9326a1.6721,1.6721,0,0,0,.04.3183,1.3535,1.3535,0,0,0,1.3155,1.0264c.916,0,1.4648-.7471,1.4648-1.8535,0-.9659-.498-1.793-1.4355-1.793a1.3978,1.3978,0,0,0-1.335,1.0762,1.7518,1.7518,0,0,0-.05.3584Z"/><path d="M48.3788,200.7762a2.3568,2.3568,0,0,1-2.4014,2.5605,2.2926,2.2926,0,0,1-2.3115-2.48,2.3557,2.3557,0,0,1,2.3916-2.5615A2.2839,2.2839,0,0,1,48.3788,200.7762Zm-3.8262.05c0,1.0566.6075,1.8535,1.4649,1.8535.8369,0,1.4648-.7871,1.4648-1.873,0-.8174-.4082-1.8535-1.4453-1.8535S44.5526,199.909,44.5526,200.826Z"/><path d="M53.6493,196.1532v5.8291c0,.4277.01.916.04,1.2451h-.7871l-.04-.8369h-.02a1.7823,1.7823,0,0,1-1.6435.9462,2.1983,2.1983,0,0,1-2.0625-2.4511,2.3075,2.3075,0,0,1,2.1621-2.5908,1.6154,1.6154,0,0,1,1.455.7373h.02v-2.8789Zm-.8769,4.2148a1.525,1.525,0,0,0-.04-.3691,1.2893,1.2893,0,0,0-1.2656-1.0166c-.9062,0-1.4443.7978-1.4443,1.8632,0,.9766.4785,1.7842,1.4248,1.7842a1.3176,1.3176,0,0,0,1.2851-1.0469,1.4945,1.4945,0,0,0,.04-.3779Z"/><path d="M55.4218,198.4051l1.0566,2.85c.1094.3184.2285.6973.3086.9863h.02c.09-.289.19-.6582.31-1.0068l.9561-2.8291h.9267l-1.3154,3.4375a7.3356,7.3356,0,0,1-1.6533,3.0186,2.38,2.38,0,0,1-1.0762.5683l-.22-.7373a2.3252,2.3252,0,0,0,.7676-.4287,2.66,2.66,0,0,0,.7373-.9766.6226.6226,0,0,0,.0693-.2089.7614.7614,0,0,0-.06-.23l-1.7832-4.4434Z"/><path d="M63.1132,197.05a.543.543,0,0,1-1.0859,0,.5338.5338,0,0,1,.5478-.5478A.52.52,0,0,1,63.1132,197.05Zm-.9766,6.1778v-4.8223h.877v4.8223Z"/><path d="M64.4677,199.71c0-.4981-.01-.9063-.04-1.3047h.7774l.05.7969h.02a1.7728,1.7728,0,0,1,1.5937-.9072c.668,0,1.7042.3994,1.7042,2.0527v2.88h-.877v-2.78c0-.7773-.2891-1.4248-1.1162-1.4248a1.2462,1.2462,0,0,0-1.1758.8975,1.2783,1.2783,0,0,0-.06.4082v2.8994h-.8769Z"/><path d="M73.3944,197.0194v1.3857H74.65v.667H73.3944v2.6006c0,.5986.17.9365.6573.9365a1.9368,1.9368,0,0,0,.5088-.06l.039.6582a2.1479,2.1479,0,0,1-.7763.1192,1.2193,1.2193,0,0,1-.9473-.3682,1.7885,1.7885,0,0,1-.3389-1.2558v-2.6309H71.79v-.667h.7471v-1.1562Z"/><path d="M75.6357,199.909c0-.5674-.01-1.0557-.04-1.5039h.7676l.03.9463h.04a1.4469,1.4469,0,0,1,1.335-1.0566.9677.9677,0,0,1,.249.03v.8272a1.3376,1.3376,0,0,0-.2988-.03,1.23,1.23,0,0,0-1.1758,1.126,2.42,2.42,0,0,0-.04.4092v2.57h-.8671Z"/><path d="M81.4247,203.2274l-.07-.6075h-.0293a1.7981,1.7981,0,0,1-1.4746.7168,1.3738,1.3738,0,0,1-1.4746-1.3847c0-1.166,1.0361-1.8037,2.8994-1.794v-.1a.9938.9938,0,0,0-1.0967-1.1152,2.3969,2.3969,0,0,0-1.2549.3584l-.1992-.5781a2.9954,2.9954,0,0,1,1.584-.4287c1.4746,0,1.833,1.0068,1.833,1.9736v1.8027a6.8106,6.8106,0,0,0,.08,1.1563Zm-.13-2.461c-.956-.02-2.0429.1494-2.0429,1.086a.7758.7758,0,0,0,.8271.8369,1.2,1.2,0,0,0,1.166-.8067.9043.9043,0,0,0,.05-.2793Z"/><path d="M83.5565,199.71c0-.4981-.0107-.9063-.04-1.3047h.7764l.0508.7969h.02a1.7739,1.7739,0,0,1,1.5937-.9072c.668,0,1.7041.3994,1.7041,2.0527v2.88h-.8769v-2.78c0-.7773-.2891-1.4248-1.1162-1.4248a1.248,1.248,0,0,0-1.1758.8975,1.2783,1.2783,0,0,0-.06.4082v2.8994h-.876Z"/><path d="M88.9657,202.3309a2.3028,2.3028,0,0,0,1.1553.3486c.6387,0,.9375-.3193.9375-.7178,0-.4179-.25-.6474-.8975-.8867-.8662-.3086-1.2753-.7871-1.2753-1.3652a1.4874,1.4874,0,0,1,1.664-1.415,2.3963,2.3963,0,0,1,1.1856.3l-.2188.6377a1.871,1.871,0,0,0-.9863-.2793c-.5186,0-.8076.2988-.8076.6572,0,.3984.289.5781.917.8174.8369.3183,1.2656.7373,1.2656,1.455,0,.8467-.6582,1.4444-1.8037,1.4444a2.7524,2.7524,0,0,1-1.3555-.3291Z"/><path d="M93.03,196.1532h.8769v7.0742H93.03Z"/><path d="M98.0517,203.2274l-.0694-.6075h-.03a1.797,1.797,0,0,1-1.4747.7168,1.3738,1.3738,0,0,1-1.4746-1.3847c0-1.166,1.0362-1.8037,2.9-1.794v-.1a.9935.9935,0,0,0-1.0958-1.1152,2.4,2.4,0,0,0-1.2558.3584l-.1992-.5781a2.9948,2.9948,0,0,1,1.584-.4287c1.4746,0,1.8339,1.0068,1.8339,1.9736v1.8027a6.8278,6.8278,0,0,0,.0791,1.1563Zm-.13-2.461c-.9561-.02-2.042.1494-2.042,1.086a.7758.7758,0,0,0,.8271.8369,1.2013,1.2013,0,0,0,1.1661-.8067.9331.9331,0,0,0,.0488-.2793Z"/><path d="M101.24,197.0194v1.3857h1.2549v.667H101.24v2.6006c0,.5986.169.9365.6573.9365a1.928,1.928,0,0,0,.5078-.06l.04.6582a2.154,2.154,0,0,1-.7773.1192,1.2172,1.2172,0,0,1-.9463-.3682,1.7885,1.7885,0,0,1-.3389-1.2558v-2.6309h-.747v-.667h.747v-1.1562Z"/><path d="M104.4569,197.05a.543.543,0,0,1-1.0859,0,.5346.5346,0,0,1,.5488-.5478A.52.52,0,0,1,104.4569,197.05Zm-.9755,6.1778v-4.8223h.8759v4.8223Z"/><path d="M110.1767,200.7762a2.3569,2.3569,0,0,1-2.4014,2.5605,2.292,2.292,0,0,1-2.3115-2.48,2.3551,2.3551,0,0,1,2.3916-2.5615A2.284,2.284,0,0,1,110.1767,200.7762Zm-3.8262.05c0,1.0566.6074,1.8535,1.4648,1.8535.837,0,1.4639-.7871,1.4639-1.873,0-.8174-.4082-1.8535-1.4443-1.8535S106.3505,199.909,106.3505,200.826Z"/><path d="M111.2812,199.71c0-.4981-.01-.9063-.0391-1.3047h.7773l.0489.7969h.0205a1.7739,1.7739,0,0,1,1.5937-.9072c.668,0,1.7041.3994,1.7041,2.0527v2.88H114.51v-2.78c0-.7773-.2891-1.4248-1.1153-1.4248a1.29,1.29,0,0,0-1.2363,1.3057v2.8994h-.8769Z"/><path d="M119.4814,203.2274l-.07-.6075h-.0293a1.7981,1.7981,0,0,1-1.4746.7168,1.3738,1.3738,0,0,1-1.4746-1.3847c0-1.166,1.0362-1.8037,2.8994-1.794v-.1a.9937.9937,0,0,0-1.0966-1.1152,2.3963,2.3963,0,0,0-1.2549.3584l-.1992-.5781a2.9947,2.9947,0,0,1,1.5839-.4287c1.4747,0,1.8331,1.0068,1.8331,1.9736v1.8027a6.8216,6.8216,0,0,0,.08,1.1563Zm-.13-2.461c-.9561-.02-2.043.1494-2.043,1.086a.7759.7759,0,0,0,.8272.8369,1.2,1.2,0,0,0,1.166-.8067.9073.9073,0,0,0,.05-.2793Z"/><path d="M121.6132,196.1532h.8769v7.0742h-.8769Z"/><path d="M126.7929,200.9754a1.5453,1.5453,0,0,0,1.6543,1.6738,3.172,3.172,0,0,0,1.3359-.249l.1484.628a3.8979,3.8979,0,0,1-1.6035.2988,2.24,2.24,0,0,1-2.3711-2.4317,2.3412,2.3412,0,0,1,2.2618-2.6,2.0432,2.0432,0,0,1,1.9921,2.2724,3.3724,3.3724,0,0,1-.0293.4082Zm2.5713-.6279a1.2489,1.2489,0,0,0-1.2159-1.4248,1.4528,1.4528,0,0,0-1.3447,1.4248Z"/><path d="M134.5839,202.48h-.0195a1.7153,1.7153,0,0,1-1.5743.8564,2.2,2.2,0,0,1-2.0429-2.4414,2.3112,2.3112,0,0,1,2.1826-2.6,1.5849,1.5849,0,0,1,1.4844.8378h.02l.0293-.7275h.8271c-.02.4082-.03.8272-.03,1.3252v5.47h-.8769Zm0-2.123a1.52,1.52,0,0,0-.0391-.3682,1.2814,1.2814,0,0,0-1.2558-.9961c-.9063,0-1.4551.7666-1.4551,1.8525,0,.9571.459,1.794,1.4258,1.794a1.306,1.306,0,0,0,1.2549-.9561,1.4711,1.4711,0,0,0,.0693-.4189Z"/><path d="M140.94,201.9119c0,.4981.01.9366.04,1.3155h-.7774l-.05-.7871h-.0195a1.8149,1.8149,0,0,1-1.5947.8964c-.7569,0-1.6641-.4179-1.6641-2.1123v-2.8193h.877v2.67c0,.917.2793,1.5342,1.0761,1.5342a1.2688,1.2688,0,0,0,1.1563-.7969,1.3033,1.3033,0,0,0,.0791-.4482v-2.959h.8769Z"/><path d="M143.371,197.05a.543.543,0,0,1-1.0859,0,.5338.5338,0,0,1,.5478-.5478A.52.52,0,0,1,143.371,197.05Zm-.9766,6.1778v-4.8223h.877v4.8223Z"/><path d="M144.7255,196.1532h.8769v7.0742h-.8769Z"/><path d="M148.0536,197.05a.5435.5435,0,0,1-1.0869,0,.5346.5346,0,0,1,.5488-.5478A.5208.5208,0,0,1,148.0536,197.05Zm-.9765,6.1778v-4.8223h.8769v4.8223Z"/><path d="M149.3681,203.2274c.02-.3291.04-.8174.04-1.2451v-5.8291h.8672v3.0292h.02a1.7973,1.7973,0,0,1,1.6446-.8876c1.1953,0,2.042.997,2.0322,2.4619a2.291,2.291,0,0,1-2.1621,2.58,1.7167,1.7167,0,0,1-1.6143-.9062h-.03l-.04.7969Zm.9072-1.9326a1.6646,1.6646,0,0,0,.0391.3183A1.3541,1.3541,0,0,0,151.63,202.64c.917,0,1.4648-.7471,1.4648-1.8535,0-.9659-.498-1.793-1.4345-1.793a1.3989,1.3989,0,0,0-1.336,1.0762,1.7576,1.7576,0,0,0-.0488.3584Z"/><path d="M155.0761,199.909c0-.5674-.01-1.0557-.0391-1.5039h.7676l.0293.9463h.04a1.4469,1.4469,0,0,1,1.335-1.0566.9621.9621,0,0,1,.249.03v.8272a1.3306,1.3306,0,0,0-.2988-.03,1.2305,1.2305,0,0,0-1.1758,1.126,2.5284,2.5284,0,0,0-.04.4092v2.57h-.8672Z"/><path d="M159.3105,197.05a.543.543,0,0,1-1.086,0,.5344.5344,0,0,1,.5479-.5478A.52.52,0,0,1,159.3105,197.05Zm-.9766,6.1778v-4.8223h.8769v4.8223Z"/><path d="M164.7011,201.9119c0,.4981.01.9366.04,1.3155h-.7773l-.05-.7871h-.02a1.8161,1.8161,0,0,1-1.5947.8964c-.7568,0-1.664-.4179-1.664-2.1123v-2.8193h.8769v2.67c0,.917.2783,1.5342,1.0762,1.5342a1.2344,1.2344,0,0,0,1.2353-1.2451v-2.959h.877Z"/><path d="M166.1542,199.71c0-.4981-.01-.9063-.0391-1.3047h.7676l.0391.7773h.03a1.6615,1.6615,0,0,1,1.5146-.8876,1.4278,1.4278,0,0,1,1.3652.9668h.02a1.991,1.991,0,0,1,.5381-.628,1.6482,1.6482,0,0,1,1.0664-.3388c.6377,0,1.5839.4189,1.5839,2.0927v2.84h-.8564v-2.73c0-.9268-.34-1.4844-1.0469-1.4844a1.1359,1.1359,0,0,0-1.0361.7969,1.4446,1.4446,0,0,0-.0693.4385v2.98h-.8575v-2.89c0-.7676-.3388-1.3252-1.0058-1.3252a1.3092,1.3092,0,0,0-1.1563,1.3057v2.9092h-.8574Z"/><path d="M173.8954,204.453a14.3565,14.3565,0,0,0,.5986-2.3819l.9756-.1a12.09,12.09,0,0,1-.9463,2.4219Z"/><path d="M179.9228,197.0194v1.3857h1.2558v.667h-1.2558v2.6006c0,.5986.17.9365.6582.9365a1.928,1.928,0,0,0,.5078-.06l.04.6582a2.158,2.158,0,0,1-.7773.1192,1.2172,1.2172,0,0,1-.9463-.3682,1.7885,1.7885,0,0,1-.3389-1.2558v-2.6309h-.7471v-.667h.7471v-1.1562Z"/><path d="M182.164,196.1532h.8769v3.0087h.02a1.624,1.624,0,0,1,.628-.6171,1.7927,1.7927,0,0,1,.8964-.25c.6475,0,1.6836.3994,1.6836,2.0625v2.87h-.8769v-2.77c0-.7773-.2891-1.4355-1.1152-1.4355a1.2589,1.2589,0,0,0-1.1758.8769,1.0641,1.0641,0,0,0-.0606.419v2.9092h-.8769Z"/><path d="M188.1815,200.9754a1.5454,1.5454,0,0,0,1.6543,1.6738,3.1721,3.1721,0,0,0,1.336-.249l.1484.628a3.8983,3.8983,0,0,1-1.6035.2988,2.24,2.24,0,0,1-2.3711-2.4317,2.3412,2.3412,0,0,1,2.2617-2.6,2.0433,2.0433,0,0,1,1.9922,2.2724,3.3724,3.3724,0,0,1-.0293.4082Zm2.5713-.6279a1.2489,1.2489,0,0,0-1.2158-1.4248,1.4527,1.4527,0,0,0-1.3447,1.4248Z"/><path d="M195.1161,203.2274v-4.1553h-.6777v-.667h.6777v-.23a2.2738,2.2738,0,0,1,.5576-1.6836,1.6767,1.6767,0,0,1,1.1758-.4482,2.0431,2.0431,0,0,1,.7471.1386l-.1192.6778a1.3151,1.3151,0,0,0-.5576-.1094c-.748,0-.9375.6572-.9375,1.3945v.26h1.166v.667h-1.166v4.1553Z"/><path d="M202.3,200.7762a2.3568,2.3568,0,0,1-2.4014,2.5605,2.292,2.292,0,0,1-2.3115-2.48,2.3552,2.3552,0,0,1,2.3916-2.5615A2.2839,2.2839,0,0,1,202.3,200.7762Zm-3.8262.05c0,1.0566.6075,1.8535,1.4649,1.8535.8369,0,1.4639-.7871,1.4639-1.873,0-.8174-.4083-1.8535-1.4444-1.8535S198.4735,199.909,198.4735,200.826Z"/><path d="M203.4042,199.909c0-.5674-.01-1.0557-.0391-1.5039h.7676l.0293.9463h.04a1.4467,1.4467,0,0,1,1.3349-1.0566.9621.9621,0,0,1,.249.03v.8272a1.3306,1.3306,0,0,0-.2988-.03,1.2305,1.2305,0,0,0-1.1758,1.126,2.5284,2.5284,0,0,0-.04.4092v2.57h-.8672Z"/><path d="M210.0107,203.0477a3.2234,3.2234,0,0,1-1.3858.2793,2.2907,2.2907,0,0,1-2.4-2.461,2.45,2.45,0,0,1,2.59-2.5605,2.9229,2.9229,0,0,1,1.2158.249l-.1992.6778a2.0259,2.0259,0,0,0-1.0166-.23,1.8181,1.8181,0,0,0-.0293,3.6269,2.4994,2.4994,0,0,0,1.0761-.2392Z"/><path d="M211.5243,200.9754a1.5442,1.5442,0,0,0,1.6533,1.6738,3.1721,3.1721,0,0,0,1.336-.249l.1494.628a3.9077,3.9077,0,0,1-1.6045.2988,2.24,2.24,0,0,1-2.3711-2.4317,2.3412,2.3412,0,0,1,2.2617-2.6,2.0433,2.0433,0,0,1,1.9922,2.2724,3.3724,3.3724,0,0,1-.0293.4082Zm2.57-.6279a1.2483,1.2483,0,0,0-1.2158-1.4248,1.4527,1.4527,0,0,0-1.3447,1.4248Z"/><path d="M215.9081,202.3309a2.3,2.3,0,0,0,1.1553.3486c.6377,0,.9365-.3193.9365-.7178,0-.4179-.249-.6474-.8965-.8867-.8672-.3086-1.2754-.7871-1.2754-1.3652a1.487,1.487,0,0,1,1.6641-1.415,2.3986,2.3986,0,0,1,1.1855.3l-.2187.6377a1.8754,1.8754,0,0,0-.9873-.2793c-.5176,0-.8067.2988-.8067.6572,0,.3984.2891.5781.917.8174.836.3183,1.2647.7373,1.2647,1.455,0,.8467-.6572,1.4444-1.8037,1.4444a2.7509,2.7509,0,0,1-1.3545-.3291Z"/><path d="M224.9843,203.2274l-.07-.6075h-.0293a1.7983,1.7983,0,0,1-1.4746.7168,1.3746,1.3746,0,0,1-1.4756-1.3847c0-1.166,1.0361-1.8037,2.8994-1.794v-.1a.9935.9935,0,0,0-1.0957-1.1152,2.4029,2.4029,0,0,0-1.2559.3584l-.1992-.5781a2.9961,2.9961,0,0,1,1.585-.4287c1.4746,0,1.833,1.0068,1.833,1.9736v1.8027a6.7091,6.7091,0,0,0,.08,1.1563Zm-.13-2.461c-.9561-.02-2.043.1494-2.043,1.086a.7759.7759,0,0,0,.8272.8369,1.2,1.2,0,0,0,1.166-.8067.9348.9348,0,0,0,.05-.2793Z"/><path d="M230.5526,203.0477a3.2136,3.2136,0,0,1-1.3847.2793,2.2909,2.2909,0,0,1-2.4014-2.461,2.4505,2.4505,0,0,1,2.5908-2.5605,2.9269,2.9269,0,0,1,1.2159.249l-.1993.6778a2.0285,2.0285,0,0,0-1.0166-.23,1.8181,1.8181,0,0,0-.0293,3.6269,2.4906,2.4906,0,0,0,1.0752-.2392Z"/><path d="M232.6347,197.0194v1.3857h1.2558v.667h-1.2558v2.6006c0,.5986.17.9365.6582.9365a1.934,1.934,0,0,0,.5078-.06l.04.6582a2.1536,2.1536,0,0,1-.7773.1192,1.2172,1.2172,0,0,1-.9463-.3682,1.7885,1.7885,0,0,1-.3389-1.2558v-2.6309h-.747v-.667h.747v-1.1562Z"/><path d="M235.8524,197.05a.543.543,0,0,1-1.0859,0,.5344.5344,0,0,1,.5479-.5478A.52.52,0,0,1,235.8524,197.05Zm-.9765,6.1778v-4.8223h.8769v4.8223Z"/><path d="M237.2069,199.71c0-.4981-.01-.9063-.039-1.3047h.7773l.0488.7969h.0206a1.7743,1.7743,0,0,1,1.5947-.9072c.667,0,1.7031.3994,1.7031,2.0527v2.88h-.8769v-2.78c0-.7773-.2891-1.4248-1.1153-1.4248a1.2893,1.2893,0,0,0-1.2363,1.3057v2.8994h-.877Z"/><path d="M246.8915,198.4051c-.0195.3486-.04.7373-.04,1.3252v2.8a2.7736,2.7736,0,0,1-.6875,2.2022,2.5539,2.5539,0,0,1-1.753.5771,3.1073,3.1073,0,0,1-1.6045-.3984l.2188-.667a2.7229,2.7229,0,0,0,1.415.3779c.8975,0,1.5547-.4678,1.5547-1.6836V202.4h-.02a1.7212,1.7212,0,0,1-1.5342.8076,2.1555,2.1555,0,0,1-2.0517-2.3515,2.3146,2.3146,0,0,1,2.1719-2.5615,1.6017,1.6017,0,0,1,1.5039.8378h.02l.04-.7275Zm-.9062,1.9023a1.2831,1.2831,0,0,0-1.2754-1.3251c-.8369,0-1.4346.708-1.4346,1.8242,0,.9463.4775,1.7334,1.4238,1.7334a1.2826,1.2826,0,0,0,1.2168-.8965,1.556,1.556,0,0,0,.0694-.4688Z"/><path d="M254.6825,201.9119c0,.4981.01.9366.04,1.3155h-.7774l-.05-.7871h-.02a1.8131,1.8131,0,0,1-1.5937.8964c-.7579,0-1.6641-.4179-1.6641-2.1123v-2.8193h.8769v2.67c0,.917.2793,1.5342,1.0762,1.5342a1.2662,1.2662,0,0,0,1.1553-.7969,1.28,1.28,0,0,0,.08-.4482v-2.959h.8769Z"/><path d="M256.1366,199.9793c0-.6181-.02-1.1162-.04-1.5742h.7871l.04.8272h.02a1.8963,1.8963,0,0,1,1.7138-.9375,2.1846,2.1846,0,0,1,2.042,2.4511c0,1.7344-1.0556,2.5908-2.1914,2.5908a1.69,1.69,0,0,1-1.4844-.7568h-.0205v2.62h-.8662Zm.8662,1.2852a1.9937,1.9937,0,0,0,.04.3584,1.3522,1.3522,0,0,0,1.3154,1.0263c.9268,0,1.4649-.7568,1.4649-1.8632,0-.9659-.5088-1.793-1.4346-1.793a1.3991,1.3991,0,0,0-1.3262,1.0859,1.4485,1.4485,0,0,0-.06.3584Z"/><path d="M262.1542,198.4051l.6367,2.4512c.14.5381.27,1.0361.3594,1.5342h.0293c.1094-.4883.2695-1.0069.4287-1.5245l.7871-2.4609h.7373l.7481,2.4111c.1787.5782.3183,1.086.4277,1.5743h.03a14.4466,14.4466,0,0,1,.3681-1.5645l.6875-2.4209h.8672l-1.5547,4.8223H265.91l-.7373-2.3018a16.4015,16.4015,0,0,1-.4288-1.584h-.02a14.1961,14.1961,0,0,1-.4385,1.5938l-.7773,2.292h-.7969l-1.4551-4.8223Z"/><path d="M271.6679,203.2274l-.0694-.6075h-.03a1.7968,1.7968,0,0,1-1.4746.7168,1.3738,1.3738,0,0,1-1.4747-1.3847c0-1.166,1.0362-1.8037,2.8995-1.794v-.1a.9935.9935,0,0,0-1.0957-1.1152,2.4,2.4,0,0,0-1.2559.3584l-.1992-.5781a2.9958,2.9958,0,0,1,1.5849-.4287c1.4747,0,1.8331,1.0068,1.8331,1.9736v1.8027a6.8174,6.8174,0,0,0,.0791,1.1563Zm-.1289-2.461c-.9571-.02-2.043.1494-2.043,1.086a.7759.7759,0,0,0,.8272.8369,1.198,1.198,0,0,0,1.165-.8067.906.906,0,0,0,.0508-.2793Z"/><path d="M273.8,199.909c0-.5674-.01-1.0557-.04-1.5039h.7676l.0292.9463h.04a1.4478,1.4478,0,0,1,1.3349-1.0566.9746.9746,0,0,1,.25.03v.8272a1.3363,1.3363,0,0,0-.2988-.03,1.23,1.23,0,0,0-1.1758,1.126,2.4206,2.4206,0,0,0-.04.4092v2.57H273.8Z"/><path d="M281.1327,196.1532v5.8291c0,.4277.01.916.04,1.2451h-.7871l-.04-.8369h-.0195a1.7851,1.7851,0,0,1-1.6446.9462,2.1983,2.1983,0,0,1-2.0625-2.4511,2.3076,2.3076,0,0,1,2.1622-2.5908,1.6154,1.6154,0,0,1,1.455.7373h.02v-2.8789Zm-.8769,4.2148a1.525,1.525,0,0,0-.04-.3691,1.289,1.289,0,0,0-1.2646-1.0166c-.9072,0-1.4453.7978-1.4453,1.8632,0,.9766.4785,1.7842,1.4248,1.7842a1.3177,1.3177,0,0,0,1.2851-1.0469,1.4945,1.4945,0,0,0,.04-.3779Z"/><path d="M282.4667,202.3309a2.3067,2.3067,0,0,0,1.1563.3486c.6377,0,.9365-.3193.9365-.7178,0-.4179-.249-.6474-.8965-.8867-.8672-.3086-1.2754-.7871-1.2754-1.3652a1.4875,1.4875,0,0,1,1.6641-1.415,2.3959,2.3959,0,0,1,1.1855.3l-.22.6377a1.8683,1.8683,0,0,0-.9863-.2793c-.5176,0-.8067.2988-.8067.6572,0,.3984.2891.5781.916.8174.8379.3183,1.2657.7373,1.2657,1.455,0,.8467-.6573,1.4444-1.8028,1.4444a2.7517,2.7517,0,0,1-1.3554-.3291Z"/><path d="M288.873,199.71c0-.4981-.01-.9063-.04-1.3047h.7676l.04.7773h.0293a1.663,1.663,0,0,1,1.5147-.8876,1.427,1.427,0,0,1,1.3652.9668h.0205a1.9786,1.9786,0,0,1,.5371-.628,1.65,1.65,0,0,1,1.0664-.3388c.6377,0,1.584.4189,1.584,2.0927v2.84h-.8564v-2.73c0-.9268-.3389-1.4844-1.0459-1.4844a1.1381,1.1381,0,0,0-1.0371.7969,1.4728,1.4728,0,0,0-.0694.4385v2.98h-.8564v-2.89c0-.7676-.3389-1.3252-1.0068-1.3252a1.1984,1.1984,0,0,0-1.086.877,1.2119,1.2119,0,0,0-.0693.4287v2.9092h-.8574Z"/><path d="M301.2167,201.9119c0,.4981.0107.9366.041,1.3155H300.48l-.0508-.7871H300.41a1.8132,1.8132,0,0,1-1.5938.8964c-.7578,0-1.664-.4179-1.664-2.1123v-2.8193h.8769v2.67c0,.917.2783,1.5342,1.0762,1.5342a1.2662,1.2662,0,0,0,1.1553-.7969,1.28,1.28,0,0,0,.08-.4482v-2.959h.876Z"/><path d="M302.5517,202.3309a2.3031,2.3031,0,0,0,1.1562.3486c.6377,0,.9365-.3193.9365-.7178,0-.4179-.249-.6474-.8964-.8867-.8672-.3086-1.2754-.7871-1.2754-1.3652a1.4869,1.4869,0,0,1,1.664-1.415,2.3993,2.3993,0,0,1,1.1856.3l-.22.6377a1.8707,1.8707,0,0,0-.9863-.2793c-.5185,0-.8076.2988-.8076.6572,0,.3984.2891.5781.917.8174.8369.3183,1.2656.7373,1.2656,1.455,0,.8467-.6572,1.4444-1.8037,1.4444a2.7512,2.7512,0,0,1-1.3545-.3291Z"/><path d="M307.6728,197.0194v1.3857h1.2548v.667h-1.2548v2.6006c0,.5986.1689.9365.6572.9365a1.928,1.928,0,0,0,.5078-.06l.041.6582a2.1616,2.1616,0,0,1-.7773.1192,1.218,1.218,0,0,1-.9473-.3682,1.7886,1.7886,0,0,1-.3379-1.2558v-2.6309h-.748v-.667h.748v-1.1562Z"/><path d="M312.744,200.9754a1.5447,1.5447,0,0,0,1.6534,1.6738,3.1633,3.1633,0,0,0,1.3349-.249l.15.628a3.9112,3.9112,0,0,1-1.6045.2988,2.24,2.24,0,0,1-2.372-2.4317,2.3417,2.3417,0,0,1,2.2617-2.6,2.0434,2.0434,0,0,1,1.9931,2.2724,3.1606,3.1606,0,0,1-.03.4082Zm2.57-.6279a1.2489,1.2489,0,0,0-1.2159-1.4248,1.4528,1.4528,0,0,0-1.3447,1.4248Z"/><path d="M320.5351,202.48h-.0205a1.7153,1.7153,0,0,1-1.5743.8564,2.1989,2.1989,0,0,1-2.042-2.4414,2.3106,2.3106,0,0,1,2.1817-2.6,1.5849,1.5849,0,0,1,1.4844.8378h.02l.03-.7275h.8271c-.0195.4082-.0293.8272-.0293,1.3252v5.47h-.8769Zm0-2.123a1.472,1.472,0,0,0-.04-.3682,1.2823,1.2823,0,0,0-1.2558-.9961c-.9063,0-1.4541.7666-1.4541,1.8525,0,.9571.458,1.794,1.4238,1.794a1.3062,1.3062,0,0,0,1.2559-.9561,1.472,1.472,0,0,0,.07-.4189Z"/><path d="M326.8905,201.9119c0,.4981.01.9366.04,1.3155h-.7774l-.05-.7871h-.0195a1.8162,1.8162,0,0,1-1.5947.8964c-.7569,0-1.6641-.4179-1.6641-2.1123v-2.8193h.877v2.67c0,.917.2793,1.5342,1.0761,1.5342a1.2344,1.2344,0,0,0,1.2354-1.2451v-2.959h.8769Z"/><path d="M331.0155,203.2274l-.07-.6075h-.0293a1.7981,1.7981,0,0,1-1.4746.7168,1.3747,1.3747,0,0,1-1.4756-1.3847c0-1.166,1.0362-1.8037,2.8994-1.794v-.1a.9934.9934,0,0,0-1.0957-1.1152,2.4025,2.4025,0,0,0-1.2558.3584l-.1992-.5781a2.9958,2.9958,0,0,1,1.5849-.4287c1.4746,0,1.833,1.0068,1.833,1.9736v1.8027a6.7191,6.7191,0,0,0,.08,1.1563Zm-.13-2.461c-.9561-.02-2.043.1494-2.043,1.086a.7758.7758,0,0,0,.8271.8369,1.2,1.2,0,0,0,1.166-.8067.935.935,0,0,0,.05-.2793Z"/><path d="M333.1464,196.1532h.8769v7.0742h-.8769Z"/><path d="M338.8954,197.0194v1.3857H340.15v.667h-1.2549v2.6006c0,.5986.169.9365.6572.9365a1.9289,1.9289,0,0,0,.5079-.06l.041.6582a2.1627,2.1627,0,0,1-.7774.1192,1.2177,1.2177,0,0,1-.9472-.3682,1.7881,1.7881,0,0,1-.3379-1.2558v-2.6309h-.7481v-.667h.7481v-1.1562Z"/><path d="M341.1366,196.1532h.877v3.0087h.0195a1.6312,1.6312,0,0,1,.6279-.6171,1.7931,1.7931,0,0,1,.8965-.25c.6475,0,1.6846.3994,1.6846,2.0625v2.87h-.877v-2.77c0-.7773-.289-1.4355-1.1162-1.4355a1.2588,1.2588,0,0,0-1.1757.8769,1.0633,1.0633,0,0,0-.06.419v2.9092h-.877Z"/><path d="M347.1542,200.9754a1.5448,1.5448,0,0,0,1.6543,1.6738,3.17,3.17,0,0,0,1.335-.249l.1494.628a3.9039,3.9039,0,0,1-1.6045.2988,2.24,2.24,0,0,1-2.3711-2.4317,2.3411,2.3411,0,0,1,2.2617-2.6,2.0441,2.0441,0,0,1,1.9932,2.2724,3.33,3.33,0,0,1-.03.4082Zm2.57-.6279a1.2481,1.2481,0,0,0-1.2148-1.4248,1.4537,1.4537,0,0,0-1.3457,1.4248Z"/><path d="M354.0878,203.2274v-4.1553H353.41v-.667h.6777v-.23a2.27,2.27,0,0,1,.5586-1.6836,1.6734,1.6734,0,0,1,1.1758-.4482,2.0465,2.0465,0,0,1,.747.1386l-.12.6778a1.3088,1.3088,0,0,0-.5576-.1094c-.7471,0-.9365.6572-.9365,1.3945v.26h1.166v.667h-1.166v4.1553Z"/><path d="M361.2714,200.7762a2.3569,2.3569,0,0,1-2.4014,2.5605,2.292,2.292,0,0,1-2.3115-2.48,2.3557,2.3557,0,0,1,2.3916-2.5615A2.2839,2.2839,0,0,1,361.2714,200.7762Zm-3.8262.05c0,1.0566.6074,1.8535,1.4649,1.8535.8369,0,1.4648-.7871,1.4648-1.873,0-.8174-.4082-1.8535-1.4453-1.8535S357.4452,199.909,357.4452,200.826Z"/><path d="M362.3769,199.909c0-.5674-.01-1.0557-.04-1.5039h.7676l.0293.9463h.04a1.4469,1.4469,0,0,1,1.335-1.0566.9621.9621,0,0,1,.249.03v.8272a1.3306,1.3306,0,0,0-.2988-.03,1.2313,1.2313,0,0,0-1.1758,1.126,2.5341,2.5341,0,0,0-.0391.4092v2.57h-.8671Z"/><path d="M368.9823,203.0477a3.2212,3.2212,0,0,1-1.3847.2793,2.2909,2.2909,0,0,1-2.4014-2.461,2.4505,2.4505,0,0,1,2.5908-2.5605,2.9178,2.9178,0,0,1,1.2149.249l-.1993.6778a2.0238,2.0238,0,0,0-1.0156-.23,1.8181,1.8181,0,0,0-.03,3.6269,2.4957,2.4957,0,0,0,1.0762-.2392Z"/><path d="M370.496,200.9754a1.5453,1.5453,0,0,0,1.6543,1.6738,3.1673,3.1673,0,0,0,1.335-.249l.1494.628a3.9021,3.9021,0,0,1-1.6035.2988,2.24,2.24,0,0,1-2.3721-2.4317,2.3417,2.3417,0,0,1,2.2617-2.6,2.0435,2.0435,0,0,1,1.9932,2.2724,3.1568,3.1568,0,0,1-.03.4082Zm2.5713-.6279a1.2489,1.2489,0,0,0-1.2158-1.4248,1.4545,1.4545,0,0,0-1.3457,1.4248Z"/><path d="M374.88,202.3309a2.3028,2.3028,0,0,0,1.1553.3486c.6386,0,.9375-.3193.9375-.7178,0-.4179-.25-.6474-.8975-.8867-.8662-.3086-1.2754-.7871-1.2754-1.3652a1.4875,1.4875,0,0,1,1.6641-1.415,2.3956,2.3956,0,0,1,1.1855.3l-.2187.6377a1.8714,1.8714,0,0,0-.9864-.2793c-.5185,0-.8076.2988-.8076.6572,0,.3984.2891.5781.917.8174.8369.3183,1.2656.7373,1.2656,1.455,0,.8467-.6572,1.4444-1.8037,1.4444a2.7517,2.7517,0,0,1-1.3554-.3291Z"/><path d="M383.956,203.2274l-.07-.6075h-.0293a1.7985,1.7985,0,0,1-1.4747.7168,1.3746,1.3746,0,0,1-1.4755-1.3847c0-1.166,1.0371-1.8037,2.9-1.794v-.1a.9934.9934,0,0,0-1.0957-1.1152,2.3974,2.3974,0,0,0-1.2558.3584l-.1992-.5781a2.9948,2.9948,0,0,1,1.584-.4287c1.4746,0,1.8339,1.0068,1.8339,1.9736v1.8027a6.8278,6.8278,0,0,0,.0791,1.1563Zm-.13-2.461c-.9571-.02-2.043.1494-2.043,1.086a.7759.7759,0,0,0,.8272.8369,1.2,1.2,0,0,0,1.166-.8067.9073.9073,0,0,0,.05-.2793Z"/><path d="M389.5253,203.0477a3.2252,3.2252,0,0,1-1.3848.2793,2.2917,2.2917,0,0,1-2.4023-2.461,2.4505,2.4505,0,0,1,2.5908-2.5605,2.9222,2.9222,0,0,1,1.2158.249l-.1992.6778a2.0259,2.0259,0,0,0-1.0166-.23A1.8181,1.8181,0,0,0,388.3,202.63a2.4869,2.4869,0,0,0,1.0752-.2392Z"/><path d="M391.6073,197.0194v1.3857h1.2549v.667h-1.2549v2.6006c0,.5986.169.9365.6573.9365a1.942,1.942,0,0,0,.5087-.06l.0391.6582a2.154,2.154,0,0,1-.7773.1192,1.2172,1.2172,0,0,1-.9463-.3682,1.7885,1.7885,0,0,1-.3389-1.2558v-2.6309h-.7471v-.667h.7471v-1.1562Z"/><path d="M394.8241,197.05a.543.543,0,0,1-1.0859,0,.5346.5346,0,0,1,.5488-.5478A.52.52,0,0,1,394.8241,197.05Zm-.9765,6.1778v-4.8223h.8769v4.8223Z"/><path d="M396.18,199.71c0-.4981-.01-.9063-.04-1.3047h.7773l.05.7969h.0195a1.7746,1.7746,0,0,1,1.5948-.9072c.667,0,1.7041.3994,1.7041,2.0527v2.88h-.877v-2.78c0-.7773-.2891-1.4248-1.1162-1.4248a1.286,1.286,0,0,0-1.2354,1.3057v2.8994H396.18Z"/><path d="M405.8632,198.4051c-.0195.3486-.0391.7373-.0391,1.3252v2.8a2.7769,2.7769,0,0,1-.6875,2.2022,2.5578,2.5578,0,0,1-1.7539.5771,3.1073,3.1073,0,0,1-1.6045-.3984l.22-.667a2.7161,2.7161,0,0,0,1.414.3779c.8965,0,1.5547-.4678,1.5547-1.6836V202.4h-.0195a1.7231,1.7231,0,0,1-1.5352.8076,2.1562,2.1562,0,0,1-2.0527-2.3515,2.3153,2.3153,0,0,1,2.1728-2.5615,1.6044,1.6044,0,0,1,1.5049.8378h.02l.04-.7275Zm-.9063,1.9023a1.2431,1.2431,0,0,0-.05-.3984,1.2633,1.2633,0,0,0-1.2256-.9267c-.8369,0-1.4355.708-1.4355,1.8242,0,.9463.4785,1.7334,1.4258,1.7334a1.282,1.282,0,0,0,1.2148-.8965,1.5,1.5,0,0,0,.07-.4688Z"/><path d="M19.8358,210.1014v5.8291c0,.4277.0108.916.04,1.2451h-.7871l-.04-.8369h-.02a1.7849,1.7849,0,0,1-1.6445.9463,2.1989,2.1989,0,0,1-2.0625-2.4512,2.308,2.308,0,0,1,2.1621-2.5908,1.6132,1.6132,0,0,1,1.4551.7373H18.96v-2.8789Zm-.8759,4.2148a1.5776,1.5776,0,0,0-.04-.3691,1.291,1.291,0,0,0-1.2656-1.0166c-.9062,0-1.4453.7978-1.4453,1.8633,0,.9765.4785,1.7842,1.4258,1.7842a1.3184,1.3184,0,0,0,1.2851-1.0469,1.5426,1.5426,0,0,0,.04-.3779Z"/><path d="M25.6542,214.7244a2.3569,2.3569,0,0,1-2.4014,2.5606,2.2926,2.2926,0,0,1-2.3115-2.4805,2.3558,2.3558,0,0,1,2.3916-2.5615A2.2839,2.2839,0,0,1,25.6542,214.7244Zm-3.8262.05c0,1.0567.6084,1.8536,1.4649,1.8536.8369,0,1.4648-.7871,1.4648-1.8731,0-.8174-.4082-1.8535-1.4453-1.8535C22.2773,212.9012,21.828,213.8573,21.828,214.7742Z"/><path d="M27.1083,212.3533l.6377,2.4512c.14.5381.27,1.0362.3594,1.5342h.0293c.1093-.4883.27-1.0068.4287-1.5244l.7871-2.461h.7373l.7471,2.4112c.18.5781.3193,1.0859.4287,1.5742h.0293a14.6809,14.6809,0,0,1,.3691-1.5645l.6875-2.4209h.8672l-1.5547,4.8223h-.7969l-.7373-2.3017a15.87,15.87,0,0,1-.4287-1.584h-.02a14.4164,14.4164,0,0,1-.4385,1.5937l-.7773,2.292h-.7979l-1.4541-4.8223Z"/><path d="M34.0917,213.658c0-.498-.01-.9062-.0391-1.3047H34.83l.0488.7969h.02a1.7741,1.7741,0,0,1,1.5938-.9072c.6679,0,1.7041.3994,1.7041,2.0527v2.88H37.32v-2.78c0-.7773-.289-1.4248-1.1152-1.4248a1.2893,1.2893,0,0,0-1.2363,1.3057v2.8994h-.877Z"/><path d="M39.73,212.3533l.6386,2.4512c.1387.5381.2686,1.0362.3584,1.5342h.03c.1094-.4883.2686-1.0068.4278-1.5244l.7871-2.461H42.71l.747,2.4112c.18.5781.3194,1.0859.4288,1.5742h.03a14.664,14.664,0,0,1,.3682-1.5645l.6875-2.4209h.8672l-1.5547,4.8223h-.7969l-.7373-2.3017a16.4013,16.4013,0,0,1-.4287-1.584h-.02a14.2429,14.2429,0,0,1-.4385,1.5937l-.7774,2.292H40.289l-1.4551-4.8223Z"/><path d="M49.246,217.1756l-.07-.6074h-.0293a1.799,1.799,0,0,1-1.4756.7168A1.3744,1.3744,0,0,1,46.1962,215.9c0-1.166,1.0361-1.8037,2.8994-1.7939v-.1A.9935.9935,0,0,0,48,212.8914a2.4124,2.4124,0,0,0-1.2559.3584l-.1992-.5781a2.9988,2.9988,0,0,1,1.585-.4287c1.4746,0,1.833,1.0068,1.833,1.9736v1.8028a6.7087,6.7087,0,0,0,.08,1.1562Zm-.13-2.4609c-.957-.02-2.0429.1494-2.0429,1.0859a.7758.7758,0,0,0,.8271.8369,1.2,1.2,0,0,0,1.166-.8066.9359.9359,0,0,0,.05-.2793Z"/><path d="M51.3769,213.8573c0-.5674-.01-1.0557-.04-1.504h.7676l.03.9463h.039a1.4492,1.4492,0,0,1,1.336-1.0566.9632.9632,0,0,1,.249.03V213.1a1.3429,1.3429,0,0,0-.2988-.03,1.23,1.23,0,0,0-1.1758,1.126,2.4211,2.4211,0,0,0-.04.4092v2.57h-.8671Z"/><path d="M58.71,210.1014v5.8291c0,.4277.0107.916.04,1.2451h-.7871l-.04-.8369h-.02a1.7849,1.7849,0,0,1-1.6445.9463,2.1989,2.1989,0,0,1-2.0625-2.4512,2.3075,2.3075,0,0,1,2.1621-2.5908,1.6156,1.6156,0,0,1,1.4551.7373h.02v-2.8789Zm-.877,4.2148a1.526,1.526,0,0,0-.04-.3691,1.2891,1.2891,0,0,0-1.2647-1.0166c-.9072,0-1.4453.7978-1.4453,1.8633,0,.9765.4785,1.7842,1.4248,1.7842a1.3178,1.3178,0,0,0,1.2852-1.0469,1.4956,1.4956,0,0,0,.04-.3779Z"/><path d="M60.0448,216.2791a2.2986,2.2986,0,0,0,1.1553.3487c.6377,0,.9365-.3194.9365-.7178,0-.418-.249-.6475-.8965-.8867-.8671-.3086-1.2753-.7871-1.2753-1.3653a1.4875,1.4875,0,0,1,1.664-1.415,2.3963,2.3963,0,0,1,1.1856.3l-.2188.6377a1.8719,1.8719,0,0,0-.9863-.2793c-.5186,0-.8076.2988-.8076.6572,0,.3985.289.5782.917.8174.8369.3184,1.2656.7373,1.2656,1.4551,0,.8467-.6582,1.4443-1.8037,1.4443a2.7524,2.7524,0,0,1-1.3555-.3291Z"/><path d="M63.5409,218.4012a14.2608,14.2608,0,0,0,.5977-2.3818l.9765-.1a12.09,12.09,0,0,1-.9462,2.4218Z"/><path d="M71.1825,217.1756l-.0693-.6074h-.03a1.7969,1.7969,0,0,1-1.4746.7168A1.3738,1.3738,0,0,1,68.1337,215.9c0-1.166,1.0361-1.8037,2.8994-1.7939v-.1a.9935.9935,0,0,0-1.0957-1.1153,2.41,2.41,0,0,0-1.2559.3584l-.1992-.5781a2.9964,2.9964,0,0,1,1.585-.4287c1.4746,0,1.833,1.0068,1.833,1.9736v1.8028a6.7087,6.7087,0,0,0,.08,1.1562Zm-.1289-2.4609c-.957-.02-2.0429.1494-2.0429,1.0859a.7758.7758,0,0,0,.8271.8369,1.2,1.2,0,0,0,1.166-.8066.9359.9359,0,0,0,.05-.2793Z"/><path d="M73.3144,213.658c0-.498-.01-.9062-.04-1.3047h.7774l.05.7969h.02a1.7739,1.7739,0,0,1,1.5937-.9072c.668,0,1.7041.3994,1.7041,2.0527v2.88h-.8769v-2.78c0-.7773-.2891-1.4248-1.1162-1.4248a1.286,1.286,0,0,0-1.2354,1.3057v2.8994h-.8769Z"/><path d="M83.0087,210.1014v5.8291c0,.4277.01.916.04,1.2451h-.7871l-.04-.8369h-.02a1.7824,1.7824,0,0,1-1.6436.9463,2.1983,2.1983,0,0,1-2.0625-2.4512,2.3076,2.3076,0,0,1,2.1621-2.5908,1.6156,1.6156,0,0,1,1.4551.7373h.0195v-2.8789Zm-.877,4.2148a1.526,1.526,0,0,0-.04-.3691,1.2894,1.2894,0,0,0-1.2656-1.0166c-.9063,0-1.4444.7978-1.4444,1.8633,0,.9765.4786,1.7842,1.4248,1.7842a1.3178,1.3178,0,0,0,1.2852-1.0469,1.4956,1.4956,0,0,0,.04-.3779Z"/><path d="M87.86,210.9676v1.3857h1.2548v.667H87.86v2.6006c0,.5977.1689.9365.6572.9365a1.9289,1.9289,0,0,0,.5078-.06l.04.6582a2.154,2.154,0,0,1-.7763.1191,1.2183,1.2183,0,0,1-.9473-.3681,1.79,1.79,0,0,1-.3389-1.2559V213.02h-.747v-.667h.747v-1.1562Z"/><path d="M90.1015,210.1014h.8769V213.11h.02a1.624,1.624,0,0,1,.6279-.6172,1.7931,1.7931,0,0,1,.8965-.25c.6474,0,1.6845.3994,1.6845,2.0635v2.8691H93.33v-2.7695c0-.7774-.2891-1.4356-1.1162-1.4356a1.259,1.259,0,0,0-1.1758.877,1.0644,1.0644,0,0,0-.06.4189v2.9092h-.8769Z"/><path d="M96.119,214.9237a1.545,1.545,0,0,0,1.6543,1.6738,3.172,3.172,0,0,0,1.335-.249l.1494.6279a3.9039,3.9039,0,0,1-1.6045.2988,2.24,2.24,0,0,1-2.3711-2.4316,2.3413,2.3413,0,0,1,2.2618-2.6006,2.044,2.044,0,0,1,1.9931,2.2725,3.3313,3.3313,0,0,1-.03.4082Zm2.57-.628a1.2484,1.2484,0,0,0-1.2159-1.4248,1.4528,1.4528,0,0,0-1.3447,1.4248Z"/><path d="M103.0526,217.1756V213.02h-.6777v-.667h.6777v-.2294a2.2736,2.2736,0,0,1,.5577-1.6836,1.6762,1.6762,0,0,1,1.1757-.4483,2.0484,2.0484,0,0,1,.7481.1387l-.12.6777a1.31,1.31,0,0,0-.5576-.1093c-.7471,0-.9366.6572-.9366,1.3945v.26h1.166v.667H103.92v4.1553Z"/><path d="M110.2362,214.7244a2.3569,2.3569,0,0,1-2.4013,2.5606,2.2921,2.2921,0,0,1-2.3116-2.4805,2.3552,2.3552,0,0,1,2.3916-2.5615A2.2839,2.2839,0,0,1,110.2362,214.7244Zm-3.8261.05c0,1.0567.6074,1.8536,1.4648,1.8536.8369,0,1.4649-.7871,1.4649-1.8731,0-.8174-.4092-1.8535-1.4454-1.8535S106.41,213.8573,106.41,214.7742Z"/><path d="M111.3417,213.8573c0-.5674-.01-1.0557-.04-1.504h.7666l.03.9463h.04a1.4469,1.4469,0,0,1,1.3349-1.0566.9579.9579,0,0,1,.2491.03V213.1a1.3374,1.3374,0,0,0-.2989-.03,1.2312,1.2312,0,0,0-1.1757,1.126,2.5177,2.5177,0,0,0-.04.4092v2.57h-.8662Z"/><path d="M117.9472,216.9959a3.2214,3.2214,0,0,1-1.3848.2793,2.2909,2.2909,0,0,1-2.4014-2.4609,2.4506,2.4506,0,0,1,2.5909-2.5606,2.9158,2.9158,0,0,1,1.2148.2491l-.1992.6777a2.0255,2.0255,0,0,0-1.0156-.23,1.8182,1.8182,0,0,0-.03,3.627,2.4948,2.4948,0,0,0,1.0762-.2393Z"/><path d="M119.4608,214.9237a1.545,1.545,0,0,0,1.6543,1.6738,3.1685,3.1685,0,0,0,1.335-.249l.1494.6279a3.9021,3.9021,0,0,1-1.6035.2988,2.24,2.24,0,0,1-2.3721-2.4316,2.3413,2.3413,0,0,1,2.2618-2.6006,2.044,2.044,0,0,1,1.9931,2.2725,3.3313,3.3313,0,0,1-.03.4082Zm2.57-.628a1.2476,1.2476,0,0,0-1.2149-1.4248,1.4545,1.4545,0,0,0-1.3457,1.4248Z"/><path d="M123.8446,216.2791a2.2986,2.2986,0,0,0,1.1553.3487c.6377,0,.9365-.3194.9365-.7178,0-.418-.249-.6475-.8965-.8867-.8662-.3086-1.2753-.7871-1.2753-1.3653a1.4875,1.4875,0,0,1,1.664-1.415,2.3963,2.3963,0,0,1,1.1856.3l-.2188.6377a1.8719,1.8719,0,0,0-.9863-.2793c-.5186,0-.8076.2988-.8076.6572,0,.3985.289.5782.917.8174.8369.3184,1.2656.7373,1.2656,1.4551,0,.8467-.6582,1.4443-1.8037,1.4443a2.7524,2.7524,0,0,1-1.3555-.3291Z"/><path d="M132.9208,217.1756l-.0693-.6074h-.03a1.7984,1.7984,0,0,1-1.4746.7168A1.3738,1.3738,0,0,1,129.872,215.9c0-1.166,1.0361-1.8037,2.8994-1.7939v-.1a.9935.9935,0,0,0-1.0957-1.1153,2.407,2.407,0,0,0-1.2559.3584l-.1992-.5781a2.9951,2.9951,0,0,1,1.584-.4287c1.4746,0,1.834,1.0068,1.834,1.9736v1.8028a6.8169,6.8169,0,0,0,.0791,1.1562Zm-.13-2.4609c-.956-.02-2.042.1494-2.042,1.0859a.7754.7754,0,0,0,.8272.8369,1.2,1.2,0,0,0,1.165-.8066.9054.9054,0,0,0,.05-.2793Z"/><path d="M138.49,216.9959a3.2242,3.2242,0,0,1-1.3847.2793,2.2917,2.2917,0,0,1-2.4024-2.4609,2.4506,2.4506,0,0,1,2.5909-2.5606,2.9211,2.9211,0,0,1,1.2158.2491l-.1992.6777a2.0269,2.0269,0,0,0-1.0166-.23,1.8181,1.8181,0,0,0-.0293,3.627,2.486,2.486,0,0,0,1.0752-.2393Z"/><path d="M140.5722,210.9676v1.3857h1.2549v.667h-1.2549v2.6006c0,.5977.1689.9365.6572.9365a1.9437,1.9437,0,0,0,.5088-.06l.0391.6582a2.1572,2.1572,0,0,1-.7774.1191,1.2175,1.2175,0,0,1-.9463-.3681,1.79,1.79,0,0,1-.3388-1.2559V213.02h-.7471v-.667h.7471v-1.1562Z"/><path d="M143.789,210.9979a.543.543,0,0,1-1.086,0,.5348.5348,0,0,1,.5489-.5479A.52.52,0,0,1,143.789,210.9979Zm-.9766,6.1777v-4.8223h.877v4.8223Z"/><path d="M145.1444,213.658c0-.498-.01-.9062-.04-1.3047h.7773l.05.7969h.02a1.7744,1.7744,0,0,1,1.5947-.9072c.667,0,1.7041.3994,1.7041,2.0527v2.88h-.8769v-2.78c0-.7773-.2891-1.4248-1.1163-1.4248a1.286,1.286,0,0,0-1.2353,1.3057v2.8994h-.877Z"/><path d="M154.828,212.3533c-.0195.3487-.039.7374-.039,1.3252v2.8a2.7771,2.7771,0,0,1-.6875,2.2022,2.5575,2.5575,0,0,1-1.7539.5771,3.1058,3.1058,0,0,1-1.6045-.3984l.22-.667a2.7165,2.7165,0,0,0,1.4141.3779c.8974,0,1.5546-.4677,1.5546-1.6835v-.5381h-.0195a1.7231,1.7231,0,0,1-1.5351.8076,2.1555,2.1555,0,0,1-2.0518-2.3516,2.3147,2.3147,0,0,1,2.1719-2.5615,1.6034,1.6034,0,0,1,1.5049.8379h.0195l.04-.7276Zm-.9062,1.9024a1.2459,1.2459,0,0,0-.05-.3984,1.2633,1.2633,0,0,0-1.2256-.9268c-.8369,0-1.4346.708-1.4346,1.8242,0,.9463.4776,1.7334,1.4248,1.7334a1.28,1.28,0,0,0,1.2149-.8965,1.5,1.5,0,0,0,.07-.4687Z"/><path d="M159.64,210.9676v1.3857h1.2558v.667H159.64v2.6006c0,.5977.17.9365.6582.9365a1.9289,1.9289,0,0,0,.5078-.06l.04.6582a2.1606,2.1606,0,0,1-.7773.1191,1.2175,1.2175,0,0,1-.9463-.3681,1.79,1.79,0,0,1-.3389-1.2559V213.02h-.7471v-.667h.7471v-1.1562Z"/><path d="M166.205,214.7244a2.3567,2.3567,0,0,1-2.4,2.5606,2.2928,2.2928,0,0,1-2.3125-2.4805,2.3557,2.3557,0,0,1,2.3916-2.5615A2.2835,2.2835,0,0,1,166.205,214.7244Zm-3.8262.05c0,1.0567.6084,1.8536,1.4649,1.8536.8378,0,1.4648-.7871,1.4648-1.8731,0-.8174-.4082-1.8535-1.4443-1.8535S162.3788,213.8573,162.3788,214.7742Z"/><path d="M170.7079,210.9676v1.3857h1.2559v.667h-1.2559v2.6006c0,.5977.17.9365.6582.9365a1.9283,1.9283,0,0,0,.5078-.06l.04.6582a2.1612,2.1612,0,0,1-.7774.1191,1.2175,1.2175,0,0,1-.9463-.3681,1.79,1.79,0,0,1-.3388-1.2559V213.02h-.7471v-.667h.7471v-1.1562Z"/><path d="M172.9491,210.1014h.877V213.11h.02a1.624,1.624,0,0,1,.6279-.6172,1.7931,1.7931,0,0,1,.8965-.25c.6475,0,1.6836.3994,1.6836,2.0635v2.8691h-.877v-2.7695c0-.7774-.289-1.4356-1.1152-1.4356a1.259,1.259,0,0,0-1.1758.877,1.0634,1.0634,0,0,0-.06.4189v2.9092h-.877Z"/><path d="M178.9667,214.9237a1.5453,1.5453,0,0,0,1.6543,1.6738,3.1688,3.1688,0,0,0,1.335-.249l.1494.6279a3.9021,3.9021,0,0,1-1.6035.2988,2.24,2.24,0,0,1-2.3721-2.4316,2.3418,2.3418,0,0,1,2.2617-2.6006,2.0435,2.0435,0,0,1,1.9932,2.2725,3.1584,3.1584,0,0,1-.03.4082Zm2.5713-.628a1.2489,1.2489,0,0,0-1.2158-1.4248,1.4545,1.4545,0,0,0-1.3457,1.4248Z"/><path d="M185.8114,210.1014h.877v7.0742h-.877Z"/><path d="M188.65,214.9237a1.5453,1.5453,0,0,0,1.6543,1.6738,3.1688,3.1688,0,0,0,1.335-.249l.1494.6279a3.9021,3.9021,0,0,1-1.6035.2988,2.24,2.24,0,0,1-2.3721-2.4316,2.3418,2.3418,0,0,1,2.2617-2.6006,2.0435,2.0435,0,0,1,1.9932,2.2725,3.1584,3.1584,0,0,1-.03.4082Zm2.5713-.628a1.2489,1.2489,0,0,0-1.2158-1.4248,1.4544,1.4544,0,0,0-1.3457,1.4248Z"/><path d="M193.2431,217.1756V213.02h-.6778v-.667h.6778v-.2294a2.2735,2.2735,0,0,1,.5576-1.6836,1.6764,1.6764,0,0,1,1.1758-.4483,2.0482,2.0482,0,0,1,.748.1387l-.12.6777a1.31,1.31,0,0,0-.5576-.1093c-.7471,0-.9365.6572-.9365,1.3945v.26h1.165v.667H194.11v4.1553Z"/><path d="M197.119,210.9676v1.3857h1.2549v.667H197.119v2.6006c0,.5977.169.9365.6573.9365a1.9437,1.9437,0,0,0,.5088-.06l.039.6582a2.1562,2.1562,0,0,1-.7773.1191,1.2175,1.2175,0,0,1-.9463-.3681,1.79,1.79,0,0,1-.3389-1.2559V213.02h-.747v-.667h.747v-1.1562Z"/><path d="M201.7011,213.658c0-.498-.01-.9062-.0391-1.3047h.7666l.04.7774h.0293a1.6631,1.6631,0,0,1,1.5156-.8877,1.4256,1.4256,0,0,1,1.3642.9668h.02a1.98,1.98,0,0,1,.5381-.6279,1.6453,1.6453,0,0,1,1.0655-.3389c.6386,0,1.5849.4189,1.5849,2.0928v2.84h-.8574v-2.7305c0-.9267-.3389-1.4843-1.0459-1.4843a1.1358,1.1358,0,0,0-1.0361.7968,1.4408,1.4408,0,0,0-.07.4385v2.98h-.8565v-2.89c0-.7676-.3389-1.3252-1.0068-1.3252a1.1983,1.1983,0,0,0-1.086.8769,1.2119,1.2119,0,0,0-.0693.4287v2.9092h-.8574Z"/><path d="M214.0458,215.86c0,.498.01.9365.04,1.3154h-.7773l-.05-.7871h-.02a1.813,1.813,0,0,1-1.5938.8965c-.7578,0-1.664-.418-1.664-2.1123v-2.8194h.8769v2.67c0,.917.2793,1.5341,1.0762,1.5341a1.2663,1.2663,0,0,0,1.1553-.7968,1.2805,1.2805,0,0,0,.08-.4483v-2.959h.8769Z"/><path d="M215.38,216.2791a2.3025,2.3025,0,0,0,1.1562.3487c.6377,0,.9366-.3194.9366-.7178,0-.418-.2491-.6475-.8965-.8867-.8672-.3086-1.2754-.7871-1.2754-1.3653a1.487,1.487,0,0,1,1.6641-1.415,2.3989,2.3989,0,0,1,1.1855.3l-.22.6377a1.8724,1.8724,0,0,0-.9864-.2793c-.5185,0-.8076.2988-.8076.6572,0,.3985.2891.5782.917.8174.8369.3184,1.2656.7373,1.2656,1.4551,0,.8467-.6572,1.4443-1.8037,1.4443a2.7512,2.7512,0,0,1-1.3545-.3291Z"/><path d="M220.5009,210.9676v1.3857h1.2549v.667h-1.2549v2.6006c0,.5977.1689.9365.6572.9365a1.9289,1.9289,0,0,0,.5078-.06l.041.6582a2.1642,2.1642,0,0,1-.7773.1191,1.2183,1.2183,0,0,1-.9473-.3681,1.7905,1.7905,0,0,1-.3379-1.2559V213.02h-.748v-.667h.748v-1.1562Z"/><path d="M225.5722,214.9237a1.5446,1.5446,0,0,0,1.6533,1.6738,3.1657,3.1657,0,0,0,1.335-.249l.15.6279a3.9106,3.9106,0,0,1-1.6044.2988,2.24,2.24,0,0,1-2.3721-2.4316,2.3418,2.3418,0,0,1,2.2617-2.6006,2.0435,2.0435,0,0,1,1.9932,2.2725,3.1584,3.1584,0,0,1-.03.4082Zm2.57-.628a1.2489,1.2489,0,0,0-1.2158-1.4248,1.4528,1.4528,0,0,0-1.3448,1.4248Z"/><path d="M233.3632,216.4285h-.02a1.7151,1.7151,0,0,1-1.5742.8565,2.1989,2.1989,0,0,1-2.042-2.4414,2.3106,2.3106,0,0,1,2.1816-2.6006,1.5848,1.5848,0,0,1,1.4844.8379h.0195l.03-.7276h.8271c-.0195.4083-.0293.8272-.0293,1.3252v5.47h-.8769Zm0-2.122a1.48,1.48,0,0,0-.04-.3692,1.2824,1.2824,0,0,0-1.2559-.9961c-.9063,0-1.4541.7666-1.4541,1.8526,0,.957.458,1.7939,1.4238,1.7939a1.3061,1.3061,0,0,0,1.2559-.956,1.4727,1.4727,0,0,0,.07-.419Z"/><path d="M239.7187,215.86c0,.498.01.9365.04,1.3154h-.7773l-.05-.7871h-.0195a1.8142,1.8142,0,0,1-1.5937.8965c-.7578,0-1.6641-.418-1.6641-2.1123v-2.8194h.876v2.67c0,.917.2793,1.5341,1.0762,1.5341a1.2677,1.2677,0,0,0,1.1562-.7968,1.2806,1.2806,0,0,0,.0791-.4483v-2.959h.877Z"/><path d="M243.8437,217.1756l-.07-.6074h-.0293a1.7984,1.7984,0,0,1-1.4746.7168,1.3746,1.3746,0,0,1-1.4755-1.3848c0-1.166,1.0361-1.8037,2.8994-1.7939v-.1a.9935.9935,0,0,0-1.0957-1.1153,2.4118,2.4118,0,0,0-1.2559.3584l-.1992-.5781a2.9958,2.9958,0,0,1,1.5849-.4287c1.4747,0,1.8331,1.0068,1.8331,1.9736v1.8028a6.7193,6.7193,0,0,0,.08,1.1562Zm-.13-2.4609c-.9561-.02-2.043.1494-2.043,1.0859a.7758.7758,0,0,0,.8272.8369,1.2,1.2,0,0,0,1.166-.8066.9359.9359,0,0,0,.05-.2793Z"/><path d="M245.9745,210.1014h.877v7.0742h-.877Z"/><path d="M251.7235,210.9676v1.3857h1.2549v.667h-1.2549v2.6006c0,.5977.169.9365.6573.9365a1.9289,1.9289,0,0,0,.5078-.06l.041.6582a2.1646,2.1646,0,0,1-.7773.1191,1.2183,1.2183,0,0,1-.9473-.3681,1.7905,1.7905,0,0,1-.3379-1.2559V213.02h-.7481v-.667h.7481v-1.1562Z"/><path d="M253.9648,210.1014h.8769V213.11h.0195a1.6311,1.6311,0,0,1,.628-.6172,1.7928,1.7928,0,0,1,.8965-.25c.6474,0,1.6845.3994,1.6845,2.0635v2.8691h-.8769v-2.7695c0-.7774-.2891-1.4356-1.1162-1.4356a1.259,1.259,0,0,0-1.1758.877,1.0644,1.0644,0,0,0-.06.4189v2.9092h-.8769Z"/><path d="M259.9823,214.9237a1.545,1.545,0,0,0,1.6543,1.6738,3.172,3.172,0,0,0,1.335-.249l.1494.6279a3.9039,3.9039,0,0,1-1.6045.2988,2.24,2.24,0,0,1-2.3711-2.4316,2.3412,2.3412,0,0,1,2.2617-2.6006,2.0441,2.0441,0,0,1,1.9932,2.2725,3.3313,3.3313,0,0,1-.03.4082Zm2.57-.628a1.2481,1.2481,0,0,0-1.2148-1.4248,1.4537,1.4537,0,0,0-1.3457,1.4248Z"/><path d="M266.9159,217.1756V213.02h-.6777v-.667h.6777v-.2294a2.27,2.27,0,0,1,.5586-1.6836,1.6731,1.6731,0,0,1,1.1758-.4483,2.0473,2.0473,0,0,1,.7471.1387l-.12.6777a1.311,1.311,0,0,0-.5577-.1093c-.747,0-.9365.6572-.9365,1.3945v.26h1.166v.667h-1.166v4.1553Z"/><path d="M274.1,214.7244a2.3569,2.3569,0,0,1-2.4013,2.5606,2.2921,2.2921,0,0,1-2.3116-2.4805,2.3558,2.3558,0,0,1,2.3916-2.5615A2.2839,2.2839,0,0,1,274.1,214.7244Zm-3.8262.05c0,1.0567.6075,1.8536,1.4649,1.8536.8369,0,1.4648-.7871,1.4648-1.8731,0-.8174-.4082-1.8535-1.4453-1.8535S270.2733,213.8573,270.2733,214.7742Z"/><path d="M275.205,213.8573c0-.5674-.01-1.0557-.04-1.504h.7676l.0293.9463h.04a1.4468,1.4468,0,0,1,1.3349-1.0566.9576.9576,0,0,1,.249.03V213.1a1.3364,1.3364,0,0,0-.2988-.03,1.2314,1.2314,0,0,0-1.1758,1.126,2.5358,2.5358,0,0,0-.039.4092v2.57h-.8672Z"/><path d="M281.8105,216.9959a3.2214,3.2214,0,0,1-1.3848.2793,2.2909,2.2909,0,0,1-2.4014-2.4609,2.4506,2.4506,0,0,1,2.5908-2.5606,2.9159,2.9159,0,0,1,1.2149.2491l-.1992.6777a2.0256,2.0256,0,0,0-1.0157-.23,1.8182,1.8182,0,0,0-.03,3.627,2.494,2.494,0,0,0,1.0761-.2393Z"/><path d="M283.3241,214.9237a1.5454,1.5454,0,0,0,1.6543,1.6738,3.1685,3.1685,0,0,0,1.335-.249l.1494.6279a3.9021,3.9021,0,0,1-1.6035.2988,2.24,2.24,0,0,1-2.3721-2.4316,2.3418,2.3418,0,0,1,2.2617-2.6006,2.0435,2.0435,0,0,1,1.9932,2.2725,3.14,3.14,0,0,1-.03.4082Zm2.5713-.628a1.2489,1.2489,0,0,0-1.2158-1.4248,1.4545,1.4545,0,0,0-1.3457,1.4248Z"/><path d="M287.7079,216.2791a2.3018,2.3018,0,0,0,1.1553.3487c.6387,0,.9375-.3194.9375-.7178,0-.418-.25-.6475-.8975-.8867-.8662-.3086-1.2754-.7871-1.2754-1.3653a1.4876,1.4876,0,0,1,1.6641-1.415,2.3956,2.3956,0,0,1,1.1855.3l-.2187.6377a1.8722,1.8722,0,0,0-.9863-.2793c-.5186,0-.8076.2988-.8076.6572,0,.3985.289.5782.9169.8174.837.3184,1.2657.7373,1.2657,1.4551,0,.8467-.6573,1.4443-1.8037,1.4443a2.7521,2.7521,0,0,1-1.3555-.3291Z"/><path d="M296.7841,217.1756l-.0693-.6074h-.03a1.7971,1.7971,0,0,1-1.4746.7168,1.3738,1.3738,0,0,1-1.4746-1.3848c0-1.166,1.0361-1.8037,2.8994-1.7939v-.1a.9935.9935,0,0,0-1.0957-1.1153,2.407,2.407,0,0,0-1.2559.3584l-.1992-.5781a2.9951,2.9951,0,0,1,1.584-.4287c1.4746,0,1.834,1.0068,1.834,1.9736v1.8028a6.8169,6.8169,0,0,0,.0791,1.1562Zm-.13-2.4609c-.956-.02-2.042.1494-2.042,1.0859a.7753.7753,0,0,0,.8272.8369,1.2,1.2,0,0,0,1.165-.8066.9054.9054,0,0,0,.05-.2793Z"/><path d="M302.3534,216.9959a3.225,3.225,0,0,1-1.3847.2793,2.2917,2.2917,0,0,1-2.4024-2.4609,2.4506,2.4506,0,0,1,2.5908-2.5606,2.9212,2.9212,0,0,1,1.2159.2491l-.1993.6777a2.0263,2.0263,0,0,0-1.0166-.23,1.8181,1.8181,0,0,0-.0293,3.627,2.4852,2.4852,0,0,0,1.0752-.2393Z"/><path d="M304.4355,210.9676v1.3857H305.69v.667h-1.2548v2.6006c0,.5977.1689.9365.6572.9365a1.9437,1.9437,0,0,0,.5088-.06l.039.6582a2.1562,2.1562,0,0,1-.7773.1191,1.2175,1.2175,0,0,1-.9463-.3681,1.79,1.79,0,0,1-.3389-1.2559V213.02h-.747v-.667h.747v-1.1562Z"/><path d="M307.6532,210.9979a.5435.5435,0,0,1-1.0869,0,.5347.5347,0,0,1,.5488-.5479A.5209.5209,0,0,1,307.6532,210.9979Zm-.9765,6.1777v-4.8223h.8769v4.8223Z"/><path d="M309.0077,213.658c0-.498-.01-.9062-.04-1.3047h.7773l.05.7969h.02a1.7743,1.7743,0,0,1,1.5947-.9072c.667,0,1.7041.3994,1.7041,2.0527v2.88h-.877v-2.78c0-.7773-.289-1.4248-1.1162-1.4248a1.2856,1.2856,0,0,0-1.2353,1.3057v2.8994h-.877Z"/><path d="M318.6913,212.3533c-.0195.3487-.039.7374-.039,1.3252v2.8a2.7771,2.7771,0,0,1-.6875,2.2022,2.5575,2.5575,0,0,1-1.754.5771,3.1057,3.1057,0,0,1-1.6044-.3984l.22-.667a2.7161,2.7161,0,0,0,1.414.3779c.8975,0,1.5547-.4677,1.5547-1.6835v-.5381h-.0195a1.7232,1.7232,0,0,1-1.5352.8076,2.1555,2.1555,0,0,1-2.0517-2.3516,2.3147,2.3147,0,0,1,2.1719-2.5615,1.6032,1.6032,0,0,1,1.5048.8379h.02l.04-.7276Zm-.9062,1.9024a1.2459,1.2459,0,0,0-.05-.3984,1.2633,1.2633,0,0,0-1.2256-.9268c-.8369,0-1.4346.708-1.4346,1.8242,0,.9463.4775,1.7334,1.4248,1.7334a1.28,1.28,0,0,0,1.2149-.8965,1.5025,1.5025,0,0,0,.07-.4687Z"/><path d="M323.5028,210.9676v1.3857h1.2559v.667h-1.2559v2.6006c0,.5977.17.9365.6582.9365a1.93,1.93,0,0,0,.5079-.06l.04.6582a2.1608,2.1608,0,0,1-.7774.1191,1.2172,1.2172,0,0,1-.9462-.3681,1.79,1.79,0,0,1-.3389-1.2559V213.02h-.7471v-.667h.7471v-1.1562Z"/><path d="M330.0683,214.7244a2.3567,2.3567,0,0,1-2.4,2.5606,2.2928,2.2928,0,0,1-2.3125-2.4805,2.3557,2.3557,0,0,1,2.3916-2.5615A2.2835,2.2835,0,0,1,330.0683,214.7244Zm-3.8262.05c0,1.0567.6084,1.8536,1.4648,1.8536.8379,0,1.4649-.7871,1.4649-1.8731,0-.8174-.4082-1.8535-1.4444-1.8535S326.2421,213.8573,326.2421,214.7742Z"/><path d="M334.5712,210.9676v1.3857h1.2559v.667h-1.2559v2.6006c0,.5977.17.9365.6582.9365a1.9289,1.9289,0,0,0,.5078-.06l.04.6582a2.1612,2.1612,0,0,1-.7774.1191,1.2175,1.2175,0,0,1-.9463-.3681,1.79,1.79,0,0,1-.3388-1.2559V213.02h-.7471v-.667h.7471v-1.1562Z"/><path d="M336.8124,210.1014h.877V213.11h.0205a1.624,1.624,0,0,1,.6279-.6172,1.7931,1.7931,0,0,1,.8965-.25c.6474,0,1.6836.3994,1.6836,2.0635v2.8691h-.877v-2.7695c0-.7774-.289-1.4356-1.1152-1.4356a1.259,1.259,0,0,0-1.1758.877,1.0634,1.0634,0,0,0-.0605.4189v2.9092h-.877Z"/><path d="M342.83,214.9237a1.5453,1.5453,0,0,0,1.6543,1.6738,3.1683,3.1683,0,0,0,1.3349-.249l.1495.6279a3.9027,3.9027,0,0,1-1.6036.2988,2.24,2.24,0,0,1-2.372-2.4316,2.3418,2.3418,0,0,1,2.2617-2.6006,2.0435,2.0435,0,0,1,1.9932,2.2725,3.1584,3.1584,0,0,1-.03.4082Zm2.5713-.628a1.2489,1.2489,0,0,0-1.2158-1.4248,1.4544,1.4544,0,0,0-1.3457,1.4248Z"/><path d="M349.6747,213.8573c0-.5674-.0107-1.0557-.04-1.504h.7676l.0292.9463h.04a1.4479,1.4479,0,0,1,1.3349-1.0566.97.97,0,0,1,.25.03V213.1a1.3452,1.3452,0,0,0-.3-.03,1.2313,1.2313,0,0,0-1.1757,1.126,2.5177,2.5177,0,0,0-.04.4092v2.57h-.8662Z"/><path d="M353.9091,210.9979a.5435.5435,0,0,1-1.0869,0,.5347.5347,0,0,1,.5488-.5479A.5209.5209,0,0,1,353.9091,210.9979Zm-.9766,6.1777v-4.8223h.877v4.8223Z"/><path d="M359.4179,212.3533c-.02.3487-.0391.7374-.0391,1.3252v2.8a2.7767,2.7767,0,0,1-.6875,2.2022,2.5573,2.5573,0,0,1-1.7539.5771,3.1063,3.1063,0,0,1-1.6045-.3984l.22-.667a2.7165,2.7165,0,0,0,1.4141.3779c.8975,0,1.5547-.4677,1.5547-1.6835v-.5381h-.02a1.7233,1.7233,0,0,1-1.5352.8076,2.1556,2.1556,0,0,1-2.0518-2.3516,2.3148,2.3148,0,0,1,2.1719-2.5615,1.6034,1.6034,0,0,1,1.5049.8379h.0195l.04-.7276Zm-.9063,1.9024a1.2431,1.2431,0,0,0-.05-.3984,1.2633,1.2633,0,0,0-1.2256-.9268c-.8369,0-1.4345.708-1.4345,1.8242,0,.9463.4775,1.7334,1.4248,1.7334a1.28,1.28,0,0,0,1.2148-.8965,1.5,1.5,0,0,0,.07-.4687Z"/><path d="M360.8319,210.1014h.877V213.11h.02a1.624,1.624,0,0,1,.6279-.6172,1.7931,1.7931,0,0,1,.8965-.25c.6475,0,1.6836.3994,1.6836,2.0635v2.8691h-.8769v-2.7695c0-.7774-.2891-1.4356-1.1153-1.4356a1.2591,1.2591,0,0,0-1.1758.877,1.0634,1.0634,0,0,0-.06.4189v2.9092h-.877Z"/><path d="M367.4179,210.9676v1.3857h1.2558v.667h-1.2558v2.6006c0,.5977.1689.9365.6572.9365a1.9377,1.9377,0,0,0,.5088-.06l.0391.6582a2.1532,2.1532,0,0,1-.7774.1191,1.219,1.219,0,0,1-.9463-.3681,1.79,1.79,0,0,1-.3388-1.2559V213.02h-.7471v-.667h.7471v-1.1562Z"/><path d="M369.45,216.6571a.5887.5887,0,0,1,.5977-.627.6285.6285,0,1,1-.5977.627Z"/></g></svg>