<?xml version="1.0" encoding="UTF-8"?><svg id="Layer_1" xmlns="http://www.w3.org/2000/svg" viewBox="0 0 600 600"><rect x="0" y="0" width="600" height="600" rx="299.9997" ry="299.9997" fill="#1eabe3"/><g><path d="m480.4889,111.0002h-252.6836c-1.9941,0-3.9331.7041-5.4512,1.9766l-108.2998,90.248c-1.9409,1.623-3.0542,4.0044-3.0542,6.5332v270.731c0,4.6934,3.8179,8.5112,8.5112,8.5112h252.7607c1.9438-.0117,3.8462-.7065,5.356-1.957l108.3174-90.2646c1.9414-1.623,3.0547-4.0044,3.0547-6.5332V119.5114c0-4.6934-3.8179-8.5112-8.5112-8.5112Zm-252.6836,51.5654c-4.6948,0-8.5142,3.8184-8.5142,8.5112v30.167h-76.2666l76.2676-63.5605c.0654,4.6372,3.8594,8.3896,8.5132,8.3896,4.6929,0,8.5112-3.8184,8.5112-8.5112v-9.5366h220.6641l-87.8662,73.2188h-132.7979v-30.167c0-4.6929-3.8184-8.5112-8.5112-8.5112Zm110.874,236.1909h25.0044v73.2212h-222.3564c.2749-.7222.4526-1.4868.5239-2.2778.2046-2.2646-.4854-4.4736-1.9443-6.2222-1.4653-1.752-3.5244-2.8257-5.7993-3.0239-2.2197-.1924-4.3857.4736-6.0854,1.8652v-244.0503h235.6616v163.4653h-25.0044c-4.6929,0-8.5107,3.8179-8.5107,8.5112s3.8179,8.5112,8.5107,8.5112Zm115.248-8.5112c0,3.1831,1.7568,5.9639,4.3525,7.4233l-77.5713,64.6475v-248.5713l91.269-76.0586v244.0479h-9.5361c-4.6948,0-8.5142,3.8179-8.5142,8.5112Z" fill="#fff"/><path d="m227.8048,280.1442c4.6929,0,8.5112-3.8184,8.5112-8.5112v-33.5181c0-4.6929-3.8184-8.5112-8.5112-8.5112s-8.5112,3.8184-8.5112,8.5112v33.5181c0,4.6929,3.8184,8.5112,8.5112,8.5112Z" fill="#fff"/><path d="m227.8048,347.1842c4.6929,0,8.5112-3.8184,8.5112-8.5112v-33.5181c0-4.6929-3.8184-8.5112-8.5112-8.5112s-8.5112,3.8184-8.5112,8.5112v33.5181c0,4.6929,3.8184,8.5112,8.5112,8.5112Z" fill="#fff"/><path d="m245.8546,381.7321h-9.5366v-9.5361c0-4.6929-3.8193-8.5112-8.5142-8.5112s-8.5112,3.8184-8.5112,8.5112v14.0513l-10.8037,9.0049c-1.7451,1.4556-2.8184,3.5049-3.0225,5.7705-.2041,2.2661.4863,4.4746,1.9346,6.208,1.4658,1.7666,3.5293,2.8491,5.811,3.0474.2515.022.5015.0327.7505.0327,1.9956,0,3.9048-.6963,5.4448-1.9985l11.4648-9.5547h14.9824c4.6929,0,8.5107-3.8184,8.5107-8.5112s-3.8179-8.5142-8.5107-8.5142Z" fill="#fff"/><path d="m431.4967,381.7321h-30.9414c-4.6929,0-8.5112,3.8193-8.5112,8.5142s3.8184,8.5107,8.5112,8.5107h30.9414c4.6948,0,8.5142-3.8179,8.5142-8.5107s-3.8193-8.5142-8.5142-8.5142Z" fill="#fff"/><path d="m307.7369,381.7321h-30.9409c-4.6929,0-8.5112,3.8193-8.5112,8.5142s3.8184,8.5107,8.5112,8.5107h30.9409c4.6948,0,8.5142-3.8179,8.5142-8.5107s-3.8193-8.5142-8.5142-8.5142Z" fill="#fff"/><path d="m187.8063,415.6925c-2.2734-.1987-4.4766.5073-6.1748,1.9541l-26.8584,22.3672c-1.7461,1.457-2.8193,3.5068-3.0225,5.7725-.2031,2.2642.4878,4.4717,1.9365,6.2051,1.4678,1.7686,3.5337,2.8516,5.8169,3.0488.2495.022.498.0327.7456.0327,1.9951,0,3.9043-.6973,5.4429-2.0005l26.8394-22.354c1.7461-1.4565,2.8198-3.5059,3.0244-5.77.2046-2.2656-.4854-4.4741-1.9346-6.2085-1.4668-1.7676-3.5317-2.8496-5.8154-3.0474Z" fill="#fff"/></g></svg>