<?xml version="1.0" encoding="UTF-8"?>
<svg width="104px" height="105px" viewBox="0 0 104 105" version="1.1" xmlns="http://www.w3.org/2000/svg" xmlns:xlink="http://www.w3.org/1999/xlink">
    <title>analytics</title>
    <g id="01.-Home" stroke="none" stroke-width="1" fill="none" fill-rule="evenodd">
        <g id="Portal_Approved" transform="translate(-1231.000000, -836.000000)" fill-rule="nonzero">
            <g id="Group-50" transform="translate(-382.000000, 735.000000)">
                <g id="Group-32" transform="translate(712.000000, 0.000000)">
                    <g id="Group-31-Copy" transform="translate(772.539130, 0.000000)">
                        <g id="analytics" transform="translate(128.460870, 103.000000)">
                            <g id="Group">
                                <path d="M45.672068,2.27373675e-13 L45.67239,3.97466098 C37.3506787,4.93929639 29.6839366,8.0523444 23.2412519,12.7447245 C11.37048,21.3905261 3.65523372,35.3979674 3.65523372,51.2073764 C3.65523372,77.4692827 24.9450063,98.7587642 51.2072718,98.7587642 C68.0468905,98.7587642 82.8420696,90.0055971 91.2910312,76.8009817 L95.2989658,78.5076702 C86.2272806,93.2049994 70.0078109,103 51.5063372,103 L51.5063372,103 L51.4874261,103 C23.0530084,103 0,79.8656281 0,51.3366427 C0,24.7818263 19.9662777,2.8983851 45.672068,2.27373675e-13 L45.672068,2.27373675e-13 Z" id="Combined-Shape" fill="#E51D74"></path>
                                <path d="M57.3402041,0 L57.3402041,11.8126243 C76.558287,14.6542769 91.3129528,31.2634097 91.3129528,51.3364415 C91.3129528,55.5109047 90.6715855,59.5278447 89.489643,63.3124231 L100.290485,67.908155 C102.050624,62.7088862 103,57.1265728 103,51.3364415 C103,24.7818263 83.0335212,2.91085819 57.3402041,0 Z" id="Path" stroke="#E51D74" stroke-width="2"></path>
                            </g>
                            <g id="Group-17" transform="translate(37.822533, 35.000000)" fill="#E51D74" stroke="#E51D74" stroke-width="1.04000007">
                                <g id="Group-18">
                                    <path d="M15.3429497,0 C19.4819418,0 22.854454,3.34464012 22.854454,7.44942572 C22.854454,11.5542113 19.4819418,14.8988514 15.3429497,14.8988514 C11.2039575,14.8988514 7.83144543,11.5542113 7.83144543,7.44942572 C7.83144543,3.34464012 11.2039575,0 15.3429497,0 Z" id="Shape"></path>
                                    <path d="M0.0133491552,33.5008592 C0.779829182,25.7473753 7.37155741,19.6662115 15.4962457,19.6662115 C23.620934,19.6662115 30.2126622,25.7473753 30.9791422,33.5008592 C31.7456223,41.2543431 -0.753130872,41.2543431 0.0133491552,33.5008592 Z" id="Path"></path>
                                </g>
                            </g>
                        </g>
                    </g>
                </g>
            </g>
        </g>
    </g>
</svg>