<?xml version="1.0" encoding="UTF-8"?>
<svg width="98px" height="85px" viewBox="0 0 98 85" version="1.1" xmlns="http://www.w3.org/2000/svg" xmlns:xlink="http://www.w3.org/1999/xlink">
    <title>analytics_sm</title>
    <g id="01.-Home" stroke="none" stroke-width="1" fill="none" fill-rule="evenodd">
        <g id="Portal_Approved" transform="translate(-927.000000, -1886.000000)">
            <g id="Group-49" transform="translate(328.000000, 1760.000000)">
                <g id="Group-47" transform="translate(0.000000, 118.000000)">
                    <g id="Group-38" transform="translate(599.000000, 7.000000)">
                        <g id="analytics_sm" transform="translate(0.000000, 3.000990)">
                            <g id="Group-13" transform="translate(0.000000, 4.999010)" fill="#E31D74" fill-opacity="0.1">
                                <path d="M30.61619,4.97922598 C2.54636837,-12.5121984 -3.04961892,20.3358505 1.33278315,37.8857489 C6.7948104,59.7591466 -7.17172317,69.8014503 5.98551826,76.6565758 C19.6403593,83.7709583 35.6593414,58.6090366 68.1466366,62.6407256 C110.3239,67.8749444 105.231335,18.8601597 60.9736688,18.3178239 C49.8332428,18.1813085 42.6014601,12.4477253 30.61619,4.97922598 Z" id="Combined-Shape-Copy"></path>
                            </g>
                            <g id="Group-9" transform="translate(23.001430, 0.000000)" fill-rule="nonzero">
                                <g id="Group">
                                    <path d="M24.9720899,9.59232693e-14 L24.9724342,2.17323327 C20.4223121,2.70065117 16.230312,4.40280422 12.7076057,6.96852083 C6.21703069,11.6958454 1.99857,19.3547905 1.99857,27.99901 C1.99857,42.3584135 13.6391665,53.99901 27.99857,53.99901 C37.2059551,53.99901 45.2955039,49.212984 49.9151386,41.99301 L52.1065597,42.9261798 C47.1464397,50.9623397 38.2781298,56.3180197 28.1620898,56.3180197 L28.1620898,56.3180197 L28.1517498,56.3180197 C12.6046799,56.3180197 -3.65929509e-13,43.6686798 -3.65929509e-13,28.0696898 C-3.65929509e-13,13.5501299 10.9169499,1.58476999 24.9720899,9.59232693e-14 L24.9720899,9.59232693e-14 Z" id="Combined-Shape" fill="#E31D74"></path>
                                    <path d="M31.3518698,0 L31.3518698,6.45886997 C41.8597298,8.01261996 49.9271297,17.0941099 49.9271297,28.0695798 C49.9271297,30.3520798 49.5764497,32.5484498 48.9301997,34.6177698 L54.8357697,37.1306098 C55.7981597,34.2877698 56.3172497,31.2354898 56.3172497,28.0695798 C56.3172497,13.5501299 45.4001898,1.59158999 31.3518698,0 Z" id="Path" stroke="#E31D74" stroke-width="2"></path>
                                </g>
                                <g id="Group-17" transform="translate(19.998570, 18.999010)" fill="#E31D74" stroke="#E31D74" stroke-width="1.04000007">
                                    <g id="Group-18">
                                        <path d="M8.81753628,6.88338275e-14 C11.0751684,6.88338275e-14 12.9147204,1.83955206 12.9147204,4.09718414 C12.9147204,6.35481622 11.0751684,8.19436829 8.81753628,8.19436829 C6.55990421,8.19436829 4.72035214,6.35481622 4.72035214,4.09718414 C4.72035214,1.83955206 6.55990421,6.88338275e-14 8.81753628,6.88338275e-14 Z" id="Shape"></path>
                                        <path d="M0.45593599,18.4254726 C0.874016005,14.1610564 4.46950413,10.8164163 8.90115229,10.8164163 C13.3328004,10.8164163 16.9282886,14.1610564 17.3463686,18.4254726 C17.7644486,22.6898887 0.0378559756,22.6898887 0.45593599,18.4254726 Z" id="Path"></path>
                                    </g>
                                </g>
                            </g>
                        </g>
                    </g>
                </g>
            </g>
        </g>
    </g>
</svg>