<?xml version="1.0" encoding="UTF-8"?>
<svg width="98px" height="87px" viewBox="0 0 98 87" version="1.1" xmlns="http://www.w3.org/2000/svg" xmlns:xlink="http://www.w3.org/1999/xlink">
    <title>Applications</title>
    <defs>
        <polygon id="path-1" points="0 0 39 0 39 62 0 62"></polygon>
    </defs>
    <g id="01.-Home" stroke="none" stroke-width="1" fill="none" fill-rule="evenodd">
        <g id="Portal_Approved" transform="translate(-328.000000, -2270.000000)">
            <g id="Group-49" transform="translate(328.000000, 1760.000000)">
                <g id="Group-47" transform="translate(0.000000, 118.000000)">
                    <g id="Group-7" transform="translate(0.000000, 390.000000)">
                        <g id="Applications" transform="translate(0.000000, 2.000000)">
                            <path d="M30.61619,13.979226 C2.54636837,-3.51219835 -3.04961892,29.3358505 1.33278315,46.8857489 C6.7948104,68.7591466 -7.17172317,78.8014503 5.98551826,85.6565758 C19.6403593,92.7709583 35.6593414,67.6090366 68.1466366,71.6407256 C110.3239,76.8749444 105.231335,27.8601597 60.9736688,27.3178239 C49.8332428,27.1813085 42.6014601,21.4477253 30.61619,13.979226 Z" id="Combined-Shape-Copy-2" fill-opacity="0.1" fill="#E31D74"></path>
                            <g id="Group-8" transform="translate(33.000000, 0.000000)">
                                <g id="Group-3">
                                    <mask id="mask-2" fill="white">
                                        <use xlink:href="#path-1"></use>
                                    </mask>
                                    <g id="Clip-2"></g>
                                    <path d="M6.92722144,1.81908426 C4.11819464,1.81908426 1.82990127,4.0879321 1.82990127,6.87755881 L1.82990127,55.1206203 C1.82990127,57.910247 4.11819464,60.1827366 6.92722144,60.1827366 L32.0727786,60.1827366 C34.8818054,60.1827366 37.1664316,57.910247 37.1664316,55.1206203 L37.1664316,6.87755881 C37.1664316,4.0879321 34.8818054,1.81908426 32.0727786,1.81908426 L6.92722144,1.81908426 Z M32.0727786,62 L6.92722144,62 C3.10606488,62 0,58.9153866 0,55.1206203 L0,6.87755881 C0,3.08643426 3.10606488,-0.00182090517 6.92722144,-0.00182090517 L32.0727786,-0.00182090517 C35.8939351,-0.00182090517 39,3.08643426 39,6.87755881 L39,55.1206203 C39,58.9153866 35.8939351,62 32.0727786,62 L32.0727786,62 Z" id="Fill-1" fill="#E31D74" mask="url(#mask-2)"></path>
                                    <g id="Group-54" mask="url(#mask-2)" fill="#E31D74">
                                        <g transform="translate(10.000000, 10.000000)" id="Rectangle">
                                            <rect x="0" y="-2.27373675e-13" width="5" height="5.71428571" rx="1"></rect>
                                            <rect x="8" y="-2.27373675e-13" width="5" height="5.71428571" rx="1"></rect>
                                            <rect x="0" y="8" width="5" height="5.71428571" rx="1"></rect>
                                        </g>
                                    </g>
                                </g>
                                <path d="M7.52145295,5.81902624 C6.58898098,5.81902624 5.8283764,6.57574116 5.8283764,7.50344454 L5.8283764,47.4965555 C5.8283764,48.4242588 6.58898098,49.1809738 7.52145295,49.1809738 L30.4785471,49.1809738 C31.4146758,49.1809738 32.1716236,48.4242588 32.1716236,47.4965555 L32.1716236,7.50344454 C32.1716236,6.57574116 31.4146758,5.81902624 30.4785471,5.81902624 L7.52145295,5.81902624 Z M30.4785471,51 L7.52145295,51 C5.57971721,51 4,49.4283613 4,47.4965555 L4,7.50344454 C4,5.57163867 5.57971721,4 7.52145295,4 L30.4785471,4 C32.4202828,4 34,5.57163867 34,7.50344454 L34,47.4965555 C34,49.4283613 32.4202828,51 30.4785471,51 L30.4785471,51 Z" id="Fill-4" fill="#E31D74"></path>
                                <path d="M22.0295973,57 L15.9704027,57 C15.4347404,57 15,56.552 15,56 C15,55.448 15.4347404,55 15.9704027,55 L22.0295973,55 C22.5652596,55 23,55.448 23,56 C23,56.552 22.5652596,57 22.0295973,57" id="Fill-6" fill="#E31D74"></path>
                            </g>
                        </g>
                    </g>
                </g>
            </g>
        </g>
    </g>
</svg>