<?xml version="1.0" encoding="utf-8"?>
<!-- Generator: Adobe Illustrator 25.2.0, SVG Export Plug-In . SVG Version: 6.00 Build 0)  -->
<svg version="1.1" id="Layer_1" xmlns="http://www.w3.org/2000/svg" xmlns:xlink="http://www.w3.org/1999/xlink" x="0px" y="0px"
	 viewBox="0 0 266.7 247.5" style="enable-background:new 0 0 266.7 247.5;" xml:space="preserve">
<style type="text/css">
	.st0{fill:#FACFB1;}
	.st1{fill:#DF9F73;}
	.st2{fill:#F3AEA5;}
	.st3{fill:#F5978A;}
	.st4{fill:#F3C9C3;}
</style>
<g>
	<g>
		<g>
			<g>
				<g>
					<path class="st0" d="M49.9,90c-14.6-6-27-17.4-36-33C4.8,41.3,0,22.3,0,2.1h17.1c0,17.2,4,33.2,11.6,46.4
						c7,12.1,16.8,21.2,27.7,25.7L49.9,90z"/>
				</g>
			</g>
			<g>
				<g>
					<path class="st0" d="M216.8,90l-6.5-15.8c10.9-4.4,20.7-13.6,27.7-25.7c7.6-13.2,11.6-29.2,11.6-46.4h17.1
						c0,20.2-4.8,39.2-13.9,54.9C243.8,72.7,231.4,84.1,216.8,90z"/>
				</g>
			</g>
		</g>
		<g>
			<g>
				<g>
					<path class="st0" d="M17.1,2.1c0,1.2-3.8,2.1-8.5,2.1S0,3.3,0,2.1C0,0.9,3.8,0,8.5,0S17.1,0.9,17.1,2.1z"/>
				</g>
			</g>
			<g>
				<g>
					<ellipse class="st1" cx="8.5" cy="2.1" rx="7.4" ry="1.3"/>
				</g>
			</g>
		</g>
		<g>
			<g>
				<g>
					<path class="st0" d="M17.1,2.1c0,1.2-3.8,2.1-8.5,2.1S0,3.3,0,2.1C0,0.9,3.8,0,8.5,0S17.1,0.9,17.1,2.1z"/>
				</g>
			</g>
			<g>
				<g>
					<ellipse class="st1" cx="8.5" cy="2.1" rx="7.4" ry="1.3"/>
				</g>
			</g>
		</g>
		<g>
			<g>
				<g>
					<path class="st0" d="M266.7,2.1c0,1.2-3.8,2.1-8.5,2.1s-8.5-0.9-8.5-2.1c0-1.2,3.8-2.1,8.5-2.1S266.7,0.9,266.7,2.1z"/>
				</g>
			</g>
			<g>
				<g>
					<ellipse class="st1" cx="258.2" cy="2.1" rx="7.4" ry="1.3"/>
				</g>
			</g>
		</g>
	</g>
	<g>
		<g>
			<g>
				<g>
					<path class="st2" d="M145.1,245c0-17.3,7.7-33.6,19.7-46c12-12.3,26.8-21.4,40.4-32c13.6-10.6,26.3-23.3,31.8-39.6
						c11.4-34-11.7-60.1-41.5-71.8c-19.6-7.7-41-12-62.1-12c-21.1,0-42.5,4.3-62.1,12c-29.8,11.7-52.9,37.8-41.5,71.8
						c5.5,16.3,18.3,29.1,31.8,39.6c13.6,10.6,28.4,19.7,40.4,32c12,12.3,19.7,28.5,19.7,46H145.1z"/>
				</g>
			</g>
		</g>
		<g>
			<g>
				<g>
					<path class="st3" d="M197.4,164.6c12.1-9.4,23.5-20.8,28.4-35.4c5.1-15.1-13.8,10.3-92.4,10.3c-78.6,0-97.5-25.6-92.4-10.3
						c4.9,14.5,16.3,25.9,28.4,35.4c6,4.7,35,23.7,64,23.7C162.3,188.3,191.3,169.3,197.4,164.6z"/>
				</g>
			</g>
		</g>
		<g>
			<g>
				<g>
					<ellipse class="st2" cx="133.3" cy="245" rx="11.7" ry="2.5"/>
				</g>
			</g>
		</g>
		<g>
			<g>
				<ellipse class="st4" cx="133.3" cy="84.3" rx="63.4" ry="27.1"/>
			</g>
		</g>
	</g>
</g>
</svg>
