<?xml version="1.0" encoding="utf-8"?>
<!-- Generator: Adobe Illustrator 25.2.0, SVG Export Plug-In . SVG Version: 6.00 Build 0)  -->
<svg version="1.1" id="Layer_1" xmlns="http://www.w3.org/2000/svg" xmlns:xlink="http://www.w3.org/1999/xlink" x="0px" y="0px"
	 viewBox="0 0 277.8 222.3" style="enable-background:new 0 0 277.8 222.3;" xml:space="preserve">
<style type="text/css">
	.st0{fill:#D77E6A;}
	.st1{fill:#66392F;}
	.st2{fill:#7E4539;}
	.st3{fill:#F3B89D;}
	.st4{fill:#FCD3CB;}
	.st5{fill:#9A5B4D;}
	.st6{fill:#BF8574;}
</style>
<g>
	<g>
		<path class="st0" d="M159.6,173.3c-14.4,12.7-25.3,29.3-31.2,47.6c-5.2,1.5-11.2,1.9-16.4,0.4c2.8-13.4,2.3-28.3,0.5-41.9
			c4.3-7.4,12.9-11.6,21.5-11.9C142.6,167.1,151.5,170.3,159.6,173.3z"/>
	</g>
	<g>
		<path class="st1" d="M102.3,208.4c1.9,0,13,1.8,19-3c6-4.8,12.6-19.8,9.1-29.4C120,183.4,107.4,196.8,102.3,208.4z"/>
	</g>
	<g>
		<path class="st2" d="M132.5,171.5c-1.2,5.4-5.5,13.1-10.8,14.4c-1,5.7-6.4,12-11.7,14.2c-2.8,5-6.7,9.4-11.6,12.3
			c-4.9,2.9-11.6,3.5-17.1,1.9c-2.9,1.6-6.8,1.7-9.6-0.1c-3.3,1.4-7.5-0.1-9.5-3.1c-2.4,0.5-4.9-1.4-5.8-3.7
			c-1.9,0.1-3.9-0.5-5.4-1.7c-1.5-1.2-1.7-2.8-1.9-4.7c-2.5-0.5-4-2.9-3.7-5.4c-2.5-0.6-4.7-2.6-5.4-5.1c-0.7-2.5,0.1-5.4,2.1-7.2
			C53.5,172.6,71,171,86.5,169.7S118.7,159.8,132.5,171.5z"/>
	</g>
	<g>
		<g>
			<path class="st1" d="M86.5,169.7c-15.5,1.2-33,2.9-44.4,13.4c-1.9,1.8-2.7,4.6-2.1,7.2c0,0,0,0.1,0,0.1c1.7-0.6,3.3-1.5,4.8-2.5
				c2.9-1.8,5.8-3.4,9.2-3.7c-0.1-0.7,0.3-1.3,0.9-1.6c0.6-0.4,1.2-0.5,1.9-0.6c1.4-0.2,3.5,0.1,4.6-0.8c2.3-1.9,5.8-2.6,8.7-1.7
				c4.2-1.4,9.3-1.1,13.3,0.9c-0.4-0.3-0.7-0.6-0.9-1c-0.9-2.1,6.7-2.9,7.8-3c3-0.3,6.2-0.1,9,1c1,0.4,2,0.9,2.7,1.7
				c0.7,0.8,1.2,1.9,1,3c-0.3,1.8-2.2,2.9-4,3.2c-2.6,0.4-5.7,0-7.8-1.7c0.8,0.9,3.4,1.9,1.6,3.1c-0.9,0.6-2.6,0.3-3.6,0.2
				c-1.9-0.3-5.6-0.8-7-2.2c0.7,0.6,1.4,1.7,1.7,2.5c1,0,2.2,0.6,3,1.2c1.6-1.2,4.6-0.9,5.9,0.5c1.2-0.8,2.6-1.2,4-1.2
				c0.8,0,2.3,0,2.5,0.8c0.3-1,0.8-1.9,1.6-2.6c0.8-0.7,1.8-1.1,2.8-0.9c1.2,0.2,2.7,1.3,2.8,2.5c0.7-1.7,1.5-3.4,2.8-4.7
				c1.2-1.4,3-2.8,4.8-2.7c1.8,1.3,2.7,3.6,2.6,5.8c-0.1,2.2,3.9,5.6,4.9-0.1c5.4-1.2,9.7-9,10.8-14.4
				C118.7,159.8,102,168.5,86.5,169.7z"/>
		</g>
		<g>
			<path class="st2" d="M83.4,180.4c0.6,0.4,1.3,0.8,1.8,1.1C84.6,181.1,84,180.8,83.4,180.4z"/>
		</g>
	</g>
	<g>
		<path class="st3" d="M186,173.1c1.4-0.7,2.8-1.4,4.2-1.9c7.1-2.6,12.8-6.3,15.6-13.9c3.1-8.6,0.7-19.5-5.2-26.8
			c26.3,2.7,64.5,2.2,73-23.9c3.7-11.3,6.8-26.3,1.5-38c-5.1-11.4-15.8-23.2-25.2-30.9c-6.8-5.6-13.6-13.5-21.3-18
			c-21.1-12.4-46-19-69.8-19.5c-5.9-0.1-10.9,1.8-16.7,2.1c-7.3,0.4-14.6,0.3-22,0.7c-14.7,0.8-29.4,1.2-43.4,5.8
			c-1.4,0.5-5,1.3-6.4,4c-0.6,1.9-2.6,5.7-7.3,4c-7.9-0.4-17.4,13.7-24.6,22c-3.2,3.7-6.1,7.6-8.9,11.5c-4.4,6-15.1,16.8-14.6,19.1
			c0.4,1.6-0.2,2.8-2.2,3.3c-1.4,0.4-2.8,4.9-3.9,7.3c-4.5,10.5-7.3,22.9-8.4,34.5c-0.3,3.6-0.5,10-0.2,13.2
			c2.3,0.9,1.2,2.1,0.9,4.9c-0.5,4.6-0.4,10.7-0.6,15.2c-0.4,10.6-0.7,23.8,7.1,32.6c5.6,6.2,14,9.1,21.9,9.4
			c6.3,0.3,11-1.4,16.4-3.5c2.8-2.9,5.7-7.5,10.8-4.8c5-1.8,11.1-3.2,16.6-3.3c14.9-0.3,27.5-6.3,42.1-8.2
			c13.9-1.8,25.6,6.2,38.8,7.9C166.5,179.5,175.4,178.6,186,173.1z"/>
	</g>
	<g>
		<path class="st0" d="M29.7,66.2c0-0.2,3.7-3.6,4.3-4.1c1.9-1.8,4.1-3.3,6.5-4.4c2.2-1,4.7-1.5,7.1-1.2c2.5,0.4,4.9,1.9,6.2,4.3
			c1.1,2.1,1.1,4.6,1,6.9c-0.2,5.3-3.1,9.9,0.7,15.1c1.4,1.9,3.4,3.3,5.5,3.6c0.3-2.3-1.3-4.4-2.7-6.3c-3.7-5-1.3-11.6-1.4-17.3
			c0-2.6-0.8-5.4-2.8-7c-1.9-1.4-4.3-1.4-6.4-0.9c-3,0.7-7,0.4-6.7-4.2c0.2-2.8,1.7-4.6,3.9-5.9c0.8-0.5,1.5-1.4,1.1-2.3
			c-0.4-1-1.9-1-2.5-0.3c-0.9,1-1.2,3.2-1.9,4.4c-1.1,1.9-2.1,3.6-2.4,6c-0.1,1-0.3,2.2-1.2,2.3c-0.3,0.1-0.6,0-0.9-0.1
			c-1.4-0.4-4.9-2.3-5.5,0.3c-0.2,1,1.1,1.3,1.4,2.1C34.1,60.8,29.9,62.9,29.7,66.2z"/>
	</g>
	<g>
		<path class="st0" d="M140.9,168.3c0.1,0,0.3-0.1,0.5-0.1c1.7-0.3,3.3-0.4,4.8-1.2c3.1-1.5,5.7-4,7.6-7c2.9-4.6,4.2-10.1,5.3-15.5
			c0.6-2.8,1-6.2-0.9-8.4c0-0.4,0.1-1.1,0.5-1.1c0.4,0.1,0.8,0.4,1.1,0.7c0.3,0.3,0.6,0.7,1,0.9c1.4,0.6,2.2-0.9,3.3-1.5
			c0.5-0.3,1.8-0.3,2.2,0.4c0.3,0.8-0.6,1.5-1,2c-1.3,1.6-2.6,3.4-3.3,5.4c-0.6,1.9-0.4,4.3,1,5.7c2,2,5.1,2.5,7.7,3.3
			c2.6,0.8,5.4,1,7.9,0.1c1.1-0.4,2-1,3-1.6c0.5-0.3,1.9-1.6,2.5-1.5c0.9,0.2,0.7,1.3,0.3,1.8c-0.4,0.5-1.3,0.7-1.9,0.9
			c-2.5,1-5,1.9-7.5,2.9c-1.8,0.7-3,1.6-4.5,2.9c-1.1,1-2.5,1.7-2.3,3.6c0.2,1.5,1.3,2.9,2.6,3.7c3,1.7,6.9,1.9,10.1,1.9
			c1,0,2.1,0,3.1,0c1.1,0,2.2-0.5,2.3,0.9c-2.2,0.3-4.3,0.8-6.5,0.8c-4,0.1-8,0.2-12,0.3c-1.1,0-2.4,0-3.3-0.7
			c-1.1-0.9-1.3-2.7-0.9-4.1c0.4-1.4,1.2-2.6,1.7-4c0.4-1.2,0.6-2.5,0.2-3.8c-0.4-1.2-1.6-2.3-2.8-2.3c-1.8,0-2.9,2-3.8,3.7
			c-1.9,3.4-5,6.1-8.4,7.8c-3.1,1.6-5.3,4.2-9.2,4.2C139.5,169.7,139.7,168.7,140.9,168.3z"/>
	</g>
	<g>
		<path class="st0" d="M120.7,163c0.1-0.3,0.6-0.6,1.4-0.9c1.3-0.4,2.6-0.9,3.9-1.5c2.4-1.3,4.6-3,6.6-4.8c2.3-2.1,4.5-4.4,6.6-6.7
			c1.8-2.1,3.2-4.9,5.2-6.7c0.3-0.3,0.8-0.5,1.3-0.3c3.2,1.3-7.4,11.5-8.5,12.7c-0.7,0.8-4.7,2.5-4,4c0.5,1.2,4.5,0.2,5.5,0.3
			c1.9,0.3,4,2,3.7,4c-1.1,0.8-2.7,0-4-0.5c-2.7-1.1-5.7-1.2-8.3-0.3c-1.9,0.6-3.6,1.7-5.5,2.2C123.1,164.9,120.2,164,120.7,163z"/>
	</g>
	<g>
		<path class="st0" d="M31.3,164c-5.6,0.7-10,5.9-9.9,11.8c1.3,0.6,2.7-0.4,3.3-1.6c0.6-1.2,0.8-2.6,1.4-3.8c1.3-2.4,4-3.3,6.7-3.8
			c2.6-0.4,5.4-0.6,7.7-2c2.6-1.6,3.9-4.7,4.6-7.8c0.7-3.1,0.8-6.3,1.5-9.4c0.4-1.6,1.2-3.3,1.4-4.9c0.1-1.1-0.5-2.3-0.3-3.3
			c0.6-2.7,4.2-3.5,5.9-1.2c0.9-2.2,1.8-4.3,2.6-6.5c-1.4,1.3-3.1,2.2-4.9,2.5c-3.1,0.5-3.9-0.8-5.7-2.7c-1.8-1.7-4.5-2.6-6.9-3.2
			c-3.7-0.9-7.7-1.4-10.7-4c-0.9-0.7-1.7-1.6-2.7-1.9c-1-0.3-2.4,0.3-2.3,1.4c0.1,0.8,0.8,1.4,1.5,1.8c2.8,1.7,5.8,2.5,8.8,3.5
			c3,1,6,2.2,8.4,4.4c2.4,2.2,4,5.6,3.2,8.6c-0.4,1.7-1.5,3.1-1.9,4.8c-0.4,1.8,0.1,3.7,0,5.5c-0.2,2.8-1.7,5.1-3.2,7.3
			c-1,1.5-2.2,3.2-3.9,3.9C34.5,164,32.9,163.8,31.3,164z"/>
	</g>
	<g>
		<path class="st0" d="M41.3,183.8c-1.6-0.1-3.2-1.4-3.8-3c-0.4-1.2-0.3-2.4-0.4-3.6c-0.3-2.6-2-5.1-4.3-6.5
			c-0.9-0.5-1.8,1.2-1.4,2.1c0.4,0.9,1.2,1.6,1.8,2.4c1.2,1.5,1.8,3.4,1.8,5.3c0,0.9-1.1,4.9-0.8,5.4
			C34.9,186.9,40.4,183.9,41.3,183.8z"/>
	</g>
	<g>
		<path class="st0" d="M10.1,165.4c-0.5-2.3,1.1-4.2,2.8-5.6c1.6-1.4,3.4-3.2,3.2-5.5c-0.2-2.4-2.8-4.7-2.1-6.9c0.6-0.5,1.6,0.3,2,1
			c0.4,0.8,1,1.7,1.8,1.6c0.7-0.1,1-0.9,1.3-1.5c0.3-0.6,1.1-1.2,1.7-0.7c0.2,0.2,0.3,0.6,0.3,0.9c0.1,1.4-0.5,2.6-0.9,3.9
			c-0.4,1.3-0.4,2.9,0.6,3.9c0.6,0.6,1.4,0.9,2,1.5c0.6,0.6,0.6,1.9-0.2,1.9c-0.5,0-1-0.5-1.4-0.9c-0.8-0.7-2-0.9-3-0.7
			c-1,0.2-1.9,0.7-2.7,1.3C13.4,161.4,11.6,163.3,10.1,165.4z"/>
	</g>
	<g>
		<path class="st0" d="M181.1,10.9c-0.1,0-0.2-0.1-0.3-0.1c-1.8-0.6-3.6-0.9-5.3-1.6c-1.4-0.6-2.7-1.6-4.2-1.8
			c-1.5-0.1-2.7-0.1-4.2-0.6c-0.9-0.3-1.6-0.8-2.6-0.5c-2.6,0.8-1.4,2.6,0.5,2.9c1.5,0.3,3,0,4.5,0.1c2.9,0.3,5.8,0.9,8.7,1.8
			c2,0.6,4,1.3,5.6,2.8c3.3,3.1,3.3,8.2,5.4,12.1c0.4,0.7,0.9,1.4,1.7,1.5c1.3,0.1,1.7-1.6,2.6-2.6c0.9-1,2.4-1.1,3.6-1.5
			c1.2-0.5,2.5-1.7,1.9-3c-0.6-1.2-2.3-1.3-3.5-0.8c-1.2,0.5-2.4,1.2-3.7,0.9c-1.2-0.3-2-1.4-2.7-2.4
			C186.6,14.7,185.3,12.3,181.1,10.9z"/>
	</g>
	<g>
		<path class="st0" d="M235.3,34.2c-0.2,0.2-0.5,0.1-1.1-0.7c-0.5-0.7-0.6-1.6-0.8-2.5c-1.7-9.9-13.5-8.4-19.5-8.3
			c-0.6,0.3-3.4,7.2,1.4,11.5c-0.6,1.9-4.6,3.2-5.1,2.7c-1.2-1.3,0.6-15.1,1.4-16.2c2.1-2.6,5-0.7,7.6,0c0.8,0.2,1.6,0.4,2.4,0.5
			c1.6,0.3,3.2,0.5,4.7,0.8c2.3,0.6,4.7,1.6,6.3,3.6c1.3,1.6,2.1,3.8,2.6,5.9C235.4,32.1,235.7,33.8,235.3,34.2z"/>
	</g>
	<g>
		<path class="st0" d="M231.4,49.5c-1.5-0.5-3.3,0.8-4.4,2.2c-1.2,1.6-2.7,3.4-4.6,3.2c-1.9-0.2-17.6-1.9-19.4-1.5
			c-0.2,1.9,15.9,2.6,17.5,3.5c8,5,13.8,15.9,13.7,25.6c0,3-0.9,6-2.9,8c-1.2,1.2-2.8,2-3.4,3.6c-0.3,0.8-0.3,1.8,0.3,2.4
			c0.8,0.6,1.9,0.1,2.6-0.6c3.7-3.2,5.8-8.2,5.6-13.4c-0.3-6.9,0.5-13-3.8-18.3c-0.9-1.1-1.8-2.1-2.5-3.3c-0.7-1.2-1.1-2.7-0.6-4
			c0.3-0.9,1-1.6,1.7-2.3c0.6-0.7,1.3-1.5,1.4-2.5C232.6,51.2,232.3,49.8,231.4,49.5z"/>
	</g>
	<g>
		<path class="st0" d="M246,66.2c0.2,2,1.5,3.4,2,5.3c0.5,2-0.3,4.1-0.7,6.1c-0.5,2.4-1,4.8-1,7.3c0,0.7,0,1.5,0.4,2.2
			c0.4,0.6,1.2,1,1.8,0.7c2.9-1.7,2.7-10.1,2.2-13.1c-0.8-4.6-2.7-9.4-4.1-14c-0.5-1.5-2-8-4.2-7.2c0,1,0.3,1.9,0.8,2.7
			c0.7,1.3,1.8,2.4,2.3,3.8C246.1,61.9,245.7,64.1,246,66.2z"/>
	</g>
	<g>
		<path class="st0" d="M202.9,126.1c-1.2,0.5-2.9,0.6-2.4,4.3c-2.7-3.2-14.3-10.5-14.8-16c4.4,6.9,16.2,8,21.6,5.3
			c1.7-0.8,3.3-1.9,5.2-1.9c2.3,0,4.3,1.7,6.4,2.9c3.6,1.9,7.9,2.1,11.6,0.5c3.6-1.6,6.5-4.9,7.6-8.9c1.2,2.4,0.6,5.2,0,7.8
			c3.2,0.3,6.3,1.3,9.1,2.9c-1.1,0.9-2.7,0.8-4,0.4c-1.4-0.4-2.7-1.1-4.1-1.4c-3.1-0.6-6.1,0.7-9,1.8c-2.9,1.2-6.2,2.1-9.1,0.9
			c-1.4-0.6-2.5-1.6-3.8-2.4c-1.3-0.8-2.9-1.2-4.2-0.5c-1.3,0.7-1.8,2.8-0.6,3.8c0.5,0.4,1.3,0.7,1.2,1.4c0,0.5-0.6,0.7-1.1,0.6
			c-0.5-0.1-0.8-0.5-1.2-0.9C208.3,123.8,206.6,124.5,202.9,126.1z"/>
	</g>
	<g>
		<path class="st0" d="M191.5,65.5c-0.9-1-1.9-1.8-2.8-2.7c-0.4-0.3-0.7-0.6-1.2-0.6c-0.5,0-0.9,0.4-1.1,1c-0.1,0.5-0.1,1.1,0.1,1.6
			c0.5,1.9,1.9,3.5,3.5,4.4c1.4,0.7,3.2,1,3.9,2.5c0.4,0.8,0.4,1.8,0.6,2.7c0.3,0.9,1.2,1.8,2,1.3C195.8,71.9,194.1,68.3,191.5,65.5
			z"/>
	</g>
	<g>
		<path class="st0" d="M172.7,42.9c-0.9,0-1.8,0-2.7-0.4c-0.8-0.4-1.5-1.4-1.4-2.4c1.2-1.4,3.2-1.6,5-1.4c1.8,0.1,3.7,0.4,5.3-0.5
			c1.9-1.1,2.6-3.6,2.3-6c-0.4-2.3-1.7-4.4-3.2-6.2c-1.5-1.7-3.2-3.3-5-4.5c1.8-0.7,4,0.3,5.4,1.8c1.5,1.5,2.4,3.5,3.5,5.3
			c1.1,1.8,2.3,3.7,4.1,4.7c0.8,0.5,1.7,0.7,2.4,1.2c0.8,0.5,1.4,1.4,1.4,2.3c-1.7-0.7-3.5-1.3-5.1-0.6c-1.8,0.8-2.6,3.1-4,4.5
			C178.7,42.8,175.5,42.9,172.7,42.9z"/>
	</g>
	<g>
		<path class="st0" d="M166.4,78.5c-3.5-0.2-6.3-3.4-8.3-6.7c-1.9-3.3-3.5-7-6.3-9.4c-3-2.5-6.9-3.2-9.8-5.6c-1.1-1-2.1-2.2-3-3.3
			c-0.9-1.1-6.7-6.9-4.4-7.8c0.9-0.4,4.3,5.5,5.6,6.5c1,0.8,2.3,1.4,3.4,0.9c1.1-0.6,1.3-2.1,1.1-3.5c-0.3-1.3-0.9-2.6-1.1-3.9
			c-0.5-3.7,2-6.9,2.3-10.4c0.3-3.4,0.9-7.3-0.1-10.7c-1.2-4.3-5-8.1-9-7.9c-1,0-2,0.3-2.9,0c-1-0.3-1.9-1.4-1.5-2.4
			c0.2-0.5,0.6-0.7,1.1-0.9c3.6-1.5,7.7,0.9,10.9,3.6c3.1,2.7,6.2,6.1,10,7c2.5,0.6,5.1,0,7.7,0.4c2.6,0.3,5.4,2.1,5.7,4.9
			c-3.6-1.2-7.3-2-11.1-2.5c-2.5-0.3-5.3-0.3-6.8,1.6c-1.1,1.3-1.3,3.3-1.4,5.1c-0.3,4.1-0.7,8.2-1,12.3c-0.3,3.7-0.4,8,2.2,10.5
			c2.1,2.1,5.4,2.4,7.4,4.7c2.3,2.7,1.7,7.2,3.9,10c1,1.3,2.5,2.1,3.8,3.2C165.9,75.2,166.9,76.9,166.4,78.5z"/>
	</g>
	<g>
		<path class="st0" d="M96.1,7.4c0.9,1.6,7.1,2.9,8.6,4.2c3.4,2.8,3.7,8.7,7.7,9.9c1.2,0.4,2.5,0.3,3.7,0.8c1.8,0.6,3.2,2.4,4.7,3.7
			c1.9,1.7,3.6,2.5,5.9,3.1c2.2,0.7,4.8,1.8,5.5,4.2c0.2,0.8,5.9-1.1,2.1-4.2c-1.1-0.9-2.5-1.1-3.8-1.6c-3.2-1.2-5.6-5-8.9-5.5
			c-2.1-0.3-4.9,0.8-5-2.9c-0.2-6.6,9.2-6.1,11.9-10.1c2-3.1-2-3-3.7-2.2c-1.9,0.8-3.1,2.4-4.2,4c-1.6,2.3-4.7,8.6-8.4,6.8
			c-0.7-0.4-1.3-1-1.8-1.7c-1.1-1.5-1.9-3.8-3-5.1c-1.2-1.4-2.4-1.3-4-1.8c-0.7-0.2-8.1-4.6-7.2-1.8C96.1,7.3,96.1,7.3,96.1,7.4z"/>
	</g>
	<g>
		<path class="st0" d="M92,17c0.3,0.4,0.5,0.9,0.9,1.2c0.4,0.4,1,0.5,1.3,0.1c-0.8-3.9-4.8-7.1-8.7-7c-0.9,0.2-1.2,1.4-0.8,2.2
			c0.4,0.9,1.3,1.4,2.2,1.6c0.9,0.3,1.8,0.3,2.7,0.5C90.5,15.9,91.4,16.2,92,17z"/>
	</g>
	<g>
		<path class="st0" d="M78.2,164.7c-0.7-1-1.4-2-1.6-3.2c-0.4-2.7,2.2-4.5,1.1-7.5c-1-2.8-5.1-2.7-7.4-3.3c-2.6-0.7-5.1-3.7-6.3-6.1
			c-0.6-1.1-1.3-2.8-0.9-4c0.4-1.4,1.9-2.4,2.9-0.7c1.4,2.5-0.2,4.9,2.9,6.9c2.5,1.6,5.5,1.9,8.4,2.5c1.7,0.4,3.5,0.9,5.1,0.6
			c2.2-0.4,3.8-2.1,5.3-3.7c1.7-1.8,3.4-4.3,2.2-6.6c-1.5-2.7-5.3-0.2-5.9-3.2c-0.7-3.7,3.4-1.9,5.2-1c2.7,1.4,6.2,2.7,5.4,6.6
			c-0.5,2.5-6.8,6.6-4.9,9c0.9,1.1,3.3,0.9,3.9,2.1c0.9,1.7-1.1,2.4-2.4,2.1c-0.7-0.2-1.4-0.6-2.1-0.8c-3.7-1.5-10.3-0.4-9.9,4.7
			c0.4,4.6,4.8,4.5,8.1,4.9c5,0.6,9.4,0.7,13.7-2.1c0.9-0.6,1.8-1.2,2.8-1.3c4.6-0.2-0.8,3.7-2.1,4.1c-2.2,0.7-4.5,0.9-6.8,1.3
			c-1.6,0.2-3.2,0.8-4.8,0.9c-1.7,0.2-3.3-0.5-5,0c-1.9,0.6-9.1,7.4-4.1,10.6c-3.3,0.9-6.9,1.1-9.8,0.7c2.3-1.3,5-3.8,6.5-6
			c1.5-2,2.2-4.5,0.6-6.9C78.5,165.1,78.3,164.9,78.2,164.7z"/>
	</g>
	<g>
		<path class="st0" d="M41.2,131.2c-0.4-0.3-0.8-0.6-1.3-0.6c-0.6,0-1.2,0.4-1.6,0.9c-0.4,0.5-0.6,1.1-0.8,1.7
			c-1.2,3.3-4.7,11.6-9.5,10.5c-2.6-0.6-4.4-4.2-6-6.3c-2.7-3.7-4.9-7.3-7.1-11.3c-1.9-3.3-4.3-6.1-3.4-10.1c1-4.7,5.1,0.3,8.4-0.1
			c1.5-0.2,2.9-0.9,4.5-0.9c2,0,3.7-0.4,3.2-3c-0.6-2.8-2-0.8-3,0c-2.3,1.8-4.9,2.1-7.4,0.5c-2-1.3-4.9-4.5-6.8-1.7
			c-0.4,0.9-0.7,1.8-1,2.8c-0.6,2.8-0.1,5.6,0.8,8.4c0.6,1.8,3.2,5,3.1,6.8c-0.1,4.5-3.3-3-3.8-3.9c-0.5-1.1-1.8-2.1-3-1.6
			c-1.7,0.8-0.1,1.6-0.4,2.8c-0.2,0.8-1.2,1.6-1.5,2.4c-1.3,0.7-3.1,0.1-3.7-1.3c-0.1-0.2-0.2-0.4-0.4-0.5c-0.4-0.2-0.8,0.5-0.6,0.9
			c0.2,0.4,0.6,0.7,0.9,1.1c0.4,0.5,0.3,1.3,0.2,1.9c-0.1,0.6-0.3,1.3-0.2,1.9s0.8,1.2,1.4,1c0.2-0.1,0.4-0.2,0.6-0.4
			c1.4-1.1,3.4-3.5,5.3-3.6c1.8-0.1,2.1,1.8,3.1,2.8c1.2,1.2,2.4,1.4,3.9,2.1c3.2,1.3,6.4,3.3,8.1,6.6c0.9,1.7,1.8,3.6,3.2,4.9
			c1.5,1.3,3.7,1.9,5.1,0.8c2.4-2,4.9-5,6.3-7.8c0.5-1.2,1-2.4,1.8-3.5s2.1-1.8,3.4-1.5C42.8,132.9,42.1,131.9,41.2,131.2z"/>
	</g>
	<g>
		<path class="st0" d="M253.1,100.7c-0.6,0,8.2-9.9,9-10.7c6.2-5.8,6.9-15.8,4.2-23.7c-3.1-9-9.6-16.8-17.9-20.4
			c-3.5-1.5-7.2-2.4-10.5-4.3c-4.1-2.4-7.4-6.4-11.9-7.9c-4.9-1.7-10.1-0.2-14.5,2.4c-4.3,2.6-8.1,6.2-12.3,9.1
			c-5,3.4-10.7,5.6-16.7,6.6c-3,0.5-6,0.5-9,0.5c-2.5,0-4.7,0.6-7.1-0.6c-1.6-0.8-3.1-2.1-4.4-3.4c-0.5-0.5-0.9-0.9-1.5-1.2
			c-0.6-0.2-1.3-0.2-1.7,0.3c-0.4,0.5-0.3,1.2-0.2,1.8c0.5,2.2,1.8,4.3,3.7,5.5c3.2,2,8.5,1.6,12,1.3c4.7-0.3,9.3-1.1,14.1-1.3
			c5.3-0.3,10.9-3.2,14.7,3.1c3.3,5.5,6.8,10.4,9.2,16.7c0.9,2.4,1.5,4.9,2.3,7.3c0.7,2.2,0.2,2.9-2.4,2.9
			c-5.4-0.1-10.8,0.1-16.2,0.5c-2.2,0.2-4.8,1-6.9,0.4c-2-0.6-3.7-2.4-5.1-3.9c-3-3.1-5.9-6.5-9.1-9.5c-3.2-3-4.1-1.2-1.6,2.1
			c1.1,1.4,2.5,2.4,3.8,3.6c3.7,3.6,6,8.8,6.1,14c0.1,5.2-1.9,10.2-5.5,13.6c-4.8,4.5-7.4-0.5-12.6-1.4c-3.3-0.6-9.4,2.2-11.3-1.9
			c-1.4-2.8,0.7-4.5,2.5-6.1c0.7-0.6,7.5-6.7,3.4-7.1c-0.6-0.1-1.1,0.4-1.4,0.8c-2,2.6-2.8,0.7-3.9-1.5c-1.2-2.6-3.1-4.6-5-6.7
			c-1.3-1.4-4.3-6-6.1-6.1c-1,0-2,0.9-2,2c-0.1,3.1,6,4.3,7.6,6.2c2.4,2.7,2.7,9.5,1.6,12.6c-1,3-3.5,5.3-6.4,6.1
			c-2.4,0.6-4.9,0.2-7.3-0.5c-2.6-0.8-5.1-2-7.4-3.7c-3.4-2.4-4.7-8.3-3.3-12.1c0.4-1,1-1.9,1.9-2.5c1.1-0.7,2.5-0.6,3.4-1.6
			c1.1-1.1,1.7-2.8,1.7-4.4c0-1.6-0.2-3.5-0.5-5c-0.2-1.3-1.4-2.2-1.6-3.5c-0.1-1,0.1-2.1,0.8-2.9c0.3-0.3,0.6-0.6,0.8-1
			c0.2-0.4,0.3-0.8,0.1-1.3c-0.5-1-3-0.4-4.1-0.7c-1.6-0.4-2.7-1.5-3.3-3.1c-0.8-2.2-0.6-4.6-0.8-6.9c-0.7-8.9-7.8-16.5-16-17.8
			c-7.5-1.3-14.7-4.6-21.9-8c-1.4-0.7-2.9-1.4-4.1-2.5c-1.2-1.1-2-2.8-1.8-4.4c0.2-1.8,1.6-3.8,0.4-5.2c-1.4-1.5-3.5,0.6-5.4,0.6
			c-1.3,0-3.4,2.1-3.5,0.7c-0.1-1.4-0.7-3.3-2.1-3.8c-2.3,3.3-6.1,4.6-7.3,4c1.8,4,6.9,4.5,10.1,4.3c1.5-0.1,3.2-0.6,4.5,0.3
			c1.3,0.9,1.5,2.7,2.1,4.2c1.5,3.5,5.3,5.1,8.6,6.3c6.9,2.5,13.8,5.1,20.7,7.6c2.8,1,5.7,2.1,8,4.2c3.4,3.1,5,7.8,6,12.3
			c0.8,3.3,1.3,6.6,2.6,9.8c0.6,1.4,1.4,2.5,2.2,3.7c0.8,1.4,1.2,3.4,1.6,5c0.4,1.8,0.3,3.9-1,5.1c-1.8,1.7-4.2,2.1-5.6,4.4
			c-1.2,2-1.3,4.4-0.9,6.6c0.5,2.7,2.2,5.3-0.1,7.5c-3,3-7.2-0.3-10.5,1.8c-0.5,0.3-1,0.8-1.6,1.1c-1.1,0.5-2.4,0.2-3.6-0.2
			c-1-0.3-2.1-0.7-2.5-1.7c-0.3-0.8-0.1-1.6,0.1-2.4c1.1-3.8,0.6-7.6,0.5-11.7c0-1.2-0.1-2.5,0.5-3.4c0.4-0.6,1-1.1,1.6-1.5
			c2.4-2,3.4-4.7,4-7.9c0.4-2,0.8-6.5,3.4-6.5c1.3,0,3.1,1,3.8-0.5c0.6-1.2-0.3-2-1.1-2.5c-1.1-0.7-2.3-0.3-3.6-1.2
			c-1.1-0.8-2-2.1-2.8-3.3c-2-3-3.6-5.3-7-5.6c-1.4-0.1-2.7-0.9-3.9-1.7c-2.7-1.8-4.9-4.4-7.4-6.6c-2.7-2.3-6-4.3-9.3-4.2
			c-3.3,0.2-5.9,2.3-8.9,3.7c-3,1.4-6.1,1.5-9-0.7c-2.4-1.9-5.6-4.9-4.8-8.3c0.4-1.5,1.7-2.7,2.5-4c0.9-1.5,2.7-2.8,3.4-4.4
			c0.3-0.7,0.2-1.7-0.4-2.2c-0.4-0.3-0.9-0.4-1.4-0.2c-0.5,0.1-0.8,0.4-1.2,0.7c-1.7,1.3-3.7,2.9-4.4,5.1c-0.6,2-0.1,4.6-0.4,6.8
			c-0.3,1.6-1.8,3.5-3.5,1.5c-1-1.2-1.3-2.9-1.4-4.5c-0.2-3.4,0.5-6.7,1.6-9.7c-0.2,0.7-1.5,1.2-1.9,1.7c-0.6,0.7-0.8,1.7-1.3,2.5
			c-0.6,1.1-1.2,2.4-2.4,2.9c-1.3,0.5-2.7,0.5-2.8,2.4c-0.1,2.1,2,2.7,3.3,3.8c2,1.7,3.6,3.6,6,4.6c1.7,0.7,3.4,0.9,5.2,1.3
			c2.2,0.6,3.9,2.2,6.1,3c2.3,0.8,4.8,2.1,6.2,4.4c1.5,2.7,0.7,4.8,0.4,7.5c-0.2,2,0.6,4.1-0.4,6c-0.7,1.5-2.1,2.5-3.3,3.5
			c-1.2,1-2.5,2.2-3,3.8c-0.8,2.4,0.3,5.1,1.4,7.6c1.3,3,2,5.8,4,8.6c1.9,2.6,4.1,5,6,7.6c1.2,1.7,2.4,3.5,2.8,5.5
			c0.7,3.8-1.4,5.5-4.5,6.9c-3.3,1.5-5.1,3.9-9.1,1.6c-2.7-1.6-4.2-3.5-6.2-5.6c-2.4-2.4-5.1-4.6-7.6-6.8c-1.1-1-2.3-1.7-3.3-2.8
			c-1.2-1.4-2.1-3.2-3.2-4.7c-1.3-1.9-1.7-4.2-4.1-5c-1.8-0.6-3.8-0.1-5.2,1.2c-1.2,1.1-1.8,2.7-2.8,3.9c-0.7,0.8-1.1,1.9-1.7,2.6
			c-0.9,1.2-1.7,2.6-2.8,3.1c-2.2,0.8-4.6-0.5-6.8-1.8c-1.3-0.8-2.6-1.6-3.4-2.8C18.7,88.3,18.6,86,19,84c0.5-2.6,1.8-4.7,3.5-6.5
			c1.5-1.6,2.6-2.8,2.2-5.3c-0.1-1-6.2-3.2-9.8-2.9c0,1-0.6,2.8-2.2,3.3c4.8,0.5,10.3,2.4,6.9,4.2c-2.7,1.4-6.2-0.4-5.7,4.7
			c0.1,1.6,1,2.3,1.7,3.5c0.8,1.5,1.2,2.4,1.3,4.2c0.1,2,0.3,4.6-0.4,6.5c-0.8,2.1-1.5,3.9-1.5,6.2c0,0.4,0.1,0.9,0.5,1.1
			c0.4,0.2,0.8-0.2,1.1-0.5c0.9-1.3,1.1-2.9,1.4-4.5c0.2-1.1,0.9-3.3,2.2-3.7c1.4-0.4,3.2,1.3,4.3,2c2.4,1.6,5.3,2.2,7.8,3.7
			c2.1,1.2,3.9,2.8,5.6,4.6c0.7,0.8,2.8,4.5,4,4.4c0.3,0,0.5-0.2,0.6-0.7c0.7-2.4-4.3-6.4-5.8-7.6c-1-0.9-2.2-1.8-2.7-3
			c-1.2-2.6,1.8-6.4,3.6-8c1.1-1,2.6-1.7,4.2-1.5c1.5,0.2,2.7,1.2,3.6,2.4c4.2,6.1,9.1,12.2,15.4,16.3c0.6,0.4,1.2,0.8,1.5,1.4
			c0.5,1.1-0.4,2.3-1.4,2.7c-1,0.4-2.2,0.4-3.2,0.9c-2.7,1.2-3.3,5-5.6,6.8c-0.9,0.7-2.1,1.2-3.2,1.2c-0.9,0-2.2-0.9-3-0.8
			c-2.7,0.3-1.5,3.7,0.5,4.8c2.2,1.1,4.4,0.5,6.6,1.6c3.9,2,3.1,4.1,1.3,7.4c-1.1,2.1-1.4,4.6-0.9,6.9c0.6,3.1,2.5,5.8,3.9,8.7
			c1.4,2.8,2.5,6.1,1.6,9c-1.3,4-6,5.6-8.2,9.1c-3.6,5.6-0.2,14.6-4.5,19.6c2.4-1.8,7.1-5.2,10.8-4.8c-3.4-1.3-4.3-3.5-4.7-6
			c-0.4-2.5,0.5-5,1.8-7c1.3-2,3-3.8,4.4-5.7c1.5-1.9,2.8-4.1,3-6.6c0.9-7.5-11.2-19.9-2-25.2c0.5-0.3,1-0.5,1.5-0.9
			c2.1-1.8-0.3-2-1.3-2.4c-1.8-0.7-3.6-1.4-4.6-3.4c-1-2.1-0.1-4.4,1.2-6.1c2.1-2.6,5.2-4.4,8.6-4.7c4.1-0.4,7.7,2.1,11.8,2.6
			c2.3,0.3,4.9,0.9,6.5,2.7c0.3,1.1-0.4,2.1-1.3,2.6c-0.9,0.5-2,0.5-3,0.7c-1,0.1-2.2,0.7-2.1,1.8c0.1,0.9,1.1,1.5,1.9,1.4
			c1.4-0.2,3-1.6,4.5-2c1.8-0.6,3.7-1,5.7-0.8c7.2,0.7,12.5,8.9,19.6,9.7c2.8,0.3,10.8-3.8,11.6,1.1c0.6,3.8-5.1,6.5-6.5,9.3
			c-1.2,2.5-1.7,5.4-2,8.2c-0.1,1.3-0.2,2.7,0.4,3.8c0.6,1.2,2.1,2,3.1,1.4c0.1-3.1-0.3-7,0.6-9.9c0.8-2.8,3-6,4.8-8.2
			c2-2.4,4.7-4.3,7.8-4.7c4.4-0.5,7.9-0.2,12-2.2c2.7-1.4,5.2-3.2,8.2-3.7c3.5-0.6,7.1-0.9,10.7-0.7c3.7,0.3,7,2,10.4,3.4
			c3.1,1.3,6.7,1.3,10,1.8c4.3,0.8,6.3,2.3,9.8,5c0.6-1.3-0.1-2.9-1-4c-2.4-3.2-6.6-6.3-10.5-6.4c-3.1-0.1-6.6,0.7-8.5-3
			c-1.2-2.4-0.2-5.6,0.6-7.9c0.3-1.1,0.5-1.8,1.4-2.6c0.5-0.4,1.8-0.7,2.3-1.3c4.5,2.2,8.6,5.3,12.6,8.3c4.5,3.4,9.9,7.1,14.3,10.5
			c-2.5-3.1-5.2-6-8-8.9c-2.3-2.3-5.4-4.2-6.9-7.2c-3.7-7.3-2.1-16.1,3.4-22c2.6-2.9,6.1-5,9.8-5.9c2-0.5,4-0.6,6-0.5
			c2.4,0.1,5-0.5,7.3,0.6c6.2,2.9,1,9.6-3.1,11.6c-1.9,0.9-4,1.1-5.9,1.8c-1.9,0.7-3.8,2.4-3.9,4.6c-0.1,2.2,2.7,4.3,4.2,2.8
			c1.4-1.4,0.7-3.8,2.1-5.3c1.1-1.2,3.4-1.8,4.8-2.7c3.9-2.6,6.7-6.5,6.8-11.7c0-1.8-0.3-3.7,0-5.5c0.3-1.8,1.3-3.7,3-4
			c0.8-0.2,1.6,0,2.4-0.1c0.8-0.1,1.6-0.7,1.6-1.6c0-0.8-0.9-1.4-1.7-1.4c-1.4,0-2,1-3.4,0.9c-1.6-0.1-3.3-1.4-4.5-2.5
			c-2.3-2.2-3.6-5.3-4.9-8.3c-1.4-3.2-2.2-7.3-3.8-10.3c-1.1-2-3.7-2.3-4-4.6c-0.2-1.3,0.3-2.6,1.1-3.6c1.2-1.5,2.5-2.5,3.7-4.1
			c1.3-1.8,2.9-3.6,4.8-4.6c4-2.1,9-1.7,13.4-0.6c6.2,1.6,12,4.6,17.8,7.6c3.6,1.8,7.2,3.7,10.4,6.3c3,2.5,11.6,10.3,4.5,13.2
			c-0.5,0.2-1,0.3-1.4,0.6c-0.4,0.3-0.8,0.8-0.7,1.3c0.1,0.8,1.1,1.1,1.9,0.8c4.4-1.6,6.1-1.2,6.4,3.6c0.6,9-1.8,17.5-8.8,23.6
			c-4.9,4.3-13.1,1.9-18.5,5.7c-1.5,1.1-3,2.6-4.9,2.5c-1.3-0.1-2.4-0.9-3.7-0.9c-1.5-0.1-2.8,0.9-3.9,1.9c-2.4,2-4.7,3.9-7.1,5.9
			c3.7,0.5,6.3-3.5,9.9-4.5c2-0.6,4.2-0.2,6.2-0.6c2.4-0.5,4.3-2.1,6.4-3.4c2-1.3,4.4-2.5,6.8-2c4,1.9,6.3,7.3,4.9,11.6
			c0.8,0.7,2.1,0.2,2.7-0.7c0.6-0.9,0.7-2,0.7-3.1c0-1.1,0.1-2.2,0.5-3.2c1.1-2.3,4.2-2.4,6.6-2.3c2.5,0.2,5.5,0.1,6.6-2.3
			C263.4,100.4,258.2,100.9,253.1,100.7z M80.3,95.4c-1.8-2.7-3.6-5.3-5.4-7.8c-1.8-2.4-2.8-5.4-4.3-8c-1-1.7-1.9-3.2-1.6-5.3
			c0.4-3.4,5.7-7.6,8.9-7.1c5.7,0.8,4.6,7.9,5.6,11.8c1,4,4.2,7.5,8,8.7c0.4-2-1.1-4-2.5-5.6c-1.4-1.6-3-3.4-3-5.4
			c0.1-1.9,1.6-3.4,1.4-5.3c-0.1-1.4-1.1-2.7-2.2-3.5c-2.2-1.7-4.4-2.5-6.1-4.9c-1.8-2.6-3.1-5.7-3.5-8.8c-0.3-2.1-0.3-4.3,0.8-5.9
			c1.2-1.6,3.2-2.2,5.2-2.3c3.9-0.3,7.8,0.9,11.2,3.1c2.9,1.9,6.4,3,8.9,5.5c3.7,3.6,5.9,8.8,6.2,13.9c0.1,2.2,0.1,5.1-1.2,6.8
			c-0.9,1.3-3.7,3.2-5.2,1.8c-0.9-0.9-0.9-2.9-2.3-3.3c-1.9-0.6-2.3,1.5-1.9,2.9c0.6,1.7,2.6,2.6,3.3,4.3c0.7,1.9-0.4,3.7,0.3,5.6
			c1.7,4.5,1.8,7.1-0.9,10.7c-0.7,0.9-1.1,2.1-0.6,3.2c0.4,0.9,1.4,1.3,2.3,1.7c0.9,0.3,1.9,0.7,2.4,1.6c1.8,2.9-16.7-3-20.7-4.5
			l0,0C82.4,97.9,81.2,96.8,80.3,95.4z M159.1,122.4c-4.3,0.2-9,1.3-13.2-0.2c-4.5-1.6-8.1-4.5-11.8-7.6c-0.9-0.7-2.2-1.4-3.1-0.7
			c-0.7,0.6-0.6,1.7-0.1,2.5c0.5,0.8,1.4,1.2,2.2,1.7c1.5,0.8,3.1,1.7,4.6,2.5c2.4,1.3,3.5,3.6,2,6c-1.7,2.8-5.1,2.7-8,2.4
			c-3.3-0.4-6.5-0.7-9.8-1.1c-3-0.3-5.5,0.9-8.5,1.1c-3.9,0.2-8-0.7-11.6-2.7c-3.2-1.8-6.2-4.1-9.6-5.4c-1.9-0.7-4.2-1.3-5.5-3.2
			c-1.3-1.9-1.1-3.7-3.8-4.2c-1.9-0.4-7.1,0.9-7.4-2.4c-0.2-2.3,2.9-2.8,4.5-3.1c2.8-0.5,5-2.2,4.7-5.5c7.7-0.6,19.1,4.1,22.1,10.8
			c1.7,3.7,1.1,6.1,1.3,9.9c0,0.3,0,0.7,0.2,1c0.2,0.3,0.6,0.5,0.8,0.3c1-2.8,1.7-5.1,0.5-8.2c-1-2.7-2.6-5.5-2.1-8.2
			c0.4-2.4,2.4-4.1,4.6-4.8c2.2-0.7,4.5-0.6,6.9-0.4c8.3,0.6,16.5,1.6,24.8,2.7c3.9,0.5,7.7,1,11.6,1.5c2.7,0.4,5.5,0.7,8.2,1.3
			c1.1,1.1,2.4,2.1,3,3.5c0.8,1.8,0.5,4.1,0.7,6C167.8,124,163.5,122.2,159.1,122.4z"/>
	</g>
	<g>
		<path class="st0" d="M192.1,153.3c0.4,0.1,0.9,0.1,1.3,0.3c0.4,0.2,0.8,0.5,0.8,1c0.1,0.6-0.4,1.1-0.9,1.3c-0.5,0.1-1.1,0-1.6-0.2
			c-0.8-0.3-1.5-0.7-2.3-0.9c-0.8-0.2-1.7-0.2-2.3,0.3c-0.4,0.3-0.7,0.7-1.1,0.9s-0.9,0.4-1.3,0.1c0.2-1.5,1.8-2.2,2.7-3.3
			c1-1.3,1.1-3.2,1.1-5c0-1.7,0.1-3.7,1.3-4.9c1.1,1,1.6,2.8,1.1,4.3c-0.4,1.3-1.5,2.5-1.3,3.9C189.9,152.3,191,153.1,192.1,153.3z"
			/>
	</g>
	<g>
		<path class="st0" d="M31.9,80.4c0.2-0.6,0.2-1.5,0.2-1.9c0.3-2.6,0.8-5.1,1.7-7.4c-0.5-0.3-1.2-0.2-1.7,0.2
			c-0.4,0.4-0.7,1-0.9,1.5c-0.5,1.4-0.9,2.8-1.2,4.2c-0.2,0.9-0.6,2.9,0.3,3.7C31.2,81.8,31.7,81.3,31.9,80.4z"/>
	</g>
	<g>
		<path class="st4" d="M51.1,145.2c0.4-0.4,1.1-0.1,1.5,0.2c1.4,1,2.6,2.2,3.4,3.7c0.8,1.5,1.2,3.2,0.8,4.9c-0.4,2.2-2.1,4-3.6,5.7
			c-0.4,0.4-0.7,0.8-1.2,1c-0.5,0.2-1.1,0.2-1.5-0.1c0.5-1.8,1.8-3.1,3-4.6c1.1-1.4,2.1-3.3,1.5-5c-0.6-1.9-2.8-2.8-3.7-4.6
			C50.9,146,50.8,145.5,51.1,145.2z"/>
	</g>
	<g>
		<path class="st4" d="M61.1,47.8c2.2,0.6,4.5,1.3,6.3,2.9c2.9,2.6,3.5,7.5,1.1,10.6c-0.7,0.9-2.3,3.3-3.4,3.3
			c-1.5,0.1-2.8-1.3-1.3-2.5c4.4-3.6,3.9-8.6-2.7-9.5c-2.2-0.3-4.6-0.2-6.6-1.3c-1.5-0.8-2.4-2.6-1.2-4.1C54.9,45,59,47.2,61.1,47.8
			z"/>
	</g>
	<g>
		<path class="st4" d="M84.9,34.6c-3.6-0.4-7.2-0.9-10.8-1.3c-0.9-0.1-1.7-0.2-2.5-0.6c-1.2-0.7-1.9-2.2-2-3.6
			c-0.1-1.4,0.3-2.8,0.6-4.2c1.1-0.3,2.3,0.2,3.1,1c0.9,0.7,1.5,1.7,2.2,2.6c2.1,2.5,5.2,4.1,8.4,4.4c0.5,0.1,1.1,0.1,1.5,0.4
			c0.4,0.3,0.5,1.1,0,1.4C85.4,34.7,85.1,34.7,84.9,34.6z"/>
	</g>
	<g>
		<path class="st4" d="M108.6,45.3c0.4-1.3,4.5,0.7,6,2.1c0.8,0.8,6.7,11.1,5.4,11.1c-1.1,0-2-0.8-2.5-1.7c-0.5-0.9-0.8-2-1.2-3
			c-1.2-3.3-5-3.7-6.8-6.3C108.7,46.4,108.5,45.7,108.6,45.3z"/>
	</g>
	<g>
		<path class="st4" d="M130.3,18.8c4.4-1.2,10.3,3.4,12.1,7c0.8,1.7,1.7,13.4-1.3,12c-1.7-0.8-0.7-6-0.8-7.4c-0.3-3-1.7-6.3-4.6-7.3
			c-1.4-0.5-2.9-0.4-4.3-0.9c-1.5-0.5-2.2-1.6-2-3.2C129.7,19,130,18.9,130.3,18.8z"/>
	</g>
	<g>
		<path class="st4" d="M116.5,26.3c2.6,1.3,3.4,3.3-0.2,2.9c-1.9-0.2-3.6-2.3-5.4-3c-2.2-1-5.4-1.2-7.3-2.7c-1.6-1.2-2.9-4-4.1-5.6
			c-0.7-1-1.4-2.1-1.3-3.2c0.4-2.9,3.9-1,4.9,0.4c0.8,1.2,0.4,2.7,1.2,4C106.7,22.7,113,24.6,116.5,26.3z"/>
	</g>
	<g>
		<path class="st4" d="M186.2,6.6c6.7,0.4,13.3,2.5,18.9,6.2c0.8,0.6,0.7,2.1-0.1,2.7c-0.8,0.7-2,0.6-3,0.3c-1-0.4-1.8-1-2.7-1.6
			c-2.4-1.6-5.1-2.7-7.9-3.1c-1.4-0.2-2.8-0.3-4.1-0.8c-1.3-0.5-2.4-1.7-2.4-3.1C186.7,7,184.3,6.7,186.2,6.6z"/>
	</g>
	<g>
		<path class="st4" d="M224.3,49.7c2.3-1.3,4.5-7,0.3-7.4c-2.7-0.2-3.6,4-5.9,4.9c-1.6,0.6-7.4-0.7-5.4,2
			C215.1,51.7,222.2,50.9,224.3,49.7z"/>
	</g>
	<g>
		<path class="st4" d="M227.9,73c3.5-1.7,2.6,8.2,2.5,9.5c-0.1,1.1-0.1,5-1.6,5.3c-3.1,0.5-1.5-7.7-1.6-9.2
			C227.1,77,225.8,74.1,227.9,73C227.9,73,227.9,73,227.9,73z"/>
	</g>
	<g>
		<path class="st4" d="M170.3,99c-0.1,0-0.3,0-0.3-0.1c0.9,1.1,2.5,2.1,4.2,1.6c1.5-0.4,2.6-1.7,3.2-3.1c0.6-1.4,0.8-3,0.9-4.5
			c0.4-3.4,0.6-7.3-1.8-9.8c-0.6-0.5-1.6,0-1.8,0.7c-0.2,0.8,0.1,1.5,0.5,2.3c0.9,1.8,1.8,3.7,1.8,5.8c-0.1,3.4-2,3.2-4.3,4.6
			c0.1-0.1-4.1,2.8-1.9,2.5C170.6,99,170.4,99,170.3,99z"/>
	</g>
	<g>
		<path class="st4" d="M200.9,62.6c-2.4,0.4-4.2-2-6.4-3.3c-2.7-1.5-6.1-1.1-9.1-0.3c-2,0.6-8.1,2.8-9.9,1.2
			c-2.1-1.8,0.8-1.9,2.2-2.2c3.6-0.8,7.5-1,11.1-1.5c2.6-0.3,5.3-0.7,7.8,0.2C199.1,57.6,201.2,60,200.9,62.6z"/>
	</g>
	<g>
		<path class="st4" d="M175.7,13.4c-0.6-0.2-1.4-0.4-2.1-0.5c-3.5-0.6-7.1,0.3-10.6-0.7c-2.1-0.7-4-1.9-6-2.9
			c-2.3-1.1-4.7-1.8-7.2-2.2c-1.7-0.2-5.5-0.9-7,0.1c-0.8,0.5-1.1,1.4-0.1,2c0.6,0.3,2.6-0.1,3.4-0.1c2.2-0.1,4.5-0.1,6.7,0.6
			c2.2,0.7,4,2.3,6,3.6c3.8,2.3,12.9,5.5,17.3,3.1C178.5,15,177.5,14,175.7,13.4z"/>
	</g>
	<g>
		<path class="st4" d="M204.1,26.1c0.6,2,0.3,4,0.9,6c0.5,1.5,3.1,2.2-0.2,3.2c-2.9,1-5.2-2.3-5.5-4.8c-0.3-3,2.9-8.6,4.6-4.8
			C204,25.9,204.1,26,204.1,26.1z"/>
	</g>
	<g>
		<path class="st4" d="M102.7,71.9c0-2.2,0-4.5-0.7-6.7c-0.6-2.2-1.9-4.2-4-5.2c-2.7-1.4-6.1-0.6-8.7-2.2c-2.4-1.5-3.6-4.8-6.3-5.8
			c-0.7-0.3-1.6-0.3-2.2-0.8s-1-1.5-0.4-2c0.7-1.3,2.7-1.3,4-0.5c1.3,0.8,2.2,2,3.3,2.9c2.7,2.1,6.4,2.1,9.6,3.3
			c5.4,2,9.1,7.9,8.6,13.7c-0.1,0.9-0.3,1.9-0.9,2.6S103.5,72.3,102.7,71.9z"/>
	</g>
	<g>
		<path class="st4" d="M86.3,126.4c1.9-1.2,4.4-0.5,6.2,0.7c1.8,1.2,3.4,2.9,5.4,3.9c1,0.5,2,0.7,2.9,1.3c0.9,0.6,1.6,1.6,1.5,2.6
			c-3.8,0.9-7.4-2-11-3.5c-6.7-2.8-14.4-0.6-21.4,1.3c-0.9,0.2-1.8,0.5-2.6,0.3c-0.9-0.2-1.7-0.9-1.7-1.8c0.1-1.2,1.5-1.8,2.7-2.1
			C75.6,127.4,80,130.5,86.3,126.4z"/>
	</g>
	<g>
		<path class="st4" d="M69.4,117.6c0.1-1-1.4-1.5-5.9-0.3c-2.2,0.6-3.1,2.2-2.2,4.4C62.4,124.1,69.2,119.7,69.4,117.6z"/>
	</g>
	<g>
		<path class="st4" d="M21.7,100.5c1-0.6,2.5-0.4,3.5,0c3.2,1.2,6.2,2.9,8.8,5.1c1.4,1.1,2.6,2.4,3.7,3.7c0.4,0.4,1.6,2.2,1.2,2.8
			c-0.7,1.1-3-1.6-3.5-2.1c-2.1-1.8-4.6-3.2-7.2-4c-1.4-0.4-2.8-0.3-4.2-0.7c-1.4-0.4-3.4-1.5-3.3-3.1
			C20.8,101.3,21.1,100.8,21.7,100.5z"/>
	</g>
	<g>
		<path class="st4" d="M158.2,113.8c1-1.6-0.7-3.2-2.6-3.5c-11.6-1.7-23.3-3.4-34.9-5.1c-2-0.3-4.1-0.6-5.9,0.3
			c-2,1-3.1,3.2-3.1,5.4c0,2.2,1.1,4.2,2.7,5.8c-0.9-3,0.8-6.5,3.8-7.5c1.8-0.6,3.8-0.4,5.7-0.1c6.3,0.9,12.7,1.8,19,2.7
			c2.8,0.4,6.6,0.3,9.3,1.4c1.7,0.7,2.7,3,4.9,1.6C157.6,114.5,158,114.1,158.2,113.8z"/>
	</g>
	<g>
		<path class="st4" d="M199.6,97c-1.7,0.4-3,1.4-2.5,3.5c4.3-1.2,8.8-2.3,12.8-4.5c1-0.6,4.6-3.4,2.8-4.6c-1-0.7-2.5,0.8-3.1,1.5
			c-1.2,1.4-2.3,3-4.1,3.5C204.2,96.6,201.6,96.5,199.6,97z"/>
	</g>
	<g>
		<path class="st4" d="M148.8,64c2.1,2.9,3.1,6.6,5.7,9c1.2,1.1,2.8,1.8,4,2.9c1.2,1.1,2.1,2.9,1.4,4.4c-3,0.4-5.6-2-7.3-4.5
			c-1.7-2.5-3.1-5.3-5.6-6.9c-1.3-0.8-2.7-1.1-4-1.9c-1.3-0.8-2.3-2.1-2.1-3.6c0.2-1.7,2.2-2.7,3.8-2.4
			C146.5,61.4,147.8,62.7,148.8,64z"/>
	</g>
	<g>
		<path class="st4" d="M173.3,47.6c0.5-0.2,1.3-0.4,2.5-0.4c3.8,0,7.6-0.8,11.2-2.1c1.1-0.4,6.6-4,7.1-1.1c0.1,0.9-1.3,1.6-2,1.9
			c-4.7,2.4-10,3.6-15.3,4.3C173.6,50.7,171.2,48.5,173.3,47.6z"/>
	</g>
	<g>
		<path class="st4" d="M165.5,39.1c-1.4-0.2-1.7-2.3-0.8-3.4c0.9-1.1,2.4-1.4,3.8-1.6c3.3-0.5,3-1.8,4.9-3.7
			c2.3-2.2,4.9-0.7,3.8,2.5c-1.2,3.5-6.4,2.4-8.9,4.6C167.4,38.2,166.6,39.3,165.5,39.1z"/>
	</g>
	<g>
		<path class="st4" d="M83,87c1.4,1.7,3.2,3.1,5.2,4.1c1.1,0.6,2.4,1,3.6,0.9c1.2-0.1,2.5-0.8,3-1.9c0.3-0.7,0.3-1.6,0.5-2.3
			c0.3-0.8,1.1-1.4,1.8-1.1c3.9,3.4-0.3,13.5-5.5,12.5c-4-0.8-8.3-5.4-11-8.2c-0.9-0.9-1.7-1.9-1.9-3.1c-0.2-1.2,0.7-2.7,1.9-2.7
			C81.5,85.1,82.3,86.1,83,87z"/>
	</g>
	<g>
		<path class="st4" d="M41,61.6c0,0.1,0.1,0.3,0.2,0.4c0.7,1.4,3.8,0.3,5,1.6c1.7,1.8,2.4,4.5,2.5,7c0.1,1.7-1,8.1,0.9,9
			c2.7,1.2,0.9-3,0.9-3.6c-0.4-3.6,0.1-7.2,0.1-10.8c0-1.8-0.2-3.9-1.6-5.1c-1.2-1-3-0.9-4.6-0.7C43.3,59.6,40.6,59.9,41,61.6z"/>
	</g>
	<g>
		<path class="st5" d="M51.5,185.6c1.2-0.1,2.9,0,5.3,0c2.9,0,11.3-1.4,14.2-1.8c3-0.4,9.9-0.1,11.2,1.9c1.3,2-1.1,4.5-4.9,5.2
			c-3.8,0.7-14.4-0.1-18.1-1.5c-3.7-1.4-8.7-2.7-9.9-2.3S49.9,185.7,51.5,185.6z"/>
	</g>
	<g>
		<path class="st5" d="M58.7,203c0-1.6,6.1-4,10.3-5.1c4.2-1.1,16.3-6.1,18.3-8.1c2-2,4-0.9,3.9,0.7c-0.1,1.6-0.3,4.4-4.7,5.7
			S73,201,70.1,203c-2.9,1.9-5.2,4.2-8.7,2.6C57.9,203.9,58.7,203.9,58.7,203z"/>
	</g>
	<g>
		<path class="st5" d="M68.1,206.8c-1.1-0.6,5.2-4.4,9.4-5.2c4.2-0.7,12.1-3.5,13.7-5.8c1.6-2.3,1.9-6.1,3.9-6.8
			c1.9-0.6,4.4,1.1,0.7,5.8c-3.7,4.6-13.1,7.2-16.4,9.5C76.2,206.6,71.7,208.9,68.1,206.8z"/>
	</g>
	<g>
		<path class="st5" d="M79.1,206.9c-1.2-0.9,3.1-1.9,7.3-4.4c4.2-2.4,11.1-6.5,12.7-9.8c1.5-3.4,2.7-6.9,4.6-6.5
			c1.9,0.4-0.6,7.3-3.3,10.8c-2.7,3.5-11.7,9-15.2,9.9C81.8,207.8,80.8,208.2,79.1,206.9z"/>
	</g>
	<g>
		<path class="st5" d="M84.4,188.7c-1.6,0.2-8.6,5-14.8,3.9c-6.2-1.1-14.2-4-16.5-3.6s-3.5,2.4-1.5,3.1c2.1,0.7,11.7,1.7,13.5,1.4
			c1.8-0.3,2.3,0.7-0.6,1c-2.9,0.3-12.4-0.7-13.9-1.7c-1.5-1-4.5,1.7-1.8,3.7c2.8,2,7.1,3.1,10.8,2.6c3.7-0.5,16.8-4.5,19.3-5.9
			C81.5,191.8,86.8,188.3,84.4,188.7z"/>
	</g>
	<g>
		<path class="st5" d="M55.2,184.1c-1.6-1.8,5.4-2.3,6.8-1.9c1.4,0.5-0.6-1.2,1.1-1.5c1.7-0.3,3.9-1,6.2,0c2.3,1,0.9-0.5,1.9-1
			c1-0.5,6.8-1,10.2,0.9c3.4,1.9,12.3,4.5,10.4,5.4c-1.9,0.9-10-2.4-13.2-2.9c-3.2-0.6-12.7,0.8-15.5,1.3
			C60.3,184.9,55.7,184.7,55.2,184.1z"/>
	</g>
	<g>
		<path class="st5" d="M84.7,178.3c1.6-0.5,12-0.2,15.5,3.3c3.5,3.5-1.7,3.3-4.8,2.4C92.2,183.2,79.9,179.8,84.7,178.3z"/>
	</g>
	<g>
		<path class="st5" d="M65.1,207.7c1.8-0.9,4.2,0.4,3.5,1.9c-0.6,1.5-1.8,4.3-3.5,2.9C63.4,211.1,63.5,208.5,65.1,207.7z"/>
	</g>
	<g>
		<path class="st5" d="M72.9,209.2c-1.4-0.6-4.4,1-4.2,2.6c0.2,1.6,2,2.6,3.4,1.1C73.6,211.5,74.1,209.7,72.9,209.2z"/>
	</g>
	<g>
		<path class="st5" d="M79.6,208.6c-2-0.1-4.4,0.6-5.4,2.8c-1,2.2,2.2,3.7,4.7,2.3C81.4,212.2,80.8,208.6,79.6,208.6z"/>
	</g>
	<g>
		<path class="st5" d="M83.6,209.1c2.6-0.8,11-3.2,14.6-6.1c3.7-2.9-1.5,8.7-9.2,10S81,209.9,83.6,209.1z"/>
	</g>
	<g>
		<path class="st5" d="M58.7,205.4c1.5,0.6,5,1.1,4.4,2.4c-0.6,1.3-2.4,3.3-4.4,1.7C56.7,207.9,57.4,204.9,58.7,205.4z"/>
	</g>
	<g>
		<path class="st5" d="M54,200.1c-2-0.6-4.2,1.1-3.7,2.4c0.5,1.3,3.3,4.4,5.5,1.9C58,201.8,56.9,200.9,54,200.1z"/>
	</g>
	<g>
		<path class="st5" d="M101.4,202.6c1.1-3.5,6-12.9,8-15.3c2-2.4,0.3,3.8-1.1,6.6C106.9,196.7,99.9,207.6,101.4,202.6z"/>
	</g>
	<g>
		<path class="st6" d="M62.2,186.2c-2.8-0.4,13.1-2.1,11.3-1C71.6,186.3,63.4,186.4,62.2,186.2z"/>
	</g>
	<g>
		<path class="st6" d="M58.7,190.4c-1.5-1.6-4.9-0.8-6.3-0.7C51.1,189.9,60.4,192.3,58.7,190.4z"/>
	</g>
	<g>
		<path class="st6" d="M56.2,194.9c-2.3-0.7-4.8-1.9-5.9-1.5c-1.1,0.4,5.9,3.5,9.4,2.7C63.3,195.2,57.8,195.3,56.2,194.9z"/>
	</g>
	<g>
		<path class="st6" d="M61.9,202.6c-1.3-0.7,11.2-5,15.5-6.4s9.4-5.3,8.8-4.1c-0.6,1.2-6.6,4.2-11.2,6.2
			C70.4,200.3,63,203.3,61.9,202.6z"/>
	</g>
	<g>
		<path class="st6" d="M70.2,206.1c-2.1-0.6,7.9-3.9,10-4.3C82.2,201.4,71.9,206.6,70.2,206.1z"/>
	</g>
	<g>
		<path class="st6" d="M85,183.2c-2.2-0.9-8.2-2.9-10.1-2.5C73,181.1,86.7,183.9,85,183.2z"/>
	</g>
	<g>
		<path class="st6" d="M87.2,204.1c3.3-0.9,10.2-5.3,11.1-7C99.4,195.3,85.1,204.7,87.2,204.1z"/>
	</g>
	<g>
		<path class="st4" d="M3.5,136.8c0.5-1.7,2.3-3,4.1-2.9c2.8,0.1,4.7,3,7.3,3.9c0.9,0.3,2,0.5,2.8,1c0.8,0.6,1.3,1.8,0.6,2.6
			c-0.5,0.5-1.3,0.5-1.9,0.2c-0.6-0.3-1.1-0.8-1.5-1.3c-1.3-1.4-2.9-2.6-4.8-2.4c-1.3,0.1-2.5,0.9-3.8,0.7
			C4.9,138.4,3.1,138.2,3.5,136.8z"/>
	</g>
	<g>
		<path class="st4" d="M143.7,82.9c3.3,1.8,5,6,4,9.6c-0.2,0.6-0.4,1.2-0.8,1.6c-0.4,0.4-1.1,0.7-1.7,0.5c-0.7-0.2-1.1-1-1.2-1.7
			c-0.1-0.7-0.1-1.5-0.2-2.2c-0.2-1-0.9-1.8-1.5-2.6c-0.6-0.8-1.3-1.6-1.5-2.6c-0.2-1,0.1-2.2,0.9-2.7c0.7-0.4,1.6-0.2,2.3,0.2
			S143,82.5,143.7,82.9z"/>
	</g>
</g>
</svg>
