<svg xmlns="http://www.w3.org/2000/svg" width="104" height="104.119" viewBox="0 0 104 104.119">
  <g id="noun_Pie_Chart_2182082" data-name="noun_Pie Chart_2182082" transform="translate(0 1.12)">
    <g id="Group">
      <path id="Combined_Shape" data-name="Combined Shape" d="M51.506,103h-.019A51.238,51.238,0,0,1,15.081,87.867,51.684,51.684,0,0,1,45.672,0V3.974a47.292,47.292,0,0,0-22.431,8.77A47.768,47.768,0,0,0,9,29.29,47.558,47.558,0,0,0,74.4,92.732,47.894,47.894,0,0,0,91.291,76.8L95.3,78.508h.006A51.94,51.94,0,0,1,76.939,96.265,51.11,51.11,0,0,1,51.506,103Z" transform="translate(0 0)" fill="#e31d74"/>
      <path id="Path" d="M0,0V11.813A39.923,39.923,0,0,1,33.973,51.336a40.085,40.085,0,0,1-1.823,11.976l10.8,4.6a51.626,51.626,0,0,0,2.71-16.572A51.613,51.613,0,0,0,0,0Z" transform="translate(57.34)" fill="none" stroke="#e31d74" stroke-miterlimit="10" stroke-width="2"/>
    </g>
  </g>
</svg>
