<?xml version="1.0" encoding="UTF-8"?>
<svg width="121px" height="106px" viewBox="0 0 121 106" version="1.1" xmlns="http://www.w3.org/2000/svg" xmlns:xlink="http://www.w3.org/1999/xlink">
    <title>chat</title>
    <g id="01.-Home" stroke="none" stroke-width="1" fill="none" fill-rule="evenodd">
        <g id="Portal_Approved" transform="translate(-839.000000, -1222.000000)" stroke="#FAAB2B">
            <g id="Group-50" transform="translate(-382.000000, 735.000000)">
                <g id="Group-32" transform="translate(712.000000, 0.000000)">
                    <g id="Group-36" transform="translate(0.000000, 386.407895)">
                        <g id="Group-31" transform="translate(386.269565, 0.000000)">
                            <g id="Group-46" transform="translate(39.435652, 100.671053)">
                                <g id="chat" transform="translate(84.000000, 0.000000)">
                                    <g id="noun_message_1838973" transform="translate(0.000000, 20.791312)" fill="#FAAB2B" fill-rule="nonzero" stroke-width="0.3">
                                        <g id="Group">
                                            <path d="M86.5092411,0 L14.1696171,0 C6.33903922,0 0,6.29214991 0,14.0648057 L0,55.8890962 C0,63.661752 6.33903922,69.9539019 14.1696171,69.9539019 L65.6277001,69.9539019 L71.3452649,84.0187076 C71.5938547,84.5122095 71.9667393,84.7589605 72.4639189,84.7589605 C72.4639189,84.7589605 72.4639189,84.7589605 72.4639189,84.7589605 C72.9610984,84.7589605 73.458278,84.5122095 73.5825729,84.0187076 L79.5487274,69.9539019 L86.5092411,69.9539019 C94.3398189,69.9539019 100.678858,63.661752 100.678858,55.8890962 L100.678858,14.0648057 C100.678858,6.29214991 94.3398189,0 86.5092411,0 Z M98.1929604,55.8890962 C98.1929604,62.3046216 92.9725752,67.4863921 86.5092411,67.4863921 L78.6786632,67.4863921 C78.1814837,67.4863921 77.6843041,67.7331431 77.5600092,68.2266451 L72.4639189,80.1940674 L67.6164183,68.2266451 C67.3678285,67.7331431 66.9949439,67.4863921 66.4977643,67.4863921 L14.1696171,67.4863921 C7.70628297,67.4863921 2.48589773,62.3046216 2.48589773,55.8890962 L2.48589773,14.0648057 C2.48589773,7.64928028 7.70628297,2.46750977 14.1696171,2.46750977 L86.6335359,2.46750977 C93.09687,2.46750977 98.3172553,7.64928028 98.3172553,14.0648057 L98.3172553,55.8890962 L98.1929604,55.8890962 Z" id="Shape"></path>
                                            <path d="M35.7969273,48.6099424 L14.0453222,48.6099424 C13.2995529,48.6099424 12.8023733,49.1034444 12.8023733,49.8436973 C12.8023733,50.5839502 13.2995529,51.0774522 14.0453222,51.0774522 L35.7969273,51.0774522 C36.5426967,51.0774522 37.0398762,50.5839502 37.0398762,49.8436973 C37.0398762,49.1034444 36.5426967,48.6099424 35.7969273,48.6099424 Z" id="Path"></path>
                                            <path d="M71.7181496,28.7464888 L14.0453222,28.7464888 C13.2995529,28.7464888 12.8023733,29.2399907 12.8023733,29.9802437 C12.8023733,30.7204966 13.2995529,31.2139986 14.0453222,31.2139986 L71.7181496,31.2139986 C72.4639189,31.2139986 72.9610984,30.7204966 72.9610984,29.9802437 C72.9610984,29.2399907 72.339624,28.7464888 71.7181496,28.7464888 Z" id="Path"></path>
                                            <path d="M50.3394291,38.7399033 L14.0453222,38.7399033 C13.2995529,38.7399033 12.8023733,39.2334053 12.8023733,39.9736582 C12.8023733,40.7139112 13.2995529,41.2074131 14.0453222,41.2074131 L50.3394291,41.2074131 C51.0851984,41.2074131 51.5823779,40.7139112 51.5823779,39.9736582 C51.5823779,39.2334053 51.0851984,38.7399033 50.3394291,38.7399033 Z" id="Path"></path>
                                            <path d="M71.7181496,18.8764497 L14.0453222,18.8764497 C13.2995529,18.8764497 12.8023733,19.3699517 12.8023733,20.1102046 C12.8023733,20.8504575 13.2995529,21.3439595 14.0453222,21.3439595 L71.7181496,21.3439595 C72.4639189,21.3439595 72.9610984,20.8504575 72.9610984,20.1102046 C72.9610984,19.3699517 72.339624,18.8764497 71.7181496,18.8764497 Z" id="Path"></path>
                                        </g>
                                    </g>
                                    <g id="Group-3" transform="translate(72.997354, 0.000000)">
                                        <ellipse id="Oval" stroke-width="1.5" fill="#FEF6E9" cx="23.1586342" cy="23.1619981" rx="22.4086342" ry="22.4119981"></ellipse>
                                        <g id="Group-17" transform="translate(13.380472, 11.029524)" fill="#FAAB2B" fill-rule="nonzero" stroke-width="0.648959983">
                                            <g id="Group-18">
                                                <path d="M9.59830171,0 C12.1875884,0 14.2973776,2.11009561 14.2973776,4.69975841 C14.2973776,7.28942121 12.1875884,9.39951682 9.59830171,9.39951682 C7.00901502,9.39951682 4.89922587,7.28942121 4.89922587,4.69975841 C4.89922587,2.11009561 7.00901502,0 9.59830171,0 Z" id="Shape"></path>
                                                <path d="M0.00835101603,21.1353131 C0.487848551,16.2437278 4.61152735,12.4071903 9.69420122,12.4071903 C14.7768751,12.4071903 18.9005539,16.2437278 19.3800514,21.1353131 C19.859549,26.0268984 -0.471146519,26.0268984 0.00835101603,21.1353131 Z" id="Path"></path>
                                            </g>
                                        </g>
                                    </g>
                                </g>
                            </g>
                        </g>
                    </g>
                </g>
            </g>
        </g>
    </g>
</svg>