<?xml version="1.0" encoding="UTF-8"?>
<svg width="98px" height="86px" viewBox="0 0 98 86" version="1.1" xmlns="http://www.w3.org/2000/svg" xmlns:xlink="http://www.w3.org/1999/xlink">
    <title>chat_sm</title>
    <g id="01.-Home" stroke="none" stroke-width="1" fill="none" fill-rule="evenodd">
        <g id="Portal_Approved" transform="translate(-927.000000, -2095.000000)">
            <g id="Group-49" transform="translate(328.000000, 1760.000000)">
                <g id="Group-47" transform="translate(0.000000, 118.000000)">
                    <g id="Group-27" transform="translate(0.000000, 217.000000)">
                        <g id="chat_sm" transform="translate(599.000000, 0.000000)">
                            <path d="M30.61619,12.979226 C2.54636837,-4.51219835 -3.04961892,28.3358505 1.33278315,45.8857489 C6.7948104,67.7591466 -7.17172317,77.8014503 5.98551826,84.6565758 C19.6403593,91.7709583 35.6593414,66.6090366 68.1466366,70.6407256 C110.3239,75.8749444 105.231335,26.8601597 60.9736688,26.3178239 C49.8332428,26.1813085 42.6014601,20.4477253 30.61619,12.979226 Z" id="Combined-Shape-Copy-2" fill-opacity="0.1" fill="#FAAB2B"></path>
                            <g id="Group-4" transform="translate(16.335000, 0.000000)" stroke="#FAAB2B">
                                <g id="noun_message_1838973" transform="translate(0.000000, 11.067000)" fill="#FAAB2B" fill-rule="nonzero" stroke-width="0.3">
                                    <g id="Group">
                                        <path d="M46.6320012,0 L7.63800019,0 C3.41700009,0 0,3.41700009 0,7.63800019 L0,30.3510008 C0,34.5720009 3.41700009,37.9890009 7.63800019,37.9890009 L35.3760009,37.9890009 L38.458001,45.6270011 C38.592001,45.8950011 38.793001,46.0290011 39.061001,46.0290011 C39.061001,46.0290011 39.061001,46.0290011 39.061001,46.0290011 C39.329001,46.0290011 39.597001,45.8950011 39.664001,45.6270011 L42.8800011,37.9890009 L46.6320012,37.9890009 C50.8530013,37.9890009 54.2700014,34.5720009 54.2700014,30.3510008 L54.2700014,7.63800019 C54.2700014,3.41700009 50.8530013,0 46.6320012,0 Z M52.9300013,30.3510008 C52.9300013,33.8350008 50.1160012,36.6490009 46.6320012,36.6490009 L42.4110011,36.6490009 C42.143001,36.6490009 41.875001,36.7830009 41.808001,37.0510009 L39.061001,43.5500011 L36.4480009,37.0510009 C36.3140009,36.7830009 36.1130009,36.6490009 35.8450009,36.6490009 L7.63800019,36.6490009 C4.1540001,36.6490009 1.34000003,33.8350008 1.34000003,30.3510008 L1.34000003,7.63800019 C1.34000003,4.1540001 4.1540001,1.34000003 7.63800019,1.34000003 L46.6990012,1.34000003 C50.1830013,1.34000003 52.9970013,4.1540001 52.9970013,7.63800019 L52.9970013,30.3510008 L52.9300013,30.3510008 Z" id="Shape"></path>
                                        <path d="M19.2960005,26.3980007 L7.57100019,26.3980007 C7.16900018,26.3980007 6.90100017,26.6660007 6.90100017,27.0680007 C6.90100017,27.4700007 7.16900018,27.7380007 7.57100019,27.7380007 L19.2960005,27.7380007 C19.6980005,27.7380007 19.9660005,27.4700007 19.9660005,27.0680007 C19.9660005,26.6660007 19.6980005,26.3980007 19.2960005,26.3980007 Z" id="Path"></path>
                                        <path d="M38.659001,15.6110004 L7.57100019,15.6110004 C7.16900018,15.6110004 6.90100017,15.8790004 6.90100017,16.2810004 C6.90100017,16.6830004 7.16900018,16.9510004 7.57100019,16.9510004 L38.659001,16.9510004 C39.061001,16.9510004 39.329001,16.6830004 39.329001,16.2810004 C39.329001,15.8790004 38.994001,15.6110004 38.659001,15.6110004 Z" id="Path"></path>
                                        <path d="M27.1350007,21.0380005 L7.57100019,21.0380005 C7.16900018,21.0380005 6.90100017,21.3060005 6.90100017,21.7080005 C6.90100017,22.1100006 7.16900018,22.3780006 7.57100019,22.3780006 L27.1350007,22.3780006 C27.5370007,22.3780006 27.8050007,22.1100006 27.8050007,21.7080005 C27.8050007,21.3060005 27.5370007,21.0380005 27.1350007,21.0380005 Z" id="Path"></path>
                                        <path d="M38.659001,10.2510003 L7.57100019,10.2510003 C7.16900018,10.2510003 6.90100017,10.5190003 6.90100017,10.9210003 C6.90100017,11.3230003 7.16900018,11.5910003 7.57100019,11.5910003 L38.659001,11.5910003 C39.061001,11.5910003 39.329001,11.3230003 39.329001,10.9210003 C39.329001,10.5190003 38.994001,10.2510003 38.659001,10.2510003 Z" id="Path"></path>
                                    </g>
                                </g>
                                <g id="Group-3" transform="translate(39.665000, 0.000000)">
                                    <circle id="Oval" stroke-width="1.5" fill="#FFFFFF" cx="12.5999992" cy="12.5999992" r="11.8499992"></circle>
                                    <g id="Group-17" transform="translate(7.279960, 6.000000)" fill="#FAAB2B" fill-rule="nonzero" stroke-width="0.648959983">
                                        <g id="Group-18">
                                            <path d="M5.22218165,1.13686838e-13 C6.63094393,1.13686838e-13 7.77882431,1.14788038 7.77882431,2.55664266 C7.77882431,3.96540494 6.63094393,5.11328532 5.22218165,5.11328532 C3.81341937,5.11328532 2.66553899,3.96540494 2.66553899,2.55664266 C2.66553899,1.14788038 3.81341937,1.13686838e-13 5.22218165,1.13686838e-13 Z" id="Shape"></path>
                                            <path d="M0.00454356656,11.4974938 C0.265425471,8.83649836 2.50900985,6.74944312 5.27435803,6.74944312 C8.03970621,6.74944312 10.2832906,8.83649836 10.5441725,11.4974938 C10.8050544,14.1584892 -0.256338338,14.1584892 0.00454356656,11.4974938 Z" id="Path"></path>
                                        </g>
                                    </g>
                                </g>
                            </g>
                        </g>
                    </g>
                </g>
            </g>
        </g>
    </g>
</svg>