<?xml version="1.0" encoding="UTF-8"?>
<svg width="89px" height="97px" viewBox="0 0 89 97" version="1.1" xmlns="http://www.w3.org/2000/svg" xmlns:xlink="http://www.w3.org/1999/xlink">
    <title>connect</title>
    <g id="01.-Home" stroke="none" stroke-width="1" fill="none" fill-rule="evenodd">
        <g id="Portal_Approved" transform="translate(-1244.000000, -1231.000000)">
            <g id="Group-50" transform="translate(-382.000000, 735.000000)">
                <g id="Group-32" transform="translate(712.000000, 0.000000)">
                    <g id="Group-36" transform="translate(0.539130, 386.407895)">
                        <g id="Group-31" transform="translate(772.460870, 0.000000)">
                            <g id="Group-37" transform="translate(40.000000, 110.000000)">
                                <g id="connect" transform="translate(101.000000, 0.000000)">
                                    <path d="M7.9163158,2.80156679 C5.74623219,2.80156679 3.9804876,4.56895073 3.9804876,6.741442 L3.9804876,46.1912746 C3.9804876,48.3637658 5.74623219,50.1311498 7.9163158,50.1311498 L79.516513,50.1311498 C81.6865966,50.1311498 83.4519486,48.3637658 83.4519486,46.1912746 L83.4519486,6.741442 C83.4519486,4.56895073 81.6865966,2.80156679 79.516513,2.80156679 L7.9163158,2.80156679 Z M79.516513,52.9327166 L7.9163158,52.9327166 C4.20307034,52.9327166 1.18151941,49.9083604 1.18151941,46.1912746 L1.18151941,6.741442 C1.18151941,3.02435619 4.20307034,0 7.9163158,0 L79.516513,0 C83.230151,0 86.2509168,3.02435619 86.2509168,6.741442 L86.2509168,46.1912746 C86.2509168,49.9083604 83.230151,52.9327166 79.516513,52.9327166 L79.516513,52.9327166 Z" id="Fill-515" fill="#026BB0"></path>
                                    <polygon id="Stroke-15" stroke="#026BB0" stroke-width="0.5" fill="#026BB0" transform="translate(47.260776, 14.115391) scale(-1, 1) translate(-47.260776, -14.115391) " points="45.2096587 15.1458146 49.311894 15.1458146 49.311894 13.0849675 45.2096587 13.0849675"></polygon>
                                    <polygon id="Stroke-17" stroke="#026BB0" stroke-width="0.5" fill="#026BB0" transform="translate(26.584187, 14.115391) scale(-1, 1) translate(-26.584187, -14.115391) " points="11.8151941 15.1458146 41.3531793 15.1458146 41.3531793 13.0849675 11.8151941 13.0849675"></polygon>
                                    <polygon id="Stroke-19" stroke="#026BB0" stroke-width="0.5" fill="#026BB0" transform="translate(34.854823, 19.996804) scale(-1, 1) translate(-34.854823, -19.996804) " points="11.8151941 21.0272276 57.894451 21.0272276 57.894451 18.9663805 11.8151941 18.9663805"></polygon>
                                    <path d="M55.5314122,53.5208579 C55.5314122,46.0499707 50.2418275,39.9936081 43.7164183,39.9936081 C37.1910091,39.9936081 31.901024,46.0499707 31.901024,53.5208579 C31.901024,60.9917451 37.1910091,67.0481077 43.7164183,67.0481077 C50.2418275,67.0481077 55.5314122,60.9917451 55.5314122,53.5208579" id="Fill-520" fill="#E5F0F7"></path>
                                    <path d="M77.0361269,65.8718251 L69.4722798,65.8718251 C63.7303665,65.8718251 59.0759704,70.4464921 59.0759704,76.0891625 L59.0759704,82.9563129 C59.0759704,85.2143318 60.9386157,87.0449117 63.235784,87.0449117 L83.2726226,87.0449117 C85.569791,87.0449117 87.4324362,85.2143318 87.4324362,82.9563129 L87.4324362,76.0891625 C87.4324362,70.4464921 82.7780401,65.8718251 77.0361269,65.8718251" id="Fill-521" fill="#026BB0" opacity="0.1"></path>
                                    <path d="M19.1418237,65.8718251 L11.577681,65.8718251 C5.83625242,65.8718251 1.18151941,70.4464921 1.18151941,76.0891625 L1.18151941,82.9563129 C1.18151941,85.2143318 3.04413815,87.0449117 5.34167696,87.0449117 L25.3782307,87.0449117 C27.6753665,87.0449117 29.5379852,85.2143318 29.5379852,82.9563129 L29.5379852,76.0891625 C29.5379852,70.4464921 24.8836553,65.8718251 19.1418237,65.8718251" id="Fill-522" fill="#026BB0" opacity="0.1"></path>
                                    <path d="M81.5248392,56.4615643 C81.5248392,50.6148815 77.5577519,45.875021 72.6636395,45.875021 C67.7691354,45.875021 63.8020481,50.6148815 63.8020481,56.4615643 C63.8020481,62.3086479 67.7691354,67.0481077 72.6636395,67.0481077 C77.5577519,67.0481077 81.5248392,62.3086479 81.5248392,56.4615643" id="Fill-523" fill="#E5F0F7"></path>
                                    <path d="M76.3129628,67.0481077 C81.141001,67.0481077 85.0693974,71.101777 85.0693974,76.08427 L85.0693974,83.04242 C85.0693974,84.6010296 83.8410929,85.8686291 82.3307995,85.8686291 L62.9968657,85.8686291 C61.4865723,85.8686291 60.2574898,84.6010296 60.2574898,83.04242 L60.2574898,76.08427 C60.2574898,71.101777 64.1858863,67.0481077 69.0139244,67.0481077 L76.3129628,67.0481077 Z" id="Fill-524" fill="#E5F0F7"></path>
                                    <path d="M69.5337569,67.4641572 C64.6747947,67.4641572 60.7214115,71.3364895 60.7214115,76.0962232 L60.7214115,82.8284346 C60.7214115,84.2750737 61.9227705,85.4521912 63.4000853,85.4521912 L83.1087178,85.4521912 C84.5856361,85.4521912 85.7869952,84.2750737 85.7869952,82.8284346 L85.7869952,76.0962232 C85.7869952,71.3364895 81.833612,67.4641572 76.9742533,67.4641572 L69.5337569,67.4641572 Z M83.1087178,88.2211943 L63.4000853,88.2211943 C60.3645721,88.2211943 57.894451,85.8021031 57.894451,82.8284346 L57.894451,76.0962232 C57.894451,69.8098484 63.1154069,64.6955425 69.5337569,64.6955425 L76.9742533,64.6955425 C83.3926033,64.6955425 88.6139556,69.8098484 88.6139556,76.0962232 L88.6139556,82.8284346 C88.6139556,85.8021031 86.144231,88.2211943 83.1087178,88.2211943 L83.1087178,88.2211943 Z" id="Fill-525" fill="#026BB0"></path>
                                    <path d="M18.4185118,67.0481077 C23.2465499,67.0481077 27.1749464,71.101777 27.1749464,76.08427 L27.1749464,83.04242 C27.1749464,84.6010296 25.9462529,85.8686291 24.4363484,85.8686291 L5.10241468,85.8686291 C3.59212127,85.8686291 2.36303882,84.6010296 2.36303882,83.04242 L2.36303882,76.08427 C2.36303882,71.101777 6.29104632,67.0481077 11.1190845,67.0481077 L18.4185118,67.0481077 Z" id="Fill-526" fill="#E5F0F7"></path>
                                    <path d="M11.6389094,67.4641572 C6.7799472,67.4641572 2.82696044,71.3364895 2.82696044,76.0962232 L2.82696044,82.8284346 C2.82696044,84.2750737 4.02831951,85.4521912 5.50563432,85.4521912 L25.2142668,85.4521912 C26.6907886,85.4521912 27.8921477,84.2750737 27.8921477,82.8284346 L27.8921477,76.0962232 C27.8921477,71.3364895 23.9391609,67.4641572 19.0798023,67.4641572 L11.6389094,67.4641572 Z M25.2142668,88.2211943 L5.50563432,88.2211943 C2.46972463,88.2211943 0,85.8021031 0,82.8284346 L0,76.0962232 C0,69.8098484 5.22095583,64.6955425 11.6389094,64.6955425 L19.0798023,64.6955425 C25.4977558,64.6955425 30.7195046,69.8098484 30.7195046,76.0962232 L30.7195046,82.8284346 C30.7195046,85.8021031 28.24978,88.2211943 25.2142668,88.2211943 L25.2142668,88.2211943 Z" id="Fill-527" fill="#026BB0"></path>
                                    <path d="M23.6303882,56.4615643 C23.6303882,50.6148815 19.6632132,45.875021 14.7689926,45.875021 C9.87516388,45.875021 5.90759704,50.6148815 5.90759704,56.4615643 C5.90759704,62.3086479 9.87516388,67.0481077 14.7689926,67.0481077 C19.6632132,67.0481077 23.6303882,62.3086479 23.6303882,56.4615643" id="Fill-528" fill="#FFFFFE"></path>
                                    <path d="M43.7160217,41.5732353 C38.0941116,41.5732353 33.5208338,46.9331512 33.5208338,53.5210511 C33.5208338,60.108951 38.0941116,65.4684805 43.7160217,65.4684805 C49.3375388,65.4684805 53.9112096,60.108951 53.9112096,53.5210511 C53.9112096,46.9331512 49.3375388,41.5732353 43.7160217,41.5732353 Z M43.7160217,68.2243902 C36.550041,68.2243902 30.7195046,61.6283734 30.7195046,53.5210511 C30.7195046,45.4133424 36.550041,38.8173255 43.7160217,38.8173255 C50.8823952,38.8173255 56.7129316,45.4133424 56.7129316,53.5210511 C56.7129316,61.6283734 50.8823952,68.2243902 43.7160217,68.2243902 L43.7160217,68.2243902 Z" id="Fill-531" fill="#026BB0"></path>
                                    <path d="M49.2291483,69.4006728 C55.9619364,69.4006728 61.4390092,74.7281501 61.4390092,81.2760841 L61.4390092,90.1191178 C61.4390092,92.3157054 59.6020635,94.1026072 57.3438663,94.1026072 L31.2696874,94.1026072 C29.0118922,94.1026072 27.1749464,92.3157054 27.1749464,90.1191178 L27.1749464,81.2760841 C27.1749464,74.7281501 32.6528232,69.4006728 39.3856112,69.4006728 L49.2291483,69.4006728 Z" id="Fill-532" fill="#E5F0F7"></path>
                                    <path d="M39.4814381,68.7083315 C32.9421608,68.7083315 27.6218303,74.078598 27.6218303,80.6797411 L27.6218303,89.6789854 C27.6218303,91.8511207 29.3724161,93.618666 31.5241942,93.618666 L57.0885792,93.618666 C59.2411455,93.618666 60.9921254,91.8511207 60.9921254,89.6789854 L60.9921254,80.6797411 C60.9921254,74.078598 55.6717949,68.7083315 49.1325176,68.7083315 L39.4814381,68.7083315 Z M31.5241942,96.4551724 C27.8232146,96.4551724 24.8119076,93.4149786 24.8119076,89.6789854 L24.8119076,80.6797411 C24.8119076,72.5147401 31.3925652,65.8718251 39.4814381,65.8718251 L49.1325176,65.8718251 C57.2209963,65.8718251 63.8020481,72.5147401 63.8020481,80.6797411 L63.8020481,89.6789854 C63.8020481,93.4149786 60.7903469,96.4551724 57.0885792,96.4551724" id="Fill-533" fill="#026BB0"></path>
                                    <path d="M73.2546095,47.4960018 C68.9876556,47.4960018 65.5163388,51.5173131 65.5163388,56.4613682 C65.5163388,61.405031 68.9876556,65.4275192 73.2546095,65.4275192 C77.5207511,65.4275192 80.9920679,61.405031 80.9920679,56.4613682 C80.9920679,51.5173131 77.5207511,47.4960018 73.2546095,47.4960018 Z M73.2546095,68.2243902 C67.3906955,68.2243902 62.6205287,62.9472529 62.6205287,56.4613682 C62.6205287,49.9750912 67.3906955,44.6987384 73.2546095,44.6987384 C79.1177111,44.6987384 83.887878,49.9750912 83.887878,56.4613682 C83.887878,62.9472529 79.1177111,68.2243902 73.2546095,68.2243902 L73.2546095,68.2243902 Z" id="Fill-534" fill="#3B92C3"></path>
                                    <path d="M23.6303882,56.4615643 C23.6303882,50.6148815 19.6632132,45.875021 14.7689926,45.875021 C9.87516388,45.875021 5.90759704,50.6148815 5.90759704,56.4615643 C5.90759704,62.3086479 9.87516388,67.0481077 14.7689926,67.0481077 C19.6632132,67.0481077 23.6303882,62.3086479 23.6303882,56.4615643" id="Fill-535" fill="#E5F0F7"></path>
                                    <path d="M73.2546095,47.4960018 C68.9876556,47.4960018 65.5163388,51.5173131 65.5163388,56.4613682 C65.5163388,61.405031 68.9876556,65.4275192 73.2546095,65.4275192 C77.5207511,65.4275192 80.9920679,61.405031 80.9920679,56.4613682 C80.9920679,51.5173131 77.5207511,47.4960018 73.2546095,47.4960018 Z M73.2546095,68.2243902 C67.3906955,68.2243902 62.6205287,62.9472529 62.6205287,56.4613682 C62.6205287,49.9750912 67.3906955,44.6987384 73.2546095,44.6987384 C79.1177111,44.6987384 83.887878,49.9750912 83.887878,56.4613682 C83.887878,62.9472529 79.1177111,68.2243902 73.2546095,68.2243902 L73.2546095,68.2243902 Z" id="Fill-536" fill="#026BB0"></path>
                                    <path d="M15.3599554,47.4960018 C11.093083,47.4960018 7.62223859,51.5173131 7.62223859,56.4613682 C7.62223859,61.405031 11.093083,65.4275192 15.3599554,65.4275192 C19.6264216,65.4275192 23.0976722,61.405031 23.0976722,56.4613682 C23.0976722,51.5173131 19.6264216,47.4960018 15.3599554,47.4960018 Z M15.3599554,68.2243902 C9.49655955,68.2243902 4.72607763,62.9472529 4.72607763,56.4613682 C4.72607763,49.9750912 9.49655955,44.6987384 15.3599554,44.6987384 C21.2233512,44.6987384 25.993427,49.9750912 25.993427,56.4613682 C25.993427,62.9472529 21.2233512,68.2243902 15.3599554,68.2243902 L15.3599554,68.2243902 Z" id="Fill-537" fill="#026BB0"></path>
                                </g>
                            </g>
                        </g>
                    </g>
                </g>
            </g>
        </g>
    </g>
</svg>