<?xml version="1.0" encoding="UTF-8"?>
<svg width="98px" height="85px" viewBox="0 0 98 85" version="1.1" xmlns="http://www.w3.org/2000/svg" xmlns:xlink="http://www.w3.org/1999/xlink">
    <title>connect_sm</title>
    <g id="01.-Home" stroke="none" stroke-width="1" fill="none" fill-rule="evenodd">
        <g id="Portal_Approved" transform="translate(-927.000000, -2272.000000)">
            <g id="Group-49" transform="translate(328.000000, 1760.000000)">
                <g id="Group-47" transform="translate(0.000000, 118.000000)">
                    <g id="Group-7" transform="translate(0.000000, 390.000000)">
                        <g id="Group-41" transform="translate(599.000000, 1.000000)">
                            <g id="connect_sm" transform="translate(0.000000, 3.208240)">
                                <g id="Group-21" transform="translate(0.000000, 6.791760)" fill="#026BB0" opacity="0.1">
                                    <path d="M30.61619,4.97922598 C2.54636837,-12.5121984 -3.04961892,20.3358505 1.33278315,37.8857489 C6.7948104,59.7591466 -7.17172317,69.8014503 5.98551826,76.6565758 C19.6403593,83.7709583 35.6593414,58.6090366 68.1466366,62.6407256 C110.3239,67.8749444 105.231335,18.8601597 60.9736688,18.3178239 C49.8332428,18.1813085 42.6014601,12.4477253 30.61619,4.97922598 Z" id="Combined-Shape-Copy-3"></path>
                                </g>
                                <g id="Group-40" transform="translate(22.752480, 0.000000)">
                                    <path d="M4.9627197,1.7111999 C3.63599978,1.7111999 2.55647985,2.79071983 2.55647985,4.11767975 L2.55647985,28.2136783 C2.55647985,29.5406382 3.63599978,30.6201582 4.9627197,30.6201582 L48.7367971,30.6201582 C50.063517,30.6201582 51.142797,29.5406382 51.142797,28.2136783 L51.142797,4.11767975 C51.142797,2.79071983 50.063517,1.7111999 48.7367971,1.7111999 L4.9627197,1.7111999 Z M48.7367971,32.3313581 L4.9627197,32.3313581 C2.69255984,32.3313581 0.84527995,30.4840782 0.84527995,28.2136783 L0.84527995,4.11767975 C0.84527995,1.84727989 2.69255984,0 4.9627197,0 L48.7367971,0 C51.007197,0 52.8539968,1.84727989 52.8539968,4.11767975 L52.8539968,28.2136783 C52.8539968,30.4840782 51.007197,32.3313581 48.7367971,32.3313581 L48.7367971,32.3313581 Z" id="Fill-515" fill="#026BB0"></path>
                                    <polygon id="Stroke-15" stroke="#026BB0" stroke-width="0.5" fill="#026BB0" transform="translate(28.847520, 8.347315) scale(-1, 1) translate(-28.847520, -8.347315) " points="27.45872 8.8339817 30.2363199 8.8339817 30.2363199 7.86064842 27.45872 7.86064842"></polygon>
                                    <polygon id="Stroke-17" stroke="#026BB0" stroke-width="0.5" fill="#026BB0" transform="translate(16.047519, 8.347315) scale(-1, 1) translate(-16.047519, -8.347315) " points="7.24751957 8.8339817 24.8475185 8.8339817 24.8475185 7.86064842 7.24751957 7.86064842"></polygon>
                                    <polygon id="Stroke-19" stroke="#026BB0" stroke-width="0.5" fill="#026BB0" transform="translate(21.247519, 11.896204) scale(-1, 1) translate(-21.247519, -11.896204) " points="7.24751957 12.3828704 35.2475179 12.3828704 35.2475179 11.4095371 7.24751957 11.4095371"></polygon>
                                    <path d="M33.932878,32.990158 C33.932878,28.4205583 30.7617582,24.7161585 26.8497584,24.7161585 C22.9377586,24.7161585 19.7663988,28.4205583 19.7663988,32.990158 C19.7663988,37.5597578 22.9377586,41.2641575 26.8497584,41.2641575 C30.7617582,41.2641575 33.932878,37.5597578 33.932878,32.990158" id="Fill-520" fill="#E5F0F7"></path>
                                    <path d="M46.6538372,40.5369576 L42.1502375,40.5369576 C38.7314377,40.5369576 35.9601579,43.3084774 35.9601579,46.7270372 L35.9601579,50.887437 C35.9601579,52.2554369 37.0691978,53.3644768 38.4369577,53.3644768 L50.367117,53.3644768 C51.7348769,53.3644768 52.8439169,52.2554369 52.8439169,50.887437 L52.8439169,46.7270372 C52.8439169,43.3084774 50.072637,40.5369576 46.6538372,40.5369576" id="Fill-521" fill="#026BB0" opacity="0.1"></path>
                                    <path d="M11.5492793,40.5369576 L7.04543958,40.5369576 C3.62687978,40.5369576 0.855359949,43.3084774 0.855359949,46.7270372 L0.855359949,50.887437 C0.855359949,52.2554369 1.96439988,53.3644768 3.3323998,53.3644768 L15.2625591,53.3644768 C16.630319,53.3644768 17.7393589,52.2554369 17.7393589,50.887437 L17.7393589,46.7270372 C17.7393589,43.3084774 14.9680791,40.5369576 11.5492793,40.5369576" id="Fill-522" fill="#026BB0" opacity="0.1"></path>
                                    <path d="M49.829997,34.196638 C49.829997,30.6950382 47.3999972,27.8563183 44.4021574,27.8563183 C41.4040775,27.8563183 38.9740777,30.6950382 38.9740777,34.196638 C38.9740777,37.6984778 41.4040775,40.5369576 44.4021574,40.5369576 C47.3999972,40.5369576 49.829997,37.6984778 49.829997,34.196638" id="Fill-523" fill="#E5F0F7"></path>
                                    <path d="M46.6538372,41.3241575 C49.632957,41.3241575 52.0569569,43.7479174 52.0569569,46.7270372 L52.0569569,50.887437 C52.0569569,51.8193569 51.2990369,52.5772769 50.367117,52.5772769 L38.4371977,52.5772769 C37.5052778,52.5772769 36.7468778,51.8193569 36.7468778,50.887437 L36.7468778,46.7270372 C36.7468778,43.7479174 39.1708777,41.3241575 42.1499975,41.3241575 L46.6538372,41.3241575 Z" id="Fill-524" fill="#E5F0F7"></path>
                                    <path d="M42.1499975,41.3925575 C39.2087977,41.3925575 36.8157578,43.7855974 36.8157578,46.7270372 L36.8157578,50.887437 C36.8157578,51.7814369 37.5429578,52.5088769 38.4371977,52.5088769 L50.367117,52.5088769 C51.2611169,52.5088769 51.9883169,51.7814369 51.9883169,50.887437 L51.9883169,46.7270372 C51.9883169,43.7855974 49.595277,41.3925575 46.6538372,41.3925575 L42.1499975,41.3925575 Z M50.367117,54.2200768 L38.4371977,54.2200768 C36.5997578,54.2200768 35.1045579,52.7251169 35.1045579,50.887437 L35.1045579,46.7270372 C35.1045579,42.8421574 38.2648777,39.6815976 42.1499975,39.6815976 L46.6538372,39.6815976 C50.538957,39.6815976 53.6995168,42.8421574 53.6995168,46.7270372 L53.6995168,50.887437 C53.6995168,52.7251169 52.2045569,54.2200768 50.367117,54.2200768 L50.367117,54.2200768 Z" id="Fill-525" fill="#026BB0"></path>
                                    <path d="M11.5492793,41.3241575 C14.5283991,41.3241575 16.952399,43.7479174 16.952399,46.7270372 L16.952399,50.887437 C16.952399,51.8193569 16.194239,52.5772769 15.2625591,52.5772769 L3.3326398,52.5772769 C2.40071986,52.5772769 1.6423199,51.8193569 1.6423199,50.887437 L1.6423199,46.7270372 C1.6423199,43.7479174 4.06607976,41.3241575 7.04519958,41.3241575 L11.5492793,41.3241575 Z" id="Fill-526" fill="#E5F0F7"></path>
                                    <path d="M7.04519958,41.3925575 C4.10399976,41.3925575 1.7111999,43.7855974 1.7111999,46.7270372 L1.7111999,50.887437 C1.7111999,51.7814369 2.43839985,52.5088769 3.3326398,52.5088769 L15.2625591,52.5088769 C16.156319,52.5088769 16.883519,51.7814369 16.883519,50.887437 L16.883519,46.7270372 C16.883519,43.7855974 14.4907191,41.3925575 11.5492793,41.3925575 L7.04519958,41.3925575 Z M15.2625591,54.2200768 L3.3326398,54.2200768 C1.49495991,54.2200768 0,52.7251169 0,50.887437 L0,46.7270372 C0,42.8421574 3.16031981,39.6815976 7.04519958,39.6815976 L11.5492793,39.6815976 C15.4341591,39.6815976 18.5949589,42.8421574 18.5949589,46.7270372 L18.5949589,50.887437 C18.5949589,52.7251169 17.099999,54.2200768 15.2625591,54.2200768 L15.2625591,54.2200768 Z" id="Fill-527" fill="#026BB0"></path>
                                    <path d="M14.7251991,34.196638 C14.7251991,30.6950382 12.2951993,27.8563183 9.29735945,27.8563183 C6.29975962,27.8563183 3.86951977,30.6950382 3.86951977,34.196638 C3.86951977,37.6984778 6.29975962,40.5369576 9.29735945,40.5369576 C12.2951993,40.5369576 14.7251991,37.6984778 14.7251991,34.196638" id="Fill-528" fill="#FFFFFE"></path>
                                    <path d="M26.8497584,25.5717585 C23.4155986,25.5717585 20.6219988,28.8998383 20.6219988,32.990398 C20.6219988,37.0809578 23.4155986,40.4087976 26.8497584,40.4087976 C30.2836782,40.4087976 33.077518,37.0809578 33.077518,32.990398 C33.077518,28.8998383 30.2836782,25.5717585 26.8497584,25.5717585 Z M26.8497584,42.1199975 C22.4723987,42.1199975 18.9107989,38.0243977 18.9107989,32.990398 C18.9107989,27.9561583 22.4723987,23.8605586 26.8497584,23.8605586 C31.2273581,23.8605586 34.7889579,27.9561583 34.7889579,32.990398 C34.7889579,38.0243977 31.2273581,42.1199975 26.8497584,42.1199975 L26.8497584,42.1199975 Z" id="Fill-531" fill="#026BB0"></path>
                                    <path d="M29.7885582,42.0513575 C33.808558,42.0513575 37.0787978,45.3220773 37.0787978,49.3420771 L37.0787978,54.7711167 C37.0787978,56.1196767 35.9819979,57.2167166 34.6336779,57.2167166 L19.0653589,57.2167166 C17.7172789,57.2167166 16.620479,56.1196767 16.620479,54.7711167 L16.620479,49.3420771 C16.620479,45.3220773 19.8911988,42.0513575 23.9111986,42.0513575 L29.7885582,42.0513575 Z" id="Fill-532" fill="#E5F0F7"></path>
                                    <path d="M23.9111986,42.1199975 C19.9288788,42.1199975 16.688879,45.3597573 16.688879,49.3420771 L16.688879,54.7711167 C16.688879,56.0815167 17.7549589,57.1478366 19.0653589,57.1478366 L34.6336779,57.1478366 C35.9445579,57.1478366 37.0108778,56.0815167 37.0108778,54.7711167 L37.0108778,49.3420771 C37.0108778,45.3597573 33.770878,42.1199975 29.7885582,42.1199975 L23.9111986,42.1199975 Z M19.0653589,58.8590365 C16.811519,58.8590365 14.9776791,57.0249566 14.9776791,54.7711167 L14.9776791,49.3420771 C14.9776791,44.4163174 18.9851989,40.4087976 23.9111986,40.4087976 L29.7885582,40.4087976 C34.7143179,40.4087976 38.7220777,44.4163174 38.7220777,49.3420771 L38.7220777,54.7711167 C38.7220777,57.0249566 36.8879978,58.8590365 34.6336779,58.8590365" id="Fill-533" fill="#026BB0"></path>
                                    <path d="M44.4021574,28.7121583 C41.8807175,28.7121583 39.8294376,31.1721581 39.8294376,34.196638 C39.8294376,37.2208778 41.8807175,39.6815976 44.4021574,39.6815976 C46.9231172,39.6815976 48.9743971,37.2208778 48.9743971,34.196638 C48.9743971,31.1721581 46.9231172,28.7121583 44.4021574,28.7121583 Z M44.4021574,41.3925575 C40.9370376,41.3925575 38.1182377,38.1643177 38.1182377,34.196638 C38.1182377,30.2287182 40.9370376,27.0009584 44.4021574,27.0009584 C47.8667971,27.0009584 50.685597,30.2287182 50.685597,34.196638 C50.685597,38.1643177 47.8667971,41.3925575 44.4021574,41.3925575 L44.4021574,41.3925575 Z" id="Fill-534" fill="#3B92C3"></path>
                                    <path d="M14.7251991,34.196638 C14.7251991,30.6950382 12.2951993,27.8563183 9.29735945,27.8563183 C6.29975962,27.8563183 3.86951977,30.6950382 3.86951977,34.196638 C3.86951977,37.6984778 6.29975962,40.5369576 9.29735945,40.5369576 C12.2951993,40.5369576 14.7251991,37.6984778 14.7251991,34.196638" id="Fill-535" fill="#E5F0F7"></path>
                                    <path d="M44.4021574,28.7121583 C41.8807175,28.7121583 39.8294376,31.1721581 39.8294376,34.196638 C39.8294376,37.2208778 41.8807175,39.6815976 44.4021574,39.6815976 C46.9231172,39.6815976 48.9743971,37.2208778 48.9743971,34.196638 C48.9743971,31.1721581 46.9231172,28.7121583 44.4021574,28.7121583 Z M44.4021574,41.3925575 C40.9370376,41.3925575 38.1182377,38.1643177 38.1182377,34.196638 C38.1182377,30.2287182 40.9370376,27.0009584 44.4021574,27.0009584 C47.8667971,27.0009584 50.685597,30.2287182 50.685597,34.196638 C50.685597,38.1643177 47.8667971,41.3925575 44.4021574,41.3925575 L44.4021574,41.3925575 Z" id="Fill-536" fill="#026BB0"></path>
                                    <path d="M9.29735945,28.7121583 C6.7759196,28.7121583 4.72487972,31.1721581 4.72487972,34.196638 C4.72487972,37.2208778 6.7759196,39.6815976 9.29735945,39.6815976 C11.8185593,39.6815976 13.8698392,37.2208778 13.8698392,34.196638 C13.8698392,31.1721581 11.8185593,28.7121583 9.29735945,28.7121583 Z M9.29735945,41.3925575 C5.83247965,41.3925575 3.01343982,38.1643177 3.01343982,34.196638 C3.01343982,30.2287182 5.83247965,27.0009584 9.29735945,27.0009584 C12.7622392,27.0009584 15.5810391,30.2287182 15.5810391,34.196638 C15.5810391,38.1643177 12.7622392,41.3925575 9.29735945,41.3925575 L9.29735945,41.3925575 Z" id="Fill-537" fill="#026BB0"></path>
                                </g>
                            </g>
                        </g>
                    </g>
                </g>
            </g>
        </g>
    </g>
</svg>