<?xml version="1.0" encoding="utf-8"?>
<!-- Generator: Adobe Illustrator 25.4.1, SVG Export Plug-In . SVG Version: 6.00 Build 0)  -->
<svg version="1.1" xmlns="http://www.w3.org/2000/svg" xmlns:xlink="http://www.w3.org/1999/xlink" x="0px" y="0px"
	 viewBox="0 0 1185.9 1345.5" style="enable-background:new 0 0 1185.9 1345.5;" xml:space="preserve">
<style type="text/css">
	.st0{fill:#F2F2F2;}
	.st1{fill:#DEB997;}
	.st2{fill:#F2D8C0;}
	.st3{fill:#4F392B;}
	.st4{fill:#CE783E;}
	.st5{fill:#A35331;}
	.st6{fill:#824727;}
	.st7{fill:#DEBC9E;}
	.st8{fill:#F8DDC5;}
	.st9{fill:#36271D;}
	.st10{fill:#291D16;}
	.st11{fill:#FFE6C3;}
	.st12{fill:#F2A0A0;}
	.st13{fill:#D68080;}
	.st14{fill:#664936;}
	.st15{fill:#B86B37;}
	.st16{fill:#6B4E3B;}
</style>
<g id="Back">
</g>
<g id="Dogs">
	<g>
		<path class="st0" d="M116,1099.9c-36.3,7.9-159.7,67.3-100,134c154,172,639.3,98.3,805.2,81.8c56.1-5.6,538.5-43.9,274.8-155.8
			c-87.3-37.1-355.2-68.9-442.2-70.9C527.8,1086,290,1061.9,116,1099.9z"/>
	</g>
	<g>
		<g>
			<path class="st1" d="M1038.5,1146.2c-11.8-5-22.8-32.1-24.6-44.8c-15-103.4-4.6-237.9,6.8-400.8l-169.5,3l69.5,340.9
				c3.9,21.9,15.3,42.1,16.9,47.9c7,27,10,73.5,10,73.5c1,24.1,20.9,43.1,44.9,43.1h84.3c8.6,0,16.9-8.2,13.7-16.2
				C1078.5,1162.8,1065.2,1157.4,1038.5,1146.2z"/>
		</g>
		<g>
			<path class="st1" d="M700.3,1121.6l-104.9,6.8c-8.9,0.6-12.7-11-5.2-15.9c27-17.8,61.6-48,94.1-97.9
				c66.9-102.6-20.8-118.9-20.8-118.9l-202.2,41.6l-34.2,254.2H769c12.4,0,4.4-24.2-2.9-36.9C752,1130.3,728.3,1119.8,700.3,1121.6z
				"/>
		</g>
		<path class="st2" d="M1037.8,551.5c-9.6-36.2-12.6-73.9-9.5-111.2c6.6-79.6,6.9-195.7,6.9-195.7L792,217.9
			c0,0-42.9,157.2-83.8,184c-18.3,12-37.4,27.5-51.6,46.8c0,0-43.6,63.4-103.1,114c-58.7,49.9-175.6,150.5-231.9,203.2
			c-102.3,95.8-157.6,201.8-120.7,329.6c0,0,28.1,61.4,87.8,80.8c-25.7,30.9,28.4,47.5,46.7,48.4l344.7,9.5
			c15.2,0.7,13.4-20.1,9.3-30.2c-8-20-12.7-36.5-65.3-42.7c0,0-94.9-1.5-125-2.1c-24.1-0.4-51.8-11.8-37.6-31.3
			c2.8-3.8,17.4-10.9,20.2-14.9h-9c11-11.5,20.3-22,25.5-29.1c16.8-23.3,186.5-145.6,216-150c14.7-2.2,28.9-5,42.8-8.2l11.9,132
			c0.2,12.5,4.6,24.5,12.4,34.3c3.8,4.7,5.9,10.5,6.2,16.5l3.7,85.9c1,24.1,20.9,43.1,44.9,43.1H928c5.7,0,10.1-5.1,9.1-10.8
			l-2.5-14.7c-9.2-24.6-37.4-29-52.8-37.3c-13.9-7.5-18.9-31.3-18.5-44.1c1.6-53.4,13.8-160.3,25.3-252.2
			c37.6-18.4,62.5-35.1,69.3-40.4C1040,773.9,1062,642.9,1037.8,551.5z"/>
		<g>
			<path class="st3" d="M656.6,448.6c0,0-43.6,63.4-103.1,114c-58.7,49.9-175.6,150.5-231.9,203.2
				c-102.3,95.8-157.6,201.8-120.7,329.6c0,0,41.4,90.5,130.6,86.6l8.1,0.2c22.8-36.4,92.2-53,191.4-148.3
				c125-120,31.5-286.9,83.4-328.5c40.1-32.1,57,25.5,157.9-23.3c27.3-13.2,71.8-86.7,16.8-161.5c-24.2-33-52.6-70-63.6-99.9
				c-4.7-12.7-20.2-17.4-31-9.2C680.7,421.8,667.3,434.2,656.6,448.6z"/>
		</g>
		<g>
			<path class="st4" d="M475.4,1126.6c128.9-122.8,160.7-276.7,38-302.4c-67.8-14.2-124.8,1.8-194,32.3
				c-107.9,47.5-159.6,193-88,286.7c0.9,1.1,43,47.9,110,38.7C376.9,1177,431.8,1168.1,475.4,1126.6z"/>
		</g>
		<g>
			<g>
				<g>
					<path class="st5" d="M844.5,55.6c-1.1-0.3-13.4-16.8-23.9-21.5c-24.2-10.6-65.6,6.1-81.6,27.2
						c-39.8,52.5-110.5,122.5-109.8,155.5c0.7,35,3.9,119.5,52.5,150.6c23.9,15.3,131.4,56.7,89.4-103
						C746.1,169.8,844.5,55.6,844.5,55.6z"/>
				</g>
			</g>
			<g>
				<g>
					<g>
						<path class="st6" d="M663.3,213.9c-1.9,6-3.2,12.2-3.9,18.5c-0.5,4.5,6.5,4.4,7,0c0.6-5.7,1.9-11.2,3.6-16.6
							C671.4,211.5,664.7,209.6,663.3,213.9L663.3,213.9z"/>
					</g>
				</g>
				<g>
					<g>
						<path class="st6" d="M676.4,251.5c-1.6,5.5-2.6,11.1-2.9,16.9c-0.2,4.5,6.8,4.5,7,0c0.3-5.1,1.2-10.1,2.6-15
							C684.4,249,677.6,247.1,676.4,251.5L676.4,251.5z"/>
					</g>
				</g>
				<g>
					<g>
						<path class="st6" d="M656.4,263.4c-1.6,7.1-2.2,14.2-1.6,21.4c0.3,4.5,7.3,4.5,7,0c-0.5-6.6-0.1-13.1,1.4-19.6
							C664.2,260.9,657.4,259,656.4,263.4L656.4,263.4z"/>
					</g>
				</g>
				<g>
					<g>
						<path class="st6" d="M677,299.4c-0.9,5.5-1.8,11-2.8,16.5c-0.7,4.4,6,6.3,6.7,1.9c0.9-5.5,1.8-11,2.8-16.5
							C684.4,296.9,677.7,295,677,299.4L677,299.4z"/>
					</g>
				</g>
				<g>
					<g>
						<path class="st6" d="M700.9,268.5c-2.5,4.9-3.9,9.9-4.4,15.4c-0.4,4.5,6.6,4.5,7,0c0.4-4.1,1.5-8.1,3.4-11.8
							C709,268,702.9,264.5,700.9,268.5L700.9,268.5z"/>
					</g>
				</g>
				<g>
					<g>
						<path class="st6" d="M702.7,316c-1.1,6.4-1.9,12.9-2.4,19.3c-0.3,4.5,6.7,4.5,7,0c0.4-5.9,1.1-11.7,2.2-17.5
							C710.2,313.5,703.5,311.6,702.7,316L702.7,316z"/>
					</g>
				</g>
				<g>
					<g>
						<path class="st6" d="M642.9,218.7c-1.8,5-2.7,10.3-2.8,15.6c0,4.5,7,4.5,7,0c0-4.8,0.9-9.3,2.5-13.8
							C651.2,216.3,644.4,214.5,642.9,218.7L642.9,218.7z"/>
					</g>
				</g>
			</g>
		</g>
		<g>
			<path class="st7" d="M806.5,275.1l-16.6,32.6c19.9,51.5,66,99.3,120,95.7c59.2-3.9,104.5-53,124.5-84c0.4-17.2,0.7-32.5,0.8-44.3
				H806.5z"/>
		</g>
		<g>
			<g>
				<path class="st5" d="M970.5,55.6c1.1-0.3,13.4-16.8,23.9-21.5c24.2-10.6,65.6,6.1,81.6,27.2c39.8,52.5,110.5,122.5,109.8,155.5
					c-0.7,35-3.9,119.5-52.5,150.6c-23.9,15.3-131.4,56.7-89.4-103C1068.9,169.8,970.5,55.6,970.5,55.6z"/>
			</g>
		</g>
		<g>
			<path class="st4" d="M1072.6,215.7c-2-27.8-14-50.7-20-72.6c-6-21.9-10.6-96.6-83.4-130.1c-42.8-19.7-84.6-14.9-114.7,0
				C782.6,48.5,777,121.3,771,143.2c-6,21.9-18,44.7-19.9,72.6c-2,27.8,33.8,138.2,154.1,158.1h13.3
				C1038.8,353.9,1074.6,243.6,1072.6,215.7z"/>
		</g>
		<g>
			<g>
				<path class="st8" d="M810.3,270.2c-6.3,0-10.4,6.6-7.5,12.1c12.7,24.3,40.1,77.8,43.5,92.6c1.8,7.9,4.8,19.7,7.6,30.9
					c6.3,25.1,27.2,44.2,53,48.3c2.7,0.4,7.3,0.4,10,0c25.9-4.1,46.7-23.2,53-48.3c2.8-11.2,5.8-23.1,7.6-30.9
					c3.4-14.8,30.8-68.3,43.5-92.6c2.9-5.6-1.2-12.1-7.5-12.1H810.3z"/>
			</g>
		</g>
		<g>
			<g>
				<path class="st3" d="M818.3,277.3c-5.8,0-9.6,5.9-6.9,10.9c11.7,21.8,36.9,69.8,40.1,83.2c1.7,7.1,4.4,17.7,7,27.8
					c5.8,22.6,25,35.9,48.9,39.6c2.5,0.4,6.7,0.4,9.2,0c23.8-3.7,43-17,48.9-39.6c2.6-10.1,5.3-20.7,7-27.8
					c3.2-13.3,28.4-61.3,40.1-83.2c2.7-5-1.1-10.9-6.9-10.9H818.3z"/>
			</g>
		</g>
		<g>
			<g>
				<g>
					<path class="st6" d="M1039.1,137.8c0.9-0.3-12.1-7.7-15.3-11.2c-7.2-7.7-15.7-15-27.1-15c-16.7,0-30.2,13.5-30.2,30.2
						c0,0.1-1,31.2-1,31.2l5.8-4.5c3.1-2.4,7.2-2.5,10.5-0.5c4.4,2.6,9.5,4.1,15,4.1c9.6,0,18.1-4.6,23.6-11.5
						C1023.2,158.2,1028.1,141.4,1039.1,137.8z"/>
				</g>
				<g>
					<path class="st9" d="M1020.2,141.8c0-13-10.5-23.5-23.5-23.5c-13,0-23.5,10.5-23.5,23.5c0,13,10.5,23.5,23.5,23.5
						C1009.7,165.3,1020.2,154.8,1020.2,141.8z"/>
				</g>
				<g>
					<path class="st10" d="M1011.1,141.8c0-8-6.5-14.4-14.4-14.4c-8,0-14.4,6.5-14.4,14.4c0,8,6.5,14.4,14.4,14.4
						C1004.7,156.2,1011.1,149.7,1011.1,141.8z"/>
				</g>
				<g>
					<path class="st11" d="M994.8,141.8c0-2.1-1.7-3.9-3.9-3.9c-2.1,0-3.9,1.7-3.9,3.9c0,2.1,1.7,3.9,3.9,3.9
						C993.1,145.7,994.8,143.9,994.8,141.8z"/>
				</g>
			</g>
			<g>
				<g>
					<path class="st6" d="M784.6,137.8c-0.9-0.4,12.1-7.7,15.3-11.2c7.2-7.7,15.7-15,27.1-15c16.7,0,30.2,13.5,30.2,30.2
						c0,0.1,1,31.2,1,31.2l-5.8-4.5c-3-2.4-7.2-2.5-10.5-0.5c-4.4,2.6-9.5,4.1-15,4.1c-9.6,0-18.1-4.6-23.6-11.5
						C800.5,158.2,797.2,143,784.6,137.8z"/>
				</g>
				<g>
					<path class="st9" d="M803.5,141.8c0-13,10.5-23.5,23.5-23.5c13,0,23.5,10.5,23.5,23.5c0,13-10.5,23.5-23.5,23.5
						C814,165.3,803.5,154.8,803.5,141.8z"/>
				</g>
				<g>
					<path class="st10" d="M812.6,141.8c0-8,6.5-14.4,14.4-14.4c8,0,14.4,6.5,14.4,14.4c0,8-6.5,14.4-14.4,14.4
						C819,156.2,812.6,149.7,812.6,141.8z"/>
				</g>
				<g>
					<path class="st11" d="M817.3,141.8c0-2.1,1.7-3.9,3.9-3.9c2.1,0,3.9,1.7,3.9,3.9c0,2.1-1.7,3.9-3.9,3.9
						C819.1,145.7,817.3,143.9,817.3,141.8z"/>
				</g>
			</g>
		</g>
		<g>
			<path class="st8" d="M954.6,180.6c-35.4-51.2-26.9-101.2-19.7-138.4c0.8-4-4.1-6.5-7-3.6c-5.1,5.2-10.8,10.8-14.9,11.2
				c-6.2,0.6-12.9-4.5-18.6-9.7c-3.1-2.8-7.9,0-7,4c7.4,33.2,12,92.5-18.5,136.6c0,0,0,0,0,0L954.6,180.6
				C954.6,180.6,954.6,180.6,954.6,180.6z"/>
		</g>
		<g>
			<g>
				<path class="st8" d="M973.3,82.3c3.2,7.6,0.3,16.2-6.5,19.1c-6.8,2.9-15-0.9-18.3-8.6c-3.2-7.7-0.3-16.2,6.5-19.1
					C961.9,70.8,970.1,74.6,973.3,82.3z"/>
			</g>
			<g>
				<path class="st8" d="M850.4,82.3c-3.2,7.6-0.3,16.2,6.5,19.1c6.8,2.9,15-0.9,18.3-8.6c3.2-7.7,0.3-16.2-6.5-19.1
					C861.8,70.8,853.6,74.6,850.4,82.3z"/>
			</g>
		</g>
		<g>
			<g>
				<g>
					<path class="st12" d="M870.7,293.3c0,0-4.8,83.3-2.7,92.4c4.8,20.3,20.5,35.7,40.1,39c1.2,0.2,6.3,0.2,7.5,0
						c19.5-3.3,35.3-18.7,40.1-39c2.1-9.1-2.7-92.4-2.7-92.4H870.7z"/>
				</g>
			</g>
			<g>
				<g>
					<path class="st13" d="M905,316.4l5.4,71.9c0.1,1.4,2.1,1.4,2.2,0l5.5-71.9H905z"/>
				</g>
			</g>
		</g>
		<g>
			<path class="st8" d="M959,184.5c-10.5-15.4-25.7-26.6-44.2-27.7l0-0.2H912c-0.1,0-0.1,0-0.2,0c-0.1,0-0.1,0-0.2,0h-2.8l0,0.2
				c-18.5,1.1-33.2,12.7-44.2,27.7c-20.4,27.9-44.6,65.3-46,88c-0.7,10.5,17.1,54.8,32.8,57.8c10.6,2,35.5-4.1,50.5-8.3
				c6.5-1.8,13.3-1.8,19.8,0c15,4.2,39.9,10.4,50.5,8.3c15.7-3,33.1-47.2,32.8-57.8C1004.5,248.4,979,213.6,959,184.5z"/>
		</g>
		<g>
			<path class="st3" d="M973.8,322c-10.9,2-36.4-4.1-51.8-8.3c-6.7-1.8-13.7-1.8-20.3,0c-15.4,4.2-40.9,10.4-51.8,8.3
				c-11.9-2.2-24.9-26.9-30.7-43.9c3.2,15.6,18.5,49.7,32.2,52.3c10.6,2,35.5-4.1,50.5-8.3c6.5-1.8,13.3-1.8,19.8,0
				c15,4.2,39.9,10.4,50.5,8.3c13.7-2.6,29-36.6,32.2-52.3C998.7,295.1,985.6,319.8,973.8,322z"/>
		</g>
		<g>
			<path class="st3" d="M930.9,215.7c-4.5-0.6-9.1,0.2-12.9,1.3c-4,1.1-8.3,1.1-12.3,0c-3.8-1.1-8.4-1.8-12.9-1.3
				c-11.9,1.5-30.3,13.4-27.3,38.8c1.2,10.3,11.5,21.5,22.1,30.5c14,11.9,34.7,11.9,48.7,0c10.6-9,20.9-20.3,22.1-30.5
				C961.2,229.2,942.9,217.2,930.9,215.7z"/>
		</g>
		<g>
			<path class="st14" d="M866.5,259.1c-0.9-22.9,18.6-28,26.2-25.9c4.4,1.2,28.8,1.7,38.2,0c14-2.6,26.3,5.9,26.2,25.9
				c0.5-1.6,0.9-3.1,1.1-4.6c3-25.3-15.4-37.3-27.3-38.8c-4.5-0.6-9.1,0.2-12.9,1.3c-4,1.1-8.3,1.1-12.3,0
				c-3.8-1.1-8.4-1.8-12.9-1.3c-11.9,1.5-30.3,13.4-27.3,38.8C865.6,256,866,257.6,866.5,259.1z"/>
		</g>
		<g>
			<g>
				<path class="st9" d="M951.1,259c0-6-4.9-10.9-10.9-10.9c-6,0-10.9,4.9-10.9,10.9c0,6,4.9,10.9,10.9,10.9
					C946.2,269.9,951.1,265,951.1,259z"/>
			</g>
			<g>
				<path class="st9" d="M894.4,259c0-6-4.9-10.9-10.9-10.9c-6,0-10.9,4.9-10.9,10.9c0,6,4.9,10.9,10.9,10.9
					C889.5,269.9,894.4,265,894.4,259z"/>
			</g>
		</g>
		<g>
			<path class="st9" d="M911.8,245.3c-2.3,0-4.2,1.9-4.2,4.2v70.7c0,0.3,0.1,0.5,0.2,0.8c2.7-0.3,5.3-0.3,8-0.1
				c0-0.2,0.1-0.5,0.1-0.7v-70.7C916,247.2,914.1,245.3,911.8,245.3z"/>
		</g>
		<g>
			<g>
				<g>
					<path class="st15" d="M1031.1,261.3c-1,0-2.1-0.4-2.8-1.2c-5.6-6-14.3-1.2-14.4-1.2c-1.8,1-4.2,0.4-5.2-1.5
						c-1-1.8-0.4-4.2,1.5-5.2c4.9-2.7,16.1-5.6,23.8,2.7c1.4,1.6,1.3,4-0.2,5.4C1032.9,260.9,1032,261.3,1031.1,261.3z"/>
				</g>
			</g>
			<g>
				<g>
					<path class="st15" d="M792.6,261.3c1,0,2.1-0.4,2.8-1.2c5.5-6,14.3-1.2,14.4-1.2c1.8,1,4.2,0.4,5.2-1.5c1-1.8,0.4-4.2-1.5-5.2
						c-4.9-2.7-16.1-5.6-23.8,2.7c-1.4,1.6-1.3,4,0.2,5.4C790.8,260.9,791.7,261.3,792.6,261.3z"/>
				</g>
			</g>
		</g>
		<g>
			<g>
				<g>
					<path class="st6" d="M1131.9,253.3c1.5,4.9,2.3,9.9,2.6,15c0.2,4.5,7.2,4.5,7,0c-0.3-5.7-1.2-11.4-2.9-16.9
						C1137.4,247.1,1130.6,249,1131.9,253.3L1131.9,253.3z"/>
				</g>
			</g>
			<g>
				<g>
					<path class="st6" d="M1151.8,265.3c1.4,6.5,1.9,13,1.4,19.6c-0.3,4.5,6.7,4.5,7,0c0.5-7.2,0-14.4-1.6-21.4
						C1157.6,259,1150.8,260.9,1151.8,265.3L1151.8,265.3z"/>
				</g>
			</g>
			<g>
				<g>
					<path class="st6" d="M1131.3,301.3c0.9,5.5,1.8,11,2.8,16.5c0.7,4.4,7.5,2.6,6.8-1.9c-0.9-5.5-1.8-11-2.8-16.5
						C1137.3,295,1130.5,296.9,1131.3,301.3L1131.3,301.3z"/>
				</g>
			</g>
			<g>
				<g>
					<path class="st6" d="M1108,272c1.9,3.7,3,7.7,3.4,11.8c0.4,4.5,7.4,4.5,7,0c-0.5-5.4-1.9-10.5-4.4-15.4
						C1112.1,264.5,1106,268,1108,272L1108,272z"/>
				</g>
			</g>
			<g>
				<g>
					<path class="st6" d="M1105.5,317.9c1,5.8,1.7,11.6,2.2,17.5c0.3,4.5,7.3,4.5,7,0c-0.5-6.5-1.3-12.9-2.4-19.3
						C1111.5,311.6,1104.7,313.5,1105.5,317.9L1105.5,317.9z"/>
				</g>
			</g>
			<g>
				<g>
					<path class="st6" d="M1165.3,220.6c1.6,4.5,2.5,9,2.5,13.8c0,4.5,7,4.5,7,0c0-5.3-0.9-10.6-2.8-15.6
						C1170.5,214.5,1163.8,216.3,1165.3,220.6L1165.3,220.6z"/>
				</g>
			</g>
		</g>
		<g>
			<path class="st1" d="M669,1232.9c-1.9,0-3.5-1.6-3.4-3.6c0.4-22.2-11.9-32.2-14.7-33.5c-4.1-0.9-3.4-6.9,0.7-6.9
				c4.8,0,21.5,13.8,21,40.6C672.5,1231.4,670.8,1233,669,1232.9z M651.5,1195.9C651.5,1195.9,651.5,1195.9,651.5,1195.9
				C651.5,1195.9,651.5,1195.9,651.5,1195.9z M650.7,1195.8L650.7,1195.8L650.7,1195.8z"/>
		</g>
		<g>
			<path class="st1" d="M756.9,926.5c-0.1,0-0.1,0-0.2,0c-1.9-0.1-3.4-1.8-3.3-3.7c1.4-25.9-26.9-76.8-38.7-104.9
				c-12.4-29.4,2.3-69.9,2.9-71.6c1.6-4.3,8.2-1.9,6.6,2.4c-0.1,0.4-14.4,39.6-3.1,66.4c12.1,28.7,40.8,80,39.3,108
				C760.3,925,758.8,926.5,756.9,926.5z"/>
		</g>
		<g>
			<path class="st1" d="M922.1,1233.9c2-12.7-2.4-21-6.5-25.7c-4.7-5.4-10.3-7.8-12.1-7.8c-4.6,0-4.6-7,0-7
				c4.3,0,11.6,3.5,17.4,10.2c5,5.8,10.4,16,8.1,31.3C928.3,1239.5,921.4,1238.5,922.1,1233.9z"/>
		</g>
		<g>
			<path class="st1" d="M888.1,1234.1c4.5-19.2-19-29.3-19.2-29.4c-4.4-1.5-2.2-8.1,2.3-6.6c5,1.7,29.1,14.9,23.8,37.6
				C893.9,1240.2,887.1,1238.6,888.1,1234.1z"/>
		</g>
		<g>
			<path class="st1" d="M885.4,874.4c3.2-20.9,16.6-21.7,49.8-86.6c31.8-62.1-10-139.9-10.5-140.7c-2.2-4.1,3.9-7.4,6.1-3.4
				c0.5,0.8,11.2,20.6,18,48.7c9,37.4,6.5,71.5-7.4,98.6c-32.7,63.8-46.4,66.4-49.2,84.4C891.7,880.1,884.7,879,885.4,874.4z"/>
		</g>
		<g>
			<g>
				<g>
					<path class="st16" d="M639.5,503.3c-4,3.7-8,7.3-12,11c-3.3,3.1,1.6,8,4.9,4.9c4-3.7,8-7.3,12-11
						C647.7,505.2,642.8,500.3,639.5,503.3L639.5,503.3z"/>
				</g>
			</g>
			<g>
				<g>
					<path class="st16" d="M647.6,531.5c-4.4,4.1-8.2,8.7-11.6,13.7c-2.5,3.8,3.6,7.3,6,3.5c3-4.5,6.5-8.6,10.5-12.3
						C655.8,533.3,650.9,528.4,647.6,531.5L647.6,531.5z"/>
				</g>
			</g>
			<g>
				<g>
					<path class="st16" d="M614.5,543.4c-4,4-8,8-12,12c-3.2,3.2,1.8,8.1,4.9,4.9c4-4,8-8,12-12
						C622.6,545.1,617.7,540.2,614.5,543.4L614.5,543.4z"/>
				</g>
			</g>
			<g>
				<g>
					<path class="st16" d="M635.1,570.7c-3.5,2.6-6.7,5.5-9.5,8.8c-1.2,1.4-1.4,3.5,0,4.9c1.3,1.3,3.7,1.5,4.9,0
						c2.4-2.8,5.1-5.5,8.1-7.7c1.5-1.1,2.3-3,1.3-4.8C639,570.5,636.7,569.6,635.1,570.7L635.1,570.7z"/>
				</g>
			</g>
			<g>
				<g>
					<path class="st16" d="M578.2,591.3c-2.4,3.3-4.7,6.6-7.1,9.9c-1.1,1.5-0.3,3.9,1.3,4.8c1.8,1,3.7,0.3,4.8-1.3
						c2.4-3.3,4.7-6.6,7.1-9.9c1.1-1.5,0.3-3.9-1.3-4.8C581.2,589,579.3,589.8,578.2,591.3L578.2,591.3z"/>
				</g>
			</g>
			<g>
				<g>
					<path class="st16" d="M575.2,560.9c-4.7,3.1-8.6,7.3-11.2,12.3c-2,4,4,7.6,6,3.5c2-4,4.9-7.4,8.6-9.8
						C582.5,564.4,579,558.4,575.2,560.9L575.2,560.9z"/>
				</g>
			</g>
			<g>
				<g>
					<path class="st16" d="M680.6,510.5c-3.1,2.7-5.7,6-7.6,9.7c-2.1,4,3.9,7.5,6,3.5c1.7-3.2,3.9-5.9,6.5-8.2
						C688.9,512.4,683.9,507.5,680.6,510.5L680.6,510.5z"/>
				</g>
			</g>
			<g>
				<g>
					<path class="st16" d="M668.2,479.8c-3.7,2.1-6.7,4.9-9.2,8.3c-2.3,3.1,2.9,7.9,6,3.5c1.8-2.4,4.1-4.4,6.7-5.8
						C675.7,483.7,672.2,477.6,668.2,479.8L668.2,479.8z"/>
				</g>
			</g>
			<g>
				<g>
					<path class="st16" d="M535.2,606.3c-2.4,3.2-5.5,5.7-9,7.6c-4,2.1-0.5,8.1,3.5,6c4.6-2.4,8.4-5.9,11.5-10.1
						C543.5,606.8,538.4,601.9,535.2,606.3L535.2,606.3z"/>
				</g>
			</g>
		</g>
		<g>
			<path class="st3" d="M347,1211.9c-64.1,5-158.3,9.3-167-28c-6.2-26.6,32.2-47.8,41.5-56.5c-36.8-48.2-27.5-122.9-30-145.7
				c-12.9,60.5-60.8,102.6-79.2,124.1c-37.2,43.6-39.6,100,1.4,145.4c12.9,24.2,92.8,73.7,115.8,70.6c4-0.5,2-5.4-2-11.1
				c67,14,139.3,5.7,203.9-15.1c28.2-9.1,56.2-22.9,70.5-50.4C456.7,1219.3,387.9,1208.7,347,1211.9z"/>
		</g>
		<g>
			<path class="st5" d="M401.4,1133c60.4-55.5,45.8-196-21-210c-37-7.7-94.5,8.1-133.4,35c-65.7,45.3-64.1,137.5-13.7,186.5
				C300,1209.3,377.3,1155.1,401.4,1133z"/>
		</g>
		<g>
			<g>
				<g>
					<path class="st16" d="M348.2,1294.2c3.2-0.6,1.8-5.4-1.3-4.8c-6.1,1.1-12.1,1.6-18.3,1.5c-3.2,0-3.2,5,0,5
						C330.3,1295.9,337.5,1296.2,348.2,1294.2z"/>
				</g>
			</g>
			<g>
				<g>
					<path class="st16" d="M386.2,1270.3c3.1-0.7,1.8-5.5-1.3-4.8c-8.1,1.8-16.3,3.4-24.5,4.6c-3.2,0.5-1.8,5.3,1.3,4.8
						C369.9,1273.7,378.1,1272.2,386.2,1270.3z"/>
				</g>
			</g>
			<g>
				<g>
					<path class="st16" d="M412.7,1283.3c3-1.1,1.7-6-1.3-4.8c-8.2,3.1-16.6,5.2-25.3,6.2c-3.2,0.4-3.2,5.4,0,5
						C395.2,1288.6,404.1,1286.5,412.7,1283.3z"/>
				</g>
			</g>
			<g>
				<g>
					<path class="st16" d="M427.3,1253c2.9-1.3,0.4-5.6-2.5-4.3c-5,2.3-10.3,3.3-15.7,3.3c-3.2,0-3.2,5,0,5
						C410.4,1256.8,417.7,1257.4,427.3,1253z"/>
				</g>
			</g>
			<g>
				<g>
					<path class="st16" d="M298,1291.4c3.2,0,3.2-5,0-5c-4.8,0-9.7,0-14.5,0c-3.2,0-3.2,5,0,5C288.4,1291.4,293.2,1291.4,298,1291.4
						z"/>
				</g>
			</g>
			<g>
				<g>
					<path class="st16" d="M318.1,1268.5c3.2-0.3,3.2-5.3,0-5c-6.2,0.6-12.3,0.5-18.5-0.2c-3.2-0.4-3.2,4.6,0,5
						C305.7,1269,311.9,1269.1,318.1,1268.5z"/>
				</g>
			</g>
			<g>
				<g>
					<path class="st16" d="M226.8,1275.5c7.4,2.2,15,3.1,22.7,2.8c3.2-0.1,3.2-5.1,0-5c-7.3,0.3-14.4-0.6-21.4-2.6
						C225.1,1269.8,223.7,1274.6,226.8,1275.5L226.8,1275.5z"/>
				</g>
			</g>
		</g>
	</g>
</g>
</svg>
