<?xml version="1.0" encoding="UTF-8"?>
<svg width="353px" height="343px" viewBox="0 0 353 343" version="1.1" xmlns="http://www.w3.org/2000/svg" xmlns:xlink="http://www.w3.org/1999/xlink">
    <title>04</title>
    <g id="Page-1" stroke="none" stroke-width="1" fill="none" fill-rule="evenodd">
        <g id="04">
            <path d="M154.508061,269.356617 C156.434032,264.857246 169.019947,234.85555 164.136621,216.81063 C163.456943,214.300246 162.401823,210.401195 159.021988,207.198633 C152.270949,200.802136 145.026658,205.503337 139.638428,200.81723 C132.533093,194.637226 141.314536,183.138021 133.953728,165.791748 C132.18786,161.63135 129.438939,155.152913 122.978327,151.705825 C115.764676,147.857231 111.348278,151.74852 104.202378,148.725364 C95.2923355,144.955691 96.5757407,136.5439 88.38551,127.787961 C79.7572645,118.564101 62.5314128,111.007073 49.3659375,117.554082 C37.8860641,123.262283 33.847265,137.529768 34.0164293,147.401386 C34.2667235,161.986711 43.8288254,174.253565 54.0969295,180.131253 C68.8569517,188.579702 84.3052829,183.385566 86.1082642,189.179589 C87.7869616,194.574262 74.4648366,199.306514 74.7794305,209.305355 C74.9990852,216.286645 81.7893945,223.350739 88.9188956,225.374226 C98.8007699,228.178732 104.896728,220.041655 110.729878,223.441304 C116.846551,227.006127 112.978642,237.606148 117.081741,247.497604 C120.466323,255.656674 129.760006,264.506198 154.508061,269.356617" id="Fill-57" fill="#FFFFFF"></path>
            <path d="M107.56754,222.158296 C108.708105,222.158296 109.82623,222.414897 110.947375,223.068692 C114.60426,225.199996 114.882604,229.651927 115.205398,234.805955 C115.448787,238.693363 115.724542,243.099149 117.480486,247.33243 C121.748865,257.622804 134.117714,264.866303 154.248273,268.865839 C156.95404,262.487023 168.34329,234.005962 163.719751,216.92319 C163.041368,214.417119 162.016456,210.630627 158.725087,207.51173 C155.197234,204.169008 151.542075,203.955964 148.007748,203.750252 C144.891154,203.56869 141.947608,203.397047 139.355336,201.142834 C135.752394,198.009274 136.049295,193.594863 136.424736,188.006121 C136.820029,182.127571 137.311986,174.810757 133.556279,165.95994 C131.78221,161.779274 129.101042,155.461266 122.775071,152.08663 C119.071148,150.11015 116.170325,150.230473 113.098611,150.356833 C110.344943,150.469824 107.497631,150.587559 104.034077,149.122557 C98.7904129,146.904139 96.9654229,143.102121 94.8525945,138.699354 C93.2968865,135.45841 91.533607,131.784909 88.070053,128.082514 C78.8773509,118.254885 61.9583254,111.773428 49.5579735,117.940063 C38.8622115,123.258402 34.2619766,136.565463 34.4479711,147.394054 C34.71639,163.042444 45.3163498,174.607632 54.3114058,179.756917 C62.0744101,184.200654 70.1822163,184.84108 76.1021059,185.309001 C81.6094416,185.744577 85.5891195,186.058968 86.5203866,189.051504 C87.3580091,191.743881 84.9318815,194.160249 82.1234078,196.958286 C78.8052834,200.263056 75.0443971,204.008578 75.2105407,209.291985 C75.4125022,215.71479 81.7445142,222.889718 89.0367065,224.959351 C94.0248975,226.375188 98.036941,224.922693 101.576878,223.640979 C103.71603,222.866861 105.673072,222.158296 107.56754,222.158296 Z M154.508061,269.78788 C154.480874,269.78788 154.452824,269.785292 154.425205,269.779686 C133.791469,265.73573 121.093353,258.294281 116.683428,247.662777 C114.872247,243.296668 114.591314,238.814548 114.34404,234.859863 C114.024268,229.749824 113.771384,225.713199 110.512381,223.813915 C107.877387,222.278187 105.093943,223.285187 101.870758,224.452185 C98.2082631,225.777889 94.0568315,227.28041 88.8010847,225.789102 C81.0480058,223.588796 74.5645227,216.200393 74.3478888,209.318724 C74.1700936,203.661843 78.2421214,199.605811 81.5140709,196.347185 C84.1244669,193.747099 86.3788409,191.501511 85.6961419,189.307674 C84.9383546,186.872761 81.2033608,186.577777 76.0339223,186.16894 C70.0324714,185.69455 61.8133274,185.045067 53.8824533,180.505158 C44.6906143,175.243746 33.8597797,163.418937 33.5848876,147.408717 C33.3945777,136.309293 38.1406737,122.653771 49.1739014,117.16767 C61.9341591,110.822924 79.2916309,117.435053 88.700967,127.493408 C92.2547132,131.292407 94.0482007,135.029734 95.6306643,138.326743 C97.7521235,142.746329 99.4273685,146.236975 104.370679,148.32817 C107.655575,149.717701 110.404496,149.60471 113.062793,149.494738 C116.114656,149.36924 119.270089,149.238567 123.181584,151.325451 C129.776836,154.844128 132.529209,161.33076 134.350747,165.623124 C138.187153,174.663265 137.687428,182.093501 137.286094,188.064342 C136.912379,193.623326 136.642233,197.639682 139.921951,200.492057 C142.291546,202.553065 145.092684,202.716082 148.057807,202.889019 C151.575304,203.093869 155.562318,203.32632 159.318889,206.885967 C162.786327,210.171331 163.849214,214.098415 164.552627,216.697208 C169.213278,233.917984 158.346625,261.486923 154.904648,269.525672 C154.836033,269.686964 154.678089,269.78788 154.508061,269.78788 L154.508061,269.78788 Z" id="Fill-58" fill="#000000"></path>
            <path d="M155.012102,265.920742 C154.805825,265.920742 154.623715,265.772818 154.587465,265.563656 C147.493782,224.764851 123.237684,194.867952 104.13851,176.971387 C83.427527,157.564968 64.1445159,147.690332 63.9520483,147.592866 C63.7392982,147.485051 63.6542845,147.22543 63.7621699,147.013249 C63.8700553,146.800636 64.1298435,146.716108 64.342162,146.823493 C64.5354927,146.921389 83.9104222,156.840015 104.709439,176.323629 C116.926386,187.768927 127.242391,200.228555 135.370048,213.357074 C145.534583,229.774406 152.286053,247.289735 155.437602,265.415732 C155.478599,265.650339 155.321086,265.873303 155.086327,265.914273 C155.061298,265.918585 155.0367,265.920742 155.012102,265.920742" id="Fill-59" fill="#000000"></path>
            <path d="M175.631598,253.075563 C203.881183,194.712697 201.407155,168.663099 192.458705,155.764875 C189.787893,151.914556 183.433441,144.701246 179.86157,132.478381 C175.229833,116.625572 179.781735,107.755348 179.734265,94.7372332 C179.641484,69.2741526 162.008688,44.2664861 141.888486,31.7926257 C127.833603,23.0789501 100.544199,13.0283583 83.0831567,25.8071219 C75.6994775,31.2108514 68.085355,42.1511395 70.9572653,50.3494553 C75.0659742,62.0806803 97.9139516,56.5613723 108.143217,72.5090588 C113.725209,81.2102277 108.56397,85.3253423 114.568874,94.51427 C124.030858,108.994367 141.249805,105.513641 144.275775,115.653505 C147.205944,125.474233 131.644549,131.298875 133.367263,143.829663 C135.332073,158.123454 156.178991,160.816263 156.571694,174.53518 C156.804727,182.703739 149.462044,183.43128 148.707277,192.882416 C147.789388,204.382484 158.158905,209.584813 167.308021,227.063053 C172.438189,236.863512 174.387895,246.03864 175.631598,253.075563" id="Fill-60" fill="#FFFFFF"></path>
            <path d="M103.520542,20.1407531 C96.2922178,20.1407531 89.2654236,21.8175049 83.3377663,26.1551514 C75.52945,31.8693905 68.731373,42.6897874 71.3642092,50.2067072 C73.2340795,55.5448846 79.2294889,57.1936043 86.1717009,59.1019445 C94.0732301,61.2746492 103.028584,63.7367315 108.506575,72.2761766 C111.307713,76.6427178 111.466088,79.9384321 111.619717,83.1258994 C111.775072,86.3560617 111.935606,89.6966274 114.930074,94.278369 C119.8134,101.7513 126.731446,104.341036 132.835172,106.625438 C138.390409,108.70499 143.18829,110.50077 144.689192,115.530163 C146.187937,120.553087 143.093782,124.524591 139.817949,128.729409 C136.43682,133.069643 132.940468,137.557369 133.79449,143.771011 C134.741292,150.656992 140.27452,154.851028 145.625638,158.90706 C151.118301,163.070907 156.798254,167.376209 157.002804,174.522674 C157.124068,178.759836 155.293036,181.056313 153.354982,183.487344 C151.461808,185.861449 149.504767,188.316631 149.137525,192.916917 C148.597234,199.685595 152.104374,204.273805 156.957924,210.624158 C160.277775,214.967411 164.040387,219.890282 167.690367,226.863378 C172.391151,235.844437 174.475066,244.389058 175.820182,251.691208 C188.304253,225.705005 195.618885,204.053861 197.56557,187.320844 C199.115668,174.00257 197.277732,163.468101 192.103978,156.010264 C191.694445,155.419865 191.201624,154.755288 190.631126,153.985914 C187.585304,149.878562 182.487502,143.004225 179.44729,132.599566 C176.352704,122.008601 177.305117,114.654699 178.312767,106.869533 C178.807314,103.051128 179.318691,99.1024806 179.302724,94.7389582 C179.204332,67.7151357 159.721517,43.3560892 141.661064,32.1587682 C132.78684,26.657142 117.766598,20.1407531 103.520542,20.1407531 Z M175.631598,253.506827 C175.611747,253.506827 175.591896,253.506827 175.572045,253.502945 C175.386914,253.47707 175.239327,253.334753 175.206529,253.150172 C173.878676,245.635409 171.856471,236.682813 166.925675,227.26316 C163.309787,220.355184 159.570909,215.463364 156.272204,211.147712 C151.301706,204.644692 147.710848,199.946509 148.277462,192.848346 C148.665418,187.985421 150.798097,185.310294 152.679619,182.94999 C154.596959,180.545697 156.252353,178.469164 156.140152,174.547256 C155.947253,167.813941 150.680286,163.821305 145.103904,159.594494 C139.612967,155.432371 133.935172,151.128363 132.939605,143.888314 C132.035957,137.314568 135.808495,132.471912 139.136976,128.199817 C142.272127,124.175268 145.233798,120.373682 143.862358,115.776415 C142.484014,111.158016 137.872127,109.4321 132.53223,107.433194 C126.304651,105.102216 119.245491,102.460297 114.207242,94.7501711 C111.085037,89.9722047 110.918462,86.5126103 110.757497,83.1673007 C110.602573,79.9518013 110.456281,76.9144137 107.779859,72.7415097 C102.480958,64.4806607 93.694768,62.0651548 85.9425522,59.9338515 C78.7664446,57.9608218 72.5690737,56.2569004 70.5494584,50.4917722 C67.4635034,41.6814937 75.8716626,30.5497247 82.8281155,25.4595237 C100.807871,12.3008171 128.555141,23.0185733 142.11634,31.4260518 C152.393507,37.7979675 161.829599,47.2935234 168.686797,58.1639468 C176.152037,69.9995375 180.12179,82.6459033 180.165807,94.7359394 C180.181774,99.1563885 179.666945,103.13393 179.168946,106.979936 C178.172516,114.673243 177.231755,121.94003 180.27585,132.357627 C183.272908,142.614363 188.312884,149.411504 191.324182,153.472279 C191.899427,154.247691 192.396132,154.917443 192.813432,155.519055 C198.110607,163.154141 199.997739,173.887423 198.423044,187.420897 C196.435362,204.505825 188.897623,226.658097 176.019986,253.263594 C175.947487,253.414105 175.795152,253.506827 175.631598,253.506827 L175.631598,253.506827 Z" id="Fill-61" fill="#000000"></path>
            <path d="M176.524026,247.459221 C176.508059,247.459221 176.492524,247.459221 176.476557,247.456202 C176.23964,247.430758 176.068318,247.217714 176.094211,246.981381 C181.611472,196.500284 175.42489,142.466439 159.54588,102.440459 C148.58774,74.8189052 134.328738,57.4372681 124.297119,47.7196116 C113.428309,37.1916112 105.042158,33.1420486 104.958871,33.1023724 C104.743531,33.000163 104.652044,32.7426988 104.75432,32.5274984 C104.856595,32.312298 105.114226,32.2208701 105.329133,32.3230795 C105.413716,32.363187 113.899121,36.4550135 124.863733,47.0671101 C134.966988,56.8460061 149.324382,74.335459 160.348116,102.122618 C167.52595,120.214977 172.951292,142.184393 176.03811,165.655037 C179.594014,192.693954 179.901704,220.087369 176.952547,247.074966 C176.928381,247.295341 176.741523,247.459221 176.524026,247.459221" id="Fill-62" fill="#000000"></path>
            <path d="M353,236.325727 L327.733231,236.325727 L327.733231,242.968045 L231.474394,228.66304 C228.288753,228.189944 225.034496,228.51943 222.00982,229.621739 L16.0569568,304.685277 L16.0569568,299.015889 L0.43169345,299.015889 L0.43169345,313.634854 L0.439461201,313.634854 C0.527064174,315.520337 1.77292518,317.35105 4.06354873,317.757731 L143.928816,342.590736 C149.198803,343.526577 154.630619,342.849494 159.503157,340.641426 L350.518635,254.183479 C352.477834,253.297664 353.224402,251.397087 352.939584,249.664271 L353,249.664271 L353,236.325727" id="Fill-63" fill="#FFFFFF" opacity="0.315727597"></path>
            <path d="M4.85370165,304.313959 L144.12603,329.148689 C149.374009,330.084531 154.782522,329.404428 159.634777,327.198948 L349.841114,240.739707 C353.660259,239.003441 352.870537,233.362948 348.719106,232.743223 L231.300483,215.219269 C228.128651,214.746173 224.888204,215.075658 221.876474,216.177967 L4.11533374,295.88233 C-0.0896089715,297.42194 0.445071244,303.527766 4.85370165,304.313959" id="Fill-64" fill="#FFFFFF"></path>
            <path d="M228.479063,215.441801 C226.283378,215.441801 224.092009,215.826487 222.024924,216.582923 L4.2637841,296.287717 C2.16519662,297.055797 1.56276435,298.952494 1.68402758,300.343318 C1.80615389,301.734142 2.72879013,303.497146 4.92922146,303.889596 L144.201982,328.723895 C149.386524,329.648092 154.66169,328.98524 159.456119,326.806498 L349.664182,240.347258 C351.226363,239.637398 352.080816,238.080969 351.843468,236.382654 C351.60612,234.683908 350.354649,233.422894 348.654375,233.169742 L231.237046,215.646219 C230.32304,215.509509 229.400404,215.441801 228.479063,215.441801 Z M148.770714,329.99224 C147.199039,329.99224 145.620891,329.852942 144.050079,329.573484 L4.77775031,304.738754 C2.57127739,304.34501 1.01988484,302.649283 0.824396433,300.418358 C0.628908025,298.187001 1.86268586,296.248041 3.96688338,295.477805 L221.728024,215.773011 C224.798443,214.649139 228.130808,214.311028 231.364351,214.792749 L348.783837,232.316703 C350.868184,232.628075 352.404472,234.176311 352.697921,236.262763 C352.991369,238.348783 351.938407,240.260574 350.022362,241.132157 L159.813436,327.591397 C156.311474,329.182759 152.560514,329.99224 148.770714,329.99224 L148.770714,329.99224 Z" id="Fill-65" fill="#000000"></path>
            <path d="M9.56656899,299.654159 L145.07758,323.818274 C146.285465,324.033475 147.519675,324.142153 148.745685,324.142153 C151.748784,324.142153 154.657806,323.512509 157.391192,322.269608 L343.890154,237.49747 L230.500404,220.575128 C228.230926,220.236155 225.895422,220.472918 223.739871,221.262562 L9.56656899,299.654159 Z M148.745685,325.00468 C147.469184,325.00468 146.183621,324.891258 144.926109,324.667001 L7.8421282,300.222564 C7.65009213,300.188494 7.5050941,300.029789 7.48621181,299.83529 C7.4710023,299.641221 7.58665549,299.459659 7.76962919,299.392813 L223.442971,220.452649 C225.734026,219.613842 228.215822,219.362415 230.62814,219.721658 L345.460966,236.859631 C345.646529,236.888094 345.797568,237.03688 345.823461,237.226205 C345.849353,237.415098 345.750099,237.599679 345.573167,237.6786 L157.748508,323.054507 C154.902059,324.348728 151.873068,325.00468 148.745685,325.00468 L148.745685,325.00468 Z" id="Fill-66" fill="#000000"></path>
            <path d="M94.0663255,62.6866053 C96.1523982,62.5723205 98.605713,63.1277877 103.511911,64.2382907 C107.933056,65.2388217 109.156477,65.9120237 109.701083,67.068672 C110.592648,68.9623492 109.26091,71.2963463 108.862166,71.9958555 C106.60175,75.9565778 102.464128,76.4758189 99.7354893,78.2858311 C90.9104607,84.140662 95.4101464,94.0830067 88.0916301,100.30053 C81.1205048,106.223501 74.6089715,99.2650668 62.0765679,104.913323 C52.2102291,109.360079 53.1289814,115.077768 45.0828857,117.598071 C35.2558172,120.675997 19.8579764,116.538888 13.6131359,104.179312 C7.67512155,92.4273868 11.779515,76.7375957 19.8023075,72.7298656 C27.0897529,69.0891406 32.7205095,77.1326329 42.4604065,73.3586476 C52.0626418,69.6381389 52.803599,59.336983 60.2960266,59.4659308 C62.0877879,59.4965505 61.7127782,60.0800497 73.5106978,64.3430877 C78.9748793,66.3174112 79.6308227,66.4002138 80.2241926,66.43989 C86.1022227,66.8297521 87.3278012,63.056198 94.0663255,62.6866053" id="Fill-67" fill="#000000"></path>
            <path d="M115.147571,123.023795 C119.345609,148.714582 119.83282,149.0928 120.399865,151.783883 C120.399865,151.783883 122.065185,159.349536 122.526935,166.637886 C122.927837,172.961932 121.737645,210.941999 102.093865,219.305057 C95.0006133,222.324763 92.9443169,216.773542 77.839493,217.376448 C62.3605223,217.994017 59.2223508,223.498231 52.4687226,221.569621 C37.8519723,217.395855 33.0782576,186.054655 33.8830829,166.687913 C34.5385948,150.914457 42.3935176,136.020346 58.1037946,106.232126 C60.496262,101.695236 64.3261949,94.7661278 70.4968103,93.8841943 C73.3255664,93.4796693 74.4557742,93.9135202 85.8122266,97.0289665 C98.1651089,100.417834 101.30026,96.8129036 106.602613,100.152176 C112.080604,103.601851 113.046826,110.166541 115.147571,123.023795" id="Fill-68" fill="#FFFFFF"></path>
            <path d="M72.0715061,94.188235 C71.5704861,94.188235 71.0966533,94.2339489 70.5580892,94.311145 C64.4155241,95.1891971 60.5579725,102.503854 58.4852775,106.433095 C42.8259224,136.125143 34.9658212,151.028741 34.3141931,166.705595 C33.4748444,186.908556 38.5886141,217.157797 52.5873965,221.155177 C55.7536183,222.059536 58.0351795,221.281968 61.488808,220.105913 C65.0110517,218.90657 69.8352568,217.264319 77.8222313,216.945616 C85.3910419,216.642006 89.8005354,217.896983 93.0198367,218.812555 C96.3159526,219.750121 98.4935122,220.368984 101.924701,218.908295 C112.126347,214.565042 117.062753,201.936358 119.407319,192.106573 C121.974993,181.342672 122.327994,170.317856 122.096688,166.665056 C121.641843,159.495303 119.995079,151.952076 119.978681,151.876605 C119.883742,151.427229 119.791823,151.045561 119.685232,150.600066 C119.137174,148.320408 118.22058,144.505452 114.721639,123.093228 L114.590882,122.292803 C112.580329,109.974198 111.571385,103.790744 106.372601,100.517024 C103.866638,98.9390318 101.923406,98.978708 98.9815859,99.0377911 C95.8792323,99.1007555 92.0182284,99.1788142 85.697868,97.4451356 L82.760795,96.6369481 C76.0170922,94.779497 73.8706036,94.188235 72.0715061,94.188235 Z M55.2819432,222.410153 C54.3541284,222.410153 53.3943796,222.282499 52.3500486,221.984065 C43.9285115,219.579341 39.3412229,208.668379 36.9763741,199.938746 C34.312467,190.105943 32.9945385,177.66874 33.4519727,166.6698 C34.1113685,150.798447 42.0021092,135.837491 57.7218802,106.031157 C59.8662111,101.965638 63.8571091,94.3978289 70.4355313,93.4572436 C73.0882184,93.0781632 74.2154054,93.3882415 82.9899436,95.8054724 L85.9265852,96.6132286 C92.1261138,98.3141312 95.9180711,98.2377976 98.9638927,98.1756957 C101.950593,98.1153188 104.108302,98.0717612 106.832625,99.7873267 C112.360674,103.268484 113.390765,109.580023 115.443177,122.154368 L115.573503,122.954361 C119.067265,144.335103 119.979112,148.130652 120.52415,150.398666 C120.63333,150.852355 120.726543,151.240923 120.822345,151.695043 C120.838312,151.767495 122.498885,159.372824 122.958045,166.610717 C123.191941,170.304918 122.837213,181.447469 120.246668,192.306679 C116.818501,206.679392 110.599553,216.152522 102.263029,219.70182 C98.5513388,221.2824 96.1321158,220.594535 92.7837834,219.642305 C89.4440819,218.692663 85.2874719,217.511433 77.8567546,217.80728 C69.9949272,218.120808 65.432668,219.674219 61.7671524,220.922295 C59.3496556,221.745577 57.3977923,222.410153 55.2819432,222.410153 L55.2819432,222.410153 Z" id="Fill-69" fill="#000000"></path>
            <polyline id="Fill-70" fill="#EBF4DF" points="92.6012413 271.779885 92.6012413 284.203719 86.6196412 283.840164 85.4423953 271.779885 92.6012413 271.779885"></polyline>
            <path d="M87.0132073,283.431758 L92.1696995,283.745717 L92.1696995,272.211148 L85.9179543,272.211148 L87.0132073,283.431758 Z M92.6012413,284.634982 C92.5926104,284.634982 92.583548,284.634551 92.5749172,284.63412 L86.5933172,284.270565 C86.3814302,284.257196 86.2105396,284.093316 86.1902572,283.881565 L85.0130113,271.821718 C85.0009281,271.700533 85.04063,271.58021 85.1226229,271.490076 C85.2046158,271.399942 85.320269,271.348622 85.4423953,271.348622 L92.6012413,271.348622 C92.8394523,271.348622 93.032783,271.541828 93.032783,271.779885 L93.032783,284.203719 C93.032783,284.323179 92.9835872,284.43617 92.8972789,284.51811 C92.8165806,284.593581 92.7108529,284.634982 92.6012413,284.634982 L92.6012413,284.634982 Z" id="Fill-71" fill="#000000"></path>
            <path d="M85.7220344,299.695129 C88.157656,299.956043 92.1429439,300.124667 96.7889223,299.325536 C98.3114016,299.063328 99.2763289,297.547438 98.8581649,296.060873 C97.6925707,291.920314 95.3920217,284.203719 93.5596955,280.507792 L92.4558117,282.523086 L91.5724457,280.395233 C91.4214061,280.143375 91.1590288,279.978632 90.8660119,279.951031 L88.5732307,279.737125 C88.0937878,279.692273 87.5198373,280.163213 87.4365497,280.637171 L85.9252905,282.523086 L85.0540078,280.282673 L83.4219169,296.857848 C83.2825289,298.273685 84.3061459,299.543756 85.7220344,299.695129" id="Fill-72" fill="#EBF4DF"></path>
            <path d="M85.3064597,282.122442 L83.8517325,296.900543 C83.7352162,298.079185 84.5952789,299.140956 85.7682094,299.266453 C88.2487113,299.532111 92.1610687,299.684347 96.7155602,298.900311 C97.3236025,298.795945 97.860872,298.437565 98.1892752,297.917462 C98.5206993,297.392614 98.61046,296.775045 98.4425902,296.178177 C97.5518881,293.012272 95.3713077,285.544085 93.5307822,281.458297 L92.8342738,282.729661 C92.7544386,282.875428 92.5977889,282.961249 92.4325084,282.953487 C92.2667964,282.94443 92.1209353,282.841358 92.0570671,282.68826 L91.1879421,280.594476 C91.1059491,280.473291 90.9726027,280.393939 90.8263101,280.38057 L88.5330973,280.166663 C88.2823715,280.142944 87.9077933,280.449141 87.8616183,280.71178 C87.8486721,280.78337 87.8184642,280.850215 87.7731523,280.90628 L86.2623246,282.792625 C86.1656593,282.912948 86.012462,282.972462 85.8596962,282.948743 C85.707362,282.925455 85.5791941,282.822814 85.5230936,282.679203 L85.3064597,282.122442 Z M89.8803706,300.343318 C88.2344704,300.343318 86.809088,300.245852 85.6758594,300.123805 C84.0338431,299.947849 82.8302732,298.464303 82.9925329,296.815584 L84.6246237,280.240409 C84.6444747,280.041597 84.797672,279.882461 84.9953181,279.85486 C85.1929642,279.82769 85.3837057,279.940681 85.4562047,280.126124 L86.0560477,281.669184 L87.0386682,280.443534 C87.2237996,279.785858 87.9543998,279.245485 88.6129325,279.308018 L90.9065768,279.521924 C91.3338032,279.561601 91.7213276,279.804833 91.9427086,280.173132 C91.9534971,280.191245 91.962991,280.210652 91.9711903,280.230059 L92.5093229,281.526436 L93.1812334,280.300786 C93.2580478,280.159332 93.4073612,280.070491 93.5683263,280.076098 C93.7292914,280.079548 93.8751525,280.172269 93.9463569,280.316311 C95.8848424,284.226145 98.3174431,292.547802 99.2733081,295.944432 C99.505046,296.767282 99.376015,297.654822 98.9194439,298.378051 C98.460715,299.103867 97.7106955,299.604564 96.8622844,299.750331 C94.2894325,300.193669 91.9163845,300.343318 89.8803706,300.343318 L89.8803706,300.343318 Z" id="Fill-73" fill="#000000"></path>
            <path d="M91.5042622,297.528462 C88.0243096,297.528462 85.3496139,296.873804 85.1826072,296.832403 C84.9513008,296.774614 84.8110498,296.540438 84.8688764,296.309281 C84.926703,296.078123 85.1610301,295.939257 85.3923365,295.995321 C85.4523208,296.010415 91.4542033,297.475417 97.0836653,295.996615 C97.3141086,295.935375 97.5501619,296.073811 97.6105778,296.304105 C97.6714252,296.5344 97.5337633,296.770301 97.3028885,296.831109 C95.3117549,297.354232 93.3007704,297.528462 91.5042622,297.528462" id="Fill-74" fill="#000000"></path>
            <path d="M93.5596955,291.074606 L88.1006925,291.074606 C87.8624814,291.074606 87.6691507,290.881832 87.6691507,290.643343 C87.6691507,290.405286 87.8624814,290.21208 88.1006925,290.21208 L93.5596955,290.21208 C93.7979065,290.21208 93.9912372,290.405286 93.9912372,290.643343 C93.9912372,290.881832 93.7979065,291.074606 93.5596955,291.074606" id="Fill-75" fill="#000000"></path>
            <polyline id="Fill-76" fill="#EBF4DF" points="48.6012455 265.20657 46.8327874 280.185639 41.2261972 279.990708 41.2261972 265.20657 48.6012455 265.20657"></polyline>
            <path d="M41.6577389,279.574539 L46.450873,279.741006 L48.115761,265.637833 L41.6577389,265.637833 L41.6577389,279.574539 Z M46.8327874,280.616902 C46.8280405,280.616902 46.822862,280.616902 46.8176835,280.616471 L41.2110932,280.421971 C40.9789238,280.413346 40.7946554,280.223159 40.7946554,279.991139 L40.7946554,265.20657 C40.7946554,264.968512 40.9879861,264.775306 41.2261972,264.775306 L48.6012455,264.775306 C48.7242349,264.775306 48.8416142,264.828352 48.9236072,264.920211 C49.0056001,265.011639 49.0440073,265.13498 49.0297664,265.257027 L47.2613084,280.236096 C47.2354159,280.453884 47.050716,280.616902 46.8327874,280.616902 L46.8327874,280.616902 Z" id="Fill-77" fill="#000000"></path>
            <path d="M48.1662514,276.610897 C48.1662514,276.610897 48.8877892,283.263565 48.6646821,285.939554 C48.5054432,287.854363 45.8760594,293.637604 44.3937135,296.772026 C43.7835135,298.061935 42.6213716,298.888667 41.3314934,298.9443 C39.7585237,299.012439 37.5706071,299.09136 35.806896,299.093518 C33.3794737,299.096104 31.7098387,296.338607 32.5768061,293.767846 C33.3764529,291.395898 34.6464803,288.421906 36.6436554,285.25557 C38.1480099,282.871547 40.3449889,276.392678 40.3449889,276.392678 L44.9137213,276.392678 L45.8100335,280.183914 L48.1662514,276.610897" id="Fill-78" fill="#EBF4DF"></path>
            <path d="M40.6531097,276.824372 C40.2004225,278.132825 38.3568761,283.349818 37.0091713,285.485865 C35.32098,288.16056 33.9672336,290.993529 32.9854761,293.905419 C32.5811215,295.105193 32.7658214,296.413215 33.4795914,297.405552 C34.0548365,298.204683 34.9010899,298.666566 35.8064645,298.661858 C37.5762171,298.660097 39.7779431,298.580313 41.3125055,298.513899 C42.433651,298.465166 43.4646042,297.727274 44.0035998,296.587877 C46.5807671,291.138002 48.1235288,287.244126 48.2348666,285.903759 C48.394537,283.98205 48.0518929,279.897986 47.8576991,277.861992 L46.1703709,280.42154 C46.0754317,280.56515 45.9045412,280.639759 45.7349453,280.608708 C45.5653494,280.578951 45.4298453,280.450866 45.3901434,280.283535 L44.5719403,276.824372 L40.6531097,276.824372 Z M35.8030121,299.524349 C34.6201562,299.524349 33.5179986,298.936106 32.7787676,297.908836 C31.9031694,296.691811 31.6748838,295.092256 32.1677045,293.630273 C33.1714706,290.653262 34.5545619,287.759054 36.2790027,285.026138 C37.7389084,282.711979 39.9143103,276.3185 39.9363189,276.254673 C39.9954401,276.079149 40.1598575,275.961846 40.3449889,275.961846 L44.9137213,275.961846 C45.1135252,275.961846 45.2874365,276.098987 45.3336114,276.293918 L46.0003434,279.112655 L47.8059141,276.373702 C47.9060318,276.221897 48.0907316,276.149445 48.2676637,276.191278 C48.4445958,276.234404 48.5757845,276.383621 48.5952039,276.56432 C48.6249803,276.83731 49.3184679,283.288578 49.0949292,285.975349 C48.9391427,287.847463 46.6644862,292.979928 44.7838273,296.956607 C44.1076014,298.385814 42.7918306,299.31303 41.3500496,299.375132 C39.8068564,299.442409 37.5921842,299.522624 35.8073275,299.524349 C35.8060329,299.524349 35.8043068,299.524349 35.8030121,299.524349 L35.8030121,299.524349 Z" id="Fill-79" fill="#000000"></path>
            <path d="M39.2915956,296.672836 C39.2898694,296.672836 39.2881432,296.672836 39.286417,296.672836 L34.0837498,296.668092 C33.8455388,296.668092 33.6522081,296.474454 33.6526389,296.236397 C33.6526389,295.99834 33.8459703,295.805565 34.0841814,295.805565 C34.0841814,295.805565 34.0841814,295.805565 34.0846129,295.805565 L39.2872801,295.810309 C39.2885748,295.810309 39.2903009,295.810309 39.2915956,295.810309 C40.9405165,295.810309 42.4409872,294.849886 43.2086999,293.302513 C45.6607201,288.359372 45.7988134,288.246381 45.9101512,288.155816 C46.0948511,288.005305 46.3667224,288.032475 46.5173304,288.217487 C46.6558553,288.386973 46.6437722,288.629775 46.4979111,288.784598 C46.419802,288.896727 46.0184682,289.580279 43.9820227,293.685906 C43.0675858,295.528694 41.270646,296.672836 39.2915956,296.672836" id="Fill-80" fill="#000000"></path>
            <path d="M41.4894376,291.26005 L36.4874373,291.26005 C36.2487947,291.26005 36.0558956,291.066844 36.0558956,290.828786 C36.0558956,290.590729 36.2487947,290.397523 36.4874373,290.397523 L41.4894376,290.397523 C41.7276487,290.397523 41.9209794,290.590729 41.9209794,290.828786 C41.9209794,291.066844 41.7276487,291.26005 41.4894376,291.26005" id="Fill-81" fill="#000000"></path>
            <path d="M102.210813,147.573028 C102.210813,147.573028 101.614854,193.287372 99.6927667,223.048423 C97.7706798,252.809474 93.9787225,275.564652 93.9787225,275.564652 C93.9787225,275.564652 87.4546745,277.908137 83.1716227,276.680762 C83.1716227,276.680762 79.6256442,250.574236 78.8199558,241.749726 C78.0146989,232.925216 80.1534198,228.54703 80.3338042,221.325095 C80.5137571,214.103159 77.2193675,182.216411 77.2193675,182.216411 C77.2193675,182.216411 52.6253722,254.302939 49.8121516,270.22475 C49.8121516,270.22475 43.855581,271.233906 39.6579745,268.940879 C39.6579745,268.940879 39.5272173,240.591784 40.1227449,236.212305 C41.2261972,228.097223 47.5681346,220.107207 48.7074048,211.48841 C49.846675,202.86875 50.5073654,181.23615 53.6451053,168.26073 C56.7828453,155.285742 62.9370621,140.70861 62.9370621,140.70861 L102.210813,147.573028" id="Fill-82" fill="#000000"></path>
            <path d="M60.3119937,164.526852 C60.1419662,164.526852 59.9805696,164.425505 59.912386,164.258606 C59.8217623,164.038231 59.92749,163.786373 60.1480078,163.696239 C68.1172891,160.433301 70.4912002,152.623984 70.5140719,152.545494 C70.5813925,152.316925 70.8208981,152.186252 71.0496152,152.253098 C71.2779008,152.319944 71.4095211,152.558864 71.3426321,152.787433 C71.2442406,153.12425 68.83969,161.069414 60.4751165,164.494076 C60.4216053,164.516071 60.3663679,164.526852 60.3119937,164.526852" id="Fill-83" fill="#FFFFFF"></path>
            <path d="M52.8834342,185.828673 C52.8648779,185.828673 52.8463216,185.827379 52.8273338,185.824792 C52.5912804,185.794172 52.4242738,185.577678 52.4553448,185.341777 C55.2875532,163.588423 63.7876309,149.047949 63.8730761,148.903476 C63.9947709,148.699057 64.259306,148.631349 64.4642883,148.752534 C64.6692706,148.873719 64.7374542,149.138083 64.6157594,149.342933 C64.5311773,149.486112 56.1191341,163.885995 53.311092,185.452611 C53.2830418,185.669968 53.0970473,185.828673 52.8834342,185.828673" id="Fill-84" fill="#FFFFFF"></path>
            <path d="M178.512571,99.8002646 L167.793505,104.254352 L163.87899,112.668731 C161.534424,114.230767 159.196331,115.499543 156.879383,116.521206 C157.302294,117.422978 157.72089,118.326475 158.117045,119.237303 C158.761337,120.718692 159.380599,122.210432 159.995978,123.703897 C164.681226,119.046684 166.483776,114.683162 166.483776,114.683162 C173.09629,114.298475 173.260708,109.200943 172.934031,107.881277 C172.606922,106.561611 173.208491,105.060815 176.248271,103.064928 C179.573732,100.881011 178.512571,99.8002646 178.512571,99.8002646" id="Fill-85" fill="#EBF4DF"></path>
            <path d="M157.456355,116.735544 C157.805903,117.484217 158.167967,118.272998 158.5132,119.06566 C159.083267,120.376269 159.644703,121.723105 160.146586,122.937542 C164.3826,118.568845 166.06777,114.560252 166.085032,114.518419 C166.148037,114.365752 166.293466,114.262249 166.458747,114.252761 C168.842152,114.113894 170.572634,113.336327 171.600567,111.941621 C172.757962,110.372254 172.645761,108.512646 172.515004,107.98478 C172.081736,106.23342 173.192524,104.555374 176.011355,102.704392 C177.805705,101.526612 178.172516,100.759394 178.232069,100.407052 C178.233363,100.398858 178.234658,100.390233 178.235521,100.38247 L168.113709,104.58815 L164.27083,112.850293 C164.23717,112.922314 164.184522,112.983553 164.118496,113.027542 C161.967692,114.460199 159.728422,115.70655 157.456355,116.735544 Z M159.995978,124.13516 C159.967928,124.13516 159.939446,124.132141 159.910964,124.126535 C159.76985,124.098072 159.652039,124.001037 159.597233,123.868208 C159.037524,122.510591 158.384601,120.934324 157.721321,119.409377 C157.319124,118.484748 156.891035,117.562707 156.488838,116.704062 C156.439642,116.598834 156.434464,116.47808 156.47546,116.369402 C156.516025,116.261155 156.598881,116.173177 156.70504,116.1266 C159.034934,115.099331 161.333326,113.837886 163.538935,112.376766 L167.401666,104.07279 C167.447409,103.974894 167.527676,103.897697 167.627793,103.856296 L178.346427,99.4022086 C178.50955,99.334069 178.696839,99.3724514 178.82026,99.497949 C178.855215,99.5337439 179.159883,99.8627978 179.096447,100.45406 C179.000213,101.351088 178.121594,102.350756 176.485188,103.425464 C173.239562,105.556768 173.142897,106.92991 173.352626,107.777774 C173.59429,108.753291 173.511865,110.803517 172.29578,112.453531 C171.147879,114.010391 169.290955,114.898362 166.773772,115.095881 C166.317201,116.097274 164.415397,119.91913 160.300646,124.009663 C160.218653,124.09074 160.109042,124.13516 159.995978,124.13516 L159.995978,124.13516 Z" id="Fill-86" fill="#000000"></path>
            <path d="M106.685469,97.054411 C106.685469,97.054411 92.0074398,94.9554524 77.5602855,94.5358332 C77.5602855,94.5358332 59.4389847,141.774262 59.4407109,144.961729 C59.4420055,148.149196 67.1782543,152.227222 77.5602855,149.626704 C87.9418851,147.025324 101.13239,146.766997 108.549298,148.498519 C119.663224,151.093 106.685469,97.054411 106.685469,97.054411" id="Fill-87" fill="#FFFFFF"></path>
            <path d="M77.8537339,94.9761531 C72.7438481,108.304346 59.8705265,142.430644 59.8722526,144.961729 C59.8722526,145.722046 60.429373,146.575085 61.4404753,147.363003 C64.2718207,149.569346 70.3216043,150.995965 77.4554208,149.207948 C87.3631876,146.726027 100.773347,146.240425 108.647689,148.078469 C109.501279,148.277713 110.189156,148.100895 110.750161,147.536371 C116.555692,141.699222 107.230075,101.258797 106.333331,97.440823 C104.213166,97.149289 90.9031245,95.3767967 77.8537339,94.9761531 Z M71.031922,150.897206 C66.3803336,150.897206 62.8477329,149.552958 60.909679,148.043105 C59.684532,147.087857 59.0091692,145.993742 59.0091692,144.96216 C59.007443,141.731998 76.4162683,96.3135006 77.1572255,94.3814409 C77.2228198,94.2102294 77.3893949,94.0912007 77.5728002,94.1050011 C91.8792719,94.5203077 106.599161,96.6063284 106.746316,96.6274603 C106.921522,96.6524736 107.0635,96.7818526 107.104928,96.9534954 C107.542942,98.7781705 117.762282,141.709572 111.362518,148.144452 C110.583586,148.927195 109.604417,149.187678 108.450906,148.91857 C100.692649,147.107264 87.4576953,147.591141 77.6651501,150.04503 C75.270525,150.644917 73.0459273,150.897206 71.031922,150.897206 L71.031922,150.897206 Z" id="Fill-88" fill="#000000"></path>
            <path d="M161.008375,112.867975 L167.776675,117.156888 C167.776675,117.156888 160.640701,133.642792 145.115556,138.678222 C129.589978,143.714515 114.914538,129.441856 114.914538,129.441856 L116.250592,160.046026 C116.250592,160.046026 108.749965,164.488039 108.749965,164.095158 C108.749965,163.702277 105.470679,95.8257418 105.470679,95.8257418 C105.470679,95.8257418 111.525641,95.9232073 114.225798,99.7640385 C116.925523,103.604438 127.144,119.474498 138.891429,119.66641 C150.638858,119.857891 161.008375,112.867975 161.008375,112.867975" id="Fill-89" fill="#FFFFFF"></path>
            <path d="M115.602416,145.6414 C115.372836,145.6414 115.182094,145.460701 115.171737,145.228681 L114.483428,129.460831 C114.47566,129.284444 114.576641,129.120996 114.738038,129.048543 C114.899434,128.976522 115.088881,129.00973 115.215323,129.133071 C115.360321,129.273663 129.888605,143.163792 144.982209,138.268091 C158.923597,133.746295 166.110493,119.66986 167.22646,117.319043 L161.010964,113.380316 C159.379736,114.414485 149.652354,120.261984 138.884093,120.097673 C127.619559,119.913524 117.69712,105.545555 114.43639,100.824084 C114.222345,100.514005 114.033762,100.241447 113.872365,100.011584 C111.750043,96.9918778 107.355653,96.3980282 105.924661,96.2837435 L107.429015,127.463651 C107.440667,127.701708 107.25683,127.903971 107.019051,127.915183 C106.77825,127.917771 106.578447,127.743109 106.567227,127.505483 L105.039087,95.8468737 C105.033959,95.7274138 105.077544,95.6114039 105.160401,95.5255825 C105.243257,95.4401924 105.357184,95.3923222 105.477584,95.3944087 C105.733919,95.3987911 111.784998,95.541108 114.578799,99.5160621 C114.74149,99.7472192 114.931369,100.021934 115.146708,100.334169 C118.344864,104.965074 128.077856,119.058328 138.898334,119.235146 C150.37907,119.426627 160.664867,112.579891 160.767143,112.510457 C160.909552,112.414717 161.095115,112.412129 161.239681,112.503988 L168.00755,116.792471 C168.187072,116.906324 168.256981,117.133169 168.172831,117.3281 C168.100332,117.494568 160.779658,134.050767 145.24847,139.088785 C131.685977,143.488965 118.652121,133.279237 115.390529,130.451443 L116.033958,145.191592 C116.044315,145.429218 115.859615,145.630618 115.621835,145.6414 C115.615362,145.6414 115.608889,145.6414 115.602416,145.6414" id="Fill-90" fill="#000000"></path>
            <path d="M123.691666,109.764173 L97.0124609,107.015731 C96.1174434,107.015731 95.2698954,107.76613 95.1197188,108.692052 L88.6776638,148.431242 C88.5279188,149.357596 89.1316457,150.107994 90.0270948,150.107994 L118.317677,148.721483 C119.212694,148.721483 120.152161,149.357596 120.302337,148.431242 L126.744392,108.692052 C126.894569,107.76613 124.587115,109.764173 123.691666,109.764173" id="Fill-91" fill="#000000"></path>
            <path d="M96.9921785,107.446995 C96.3194049,107.458639 95.6600091,108.055938 95.5456505,108.761054 L89.1035955,148.500244 C89.0492212,148.83663 89.1230148,149.143689 89.3120301,149.365359 C89.4829206,149.566327 89.7370987,149.676731 90.0270948,149.676731 L118.296531,148.290651 C118.297826,148.290651 118.29912,148.290651 118.300415,148.290651 C118.644354,148.290651 118.956358,148.358359 119.23125,148.417873 C119.428033,148.461 119.756437,148.532158 119.839724,148.493344 C119.83843,148.492482 119.86087,148.458412 119.876405,148.36224 L126.253729,109.019812 C126.041411,109.128922 125.782054,109.279433 125.581819,109.395442 C124.872364,109.806868 124.20218,110.195436 123.691666,110.195436 C123.676993,110.195436 123.661889,110.194573 123.647217,110.192848 L96.9921785,107.446995 Z M90.0460826,150.538826 C89.4786052,150.538826 88.9922577,150.320607 88.654792,149.924276 C88.3043802,149.513282 88.157656,148.943583 88.2517321,148.36224 L94.6937872,108.623481 C94.8789186,107.479771 95.8977886,106.584468 97.0124609,106.584468 C97.0275649,106.584468 97.0422373,106.584468 97.0569097,106.586624 L123.708928,109.332478 C123.998492,109.31609 124.688527,108.915878 125.148551,108.649357 C126.01595,108.146504 126.538978,107.842463 126.938586,108.117609 C127.051218,108.195237 127.231603,108.382405 127.170324,108.761054 L120.728269,148.500244 C120.676052,148.822398 120.540117,149.060024 120.324346,149.207085 C119.955377,149.458512 119.494059,149.358027 119.047845,149.260993 C118.80273,149.207948 118.549415,149.152746 118.317677,149.152746 L90.0482403,150.538826 C90.0478088,150.538826 90.0469457,150.538826 90.0460826,150.538826 L90.0460826,150.538826 Z" id="Fill-92" fill="#000000"></path>
            <path d="M126.278327,107.015731 L97.8962584,107.015731 C97.0008093,107.015731 96.1532613,107.76613 96.0030848,108.692052 L89.5614612,148.431242 C89.4112847,149.357596 90.0154432,150.107994 90.9108923,150.107994 L119.292961,150.107994 C120.18841,150.107994 121.035958,149.357596 121.185703,148.431242 L127.627758,108.692052 C127.777935,107.76613 127.173776,107.015731 126.278327,107.015731" id="Fill-93" fill="#FFFFFF"></path>
            <path d="M97.8962584,107.446995 C97.2165802,107.446995 96.5446697,108.048607 96.4290165,108.761054 L89.9873929,148.500244 C89.9325871,148.83663 90.0068123,149.143689 90.1953961,149.365359 C90.3667181,149.566327 90.6204647,149.676731 90.9108923,149.676731 L119.292961,149.676731 C119.972639,149.676731 120.64455,149.074687 120.759771,148.36224 L127.201826,108.623481 C127.256201,108.287096 127.182407,107.980036 126.993392,107.758367 C126.822501,107.557398 126.568323,107.446995 126.278327,107.446995 L97.8962584,107.446995 Z M119.292961,150.539257 L90.9108923,150.539257 C90.3632658,150.539257 89.8760552,150.321038 89.538158,149.924707 C89.1877461,149.513282 89.0410219,148.943583 89.135098,148.36224 L95.5771531,108.623481 C95.762716,107.479771 96.7811545,106.584468 97.8962584,106.584468 L126.278327,106.584468 C126.825954,106.584468 127.312733,106.802687 127.651061,107.19945 C128.001042,107.610443 128.148197,108.180142 128.05369,108.761054 L121.612066,148.500244 C121.426503,149.643524 120.408065,150.539257 119.292961,150.539257 L119.292961,150.539257 Z" id="Fill-94" fill="#000000"></path>
            <path d="M91.5828028,125.006312 L91.8887658,128.74709 L103.255575,126.682633 C103.255575,126.682633 103.51709,127.057832 103.675034,127.664188 C103.886058,128.476688 103.910656,129.704064 102.868914,131.000441 C102.373072,131.617148 100.409126,131.635261 100.562323,132.86048 C100.696101,133.930013 96.2525159,134.763645 92.4087736,135.476955 C88.106734,136.275654 88.4744076,130.147834 89.5385895,127.011255 C90.3680128,124.565992 91.5828028,125.006312 91.5828028,125.006312" id="Fill-95" fill="#EBF4DF"></path>
            <path d="M91.1840582,125.428519 C90.8440033,125.530297 90.349888,125.961992 89.9472596,127.149691 C89.2296056,129.2659 88.8118732,132.930345 90.1310963,134.452704 C90.6377263,135.037497 91.3571064,135.233722 92.330233,135.053023 C94.7865686,134.597177 99.8981805,133.648398 100.135097,132.896275 C99.9948459,131.80216 101.055144,131.393322 101.756831,131.122489 C102.069699,131.002166 102.423994,130.865025 102.532311,130.73047 C103.464873,129.56951 103.44157,128.481432 103.25687,127.772866 C103.190844,127.517127 103.102809,127.307965 103.031174,127.161335 L91.9655803,129.171453 C91.8456117,129.193017 91.7221907,129.163259 91.6259569,129.089082 C91.5292916,129.014905 91.4684442,128.903208 91.4585187,128.782023 L91.1840582,125.428519 Z M91.6898251,135.978083 C90.5729951,135.978514 89.8816652,135.48213 89.4790368,135.017659 C87.8495352,133.137782 88.4001824,129.023961 89.1299195,126.87282 C89.5122655,125.744635 90.0352941,125.014938 90.6843328,124.703134 C91.2392955,124.437045 91.6811943,124.583243 91.7295269,124.600925 C91.8883343,124.658714 91.998809,124.803187 92.0126183,124.97138 L92.2797427,128.237768 L103.178329,126.25827 C103.344473,126.228081 103.513206,126.297515 103.609439,126.43595 C103.621954,126.453632 103.91756,126.882308 104.092335,127.555941 C104.32623,128.455556 104.36248,129.830424 103.205516,131.270412 C102.951338,131.586528 102.522386,131.751702 102.067541,131.927226 C101.231645,132.249811 100.943375,132.430942 100.990413,132.807003 C101.157419,134.142195 98.3933945,134.805046 92.4877458,135.901318 C92.200339,135.954363 91.9349408,135.978083 91.6898251,135.978083 L91.6898251,135.978083 Z" id="Fill-96" fill="#000000"></path>
            <path d="M90.1621673,135.331619 L87.8827639,131.868143 C87.8827639,131.868143 76.5772334,134.159014 71.3594622,131.868143 C62.2448691,127.866019 63.9684468,113.8836 65.5194079,106.923872 C67.0699373,99.9641447 70.4968103,93.8841943 70.4968103,93.8841943 C70.4968103,93.8841943 62.1231744,98.6117029 56.4445166,109.007305 C50.7654273,119.402477 48.9179971,142.666114 67.909286,146.869638 C80.3338042,149.619804 90.1621673,135.331619 90.1621673,135.331619" id="Fill-97" fill="#FFFFFF"></path>
            <path d="M71.0793916,147.648068 C70.0143466,147.648068 68.9255668,147.536371 67.8156414,147.290982 C61.4452223,145.880751 56.9166233,142.309459 54.3549915,136.676729 C50.3662512,127.905696 52.2594248,115.767789 56.065623,108.80073 C61.7378076,98.4172031 70.199478,93.5564342 70.2844917,93.508564 C70.4920633,93.3912603 70.7548722,93.4645751 70.8722516,93.6720128 C70.9896309,93.8790192 70.9162688,94.1420898 70.7091288,94.2593934 C70.6262728,94.3064011 62.3717424,99.0567667 56.8229787,109.213881 C53.1168983,115.998084 51.2677419,127.803486 55.140829,136.320074 C57.5837868,141.692322 61.9112874,145.100164 68.002499,146.448725 C69.0485562,146.680313 70.0786463,146.785973 71.0854332,146.785973 C80.78606,146.787267 88.4226226,136.972145 89.6382757,135.320406 L87.6816654,132.346845 C85.8411399,132.696169 76.0624041,134.404403 71.1855509,132.262749 C68.0262338,130.875806 65.8560104,128.216205 64.7357281,124.358986 C64.6692706,124.129985 64.8013224,123.890634 65.0300395,123.824651 C65.2587566,123.758667 65.4982623,123.889772 65.5647197,124.118341 C66.6103454,127.718959 68.6183091,130.193548 71.532942,131.473106 C76.5647187,133.682899 87.6855493,131.468362 87.7973186,131.445505 C87.9703669,131.40971 88.1468674,131.483887 88.2435328,131.631379 L90.5225047,135.094424 C90.61917,135.241054 90.6170123,135.431241 90.5177577,135.575714 C90.4267024,135.708112 82.0737805,147.647206 71.0793916,147.648068" id="Fill-98" fill="#000000"></path>
            <path d="M93.2455331,77.0804501 C93.5268983,77.2477802 93.8863726,77.1296141 94.0110881,76.8242797 C94.6010057,75.3773912 95.5456505,72.5754734 97.4776629,72.1299783 C99.954281,71.5589857 103.963735,70.8210942 104.308106,72.7777359 C104.610185,74.4933014 104.254163,77.4530616 106.061028,79.5977341 C106.234076,79.8034467 106.084763,80.1325006 105.870718,80.2946556 L104.733606,81.2529228 C104.493669,81.4344846 104.288686,82.046016 104.259341,82.3470378 C104.168718,83.2781353 104.05177,85.2580653 103.72984,85.5133732 C103.101946,86.0114823 99.9698165,85.8178451 99.9698165,85.8178451 L97.457812,94.4495805 C97.3624413,94.7773407 97.5562035,95.1193325 97.8841752,95.202135 L100.873465,96.2181914 C100.873465,96.2181914 98.4736612,99.5798891 90.975192,99.0727234 C86.1820579,98.7484134 82.6749182,95.3733466 82.6749182,95.3733466 C82.6749182,95.3733466 91.9931989,94.050662 93.2511431,83.0430968 C93.2787618,82.8007268 93.1743287,82.5618069 92.9805664,82.4160399 C92.23702,81.8579852 90.2355294,80.2131469 90.5859413,78.5458829 C90.9574988,76.7759782 92.2810373,76.5068698 93.2455331,77.0804501" id="Fill-99" fill="#EBF4DF"></path>
            <path d="M83.6105007,95.6001911 C84.8075974,96.5416389 87.5850001,98.4111655 91.0045368,98.6423226 C96.4674237,99.0101902 99.1352147,97.2605549 100.093669,96.4083786 L97.7452188,95.6105414 C97.5061447,95.5514583 97.2787222,95.378953 97.1389026,95.1344267 C96.9977885,94.8877441 96.9641282,94.6022478 97.0431004,94.3292581 L99.5555364,85.6975226 C99.6120684,85.5038854 99.7933159,85.3719188 99.996572,85.3874443 C101.393904,85.4732657 103.07778,85.4150451 103.436391,85.1929445 C103.604693,84.8824349 103.730703,83.4329589 103.785077,82.8063333 C103.801044,82.62089 103.815716,82.450541 103.829957,82.3052053 C103.863186,81.9632135 104.085862,81.2020337 104.472955,80.9092059 L105.592805,79.9647392 C105.6502,79.9207503 105.683861,79.8689987 105.698102,79.8362227 C104.283939,78.1279887 104.140667,76.0066044 104.025446,74.2996641 C103.989196,73.7648976 103.955104,73.2603195 103.883468,72.8527757 C103.840746,72.610837 103.720777,72.4322939 103.505869,72.289977 C102.682056,71.7448602 100.686607,71.8324067 97.5747598,72.5504601 C96.031135,72.9058211 95.1542422,75.1156144 94.5742501,76.5780283 L94.4106958,76.9872972 C94.304105,77.2482115 94.0909233,77.4491802 93.8255252,77.5380205 C93.5596955,77.627292 93.2679732,77.5953785 93.0245837,77.4509053 C92.6374908,77.2210419 92.2141483,77.1766218 91.8637364,77.3305828 C91.4442779,77.514301 91.1486718,77.9654024 91.0079892,78.6347231 C90.7197193,80.007003 92.4726418,81.4952927 93.2394915,82.0714605 C93.5558116,82.3086554 93.7245444,82.6998112 93.6796641,83.0918296 C92.6301546,92.2760134 86.0185036,94.9321642 83.6105007,95.6001911 Z M92.4881773,99.5566008 C91.998809,99.5566008 91.4857059,99.5397816 90.9462787,99.5031242 C86.0525954,99.171914 82.523447,95.8261731 82.3758597,95.6838562 C82.2567542,95.5695714 82.2140316,95.3979286 82.264522,95.2409487 C82.3150124,95.0844002 82.4505165,94.9701154 82.6136392,94.9463959 C82.9808813,94.8933505 91.6190523,93.5258145 92.8221906,82.9939328 C92.8325476,82.9046613 92.7937089,82.8153898 92.7212099,82.7610506 C91.6043798,81.9222434 89.7871576,80.2476479 90.163462,78.4574739 C90.4163454,77.2529554 91.0390602,76.7505336 91.5167769,76.5409397 C92.1261138,76.2735564 92.8364315,76.335227 93.4660509,76.7099949 C93.5005742,76.7302643 93.5316452,76.7272454 93.5510646,76.7203452 C93.570484,76.7138762 93.5963765,76.6983508 93.6114805,76.6616934 L93.772014,76.2601872 C94.4184635,74.6304431 95.3959056,72.167067 97.380566,71.7094966 C99.5490633,71.2096624 102.592727,70.6516077 103.982292,71.5710611 C104.396572,71.8449133 104.649024,72.2261501 104.733174,72.7031273 C104.813009,73.1559538 104.848396,73.6829576 104.886371,74.2414436 C104.994257,75.8362554 105.128466,77.8209292 106.391158,79.3200005 C106.526662,79.4804305 106.587509,79.6891619 106.562911,79.9078124 C106.532703,80.1799396 106.366991,80.4598295 106.131369,80.6379413 L105.01195,81.5824079 C104.896728,81.6794422 104.715049,82.1193308 104.688725,82.3888704 C104.674916,82.5316185 104.660244,82.6989487 104.644708,82.8809418 C104.483312,84.7418431 104.357733,85.5659873 103.997827,85.8510523 C103.378565,86.3426925 101.302417,86.3137979 100.288726,86.2667902 L97.8720921,94.5703343 C97.8539673,94.6324362 97.8742498,94.6816002 97.8880591,94.705751 C97.9010054,94.7286079 97.9320764,94.7695779 97.9903345,94.7842409 L101.012421,95.8097851 C101.141884,95.8537739 101.242433,95.9559833 101.284293,96.0857936 C101.326152,96.2156039 101.304144,96.3574895 101.22474,96.4687554 C101.128506,96.6037409 98.9401579,99.5561696 92.4881773,99.5566008 L92.4881773,99.5566008 Z" id="Fill-100" fill="#000000"></path>
            <path d="M294.039747,103.407351 L319.653044,94.5021947 C319.653044,94.5021947 329.653592,98.2524606 328.712831,111.229174 C335.224796,112.842099 340.968616,116.698456 341.956847,128.071732 C329.083957,132.446467 313.705967,138.731699 313.705967,138.731699 L305.11095,120.637615 L294.039747,103.407351" id="Fill-101" fill="#FFFFFF"></path>
            <path d="M294.698711,103.634627 L305.473877,120.404301 C305.484234,120.420258 305.492865,120.436215 305.500632,120.452603 L313.920875,138.178819 C316.346139,137.195108 329.938409,131.715476 341.495097,127.772866 C340.364458,116.038191 334.02511,112.988728 328.609261,111.647931 C328.406436,111.597473 328.268343,111.407717 328.285605,111.198123 C329.127111,99.5160621 320.822522,95.4768498 319.639666,94.9632152 L294.698711,103.634627 Z M313.706398,139.162962 C313.544139,139.162962 313.389647,139.071534 313.316285,138.916711 L304.73292,120.84764 L293.676389,103.640233 C293.605184,103.529399 293.588786,103.391394 293.631508,103.266328 C293.674662,103.141693 293.773054,103.043365 293.89777,102.999807 L319.511066,94.0950821 C319.606437,94.0614435 319.710007,94.0627373 319.804515,94.0985322 C319.906359,94.1364834 329.908202,98.0415728 329.170265,110.899258 C334.426444,112.267225 341.309534,115.612534 342.388389,128.034212 C342.40565,128.232162 342.284819,128.416311 342.09494,128.480138 C329.381721,132.800534 314.02315,139.068084 313.869521,139.131049 C313.81601,139.153043 313.760773,139.162962 313.706398,139.162962 L313.706398,139.162962 Z" id="Fill-102" fill="#000000"></path>
            <path d="M294.039747,103.407351 C294.039747,103.407351 294.795808,105.852614 292.748574,109.549403 C296.552183,111.747984 301.580507,116.437541 303.866815,122.993606 C307.757164,127.320903 310.016717,130.073225 309.718953,139.28846 C311.141746,138.935255 313.705967,138.731699 313.705967,138.731699 C313.705967,138.731699 316.994315,127.556372 306.110832,120.224033 C305.836372,112.0572 296.673878,104.931004 294.039747,103.407351" id="Fill-103" fill="#000000"></path>
            <path d="M304.245277,122.769349 C308.246101,127.223868 310.358498,130.037861 310.165598,138.749812 C311.297964,138.529005 312.742334,138.384532 313.365912,138.328036 C313.797885,136.543038 315.533978,127.092764 305.8696,120.581551 C305.75481,120.504354 305.684038,120.3767 305.679722,120.238696 C305.433743,112.912826 297.710441,106.386087 294.599456,104.27419 C294.654694,105.313966 294.50236,107.109747 293.323819,109.388973 C297.208558,111.744534 302.003418,116.417703 304.245277,122.769349 Z M309.718953,139.719723 C309.621424,139.719723 309.525191,139.686516 309.447513,139.623983 C309.342648,139.539024 309.283527,139.409645 309.287843,139.274659 C309.587333,130.002067 307.183645,127.328665 303.545748,123.28169 C303.507341,123.239426 303.477996,123.1894 303.45944,123.135492 C301.238295,116.766595 296.358852,112.134396 292.532371,109.922877 C292.329115,109.805143 292.257048,109.546385 292.370975,109.340672 C294.290904,105.874609 293.633234,103.555706 293.62633,103.532417 C293.575839,103.363362 293.633666,103.179213 293.772622,103.069672 C293.911579,102.960562 294.102752,102.945468 294.255518,103.033877 C296.756302,104.480334 306.093139,111.558659 306.53288,119.989426 C317.334801,127.414918 314.153476,138.739462 314.120247,138.853746 C314.069757,139.024958 313.918285,139.147437 313.740059,139.1621 C313.715029,139.163825 311.194394,139.366519 309.822954,139.707217 C309.788863,139.715411 309.753908,139.719723 309.718953,139.719723 L309.718953,139.719723 Z" id="Fill-104" fill="#000000"></path>
            <path d="M304.217659,123.18595 C304.127466,123.18595 304.036843,123.157918 303.959165,123.100128 C303.768424,122.95738 303.729585,122.687409 303.872425,122.496791 L305.765167,119.965707 C305.813068,119.90188 305.877368,119.852716 305.951593,119.82339 L328.55316,110.82853 C328.777562,110.740553 329.027856,110.848369 329.114165,111.069607 C329.204788,111.290845 329.096903,111.54184 328.872501,111.629818 L306.383567,120.579825 L304.563324,123.013013 C304.478741,123.126004 304.348847,123.18595 304.217659,123.18595" id="Fill-105" fill="#000000"></path>
            <path d="M337.063164,126.687377 C336.86897,126.687377 336.687722,126.55196 336.644568,126.351854 C335.41899,120.986507 332.704592,117.376401 328.33739,115.315825 C328.121619,115.214047 328.030995,114.957014 328.13025,114.741383 C328.23382,114.526182 328.488429,114.434323 328.708515,114.53567 C333.326012,116.717 336.20008,120.519449 337.486074,126.160373 C337.537859,126.392393 337.391135,126.62355 337.162418,126.676595 C337.127895,126.683927 337.097687,126.687377 337.063164,126.687377" id="Fill-106" fill="#000000"></path>
            <path d="M333.485683,127.97211 C333.287173,127.97211 333.110241,127.836693 333.067087,127.636587 C331.841509,122.270809 329.122796,118.660704 324.758614,116.600128 C324.543275,116.498349 324.450925,116.241316 324.552769,116.025685 C324.654612,115.810484 324.91138,115.718194 325.127582,115.819972 C329.748531,118.001302 332.618284,121.803751 333.908593,127.445106 C333.960378,127.677126 333.813654,127.908283 333.580622,127.961329 C333.550414,127.96866 333.51589,127.97211 333.485683,127.97211" id="Fill-107" fill="#000000"></path>
            <path d="M313.920012,113.928882 C313.705967,113.928882 313.520404,113.770178 313.492785,113.55239 C312.68796,107.236538 308.911107,103.907185 306.731821,102.48531 C306.532017,102.355069 306.475917,102.087685 306.606242,101.888442 C306.736568,101.689198 307.004124,101.633565 307.203496,101.762944 C309.507929,103.266759 313.500553,106.78328 314.348533,113.44328 C314.37874,113.679612 314.211734,113.895675 313.974817,113.925432 C313.956693,113.92802 313.938136,113.928882 313.920012,113.928882" id="Fill-108" fill="#000000"></path>
            <path d="M310.394316,115.368008 C310.180271,115.368008 309.994708,115.208872 309.966658,114.991084 C309.162264,108.675233 305.385411,105.346311 303.206125,103.924436 C303.006321,103.793763 302.950221,103.526811 303.080546,103.327136 C303.210872,103.127892 303.478428,103.072259 303.6778,103.20207 C305.982233,104.705885 309.974425,108.222406 310.822837,114.881974 C310.853044,115.118307 310.686038,115.33437 310.449121,115.364558 C310.430997,115.366714 310.41244,115.368008 310.394316,115.368008" id="Fill-109" fill="#000000"></path>
            <path d="M299.724878,193.798419 L168.398959,177.253864 C165.215475,176.852789 162.635287,173.948662 162.635287,170.767664 L162.635287,137.373651 C162.635287,134.192652 165.215475,131.93887 168.398959,132.339945 L299.724878,148.8845 C302.90793,149.285144 305.488549,152.189271 305.488549,155.370269 L305.488549,188.764282 C305.488549,191.945281 302.90793,194.199063 299.724878,193.798419" id="Fill-110" fill="#7DCA92"></path>
            <path d="M299.77882,193.370175 C301.202477,193.550012 302.535077,193.164893 303.531076,192.286841 C304.514991,191.419571 305.057007,190.168476 305.057007,188.764282 L305.057007,155.370269 C305.057007,152.40404 302.640805,149.686219 299.670935,149.312313 L168.345016,132.767758 C166.92136,132.58749 165.588759,132.97304 164.592329,133.851092 C163.608414,134.718362 163.066829,135.969457 163.066829,137.373651 L163.066829,170.767664 C163.066829,173.733893 165.483031,176.451714 168.452901,176.826051 L299.77882,193.370175 Z M300.459362,194.276259 C300.199574,194.276259 299.936765,194.25944 299.670935,194.226232 L168.345016,177.681677 C164.958708,177.255158 162.203745,174.153512 162.203745,170.767664 L162.203745,137.373651 C162.203745,135.718031 162.849332,134.237504 164.021399,133.204197 C165.206413,132.160108 166.780245,131.701244 168.452901,131.912132 L299.77882,148.456256 C303.165128,148.883206 305.920091,151.984421 305.920091,155.370269 L305.920091,188.764282 C305.920091,190.419902 305.274504,191.900429 304.102005,192.933736 C303.105576,193.811788 301.833822,194.276259 300.459362,194.276259 L300.459362,194.276259 Z" id="Fill-111" fill="#000000"></path>
            <path d="M299.724878,253.944128 L168.398959,237.400004 C165.215475,236.998929 162.635287,234.094802 162.635287,230.913804 L162.635287,197.520222 C162.635287,194.338792 165.215475,192.08501 168.398959,192.486085 L299.724878,209.030209 C302.90793,209.431715 305.488549,212.335411 305.488549,215.516409 L305.488549,248.909991 C305.488549,252.091421 302.90793,254.345203 299.724878,253.944128" id="Fill-112" fill="#7DCA92"></path>
            <path d="M167.667064,192.870772 C166.501901,192.870772 165.429088,193.260203 164.59276,193.997232 C163.608414,194.864502 163.066829,196.115597 163.066829,197.520222 L163.066829,230.913804 C163.066829,233.880033 165.483031,236.597854 168.452901,236.972191 L299.77882,253.516315 C301.202045,253.696151 302.535077,253.311033 303.531076,252.432981 C304.514991,251.566142 305.057007,250.314616 305.057007,248.909991 L305.057007,215.516409 C305.057007,212.55018 302.640805,209.832358 299.670935,209.458453 L168.345016,192.913898 C168.116299,192.885004 167.890171,192.870772 167.667064,192.870772 Z M300.459793,254.422399 C300.200005,254.422399 299.936765,254.406011 299.670935,254.372372 L168.345016,237.827817 C164.958708,237.400867 162.203745,234.299652 162.203745,230.913804 L162.203745,197.520222 C162.203745,195.864602 162.849332,194.383644 164.021831,193.350337 C165.206413,192.306248 166.779814,191.847384 168.452901,192.058272 L299.77882,208.602395 C303.165128,209.029346 305.920091,212.130992 305.920091,215.516409 L305.920091,248.909991 C305.920091,250.566042 305.274504,252.047 304.101574,253.079876 C303.105576,253.958359 301.834254,254.422399 300.459793,254.422399 L300.459793,254.422399 Z" id="Fill-113" fill="#000000"></path>
            <path d="M294.954615,170.740063 C294.954615,179.182474 288.106048,185.163665 279.658618,184.099307 C271.210757,183.034949 264.362621,175.328273 264.362621,166.886294 C264.362621,158.444314 271.210757,152.463123 279.658618,153.527481 C288.106048,154.591408 294.954615,162.298083 294.954615,170.740063" id="Fill-115" fill="#EBF4DF"></path>
            <path d="M277.400181,173.546889 C277.140648,173.546889 276.88612,173.429545 276.717872,173.212115 L273.552919,169.130976 C273.260944,168.754786 273.329451,168.212935 273.706153,167.919577 C274.082856,167.627943 274.624872,167.696969 274.916501,168.073159 L277.631414,171.574482 L288.202542,165.809119 C288.621176,165.581334 289.145073,165.734916 289.3732,166.154247 C289.601326,166.571852 289.447056,167.096446 289.028767,167.324231 L277.812776,173.441625 C277.682319,173.512376 277.540474,173.546889 277.400181,173.546889" id="Fill-13" fill="#58B171"></path>
            <path d="M250.355208,158.246364 C250.337083,158.246364 250.318959,158.245502 250.300834,158.242914 L177.513983,149.073393 C177.277067,149.043636 177.109629,148.828005 177.139405,148.591672 C177.169181,148.35534 177.384952,148.186716 177.621869,148.217767 L250.408719,157.387288 C250.644773,157.417045 250.812642,157.632677 250.782434,157.869009 C250.755247,158.086797 250.569253,158.246364 250.355208,158.246364" id="Fill-123" fill="#000000"></path>
            <path d="M240.393498,164.297851 C240.375374,164.297851 240.357249,164.296989 240.339124,164.294401 L230.557799,163.062282 C230.320883,163.032525 230.153445,162.816893 230.183221,162.580561 C230.212997,162.344229 230.428768,162.176036 230.665685,162.206656 L240.44701,163.438775 C240.683495,163.468532 240.850933,163.684164 240.821156,163.920496 C240.793538,164.138715 240.607975,164.297851 240.393498,164.297851" id="Fill-124" fill="#000000"></path>
            <path d="M212.666942,160.80505 C212.649249,160.80505 212.631124,160.803756 212.612567,160.8016 L177.513983,156.379857 C177.277067,156.3501 177.109629,156.134468 177.139405,155.898136 C177.169181,155.661803 177.384952,155.493611 177.621869,155.52423 L212.720453,159.945542 C212.956938,159.97573 213.124808,160.191362 213.0946,160.427694 C213.067412,160.645482 212.881418,160.80505 212.666942,160.80505" id="Fill-125" fill="#000000"></path>
            <path d="M225.828965,169.769289 C225.81084,169.769289 225.792715,169.768427 225.774591,169.765839 L212.612567,168.108063 C212.376083,168.077874 212.208644,167.862243 212.238421,167.626342 C212.268197,167.390009 212.483968,167.221385 212.720453,167.252005 L225.882476,168.910213 C226.118961,168.93997 226.286399,169.155602 226.256623,169.391934 C226.229004,169.610153 226.043441,169.769289 225.828965,169.769289" id="Fill-126" fill="#000000"></path>
            <path d="M197.707116,166.226461 C197.688991,166.226461 197.671298,166.225598 197.652742,166.223442 L177.513983,163.68632 C177.277067,163.656132 177.109629,163.4405 177.139405,163.204599 C177.169181,162.967835 177.384952,162.800936 177.621869,162.830262 L197.760627,165.367384 C197.997112,165.397573 198.164982,165.613205 198.134774,165.849106 C198.107587,166.067325 197.921592,166.226461 197.707116,166.226461" id="Fill-127" fill="#000000"></path>
            <path d="M250.355208,218.392504 C250.337083,218.392504 250.318959,218.391642 250.300834,218.389054 L177.513983,209.219533 C177.277067,209.189776 177.109629,208.974144 177.139405,208.737812 C177.169181,208.50148 177.384952,208.334581 177.621869,208.363907 L250.408719,217.533428 C250.644773,217.563185 250.812642,217.778816 250.782434,218.015149 C250.755247,218.233368 250.569253,218.392504 250.355208,218.392504" id="Fill-128" fill="#000000"></path>
            <path d="M244.924687,225.014984 C244.906994,225.014984 244.888869,225.01369 244.870312,225.011534 L239.440223,224.32755 C239.203738,224.297362 239.0363,224.08173 239.066076,223.845398 C239.095852,223.609065 239.311192,223.439579 239.548108,223.471492 L244.978198,224.155907 C245.214683,224.185664 245.382553,224.401296 245.352345,224.637628 C245.325157,224.855416 245.139163,225.014984 244.924687,225.014984" id="Fill-129" fill="#000000"></path>
            <path d="M234.06235,223.646154 C234.044225,223.646154 234.0261,223.645292 234.007975,223.643135 L207.506134,220.304295 C207.269218,220.274537 207.101779,220.058906 207.131556,219.822573 C207.161332,219.586241 207.377103,219.41848 207.61402,219.448668 L234.115861,222.787077 C234.352346,222.817266 234.519784,223.032898 234.490007,223.268799 C234.462389,223.487018 234.276394,223.646154 234.06235,223.646154" id="Fill-130" fill="#000000"></path>
            <path d="M187.637952,217.797792 C187.619828,217.797792 187.601703,217.79693 187.583578,217.794773 L177.513983,216.525997 C177.277067,216.496239 177.109629,216.280608 177.139405,216.044275 C177.169181,215.807943 177.384952,215.638888 177.621869,215.67037 L187.691464,216.938716 C187.927948,216.968904 188.095387,217.184536 188.06561,217.420437 C188.037992,217.638656 187.852429,217.797792 187.637952,217.797792" id="Fill-131" fill="#000000"></path>
            <path d="M235.502836,231.13461 C235.484711,231.13461 235.466586,231.133317 235.448462,231.130729 L219.193579,229.083091 C218.956663,229.053334 218.789224,228.837702 218.819001,228.60137 C218.848777,228.365037 219.064548,228.197276 219.301464,228.227464 L235.556347,230.275534 C235.792832,230.30486 235.96027,230.520491 235.930494,230.757255 C235.902875,230.975043 235.717312,231.13461 235.502836,231.13461" id="Fill-132" fill="#000000"></path>
            <path d="M200.583773,226.735293 C200.565648,226.735293 200.547524,226.734431 200.529399,226.731843 L177.513983,223.83246 C177.277067,223.802703 177.109629,223.587071 177.139405,223.350739 C177.169181,223.114406 177.384952,222.945351 177.621869,222.976833 L200.637284,225.876217 C200.873338,225.905974 201.041207,226.121606 201.011431,226.357938 C200.983812,226.575726 200.797818,226.735293 200.583773,226.735293" id="Fill-133" fill="#000000"></path>
            <path d="M294.954615,230.886203 C294.954615,239.328614 288.106048,245.309805 279.658618,244.245447 C271.210757,243.181089 264.362621,235.474413 264.362621,227.032434 C264.362621,218.590454 271.210757,212.609263 279.658618,213.673621 C288.106048,214.737979 294.954615,222.444223 294.954615,230.886203" id="Fill-134" fill="#EBF4DF"></path>
            <path d="M277.400181,233.492491 C277.140648,233.492491 276.88612,233.375148 276.717872,233.157717 L273.552919,229.076578 C273.260944,228.700389 273.329451,228.158538 273.706153,227.865179 C274.082856,227.573546 274.624872,227.642571 274.916501,228.018761 L277.631414,231.520085 L288.202542,225.754721 C288.621176,225.526937 289.145073,225.680519 289.3732,226.099849 C289.601326,226.517454 289.447056,227.042049 289.028767,227.269833 L277.812776,233.387227 C277.682319,233.457978 277.540474,233.492491 277.400181,233.492491" id="Fill-13-Copy" fill="#58B171"></path>
            <polyline id="Fill-139" fill="#FFFFFF" points="274.165955 231.499459 285.043828 232.870014 274.165955 231.499459"></polyline>
            <g id="Group-11" transform="translate(159.072478, 21.526941)">
                <path d="M17.9517048,28.2480713 L17.9517048,61.8879046 C17.9517048,72.0152613 34.8534686,80.2252212 55.7029762,80.2252212 C76.5524838,80.2252212 93.4542476,72.0152613 93.4542476,61.8879046 L93.4542476,28.2480713 L17.9517048,28.2480713" id="Fill-141" fill="#FFFFFF"></path>
                <path d="M18.3832466,28.6793346 L18.3832466,61.8879046 C18.3832466,71.7612472 35.1249083,79.7939579 55.7029762,79.7939579 C76.281044,79.7939579 93.0227058,71.7612472 93.0227058,61.8879046 L93.0227058,28.6793346 L18.3832466,28.6793346 Z M55.7029762,80.6564845 C34.6489178,80.6564845 17.5201631,72.2369306 17.5201631,61.8879046 L17.5201631,28.2480713 C17.5201631,28.010014 17.7134938,27.816808 17.9517048,27.816808 L93.4542476,27.816808 C93.6924586,27.816808 93.8857893,28.010014 93.8857893,28.2480713 L93.8857893,61.8879046 C93.8857893,72.2369306 76.7570346,80.6564845 55.7029762,80.6564845 L55.7029762,80.6564845 Z" id="Fill-142" fill="#000000"></path>
                <path d="M95.5584451,20.7389143 L56.8310263,4.36384578 C56.1017208,4.10422526 55.3042316,4.10422526 54.5749261,4.36384578 L15.8475073,20.7389143 L0.43154174,20.7389143 L0.43154174,24.4775361 C0.43154174,24.9420067 0.694350659,25.4064773 1.21953696,25.5936455 L54.5749261,44.5907951 C55.3042316,44.8508469 56.1017208,44.8508469 56.8310263,44.5907951 L110.186847,25.5936455 C110.711602,25.4064773 110.974411,24.9420067 110.974411,24.4775361 L110.974411,20.7389143 L95.5584451,20.7389143" id="Fill-143" fill="#EBF4DF"></path>
                <path d="M0.863083479,21.1701776 L0.863083479,24.4775361 C0.863083479,24.734569 0.99470371,25.0558602 1.36410344,25.1873955 L54.7194926,44.184545 C55.3538589,44.410527 56.0520935,44.410527 56.6864598,44.184545 L110.041849,25.1873955 C110.411249,25.0558602 110.542869,24.734569 110.542869,24.4775361 L110.542869,21.1701776 L95.5584451,21.1701776 C95.5006185,21.1701776 95.443655,21.1585335 95.3905754,21.1361078 L56.6631566,4.76103931 C56.0520935,4.54411385 55.3538589,4.54411385 54.7194926,4.77009584 L16.015377,21.1361078 C15.9622974,21.1585335 15.9049024,21.1701776 15.8470758,21.1701776 L0.863083479,21.1701776 Z M55.7029762,45.2161288 C55.271866,45.2165582 54.8403243,45.1432434 54.4303596,44.9970451 L1.07453893,25.9998956 C0.422047821,25.7674447 0,25.1697137 0,24.4775361 L0,20.7389143 C0,20.5008569 0.193330699,20.307651 0.43154174,20.307651 L15.7599043,20.307651 L54.4066248,3.96665226 C55.251152,3.66563046 56.1552319,3.66563046 56.9760243,3.95759573 L95.6460481,20.307651 L110.974411,20.307651 C111.212622,20.307651 111.405952,20.5008569 111.405952,20.7389143 L111.405952,24.4775361 C111.405952,25.1697137 110.983905,25.7674447 110.331413,25.9998956 L56.9760243,44.9970451 C56.5656281,45.1432434 56.1340864,45.2161288 55.7029762,45.2161288 L55.7029762,45.2161288 Z" id="Fill-144" fill="#000000"></path>
                <path d="M110.186847,19.6228048 L56.8310263,0.625224007 C56.1017208,0.365603485 55.3042316,0.365603485 54.5749261,0.625224007 L1.21953696,19.6228048 C0.169164362,19.9967101 0.169164362,21.4811185 1.21953696,21.8550238 L54.5749261,40.8526046 C55.3042316,41.1122251 56.1017208,41.1122251 56.8310263,40.8526046 L110.186847,21.8550238 C111.236788,21.4811185 111.236788,19.9967101 110.186847,19.6228048" id="Fill-145" fill="#FFFFFF"></path>
                <path d="M55.7029762,0.862418837 C55.369826,0.862418837 55.0366757,0.918483069 54.7194926,1.03147406 L1.36410344,20.0290548 C0.99470371,20.1605902 0.863083479,20.4818813 0.863083479,20.7389143 C0.863083479,20.9959472 0.99470371,21.3172384 1.36410344,21.4487737 L54.7194926,40.4463545 C55.3538589,40.6723365 56.0520935,40.6723365 56.6864598,40.4463545 L110.041849,21.4487737 C110.411249,21.3172384 110.542869,20.9959472 110.542869,20.7389143 C110.542869,20.4818813 110.411249,20.1605902 110.041849,20.0290548 L56.6864598,1.03147406 C56.3692766,0.918914333 56.0361264,0.862418837 55.7029762,0.862418837 Z M55.7029762,41.4779364 C55.271866,41.4779364 54.8403243,41.4050529 54.4303596,41.2588546 L1.07453893,22.2612738 C0.422047821,22.0292542 0,21.4315232 0,20.7389143 C0,20.0463054 0.422047821,19.4490057 1.07453893,19.2165547 L54.4303596,0.218973954 C55.2507205,-0.072991318 56.1552319,-0.072991318 56.9760243,0.218973954 L110.331413,19.2165547 C110.983905,19.4490057 111.405952,20.0463054 111.405952,20.7389143 C111.405952,21.4315232 110.983905,22.0292542 110.331413,22.2612738 L56.9760243,41.2588546 C56.5656281,41.4050529 56.1345179,41.4779364 55.7029762,41.4779364 L55.7029762,41.4779364 Z" id="Fill-146" fill="#000000"></path>
                <path d="M85.9894386,48.0478019 C84.9334559,48.0478019 84.0569946,48.8646146 83.9844956,49.9181909 L81.9355355,79.5973018 L90.0437732,79.5973018 L87.994813,49.9181909 C87.9218825,48.8646146 87.0462843,48.0478019 85.9894386,48.0478019" id="Fill-147" fill="#8ACEA7"></path>
                <path d="M82.3977167,79.1660385 L89.581592,79.1660385 L87.5645659,49.9475168 C87.5076024,49.1242352 86.815841,48.4790652 85.9894386,48.4790652 C85.1634677,48.4790652 84.4717063,49.1242352 84.4147427,49.9475168 L82.3977167,79.1660385 Z M90.0437732,80.0285651 L81.9355355,80.0285651 C81.8159984,80.0285651 81.7016398,79.9789698 81.6200784,79.8918546 C81.5385171,79.8043082 81.4966575,79.6870046 81.5052883,79.5679759 L83.553817,49.8884338 C83.6418515,48.6144819 84.7116435,47.6165386 85.9894386,47.6165386 C87.2672336,47.6165386 88.3374572,48.6144819 88.4254917,49.8884338 L90.4744519,79.5679759 C90.4826511,79.6870046 90.4407916,79.8043082 90.3592302,79.8918546 C90.2776688,79.9789698 90.1633103,80.0285651 90.0437732,80.0285651 L90.0437732,80.0285651 Z" id="Fill-148" fill="#000000"></path>
                <path d="M85.9898701,48.1064537 C85.7512275,48.1064537 85.5583284,47.913679 85.5583284,47.6751904 L85.5583284,32.2864211 L55.5527997,21.143008 C55.329261,21.0602055 55.215334,20.8117978 55.2986216,20.5888346 C55.3814776,20.3654402 55.6291826,20.2515867 55.8531527,20.3343893 L86.1400466,31.5821681 C86.309211,31.6447013 86.4214118,31.8059938 86.4214118,31.9862618 L86.4214118,47.6751904 C86.4214118,47.913679 86.2280811,48.1064537 85.9898701,48.1064537" id="Fill-149" fill="#000000"></path>
            </g>
            <path d="M310.398631,29.5983578 C310.222994,29.5983578 310.057713,29.4901108 309.993413,29.3154491 C309.91142,29.0916234 310.026642,28.8440783 310.250181,28.7621383 L333.019617,20.4279745 C333.244019,20.3460344 333.489998,20.4607505 333.571991,20.6845762 C333.653984,20.9079706 333.541783,21.155947 333.317381,21.237887 L310.547081,29.5720508 C310.498317,29.5897326 310.448258,29.5983578 310.398631,29.5983578" id="Fill-150" fill="#000000"></path>
            <path d="M291.349084,20.5021518 C291.173015,20.5021518 291.008166,20.3934734 290.944298,20.2188118 C290.861873,19.9949861 290.977095,19.7474409 291.200634,19.6655009 L300.499064,16.2619707 C300.722602,16.180462 300.970739,16.295178 301.0523,16.5190037 C301.134293,16.7423981 301.019503,16.9899432 300.795964,17.0718833 L291.497534,20.4754134 C291.44877,20.4935265 291.39828,20.5021518 291.349084,20.5021518" id="Fill-151" fill="#000000"></path>
            <path d="M310.685175,13.4246893 C310.509106,13.4246893 310.343825,13.316011 310.279525,13.1413493 C310.197964,12.9179549 310.312754,12.6699785 310.536724,12.5880385 L344.856807,0.0266315613 C345.081209,-0.055739734 345.327188,0.0594075741 345.409181,0.28323324 C345.491174,0.506627644 345.378973,0.754172793 345.154571,0.836112825 L310.833625,13.397951 C310.784429,13.4160641 310.73437,13.4246893 310.685175,13.4246893" id="Fill-152" fill="#000000"></path>
            <path d="M10.6173731,272.643274 C10.4413041,272.643274 10.2760236,272.534596 10.2121554,272.359503 C10.1301625,272.136109 10.2449526,271.888564 10.4689228,271.806192 L19.9024252,268.353929 C20.1263954,268.272421 20.3741003,268.387137 20.4560932,268.610531 C20.5380862,268.834357 20.4232961,269.081902 20.1993259,269.163411 L10.7658235,272.616536 C10.7166277,272.634218 10.6665689,272.643274 10.6173731,272.643274" id="Fill-153" fill="#000000"></path>
            <path d="M27.2161946,266.567637 C27.0401256,266.567637 26.8748451,266.458958 26.8109769,266.284297 C26.728984,266.060902 26.8437741,265.813357 27.0677442,265.730986 L36.338987,262.337806 C36.5629571,262.255866 36.8106621,262.370582 36.892655,262.594408 C36.974648,262.817802 36.8594263,263.065778 36.6358877,263.147287 L27.364645,266.540898 C27.3154492,266.559011 27.2653904,266.567637 27.2161946,266.567637" id="Fill-154" fill="#000000"></path>
            <path d="M105.470679,237.925283 C105.29461,237.925283 105.129329,237.816604 105.06503,237.641943 C104.983037,237.418117 105.098258,237.170572 105.322229,237.088201 L117.953887,232.465058 C118.177857,232.383118 118.425562,232.498265 118.507555,232.721228 C118.589548,232.945485 118.474758,233.19303 118.250788,233.27497 L105.619129,237.898113 C105.569934,237.916226 105.519875,237.925283 105.470679,237.925283" id="Fill-155" fill="#000000"></path>
            <path d="M122.497158,231.693096 C122.321521,231.693096 122.15624,231.584418 122.091941,231.409325 C122.009948,231.185931 122.125169,230.938386 122.34914,230.856014 L140.892488,224.068792 C141.116458,223.986852 141.364163,224.101999 141.446156,224.325825 C141.528149,224.549219 141.413359,224.796765 141.189389,224.878705 L122.645609,231.666358 C122.596844,231.68404 122.546786,231.693096 122.497158,231.693096" id="Fill-156" fill="#000000"></path>
            <path d="M0.43169345,262.817802 C0.25562442,262.817802 0.0903439339,262.709986 0.0264757565,262.534462 C-0.055517174,262.311499 0.0592729287,262.063091 0.283243091,261.981582 L17.8008169,255.569559 C18.0247871,255.487619 18.272492,255.602767 18.354485,255.826592 C18.4364779,256.049987 18.3216878,256.297532 18.0977176,256.379472 L0.580143808,262.791495 C0.53094805,262.809177 0.480889208,262.817802 0.43169345,262.817802" id="Fill-157" fill="#000000"></path>
            <path d="M105.373151,224.407334 C105.197082,224.407334 105.031801,224.299087 104.967933,224.123994 C104.88594,223.900599 105.00073,223.653054 105.2247,223.571114 L129.722462,214.604287 C129.946432,214.522347 130.194137,214.637494 130.27613,214.860889 C130.358123,215.084714 130.242901,215.33226 130.019362,215.4142 L105.521601,224.381027 C105.472837,224.398709 105.422346,224.407334 105.373151,224.407334" id="Fill-158" fill="#000000"></path>
            <path d="M134.331759,213.807744 C134.15569,213.807744 133.990841,213.699497 133.926541,213.524835 C133.844548,213.301009 133.959338,213.053464 134.183309,212.971524 L147.875697,207.959813 C148.099235,207.878304 148.347372,207.99302 148.429365,208.216846 C148.511357,208.44024 148.396136,208.687786 148.172166,208.769726 L134.480209,213.781437 C134.431445,213.799119 134.380955,213.807744 134.331759,213.807744" id="Fill-159" fill="#000000"></path>
            <path d="M326.516283,208.724874 C326.343667,208.724874 326.175365,208.616627 326.11495,208.441965 C326.032957,208.21814 326.145158,207.970595 326.369559,207.888655 L344.912908,201.101432 C345.13731,201.019492 345.383288,201.134208 345.465281,201.358034 C345.547274,201.581428 345.435073,201.829405 345.210672,201.911345 L326.667323,208.698567 C326.619853,208.716249 326.568068,208.724874 326.516283,208.724874" id="Fill-160" fill="#000000"></path>
            <path d="M309.394433,201.439543 C309.218364,201.439543 309.053084,201.331296 308.989216,201.156634 C308.907223,200.932808 309.022013,200.685263 309.245551,200.603323 L333.744608,191.636496 C333.969009,191.554556 334.214988,191.669272 334.296981,191.893529 C334.378974,192.116924 334.262458,192.364469 334.042371,192.446409 L309.542452,201.413236 C309.493688,201.430918 309.443629,201.439543 309.394433,201.439543" id="Fill-161" fill="#000000"></path>
            <path d="M338.353473,190.840384 C338.176541,190.840384 338.012555,190.731706 337.947824,190.557044 C337.865831,190.333218 337.982347,190.085673 338.202434,190.003733 L351.895253,184.992453 C352.119655,184.910082 352.369949,185.025229 352.451942,185.249055 C352.533935,185.472449 352.417419,185.720426 352.193017,185.802366 L338.500198,190.813646 C338.452728,190.831759 338.400943,190.840384 338.353473,190.840384" id="Fill-162" fill="#000000"></path>
            <path d="M328.354651,161.216475 C328.177719,161.216475 328.013733,161.108228 327.949002,160.933135 C327.867009,160.709741 327.983525,160.462195 328.207927,160.380255 L337.641429,156.92713 C337.865831,156.84519 338.11181,156.960337 338.193803,157.184163 C338.275796,157.407557 338.163595,157.655102 337.939193,157.737042 L328.505691,161.190168 C328.453906,161.20785 328.406436,161.216475 328.354651,161.216475" id="Fill-163" fill="#000000"></path>
            <path d="M318.170266,151.391434 C317.994197,151.391434 317.828917,151.283187 317.765049,151.108525 C317.683056,150.884699 317.797846,150.637154 318.021816,150.555214 L335.539821,144.143191 C335.764223,144.061251 336.010202,144.176398 336.092195,144.400224 C336.174188,144.623618 336.061987,144.871164 335.837585,144.953104 L318.318717,151.365127 C318.269521,151.382809 318.219462,151.391434 318.170266,151.391434" id="Fill-164" fill="#000000"></path>
            <path d="M154.774323,287.59388 C154.598254,287.59388 154.433405,287.485202 154.369105,287.310109 C154.287112,287.086714 154.402334,286.839169 154.625872,286.756798 L169.045408,281.479429 C169.268947,281.39792 169.517083,281.512636 169.598645,281.73603 C169.681069,281.959425 169.565847,282.20697 169.342309,282.289341 L154.922773,287.567142 C154.874009,287.584824 154.823519,287.59388 154.774323,287.59388" id="Fill-165" fill="#000000"></path>
            <path d="M174.2101,280.47976 C174.034462,280.47976 173.869182,280.371082 173.804882,280.195989 C173.722889,279.973026 173.838111,279.725481 174.061649,279.643109 L195.229203,271.895464 C195.453173,271.813524 195.700878,271.92824 195.782871,272.152065 C195.864864,272.375891 195.750074,272.623436 195.526104,272.704945 L174.35855,280.453022 C174.309786,280.471135 174.259727,280.47976 174.2101,280.47976" id="Fill-166" fill="#000000"></path>
            <path d="M154.663417,272.163278 C154.487347,272.163278 154.322067,272.0546 154.258199,271.879938 C154.176206,271.656975 154.291428,271.408999 154.514966,271.327059 L182.478439,261.091886 C182.70241,261.009946 182.950114,261.125093 183.032107,261.348057 C183.114532,261.572313 182.99931,261.819427 182.77534,261.901367 L154.811867,272.136971 C154.762671,272.154653 154.712612,272.163278 154.663417,272.163278" id="Fill-167" fill="#000000"></path>
            <path d="M187.719082,260.064617 C187.543445,260.064617 187.378164,259.955939 187.313865,259.780846 C187.232303,259.557451 187.347093,259.309906 187.570632,259.227535 L203.200211,253.507689 C203.423749,253.425318 203.671886,253.540465 203.753879,253.76386 C203.835872,253.987685 203.721081,254.235231 203.497111,254.317171 L187.867533,260.037879 C187.818768,260.05556 187.768278,260.064617 187.719082,260.064617" id="Fill-168" fill="#000000"></path>
            <path d="M214.389656,262.369719 C218.041794,263.625127 220.666862,272.181823 222.378357,275.490475 C222.417196,275.565083 222.455171,275.637967 222.493147,275.709125 C222.966548,276.600978 224.288361,276.421141 224.50931,275.435704 C225.419,271.379673 225.803072,267.299059 222.036144,264.081404 C215.75937,258.719075 214.618373,253.813024 214.960586,248.108272 C215.179378,244.463666 213.798876,241.548757 212.773101,239.918582 C211.651524,238.136171 210.693501,236.254569 209.87012,234.316471 C194.770043,198.776492 218.965293,208.868054 221.123434,217.417418 C222.664038,223.521519 220.324218,227.229521 225.650307,231.488678 C232.406524,236.891976 232.95415,242.670042 232.802248,245.33223 C232.649914,247.993988 230.291106,251.949535 235.541243,257.121676 C240.790948,262.294248 240.942851,268.226707 238.964664,274.235499 C236.986476,280.244722 240.714997,284.960155 242.769136,287.394636 C242.772588,287.398518 242.77604,287.402399 242.779493,287.406712 C243.168743,287.874201 243.905817,287.759054 244.11382,287.186767 C245.033004,284.656977 246.972352,283.570193 248.323078,282.982813 C250.07298,282.222495 251.975216,278.799127 253.420881,274.00736 C254.866545,269.215162 264.376862,264.880103 268.104951,266.933348 C271.83304,268.987455 274.039513,277.886574 270.996281,282.3743 C267.952617,286.861595 252.660072,291.045712 253.420881,297.586683 C254.181689,304.128085 242.921038,308.007298 242.921038,308.007298 C242.921038,308.007298 241.990634,307.881801 241.04038,307.059382 C238.081298,308.828855 233.664468,310.562102 231.166273,307.208599 C230.795147,306.71049 230.423158,306.149847 230.053758,305.538747 C229.019784,305.477508 227.45674,304.90134 225.117784,303.44367 C216.329868,297.966626 218.612292,293.402997 217.24301,289.523783 C215.873728,285.645001 209.939166,279.712112 209.939166,279.712112 C202.17832,267.504341 210.73795,261.114743 214.389656,262.369719" id="Fill-169" fill="#FFFFFF"></path>
            <path d="M210.277927,279.441278 C210.813038,279.979064 216.303112,285.565649 217.649954,289.380604 C218.013744,290.411323 218.128102,291.457137 218.249366,292.56419 C218.584242,295.628316 218.96443,299.100417 225.34607,303.077527 C227.405818,304.361398 228.998639,305.044519 230.079219,305.108346 C230.220765,305.11654 230.349365,305.194168 230.423158,305.315353 C230.791263,305.924728 231.157642,306.474588 231.512369,306.950703 C233.771059,309.983347 237.820215,308.482119 240.818999,306.689358 C240.978669,306.594048 241.181925,306.610868 241.323039,306.733346 C241.98934,307.309946 242.648304,307.50617 242.886947,307.561372 C244.018018,307.146497 253.665565,303.428576 252.991928,297.636709 C252.492634,293.342189 258.280041,290.093482 263.386042,287.227306 C266.539318,285.457402 269.517819,283.785394 270.638533,282.132793 C272.019466,280.096798 272.374194,276.742001 271.565485,273.376422 C270.874586,270.501621 269.468623,268.177543 267.896517,267.311566 C266.463798,266.521923 263.8137,266.748767 260.98106,267.902828 C257.388475,269.366104 254.516565,271.869588 253.833866,274.131995 C252.305777,279.197614 250.359955,282.567506 248.495263,283.378281 C247.201069,283.94108 245.380826,284.963174 244.519469,287.333828 C244.369724,287.744822 244.025785,288.035062 243.598559,288.109671 C243.163996,288.186005 242.733749,288.026006 242.447637,287.682289 C240.641203,285.541929 236.430651,280.553506 238.555131,274.100944 C240.828061,267.195556 239.774236,261.897917 235.237869,257.428735 C230.863762,253.119121 231.580985,249.573274 232.104445,246.983969 C232.227003,246.377613 232.343087,245.804895 232.371569,245.307217 C232.532103,242.489343 231.838184,236.990304 225.380593,231.825494 C221.660703,228.850209 221.523473,226.049153 221.364665,222.805191 C221.289146,221.253936 221.202837,219.495676 220.704838,217.523077 C219.902171,214.342942 215.753328,210.765181 211.826298,209.86686 C210.286557,209.514517 208.158625,209.443359 206.765177,211.10631 C205.20688,212.965918 203.589893,218.43218 210.267138,234.147847 C211.116412,236.146322 212.082203,238.010673 213.138185,239.689581 C214.287813,241.51555 215.611351,244.463666 215.391265,248.134148 C215.058546,253.673726 216.10935,258.450398 222.316647,263.753643 C226.386085,267.229626 225.79962,271.65525 224.930063,275.530151 C224.789381,276.15807 224.287929,276.618228 223.651837,276.704481 C223.016607,276.789009 222.41288,276.478068 222.112096,275.910957 L221.995148,275.687993 C221.575689,274.876787 221.116097,273.789572 220.584006,272.530283 C219.004132,268.790368 216.83995,263.667822 214.249405,262.778126 C212.944423,262.329181 210.652073,262.999364 208.974239,265.12463 C207.677456,266.76688 205.213353,271.445656 210.277927,279.441278 Z M235.039792,309.533539 C233.281691,309.533539 231.846814,308.84438 230.820177,307.466063 C230.485732,307.017118 230.142656,306.507796 229.798717,305.94931 C228.580043,305.808287 226.970393,305.10619 224.889498,303.809381 C218.152269,299.610601 217.747914,295.917262 217.391461,292.657774 C217.275808,291.60161 217.166627,290.604098 216.836066,289.667394 C215.514686,285.924028 209.692325,280.075667 209.633635,280.016583 C209.611195,279.99502 209.591775,279.970007 209.574514,279.942837 C204.180242,271.457731 206.883851,266.379606 208.296719,264.590294 C209.985773,262.451228 212.665647,261.321318 214.529907,261.962176 C217.485105,262.977801 219.644109,268.088271 221.378906,272.195192 C221.904093,273.437661 222.357643,274.510645 222.761998,275.292094 L222.874198,275.506432 C223.072708,275.881199 223.43175,275.863518 223.537047,275.849286 C223.642774,275.835054 223.995344,275.756133 224.088125,275.341689 C224.902445,271.711746 225.460428,267.574205 221.756074,264.409595 C214.895855,258.548295 214.228691,253.09842 214.529476,248.082828 C214.736184,244.640053 213.489892,241.867461 212.407585,240.148014 C211.327005,238.431155 210.339637,236.525833 209.47267,234.485095 C202.958979,219.154547 204.045169,213.008613 206.103623,210.552999 C207.409037,208.994414 209.510214,208.452316 212.019198,209.026327 C216.29405,210.004001 220.654779,213.798256 221.541598,217.311758 C222.060742,219.368022 222.149208,221.171996 222.226886,222.763358 C222.381378,225.923656 222.503504,228.419808 225.92002,231.152292 C232.680121,236.559041 233.403385,242.37247 233.232926,245.356812 C233.200992,245.91573 233.079298,246.517773 232.950267,247.154749 C232.43889,249.684109 231.802366,252.832331 235.844185,256.814616 C240.574746,261.475279 241.729552,267.21755 239.37506,274.370484 C237.401188,280.365475 241.393812,285.096434 243.098834,287.11604 C243.234769,287.279058 243.38883,287.270864 243.450109,287.259651 C243.507072,287.250163 243.646892,287.208762 243.708171,287.040138 C244.683023,284.356386 246.710406,283.213107 248.150893,282.587344 C249.734651,281.899048 251.595459,278.563657 253.007464,273.883156 C253.937868,270.799624 257.708679,268.304334 260.654815,267.103697 C263.769683,265.835351 266.632962,265.63007 268.313386,266.555561 C270.118094,267.550486 271.647477,270.024643 272.404833,273.175022 C273.281294,276.823078 272.88816,280.352538 271.353166,282.61667 C270.118094,284.437464 267.053284,286.158204 263.808953,287.978998 C258.937279,290.713639 253.416134,293.813128 253.849401,297.536656 C254.641281,304.344579 243.535122,308.251825 243.061721,308.414842 C242.998284,308.436837 242.930101,308.443306 242.863643,308.43468 C242.823942,308.429074 241.948775,308.304008 241.001109,307.582935 C238.760545,308.883194 236.747402,309.533539 235.039792,309.533539 L235.039792,309.533539 Z" id="Fill-170" fill="#000000"></path>
            <path d="M235.728532,303.446689 C235.726375,303.446689 235.723785,303.446689 235.721628,303.446689 C235.483417,303.443239 235.293107,303.247014 235.296991,303.008525 C235.999972,259.254273 213.123081,219.854487 212.891775,219.461606 C212.770943,219.256325 212.839558,218.99196 213.044972,218.871206 C213.250818,218.750453 213.515353,218.819455 213.635753,219.024305 C213.868354,219.419342 236.866939,259.028291 236.160074,303.022326 C236.15619,303.258227 235.963723,303.446689 235.728532,303.446689" id="Fill-171" fill="#000000"></path>
            <path d="M244.643753,304.159998 C244.619155,304.159998 244.594126,304.157842 244.569096,304.153529 C244.334338,304.112559 244.176825,303.889165 244.217821,303.654558 C247.599382,284.262371 267.391181,271.584954 267.590554,271.459025 C267.792084,271.331803 268.058345,271.392376 268.186081,271.593579 C268.312954,271.794979 268.25297,272.061069 268.05144,272.188292 C267.855089,272.312064 248.383062,284.792825 245.06839,303.802912 C245.031709,304.012506 244.849598,304.159998 244.643753,304.159998" id="Fill-172" fill="#000000"></path>
            <path d="M230.914253,302.912353 C230.725237,302.912353 230.551326,302.786856 230.498678,302.595806 C226.818058,289.279257 216.407114,274.8949 216.302681,274.751289 C216.16243,274.558515 216.204721,274.288975 216.39762,274.148815 C216.590088,274.008223 216.859801,274.050918 217.000484,274.243261 C217.106212,274.388597 227.608643,288.900177 231.33069,302.366374 C231.394127,302.595806 231.259486,302.833432 231.029474,302.896828 C230.991067,302.907178 230.95266,302.912353 230.914253,302.912353" id="Fill-173" fill="#000000"></path>
            <path d="M233.371451,276.294781 C233.256661,276.294781 233.142734,276.24993 233.05772,276.160227 C229.661487,272.572116 227.626768,267.343048 227.541754,267.12181 C227.456309,266.899278 227.567215,266.650439 227.789459,266.564618 C228.011703,266.479228 228.261566,266.590062 228.347011,266.812594 C228.367293,266.864777 230.408486,272.10592 233.684751,275.56724 C233.848305,275.740176 233.840969,276.013166 233.66792,276.177046 C233.584201,276.255967 233.477611,276.294781 233.371451,276.294781" id="Fill-174" fill="#000000"></path>
            <path d="M234.083927,281.99867 C234.003228,281.99867 233.922099,281.976244 233.8496,281.929668 C229.582515,279.169151 227.913311,274.480887 227.844265,274.282506 C227.766156,274.057818 227.885261,273.81286 228.110094,273.734371 C228.334496,273.655449 228.580906,273.774478 228.659447,273.999166 C228.675414,274.045311 230.306642,278.610234 234.318685,281.205576 C234.518921,281.334955 234.576316,281.601476 234.446422,281.802014 C234.363997,281.929236 234.225472,281.99867 234.083927,281.99867" id="Fill-175" fill="#000000"></path>
            <path d="M228.141165,295.386808 C228.09197,295.386808 228.041911,295.378183 227.993147,295.36007 C224.656466,294.140026 219.702798,287.189355 219.493501,286.89394 C219.355839,286.69944 219.401582,286.4299 219.596207,286.292759 C219.790833,286.154754 220.060115,286.201331 220.197777,286.395399 C220.247404,286.465264 225.204092,293.421541 228.289616,294.550589 C228.513586,294.632529 228.628376,294.880074 228.546383,295.103468 C228.482515,295.27813 228.317234,295.386808 228.141165,295.386808" id="Fill-176" fill="#000000"></path>
            <path d="M258.905776,279.384783 C258.690868,279.384783 258.504874,279.224353 258.478118,279.006133 C257.844183,273.855124 261.00911,270.216124 261.144183,270.063026 C261.302127,269.885345 261.574862,269.868957 261.752657,270.025937 C261.931315,270.18378 261.948145,270.456338 261.790633,270.63445 C261.760425,270.669382 258.749989,274.146227 259.334729,278.900474 C259.363642,279.137238 259.195772,279.352007 258.959287,279.381764 C258.941162,279.38392 258.923469,279.384783 258.905776,279.384783" id="Fill-177" fill="#000000"></path>
            <path d="M249.338496,291.802148 C249.1689,291.802148 249.008366,291.701663 248.93932,291.536058 C248.848264,291.316114 248.952697,291.063825 249.172784,290.972397 C254.51527,288.756997 260.209895,284.004907 260.26729,283.957036 C260.449832,283.803938 260.722135,283.827657 260.874901,284.010082 C261.028098,284.192506 261.004795,284.464633 260.821821,284.617732 C260.763995,284.666465 254.967095,289.503514 249.503345,291.76894 C249.449402,291.791366 249.393301,291.802148 249.338496,291.802148" id="Fill-178" fill="#000000"></path>
            <path d="M226.411115,249.186431 C226.355446,249.186431 226.298914,249.175649 226.244539,249.152361 C226.024453,249.060502 225.920883,248.807782 226.012802,248.588269 C227.879651,244.129868 226.613076,238.217679 226.600561,238.158596 C226.549208,237.925714 226.696364,237.695851 226.928965,237.64453 C227.162429,237.594504 227.392009,237.740271 227.443362,237.973153 C227.499031,238.225442 228.782868,244.207064 226.809428,248.921204 C226.739949,249.086809 226.579847,249.186431 226.411115,249.186431" id="Fill-179" fill="#000000"></path>
            <path d="M236.729709,331.737994 C246.89338,331.737994 255.132807,323.504315 255.132807,313.347632 L255.132807,303.272027 L218.327043,303.272027 L218.327043,313.347632 C218.327043,323.504315 226.56647,331.737994 236.729709,331.737994" id="Fill-180" fill="#FFFFFF"></path>
            <path d="M218.758585,303.70329 L218.758585,313.347632 C218.758585,323.250301 226.820648,331.306731 236.730141,331.306731 C246.639202,331.306731 254.700833,323.250301 254.700833,313.347632 L254.700833,303.70329 L218.758585,303.70329 Z M236.730141,332.169257 C226.344657,332.169257 217.895501,323.725984 217.895501,313.347632 L217.895501,303.272027 C217.895501,303.03397 218.088832,302.840764 218.327043,302.840764 L255.132375,302.840764 C255.371018,302.840764 255.563917,303.03397 255.563917,303.272027 L255.563917,313.347632 C255.563917,323.725984 247.115193,332.169257 236.730141,332.169257 L236.730141,332.169257 Z" id="Fill-181" fill="#000000"></path>
        </g>
    </g>
</svg>