<?xml version="1.0" encoding="utf-8"?>
<!-- Generator: Adobe Illustrator 24.0.0, SVG Export Plug-In . SVG Version: 6.00 Build 0)  -->
<svg version="1.1" id="Layer_1" xmlns="http://www.w3.org/2000/svg" xmlns:xlink="http://www.w3.org/1999/xlink" x="0px" y="0px"
	 viewBox="0 0 124.8 124.8" style="enable-background:new 0 0 124.8 124.8;" xml:space="preserve">
<style type="text/css">
	.st0{fill:#FFFFFF;}
	.st1{fill:#026BB0;}
</style>
<title>Asset 3</title>
<g id="Layer_2_1_">
	<g id="Layer_1-2">
		<path class="st0" d="M124.8,62.4c0,34.5-27.9,62.4-62.4,62.4S-0.1,96.9-0.1,62.4S27.9,0,62.3,0c16.5,0,32.3,6.5,44,18.2
			C118.1,29.8,124.8,45.8,124.8,62.4z"/>
		<path class="st1" d="M91.3,88.9l-8.4-4.2c0,0-14.3,26.1-39.4,37.2c-8.8-2.8-16.9-7.5-23.7-13.9c5.5-0.8,14.4-3.6,23.7-12.8
			c15.3-15,18.8-23.3,18.8-23.3l-6.6-4.4c-1.5-1-1.9-3-0.9-4.6c0.4-0.6,1-1,1.6-1.3l28.8-10c1.7-0.6,3.6,0.3,4.2,2
			c0.1,0.2,0.1,0.4,0.2,0.7L94,87c0.1,1-0.6,1.9-1.6,2.1C92,89.1,91.7,89,91.3,88.9z"/>
		<path class="st1" d="M100,52.8c-0.4,1-1.5,1.5-2.5,1.1c-0.6-0.2-1.1-0.8-1.2-1.4l-1.9-11l-14.2,4.4c-1,0.3-2.1-0.3-2.4-1.3
			c-0.1-0.5-0.1-0.9,0.1-1.4c2.9-6.2,5.1-12.7,6.8-19.4c1.6-6.7,1.2-13.6-1.1-20.1c8.5,3.1,16.3,8,22.7,14.4
			C107.5,31.2,103,45.1,100,52.8z"/>
	</g>
</g>
</svg>
