<svg xmlns="http://www.w3.org/2000/svg" viewBox="0 0 124.77 124.77"><defs><style>.cls-1{fill:#333;}.cls-2{fill:#fff;}</style></defs><title>Asset 3</title><g id="Layer_2" data-name="Layer 2"><g id="Layer_1-2" data-name="Layer 1"><path class="cls-1" d="M124.77,62.39a62.43,62.43,0,1,1-18.42-44.27A62.38,62.38,0,0,1,124.77,62.39Z"/><path class="cls-2" d="M91.33,88.88l-8.4-4.2s-14.33,26.09-39.36,37.2A62.17,62.17,0,0,1,19.86,108c5.48-.8,14.38-3.62,23.74-12.83,15.28-15,18.79-23.29,18.79-23.29l-6.56-4.37a3.28,3.28,0,0,1,.74-5.82l28.82-10a3.28,3.28,0,0,1,4.33,2.67L94,87A1.86,1.86,0,0,1,91.33,88.88Z"/><path class="cls-2" d="M100,52.76a1.9,1.9,0,0,1-3.64-.37l-1.92-11L80.21,45.77a1.9,1.9,0,0,1-2.28-2.62A105.75,105.75,0,0,0,84.68,23.8,35.66,35.66,0,0,0,83.63,3.71a62.43,62.43,0,0,1,22.72,14.41C107.5,31.2,103,45.12,100,52.76Z"/></g></g></svg>