<?xml version="1.0" encoding="utf-8"?>
<!-- Generator: Adobe Illustrator 25.2.0, SVG Export Plug-In . SVG Version: 6.00 Build 0)  -->
<svg version="1.1" id="Layer_1" xmlns="http://www.w3.org/2000/svg" xmlns:xlink="http://www.w3.org/1999/xlink" x="0px" y="0px"
	 viewBox="0 0 177.7 286.1" style="enable-background:new 0 0 177.7 286.1;" xml:space="preserve">
<style type="text/css">
	.st0{fill:#DE3E35;}
	.st1{fill:#F05249;}
	.st2{fill:#2A82BB;}
	.st3{fill:#1571AC;}
	.st4{fill:#FCBA62;}
	.st5{fill:#FAA73E;}
	.st6{fill:#C63630;}
	.st7{fill:#6657A5;}
	.st8{fill:#53439B;}
</style>
<g>
	<g>
		<g>
			<path class="st0" d="M126.5,95.9c7.3-4.2,15.4-7.1,23.8-8.4c3.6,2.4,5.9,6,7,10.2c-9.9,7.7-14.1,22-10.5,34
				C134.2,124.3,125.1,110.4,126.5,95.9z"/>
		</g>
	</g>
	<g>
		<g>
			<g>
				<path class="st1" d="M129.2,75c-2-12.7-5.8-25.4-12.9-36.1c-2.5-3.9-5.6-7.5-8.8-10.9c-1.4-1.5-3.3-2.5-4.7-4.1
					c-1.4-1.7-2.3-3.7-2.7-5.8c-0.5-2.2-0.5-4.5-0.3-6.8c0.1-0.9,1.6-6.5,1.2-6.9c-2.6-2.6-6.5-3.8-10.1-3.1
					c-0.4,3.3-1.2,8.1-2.8,11.1c-1.6,3-4.9,0.7-5.5-1.9c-0.2-0.7,0-9.5-0.4-9.6c-3.4-1.4-7.6-0.9-10.5,1.3c0.2,3,3.6,19.1-3.5,15.9
					c-3.7-1.6-2.6-8.8-3.1-12c-3.3-2-8.1-0.9-11,1.6c1.6,6.8,2.9,13.8,2.9,20.9c0,3.1,0.1,5.9-1.1,8.9c-1.2,2.9-2.9,5.6-4.1,8.5
					c-2.1,5.1-4.2,9.9-5.3,15.4C44,73.8,45,86.9,46.9,99.7c0.6,3.8,1.3,7.6,2.8,11c1.6,3.5,4.1,6.7,7.5,8.3
					c4.1,1.9,9.1-0.6,13.6-1.3c4.5-0.7,9.4-2,13-4.8c0.5-13,0.8-42,1.5-43.8c0.7-1.8,3.1-4.2,5-4.5c3.2-0.5,5.7,2.5,7.2,5.4
					c3.5,7.1,4.3,15.3,4.4,23.2c0,7.9-0.6,17,0,24.9c9.9,1.3,20.1-1.7,29.6-4.6C131.3,100.6,131.2,87.7,129.2,75z"/>
			</g>
		</g>
		<g>
			<g>
				<path class="st2" d="M50.3,103.6C49,87.7,51.3,70.8,57,56.1c-4.1-5.5-11.8-8.4-18.7-8.3c0,3.7-0.7,7.5-2,11
					c-1.2-5.2-2.2-10.3-3.2-15.6c-9-0.3-16.5,0-25.6,7.4c8.4,24.3,17.6,50.4,5.9,80c-4.9,12.3-16.1,51.8-1,68.9
					c0-11,45.1-41.9,51.3-51C77.5,128.2,58.2,122.2,50.3,103.6z"/>
			</g>
		</g>
		<g>
			<g>
				<g>
					<path class="st3" d="M50,97.7C49.6,83.6,52,69,57,56.1c-1.4-1.9-3.2-3.5-5.3-4.7c-4.5,9.5-8.4,19.3-10.2,29.7
						c-2,11.4-0.6,19.8-2.6,31.2c-1.2,7.1-15.3,10.2-24.2,30.9c-9.2,21.6-9.6,36.4-2.3,56.2c0-11,45.1-41.9,51.3-51
						c12.1-17.8-1.2-24.6-10-38.5C51.3,106.3,50.1,102.1,50,97.7z"/>
				</g>
			</g>
		</g>
		<g>
			<g>
				<g>
					<path class="st3" d="M36.3,58.8c-1.2-5.2-2.2-10.3-3.2-15.6c-2.6-0.1-5-0.1-7.3,0.1c1.5,8.1,3.4,14.4,7.7,22.3
						C34.5,63.3,35.7,60.8,36.3,58.8z"/>
				</g>
			</g>
		</g>
		<g>
			<g>
				<g>
					<path class="st0" d="M129.2,75c-2-12.7-5.8-25.4-12.9-36.1c-1.5-2.2-3.1-4.4-4.9-6.4c4.5,9.7,7.5,21.8-3.4,25.8
						c-9,3.3-20.6-1.8-27.7,6.5c-5,5.9-6.3,14-6.6,21.7c-0.4,10.1,1.2,22.3-12.8,29.3c2.9-0.8,20.7-1,22.9-2.8c0.5-13,1.3-41,2-42.8
						c0.7-1.8,2.6-5.2,4.5-5.5c3.2-0.5,5.7,2.5,7.2,5.4c3.5,7.1,4.3,15.3,4.4,23.2c0,7.9,0.2,12.8,0.7,20.7c9.5-4.7,19-4.2,28.9-2.6
						C131.3,98.5,131.2,87.7,129.2,75z"/>
				</g>
			</g>
		</g>
		<g>
			<g>
				<path class="st2" d="M82.9,109.1c4.8,4.8,32.3,4.2,35.6-1.7c-0.8-8.1-0.4-9.2,3.7-16.2c2.6-4.4,6.8-7.6,11.5-9.6
					c4.7-2,8.6-2.8,13.7-3.1c4.3-7.4,4.4-18.3-1.9-24.2c-17.3,0-34.6,4.4-48.7,14.3c-1.5-1.6-3-3-7.4-3.6
					C83.1,69.3,82.3,91.3,82.9,109.1z"/>
			</g>
		</g>
		<g>
			<g>
				<g>
					<path class="st3" d="M106,99.4c-3.9,5.3-11.1,5.2-15.4-0.8c-3.2-4.5-2.7-12-2.6-17.3c0.1-4.5,1.8-11.8,5.8-15
						c-1.6-0.7-2-0.9-4.3-1.2c-7,3.4-7.2,26.3-6.6,44.1c4.8,4.8,32.3,4.2,35.6-1.7c-0.8-8.1-0.4-9.2,3.7-16.2
						c2.6-4.4,6.8-7.6,11.5-9.6c4.7-2,8.6-2.8,13.7-3.1c1.7-3,2.8-6.5,3-10C118.4,70.1,111.4,92.1,106,99.4z"/>
				</g>
			</g>
		</g>
		<g>
			<g>
				<path class="st1" d="M121.5,107.9c57.5,3.8,57.4,95.2,55.8,134.2c-0.4,10.9,1.5,24.4-5.2,33.8c-6.3,9-18.9,11.8-29.6,9.6
					c-11.8-2.4-21.1-10.3-32.4-13.5c-12.9-3.6-25.7-8.4-38.2-13.4c-19.7-7.8-36.7-15.8-48.5-34c-10.6-16.4-15.9-36.7-12.3-56.1
					c2.8-14.9,8.4-32.3,21.2-41.1C57.8,110,91.6,105.9,121.5,107.9z"/>
			</g>
		</g>
		<g>
			<g>
				<g>
					<path class="st0" d="M121.5,107.9c-29.9-2-63.7,2.1-89.2,19.5c-5.6,3.9-9.9,9.4-13.1,15.6c19.6-30.7,97.1-39.6,121.4,4.6
						c17.4,31.7,29.8,72.4,15.3,105.4c-7.1,16.1-33.2,9.6-45.7,6.1c-19.1-5.4-37.1-6.9-56.1-12.3c-8.6-2.4-16.9-9.2-25.5-15
						C40.1,245,55,251.9,71.9,258.6c12.5,4.9,25.2,9.7,38.2,13.4c11.3,3.2,20.6,11.1,32.4,13.5c10.8,2.1,23.3-0.7,29.6-9.6
						c6.6-9.4,4.7-22.9,5.2-33.8C178.9,203,179,111.7,121.5,107.9z"/>
				</g>
			</g>
		</g>
		<g>
			<g>
				<path class="st4" d="M125.1,269.6c-1.9-6.4,3.4-10.7,3.6-17.4c0.3-14.1,3.2-17.8,3.5-31.9c0.1-6-2.6-12.4-4.6-17.9
					c-1.9-5.4-6-9.5-7.6-14.8c-1-3.4-1.3-7-2.9-10.2c-2.8-5.9-9.6-10.2-9.7-16.7c-0.1-4.6,3.3-8.5,4.5-13c1.4-5,0.1-10.3-0.4-15.5
					c-0.4-4.6,0.3-8.7,2.8-12.6c0.9-1.4,6.4-11.7,7.2-11.7c-17.1-0.5-45.4-0.1-52,3.3c-1.9,0.4-3.7,0.8-5.1,1.1
					c-25.4,5.3-41.9,30.6-49.9,55.3c-8,24.7-15.7,25,1.9,44.1c5,20.9,20.8,33.1,40.5,40.7c-4.1-3.1-8.1-6.4-11.6-10.2
					c-3-3.3-6.8-5.5-9.8-8.8c-2.8-3-4.7-6.9-4.3-11c0.2-1.8,0.8-3.6,0.4-5.3c-0.7-2.8-3.8-4.4-5.2-6.9c-2.1-3.6-0.4-8.2,1.4-12
					c2.2-4.8,2.3-9.8,4.7-14.5c2.6-5,6.8-9,10.8-12.8c3.3-3.1,6.7-6.2,11-7.4c3-0.8,6.3-0.6,8.7-2.5c9.7-7.8,6.6-32.9,22.5-33.4
					c2.3-0.1,4.4,0.8,6.5,1.6c7.6,3,5.3,9.7,4.2,16.1c-1.3,7.7-0.1,19.1,3.6,26.1c2.1,4,6.7,7.1,8.3,11c2.1,4.8-2,10.6,0.3,15.6
					c0.8,1.9,2.4,3.3,3.6,5c3.8,5.6,1,15.6,1.7,22c0.7,6.1,2.7,12,4,18.1c1.2,6.1,1.5,12.6-1,18.2c-2.6,5.6-7.4,16.5,19.3,22.5
					C129.7,281.4,127.1,276.1,125.1,269.6z"/>
			</g>
		</g>
		<g>
			<g>
				<g>
					<path class="st5" d="M75.7,128.3c-5.2,3.7-8,10-9.8,16.2c-1.4,4.8-2.5,10.3-6.7,13.2c-2.6,1.8-6,2.2-9.1,3
						c-5.1,1.3-9.9,4-13.7,7.7c-4.4,4.2-7.5,9.7-9.8,15.4c-4.6,11.3-6.4,24.4-1.4,35.5c1.5,3.3,3.2,7.8,0.2,9.8
						c-0.5-0.1-1-0.3-1.4-0.4c7.6,11,19.3,18.4,32.9,23.6c-4.1-3.1-8.1-6.4-11.6-10.2c-3-3.3-6.8-5.5-9.8-8.8c-2.8-3-4.7-6.9-4.3-11
						c0.2-1.8,0.8-3.6,0.4-5.3c-0.7-2.8-3.8-4.4-5.2-6.9c-2.1-3.6-0.4-8.2,1.4-12c2.2-4.8,2.3-9.8,4.7-14.5c2.6-5,6.8-9,10.8-12.8
						c3.3-3.1,6.7-6.2,11-7.4c3-0.8,6.3-0.6,8.7-2.5c9.7-7.8,6.6-32.9,22.5-33.4c2.3-0.1,4.4,0.8,6.5,1.6c0.6,0.2,1.1,0.5,1.5,0.7
						c-0.1-0.1-0.2-0.3-0.3-0.4C89.1,124.4,81,124.6,75.7,128.3z"/>
				</g>
			</g>
			<g>
				<g>
					<path class="st5" d="M136.1,283.6c-6.3-2.2-9-7.5-11-14c-1.9-6.4,3.4-10.7,3.6-17.4c0.3-14.1,3.2-17.8,3.5-31.9
						c0.1-6-2.6-12.4-4.6-17.9c-1.9-5.4-6-9.5-7.6-14.8c-1-3.4-1.3-7-2.9-10.2c-2.8-5.9-9.6-10.2-9.7-16.7c-0.1-4.6,3.3-8.5,4.5-13
						c1.4-5,0.1-10.3-0.4-15.5c-0.4-4.6,0.3-8.7,2.8-12.6c0.9-1.4,6.5-11.8,7.2-11.7c-18.6-2.8-45.4-0.1-52,3.3
						c-1.9,0.4-3.7,0.8-5.1,1.1c-25.4,5.3-41.9,30.6-49.9,55.3c-7.8,24.1-15.3,25,0.7,42.7c-0.4-5.7,0-11.5,1.2-17.1
						c2.7-12.8,9.6-24.6,19.4-33.3c7.5-6.6,16.4-11.3,24-17.8c7.6-6.4,13.6-14.8,13.3-24.8c6.9-4.2,17.4-7.2,24-1.7
						c6.9,5.8,12.5,14.1,11.5,23.5c-0.9,8.6-5,16-4.4,25c0.3,4.1,1.6,8.3,4.5,11.3c1.5,1.6,3.5,2.8,5,4.5c3.8,4.3,5.7,13,8.2,18.3
						c1.1,2.3,2.6,4.5,3.4,7c1.3,3.6,0.1,6.3,0.5,9.9c0.3,2.7,2,5.5,3.1,8c2.4,5.6-0.4,11.7-1.2,17.5c-1,7.7-2.9,15.2-4.8,22.7
						c-0.6,2.5-1.4,5.3-3.6,6.8c-1.3,0.9-3.1,0.8-4.4,0.1C115.6,274.9,120.4,280.1,136.1,283.6z"/>
				</g>
			</g>
		</g>
		<g>
			<g>
				<path class="st3" d="M127.1,226.6c-0.2,0-0.5-0.1-0.6-0.3c-9.8-12.4-18.5-24.8-17.6-39c0.2-2.6,0.6-5.2,1.1-7.8
					c0.9-5.1,1.8-10,0.2-14.6c-0.8-2.3-2.2-4.3-3.6-6.4c-1.1-1.6-2.2-3.3-3-5c-3.1-6.4-2.5-13.7-2-20.7c0.1-1.3,0.2-2.7,0.3-4
					c0.4-7.3-0.5-17-7.2-21.7c-0.4-0.3-0.5-0.8-0.2-1.1c0.3-0.4,0.8-0.5,1.1-0.2c5.8,4,8.5,12,7.9,23.1c-0.1,1.3-0.2,2.7-0.3,4
					c-0.5,6.8-1,13.9,1.9,19.9c0.8,1.7,1.9,3.3,2.9,4.8c1.4,2.1,2.9,4.3,3.8,6.8c1.7,5,0.8,10.3-0.2,15.4c-0.5,2.5-0.9,5.1-1.1,7.6
					c-0.8,13.7,7.7,25.8,17.3,37.9c0.3,0.4,0.2,0.9-0.1,1.1C127.4,226.6,127.2,226.6,127.1,226.6z"/>
			</g>
		</g>
		<g>
			<g>
				<path class="st3" d="M132.2,192.2c-0.4,0-0.8-0.3-0.8-0.7c-0.4-4-4.8-6.6-8.7-7.6c-0.8-0.2-1.7-0.3-2.5-0.5
					c-3.6-0.5-7.6-1.1-9.5-8.1c-0.1-0.4,0.1-0.9,0.6-1c0.4-0.1,0.9,0.1,1,0.6c1.6,6,4.6,6.4,8.1,6.9c0.9,0.1,1.8,0.3,2.7,0.5
					c4.4,1.1,9.4,4.1,9.9,9C133,191.7,132.7,192.1,132.2,192.2C132.2,192.2,132.2,192.2,132.2,192.2z"/>
			</g>
		</g>
		<g>
			<g>
				<path class="st3" d="M97.1,173c-0.4,0-0.8-0.3-0.8-0.7c-1-7.9,1-16.3,5.4-23c0.2-0.4,0.8-0.5,1.1-0.2c0.4,0.2,0.5,0.8,0.2,1.1
					c-4.2,6.3-6.1,14.3-5.2,21.9c0.1,0.4-0.3,0.8-0.7,0.9C97.1,173,97.1,173,97.1,173z"/>
			</g>
		</g>
		<g>
			<g>
				<path class="st3" d="M135.5,220.3c-0.1,0-0.2,0-0.3-0.1c-0.4-0.2-0.6-0.6-0.5-1c1.6-4.1-0.7-8.5-2.2-10.7c-0.9-1.4-2-2.7-3-4
					c-1.5-1.9-3-3.8-4.2-6c-2.5-4.5-3.1-10-1.8-15c0.1-0.4,0.6-0.7,1-0.6c0.4,0.1,0.7,0.6,0.6,1c-1.2,4.6-0.6,9.7,1.6,13.8
					c1.1,2,2.6,3.9,4,5.7c1,1.3,2.1,2.6,3.1,4.1c1.7,2.5,4.2,7.5,2.4,12.2C136.2,220.1,135.8,220.3,135.5,220.3z"/>
			</g>
		</g>
		<g>
			<g>
				<path class="st3" d="M126.7,146.4c0,0-0.1,0-0.1,0c-0.4-0.1-0.7-0.5-0.7-0.9c0.5-3.3-2-6.4-4.7-8c-2.1-1.2-4.4-1.9-6.9-2.6
					c-1-0.3-2.1-0.6-3.1-0.9c-4.5-1.5-7.5-3.7-9-6.7c-0.2-0.4,0-0.9,0.4-1.1c0.4-0.2,0.9,0,1.1,0.4c1.2,2.5,3.9,4.5,8,5.8
					c1,0.3,2,0.6,3.1,0.9c2.5,0.7,5,1.4,7.3,2.7c3.2,1.9,6.2,5.6,5.5,9.6C127.5,146.1,127.1,146.4,126.7,146.4z"/>
			</g>
		</g>
		<g>
			<g>
				<path class="st3" d="M84.5,185.9C84.5,185.9,84.5,185.9,84.5,185.9c-0.5-0.1-0.9-0.5-0.8-0.9c0.1-1.2,0.2-2.4,0.3-3.5
					c0.3-3.9,0.7-8,2-11.8c2.4-7,7.4-10.1,11.2-10.7c0.4-0.1,0.9,0.2,0.9,0.7c0.1,0.4-0.2,0.9-0.7,0.9c-3.3,0.5-7.7,3.4-9.9,9.7
					c-1.3,3.6-1.6,7.6-1.9,11.4c-0.1,1.2-0.2,2.4-0.3,3.5C85.3,185.6,84.9,185.9,84.5,185.9z"/>
			</g>
		</g>
		<g>
			<g>
				<path class="st3" d="M68.8,232.1c-0.2,0-0.4-0.1-0.6-0.2c-6.5-6.2-10.1-15.3-9.6-24.3c0.1-1.9,0.4-3.8,0.6-5.6
					c0.7-4.9,1.3-9.6-0.8-13.7c-1.8-3.5-5.2-5.6-8.9-7.9c-1.5-1-3.1-1.9-4.6-3.1c-7.9-6-12.1-16.1-10.8-25.9
					c0.1-0.4,0.5-0.8,0.9-0.7c0.4,0.1,0.8,0.5,0.7,0.9c-1.2,9.2,2.8,18.8,10.2,24.4c1.4,1.1,3,2,4.5,3c3.7,2.3,7.4,4.6,9.5,8.5
					c2.3,4.5,1.6,9.7,0.9,14.6c-0.3,1.8-0.5,3.7-0.6,5.5c-0.5,8.5,2.9,17.1,9.1,23.1c0.3,0.3,0.3,0.8,0,1.1
					C69.3,232,69,232.1,68.8,232.1z"/>
			</g>
		</g>
		<g>
			<g>
				<path class="st3" d="M45.5,211.3c-0.3,0-0.5-0.1-0.7-0.4c-3.9-6.3-4.2-14.5-0.8-21.1c1.9-3.8,3.6-8.2,0.9-12.8
					c-0.2-0.4-0.1-0.9,0.3-1.1c0.4-0.2,0.9-0.1,1.1,0.3c3.4,5.9,0.4,11.8-0.9,14.3c-3.1,6.1-2.8,13.7,0.8,19.5
					c0.2,0.4,0.1,0.9-0.3,1.1C45.8,211.3,45.6,211.3,45.5,211.3z"/>
			</g>
		</g>
		<g>
			<g>
				<path class="st3" d="M79.7,224.7c-0.4,0-0.8-0.4-0.8-0.8c-0.1-4.1-2.4-8.2-5.9-10.3c-1.4-0.9-3-1.5-4.6-2.1
					c-1.1-0.4-2.3-0.9-3.5-1.4c-3.1-1.5-5.1-7.4-5.3-10.3c0-0.4,0.3-0.8,0.7-0.9c0.4,0,0.8,0.3,0.9,0.7c0.2,2.8,2.2,7.8,4.4,8.9
					c1.1,0.5,2.2,1,3.3,1.4c1.6,0.6,3.3,1.3,4.9,2.2c3.9,2.4,6.5,7,6.6,11.7C80.5,224.3,80.2,224.7,79.7,224.7
					C79.7,224.7,79.7,224.7,79.7,224.7z"/>
			</g>
		</g>
		<g>
			<g>
				<path class="st6" d="M146.9,220.7c-0.1,0-0.2,0-0.3-0.1c-0.4-0.2-0.6-0.6-0.5-1c2.2-5.6,1.1-12.3-3.4-21.2
					c-0.5-1.1-1.1-2.2-1.7-3.3c-3-5.7-6.1-11.7-6.5-18.2c-0.2-5.2,1.3-10.2,2.8-15c0.6-2.1,1.3-4.2,1.8-6.4c1.5-6.2-0.5-14-5.6-21.9
					c-8.5-13.3-23.4-23.5-38.7-26.5c-0.4-0.1-0.7-0.5-0.6-1c0.1-0.4,0.5-0.7,1-0.6c15.7,3.1,31,13.6,39.8,27.3
					c5.3,8.3,7.4,16.5,5.8,23.1c-0.5,2.2-1.2,4.4-1.8,6.5c-1.4,4.7-2.9,9.6-2.7,14.4c0.3,6.2,3.3,12,6.3,17.6
					c0.6,1.1,1.1,2.2,1.7,3.3c3,5.9,6.6,14.6,3.5,22.5C147.5,220.5,147.2,220.7,146.9,220.7z"/>
			</g>
		</g>
		<g>
			<g>
				<path class="st6" d="M152,195.4C152,195.4,152,195.4,152,195.4c-0.5,0-0.9-0.4-0.8-0.9c0.3-3.2-1.1-6.7-4.3-10.5
					c-0.8-1-1.7-1.9-2.6-2.9c-1.9-2.1-3.9-4.2-5.3-6.7c-1.5-2.6-2.4-5.6-2.5-8.7c0-0.4,0.3-0.8,0.8-0.8c0.5,0,0.8,0.3,0.8,0.8
					c0.1,2.8,0.9,5.5,2.3,7.9c1.3,2.3,3.2,4.3,5.1,6.4c0.9,0.9,1.8,1.9,2.6,2.9c3.4,4.1,5,8,4.6,11.7
					C152.8,195.1,152.5,195.4,152,195.4z"/>
			</g>
		</g>
		<g>
			<g>
				<path class="st6" d="M118.2,171.5C118.2,171.5,118.2,171.5,118.2,171.5c-0.5,0-0.8-0.4-0.8-0.9c0.3-5,3-10,7.4-13.6
					c3.6-3,8.4-5.2,14.1-6.4c0.4-0.1,0.9,0.2,1,0.6c0.1,0.4-0.2,0.9-0.6,1c-5.5,1.2-10,3.3-13.5,6.1c-4.1,3.4-6.5,7.9-6.8,12.5
					C119,171.2,118.7,171.5,118.2,171.5z"/>
			</g>
		</g>
		<g>
			<g>
				<path class="st6" d="M129.1,181.9c-0.1,0-0.2,0-0.3-0.1c-0.4-0.2-0.6-0.6-0.4-1.1c0.9-2.1-0.2-4.5-1.2-6.2
					c-0.3-0.5-0.7-1.1-1-1.6c-1-1.6-2.1-3.2-2.6-5.1c-1.1-4.4,1.1-10.8,7.5-14.8c0.4-0.2,0.9-0.1,1.1,0.3c0.2,0.4,0.1,0.9-0.3,1.1
					c-5.7,3.5-7.7,9.2-6.8,13c0.4,1.6,1.4,3.1,2.4,4.6c0.4,0.5,0.7,1.1,1.1,1.6c1.8,2.9,2.2,5.6,1.3,7.7
					C129.8,181.7,129.5,181.9,129.1,181.9z"/>
			</g>
		</g>
		<g>
			<g>
				<path class="st6" d="M101.1,211.2c-0.1,0-0.3,0-0.4-0.1c-4.5-2.4-9.2-5-13.2-8.3c-4.6-3.8-7.7-8.2-9.1-12.8
					c-0.2-0.8-0.5-1.5-0.7-2.2c-0.8-2.4-1.5-4.7-1.8-7.3c-0.1-0.6-0.1-1.2-0.2-1.8c-0.3-2.5-0.6-4.9-1.7-7.1c-1.5-3-4.7-5.4-8.8-6.7
					c-2.2-0.7-4.6-0.9-6.8-1.1c-2-0.2-4-0.4-6-0.9c-3.4-0.8-6.9-1.8-10.3-3.4c-7.7-3.6-12-9.4-12-16.3c0-0.4,0.4-0.8,0.8-0.8
					c0,0,0,0,0,0c0.4,0,0.8,0.4,0.8,0.8c0,8.4,6.9,12.9,11,14.8c3.2,1.5,6.7,2.5,10,3.3c1.9,0.5,3.8,0.7,5.8,0.9
					c2.3,0.2,4.8,0.5,7.1,1.2c4.5,1.4,8,4,9.7,7.5c1.2,2.4,1.5,5.1,1.8,7.7c0.1,0.6,0.1,1.2,0.2,1.8c0.3,2.5,1,4.7,1.8,7.1
					c0.2,0.7,0.5,1.5,0.7,2.3c1.3,4.3,4.2,8.5,8.5,12.1c3.9,3.3,8.5,5.7,12.9,8.1c0.4,0.2,0.5,0.7,0.3,1.1
					C101.7,211.1,101.4,211.2,101.1,211.2z"/>
			</g>
		</g>
		<g>
			<g>
				<path class="st6" d="M84.5,164.9c-0.2,0-0.4-0.1-0.6-0.2c-3.9-3.9-10.3-3.9-14.9-3.3c-5,0.7-14.9,1.5-25.2-1.2
					c-0.4-0.1-0.7-0.5-0.6-1c0.1-0.4,0.5-0.7,1-0.6c10.1,2.5,19.7,1.8,24.6,1.1c5-0.7,11.8-0.6,16.3,3.8c0.3,0.3,0.3,0.8,0,1.1
					C84.9,164.8,84.7,164.9,84.5,164.9z"/>
			</g>
		</g>
		<g>
			<g>
				<path class="st6" d="M92.8,237.5C92.8,237.5,92.8,237.5,92.8,237.5c-0.5,0-0.8-0.4-0.8-0.9c0.4-8.2,0.9-17.5-2.7-25.4
					c-1.3-2.9-3-5.2-4.6-7.4c-2.7-3.7-5.2-7.1-5.7-12.4c0-0.4,0.3-0.8,0.7-0.9c0.4,0,0.8,0.3,0.9,0.7c0.4,4.9,2.8,8.1,5.4,11.6
					c1.7,2.3,3.4,4.7,4.8,7.7c3.7,8.3,3.3,17.8,2.8,26.2C93.6,237.1,93.2,237.5,92.8,237.5z"/>
			</g>
		</g>
		<g>
			<g>
				<path class="st6" d="M117.5,245.4c-0.1,0-0.3,0-0.4-0.1c-9.5-4.9-18.7-13.9-25.2-24.6c-0.2-0.4-0.1-0.9,0.3-1.1
					c0.4-0.2,0.9-0.1,1.1,0.3c6.3,10.5,15.2,19.2,24.5,24c0.4,0.2,0.6,0.7,0.3,1.1C118,245.2,117.8,245.4,117.5,245.4z"/>
			</g>
		</g>
		<g>
			<g>
				<path class="st6" d="M112.6,256.4c-0.2,0-0.3,0-0.4-0.1c-7.1-4.7-12-15.1-10.6-22.8c0.1-0.4,0.5-0.7,0.9-0.7
					c0.4,0.1,0.7,0.5,0.7,0.9c-1.3,7,3.3,16.9,9.9,21.2c0.4,0.2,0.5,0.7,0.2,1.1C113.1,256.3,112.9,256.4,112.6,256.4z"/>
			</g>
		</g>
		<g>
			<g>
				<path class="st7" d="M13.4,130.5c-13.3,12.4-23.2,59.2,3.1,81c-8.5-40.9,9.8-48.1,15.6-54.3c4.9-5.3,43.7-31.2,36.4-45.4
					C44.3,108.8,28.3,116.6,13.4,130.5z"/>
			</g>
		</g>
		<g>
			<g>
				<g>
					<path class="st8" d="M68.5,111.8c-3.6-0.4-6.9-0.7-10-0.9c16.1,16.1-41.6,44.6-46.6,72.9c-0.5,2.9-1.8,11.1-8.3,5.6
						c-0.1-0.1-0.3,0.1-0.5,0.1c2.3,8.6,6.6,16.3,13.5,22C-0.7,149.7,85.9,144.7,68.5,111.8z"/>
				</g>
			</g>
		</g>
	</g>
</g>
</svg>
