<?xml version="1.0" encoding="UTF-8"?>
<svg width="98px" height="94px" viewBox="0 0 98 94" version="1.1" xmlns="http://www.w3.org/2000/svg" xmlns:xlink="http://www.w3.org/1999/xlink">
    <title>Homework_sm</title>
    <g id="01.-Home" stroke="none" stroke-width="1" fill="none" fill-rule="evenodd">
        <g id="Portal_Approved" transform="translate(-328.000000, -1877.000000)">
            <g id="Group-49" transform="translate(328.000000, 1760.000000)">
                <g id="Homework_sm" transform="translate(0.000000, 118.000000)">
                    <path d="M30.6160673,19.9790234 C2.5460673,2.48802337 -3.0499327,35.3360234 1.3330673,52.8860234 C6.7950673,74.7590234 -7.1719327,84.8020234 5.9850673,91.6560234 C19.6400673,98.7710234 35.6590673,73.6090234 68.1460673,77.6410234 C110.324067,82.8750234 105.231067,33.8600234 60.9730673,33.3170234 C49.8330673,33.1820234 42.6010673,27.4470234 30.6160673,19.9790234" id="Fill-1" fill="#026BB0" opacity="0.102143787"></path>
                    <g id="Group-26" transform="translate(24.000000, 0.000000)" stroke="#026BB0">
                        <g id="Group-16" transform="translate(0.000000, 3.205395)">
                            <g id="noun_Question_2356610" transform="translate(5.557500, 10.003500)" fill="#026BB0" fill-rule="nonzero" stroke-width="0.5">
                                <g id="Group">
                                    <path d="M0.833082314,41.4504822 L10.7269516,41.4504822 C10.9724802,41.4504822 11.1715516,41.2516279 11.1715516,41.0058822 L11.1715516,31.11223 C11.1715516,30.8664843 10.9724802,30.66763 10.7269516,30.66763 L0.833082314,30.66763 C0.587553707,30.66763 0.38848233,30.8664843 0.38848233,31.11223 L0.38848233,41.0058822 C0.38848233,41.2516279 0.587553707,41.4504822 0.833082314,41.4504822 Z M1.2776823,31.55683 L10.2823516,31.55683 L10.2823516,40.5612822 L1.2776823,40.5612822 L1.2776823,31.55683 Z" id="Shape"></path>
                                    <path d="M14.9500002,18.7185713 L34.7346995,18.7185713 C34.9802281,18.7185713 35.1792995,18.519717 35.1792995,18.2739713 C35.1792995,18.0282256 34.9802281,17.8293713 34.7346995,17.8293713 L14.9500002,17.8293713 C14.7044716,17.8293713 14.5054002,18.0282256 14.5054002,18.2739713 C14.5054002,18.519717 14.7044716,18.7185713 14.9500002,18.7185713 Z" id="Path"></path>
                                    <path d="M14.9500002,3.65839791 L34.7346995,3.65839791 C34.9802281,3.65839791 35.1792995,3.45954363 35.1792995,3.21379793 C35.1792995,2.96805222 34.9802281,2.76919794 34.7346995,2.76919794 L14.9500002,2.76919794 C14.7044716,2.76919794 14.5054002,2.96805222 14.5054002,3.21379793 C14.5054002,3.45954363 14.7044716,3.65839791 14.9500002,3.65839791 Z" id="Path-Copy"></path>
                                    <path d="M14.9500002,23.0738276 L30.2886997,23.0738276 C30.5342283,23.0738276 30.7332996,22.8749733 30.7332996,22.6292276 C30.7332996,22.3834819 30.5342283,22.1846276 30.2886997,22.1846276 L14.9500002,22.1846276 C14.7044716,22.1846276 14.5054002,22.3834819 14.5054002,22.6292276 C14.5054002,22.8749733 14.7044716,23.0738276 14.9500002,23.0738276 Z" id="Path"></path>
                                    <path d="M14.9500002,8.01365419 L30.2886997,8.01365419 C30.5342283,8.01365419 30.7332996,7.81479991 30.7332996,7.5690542 C30.7332996,7.3233085 30.5342283,7.12445422 30.2886997,7.12445422 L14.9500002,7.12445422 C14.7044716,7.12445422 14.5054002,7.3233085 14.5054002,7.5690542 C14.5054002,7.81479991 14.7044716,8.01365419 14.9500002,8.01365419 Z" id="Path-Copy-2"></path>
                                    <path d="M14.9500002,34.3264621 L34.7346995,34.3264621 C34.9802281,34.3264621 35.1792995,34.1276078 35.1792995,33.8818621 C35.1792995,33.6361164 34.9802281,33.4372622 34.7346995,33.4372622 L14.9500002,33.4372622 C14.7044716,33.4372622 14.5054002,33.6361164 14.5054002,33.8818621 C14.5054002,34.1276078 14.7044716,34.3264621 14.9500002,34.3264621 Z" id="Path"></path>
                                    <path d="M14.9500002,38.6812843 L30.2886997,38.6812843 C30.5342283,38.6812843 30.7332996,38.48243 30.7332996,38.2366843 C30.7332996,37.9909386 30.5342283,37.7920843 30.2886997,37.7920843 L14.9500002,37.7920843 C14.7044716,37.7920843 14.5054002,37.9909386 14.5054002,38.2366843 C14.5054002,38.48243 14.7044716,38.6812843 14.9500002,38.6812843 Z" id="Path"></path>
                                    <path d="M8.06369349,33.8692709 L4.62694428,37.305803 L3.49634039,36.1751992 C3.32266852,36.0015273 3.0413201,36.0015273 2.86764823,36.1751992 C2.69397636,36.348871 2.69397636,36.6302195 2.86764823,36.8038913 L4.31259818,38.2488413 C4.39943411,38.3356772 4.5131892,38.3790952 4.62694428,38.3790952 C4.74069937,38.3790952 4.85445445,38.3356772 4.94129039,38.2488413 L8.69238566,34.4979631 C8.86605753,34.3242912 8.86605753,34.0429428 8.69238566,33.8692709 C8.51871379,33.6955991 8.23736536,33.6955991 8.06369349,33.8692709 Z" id="Path"></path>
                                    <path d="M0.833082314,25.8430255 L10.7269516,25.8430255 C10.9724802,25.8430255 11.1715516,25.6441712 11.1715516,25.3984255 L11.1715516,15.5047734 C11.1715516,15.2590276 10.9724802,15.0601734 10.7269516,15.0601734 L0.833082314,15.0601734 C0.587553707,15.0601734 0.38848233,15.2590276 0.38848233,15.5047734 L0.38848233,25.3984256 C0.38848233,25.6441712 0.587553707,25.8430255 0.833082314,25.8430255 Z M1.2776823,15.9493733 L10.2823516,15.9493733 L10.2823516,24.9538256 L1.2776823,24.9538256 L1.2776823,15.9493733 Z" id="Shape"></path>
                                    <path d="M0.833082314,10.7828521 L10.7269516,10.7828521 C10.9724802,10.7828521 11.1715516,10.5839979 11.1715516,10.3382521 L11.1715516,0.444599985 C11.1715516,0.198854279 10.9724802,-4.08562073e-14 10.7269516,-4.08562073e-14 L0.833082314,-4.08562073e-14 C0.587553707,-4.08562073e-14 0.38848233,0.198854279 0.38848233,0.444599985 L0.38848233,10.3382522 C0.38848233,10.5839979 0.587553707,10.7828521 0.833082314,10.7828521 Z M1.2776823,0.889199969 L10.2823516,0.889199969 L10.2823516,9.89365221 L1.2776823,9.89365221 L1.2776823,0.889199969 Z" id="Shape-Copy-2"></path>
                                    <path d="M8.13598439,18.0955234 C7.96231252,17.9218516 7.68096409,17.9218516 7.50729222,18.0955234 L5.78001692,19.8229073 L4.05274162,18.0955234 C3.87906975,17.9218516 3.59772133,17.9218516 3.42404946,18.0955234 C3.25037759,18.2691953 3.25037759,18.5505437 3.42404946,18.7242156 L5.15135192,20.4515994 L3.4240495,22.1789833 C3.25037763,22.3526551 3.25037763,22.6340036 3.4240495,22.8076754 C3.51088544,22.8945114 3.62464052,22.9379293 3.73839561,22.9379293 C3.85215069,22.9379293 3.96590578,22.8945114 4.05274171,22.8076754 L5.78001701,21.0802916 L7.50729231,22.8076754 C7.59412824,22.8945114 7.70788333,22.9379293 7.82163841,22.9379293 C7.9353935,22.9379293 8.04914858,22.8945114 8.13598452,22.8076754 C8.30965639,22.6340036 8.30965639,22.3526551 8.13598452,22.1789833 L6.40868197,20.4515994 L8.13598439,18.7242156 C8.30965625,18.5505437 8.30965625,18.2691953 8.13598439,18.0955234 Z" id="Path"></path>
                                </g>
                            </g>
                            <rect id="Rectangle" stroke-width="2.0006999" x="1.00034995" y="1.00034995" width="45.7937977" height="59.1317971" rx="3.33449984"></rect>
                        </g>
                        <path d="M7.84598203,0 L44.5441144,0 L48.3920485,0 C49.96606,-4.48315041e-15 51.2420484,1.27598845 51.2420484,2.84999996 L51.2420484,57.5351748 L51.2420484,57.5351748" id="Path-4" stroke-width="1.70999998"></path>
                    </g>
                </g>
            </g>
        </g>
    </g>
</svg>