<?xml version="1.0" encoding="UTF-8"?>
<svg width="86px" height="109px" viewBox="0 0 86 109" version="1.1" xmlns="http://www.w3.org/2000/svg" xmlns:xlink="http://www.w3.org/1999/xlink">
    <title>homework</title>
    <g id="01.-Home" stroke="none" stroke-width="1" fill="none" fill-rule="evenodd">
        <g id="Portal_Approved" transform="translate(-472.000000, -833.000000)" stroke="#026BB0">
            <g id="Group-50" transform="translate(-382.000000, 735.000000)">
                <g id="Group-32" transform="translate(712.000000, 0.000000)">
                    <g id="Group-37" transform="translate(41.081739, 99.078947)">
                        <g id="homework" transform="translate(101.000000, 0.000000)">
                            <g id="Group-16" transform="translate(0.000000, 5.220339)">
                                <g id="noun_Question_2356610" transform="translate(9.908265, 16.657627)" fill="#026BB0" fill-rule="nonzero" stroke-width="0.5">
                                    <g id="Group">
                                        <path d="M0.740872497,69.0225131 L17.2278178,69.0225131 C17.6369618,69.0225131 17.9686903,68.691385 17.9686903,68.2821741 L17.9686903,51.8074626 C17.9686903,51.3982517 17.6369618,51.0671236 17.2278178,51.0671236 L0.740872497,51.0671236 C0.33172855,51.0671236 0,51.3982517 0,51.8074626 L0,68.2821741 C0,68.691385 0.33172855,69.0225131 0.740872497,69.0225131 Z M1.48174499,52.5478016 L16.4869454,52.5478016 L16.4869454,67.5418352 L1.48174499,67.5418352 L1.48174499,52.5478016 Z" id="Shape"></path>
                                        <path d="M24.2650213,31.1697902 L57.2338474,31.1697902 C57.6429913,31.1697902 57.9747199,30.838662 57.9747199,30.4294512 C57.9747199,30.0202403 57.6429913,29.6891122 57.2338474,29.6891122 L24.2650213,29.6891122 C23.8558773,29.6891122 23.5241488,30.0202403 23.5241488,30.4294512 C23.5241488,30.838662 23.8558773,31.1697902 24.2650213,31.1697902 Z" id="Path"></path>
                                        <path d="M24.2650213,6.09189096 L57.2338474,6.09189096 C57.6429913,6.09189096 57.9747199,5.7607628 57.9747199,5.35155197 C57.9747199,4.94234114 57.6429913,4.61121297 57.2338474,4.61121297 L24.2650213,4.61121297 C23.8558773,4.61121297 23.5241488,4.94234114 23.5241488,5.35155197 C23.5241488,5.7607628 23.8558773,6.09189096 24.2650213,6.09189096 Z" id="Path-Copy"></path>
                                        <path d="M24.2650213,38.4220757 L49.8251224,38.4220757 C50.2342663,38.4220757 50.5659949,38.0909476 50.5659949,37.6817367 C50.5659949,37.2725259 50.2342663,36.9413977 49.8251224,36.9413977 L24.2650213,36.9413977 C23.8558773,36.9413977 23.5241488,37.2725259 23.5241488,37.6817367 C23.5241488,38.0909476 23.8558773,38.4220757 24.2650213,38.4220757 Z" id="Path"></path>
                                        <path d="M24.2650213,13.3441765 L49.8251224,13.3441765 C50.2342663,13.3441765 50.5659949,13.0130484 50.5659949,12.6038375 C50.5659949,12.1946267 50.2342663,11.8634985 49.8251224,11.8634985 L24.2650213,11.8634985 C23.8558773,11.8634985 23.5241488,12.1946267 23.5241488,12.6038375 C23.5241488,13.0130484 23.8558773,13.3441765 24.2650213,13.3441765 Z" id="Path-Copy-2"></path>
                                        <path d="M24.2650213,57.1597375 L57.2338474,57.1597375 C57.6429913,57.1597375 57.9747199,56.8286094 57.9747199,56.4193985 C57.9747199,56.0101877 57.6429913,55.6790596 57.2338474,55.6790596 L24.2650213,55.6790596 C23.8558773,55.6790596 23.5241488,56.0101877 23.5241488,56.4193985 C23.5241488,56.8286094 23.8558773,57.1597375 24.2650213,57.1597375 Z" id="Path"></path>
                                        <path d="M24.2650213,64.4113002 L49.8251224,64.4113002 C50.2342663,64.4113002 50.5659949,64.080172 50.5659949,63.6709612 C50.5659949,63.2617503 50.2342663,62.9306222 49.8251224,62.9306222 L24.2650213,62.9306222 C23.8558773,62.9306222 23.5241488,63.2617503 23.5241488,63.6709612 C23.5241488,64.080172 23.8558773,64.4113002 24.2650213,64.4113002 Z" id="Path"></path>
                                        <path d="M12.7898179,56.3984319 L7.06288798,62.1208764 L5.17887234,60.2382174 C4.88946902,59.9490225 4.42063564,59.9490225 4.13123232,60.2382174 C3.841829,60.5274124 3.841829,60.9959081 4.13123232,61.2851031 L6.53906794,63.6912048 C6.6837696,63.8358022 6.87332879,63.908101 7.06288798,63.908101 C7.25244717,63.908101 7.44200637,63.8358022 7.58670803,63.6912048 L13.8374579,57.4453175 C14.1268613,57.1561226 14.1268613,56.6876268 13.8374579,56.3984319 C13.5480546,56.109237 13.0792213,56.109237 12.7898179,56.3984319 Z" id="Path"></path>
                                        <path d="M0.740872497,43.0332887 L17.2278178,43.0332887 C17.6369618,43.0332887 17.9686903,42.7021605 17.9686903,42.2929497 L17.9686903,25.8182382 C17.9686903,25.4090274 17.6369618,25.0778992 17.2278178,25.0778992 L0.740872497,25.0778992 C0.33172855,25.0778992 0,25.4090274 0,25.8182382 L0,42.2929498 C0,42.7021605 0.33172855,43.0332887 0.740872497,43.0332887 Z M1.48174499,26.5585772 L16.4869454,26.5585772 L16.4869454,41.5526108 L1.48174499,41.5526108 L1.48174499,26.5585772 Z" id="Shape"></path>
                                        <path d="M0.740872497,17.9553895 L17.2278178,17.9553895 C17.6369618,17.9553895 17.9686903,17.6242613 17.9686903,17.2150505 L17.9686903,0.740338994 C17.9686903,0.331128164 17.6369618,0 17.2278178,0 L0.740872497,0 C0.33172855,0 0,0.331128164 0,0.740338994 L0,17.2150506 C0,17.6242613 0.33172855,17.9553895 0.740872497,17.9553895 Z M1.48174499,1.48067799 L16.4869454,1.48067799 L16.4869454,16.4747116 L1.48174499,16.4747116 L1.48174499,1.48067799 Z" id="Shape-Copy-2"></path>
                                        <path d="M12.910282,30.1323034 C12.6208787,29.8431085 12.1520453,29.8431085 11.862642,30.1323034 L8.9843451,33.0087083 L6.10604819,30.1323034 C5.81664487,29.8431085 5.34781149,29.8431085 5.05840817,30.1323034 C4.76900485,30.4214983 4.76900485,30.8899941 5.05840817,31.179189 L7.93675035,34.0555939 L5.05840825,36.9319989 C4.76900493,37.2211938 4.76900493,37.6896896 5.05840825,37.9788845 C5.20310991,38.123482 5.3926691,38.1957807 5.58222829,38.1957807 C5.77178748,38.1957807 5.96134668,38.123482 6.10604834,37.9788845 L8.98434525,35.1024796 L11.8626422,37.9788845 C12.0073438,38.123482 12.196903,38.1957807 12.3864622,38.1957807 C12.5760214,38.1957807 12.7655806,38.123482 12.9102822,37.9788845 C13.1996856,37.6896896 13.1996856,37.2211938 12.9102822,36.9319989 L10.0319399,34.0555939 L12.910282,31.179189 C13.1996853,30.8899941 13.1996853,30.4214983 12.910282,30.1323034 Z" id="Path"></path>
                                    </g>
                                </g>
                                <rect id="Rectangle" stroke-width="2.0006999" x="1.00034995" y="1.00034995" width="77.6430923" height="99.7959103" rx="3.33449984"></rect>
                            </g>
                            <path d="M13.0563594,0 L73.7828778,0 L82.016336,0 C83.5903475,-2.89141225e-16 84.866336,1.27598845 84.866336,2.84999996 L84.866336,95.2711864 L84.866336,95.2711864" id="Path-4" stroke-width="1.70999998"></path>
                        </g>
                    </g>
                </g>
            </g>
        </g>
    </g>
</svg>