<?xml version="1.0" encoding="utf-8"?>
<!-- Generator: Adobe Illustrator 25.2.0, SVG Export Plug-In . SVG Version: 6.00 Build 0)  -->
<svg version="1.1" id="Layer_1" xmlns="http://www.w3.org/2000/svg" xmlns:xlink="http://www.w3.org/1999/xlink" x="0px" y="0px"
	 viewBox="0 0 247.7 181.2" style="enable-background:new 0 0 247.7 181.2;" xml:space="preserve">
<style type="text/css">
	.st0{fill:#FACFB1;}
	.st1{fill:#2A82BB;}
	.st2{fill:#1571AC;}
	.st3{fill:#F05249;}
	.st4{fill:#4497CC;}
	.st5{fill:#DE3E35;}
	.st6{fill:#9A432E;}
	.st7{fill:#78382A;}
	.st8{fill:#BA5E47;}
	.st9{fill:#F48481;}
</style>
<g>
	<g>
		<g>
			<path class="st0" d="M49.3,71c0.1-2.1,17.5,3.7,18.9,4.5C74.6,79.1,80,84.3,84,90.4c7.3,11.2,10.3,24.7,12.2,37.9
				c2.5,17,3.2,34,3.3,51.1c0,0-13.9,0.2-14,0.2c0.2,0-1.6-26.2-1.8-28.6c-1.3-10.8-3.3-21.6-6.2-32.1c-1.9-7.2-4.3-14.4-9-20.2
				c-2.8-3.5-6.5-6.4-10.6-7.9c-2.2-0.8-4.4-0.8-6.7-1.2c-2.2-0.4-2-0.3-2-2.6C49,81.7,49.2,76.3,49.3,71C49.3,71,49.3,71,49.3,71z"
				/>
		</g>
		<g>
			<path class="st1" d="M116.8,158.5c-0.6-7.6-1.2-14.7-1-20.4c1.1-26.2-0.7-53.2-2.3-79.3c-1.2-18.3-2.4-37.1-2.6-55.9L99.1,3.1
				c0.3,19.1,1.5,38.1,2.7,56.5c1.7,27,3.3,52.5,2.3,78.1c-0.3,6.4,0.4,13.9,1,21.8c0.6,6.6,1.1,13.3,1.2,19.9
				c0,0.9,2.6,1.5,5.9,1.5c3.2,0,5.8-0.8,5.8-1.6C117.9,172.3,117.3,165.3,116.8,158.5z"/>
		</g>
		<g>
			<g>
				<path class="st2" d="M118,179.2c-0.1-6.9-0.7-13.9-1.3-20.7c-0.6-7.6-1.2-14.7-1-20.4c1.1-26.2-0.7-53.2-2.3-79.3
					c-1.2-18.3-2.4-37.1-2.6-55.9L106.4,3c0.9,45.1,6.9,91.6,5.1,134.6c-0.5,11.1,2.8,28.5,3,43C116.6,180.4,118,179.8,118,179.2z"
					/>
			</g>
		</g>
		<g>
			<path class="st1" d="M55.6,83.3c0,0,0.2,0,0.6-0.1c0.1,0,0.2,0,0.3,0c0.1,0,0.3,0,0.4,0c0.3,0,0.6-0.1,1-0.1
				c1.5-0.1,3.5-0.2,6-0.2c2.4,0,5.2,0.1,8.1,0.1c2.9,0,5.9,0,8.7-0.4c0.7-0.1,1.4-0.2,2.1-0.3c0.8-0.1,1.5-0.3,2.2-0.4
				c1.6-0.3,3.1-0.6,4.6-0.8c3-0.5,5.8-1,8.2-1.3c1.2-0.2,2.3-0.3,3.3-0.4c1-0.1,1.9-0.2,2.6-0.2c0.4,0,0.7,0,1-0.1
				c0.3,0,0.5,0,0.7,0c0.4,0,0.6,0,0.6,0l0.1,9.4c0,0-0.2,0-0.5,0c-0.2,0-0.4,0-0.6,0c-0.2,0-0.5,0-0.9,0c-0.6,0-1.4,0.1-2.3,0.1
				c-0.9,0.1-2,0.1-3.1,0.2c-2.3,0.2-5,0.5-7.9,0.9c-1.4,0.2-2.9,0.4-4.4,0.6c-0.4,0.1-0.8,0.1-1.1,0.2l-0.6,0.1l-0.7,0.1
				c-0.9,0.1-1.8,0.2-2.6,0.3c-1.7,0.1-3.4,0.1-5.1,0.1c-1.6,0-3.2-0.1-4.7-0.2c-3-0.2-5.7-0.4-8-0.5c-2.3-0.1-4.2-0.1-5.5-0.1
				c-0.3,0-0.6,0-0.8,0c-0.1,0-0.2,0-0.3,0c-0.1,0-0.2,0-0.3,0c-0.4,0-0.6,0-0.6,0L55.6,83.3z"/>
		</g>
		<g>
			<g>
				<path class="st2" d="M75.1,87.7c-1.2-1.3,0.1-4.7-0.4-4.7c-0.9,0-1.8,0-2.7,0c-2.9,0-5.7-0.1-8.1-0.1c-2.4,0-4.5,0.1-6,0.2
					c-0.4,0-0.7,0.1-1,0.1c-0.1,0-0.3,0-0.4,0c-0.1,0-0.2,0-0.3,0c-0.4,0-0.6,0.1-0.6,0.1l0.6,6.9c0,0,0.2,0,0.6,0
					c0.1,0,0.2,0,0.3,0c0.1,0,0.2,0,0.3,0c0.2,0,0.5,0,0.8,0c1.3,0,3.2,0,5.5,0.1c2.3,0.1,5,0.3,8,0.5c1.5,0.1,3.1,0.2,4.7,0.2
					c1.6,0,3.3,0,5.1-0.1c0.9-0.1,1.7-0.1,2.6-0.3l0.7-0.1l0.6-0.1c0.4-0.1,0.8-0.1,1.1-0.2c1.5-0.2,3-0.4,4.4-0.6
					c2.9-0.4,5.6-0.7,7.9-0.9c1.1-0.1,2.2-0.2,3.1-0.2c0.9-0.1,1.2,0.6,1.8,4.9c1.3-1.3,1.8-3.3,2-5c0.2-0.9,1-4.9-0.6-5
					c-0.5,0-1.1,0.5-1.5,0.7c-1.1,0.4-2.2,0.4-3.3,0.6C91.5,86.3,76.2,88.8,75.1,87.7z"/>
			</g>
		</g>
		<g>
			<path class="st2" d="M175.3,77.2c-0.9-0.4-1.9-0.2-2.9-0.1c-2.2,0.2-4.5,0.3-6.7,0.8c-0.9,0.2-5.2,1.1-3.8-1.1
				c0.9-1.3,2.9-1.9,4.1-2.9c2.4-2.1,4.6-4.3,6.8-6.7c3.8-4.2,7.3-8.8,10.1-13.8l-4.1-2.3c-3.6,6.4-9.2,13.3-15,18.5
				c-3.2,2.9-7,6.1-11,7.7c-4.5,1.8-9.5,0.8-14.1,0.6c-4.7-0.2-9.3-0.4-13.8-1.9c-1.9-0.6-3.8-1.4-5.7-2.1c-1.6-0.6-3.1-1.6-4.8-1.8
				c-1.8-0.2-4.2,0.9-4.5,2.6c-0.5,2.6,0.5,4.2,0.7,6.2c0.2,3.7,6.6,2.3,11,3.4c10.5,2.7,21.5,2.8,32.3,1.7
				c5.5-0.6,10.9-1.5,16.3-2.7c1.7-0.4,4.6-0.5,5.9-1.9c1.1-1.1,1-3.2-0.3-4.1C175.5,77.3,175.4,77.2,175.3,77.2z"/>
		</g>
		<g>
			<g>
				<path class="st1" d="M157.7,78.8c0-1.2-0.6-2.3-1.4-3.2c-1.1,0.7-2.3,1.3-3.4,1.8c-4.5,1.8-9.5,0.8-14.1,0.6
					c-4.7-0.2-9.3-0.4-13.8-1.9c-1.9-0.6-3.8-1.4-5.7-2.1c-0.9-0.3-3.8-1.8-4.8-1.8c-1.4,0.1-4.7-0.2-4.6,3.8c0,3.1,9.3,4.1,11.7,5
					c3.5,1.2,7.2,1.9,10.9,2.2c1.3,0.1,2.6,0.1,3.9,0.1C151.3,83.2,157.6,81.8,157.7,78.8z"/>
			</g>
		</g>
		<g>
			<path class="st0" d="M194.4,87c-0.1,0.1-0.3,0.3-0.5,0.4c-1.4,1-4.7,1.1-6.4,1.9c-4.2,2-7.9,5.2-10.7,8.9
				c-4.4,5.8-6.9,12.8-8.9,19.8c-5.7,19.9-7.1,40-7.4,60.5c0,0-14,0.2-14,0.2c-0.8-13.4,1.7-45.9,2.3-50c1.8-13,4.8-26.2,11.5-37.5
				c3.5-5.9,8.2-11.2,13.8-15.2c1.3-0.9,18.3-9.4,18.6-7.2c0.6,5.2,1.3,10.4,1.9,15.5C194.8,85.8,195.1,86.4,194.4,87z"/>
		</g>
		<g>
			<path class="st3" d="M136.9,55.4c-1.8-16-3.7-32.6-4-52.7l-11.7,0.2c0.3,20.8,2.2,37.6,4,53.9c2.2,19.8,4.3,38.5,3.3,62.3
				c-0.4,10.2-1.8,44.6-1.5,59.8c0,0.9,2.6,1.5,5.9,1.5c3.2,0,5.8-0.8,5.8-1.6c0,0,0,0,0,0c-0.2-14.7,1.1-48.9,1.5-59.2
				C141.3,94.7,139.1,75.6,136.9,55.4z"/>
		</g>
		<g>
			<path class="st4" d="M110.8,2.9c0,0.9-2.6,1.6-5.8,1.6c-3.2,0-5.9-0.6-5.9-1.5c0-0.9,2.6-1.6,5.8-1.6
				C108.1,1.4,110.8,2.1,110.8,2.9z"/>
		</g>
		<g>
			<path class="st2" d="M109.8,3c0,0.6-2.2,1.1-4.9,1.1c-2.7,0-4.9-0.4-4.9-1c0-0.6,2.2-1.1,4.9-1.1C107.6,2,109.8,2.4,109.8,3z"/>
		</g>
		<g>
			<path class="st3" d="M129.4,58.4c-1-1.4-1.6-1.2-3.3-1.1c-1.4,0.1-2.8,0.2-4.2,0.4c-3.8,0.6-7.5,1.3-11.2,2.3
				c-4.8,1.3-9.5,2.8-14.1,4.8c-4.2,1.8-8.5,4.3-13,5c-3.1,0.4-5.2,0.1-8.1-1.3c-5-2.4-9.9-6-13.2-10.5l-3.8,2.7
				c3.1,4.3,8.3,8.7,14,11.5c1.2,0.6,3,1,4.1,1.8c1.7,1.3-0.1,2.6-1.2,3.1c-2.5,1.3-4.6,3.2-6.9,4.9c-3,2.2-5.8,4.6-8.8,6.7
				c1.3,1.7,2.6,3.4,4,5.1c1.4,1.6,2,0.8,3.4-0.5c1.5-1.3,3.1-2.6,4.7-3.9c6.4-5,13.4-9.3,20.8-12.9c8-3.9,16.5-6.8,25.2-8.6
				c4.4-0.9,6.2,0.2,8.7,0c1.8-0.1,3.4-1.3,4.3-3.2C131.6,62.8,130.6,60,129.4,58.4C129.4,58.4,129.4,58.4,129.4,58.4z"/>
		</g>
		<g>
			<path class="st5" d="M129.4,58.4c-1-1.4-1.6-1.2-3.3-1.1c-1.4,0.1-2.8,0.2-4.2,0.4c-3.8,0.6-7.5,1.3-11.2,2.3
				c-4.8,1.3-9.5,2.8-14.1,4.8c-4.2,1.8-8.5,4.3-13,5c-3.1,0.4-5.2,0.1-8.1-1.3c-5-2.4-9.9-6-13.2-10.5l-3.8,2.7
				c3.1,4.3,8.3,8.7,14,11.5c1.2,0.6,3,1,4.1,1.8c1.7,1.3-0.1,2.6-1.2,3.1c-2.5,1.3-4.6,3.2-6.9,4.9c-3,2.2-5.8,4.6-8.8,6.7
				c1.3,1.7,2.6,3.4,4,5.1c1.4,1.6,2,0.8,3.4-0.5c1.5-1.3,3.1-2.6,4.7-3.9c6.4-5,13.4-9.3,20.8-12.9c8-3.9,16.5-6.8,25.2-8.6
				c4.4-0.9,6.6,0.6,9,2.9c1.8-0.1,3.7-3.7,4-6.1C131,62.6,130.6,60,129.4,58.4C129.4,58.4,129.4,58.4,129.4,58.4z"/>
		</g>
		<g>
			<g>
				<path class="st3" d="M129.4,58.4c-1-1.4-1.6-1.2-3.3-1.1c-1.4,0.1-2.8,0.2-4.2,0.4c-3.8,0.6-7.5,1.3-11.2,2.3
					c-4.8,1.3-9.5,2.8-14.1,4.8c-4.2,1.8-8.5,4.3-13,5c-2.4,0.3-4.2,0.2-6.2-0.5c0.2,1.1,0.5,2.2,1.2,3c0.4,0.5,0.9,0.8,1.3,1.3
					c1,1.3,1.7,1.4,3.5,1.4c3-0.1,5.9-1.6,8.5-2.8c3.2-1.5,6.4-2.9,9.7-4.2c6.4-2.4,13.2-4.3,20.1-4.2c2.3,0,4.7,0.2,6.9-0.4
					c0.9-0.3,1.7-0.7,2.4-1.3C130.7,60.7,130.1,59.4,129.4,58.4C129.4,58.4,129.4,58.4,129.4,58.4z"/>
			</g>
		</g>
		<g>
			<g>
				<path class="st5" d="M140.3,119.4c1-24.7-1.1-43.8-3.4-64c-1.8-16-3.7-32.6-4-52.7l-4.2,0.1c0.9,44.3,9.1,73.3,7.4,116.5
					c-0.4,10.7-1.7,45.2-1.6,61c2.5-0.2,4.3-0.8,4.3-1.5c0,0,0,0,0,0C138.5,163.8,139.9,129.6,140.3,119.4z"/>
			</g>
		</g>
		<g>
			<path class="st5" d="M168.5,75.7c0.8,0.3,1.7,0.7,2.2,0.9c4.8,1.3,9.6,2.1,14.5,3c0,0,1.4-6.8,1.4-6.8c-0.1,0.6-21.4-5.2-23-5.6
				c-4.1-1.2-8-2.9-11.9-4.6c-1.2-0.5-15.7-6.2-17.8-4.5c-2.2,1.8-1,8.2,0.4,11.2c2.1,4.5,6.4-1.1,9.4-0.2
				c4.9,1.5,10.5,3.3,14.8,6.2c1.5,1,1.7,2.4,2.7,3.9c1.3,2,3.1,3.7,5.1,5c4.3,2.8,10.2,4.2,18.1,4.5l0.2-4.7
				c-4.6-0.1-9.4-0.6-13.6-2.6c-1.1-0.5-8.8-5.5-4.9-6.2C166.7,75.1,167.6,75.4,168.5,75.7z"/>
		</g>
		<g>
			<g>
				<path class="st6" d="M73.8,55.6c7-5.3,11.8-11,12.1-19.2c0.4-10.6-5.3-21.2-14.3-26.8C39.8-9.8,11.8,28.8,3.8,55.2
					c-9.7,32-1,71.4,29.4,89.2c10.4,6.1,23.3,8.5,34.7,4.8c16.5-5.4,20.1-17.9,17.4-31.3c-1.9-9.2-10.4-11.6-13-20.3
					c-1.5-4.8,0.9-9.9,1.6-14.7C76.5,66.4,72,57,73.8,55.6z"/>
			</g>
			<g>
				<g>
					<path class="st7" d="M72.2,55.4c0.5-0.9,1.2-1.8,2.4-2.7c4.9-3.7,9.8-8.3,10-14.9c0.1-3.5-0.4-7-1.6-10.4
						c-0.6-1.8-2.3-7.6-4.9-7.3c-2.3,0.2-0.6,3.6-0.3,4.9c0.5,2.1,0.7,4.3,1,6.5c0.8,6.6-4.2,10.8-8.6,15.3c-4.7,4.9-7,9.4-7.4,16.1
						c-0.4,6.5,0.9,13.7-2.2,19.7c-1.9,3.7-3.5,7.5-2.6,11.7c1.8,8,4.3,12.6-0.6,20.1c-3.9,5.9-10.4,10.2-17.3,11.4
						c-4.4,0.8-9,0.6-13.4-0.5c-2.2-0.5-4.4-1.3-6.6-2.2c-1.6-0.7-3.9-2.5-5.3-0.5c-2,3,5,9,6.9,10.8c3.5,3.5,7.5,6.5,11.8,9
						c10.1,5.9,22.6,8.3,33.7,4.7c15.4-5,24.3-23.7,12.3-37c-2.2-2.4-4.7-4.7-6.5-7.4c-4.1-6.3-1-13.1,0-19.8
						c0.9-5.9,0.8-11.8-0.2-17.7C72.3,61.1,70.8,58.2,72.2,55.4z"/>
				</g>
			</g>
			<g>
				<path class="st8" d="M63.9,21.1c0-5.8-6-10.2-11.8-10.3c-5.8-0.1-11.1,3-15.7,6.5C17,32.1,5.4,56.6,6.2,80.9
					c0.1,3.5,1,7.8,4.3,8.9c3,1,6.3-1.4,7.5-4.3c1.2-2.9,1.1-6.2,1.2-9.4C20,59.1,31,43,46.5,36c3.7-1.7,7.6-2.9,11-5.1
					C61,28.7,63.9,25.2,63.9,21.1z"/>
			</g>
			<g>
				<path class="st8" d="M39,116.4c4.4-1.3,8.3-4.1,8.3-7.6c0-6.1-7.1-6.2-11.6-5.6c-3.9,0.5-7.2,1.6-8.7,5.4
					C23.8,116.9,32.1,118.5,39,116.4z"/>
			</g>
			<g>
				<g>
					<path class="st6" d="M169,52.3c-3.1-7-8.3-10.9-9.8-18.9C155.7,15.1,166.6,1,184.9,0c17-0.9,32.5,12.3,41.7,25.4
						c17.7,25.2,28.9,60.1,14.4,89.2c-10.3,20.6-31.8,32.9-54.8,31.5c-13.5-0.8-24.6-13.1-24.4-26.5c0.1-8.1,4.2-13.1,9.4-18.8
						c6.3-6.8,2.9-13.9,1.1-22.1c-1.5-7.3-1-14.7-2-22C170,55,169.6,53.5,169,52.3z"/>
				</g>
				<g>
					<g>
						<path class="st7" d="M176.5,49.5c-0.9-5.8-6.5-9.4-10.4-13.8c-0.9-1-2.6-5-4.5-3.6c-0.8,0.6-0.5,1.4-0.3,2.3
							c1.4,7.7,6.5,11.4,9.4,18.1c0.5,1.2,0.9,2.6,1.2,4.3c0.1,0.9,0.4,2.1,1.5,2.1C176.4,58.8,176.8,51.4,176.5,49.5z"/>
					</g>
					<g>
						<path class="st7" d="M226,28.9c-0.7-1.1-1.8-3.2-2.8-3.9c-0.8-0.6-2.4-0.2-2.3,1.1c0,1,1.5,2.9,2,3.9c1.3,2.7,2.5,5.5,3.5,8.3
							c5.5,15.4,6.5,32.7,0.9,48.1c-5.6,15.4-18.2,28.5-33.9,32.9c-6.4,1.8-13.7,2.1-19.3-1.6c-1.2-0.8-2.3-1.9-3.2-3.1
							c-0.9-1.2-1.2-2.8-2.1-3.9c-1-1.3-2.1-1-2.9,0.2c-1.4,2.1-1.9,5.7-2,8.3c-0.1,12.9,10.5,24.7,23.4,25.4
							c22,1.4,42.7-10.4,52.6-30.2C253.8,86.5,243,53.1,226,28.9z"/>
					</g>
					<g>
						<path class="st7" d="M177.1,87.4c-1.1,0.4-0.4,2.8-0.4,3.6c0.1,1.5-0.2,3-0.6,4.4c-0.3,0.9-1.2,2.1-1.3,2.9
							c-0.3,3,4.5-0.4,5.3-0.8c2.6-1.4,5.3-2.5,8.1-3.2c0.9-0.2,1.9-1,2-1.9c0.2-1.1-0.8-2-1.9-2.3c-1.1-0.2-2.2,0-3.3,0.1
							c-1.4,0.1-2.9-0.2-4.2-0.7c-1-0.4-2.3-2-3.2-2.1C177.4,87.3,177.2,87.4,177.1,87.4z"/>
					</g>
				</g>
				<g>
					<path class="st8" d="M192.1,18.1c3.5-5.6,5-13-3.9-13.7c-6.2-0.5-18.5,6-20,12.5c-2.5,10.9,14.1,11.1,19.7,6.2
						C189.4,21.9,190.9,20.1,192.1,18.1z"/>
				</g>
				<g>
					<path class="st8" d="M188.7,107.1c-2.6-1.3-6.7-2.4-9.1-0.1c-6.6,6.3,5.9,10,10.6,7.9C195.2,112.5,192.7,109.1,188.7,107.1z"/>
				</g>
			</g>
		</g>
		<g>
			<g>
				<path class="st3" d="M137.8,65.1c4,1.5,8.3,2.2,12.4,3c3.1,0.6,6.2,1.5,9.2,2.5c2.8,1,5.7,2.5,8.8,2.2c1.7-0.2,2.3-2.5,1.9-4
					c-3.3-0.9-6-1.6-6.5-1.8c-4.1-1.2-8-2.9-11.9-4.6c-1.2-0.5-15.7-6.2-17.8-4.5c-1.2,1-1.4,2.4-1.4,3.9
					C133.7,63.6,135.9,64.4,137.8,65.1z"/>
			</g>
		</g>
		<g>
			<path class="st9" d="M132.9,2.6c0,0.9-2.6,1.6-5.8,1.6s-5.9-0.6-5.9-1.5c0-0.9,2.6-1.6,5.8-1.6C130.3,1.1,132.9,1.8,132.9,2.6z"
				/>
		</g>
		<g>
			<path class="st5" d="M132,2.6c0,0.6-2.2,1.1-4.9,1.1c-2.7,0-4.9-0.4-4.9-1c0-0.6,2.2-1.1,4.9-1.1S132,2.1,132,2.6z"/>
		</g>
	</g>
	<g>
		<path class="st0" d="M99.5,179.5c0,0.9-3.1,1.7-7,1.7c-3.9,0.1-7-0.6-7-1.5c0-0.9,3.1-1.7,7-1.7C96.3,177.9,99.5,178.6,99.5,179.5
			z"/>
	</g>
	<g>
		<path class="st0" d="M160.6,178.6c0,0.9-3.1,1.7-7,1.7c-3.9,0.1-7-0.6-7-1.5c0-0.9,3.1-1.7,7-1.7
			C157.4,177,160.5,177.7,160.6,178.6z"/>
	</g>
</g>
</svg>
