<svg xmlns="http://www.w3.org/2000/svg" width="139.719" height="124.114" viewBox="0 0 139.719 124.114"><g transform="translate(0 0)"><path d="M85.491,28.584l10.494,18.19-1.732,1L83.758,29.584l1.732-1Zm16.491,28.584,10.494,18.19-1.732,1-10.494-18.19,1.732-1Zm16.491,28.584,10.494,18.19h0l-1.732,1L116.74,86.752Zm16.491,28.584,1.883,3.263h0l1.154,2H123.077v-2h11.461l-1.306-2.264ZM90.077,117.6h21v2h-21Zm-33,0h21v2h-21Zm-33,0h21v2h-21ZM4.459,111.871l1.732,1L3.463,117.6h8.614v2H0l1.154-2,.041-.071h0l.017-.029v0l.005-.009h0l.03-.053.006-.011.011-.019.005-.009.017-.03,0-.005.021-.037h0l.051-.088h0l.007-.013,0-.005.011-.019h0l.024-.042h0l.018-.031h0l.018-.032h0l.337-.584h0l.028-.049h0l.066-.115,0,0,.12-.207H2l.019-.033h0l.028-.049v0l.166-.287,0-.008.009-.015.01-.017.009-.015,0,0,.028-.048,0,0,.054-.094h0l.157-.271.005-.009.142-.247h0l.006-.011h0l.006-.01,0,0,.091-.157v0l.024-.042h0l.028-.049,0-.006.033-.057,0,0,.005-.009.007-.012,0-.008,0,0,.164-.284,0,0,.025-.044h0l.268-.465h0l.108-.188h0l.153-.265v0l.021-.036,0-.008,0-.005.009-.016,0-.006,0-.007.012-.021,0,0,.006-.011h0l.024-.042,0,0,.092-.16h0l.06-.1h0l.1-.171h0l.116-.2v0l0-.009v0l0-.006h0l.074-.128v0l.041-.071,0-.006.023-.04v0l.029-.049h0l.048-.083h0l.1-.168v0h0l0,0,.041-.071h0l.036-.062h0v0h0l0-.008h0l.007-.012ZM20.95,83.287l1.732,1-10.494,18.19-1.732-1ZM37.441,54.7l1.732,1L28.679,73.892l-1.732-1ZM53.932,26.118l1.732,1L45.17,45.308l-1.732-1,5-8.667,0,0,.029-.051v0l.029-.05,0,0,.028-.049,0,0,.022-.037v0l0-.007.006-.01.011-.019,0,0,.006-.01h0l0-.008.005-.009.012-.021v0l.011-.019.007-.012,0-.005,0,0,0-.008.011-.019,0-.006,5.281-9.154ZM69,0,79.494,18.19l-1.732,1L69,4,61.661,16.724l-1.732-1L67.846,2Z" transform="translate(0 2.769)" fill="#171717"/><path d="M0,140.772H4.1L4.4,1.2.652,0Z" transform="translate(139.718 121.912) rotate(150)" fill="#fff"/></g></svg>