<?xml version="1.0" encoding="utf-8"?>
<!-- Generator: Adobe Illustrator 25.2.0, SVG Export Plug-In . SVG Version: 6.00 Build 0)  -->
<svg version="1.1" id="Layer_1" xmlns="http://www.w3.org/2000/svg" xmlns:xlink="http://www.w3.org/1999/xlink" x="0px" y="0px"
	 viewBox="0 0 257.2 177.5" style="enable-background:new 0 0 257.2 177.5;" xml:space="preserve">
<style type="text/css">
	.st0{fill:#73302F;}
	.st1{fill:#2A8641;}
	.st2{fill:#A94744;}
	.st3{fill:#953E3C;}
	.st4{fill:#FAA73E;}
	.st5{fill:#B65E5C;}
	.st6{fill:#369044;}
</style>
<g>
	<g>
		<path class="st0" d="M12.7,177c0,0,5.3,4.3,30.2-11.3c24.9-15.5,17.3-21,40.5-28.9c23.1-8,47.4-20.7,47.4-20.7
			c11.1-15.1-68.5,13.9-82.9,25.6C33.5,153.4,12.7,177,12.7,177z"/>
	</g>
	<g>
		<path class="st1" d="M97.3,122c-9.2,4.6-19.3,14.5-23.6,25.9c-3.7,9.9-16.3,14.3-19.3,0.5C65.9,135.1,79.9,125.3,97.3,122z"/>
	</g>
	<g>
		<path class="st2" d="M235.7,49c6.9-5.9,24.5-20.3,21-26c-3.5-5.7-15.7-9.4-27.9-11.8c-14.1-2.7-46.1-0.7-59.4,6.6
			c-5.8-0.1-11.5-1.5-18-3.1c-8.9-2.3-18.1-3.9-27.1-6.2C103.4,3.3,82-1.6,60.5,0.5c-21.4,2.1-43.2,12.4-53.9,31
			C-2.5,47.4-1.7,86.6,5.9,109c9.6,28.3-1.3,35.8,5.1,65c0.3,1.1,0.6,2.4,1.6,3c1.1,0.6,2.5,0.1,3.7-0.5c16.2-7.4,28.3-20,42.8-30.3
			c12.4-8.8,27.9-14.6,42.1-19.9c9.8-3.6,20.7-4.5,29.5-10.2c4.8-3.2,8.7-7.7,13.7-10.5c7.4-4.1,16.1-4.6,24.5-4.7
			c3.3,0,7.2,0.4,10.4-0.2C213.6,95,222.6,60.3,235.7,49z"/>
	</g>
	<g>
		<g>
			<path class="st3" d="M256.2,22.3c-0.1,0.3-0.2,0.6-0.3,0.8c-1.4,3.1-3.5,5.7-5.6,8.3c-3.7,4.5-10.1,6.5-14.7,10.2
				c-4.7,3.7-8.6,8.2-12.7,12.6c-7,7.4-14.6,14.2-22.8,20.4c-6.7,5.1-15.9,13.1-25,11.7c-3.2-0.5-6.1-2.4-7.8-5.2
				c-2.1-3.5-1.5-7.9-0.8-11.7c0.9-4.8,1.9-9.6,2.1-14.5c0.3-7-0.9-13.9-0.8-20.9c0-6,1.1-12.4,4.4-17.4c-1,0.4-1.9,0.8-2.7,1.3
				c-0.9,0-1.9-0.1-2.8-0.2c-0.1,0.3-0.1,0.5-0.1,0.8c-0.4,7.6-0.9,15.1-1.3,22.7c-0.4,6.1-1.1,12.6-2.9,18.4
				c-2.1,6.8-8.1,13.2-12.6,18.7c-6,7.3-12.7,14.3-21,19c-13.9,7.9-30.8,8.8-45,16.3c-8.8,4.7-33.9,5-44,10.5
				c-23.6,13-34.2-18.1-34.7-18.4c7.8,22,0,46.9,6.1,68.2c0.3,1.1,0.6,2.4,1.6,3c1.1,0.6,2.5,0.1,3.7-0.5
				c16.2-7.4,28.3-20,42.8-30.3c12.4-8.8,27.9-14.6,42.1-19.9c9.8-3.6,20.7-4.5,29.5-10.2c4.8-3.2,8.7-7.7,13.7-10.5
				c7.4-4.1,16.1-4.6,24.5-4.7c3.3,0,7.2,0.4,10.4-0.2c34.2-5.9,43.2-40.5,56.3-51.8c6.9-5.9,24.5-20.3,21-26
				C256.6,22.8,256.4,22.5,256.2,22.3z"/>
		</g>
	</g>
	<g>
		<path class="st4" d="M169.3,17.9c-5.6,9-0.7,27.5-4,41.3c-3.3,13.8-7.8,28.1-5.7,42.1c-6.9,5.5-11.8,4.3-15.7,4.3
			c6-3.5,9.6-10.2,11.3-16.9c1.7-6.7,1.8-13.8,2.7-20.7c1.2-9,2.1-16.2,2.9-25.2c0.8-9-0.8-19.9-6-27.3
			C158.4,15.1,166.4,16,169.3,17.9z"/>
	</g>
	<g>
		<path class="st5" d="M13.3,76.1c1.7,2.1,3.9,3.8,6.5,4.6c9.6,2.9,18.3-6,25.7-12.9C61.8,52.5,84,43.7,106.3,43.7
			c8.1,0,16.4,1.1,24.3-0.9c7.5-1.9,14.5-9.6,10.1-17.2c-2.9-5.1-10.9-7.1-16.1-8.6c-12.2-3.5-25.3-4.7-37.8-5.3
			c-19.2-1-39.1,2.6-54.8,13.7c-11.3,8-21.6,23-22.7,37.2C9.1,67.3,10.4,72.4,13.3,76.1z"/>
	</g>
	<g>
		<path class="st5" d="M183.8,41.7c-4.6-0.6-6.6-6.9-4.6-11.1c2-4.2,6.5-6.6,10.8-8.5c17.1-7.3,37.5-9.7,53.7-0.5
			c1,0.9,0.7,2.5-0.2,3.5c-0.9,0.9-2.2,1.3-3.5,1.7c-17.2,4.8-34.5,9.6-51.7,14.3C186.8,41.5,185.3,41.9,183.8,41.7z"/>
	</g>
	<g>
		<path class="st6" d="M61.1,154.7c2.3,0.8,5.1-0.4,6.3-2.6c0.4-0.8,0.7-1.8,0.3-2.7c-0.3-0.8-1.1-1.3-1.9-1.5
			c-0.8-0.2-1.6-0.2-2.4-0.1c-1,0.1-2.1,0.3-3,0.9c-0.9,0.5-1.6,1.4-1.8,2.5C58.5,152.8,59.7,154.2,61.1,154.7z"/>
	</g>
</g>
</svg>
