<?xml version="1.0" encoding="utf-8"?>
<!-- Generator: Adobe Illustrator 24.1.1, SVG Export Plug-In . SVG Version: 6.00 Build 0)  -->
<svg version="1.1" id="Layer_1" xmlns="http://www.w3.org/2000/svg" xmlns:xlink="http://www.w3.org/1999/xlink" x="0px" y="0px"
	 viewBox="0 0 26.25 30" style="enable-background:new 0 0 26.25 30;" xml:space="preserve">
<style type="text/css">
	.st0{fill:#333333;}
</style>
<g>
	<path class="st0" d="M26.25,15.9375v11.25C26.25,28.7402,24.9902,30,23.4375,30H2.8125C1.2598,30,0,28.7402,0,27.1875v-11.25
		c0-1.5527,1.2598-2.8125,2.8125-2.8125h1.4063V8.9063C4.2188,3.9961,8.2148,0,13.125,0s8.9063,3.9961,8.9063,8.9063v4.2188h1.4063
		C24.9902,13.125,26.25,14.3848,26.25,15.9375z M17.3438,8.9063c0-2.3262-1.8926-4.2188-4.2188-4.2188S8.9063,6.5801,8.9063,8.9063
		v4.2188h8.4375V8.9063z"/>
</g>
</svg>
