<?xml version="1.0" encoding="utf-8"?>
<!-- Generator: Adobe Illustrator 25.2.0, SVG Export Plug-In . SVG Version: 6.00 Build 0)  -->
<svg version="1.1" id="Layer_1" xmlns="http://www.w3.org/2000/svg" xmlns:xlink="http://www.w3.org/1999/xlink" x="0px" y="0px"
	 viewBox="0 0 254.3 268" style="enable-background:new 0 0 254.3 268;" xml:space="preserve">
<style type="text/css">
	.st0{fill:#F05249;}
	.st1{fill:#FFE0B8;}
	.st2{fill:#AE534B;}
	.st3{fill:#F3AEA5;}
	.st4{fill:#F5978A;}
	.st5{fill:#F3C9C3;}
</style>
<g>
	<g>
		<g>
			<g>
				<path class="st0" d="M128.8,78.5c-3.3,0-6-2.7-6-6V4.2c0-3.3,12-3.3,12,0v68.3C134.8,75.8,132.1,78.5,128.8,78.5z"/>
			</g>
		</g>
		<g>
			<g>
				<path class="st0" d="M61,194.3l-0.7-1l-0.2-0.3l-0.2-0.3l-0.4-0.6l-0.4-0.6c-0.1-0.2-0.2-0.4-0.3-0.6c-0.2-0.4-0.5-0.8-0.7-1.2
					c-0.9-1.6-1.6-3.3-2.3-5c-0.7-1.7-1.3-3.4-1.8-5.1c-0.5-1.7-0.9-3.5-1.3-5.2l-0.1-0.7l-0.1-0.7l-0.2-1.3
					c-0.1-0.9-0.3-1.8-0.3-2.7c-0.2-1.8-0.3-3.6-0.4-5.4c0-0.9,0-1.8,0-2.7l0-1.3l0.1-1.3l0-0.7l0.1-0.7l0.1-1.3l0.2-1.3l0.1-0.7
					l0.1-0.7l0.2-1.3l0.3-1.3l0.1-0.7l0.2-0.7l0.3-1.3l0.4-1.3l0.2-0.7l0.2-0.7l0.4-1.3l0.5-1.3l0.2-0.6l0.3-0.6l0.5-1.3l0.6-1.3
					l0.3-0.6l0.3-0.6c0.2-0.4,0.4-0.8,0.7-1.2l0.7-1.2l0.2-0.3l0.1-0.2l0,0c-0.1,0.1,0.1-0.2,0.1-0.2l0-0.1l0.3-0.5l0.7-1l0.3-0.5
					c0.1-0.1,0.1-0.2,0.2-0.3l0.2-0.3l0.9-1.2c0.6-0.8,1.2-1.5,1.8-2.2c0.6-0.7,1.2-1.4,1.9-2.1c0.6-0.7,1.3-1.3,2-1.9
					c2.7-2.5,5.7-4.7,8.9-6.6c3.2-1.8,6.5-3.3,9.8-4.5c3.3-1.2,6.6-2.2,9.9-3.1l4.7-1.3c0.8-0.2,1.5-0.4,2.3-0.6
					c0.7-0.2,1.5-0.4,2.2-0.7c0.7-0.2,1.4-0.5,2.1-0.7c0.6-0.3,1.3-0.5,1.9-0.8c1.2-0.6,2.2-1.2,3-1.8c0.2-0.2,0.4-0.3,0.6-0.5l0,0
					l0,0c-0.3,0.3-0.1,0.1-0.1,0.1l0.1-0.1l0.2-0.2l0.4-0.4l0.9-0.9c0,0,0.1-0.1,0.1-0.1l0.1-0.1l0.1-0.2l0.3-0.4l0.6-0.7l0.6-0.8
					c0.2-0.3,0.4-0.6,0.6-0.8l0.5-0.9c1.4-2.4,2.5-5,3.4-7.7c0.8-2.8,1.4-5.7,1.8-8.6c0.4-3,0.5-6,0.5-9.1l0,0h12
					c-0.1,5.6,0.6,11.1,2,16.4c0.7,2.6,1.7,5.1,2.9,7.5l0.4,0.9l0.5,0.9c0.2,0.3,0.3,0.6,0.5,0.9l0.5,0.8c0.2,0.3,0.3,0.6,0.5,0.8
					l0.6,0.8l0.3,0.4l0.1,0.2l0,0c-0.3-0.4-0.1-0.1-0.1-0.2l0,0l0.1,0.1l0.4,0.4l0.2,0.2l0,0.1c0,0,0,0,0,0l0,0
					c0.1,0,0.1,0.1,0.2,0.1l0.1,0.1l0,0c0,0,0,0,0.1,0.1l0.6,0.5c0.2,0.2,0.4,0.3,0.6,0.5l0.7,0.5c1,0.6,2.1,1.2,3.4,1.7
					c2.5,1.1,5.3,2.1,8.1,3.1c2.9,1,5.8,2,8.8,3.2c3,1.2,6,2.5,8.8,4.2c2.9,1.6,5.7,3.5,8.3,5.8c1.3,1.1,2.5,2.3,3.7,3.6l0.9,1
					l0.1,0.1l0.1,0.1l0,0.1l0.2,0.2l0.4,0.4l0.2,0.2c0.1,0.1,0.1,0.1,0.2,0.2l0.4,0.6c0.3,0.4,0.6,0.8,0.8,1.1c2,2.8,3.6,5.9,4.9,9
					c1.3,3.1,2.2,6.4,2.8,9.7c0.3,1.6,0.5,3.3,0.7,5c0.1,1.7,0.2,3.4,0.2,5c-0.1,3.4-0.4,6.7-1.2,10c-0.8,3.3-1.8,6.5-3.2,9.5
					c-1.4,3-3.1,5.9-5.1,8.6c-1.5,2-4.3,2.4-6.3,1c-2-1.4-2.4-4.2-1-6.2l0,0c3.2-4.5,5.4-9.6,6.5-14.9c0.6-2.7,0.8-5.4,0.8-8.1
					c0-1.4-0.1-2.7-0.2-4.1c-0.2-1.3-0.3-2.7-0.6-4c-0.5-2.7-1.4-5.3-2.4-7.7c-1.1-2.5-2.4-4.8-3.9-6.9c-0.2-0.3-0.4-0.5-0.6-0.7
					l-0.3-0.3c0-0.1-0.1-0.1-0.2-0.2l-0.2-0.2l-0.4-0.4l-0.2-0.2l0-0.1c-0.1-0.1,0.1,0.1,0.1,0.1l0,0l-0.1-0.1l-0.7-0.7
					c-0.9-1-1.9-1.8-2.9-2.7c-2-1.7-4.3-3.2-6.7-4.5c-2.4-1.3-5-2.4-7.7-3.4c-2.7-1-5.5-1.9-8.4-2.9c-2.9-1-5.9-1.9-9-3.2
					c-1.6-0.7-3.1-1.4-4.8-2.3c-0.4-0.2-0.8-0.5-1.2-0.8l-1.2-0.9c-0.4-0.3-0.8-0.6-1.2-1c-0.1,0-0.1-0.1-0.1-0.1l-0.2-0.2l-0.3-0.3
					c-0.2-0.2-0.4-0.4-0.7-0.7l-0.2-0.2c0,0,0-0.1-0.1-0.1l0-0.1l-0.2-0.2l-0.4-0.4l-0.1-0.1l0,0c-0.1-0.1,0.2,0.2-0.2-0.2l0-0.1
					l-0.2-0.3l-0.4-0.5l-0.8-1c-0.3-0.4-0.5-0.7-0.7-1.1l-0.7-1.1c-0.2-0.4-0.4-0.7-0.7-1.1l-0.7-1.1l-0.6-1.1
					c-1.6-3-2.8-6.2-3.8-9.4c-1.9-6.4-2.8-13.1-2.9-19.6h12v0c0,3.5-0.2,7-0.7,10.6c-0.5,3.5-1.2,7.1-2.3,10.6
					c-1.1,3.5-2.6,7-4.6,10.3l-0.8,1.2c-0.3,0.4-0.6,0.8-0.8,1.2l-0.8,1.2c-0.3,0.4-0.7,0.8-1,1.2c-0.3,0.4-0.7,0.8-1,1.2l-0.9,0.9
					l-0.4,0.4l-0.2,0.2l-0.1,0.1l-0.2,0.2l0,0l-0.1,0.1c-0.4,0.4-0.9,0.7-1.3,1.1c-1.8,1.4-3.6,2.4-5.4,3.2
					c-0.9,0.4-1.8,0.8-2.7,1.1c-0.9,0.3-1.7,0.6-2.6,0.9c-0.9,0.3-1.7,0.5-2.5,0.8c-0.8,0.2-1.7,0.5-2.5,0.7l-4.8,1.2
					c-3.1,0.8-6.1,1.6-9,2.7c-2.9,1-5.6,2.2-8.1,3.6c-2.5,1.4-4.9,3.1-7,5c-0.5,0.5-1.1,1-1.6,1.5c-0.5,0.5-1,1-1.5,1.6
					c-0.5,0.5-1,1.1-1.4,1.6l-0.6,0.8l-0.2,0.2c-0.1,0.1-0.1,0.1-0.2,0.2l-0.3,0.5l-0.7,1l-0.3,0.5l0,0.1c0,0,0.1-0.2,0.1-0.1l0,0
					l-0.1,0.1l-0.1,0.2l-0.6,0.9l-0.5,0.9l-0.3,0.5l-0.2,0.5l-0.5,1l-0.4,1l-0.2,0.5l-0.2,0.5l-0.4,1l-0.3,1l-0.2,0.5l-0.2,0.5
					l-0.3,1l-0.3,1.1l-0.1,0.5l-0.1,0.5l-0.2,1.1l-0.2,1.1l-0.1,0.5l-0.1,0.6l-0.2,1.1l-0.1,1.1l-0.1,0.6l0,0.6l-0.1,1.1l0,1.1
					c0,0.7,0,1.5,0,2.2c0,1.5,0.1,3,0.2,4.5c0.1,0.7,0.2,1.5,0.3,2.2l0.2,1.1l0.1,0.6l0.1,0.6c0.3,1.5,0.6,2.9,1,4.4
					c0.4,1.4,0.9,2.8,1.4,4.2c0.5,1.4,1.1,2.7,1.8,4c0.2,0.3,0.3,0.6,0.5,0.9c0.1,0.2,0.2,0.3,0.3,0.5l0.3,0.4l0.3,0.4l0.1,0.2
					l0.2,0.3l0.7,1l0,0c1.5,2.3,0.9,5.4-1.4,6.9C65.6,197.2,62.6,196.6,61,194.3z"/>
			</g>
		</g>
		<g>
			<g>
				<path class="st1" d="M135.1,72.9h-12.5c-1.7,0-3-1.3-3-3s1.3-3,3-3h12.5c1.7,0,3,1.3,3,3S136.7,72.9,135.1,72.9z"/>
			</g>
		</g>
		<g>
			<g>
				<path class="st1" d="M147.7,105.5l-7,8.9c-0.9,1.2-2.6,1.4-3.8,0.5c-1.2-0.9-1.4-2.6-0.5-3.8l7-8.9c0.9-1.2,2.6-1.4,3.8-0.5
					C148.4,102.6,148.6,104.3,147.7,105.5z"/>
			</g>
		</g>
		<g>
			<g>
				<path class="st1" d="M155.1,108.6l-4.8,10.3c-0.6,1.4-2.2,2-3.6,1.3c-1.4-0.6-2-2.2-1.3-3.6l4.8-10.3c0.6-1.4,2.2-2,3.6-1.3
					C155.2,105.6,155.8,107.2,155.1,108.6z"/>
			</g>
		</g>
		<g>
			<g>
				<path class="st1" d="M110.8,105.2l7,8.9c0.9,1.2,2.6,1.4,3.8,0.5c1.2-0.9,1.4-2.6,0.5-3.8l-7-8.9c-0.9-1.2-2.6-1.4-3.8-0.5
					C110.1,102.3,109.9,104,110.8,105.2z"/>
			</g>
		</g>
		<g>
			<g>
				<path class="st1" d="M103.4,108.3l4.8,10.3c0.6,1.4,2.2,2,3.6,1.3c1.4-0.6,2-2.2,1.3-3.6l-4.8-10.3c-0.6-1.4-2.2-2-3.6-1.3
					C103.3,105.3,102.7,106.9,103.4,108.3z"/>
			</g>
		</g>
		<g>
			<g>
				<path class="st1" d="M135.1,61.8h-12.5c-1.7,0-3-1.3-3-3c0-1.7,1.3-3,3-3h12.5c1.7,0,3,1.3,3,3
					C138.1,60.4,136.7,61.8,135.1,61.8z"/>
			</g>
		</g>
		<g>
			<g>
				<path class="st1" d="M135.1,84.1h-12.5c-1.7,0-3-1.3-3-3c0-1.7,1.3-3,3-3h12.5c1.7,0,3,1.3,3,3
					C138.1,82.7,136.7,84.1,135.1,84.1z"/>
			</g>
		</g>
		<g>
			<path class="st1" d="M136.2,89.2h-14.7c-1.9,0-3.5,1.3-3.5,3c0,1.7,1.6,3,3.5,3l0,0c2.4,0,4.4,1.9,4.4,4.4v5.8
				c0,1.9,1.3,3.5,3,3.5c1.7,0,3-1.6,3-3.5v-5.8c0-2.4,1.9-4.4,4.4-4.4l0,0c1.9,0,3.5-1.3,3.5-3C139.7,90.6,138.1,89.2,136.2,89.2z"
				/>
		</g>
		<g>
			<g>
				<path class="st1" d="M135.1,50.6h-12.5c-1.7,0-3-1.3-3-3c0-1.7,1.3-3,3-3h12.5c1.7,0,3,1.3,3,3
					C138.1,49.3,136.7,50.6,135.1,50.6z"/>
			</g>
		</g>
		<g>
			<g>
				<path class="st1" d="M135.1,39.4h-12.5c-1.7,0-3-1.3-3-3c0-1.7,1.3-3,3-3h12.5c1.7,0,3,1.3,3,3
					C138.1,38.1,136.7,39.4,135.1,39.4z"/>
			</g>
		</g>
		<g>
			<g>
				<path class="st1" d="M135.1,28.3h-12.5c-1.7,0-3-1.3-3-3c0-1.7,1.3-3,3-3h12.5c1.7,0,3,1.3,3,3
					C138.1,26.9,136.7,28.3,135.1,28.3z"/>
			</g>
		</g>
		<g>
			<g>
				<path class="st1" d="M135.1,17.1h-12.5c-1.7,0-3-1.3-3-3s1.3-3,3-3h12.5c1.7,0,3,1.3,3,3S136.7,17.1,135.1,17.1z"/>
			</g>
		</g>
		<g>
			<g>
				<path class="st1" d="M135.1,6h-12.5c-1.7,0-3-1.3-3-3s1.3-3,3-3h12.5c1.7,0,3,1.3,3,3S136.7,6,135.1,6z"/>
			</g>
		</g>
	</g>
	<g>
		<path class="st2" d="M11,262.8c15.1,1.6,40.6-3.9,55.4-4.4c14.9-0.4,33.6-2.1,34-14.9c0.4-12.7,0-19,1.3-27.6s-0.1-32.3,1.9-50.1
			L11,262.8z"/>
	</g>
	<g>
		<path class="st2" d="M168.5,253.5c17.2,6.4,38.3,10,56.5,11.6c6.5,0.6,11.1,0.9,15.1-4.3c2.4-3.1,2.8-7.3,2.1-11.1
			c-0.8-3.8-2.6-7.3-4.4-10.8c-7.4-13.8-15.3-27.3-23.6-40.6C199.5,175,180,127,156.5,112.6c-4.5,34.5,1.1,69.6,0.2,91.9
			c-0.4,10.2-0.8,20.5-1.2,30.7c-0.1,3.4-0.2,7.1,1.3,10.1C159.1,249.7,163.9,251.8,168.5,253.5z"/>
	</g>
	<g>
		<path class="st3" d="M251.4,177.6c2.9,10.7,3,24.5,2.9,38c-0.1,13.5-2.4,26.8-4.6,40.1c-0.7,4.3-1.9,9.3-5.8,11.3
			c-3,1.6-6.7,0.9-10.1,0.1c-13.4-3.1-26.9-6.2-40.3-9.3c-10.8-2.5-22.7-5.7-28.8-15c-5.3-8.1-4.6-18.7-2.7-28.2
			c1.9-9.5-1.4-18.1,0-28.9C189.6,175.8,222.1,174.3,251.4,177.6z"/>
	</g>
	<g>
		<path class="st2" d="M252.7,183.8c-0.4-2.2-0.8-4.3-1.4-6.3c-29.3-3.3-61.7-1.8-89.5,8.2c-0.2,1.8-0.3,3.5-0.3,5.2
			c3.2,2.7,12,2.3,15.7,3.3c9.8,2.7,34.6,7.5,44.9,6C235,198.4,249.7,191.7,252.7,183.8z"/>
	</g>
	<g>
		<path class="st3" d="M252.3,180c-0.1,9.1-16.8,17.2-31.1,19.2c-10.3,1.5-35.1-3.3-44.9-6c-4-1.1-13.9-0.5-16.3-4
			c-1.9-2.8-1.9-39.4-2.4-48.2c-1.1-17.1-1.4-34.5-0.2-51.7c0.4-5.3,0.8-10.7,1.4-16c0.5-4.5,1.8-10.5,6.7-12.1
			c6.4-2.1,14.7-0.2,19,5.1c4.9,6,10.7,10.8,16.2,16.3c9,8.9,15.5,19.5,22.5,30c5.4,8.2,15.1,24.3,20.5,36.8
			C248.1,159.8,252.3,173.8,252.3,180z"/>
	</g>
	<g>
		<g>
			<path class="st4" d="M201.8,195.7c-11.9-2.3-23.1-4.8-36-9.4c-2.1-0.7-3.1-3.1-3.7-5c-0.2-0.8-1.4-5.5-2.5-2.2
				c-0.3,0.8,0.4,3.2,0.5,4.2c0.1,1.5,0,4.1,1,5.4c2.4,3.4,12,2.8,15.9,3.9c9.5,2.7,33.7,7.3,43.7,5.9c7.2-1,14.5-3.3,20.7-7
				c2.6-1.5,5.2-3.4,7.1-5.7c0.7-0.9,1.6-2,1.9-3.2c1.2-4-4,2.8-4.6,3.3c-3.1,2.8-7.2,4.5-11,6.1C223,196.8,207.5,196.8,201.8,195.7
				z"/>
		</g>
	</g>
	<g>
		<g>
			<path class="st4" d="M215.6,240.8c-12-1.6-21.5-1.8-33.6-1.7c-4.9,0.1-10.4,0-14.4-3.2c-1.1-0.9-3.9-5.5-5.3-4.5
				c-1.5,1,0.7,4.4,1.1,5.6c0.6,1.8,1.4,3.5,2.5,5.1c5.9,9,17.5,12.2,28,14.6c13.1,3,26.1,6,39.2,9c3.3,0.8,6.9,1.5,9.8-0.1
				c3.8-2,4.9-6.8,5.6-11c1.2-7.2,2.5-14.4,3.3-21.6c0.2-1.3,0.6-3.3-0.6-4.1c-2.3-1.5-6.8,4.3-8.4,5.7c-2.5,2-5.2,3.8-8.2,5.1
				C228.5,242,221.9,241.7,215.6,240.8z"/>
		</g>
	</g>
	<g>
		<path class="st5" d="M186,79.1c0.2-0.7,0.2-1.5,0.1-2.1c-1.5-5.4-11.2-5.6-14.9-3.1c-2.2,1.6-3.6,4.1-4.3,6.8
			c-0.7,2.7-0.7,5.4-0.7,8.2c-0.1,10.7-0.2,21.4-0.3,32.1c-0.1,9.3-2,20.6,1.6,29.2c2.6-1,4.2-3.9,4.9-6.5c0.7-2.7,0.7-5.6,0.8-8.4
			c0.2-14.1,2.6-28.1,7-41.5c1.1-3.3,2.3-6.7,3.7-9.9C184.4,82.5,185.6,80.8,186,79.1z"/>
	</g>
	<g>
		<path class="st5" d="M166.1,225.2c1.1,3,5.5,6.9,8.9,6.9c5.6,0,5.3-5.4,4.1-9.5c-0.7-2.3-1.8-4.6-2.9-6.7
			c-1.6-2.9-1.8-4.1-1.5-7.6c0.3-2.5-0.3-8.8-4.2-8.3c-2.2,0.3-2.6,2.9-3,4.7c-0.9,4-1,8.1-1.6,12.1
			C165.5,219.7,165.1,222.6,166.1,225.2z"/>
	</g>
	<g>
		<path class="st3" d="M2.7,228.6c-0.8,7.7-1.7,15.3-2.5,23c-0.4,3.4-0.5,7.5,2.1,9.7c2.2,1.9,9.9,1.5,12.8,1.5
			c17.5,0.2,26-3.6,41.3-5.4c6.9-0.8,13.9-1.6,20.5-3.9c6.6-2.3,12.8-6.2,16.6-12.1c3-4.7,4.2-10.3,4.5-15.8
			c0.2-5.5,0.9-10.6,2.9-17.2C89.6,213.9,15.8,228.2,2.7,228.6z"/>
	</g>
	<g>
		<path class="st4" d="M93.1,221.4c-0.2,5.5,0.4,10.5-2.5,15.1c-3.7,5.8-7.5,10.2-14,12.5c-6.5,2.3-13.4,3-20.3,3.8
			c-15.1,1.7-23.4,5.5-40.8,5.3c-2.8,0-10.5,0.3-12.6-1.5c-1.4-1.2-2-2.9-2.2-4.8c-0.2,3.1-0.1,6.3,2.2,8.3
			c2.2,1.8,9.8,1.5,12.6,1.5c17.3,0.2,25.7-3.6,40.8-5.3c6.8-0.8,13.8-1.6,20.3-3.8c6.5-2.3,12.7-6.2,16.4-12
			c2.9-4.6,4.2-10.1,4.4-15.6c0.2-5.5,0.9-10.5,2.9-17c-0.3,0.2-13.6,4.6-14,4.8C91.6,215.1,93.3,217.1,93.1,221.4z"/>
	</g>
	<g>
		<path class="st2" d="M2.7,228.6c-0.1,1-0.2,2.1-0.3,3.1c0.1,0.3,5.4,1.3,8,1.4c6.8,0.3,13.3-1,20.2-2.7c5.2-1.3,10.6-2.4,15.7-3.7
			c14-3.4,28.1-6.3,42.1-9.7c3.3-0.8,6.1-1.7,9.1-3.2c0.8-0.4,1.6-0.6,1.6,1.2c0.2-0.8,1.4-5.8,1.7-6.5
			C89.6,213.9,15.8,228.2,2.7,228.6z"/>
	</g>
	<g>
		<path class="st3" d="M9.7,150.1c-8.6,16.8-6.1,35.3-7.9,56.7c-0.5,6-1.1,18.8,0.9,24.5c9.6,2.4,18.6,0.8,28.2-1.5
			c5.2-1.3,10.4-2.5,15.6-3.8c14-3.4,28-6.8,42-10.2c3.3-0.8,6.7-1.6,9.4-3.7c2.7-2,4.6-5.6,3.6-8.8
			C88.6,200.1,15.4,154.6,9.7,150.1z"/>
	</g>
	<g>
		<path class="st4" d="M100.1,203.2c-0.6,1.8-25.9-0.2-25.5,3.1c1,8.9-14.3,11.8-28,15.1c-5.1,1.2-10.2,2.2-15.2,3.7
			c-14.1,4.2-27.8,3.6-27.8,4.4c0,3.6,18.7,1.2,21.8,0.5c5.1-1.2,16.1-3.4,21.1-4.6c13.7-3.3,27.3-6.6,41-9.9
			c3.2-0.8,6.5-1.6,9.1-3.6c2.6-2,4.5-5.4,3.5-8.6C100.1,203.2,100.1,203.2,100.1,203.2z"/>
	</g>
	<g>
		<path class="st2" d="M9.7,150.1c-0.4,0.7-0.7,1.4-1,2.2c-0.3,0.6,8.3,19.6,15.9,27.1c14.9,14.5,29.3,26.9,54.1,28
			c7,0.3,17.1,1.3,21,0.4c0.9-0.2,1.2,0.8,1.2,0.7c0.8-1.6,1-3.4,0.5-5.1C88.6,200.1,15.4,154.6,9.7,150.1z"/>
	</g>
	<g>
		<path class="st3" d="M77.4,206.4c-23.8-1.1-37-12.8-51.4-26.6c-9.1-8.7-18.6-28.6-15.9-32.6c3-4.4,17.7-39.6,47.3-70.3
			c6-6.3,14.7-19.5,23.4-20c6.8-0.4,13.2,4,16.6,9.8c3.6,6.2,4.1,13.6,4.6,20.8c1.9,34,2.2,68.1,0.7,102.1c-0.3,7.1,1,12.8-1.3,15.3
			C98.8,207.6,88.6,207,77.4,206.4z"/>
	</g>
	<g>
		<path class="st4" d="M99.3,190.4c-1.9,6.6-3.9,10.1-21.6,10.1c-22.9,0-38-11.3-56.4-33c-8.3-9.8-9.6-20.3-9.9-19.7
			c-2.6,3.8,6.6,22.9,15.3,31.2c13.9,13.2,26.6,24.4,49.5,25.5c10.8,0.5,20.6,1.1,23.1-1.6C101.5,200.5,100.2,187.4,99.3,190.4z"/>
	</g>
	<g>
		<path class="st5" d="M49.1,169.4c6.7-1.9,9.2-9.6,10.4-16.2c0.5-2.9,0.1-5.9,0.7-8.8c1-4.9,3.2-9.8,4.9-14.4
			c4.2-12,8.4-23.9,12.6-35.9c2.1-6,7.8-20.9,2.3-26.4c-4.2-4.2-10.9,3.7-13.2,6.8c-7.1,9.7-14.3,19.4-21.4,29.1
			c-5.5,7.5-11.1,15.1-14.6,23.9c-3.5,8.8-4.9,18.9-1.9,27.9c1.5,4.5,4.1,8.6,7.7,11.3C40.1,169.4,44.8,170.6,49.1,169.4z"/>
	</g>
	<g>
		<path class="st5" d="M12.8,219.6c-2.1-1-2.5-4.1-2.6-6.6c-0.2-6.5-0.5-13-0.7-19.5c-0.2-5.4-1.3-10.1-1.8-15.5
			c-0.3-2.9,1.4-6.4,4.9-4.6c1.3,0.7,1.8,2.6,2.6,3.7c1.4,1.9,3.1,3.6,4.8,5.3c3.3,3.5,6.2,7.5,6.6,12.4c0.5,7.4-3.3,14.2-7,20.4
			c-0.8,1.3-1.6,2.6-2.7,3.6C15.6,219.8,14.1,220.2,12.8,219.6z"/>
	</g>
	<g>
		<path class="st5" d="M27.4,238.5c1.5,0.8,1.7,2.9,1.4,4.6c-0.7,4.7-3.7,9-7.7,11.4c-1.5,0.9-3.2,1.5-4.9,1.2
			c-2.5-0.6-3.9-3.1-5.1-5.5c-0.9-1.8-1.7-3.6-1.9-5.6c-0.2-2,0.5-4.1,2.2-5.2c1.1-0.7,2.5-0.8,3.9-0.9c3.1-0.2,6.2-0.3,9.3-0.5
			C25.6,238.1,26.6,238,27.4,238.5z"/>
	</g>
</g>
</svg>
