<?xml version="1.0" encoding="UTF-8"?>
<svg xmlns="http://www.w3.org/2000/svg" version="1.1" width="1000" height="1000" viewBox="0 0 1000 1000"><rect x="0" y="0" width="1000" height="1000" fill="#ffffff"/><g transform="scale(40)"><g transform="translate(0,0)"><path fill-rule="evenodd" d="M9 0L9 2L8 2L8 8L9 8L9 6L10 6L10 7L11 7L11 6L12 6L12 7L13 7L13 9L14 9L14 10L12 10L12 8L10 8L10 9L8 9L8 11L9 11L9 13L8 13L8 12L6 12L6 13L8 13L8 14L5 14L5 12L4 12L4 11L7 11L7 10L5 10L5 9L7 9L7 8L2 8L2 9L1 9L1 8L0 8L0 10L1 10L1 11L0 11L0 17L1 17L1 14L2 14L2 17L3 17L3 15L4 15L4 16L5 16L5 17L7 17L7 16L6 16L6 15L8 15L8 18L9 18L9 19L8 19L8 23L10 23L10 22L12 22L12 21L14 21L14 22L13 22L13 23L14 23L14 24L12 24L12 25L15 25L15 21L16 21L16 22L17 22L17 23L16 23L16 24L22 24L22 25L25 25L25 24L24 24L24 23L25 23L25 21L23 21L23 22L22 22L22 23L21 23L21 21L22 21L22 19L25 19L25 15L23 15L23 14L22 14L22 15L23 15L23 16L24 16L24 18L22 18L22 19L21 19L21 17L22 17L22 16L17 16L17 15L19 15L19 14L20 14L20 15L21 15L21 13L22 13L22 12L19 12L19 14L17 14L17 15L16 15L16 13L18 13L18 12L14 12L14 10L15 10L15 9L16 9L16 10L17 10L17 11L19 11L19 10L20 10L20 11L21 11L21 9L23 9L23 8L18 8L18 9L16 9L16 8L17 8L17 6L16 6L16 8L15 8L15 9L14 9L14 7L15 7L15 5L17 5L17 4L16 4L16 3L17 3L17 2L16 2L16 3L14 3L14 2L15 2L15 1L16 1L16 0L14 0L14 1L13 1L13 4L11 4L11 2L12 2L12 0L11 0L11 2L10 2L10 0ZM9 2L9 4L10 4L10 2ZM13 4L13 5L12 5L12 6L13 6L13 7L14 7L14 6L13 6L13 5L15 5L15 4ZM10 5L10 6L11 6L11 5ZM2 9L2 10L3 10L3 11L4 11L4 10L3 10L3 9ZM10 9L10 10L11 10L11 11L12 11L12 12L13 12L13 11L12 11L12 10L11 10L11 9ZM18 9L18 10L19 10L19 9ZM24 9L24 10L25 10L25 9ZM22 10L22 11L23 11L23 10ZM1 11L1 12L2 12L2 14L4 14L4 13L3 13L3 12L2 12L2 11ZM23 12L23 13L24 13L24 14L25 14L25 12ZM9 13L9 15L10 15L10 14L11 14L11 18L10 18L10 16L9 16L9 18L10 18L10 20L11 20L11 21L12 21L12 20L14 20L14 19L13 19L13 18L15 18L15 20L16 20L16 17L15 17L15 16L16 16L16 15L15 15L15 16L12 16L12 13ZM13 13L13 14L14 14L14 13ZM17 17L17 20L20 20L20 17ZM18 18L18 19L19 19L19 18ZM11 19L11 20L12 20L12 19ZM9 21L9 22L10 22L10 21ZM17 21L17 22L18 22L18 21ZM19 21L19 23L20 23L20 21ZM23 22L23 23L22 23L22 24L23 24L23 23L24 23L24 22ZM8 24L8 25L9 25L9 24ZM0 0L7 0L7 7L0 7ZM1 1L1 6L6 6L6 1ZM2 2L5 2L5 5L2 5ZM18 0L25 0L25 7L18 7ZM19 1L19 6L24 6L24 1ZM20 2L23 2L23 5L20 5ZM0 18L7 18L7 25L0 25ZM1 19L1 24L6 24L6 19ZM2 20L5 20L5 23L2 23Z" fill="#000000"/></g></g></svg>
