<?xml version="1.0" encoding="utf-8"?>
<!-- Generator: Adobe Illustrator 25.2.0, SVG Export Plug-In . SVG Version: 6.00 Build 0)  -->
<svg version="1.1" id="Layer_1" xmlns="http://www.w3.org/2000/svg" xmlns:xlink="http://www.w3.org/1999/xlink" x="0px" y="0px"
	 viewBox="0 0 267.3 196.2" style="enable-background:new 0 0 267.3 196.2;" xml:space="preserve">
<style type="text/css">
	.st0{fill:#F3AEA5;}
	.st1{fill:#F5978A;}
	.st2{fill:#FFC94C;}
	.st3{fill:#FFDA6D;}
	.st4{fill:#FCB63B;}
	.st5{fill:#FAA73E;}
	.st6{fill:#F3C9C3;}
	.st7{fill:#E7776E;}
</style>
<g>
	<g>
		<path class="st0" d="M135,121.6c-44.1,0-74.9-8.6-91.5-25.4C23.9,76.3,24.4,46,24.9,16.8c0.1-4.4,0.2-8.8,0.2-13.2H0.3
			c0,4.1-0.1,8.3-0.1,12.7C-0.4,47.5-1,86.2,25.8,113.5c21.7,22.1,57.4,32.8,109.2,32.8c27.5,0,34.8,30.2,34.8,46.2c0,0,0,0,0,0
			c0,2,5.5,3.6,12.4,3.6c6.8,0,12.4-1.6,12.4-3.6h0C194.5,157.3,174,121.6,135,121.6z"/>
	</g>
	<g>
		<path class="st1" d="M135,121.6c-44.1,0-74.9-8.6-91.5-25.4C23.9,76.3,24.4,46,24.9,16.8c0.1-4.4,0.2-8.8,0.2-13.2h-7.7
			c-1.5,34.8,2.3,73.1,12.4,113.7c22,19.6,56.5,29.1,105.2,29.1c9,0,15.8,3.3,21,8.2c22.4-2.8,31,16.7,33.4,35.4
			c0.1,0.8,0.2,1.7,0.3,2.5c0,0,0,0.1,0,0.1c0.1,1,0.2,1.9,0.2,2.8c2.8-0.7,4.6-1.7,4.6-2.8h0C194.5,157.3,174,121.6,135,121.6z"/>
	</g>
	<g>
		<g>
			<path class="st2" d="M64.9,126.9c2.8,3.5,7.1,5.9,11.6,6.4c4.5,0.5,9.9,0,13.4-2.9c5.6,1.6,11.8,1.3,17.2-1
				c1.6-0.7,3.1-1.5,4.4-2.7c1.2-1.2,3.5-3.6,3.6-5.3c4.2,2.4,9.4,3,13.9,1.4c4.6-1.5,9.8-5.6,11.7-10c3.5,2.8,8,4.3,12.4,4.2
				c4.4-0.1,9.5-2.3,12.8-5.3c6.7,4.7,16.3,4.9,23.1,0.4c0.9-1.2,2.4-2.6,3.3-3.9c4.1,3.3,9.6,4.7,14.7,3.7c5.1-1,10.2-4,12.7-8.6
				c4.6,0.9,9.6-0.3,13.3-3.2c3.7-2.9,6.4-7.5,6.8-12.2c3.8,0.9,8-0.3,10.7-3.1c2.8-2.7,4.2-7.1,3.3-10.9c3.8,0.5,7.6-2.2,9.2-5.7
				c1.6-3.5,1-7.8-0.1-11.5c1.9-1.1,3.3-3,3.9-5.1c1-4-1.3-8.6-5.2-10.2c-3.8-1.6-9.6,0.5-12.2,3.7c-3.4-1.9-7.5-2.4-11.2-1.3
				c-3.7,1.1-6.9,4-8.6,7.4c-2.7-2.3-6.3-3.5-9.9-3.4c-3.5,0.1-8.5,1.6-11.1,4c-1.9-4.1-5.7-7.2-10.1-8.1c-4.4-0.9-9.9-0.3-13.2,2.7
				c-1.5-4.2-5-7.5-9.2-8.9s-9.6-0.1-13.2,2.4c-1.9-3.5-5.3-6.1-9.1-7c-3.8-0.9-8.5,0.3-11.8,2.5c-1.8-4.1-5.8-7.2-10.2-8
				c-4.4-0.7-9.4,2.1-12.4,5.5c-2.3-3.6-6.5-5.9-10.8-5.9c-4.3,0-8.3,3.3-10.6,6.9c-3.5-4-9.3-5.8-14.4-4.4
				c-5.1,1.3-10.3,6.4-11.3,11.6c-2.8-2.8-7.3-3.8-11.2-2.8c-3.9,1-7.2,3.7-9.2,7.2c-2,3.5-2.4,7.9-2.3,11.9
				c-6.7-1.1-13.9,2.2-17.5,7.9S28.9,79.2,33,84.7c-2.3,4.3-1.8,11.9,0.4,16.2c2.2,4.3,7.7,8,12.5,8.7
				C45.7,120.9,55.9,127.9,64.9,126.9z"/>
		</g>
	</g>
	<g>
		<g>
			<path class="st3" d="M45.5,79.7c3.3,0.2,6.8-1.3,8.8-4c2-2.7,2.3-6.6,0.6-9.5c-1.7-2.9-5.3-4.6-8.5-3.8c-2.3,0.6-4.3,2.2-5.8,4
				c-1.3,1.5-2.5,3.2-2.8,5.2c-0.2,2.1,0.6,4.2,2.1,5.6C41.4,78.8,43.4,79.6,45.5,79.7z"/>
		</g>
	</g>
	<g>
		<g>
			<path class="st3" d="M71.7,50.9c0.3-1,0.3-2.1,0-3c-0.6-1.8-2.4-2.9-4.3-3.3c-1.5-0.3-3.1-0.2-4.5,0.4c-1.4,0.6-2.6,1.8-3.2,3.2
				c-0.8,2.1-0.2,4.6,1.4,6.1c1.6,1.5,4.1,2,6.2,1.3C69.4,54.8,71.1,53,71.7,50.9z"/>
		</g>
	</g>
	<g>
		<g>
			<path class="st3" d="M91.5,36.6c-1.6-0.5-3.4-0.5-5,0.1c-1.6,0.6-2.9,1.9-3.5,3.5c-0.8,2.1-0.2,4.6,1.2,6.4
				c1,1.4,2.5,2.4,4.2,2.8c2.4,0.6,5.1-0.3,6.7-2.2c1.6-1.9,1.9-4.7,0.8-7C95,38.5,93.3,37.2,91.5,36.6z"/>
		</g>
	</g>
	<g>
		<g>
			<path class="st3" d="M105.9,44.4c1.9,1.5,4.5,2,6.7,1.1c2.2-0.9,3.9-3.1,4-5.5c0.1-2.8-2.2-5.4-4.9-5.8c-2.2-0.3-4.4,0.7-5.9,2.3
				c-1.2,1.2-2.1,2.9-1.9,4.7C104.1,42.5,104.9,43.6,105.9,44.4z"/>
		</g>
	</g>
	<g>
		<g>
			<path class="st3" d="M72,115.7c0.8,1.1,2.2,1.8,3.6,2c1.4,0.2,2.8,0,4.2-0.3c1.9-0.4,4-1.2,4.9-2.9c0.9-1.7,0.5-3.9-0.8-5.4
				c-1.3-1.4-3.3-2.1-5.2-2.2c-2.3-0.1-4.7,0.6-6.2,2.3C71,111.1,70.6,113.9,72,115.7z"/>
		</g>
	</g>
	<g>
		<g>
			<path class="st3" d="M100.7,104c-2,0.8-3.8,2-5.2,3.5c-1.1,1.1-2,2.6-1.8,4.1c0.3,2,2.5,3.3,4.5,3.2c2-0.1,3.9-1.2,5.5-2.4
				c1.3-1,2.6-2,3.3-3.5c0.7-1.4,0.7-3.3-0.4-4.5c-0.7-0.8-1.8-1.1-2.8-1.1C102.7,103.3,101.7,103.6,100.7,104z"/>
		</g>
	</g>
	<g>
		<g>
			<path class="st3" d="M125.3,99.4c-1.9,0.3-3.9,1.1-5,2c-1.4,1.1-2.3,3.2-1.5,4.8c0.7,1.3,2.3,2,3.8,1.9c1.5-0.1,2.9-0.8,4.2-1.5
				c2.5-1.4,5.6-4.1,2.2-6.6C128,99.3,126.7,99.2,125.3,99.4z"/>
		</g>
	</g>
	<g>
		<g>
			<path class="st3" d="M154,99.2c-1.9-0.3-3.8-0.4-5.8-0.3c-1.4,0.1-2.9,0.3-3.8,1.5c-1,1.3-0.5,3.2,0.7,4.3
				c1.2,1.1,2.9,1.4,4.5,1.5c1.2,0.1,2.4,0,3.4-0.4c1.1-0.4,2.1-1.2,2.5-2.3c0.4-1.1,0.3-2.4-0.4-3.3
				C154.6,99.2,155.2,99.4,154,99.2z"/>
		</g>
	</g>
	<g>
		<g>
			<path class="st3" d="M178.6,95c-1.8,0.2-3.6,0.4-5.1,1.4c-1.5,1-2.6,2.9-2,4.6c0.6,1.6,2.3,2.4,4,2.3c1.6-0.1,3.2-0.9,4.5-1.8
				c1.2-0.8,2.4-1.8,2.5-3.2c0.1-1.4-1.1-2.7-2.4-3.1C178.7,94.7,180,94.8,178.6,95z"/>
		</g>
	</g>
	<g>
		<g>
			<path class="st3" d="M201.9,100.3c2.8,0.8,6-0.4,7.4-2.9c0.8-1.4,1-3.4-0.1-4.6c-1.1-1.2-3.1-1.1-4.6-0.5
				c-1.6,0.6-3.1,1.6-4.2,2.9c-0.6,0.7-1.1,1.5-1.1,2.4C199.3,98.9,200.6,99.9,201.9,100.3z"/>
		</g>
	</g>
	<g>
		<g>
			<path class="st3" d="M232.5,83.3c-0.8-1.3-2.6-1.6-4.1-1.3c-1.5,0.4-2.7,1.3-3.8,2.4c-0.7,0.7-1.5,1.4-1.9,2.3
				c-0.4,0.9-0.4,2.1,0.3,2.8c0.8,0.8,2.1,0.7,3.3,0.6c1.8-0.3,3.7-0.7,5.1-1.8C232.8,87,233.5,84.8,232.5,83.3z"/>
		</g>
	</g>
	<g>
		<g>
			<path class="st3" d="M242.4,70c-2,0.5-3.7,2-4.5,3.9c-0.5,1.1-0.7,2.6,0.2,3.5c0.5,0.6,1.4,0.8,2.2,0.8c0.8-0.1,1.6-0.4,2.3-0.7
				c1.5-0.7,3-1.7,3.7-3.2c0.7-1.5,0.4-3.6-1.1-4.3C243.8,69.2,243.9,69.6,242.4,70z"/>
		</g>
	</g>
	<g>
		<g>
			<path class="st3" d="M256.6,56.3c-1-0.5-2.2-0.4-3.3,0.1c-1,0.5-1.9,1.2-2.8,1.9c-0.9,0.8-1.8,1.6-2.3,2.6
				c-0.6,1-0.7,2.4-0.1,3.3c0.6,0.9,1.6,1.3,2.6,1.4c2.9,0.4,6-1.4,7.1-4.1c0.4-0.9,0.6-1.9,0.4-2.9
				C258.1,57.7,257.5,56.8,256.6,56.3z"/>
		</g>
	</g>
	<g>
		<g>
			<path class="st3" d="M258.5,50.1c1.4-0.6,2.6-1.9,2.6-3.4c0.1-1.5-1.3-3-2.8-2.8c-1.4,0.4-2.7,1-3.5,2.3c-0.7,1.2-0.6,3,0.5,3.8
				C256.2,50.7,257.5,50.6,258.5,50.1z"/>
		</g>
	</g>
	<g>
		<g>
			<path class="st3" d="M240,55.5c1.3-0.2,2.6-0.6,3.7-1.3c1.1-0.7,2-1.9,2.2-3.2c0.2-1.3-0.5-2.8-1.7-3.3c-2.8-0.4-5.8,0.2-8.2,1.7
				c-1.1,0.7-2.2,1.8-2.3,3.2c0,1.3,1.1,2.5,2.3,2.9C237.3,55.9,238.7,55.8,240,55.5z"/>
		</g>
	</g>
	<g>
		<g>
			<path class="st3" d="M209.7,58c0,2,1.9,3.7,3.9,4c2,0.3,4.1-0.4,5.9-1.2c1.5-0.7,3.1-1.5,3.9-3c0.8-1.4,0.6-3.6-0.9-4.4
				c-2.3-0.5-4.8-0.5-7.1-0.2c-1.3,0.2-2.7,0.5-3.8,1.3C210.6,55.4,209.7,56.7,209.7,58z"/>
		</g>
	</g>
	<g>
		<g>
			<path class="st3" d="M186.8,52c-0.4,1.5,0.4,3,1.5,4.1c2.2,2.3,5.8,3.1,8.8,2.2c1.7-0.5,3.4-1.9,3.6-3.7c0.2-1.6-1-3.1-2.4-3.9
				c-1.4-0.8-3.1-1-4.7-1.2c-1.3-0.2-2.7-0.3-3.9,0C188.4,49.9,187.2,50.7,186.8,52z"/>
		</g>
	</g>
	<g>
		<g>
			<path class="st3" d="M174.2,43.4c-1.4-0.7-3-1.1-4.6-1.1c-2,0-4.1,0.8-5.4,2.5c-1.2,1.6-1.3,4.1,0.1,5.6c1.1,1.1,2.7,1.5,4.3,1.6
				c2.1,0.2,4.4-0.1,5.8-1.6c1-1.1,1.4-2.8,0.9-4.2C174.8,44.8,175.5,44.1,174.2,43.4z"/>
		</g>
	</g>
	<g>
		<g>
			<path class="st3" d="M154.1,41.7c-0.5-1.3-1.6-2.2-2.8-2.7c-1.2-0.5-2.6-0.6-4-0.6c-1.2,0-2.4,0.2-3.4,0.8
				c-1.1,0.5-2,1.5-2.3,2.6c-0.4,1.7,0.5,3.5,1.9,4.4c1.4,1,3.2,1.3,4.9,1.2c1.8,0,3.6-0.4,4.8-1.6
				C154.3,44.7,154.6,43.1,154.1,41.7z"/>
		</g>
	</g>
	<g>
		<g>
			<path class="st3" d="M134.9,36.8c-1.1-1.5-2.8-2.7-4.6-2.9c-1.9-0.2-3.9,0.5-4.9,2.1c-1.3,2-0.7,4.9,1.2,6.3
				c1.6,1.1,3.8,1,5.7,0.6c1.3-0.3,2.8-0.9,3.4-2.1C136.2,39.5,135.7,38,134.9,36.8z"/>
		</g>
	</g>
	<g>
		<g>
			<path class="st3" d="M78.6,53c-1,0.7-1.9,1.5-2.3,2.6c-0.6,1.6,0.1,3.6,1.4,4.7c1.3,1.1,3.2,1.5,4.9,1.2c1.9-0.3,3.7-1.4,4.6-3
				c0.9-1.6,0.9-3.9-0.3-5.4c-1-1.2-2.6-1.8-4.1-1.8C81.3,51.5,79.9,52.2,78.6,53z"/>
		</g>
	</g>
	<g>
		<g>
			<path class="st3" d="M67,62.2c-1.6-0.3-3.4,0.2-4.6,1.3c-2,1.8-2.4,5.2-0.8,7.4c1.6,2.2,5,2.7,7.3,1.2c1.7-1.2,2.6-3.6,1.9-5.6
				C70.1,64.4,69,62.5,67,62.2z"/>
		</g>
	</g>
	<g>
		<g>
			<path class="st3" d="M112,56.3c-1-2.6-3.6-4.5-6.3-4.6c-2.8-0.1-5.5,1.5-6.7,4c-1,2.1-0.8,5,1.1,6.4c1.2,0.8,2.7,1,4.2,0.9
				c1.7-0.1,3.3-0.5,4.9-1.1c1.3-0.5,2.5-1.3,3-2.5C112.5,58.3,112.4,57.3,112,56.3z"/>
		</g>
	</g>
	<g>
		<g>
			<path class="st3" d="M127.7,48.2c-1.4-0.3-2.9-0.3-4.2,0.2c-2.3,0.9-3.9,3.3-3.8,5.7c0.1,2.4,2.1,4.7,4.5,5
				c1.4,0.2,2.8-0.2,4.1-0.8c1.1-0.5,2.1-1.2,2.9-2.1c0.8-0.9,1.3-2.1,1.2-3.3C132.3,50.6,130.1,48.8,127.7,48.2z"/>
		</g>
	</g>
	<g>
		<g>
			<path class="st3" d="M156.2,53.7c-0.6-0.3-1.2-0.5-1.7-0.6c-2.6-0.5-5.3,0.8-7.1,2.6c-1.3,1.4-1.9,3.8-0.8,5.4
				c1,1.4,2.9,1.9,4.7,2.1c1.6,0.2,3.2,0.4,4.7-0.1c2.2-0.7,3.9-2.8,4-5.1C160.1,56.3,158.1,54.6,156.2,53.7z"/>
		</g>
	</g>
	<g>
		<g>
			<path class="st3" d="M178.3,57.4c-2-0.8-4.4,0-5.6,1.8c-1.2,1.8-1.1,4.3,0.2,6c1.5,2,4.4,2.7,6.7,1.7c2.2-1.1,3.5-3.8,2.9-6.2
				C181.8,58.2,180.6,58.3,178.3,57.4z"/>
		</g>
	</g>
	<g>
		<g>
			<path class="st3" d="M209.3,66.2c0.6-1.2-0.1-2.8-1.2-3.5c-1.2-0.7-2.7-0.6-3.9,0c-1.2,0.6-2.2,1.6-3,2.6c-0.5,0.7-1,1.4-1.1,2.2
				c-0.1,0.8,0.1,1.7,0.8,2.2c0.9,0.6,2.1,0.3,3.1-0.1c1.2-0.5,2.4-1,3.5-1.7C208.2,67.5,209,67,209.3,66.2z"/>
		</g>
	</g>
	<g>
		<g>
			<path class="st3" d="M229.2,57.9c-0.7,0.6-1.2,1.4-1.7,2.2c-0.5,0.9-1.1,2-0.6,2.9c0.3,0.6,1.1,1,1.8,1c0.7,0,1.4-0.2,2.1-0.4
				c1.5-0.5,3.2-1.2,3.6-2.7c0.5-2.2-1.6-4.1-3.7-3.8C230.2,57.3,229.7,57.6,229.2,57.9z"/>
		</g>
	</g>
	<g>
		<g>
			<path class="st3" d="M215.2,78.1c-1.8-0.5-3.8-0.3-5.5,0.5c-1.7,0.9-2.9,2.5-3.2,4.3c-0.2,1.4,0.3,2.9,1.4,3.7
				c1.1,0.8,2.6,0.6,4,0.4c1.7-0.2,3.4-0.5,4.8-1.4c1.4-0.9,2.6-2.5,2.3-4.2C218.7,79.8,217,78.6,215.2,78.1z"/>
		</g>
	</g>
	<g>
		<g>
			<path class="st3" d="M229.9,70.8c-1.4,0.2-2.4,1.3-3.2,2.4c-0.8,1.1-1.6,2.4-1.1,3.6c0.4,1.1,1.7,1.6,2.9,1.6
				c1.4,0,2.9-0.5,3.9-1.5c1-1.1,1.4-2.6,0.9-4C232.8,71.6,231.3,70.6,229.9,70.8z"/>
		</g>
	</g>
	<g>
		<g>
			<path class="st3" d="M244.2,61c-0.8-1.1-2.4-1-3.6-0.4c-1.3,0.7-2.4,2.1-2.4,3.6c0,1.5,1.2,3,2.7,3c1.7,0,2.9-1.6,3.4-3.1
				C244.7,63,244.9,61.8,244.2,61z"/>
		</g>
	</g>
	<g>
		<g>
			<path class="st3" d="M191.2,85.3c-1-0.6-2.2-0.9-3.4-0.9c-1.9,0-4.1,1.1-4.5,3c-0.2,1.2,0.3,2.4,1.1,3.3c0.8,0.8,2,1.3,3.2,1.6
				c1.2,0.3,2.6,0.3,3.7-0.3c1.7-1,2.1-3.6,1.1-5.2c-1.1-1.7-3.2-2.5-5.2-2.2"/>
		</g>
	</g>
	<g>
		<g>
			<path class="st3" d="M158,85.9c-2.2-0.1-4.7,0.8-3.9,3.4c0.3,1.1,1.2,1.9,2.2,2.3c1,0.4,2.2,0.5,3.2,0.3c4-0.5,3.7-4.2,0.3-5.6
				C159.3,86.1,158.7,85.9,158,85.9z"/>
		</g>
	</g>
	<g>
		<g>
			<path class="st3" d="M134.8,84.5c-1.2,0.3-2.4,0.9-3.4,1.8c-0.9,0.9-1.2,2.4-0.6,3.6c0.6,1.3,2,2.1,3.4,2.3
				c3,0.4,9.6-1.1,6.8-5.3C139.5,84.8,137.1,84,134.8,84.5z"/>
		</g>
	</g>
	<g>
		<g>
			<path class="st3" d="M108.3,87.2c-1.5-0.1-3.1,0.3-4.2,1.2c-1.1,0.9-1.6,2.5-1.3,3.9c1.2,4.5,9.8,4.7,10.4-0.3
				C113.6,89.1,111,87.4,108.3,87.2z"/>
		</g>
	</g>
	<g>
		<g>
			<path class="st3" d="M87.8,93.3c-1.9-0.4-4,0-5.5,1.7c-1.4,1.5-1.7,4-0.4,5.6c1,1.2,2.6,1.7,4.2,1.7c1.8,0.1,3.7-0.3,5.1-1.5
				C94.8,97.8,91.6,94,87.8,93.3z"/>
		</g>
	</g>
	<g>
		<g>
			<path class="st3" d="M62.7,97.9c-1.7,1.2-3.2,2.9-4.2,4.8c-0.4,0.7-0.7,1.6-0.8,2.4c-0.1,0.8,0.2,1.7,0.8,2.3
				c0.6,0.7,1.6,0.9,2.5,0.8c0.9-0.1,1.8-0.4,2.6-0.8c1.8-0.8,3.7-1.8,4.9-3.5c1.1-1.7,1.3-4.2-0.2-5.5c-1.2-1.1-3-1.2-4.5-0.7
				c-1.5,0.5-2.8,1.6-4,2.6"/>
		</g>
	</g>
	<g>
		<g>
			<path class="st3" d="M38.6,84.7c-0.9,1.1-0.6,2.8,0,4c0.5,0.9,1.1,1.8,2,2.4c1.5,0.9,3.6,0.5,4.7-0.8c1.1-1.3,1.2-3.4,0.2-4.8
				c-0.9-1.4-2.8-2.2-4.5-2C39.4,83.7,39.8,83.3,38.6,84.7z"/>
		</g>
	</g>
	<g>
		<g>
			<g>
				<path class="st4" d="M266.3,45.8c-0.6,4.1-2.7,8.2-5.8,10.1c1.2,2.8,2.4,5.9,1.8,8.9c-0.5,2.3-2,4.4-4.1,5.4
					c-2.1,1.1-4.8,3.2-6.9,2.1c1.2,3.4,0.3,7.5-2.3,10c-2.6,2.6-8.2,2.8-11.6,1.6c0.4,5.2-2,10.5-6.1,13.6c-4.1,3.1-11,3.6-15.8,1.9
					c-2.7,3.2-6.6,5.3-10.8,5.7c-4.2,0.4-7.9-1.3-11.1-4c-2.6,4.8-7.6,8.1-13,8.6c-5.4,0.5-11.4-2.1-14.8-6.3
					c-3,4.6-8.3,7.5-13.7,7.6c-5.4,0.1-11.9-3.2-15-7.6c-1.2,4.7-4.6,8.8-9.1,10.8c-4.4,2-11.2,2-15.5-0.2c-2,3.6-5.4,6.5-9.4,7.7
					c-4,1.2-8.3,1.3-11.9-0.6c-2.1,4.5-7.6,6.9-12.5,6.3c-5-0.6-9.8-3.4-12.8-7.3c-4.2,0.2-8.4-1.5-11.3-4.6
					c-2.9-3.1-4.9-7.2-4.4-11.3c-4.7,0.3-9.5-1.3-13.2-4.4c-2.3-2-4.2-4.5-5.3-7.3c0.1,3.1,0.7,6.2,1.9,8.4c2.2,4.3,7.7,8,12.5,8.7
					c-0.2,11.3,10,18.3,19,17.3c2.8,3.5,7.1,5.9,11.6,6.4c4.5,0.5,9.9,0,13.4-2.9c5.6,1.6,11.8,1.3,17.2-1c1.6-0.7,3.1-1.5,4.4-2.7
					c1.2-1.2,3.5-3.6,3.6-5.3c4.2,2.4,9.4,3,13.9,1.4c4.6-1.5,9.8-5.6,11.7-10c3.5,2.8,8,4.3,12.4,4.2c4.4-0.1,9.5-2.3,12.8-5.3
					c6.7,4.7,16.3,4.9,23.1,0.4c0.9-1.2,2.4-2.6,3.3-3.9c4.1,3.3,9.6,4.7,14.7,3.7c5.1-1,10.2-4,12.7-8.6c4.6,0.9,9.6-0.3,13.3-3.2
					c3.7-2.9,6.4-7.5,6.8-12.2c3.8,0.9,8-0.3,10.7-3.1c2.8-2.7,4.2-7.1,3.3-10.9c3.8,0.5,7.6-2.2,9.2-5.7c1.6-3.5,1-7.7-0.1-11.5
					c1.9-1.1,3.3-3,3.9-5.1C267.6,49.8,267.2,47.6,266.3,45.8z"/>
			</g>
		</g>
	</g>
	<g>
		<g>
			<path class="st5" d="M189.4,73.8c3.7-2,7.3-5.7,10.3-8.7c-10.8,8.2-26.4,11.3-39.3,7.2c3.3-1.7,7.1-6.2,9.4-9.1
				c-3.9,4.2-9.8,6-15.5,6.8c-10.6,1.5-22.1,0.1-32.8-1.3c2.1-2.1,2.8-5.1,3-8.1c-2.7,3.8-7.6,8.3-12.2,8
				c-11.2-0.5-22.6,1.6-32.8,6.4c1.4-2.6,2.2-5.6,2-8.5C78.2,74.3,71.1,79.7,64,84.4c-7.1,4.7-14.5,9.4-19.1,16.6
				c-1.7,2.7-2.4,4.8-3.2,7.4c0.8,0.3,1.5,0.6,2.3,0.9c0.6,0.2,1.2,0.3,1.8,0.4c0,2.5,0.4,4.8,1.3,6.9c5.7-19.6,24.6-29.7,30.2-30.8
				c5.7-1.1,12.1,0.1,17,3.2c-3-4.1-7.5-7.1-12.4-8.3c6.3-4.3,14-6.5,21.6-6.1s15.2,4.1,21,9.1c-0.7-3.2-2.1-6.4-4.2-9
				c7.1,0.3,14.1,0.6,21.2,0.9c3.7,0.2,7.5,0.3,11.1,1.4c3.6,1.1,7.5,3.4,9.3,6.7c-0.4-2.4-1.3-4.9-2.6-7
				c14.2,3.6,26.8-1.1,39.2,8.2c-2.4-2.5-4.3-5.2-7.5-6.9c9.8-1.1,27.8-3.2,45.4-14.7C217.6,72.4,199.2,74,189.4,73.8z"/>
		</g>
	</g>
	<g>
		<g>
			<g>
				<path class="st6" d="M25,3.6c0,2-5.5,3.6-12.4,3.6C5.7,7.2,0.2,5.6,0.2,3.6S5.7,0,12.6,0C19.4,0,25,1.6,25,3.6z"/>
			</g>
		</g>
		<g>
			<g>
				<ellipse class="st7" cx="12.6" cy="3.6" rx="10.7" ry="2.8"/>
			</g>
		</g>
	</g>
</g>
</svg>
