<?xml version="1.0" encoding="UTF-8"?>
<svg width="98px" height="82px" viewBox="0 0 98 82" version="1.1" xmlns="http://www.w3.org/2000/svg" xmlns:xlink="http://www.w3.org/1999/xlink">
    <title>Payment</title>
    <defs>
        <polygon id="path-1" points="0 0 56 0 56 7 0 7"></polygon>
        <polygon id="path-3" points="0 0 26 0 26 39 0 39"></polygon>
        <polygon id="path-5" points="0 0 3 0 3 39 0 39"></polygon>
        <polygon id="path-7" points="0 0 3 0 3 39 0 39"></polygon>
    </defs>
    <g id="01.-Home" stroke="none" stroke-width="1" fill="none" fill-rule="evenodd">
        <g id="Portal_Approved" transform="translate(-328.000000, -2099.000000)">
            <g id="Group-49" transform="translate(328.000000, 1760.000000)">
                <g id="Group-47" transform="translate(0.000000, 118.000000)">
                    <g id="Group-27" transform="translate(0.000000, 217.000000)">
                        <g id="Payment" transform="translate(0.000000, 4.000000)">
                            <path d="M30.61619,8.97922598 C2.54636837,-8.51219835 -3.04961892,24.3358505 1.33278315,41.8857489 C6.7948104,63.7591466 -7.17172317,73.8014503 5.98551826,80.6565758 C19.6403593,87.7709583 35.6593414,62.6090366 68.1466366,66.6407256 C110.3239,71.8749444 105.231335,22.8601597 60.9736688,22.3178239 C49.8332428,22.1813085 42.6014601,16.4477253 30.61619,8.97922598 Z" id="Combined-Shape-Copy" fill-opacity="0.1" fill="#40AC48"></path>
                            <g id="Group-25" transform="translate(15.000000, 0.000000)">
                                <path d="M50.17,46 C49.71,46 49.34,45.6259027 49.34,45.1608089 L49.34,20.6928262 C49.34,20.1333654 48.89,19.6783823 48.3366667,19.6783823 L43.83,19.6783823 C43.37,19.6783823 43,19.3009148 43,18.8391911 C43,18.3774675 43.37,18 43.83,18 L48.3366667,18 C49.8033333,18 51,19.2099182 51,20.6928262 L51,45.1608089 C51,45.6259027 50.6266667,46 50.17,46" id="Fill-1" fill="#40AC48"></path>
                                <path d="M6.83627204,48 C6.37615449,48 6,47.6173779 6,47.1416855 L6,21.7541899 C6,20.2340426 7.20570949,19 8.68345928,19 L13.1670865,19 C13.627204,19 14,19.3826221 14,19.8583145 C14,20.3305598 13.627204,20.716629 13.1670865,20.716629 L8.68345928,20.716629 C8.12594458,20.716629 7.67254408,21.1819803 7.67254408,21.7541899 L7.67254408,47.1416855 C7.67254408,47.6173779 7.29974811,48 6.83627204,48" id="Fill-3" fill="#40AC48"></path>
                                <path d="M44.1676335,45 L11.8323665,45 C11.371055,45 11,44.6215127 11,44.1509609 L11,23.8490391 C11,23.3784873 11.371055,23 11.8323665,23 L13.4168715,23 C13.8748402,23 14.2458952,23.3784873 14.2458952,23.8490391 C14.2458952,24.316181 13.8748402,24.6980781 13.4168715,24.6980781 L12.6647331,24.6980781 L12.6647331,43.3019219 L43.3352669,43.3019219 L43.3352669,24.6980781 L42.5263003,24.6980781 C42.0683315,24.6980781 41.6939337,24.316181 41.6939337,23.8490391 C41.6939337,23.3784873 42.0683315,23 42.5263003,23 L44.1676335,23 C44.628945,23 45,23.3784873 45,23.8490391 L45,44.1509609 C45,44.6215127 44.628945,45 44.1676335,45" id="Fill-5" fill="#40AC48"></path>
                                <g id="Group-9" transform="translate(0.000000, 48.000000)">
                                    <mask id="mask-2" fill="white">
                                        <use xlink:href="#path-1"></use>
                                    </mask>
                                    <g id="Clip-8"></g>
                                    <path d="M1.68776228,1.84737679 L1.68776228,4.26603074 C1.68776228,4.76311606 2.04383027,5.15262321 2.49824085,5.15262321 L53.5007418,5.15262321 C53.9551524,5.15262321 54.3112204,4.76311606 54.3112204,4.26603074 L54.3112204,1.84737679 L1.68776228,1.84737679 Z M53.5007418,7 L2.49824085,7 C1.12144462,7 -0.00101733712,5.77583466 -0.00101733712,4.26603074 L-0.00101733712,0.923688394 C-0.00101733712,0.415474298 0.378788521,0 0.843372473,0 L55.1556102,0 C55.6235853,0 56,0.415474298 56,0.923688394 L56,4.26603074 C56,5.77583466 54.8809292,7 53.5007418,7 L53.5007418,7 Z" id="Fill-7" fill="#40AC48" mask="url(#mask-2)"></path>
                                </g>
                                <g id="Group-12" transform="translate(16.000000, 0.000000)">
                                    <mask id="mask-4" fill="white">
                                        <use xlink:href="#path-3"></use>
                                    </mask>
                                    <g id="Clip-11"></g>
                                    <path d="M2.9,1.69414169 C2.21666667,1.69414169 1.66,2.26294278 1.66,2.96117166 L1.66,36.0367847 C1.66,36.7384196 2.21666667,37.3072207 2.9,37.3072207 L23.1,37.3072207 C23.7833333,37.3072207 24.34,36.7384196 24.34,36.0367847 L24.34,2.96117166 C24.34,2.26294278 23.7833333,1.69414169 23.1,1.69414169 L2.9,1.69414169 Z M23.1,39 L2.9,39 C1.3,39 0,37.6716621 0,36.0367847 L0,2.96117166 C0,1.32970027 1.3,-0.00204359673 2.9,-0.00204359673 L23.1,-0.00204359673 C24.7,-0.00204359673 26,1.32970027 26,2.96117166 L26,36.0367847 C26,37.6716621 24.7,39 23.1,39 L23.1,39 Z" id="Fill-10" fill="#40AC48" mask="url(#mask-4)"></path>
                                </g>
                                <g id="Group-15" transform="translate(19.000000, 0.000000)">
                                    <mask id="mask-6" fill="white">
                                        <use xlink:href="#path-5"></use>
                                    </mask>
                                    <g id="Clip-14"></g>
                                    <path d="M1.5,39 C1.086,39 0.753,38.6219511 0.753,38.1519444 L0.753,0.847715027 C0.753,0.377708302 1.086,-0.000340584583 1.5,-0.000340584583 C1.914,-0.000340584583 2.247,0.377708302 2.247,0.847715027 L2.247,38.1519444 C2.247,38.6219511 1.914,39 1.5,39" id="Fill-13" fill="#40AC48" mask="url(#mask-6)"></path>
                                </g>
                                <g id="Group-18" transform="translate(23.000000, 0.000000)">
                                    <mask id="mask-8" fill="white">
                                        <use xlink:href="#path-7"></use>
                                    </mask>
                                    <g id="Clip-17"></g>
                                    <path d="M1.5,39 C1.086,39 0.753,38.6219511 0.753,38.1519444 L0.753,0.847715027 C0.753,0.377708302 1.086,-0.000340584583 1.5,-0.000340584583 C1.914,-0.000340584583 2.247,0.377708302 2.247,0.847715027 L2.247,38.1519444 C2.247,38.6219511 1.914,39 1.5,39" id="Fill-16" fill="#40AC48" mask="url(#mask-8)"></path>
                                </g>
                                <path d="M30,35 C29.724,35 29.502,34.6082353 29.502,34.1211765 L29.502,23.8788235 C29.502,23.3952941 29.724,23 30,23 C30.276,23 30.498,23.3952941 30.498,23.8788235 L30.498,34.1211765 C30.498,34.6082353 30.276,35 30,35" id="Fill-19" fill="#40AC48"></path>
                                <path d="M34,35 C33.724,35 33.502,34.6082353 33.502,34.1211765 L33.502,23.8788235 C33.502,23.3952941 33.724,23 34,23 C34.276,23 34.498,23.3952941 34.498,23.8788235 L34.498,34.1211765 C34.498,34.6082353 34.276,35 34,35" id="Fill-21" fill="#40AC48"></path>
                                <path d="M29.7504394,9.0017567 C29.7504394,10.2419851 30.7592267,11.2503294 32,11.2503294 C33.2407733,11.2503294 34.2530756,10.2419851 34.2530756,9.0017567 C34.2530756,7.75801493 33.2407733,6.74967062 32,6.74967062 C30.7592267,6.74967062 29.7504394,7.75801493 29.7504394,9.0017567 Z M28,9.0017567 C28,6.79534475 29.7926186,5 32,5 C34.2073814,5 36,6.79534475 36,9.0017567 C36,11.2046552 34.2073814,13 32,13 C29.7926186,13 28,11.2046552 28,9.0017567 Z" id="Fill-23" fill="#40AC48"></path>
                                <circle id="Oval" stroke="#40AC48" fill="#40AC48" cx="32" cy="9" r="2.5"></circle>
                            </g>
                        </g>
                    </g>
                </g>
            </g>
        </g>
    </g>
</svg>