<?xml version="1.0" encoding="utf-8"?>
<!-- Generator: Adobe Illustrator 26.0.3, SVG Export Plug-In . SVG Version: 6.00 Build 0)  -->
<svg version="1.1" id="Layer_1" xmlns="http://www.w3.org/2000/svg" xmlns:xlink="http://www.w3.org/1999/xlink" x="0px" y="0px"
	 viewBox="0 0 381.1 539" style="enable-background:new 0 0 381.1 539;" xml:space="preserve">
<style type="text/css">
	.st0{clip-path:url(#SVGID_00000119827976659992792730000000227546071528905348_);}
	.st1{clip-path:url(#SVGID_00000163073822867792261730000012032082623832186268_);}
	.st2{fill:none;stroke:#A7A9AC;stroke-width:2.001;}
	.st3{fill:#231F20;}
	.st4{font-family:'ArialMT';}
	.st5{font-size:7.6867px;}
	.st6{font-size:7.6539px;}
	.st7{fill:none;stroke:#DCDBDB;stroke-width:0.398;stroke-linejoin:round;}
	.st8{fill:none;stroke:#A5A5A6;stroke-width:0.398;stroke-linejoin:round;}
	.st9{fill:none;stroke:#231F20;stroke-width:0.797;stroke-linejoin:round;}
	.st10{fill:none;stroke:#231F20;stroke-width:0.797;stroke-miterlimit:10;}
	.st11{clip-path:url(#SVGID_00000092450241684905728350000014302130772449318842_);}
	.st12{fill:#3953A4;}
	.st13{letter-spacing:27;}
	.st14{clip-path:url(#SVGID_00000060025026352737480870000016628228147627891845_);}
	.st15{fill:none;stroke:#3953A4;stroke-width:0.996;stroke-miterlimit:10;stroke-dasharray:2.989,2.989;}
	.st16{fill:none;stroke:#3953A4;stroke-width:0.996;stroke-miterlimit:10;}
	.st17{fill:none;stroke:#ED2024;stroke-width:1.196;stroke-miterlimit:10;}
	.st18{fill:none;stroke:#ED2024;stroke-width:0.996;stroke-miterlimit:10;}
	.st19{fill:none;stroke:#ED2024;stroke-width:0.998;stroke-linecap:round;stroke-linejoin:round;}
	.st20{fill:none;stroke:#ED2024;stroke-width:0.997;stroke-linecap:round;stroke-linejoin:round;}
	.st21{fill:#ED2024;}
	.st22{clip-path:url(#SVGID_00000073681268172632857960000001739145754547137680_);}
	.st23{fill:none;stroke:#ED2024;stroke-width:0.849;stroke-miterlimit:10;}
	.st24{clip-path:url(#SVGID_00000144308092179740089480000009839093912972649617_);}
	.st25{clip-path:url(#SVGID_00000137850626450989666260000002428118173002971545_);}
	.st26{fill:none;stroke:#43B654;stroke-width:0.996;stroke-miterlimit:10;}
	.st27{fill:#43B654;}
	.st28{clip-path:url(#SVGID_00000083082922848276820260000018428855788870620830_);}
	.st29{fill:none;stroke:#43B654;stroke-width:0.997;stroke-linecap:round;stroke-linejoin:round;}
	.st30{clip-path:url(#SVGID_00000053506056787073514410000011029463140725313468_);}
	.st31{clip-path:url(#SVGID_00000171698000157720112810000008235124423556644756_);}
	.st32{clip-path:url(#SVGID_00000158003386515138050600000001487527389473048990_);}
	.st33{fill:none;stroke:#43B654;stroke-width:0.996;stroke-linecap:round;stroke-linejoin:round;}
	.st34{fill:#939598;}
	.st35{clip-path:url(#SVGID_00000152945741812399017640000007935166174015622025_);}
	.st36{fill:none;stroke:#939598;stroke-width:0.996;stroke-miterlimit:10;}
	.st37{clip-path:url(#SVGID_00000156559559196909622920000000600541057507220107_);}
	.st38{clip-path:url(#SVGID_00000138562480009911579370000015406768264818623163_);}
	.st39{clip-path:url(#SVGID_00000021809566137183898140000005688824501619369113_);}
	.st40{font-size:6.3782px;}
	.st41{fill:#FFFFFF;}
	.st42{font-size:10.8837px;}
</style>
<g>
	<g id="Layer_1-2">
		<g>
			<g>
				<g>
					<defs>
						<rect id="SVGID_1_" width="381.1" height="539"/>
					</defs>
					<clipPath id="SVGID_00000030462587004418722150000009836767810051494311_">
						<use xlink:href="#SVGID_1_"  style="overflow:visible;"/>
					</clipPath>
					<g style="clip-path:url(#SVGID_00000030462587004418722150000009836767810051494311_);">
						<g>
							<g>
								<g>
									<defs>
										<rect id="SVGID_00000026141409127896050010000004761486747825505704_" width="381.1" height="538.9"/>
									</defs>
									<clipPath id="SVGID_00000124861882647839699120000009336031458227907740_">
										<use xlink:href="#SVGID_00000026141409127896050010000004761486747825505704_"  style="overflow:visible;"/>
									</clipPath>
									<g style="clip-path:url(#SVGID_00000124861882647839699120000009336031458227907740_);">
										<path class="st2" d="M27.8,22.9c0,0-5.4,0-5.4,5.4v474.5c0,0,0,5.4,5.4,5.4h325.6c0,0,5.4,0,5.4-5.4V28.3
											c0,0,0-5.4-5.4-5.4H27.8z"/>
									</g>
								</g>
							</g>
						</g>
						<rect y="18.4" class="st3" width="16.9" height="2.2"/>
						<rect y="517.8" class="st3" width="16.9" height="2.2"/>
						<g>
							<g>
								<g>
									<defs>
										<rect id="SVGID_00000146462468536942527120000016594960400431158427_" x="363.1" y="22.2" width="14.5" height="486.6"/>
									</defs>
									<clipPath id="SVGID_00000083066977010113083530000006435441869876133004_">
										<use xlink:href="#SVGID_00000146462468536942527120000016594960400431158427_"  style="overflow:visible;"/>
									</clipPath>
								</g>
							</g>
						</g>
						<text transform="matrix(1 0 0 1 169.3379 524.7939)" class="st3 st4 st5">N</text>
						<text transform="matrix(1 0 0 1 174.9717 524.7939)" class="st3 st4 st5">ag</text>
						<text transform="matrix(1 0 0 1 182.3789 524.7939)" class="st3 st4 st5">w</text>
						<text transform="matrix(1 0 0 1 188.0259 524.7939)" class="st3 st4 st5">a P</text>
						<text transform="matrix(1 0 0 1 197.8916 524.7939)" class="st3 st4 st5">r</text>
						<text transform="matrix(1 0 0 1 200.7085 524.7939)" class="st3 st4 st5">actice</text>
						<text transform="matrix(1 0 0 1 219.4287 524.7939)" class="st3 st4 st5"> </text>
						<text transform="matrix(1 0 0 1 221.0933 524.7939)" class="st3 st4 st5">T</text>
						<text transform="matrix(1 0 0 1 225.1973 524.7939)" class="st3 st4 st5">est</text>
						<polygon class="st3" points="155.8,517.9 155.8,517.9 151.7,520.4 151.7,520.4 151.7,520.4 147.5,517.9 151.7,515.6 						"/>
						<polygon class="st3" points="155.8,528.2 151.8,530.5 151.8,525.9 						"/>
						<polygon class="st3" points="147.3,528.1 147.3,518.2 160.4,525.7 160.4,530.5 151.5,525.4 151.5,530.5 						"/>
						<polygon class="st3" points="160.4,520.3 156.3,517.9 160.4,515.6 						"/>
						<polygon class="st3" points="164.9,518 164.9,528.1 160.7,530.5 160.7,525.6 151.9,520.5 156.1,518.1 156.1,518.1 
							160.7,520.8 160.7,515.6 						"/>
						<text transform="matrix(1 0 0 1 148.6846 40.9487)" class="st3 st4 st6">Ans</text>
						<text transform="matrix(1 0 0 1 162.731 40.9487)" class="st3 st4 st6">w</text>
						<text transform="matrix(1 0 0 1 169.1846 40.9487)" class="st3 st4 st6">e</text>
						<text transform="matrix(1 0 0 1 173.1216 40.9487)" class="st3 st4 st6">r</text>
						<text transform="matrix(1 0 0 1 178.3584 40.9487)" class="st3 st4 st6">AL</text>
						<text transform="matrix(1 0 0 1 189.0503 40.9487)" class="st3 st4 st6">L</text>
						<text transform="matrix(1 0 0 1 195.8047 40.9487)" class="st3 st4 st6">questions.</text>
						<text transform="matrix(1 0 0 1 113.9077 56.2563)" class="st3 st4 st6">W</text>
						<text transform="matrix(1 0 0 1 121.6543 56.2563)" class="st3 st4 st6">ri</text>
						<text transform="matrix(1 0 0 1 127.6084 56.2563)" class="st3 st4 st6">t</text>
						<text transform="matrix(1 0 0 1 130.502 56.2563)" class="st3 st4 st6">e</text>
						<text transform="matrix(1 0 0 1 136.2324 56.2563)" class="st3 st4 st6">y</text>
						<text transform="matrix(1 0 0 1 140.2529 56.2563)" class="st3 st4 st6">ou</text>
						<text transform="matrix(1 0 0 1 149.2734 56.2563)" class="st3 st4 st6">r</text>
						<text transform="matrix(1 0 0 1 154.5107 56.2563)" class="st3 st4 st6">ans</text>
						<text transform="matrix(1 0 0 1 166.8667 56.2563)" class="st3 st4 st6">w</text>
						<text transform="matrix(1 0 0 1 173.3135 56.2563)" class="st3 st4 st6">er</text>
						<text transform="matrix(1 0 0 1 180.6953 56.2563)" class="st3 st4 st6">s</text>
						<text transform="matrix(1 0 0 1 185.8623 56.2563)" class="st3 st4 st6">i</text>
						<text transform="matrix(1 0 0 1 188.3779 56.2563)" class="st3 st4 st6">n</text>
						<text transform="matrix(1 0 0 1 195.1196 56.2563)" class="st3 st4 st6">th</text>
						<text transform="matrix(1 0 0 1 202.9429 56.2563)" class="st3 st4 st6">e</text>
						<text transform="matrix(1 0 0 1 208.6797 56.2563)" class="st3 st4 st6">space</text>
						<text transform="matrix(1 0 0 1 228.3018 56.2563)" class="st3 st4 st6">s</text>
						<text transform="matrix(1 0 0 1 233.4688 56.2563)" class="st3 st4 st6">p</text>
						<text transform="matrix(1 0 0 1 237.9565 56.2563)" class="st3 st4 st6">r</text>
						<text transform="matrix(1 0 0 1 241.3242 56.2563)" class="st3 st4 st6">ovided.</text>
						<text transform="matrix(1 0 0 1 97.3643 71.564)" class="st3 st4 st6">Y</text>
						<text transform="matrix(1 0 0 1 101.9292 71.564)" class="st3 st4 st6">o</text>
						<text transform="matrix(1 0 0 1 106.123 71.564)" class="st3 st4 st6">u</text>
						<text transform="matrix(1 0 0 1 112.749 71.564)" class="st3 st4 st6">mus</text>
						<text transform="matrix(1 0 0 1 128.2041 71.564)" class="st3 st4 st6">t</text>
						<text transform="matrix(1 0 0 1 132.9224 71.564)" class="st3 st4 st6">wri</text>
						<text transform="matrix(1 0 0 1 145.3618 71.564)" class="st3 st4 st6">t</text>
						<text transform="matrix(1 0 0 1 148.2559 71.564)" class="st3 st4 st6">e</text>
						<text transform="matrix(1 0 0 1 153.998 71.564)" class="st3 st4 st6">dow</text>
						<text transform="matrix(1 0 0 1 169.2031 71.564)" class="st3 st4 st6">n</text>
						<text transform="matrix(1 0 0 1 175.9385 71.564)" class="st3 st4 st6">al</text>
						<text transform="matrix(1 0 0 1 182.4814 71.564)" class="st3 st4 st6">l</text>
						<text transform="matrix(1 0 0 1 186.7773 71.564)" class="st3 st4 st6">th</text>
						<text transform="matrix(1 0 0 1 194.6006 71.564)" class="st3 st4 st6">e</text>
						<text transform="matrix(1 0 0 1 200.3374 71.564)" class="st3 st4 st6">sta</text>
						<text transform="matrix(1 0 0 1 210.6704 71.564)" class="st3 st4 st6">g</text>
						<text transform="matrix(1 0 0 1 214.7676 71.564)" class="st3 st4 st6">e</text>
						<text transform="matrix(1 0 0 1 218.7119 71.564)" class="st3 st4 st6">s</text>
						<text transform="matrix(1 0 0 1 223.8779 71.564)" class="st3 st4 st6">i</text>
						<text transform="matrix(1 0 0 1 226.3945 71.564)" class="st3 st4 st6">n</text>
						<text transform="matrix(1 0 0 1 233.1294 71.564)" class="st3 st4 st6">y</text>
						<text transform="matrix(1 0 0 1 237.1436 71.564)" class="st3 st4 st6">ou</text>
						<text transform="matrix(1 0 0 1 246.1709 71.564)" class="st3 st4 st6">r</text>
						<text transform="matrix(1 0 0 1 251.4072 71.564)" class="st3 st4 st6">w</text>
						<text transform="matrix(1 0 0 1 257.8608 71.564)" class="st3 st4 st6">orkin</text>
						<text transform="matrix(1 0 0 1 277.6436 71.564)" class="st3 st4 st6">g</text>
						<text transform="matrix(1 0 0 1 281.6323 71.564)" class="st3 st4 st6">.</text>
						<text transform="matrix(1 0 0 1 30.7817 97.0767)" class="st3 st4 st6">1</text>
						<text transform="matrix(1 0 0 1 47.3315 97.0767)" class="st3 st4 st6">Th</text>
						<text transform="matrix(1 0 0 1 56.3652 97.0767)" class="st3 st4 st6">e</text>
						<text transform="matrix(1 0 0 1 61.4292 97.0767)" class="st3 st4 st6">sca</text>
						<text transform="matrix(1 0 0 1 71.5381 97.0767)" class="st3 st4 st6">t</text>
						<text transform="matrix(1 0 0 1 73.8496 97.0767)" class="st3 st4 st6">t</text>
						<text transform="matrix(1 0 0 1 76.231 97.0767)" class="st3 st4 st6">e</text>
						<text transform="matrix(1 0 0 1 79.7842 97.0767)" class="st3 st4 st6">r</text>
						<text transform="matrix(1 0 0 1 84.2017 97.0767)" class="st3 st4 st6">g</text>
						<text transform="matrix(1 0 0 1 87.9023 97.0767)" class="st3 st4 st6">r</text>
						<text transform="matrix(1 0 0 1 90.7129 97.0767)" class="st3 st4 st6">ap</text>
						<text transform="matrix(1 0 0 1 98.498 97.0767)" class="st3 st4 st6">h</text>
						<text transform="matrix(1 0 0 1 104.4199 97.0767)" class="st3 st4 st6">show</text>
						<text transform="matrix(1 0 0 1 121.5264 97.0767)" class="st3 st4 st6">s</text>
						<text transform="matrix(1 0 0 1 126.0654 97.0767)" class="st3 st4 st6">th</text>
						<text transform="matrix(1 0 0 1 132.8965 97.0767)" class="st3 st4 st6">e</text>
						<text transform="matrix(1 0 0 1 137.9673 97.0767)" class="st3 st4 st6">numbe</text>
						<text transform="matrix(1 0 0 1 160.8037 97.0767)" class="st3 st4 st6">r</text>
						<text transform="matrix(1 0 0 1 165.2275 97.0767)" class="st3 st4 st6">ofic</text>
						<text transform="matrix(1 0 0 1 177.1104 97.0767)" class="st3 st4 st6">e</text>
						<text transform="matrix(1 0 0 1 182.1743 97.0767)" class="st3 st4 st6">c</text>
						<text transform="matrix(1 0 0 1 185.5928 97.0767)" class="st3 st4 st6">r</text>
						<text transform="matrix(1 0 0 1 188.4355 97.0767)" class="st3 st4 st6">ea</text>
						<text transform="matrix(1 0 0 1 195.6636 97.0767)" class="st3 st4 st6">m</text>
						<text transform="matrix(1 0 0 1 203.6982 97.0767)" class="st3 st4 st6">sale</text>
						<text transform="matrix(1 0 0 1 216.1123 97.0767)" class="st3 st4 st6">s</text>
						<text transform="matrix(1 0 0 1 220.6514 97.0767)" class="st3 st4 st6">sol</text>
						<text transform="matrix(1 0 0 1 229.7744 97.0767)" class="st3 st4 st6">d</text>
						<text transform="matrix(1 0 0 1 235.415 97.0767)" class="st3 st4 st6">pe</text>
						<text transform="matrix(1 0 0 1 243.0781 97.0767)" class="st3 st4 st6">r</text>
						<text transform="matrix(1 0 0 1 247.502 97.0767)" class="st3 st4 st6">d</text>
						<text transform="matrix(1 0 0 1 251.625 97.0767)" class="st3 st4 st6">a</text>
						<text transform="matrix(1 0 0 1 255.1655 97.0767)" class="st3 st4 st6">y</text>
						<text transform="matrix(1 0 0 1 260.3643 97.0767)" class="st3 st4 st6">f</text>
						<text transform="matrix(1 0 0 1 262.7139 97.0767)" class="st3 st4 st6">r</text>
						<text transform="matrix(1 0 0 1 265.5625 97.0767)" class="st3 st4 st6">o</text>
						<text transform="matrix(1 0 0 1 269.5 97.0767)" class="st3 st4 st6">m</text>
						<text transform="matrix(1 0 0 1 277.5352 97.0767)" class="st3 st4 st6">a</text>
						<text transform="matrix(1 0 0 1 281.21 97.0767)" class="st3 st4 st6">n</text>
						<text transform="matrix(1 0 0 1 287.1318 97.0767)" class="st3 st4 st6">ic</text>
						<text transform="matrix(1 0 0 1 292.7271 97.0767)" class="st3 st4 st6">e</text>
						<text transform="matrix(1 0 0 1 297.791 97.0767)" class="st3 st4 st6">c</text>
						<text transform="matrix(1 0 0 1 301.21 97.0767)" class="st3 st4 st6">r</text>
						<text transform="matrix(1 0 0 1 304.0527 97.0767)" class="st3 st4 st6">ea</text>
						<text transform="matrix(1 0 0 1 311.2812 97.0767)" class="st3 st4 st6">m</text>
						<text transform="matrix(1 0 0 1 319.3086 97.0767)" class="st3 st4 st6">v</text>
						<text transform="matrix(1 0 0 1 322.8945 97.0767)" class="st3 st4 st6">a</text>
						<text transform="matrix(1 0 0 1 326.5625 97.0767)" class="st3 st4 st6">n</text>
						<text transform="matrix(1 0 0 1 332.4844 97.0767)" class="st3 st4 st6">and</text>
						<text transform="matrix(1 0 0 1 47.3315 107.2754)" class="st3 st4 st6">th</text>
						<text transform="matrix(1 0 0 1 54.1562 107.2754)" class="st3 st4 st6">e</text>
						<text transform="matrix(1 0 0 1 59.5088 107.2754)" class="st3 st4 st6">maximu</text>
						<text transform="matrix(1 0 0 1 86.436 107.2754)" class="st3 st4 st6">m</text>
						<text transform="matrix(1 0 0 1 94.7524 107.2754)" class="st3 st4 st6">dail</text>
						<text transform="matrix(1 0 0 1 106.9038 107.2754)" class="st3 st4 st6">y</text>
						<text transform="matrix(1 0 0 1 112.397 107.2754)" class="st3 st4 st6">t</text>
						<text transform="matrix(1 0 0 1 114.7783 107.2754)" class="st3 st4 st6">empe</text>
						<text transform="matrix(1 0 0 1 132.5127 107.2754)" class="st3 st4 st6">r</text>
						<text transform="matrix(1 0 0 1 135.3105 107.2754)" class="st3 st4 st6">atu</text>
						<text transform="matrix(1 0 0 1 145.7588 107.2754)" class="st3 st4 st6">r</text>
						<text transform="matrix(1 0 0 1 148.6016 107.2754)" class="st3 st4 st6">e.</text>
						<path class="st7" d="M272.5,244.8V130.4 M271.3,244.8V130.4 M270,244.8V130.4 M268.7,244.8V130.4 M267.4,244.8V130.4
							 M266.1,244.8V130.4 M264.9,244.8V130.4 M263.6,244.8V130.4 M262.3,244.8V130.4 M261,244.8V130.4 M259.7,244.8V130.4
							 M258.5,244.8V130.4 M257.2,244.8V130.4 M255.9,244.8V130.4 M254.6,244.8V130.4 M253.3,244.8V130.4 M252.1,244.8V130.4
							 M250.8,244.8V130.4 M249.5,244.8V130.4 M248.2,244.8V130.4 M246.9,244.8V130.4 M245.7,244.8V130.4 M244.4,244.8V130.4
							 M243.1,244.8V130.4 M241.8,244.8V130.4 M240.5,244.8V130.4 M239.2,244.8V130.4 M238,244.8V130.4 M236.7,244.8V130.4
							 M235.4,244.8V130.4 M234.1,244.8V130.4 M232.8,244.8V130.4 M231.6,244.8V130.4 M230.3,244.8V130.4 M229,244.8V130.4
							 M227.7,244.8V130.4 M226.4,244.8V130.4 M225.2,244.8V130.4 M223.9,244.8V130.4 M222.6,244.8V130.4 M221.3,244.8V130.4
							 M220,244.8V130.4 M218.8,244.8V130.4 M217.5,244.8V130.4 M216.2,244.8V130.4 M214.9,244.8V130.4 M213.6,244.8V130.4
							 M212.4,244.8V130.4 M211.1,244.8V130.4 M209.8,244.8V130.4 M208.5,244.8V130.4 M207.2,244.8V130.4 M206,244.8V130.4
							 M204.7,244.8V130.4 M203.4,244.8V130.4 M202.1,244.8V130.4 M200.8,244.8V130.4 M199.6,244.8V130.4 M198.3,244.8V130.4
							 M197,244.8V130.4 M195.7,244.8V130.4 M194.4,244.8V130.4 M193.2,244.8V130.4 M191.9,244.8V130.4 M190.6,244.8V130.4
							 M189.3,244.8V130.4 M188,244.8V130.4 M186.8,244.8V130.4 M185.5,244.8V130.4 M184.2,244.8V130.4 M182.9,244.8V130.4
							 M181.6,244.8V130.4 M180.3,244.8V130.4 M179.1,244.8V130.4 M177.8,244.8V130.4 M176.5,244.8V130.4 M175.2,244.8V130.4
							 M173.9,244.8V130.4 M172.7,244.8V130.4 M171.4,244.8V130.4 M170.1,244.8V130.4 M168.8,244.8V130.4 M167.5,244.8V130.4
							 M166.3,244.8V130.4 M165,244.8V130.4 M163.7,244.8V130.4 M162.4,244.8V130.4 M161.1,244.8V130.4 M159.9,244.8V130.4
							 M158.6,244.8V130.4 M157.3,244.8V130.4 M156,244.8V130.4 M154.7,244.8V130.4 M153.5,244.8V130.4 M152.2,244.8V130.4
							 M150.9,244.8V130.4 M149.6,244.8V130.4 M148.3,244.8V130.4 M147.1,244.8V130.4 M145.8,244.8V130.4 M144.5,244.8V130.4
							 M143.2,244.8V130.4 M141.9,244.8V130.4 M140.7,244.8V130.4 M139.4,244.8V130.4 M138.1,244.8V130.4 M136.8,244.8V130.4
							 M135.5,244.8V130.4 M134.3,244.8V130.4 M133,244.8V130.4 M133,131.7h140.8 M134.1,133h139.8 M134.1,134.3h139.8 M134.1,135.5
							h139.8 M134.1,136.8h139.8 M134.1,138.1h139.8 M134.1,139.4h139.8 M134.1,140.7h139.8 M134.1,141.9h139.8 M134.1,143.2h139.8
							 M134.1,144.5h139.8 M134.1,145.8h139.8 M134.1,147.1h139.8 M134.1,148.3h139.8 M134.1,149.6h139.8 M134.1,150.9h139.8
							 M134.1,152.2h139.8 M134.1,153.5h139.8 M134.1,154.7h139.8 M134.1,156h139.8 M134.1,157.3h139.8 M134.1,158.6h139.8
							 M134.1,159.9h139.8 M134.1,161.1h139.8 M134.1,162.4h139.8 M134.1,163.7h139.8 M134.1,165h139.8 M134.1,166.3h139.8
							 M134.1,167.5h139.8 M134.1,168.8h139.8 M134.1,170.1h139.8 M134.1,171.4h139.8 M134.1,172.7h139.8 M134.1,173.9h139.8
							 M134.1,175.2h139.8 M134.1,176.5h139.8 M134.1,177.8h139.8 M134.1,179.1h139.8 M134.1,180.3h139.8 M134.1,181.6h139.8
							 M134.1,182.9h139.8 M134.1,183.7h139.8 M134.1,185h139.8 M134.1,186.3h139.8 M134.1,187.6h139.8 M134.1,188.9h139.8
							 M134.1,190.1h139.8 M134.1,191.4h139.8 M134.1,192.7h139.8 M134.1,194h139.8 M134.1,195.3h139.8 M134.1,196.5h139.8
							 M134.1,197.8h139.8 M134.1,199.1h139.8 M134.1,200.4h139.8 M134.1,201.7h139.8 M134.1,202.9h139.8 M134.1,204.2h139.8
							 M134.1,205.5h139.8 M134.1,206.8h139.8 M134.1,208.1h139.8 M134.1,209.4h139.8 M134.1,210.6h139.8 M134.1,211.9h139.8
							 M134.1,213.2h139.8 M134.1,214.5h139.8 M134.1,215.8h139.8 M134.1,217h139.8 M134.1,218.3h139.8 M134.1,219.6h139.8
							 M134.1,220.9h139.8 M134.1,222.2h139.8 M134.1,223.4h139.8 M134.1,224.7h139.8 M134.1,226h139.8 M134.1,227.3h139.8
							 M134.1,228.6h139.8 M134.1,229.8h139.8 M134.1,231.1h139.8 M134.1,232.4h139.8 M134.1,233.7h139.8 M134.1,235h139.8
							 M134.1,236.2h139.8 M134.1,237.5h139.8 M134.1,238.8h139.8 M134.1,240.1h139.8 M134.1,241.4h139.8 M134.1,242.6h139.8
							 M134.1,243.9h139.8 M134.1,245.2h139.8"/>
						<path class="st8" d="M273.8,244.8V130.4 M261.1,244.8V130.4 M248.4,244.8V130.4 M235.7,244.8V130.4 M223,244.8V130.4
							 M210.3,244.8V130.4 M197.6,244.8V130.4 M184.9,244.8V130.4 M172.2,244.8V130.4 M159.5,244.8V130.4 M146.7,244.8V130.4
							 M134.1,244.8V130.4 M134.1,130.4h139.8 M134.1,143.1h139.8 M134.1,155.8h139.8 M134.1,168.5h139.8 M134.1,181.2h139.8
							 M134.1,193.9h139.8 M134.1,206.7h139.8 M134.1,219.3h139.8 M134.1,232h139.8 M134.1,244.8h139.8"/>
						<line class="st9" x1="159.5" y1="246" x2="159.5" y2="243.5"/>
						<text transform="matrix(1 0 0 1 157.5708 253.2578)" class="st3 st4 st6">5</text>
						<line class="st9" x1="184.9" y1="246" x2="184.9" y2="243.5"/>
						<text transform="matrix(1 0 0 1 181.0859 253.3477)" class="st3 st4 st6">10</text>
						<line class="st9" x1="210.3" y1="246" x2="210.3" y2="243.5"/>
						<text transform="matrix(1 0 0 1 206.4961 253.3223)" class="st3 st4 st6">15</text>
						<line class="st9" x1="235.7" y1="246" x2="235.7" y2="243.5"/>
						<text transform="matrix(1 0 0 1 231.8999 253.3604)" class="st3 st4 st6">20</text>
						<line class="st9" x1="261.1" y1="246" x2="261.1" y2="243.5"/>
						<text transform="matrix(1 0 0 1 257.3037 253.3604)" class="st3 st4 st6">25</text>
						<line class="st9" x1="132.8" y1="219.3" x2="135.3" y2="219.3"/>
						<text transform="matrix(1 0 0 1 122.7876 221.7466)" class="st3 st4 st6">10</text>
						<line class="st9" x1="132.8" y1="193.9" x2="135.3" y2="193.9"/>
						<text transform="matrix(1 0 0 1 122.7876 196.3491)" class="st3 st4 st6">20</text>
						<line class="st9" x1="132.8" y1="168.5" x2="135.3" y2="168.5"/>
						<text transform="matrix(1 0 0 1 122.7876 170.9326)" class="st3 st4 st6">30</text>
						<line class="st9" x1="132.8" y1="143.1" x2="135.3" y2="143.1"/>
						<text transform="matrix(1 0 0 1 122.7876 145.541)" class="st3 st4 st6">40</text>
						<line class="st9" x1="134.1" y1="244.8" x2="270.6" y2="244.8"/>
						<polygon class="st3" points="273.1,244.8 269.6,243.4 270.7,244.8 269.6,246 						"/>
						<polygon class="st10" points="273.1,244.8 269.6,243.4 270.7,244.8 269.6,246 						"/>
						<text transform="matrix(1 0 0 1 134.8877 262.0225)" class="st3 st4 st6">Maximu</text>
						<text transform="matrix(1 0 0 1 162.1416 262.0225)" class="st3 st4 st6">m</text>
						<text transform="matrix(1 0 0 1 170.311 262.0225)" class="st3 st4 st6">T</text>
						<text transform="matrix(1 0 0 1 174.3892 262.0225)" class="st3 st4 st6">empe</text>
						<text transform="matrix(1 0 0 1 192.123 262.0225)" class="st3 st4 st6">r</text>
						<text transform="matrix(1 0 0 1 194.9209 262.0225)" class="st3 st4 st6">atu</text>
						<text transform="matrix(1 0 0 1 205.3691 262.0225)" class="st3 st4 st6">r</text>
						<text transform="matrix(1 0 0 1 208.2119 262.0225)" class="st3 st4 st6">e</text>
						<text transform="matrix(1 0 0 1 213.5518 262.0225)" class="st3 st4 st6">i</text>
						<text transform="matrix(1 0 0 1 215.7344 262.0225)" class="st3 st4 st6">n</text>
						<text transform="matrix(1 0 0 1 221.9443 262.0225)" class="st3 st4 st6">Deg</text>
						<text transform="matrix(1 0 0 1 234.7871 262.0225)" class="st3 st4 st6">r</text>
						<text transform="matrix(1 0 0 1 237.6235 262.0225)" class="st3 st4 st6">ee</text>
						<text transform="matrix(1 0 0 1 244.73 262.0225)" class="st3 st4 st6">s</text>
						<text transform="matrix(1 0 0 1 249.5508 262.0225)" class="st3 st4 st6">Celsius</text>
						<path class="st3" d="M279.4,243.6c0.2-0.4,0.5-0.7,1-0.7c0.3,0,0.4,0.1,0.4,0.3s-0.1,0.4-0.3,0.4l0,0c-0.1,0-0.3-0.1-0.4-0.1
							s-0.3,0.1-0.4,0.3l-0.5,0.7l0.1,0.5c0.2,0.7,0.4,1,0.6,1s0.3-0.1,0.6-0.4l0.2,0.1c-0.3,0.3-0.6,0.8-1.1,0.8
							c-0.3,0-0.5-0.3-0.6-0.8l-0.2-0.8l0,0l-0.5,0.8c-0.3,0.4-0.5,0.8-1,0.8c-0.3,0-0.4-0.2-0.4-0.4s0.1-0.3,0.3-0.3
							s0.3,0.1,0.5,0.1c0,0,0.2,0,0.4-0.4l0.6-0.8l-0.2-0.7c-0.2-0.6-0.3-0.8-0.8-0.8c-0.1,0-0.1,0-0.3,0v-0.3l1.1-0.1h0.1
							c0.2,0.3,0.4,0.6,0.4,1l0.1,0.4l0,0L279.4,243.6z"/>
						<line class="st9" x1="134.1" y1="244.8" x2="134.1" y2="133.6"/>
						<polygon class="st3" points="134.1,131.1 132.7,134.6 134.1,133.5 135.4,134.6 						"/>
						<polygon class="st10" points="134.1,131.1 132.7,134.6 134.1,133.5 135.4,134.6 						"/>
						<text transform="matrix(6.123234e-17 -1 1 6.123234e-17 118.4346 232.2715)" class="st3 st4 st6">Numbe</text>
						<text transform="matrix(6.123234e-17 -1 1 6.123234e-17 118.4346 208.1611)" class="st3 st4 st6">r</text>
						<text transform="matrix(6.123234e-17 -1 1 6.123234e-17 118.4346 203.4551)" class="st3 st4 st6">o</text>
						<text transform="matrix(6.123234e-17 -1 1 6.123234e-17 118.4346 199.5176)" class="st3 st4 st6">f</text>
						<text transform="matrix(6.123234e-17 -1 1 6.123234e-17 118.4346 194.9912)" class="st3 st4 st6">Ic</text>
						<text transform="matrix(6.123234e-17 -1 1 6.123234e-17 118.4346 188.8457)" class="st3 st4 st6">e</text>
						<text transform="matrix(6.123234e-17 -1 1 6.123234e-17 118.4346 183.4932)" class="st3 st4 st6">C</text>
						<text transform="matrix(6.123234e-17 -1 1 6.123234e-17 118.4346 178.3652)" class="st3 st4 st6">r</text>
						<text transform="matrix(6.123234e-17 -1 1 6.123234e-17 118.4346 175.5293)" class="st3 st4 st6">eam</text>
						<text transform="matrix(6.123234e-17 -1 1 6.123234e-17 118.4346 161.7773)" class="st3 st4 st6">s</text>
						<text transform="matrix(6.123234e-17 -1 1 6.123234e-17 118.4346 156.9561)" class="st3 st4 st6">Sold</text>
						<path class="st3" d="M134.2,124.7l0.1,0.8h0.1l0.9-1.4c0.1-0.2,0.3-0.4,0.3-0.6s-0.4-0.4-0.4-0.7c0-0.2,0.1-0.3,0.3-0.3
							c0,0,0,0,0.1,0c0.3,0,0.5,0.3,0.5,0.6l0,0c0,0.4-0.1,0.8-0.3,1c-0.4,0.6-0.8,1.3-1.2,1.9c-0.6,0.8-1.1,1.7-1.7,1.7
							c-0.3,0-0.6-0.2-0.6-0.5s0.1-0.3,0.3-0.3c0.3,0,0.4,0.4,0.6,0.4s0.7-0.7,0.9-1l-0.4-2.7c-0.1-0.3-0.1-0.7-0.6-0.7h-0.4v-0.2
							l1.1-0.1h0.1c0.2,0.4,0.3,0.8,0.3,1.2L134.2,124.7z"/>
						<g>
							<g>
								<g>
									<defs>
										<rect id="SVGID_00000053545771262037835170000002763518637195930035_" width="381.1" height="539"/>
									</defs>
									<clipPath id="SVGID_00000043439267526871478100000010340386794999349648_">
										<use xlink:href="#SVGID_00000053545771262037835170000002763518637195930035_"  style="overflow:visible;"/>
									</clipPath>
									<g style="clip-path:url(#SVGID_00000043439267526871478100000010340386794999349648_);">
										<path class="st3" d="M147.3,232c0-0.6-0.5-1.1-1.1-1.1s-1.1,0.5-1.1,1.1s0.5,1.1,1.1,1.1
											C146.7,233.1,147.3,232.7,147.3,232L147.3,232"/>
										<path class="st3" d="M160.6,232c0-0.6-0.5-1.1-1.1-1.1s-1.1,0.5-1.1,1.1s0.5,1.1,1.1,1.1S160.6,232.7,160.6,232L160.6,232
											"/>
										<path class="st3" d="M170.1,212.5c0-0.6-0.5-1.1-1.1-1.1s-1.1,0.5-1.1,1.1s0.5,1.1,1.1,1.1S170.1,213.1,170.1,212.5
											L170.1,212.5"/>
										<path class="st3" d="M186,206.2c0-0.6-0.5-1.1-1.1-1.1s-1.1,0.5-1.1,1.1s0.5,1.1,1.1,1.1C185.5,207.2,186,206.7,186,206.2
											L186,206.2"/>
										<path class="st3" d="M201.9,199.7c0-0.6-0.5-1.1-1.1-1.1s-1.1,0.5-1.1,1.1s0.5,1.1,1.1,1.1
											C201.3,200.8,201.9,200.3,201.9,199.7L201.9,199.7"/>
										<path class="st3" d="M211.4,193.4c0-0.6-0.5-1.1-1.1-1.1s-1.1,0.5-1.1,1.1s0.5,1.1,1.1,1.1l0,0
											C210.9,194.5,211.3,194.1,211.4,193.4"/>
										<path class="st3" d="M224.1,181.2c0-0.6-0.5-1.1-1.1-1.1s-1.1,0.5-1.1,1.1s0.5,1.1,1.1,1.1S224.1,181.8,224.1,181.2
											L224.1,181.2"/>
										<path class="st3" d="M236.2,218.8c0-0.6-0.5-1.1-1.1-1.1s-1.1,0.5-1.1,1.1s0.5,1.1,1.1,1.1
											C235.7,219.9,236.2,219.4,236.2,218.8L236.2,218.8"/>
										<path class="st3" d="M236.2,181.4c0-0.6-0.5-1.1-1.1-1.1s-1.1,0.5-1.1,1.1s0.5,1.1,1.1,1.1
											C235.8,182.5,236.2,182,236.2,181.4"/>
										<path class="st3" d="M248.9,168.6c0-0.6-0.5-1.1-1.1-1.1s-1.1,0.5-1.1,1.1s0.5,1.1,1.1,1.1S248.9,169.3,248.9,168.6
											L248.9,168.6"/>
									</g>
								</g>
							</g>
						</g>
						<text transform="matrix(1 0 0 1 47.3252 286.7861)" class="st3 st4 st6">On</text>
						<text transform="matrix(1 0 0 1 57.3765 286.7861)" class="st3 st4 st6">e</text>
						<text transform="matrix(1 0 0 1 62.7227 286.7861)" class="st3 st4 st6">o</text>
						<text transform="matrix(1 0 0 1 66.6597 286.7861)" class="st3 st4 st6">f</text>
						<text transform="matrix(1 0 0 1 71.1924 286.7861)" class="st3 st4 st6">th</text>
						<text transform="matrix(1 0 0 1 78.0171 286.7861)" class="st3 st4 st6">e</text>
						<text transform="matrix(1 0 0 1 83.3691 286.7861)" class="st3 st4 st6">point</text>
						<text transform="matrix(1 0 0 1 100.4121 286.7861)" class="st3 st4 st6">s</text>
						<text transform="matrix(1 0 0 1 105.2329 286.7861)" class="st3 st4 st6">i</text>
						<text transform="matrix(1 0 0 1 107.416 286.7861)" class="st3 st4 st6">s</text>
						<text transform="matrix(1 0 0 1 112.2368 286.7861)" class="st3 st4 st6">a</text>
						<text transform="matrix(1 0 0 1 115.9116 286.7861)" class="st3 st4 st6">n</text>
						<text transform="matrix(1 0 0 1 122.1152 286.7861)" class="st3 st4 st6">outlie</text>
						<text transform="matrix(1 0 0 1 140.7266 286.7861)" class="st3 st4 st6">r</text>
						<text transform="matrix(1 0 0 1 143.1401 286.7861)" class="st3 st4 st6">.</text>
						<text transform="matrix(1 0 0 1 283.3223 331.0449)" class="st12 st4 st6">2</text>
						<text transform="matrix(1 0 0 1 288.3418 331.0449)" class="st12 st4 st6 st13">0</text>
						<text transform="matrix(1 0 0 1 321.5947 331.0449)" class="st12 st4 st6">10</text>
						<text transform="matrix(1 0 0 1 296.082 384.6245)" class="st12 st4 st6">p</text>
						<text transform="matrix(1 0 0 1 299.8467 384.6245)" class="st12 st4 st6">osit</text>
						<text transform="matrix(1 0 0 1 312.6953 384.6245)" class="st12 st4 st6">i</text>
						<text transform="matrix(1 0 0 1 314.3984 384.6245)" class="st12 st4 st6">v</text>
						<text transform="matrix(1 0 0 1 317.4463 384.6245)" class="st12 st4 st6">e</text>
						<text transform="matrix(1 0 0 1 305.6465 449.6836)" class="st12 st4 st6">21</text>
						<g>
							<g>
								<g>
									<defs>
										<rect id="SVGID_00000051354404820850024660000016804193680679439000_" width="381.1" height="539"/>
									</defs>
									<clipPath id="SVGID_00000132089844761869182610000016822095158725291437_">
										<use xlink:href="#SVGID_00000051354404820850024660000016804193680679439000_"  style="overflow:visible;"/>
									</clipPath>
									<g style="clip-path:url(#SVGID_00000132089844761869182610000016822095158725291437_);">
										<line class="st15" x1="133.9" y1="191.4" x2="210.8" y2="191.4"/>
										<line class="st15" x1="210.3" y1="244.9" x2="210.3" y2="190.5"/>
										<line class="st16" x1="133.9" y1="236.3" x2="251.9" y2="166.5"/>
										<path class="st17" d="M130.6,245.2c-1.3-0.6-2.2-2.2-2.2-4.5v-3.8c0-2.2-0.9-3.8-2.2-4.5c1.3-0.6,2.2-2.2,2.2-4.5v-3.8
											c0-2.2,0.9-3.8,2.2-4.5"/>
										<path class="st17" d="M133.8,249c0.6,1.3,2.2,2.2,4.5,2.2h3.8c2.2,0,3.8,0.9,4.5,2.2c0.6-1.3,2.2-2.2,4.5-2.2h3.8
											c2.2,0,3.8-0.9,4.5-2.2"/>
										<path class="st18" d="M92.3,240.8c11.6-0.1,18.2-1.3,28.4-5.2"/>
										<path class="st19" d="M118.6,234c0.5,0.9,1.4,1.5,2.4,1.5c-0.8,0.7-1.1,1.7-0.9,2.7"/>
										<path class="st18" d="M105.1,266.3c10.4-6.1,17.2-8.6,28.4-10.8"/>
										<path class="st20" d="M131.6,253.6c0.3,1,1.2,1.7,2.2,1.9c-0.8,0.5-1.4,1.5-1.3,2.5"/>
									</g>
								</g>
							</g>
						</g>
						<text transform="matrix(1 0 0 1 53.708 219.2051)" class="st21 st4 st6">B</text>
						<text transform="matrix(1 0 0 1 58.4199 219.2051)" class="st21 st4 st6">e</text>
						<text transform="matrix(1 0 0 1 64.0923 219.2051)" class="st21 st4 st6">c</text>
						<text transform="matrix(1 0 0 1 67.5557 219.2051)" class="st21 st4 st6">a</text>
						<text transform="matrix(1 0 0 1 71.2881 219.2051)" class="st21 st4 st6">r</text>
						<text transform="matrix(1 0 0 1 74.0669 219.2051)" class="st21 st4 st6">eful</text>
						<text transform="matrix(1 0 0 1 53.708 229.4102)" class="st21 st4 st6">w</text>
						<text transform="matrix(1 0 0 1 58.3242 229.4102)" class="st21 st4 st6">orkin</text>
						<text transform="matrix(1 0 0 1 73.6318 229.4102)" class="st21 st4 st6">g</text>
						<text transform="matrix(1 0 0 1 79.4189 229.4102)" class="st21 st4 st6">out</text>
						<text transform="matrix(1 0 0 1 53.708 239.6084)" class="st21 st4 st6">t</text>
						<text transform="matrix(1 0 0 1 57.3062 239.6084)" class="st21 st4 st6">h</text>
						<text transform="matrix(1 0 0 1 60.9233 239.6084)" class="st21 st4 st6">e</text>
						<text transform="matrix(1 0 0 1 66.5957 239.6084)" class="st21 st4 st6">s</text>
						<text transform="matrix(1 0 0 1 70.437 239.6084)" class="st21 st4 st6">c</text>
						<text transform="matrix(1 0 0 1 73.9004 239.6084)" class="st21 st4 st6">ale</text>
						<path class="st21" d="M56,246.4c0.6-0.1,1,0.3,1.1,0.9c0,0,0,0,0,0.1c0,0.3-0.3,0.6-2,1l-0.4,0.1c-0.1,0.1-0.1,0.3-0.1,0.4
							c-0.1,0.3,0.1,0.5,0.4,0.5c0.1,0,0.1,0,0.1,0c0.4,0,0.8-0.2,1.1-0.5c0-0.2,0.1-0.3,0.4-0.3c0.2,0,0.3,0.1,0.3,0.3v0.1
							c-0.4,0.7-1.1,1.2-1.9,1.1c-0.6,0-1.2-0.3-1.2-1.1C53.9,247.4,54.9,246.4,56,246.4L56,246.4z M56,247
							c-0.5,0.1-0.9,0.4-1.1,0.8c1.3-0.3,1.5-0.3,1.5-0.4S56.3,247,56,247L56,247z M59.9,247.2c0-0.2-0.1-0.3-0.3-0.3
							c-0.4,0-0.8,0.1-1.1,0.3c0,0.1-0.1,0.2-0.3,0.2s-0.3-0.2-0.3-0.4c0-0.1,0.2-0.3,0.3-0.3c0.5-0.3,1-0.4,1.6-0.4
							c0.3-0.1,0.6,0.3,0.7,0.6c0,0.1,0,0.1,0,0.1v2.4c0.1,0,0.1,0.1,0.1,0.2c0,0.3-0.3,0.3-0.5,0.3s-0.3-0.1-0.3-0.3
							c0-0.1,0-0.1,0.1-0.2V249l0,0c-0.4,0.5-1,0.8-1.7,0.8c-0.3,0.1-0.6-0.2-0.7-0.6v-0.1c0-0.6,0.8-1.5,2.4-1.7V247.2z
							 M59.9,248.1c-1,0.1-1.7,0.7-1.7,1.1c0,0.1,0.1,0.2,0.3,0.2c0.6,0,1.5-0.6,1.5-1C59.9,248.3,59.9,248.1,59.9,248.1z
							 M63.3,246.4c0.6,0,1.1,0.3,1.1,0.6c0,0.2-0.1,0.4-0.4,0.4c-0.2,0-0.2-0.1-0.3-0.2c-0.1-0.1-0.1-0.2-0.4-0.2s-0.6,0.1-0.7,0.4
							c-0.3,0.3-0.5,0.8-0.5,1.2c-0.1,0.3,0.2,0.7,0.5,0.8c0.1,0,0.1,0,0.2,0c0.2,0,0.3-0.1,0.5-0.1c0.2-0.1,0.3-0.3,0.4-0.4
							c0.1-0.2,0.1-0.4,0.3-0.4c0.2,0,0.4,0.1,0.4,0.3l0,0c-0.1,0.3-0.3,0.6-0.6,0.9c-0.3,0.3-0.7,0.4-1.2,0.4
							c-0.6,0.1-1.2-0.4-1.2-1.1c0-0.1,0-0.1,0-0.1c0-0.7,0.3-1.3,0.8-1.7C62.4,246.7,62.8,246.5,63.3,246.4L63.3,246.4z
							 M67.1,247.6c0-0.3-0.1-0.3-0.2-0.3c-0.4,0.1-0.8,0.3-1.1,0.7v1.4c0.1,0.1,0.1,0.1,0.1,0.2c0,0.2-0.3,0.3-0.5,0.3
							s-0.3-0.1-0.3-0.3c0-0.1,0-0.2,0.1-0.3v-4c0-0.1-0.1-0.1-0.1-0.3c0-0.3,0.2-0.4,0.5-0.4c0.1,0,0.4,0.1,0.4,0.3
							c0,0.1,0,0.1-0.1,0.3v1.8l0,0c0.4-0.4,0.9-0.6,1.4-0.7c0.4,0,0.5,0.3,0.5,0.8v2.1c0,0.1,0.1,0.1,0.1,0.2
							c0,0.2-0.3,0.3-0.4,0.3s-0.4-0.1-0.4-0.3c0-0.1,0-0.2,0.1-0.3L67.1,247.6L67.1,247.6z M70.8,245.5c-0.1-0.1-0.1-0.2-0.1-0.3
							c0-0.3,0.1-0.4,0.4-0.4c0.2,0,0.4,0.1,0.4,0.4c0,0.1-0.1,0.3-0.1,0.3v3.8c0.1,0.1,0.1,0.1,0.1,0.3c-0.1,0.2-0.3,0.3-0.4,0.3
							c-0.3,0-0.4-0.1-0.4-0.4c0-0.1,0-0.1,0.1-0.2V245.5z M73.2,246.8c0,0.1,0,0.2-0.1,0.3v2.2c0.1,0.1,0.1,0.1,0.1,0.2
							c0,0.3-0.3,0.4-0.6,0.4c-0.2,0-0.3-0.1-0.3-0.3c0,0,0,0,0-0.1s0-0.2,0.1-0.3v-2c-0.1-0.1-0.1-0.1-0.1-0.2c0-0.2,0-0.4,0.5-0.4
							C73,246.5,73.2,246.7,73.2,246.8L73.2,246.8z M72.9,245c0.2,0,0.3,0.1,0.3,0.3v0.1c0,0.4-0.2,0.7-0.4,0.7
							c-0.3,0-0.3-0.1-0.3-0.4C72.5,245.3,72.6,245,72.9,245L72.9,245z M77.8,249c0,0.1,0.1,0.2,0.1,0.2c0.4-0.1,0.8-0.4,1.1-0.7
							c0-0.1,0.1-0.3,0.3-0.3c0,0,0,0,0.1,0c0.3,0,0.4,0.1,0.4,0.4c0,0.3-1.3,1.3-2,1.3c-0.3,0-0.6-0.3-0.6-0.6v-0.1V247l-1.7,0.3
							v1.7c0,0.1,0.1,0.2,0.1,0.2c0.2,0,0.4-0.1,0.5-0.2c0-0.1,0.1-0.3,0.3-0.3h0.1c0.3,0,0.4,0.1,0.4,0.4c0,0.3-0.8,0.8-1.4,0.8
							c-0.3,0-0.6-0.3-0.6-0.6v-0.1v-1.8l-0.5,0.1c-0.1,0.1-0.1,0.1-0.1,0.1c-0.2,0-0.3-0.1-0.3-0.4c0-0.2,0.1-0.3,0.3-0.3l0,0
							c0.1,0,0.1,0,0.1,0.1l0.5-0.1v-1c0-0.1-0.1-0.1-0.1-0.2c0-0.1,0.2-0.3,0.5-0.3c0.1,0,0.3,0,0.3,0.3c0,0.1,0,0.1-0.1,0.2v0.9
							l1.7-0.3V246c-0.1-0.1-0.1-0.1-0.1-0.2c0-0.2,0.2-0.3,0.5-0.3c0.1,0,0.3,0.1,0.3,0.3c0,0.1,0,0.1-0.1,0.2v0.4l1-0.1
							c0.1-0.1,0.1-0.1,0.1-0.1c0.1,0,0.3,0.1,0.3,0.3l0,0c0,0.3-0.1,0.4-0.3,0.4c-0.1,0-0.1,0-0.1-0.1l-1,0.2L77.8,249z
							 M80.2,245.5c-0.1-0.1-0.1-0.2-0.1-0.3c0-0.3,0.1-0.4,0.4-0.4c0.2,0,0.4,0.1,0.4,0.4c0,0.1-0.1,0.3-0.1,0.3v3.8
							c0.1,0.1,0.1,0.1,0.1,0.3c0,0.1-0.2,0.3-0.4,0.3c-0.2,0.1-0.4-0.1-0.4-0.3c0-0.1,0-0.2,0.1-0.3V245.5z M83.5,246.4
							c0.6-0.1,1,0.3,1.1,0.9c0,0,0,0,0,0.1c0,0.3-0.3,0.6-2,1l-0.4,0.1c-0.1,0.1-0.1,0.3-0.1,0.4c-0.1,0.3,0.1,0.5,0.4,0.5
							c0.1,0,0.1,0,0.1,0c0.4,0,0.8-0.2,1.1-0.5c0-0.2,0.1-0.3,0.4-0.3c0.2,0,0.3,0.1,0.3,0.3v0.1c-0.4,0.7-1.1,1.2-1.9,1.1
							c-0.6,0-1.2-0.3-1.2-1.1C81.6,247.4,82.6,246.4,83.5,246.4L83.5,246.4z M83.5,247c-0.5,0.1-0.9,0.4-1.1,0.8
							c1.3-0.3,1.5-0.3,1.5-0.4S83.9,247,83.5,247L83.5,247z M88.3,246.8c0,0.1-0.1,0.2-0.1,0.3v2.2c0.1,0.1,0.1,0.1,0.1,0.2
							c0,0.3-0.3,0.4-0.6,0.4c-0.2,0-0.3-0.1-0.3-0.3c0,0,0,0,0-0.1s0.1-0.2,0.1-0.3v-2c-0.1-0.1-0.1-0.1-0.1-0.2
							c0-0.2,0-0.4,0.5-0.4C88.1,246.5,88.2,246.7,88.3,246.8L88.3,246.8z M87.9,245c0.2,0,0.3,0.1,0.3,0.3v0.1
							c0,0.4-0.3,0.7-0.4,0.7s-0.3-0.1-0.3-0.4C87.5,245.3,87.6,245,87.9,245L87.9,245z M91,246.4c0.5,0,0.9,0.1,0.9,0.4
							c0,0.1-0.1,0.3-0.3,0.3c0,0,0,0-0.1,0s-0.1-0.1-0.2-0.1s0.1,0-0.3,0c-0.8,0-1.3,0.4-1.3,0.8c0,0.1,0.1,0.2,0.2,0.2
							c0,0,0,0,0.1,0c0.3-0.1,0.4-0.1,0.7-0.2c0.3-0.1,0.6-0.1,0.8-0.2c0.4-0.1,0.8,0.3,0.8,0.7v0.1c0,1.2-1.6,1.6-2.2,1.6
							s-1-0.3-1-0.6c0-0.2,0.1-0.4,0.3-0.4c0,0,0,0,0.1,0c0.2,0,0.3,0.1,0.3,0.2c0,0.1,0,0.1,0,0.1c0.1,0.1,0.3,0.2,0.4,0.2
							c0.5,0,1.5-0.3,1.5-0.9c0-0.1-0.1-0.3-0.3-0.3h-0.1c-0.3,0-0.4,0.1-0.7,0.2c-0.3,0.1-0.6,0.1-0.9,0.2c-0.4,0-0.6-0.3-0.6-0.6
							V248C89,246.9,90.1,246.4,91,246.4L91,246.4z"/>
						<path class="st21" d="M55.6,252.9c0,0.1-0.1,0.2-0.3,0.2c-0.1,0-0.3-0.1-0.3-0.3l0,0c0-0.1,0.1-0.3,0.3-0.3l1.3-0.7
							c0.1-0.1,0.3-0.1,0.4-0.1c0.1,0,0.3,0.1,0.3,0.2l0,0c0,0.1-0.1,0.1-0.1,0.2v3.2c0.1,0.1,0.1,0.1,0.1,0.1
							c0,0.1-0.1,0.3-0.4,0.3c-0.2,0-0.3,0-0.3-0.2c0-0.1,0.1-0.1,0.1-0.2v-2.9L55.6,252.9z"/>
						<g>
							<g>
								<g>
									<defs>
										<rect id="SVGID_00000115499887546701458250000016210748034989700281_" width="381.1" height="539"/>
									</defs>
									<clipPath id="SVGID_00000054238383595385625140000007996367927275383943_">
										<use xlink:href="#SVGID_00000115499887546701458250000016210748034989700281_"  style="overflow:visible;"/>
									</clipPath>
									<g style="clip-path:url(#SVGID_00000054238383595385625140000007996367927275383943_);">
										<line class="st23" x1="54.5" y1="258.1" x2="58.2" y2="258.1"/>
									</g>
								</g>
							</g>
						</g>
						<path class="st21" d="M58,263.9c0,0.3-0.1,0.3-0.3,0.3h-2.2c-0.1,0.1-0.2,0.1-0.3,0.1c-0.2,0-0.3-0.1-0.3-0.1
							c0-0.3,0.1-0.6,0.3-0.9c0.4-0.5,0.8-0.9,1.4-1.2c0.3-0.2,0.6-0.5,0.6-0.9c0-0.3-0.3-0.5-0.6-0.5c-0.4-0.1-0.8,0.1-1,0.4v0.1
							c0,0-0.1,0.2-0.4,0.2c-0.2,0-0.3-0.1-0.3-0.3l0,0c0-0.1,0.1-0.3,0.2-0.3c0.3-0.6,0.9-0.9,1.5-0.8c0.6-0.1,1,0.3,1.1,0.9v0.1
							c0,0.6-0.3,1.1-0.9,1.3c-0.6,0.3-1,0.7-1.3,1.3h1.7c0-0.3,0.1-0.4,0.3-0.4C57.9,263.4,58,263.5,58,263.9L58,263.9z"/>
						<text transform="matrix(1 0 0 1 58.9512 260.0254)" class="st21 st4 st6">.</text>
						<text transform="matrix(1 0 0 1 85.5977 272.4902)" class="st21 st4 st6">He</text>
						<text transform="matrix(1 0 0 1 93.9717 272.4902)" class="st21 st4 st6">r</text>
						<text transform="matrix(1 0 0 1 96.75 272.4902)" class="st21 st4 st6">e</text>
						<text transform="matrix(1 0 0 1 102.4224 272.4902)" class="st21 st4 st6">e</text>
						<text transform="matrix(1 0 0 1 106.001 272.4902)" class="st21 st4 st6">a</text>
						<text transform="matrix(1 0 0 1 109.7207 272.4902)" class="st21 st4 st6">c</text>
						<text transform="matrix(1 0 0 1 113.2739 272.4902)" class="st21 st4 st6">h</text>
						<text transform="matrix(1 0 0 1 118.9976 272.4902)" class="st21 st4 st6">s</text>
						<text transform="matrix(1 0 0 1 122.8389 272.4902)" class="st21 st4 st6">q</text>
						<text transform="matrix(1 0 0 1 126.6611 272.4902)" class="st21 st4 st6">ua</text>
						<text transform="matrix(1 0 0 1 134.0171 272.4902)" class="st21 st4 st6">r</text>
						<text transform="matrix(1 0 0 1 136.7959 272.4902)" class="st21 st4 st6">e</text>
						<text transform="matrix(1 0 0 1 142.4678 272.4902)" class="st21 st4 st6">i</text>
						<text transform="matrix(1 0 0 1 144.1133 272.4902)" class="st21 st4 st6">s</text>
						<text transform="matrix(1 0 0 1 150.0352 272.4902)" class="st21 st4 st6">0</text>
						<text transform="matrix(1 0 0 1 154.9971 272.4902)" class="st21 st4 st6">.25.</text>
						<g>
							<g>
								<g>
									<defs>
										<rect id="SVGID_00000093855423650835757960000016696140442916004481_" width="381.1" height="539"/>
									</defs>
									<clipPath id="SVGID_00000009548709434157391220000014486519004573275549_">
										<use xlink:href="#SVGID_00000093855423650835757960000016696140442916004481_"  style="overflow:visible;"/>
									</clipPath>
									<g style="clip-path:url(#SVGID_00000009548709434157391220000014486519004573275549_);">
										<path class="st18" d="M251.7,313.6c11.1,1.7,17.3,3.8,26.6,8.8"/>
										<path class="st20" d="M278.2,319.7c-0.3,1-0.1,2,0.5,2.8c-1-0.1-2,0.3-2.6,1.1"/>
									</g>
								</g>
							</g>
						</g>
						<text transform="matrix(1 0 0 1 174.895 307.1709)" class="st21 st4 st6">Ma</text>
						<text transform="matrix(1 0 0 1 184.6328 307.1709)" class="st21 st4 st6">k</text>
						<text transform="matrix(1 0 0 1 187.9551 307.1709)" class="st21 st4 st6">e</text>
						<text transform="matrix(1 0 0 1 193.5317 307.1709)" class="st21 st4 st6">su</text>
						<text transform="matrix(1 0 0 1 200.9971 307.1709)" class="st21 st4 st6">r</text>
						<text transform="matrix(1 0 0 1 203.7754 307.1709)" class="st21 st4 st6">e</text>
						<text transform="matrix(1 0 0 1 209.3516 307.1709)" class="st21 st4 st6">y</text>
						<text transform="matrix(1 0 0 1 212.8022 307.1709)" class="st21 st4 st6">o</text>
						<text transform="matrix(1 0 0 1 216.5669 307.1709)" class="st21 st4 st6">u</text>
						<text transform="matrix(1 0 0 1 222.188 307.1709)" class="st21 st4 st6">wri</text>
						<text transform="matrix(1 0 0 1 231.5352 307.1709)" class="st21 st4 st6">t</text>
						<text transform="matrix(1 0 0 1 235.0693 307.1709)" class="st21 st4 st6">e</text>
						<text transform="matrix(1 0 0 1 240.6519 307.1709)" class="st21 st4 st6">t</text>
						<text transform="matrix(1 0 0 1 244.2432 307.1709)" class="st21 st4 st6">h</text>
						<text transform="matrix(1 0 0 1 247.8672 307.1709)" class="st21 st4 st6">e</text>
						<text transform="matrix(1 0 0 1 174.895 317.376)" class="st21 st4 st6">c</text>
						<text transform="matrix(1 0 0 1 178.3843 317.376)" class="st21 st4 st6">o</text>
						<text transform="matrix(1 0 0 1 182.1035 317.376)" class="st21 st4 st6">oridna</text>
						<text transform="matrix(1 0 0 1 201.7778 317.376)" class="st21 st4 st6">t</text>
						<text transform="matrix(1 0 0 1 205.3057 317.376)" class="st21 st4 st6">e</text>
						<text transform="matrix(1 0 0 1 208.8843 317.376)" class="st21 st4 st6">s</text>
						<text transform="matrix(1 0 0 1 214.8125 317.376)" class="st21 st4 st6">t</text>
						<text transform="matrix(1 0 0 1 218.4043 317.376)" class="st21 st4 st6">h</text>
						<text transform="matrix(1 0 0 1 222.0278 317.376)" class="st21 st4 st6">e</text>
						<text transform="matrix(1 0 0 1 227.7002 317.376)" class="st21 st4 st6">right</text>
						<text transform="matrix(1 0 0 1 174.895 327.5747)" class="st21 st4 st6">w</text>
						<text transform="matrix(1 0 0 1 179.543 327.5747)" class="st21 st4 st6">a</text>
						<text transform="matrix(1 0 0 1 183.2754 327.5747)" class="st21 st4 st6">y</text>
						<text transform="matrix(1 0 0 1 188.9609 327.5747)" class="st21 st4 st6">r</text>
						<text transform="matrix(1 0 0 1 191.7393 327.5747)" class="st21 st4 st6">ou</text>
						<text transform="matrix(1 0 0 1 199.127 327.5747)" class="st21 st4 st6">n</text>
						<text transform="matrix(1 0 0 1 202.7314 327.5747)" class="st21 st4 st6">d</text>
						<path class="st21" d="M210.6,322.4c0.3,0,0.5,0.2,0.5,0.4v0.1c0,0.2-0.1,0.3-0.3,0.3h-0.1c-0.6,0.4-0.8,1.5-0.8,2.7
							c0,1,0.2,2.2,0.8,2.7c0.1-0.1,0.3,0.1,0.3,0.3c0,0.3-0.3,0.4-0.3,0.4c-0.2,0-0.4-0.1-0.5-0.3c-0.6-1-1-2.1-1-3.3
							c-0.1-1.2,0.3-2.3,1-3.2C210.4,322.5,210.5,322.4,210.6,322.4L210.6,322.4z M212,327.4c0,0.1,0,0.3-0.3,0.3
							c-0.2,0-0.4-0.2-0.4-0.4c0-0.2,0.1-0.3,0.2-0.3c0.3-0.4,0.6-0.7,0.8-1.1c-0.3-0.3-0.6-0.6-0.9-1.1c-0.1,0-0.1-0.1-0.1-0.3
							c0.1-0.2,0.3-0.4,0.4-0.4c0.3,0,0.3,0.2,0.3,0.3c0.2,0.3,0.4,0.6,0.7,0.9c0.2-0.3,0.5-0.6,0.8-1c0-0.1,0.1-0.3,0.2-0.3h0.1
							c0.2,0,0.4,0.2,0.4,0.4c0,0.1-0.1,0.3-0.2,0.3l-0.8,1c0.6,0.6,1.2,1.2,1.2,1.5c0,0.2-0.1,0.3-0.3,0.3l0,0
							c-0.1,0-0.3-0.1-0.3-0.2c-0.3-0.4-0.6-0.8-0.9-1.2L212,327.4z M214.7,328.4c-0.2,0-0.2-0.1-0.2-0.2s0.1-0.2,0.3-0.2
							c0.3,0,0.4-0.2,0.4-0.4c0,0,0,0,0-0.1c-0.1,0.1-0.1,0.1-0.2,0.1c-0.2,0-0.3-0.2-0.3-0.4c0-0.3,0.1-0.6,0.4-0.6
							s0.4,0.3,0.4,0.7C215.6,327.9,215.2,328.4,214.7,328.4L214.7,328.4L214.7,328.4z M217.4,324.9c-0.1-0.1-0.2-0.2-0.2-0.3
							c0-0.2,0.3-0.3,0.4-0.3c0.2,0,0.4,0.1,0.4,0.3c0,0.1,0,0.1,0,0.1l1.1,2l0.8-2c0-0.2,0.1-0.3,0.3-0.3l0,0
							c0.3,0,0.4,0.1,0.4,0.3c0,0.1-0.1,0.2-0.2,0.3l-1.3,3.3c-0.3,0.8-0.7,1-1.2,1c-0.4,0-0.8-0.3-0.9-0.6
							c-0.1-0.1-0.1-0.1-0.1-0.3s0.1-0.3,0.3-0.4c0,0,0,0,0.1,0c0.3,0,0.4,0.1,0.4,0.3c0,0.1,0,0.1-0.1,0.1c0.1,0.1,0.2,0.3,0.3,0.3
							c0.3,0,0.5-0.3,0.8-1.2L217.4,324.9z M221.3,322.4c0.1,0,0.3,0.1,0.3,0.3c0.7,0.9,1.1,2,1,3.2c0.1,1.2-0.3,2.3-1,3.3
							c-0.1,0.1-0.3,0.3-0.5,0.3c-0.1,0-0.3-0.1-0.3-0.4s0.2-0.4,0.3-0.3c0.6-0.5,0.8-1.7,0.8-2.7c0-1.2-0.2-2.2-0.8-2.7
							c-0.1,0-0.3-0.1-0.3-0.3V323C220.8,322.6,221,322.4,221.3,322.4L221.3,322.4L221.3,322.4z"/>
						<text transform="matrix(1 0 0 1 222.937 327.5747)" class="st21 st4 st6">.</text>
						<text transform="matrix(1 0 0 1 76.0322 371.833)" class="st21 st4 st6">Y</text>
						<text transform="matrix(1 0 0 1 79.8354 371.833)" class="st21 st4 st6">o</text>
						<text transform="matrix(1 0 0 1 83.5996 371.833)" class="st21 st4 st6">u</text>
						<text transform="matrix(1 0 0 1 89.3105 371.833)" class="st21 st4 st6">do</text>
						<text transform="matrix(1 0 0 1 97.0703 371.833)" class="st21 st4 st6">n</text>
						<text transform="matrix(1 0 0 1 100.6934 371.833)" class="st21 st4 st6">’</text>
						<text transform="matrix(1 0 0 1 102.0635 371.833)" class="st21 st4 st6">t</text>
						<text transform="matrix(1 0 0 1 107.749 371.833)" class="st21 st4 st6">n</text>
						<text transform="matrix(1 0 0 1 111.3535 371.833)" class="st21 st4 st6">ee</text>
						<text transform="matrix(1 0 0 1 118.5176 371.833)" class="st21 st4 st6">d</text>
						<text transform="matrix(1 0 0 1 124.606 371.833)" class="st21 st4 st6">t</text>
						<text transform="matrix(1 0 0 1 128.1338 371.833)" class="st21 st4 st6">o</text>
						<text transform="matrix(1 0 0 1 133.9854 371.833)" class="st21 st4 st6">talk</text>
						<text transform="matrix(1 0 0 1 76.0322 382.0312)" class="st21 st4 st6">a</text>
						<text transform="matrix(1 0 0 1 79.7646 382.0312)" class="st21 st4 st6">b</text>
						<text transform="matrix(1 0 0 1 83.4014 382.0312)" class="st21 st4 st6">outt</text>
						<text transform="matrix(1 0 0 1 96.833 382.0312)" class="st21 st4 st6">h</text>
						<text transform="matrix(1 0 0 1 100.457 382.0312)" class="st21 st4 st6">e</text>
						<text transform="matrix(1 0 0 1 106.1289 382.0312)" class="st21 st4 st6">st</text>
						<text transform="matrix(1 0 0 1 113.5684 382.0312)" class="st21 st4 st6">r</text>
						<text transform="matrix(1 0 0 1 116.3467 382.0312)" class="st21 st4 st6">engt</text>
						<text transform="matrix(1 0 0 1 130.8545 382.0312)" class="st21 st4 st6">h</text>
						<text transform="matrix(1 0 0 1 136.584 382.0312)" class="st21 st4 st6">of</text>
						<text transform="matrix(1 0 0 1 76.0322 392.2368)" class="st21 st4 st6">c</text>
						<text transform="matrix(1 0 0 1 79.5215 392.2368)" class="st21 st4 st6">or</text>
						<text transform="matrix(1 0 0 1 86.1865 392.2368)" class="st21 st4 st6">r</text>
						<text transform="matrix(1 0 0 1 88.9648 392.2368)" class="st21 st4 st6">elation.</text>
						<text transform="matrix(1 0 0 1 66.4678 437.6602)" class="st21 st4 st6">Us</text>
						<text transform="matrix(1 0 0 1 74.9312 437.6602)" class="st21 st4 st6">ea</text>
						<text transform="matrix(1 0 0 1 86.4297 437.6602)" class="st21 st4 st6">rule</text>
						<text transform="matrix(1 0 0 1 98.1777 437.6602)" class="st21 st4 st6">r</text>
						<text transform="matrix(1 0 0 1 103.1582 437.6602)" class="st21 st4 st6">t</text>
						<text transform="matrix(1 0 0 1 106.686 437.6602)" class="st21 st4 st6">o</text>
						<text transform="matrix(1 0 0 1 112.5439 437.6602)" class="st21 st4 st6">b</text>
						<text transform="matrix(1 0 0 1 116.1807 437.6602)" class="st21 st4 st6">e</text>
						<text transform="matrix(1 0 0 1 121.853 437.6602)" class="st21 st4 st6">as</text>
						<text transform="matrix(1 0 0 1 66.4678 447.8652)" class="st21 st4 st6">a</text>
						<text transform="matrix(1 0 0 1 70.1875 447.8652)" class="st21 st4 st6">c</text>
						<text transform="matrix(1 0 0 1 73.6768 447.8652)" class="st21 st4 st6">cu</text>
						<text transform="matrix(1 0 0 1 80.8467 447.8652)" class="st21 st4 st6">r</text>
						<text transform="matrix(1 0 0 1 83.5996 447.8652)" class="st21 st4 st6">a</text>
						<text transform="matrix(1 0 0 1 87.332 447.8652)" class="st21 st4 st6">t</text>
						<text transform="matrix(1 0 0 1 90.8599 447.8652)" class="st21 st4 st6">e</text>
						<text transform="matrix(1 0 0 1 96.5322 447.8652)" class="st21 st4 st6">as</text>
						<text transform="matrix(1 0 0 1 66.4678 458.0703)" class="st21 st4 st6">p</text>
						<text transform="matrix(1 0 0 1 70.2324 458.0703)" class="st21 st4 st6">ossible.</text>
						<g>
							<g>
								<g>
									<defs>
										<rect id="SVGID_00000024722998321456896730000002010267833640424368_" width="381.1" height="539"/>
									</defs>
									<clipPath id="SVGID_00000047045638800419415090000013772352582353436801_">
										<use xlink:href="#SVGID_00000024722998321456896730000002010267833640424368_"  style="overflow:visible;"/>
									</clipPath>
									<g style="clip-path:url(#SVGID_00000047045638800419415090000013772352582353436801_);">
										<path class="st18" d="M76.3,354.9c59.9-1.6,30,0.8,60.6-0.6"/>
										<circle class="st26" cx="282.6" cy="290.2" r="5.3"/>
									</g>
								</g>
							</g>
						</g>
						<text transform="matrix(1 0 0 1 280.0894 292.708)" class="st27 st4 st6">1</text>
						<text transform="matrix(1 0 0 1 290.3457 292.708)" class="st27 st4 st6">C</text>
						<text transform="matrix(1 0 0 1 294.5454 292.708)" class="st27 st4 st6">or</text>
						<text transform="matrix(1 0 0 1 301.2168 292.708)" class="st27 st4 st6">r</text>
						<text transform="matrix(1 0 0 1 303.9951 292.708)" class="st27 st4 st6">e</text>
						<text transform="matrix(1 0 0 1 307.5742 292.708)" class="st27 st4 st6">c</text>
						<text transform="matrix(1 0 0 1 311.0957 292.708)" class="st27 st4 st6">t</text>
						<text transform="matrix(1 0 0 1 316.7803 292.708)" class="st27 st4 st6">ans</text>
						<text transform="matrix(1 0 0 1 327.9844 292.708)" class="st27 st4 st6">w</text>
						<text transform="matrix(1 0 0 1 332.5996 292.708)" class="st27 st4 st6">e</text>
						<text transform="matrix(1 0 0 1 336.1855 292.708)" class="st27 st4 st6">r</text>
						<text transform="matrix(1 0 0 1 341.166 292.708)" class="st27 st4 st6">onl</text>
						<text transform="matrix(1 0 0 1 350.2061 292.708)" class="st27 st4 st6">y</text>
						<text transform="matrix(1 0 0 1 353.5156 292.708)" class="st27 st4 st6">.</text>
						<g>
							<g>
								<g>
									<defs>
										<rect id="SVGID_00000080921414627032715540000013281352426570714264_" width="381.1" height="539"/>
									</defs>
									<clipPath id="SVGID_00000150791733642591770030000014829264266193670028_">
										<use xlink:href="#SVGID_00000080921414627032715540000013281352426570714264_"  style="overflow:visible;"/>
									</clipPath>
									<g style="clip-path:url(#SVGID_00000150791733642591770030000014829264266193670028_);">
										<path class="st26" d="M317.4,297.4c1.3,7.7,1.3,12.3,0.1,19.3"/>
										<path class="st29" d="M320,315.6c-1,0-2,0.5-2.5,1.3c-0.2-1-0.9-1.8-1.9-2.2"/>
										<circle class="st26" cx="276.3" cy="347.6" r="5.3"/>
									</g>
								</g>
							</g>
						</g>
						<text transform="matrix(1 0 0 1 273.7129 350.1104)" class="st27 st4 st6">1</text>
						<text transform="matrix(1 0 0 1 283.9688 350.1104)" class="st27 st4 st6">P</text>
						<text transform="matrix(1 0 0 1 287.5029 350.1104)" class="st27 st4 st6">osit</text>
						<text transform="matrix(1 0 0 1 300.3584 350.1104)" class="st27 st4 st6">i</text>
						<text transform="matrix(1 0 0 1 302.0547 350.1104)" class="st27 st4 st6">v</text>
						<text transform="matrix(1 0 0 1 305.1025 350.1104)" class="st27 st4 st6">e</text>
						<text transform="matrix(1 0 0 1 310.7754 350.1104)" class="st27 st4 st6">o</text>
						<text transform="matrix(1 0 0 1 314.5391 350.1104)" class="st27 st4 st6">r</text>
						<text transform="matrix(1 0 0 1 319.5205 350.1104)" class="st27 st4 st6">p</text>
						<text transform="matrix(1 0 0 1 323.2852 350.1104)" class="st27 st4 st6">osit</text>
						<text transform="matrix(1 0 0 1 336.1406 350.1104)" class="st27 st4 st6">i</text>
						<text transform="matrix(1 0 0 1 337.8369 350.1104)" class="st27 st4 st6">v</text>
						<text transform="matrix(1 0 0 1 340.8848 350.1104)" class="st27 st4 st6">e</text>
						<text transform="matrix(1 0 0 1 283.9688 362.8252)" class="st27 st4 st6">c</text>
						<text transform="matrix(1 0 0 1 287.458 362.8252)" class="st27 st4 st6">or</text>
						<text transform="matrix(1 0 0 1 294.123 362.8252)" class="st27 st4 st6">r</text>
						<text transform="matrix(1 0 0 1 296.9014 362.8252)" class="st27 st4 st6">elation.</text>
						<g>
							<g>
								<g>
									<defs>
										<rect id="SVGID_00000002342923577956409570000012672397807733701270_" width="381.1" height="539"/>
									</defs>
									<clipPath id="SVGID_00000124142303762240752090000013477640047828066221_">
										<use xlink:href="#SVGID_00000002342923577956409570000012672397807733701270_"  style="overflow:visible;"/>
									</clipPath>
									<g style="clip-path:url(#SVGID_00000124142303762240752090000013477640047828066221_);">
										<path class="st26" d="M323.8,360.3c1,5.6,1,9,0.1,13.9"/>
										<path class="st29" d="M326.3,373.1c-1,0-2,0.5-2.5,1.4c-0.2-1-0.9-1.8-1.9-2.2"/>
										<circle class="st26" cx="206.1" cy="424.1" r="5.3"/>
									</g>
								</g>
							</g>
						</g>
						<text transform="matrix(1 0 0 1 203.5513 426.6543)" class="st27 st4 st6">1</text>
						<path class="st27" d="M215,426.1c0.1,0.1,0.1,0.2,0.1,0.3c0,0.3-0.3,0.3-0.5,0.3c-0.3,0-0.4-0.1-0.4-0.3
							c0-0.1,0.1-0.3,0.1-0.4v-1.4c-0.1-0.1-0.1-0.2-0.1-0.3s0.1-0.3,0.1-0.4v-1.2c-0.1-0.1-0.1-0.2-0.1-0.3s0.1-0.3,0.1-0.3
							c0-0.3,0.3-0.4,0.5-0.4s0.3,0.1,0.3,0.3l1.7-0.3c0.1,0,0.2-0.1,0.3-0.1c0.3,0,0.4,0.1,0.4,0.3c0,0.3-0.1,0.4-0.4,0.4
							c-0.1,0-0.2,0-0.3-0.1l-1.8,0.3v1.2l1.7-0.3c0.1-0.1,0.2-0.1,0.3-0.1s0.3,0.2,0.3,0.4c0,0.3-0.1,0.4-0.4,0.4
							c-0.1,0-0.2,0-0.3-0.1l-1.6,0.2L215,426.1L215,426.1z M219.6,423.2c1,0,1.2,0.9,1.2,1.5c0,0.5-0.3,1-0.6,1.4
							c-0.4,0.5-1,0.8-1.7,0.7s-1.1-0.6-1.1-1.2l0,0C217.4,424.3,218.3,423.3,219.6,423.2C219.5,423.2,219.5,423.2,219.6,423.2
							L219.6,423.2z M219.5,423.8c-0.6,0-1.3,0.8-1.3,1.7c0,0.4,0.3,0.7,0.5,0.7c0.3,0,0.6-0.1,0.9-0.4c0.3-0.3,0.4-0.7,0.4-1.1
							C220,424.2,219.9,423.8,219.5,423.8L219.5,423.8z M221.5,423.8l-0.1-0.2c0-0.1,0.2-0.3,0.4-0.3s0.4,0.1,0.4,0.3
							c0,0.1,0,0.1-0.1,0.2v0.3l0,0c0.3-0.4,0.8-0.6,1.2-0.7c0.3,0,0.4,0.3,0.4,1c0,0.2-0.1,0.3-0.4,0.3c-0.3,0-0.3-0.1-0.3-0.2
							s0-0.1,0.1-0.2c0-0.1,0-0.2-0.1-0.2c-0.4,0.1-0.7,0.4-0.9,0.7v1.4c0.1,0.1,0.1,0.1,0.1,0.2c0,0.3-0.1,0.3-0.6,0.3
							c-0.3,0-0.4-0.1-0.4-0.3c0-0.1,0.1-0.1,0.1-0.2L221.5,423.8z M226.4,422.3c-0.1-0.1-0.1-0.2-0.1-0.3c0-0.3,0.1-0.4,0.4-0.4
							c0.2,0,0.4,0.1,0.4,0.4c0,0.1-0.1,0.3-0.1,0.3v3.8c0.1,0.1,0.1,0.1,0.1,0.3s-0.2,0.3-0.4,0.3s-0.4-0.1-0.4-0.3c0,0,0,0,0-0.1
							s0-0.1,0.1-0.2V422.3z M228.9,423.7c0,0.1,0,0.2-0.1,0.3v2.2c0.1,0.1,0.1,0.1,0.1,0.2c0,0.3-0.3,0.4-0.6,0.4
							c-0.2,0-0.3-0.1-0.3-0.3l0,0c0-0.1,0-0.2,0.1-0.3V424c-0.1-0.1-0.1-0.1-0.1-0.2c0-0.2,0-0.4,0.5-0.4
							C228.7,423.3,228.9,423.4,228.9,423.7L228.9,423.7z M228.6,421.8c0.2,0,0.3,0.1,0.3,0.3v0.1c0,0.4-0.3,0.7-0.4,0.7
							s-0.3-0.1-0.3-0.4C228.1,422.2,228.2,421.8,228.6,421.8L228.6,421.8z M230.5,426.3c0.1,0.1,0.1,0.1,0.1,0.2
							c0,0.2-0.3,0.3-0.4,0.3s-0.4-0.1-0.4-0.3c0-0.1,0-0.2,0.1-0.2V425c-0.1-0.1-0.1-0.1-0.1-0.3s0.1-0.3,0.1-0.4v-0.6
							c-0.1-0.1-0.1-0.1-0.1-0.3s0.3-0.3,0.4-0.3s0.4,0.1,0.4,0.3c0,0.1,0,0.2-0.1,0.3v0.3c0.8-0.6,1.2-0.8,1.4-0.8
							c0.3,0,0.5,0.2,0.6,0.5v2.5c0,0.1,0.1,0.1,0.1,0.2c0,0.3-0.1,0.3-0.4,0.3c-0.3,0-0.4-0.1-0.4-0.3c0-0.1,0-0.1,0.1-0.2V424
							c0-0.1-0.1-0.1-0.2-0.1c-0.1,0-0.4,0.1-1.1,0.7v1.7H230.5z M235.1,423.2c0.6-0.1,1.1,0.3,1.1,0.9l0,0c0,0.3-0.3,0.6-2,1
							l-0.3,0.1c-0.1,0.1-0.1,0.3-0.1,0.4c-0.1,0.3,0.1,0.5,0.4,0.5c0.1,0,0.1,0,0.1,0c0.4,0,0.8-0.2,1.1-0.5c0-0.2,0.1-0.3,0.4-0.3
							c0.2,0,0.3,0.1,0.3,0.3v0.1c-0.4,0.7-1.1,1.2-1.9,1.1c-0.6,0-1.2-0.3-1.2-1.1C233.1,424.3,234.1,423.2,235.1,423.2
							L235.1,423.2z M235.1,423.8c-0.5,0.1-0.9,0.4-1.1,0.8c1.3-0.3,1.5-0.3,1.5-0.4C235.5,424,235.3,423.8,235.1,423.8
							C235.2,423.8,235.1,423.8,235.1,423.8L235.1,423.8z M240.9,423.2c1,0,1.2,0.9,1.2,1.5c0,0.5-0.3,1-0.6,1.4
							c-0.4,0.5-1,0.8-1.7,0.7c-0.6-0.1-1.1-0.6-1.1-1.2l0,0C238.7,424.3,239.6,423.3,240.9,423.2L240.9,423.2L240.9,423.2z
							 M240.8,423.8c-0.6,0-1.3,0.8-1.3,1.7c0,0.4,0.3,0.7,0.5,0.7c0.3,0,0.6-0.1,0.9-0.4c0.3-0.3,0.4-0.7,0.4-1.1
							C241.3,424.2,241.2,423.8,240.8,423.8L240.8,423.8z M243.1,424.2l-0.4,0.1c-0.1,0.1-0.1,0.1-0.1,0.1c-0.1,0-0.3-0.1-0.3-0.4
							c0-0.1,0.1-0.3,0.2-0.3c0.1,0,0.1,0,0.1,0l0.4-0.1c0-1.3,0.2-2,1.1-2c0.4,0,1,0.4,1,0.6s-0.1,0.3-0.3,0.4
							c-0.1,0-0.3-0.1-0.3-0.3s-0.3-0.2-0.4-0.2c-0.3,0-0.3,0.3-0.3,1.3l0.8-0.1c0.1,0,0.1-0.1,0.2-0.1c0.2,0,0.3,0.1,0.3,0.3l0,0
							c0,0.2-0.1,0.4-0.3,0.4c-0.1,0-0.1,0-0.1-0.1l-0.9,0.1v2.1c0.1,0.1,0.1,0.1,0.1,0.2c0,0.2-0.2,0.3-0.4,0.3s-0.4-0.1-0.4-0.3
							c0-0.1,0-0.1,0.1-0.1L243.1,424.2z M248.2,424L248.2,424c0.4-0.4,1-0.6,1.6-0.6c0.4-0.1,0.7,0.3,0.8,0.6c0,0.1,0,0.1,0,0.2
							c0,1.1-1.4,2.7-2.8,2.7c-0.3,0-0.4-0.1-0.4-0.3c0-0.1,0.1-0.2,0.1-0.3v-4c-0.1-0.1-0.1-0.2-0.1-0.3c0-0.2,0.3-0.3,0.5-0.3
							s0.3,0.1,0.3,0.3c0,0.1,0,0.1-0.1,0.2L248.2,424L248.2,424z M248.2,426.1c0.8-0.3,1.5-1,1.6-1.9c0-0.2-0.3-0.2-0.3-0.2
							c-0.5,0.1-1,0.3-1.3,0.6V426.1z M253,423.2c0.6-0.1,1,0.3,1.1,0.9c0,0,0,0,0,0.1c0,0.3-0.3,0.6-2,1l-0.3,0.1
							c-0.1,0.1-0.1,0.3-0.1,0.4c-0.1,0.3,0.1,0.5,0.4,0.5c0.1,0,0.1,0,0.1,0c0.4,0,0.8-0.2,1.1-0.5c0-0.2,0.1-0.3,0.4-0.3
							c0.2,0,0.3,0.1,0.3,0.3v0.1c-0.4,0.7-1.1,1.2-1.9,1.1c-0.6,0-1.2-0.3-1.2-1.1C250.9,424.3,251.9,423.2,253,423.2L253,423.2z
							 M252.9,423.8c-0.5,0.1-0.9,0.4-1.1,0.8c1.3-0.3,1.5-0.3,1.5-0.4C253.3,424,253.1,423.8,252.9,423.8
							C253,423.8,252.9,423.8,252.9,423.8L252.9,423.8z M256.7,423.2c0.5,0,0.9,0.1,0.9,0.4c0,0.1-0.1,0.3-0.3,0.3c0,0,0,0-0.1,0
							s-0.1-0.1-0.2-0.1s-0.1-0.1-0.4-0.1c-0.8,0-1.3,0.4-1.3,0.8c0,0.1,0.1,0.2,0.2,0.2c0,0,0,0,0.1,0c0.3-0.1,0.4-0.1,0.7-0.2
							c0.3-0.1,0.6-0.1,0.8-0.2c0.4-0.1,0.8,0.3,0.8,0.7c0,0.1,0,0.1,0,0.1c0,1.2-1.6,1.6-2.2,1.6c-0.6,0-1-0.3-1-0.6
							c0-0.2,0.1-0.4,0.3-0.4c0,0,0,0,0.1,0c0.2,0,0.3,0.1,0.3,0.2v0.1c0.1,0.1,0.3,0.2,0.4,0.2c0.5,0,1.5-0.3,1.5-0.9
							c0-0.1-0.1-0.3-0.3-0.3l0,0c-0.3,0-0.4,0.1-0.7,0.2c-0.3,0.1-0.6,0.1-0.9,0.2c-0.4,0-0.6-0.3-0.6-0.6v-0.1
							C254.6,423.8,255.8,423.2,256.7,423.2L256.7,423.2z M259.1,422.8c0-0.1-0.1-0.1-0.1-0.2s0.2-0.3,0.5-0.3
							c0.1,0,0.3,0.1,0.3,0.3c0,0.1,0,0.1-0.1,0.2v0.4l1-0.1c0.1-0.1,0.1-0.1,0.1-0.1c0.1,0,0.3,0.1,0.3,0.3c0,0,0,0,0,0.1
							c0,0.3-0.1,0.4-0.3,0.4c-0.1,0-0.1,0-0.1-0.1l-1,0.2v2c0,0.1,0.1,0.2,0.1,0.2c0.4-0.1,0.8-0.4,1.1-0.7c0-0.1,0.1-0.3,0.3-0.3
							c0,0,0,0,0.1,0c0.3,0,0.4,0.1,0.4,0.4s-1.3,1.3-2,1.3c-0.3,0-0.6-0.3-0.6-0.6v-0.1V424l-0.5,0.1c-0.1,0.1-0.1,0.1-0.1,0.1
							c-0.2,0-0.3-0.1-0.3-0.3c0,0,0,0,0-0.1c0-0.2,0.1-0.3,0.3-0.3l0,0c0.1,0,0.1,0,0.1,0.1l0.5-0.1L259.1,422.8z M265.3,424.1v2.1
							c0.1,0.1,0.1,0.1,0.1,0.2c0,0.2-0.1,0.3-0.4,0.3s-0.4-0.1-0.4-0.3c0-0.1,0.1-0.1,0.1-0.2v-2l-0.3,0.1
							c-0.1,0.1-0.1,0.1-0.1,0.1c-0.1,0-0.3-0.1-0.3-0.4c0-0.1,0.1-0.3,0.3-0.3c0.1,0,0.1,0,0.2,0.1l0.3-0.1c0-1.4,0.3-2,1.2-2
							c1,0,1.5,0.6,1.5,0.9c0,0.2-0.2,0.4-0.4,0.4l0,0c-0.1,0-0.4-0.1-0.4-0.3c0-0.1,0-0.1,0.1-0.1c-0.2-0.2-0.4-0.3-0.7-0.3
							c-0.3,0-0.4,0.3-0.4,1.3l1.2-0.2c0.1,0,0.2-0.1,0.4-0.1c0.2,0,0.4,0.1,0.4,0.3c0,0.1,0,0.2-0.1,0.3v2.4c0,0.1,0.1,0.1,0.1,0.2
							c0,0.3-0.3,0.4-0.5,0.4s-0.4-0.1-0.4-0.3c0,0,0,0,0-0.1s0.1-0.2,0.1-0.3V424L265.3,424.1z M268.7,422.8
							c-0.1-0.1-0.1-0.1-0.1-0.2c0-0.2,0.2-0.3,0.5-0.3c0.2,0,0.3,0.1,0.3,0.3c0,0.1,0,0.1-0.1,0.2v0.4l1-0.1
							c0.1-0.1,0.1-0.1,0.1-0.1c0.1,0,0.3,0.1,0.3,0.3l0,0c0,0.3-0.1,0.4-0.3,0.4c-0.1,0-0.1,0-0.1-0.1l-1,0.2v2
							c0,0.1,0.1,0.2,0.1,0.2c0.4-0.1,0.8-0.4,1.1-0.7c0-0.1,0.1-0.3,0.3-0.3c0,0,0,0,0.1,0c0.3,0,0.4,0.1,0.4,0.4s-1.3,1.3-2,1.3
							c-0.3,0-0.6-0.3-0.6-0.6V426v-2.2l-0.5,0.1c-0.1,0.1-0.1,0.1-0.1,0.1c-0.2,0-0.3-0.1-0.3-0.3c0,0,0,0,0-0.1
							c0-0.2,0.1-0.3,0.3-0.3l0,0c0.1,0,0.1,0,0.1,0.1l0.5-0.1L268.7,422.8z M272,426.7c-0.3,0-0.4-0.2-0.4-0.4l0,0
							c0-0.3,0.2-0.5,0.4-0.5c0.2,0,0.4,0.1,0.4,0.4C272.5,426.4,272.3,426.7,272,426.7C272.1,426.7,272.1,426.7,272,426.7
							L272,426.7z"/>
						<g>
							<g>
								<g>
									<defs>
										<rect id="SVGID_00000021094297842716329060000002225952379458113967_" width="381.1" height="539"/>
									</defs>
									<clipPath id="SVGID_00000129924041963321409400000016649004294293802116_">
										<use xlink:href="#SVGID_00000021094297842716329060000002225952379458113967_"  style="overflow:visible;"/>
									</clipPath>
									<g style="clip-path:url(#SVGID_00000129924041963321409400000016649004294293802116_);">
										<circle class="st26" cx="206.1" cy="436.9" r="5.3"/>
									</g>
								</g>
							</g>
						</g>
						<text transform="matrix(1 0 0 1 203.5513 439.4082)" class="st27 st4 st6">1</text>
						<text transform="matrix(1 0 0 1 213.8076 439.4082)" class="st27 st4 st6">F</text>
						<text transform="matrix(1 0 0 1 217.2451 439.4082)" class="st27 st4 st6">o</text>
						<text transform="matrix(1 0 0 1 221.0098 439.4082)" class="st27 st4 st6">r</text>
						<text transform="matrix(1 0 0 1 225.9907 439.4082)" class="st27 st4 st6">2</text>
						<text transform="matrix(1 0 0 1 231.0166 439.4082)" class="st27 st4 st6">0</text>
						<text transform="matrix(1 0 0 1 235.9717 439.4082)" class="st27 st4 st6">,</text>
						<text transform="matrix(1 0 0 1 239.7168 439.4082)" class="st27 st4 st6">21</text>
						<text transform="matrix(1 0 0 1 249.7559 439.4082)" class="st27 st4 st6">,</text>
						<text transform="matrix(1 0 0 1 253.501 439.4082)" class="st27 st4 st6">o</text>
						<text transform="matrix(1 0 0 1 257.2656 439.4082)" class="st27 st4 st6">r</text>
						<text transform="matrix(1 0 0 1 262.2461 439.4082)" class="st27 st4 st6">22.</text>
						<g>
							<g>
								<g>
									<defs>
										<rect id="SVGID_00000147940929212633024390000014677007331433674150_" width="381.1" height="539"/>
									</defs>
									<clipPath id="SVGID_00000013894127922058301660000016372847298318591630_">
										<use xlink:href="#SVGID_00000147940929212633024390000014677007331433674150_"  style="overflow:visible;"/>
									</clipPath>
									<g style="clip-path:url(#SVGID_00000013894127922058301660000016372847298318591630_);">
										<path class="st26" d="M277.3,428.6c11.2,0.6,17.9,2.9,26.7,8.7"/>
										<path class="st33" d="M304,434.7c-0.4,0.9-0.3,2,0.3,2.8c-1-0.2-2,0.1-2.7,0.9"/>
									</g>
								</g>
							</g>
						</g>
						<text transform="matrix(1 0 0 1 47.3252 298.5215)" class="st3 st4 st6">(a</text>
						<text transform="matrix(1 0 0 1 53.625 298.5215)" class="st3 st4 st6">)</text>
						<text transform="matrix(1 0 0 1 58.0488 298.5215)" class="st3 st4 st6">Sta</text>
						<text transform="matrix(1 0 0 1 67.9912 298.5215)" class="st3 st4 st6">t</text>
						<text transform="matrix(1 0 0 1 70.373 298.5215)" class="st3 st4 st6">e</text>
						<text transform="matrix(1 0 0 1 75.7188 298.5215)" class="st3 st4 st6">th</text>
						<text transform="matrix(1 0 0 1 82.5498 298.5215)" class="st3 st4 st6">e</text>
						<text transform="matrix(1 0 0 1 87.8955 298.5215)" class="st3 st4 st6">coo</text>
						<text transform="matrix(1 0 0 1 99.1826 298.5215)" class="st3 st4 st6">r</text>
						<text transform="matrix(1 0 0 1 102.0186 298.5215)" class="st3 st4 st6">dina</text>
						<text transform="matrix(1 0 0 1 116.4111 298.5215)" class="st3 st4 st6">t</text>
						<text transform="matrix(1 0 0 1 118.7861 298.5215)" class="st3 st4 st6">e</text>
						<text transform="matrix(1 0 0 1 122.3394 298.5215)" class="st3 st4 st6">s</text>
						<text transform="matrix(1 0 0 1 127.1602 298.5215)" class="st3 st4 st6">o</text>
						<text transform="matrix(1 0 0 1 131.0977 298.5215)" class="st3 st4 st6">f</text>
						<text transform="matrix(1 0 0 1 135.624 298.5215)" class="st3 st4 st6">th</text>
						<text transform="matrix(1 0 0 1 142.4551 298.5215)" class="st3 st4 st6">e</text>
						<text transform="matrix(1 0 0 1 147.8008 298.5215)" class="st3 st4 st6">outlie</text>
						<text transform="matrix(1 0 0 1 166.4121 298.5215)" class="st3 st4 st6">r</text>
						<text transform="matrix(1 0 0 1 168.8257 298.5215)" class="st3 st4 st6">.</text>
						<text transform="matrix(1 0 0 1 266.7725 331.0508)" class="st34 st4 st6">(</text>
						<g>
							<g>
								<g>
									<defs>
										<rect id="SVGID_00000108987586478681124240000014024080103782074299_" width="381.1" height="539"/>
									</defs>
									<clipPath id="SVGID_00000093173832185642690010000006011816620732546944_">
										<use xlink:href="#SVGID_00000108987586478681124240000014024080103782074299_"  style="overflow:visible;"/>
									</clipPath>
									<g style="clip-path:url(#SVGID_00000093173832185642690010000006011816620732546944_);">
										<line class="st36" x1="270.6" y1="330.7" x2="271.2" y2="330.7"/>
										<line class="st36" x1="271.8" y1="330.7" x2="272.5" y2="330.7"/>
										<line class="st36" x1="273.1" y1="330.7" x2="273.8" y2="330.7"/>
										<line class="st36" x1="274.4" y1="330.7" x2="275" y2="330.7"/>
										<line class="st36" x1="275.7" y1="330.7" x2="276.3" y2="330.7"/>
										<line class="st36" x1="277" y1="330.7" x2="277.6" y2="330.7"/>
										<line class="st36" x1="278.2" y1="330.7" x2="278.9" y2="330.7"/>
										<line class="st36" x1="279.5" y1="330.7" x2="280.2" y2="330.7"/>
										<line class="st36" x1="280.8" y1="330.7" x2="281.4" y2="330.7"/>
										<line class="st36" x1="282" y1="330.7" x2="282.7" y2="330.7"/>
										<line class="st36" x1="283.3" y1="330.7" x2="283.9" y2="330.7"/>
										<line class="st36" x1="284.6" y1="330.7" x2="285.2" y2="330.7"/>
										<line class="st36" x1="285.9" y1="330.7" x2="286.5" y2="330.7"/>
										<line class="st36" x1="287.1" y1="330.7" x2="287.8" y2="330.7"/>
										<line class="st36" x1="288.4" y1="330.7" x2="289.1" y2="330.7"/>
										<line class="st36" x1="289.7" y1="330.7" x2="290.3" y2="330.7"/>
										<line class="st36" x1="291" y1="330.7" x2="291.6" y2="330.7"/>
										<line class="st36" x1="292.3" y1="330.7" x2="292.9" y2="330.7"/>
										<line class="st36" x1="293.5" y1="330.7" x2="294.2" y2="330.7"/>
										<line class="st36" x1="294.8" y1="330.7" x2="295.5" y2="330.7"/>
										<line class="st36" x1="296.1" y1="330.7" x2="296.7" y2="330.7"/>
										<line class="st36" x1="297.4" y1="330.7" x2="298" y2="330.7"/>
										<line class="st36" x1="298.7" y1="330.7" x2="299.3" y2="330.7"/>
										<line class="st36" x1="299.9" y1="330.7" x2="300.5" y2="330.7"/>
										<line class="st36" x1="301.2" y1="330.7" x2="301.8" y2="330.7"/>
										<line class="st36" x1="302.4" y1="330.7" x2="303.1" y2="330.7"/>
										<line class="st36" x1="303.7" y1="330.7" x2="304.4" y2="330.7"/>
									</g>
								</g>
							</g>
						</g>
						<text transform="matrix(1 0 0 1 305.6914 331.0508)" class="st34 st4 st6">,</text>
						<g>
							<g>
								<g>
									<defs>
										<rect id="SVGID_00000036944377722421673060000017862068132938002362_" width="381.1" height="539"/>
									</defs>
									<clipPath id="SVGID_00000051375811115076512570000010326746878599523984_">
										<use xlink:href="#SVGID_00000036944377722421673060000017862068132938002362_"  style="overflow:visible;"/>
									</clipPath>
									<g style="clip-path:url(#SVGID_00000051375811115076512570000010326746878599523984_);">
										<line class="st36" x1="308.8" y1="330.7" x2="309.5" y2="330.7"/>
										<line class="st36" x1="310.1" y1="330.7" x2="310.8" y2="330.7"/>
										<line class="st36" x1="311.4" y1="330.7" x2="312" y2="330.7"/>
										<line class="st36" x1="312.7" y1="330.7" x2="313.3" y2="330.7"/>
										<line class="st36" x1="314" y1="330.7" x2="314.6" y2="330.7"/>
										<line class="st36" x1="315.2" y1="330.7" x2="315.9" y2="330.7"/>
										<line class="st36" x1="316.5" y1="330.7" x2="317.1" y2="330.7"/>
										<line class="st36" x1="317.7" y1="330.7" x2="318.4" y2="330.7"/>
										<line class="st36" x1="319" y1="330.7" x2="319.7" y2="330.7"/>
										<line class="st36" x1="320.3" y1="330.7" x2="320.9" y2="330.7"/>
										<line class="st36" x1="321.6" y1="330.7" x2="322.2" y2="330.7"/>
										<line class="st36" x1="322.9" y1="330.7" x2="323.5" y2="330.7"/>
										<line class="st36" x1="324.1" y1="330.7" x2="324.8" y2="330.7"/>
										<line class="st36" x1="325.4" y1="330.7" x2="326.1" y2="330.7"/>
										<line class="st36" x1="326.7" y1="330.7" x2="327.3" y2="330.7"/>
										<line class="st36" x1="328" y1="330.7" x2="328.6" y2="330.7"/>
										<line class="st36" x1="329.3" y1="330.7" x2="329.9" y2="330.7"/>
										<line class="st36" x1="330.5" y1="330.7" x2="331.2" y2="330.7"/>
										<line class="st36" x1="331.8" y1="330.7" x2="332.4" y2="330.7"/>
										<line class="st36" x1="333" y1="330.7" x2="333.7" y2="330.7"/>
										<line class="st36" x1="334.3" y1="330.7" x2="335" y2="330.7"/>
										<line class="st36" x1="335.6" y1="330.7" x2="336.2" y2="330.7"/>
										<line class="st36" x1="336.9" y1="330.7" x2="337.5" y2="330.7"/>
										<line class="st36" x1="338.2" y1="330.7" x2="338.8" y2="330.7"/>
										<line class="st36" x1="339.4" y1="330.7" x2="340.1" y2="330.7"/>
										<line class="st36" x1="340.7" y1="330.7" x2="341.4" y2="330.7"/>
										<line class="st36" x1="342" y1="330.7" x2="342.6" y2="330.7"/>
									</g>
								</g>
							</g>
						</g>
						<text transform="matrix(1 0 0 1 343.9062 331.0508)" class="st34 st4 st6">)</text>
						<text transform="matrix(1 0 0 1 305.2559 339.9824)" class="st34 st4 st6">(1)</text>
						<text transform="matrix(1 0 0 1 47.3252 352.7417)" class="st3 st4 st6">(b</text>
						<text transform="matrix(1 0 0 1 53.9448 352.7417)" class="st3 st4 st6">)</text>
						<text transform="matrix(1 0 0 1 58.2148 352.7417)" class="st3 st4 st6">Wha</text>
						<text transform="matrix(1 0 0 1 73.5293 352.7417)" class="st3 st4 st6">t</text>
						<text transform="matrix(1 0 0 1 77.7422 352.7417)" class="st3 st4 st6">typ</text>
						<text transform="matrix(1 0 0 1 87.96 352.7417)" class="st3 st4 st6">e</text>
						<text transform="matrix(1 0 0 1 93.312 352.7417)" class="st3 st4 st6">o</text>
						<text transform="matrix(1 0 0 1 97.2432 352.7417)" class="st3 st4 st6">f</text>
						<text transform="matrix(1 0 0 1 101.7754 352.7417)" class="st3 st4 st6">cor</text>
						<text transform="matrix(1 0 0 1 112.0322 352.7417)" class="st3 st4 st6">r</text>
						<text transform="matrix(1 0 0 1 114.8682 352.7417)" class="st3 st4 st6">elatio</text>
						<text transform="matrix(1 0 0 1 132.7881 352.7417)" class="st3 st4 st6">n</text>
						<text transform="matrix(1 0 0 1 138.9912 352.7417)" class="st3 st4 st6">i</text>
						<text transform="matrix(1 0 0 1 141.1748 352.7417)" class="st3 st4 st6">s</text>
						<text transform="matrix(1 0 0 1 145.9956 352.7417)" class="st3 st4 st6">show</text>
						<text transform="matrix(1 0 0 1 163.1025 352.7417)" class="st3 st4 st6">n</text>
						<text transform="matrix(1 0 0 1 169.3125 352.7417)" class="st3 st4 st6">fo</text>
						<text transform="matrix(1 0 0 1 175.5928 352.7417)" class="st3 st4 st6">r</text>
						<text transform="matrix(1 0 0 1 180.3047 352.7417)" class="st3 st4 st6">th</text>
						<text transform="matrix(1 0 0 1 187.1299 352.7417)" class="st3 st4 st6">e</text>
						<text transform="matrix(1 0 0 1 192.4819 352.7417)" class="st3 st4 st6">r</text>
						<text transform="matrix(1 0 0 1 195.3179 352.7417)" class="st3 st4 st6">es</text>
						<text transform="matrix(1 0 0 1 201.8931 352.7417)" class="st3 st4 st6">t</text>
						<text transform="matrix(1 0 0 1 206.1055 352.7417)" class="st3 st4 st6">o</text>
						<text transform="matrix(1 0 0 1 210.0366 352.7417)" class="st3 st4 st6">f</text>
						<text transform="matrix(1 0 0 1 214.5693 352.7417)" class="st3 st4 st6">th</text>
						<text transform="matrix(1 0 0 1 221.394 352.7417)" class="st3 st4 st6">e</text>
						<text transform="matrix(1 0 0 1 226.7402 352.7417)" class="st3 st4 st6">points?</text>
						<g>
							<g>
								<g>
									<defs>
										<rect id="SVGID_00000075136389878150335290000009312860587314879624_" width="381.1" height="539"/>
									</defs>
									<clipPath id="SVGID_00000178916756592195487900000015547021784226565770_">
										<use xlink:href="#SVGID_00000075136389878150335290000009312860587314879624_"  style="overflow:visible;"/>
									</clipPath>
									<g style="clip-path:url(#SVGID_00000178916756592195487900000015547021784226565770_);">
										<line class="st36" x1="274.4" y1="385" x2="275" y2="385"/>
										<line class="st36" x1="275.7" y1="385" x2="276.3" y2="385"/>
										<line class="st36" x1="277" y1="385" x2="277.6" y2="385"/>
										<line class="st36" x1="278.2" y1="385" x2="278.9" y2="385"/>
										<line class="st36" x1="279.5" y1="385" x2="280.2" y2="385"/>
										<line class="st36" x1="280.8" y1="385" x2="281.4" y2="385"/>
										<line class="st36" x1="282" y1="385" x2="282.7" y2="385"/>
										<line class="st36" x1="283.3" y1="385" x2="283.9" y2="385"/>
										<line class="st36" x1="284.6" y1="385" x2="285.2" y2="385"/>
										<line class="st36" x1="285.9" y1="385" x2="286.5" y2="385"/>
										<line class="st36" x1="287.1" y1="385" x2="287.8" y2="385"/>
										<line class="st36" x1="288.4" y1="385" x2="289.1" y2="385"/>
										<line class="st36" x1="289.7" y1="385" x2="290.3" y2="385"/>
										<line class="st36" x1="291" y1="385" x2="291.6" y2="385"/>
										<line class="st36" x1="292.3" y1="385" x2="292.9" y2="385"/>
										<line class="st36" x1="293.5" y1="385" x2="294.2" y2="385"/>
										<line class="st36" x1="294.8" y1="385" x2="295.5" y2="385"/>
										<line class="st36" x1="296.1" y1="385" x2="296.7" y2="385"/>
										<line class="st36" x1="297.4" y1="385" x2="298" y2="385"/>
										<line class="st36" x1="298.7" y1="385" x2="299.3" y2="385"/>
										<line class="st36" x1="299.9" y1="385" x2="300.5" y2="385"/>
										<line class="st36" x1="301.2" y1="385" x2="301.8" y2="385"/>
										<line class="st36" x1="302.4" y1="385" x2="303.1" y2="385"/>
										<line class="st36" x1="303.7" y1="385" x2="304.4" y2="385"/>
										<line class="st36" x1="305" y1="385" x2="305.6" y2="385"/>
										<line class="st36" x1="306.3" y1="385" x2="306.9" y2="385"/>
										<line class="st36" x1="307.6" y1="385" x2="308.2" y2="385"/>
										<line class="st36" x1="308.8" y1="385" x2="309.5" y2="385"/>
										<line class="st36" x1="310.1" y1="385" x2="310.8" y2="385"/>
										<line class="st36" x1="311.4" y1="385" x2="312" y2="385"/>
										<line class="st36" x1="312.7" y1="385" x2="313.3" y2="385"/>
										<line class="st36" x1="314" y1="385" x2="314.6" y2="385"/>
										<line class="st36" x1="315.2" y1="385" x2="315.9" y2="385"/>
										<line class="st36" x1="316.5" y1="385" x2="317.1" y2="385"/>
										<line class="st36" x1="317.7" y1="385" x2="318.4" y2="385"/>
										<line class="st36" x1="319" y1="385" x2="319.7" y2="385"/>
										<line class="st36" x1="320.3" y1="385" x2="320.9" y2="385"/>
										<line class="st36" x1="321.6" y1="385" x2="322.2" y2="385"/>
										<line class="st36" x1="322.9" y1="385" x2="323.5" y2="385"/>
										<line class="st36" x1="324.1" y1="385" x2="324.8" y2="385"/>
										<line class="st36" x1="325.4" y1="385" x2="326.1" y2="385"/>
										<line class="st36" x1="326.7" y1="385" x2="327.3" y2="385"/>
										<line class="st36" x1="328" y1="385" x2="328.6" y2="385"/>
										<line class="st36" x1="329.3" y1="385" x2="329.9" y2="385"/>
										<line class="st36" x1="330.5" y1="385" x2="331.2" y2="385"/>
										<line class="st36" x1="331.8" y1="385" x2="332.4" y2="385"/>
										<line class="st36" x1="333" y1="385" x2="333.7" y2="385"/>
										<line class="st36" x1="334.3" y1="385" x2="335" y2="385"/>
										<line class="st36" x1="335.6" y1="385" x2="336.2" y2="385"/>
										<line class="st36" x1="336.9" y1="385" x2="337.5" y2="385"/>
										<line class="st36" x1="338.2" y1="385" x2="338.8" y2="385"/>
										<line class="st36" x1="339.4" y1="385" x2="340.1" y2="385"/>
										<line class="st36" x1="340.7" y1="385" x2="341.4" y2="385"/>
										<line class="st36" x1="342" y1="385" x2="342.6" y2="385"/>
										<line class="st36" x1="343.3" y1="385" x2="343.9" y2="385"/>
										<line class="st36" x1="344.6" y1="385" x2="345.2" y2="385"/>
									</g>
								</g>
							</g>
						</g>
						<text transform="matrix(1 0 0 1 305.2627 394.1958)" class="st34 st4 st6">(1)</text>
						<text transform="matrix(1 0 0 1 47.3315 406.9551)" class="st3 st4 st6">(c</text>
						<text transform="matrix(1 0 0 1 53.3687 406.9551)" class="st3 st4 st6">)</text>
						<text transform="matrix(1 0 0 1 57.6904 406.9551)" class="st3 st4 st6">Estima</text>
						<text transform="matrix(1 0 0 1 80.29 406.9551)" class="st3 st4 st6">t</text>
						<text transform="matrix(1 0 0 1 82.6777 406.9551)" class="st3 st4 st6">e</text>
						<text transform="matrix(1 0 0 1 87.9214 406.9551)" class="st3 st4 st6">th</text>
						<text transform="matrix(1 0 0 1 94.7461 406.9551)" class="st3 st4 st6">e</text>
						<text transform="matrix(1 0 0 1 99.9961 406.9551)" class="st3 st4 st6">numbe</text>
						<text transform="matrix(1 0 0 1 122.8389 406.9551)" class="st3 st4 st6">r</text>
						<text transform="matrix(1 0 0 1 127.4419 406.9551)" class="st3 st4 st6">ofic</text>
						<text transform="matrix(1 0 0 1 139.3242 406.9551)" class="st3 st4 st6">e</text>
						<text transform="matrix(1 0 0 1 144.5679 406.9551)" class="st3 st4 st6">c</text>
						<text transform="matrix(1 0 0 1 147.9805 406.9551)" class="st3 st4 st6">r</text>
						<text transform="matrix(1 0 0 1 150.8291 406.9551)" class="st3 st4 st6">eam</text>
						<text transform="matrix(1 0 0 1 164.5747 406.9551)" class="st3 st4 st6">s</text>
						<text transform="matrix(1 0 0 1 169.2866 406.9551)" class="st3 st4 st6">tha</text>
						<text transform="matrix(1 0 0 1 179.7861 406.9551)" class="st3 st4 st6">t</text>
						<text transform="matrix(1 0 0 1 183.8965 406.9551)" class="st3 st4 st6">w</text>
						<text transform="matrix(1 0 0 1 189.6074 406.9551)" class="st3 st4 st6">oul</text>
						<text transform="matrix(1 0 0 1 200.0684 406.9551)" class="st3 st4 st6">d</text>
						<text transform="matrix(1 0 0 1 205.8877 406.9551)" class="st3 st4 st6">b</text>
						<text transform="matrix(1 0 0 1 209.8828 406.9551)" class="st3 st4 st6">e</text>
						<text transform="matrix(1 0 0 1 215.1328 406.9551)" class="st3 st4 st6">sol</text>
						<text transform="matrix(1 0 0 1 224.2559 406.9551)" class="st3 st4 st6">d</text>
						<text transform="matrix(1 0 0 1 230.082 406.9551)" class="st3 st4 st6">o</text>
						<text transform="matrix(1 0 0 1 234.0127 406.9551)" class="st3 st4 st6">na</text>
						<text transform="matrix(1 0 0 1 245.479 406.9551)" class="st3 st4 st6">d</text>
						<text transform="matrix(1 0 0 1 249.6084 406.9551)" class="st3 st4 st6">a</text>
						<text transform="matrix(1 0 0 1 253.1426 406.9551)" class="st3 st4 st6">y</text>
						<text transform="matrix(1 0 0 1 258.5332 406.9551)" class="st3 st4 st6">wit</text>
						<text transform="matrix(1 0 0 1 268.8535 406.9551)" class="st3 st4 st6">ha</text>
						<text transform="matrix(1 0 0 1 280.3262 406.9551)" class="st3 st4 st6">maximu</text>
						<text transform="matrix(1 0 0 1 307.2539 406.9551)" class="st3 st4 st6">m</text>
						<text transform="matrix(1 0 0 1 315.4678 406.9551)" class="st3 st4 st6">t</text>
						<text transform="matrix(1 0 0 1 317.8555 406.9551)" class="st3 st4 st6">empe</text>
						<text transform="matrix(1 0 0 1 335.5898 406.9551)" class="st3 st4 st6">r</text>
						<text transform="matrix(1 0 0 1 338.3877 406.9551)" class="st3 st4 st6">a-</text>
						<text transform="matrix(1 0 0 1 47.3315 417.1543)" class="st3 st4 st6">tu</text>
						<text transform="matrix(1 0 0 1 54.105 417.1543)" class="st3 st4 st6">r</text>
						<text transform="matrix(1 0 0 1 56.9473 417.1543)" class="st3 st4 st6">e</text>
						<text transform="matrix(1 0 0 1 62.2935 417.1543)" class="st3 st4 st6">o</text>
						<text transform="matrix(1 0 0 1 66.2305 417.1543)" class="st3 st4 st6">f</text>
						<text transform="matrix(1 0 0 1 70.7568 417.1543)" class="st3 st4 st6">1</text>
						<text transform="matrix(1 0 0 1 74.5469 417.1543)" class="st3 st4 st6">5</text>
						<text transform="matrix(1 0 0 1 80.1362 417.1543)" class="st3 st4 st6">deg</text>
						<text transform="matrix(1 0 0 1 91.5195 417.1543)" class="st3 st4 st6">r</text>
						<text transform="matrix(1 0 0 1 94.3555 417.1543)" class="st3 st4 st6">ee</text>
						<text transform="matrix(1 0 0 1 101.4619 417.1543)" class="st3 st4 st6">s</text>
						<text transform="matrix(1 0 0 1 106.2827 417.1543)" class="st3 st4 st6">celsius.</text>
						<g>
							<g>
								<g>
									<defs>
										<rect id="SVGID_00000039124374662939070970000007113459771071669145_" width="381.1" height="539"/>
									</defs>
									<clipPath id="SVGID_00000093170166945148346730000005173903205547175862_">
										<use xlink:href="#SVGID_00000039124374662939070970000007113459771071669145_"  style="overflow:visible;"/>
									</clipPath>
									<g style="clip-path:url(#SVGID_00000093170166945148346730000005173903205547175862_);">
										<line class="st36" x1="274.4" y1="449.4" x2="275" y2="449.4"/>
										<line class="st36" x1="275.7" y1="449.4" x2="276.3" y2="449.4"/>
										<line class="st36" x1="277" y1="449.4" x2="277.6" y2="449.4"/>
										<line class="st36" x1="278.2" y1="449.4" x2="278.9" y2="449.4"/>
										<line class="st36" x1="279.5" y1="449.4" x2="280.2" y2="449.4"/>
										<line class="st36" x1="280.8" y1="449.4" x2="281.4" y2="449.4"/>
										<line class="st36" x1="282" y1="449.4" x2="282.7" y2="449.4"/>
										<line class="st36" x1="283.3" y1="449.4" x2="283.9" y2="449.4"/>
										<line class="st36" x1="284.6" y1="449.4" x2="285.2" y2="449.4"/>
										<line class="st36" x1="285.9" y1="449.4" x2="286.5" y2="449.4"/>
										<line class="st36" x1="287.1" y1="449.4" x2="287.8" y2="449.4"/>
										<line class="st36" x1="288.4" y1="449.4" x2="289.1" y2="449.4"/>
										<line class="st36" x1="289.7" y1="449.4" x2="290.3" y2="449.4"/>
										<line class="st36" x1="291" y1="449.4" x2="291.6" y2="449.4"/>
										<line class="st36" x1="292.3" y1="449.4" x2="292.9" y2="449.4"/>
										<line class="st36" x1="293.5" y1="449.4" x2="294.2" y2="449.4"/>
										<line class="st36" x1="294.8" y1="449.4" x2="295.5" y2="449.4"/>
										<line class="st36" x1="296.1" y1="449.4" x2="296.7" y2="449.4"/>
										<line class="st36" x1="297.4" y1="449.4" x2="298" y2="449.4"/>
										<line class="st36" x1="298.7" y1="449.4" x2="299.3" y2="449.4"/>
										<line class="st36" x1="299.9" y1="449.4" x2="300.5" y2="449.4"/>
										<line class="st36" x1="301.2" y1="449.4" x2="301.8" y2="449.4"/>
										<line class="st36" x1="302.4" y1="449.4" x2="303.1" y2="449.4"/>
										<line class="st36" x1="303.7" y1="449.4" x2="304.4" y2="449.4"/>
										<line class="st36" x1="305" y1="449.4" x2="305.6" y2="449.4"/>
										<line class="st36" x1="306.3" y1="449.4" x2="306.9" y2="449.4"/>
										<line class="st36" x1="307.6" y1="449.4" x2="308.2" y2="449.4"/>
										<line class="st36" x1="308.8" y1="449.4" x2="309.5" y2="449.4"/>
										<line class="st36" x1="310.1" y1="449.4" x2="310.8" y2="449.4"/>
										<line class="st36" x1="311.4" y1="449.4" x2="312" y2="449.4"/>
										<line class="st36" x1="312.7" y1="449.4" x2="313.3" y2="449.4"/>
										<line class="st36" x1="314" y1="449.4" x2="314.6" y2="449.4"/>
										<line class="st36" x1="315.2" y1="449.4" x2="315.9" y2="449.4"/>
										<line class="st36" x1="316.5" y1="449.4" x2="317.1" y2="449.4"/>
										<line class="st36" x1="317.7" y1="449.4" x2="318.4" y2="449.4"/>
										<line class="st36" x1="319" y1="449.4" x2="319.7" y2="449.4"/>
										<line class="st36" x1="320.3" y1="449.4" x2="320.9" y2="449.4"/>
										<line class="st36" x1="321.6" y1="449.4" x2="322.2" y2="449.4"/>
										<line class="st36" x1="322.9" y1="449.4" x2="323.5" y2="449.4"/>
										<line class="st36" x1="324.1" y1="449.4" x2="324.8" y2="449.4"/>
										<line class="st36" x1="325.4" y1="449.4" x2="326.1" y2="449.4"/>
										<line class="st36" x1="326.7" y1="449.4" x2="327.3" y2="449.4"/>
										<line class="st36" x1="328" y1="449.4" x2="328.6" y2="449.4"/>
										<line class="st36" x1="329.3" y1="449.4" x2="329.9" y2="449.4"/>
										<line class="st36" x1="330.5" y1="449.4" x2="331.2" y2="449.4"/>
										<line class="st36" x1="331.8" y1="449.4" x2="332.4" y2="449.4"/>
										<line class="st36" x1="333" y1="449.4" x2="333.7" y2="449.4"/>
										<line class="st36" x1="334.3" y1="449.4" x2="335" y2="449.4"/>
										<line class="st36" x1="335.6" y1="449.4" x2="336.2" y2="449.4"/>
										<line class="st36" x1="336.9" y1="449.4" x2="337.5" y2="449.4"/>
										<line class="st36" x1="338.2" y1="449.4" x2="338.8" y2="449.4"/>
										<line class="st36" x1="339.4" y1="449.4" x2="340.1" y2="449.4"/>
										<line class="st36" x1="340.7" y1="449.4" x2="341.4" y2="449.4"/>
										<line class="st36" x1="342" y1="449.4" x2="342.6" y2="449.4"/>
										<line class="st36" x1="343.3" y1="449.4" x2="343.9" y2="449.4"/>
										<line class="st36" x1="344.6" y1="449.4" x2="345.2" y2="449.4"/>
									</g>
								</g>
							</g>
						</g>
						<text transform="matrix(1 0 0 1 305.2627 458.6143)" class="st34 st4 st6">(2)</text>
						<text transform="matrix(1 0 0 1 34.5723 523.5518)" class="st3 st4 st40">2</text>
						<rect x="134.3" y="512" class="st41" width="108.3" height="24.8"/>
						<polygon class="st3" points="350.3,518.4 350.3,518.4 346,520.9 346,520.9 346,520.9 341.7,518.4 346,516 						"/>
						<polygon class="st3" points="350.3,528.9 346.2,531.3 346.2,526.5 						"/>
						<polygon class="st3" points="341.6,528.8 341.6,518.6 355,526.4 355,531.3 345.9,526.1 345.9,531.3 						"/>
						<polygon class="st3" points="355,520.8 350.9,518.4 355,516 						"/>
						<polygon class="st3" points="359.5,518.5 359.5,528.8 355.3,531.3 355.3,526.2 346.3,521 350.6,518.6 350.6,518.6 
							355.3,521.3 355.3,516 						"/>
						<text transform="matrix(1 0 0 1 271.8115 526.1514)" class="st3 st4 st42">N</text>
						<text transform="matrix(1 0 0 1 277.6372 526.1514)" class="st3 st4 st42">a</text>
						<text transform="matrix(1 0 0 1 281.1265 526.1514)" class="st3 st4 st42">g</text>
						<text transform="matrix(1 0 0 1 285.0767 526.1514)" class="st3 st4 st42">w</text>
						<text transform="matrix(1 0 0 1 290.5376 526.1514)" class="st3 st4 st42">a </text>
						<text transform="matrix(1 0 0 1 296.1777 526.1514)" class="st3 st4 st42">P</text>
						<text transform="matrix(1 0 0 1 300.6592 526.1514)" class="st3 st4 st42">r</text>
						<text transform="matrix(1 0 0 1 303.6689 526.1514)" class="st3 st4 st42">a</text>
						<text transform="matrix(1 0 0 1 307.1836 526.1514)" class="st3 st4 st42">c</text>
						<text transform="matrix(1 0 0 1 310.5957 526.1514)" class="st3 st4 st42">t</text>
						<text transform="matrix(1 0 0 1 313.0801 526.1514)" class="st3 st4 st42">i</text>
						<text transform="matrix(1 0 0 1 315.2441 526.1514)" class="st3 st4 st42">c</text>
						<text transform="matrix(1 0 0 1 318.6367 526.1514)" class="st3 st4 st42">e </text>
						<text transform="matrix(1 0 0 1 324.1553 526.1514)" class="st3 st4 st42">T</text>
						<text transform="matrix(1 0 0 1 328.3613 526.1514)" class="st3 st4 st42">e</text>
						<text transform="matrix(1 0 0 1 331.7354 526.1514)" class="st3 st4 st42">s</text>
						<text transform="matrix(1 0 0 1 334.6357 526.1514)" class="st3 st4 st42">t</text>
					</g>
				</g>
			</g>
		</g>
	</g>
</g>
</svg>
