<svg width="90" height="90" viewBox="0 0 90 90" xmlns="http://www.w3.org/2000/svg" xmlns:xlink="http://www.w3.org/1999/xlink">
    <defs>
        <path id="q8fqllk3xa" d="M0 0h90v90H0z"/>
    </defs>
    <g fill="none" fill-rule="evenodd">
        <g>
            <mask id="97ua6sglib" fill="#fff">
                <use xlink:href="#q8fqllk3xa"/>
            </mask>
            <path d="M45 90C20.147 90 0 69.853 0 45S20.147 0 45 0s45 20.147 45 45-20.147 45-45 45" fill="#FFF" mask="url(#97ua6sglib)"/>
        </g>
        <path d="M47.19 57.572c1.049-.54 2.098-1.102 3.145-1.688a102.504 102.504 0 0 0 3.681-2.18 79.697 79.697 0 0 1-.813 6.369 82.93 82.93 0 0 1-6.013-2.501m-11.499 2.73a81.511 81.511 0 0 1-.944-7.168 101.903 101.903 0 0 0 4.944 2.94c.915.51 1.831 1 2.746 1.474a80.6 80.6 0 0 1-6.746 2.753M27.054 44.98a78.475 78.475 0 0 1 5.284-3.934 100.75 100.75 0 0 0-.07 4.003c.005 1.345.038 2.682.094 4.006-1.9-1.335-3.679-2.7-5.308-4.075m-4.93-4.687c-3.99-4.373-5.696-8.228-4.526-10.317 1.482-2.682 7.697-2.85 15.9-.452a84.463 84.463 0 0 0-1.029 8.916 84.874 84.874 0 0 0-7.015 5.143 49.784 49.784 0 0 1-3.33-3.29M39.5 36.61a100.01 100.01 0 0 1 5.26-2.742 96.268 96.268 0 0 1 5.671 2.914 90.962 90.962 0 0 1 3.742 2.184c.129 1.965.2 3.98.209 6.025a99.214 99.214 0 0 1-.173 6.102 97.308 97.308 0 0 1-4.948 2.969 97.065 97.065 0 0 1-4.468 2.36 98.352 98.352 0 0 1-10.239-5.877 96.707 96.707 0 0 1-.04-10.94A97.37 97.37 0 0 1 39.5 36.61m13.675-6.28c.331 1.935.597 3.965.794 6.064a99.467 99.467 0 0 0-6.744-3.674 79.78 79.78 0 0 1 5.95-2.39m7.977-2.216c5.81-1.112 9.972-.537 11.142 1.553s-.518 5.965-4.488 10.337c-2.917 3.214-6.845 6.523-11.405 9.637a99.13 99.13 0 0 0 .09-4.67 101.864 101.864 0 0 0-.124-4.61 92.337 92.337 0 0 1 3.443 2.367c.19.133.402.191.613.191.326 0 .633-.153.844-.422a1.048 1.048 0 0 0-.23-1.476 86.724 86.724 0 0 0-4.833-3.26 84.064 84.064 0 0 0-1.006-8.112c2.075-.66 4.072-1.178 5.954-1.535m13.616 27.04a1.053 1.053 0 0 0-1.42-.46c-.517.269-.728.901-.46 1.42.748 1.457 1.477 3.51.652 4.986-1.17 2.071-5.33 2.685-11.142 1.592-2.245-.42-4.658-1.064-7.174-1.907a83.073 83.073 0 0 0 1.029-8.51c2.942-1.94 5.657-3.963 8.06-6.005.817.69 1.596 1.396 2.324 2.077a1.062 1.062 0 0 0 1.476-.02 1.06 1.06 0 0 0-.038-1.495 67.054 67.054 0 0 0-2.171-1.96 52.237 52.237 0 0 0 3.494-3.468c4.756-5.235 6.444-9.761 4.756-12.772-1.688-2.992-6.444-3.912-13.386-2.589a53.02 53.02 0 0 0-5.969 1.523c-.47-2.26-1.032-4.374-1.683-6.298-2.263-6.693-5.408-10.376-8.84-10.376h-.02c-1.803 0-4.468 1.055-6.942 5.965a1.054 1.054 0 1 0 1.88.959c1.572-3.107 3.375-4.814 5.081-4.814 2.378 0 4.948 3.337 6.847 8.956.644 1.91 1.2 4.017 1.66 6.277a83.5 83.5 0 0 0-8.03 3.304 82.726 82.726 0 0 0-6.844-2.792 1.031 1.031 0 0 0-1.342.633c-.211.536.077 1.15.632 1.342a82.233 82.233 0 0 1 5.086 2.022c-1.265.64-2.534 1.315-3.8 2.025-1.29.726-2.559 1.478-3.799 2.25.283-3.512.76-6.86 1.42-9.921a1.036 1.036 0 0 0-.805-1.247 1.035 1.035 0 0 0-1.247.806c-.055.254-.108.511-.16.77-9.48-2.737-16.081-2.204-18.135 1.512-1.668 3.01.038 7.537 4.814 12.733 3.056 3.356 7.171 6.782 11.938 9.997.227 3.252.615 6.392 1.156 9.317-.71.226-1.412.437-2.106.632a1.064 1.064 0 0 0-.728 1.303c.134.46.556.768 1.016.768.096 0 .192 0 .326-.058a63.93 63.93 0 0 0 2.966-.914 1.04 1.04 0 0 0 .159-.052c3.079-1.036 6.292-2.357 9.536-3.919a86.596 86.596 0 0 0 7.984 3.388c-.43 2.12-.946 4.104-1.544 5.908-1.86 5.6-4.391 8.975-6.789 8.975-2.589 0-5.293-3.816-7.23-10.183a1.067 1.067 0 0 0-1.323-.71 1.067 1.067 0 0 0-.71 1.324c2.282 7.517 5.562 11.66 9.244 11.66 3.471 0 6.578-3.702 8.822-10.414a54.29 54.29 0 0 0 1.542-5.86c2.514.832 4.928 1.47 7.184 1.89 2.032.384 3.892.575 5.523.575 3.95 0 6.654-1.093 7.844-3.164 1.015-1.841.824-4.18-.614-6.98" fill="#ED347B"/>
        <path d="M21.376 47.196c-6.271 6.137-8.668 11.41-6.75 14.843.766 1.362 2.588 3.011 6.941 3.184h.039c.575 0 1.036-.46 1.074-1.016a1.065 1.065 0 0 0-1.016-1.094c-1.88-.076-4.296-.498-5.198-2.11-1.361-2.415 1.093-7.114 6.386-12.292a1.059 1.059 0 0 0-1.476-1.515M36.239 24.969a3.037 3.037 0 0 0 3.03-3.03 3.037 3.037 0 0 0-3.03-3.03 3.037 3.037 0 0 0-3.03 3.03 3.037 3.037 0 0 0 3.03 3.03M27.014 60.41a3.037 3.037 0 0 0-3.03 3.03 3.037 3.037 0 0 0 3.03 3.03 3.037 3.037 0 0 0 3.03-3.03 3.037 3.037 0 0 0-3.03-3.03M67.863 51.818a3.036 3.036 0 0 0 3.03 3.03 3.037 3.037 0 0 0 3.03-3.03 3.037 3.037 0 0 0-3.03-3.03 3.037 3.037 0 0 0-3.03 3.03" fill="#ED347B"/>
    </g>
</svg>
