<svg width="57" height="57" viewBox="0 0 57 57" xmlns="http://www.w3.org/2000/svg" xmlns:xlink="http://www.w3.org/1999/xlink">
    <defs>
        <path id="bmt160nzma" d="M0 0h57v57H0z"/>
    </defs>
    <g fill="none" fill-rule="evenodd">
        <g>
            <mask id="gcb6znavkb" fill="#fff">
                <use xlink:href="#bmt160nzma"/>
            </mask>
            <path d="M28.5 57C12.76 57 0 44.24 0 28.5S12.76 0 28.5 0 57 12.76 57 28.5 44.24 57 28.5 57" fill="#ED347B" mask="url(#gcb6znavkb)"/>
        </g>
        <path d="M29.887 36.462a64.395 64.395 0 0 0 1.992-1.07 64.92 64.92 0 0 0 2.331-1.38c-.123 1.4-.296 2.75-.515 4.034a52.523 52.523 0 0 1-3.808-1.584m-7.283 1.729a51.624 51.624 0 0 1-.598-4.54 64.539 64.539 0 0 0 4.871 2.796 51.047 51.047 0 0 1-4.273 1.744m-5.47-9.705a49.7 49.7 0 0 1 3.347-2.49 63.809 63.809 0 0 0 .015 5.072 48.093 48.093 0 0 1-3.362-2.582m-3.122-2.968c-2.527-2.77-3.608-5.21-2.867-6.534.939-1.699 4.875-1.805 10.07-.286a53.493 53.493 0 0 0-.651 5.647 53.754 53.754 0 0 0-4.443 3.257 31.53 31.53 0 0 1-2.109-2.084m11.004-2.332a63.34 63.34 0 0 1 3.332-1.736 60.97 60.97 0 0 1 3.591 1.845 57.61 57.61 0 0 1 2.37 1.384c.082 1.244.126 2.52.132 3.815a62.836 62.836 0 0 1-.11 3.865 61.629 61.629 0 0 1-3.133 1.88 61.475 61.475 0 0 1-2.83 1.495 62.29 62.29 0 0 1-6.484-3.722 61.248 61.248 0 0 1-.026-6.929 61.667 61.667 0 0 1 3.158-1.897m8.66-3.977c.21 1.225.379 2.511.504 3.84a62.996 62.996 0 0 0-4.27-2.327 50.528 50.528 0 0 1 3.767-1.513m5.052-1.403c3.68-.705 6.316-.34 7.057.983.74 1.324-.329 3.778-2.843 6.547-1.848 2.036-4.335 4.13-7.223 6.104a62.783 62.783 0 0 0-.021-5.879c.748.49 1.476.992 2.18 1.5a.679.679 0 0 0 .923-.146.663.663 0 0 0-.146-.935c-.975-.709-2-1.397-3.06-2.065a53.24 53.24 0 0 0-.638-5.137 32.526 32.526 0 0 1 3.77-.972m8.624 17.125a.667.667 0 1 0-1.19.607c.474.924.935 2.223.413 3.159-.74 1.311-3.377 1.7-7.057 1.008-1.422-.266-2.95-.674-4.543-1.208.298-1.697.518-3.507.651-5.39a52.57 52.57 0 0 0 5.105-3.803c.517.438 1.01.884 1.472 1.315a.673.673 0 0 0 .935-.012.671.671 0 0 0-.025-.947c-.436-.41-.894-.827-1.375-1.24a33.083 33.083 0 0 0 2.213-2.197c3.013-3.316 4.081-6.183 3.013-8.09-1.07-1.894-4.081-2.477-8.478-1.64a33.58 33.58 0 0 0-3.78.966 34.253 34.253 0 0 0-1.066-3.99c-1.434-4.238-3.426-6.57-5.6-6.57h-.012c-1.142 0-2.83.668-4.397 3.777a.668.668 0 1 0 1.19.607c.997-1.967 2.138-3.048 3.22-3.048 1.505 0 3.133 2.113 4.335 5.672.409 1.21.76 2.544 1.052 3.975a52.884 52.884 0 0 0-5.086 2.093 52.393 52.393 0 0 0-4.334-1.769.653.653 0 0 0-.85.401.653.653 0 0 0 .4.85c1.064.382 2.14.81 3.221 1.28-.801.406-1.605.834-2.407 1.283-.816.46-1.62.937-2.405 1.425.179-2.224.48-4.344.9-6.283a.656.656 0 0 0-.511-.79.656.656 0 0 0-.79.51c-.035.161-.068.325-.101.488-6.004-1.733-10.185-1.395-11.486.958-1.056 1.907.025 4.773 3.05 8.064 1.935 2.126 4.541 4.295 7.56 6.332.144 2.06.39 4.048.732 5.9-.45.144-.894.277-1.333.4a.674.674 0 0 0-.462.826.674.674 0 0 0 .644.486c.06 0 .122 0 .206-.036a40.488 40.488 0 0 0 1.98-.612 52.94 52.94 0 0 0 6.039-2.482 54.844 54.844 0 0 0 5.057 2.146 32.61 32.61 0 0 1-.978 3.741c-1.179 3.547-2.782 5.685-4.3 5.685-1.64 0-3.352-2.417-4.58-6.45a.676.676 0 0 0-.837-.45.676.676 0 0 0-.45.839c1.446 4.761 3.523 7.385 5.855 7.385 2.198 0 4.166-2.345 5.587-6.596.374-1.14.701-2.385.977-3.711 1.592.527 3.12.93 4.55 1.197 1.287.243 2.465.364 3.497.364 2.502 0 4.215-.692 4.968-2.004.643-1.166.522-2.648-.389-4.42" fill="#FFF"/>
        <path d="M13.538 29.89c-3.972 3.887-5.49 7.228-4.275 9.401.485.863 1.64 1.907 4.396 2.017h.025a.689.689 0 0 0 .68-.644.675.675 0 0 0-.644-.692c-1.19-.049-2.72-.316-3.291-1.336-.863-1.53.692-4.506 4.044-7.786a.67.67 0 0 0-.935-.96M22.951 15.814c1.057 0 1.92-.863 1.92-1.92 0-1.056-.863-1.919-1.92-1.919-1.056 0-1.919.863-1.919 1.92 0 1.056.863 1.919 1.92 1.919M17.109 38.26c-1.057 0-1.92.862-1.92 1.918 0 1.057.863 1.92 1.92 1.92s1.92-.863 1.92-1.92a1.923 1.923 0 0 0-1.92-1.919M42.98 32.818c0 1.057.862 1.919 1.919 1.919 1.056 0 1.919-.862 1.919-1.92 0-1.056-.863-1.918-1.92-1.918-1.056 0-1.918.862-1.918 1.919" fill="#FFF"/>
    </g>
</svg>
