<?xml version="1.0" encoding="UTF-8"?>
<svg width="98px" height="92px" viewBox="0 0 98 92" version="1.1" xmlns="http://www.w3.org/2000/svg" xmlns:xlink="http://www.w3.org/1999/xlink">
    <!-- Generator: Sketch 59.1 (86144) - https://sketch.com -->
    <title>Group 22 Copy</title>
    <desc>Created with Sketch.</desc>
    <g id="01.-Home" stroke="none" stroke-width="1" fill="none" fill-rule="evenodd">
        <g id="Artboard" transform="translate(-647.000000, -101.000000)">
            <g id="Group-22-Copy" transform="translate(647.000000, 101.000000)">
                <path d="M30.61619,18.979226 C2.54636837,1.48780165 -3.04961892,34.3358505 1.33278315,51.8857489 C6.7948104,73.7591466 -7.17172317,83.8014503 5.98551826,90.6565758 C19.6403593,97.7709583 35.6593414,72.6090366 68.1466366,76.6407256 C110.3239,81.8749444 105.231335,32.8601597 60.9736688,32.3178239 C49.8332428,32.1813085 42.6014601,26.4477253 30.61619,18.979226 Z" id="Combined-Shape-Copy-2" fill-opacity="0.1" fill="#E31D74"></path>
                <g id="Group-43" transform="translate(22.000000, 0.000000)">
                    <g id="Group-20" transform="translate(30.000000, 32.000000) rotate(-90.000000) translate(-30.000000, -32.000000) translate(-2.000000, 2.000000)">
                        <path d="M2.985,59.708 C1.339,59.708 4.54747351e-13,58.368 4.54747351e-13,56.722 L4.54747351e-13,2.986 C4.54747351e-13,1.339 1.339,0 2.985,0 L40.047,0 C41.694,0 43.032299,1.339 43.032299,2.986 L43.032299,22.8848287 L41.532,22.8848287 L41.532,2.986 C41.532,2.166 40.866,1.5 40.047,1.5 L2.985,1.5 C2.166,1.5 1.5,2.166 1.5,2.986 L1.5,56.722 C1.5,57.541 2.166,58.208 2.985,58.208 L40.048,58.208 C40.443,58.208 40.815,58.053 41.096,57.771 C41.378,57.489 41.532,57.116 41.532,56.723 L41.532,34 L43.032299,34 L43.032299,56.722 C43.033,57.517 42.722,58.266 42.157,58.831 C41.592,59.396 40.843,59.708 40.048,59.708 L2.985,59.708 Z" id="Fill-3" fill="#E31D74"></path>
                        <path d="M15.9406364,23.5 C15.5428622,23.5 15.5,23.9078897 15.5,24.0831099 L15.5,32.9159326 C15.5,33.091472 15.5431869,33.5 15.9412859,33.5 C16.0490908,33.5 16.1676113,33.4699987 16.2945743,33.4109537 L26.1658696,28.7993744 C26.3967411,28.6918167 26.5,28.5714924 26.5,28.5 C26.5,28.4281884 26.3967411,28.307545 26.1658696,28.1999872 L16.2945743,23.5896847 C16.1676113,23.5300013 16.0484414,23.5 15.9406364,23.5 Z" id="Shape-Copy" fill="#E31D74" fill-rule="nonzero" transform="translate(21.000000, 28.500000) rotate(-270.000000) translate(-21.000000, -28.500000) "></path>
                        <g id="noun_Apple-Pencil_1201374" transform="translate(40.000000, 29.500000) rotate(-123.000000) translate(-40.000000, -29.500000) translate(37.000000, 3.000000)" fill-rule="nonzero">
                            <path d="M2.67839996,52.7615988 L2.19839997,52.7615988 C1.62350554,52.7607178 1.15768106,52.2948933 1.1568,51.7199988 L1.1568,49.2911989 L3.71679994,49.2911989 L3.71679994,51.7199988 C3.71592618,52.2936486 3.25204433,52.75896 2.67839996,52.7615988 L2.67839996,52.7615988 Z M1.31999999,49.4511989 L1.31999999,51.7199988 C1.32088059,52.2065278 1.71507097,52.6007182 2.20159997,52.6015988 L2.68159996,52.6015988 C3.16812896,52.6007182 3.56231935,52.2065278 3.56319994,51.7199988 L3.56319994,49.4511989 L1.31999999,49.4511989 Z" id="Shape" stroke="#E31D74" fill="#E31D74"></path>
                            <path d="M3.96999994,48.1283989 L0.909999996,48.1283989 L0.909999996,47.8783989 L0.9153245,6.13107831 L1.59699799,2.88119993 L3.28321947,2.88119993 L3.32472912,3.0801349 L3.96999994,6.19839986 L3.96999994,48.1283989 Z M1.56999999,47.4683989 L3.3100317,47.4683989 L3.31526602,6.25744206 L2.74876107,3.54119993 L2.13086519,3.54119993 L1.56999999,6.20639986 L1.56999999,47.4683989 Z" id="Shape" stroke="#E31D74" stroke-width="0.5" fill="#E31D74"></path>
                            <path d="M3.11679995,3.29119993 L1.76479998,3.29119993 L2.43999997,0.046399999 L3.11679995,3.29119993 Z M1.96159998,3.13119993 L2.92159996,3.13119993 L2.44159997,0.830399981 L1.96159998,3.13119993 Z" id="Shape" stroke="#E31D74" fill="#E31D74"></path>
                            <g id="Group" transform="translate(0.160000, 47.679999)" fill="#B93D74">
                                <rect id="Rectangle" x="0.479999945" y="0.118399997" width="3.6" height="1.57279996"></rect>
                            </g>
                        </g>
                    </g>
                    <path d="M38.457,61.117 L21.559,61.117 C21.25,61.117 21,60.867 21,60.558 C21,60.25 21.25,60 21.559,60 L38.457,60 C38.766,60 39.016,60.25 39.016,60.558 C39.016,60.867 38.766,61.117 38.457,61.117" id="Fill-5" fill="#E31D74"></path>
                </g>
            </g>
        </g>
    </g>
</svg>