<?xml version="1.0" encoding="UTF-8"?>
<svg width="98px" height="85px" viewBox="0 0 98 85" version="1.1" xmlns="http://www.w3.org/2000/svg" xmlns:xlink="http://www.w3.org/1999/xlink">
    <!-- Generator: Sketch 59.1 (86144) - https://sketch.com -->
    <title>Group 14</title>
    <desc>Created with Sketch.</desc>
    <g id="01.-Home" stroke="none" stroke-width="1" fill="none" fill-rule="evenodd">
        <g id="Artboard" transform="translate(-119.000000, -124.000000)">
            <g id="Group-14" transform="translate(119.000000, 124.000000)">
                <g id="Group-21" transform="translate(0.000000, 7.000000)" fill="#026BB0" opacity="0.1">
                    <path d="M30.61619,4.97922598 C2.54636837,-12.5121984 -3.04961892,20.3358505 1.33278315,37.8857489 C6.7948104,59.7591466 -7.17172317,69.8014503 5.98551826,76.6565758 C19.6403593,83.7709583 35.6593414,58.6090366 68.1466366,62.6407256 C110.3239,67.8749444 105.231335,18.8601597 60.9736688,18.3178239 C49.8332428,18.1813085 42.6014601,12.4477253 30.61619,4.97922598 Z" id="Combined-Shape-Copy-3"></path>
                </g>
                <g id="Group-40" transform="translate(22.000000, 0.000000)">
                    <path d="M5.71519966,1.91943989 C4.38847974,1.91943989 3.3089598,2.99895982 3.3089598,4.32591974 L3.3089598,28.4219183 C3.3089598,29.7488782 4.38847974,30.8283982 5.71519966,30.8283982 L49.4892771,30.8283982 C50.815997,30.8283982 51.8952769,29.7488782 51.8952769,28.4219183 L51.8952769,4.32591974 C51.8952769,2.99895982 50.815997,1.91943989 49.4892771,1.91943989 L5.71519966,1.91943989 Z M49.4892771,32.5395981 L5.71519966,32.5395981 C3.44503979,32.5395981 1.5977599,30.6923182 1.5977599,28.4219183 L1.5977599,4.32591974 C1.5977599,2.05551988 3.44503979,0.208239988 5.71519966,0.208239988 L49.4892771,0.208239988 C51.7596769,0.208239988 53.6064768,2.05551988 53.6064768,4.32591974 L53.6064768,28.4219183 C53.6064768,30.6923182 51.7596769,32.5395981 49.4892771,32.5395981 L49.4892771,32.5395981 Z" id="Fill-515" fill="#026BB0"></path>
                    <polygon id="Stroke-15" stroke="#026BB0" stroke-width="0.5" fill="#026BB0" transform="translate(29.600000, 8.555555) scale(-1, 1) translate(-29.600000, -8.555555) " points="28.2112 9.04222168 30.9887998 9.04222168 30.9887998 8.06888841 28.2112 8.06888841"></polygon>
                    <polygon id="Stroke-17" stroke="#026BB0" stroke-width="0.5" fill="#026BB0" transform="translate(16.799999, 8.555555) scale(-1, 1) translate(-16.799999, -8.555555) " points="7.99999952 9.04222168 25.5999985 9.04222168 25.5999985 8.06888841 7.99999952 8.06888841"></polygon>
                    <polygon id="Stroke-19" stroke="#026BB0" stroke-width="0.5" fill="#026BB0" transform="translate(21.999999, 12.104444) scale(-1, 1) translate(-21.999999, -12.104444) " points="7.99999952 12.5911104 35.9999979 12.5911104 35.9999979 11.6177771 7.99999952 11.6177771"></polygon>
                    <path d="M34.6853579,33.198398 C34.6853579,28.6287983 31.5142381,24.9243985 27.6022384,24.9243985 C23.6902386,24.9243985 20.5188788,28.6287983 20.5188788,33.198398 C20.5188788,37.7679977 23.6902386,41.4723975 27.6022384,41.4723975 C31.5142381,41.4723975 34.6853579,37.7679977 34.6853579,33.198398" id="Fill-520" fill="#E5F0F7"></path>
                    <path d="M47.4063172,40.7451976 L42.9027174,40.7451976 C39.4839176,40.7451976 36.7126378,43.5167174 36.7126378,46.9352772 L36.7126378,51.095677 C36.7126378,52.4636769 37.8216777,53.5727168 39.1894377,53.5727168 L51.119597,53.5727168 C52.4873569,53.5727168 53.5963968,52.4636769 53.5963968,51.095677 L53.5963968,46.9352772 C53.5963968,43.5167174 50.825117,40.7451976 47.4063172,40.7451976" id="Fill-521" fill="#026BB0" opacity="0.1"></path>
                    <path d="M12.3017593,40.7451976 L7.79791954,40.7451976 C4.37935974,40.7451976 1.6078399,43.5167174 1.6078399,46.9352772 L1.6078399,51.095677 C1.6078399,52.4636769 2.71687984,53.5727168 4.08487976,53.5727168 L16.015039,53.5727168 C17.382799,53.5727168 18.4918389,52.4636769 18.4918389,51.095677 L18.4918389,46.9352772 C18.4918389,43.5167174 15.7205591,40.7451976 12.3017593,40.7451976" id="Fill-522" fill="#026BB0" opacity="0.1"></path>
                    <path d="M50.582477,34.4048779 C50.582477,30.9032782 48.1524771,28.0645583 45.1546373,28.0645583 C42.1565575,28.0645583 39.7265576,30.9032782 39.7265576,34.4048779 C39.7265576,37.9067177 42.1565575,40.7451976 45.1546373,40.7451976 C48.1524771,40.7451976 50.582477,37.9067177 50.582477,34.4048779" id="Fill-523" fill="#E5F0F7"></path>
                    <path d="M47.4063172,41.5323975 C50.385437,41.5323975 52.8094369,43.9561574 52.8094369,46.9352772 L52.8094369,51.095677 C52.8094369,52.0275969 52.0515169,52.7855169 51.119597,52.7855169 L39.1896777,52.7855169 C38.2577577,52.7855169 37.4993578,52.0275969 37.4993578,51.095677 L37.4993578,46.9352772 C37.4993578,43.9561574 39.9233576,41.5323975 42.9024774,41.5323975 L47.4063172,41.5323975 Z" id="Fill-524" fill="#E5F0F7"></path>
                    <path d="M42.9024774,41.6007975 C39.9612776,41.6007975 37.5682378,43.9938374 37.5682378,46.9352772 L37.5682378,51.095677 C37.5682378,51.9896769 38.2954377,52.7171169 39.1896777,52.7171169 L51.119597,52.7171169 C52.0135969,52.7171169 52.7407969,51.9896769 52.7407969,51.095677 L52.7407969,46.9352772 C52.7407969,43.9938374 50.347757,41.6007975 47.4063172,41.6007975 L42.9024774,41.6007975 Z M51.119597,54.4283168 L39.1896777,54.4283168 C37.3522378,54.4283168 35.8570379,52.9333568 35.8570379,51.095677 L35.8570379,46.9352772 C35.8570379,43.0503974 39.0173577,39.8898376 42.9024774,39.8898376 L47.4063172,39.8898376 C51.2914369,39.8898376 54.4519968,43.0503974 54.4519968,46.9352772 L54.4519968,51.095677 C54.4519968,52.9333568 52.9570368,54.4283168 51.119597,54.4283168 L51.119597,54.4283168 Z" id="Fill-525" fill="#026BB0"></path>
                    <path d="M12.3017593,41.5323975 C15.2808791,41.5323975 17.7048789,43.9561574 17.7048789,46.9352772 L17.7048789,51.095677 C17.7048789,52.0275969 16.946719,52.7855169 16.015039,52.7855169 L4.08511976,52.7855169 C3.15319981,52.7855169 2.39479986,52.0275969 2.39479986,51.095677 L2.39479986,46.9352772 C2.39479986,43.9561574 4.81855971,41.5323975 7.79767954,41.5323975 L12.3017593,41.5323975 Z" id="Fill-526" fill="#E5F0F7"></path>
                    <path d="M7.79767954,41.6007975 C4.85647971,41.6007975 2.46367985,43.9938374 2.46367985,46.9352772 L2.46367985,51.095677 C2.46367985,51.9896769 3.19087981,52.7171169 4.08511976,52.7171169 L16.015039,52.7171169 C16.908799,52.7171169 17.6359989,51.9896769 17.6359989,51.095677 L17.6359989,46.9352772 C17.6359989,43.9938374 15.2431991,41.6007975 12.3017593,41.6007975 L7.79767954,41.6007975 Z M16.015039,54.4283168 L4.08511976,54.4283168 C2.24743987,54.4283168 0.752479955,52.9333568 0.752479955,51.095677 L0.752479955,46.9352772 C0.752479955,43.0503974 3.91279977,39.8898376 7.79767954,39.8898376 L12.3017593,39.8898376 C16.186639,39.8898376 19.3474388,43.0503974 19.3474388,46.9352772 L19.3474388,51.095677 C19.3474388,52.9333568 17.8524789,54.4283168 16.015039,54.4283168 L16.015039,54.4283168 Z" id="Fill-527" fill="#026BB0"></path>
                    <path d="M15.4776791,34.4048779 C15.4776791,30.9032782 13.0476792,28.0645583 10.0498394,28.0645583 C7.05223958,28.0645583 4.62199972,30.9032782 4.62199972,34.4048779 C4.62199972,37.9067177 7.05223958,40.7451976 10.0498394,40.7451976 C13.0476792,40.7451976 15.4776791,37.9067177 15.4776791,34.4048779" id="Fill-528" fill="#FFFFFE"></path>
                    <path d="M27.6022384,25.7799985 C24.1680786,25.7799985 21.3744787,29.1080783 21.3744787,33.198638 C21.3744787,37.2891978 24.1680786,40.6170376 27.6022384,40.6170376 C31.0361582,40.6170376 33.829998,37.2891978 33.829998,33.198638 C33.829998,29.1080783 31.0361582,25.7799985 27.6022384,25.7799985 Z M27.6022384,42.3282375 C23.2248786,42.3282375 19.6632788,38.2326377 19.6632788,33.198638 C19.6632788,28.1643983 23.2248786,24.0687986 27.6022384,24.0687986 C31.9798381,24.0687986 35.5414379,28.1643983 35.5414379,33.198638 C35.5414379,38.2326377 31.9798381,42.3282375 27.6022384,42.3282375 L27.6022384,42.3282375 Z" id="Fill-531" fill="#026BB0"></path>
                    <path d="M30.5410382,42.2595975 C34.5610379,42.2595975 37.8312777,45.5303173 37.8312777,49.550317 L37.8312777,54.9793567 C37.8312777,56.3279166 36.7344778,57.4249566 35.3861579,57.4249566 L19.8178388,57.4249566 C18.4697589,57.4249566 17.372959,56.3279166 17.372959,54.9793567 L17.372959,49.550317 C17.372959,45.5303173 20.6436788,42.2595975 24.6636785,42.2595975 L30.5410382,42.2595975 Z" id="Fill-532" fill="#E5F0F7"></path>
                    <path d="M24.6636785,42.3282375 C20.6813588,42.3282375 17.441359,45.5679973 17.441359,49.550317 L17.441359,54.9793567 C17.441359,56.2897566 18.5074389,57.3560766 19.8178388,57.3560766 L35.3861579,57.3560766 C36.6970378,57.3560766 37.7633577,56.2897566 37.7633577,54.9793567 L37.7633577,49.550317 C37.7633577,45.5679973 34.5233579,42.3282375 30.5410382,42.3282375 L24.6636785,42.3282375 Z M19.8178388,59.0672765 C17.563999,59.0672765 15.7301591,57.2331966 15.7301591,54.9793567 L15.7301591,49.550317 C15.7301591,44.6245573 19.7376788,40.6170376 24.6636785,40.6170376 L30.5410382,40.6170376 C35.4667979,40.6170376 39.4745576,44.6245573 39.4745576,49.550317 L39.4745576,54.9793567 C39.4745576,57.2331966 37.6404778,59.0672765 35.3861579,59.0672765" id="Fill-533" fill="#026BB0"></path>
                    <path d="M45.1546373,28.9203983 C42.6331975,28.9203983 40.5819176,31.3803981 40.5819176,34.4048779 C40.5819176,37.4291178 42.6331975,39.8898376 45.1546373,39.8898376 C47.6755972,39.8898376 49.726877,37.4291178 49.726877,34.4048779 C49.726877,31.3803981 47.6755972,28.9203983 45.1546373,28.9203983 Z M45.1546373,41.6007975 C41.6895175,41.6007975 38.8707177,38.3725577 38.8707177,34.4048779 C38.8707177,30.4369582 41.6895175,27.2091984 45.1546373,27.2091984 C48.6192771,27.2091984 51.4380769,30.4369582 51.4380769,34.4048779 C51.4380769,38.3725577 48.6192771,41.6007975 45.1546373,41.6007975 L45.1546373,41.6007975 Z" id="Fill-534" fill="#3B92C3"></path>
                    <path d="M15.4776791,34.4048779 C15.4776791,30.9032782 13.0476792,28.0645583 10.0498394,28.0645583 C7.05223958,28.0645583 4.62199972,30.9032782 4.62199972,34.4048779 C4.62199972,37.9067177 7.05223958,40.7451976 10.0498394,40.7451976 C13.0476792,40.7451976 15.4776791,37.9067177 15.4776791,34.4048779" id="Fill-535" fill="#E5F0F7"></path>
                    <path d="M45.1546373,28.9203983 C42.6331975,28.9203983 40.5819176,31.3803981 40.5819176,34.4048779 C40.5819176,37.4291178 42.6331975,39.8898376 45.1546373,39.8898376 C47.6755972,39.8898376 49.726877,37.4291178 49.726877,34.4048779 C49.726877,31.3803981 47.6755972,28.9203983 45.1546373,28.9203983 Z M45.1546373,41.6007975 C41.6895175,41.6007975 38.8707177,38.3725577 38.8707177,34.4048779 C38.8707177,30.4369582 41.6895175,27.2091984 45.1546373,27.2091984 C48.6192771,27.2091984 51.4380769,30.4369582 51.4380769,34.4048779 C51.4380769,38.3725577 48.6192771,41.6007975 45.1546373,41.6007975 L45.1546373,41.6007975 Z" id="Fill-536" fill="#026BB0"></path>
                    <path d="M10.0498394,28.9203983 C7.52839955,28.9203983 5.47735967,31.3803981 5.47735967,34.4048779 C5.47735967,37.4291178 7.52839955,39.8898376 10.0498394,39.8898376 C12.5710393,39.8898376 14.6223191,37.4291178 14.6223191,34.4048779 C14.6223191,31.3803981 12.5710393,28.9203983 10.0498394,28.9203983 Z M10.0498394,41.6007975 C6.58495961,41.6007975 3.76591978,38.3725577 3.76591978,34.4048779 C3.76591978,30.4369582 6.58495961,27.2091984 10.0498394,27.2091984 C13.5147192,27.2091984 16.333519,30.4369582 16.333519,34.4048779 C16.333519,38.3725577 13.5147192,41.6007975 10.0498394,41.6007975 L10.0498394,41.6007975 Z" id="Fill-537" fill="#026BB0"></path>
                </g>
            </g>
        </g>
    </g>
</svg>