<?xml version="1.0" encoding="UTF-8"?>
<svg width="98px" height="78px" viewBox="0 0 98 78" version="1.1" xmlns="http://www.w3.org/2000/svg" xmlns:xlink="http://www.w3.org/1999/xlink">
    <!-- Generator: Sketch 59.1 (86144) - https://sketch.com -->
    <title>Group 11</title>
    <desc>Created with Sketch.</desc>
    <g id="01.-Home" stroke="none" stroke-width="1" fill="none" fill-rule="evenodd">
        <g id="Artboard" transform="translate(-354.000000, -123.000000)">
            <g id="Group-11" transform="translate(354.000000, 123.000000)">
                <path d="M30.61619,4.97922598 C2.54636837,-12.5121984 -3.04961892,20.3358505 1.33278315,37.8857489 C6.7948104,59.7591466 -7.17172317,69.8014503 5.98551826,76.6565758 C19.6403593,83.7709583 35.6593414,58.6090366 68.1466366,62.6407256 C110.3239,67.8749444 105.231335,18.8601597 60.9736688,18.3178239 C49.8332428,18.1813085 42.6014601,12.4477253 30.61619,4.97922598 Z" id="Combined-Shape-Copy" fill-opacity="0.1" fill="#40AC48"></path>
                <path d="M35.9548611,1.93527778 C35.6229167,1.93527778 35.8407791,1.93527778 35.6474239,1.93527778 L35.3520833,1.93527778 L29.3645833,1.93527778 C29.0326389,1.93527778 28.7631944,2.20611111 28.7631944,2.54083333 L28.7631944,9.695 L22.7756944,9.695 C22.44375,9.695 22.1743056,9.96722222 22.1743056,10.3019444 L22.1743056,56.3852778 C22.1743056,56.72 22.44375,56.9922222 22.7756944,56.9922222 L57.9173611,56.9922222 C58.2506944,56.9922222 58.5201389,56.72 58.5201389,56.3852778 L58.5201389,49.2338889 L64.5076389,49.2338889 C64.8409722,49.2338889 65.1090278,48.9602778 65.1090278,48.6241667 L65.1090278,41.4727778 C65.1090278,41.1991667 65.1090278,41.1991667 65.1090278,40.8630556 L65.1090278,2.54083333 C65.1090278,2.20472222 64.8395833,1.93388889 64.5076389,1.93388889 L35.9548611,1.93527778 Z M57.3159722,55.7769444 L23.3798611,55.7769444 L23.3798611,10.9116667 L48.53125,10.9116667 L48.53125,19.1727778 C48.53125,19.5075 48.8006944,19.7811111 49.1326389,19.7811111 L57.3159722,19.7811111 L57.3159722,55.7769444 Z M49.7354167,18.5644444 L49.7354167,11.77 L56.4645833,18.5644444 L49.7354167,18.5644444 Z M63.90625,48.0172222 L58.5201389,48.0172222 L58.5201389,19.1727778 C58.5034722,19.0797222 58.4951389,19.0283333 58.4770833,18.9741667 C58.4284722,18.8477778 58.3881944,18.7908333 58.3381944,18.7366667 L49.5590278,9.87416667 C49.5354167,9.85055556 49.5034722,9.82694444 49.4729167,9.80611111 L49.4173611,9.80611111 L49.33125,9.73805556 C49.2590278,9.72 49.2173611,9.71305556 49.1756944,9.71166667 L49.0229167,9.68388889 L29.9673611,9.69916667 L29.9673611,3.14916667 L63.90625,3.14916667 L63.90625,48.0172222 Z" id="Fill-1" fill="#40AC48"></path>
                <path d="M57.3159722,55.7769444 L23.3798611,55.7769444 L23.3798611,10.9116667 L48.53125,10.9116667 L48.53125,19.1727778 C48.53125,19.5075 48.8006944,19.7811111 49.1326389,19.7811111 L57.3159722,19.7811111 L57.3159722,55.7769444 Z" id="Path" stroke="#40AC48" stroke-width="0.25"></path>
                <polygon id="Path" stroke="#40AC48" stroke-width="0.25" points="49.7354167 18.5644444 49.7354167 11.77 56.4645833 18.5644444"></polygon>
                <path d="M63.90625,48.0172222 L58.5201389,48.0172222 L58.5201389,19.1727778 C58.5034722,19.0797222 58.4951389,19.0283333 58.4770833,18.9741667 C58.4284722,18.8477778 58.3881944,18.7908333 58.3381944,18.7366667 L49.5590278,9.87416667 C49.5354167,9.85055556 49.5034722,9.82694444 49.4729167,9.80611111 L49.4173611,9.80611111 L49.33125,9.73805556 C49.2590278,9.72 49.2173611,9.71305556 49.1756944,9.71166667 L49.0229167,9.68388889 L29.9673611,9.69916667 L29.9673611,3.14916667 L63.90625,3.14916667 L63.90625,48.0172222 Z" id="Path" stroke="#40AC48" stroke-width="0.25"></path>
                <g id="Group-8" transform="translate(28.944444, 23.833056)">
                    <path d="M1.51861111,18.7473611 L22.9866667,18.7473611 L22.9866667,17.5306944 L2.12277778,17.5306944 L2.12277778,0.901527778 L0.915833333,0.901527778 L0.915833333,18.1404167 C0.915833333,18.4751389 1.18666667,18.7473611 1.51861111,18.7473611" id="Fill-5" fill="#40AC48"></path>
                    <path d="M1.51861111,18.7473611 L22.9866667,18.7473611 L22.9866667,17.5306944 L2.12277778,17.5306944 L2.12277778,0.901527778 L0.915833333,0.901527778 L0.915833333,18.1404167 C0.915833333,18.4751389 1.18666667,18.7473611 1.51861111,18.7473611" id="Stroke-7" stroke="#40AC48" stroke-width="0.25"></path>
                </g>
                <path d="M43.3930556,33.6041667 L38.15,33.6041667 C37.9930556,33.6041667 37.8388889,33.6680556 37.725,33.7819444 L33.6833333,37.8625 L34.5347222,38.725 L38.4013889,34.8194444 L43.6416667,34.8194444 C43.8041667,34.8194444 43.9527778,34.7555556 44.0680556,34.6416667 L50.3069444,28.3444444 L49.4541667,27.4833333 L43.3930556,33.6041667 Z" id="Fill-9" fill="#40AC48"></path>
                <path d="M43.3930556,33.6041667 L38.15,33.6041667 C37.9930556,33.6041667 37.8388889,33.6680556 37.725,33.7819444 L33.6833333,37.8625 L34.5347222,38.725 L38.4013889,34.8194444 L43.6416667,34.8194444 C43.8041667,34.8194444 43.9527778,34.7555556 44.0680556,34.6416667 L50.3069444,28.3444444 L49.4541667,27.4833333 L43.3930556,33.6041667 Z" id="Stroke-11" stroke="#40AC48" stroke-width="0.25"></path>
                <polygon id="Fill-13" fill="#40AC48" points="29.8611111 17.5608333 31.0666667 17.5608333 31.0666667 16.3441667 29.8611111 16.3441667"></polygon>
                <polygon id="Stroke-15" stroke="#40AC48" stroke-width="0.25" points="29.8611111 17.5608333 31.0666667 17.5608333 31.0666667 16.3441667 29.8611111 16.3441667"></polygon>
                <polygon id="Fill-16" fill="#40AC48" points="34.2541667 17.5608333 42.0486111 17.5608333 42.0486111 16.3441667 34.2541667 16.3441667"></polygon>
                <polygon id="Stroke-17" stroke="#40AC48" stroke-width="0.25" points="34.2541667 17.5608333 42.0486111 17.5608333 42.0486111 16.3441667 34.2541667 16.3441667"></polygon>
                <polygon id="Fill-18" fill="#40AC48" points="29.8611111 21.9969444 42.0486111 21.9969444 42.0486111 20.7802778 29.8611111 20.7802778"></polygon>
                <polygon id="Stroke-19" stroke="#40AC48" stroke-width="0.25" points="29.8611111 21.9969444 42.0486111 21.9969444 42.0486111 20.7802778 29.8611111 20.7802778"></polygon>
                <polygon id="Fill-20" fill="#FAAB2B" points="32.0583333 49.2316667 35.4597222 49.2316667 35.4597222 48.0163889 32.0583333 48.0163889"></polygon>
                <polygon id="Stroke-21" stroke="#FAAC2B" stroke-width="0.25" points="32.0583333 49.2316667 35.4597222 49.2316667 35.4597222 48.0163889 32.0583333 48.0163889"></polygon>
                <polygon id="Fill-22" fill="#40AC48" points="38.6472222 49.2316667 48.6388889 49.2316667 48.6388889 48.0163889 38.6472222 48.0163889"></polygon>
                <polygon id="Stroke-23" stroke="#40AC48" stroke-width="0.25" points="38.6472222 49.2316667 48.6388889 49.2316667 48.6388889 48.0163889 38.6472222 48.0163889"></polygon>
                <g id="Group-10" transform="translate(18.000000, 45.000000)">
                    <rect id="Rectangle" stroke="#40AC48" stroke-width="1.36799998" fill="#EBF6EC" x="0.683999991" y="0.683999991" width="22.0248016" height="16.2792012" rx="1.23120008"></rect>
                    <path d="M9.84999602,5.47200015 C9.60265276,5.47200015 9.57600026,5.75099672 9.57600026,5.87084736 L9.57600026,11.9124985 C9.57600026,12.0325674 9.60285467,12.3120006 9.85039984,12.3120006 C9.91743491,12.3120006 9.99113311,12.2914797 10.070081,12.2510929 L16.2082321,9.09677251 C16.3517922,9.02320299 16.4160004,8.94090119 16.4160004,8.89200038 C16.4160004,8.84288126 16.3517922,8.76036115 16.2082321,8.68679163 L10.070081,5.53334447 C9.99113311,5.49252102 9.91703109,5.47200015 9.84999602,5.47200015 Z" id="Shape-Copy" fill="#40AC48" fill-rule="nonzero"></path>
                </g>
            </g>
        </g>
    </g>
</svg>