<?xml version="1.0" encoding="UTF-8"?>
<svg width="98px" height="85px" viewBox="0 0 98 85" version="1.1" xmlns="http://www.w3.org/2000/svg" xmlns:xlink="http://www.w3.org/1999/xlink">
    <!-- Generator: Sketch 59.1 (86144) - https://sketch.com -->
    <title>Group 19</title>
    <desc>Created with Sketch.</desc>
    <g id="01.-Home" stroke="none" stroke-width="1" fill="none" fill-rule="evenodd">
        <g id="Artboard" transform="translate(-893.000000, -116.000000)">
            <g id="Group-19" transform="translate(893.000000, 118.000000)">
                <g id="Group-13" transform="translate(0.000000, 5.000000)" fill="#F5AA00" fill-opacity="0.1">
                    <path d="M30.61619,4.97922598 C2.54636837,-12.5121984 -3.04961892,20.3358505 1.33278315,37.8857489 C6.7948104,59.7591466 -7.17172317,69.8014503 5.98551826,76.6565758 C19.6403593,83.7709583 35.6593414,58.6090366 68.1466366,62.6407256 C110.3239,67.8749444 105.231335,18.8601597 60.9736688,18.3178239 C49.8332428,18.1813085 42.6014601,12.4477253 30.61619,4.97922598 Z" id="Combined-Shape-Copy"></path>
                </g>
                <g id="Group-9" transform="translate(23.000000, 0.000000)" fill-rule="nonzero">
                    <g id="noun_Pie-Chart_2182082">
                        <g id="Group">
                            <path d="M24.9735199,0.000989999995 L24.9738642,2.17422327 C20.4237421,2.70164117 16.231742,4.40379422 12.7090357,6.96951083 C6.21846069,11.6968354 2,19.3557805 2,28 C2,42.3594035 13.6405965,54 28,54 C37.2073851,54 45.2969339,49.213974 49.9165686,41.994 L52.1079897,42.9271698 C47.1478697,50.9633297 38.2795598,56.3190097 28.1635198,56.3190097 L28.1635198,56.3190097 L28.1531798,56.3190097 C12.6061099,56.3190097 0.00142999999,43.6696698 0.00142999999,28.0706798 C0.00142999999,13.5511199 10.9183799,1.58575999 24.9735199,0.000989999995 L24.9735199,0.000989999995 Z" id="Combined-Shape" fill="#F5AA00"></path>
                            <path d="M31.3532998,0.000989999995 L31.3532998,6.45985996 C41.8611598,8.01360996 49.9285597,17.0950999 49.9285597,28.0705698 C49.9285597,30.3530698 49.5778797,32.5494398 48.9316297,34.6187598 L54.8371997,37.1315998 C55.7995897,34.2887598 56.3186797,31.2364798 56.3186797,28.0705698 C56.3186797,13.5511199 45.4016198,1.59257999 31.3532998,0.000989999995 Z" id="Path" stroke="#F5AA00" stroke-width="2"></path>
                        </g>
                    </g>
                    <g id="Group-17" transform="translate(20.000000, 19.000000)" fill="#F5AA00" stroke="#F5AA00" stroke-width="1.04000007">
                        <g id="Group-18">
                            <path d="M8.81753628,6.88338275e-14 C11.0751684,6.88338275e-14 12.9147204,1.83955206 12.9147204,4.09718414 C12.9147204,6.35481622 11.0751684,8.19436829 8.81753628,8.19436829 C6.55990421,8.19436829 4.72035214,6.35481622 4.72035214,4.09718414 C4.72035214,1.83955206 6.55990421,6.88338275e-14 8.81753628,6.88338275e-14 Z" id="Shape"></path>
                            <path d="M0.45593599,18.4254726 C0.874016005,14.1610564 4.46950413,10.8164163 8.90115229,10.8164163 C13.3328004,10.8164163 16.9282886,14.1610564 17.3463686,18.4254726 C17.7644486,22.6898887 0.0378559756,22.6898887 0.45593599,18.4254726 Z" id="Path"></path>
                        </g>
                    </g>
                </g>
            </g>
        </g>
    </g>
</svg>