<?xml version="1.0" encoding="UTF-8"?>
<svg width="114px" height="103px" viewBox="0 0 114 103" version="1.1" xmlns="http://www.w3.org/2000/svg" xmlns:xlink="http://www.w3.org/1999/xlink">
    <title>Question</title>
    <defs>
        <polygon id="path-1" points="0 0 26 0 26 33 0 33"></polygon>
        <polygon id="path-3" points="0 0 5 0 5 5 0 5"></polygon>
    </defs>
    <g id="01.-Home" stroke="none" stroke-width="1" fill="none" fill-rule="evenodd">
        <g id="Portal_Approved" transform="translate(-842.000000, -837.000000)">
            <g id="Group-50" transform="translate(-382.000000, 735.000000)">
                <g id="Group-32" transform="translate(712.000000, 0.000000)">
                    <g id="Group-31" transform="translate(386.269565, 0.000000)">
                        <g id="Group-46" transform="translate(39.435652, 103.000000)">
                            <g id="Question" transform="translate(88.000000, 0.000000)">
                                <g id="Group-7" stroke="#40AC48" stroke-width="2">
                                    <path d="M7.23913043,100.989818 L111,100.989818 L111,33.9681543 L69.9782609,33.9681543 L62.7391304,41.1490469 L19.3043478,41.1490469 C16.6379348,41.1490469 14.4782609,43.2913465 14.4782609,45.9363086 L14.4782609,93.8089258 C14.4782609,97.6985759 11.153087,100.78636 7.23913043,100.989818 C3.06456522,101.207639 0,97.9020346 0,93.8089258 L0,26.7872617 C0,24.1422996 2.15967391,22 4.82608696,22 L24.5434783,22" id="Stroke-1" stroke-linejoin="round"></path>
                                    <path d="M24,41 L24,4.82352941 C24,2.15852941 26.1535937,0 28.8125,0 L81.75,0 L101,19.2941176 L101,33.7647059" id="Stroke-3"></path>
                                    <polyline id="Stroke-5" points="94 21 80 21 80 7"></polyline>
                                </g>
                                <g id="Group-7" transform="translate(73.000000, 49.000000)">
                                    <g id="Group-3">
                                        <mask id="mask-2" fill="white">
                                            <use xlink:href="#path-1"></use>
                                        </mask>
                                        <g id="Clip-2"></g>
                                        <path d="M13.0002697,3.3715923 C18.3129966,3.3715923 22.6332953,7.70225133 22.6332953,13.0216946 C22.6332953,18.3438395 18.3129966,22.6744986 13.0002697,22.6744986 C12.4447257,22.6744986 11.9916606,23.1256652 11.9916606,23.6848956 L11.9916606,30.6415063 C11.9916606,31.1980352 12.4447257,31.6519034 13.0002697,31.6519034 C13.5558137,31.6519034 14.0088787,31.1980352 14.0088787,30.6415063 L14.0088787,25.2572247 C14.0088787,24.9195252 14.2596826,24.633156 14.5913909,24.5872288 C20.3275179,23.8010643 24.6532102,18.8274253 24.6532102,13.0216946 C24.6532102,6.58379042 19.4267815,1.3480966 13.0002697,1.3480966 C6.57375791,1.3480966 1.34732912,6.58379042 1.34732912,13.0216946 C1.34732912,13.5809251 1.80039415,14.0347933 2.35593818,14.0347933 C2.91417903,14.0347933 3.36724406,13.5809251 3.36724406,13.0216946 C3.36724406,7.70225133 7.68754279,3.3715923 13.0002697,3.3715923 M13.0002697,33 C11.7004045,33 10.6432528,31.9409742 10.6432528,30.6415063 L10.6432528,23.6848956 C10.6432528,22.3827262 11.7004045,21.3237004 13.0002697,21.3237004 C17.5686754,21.3237004 21.2875843,17.6009005 21.2875843,13.0216946 C21.2875843,8.44519034 17.5686754,4.71968891 13.0002697,4.71968891 C8.43186391,4.71968891 4.71295509,8.44519034 4.71295509,13.0216946 C4.71295509,14.3238641 3.65580334,15.3828899 2.35593818,15.3828899 C1.05607302,15.3828899 -0.00107872627,14.3238641 -0.00107872627,13.0216946 C-0.00107872627,5.84085141 5.8321336,0 13.0002697,0 C20.1684058,0 26.0016181,5.84085141 26.0016181,13.0216946 C26.0016181,19.3002047 21.4655741,24.7060991 15.3572866,25.8326648 L15.3572866,30.6415063 C15.3572866,31.9409742 14.3001348,33 13.0002697,33" id="Fill-1" fill="#40AC48" mask="url(#mask-2)"></path>
                                    </g>
                                    <g id="Group-6" transform="translate(11.000000, 36.000000)">
                                        <mask id="mask-4" fill="white">
                                            <use xlink:href="#path-3"></use>
                                        </mask>
                                        <g id="Clip-5"></g>
                                        <path d="M2.5,5.00025761 C1.12255407,5.00025761 0,3.87964346 0,2.49884074 C0,1.12061415 1.12255407,0 2.5,0 C3.87744593,0 5,1.12061415 5,2.49884074 C5,3.87964346 3.87744593,5.00025761 2.5,5.00025761" id="Fill-4" fill="#40AC48" mask="url(#mask-4)"></path>
                                    </g>
                                </g>
                            </g>
                        </g>
                    </g>
                </g>
            </g>
        </g>
    </g>
</svg>