<?xml version="1.0" encoding="utf-8"?>
<!-- Generator: Adobe Illustrator 26.0.1, SVG Export Plug-In . SVG Version: 6.00 Build 0)  -->
<svg version="1.1" id="Layer_1" xmlns="http://www.w3.org/2000/svg" xmlns:xlink="http://www.w3.org/1999/xlink" x="0px" y="0px"
	 viewBox="0 0 57.9 56.4" style="enable-background:new 0 0 57.9 56.4;" xml:space="preserve">
<g>
	<rect width="2" height="1.9"/>
	<rect x="2" width="2" height="1.9"/>
	<rect x="4" width="2" height="1.9"/>
	<rect x="6" width="2" height="1.9"/>
	<rect x="8" width="2" height="1.9"/>
	<rect x="10" width="2" height="1.9"/>
	<rect x="12" width="2" height="1.9"/>
	<rect x="20" width="2" height="1.9"/>
	<rect x="28" width="2" height="1.9"/>
	<rect x="35.9" width="2" height="1.9"/>
	<rect x="37.9" width="2" height="1.9"/>
	<rect x="43.9" width="2" height="1.9"/>
	<rect x="45.9" width="2" height="1.9"/>
	<rect x="47.9" width="2" height="1.9"/>
	<rect x="49.9" width="2" height="1.9"/>
	<rect x="51.9" width="2" height="1.9"/>
	<rect x="53.9" width="2" height="1.9"/>
	<rect x="55.9" width="2" height="1.9"/>
	<rect y="1.9" width="2" height="1.9"/>
	<rect x="12" y="1.9" width="2" height="1.9"/>
	<rect x="18" y="1.9" width="2" height="1.9"/>
	<rect x="26" y="1.9" width="2" height="1.9"/>
	<rect x="33.9" y="1.9" width="2" height="1.9"/>
	<rect x="37.9" y="1.9" width="2" height="1.9"/>
	<rect x="39.9" y="1.9" width="2" height="1.9"/>
	<rect x="43.9" y="1.9" width="2" height="1.9"/>
	<rect x="55.9" y="1.9" width="2" height="1.9"/>
	<rect y="3.9" width="2" height="1.9"/>
	<rect x="4" y="3.9" width="2" height="1.9"/>
	<rect x="6" y="3.9" width="2" height="1.9"/>
	<rect x="8" y="3.9" width="2" height="1.9"/>
	<rect x="12" y="3.9" width="2" height="1.9"/>
	<rect x="16" y="3.9" width="2" height="1.9"/>
	<rect x="22" y="3.9" width="2" height="1.9"/>
	<rect x="30" y="3.9" width="2" height="1.9"/>
	<rect x="37.9" y="3.9" width="2" height="1.9"/>
	<rect x="43.9" y="3.9" width="2" height="1.9"/>
	<rect x="47.9" y="3.9" width="2" height="1.9"/>
	<rect x="49.9" y="3.9" width="2" height="1.9"/>
	<rect x="51.9" y="3.9" width="2" height="1.9"/>
	<rect x="55.9" y="3.9" width="2" height="1.9"/>
	<rect y="5.8" width="2" height="1.9"/>
	<rect x="4" y="5.8" width="2" height="1.9"/>
	<rect x="6" y="5.8" width="2" height="1.9"/>
	<rect x="8" y="5.8" width="2" height="1.9"/>
	<rect x="12" y="5.8" width="2" height="1.9"/>
	<rect x="18" y="5.8" width="2" height="1.9"/>
	<rect x="24" y="5.8" width="2" height="1.9"/>
	<rect x="26" y="5.8" width="2" height="1.9"/>
	<rect x="32" y="5.8" width="2" height="1.9"/>
	<rect x="35.9" y="5.8" width="2" height="1.9"/>
	<rect x="37.9" y="5.8" width="2" height="1.9"/>
	<rect x="39.9" y="5.8" width="2" height="1.9"/>
	<rect x="43.9" y="5.8" width="2" height="1.9"/>
	<rect x="47.9" y="5.8" width="2" height="1.9"/>
	<rect x="49.9" y="5.8" width="2" height="1.9"/>
	<rect x="51.9" y="5.8" width="2" height="1.9"/>
	<rect x="55.9" y="5.8" width="2" height="1.9"/>
	<rect y="7.8" width="2" height="1.9"/>
	<rect x="4" y="7.8" width="2" height="1.9"/>
	<rect x="6" y="7.8" width="2" height="1.9"/>
	<rect x="8" y="7.8" width="2" height="1.9"/>
	<rect x="12" y="7.8" width="2" height="1.9"/>
	<rect x="18" y="7.8" width="2" height="1.9"/>
	<rect x="24" y="7.8" width="2" height="1.9"/>
	<rect x="26" y="7.8" width="2" height="1.9"/>
	<rect x="32" y="7.8" width="2" height="1.9"/>
	<rect x="37.9" y="7.8" width="2" height="1.9"/>
	<rect x="43.9" y="7.8" width="2" height="1.9"/>
	<rect x="47.9" y="7.8" width="2" height="1.9"/>
	<rect x="49.9" y="7.8" width="2" height="1.9"/>
	<rect x="51.9" y="7.8" width="2" height="1.9"/>
	<rect x="55.9" y="7.8" width="2" height="1.9"/>
	<rect y="9.7" width="2" height="1.9"/>
	<rect x="12" y="9.7" width="2" height="1.9"/>
	<rect x="20" y="9.7" width="2" height="1.9"/>
	<rect x="22" y="9.7" width="2" height="1.9"/>
	<rect x="24" y="9.7" width="2" height="1.9"/>
	<rect x="28" y="9.7" width="2" height="1.9"/>
	<rect x="30" y="9.7" width="2" height="1.9"/>
	<rect x="32" y="9.7" width="2" height="1.9"/>
	<rect x="37.9" y="9.7" width="2" height="1.9"/>
	<rect x="39.9" y="9.7" width="2" height="1.9"/>
	<rect x="43.9" y="9.7" width="2" height="1.9"/>
	<rect x="55.9" y="9.7" width="2" height="1.9"/>
	<rect y="11.7" width="2" height="1.9"/>
	<rect x="2" y="11.7" width="2" height="1.9"/>
	<rect x="4" y="11.7" width="2" height="1.9"/>
	<rect x="6" y="11.7" width="2" height="1.9"/>
	<rect x="8" y="11.7" width="2" height="1.9"/>
	<rect x="10" y="11.7" width="2" height="1.9"/>
	<rect x="12" y="11.7" width="2" height="1.9"/>
	<rect x="16" y="11.7" width="2" height="1.9"/>
	<rect x="20" y="11.7" width="2" height="1.9"/>
	<rect x="24" y="11.7" width="2" height="1.9"/>
	<rect x="28" y="11.7" width="2" height="1.9"/>
	<rect x="32" y="11.7" width="2" height="1.9"/>
	<rect x="35.9" y="11.7" width="2" height="1.9"/>
	<rect x="39.9" y="11.7" width="2" height="1.9"/>
	<rect x="43.9" y="11.7" width="2" height="1.9"/>
	<rect x="45.9" y="11.7" width="2" height="1.9"/>
	<rect x="47.9" y="11.7" width="2" height="1.9"/>
	<rect x="49.9" y="11.7" width="2" height="1.9"/>
	<rect x="51.9" y="11.7" width="2" height="1.9"/>
	<rect x="53.9" y="11.7" width="2" height="1.9"/>
	<rect x="55.9" y="11.7" width="2" height="1.9"/>
	<rect x="16" y="13.6" width="2" height="1.9"/>
	<rect x="22" y="13.6" width="2" height="1.9"/>
	<rect x="30" y="13.6" width="2" height="1.9"/>
	<rect x="33.9" y="13.6" width="2" height="1.9"/>
	<rect x="39.9" y="13.6" width="2" height="1.9"/>
	<rect y="15.6" width="2" height="1.9"/>
	<rect x="2" y="15.6" width="2" height="1.9"/>
	<rect x="4" y="15.6" width="2" height="1.9"/>
	<rect x="8" y="15.6" width="2" height="1.9"/>
	<rect x="10" y="15.6" width="2" height="1.9"/>
	<rect x="12" y="15.6" width="2" height="1.9"/>
	<rect x="14" y="15.6" width="2" height="1.9"/>
	<rect x="16" y="15.6" width="2" height="1.9"/>
	<rect x="24" y="15.6" width="2" height="1.9"/>
	<rect x="32" y="15.6" width="2" height="1.9"/>
	<rect x="33.9" y="15.6" width="2" height="1.9"/>
	<rect x="39.9" y="15.6" width="2" height="1.9"/>
	<rect x="41.9" y="15.6" width="2" height="1.9"/>
	<rect x="43.9" y="15.6" width="2" height="1.9"/>
	<rect x="51.9" y="15.6" width="2" height="1.9"/>
	<rect x="6" y="17.5" width="2" height="1.9"/>
	<rect x="8" y="17.5" width="2" height="1.9"/>
	<rect x="10" y="17.5" width="2" height="1.9"/>
	<rect x="18" y="17.5" width="2" height="1.9"/>
	<rect x="22" y="17.5" width="2" height="1.9"/>
	<rect x="24" y="17.5" width="2" height="1.9"/>
	<rect x="26" y="17.5" width="2" height="1.9"/>
	<rect x="30" y="17.5" width="2" height="1.9"/>
	<rect x="32" y="17.5" width="2" height="1.9"/>
	<rect x="33.9" y="17.5" width="2" height="1.9"/>
	<rect x="39.9" y="17.5" width="2" height="1.9"/>
	<rect x="41.9" y="17.5" width="2" height="1.9"/>
	<rect x="43.9" y="17.5" width="2" height="1.9"/>
	<rect x="49.9" y="17.5" width="2" height="1.9"/>
	<rect x="55.9" y="17.5" width="2" height="1.9"/>
	<rect x="2" y="19.4" width="2" height="1.9"/>
	<rect x="8" y="19.4" width="2" height="1.9"/>
	<rect x="12" y="19.4" width="2" height="1.9"/>
	<rect x="14" y="19.4" width="2" height="1.9"/>
	<rect x="16" y="19.4" width="2" height="1.9"/>
	<rect x="20" y="19.4" width="2" height="1.9"/>
	<rect x="22" y="19.4" width="2" height="1.9"/>
	<rect x="24" y="19.4" width="2" height="1.9"/>
	<rect x="28" y="19.4" width="2" height="1.9"/>
	<rect x="30" y="19.4" width="2" height="1.9"/>
	<rect x="32" y="19.4" width="2" height="1.9"/>
	<rect x="41.9" y="19.4" width="2" height="1.9"/>
	<rect x="45.9" y="19.4" width="2" height="1.9"/>
	<rect x="47.9" y="19.4" width="2" height="1.9"/>
	<rect x="51.9" y="19.4" width="2" height="1.9"/>
	<rect x="53.9" y="19.4" width="2" height="1.9"/>
	<rect x="55.9" y="19.4" width="2" height="1.9"/>
	<rect x="4" y="21.4" width="2" height="1.9"/>
	<rect x="6" y="21.4" width="2" height="1.9"/>
	<rect x="18" y="21.4" width="2" height="1.9"/>
	<rect x="20" y="21.4" width="2" height="1.9"/>
	<rect x="24" y="21.4" width="2" height="1.9"/>
	<rect x="26" y="21.4" width="2" height="1.9"/>
	<rect x="28" y="21.4" width="2" height="1.9"/>
	<rect x="32" y="21.4" width="2" height="1.9"/>
	<rect x="33.9" y="21.4" width="2" height="1.9"/>
	<rect x="35.9" y="21.4" width="2" height="1.9"/>
	<rect x="37.9" y="21.4" width="2" height="1.9"/>
	<rect x="41.9" y="21.4" width="2" height="1.9"/>
	<rect x="43.9" y="21.4" width="2" height="1.9"/>
	<rect x="45.9" y="21.4" width="2" height="1.9"/>
	<rect x="47.9" y="21.4" width="2" height="1.9"/>
	<rect x="49.9" y="21.4" width="2" height="1.9"/>
	<rect x="53.9" y="21.4" width="2" height="1.9"/>
	<rect y="23.3" width="2" height="1.9"/>
	<rect x="2" y="23.3" width="2" height="1.9"/>
	<rect x="12" y="23.3" width="2" height="1.9"/>
	<rect x="14" y="23.3" width="2" height="1.9"/>
	<rect x="20" y="23.3" width="2" height="1.9"/>
	<rect x="22" y="23.3" width="2" height="1.9"/>
	<rect x="28" y="23.3" width="2" height="1.9"/>
	<rect x="30" y="23.3" width="2" height="1.9"/>
	<rect x="32" y="23.3" width="2" height="1.9"/>
	<rect x="33.9" y="23.3" width="2" height="1.9"/>
	<rect x="39.9" y="23.3" width="2" height="1.9"/>
	<rect x="41.9" y="23.3" width="2" height="1.9"/>
	<rect x="43.9" y="23.3" width="2" height="1.9"/>
	<rect x="49.9" y="23.3" width="2" height="1.9"/>
	<rect x="53.9" y="23.3" width="2" height="1.9"/>
	<rect x="55.9" y="23.3" width="2" height="1.9"/>
	<rect y="25.3" width="2" height="1.9"/>
	<rect x="4" y="25.3" width="2" height="1.9"/>
	<rect x="8" y="25.3" width="2" height="1.9"/>
	<rect x="10" y="25.3" width="2" height="1.9"/>
	<rect x="14" y="25.3" width="2" height="1.9"/>
	<rect x="18" y="25.3" width="2" height="1.9"/>
	<rect x="20" y="25.3" width="2" height="1.9"/>
	<rect x="22" y="25.3" width="2" height="1.9"/>
	<rect x="28" y="25.3" width="2" height="1.9"/>
	<rect x="30" y="25.3" width="2" height="1.9"/>
	<rect x="33.9" y="25.3" width="2" height="1.9"/>
	<rect x="39.9" y="25.3" width="2" height="1.9"/>
	<rect x="41.9" y="25.3" width="2" height="1.9"/>
	<rect x="43.9" y="25.3" width="2" height="1.9"/>
	<rect x="49.9" y="25.3" width="2" height="1.9"/>
	<rect x="51.9" y="25.3" width="2" height="1.9"/>
	<rect x="55.9" y="25.3" width="2" height="1.9"/>
	<rect y="27.2" width="2" height="1.9"/>
	<rect x="4" y="27.2" width="2" height="1.9"/>
	<rect x="6" y="27.2" width="2" height="1.9"/>
	<rect x="8" y="27.2" width="2" height="1.9"/>
	<rect x="10" y="27.2" width="2" height="1.9"/>
	<rect x="12" y="27.2" width="2" height="1.9"/>
	<rect x="14" y="27.2" width="2" height="1.9"/>
	<rect x="20" y="27.2" width="2" height="1.9"/>
	<rect x="26" y="27.2" width="2" height="1.9"/>
	<rect x="32" y="27.2" width="2" height="1.9"/>
	<rect x="35.9" y="27.2" width="2" height="1.9"/>
	<rect x="39.9" y="27.2" width="2" height="1.9"/>
	<rect x="47.9" y="27.2" width="2" height="1.9"/>
	<rect x="53.9" y="27.2" width="2" height="1.9"/>
	<rect x="55.9" y="27.2" width="2" height="1.9"/>
	<rect x="2" y="29.2" width="2" height="1.9"/>
	<rect x="10" y="29.2" width="2" height="1.9"/>
	<rect x="20" y="29.2" width="2" height="1.9"/>
	<rect x="22" y="29.2" width="2" height="1.9"/>
	<rect x="32" y="29.2" width="2" height="1.9"/>
	<rect x="33.9" y="29.2" width="2" height="1.9"/>
	<rect x="35.9" y="29.2" width="2" height="1.9"/>
	<rect x="39.9" y="29.2" width="2" height="1.9"/>
	<rect x="43.9" y="29.2" width="2" height="1.9"/>
	<rect x="47.9" y="29.2" width="2" height="1.9"/>
	<rect x="49.9" y="29.2" width="2" height="1.9"/>
	<rect x="53.9" y="29.2" width="2" height="1.9"/>
	<rect x="10" y="31.1" width="2" height="1.9"/>
	<rect x="12" y="31.1" width="2" height="1.9"/>
	<rect x="14" y="31.1" width="2" height="1.9"/>
	<rect x="16" y="31.1" width="2" height="1.9"/>
	<rect x="18" y="31.1" width="2" height="1.9"/>
	<rect x="24" y="31.1" width="2" height="1.9"/>
	<rect x="32" y="31.1" width="2" height="1.9"/>
	<rect x="33.9" y="31.1" width="2" height="1.9"/>
	<rect x="37.9" y="31.1" width="2" height="1.9"/>
	<rect x="39.9" y="31.1" width="2" height="1.9"/>
	<rect x="43.9" y="31.1" width="2" height="1.9"/>
	<rect x="53.9" y="31.1" width="2" height="1.9"/>
	<rect x="55.9" y="31.1" width="2" height="1.9"/>
	<rect x="8" y="33.1" width="2" height="1.9"/>
	<rect x="10" y="33.1" width="2" height="1.9"/>
	<rect x="14" y="33.1" width="2" height="1.9"/>
	<rect x="22" y="33.1" width="2" height="1.9"/>
	<rect x="24" y="33.1" width="2" height="1.9"/>
	<rect x="26" y="33.1" width="2" height="1.9"/>
	<rect x="32" y="33.1" width="2" height="1.9"/>
	<rect x="33.9" y="33.1" width="2" height="1.9"/>
	<rect x="39.9" y="33.1" width="2" height="1.9"/>
	<rect x="41.9" y="33.1" width="2" height="1.9"/>
	<rect x="43.9" y="33.1" width="2" height="1.9"/>
	<rect x="51.9" y="33.1" width="2" height="1.9"/>
	<rect x="55.9" y="33.1" width="2" height="1.9"/>
	<rect y="35" width="2" height="1.9"/>
	<rect x="4" y="35" width="2" height="1.9"/>
	<rect x="10" y="35" width="2" height="1.9"/>
	<rect x="12" y="35" width="2" height="1.9"/>
	<rect x="14" y="35" width="2" height="1.9"/>
	<rect x="16" y="35" width="2" height="1.9"/>
	<rect x="20" y="35" width="2" height="1.9"/>
	<rect x="22" y="35" width="2" height="1.9"/>
	<rect x="24" y="35" width="2" height="1.9"/>
	<rect x="28" y="35" width="2" height="1.9"/>
	<rect x="32" y="35" width="2" height="1.9"/>
	<rect x="41.9" y="35" width="2" height="1.9"/>
	<rect x="45.9" y="35" width="2" height="1.9"/>
	<rect x="47.9" y="35" width="2" height="1.9"/>
	<rect x="49.9" y="35" width="2" height="1.9"/>
	<rect x="53.9" y="35" width="2" height="1.9"/>
	<rect x="55.9" y="35" width="2" height="1.9"/>
	<rect x="2" y="37" width="2" height="1.9"/>
	<rect x="8" y="37" width="2" height="1.9"/>
	<rect x="10" y="37" width="2" height="1.9"/>
	<rect x="14" y="37" width="2" height="1.9"/>
	<rect x="16" y="37" width="2" height="1.9"/>
	<rect x="18" y="37" width="2" height="1.9"/>
	<rect x="24" y="37" width="2" height="1.9"/>
	<rect x="26" y="37" width="2" height="1.9"/>
	<rect x="28" y="37" width="2" height="1.9"/>
	<rect x="33.9" y="37" width="2" height="1.9"/>
	<rect x="39.9" y="37" width="2" height="1.9"/>
	<rect x="41.9" y="37" width="2" height="1.9"/>
	<rect x="43.9" y="37" width="2" height="1.9"/>
	<rect x="49.9" y="37" width="2" height="1.9"/>
	<rect x="53.9" y="37" width="2" height="1.9"/>
	<rect y="38.9" width="2" height="1.9"/>
	<rect x="4" y="38.9" width="2" height="1.9"/>
	<rect x="6" y="38.9" width="2" height="1.9"/>
	<rect x="8" y="38.9" width="2" height="1.9"/>
	<rect x="10" y="38.9" width="2" height="1.9"/>
	<rect x="12" y="38.9" width="2" height="1.9"/>
	<rect x="14" y="38.9" width="2" height="1.9"/>
	<rect x="16" y="38.9" width="2" height="1.9"/>
	<rect x="22" y="38.9" width="2" height="1.9"/>
	<rect x="28" y="38.9" width="2" height="1.9"/>
	<rect x="32" y="38.9" width="2" height="1.9"/>
	<rect x="33.9" y="38.9" width="2" height="1.9"/>
	<rect x="37.9" y="38.9" width="2" height="1.9"/>
	<rect x="39.9" y="38.9" width="2" height="1.9"/>
	<rect x="41.9" y="38.9" width="2" height="1.9"/>
	<rect x="43.9" y="38.9" width="2" height="1.9"/>
	<rect x="45.9" y="38.9" width="2" height="1.9"/>
	<rect x="47.9" y="38.9" width="2" height="1.9"/>
	<rect x="16" y="40.8" width="2" height="1.9"/>
	<rect x="22" y="40.8" width="2" height="1.9"/>
	<rect x="28" y="40.8" width="2" height="1.9"/>
	<rect x="32" y="40.8" width="2" height="1.9"/>
	<rect x="33.9" y="40.8" width="2" height="1.9"/>
	<rect x="37.9" y="40.8" width="2" height="1.9"/>
	<rect x="39.9" y="40.8" width="2" height="1.9"/>
	<rect x="47.9" y="40.8" width="2" height="1.9"/>
	<rect x="51.9" y="40.8" width="2" height="1.9"/>
	<rect x="53.9" y="40.8" width="2" height="1.9"/>
	<rect x="55.9" y="40.8" width="2" height="1.9"/>
	<rect y="42.8" width="2" height="1.9"/>
	<rect x="2" y="42.8" width="2" height="1.9"/>
	<rect x="4" y="42.8" width="2" height="1.9"/>
	<rect x="6" y="42.8" width="2" height="1.9"/>
	<rect x="8" y="42.8" width="2" height="1.9"/>
	<rect x="10" y="42.8" width="2" height="1.9"/>
	<rect x="12" y="42.8" width="2" height="1.9"/>
	<rect x="16" y="42.8" width="2" height="1.9"/>
	<rect x="18" y="42.8" width="2" height="1.9"/>
	<rect x="26" y="42.8" width="2" height="1.9"/>
	<rect x="37.9" y="42.8" width="2" height="1.9"/>
	<rect x="39.9" y="42.8" width="2" height="1.9"/>
	<rect x="43.9" y="42.8" width="2" height="1.9"/>
	<rect x="47.9" y="42.8" width="2" height="1.9"/>
	<rect x="49.9" y="42.8" width="2" height="1.9"/>
	<rect x="53.9" y="42.8" width="2" height="1.9"/>
	<rect x="55.9" y="42.8" width="2" height="1.9"/>
	<rect y="44.7" width="2" height="1.9"/>
	<rect x="12" y="44.7" width="2" height="1.9"/>
	<rect x="16" y="44.7" width="2" height="1.9"/>
	<rect x="22" y="44.7" width="2" height="1.9"/>
	<rect x="33.9" y="44.7" width="2" height="1.9"/>
	<rect x="35.9" y="44.7" width="2" height="1.9"/>
	<rect x="37.9" y="44.7" width="2" height="1.9"/>
	<rect x="39.9" y="44.7" width="2" height="1.9"/>
	<rect x="47.9" y="44.7" width="2" height="1.9"/>
	<rect y="46.7" width="2" height="1.9"/>
	<rect x="4" y="46.7" width="2" height="1.9"/>
	<rect x="6" y="46.7" width="2" height="1.9"/>
	<rect x="8" y="46.7" width="2" height="1.9"/>
	<rect x="12" y="46.7" width="2" height="1.9"/>
	<rect x="16" y="46.7" width="2" height="1.9"/>
	<rect x="20" y="46.7" width="2" height="1.9"/>
	<rect x="24" y="46.7" width="2" height="1.9"/>
	<rect x="32" y="46.7" width="2" height="1.9"/>
	<rect x="33.9" y="46.7" width="2" height="1.9"/>
	<rect x="39.9" y="46.7" width="2" height="1.9"/>
	<rect x="41.9" y="46.7" width="2" height="1.9"/>
	<rect x="43.9" y="46.7" width="2" height="1.9"/>
	<rect x="45.9" y="46.7" width="2" height="1.9"/>
	<rect x="47.9" y="46.7" width="2" height="1.9"/>
	<rect x="55.9" y="46.7" width="2" height="1.9"/>
	<rect y="48.6" width="2" height="1.9"/>
	<rect x="4" y="48.6" width="2" height="1.9"/>
	<rect x="6" y="48.6" width="2" height="1.9"/>
	<rect x="8" y="48.6" width="2" height="1.9"/>
	<rect x="12" y="48.6" width="2" height="1.9"/>
	<rect x="22" y="48.6" width="2" height="1.9"/>
	<rect x="24" y="48.6" width="2" height="1.9"/>
	<rect x="26" y="48.6" width="2" height="1.9"/>
	<rect x="32" y="48.6" width="2" height="1.9"/>
	<rect x="33.9" y="48.6" width="2" height="1.9"/>
	<rect x="35.9" y="48.6" width="2" height="1.9"/>
	<rect x="39.9" y="48.6" width="2" height="1.9"/>
	<rect x="45.9" y="48.6" width="2" height="1.9"/>
	<rect x="47.9" y="48.6" width="2" height="1.9"/>
	<rect x="51.9" y="48.6" width="2" height="1.9"/>
	<rect x="53.9" y="48.6" width="2" height="1.9"/>
	<rect x="55.9" y="48.6" width="2" height="1.9"/>
	<rect y="50.6" width="2" height="1.9"/>
	<rect x="4" y="50.6" width="2" height="1.9"/>
	<rect x="6" y="50.6" width="2" height="1.9"/>
	<rect x="8" y="50.6" width="2" height="1.9"/>
	<rect x="12" y="50.6" width="2" height="1.9"/>
	<rect x="16" y="50.6" width="2" height="1.9"/>
	<rect x="18" y="50.6" width="2" height="1.9"/>
	<rect x="20" y="50.6" width="2" height="1.9"/>
	<rect x="22" y="50.6" width="2" height="1.9"/>
	<rect x="24" y="50.6" width="2" height="1.9"/>
	<rect x="28" y="50.6" width="2" height="1.9"/>
	<rect x="33.9" y="50.6" width="2" height="1.9"/>
	<rect x="35.9" y="50.6" width="2" height="1.9"/>
	<rect x="37.9" y="50.6" width="2" height="1.9"/>
	<rect x="41.9" y="50.6" width="2" height="1.9"/>
	<rect x="45.9" y="50.6" width="2" height="1.9"/>
	<rect x="47.9" y="50.6" width="2" height="1.9"/>
	<rect x="49.9" y="50.6" width="2" height="1.9"/>
	<rect x="55.9" y="50.6" width="2" height="1.9"/>
	<rect y="52.5" width="2" height="1.9"/>
	<rect x="12" y="52.5" width="2" height="1.9"/>
	<rect x="16" y="52.5" width="2" height="1.9"/>
	<rect x="20" y="52.5" width="2" height="1.9"/>
	<rect x="24" y="52.5" width="2" height="1.9"/>
	<rect x="26" y="52.5" width="2" height="1.9"/>
	<rect x="28" y="52.5" width="2" height="1.9"/>
	<rect x="33.9" y="52.5" width="2" height="1.9"/>
	<rect x="37.9" y="52.5" width="2" height="1.9"/>
	<rect x="39.9" y="52.5" width="2" height="1.9"/>
	<rect x="45.9" y="52.5" width="2" height="1.9"/>
	<rect x="47.9" y="52.5" width="2" height="1.9"/>
	<rect x="53.9" y="52.5" width="2" height="1.9"/>
	<rect y="54.5" width="2" height="1.9"/>
	<rect x="2" y="54.5" width="2" height="1.9"/>
	<rect x="4" y="54.5" width="2" height="1.9"/>
	<rect x="6" y="54.5" width="2" height="1.9"/>
	<rect x="8" y="54.5" width="2" height="1.9"/>
	<rect x="10" y="54.5" width="2" height="1.9"/>
	<rect x="12" y="54.5" width="2" height="1.9"/>
	<rect x="16" y="54.5" width="2" height="1.9"/>
	<rect x="22" y="54.5" width="2" height="1.9"/>
	<rect x="28" y="54.5" width="2" height="1.9"/>
	<rect x="33.9" y="54.5" width="2" height="1.9"/>
	<rect x="37.9" y="54.5" width="2" height="1.9"/>
	<rect x="39.9" y="54.5" width="2" height="1.9"/>
	<rect x="43.9" y="54.5" width="2" height="1.9"/>
	<rect x="45.9" y="54.5" width="2" height="1.9"/>
	<rect x="53.9" y="54.5" width="2" height="1.9"/>
	<rect x="55.9" y="54.5" width="2" height="1.9"/>
</g>
</svg>
