<?xml version="1.0" encoding="utf-8"?>
<!-- Generator: Adobe Illustrator 27.1.1, SVG Export Plug-In . SVG Version: 6.00 Build 0)  -->
<svg version="1.1" id="Layer_1" xmlns="http://www.w3.org/2000/svg" xmlns:xlink="http://www.w3.org/1999/xlink" x="0px" y="0px"
	 viewBox="0 0 57.8 57.8" style="enable-background:new 0 0 57.8 57.8;" xml:space="preserve">
<style type="text/css">
	.st0{fill-rule:evenodd;clip-rule:evenodd;fill:#78B517;fill-opacity:5.000000e-02;stroke:#78B517;stroke-width:0.72;}
	.st1{fill:none;stroke:#78B517;stroke-width:1.5;}
</style>
<g>
	<path class="st0" d="M12.5,2.1C6.8,3.3,2.5,7.9,1.6,13.7c-0.8,5.3-1.2,10.7-1.2,16c0,5,0.4,9.9,1.1,14.9
		c0.9,6.3,5.9,11.2,12.1,11.9c5,0.6,9.9,0.9,14.9,0.9c5.2,0,10.4-0.3,15.6-1c6-0.8,10.8-5.3,11.9-11.3c1-5.1,1.5-10.3,1.5-15.4
		c0-5.5-0.6-11.1-1.7-16.6C54.6,7.7,50.4,3.4,45,2.2C39.6,1,34,0.4,28.5,0.4C23.1,0.4,17.8,0.9,12.5,2.1L12.5,2.1z"/>
	<g transform="translate(15 18)">
		<path class="st1" d="M1.9,11.7l9.4,7.7l14.5-17"/>
	</g>
</g>
</svg>
