<?xml version="1.0" encoding="utf-8"?>
<!-- Generator: Adobe Illustrator 25.2.0, SVG Export Plug-In . SVG Version: 6.00 Build 0)  -->
<svg version="1.1" id="Layer_1" xmlns="http://www.w3.org/2000/svg" xmlns:xlink="http://www.w3.org/1999/xlink" x="0px" y="0px"
	 viewBox="0 0 254.3 278.2" style="enable-background:new 0 0 254.3 278.2;" xml:space="preserve">
<style type="text/css">
	.st0{fill:#F5978A;}
	.st1{fill:#F3AEA5;}
	.st2{fill:#CA6057;}
	.st3{fill:#E7776E;}
	.st4{fill:#F4C3BD;}
	.st5{fill:#EB8A81;}
</style>
<g>
	<g>
		<g>
			<g>
				<path class="st0" d="M38,164.9c6.6,10.6,11.5,25.8,23.1,29.8c16.6,5.6,9.9-3.1,22.1-1.6c23,2.9,66,6.9,89,9.7
					c13.4,1.7,28,3.1,39.5-4.1c10.4-6.5,16.1-19,17.5-31.4c1.4-12.4-0.8-24.9-3.1-37.2c-4.4-24-8.7-48-13.1-72.1
					c-1.3-7.2-2.7-14.7-7.1-20.5c-7.6-10.2-21.7-12.4-34.2-11.5c-20,1.4-39.3,8.5-59.3,10.3C92,38.4,71.5,34.8,51,34.8
					c-5.5,0-11.4,0.4-15.9,3.7c-2.5,1.9-4.4,4.5-6,7.3c-8.3,14.2-10.8,31.4-9.7,48c1.1,16.6,5.4,32.7,9.9,48.7
					C31.5,150.2,33.8,158.1,38,164.9z"/>
			</g>
		</g>
		<g>
			<g>
				<path class="st1" d="M147.4,124.6c-0.2-3.7-2.5-7.3-3.5-10.7c-3.9-13-12-4.8-21.3-5.1c-6.9-0.2-13.7-3.2-18.7-8.3
					c-1.7-1.7-4.2-2.8-6.4-1.9c0.5,3.9,0.9,7.9,1.4,11.8c0.7,5.6,1.2,11.6-1.4,16.4c-3.5,6.4-12.1,8.2-18.4,5
					c-6.3-3.2-10.2-10.4-11.5-17.7c-1.3-7.3-0.4-14.9,0.8-22.3c1.2-7.5,2.9-15.1,6.9-21.3c4-6.3,10.7-11,17.7-10.3
					c7.5,0.8,13.7,7.4,21.2,8.1c5.1,0.5,10-1.8,14.7-3.9c4.7-2.1,9.9-3.9,14.8-2.6c5,1.3,9.1,7.2,7.2,12.3c-1.1,0.1-2.2,0.2-3.4,0.4
					c-0.6-2-1.2-4-1.8-5.9c-0.8,2.3-4.5,4.4-6.7,5.1c-2.2,0.7-4.8,0.2-6.6-1.3c-1.1,3.6-4.5,6.7-7.9,7.8c-3.3,1.1-6.9,0.9-10.3,0.5
					c-8.8-1-17.6-3.4-25.7-7.2c1.2,11.6-2.9,22.9-7.2,33.6c-1,2.4-2.1,4.8-2.1,7.5c0,2.6,1.4,5.5,3.8,5.9c1.6,0.3,3.3-0.5,4.4-1.8
					c1.1-1.3,1.8-3,2.3-4.6c1.8-5.4,2.6-11.1,2.5-16.9c-0.1-3.1-2.1-8-0.2-10.8c2.4-3.6,10-1.6,13.7-1.4c11.6,0.8,23.2,3.2,34.3,6.9
					c1.8-1,5-0.7,6.6,0.5c1.7,1.2,2.8,3,3.8,4.8c5.1,9.4,6.7,21,4.4,31.7c-1.1,5.1,4.5,12.9,9.4,12.6c3.8-0.2,6.7-3.5,10.3-4.7
					c5.9-1.9,11.8,2,17.1,5.3c5.3,3.2,12.3,5.9,17.2,1.9c1.5,1.3,1.2,4.2-0.3,5.6c-1.5,1.4-3.6,1.6-5.6,1.3
					c-1.9-0.3-3.8-1.1-5.8-1.3c-8.8-1.2-16.1,7.1-24.6,9.7c-8.3,2.5-18-1.1-23-8.7c-2.7-4-4.2-8.9-4.3-13.9c-0.1-4,1.8-7.2,2.1-11
					C147.4,125.4,147.4,125,147.4,124.6z"/>
			</g>
		</g>
		<g>
			<g>
				<path class="st1" d="M141.6,130.7c0.3-2.7,0.6-5.5,0.2-8.2c-0.4-2.7-1.6-5.4-3.6-7c-2.1-1.6-5.2-1.7-7.1,0.1
					c-1.7,1.7-2.1,4.7-1.2,7.1c1.6,4.4,5.1,5,4.5,10.4c-0.4,3.6-2.5,7.1-5.7,8.5c-3.2,1.5-6.8,1.1-10.2,1.2c-9.5,0.5-16,8.9-20,17.4
					c-1,2-1.8,4.2-1.7,6.5c0.1,2.3,1.2,4.6,3.2,5.5c2.5,1.1,5.3-0.7,7.1-2.9c1.7-2.2,2.9-4.9,4.8-7c5.1-5.5,13.7-4.3,19.9-8.1
					c4.3-2.6,7.2-7.5,8.5-12.6C141.5,136.5,141,136,141.6,130.7z"/>
			</g>
		</g>
		<g>
			<g>
				<path class="st1" d="M124.2,140.6c3.1-0.3,5-4.2,4.7-7.5c-0.3-3.3-2.2-6.2-4-8.9c-2.2-3.3-4.5-6.7-7.6-8.8
					c-3.2-2.2-7.5-2.8-10.6-0.6c-1.8,2.5-0.7,6.3,1.3,8.6c2,2.3,4.6,3.9,6.5,6.4c1.5,2.1,2.4,4.7,3.8,6.9
					C119.5,138.9,121.8,140.8,124.2,140.6z"/>
			</g>
		</g>
		<g>
			<g>
				<path class="st1" d="M73.7,138.2c2.2-2.4,5.8-1.8,8.9-1.5c7.9,0.6,16-2.2,22.1-7.8c3.4,2.2,4.1,7.6,2.4,11.6
					c-1.7,3.9-5.2,6.5-8.8,8.5c-3.7,2.1-7.7,3.7-11.9,3.8c-4.2,0.2-8.5-1.2-11.5-4.4C72.3,145.7,71.2,140.9,73.7,138.2z"/>
			</g>
		</g>
		<g>
			<g>
				<path class="st1" d="M39.9,62.5c3-1.7,7-2.8,10.3-3.3c4.1-0.7,8.5-0.5,12.3,1.3c3.7,1.8,10.8,9,5,12.3
					c-3.4,1.9-7.3-0.7-11.1-1.2c-5.1-0.7-13.5,6.9-17.6,2.8c-1.2-1.2-1.7-3-1.8-4.7C36.7,66.3,37,64.2,39.9,62.5
					C39.8,62.5,39.9,62.5,39.9,62.5z"/>
			</g>
		</g>
		<g>
			<g>
				<path class="st1" d="M169.9,55.7c-5.7,5-11.7,10.6-12.8,18.4c-0.8,6.2,2,12.7,6.9,16.1c4.8,3.4,11.4,3.7,16.6,0.9
					c5.2-2.8,8.9-8.4,9.8-14.6c0.2-1.5,0.3-3.1-0.5-4.4c-1.2-2-4.1-2.1-6.1-0.9c-2,1.2-3.2,3.4-4.5,5.4c-1.3,2-2.8,4-5,4.8
					c-3.6,1.2-7.6-1.9-8.5-5.9c-0.9-4,0.8-8.2,3.3-11.2c2.5-3,5.9-5.1,9.1-7.2c3.2-2.1,6.5-4.3,8.8-7.6c0.7-1,1.4-2.2,1.5-3.6
					c0.1-1.3-0.6-2.8-1.7-3.2c-1.4-0.5-2.8,0.6-3.9,1.6C178.5,48.2,174.2,52,169.9,55.7z"/>
			</g>
		</g>
		<g>
			<g>
				<path class="st1" d="M163.3,131.1c-0.1,1.9,2.5,2.9,4,1.8s2-3.1,2.3-5c0.2-1.9,0.3-4,1.4-5.6c1.2-1.9,3.5-2.7,5.6-2.8
					c2.1-0.1,4.2,0.5,6.4,0.9c5,0.8,10.4,0,14.7-2.9c4.3-2.9,7.4-8.2,7.3-13.7c-0.1-5.5-3.9-10.9-9-11.7c-4.5-0.8-8.9,1.8-12.9,4.1
					c-4.1,2.3-8.8,4.3-13.1,2.5c-2.8-1.2-5.3-4.1-8.3-3.4c-3.1,0.8-4.1,5.4-2.5,8.3c1.6,2.9,4.8,4.4,7.9,5
					c8.7,1.8,18.1-1.4,24.4-8.1c0.7,2.1,0,5.4-1.6,6.9c-1.5,1.5-3.5,2.3-5.5,2.9c-6.4,1.9-13.3,2.3-19.9,1.2
					C159.8,116.7,158.8,125.6,163.3,131.1z"/>
			</g>
		</g>
		<g>
			<g>
				<path class="st1" d="M195.4,124.6c3.1,0.1,6.1,0.9,8.9,2.5c1.9,1.1,3.8,2.8,3.9,5.1c0.1,2-1.3,3.8-3,4.7c-1.7,0.9-3.6,1-5.5,1.1
					c-2.9,0.2-5.9,0.3-8.6-0.9c-2.7-1.2-4.9-4.3-4.2-7.4c0.4-1.9,1.7-3.4,3.3-4.2C191.8,124.7,193.6,124.5,195.4,124.6z"/>
			</g>
		</g>
		<g>
			<g>
				<path class="st1" d="M43.4,93.3c4.1-1.6,8.1,0.3,9.1,5.6c0.7,4-1.2,7.7-0.5,11.5c0.7,4.5,0.8,8.9,1.3,13.4
					c0.6,4.8,2.3,9.8,6.1,12.5c3,2.1,7.8,1.9,9.3-1.6c1.5-3.6-1.3-7.4-3.3-10.7c-3.3-5.4-4.7-12-4.1-18.4c0.4-3.7,1.5-7.3,1.8-11
					s-0.5-7.8-3.1-10.3c-4.1-3.8-10.4-1.8-15.5,0.5c-2.2,1-7.8,2.8-8.3,5.8c-0.8,4.4,3.5,4.4,6.1,3.1C42.7,93.6,43.1,93.4,43.4,93.3
					z"/>
			</g>
		</g>
		<g>
			<g>
				<path class="st1" d="M50.3,139.8c0.6-10.2,0-20.6-2-30.6c-0.5-2.5-1.2-5.3-3.3-6.4c-2.3-1.3-5.4,0.2-6.7,2.7
					c-1.3,2.5-1.1,5.6-0.3,8.3c0.8,2.7,2.1,5.2,3.1,7.9c2.2,5.9,2.6,12.6,1.1,18.8c-0.6,2.5-1.4,5.4,0.3,7.3c1.6,1.8,4.6,1,6-0.9
					C49.9,144.9,50.2,142.2,50.3,139.8z"/>
			</g>
		</g>
		<g>
			<g>
				<path class="st1" d="M101.8,191.3c-4.2,1.7-9.6,3.2-12.8-0.2c-4-4.2-1.5-12.6-5.7-16.5c-4.5-4.1-11.3,0.8-17.2-0.2
					c-5.4-0.9-8.8-6.9-9.9-12.7c-0.9-4.9-4.3-13.1,1-16.5c2.6-1.7,6.4-1,8.3,1.6c1.7,2.2,1.9,5.3,3.2,7.9c1.3,2.5,3.6,4.4,6.2,5
					c5,1.2,7.6-5.9,11.9,0.9c1.5,2.4,2,5.4,2.9,8.1c2,6.1,10.2,11.1,16.2,9.7c4.1-1,7.1-4.7,10.7-7.1c3.6-2.4,9.3-2.8,11.1,1.2
					c1.2,2.6,0.1,5.8-1.8,7.8c-1.9,2-4.4,3-6.9,4C113.2,186.7,107.5,189,101.8,191.3z"/>
			</g>
		</g>
		<g>
			<g>
				<path class="st1" d="M141.1,151.7c-3,1.2-5.8,5.1-6.3,10c-1.1,12.3,10,10.9,15.9,16.6c2.9,2.8,4.4,7,6.3,10.7
					c1.8,3.6,4,7.2,7.2,9.4c3.2,2.3,7.5,3.1,10.9,1.2c3.8-2.1,5.6-7,5.6-11.6c-0.1-4.6-1.7-9-3.3-13.2c-1-2.6-2-5.3-3.8-7.3
					c-1.8-2-4.6-3.3-7.1-2.3c-3.7,1.4-4.6,7-2.8,10.7c1.8,3.7,5.4,6,8.8,8.1c-3.5,1.4-9.1-2.5-11-5.9c-2-3.4-3.2-7.5-6-10.1
					c-1.2-1.1-2.7-1.9-3.8-3.2c-1.5-1.8-2-4.3-2.6-6.6C147.5,152.1,144.2,150.5,141.1,151.7z"/>
			</g>
		</g>
		<g>
			<g>
				<path class="st1" d="M189.8,160.2c-0.8-2.5-3.2-4.3-5.7-4.3c-2.5,0.1-4.8,2-5.5,4.5c-1,3.8,1.4,7.6,3.6,10.8
					c1.4,1.9,2.9,4,4.9,5.1c2,1.1,4.8,1.2,6.4-0.6c1.7-1.9,1.4-5.1,0.6-7.6C192.7,163.8,193.2,163,189.8,160.2z"/>
			</g>
		</g>
		<g>
			<g>
				<path class="st1" d="M152.4,88.6c-1.6-0.4-3-1.3-4.7-1.7c-1.9-0.5-3.9-0.2-5.9,0c-2,0.2-4,0.3-5.8-0.7c-1.8-1-3-3.3-2.2-5.3
					c0.6-1.5,2-2.3,3.4-2.8c4-1.5,8.6-1.5,12.3,0.7c2.9,1.8,6.4,6.2,4.8,10.1C153.6,88.9,153,88.8,152.4,88.6z"/>
			</g>
		</g>
		<g>
			<g>
				<path class="st1" d="M193.2,52.1c-4,0.4-7.8,3.8-10.3,6.8c-1.3,1.5-1.7,4-0.6,5.6c3.7-0.3,7.9-0.3,10.3,2.7
					c2.3,2.8,1.9,7,1.1,10.6c-0.5,2.2-0.8,5.1,1.1,6.2c1.2,0.7,2.7,0,3.6-1c0.9-1.1,1.3-2.5,1.7-3.9c1-3.5,2-7,3-10.5
					c2.1-7.4,0.2-15.3-8.2-16.5C194.4,52.1,193.8,52,193.2,52.1z"/>
			</g>
		</g>
		<g>
			<g>
				<path class="st1" d="M215.6,176.5c-1.2,5.9-5.6,10.6-10.5,14c-4,2.7-8.8,4.8-13.6,4c-4.8-0.8-9-5.6-7.8-10.3
					c4.3,2.6,10.4,1.9,14-1.7c3.5-3.6,4.1-9.7,1.4-14c-1.5-2.3-3.8-4.3-3.6-7c0.2-1.9,1.7-3.4,3.5-4c1.8-0.6,3.8-0.3,5.6,0.2
					C212.2,160,217.2,168.7,215.6,176.5z"/>
			</g>
		</g>
		<g>
			<g>
				<path class="st1" d="M70.8,182c-1.6-2.6-4.4-4.1-7.3-5.1c-2.9-1-5.9-1.6-8.6-2.9c-2.7-1.3-5.3-3.5-5.9-6.5
					c-1.1,4.6-0.5,9.5,1.8,13.6c2.2,4.1,6.1,7.4,10.5,8.9c1.9,0.7,4,1,6,0.6c2-0.5,3.8-1.8,4.4-3.8C72.1,185.3,71.7,183.5,70.8,182z
					"/>
			</g>
		</g>
	</g>
	<g>
		<g>
			<path class="st2" d="M251.6,154.3c4.6-6.8,0.7-22.4-4.2-25.7c2.1-5.5,2.7-13.6-3.2-18c2-5.9,0.9-12.3-3.4-16.9
				c3.3-6.6,3.9-12.1,0-17.6c2.9-3.4,3.9-11.7,0-16.7c3.7-6.9,2-14-1.9-18.2c1.4-4.3,2.1-11.8-1.8-15.9c0.7-4.1,0.8-6.6-1.4-10.1
				c-2.2-3.5-6.7-6.5-10.6-7.8c-1.6-0.5-3-2.3-4.3-3.3c-3.8-3.1-8.9-4.5-13.7-3.8c-4.8,0.6-10.6,3.2-13.5,7.1
				c-5.1-0.9-14.1,2.9-16.7,7.4c-6.6-1.5-13.2,2.5-16.5,5.8c-5-2.5-10.5-0.5-14.7,3.1c-3.7-2.4-10-1-13.8,1.4
				c-3.9-1.9-12-1.8-14.6,1.1c-4.4-3.2-12.5-3.6-16.7-0.6c-4.5-4.2-11.8-4.8-17-3.3c-3.1-3.6-8.6-6.3-13.3-5
				c-3.5-4.4-8.4-6.6-13.9-5.5C54.5,8.5,49.4,7,45.7,6.5c-3.4-3.9-7.8-6.8-12.9-6.4c-8.7,0.8-16.6,6-21.7,13.1
				c-2,2.8-3.7,6.7-2.6,9.9c-2.9,3.1-4.7,7-5.2,11.2c-0.5,4.2-0.2,9.4,1.8,13.1c-3.3,6.4-3.5,15-0.5,21.6
				c-2.9,5.8-3.3,13.4-0.8,19.4c-3.5,5.7-3.7,14.1-0.8,20.1c-1.9,2.6-3,5.8-3,9c0,3.2,1.6,7,3.4,9.6c-0.9,3.2-0.7,6.7,0.6,9.8
				c1.3,3.1,4.3,5.7,7.3,7.2c0,0-1.1,4.4,0.6,9.2c2,5.5,5.9,5.5,5.9,5.5c-0.8,2.8,0.1,10.6,5.8,14.3c5.7,3.7,13.9,3,18.9-1.6
				c1.8-1.7,4.4-3.8,6.8-4.5c3.8-1.1,8.5-2.6,10.2-6.2c1.7-3.6,1.5-8-0.4-11.5c-1.9-3.5-4.6-6-8.4-7.2c0,0-0.1-4.6-1.9-7.5
				c-1.8-2.9-5-3.7-5-3.7c1.7-4.3,0.6-10.2-3.3-12.4c2.7-5,3.8-10.7,0.2-15.1c2.7-4.6,3.1-12.9,0.4-17.4c3.6-4.6,4.2-11.8,1.2-16.8
				c2.8-4.4,3-10.1,1.2-15.1c0.7,0,2.8-0.3,3.9-1.4c3.6,3.7,11.8,4.6,16.5,2.6c3.5,4.6,10.6,7.1,16.4,5.3c2.5,3.9,14.7,5.9,18.4,1.7
				c3.3,4.7,17.3,3.6,20.1,1.4c3.3,2.7,15.9,2.7,19.2-1.6c5,2.7,12.2-0.8,13.8-2.7c5.5,2,12.6,0.7,16.4-3.7c2.5,0.7,5.7,0.9,8.2,0.3
				c5-1.2,8.8-4.8,10.1-7.1c2.1,0.9,9,0,11.6-2.3c-2.6,4.1-1.3,13.2,0.9,16.3c-1.5,5.6-1.2,11.4,2.6,15.7
				c-2.4,6.9-1.7,14.6,2.9,20.2c-5.2,8.1-1,17.2,2.9,19.4c-1.9,5.6-1,14.5,3.4,18.4c-2.6,6.6,0,16.2,5.7,20.9
				c-3.4,4.5-4.5,11.7-0.5,17.1c-4.4,1.3-7.3,6-7,10.3c-2.9-1-11.3,0.3-13.8,6.1c-4-2-12.8-0.5-16.3,2.1c-3.9-2.4-7.2-3.3-11.5-1.7
				c-1.9-4.7-9-6-14.1-5.5c-0.2-2.8-3.2-6.9-5.4-8.8c-2.1-1.9-5-2.9-7.9-2.8c-0.7-2.8-2.8-5.6-5.2-7.3c-2.3-1.7-5.2-2.7-8.1-2.6
				c-5-2.3-10.6-4.3-16.1-4.2c-10.7,0-19.9,8-23.8,17.8c-2.9,7.4-3.4,16.5-2.6,24.3c0.4,3.8,2.8,6.6,3.1,10.2
				c0.4,5.1-0.9,10.1-0.8,15.1c0.2,6.5,1.4,12.9,3.6,19c1.9,5.1,4.9,9.3,7.3,14c0.7,1.4,2.3,11.4,2.3,15.8c0,0.9,3.8,1.7,8.4,1.7
				c4.6,0,8.3-0.7,8.3-1.7c0-3.2,1.1-8.1,1.3-8.7c1.3-4,3.4-7.5,5.2-11.2c2.1-4.1,3.4-8.5,4.7-12.9c1.5-4.8,2.6-9.7,3-14.7
				c0.4-4.5,1.7-8.4,0.9-13.1c-0.1-0.6,1.8-2.2,1.6-4.7c3.5,4.1,8.7,5.2,13.9,4c1.1,4.6,5.2,7.8,8.5,9.3c3.3,1.5,8.8,1.4,12.2,0
				c2.3,2.9,6,4.3,9.6,4.6c3.7,0.3,7.8,0,11.2-1.9c5.7,3.1,16,2.2,21.9-2.3c4.9,1.2,18.1-2.9,19.2-9.7c6.5,1.5,16-9.4,14.2-15.5
				c8.7-3.1,11.4-15.5,7-21.9C254.5,169.7,256,161.7,251.6,154.3z"/>
		</g>
		<g>
			<path class="st3" d="M37.4,51.9c0.7,1.6,0.2,0.3,0.4,2c5.3,4.7,2.3,12.1-0.6,13.4c2.2,2.5,3.2,6.2,3.3,9.5s-1.1,6.7-3.1,9.3
				c3.1,5.2,2.7,12.4-0.1,17.8c1.9,2.4,2.5,5.5,2.3,8.5c-0.2,3.1-1.5,6.1-3.6,8.3c1.8-0.5,3.7,0.8,4.9,2.3c1.2,1.5,1.6,3.5,1.4,5.3
				c-0.3,1.9-1.1,3.6-2.2,5.2c1.8-0.6,4.1-0.3,5.6,0.9c1.5,1.2,2.4,3,2.7,4.8c0.4,1.8,0.2,3.8-0.1,5.6c3.6,0.3,6.9,3.3,8.1,6.7
				c1.2,3.4,0.3,7.5-2.3,10c-1.4,1.3-7.1,1-10.2-2.4c-3.2-0.5-4.8,1.9-6.4,1.3c3.1,4.3,2,10.4-1.8,11.6c-3.8,1.2-8.3,0.2-11.3-2.5
				c-2-1.8-3.3-4.2-3.5-6.9c-0.2-2.6,0.8-5.4,2.8-7.1c-2,1.5-5.3,1.2-7.5,0c-1.4-0.8-2.5-2-3.1-3.5c-1.5-3.4-0.2-7.9,3-9.9
				c-3.9,0.6-8.2-2-10.1-5.4c-1.9-3.4-1.1-8.2,2-10.6c-2.1-0.1-3.7-2-4.7-3.8c-1.2-2.2-1.6-4.9-1.1-7.3c0.5-2.5,1.8-4.8,3.7-6.4
				c-2.1-3.3-3.5-7.7-3.3-11.7c0.2-3.9,2.1-7.9,5.4-10c-2.7-2.5-4.7-5.9-4.6-9.6c0.1-3.7,2-7.3,4.9-9.6C5,65.1,3,61.1,3.3,57
				c0.3-4.1,2.7-8,6.2-10C6.4,44.9,3.9,40.5,4,36.7c0.1-3.8,1.3-10,6.4-12c-0.3-3.4-0.6-4.9,1.1-7.8c1.7-3,3.2-7.4,6.3-8.8
				c5.2-2.4,6.9-5.7,12.5-6.9c6.2-1.3,11.1,3.2,14.4,7.4c7.2-2.7,10.5,5.5,10.2,6c3.1-1.4,5.6-2.9,8.5-1.1c2.9,1.8,4.7,5,4.8,8.4
				c1.7-2.9,5.4-3.7,8.6-2.6c3.2,1.1,5.4,4.2,6.1,7.5c2.4-2.4,5.6-3.9,8.9-3.3s6.3,3,7.7,6.1c2.3-2.3,5.5-4.4,8.8-4.3
				s6.4,1.5,8.6,3.9c1.8-2.5,4.8-4.2,7.9-4.2c3.1,0,6.1,1.6,7.9,4.1c1.2-2.4,3.3-4.3,6-4.7c2.7-0.4,5.5,0.6,7.4,2.6
				c1.6-2.5,4.4-4.5,7.3-5c2.9-0.5,6,0.3,8.3,2.1c1.4-3,4.3-5.8,7.4-6.9c3.1-1.1,6.7-0.9,9.7,0.6c0.8-3.2,3.4-5.6,6.5-7
				c3-1.4,6.7-1.4,9.7,0c0.7-2.9,2.8-5.1,5.5-6.5c2.6-1.4,5.7-1.8,8.6-1.4c4.2,0.5,8.2,2.5,11.2,5.5c4.1,0.2,8.7,2.4,11.4,5.4
				c2.7,3,4.1,7.2,3.9,11.3c2.9,5.6,2.4,13.6-1.6,18.5c2.6,1.7,4.7,4.2,4.5,7.2c-0.2,3-2.1,5.9-4.9,7.3c2.3,1.3,4.6,3,5.8,5.3
				c1.2,2.3,1.6,5.2,0.8,7.7c-0.9,2.5-3,4.6-5.6,5c1.9,0.3,3.4,2.1,4.4,3.7c1.1,1.6,1.5,3.6,1.6,5.6c0,1.6-0.2,3.3-1.2,4.7
				c-0.9,1.3-2.6,2.3-4.2,1.9c2.6,1.7,4.9,5.4,5.2,8.5c0.4,3.1-0.7,6.4-2.9,8.6c4,0.9,7.4,5.1,8.5,9c1,3.9-2.6,8.6-5.6,11.3
				c6.8,1.6,9.3,7,10.1,11.8s-0.4,9.9-3.3,13.7c3.4,4.4,5.2,10.5,4.2,16c-0.6,3-2.2,6.2-5.1,7.2c1.7,2.4,2.4,4.5,2.3,7.4
				c-0.2,5.1-2.8,9-6.8,11.9c-0.3,0.2-3.2,2.3-3.5,1c0.8,3.4,0.5,6.5-1.9,9.3c-2.4,2.8-5.6,3.9-9,3c-1.3,4.3-3.6,7.6-7.8,9.6
				c-3.9,1.8-8.7,1.6-12.4-0.6c-1.7,3.5-5.3,5.9-9.1,6.5s-8-0.8-10.6-3.7c-3.1,2.5-7.2,4.1-11.2,3.4c-4-0.7-7.6-3.1-9.7-6.6
				c-0.6,1.2-2.1,1.8-3.4,2.1s-2.6,0.2-3.9-0.1c-5.1-1.2-9.3-5.3-10.7-10.3c-2.5,1.6-6.2,1.1-9,0.3c-2.9-0.8-5.4-2.9-6.6-5.6
				c-3.9,1-8.1,0.2-11.8-1.2c-3.7-1.5-6.9-4.1-9.1-7.5c-2.8,0.6-6.3-0.2-8.8-1.7c1.9,2.4,4.1,4.5,7.1,5.3c2.4,3.7,5.7,7.2,9.7,9.1
				c-1.8,2.6-4.4,4.4-7.6,5c4.4,0.1,8.9-0.5,12.4-3.2c1,4,0.4,13.1,0,16.2c-1,7.1-4.2,13.6-6.1,20.5c-1.9,6.6-10.6,12.4-17.4,11.7
				c-3.2-0.3-5.8-4.7-7.3-7.2c-2-3.3-3.4-6.9-4.4-10.5c-2.1-7.4-2-15.5,0.4-22.8c1.6-5.1,0-11-1.6-16.2c-1.5-5.2-3-10.7-1.4-15.9
				c2.6-8.3,6.6-16.6,13.6-21.9c4.1-3.1,9.3-4.8,14.4-4c5.1,0.7,8.8,1.5,11.9,5.6c2.1-1.4,6.3,0.8,8.3,2.3c2,1.5,3.1,4,3.5,6.5
				c3.3-1.4,7.6,0.3,9.8,3c2.3,2.7,3.2,6.4,3.5,9.9c2.4-1.8,5.9-2.4,8.6-1c2.7,1.4,4.8,3.8,6.6,6.2c2.6-1.1,6-1.6,8.7-0.7
				c1.5,0.5,3,1.4,3.5,2.9c4.5-3.9,11.3-5,16.8-2.7c1.9-3.7,6.5-6.4,10.6-6.5c1.6,0,3.3,0.4,4.3,1.6c-0.5-4.8,2.4-10.4,6.4-13
				c-1-3-2-6.7-1.9-9.9c0.1-3.2,1.3-6.5,4-8.2c-5.6-5.2-8.5-14.1-7.3-21.7c-2.4-2.5-3.7-6.5-4.1-9.9c-0.4-3.4,0.4-7,2.2-10
				c-1.4-0.8-2.2-2.3-3.2-3.7c-1.6-2.3-2.4-5.2-2.1-8c0.3-2.8,1.6-5.5,3.6-7.5c-1.5-0.6-2.8-2.3-3.9-3.6c-1.9-2.3-2.9-5.5-2.7-8.5
				c0.2-3,1.6-6,3.9-8c-2.7-1.1-4.6-4.2-5.2-7c-0.6-2.8,0.2-5.9,2.1-8.1c-2.1-2.7-3.1-6.2-3.1-9.6c0-3.4,1.2-6.9,3.3-9.6
				c-5.1,3-11.6,2.8-17.4,1.6c-1.6,3-6,5.6-9.1,6.7c-3.2,1.1-6.8,0.9-9.9-0.6c-1.5,2.2-4.2,3.5-6.8,4.1c-2.6,0.6-5.4,0.2-7.7-1.2
				c-2.2,2-4.2,4.1-7.1,4.7c-2.9,0.6-6.2-0.1-8.1-2.3c-2.2,2.5-5.3,3.6-8.5,4c-3.3,0.4-6.7-0.3-9.5-2.1c-2.5,2.3-5.9,3.5-9.4,3.7
				c-3.4,0.2-6.9-0.8-9.7-2.9c-2.6,1.8-6.4,2.5-9.6,2.2c-3.2-0.3-6.2-1.7-8.5-3.9c-3,1.1-6.7,0.6-9.7-0.5c-2.9-1.1-5.5-3.2-7.1-5.9
				c-2,1.4-5,2.4-7.4,2.2c-2.5-0.2-9.6-0.3-11.2-5.5C43.1,48.8,43.5,54.3,37.4,51.9z"/>
		</g>
		<g>
			<path class="st2" d="M41.7,171.6c-0.1-6.8-5.6-14.7-12-17.2l-0.5-0.2l0-0.5c0.1-5.6-3.1-10.5-8.3-12.7l-0.7-0.3l0.3-0.7
				c1-2.4,0.5-5.3,0-7.6c-0.6-2.5-2-4.7-4-6.4l-0.4-0.4l0.2-0.5c1.6-3.8,3.1-11.1,0.1-14.7l-0.3-0.4l0.3-0.4
				c3.9-6.3,4.3-12.5,1-19.1l-0.2-0.4l0.2-0.3c3.6-6.1,3.7-15.2,0.3-21.8l-0.2-0.4l0.2-0.4c3.2-5.1,3.2-12.3,0.1-17.6l-0.2-0.4
				l0.2-0.4c2.4-3.8,3.4-9.2,2.5-14.7c0,0,2.3,1.2,2.7,2.1c0.6,1.1,3.7,9.3,8.1,10.4c3.7,0.9,4.3,2.4,2.9,3.9
				c-1.8-2.2-3.4-0.5-3.4-0.5c-4,5.3-4.4,12.7-1.1,18.1l0.2,0.3l-0.1,0.3c-0.2,0.6-0.5,1.3-0.7,1.9c-0.8,2-1.6,4.1-1.7,6.2
				c-0.2,3,0.6,5.6,2.2,7.4l0.3,0.4l-0.3,0.5c-0.2,0.3-0.3,0.6-0.5,0.8c-1.2,2.1-2.5,4.3-2.8,6.6c-0.5,3,0,10.9,1.6,12.5l0.5,0.5
				l-0.5,0.5c-2.8,2.8-4.1,6.5-3.4,9.9c0.4,2.1,1.6,3.7,2.9,4.2l0.9,0.3l-0.5,0.8c-1.5,2.2-2,4.3-1.5,6.4c0.8,3.1,3.8,5.2,5.2,5.9
				l0.6,0.3l-0.2,0.6c-1.1,3.4-0.8,6.5,0.9,8.8c1.7,2.4,4.7,3.9,7.7,3.9c0.1,0,0.2,0,0.3,0l0.9,0l-0.1,0.9
				c-1,7.7,2.4,13.6,10.2,17.4L41.7,171.6z"/>
		</g>
		<g>
			<path class="st1" d="M51.5,166.4c-7.9-3.8-11.8-9.9-10.7-18.2c-5.4,0.2-12.6-4.7-9.6-13.7c-3-1.4-8.9-6.6-4.1-13.4
				c-3.9-1.5-5.7-9.5,0.2-15.3c-1.9-2-2.2-10.4-1.8-13.2c0.4-2.7,2-5.3,3.4-7.7c-1.9-2.1-2.6-5.1-2.4-8s1.5-5.6,2.5-8.3
				c-3.6-5.7-2.9-13.5,1.1-18.9c-1.5-0.9-2.7-2.4-3.3-4.1c-0.6-1.7-1.1-1.4-0.6-3.1c-2.2-1.8-3.7-5.9-5.1-8.4
				c0.8,5.1,0.2,10.8-2.6,15.2c3.2,5.5,3.2,13.1-0.2,18.4c3.5,6.6,3.5,16.1-0.3,22.5c3.4,6.8,3,13.3-1,19.8c3.3,4.1,1.6,11.8,0,15.5
				c2.1,1.7,3.6,4.1,4.2,6.8c0.6,2.6,1.1,5.5,0,8c5.5,2.4,8.8,7.5,8.7,13.4c6.6,2.6,12.4,10.7,12.5,17.9c4.2,3,7.9,7.3,9.5,12.2
				c0.7,2,1.4,4.5,3.5,5c2,0.6,4.1-1.3,4.4-3.3c0.3-2.1-0.7-4.1-2-5.8c-1.3-1.6-2.9-3-4.1-4.7C52.1,172.5,51.2,169.4,51.5,166.4z"/>
		</g>
		<g>
			<path class="st4" d="M56.3,187.8c-0.2,0-0.3,0-0.5-0.1c-1.4-0.4-2.1-2.4-2.7-4.1l-0.1-0.3c-1.6-4.6-4.9-9-9.5-12.4
				c-0.4-7.1-5.9-15.1-12.5-18c-0.2-5.7-3.3-10.7-8.5-13.3c0.7-2.6,0.2-5.5-0.3-7.7c-0.6-2.6-2-5-4-6.8c2.7-6.9,1.6-12.6,0-15.2
				c3.8-6.5,4.2-12.9,1-19.7c3.5-6.4,3.6-15.6,0.3-22.5c3.1-5.4,3.2-12.8,0.2-18.4c1.9-3.2,2.6-3.3,2.5-7.5c0.7,1.6,1.7,2.9,2.9,4.3
				c1.1,1.3,2.1,2.8,3.4,3.9c-3.7,5.7-4.1,13.1-0.8,18.8c-0.2,0.4-0.3,0.9-0.5,1.4c-0.8,2.2-1.7,4.4-1.8,6.7c-0.2,3.2,0.6,6,2.2,8.1
				c0,0.1-0.1,0.1-0.1,0.2c-1.3,2.3-2.6,4.6-3,7.2c-0.3,2.3-0.3,10,1.5,13.2c-2.8,3.1-4,7.1-3.2,10.9c0.4,2.1,1.5,3.9,2.9,4.9
				c-1.3,2.3-1.7,4.6-1.1,6.9c0.9,3.3,3.5,5.5,5.4,6.6c-1.3,4.5,0,7.7,1.4,9.6c1.9,2.6,5,4.3,8.3,4.6c-0.6,7.7,3.1,13.8,10.7,17.8
				c-0.1,2.9,0.8,6,2.7,8.6c0.7,1,1.6,1.9,2.4,2.8c0.6,0.7,1.2,1.3,1.7,2c1,1.2,2,3.1,1.7,4.9C58.6,186.6,57.4,187.8,56.3,187.8z"/>
		</g>
		<g>
			<path class="st5" d="M30.5,164.3c1.3-0.3,2.2-1.5,2.2-2.7c0.1-1.2-0.7-2.3-1.7-3.1c-1.1-0.7-2.4-1-3.8-1c-1.7,0-3.5,0.7-4,2.1
				c-0.4,1,0.2,2.2,1.1,3c0.9,0.8,2.1,1.2,3.3,1.5C28.5,164.4,29.5,164.6,30.5,164.3z"/>
		</g>
		<g>
			<path class="st2" d="M118,45.9c-2.7-2-6.5-3.1-10.6-3.1c-3.2,0-6.3,0.7-8.9,2L98.1,45l-0.4-0.3c-2.4-1.9-5.8-3.3-8.4-4.2
				c-1.5-0.6-3.1-0.8-4.7-0.8c-1.2,0-2.4,0.2-3.6,0.5l-0.4,0.1L80.4,40c-3-2.4-7.8-3.8-12.7-3.8c-1.3,0-2.6,0.1-3.8,0.3l-0.4,0.1
				l-0.3-0.4c-1.7-2.3-5.3-3.8-9.2-3.8c-1.7,0-3.3,0.3-4.6,0.9l-0.5,0.2l-0.4-0.5c-2.8-3.7-9.1-6.9-13.8-6.9c-0.2,0-0.4,0-0.6,0
				l-0.4,0l-0.2-0.4c-5-8.3-12.3-13.5-20.6-14.7L21.3,4c3.7,6.8,11.7,11.5,19.1,11.5l0.8,0l0,0.8c0,1.2,0.4,2.4,1.3,3.3
				c1.9,2,5.6,3,8.2,3c0.5,0,1,0,1.2-0.1l0.6-0.2l0.3,0.5c2.5,4.7,7.4,5.2,9.3,5.2c1.8,0,3.1-0.4,3.6-0.7l0.8-0.5l0.3,0.9
				c1.2,3.3,7.6,4.5,11.6,4.5c1.4,0,2.5-0.1,3.1-0.4l0.4-0.1l0.3,0.2c3,2.3,7,3.6,10.6,3.6c2.1,0,4-0.4,5.6-1.3l0.5-0.3l0.4,0.5
				c2.5,3,6.2,3.6,8.9,3.6c4,0,7.7-1.3,8.8-2.3l0.5-0.5l0.5,0.5c1.4,1.6,3.3,2.4,5.6,2.4c3.7,0,7.5-2.2,8.5-3.7l0.4-0.5l0.6,0.3
				c1.5,0.8,3.4,1.2,5.4,1.2c3.3,0,6.6-1.1,8.8-3l0.5-0.4l0.5,0.4c1.1,0.9,2.5,1.4,4.2,1.4c4.9,0,9.8-3.8,10.1-5.2l0.2-1l0.9,0.6
				c1.1,0.7,2.4,1.1,3.9,1.1c4.5,0,9.7-3.7,10.5-5.6l0.2-0.5l0.5,0.1c0.6,0.1,1.1,0.1,1.7,0.1c6.1,0,12.3-3.3,15.3-8.2l0.3-0.5
				l0.5,0.1c0.7,0.2,1.4,0.3,2.1,0.3c3.8,0,7.7-2.4,10.4-4.3c0.5-0.4,1.1-0.8,1.6-1.3c3.2-2.5,5.3-4.7,9.3-5.5l6.9,4.3
				c-8.4,3.5-17,9.8-24,17.6l-0.3,0.3l-0.4,0c-0.7-0.1-1.5-0.1-2.2-0.1c-6.7,0-13.1,3.1-16.7,8l-0.3,0.4l-0.5-0.1
				c-0.7-0.1-1.6-0.2-2.6-0.2c-4.8,0-10.7,1.5-12.5,4.7l-0.3,0.5l-0.6-0.2c-1.7-0.6-3.4-0.9-5.3-0.9c-4.3,0-8.3,1.5-11,4.1l-0.3,0.3
				l-0.4-0.2c-1.8-0.7-3.8-1.1-6-1.1c-3.4,0-6.6,1-8.9,2.7l-0.3,0.3l-0.4-0.2c-1.8-0.8-3.8-1.2-5.9-1.2c-3.3,0-6.7,1-9.4,2.9
				l-0.4,0.3L118,45.9z"/>
		</g>
		<g>
			<path class="st1" d="M13.1,10.9c-0.1-1.9,0.4-4.4,1.9-5.6c1.5-1.2,3.9-1.5,5.8-1c3.8,6.9,11.8,12,19.7,12
				c-0.2,5.9,9.2,7.7,11.7,6.9c3.5,6.6,11.8,6.2,14,4.8c1.8,4.9,13,5.6,15.7,4.5c4.7,3.5,11.9,5.2,17,2.4c5.3,6.4,16.3,3.5,18.8,1.4
				c4.9,5.4,13.5,1.3,15.3-1.4c4.5,2.2,11.1,1.3,15-1.9c5.3,4.4,14.8-1.6,15.4-4.2c5.7,3.8,14.3-2.1,15.5-4.8
				c6.8,0.7,14.2-2.6,17.8-8.4c4.5,1.1,9.4-1.4,13.1-4.2c3.7-2.8,7.1-6.1,11.6-6.9c2.7-0.1,4.8,1.6,5.3,3.5
				c-9.2,3.8-17.5,10-24.1,17.4c-7.3-0.8-15.2,2.3-19.5,8.2c-4.1-0.7-13.4,0.3-15.9,4.9c-5.6-1.9-12.7-0.7-17.1,3.4
				c-4.9-2-11.4-1.5-15.6,1.7c-5.1-2.3-11.4-1.4-15.9,1.8c-5.4-4-14.2-4.3-20.3-1.2c-2.4-1.9-5.7-3.3-8.6-4.3
				c-2.8-1-5.9-1.2-8.8-0.4c-4.4-3.4-11.6-4.6-17-3.6c-3-3.9-10.2-5.2-14.7-3.1c-3-4.1-10.1-7.5-15.1-7.2
				C29.2,17.5,22.3,12.2,13.1,10.9z"/>
		</g>
		<g>
			<path class="st4" d="M118.5,44c-3-2-6.9-3-11.1-3c-3.2,0-6.4,0.7-9.1,1.9c-2.6-1.8-5.8-3.1-8.4-4.1c-1.7-0.6-3.5-0.9-5.4-0.9
				c-1.2,0-2.4,0.1-3.5,0.4c-3.3-2.4-8.3-3.8-13.4-3.8c-1.2,0-2.3,0.1-3.4,0.2c-2.2-2.5-6.1-4-10.2-4c-1.6,0-3.2,0.3-4.6,0.7
				c-3.3-3.9-9.7-7-14.8-7c0,0-0.1,0-0.1,0c-1.4-2.3-3.1-4.4-5-6.3c-2.7-2.7-5.9-5-9.4-6.5c-0.9-0.4-1.7-0.7-2.6-1
				c-0.8-0.3-1.8-0.3-2.6-0.8c-1.6-0.9-0.5-2.7,0.6-3.6c1-0.8,2.3-1.3,3.5-0.7c0.8,0.3,1.4,1.1,1.9,1.7c0.6,0.8,1.2,1.6,1.9,2.3
				c1.4,1.5,3,2.8,4.6,3.9c3.3,2.2,7.1,3.6,11.1,4c0.2,0,0.5,0,0.7,0c0.2,1.3,0.8,2.5,1.8,3.5c2.4,2.5,6.6,3.6,9.5,3.6
				c0.3,0,0.6,0,0.9,0c2.2,3.5,6,5.5,10.6,5.5c1.3,0,2.5-0.2,3.5-0.5C68,33,74.6,34,78.5,34c0.8,0,2.1,0,3.2-0.3
				c3.3,2.3,7.5,3.7,11.3,3.7c2.1,0,4-0.4,5.7-1.2c2.9,3,6.9,3.6,9.8,3.6c3.6,0,7.2-1,9.1-2.2c1.7,1.5,3.9,2.3,6.3,2.3
				c3.7,0,7.6-1.9,9.5-3.8c1.6,0.7,3.5,1,5.4,1c3.4,0,6.8-1.1,9.3-2.9c1.3,0.9,2.9,1.3,4.6,1.3c3.2,0,6.2-1.4,7.6-2.3
				c0.7-0.4,2.6-1.6,3.6-3c1.2,0.5,2.4,0.8,3.8,0.8c4.8,0,10-3.4,11.8-5.9c0.4,0,0.8,0,1.2,0c6.5,0,13-3.3,16.5-8.4
				c0.6,0.1,1.2,0.1,1.8,0.1c3.5,0,7.3-1.6,11.5-4.7c0.6-0.4,1.1-0.8,1.7-1.3c2.8-2.2,5.8-4.5,9.1-5.3c1.1-0.3,4-0.4,3.4,1.4
				c-0.5,1.3-2,1.7-3.1,2.3c-1.5,0.8-3,1.7-4.4,2.6c-5.5,3.4-10.6,7.5-14.9,12.3c-0.6,0-1.2-0.1-1.8-0.1c-7,0-13.8,3.1-17.8,8.2
				c-0.7-0.1-1.4-0.1-2.3-0.1c-3.8,0-10.8,1-13.6,4.9c-1.6-0.5-3.3-0.7-5.1-0.7c-4.5,0-8.7,1.5-11.7,4.1c-1.8-0.7-3.9-1-6-1
				c-3.6,0-6.9,1-9.5,2.7c-1.9-0.7-3.9-1.1-6-1.1C124.8,41.2,121.4,42.2,118.5,44z"/>
		</g>
		<g>
			<path class="st2" d="M181.7,210.8c-1.8-2-4.3-3.3-6.9-3.6c-0.6-0.1-1.3-0.1-2.1-0.1c-2.6,0-5,0.6-6.5,1.5l-0.6,0.4l-0.4-0.6
				c-2.3-3.5-8.4-7.3-14.3-7.3c-0.8,0-1.7,0.1-2.4,0.2l-0.7,0.1l-0.2-0.7c-1.3-6.2-8.7-8.3-11.1-8.3c-0.1,0-0.2,0-0.3,0l-0.6,0.1
				l-0.2-0.6c-2-6-7.8-10.5-13.8-10.8l-0.3,0l-0.2-0.3c-3.7-4.8-9.2-8.2-15-9.6c-1.6-0.4-3.2-0.5-4.8-0.5c-4,0-7.5,1.2-11.8,3.3
				c0,0,7.2-9.6,9.7-9.6c0.9,0,1.8,0,2.8,0.1c8.9,0.8,17.1,5,21.1,7.5l0.2,0.1l0.1,0.2c1.8,4.1,6.3,8.3,11.3,8.3c0.4,0,0.7,0,1-0.1
				l0.6-0.1l0.2,0.6c1.5,4.9,9.4,10.7,14.5,10.8l0.4,0l0.2,0.4c3.2,5.3,9.5,6.8,12.7,6.8c0.8,0,1.4-0.1,2-0.2l0.4-0.1l0.3,0.3
				c2.5,2.4,4.9,3.5,7.5,3.5c1.5,0,3.2-0.4,5-1.2l0.4-0.2l0.3,0.3c2.2,1.6,4.9,2.4,7.7,2.4c3.2,0,6.6-1.1,9.6-3l0.2-0.1l0.3,0
				c0.7,0.1,1.5,0.1,2.2,0.1c6.7,0,11.6-2.7,14.6-8l0.2-0.4l0.5,0c0.1,0,0.2,0,0.3,0c2.6,0,4.7-1.7,6-3.1c3-3.3,4.6-8.2,4.4-10.9
				l0-0.5l0.5-0.2c1-0.4,2.6-2.8,3.6-6.3c1.5-5.3,1.1-10.5-1.1-13.8l-0.2-0.3l0.1-0.3c2.1-7.4,2.9-18.4-1.9-25.4l-0.2-0.3l0.1-0.3
				c1.6-5.1,0.3-11.8-3.3-16.3l-0.2-0.3l0.1-0.4c1.9-6.2,0.4-13.7-3.5-18.1l-0.3-0.3l0.1-0.4c1.4-6,0.4-13.3-2.5-18.3l-0.2-0.3
				l0.1-0.3c1.3-4.9,0.5-11.3-1.9-16.3l-0.2-0.3l0.2-0.3c1.9-3.4,0.3-12-2.3-14.6l-0.4-0.4L213,44c0.7-1.2,1.2-3.1,0.7-4.6l-0.3-0.8
				l0.8-0.2c2.2-0.4,4.2-1.7,5.5-3.4l1.3,0.7c-0.8,2-1.1,5.1-0.1,7.2l0.1,0.3l-0.1,0.3c-1.3,3.6-0.4,11.1,1.6,14.2l0.2,0.3l-0.1,0.3
				c-2,5.2-1.1,12.1,2.1,16.4L225,75l-0.1,0.3c-1.5,6.7-0.6,12.9,2.5,17.4l0.2,0.3l-0.1,0.3c-1.3,5.1,1.4,13.6,3.5,18l0.1,0.2l0,0.2
				c-0.6,3.5-0.3,7.3,0.9,10.9c1.1,3.3,2.6,5.4,3.7,5.9l0.6,0.3l-0.3,0.6c-2.8,6.3-0.7,20.9,3,26.5l0.2,0.3l-0.2,0.4
				c-3.1,6.8-4.7,16.5-2.1,20.3l0.4,0.6l-0.6,0.4c-4.1,2.8-8.8,9.6-6.4,14.4l0.4,0.8l-0.9,0.2c-3.8,0.9-8.3,4.1-8.8,7.5l-0.1,0.7
				l-0.7-0.1c-0.5-0.1-1.1-0.1-1.7-0.1c-6.2,0-13.9,3.2-17.7,7.4l-0.3,0.4l-0.5-0.2c-2.1-0.9-4.5-1.3-7-1.3c-3.8,0-7.4,1.1-10.2,3.1
				l-0.5,0.4L181.7,210.8z"/>
		</g>
		<g>
			<path class="st1" d="M220.2,200.9c0.6-3.9,5.6-7.2,9.4-8.1c-2.6-5.2,2.2-12.3,6.6-15.3c-2.9-4.2-0.9-14.5,2-21
				c-3.8-5.9-5.9-20.8-3-27.2c-2.7-1.4-6.4-9.6-4.9-17.6c-2.3-4.9-4.9-13.3-3.6-18.5c-3.5-5.2-3.9-11.9-2.6-18
				c-3.4-4.6-4.2-11.8-2.2-17.1c-2.2-3.4-3-11.1-1.7-14.8c-1.1-2.2-0.8-5.5,0-7.7c-1.5,1.9-3.6,3.2-6,3.7c0.5,1.6,0,3.7-0.8,5.2
				c2.8,2.8,4.5,11.8,2.4,15.4c2.4,4.9,3.3,11.5,2,16.8c3.1,5.3,4,12.8,2.6,18.8c4.3,4.8,5.6,12.6,3.7,18.8c3.6,4.5,5.2,11.5,3.4,17
				c4.9,7.1,4.2,18.4,2,26c5,7.2,0.3,19.9-2.8,21.2c0.4,4.9-4.4,15.1-11.4,14.7c-3.7,6.6-10,8.9-17.5,8.3
				c-5.5,3.7-12.7,4.5-18.1,0.6c-5.1,2.3-9.2,1.5-13.3-2.4c-3.3,0.8-11.6-0.4-15.5-6.9c-5.5-0.1-13.6-6.1-15.2-11.3
				c-5.5,0.7-10.9-3.7-13.2-8.7c-6.1-3.7-13.7-6.7-20.8-7.4c-3-0.3-6.1-0.2-8.8,1c-2.7,1.2-4.4,4.6-4.2,7.6
				c5.6-2.8,11.2-4.7,17.3-3.3c6.1,1.4,11.6,4.9,15.4,9.8c6.4,0.3,12.4,5.2,14.5,11.3c2.3-0.2,10.7,1.9,12.2,8.9
				c6.6-1.3,14.6,2.9,17.5,7.4c2.4-1.5,6.3-1.9,9.1-1.5c2.8,0.4,5.5,1.8,7.4,3.9c5-3.5,12.2-4.1,17.9-1.8
				C204.6,203.6,213.7,200.2,220.2,200.9z"/>
		</g>
		<g>
			<path class="st4" d="M182.4,208.9c-2-1.9-4.6-3.2-7.4-3.5c-0.7-0.1-1.5-0.1-2.3-0.1c-2.5,0-4.9,0.5-6.6,1.3
				c-2.9-3.7-9.1-7.3-15.3-7.3c-0.6,0-1.2,0-1.8,0.1c-2-6.3-9.2-8.5-12.2-8.7c-2.4-6.1-8.4-10.7-14.7-11.2c-4-4.9-9.6-8.4-15.8-9.9
				c-1.7-0.4-3.4-0.6-5.2-0.6c-1.8,0-3.6,0.2-5.3,0.6c-0.9,0.2-1.8,0.4-2.7,0.7c-0.7,0.2-1.7,0.7-2-0.3c-0.4-1.2,1.5-2.2,2.3-2.5
				c1.5-0.7,3.3-1,5.5-1c0.8,0,1.7,0,2.7,0.1c6.2,0.6,13.5,3.1,20.1,7c2.8,6,8.6,9.1,12.9,9.1c0.1,0,0.3,0,0.4,0
				c2.2,5.2,9.7,10.8,15.3,11.2c3.4,5.3,9.6,7.1,14,7.1c0.6,0,1.3,0,1.8-0.1c2.7,2.4,5.4,3.6,8.3,3.6c1.6,0,3.3-0.4,5.2-1.1
				c2.4,1.6,5.2,2.4,8.3,2.4c3.5,0,7.1-1.1,10.3-3.1c0.7,0,1.3,0.1,1.9,0.1c7.2,0,12.5-2.8,15.9-8.4c2.5-0.1,5-1.3,7.1-3.7
				c2.8-3.1,4.9-8,4.9-11.6c1.8-1.3,3.2-4.5,3.9-7.1c1.6-5.6,1.2-11.2-1.1-14.9c3.3-11.8,1.1-21.2-2-26c1.5-5.4,0.1-12.2-3.4-17
				c1.8-6.6,0.3-14-3.7-18.9c1.3-6.2,0.3-13.5-2.6-18.7c1.2-5.1,0.4-11.5-1.9-16.7c1.8-4.1,0.3-12.2-2.3-15.6
				c0.5-1.2,0.9-2.7,0.8-4.2c1-0.3,2-0.8,2.9-1.3c-0.1,1.6,0,3.2,0.6,4.7c-1.2,4.1-0.4,11.2,1.6,14.9c-1.9,5.5-1,12.6,2.2,17.2
				c-1.4,6.8-0.5,13.2,2.6,18c-1,5.2,1.1,13,3.6,18.4c-1.2,7.5,1.8,15.3,4.7,17.8c-2.5,7-0.4,20.8,3.1,26.9
				c-2.4,5.6-4.8,15.4-2.2,20.6c-4.2,3.3-8.3,9.6-6.7,14.9c-4.5,1.4-7.8,4.8-8.8,7.7c-0.3,0-0.6,0-0.9,0c-6.4,0-14.2,3.2-18.6,7.5
				c-2.2-0.8-4.5-1.2-7-1.2C189.1,206,185.4,207,182.4,208.9z"/>
		</g>
		<g>
			<path class="st5" d="M23.3,149c0.9-1.2,0.8-2.9-0.2-4c-1-1.1-2.9-1.6-4.5-1.1c-1.6,0.5-2.7,1.9-2.7,3.3c0,0.7,0.3,1.4,0.7,1.9
				c0.7,0.9,2,1.5,3.3,1.5C21.3,150.5,22.5,149.9,23.3,149z"/>
		</g>
		<g>
			<path class="st5" d="M49.3,148.7c-1.3-0.1-2.7,0-3.7,0.7c-0.8,0.6-1.2,1.5-1.2,2.3c0,0.9,0.4,1.7,1,2.5c0.8,1,2.2,1.9,3.6,1.8
				c1.3-0.1,2.3-0.9,3-1.8c0.5-0.6,0.9-1.3,1.1-2c0.2-0.7,0-1.5-0.4-2.1C51.9,149.2,50.5,148.8,49.3,148.7z"/>
		</g>
		<g>
			<path class="st5" d="M40.1,135.5c-2-1-4.9-0.1-5.8,1.8c-0.5,1-0.3,2.3,0.5,3.1c0.7,0.7,1.8,0.9,2.9,1c1,0.1,2,0.1,2.9-0.3
				C43.7,139.9,42.5,136.7,40.1,135.5C40.1,135.5,40.1,135.5,40.1,135.5z"/>
		</g>
		<g>
			<path class="st5" d="M10.9,129.8c-0.7,0.5-1.3,1.2-1.5,2c-0.4,1.5,0.5,3,1.6,3.9c0.8,0.7,1.7,1.2,2.6,1.2c1.5,0.1,3-1.2,3.3-2.8
				C17.7,130.6,13.5,128.1,10.9,129.8z"/>
		</g>
		<g>
			<path class="st5" d="M36.2,129.2c0.5-0.5,0.9-1.2,1.1-2c0.4-1.6-0.3-3.5-1.4-4.3c-1.1-0.9-2.4-0.8-3.6-0.3
				c-0.7,0.3-1.4,0.9-1.8,1.7c-0.6,1.2-0.6,2.9,0,4.2c0.6,1.3,1.6,2,2.7,2.1C34.3,130.7,35.4,130.1,36.2,129.2z"/>
		</g>
		<g>
			<path class="st5" d="M6.3,116.8c-0.2,1.1,0,2.3,0.7,3.3c0.7,0.9,1.7,1.6,2.9,1.7c2.1,0.2,4-1.5,4.7-3.5c0.2-0.7,0.4-1.4,0.2-2.1
				c-0.2-0.9-0.8-1.7-1.5-2.2c-1.2-0.9-2.9-1-4.2-0.4C7.6,114.1,6.5,115.3,6.3,116.8z"/>
		</g>
		<g>
			<path class="st5" d="M34.4,107.7c-2.5-2.9-8.2,2.2-6.4,5.9c0.4,0.9,1.3,1.4,2.1,1.5s1.7-0.3,2.5-0.7c1-0.6,1.9-1.6,2.3-2.8
				C35.4,110.2,35.2,108.7,34.4,107.7z"/>
		</g>
		<g>
			<path class="st5" d="M16,96.7c-0.1-1.6-1.2-3.6-3.1-4c-1.4-0.3-2.9,0.1-3.8,1.1c-0.9,1.1-1,2.6-0.3,3.8c0.7,1.2,2.2,2,3.7,2.1
				c0.9,0.1,2-0.2,2.6-0.8C15.8,98.4,16,97.5,16,96.7z"/>
		</g>
		<g>
			<path class="st5" d="M32.9,97.1c0.4-0.2,0.8-0.5,1.1-0.9c1.5-1.7,2.2-4.4-0.4-5.3c-1.4-0.5-2.7-0.1-3.6,1
				c-1.3,1.7-2.5,5.1,0.8,5.5C31.5,97.6,32.2,97.4,32.9,97.1z"/>
		</g>
		<g>
			<path class="st5" d="M10.1,80c0.6,0.5,1.4,0.8,2.2,0.9c0.8,0.1,1.6-0.2,2.2-0.7c2.8-2.5,0.7-8.9-3.6-7.5
				c-1.5,0.5-2.5,1.9-2.6,3.4C8.2,77.6,8.9,79.1,10.1,80z"/>
		</g>
		<g>
			<path class="st5" d="M36.4,72.4c-0.6-0.3-1.5-0.4-2.4-0.2c-4.3,0.9-5.6,9.2-0.2,9.1C38.8,81.2,39.8,73.9,36.4,72.4z"/>
		</g>
		<g>
			<path class="st5" d="M14.1,53.6c-0.9-1.7-2.7-2.2-4.5-1c-1.8,1.2-3.6,4.5-1.5,6.2c0.9,0.7,2.3,0.8,3.5,0.4c2.1-0.8,3.6-2.8,2.8-5
				C14.2,53.9,14.2,53.8,14.1,53.6z"/>
		</g>
		<g>
			<path class="st5" d="M11.5,33.9c-0.7-0.3-1.5-0.3-2.4-0.1c-1.1,0.3-2,1.4-2.4,2.4c-0.5,1.3-0.2,2.8,0,3.9
				c0.2,1.2,1.4,1.9,2.9,1.6C14.3,41,14.2,35.1,11.5,33.9z"/>
		</g>
		<g>
			<path class="st2" d="M42.5,56.2c0.1-5.4,4.2-8.1,3.7-9.5c-16.7,6.4-22.7-12.6-22.7-12.6c-6.8,0.1-11-4.1-12.7-8.4
				c0.6,10.4,10.9,10.3,10.9,10.3C24.5,49.9,36.4,53.2,42.5,56.2z"/>
		</g>
		<g>
			<path class="st2" d="M185.6,44.1c5.5,1.2,10.7,0,12.3-0.6c3.5-1.4,7.2-3,9.1-6.3c7.8,1,16.2-2.5,21.4-8.4
				c-3.9,6.8-11.4,11.8-19.3,12c-5.8,0.1-9.5,7.6-9.5,13.3c-0.8-2.5-1.1-5.5-1-8.1C196.9,46.7,187.3,48.1,185.6,44.1z"/>
		</g>
		<g>
			<path class="st5" d="M22.8,19.9c-1.7-1.1-3.7-1.6-5.2,0c-1.1,1.2-1.1,3.2-0.3,4.7c0.8,1.5,2.3,2.5,3.8,3.1
				c1.2,0.5,2.4,0.9,3.7,0.6c1.5-0.3,2.9-1.8,2.7-3.4c-0.1-1.3-1.6-2.5-2.5-3.4C24.4,21.1,23.7,20.5,22.8,19.9z"/>
		</g>
		<g>
			<path class="st5" d="M32.4,34.5c1.4,2.9,4.6,4.9,7.9,4.8c1.5-0.1,3.2-0.7,3.6-2.2c0.4-1.5-0.7-2.9-1.9-3.9
				c-1.5-1.2-3.1-2.1-4.9-2.8c-0.8-0.3-1.7-0.5-2.6-0.5c-0.9,0.1-1.8,0.4-2.2,1.2C31.7,32.1,31.9,33.5,32.4,34.5z"/>
		</g>
		<g>
			<path class="st5" d="M37.9,4.7c-1.1-0.4-2.4-0.5-3.3-0.4C33.6,4.4,32.4,5,32,6c-0.4,1,0,2.2,0.7,2.9c0.8,0.7,1.9,1.1,2.9,1.1
				c1.3,0,3-0.1,3.8-1.1C41.4,6.9,39.9,5.4,37.9,4.7z"/>
		</g>
		<g>
			<path class="st5" d="M52.5,41.6c1.4,0.8,3,1.2,4.6,1c4.2-0.5,2.8-4.7-0.6-5.3c-1.1-0.2-2.2-0.2-3.2,0c-0.9,0.1-1.8,0.4-2.2,1.2
				c-0.3,0.6-0.2,1.2,0.1,1.8C51.5,40.9,52,41.3,52.5,41.6z"/>
		</g>
		<g>
			<path class="st5" d="M68.4,45.8c2.1,2.1,5.5,2.6,8,1.2c1-0.5,2-1.6,1.9-2.7c-0.1-1-1-1.7-1.9-2.2c-1.4-0.8-3.1-1.3-4.7-1.3
				c-1,0-2.1,0.1-3,0.6s-1.5,1.5-1.4,2.5C67.4,44.7,67.9,45.3,68.4,45.8z"/>
		</g>
		<g>
			<path class="st5" d="M57.3,19.2c-0.5,0.8-0.5,1.9-0.1,2.8c0.4,0.9,1.1,1.6,2,2c1,0.5,2.2,0.7,3.2,0.2c0.9-0.5,1.5-1.6,1.4-2.6
				c0-1-0.6-2-1.3-2.7c-0.7-0.7-1.7-1.1-2.7-1.1C58.8,17.9,57.8,18.4,57.3,19.2z"/>
		</g>
		<g>
			<path class="st5" d="M48.5,14.9c-2-0.2-4.1,0.3-3.5,2.7c0.3,1.1,1.3,2,2.5,2.3c1.6,0.4,4-0.1,4.5-1.8c0.4-1.3-0.2-2.2-1.4-2.7
				C50.1,15.2,49.3,15,48.5,14.9z"/>
		</g>
		<g>
			<path class="st5" d="M75.9,24.4c-2-1.1-4.5-1.1-5.1,1.3c-0.2,0.7,0.1,1.4,0.5,2c0.4,0.6,1,1,1.6,1.4c0.8,0.6,1.6,1.1,2.6,1.2
				c1.3,0.1,3.1-1.1,3-2.5C78.3,26.4,77.2,25.1,75.9,24.4z"/>
		</g>
		<g>
			<path class="st5" d="M86.9,31.4c1.4,1.7,3.9,2.4,6,1.8c0.9-0.3,1.7-0.8,2-1.7c0.3-1-0.2-2-1.1-2.6C93,28.2,92,28,91,27.8
				c-1-0.2-2-0.4-2.9-0.2c-1,0.2-1.9,0.9-2,1.9C86.1,30.2,86.4,30.8,86.9,31.4z"/>
		</g>
		<g>
			<path class="st5" d="M84.8,45.9c-1.3,0.7-1.7,2.5-1.3,3.8c0.5,1.4,1.8,2.4,3.2,2.8c1.4,0.4,2.9,0.2,4.3-0.3
				c3.4-1.1,2.8-3.6,0.4-5.5C89.5,45.2,86.8,44.7,84.8,45.9z"/>
		</g>
		<g>
			<path class="st5" d="M106.3,54.1c1.3,0.7,2.9,0.9,4.5,0.5c1.5-0.4,2.8-1.4,3.4-2.8c0.6-1.4,0.3-3.2-0.7-4.3
				c-0.8-0.8-1.9-1.2-3-1.5c-1.4-0.3-2.8-0.4-4.2,0c-2.3,0.7-3.2,2.9-2.5,5.1C104.3,52.5,105.2,53.5,106.3,54.1z"/>
		</g>
		<g>
			<path class="st5" d="M105.2,31.2c-0.2,0.9,0.2,1.9,0.9,2.6c0.7,0.6,1.7,1,2.6,1.1c2.4,0.4,5-0.8,4-3.7c-0.6-1.9-2.6-2.4-4.4-2.2
				C107,29.2,105.5,29.9,105.2,31.2z"/>
		</g>
		<g>
			<path class="st5" d="M127.8,31c-1.3-2.2-3.8-2.6-5.9-1.3c-1,0.7-1.7,2-1.3,3.1c0.4,1.3,1.8,2,3.1,2.2
				C126.1,35.4,129.3,33.7,127.8,31z"/>
		</g>
		<g>
			<path class="st5" d="M126.2,46.3c-1-0.1-2,0-2.9,0.3c-0.9,0.4-1.7,1.1-1.9,2.1c-0.2,0.8,0.1,1.7,0.7,2.2c0.8,0.8,2.5,0.9,3.5,0.7
				c1.5-0.3,3.6-1.1,4-2.7c0.4-1.5-0.2-2.1-1.6-2.3C127.5,46.5,126.9,46.4,126.2,46.3z"/>
		</g>
		<g>
			<path class="st5" d="M140.4,45.9c-1,1-1.2,2.8-0.4,4c0.8,1.2,2.4,1.9,3.8,1.7c3-0.3,6-3.4,3.2-6C145.3,44,142.1,44.2,140.4,45.9z
				"/>
		</g>
		<g>
			<path class="st5" d="M143.3,31.3c0.4-0.7,0.4-1.6-0.2-2.4c-1.4-2-5-1.7-6.1,0.5c-0.5,1-0.2,2.3,0.6,3.1c0.8,0.8,2,1.1,3.1,0.9
				C141.8,33,142.8,32.3,143.3,31.3z"/>
		</g>
		<g>
			<path class="st5" d="M156.5,25.6c-1.2-0.4-2.9-0.3-4,0.2c-1.2,0.5-2.2,1.9-1.8,3.2c0.3,1,1.3,1.6,2.3,1.7c1,0.1,2-0.2,3-0.5
				c2-0.8,3.5-2.7,1.2-4.3C156.9,25.8,156.7,25.6,156.5,25.6z"/>
		</g>
		<g>
			<path class="st5" d="M161.2,46.1c0.6-0.6,1-1.2,1.2-1.9c0.4-1.8-1.4-3.4-3.1-3c-1.7,0.4-4.7,1.4-5,3.5c-0.3,1.9,2,3.2,3.7,3.1
				C159,47.6,160.3,46.9,161.2,46.1z"/>
		</g>
		<g>
			<path class="st5" d="M171.7,41.6c-0.3,0.9,0,1.9,1.1,2.6c0.8,0.6,1.9,0.7,2.9,0.5c2.2-0.4,7.3-2.8,5.4-5.7
				c-1.6-2.4-5.6-0.6-7.5,0.5C172.7,39.9,172,40.7,171.7,41.6z"/>
		</g>
		<g>
			<path class="st5" d="M188.1,33.6c-0.3,4.5,6.4,2.9,7.9,0.4c3-4.8-3.1-6.3-6.3-3.5C188.8,31.3,188.1,32.5,188.1,33.6z"/>
		</g>
		<g>
			<path class="st5" d="M170.9,20.7c-2.2-0.4-5.5,1.3-5.4,3.6c0,0.7,0.7,1.3,1.4,1.5c0.7,0.2,1.5,0.1,2.2-0.1c2.1-0.5,6-3.8,2.3-5
				C171.2,20.8,171.1,20.8,170.9,20.7z"/>
		</g>
		<g>
			<path class="st5" d="M184.5,14.5c-0.7,0.4-1.2,1-1.5,1.6c-1.3,3.3,3.1,4.1,5.2,2.9c2-1.1,4.3-4.3,1.2-5.3
				C188.1,13.3,186,13.6,184.5,14.5z"/>
		</g>
		<g>
			<path class="st5" d="M204.6,5.7c-2.2-0.5-5.1,2.4-4.2,4.5c0.4,1,1.7,1.5,2.9,1.4c2.5-0.2,4.5-3.4,2.4-5.4
				C205.3,6,205,5.8,204.6,5.7z"/>
		</g>
		<g>
			<path class="st5" d="M215.9,19.2c-2.6,0.6-5.5,3.3-6.4,4.8c-1.1,1.9,0.1,3.8,2.3,3.8c1.1,0,2.1-0.5,3.1-1c2-1,6.1-4.1,4.1-6.6
				C218.3,19.1,217.1,18.9,215.9,19.2z"/>
		</g>
		<g>
			<path class="st5" d="M209.9,66.3c-2.1,0-4,1.1-4.2,3.4c-0.2,2,1.4,4,3.4,4.6c3.6,1,7.8-3.4,4.7-6.5
				C212.8,66.8,211.3,66.3,209.9,66.3z"/>
		</g>
		<g>
			<path class="st5" d="M214.1,83.5c-1.8-1.1-4.3-1.3-6.2,0.2c-1.2,1-1.7,2.8-1.3,4.3c0.4,1.5,1.8,2.7,3.3,3.2
				c1.5,0.4,3.2,0.1,4.6-0.7C218.1,88.3,216.7,85,214.1,83.5z"/>
		</g>
		<g>
			<path class="st5" d="M232.6,63.6c-1.2-1-3-1.2-4.4-0.4c-1.3,0.8-2,2.6-1.6,4.1c0.4,1.5,1.8,2.6,3.3,2.8c1.5,0.1,3.1-0.8,3.7-2.3
				C234.2,66.4,233.8,64.6,232.6,63.6z"/>
		</g>
		<g>
			<path class="st5" d="M231.8,49.3c-0.6-1-1.6-1.6-2.7-1.8c-1.1-0.2-2.2,0-3.3,0.4c-1.3,0.5-2.6,1.5-2.7,2.9
				c-0.2,1.4,0.9,2.7,2.1,3.3c1.6,0.9,3.7,1,5.3,0C232,53.1,232.7,50.9,231.8,49.3z"/>
		</g>
		<g>
			<path class="st5" d="M229.6,86.7c1.5,0.6,3.4,0.6,4.7-0.3c1.3-0.9,2-2.9,1.1-4.3c-1-1.6-3.2-1.7-5.1-1.4c-1.3,0.2-2.7,0.8-3.2,2
				c-0.3,0.8-0.1,1.8,0.4,2.5C228,85.9,228.8,86.4,229.6,86.7z"/>
		</g>
		<g>
			<path class="st5" d="M218.1,101.9c-0.8-1.5-2.5-2.3-4.2-2.3c-1.7,0.1-3.2,1-4.3,2.3c-1.3,1.7-1.6,4.3-0.2,5.8
				c0.9,1,2.3,1.3,3.6,1.3c1.7-0.1,3.5-0.8,4.5-2.2C218.7,105.4,218.9,103.4,218.1,101.9z"/>
		</g>
		<g>
			<path class="st5" d="M235.8,97.4c-1.1-1-2.7-1.2-4.4,0.1c-3.6,2.9,1.2,9.1,4.6,5.2C237.5,100.8,237.1,98.6,235.8,97.4z"/>
		</g>
		<g>
			<path class="st5" d="M234.5,121.2c3.9,3,8.2-3.8,5.1-6.5c-1.8-1.5-5.2-0.4-6.2,1.5C232.5,117.8,233,120.1,234.5,121.2z"/>
		</g>
		<g>
			<path class="st5" d="M215.8,128c1.9,0.7,4-0.1,5.5-1.4c0.9-0.8,1.7-1.9,1.9-3.1c0.5-5.8-7.7-5.7-9.6-1.5
				C212.5,124.2,213.6,127.2,215.8,128z"/>
		</g>
		<g>
			<path class="st5" d="M223.6,137.4c-1.3-0.9-2.9-0.9-4.5,0.6c-1.2,1.1-1.7,2.9-1.6,4.5c0.3,3.8,2.9,7.3,6.9,5.4
				C228.8,145.7,227.1,139.7,223.6,137.4z"/>
		</g>
		<g>
			<path class="st5" d="M240.7,135c-1.3,0.4-2.2,1.5-2.7,2.7c-0.9,2-1,4.5,0.3,6.2c1,1.4,2.8,2.1,4.5,1.8c1.7-0.3,3.2-1.5,3.7-3.2
				c0.5-1.6,0.1-3.5-0.8-5C244.7,135.8,242.7,134.4,240.7,135z"/>
		</g>
		<g>
			<path class="st5" d="M220,170.9c0.8,0.9,1.8,1.5,2.9,1.7c5.4,0.9,6.3-8.9,2.1-10.4c-2.8-1-5.9,1.2-6.4,3.9
				C218.3,167.7,218.9,169.6,220,170.9z"/>
		</g>
		<g>
			<path class="st5" d="M239.7,167.1c-0.1,1.1-0.1,2.2,0.5,3.2c0.7,1.1,2.1,1.8,3.4,1.5c3.4-0.8,6-7,3.1-9.6
				C243,158.7,239.9,163.8,239.7,167.1z"/>
		</g>
		<g>
			<path class="st5" d="M240.8,183.6c-1.8-1.3-4.4-0.5-6.3,2c-0.9,1.2-1.6,2.5-1.7,3.9c-0.1,1.4,0.4,3,1.6,3.8
				c3.5,2.2,8.8-2.2,8.3-6C242.5,185.5,241.8,184.3,240.8,183.6z"/>
		</g>
		<g>
			<path class="st5" d="M218.1,180.1c-1.1,1-1.9,2.5-2.2,3.5c-0.4,1.3,0.2,3,1.5,3.4c1.4,0.5,2.9-0.6,3.8-1.8
				c0.6-0.7,1.2-1.5,1.5-2.4c0.3-0.9,0.3-1.9-0.3-2.7C221.1,178.3,219.4,178.9,218.1,180.1z"/>
		</g>
		<g>
			<path class="st5" d="M226.2,201.1c-0.6,0.8-1.2,1.8-1,2.8c0.2,1,1,1.7,1.9,2c0.9,0.3,1.9,0.1,2.9-0.2c5.2-1.8,4.3-9.9-1.1-7
				C227.8,199.2,227,200.2,226.2,201.1z"/>
		</g>
		<g>
			<path class="st5" d="M217.5,214.1c2.1-1.9,3.7-6.7,0-7.8c-2.2-0.6-5.2,0.7-6.9,2.1c-1,0.8-2,1.9-2.2,3.2c-0.3,2,1.4,4,3.4,4.4
				C213.9,216.4,216,215.5,217.5,214.1z"/>
		</g>
		<g>
			<path class="st5" d="M207.4,195.5c0.2-0.6,0.2-1.3,0-1.9c-0.5-1.3-1.9-2.1-3.3-1.9c-1.3,0.2-2.4,1.5-2.4,2.9
				c0,1.4,1.1,2.7,2.5,2.9S206.9,196.8,207.4,195.5z"/>
		</g>
		<g>
			<path class="st5" d="M190.1,201.5c0.8-0.3,1.6-0.7,2.2-1.4s0.7-1.7,0.2-2.5c-0.3-0.4-0.7-0.7-1.2-0.9c-1.3-0.5-2.7-0.5-4,0
				c-1.1,0.5-2.1,1.5-2,2.7c0,1,0.9,1.9,1.8,2.3C188,202,189.1,201.8,190.1,201.5z"/>
		</g>
		<g>
			<path class="st5" d="M190.7,219.6c1.5,1.4,4,1.4,5.9,0.4c7.2-3.6-1.6-11.2-6-6.3C189.1,215.3,189.1,218.1,190.7,219.6z"/>
		</g>
		<g>
			<path class="st5" d="M171.6,213.7c-0.8,0.4-1.6,1-1.9,1.9c-0.6,1.3,0,2.9,1,3.8c1,1,2.5,1.3,3.9,1.4c1.3,0,2.8-0.2,3.7-1.2
				c1.5-1.5,1-4.3-0.6-5.6C176,212.7,173.5,212.7,171.6,213.7z"/>
		</g>
		<g>
			<path class="st5" d="M154.8,207.8c-1.4,0.8-2.2,2.6-1.9,4.3c0.3,1.6,1.6,3,3.1,3.6c1.5,0.6,3.3,0.4,4.8-0.4
				c1.1-0.6,2.1-1.5,2.3-2.7c0.2-1-0.2-2.1-0.9-3c-0.7-0.8-1.6-1.4-2.6-1.8C158.1,207.2,156.2,206.9,154.8,207.8z"/>
		</g>
		<g>
			<path class="st5" d="M141.8,198c-1.4-0.8-3.3-0.7-4.7,0.3c-1.9,1.4-2.4,4.4-1,6.3c1.4,1.9,4.5,2.3,6.3,0.9
				c0.8-0.6,1.3-1.4,1.6-2.4C144.5,201.1,143.5,198.9,141.8,198z"/>
		</g>
		<g>
			<path class="st5" d="M124.7,196.2c1.3,0.3,2.9,0.4,4-0.4c7-5.1-9.4-15.8-10-6.4c-0.1,1.6,0.6,3.3,1.8,4.4
				C121.5,195.1,123.1,195.8,124.7,196.2z"/>
		</g>
		<g>
			<path class="st5" d="M144,180.2c-4.8-0.3-1.9,5.1,0.3,6.4c0.7,0.4,1.6,0.5,2.3,0.2C149.4,185.3,146.3,180.4,144,180.2z"/>
		</g>
		<g>
			<path class="st5" d="M162.2,194.7c1.8-4.7-8.6-3.4-4.5,0.9c0.9,0.9,2.5,1.1,3.6,0.4C161.6,195.7,162,195.2,162.2,194.7z"/>
		</g>
		<g>
			<path class="st5" d="M172.4,199.7c0.9,0.5,2.1,0.2,2.7-0.5c0.7-0.9,0.4-2.5-0.6-3.1c-1-0.6-2.4-0.2-2.9,0.8
				C171.1,197.8,171.4,199.2,172.4,199.7z"/>
		</g>
		<g>
			<path class="st5" d="M133.2,174.3c0.6-1.1,0.4-2.5-0.5-3.4c-0.9-0.8-2.3-1-3.4-0.4c-1.2,0.7-1.7,2.4-1.1,3.6
				c0.6,1.2,2.2,1.9,3.5,1.4C132.4,175.4,132.9,174.9,133.2,174.3z"/>
		</g>
		<g>
			<path class="st5" d="M94,188.1c1.9,1.1,4.4,0.5,6.4-0.6c1.9-1.1,3.6-2.7,5.5-3.8c2.5-1.3,5.2-2.3,3.4-5.4c-0.9-1.6-2-2.4-3.9-2.7
				c-3.1-0.6-7.4,0.4-10,2.2c-1.7,1.2-3.1,2.9-3.6,4.9C91.4,184.7,92.2,187.1,94,188.1z"/>
		</g>
		<g>
			<path class="st5" d="M97.3,236.9c0.8,2.2,1.1,6.3,3.9,6.7c1.6,0.2,3.2-0.6,4.2-1.8c2.7-3.1,3.6-7.8,3.8-11.8
				c0.2-3.2-0.3-6.9-3-8.7c-2.2-1.5-5.4-1-7.5,0.7c-2.1,1.7-3.1,4.4-3.2,7.1C95.6,231.7,96.4,234.4,97.3,236.9z"/>
		</g>
	</g>
</g>
</svg>
