<?xml version="1.0" encoding="utf-8"?>
<!-- Generator: Adobe Illustrator 25.2.0, SVG Export Plug-In . SVG Version: 6.00 Build 0)  -->
<svg version="1.1" id="Layer_1" xmlns="http://www.w3.org/2000/svg" xmlns:xlink="http://www.w3.org/1999/xlink" x="0px" y="0px"
	 viewBox="0 0 257.2 251.4" style="enable-background:new 0 0 257.2 251.4;" xml:space="preserve">
<style type="text/css">
	.st0{fill:#F3AEA5;}
	.st1{fill:#F5978A;}
	.st2{fill:#F3C9C3;}
	.st3{fill:#E7776E;}
</style>
<g>
	<g>
		<g>
			<path class="st0" d="M255.9,112.8c-2.7-14.7-11.2-70-62.3-71.6c-25.8-0.8-38.7,27.4-45.4,10.7c-6.3-15.6-12-31.6-12.2-47.9
				l-27.5,0.3c0.2,25.4,10.1,48.5,18.8,68.8c6.7,15.6,13,30.3,14,43.6c1,12.3-3.4,25.5-12.5,34.2c-10.7,10.2-23.9,10.7-37.8,11
				c-9.9,0.2-25.1-2.2-33.9,3.4c-3.8,0-7.5,0.2-11.2,0.6c-11.1,1.4-20,5.3-27,11.9C6,189.9,0,210.7,0,243.5h27.5
				c0-16.5,1.8-37.8,10.2-45.8c1.7-1.6,3.8-2.8,6.3-3.5c-2.5,22.5,37.5,71.4,113.3,53.4C253,224.9,261.5,143.9,255.9,112.8z"/>
		</g>
		<g>
			<path class="st1" d="M125.7,246.3c-14.4,0-27.7-2.7-39.6-8c-10-4.5-18.8-10.8-25.5-18.2c-4.1-4.5,66.3,20.6,125.7-24.7
				c57.7-44,40.6-122.6,42.7-125.2c4.3-5.4,9.6,4.8,10.9,7.3c5.6,11,8.5,23,10.7,35l0.2,1.2c2.8,15.4,1.7,42.2-10.8,67.3
				c-7,14.2-16.9,26.4-29.3,36.2c-14.7,11.7-33,20.2-54.5,25.3C145.7,245,135.4,246.3,125.7,246.3z"/>
		</g>
		<g>
			<path class="st2" d="M78.8,171.8c-12.4-0.7-21.6,5.5-14.4,10.7c7.2,5.2,38.1,2.5,53.6-6.8c9.9-5.9,10-12-5.5-6.1
				C100.9,173.8,84.8,172.1,78.8,171.8z"/>
		</g>
		<g>
			<path class="st2" d="M181.2,58c-12.8,3.4-25.8,17.2-26.8,39.9c-1,22.7,0.3,34.4-4.5,44.3c-4.8,10,4.8,17.9,25.1-10.7
				C195.2,103,205.9,51.5,181.2,58z"/>
		</g>
	</g>
	<g>
		<g>
			<path class="st0" d="M27.5,243.4c0,2.2-6.2,4-13.7,4c-7.6,0-13.7-1.8-13.7-4s6.2-4,13.7-4C21.3,239.4,27.5,241.2,27.5,243.4z"/>
		</g>
	</g>
	<g>
		<g>
			<path class="st2" d="M135.9,4c0,2.2-6.2,4-13.7,4c-7.6,0-13.7-1.8-13.7-4c0-2.2,6.2-4,13.7-4C129.7,0,135.9,1.8,135.9,4z"/>
		</g>
		<g>
			<ellipse class="st3" cx="122.1" cy="4" rx="11.9" ry="3.1"/>
		</g>
	</g>
</g>
</svg>
