<?xml version="1.0" encoding="UTF-8"?>
<svg width="103px" height="109px" viewBox="0 0 103 109" version="1.1" xmlns="http://www.w3.org/2000/svg" xmlns:xlink="http://www.w3.org/1999/xlink">
    <title>video</title>
    <g id="01.-Home" stroke="none" stroke-width="1" fill="none" fill-rule="evenodd">
        <g id="Portal_Approved" transform="translate(-459.000000, -1217.000000)" fill="#E51D74">
            <g id="Group-50" transform="translate(-382.000000, 735.000000)">
                <g id="Group-32" transform="translate(712.000000, 0.000000)">
                    <g id="Group-36" transform="translate(0.539130, 386.407895)">
                        <g id="video" transform="translate(129.375877, 96.910159)">
                            <g id="Group-20" transform="translate(50.562585, 53.602661) rotate(-90.000000) translate(-50.562585, -53.602661) translate(-3.040077, 3.040077)">
                                <path d="M5.05410383,101.125169 C2.26715076,101.125169 0,98.855662 0,96.0678944 L0,5.05727465 C0,2.26781338 2.26715076,6.48770956e-14 5.05410383,6.48770956e-14 L67.8062633,6.48770956e-14 C70.5949096,6.48770956e-14 72.8608735,2.26781338 72.8608735,5.05727465 L72.8608735,38.7591641 L70.3206165,38.7591641 L70.3206165,5.05727465 C70.3206165,3.66847183 69.1929672,2.54049296 67.8062633,2.54049296 L5.05410383,2.54049296 C3.66739996,2.54049296 2.53975067,3.66847183 2.53975067,5.05727465 L2.53975067,96.0678944 C2.53975067,97.4550035 3.66739996,98.5846761 5.05410383,98.5846761 L67.8079565,98.5846761 C68.4767575,98.5846761 69.1066157,98.3221585 69.5823956,97.8445458 C70.0598687,97.3669331 70.3206165,96.7351972 70.3206165,96.069588 L70.3206165,57.584507 L72.8608735,57.584507 L72.8608735,96.0678944 C72.8620603,97.4143556 72.3354853,98.6829085 71.3788459,99.6398275 C70.4222065,100.596746 69.1540243,101.125169 67.8079565,101.125169 L5.05410383,101.125169 Z" id="Fill-3"></path>
                                <g id="noun_Apple-Pencil_1201374" transform="translate(68.106447, 50.845108) rotate(-123.000000) translate(-68.106447, -50.845108) translate(65.058746, 6.204244)" fill-rule="nonzero">
                                    <path d="M3.45135188,89.2817276 L2.63863168,89.2817276 C1.66523933,89.2802354 0.876520649,88.4912862 0.875028857,87.5176093 L0.875028857,83.4040432 L5.20953657,83.4040432 L5.20953657,87.5176093 C5.20805714,88.4891781 4.42262765,89.2772583 3.45135188,89.2817276 L3.45135188,89.2817276 Z M1.15135372,83.6750291 L1.15135372,87.5176093 C1.15284472,88.341625 1.82027491,89.0092502 2.64404982,89.0107417 L3.45677001,89.0107417 C4.28054492,89.0092502 4.9479751,88.341625 4.9494661,87.5176093 L4.9494661,83.6750291 L1.15135372,83.6750291 Z" id="Shape" stroke="#E51D74"></path>
                                    <path d="M4.33455942,4.97460833 L5.4649547,10.3936111 L5.4649547,81.2612376 L0.630446992,81.2612376 L0.630446992,10.3663801 L1.76105975,4.97460833 L4.33455942,4.97460833 Z M3.71135138,5.74559424 L2.38405031,5.74559424 L1.40135372,10.4587429 L1.40135372,80.4902517 L4.69404797,80.4902517 L4.69404797,10.4587429 L3.71135138,5.74559424 Z" id="Shape" stroke="#E51D74" stroke-width="0.5"></path>
                                    <path d="M4.19363632,5.49559424 L1.90447444,5.49559424 L3.04770085,8.70812796e-13 L4.19363632,5.49559424 Z M2.23768972,5.22460833 L3.86313011,5.22460833 L3.05040991,1.32783096 L2.23768972,5.22460833 Z" id="Shape" stroke="#E51D74"></path>
                                    <g id="Group" transform="translate(-0.000000, 80.875745)">
                                        <rect id="Rectangle" x="2.7044472e-12" y="2.03521861e-12" width="6.0954016" height="2.66379149"></rect>
                                    </g>
                                </g>
                            </g>
                            <path d="M64.8927762,101.229338 L36.727989,101.229338 C36.2129624,101.229338 35.7962742,100.93775 35.7962742,100.577347 C35.7962742,100.21811 36.2129624,99.9265216 36.727989,99.9265216 L64.8927762,99.9265216 C65.4078028,99.9265216 65.8244909,100.21811 65.8244909,100.577347 C65.8244909,100.93775 65.4078028,101.229338 64.8927762,101.229338" id="Fill-5"></path>
                            <path d="M43.0563267,60.8420145 C42.395369,60.8420145 42.3241474,61.5328418 42.3241474,61.8296056 L42.3241474,76.7894215 C42.3241474,77.0867259 42.3959085,77.7786343 43.0574059,77.7786343 C43.2365389,77.7786343 43.4334773,77.7278222 43.6444443,77.6278198 L60.0469879,69.8173635 C60.4306131,69.635197 60.6021924,69.4314084 60.6021924,69.3103244 C60.6021924,69.1886999 60.4306131,68.9843707 60.0469879,68.8022042 L43.6444443,60.99391 C43.4334773,60.8928266 43.2354598,60.8420145 43.0563267,60.8420145 Z" id="Shape-Copy" fill-rule="nonzero"></path>
                        </g>
                    </g>
                </g>
            </g>
        </g>
    </g>
</svg>