<?xml version="1.0" encoding="UTF-8"?>
<svg width="155px" height="42px" viewBox="0 0 155 42" version="1.1" xmlns="http://www.w3.org/2000/svg" xmlns:xlink="http://www.w3.org/1999/xlink">
    <!-- Generator: Sketch 59.1 (86144) - https://sketch.com -->
    <title>Rectangle</title>
    <desc>Created with Sketch.</desc>
    <g id="Page-1" stroke="none" stroke-width="1" fill="none" fill-rule="evenodd">
        <g id="Rectangle">
            <g id="Mask" fill="#707804">
                <path d="M154.117949,10.3303208 C154.081952,10.1351258 154.007001,9.96424076 153.900983,9.84126075 C153.795459,9.71828075 153.666759,9.65250074 153.533621,9.65250074 C153.400976,9.65250074 153.271783,9.71828075 153.166259,9.84126075 C153.060242,9.96424076 152.98529,10.1351258 152.949294,10.3303208 C152.932035,10.4232708 152.924638,10.5169358 152.920694,10.6120308 C152.917242,10.7178508 152.917242,10.8229558 152.917242,10.9280608 L152.917242,30.5412273 C152.917242,30.6470474 152.917242,30.7514374 152.920694,30.8572574 C152.924638,30.9530674 152.932035,31.0460174 152.949294,31.1382524 C152.98529,31.3341624 153.060242,31.5050474 153.166259,31.6280274 C153.271783,31.7510074 153.400976,31.8175024 153.533621,31.8175024 C153.666759,31.8175024 153.795459,31.7510074 153.900983,31.6280274 C154.007001,31.5050474 154.081952,31.3341624 154.117949,31.1382524 C154.135207,31.0460174 154.142604,30.9530674 154.146549,30.8572574 C154.150001,30.7514374 154.150001,30.6470474 154.150001,30.5412273 L154.150001,10.9280608 C154.150001,10.8229558 154.150001,10.7178508 154.146549,10.6120308 C154.142604,10.5169358 154.135207,10.4232708 154.117949,10.3303208 L154.117949,10.3303208 Z" id="Path" transform="translate(153.533621, 20.735002) scale(-1, 1) translate(-153.533621, -20.735002) "></path>
                <path d="M151.187928,17.4045313 C151.183983,17.3094363 151.176587,17.2157713 151.159328,17.1228213 C151.123331,16.9276263 151.04838,16.7567413 150.942362,16.6337613 C150.836838,16.5107813 150.708138,16.4450013 150.575,16.4450013 C150.442355,16.4450013 150.313162,16.5107813 150.207638,16.6337613 C150.101621,16.7567413 150.026669,16.9276263 149.990673,17.1228213 C149.973414,17.2157713 149.966017,17.3094363 149.962073,17.4045313 C149.958621,17.5103513 149.958621,17.6154564 149.958621,17.7205614 L149.958621,17.7227064 L149.958621,23.7465818 L149.958621,23.7487268 C149.958621,23.8538318 149.958621,23.9589368 149.962073,24.0647568 C149.966017,24.1605669 149.973414,24.2535169 149.990673,24.3464669 C150.026669,24.5416619 150.101621,24.7125469 150.207638,24.8355269 C150.313162,24.9585069 150.442355,25.0250019 150.575,25.0250019 C150.708138,25.0250019 150.836838,24.9585069 150.942362,24.8355269 C151.04838,24.7125469 151.123331,24.5416619 151.159328,24.3464669 C151.176587,24.2535169 151.183983,24.1605669 151.187928,24.0647568 C151.19138,23.9589368 151.19138,23.8538318 151.19138,23.7487268 L151.19138,23.7465818 L151.19138,17.7227064 L151.19138,17.7205614 C151.19138,17.6154564 151.19138,17.5103513 151.187928,17.4045313 L151.187928,17.4045313 Z" id="Path" transform="translate(150.575000, 20.735002) scale(-1, 1) translate(-150.575000, -20.735002) "></path>
                <path d="M148.200707,14.6203211 C148.16471,14.4251261 148.089759,14.2542411 147.983741,14.1312611 C147.878217,14.0082811 147.749517,13.9425011 147.616379,13.9425011 C147.483735,13.9425011 147.354541,14.0082811 147.249017,14.1312611 C147.143,14.2542411 147.068048,14.4251261 147.032052,14.6203211 C147.014793,14.7132711 147.007397,14.8069361 147.003452,14.9020311 C147,15.0078512 147,15.1129562 147,15.2180612 L147,26.251227 C147,26.357047 147,26.461437 147.003452,26.567257 C147.007397,26.663067 147.014793,26.7560171 147.032052,26.8482521 C147.068048,27.0441621 147.143,27.2150471 147.249017,27.3380271 C147.354541,27.4610071 147.483735,27.5275021 147.616379,27.5275021 C147.749517,27.5275021 147.878217,27.4610071 147.983741,27.3380271 C148.089759,27.2150471 148.16471,27.0441621 148.200707,26.8482521 C148.217966,26.7560171 148.225362,26.663067 148.229307,26.567257 C148.232759,26.461437 148.232759,26.357047 148.232759,26.251227 L148.232759,15.2180612 C148.232759,15.1129562 148.232759,15.0078512 148.229307,14.9020311 C148.225362,14.8069361 148.217966,14.7132711 148.200707,14.6203211 L148.200707,14.6203211 Z" id="Path" transform="translate(147.616379, 20.735002) scale(-1, 1) translate(-147.616379, -20.735002) "></path>
                <path d="M145.174146,11.6845309 C145.170201,11.5894359 145.162804,11.4957709 145.145546,11.4028209 C145.109549,11.2076259 145.034598,11.0367408 144.92858,10.9137608 C144.823056,10.7907808 144.694356,10.7250008 144.561218,10.7250008 C144.428573,10.7250008 144.29938,10.7907808 144.193856,10.9137608 C144.087839,11.0367408 144.012887,11.2076259 143.976891,11.4028209 C143.959632,11.4957709 143.952235,11.5894359 143.948291,11.6845309 C143.944839,11.7903509 143.944839,11.8954559 143.944839,12.0005609 L143.944839,12.0027059 L143.944839,29.4665823 L143.944839,29.4687273 C143.944839,29.5745473 143.944839,29.6789373 143.948291,29.7847573 C143.952235,29.8805673 143.959632,29.9735173 143.976891,30.0657523 C144.012887,30.2616623 144.087839,30.4325473 144.193856,30.5555273 C144.29938,30.6785074 144.428573,30.7450024 144.561218,30.7450024 C144.694356,30.7450024 144.823056,30.6785074 144.92858,30.5555273 C145.034598,30.4325473 145.109549,30.2616623 145.145546,30.0657523 C145.162804,29.9735173 145.170201,29.8805673 145.174146,29.7847573 C145.177598,29.6789373 145.177598,29.5745473 145.177598,29.4687273 L145.177598,29.4665823 L145.177598,12.0027059 L145.177598,12.0005609 C145.177598,11.8954559 145.177598,11.7903509 145.174146,11.6845309 L145.174146,11.6845309 Z" id="Path" transform="translate(144.561218, 20.735002) scale(-1, 1) translate(-144.561218, -20.735002) "></path>
                <path d="M142.186925,7.11282055 C142.150928,6.91762553 142.075977,6.74674052 141.969959,6.62376051 C141.864435,6.5007805 141.735735,6.43500049 141.602597,6.43500049 C141.469952,6.43500049 141.340759,6.5007805 141.235235,6.62376051 C141.129218,6.74674052 141.054266,6.91762553 141.01827,7.11282055 C141.001011,7.20577055 140.993614,7.29943556 140.98967,7.39453057 C140.986218,7.50035058 140.986218,7.60545558 140.986218,7.71056059 L140.986218,7.71270559 L140.986218,33.7565826 L140.986218,33.7587276 C140.986218,33.8645476 140.986218,33.9689376 140.98967,34.0747576 C140.993614,34.1705676 141.001011,34.2635176 141.01827,34.3557526 C141.054266,34.5516626 141.129218,34.7225477 141.235235,34.8455277 C141.340759,34.9685077 141.469952,35.0350027 141.602597,35.0350027 C141.735735,35.0350027 141.864435,34.9685077 141.969959,34.8455277 C142.075977,34.7225477 142.150928,34.5516626 142.186925,34.3557526 C142.204184,34.2635176 142.21158,34.1705676 142.215525,34.0747576 C142.218977,33.9689376 142.218977,33.8645476 142.218977,33.7587276 L142.218977,7.71056059 C142.218977,7.60545558 142.218977,7.50035058 142.215525,7.39453057 C142.21158,7.29943556 142.204184,7.20577055 142.186925,7.11282055 L142.186925,7.11282055 Z" id="Path" transform="translate(141.602597, 20.735002) scale(-1, 1) translate(-141.602597, -20.735002) "></path>
                <path d="M139.256904,9.53953073 C139.252959,9.44443572 139.245563,9.35077072 139.228304,9.25782071 C139.192307,9.0626257 139.117356,8.89174068 139.011338,8.76876067 C138.905814,8.64578066 138.777114,8.58000066 138.643976,8.58000066 C138.511332,8.58000066 138.382138,8.64578066 138.276614,8.76876067 C138.170597,8.89174068 138.095645,9.0626257 138.059649,9.25782071 C138.04239,9.35077072 138.034994,9.44443572 138.031049,9.53953073 C138.027597,9.64535074 138.027597,9.75045575 138.027597,9.85556076 L138.027597,9.85770576 L138.027597,31.6115824 L138.027597,31.6137274 C138.027597,31.7195474 138.027597,31.8239374 138.031049,31.9297574 C138.034994,32.0255675 138.04239,32.1185175 138.059649,32.2107525 C138.095645,32.4066625 138.170597,32.5775475 138.276614,32.7005275 C138.382138,32.8235075 138.511332,32.8900025 138.643976,32.8900025 C138.777114,32.8900025 138.905814,32.8235075 139.011338,32.7005275 C139.117356,32.5775475 139.192307,32.4066625 139.228304,32.2107525 C139.245563,32.1185175 139.252959,32.0255675 139.256904,31.9297574 C139.260356,31.8239374 139.260356,31.7195474 139.260356,31.6137274 L139.260356,31.6115824 L139.260356,9.85770576 L139.260356,9.85556076 C139.260356,9.75045575 139.260356,9.64535074 139.256904,9.53953073 L139.256904,9.53953073 Z" id="Path" transform="translate(138.643976, 20.735002) scale(-1, 1) translate(-138.643976, -20.735002) "></path>
                <path d="M136.298283,14.5445311 C136.294338,14.4494361 136.286942,14.3557711 136.269683,14.2628211 C136.233687,14.0676261 136.158735,13.8967411 136.052718,13.7737611 C135.947193,13.650781 135.818493,13.585001 135.685355,13.585001 C135.552711,13.585001 135.423518,13.650781 135.317993,13.7737611 C135.211976,13.8967411 135.137024,14.0676261 135.101028,14.2628211 C135.083769,14.3557711 135.076373,14.4494361 135.072428,14.5445311 C135.068976,14.6503511 135.068976,14.7554561 135.068976,14.8605611 L135.068976,14.8627061 L135.068976,26.606582 L135.068976,26.608727 C135.068976,26.714547 135.068976,26.8189371 135.072428,26.9247571 C135.076373,27.0205671 135.083769,27.1135171 135.101028,27.2057521 C135.137024,27.4016621 135.211976,27.5725471 135.317993,27.6955271 C135.423518,27.8185071 135.552711,27.8850021 135.685355,27.8850021 C135.818493,27.8850021 135.947193,27.8185071 136.052718,27.6955271 C136.158735,27.5725471 136.233687,27.4016621 136.269683,27.2057521 C136.286942,27.1135171 136.294338,27.0205671 136.298283,26.9247571 C136.301735,26.8189371 136.301735,26.714547 136.301735,26.608727 L136.301735,26.606582 L136.301735,14.8627061 L136.301735,14.8605611 C136.301735,14.7554561 136.301735,14.6503511 136.298283,14.5445311 L136.298283,14.5445311 Z" id="Path" transform="translate(135.685355, 20.735002) scale(-1, 1) translate(-135.685355, -20.735002) "></path>
                <path d="M133.311062,9.25782071 C133.275066,9.0626257 133.200114,8.89174068 133.094097,8.76876067 C132.988572,8.64578066 132.859872,8.58000066 132.726735,8.58000066 C132.59409,8.58000066 132.464897,8.64578066 132.359372,8.76876067 C132.253355,8.89174068 132.178403,9.0626257 132.142407,9.25782071 C132.125148,9.35077072 132.117752,9.44443572 132.113807,9.53953073 C132.110355,9.64535074 132.110355,9.75045575 132.110355,9.85556076 L132.110355,9.85770576 L132.110355,31.6115824 L132.110355,31.6137274 C132.110355,31.7195474 132.110355,31.8239374 132.113807,31.9297574 C132.117752,32.0255675 132.125148,32.1185175 132.142407,32.2107525 C132.178403,32.4066625 132.253355,32.5775475 132.359372,32.7005275 C132.464897,32.8235075 132.59409,32.8900025 132.726735,32.8900025 C132.859872,32.8900025 132.988572,32.8235075 133.094097,32.7005275 C133.200114,32.5775475 133.275066,32.4066625 133.311062,32.2107525 C133.328321,32.1185175 133.335717,32.0255675 133.339662,31.9297574 C133.343114,31.8239374 133.343114,31.7195474 133.343114,31.6137274 L133.343114,9.85556076 C133.343114,9.75045575 133.343114,9.64535074 133.339662,9.53953073 C133.335717,9.44443572 133.328321,9.35077072 133.311062,9.25782071 L133.311062,9.25782071 Z" id="Path" transform="translate(132.726735, 20.735002) scale(-1, 1) translate(-132.726735, -20.735002) "></path>
                <path d="M130.381041,10.9695308 C130.377096,10.8744358 130.3697,10.7807708 130.352441,10.6878208 C130.316445,10.4926258 130.241493,10.3217408 130.135476,10.1987608 C130.029952,10.0757808 129.901252,10.0100008 129.768114,10.0100008 C129.635469,10.0100008 129.506276,10.0757808 129.400752,10.1987608 C129.294734,10.3217408 129.219783,10.4926258 129.183786,10.6878208 C129.166527,10.7807708 129.159131,10.8744358 129.155186,10.9695308 C129.151734,11.0753508 129.151734,11.1804559 129.151734,11.2855609 L129.151734,11.2877059 L129.151734,30.1815823 L129.151734,30.1837273 C129.151734,30.2895473 129.151734,30.3939373 129.155186,30.4997573 C129.159131,30.5955673 129.166527,30.6885174 129.183786,30.7807524 C129.219783,30.9766624 129.294734,31.1475474 129.400752,31.2705274 C129.506276,31.3935074 129.635469,31.4600024 129.768114,31.4600024 C129.901252,31.4600024 130.029952,31.3935074 130.135476,31.2705274 C130.241493,31.1475474 130.316445,30.9766624 130.352441,30.7807524 C130.3697,30.6885174 130.377096,30.5955673 130.381041,30.4997573 C130.384493,30.3939373 130.384493,30.2895473 130.384493,30.1837273 L130.384493,30.1815823 L130.384493,11.2877059 L130.384493,11.2855609 C130.384493,11.1804559 130.384493,11.0753508 130.381041,10.9695308 L130.381041,10.9695308 Z" id="Path" transform="translate(129.768114, 20.735002) scale(-1, 1) translate(-129.768114, -20.735002) "></path>
                <path d="M127.39382,17.1228213 C127.357824,16.9276263 127.282872,16.7567413 127.176855,16.6337613 C127.071331,16.5107813 126.942631,16.4450013 126.809493,16.4450013 C126.676848,16.4450013 126.547655,16.5107813 126.442131,16.6337613 C126.336113,16.7567413 126.261162,16.9276263 126.225165,17.1228213 C126.207906,17.2157713 126.20051,17.3094363 126.196565,17.4045313 C126.193113,17.5103513 126.193113,17.6154564 126.193113,17.7205614 L126.193113,23.7487268 C126.193113,23.8538318 126.193113,23.9589368 126.196565,24.0647568 C126.20051,24.1605669 126.207906,24.2535169 126.225165,24.3464669 C126.261162,24.5416619 126.336113,24.7125469 126.442131,24.8355269 C126.547655,24.9585069 126.676848,25.0250019 126.809493,25.0250019 C126.942631,25.0250019 127.071331,24.9585069 127.176855,24.8355269 C127.282872,24.7125469 127.357824,24.5416619 127.39382,24.3464669 C127.411079,24.2535169 127.418476,24.1605669 127.42242,24.0647568 C127.425872,23.9589368 127.425872,23.8538318 127.425872,23.7487268 L127.425872,17.7205614 C127.425872,17.6154564 127.425872,17.5103513 127.42242,17.4045313 C127.418476,17.3094363 127.411079,17.2157713 127.39382,17.1228213 L127.39382,17.1228213 Z" id="Path" transform="translate(126.809493, 20.735002) scale(-1, 1) translate(-126.809493, -20.735002) "></path>
                <path d="M124.463799,15.9745312 C124.459855,15.8794362 124.452458,15.7857712 124.435199,15.6928212 C124.399203,15.4976262 124.324251,15.3267412 124.218234,15.2037612 C124.11271,15.0807812 123.98401,15.0150012 123.850872,15.0150012 C123.718227,15.0150012 123.589034,15.0807812 123.48351,15.2037612 C123.377492,15.3267412 123.302541,15.4976262 123.266544,15.6928212 C123.249286,15.7857712 123.241889,15.8794362 123.237944,15.9745312 C123.234492,16.0803512 123.234492,16.1854562 123.234492,16.2905612 L123.234492,16.2927062 L123.234492,25.1765819 L123.234492,25.1787269 C123.234492,25.2838319 123.234492,25.3889369 123.237944,25.494757 C123.241889,25.590567 123.249286,25.683517 123.266544,25.775752 C123.302541,25.971662 123.377492,26.142547 123.48351,26.265527 C123.589034,26.388507 123.718227,26.455002 123.850872,26.455002 C123.98401,26.455002 124.11271,26.388507 124.218234,26.265527 C124.324251,26.142547 124.399203,25.971662 124.435199,25.775752 C124.452458,25.683517 124.459855,25.590567 124.463799,25.494757 C124.467251,25.3889369 124.467251,25.2838319 124.467251,25.1787269 L124.467251,25.1765819 L124.467251,16.2927062 L124.467251,16.2905612 C124.467251,16.1854562 124.467251,16.0803512 124.463799,15.9745312 L124.463799,15.9745312 Z" id="Path" transform="translate(123.850872, 20.735002) scale(-1, 1) translate(-123.850872, -20.735002) "></path>
                <path d="M121.476579,17.8378214 C121.440582,17.6426264 121.36563,17.4717413 121.259613,17.3487613 C121.154089,17.2257813 121.025389,17.1600013 120.892251,17.1600013 C120.759606,17.1600013 120.630413,17.2257813 120.524889,17.3487613 C120.418872,17.4717413 120.34392,17.6426264 120.307923,17.8378214 C120.290665,17.9307714 120.283268,18.0244364 120.279323,18.1195314 C120.275872,18.2253514 120.275872,18.3304564 120.275872,18.4355614 L120.275872,23.0337268 C120.275872,23.1388318 120.275872,23.2439368 120.279323,23.3497568 C120.283268,23.4455668 120.290665,23.5385168 120.307923,23.6314668 C120.34392,23.8266618 120.418872,23.9975468 120.524889,24.1205268 C120.630413,24.2435069 120.759606,24.3100019 120.892251,24.3100019 C121.025389,24.3100019 121.154089,24.2435069 121.259613,24.1205268 C121.36563,23.9975468 121.440582,23.8266618 121.476579,23.6314668 C121.493837,23.5385168 121.501234,23.4455668 121.505179,23.3497568 C121.50863,23.2439368 121.50863,23.1388318 121.50863,23.0337268 L121.50863,18.4355614 C121.50863,18.3304564 121.50863,18.2253514 121.505179,18.1195314 C121.501234,18.0244364 121.493837,17.9307714 121.476579,17.8378214 L121.476579,17.8378214 Z" id="Path" transform="translate(120.892251, 20.735002) scale(-1, 1) translate(-120.892251, -20.735002) "></path>
                <path d="M118.546558,19.5495315 C118.542613,19.4544365 118.535216,19.3607715 118.517958,19.2678215 C118.481961,19.0726265 118.407009,18.9017414 118.300992,18.7787614 C118.195468,18.6557814 118.066768,18.5900014 117.93363,18.5900014 C117.800985,18.5900014 117.671792,18.6557814 117.566268,18.7787614 C117.460251,18.9017414 117.385299,19.0726265 117.349302,19.2678215 C117.332044,19.3607715 117.324647,19.4544365 117.320702,19.5495315 C117.317251,19.6553515 117.317251,19.7604565 117.317251,19.8655615 L117.317251,19.8677065 L117.317251,21.6015817 L117.317251,21.6037267 C117.317251,21.7088317 117.317251,21.8139367 117.320702,21.9197567 C117.324647,22.0155667 117.332044,22.1085167 117.349302,22.2014667 C117.385299,22.3966617 117.460251,22.5675467 117.566268,22.6905267 C117.671792,22.8135067 117.800985,22.8800018 117.93363,22.8800018 C118.066768,22.8800018 118.195468,22.8135067 118.300992,22.6905267 C118.407009,22.5675467 118.481961,22.3966617 118.517958,22.2014667 C118.535216,22.1085167 118.542613,22.0155667 118.546558,21.9197567 C118.550009,21.8139367 118.550009,21.7088317 118.550009,21.6037267 L118.550009,21.6015817 L118.550009,19.8677065 L118.550009,19.8655615 C118.550009,19.7604565 118.550009,19.6553515 118.546558,19.5495315 L118.546558,19.5495315 Z" id="Path" transform="translate(117.933630, 20.735002) scale(-1, 1) translate(-117.933630, -20.735002) "></path>
                <path d="M115.834488,7.39453057 C115.830544,7.29943556 115.823147,7.20577055 115.805888,7.11282055 C115.769892,6.91762553 115.69494,6.74674052 115.588923,6.62376051 C115.483399,6.5007805 115.354699,6.43500049 115.221561,6.43500049 C115.088916,6.43500049 114.959723,6.5007805 114.854199,6.62376051 C114.748181,6.74674052 114.67323,6.91762553 114.637233,7.11282055 C114.619975,7.20577055 114.612578,7.29943556 114.608633,7.39453057 C114.605181,7.50035058 114.605181,7.60545558 114.605181,7.71056059 L114.605181,7.71270559 L114.605181,33.7565826 L114.605181,33.7587276 C114.605181,33.8645476 114.605181,33.9689376 114.608633,34.0747576 C114.612578,34.1705676 114.619975,34.2635176 114.637233,34.3557526 C114.67323,34.5516626 114.748181,34.7225477 114.854199,34.8455277 C114.959723,34.9685077 115.088916,35.0350027 115.221561,35.0350027 C115.354699,35.0350027 115.483399,34.9685077 115.588923,34.8455277 C115.69494,34.7225477 115.769892,34.5516626 115.805888,34.3557526 C115.823147,34.2635176 115.830544,34.1705676 115.834488,34.0747576 C115.83794,33.9689376 115.83794,33.8645476 115.83794,33.7587276 L115.83794,33.7565826 L115.83794,7.71270559 L115.83794,7.71056059 C115.83794,7.60545558 115.83794,7.50035058 115.834488,7.39453057 L115.834488,7.39453057 Z" id="Path" transform="translate(115.221561, 20.735002) scale(-1, 1) translate(-115.221561, -20.735002) "></path>
                <path d="M112.875868,2.38953018 C112.871923,2.29443518 112.864526,2.20077017 112.847268,2.10782016 C112.811271,1.91262515 112.736319,1.74174013 112.630302,1.61876012 C112.524778,1.49578011 112.396078,1.43000011 112.26294,1.43000011 C112.130295,1.43000011 112.001102,1.49578011 111.895578,1.61876012 C111.789561,1.74174013 111.714609,1.91262515 111.678612,2.10782016 C111.661354,2.20077017 111.653957,2.29443518 111.650012,2.38953018 C111.646561,2.49535019 111.646561,2.6004552 111.646561,2.70556021 L111.646561,2.70770521 L111.646561,38.761583 L111.646561,38.763728 C111.646561,38.869548 111.646561,38.973938 111.650012,39.079758 C111.653957,39.175568 111.661354,39.268518 111.678612,39.360753 C111.714609,39.556663 111.789561,39.727548 111.895578,39.8505281 C112.001102,39.9735081 112.130295,40.0400031 112.26294,40.0400031 C112.396078,40.0400031 112.524778,39.9735081 112.630302,39.8505281 C112.736319,39.727548 112.811271,39.556663 112.847268,39.360753 C112.864526,39.268518 112.871923,39.175568 112.875868,39.079758 C112.879319,38.973938 112.879319,38.869548 112.879319,38.763728 L112.879319,38.761583 L112.879319,2.70770521 L112.879319,2.70556021 C112.879319,2.6004552 112.879319,2.49535019 112.875868,2.38953018 L112.875868,2.38953018 Z" id="Path" transform="translate(112.262940, 20.735002) scale(-1, 1) translate(-112.262940, -20.735002) "></path>
                <path d="M109.888647,8.90032068 C109.85265,8.70512567 109.777698,8.53424065 109.671681,8.41126065 C109.566157,8.28828064 109.437457,8.22250063 109.304319,8.22250063 C109.171674,8.22250063 109.042481,8.28828064 108.936957,8.41126065 C108.83094,8.53424065 108.755988,8.70512567 108.719991,8.90032068 C108.702733,8.99327069 108.695336,9.0869357 108.691391,9.1820307 C108.68794,9.28785071 108.68794,9.39295572 108.68794,9.49806073 L108.68794,9.50020573 L108.68794,31.9690825 L108.68794,31.9712275 C108.68794,32.0770475 108.68794,32.1814375 108.691391,32.2872575 C108.695336,32.3830675 108.702733,32.4760175 108.719991,32.5682525 C108.755988,32.7641625 108.83094,32.9350475 108.936957,33.0580275 C109.042481,33.1810075 109.171674,33.2475025 109.304319,33.2475025 C109.437457,33.2475025 109.566157,33.1810075 109.671681,33.0580275 C109.777698,32.9350475 109.85265,32.7641625 109.888647,32.5682525 C109.905905,32.4760175 109.913302,32.3830675 109.917247,32.2872575 C109.920698,32.1814375 109.920698,32.0770475 109.920698,31.9712275 L109.920698,9.49806073 C109.920698,9.39295572 109.920698,9.28785071 109.917247,9.1820307 C109.913302,9.0869357 109.905905,8.99327069 109.888647,8.90032068 L109.888647,8.90032068 Z" id="Path" transform="translate(109.304319, 20.735002) scale(-1, 1) translate(-109.304319, -20.735002) "></path>
                <path d="M106.958626,11.3270309 C106.954681,11.2319359 106.947284,11.1382709 106.930026,11.0453208 C106.894029,10.8501258 106.819077,10.6792408 106.71306,10.5562608 C106.607536,10.4332808 106.478836,10.3675008 106.345698,10.3675008 C106.213053,10.3675008 106.08386,10.4332808 105.978336,10.5562608 C105.872319,10.6792408 105.797367,10.8501258 105.76137,11.0453208 C105.744112,11.1382709 105.736715,11.2319359 105.73277,11.3270309 C105.729319,11.4328509 105.729319,11.5379559 105.729319,11.6430609 L105.729319,11.6452059 L105.729319,29.8240823 L105.729319,29.8262273 C105.729319,29.9320473 105.729319,30.0364373 105.73277,30.1422573 C105.736715,30.2380673 105.744112,30.3310173 105.76137,30.4232523 C105.797367,30.6191623 105.872319,30.7900474 105.978336,30.9130274 C106.08386,31.0360074 106.213053,31.1025024 106.345698,31.1025024 C106.478836,31.1025024 106.607536,31.0360074 106.71306,30.9130274 C106.819077,30.7900474 106.894029,30.6191623 106.930026,30.4232523 C106.947284,30.3310173 106.954681,30.2380673 106.958626,30.1422573 C106.962077,30.0364373 106.962077,29.9320473 106.962077,29.8262273 L106.962077,29.8240823 L106.962077,11.6452059 L106.962077,11.6430609 C106.962077,11.5379559 106.962077,11.4328509 106.958626,11.3270309 L106.958626,11.3270309 Z" id="Path" transform="translate(106.345698, 20.735002) scale(-1, 1) translate(-106.345698, -20.735002) "></path>
                <path d="M103.971405,2.82282022 C103.935408,2.6276252 103.860456,2.45674019 103.754439,2.33376018 C103.648915,2.21078017 103.520215,2.14500016 103.387077,2.14500016 C103.254432,2.14500016 103.125239,2.21078017 103.019715,2.33376018 C102.913698,2.45674019 102.838746,2.6276252 102.802749,2.82282022 C102.785491,2.91577022 102.778094,3.00943523 102.774149,3.10453024 C102.770698,3.21035025 102.770698,3.31545525 102.770698,3.42056026 L102.770698,38.0487279 C102.770698,38.1545479 102.770698,38.2589379 102.774149,38.3647579 C102.778094,38.4605679 102.785491,38.553518 102.802749,38.645753 C102.838746,38.841663 102.913698,39.012548 103.019715,39.135528 C103.125239,39.258508 103.254432,39.325003 103.387077,39.325003 C103.520215,39.325003 103.648915,39.258508 103.754439,39.135528 C103.860456,39.012548 103.935408,38.841663 103.971405,38.645753 C103.988663,38.553518 103.99606,38.4605679 104.000005,38.3647579 C104.003456,38.2589379 104.003456,38.1545479 104.003456,38.0487279 L104.003456,3.42056026 C104.003456,3.31545525 104.003456,3.21035025 104.000005,3.10453024 C103.99606,3.00943523 103.988663,2.91577022 103.971405,2.82282022 L103.971405,2.82282022 Z" id="Path" transform="translate(103.387077, 20.735002) scale(-1, 1) translate(-103.387077, -20.735002) "></path>
                <path d="M101.041384,2.38953018 C101.037439,2.29443518 101.030042,2.20077017 101.012784,2.10782016 C100.976787,1.91262515 100.901836,1.74174013 100.795818,1.61876012 C100.690294,1.49578011 100.561594,1.43000011 100.428456,1.43000011 C100.295811,1.43000011 100.166618,1.49578011 100.061094,1.61876012 C99.9550769,1.74174013 99.8801251,1.91262515 99.8441286,2.10782016 C99.82687,2.20077017 99.8194734,2.29443518 99.8155286,2.38953018 C99.8120769,2.49535019 99.8120769,2.6004552 99.8120769,2.70556021 L99.8120769,2.70770521 L99.8120769,38.761583 L99.8120769,38.763728 C99.8120769,38.869548 99.8120769,38.973938 99.8155286,39.079758 C99.8194734,39.175568 99.82687,39.268518 99.8441286,39.360753 C99.8801251,39.556663 99.9550769,39.727548 100.061094,39.8505281 C100.166618,39.9735081 100.295811,40.0400031 100.428456,40.0400031 C100.561594,40.0400031 100.690294,39.9735081 100.795818,39.8505281 C100.901836,39.727548 100.976787,39.556663 101.012784,39.360753 C101.030042,39.268518 101.037439,39.175568 101.041384,39.079758 C101.044836,38.973938 101.044836,38.869548 101.044836,38.763728 L101.044836,38.761583 L101.044836,2.70770521 L101.044836,2.70556021 C101.044836,2.6004552 101.044836,2.49535019 101.041384,2.38953018 L101.041384,2.38953018 Z" id="Path" transform="translate(100.428456, 20.735002) scale(-1, 1) translate(-100.428456, -20.735002) "></path>
                <path d="M98.0541629,15.3353212 C98.0181664,15.1401262 97.9432146,14.9692411 97.8371974,14.8462611 C97.7316732,14.7232811 97.6029732,14.6575011 97.4698353,14.6575011 C97.3371905,14.6575011 97.2079973,14.7232811 97.1024732,14.8462611 C96.9964559,14.9692411 96.9215042,15.1401262 96.8855077,15.3353212 C96.868249,15.4282712 96.8608525,15.5219362 96.8569077,15.6170312 C96.8534559,15.7228512 96.8534559,15.8279562 96.8534559,15.9330612 L96.8534559,25.536227 C96.8534559,25.641332 96.8534559,25.746437 96.8569077,25.852257 C96.8608525,25.948067 96.868249,26.041017 96.8855077,26.133252 C96.9215042,26.329162 96.9964559,26.500047 97.1024732,26.623027 C97.2079973,26.7460071 97.3371905,26.8125021 97.4698353,26.8125021 C97.6029732,26.8125021 97.7316732,26.7460071 97.8371974,26.623027 C97.9432146,26.500047 98.0181664,26.329162 98.0541629,26.133252 C98.0714215,26.041017 98.0788181,25.948067 98.0827629,25.852257 C98.0862146,25.746437 98.0862146,25.641332 98.0862146,25.536227 L98.0862146,15.9330612 C98.0862146,15.8279562 98.0862146,15.7228512 98.0827629,15.6170312 C98.0788181,15.5219362 98.0714215,15.4282712 98.0541629,15.3353212 L98.0541629,15.3353212 Z" id="Path" transform="translate(97.469835, 20.735002) scale(-1, 1) translate(-97.469835, -20.735002) "></path>
                <path d="M95.124142,4.89203038 C95.1201972,4.79693537 95.1128006,4.70327036 95.095542,4.61032035 C95.0595455,4.41512534 94.9845937,4.24424033 94.8785765,4.12126032 C94.7730523,3.99828031 94.6443523,3.9325003 94.5112144,3.9325003 C94.3785695,3.9325003 94.2493764,3.99828031 94.1438523,4.12126032 C94.037835,4.24424033 93.9628833,4.41512534 93.9268867,4.61032035 C93.9096281,4.70327036 93.9022316,4.79693537 93.8982867,4.89203038 C93.894835,4.99785038 93.894835,5.10295539 93.894835,5.2080604 L93.894835,5.2102054 L93.894835,36.2590828 L93.894835,36.2612278 C93.894835,36.3670478 93.894835,36.4714378 93.8982867,36.5772578 C93.9022316,36.6730678 93.9096281,36.7660178 93.9268867,36.8582528 C93.9628833,37.0541628 94.037835,37.2250479 94.1438523,37.3480279 C94.2493764,37.4710079 94.3785695,37.5375029 94.5112144,37.5375029 C94.6443523,37.5375029 94.7730523,37.4710079 94.8785765,37.3480279 C94.9845937,37.2250479 95.0595455,37.0541628 95.095542,36.8582528 C95.1128006,36.7660178 95.1201972,36.6730678 95.124142,36.5772578 C95.1275937,36.4714378 95.1275937,36.3670478 95.1275937,36.2612278 L95.1275937,36.2590828 L95.1275937,5.2102054 L95.1275937,5.2080604 C95.1275937,5.10295539 95.1275937,4.99785038 95.124142,4.89203038 L95.124142,4.89203038 Z" id="Path" transform="translate(94.511214, 20.735002) scale(-1, 1) translate(-94.511214, -20.735002) "></path>
                <path d="M92.1369211,13.9053211 C92.1009245,13.7101261 92.0259728,13.539241 91.9199556,13.416261 C91.8144314,13.293281 91.6857314,13.227501 91.5525935,13.227501 C91.4199486,13.227501 91.2907555,13.293281 91.1852314,13.416261 C91.0792141,13.539241 91.0042624,13.7101261 90.9682658,13.9053211 C90.9510072,13.9982711 90.9436107,14.0919361 90.9396658,14.1870311 C90.9362141,14.2928511 90.9362141,14.3979561 90.9362141,14.5030611 L90.9362141,26.9662271 C90.9362141,27.0720471 90.9362141,27.1764371 90.9396658,27.2822571 C90.9436107,27.3780671 90.9510072,27.4710171 90.9682658,27.5632521 C91.0042624,27.7591621 91.0792141,27.9300471 91.1852314,28.0530272 C91.2907555,28.1760072 91.4199486,28.2425022 91.5525935,28.2425022 C91.6857314,28.2425022 91.8144314,28.1760072 91.9199556,28.0530272 C92.0259728,27.9300471 92.1009245,27.7591621 92.1369211,27.5632521 C92.1541797,27.4710171 92.1615763,27.3780671 92.1655211,27.2822571 C92.1689728,27.1764371 92.1689728,27.0720471 92.1689728,26.9662271 L92.1689728,14.5030611 C92.1689728,14.3979561 92.1689728,14.2928511 92.1655211,14.1870311 C92.1615763,14.0919361 92.1541797,13.9982711 92.1369211,13.9053211 L92.1369211,13.9053211 Z" id="Path" transform="translate(91.552593, 20.735002) scale(-1, 1) translate(-91.552593, -20.735002) "></path>
                <path d="M89.2069002,15.2595312 C89.2029553,15.1644362 89.1955588,15.0707712 89.1783002,14.9778211 C89.1423036,14.7826261 89.0673519,14.6117411 88.9613346,14.4887611 C88.8558105,14.3657811 88.7271105,14.3000011 88.5939725,14.3000011 C88.4613277,14.3000011 88.3321346,14.3657811 88.2266104,14.4887611 C88.1205932,14.6117411 88.0456415,14.7826261 88.0096449,14.9778211 C87.9923863,15.0707712 87.9849897,15.1644362 87.9810449,15.2595312 C87.9775932,15.3653512 87.9775932,15.4704562 87.9775932,15.5755612 L87.9775932,15.5777062 L87.9775932,25.891582 L87.9775932,25.893727 C87.9775932,25.999547 87.9775932,26.103937 87.9810449,26.209757 C87.9849897,26.305567 87.9923863,26.398517 88.0096449,26.490752 C88.0456415,26.686662 88.1205932,26.8575471 88.2266104,26.9805271 C88.3321346,27.1035071 88.4613277,27.1700021 88.5939725,27.1700021 C88.7271105,27.1700021 88.8558105,27.1035071 88.9613346,26.9805271 C89.0673519,26.8575471 89.1423036,26.686662 89.1783002,26.490752 C89.1955588,26.398517 89.2029553,26.305567 89.2069002,26.209757 C89.2103519,26.103937 89.2103519,25.999547 89.2103519,25.893727 L89.2103519,25.891582 L89.2103519,15.5777062 L89.2103519,15.5755612 C89.2103519,15.4704562 89.2103519,15.3653512 89.2069002,15.2595312 L89.2069002,15.2595312 Z" id="Path" transform="translate(88.593973, 20.735002) scale(-1, 1) translate(-88.593973, -20.735002) "></path>
                <path d="M86.494831,8.82453068 C86.4908862,8.72943567 86.4834896,8.63577066 86.466231,8.54282066 C86.4302344,8.34762564 86.3552827,8.17674063 86.2492655,8.05376062 C86.1437413,7.93078061 86.0150413,7.8650006 85.8819034,7.8650006 C85.7492585,7.8650006 85.6200654,7.93078061 85.5145413,8.05376062 C85.408524,8.17674063 85.3335723,8.34762564 85.2975757,8.54282066 C85.2803171,8.63577066 85.2729206,8.72943567 85.2689757,8.82453068 C85.265524,8.93035068 85.265524,9.03545569 85.265524,9.1405607 L85.265524,9.1427057 L85.265524,32.3265825 L85.265524,32.3287275 C85.265524,32.4345475 85.265524,32.5389375 85.2689757,32.6447575 C85.2729206,32.7405675 85.2803171,32.8335175 85.2975757,32.9257525 C85.3335723,33.1216625 85.408524,33.2925476 85.5145413,33.4155276 C85.6200654,33.5385076 85.7492585,33.6050026 85.8819034,33.6050026 C86.0150413,33.6050026 86.1437413,33.5385076 86.2492655,33.4155276 C86.3552827,33.2925476 86.4302344,33.1216625 86.466231,32.9257525 C86.4834896,32.8335175 86.4908862,32.7405675 86.494831,32.6447575 C86.4982827,32.5389375 86.4982827,32.4345475 86.4982827,32.3287275 L86.4982827,32.3265825 L86.4982827,9.1427057 L86.4982827,9.1405607 C86.4982827,9.03545569 86.4982827,8.93035068 86.494831,8.82453068 L86.494831,8.82453068 Z" id="Path" transform="translate(85.881903, 20.735002) scale(-1, 1) translate(-85.881903, -20.735002) "></path>
                <path d="M83.5362101,9.53953073 C83.5322653,9.44443572 83.5248687,9.35077072 83.5076101,9.25782071 C83.4716135,9.0626257 83.3966618,8.89174068 83.2906445,8.76876067 C83.1851204,8.64578066 83.0564204,8.58000066 82.9232825,8.58000066 C82.7906376,8.58000066 82.6614445,8.64578066 82.5559204,8.76876067 C82.4499031,8.89174068 82.3749514,9.0626257 82.3389548,9.25782071 C82.3216962,9.35077072 82.3142996,9.44443572 82.3103548,9.53953073 C82.3069031,9.64535074 82.3069031,9.75045575 82.3069031,9.85556076 L82.3069031,9.85770576 L82.3069031,31.6115824 L82.3069031,31.6137274 C82.3069031,31.7195474 82.3069031,31.8239374 82.3103548,31.9297574 C82.3142996,32.0255675 82.3216962,32.1185175 82.3389548,32.2107525 C82.3749514,32.4066625 82.4499031,32.5775475 82.5559204,32.7005275 C82.6614445,32.8235075 82.7906376,32.8900025 82.9232825,32.8900025 C83.0564204,32.8900025 83.1851204,32.8235075 83.2906445,32.7005275 C83.3966618,32.5775475 83.4716135,32.4066625 83.5076101,32.2107525 C83.5248687,32.1185175 83.5322653,32.0255675 83.5362101,31.9297574 C83.5396618,31.8239374 83.5396618,31.7195474 83.5396618,31.6137274 L83.5396618,31.6115824 L83.5396618,9.85770576 L83.5396618,9.85556076 C83.5396618,9.75045575 83.5396618,9.64535074 83.5362101,9.53953073 L83.5362101,9.53953073 Z" id="Path" transform="translate(82.923282, 20.735002) scale(-1, 1) translate(-82.923282, -20.735002) "></path>
                <path d="M80.5489892,14.2628211 C80.5129926,14.0676261 80.4380409,13.8967411 80.3320236,13.7737611 C80.2264995,13.650781 80.0977995,13.585001 79.9646615,13.585001 C79.8320167,13.585001 79.7028236,13.650781 79.5972994,13.7737611 C79.4912822,13.8967411 79.4163305,14.0676261 79.3803339,14.2628211 C79.3630753,14.3557711 79.3556787,14.4494361 79.3517339,14.5445311 C79.3482822,14.6503511 79.3482822,14.7554561 79.3482822,14.8605611 L79.3482822,26.608727 C79.3482822,26.714547 79.3482822,26.8189371 79.3517339,26.9247571 C79.3556787,27.0205671 79.3630753,27.1135171 79.3803339,27.2057521 C79.4163305,27.4016621 79.4912822,27.5725471 79.5972994,27.6955271 C79.7028236,27.8185071 79.8320167,27.8850021 79.9646615,27.8850021 C80.0977995,27.8850021 80.2264995,27.8185071 80.3320236,27.6955271 C80.4380409,27.5725471 80.5129926,27.4016621 80.5489892,27.2057521 C80.5662478,27.1135171 80.5736443,27.0205671 80.5775892,26.9247571 C80.5810409,26.8189371 80.5810409,26.714547 80.5810409,26.608727 L80.5810409,14.8605611 C80.5810409,14.7554561 80.5810409,14.6503511 80.5775892,14.5445311 C80.5736443,14.4494361 80.5662478,14.3557711 80.5489892,14.2628211 L80.5489892,14.2628211 Z" id="Path" transform="translate(79.964662, 20.735002) scale(-1, 1) translate(-79.964662, -20.735002) "></path>
                <path d="M77.6189683,10.2545308 C77.6150234,10.1594358 77.6076269,10.0657708 77.5903682,9.97282076 C77.5543717,9.77762575 77.47942,9.60674074 77.3734027,9.48376073 C77.2678786,9.36078072 77.1391786,9.29500071 77.0060406,9.29500071 C76.8733958,9.29500071 76.7442027,9.36078072 76.6386785,9.48376073 C76.5326613,9.60674074 76.4577095,9.77762575 76.421713,9.97282076 C76.4044544,10.0657708 76.3970578,10.1594358 76.393113,10.2545308 C76.3896613,10.3603508 76.3896613,10.4654558 76.3896613,10.5705608 L76.3896613,10.5727058 L76.3896613,30.8965824 L76.3896613,30.8987274 C76.3896613,31.0045474 76.3896613,31.1089374 76.393113,31.2147574 C76.3970578,31.3105674 76.4044544,31.4035174 76.421713,31.4957524 C76.4577095,31.6916624 76.5326613,31.8625474 76.6386785,31.9855275 C76.7442027,32.1085075 76.8733958,32.1750025 77.0060406,32.1750025 C77.1391786,32.1750025 77.2678786,32.1085075 77.3734027,31.9855275 C77.47942,31.8625474 77.5543717,31.6916624 77.5903682,31.4957524 C77.6076269,31.4035174 77.6150234,31.3105674 77.6189683,31.2147574 C77.62242,31.1089374 77.62242,31.0045474 77.62242,30.8987274 L77.62242,30.8965824 L77.62242,10.5727058 L77.62242,10.5705608 C77.62242,10.4654558 77.62242,10.3603508 77.6189683,10.2545308 L77.6189683,10.2545308 Z" id="Path" transform="translate(77.006041, 20.735002) scale(-1, 1) translate(-77.006041, -20.735002) "></path>
                <path d="M74.6317473,0.677820052 C74.5957508,0.482625037 74.520799,0.311740024 74.4147818,0.188760014 C74.3092577,0.065780005 74.1805576,0 74.0474197,0 C73.9147749,0 73.7855818,0.065780005 73.6800576,0.188760014 C73.5740404,0.311740024 73.4990886,0.482625037 73.4630921,0.677820052 C73.4458334,0.770770059 73.4384369,0.864435066 73.4344921,0.959530074 C73.4310403,1.06535008 73.4310403,1.17045509 73.4310403,1.2755601 L73.4310403,40.1937281 C73.4310403,40.2995481 73.4310403,40.4039381 73.4344921,40.5097581 C73.4384369,40.6055681 73.4458334,40.6985181 73.4630921,40.7907531 C73.4990886,40.9866631 73.5740404,41.1575482 73.6800576,41.2805282 C73.7855818,41.4035082 73.9147749,41.4700032 74.0474197,41.4700032 C74.1805576,41.4700032 74.3092577,41.4035082 74.4147818,41.2805282 C74.520799,41.1575482 74.5957508,40.9866631 74.6317473,40.7907531 C74.649006,40.6985181 74.6564025,40.6055681 74.6603473,40.5097581 C74.6637991,40.4039381 74.6637991,40.2995481 74.6637991,40.1937281 L74.6637991,1.2755601 C74.6637991,1.17045509 74.6637991,1.06535008 74.6603473,0.959530074 C74.6564025,0.864435066 74.649006,0.770770059 74.6317473,0.677820052 L74.6317473,0.677820052 Z" id="Path" transform="translate(74.047420, 20.735002) scale(-1, 1) translate(-74.047420, -20.735002) "></path>
                <path d="M71.7017264,13.8295311 C71.6977816,13.7344361 71.690385,13.640771 71.6731264,13.547821 C71.6371299,13.352626 71.5621781,13.181741 71.4561609,13.058761 C71.3506367,12.935781 71.2219367,12.870001 71.0887988,12.870001 C70.9561539,12.870001 70.8269608,12.935781 70.7214367,13.058761 C70.6154194,13.181741 70.5404677,13.352626 70.5044712,13.547821 C70.4872125,13.640771 70.479816,13.7344361 70.4758712,13.8295311 C70.4724194,13.9353511 70.4724194,14.0404561 70.4724194,14.1455611 L70.4724194,14.1477061 L70.4724194,27.3215821 L70.4724194,27.3237271 C70.4724194,27.4295471 70.4724194,27.5339371 70.4758712,27.6397571 C70.479816,27.7355671 70.4872125,27.8285171 70.5044712,27.9207521 C70.5404677,28.1166622 70.6154194,28.2875472 70.7214367,28.4105272 C70.8269608,28.5335072 70.9561539,28.6000022 71.0887988,28.6000022 C71.2219367,28.6000022 71.3506367,28.5335072 71.4561609,28.4105272 C71.5621781,28.2875472 71.6371299,28.1166622 71.6731264,27.9207521 C71.690385,27.8285171 71.6977816,27.7355671 71.7017264,27.6397571 C71.7051781,27.5339371 71.7051781,27.4295471 71.7051781,27.3237271 L71.7051781,27.3215821 L71.7051781,14.1477061 L71.7051781,14.1455611 C71.7051781,14.0404561 71.7051781,13.9353511 71.7017264,13.8295311 L71.7017264,13.8295311 Z" id="Path" transform="translate(71.088799, 20.735002) scale(-1, 1) translate(-71.088799, -20.735002) "></path>
                <path d="M68.7145055,15.6928212 C68.6785089,15.4976262 68.6035572,15.3267412 68.49754,15.2037612 C68.3920158,15.0807812 68.2633158,15.0150012 68.1301779,15.0150012 C67.997533,15.0150012 67.8683399,15.0807812 67.7628158,15.2037612 C67.6567985,15.3267412 67.5818468,15.4976262 67.5458502,15.6928212 C67.5285916,15.7857712 67.5211951,15.8794362 67.5172502,15.9745312 C67.5137985,16.0803512 67.5137985,16.1854562 67.5137985,16.2905612 L67.5137985,25.1787269 C67.5137985,25.2838319 67.5137985,25.3889369 67.5172502,25.494757 C67.5211951,25.590567 67.5285916,25.683517 67.5458502,25.775752 C67.5818468,25.971662 67.6567985,26.142547 67.7628158,26.265527 C67.8683399,26.388507 67.997533,26.455002 68.1301779,26.455002 C68.2633158,26.455002 68.3920158,26.388507 68.49754,26.265527 C68.6035572,26.142547 68.6785089,25.971662 68.7145055,25.775752 C68.7317641,25.683517 68.7391607,25.590567 68.7431055,25.494757 C68.7465572,25.3889369 68.7465572,25.2838319 68.7465572,25.1787269 L68.7465572,16.2905612 C68.7465572,16.1854562 68.7465572,16.0803512 68.7431055,15.9745312 C68.7391607,15.8794362 68.7317641,15.7857712 68.7145055,15.6928212 L68.7145055,15.6928212 Z" id="Path" transform="translate(68.130178, 20.735002) scale(-1, 1) translate(-68.130178, -20.735002) "></path>
                <path d="M65.7844846,13.8295311 C65.7805398,13.7344361 65.7731432,13.640771 65.7558846,13.547821 C65.719888,13.352626 65.6449363,13.181741 65.538919,13.058761 C65.4333949,12.935781 65.3046949,12.870001 65.171557,12.870001 C65.0389121,12.870001 64.909719,12.935781 64.8041949,13.058761 C64.6981776,13.181741 64.6232259,13.352626 64.5872293,13.547821 C64.5699707,13.640771 64.5625741,13.7344361 64.5586293,13.8295311 C64.5551776,13.9353511 64.5551776,14.0404561 64.5551776,14.1455611 L64.5551776,14.1477061 L64.5551776,27.3215821 L64.5551776,27.3237271 C64.5551776,27.4295471 64.5551776,27.5339371 64.5586293,27.6397571 C64.5625741,27.7355671 64.5699707,27.8285171 64.5872293,27.9207521 C64.6232259,28.1166622 64.6981776,28.2875472 64.8041949,28.4105272 C64.909719,28.5335072 65.0389121,28.6000022 65.171557,28.6000022 C65.3046949,28.6000022 65.4333949,28.5335072 65.538919,28.4105272 C65.6449363,28.2875472 65.719888,28.1166622 65.7558846,27.9207521 C65.7731432,27.8285171 65.7805398,27.7355671 65.7844846,27.6397571 C65.7879363,27.5339371 65.7879363,27.4295471 65.7879363,27.3237271 L65.7879363,27.3215821 L65.7879363,14.1477061 L65.7879363,14.1455611 C65.7879363,14.0404561 65.7879363,13.9353511 65.7844846,13.8295311 L65.7844846,13.8295311 Z" id="Path" transform="translate(65.171557, 20.735002) scale(-1, 1) translate(-65.171557, -20.735002) "></path>
                <path d="M62.7972637,17.1228213 C62.7612671,16.9276263 62.6863154,16.7567413 62.5802981,16.6337613 C62.474774,16.5107813 62.346074,16.4450013 62.212936,16.4450013 C62.0802912,16.4450013 61.9510981,16.5107813 61.8455739,16.6337613 C61.7395567,16.7567413 61.664605,16.9276263 61.6286084,17.1228213 C61.6113498,17.2157713 61.6039532,17.3094363 61.6000084,17.4045313 C61.5965567,17.5103513 61.5965567,17.6154564 61.5965567,17.7205614 L61.5965567,23.7487268 C61.5965567,23.8538318 61.5965567,23.9589368 61.6000084,24.0647568 C61.6039532,24.1605669 61.6113498,24.2535169 61.6286084,24.3464669 C61.664605,24.5416619 61.7395567,24.7125469 61.8455739,24.8355269 C61.9510981,24.9585069 62.0802912,25.0250019 62.212936,25.0250019 C62.346074,25.0250019 62.474774,24.9585069 62.5802981,24.8355269 C62.6863154,24.7125469 62.7612671,24.5416619 62.7972637,24.3464669 C62.8145223,24.2535169 62.8219188,24.1605669 62.8258637,24.0647568 C62.8293154,23.9589368 62.8293154,23.8538318 62.8293154,23.7487268 L62.8293154,17.7205614 C62.8293154,17.6154564 62.8293154,17.5103513 62.8258637,17.4045313 C62.8219188,17.3094363 62.8145223,17.2157713 62.7972637,17.1228213 L62.7972637,17.1228213 Z" id="Path" transform="translate(62.212936, 20.735002) scale(-1, 1) translate(-62.212936, -20.735002) "></path>
                <path d="M59.8672428,3.81953029 C59.8632979,3.72443529 59.8559014,3.63077028 59.8386428,3.53782027 C59.8026462,3.34262526 59.7276945,3.17174024 59.6216772,3.04876023 C59.5161531,2.92578022 59.3874531,2.86000022 59.2543151,2.86000022 C59.1216703,2.86000022 58.9924772,2.92578022 58.886953,3.04876023 C58.7809358,3.17174024 58.705984,3.34262526 58.6699875,3.53782027 C58.6527289,3.63077028 58.6453323,3.72443529 58.6413875,3.81953029 C58.6379358,3.9253503 58.6379358,4.03045531 58.6379358,4.13556032 L58.6379358,4.13770532 L58.6379358,37.3315829 L58.6379358,37.3337279 C58.6379358,37.4395479 58.6379358,37.5439379 58.6413875,37.6497579 C58.6453323,37.7455679 58.6527289,37.8385179 58.6699875,37.9307529 C58.705984,38.1266629 58.7809358,38.2975479 58.886953,38.4205279 C58.9924772,38.543508 59.1216703,38.610003 59.2543151,38.610003 C59.3874531,38.610003 59.5161531,38.543508 59.6216772,38.4205279 C59.7276945,38.2975479 59.8026462,38.1266629 59.8386428,37.9307529 C59.8559014,37.8385179 59.8632979,37.7455679 59.8672428,37.6497579 C59.8706945,37.5439379 59.8706945,37.4395479 59.8706945,37.3337279 L59.8706945,37.3315829 L59.8706945,4.13770532 L59.8706945,4.13556032 C59.8706945,4.03045531 59.8706945,3.9253503 59.8672428,3.81953029 L59.8672428,3.81953029 Z" id="Path" transform="translate(59.254315, 20.735002) scale(-1, 1) translate(-59.254315, -20.735002) "></path>
                <path d="M56.8800218,12.475321 C56.8440253,12.2801259 56.7690735,12.1092409 56.6630563,11.9862609 C56.5575322,11.8632809 56.4288321,11.7975009 56.2956942,11.7975009 C56.1630494,11.7975009 56.0338563,11.8632809 55.9283321,11.9862609 C55.8223149,12.1092409 55.7473631,12.2801259 55.7113666,12.475321 C55.6941079,12.568271 55.6867114,12.661936 55.6827666,12.757031 C55.6793148,12.862851 55.6793148,12.967956 55.6793148,13.073061 L55.6793148,13.075206 L55.6793148,28.3940822 L55.6793148,28.3962272 C55.6793148,28.5020472 55.6793148,28.6064372 55.6827666,28.7122572 C55.6867114,28.8080672 55.6941079,28.9010172 55.7113666,28.9932522 C55.7473631,29.1891622 55.8223149,29.3600473 55.9283321,29.4830273 C56.0338563,29.6060073 56.1630494,29.6725023 56.2956942,29.6725023 C56.4288321,29.6725023 56.5575322,29.6060073 56.6630563,29.4830273 C56.7690735,29.3600473 56.8440253,29.1891622 56.8800218,28.9932522 C56.8972805,28.9010172 56.904677,28.8080672 56.9086218,28.7122572 C56.9120736,28.6064372 56.9120736,28.5020472 56.9120736,28.3962272 L56.9120736,13.073061 C56.9120736,12.967956 56.9120736,12.862851 56.9086218,12.757031 C56.904677,12.661936 56.8972805,12.568271 56.8800218,12.475321 L56.8800218,12.475321 Z" id="Path" transform="translate(56.295694, 20.735002) scale(-1, 1) translate(-56.295694, -20.735002) "></path>
                <path d="M53.9500009,18.1195314 C53.9460561,18.0244364 53.9386595,17.9307714 53.9214009,17.8378214 C53.8854044,17.6426264 53.8104526,17.4717413 53.7044354,17.3487613 C53.5989112,17.2257813 53.4702112,17.1600013 53.3370733,17.1600013 C53.2044284,17.1600013 53.0752353,17.2257813 52.9697112,17.3487613 C52.8636939,17.4717413 52.7887422,17.6426264 52.7527457,17.8378214 C52.735487,17.9307714 52.7280905,18.0244364 52.7241457,18.1195314 C52.7206939,18.2253514 52.7206939,18.3304564 52.7206939,18.4355614 L52.7206939,18.4377064 L52.7206939,23.0315818 L52.7206939,23.0337268 C52.7206939,23.1388318 52.7206939,23.2439368 52.7241457,23.3497568 C52.7280905,23.4455668 52.735487,23.5385168 52.7527457,23.6314668 C52.7887422,23.8266618 52.8636939,23.9975468 52.9697112,24.1205268 C53.0752353,24.2435069 53.2044284,24.3100019 53.3370733,24.3100019 C53.4702112,24.3100019 53.5989112,24.2435069 53.7044354,24.1205268 C53.8104526,23.9975468 53.8854044,23.8266618 53.9214009,23.6314668 C53.9386595,23.5385168 53.9460561,23.4455668 53.9500009,23.3497568 C53.9534526,23.2439368 53.9534526,23.1388318 53.9534526,23.0337268 L53.9534526,23.0315818 L53.9534526,18.4377064 L53.9534526,18.4355614 C53.9534526,18.3304564 53.9534526,18.2253514 53.9500009,18.1195314 L53.9500009,18.1195314 Z" id="Path" transform="translate(53.337073, 20.735002) scale(-1, 1) translate(-53.337073, -20.735002) "></path>
                <path d="M51.2093317,18.5528214 C51.1733352,18.3576264 51.0983835,18.1867414 50.9923662,18.0637614 C50.8868421,17.9407814 50.7581421,17.8750014 50.6250041,17.8750014 C50.4923593,17.8750014 50.3631662,17.9407814 50.257642,18.0637614 C50.1516248,18.1867414 50.076673,18.3576264 50.0406765,18.5528214 C50.0234179,18.6457714 50.0160213,18.7394364 50.0120765,18.8345314 C50.0086248,18.9403515 50.0086248,19.0454565 50.0086248,19.1505615 L50.0086248,22.3187267 C50.0086248,22.4238317 50.0086248,22.5289367 50.0120765,22.6347567 C50.0160213,22.7305667 50.0234179,22.8235168 50.0406765,22.9164668 C50.076673,23.1116618 50.1516248,23.2825468 50.257642,23.4055268 C50.3631662,23.5285068 50.4923593,23.5950018 50.6250041,23.5950018 C50.7581421,23.5950018 50.8868421,23.5285068 50.9923662,23.4055268 C51.0983835,23.2825468 51.1733352,23.1116618 51.2093317,22.9164668 C51.2265904,22.8235168 51.2339869,22.7305667 51.2379317,22.6347567 C51.2413835,22.5289367 51.2413835,22.4238317 51.2413835,22.3187267 L51.2413835,19.1505615 C51.2413835,19.0454565 51.2413835,18.9403515 51.2379317,18.8345314 C51.2339869,18.7394364 51.2265904,18.6457714 51.2093317,18.5528214 L51.2093317,18.5528214 Z" id="Path" transform="translate(50.625004, 20.735002) scale(-1, 1) translate(-50.625004, -20.735002) "></path>
                <path d="M48.2793108,12.399531 C48.275366,12.3044359 48.2679694,12.2107709 48.2507108,12.1178209 C48.2147143,11.9226259 48.1397625,11.7517409 48.0337453,11.6287609 C47.9282211,11.5057809 47.7995211,11.4400009 47.6663832,11.4400009 C47.5337384,11.4400009 47.4045452,11.5057809 47.2990211,11.6287609 C47.1930038,11.7517409 47.1180521,11.9226259 47.0820556,12.1178209 C47.0647969,12.2107709 47.0574004,12.3044359 47.0534556,12.399531 C47.0500038,12.505351 47.0500038,12.610456 47.0500038,12.715561 L47.0500038,12.717706 L47.0500038,28.7515822 L47.0500038,28.7537272 C47.0500038,28.8595472 47.0500038,28.9639372 47.0534556,29.0697572 C47.0574004,29.1655672 47.0647969,29.2585172 47.0820556,29.3507523 C47.1180521,29.5466623 47.1930038,29.7175473 47.2990211,29.8405273 C47.4045452,29.9635073 47.5337384,30.0300023 47.6663832,30.0300023 C47.7995211,30.0300023 47.9282211,29.9635073 48.0337453,29.8405273 C48.1397625,29.7175473 48.2147143,29.5466623 48.2507108,29.3507523 C48.2679694,29.2585172 48.275366,29.1655672 48.2793108,29.0697572 C48.2827626,28.9639372 48.2827626,28.8595472 48.2827626,28.7537272 L48.2827626,28.7515822 L48.2827626,12.717706 L48.2827626,12.715561 C48.2827626,12.610456 48.2827626,12.505351 48.2793108,12.399531 L48.2793108,12.399531 Z" id="Path" transform="translate(47.666383, 20.735002) scale(-1, 1) translate(-47.666383, -20.735002) "></path>
                <path d="M45.2920899,13.547821 C45.2560934,13.352626 45.1811416,13.181741 45.0751244,13.058761 C44.9696002,12.935781 44.8409002,12.870001 44.7077623,12.870001 C44.5751174,12.870001 44.4459243,12.935781 44.3404002,13.058761 C44.2343829,13.181741 44.1594312,13.352626 44.1234346,13.547821 C44.106176,13.640771 44.0987795,13.7344361 44.0948346,13.8295311 C44.0913829,13.9353511 44.0913829,14.0404561 44.0913829,14.1455611 L44.0913829,27.3237271 C44.0913829,27.4295471 44.0913829,27.5339371 44.0948346,27.6397571 C44.0987795,27.7355671 44.106176,27.8285171 44.1234346,27.9207521 C44.1594312,28.1166622 44.2343829,28.2875472 44.3404002,28.4105272 C44.4459243,28.5335072 44.5751174,28.6000022 44.7077623,28.6000022 C44.8409002,28.6000022 44.9696002,28.5335072 45.0751244,28.4105272 C45.1811416,28.2875472 45.2560934,28.1166622 45.2920899,27.9207521 C45.3093485,27.8285171 45.3167451,27.7355671 45.3206899,27.6397571 C45.3241416,27.5339371 45.3241416,27.4295471 45.3241416,27.3237271 L45.3241416,14.1455611 C45.3241416,14.0404561 45.3241416,13.9353511 45.3206899,13.8295311 C45.3167451,13.7344361 45.3093485,13.640771 45.2920899,13.547821 L45.2920899,13.547821 Z" id="Path" transform="translate(44.707762, 20.735002) scale(-1, 1) translate(-44.707762, -20.735002) "></path>
                <path d="M42.362069,14.5445311 C42.3581242,14.4494361 42.3507276,14.3557711 42.333469,14.2628211 C42.2974724,14.0676261 42.2225207,13.8967411 42.1165035,13.7737611 C42.0109793,13.650781 41.8822793,13.585001 41.7491414,13.585001 C41.6164965,13.585001 41.4873034,13.650781 41.3817793,13.7737611 C41.275762,13.8967411 41.2008103,14.0676261 41.1648137,14.2628211 C41.1475551,14.3557711 41.1401586,14.4494361 41.1362137,14.5445311 C41.132762,14.6503511 41.132762,14.7554561 41.132762,14.8605611 L41.132762,14.8627061 L41.132762,26.606582 L41.132762,26.608727 C41.132762,26.714547 41.132762,26.8189371 41.1362137,26.9247571 C41.1401586,27.0205671 41.1475551,27.1135171 41.1648137,27.2057521 C41.2008103,27.4016621 41.275762,27.5725471 41.3817793,27.6955271 C41.4873034,27.8185071 41.6164965,27.8850021 41.7491414,27.8850021 C41.8822793,27.8850021 42.0109793,27.8185071 42.1165035,27.6955271 C42.2225207,27.5725471 42.2974724,27.4016621 42.333469,27.2057521 C42.3507276,27.1135171 42.3581242,27.0205671 42.362069,26.9247571 C42.3655207,26.8189371 42.3655207,26.714547 42.3655207,26.608727 L42.3655207,26.606582 L42.3655207,14.8627061 L42.3655207,14.8605611 C42.3655207,14.7554561 42.3655207,14.6503511 42.362069,14.5445311 L42.362069,14.5445311 Z" id="Path" transform="translate(41.749141, 20.735002) scale(-1, 1) translate(-41.749141, -20.735002) "></path>
                <path d="M39.3748481,16.0503212 C39.3388515,15.8551262 39.2638998,15.6842412 39.1578825,15.5612612 C39.0523584,15.4382812 38.9236584,15.3725012 38.7905204,15.3725012 C38.6578756,15.3725012 38.5286825,15.4382812 38.4231583,15.5612612 C38.3171411,15.6842412 38.2421894,15.8551262 38.2061928,16.0503212 C38.1889342,16.1432712 38.1815376,16.2369362 38.1775928,16.3320313 C38.1741411,16.4378513 38.1741411,16.5429563 38.1741411,16.6480613 L38.1741411,24.8212269 C38.1741411,24.9263319 38.1741411,25.0314369 38.1775928,25.1372569 C38.1815376,25.2330669 38.1889342,25.3260169 38.2061928,25.4189669 C38.2421894,25.614162 38.3171411,25.785047 38.4231583,25.908027 C38.5286825,26.031007 38.6578756,26.097502 38.7905204,26.097502 C38.9236584,26.097502 39.0523584,26.031007 39.1578825,25.908027 C39.2638998,25.785047 39.3388515,25.614162 39.3748481,25.4189669 C39.3921067,25.3260169 39.3995033,25.2330669 39.4034481,25.1372569 C39.4068998,25.0314369 39.4068998,24.9263319 39.4068998,24.8212269 L39.4068998,16.6480613 C39.4068998,16.5429563 39.4068998,16.4378513 39.4034481,16.3320313 C39.3995033,16.2369362 39.3921067,16.1432712 39.3748481,16.0503212 L39.3748481,16.0503212 Z" id="Path" transform="translate(38.790520, 20.735002) scale(-1, 1) translate(-38.790520, -20.735002) "></path>
                <path d="M36.4162272,10.3303208 C36.3802306,10.1351258 36.3052789,9.96424076 36.1992616,9.84126075 C36.0937375,9.71828075 35.9650375,9.65250074 35.8318995,9.65250074 C35.6992547,9.65250074 35.5700616,9.71828075 35.4645374,9.84126075 C35.3585202,9.96424076 35.2835685,10.1351258 35.2475719,10.3303208 C35.2303133,10.4232708 35.2229167,10.5169358 35.2189719,10.6120308 C35.2155202,10.7178508 35.2155202,10.8229558 35.2155202,10.9280608 L35.2155202,30.5412273 C35.2155202,30.6470474 35.2155202,30.7514374 35.2189719,30.8572574 C35.2229167,30.9530674 35.2303133,31.0460174 35.2475719,31.1382524 C35.2835685,31.3341624 35.3585202,31.5050474 35.4645374,31.6280274 C35.5700616,31.7510074 35.6992547,31.8175024 35.8318995,31.8175024 C35.9650375,31.8175024 36.0937375,31.7510074 36.1992616,31.6280274 C36.3052789,31.5050474 36.3802306,31.3341624 36.4162272,31.1382524 C36.4334858,31.0460174 36.4408823,30.9530674 36.4448272,30.8572574 C36.4482789,30.7514374 36.4482789,30.6470474 36.4482789,30.5412273 L36.4482789,10.9280608 C36.4482789,10.8229558 36.4482789,10.7178508 36.4448272,10.6120308 C36.4408823,10.5169358 36.4334858,10.4232708 36.4162272,10.3303208 L36.4162272,10.3303208 Z" id="Path" transform="translate(35.831900, 20.735002) scale(-1, 1) translate(-35.831900, -20.735002) "></path>
                <path d="M33.4862062,17.4045313 C33.4822614,17.3094363 33.4748649,17.2157713 33.4576062,17.1228213 C33.4216097,16.9276263 33.346658,16.7567413 33.2406407,16.6337613 C33.1351166,16.5107813 33.0064166,16.4450013 32.8732786,16.4450013 C32.7406338,16.4450013 32.6114407,16.5107813 32.5059165,16.6337613 C32.3998993,16.7567413 32.3249475,16.9276263 32.288951,17.1228213 C32.2716924,17.2157713 32.2642958,17.3094363 32.260351,17.4045313 C32.2568993,17.5103513 32.2568993,17.6154564 32.2568993,17.7205614 L32.2568993,17.7227064 L32.2568993,23.7465818 L32.2568993,23.7487268 C32.2568993,23.8538318 32.2568993,23.9589368 32.260351,24.0647568 C32.2642958,24.1605669 32.2716924,24.2535169 32.288951,24.3464669 C32.3249475,24.5416619 32.3998993,24.7125469 32.5059165,24.8355269 C32.6114407,24.9585069 32.7406338,25.0250019 32.8732786,25.0250019 C33.0064166,25.0250019 33.1351166,24.9585069 33.2406407,24.8355269 C33.346658,24.7125469 33.4216097,24.5416619 33.4576062,24.3464669 C33.4748649,24.2535169 33.4822614,24.1605669 33.4862062,24.0647568 C33.489658,23.9589368 33.489658,23.8538318 33.489658,23.7487268 L33.489658,23.7465818 L33.489658,17.7227064 L33.489658,17.7205614 C33.489658,17.6154564 33.489658,17.5103513 33.4862062,17.4045313 L33.4862062,17.4045313 Z" id="Path" transform="translate(32.873279, 20.735002) scale(-1, 1) translate(-32.873279, -20.735002) "></path>
                <path d="M30.4989853,14.6203211 C30.4629888,14.4251261 30.388037,14.2542411 30.2820198,14.1312611 C30.1764956,14.0082811 30.0477956,13.9425011 29.9146577,13.9425011 C29.7820129,13.9425011 29.6528197,14.0082811 29.5472956,14.1312611 C29.4412784,14.2542411 29.3663266,14.4251261 29.3303301,14.6203211 C29.3130714,14.7132711 29.3056749,14.8069361 29.3017301,14.9020311 C29.2982783,15.0078512 29.2982783,15.1129562 29.2982783,15.2180612 L29.2982783,26.251227 C29.2982783,26.357047 29.2982783,26.461437 29.3017301,26.567257 C29.3056749,26.663067 29.3130714,26.7560171 29.3303301,26.8482521 C29.3663266,27.0441621 29.4412784,27.2150471 29.5472956,27.3380271 C29.6528197,27.4610071 29.7820129,27.5275021 29.9146577,27.5275021 C30.0477956,27.5275021 30.1764956,27.4610071 30.2820198,27.3380271 C30.388037,27.2150471 30.4629888,27.0441621 30.4989853,26.8482521 C30.5162439,26.7560171 30.5236405,26.663067 30.5275853,26.567257 C30.5310371,26.461437 30.5310371,26.357047 30.5310371,26.251227 L30.5310371,15.2180612 C30.5310371,15.1129562 30.5310371,15.0078512 30.5275853,14.9020311 C30.5236405,14.8069361 30.5162439,14.7132711 30.4989853,14.6203211 L30.4989853,14.6203211 Z" id="Path" transform="translate(29.914658, 20.735002) scale(-1, 1) translate(-29.914658, -20.735002) "></path>
                <path d="M27.8568952,11.6845309 C27.8529504,11.5894359 27.8455539,11.4957709 27.8282952,11.4028209 C27.7922987,11.2076259 27.717347,11.0367408 27.6113297,10.9137608 C27.5058056,10.7907808 27.3771055,10.7250008 27.2439676,10.7250008 C27.1113228,10.7250008 26.9821297,10.7907808 26.8766055,10.9137608 C26.7705883,11.0367408 26.6956365,11.2076259 26.65964,11.4028209 C26.6423814,11.4957709 26.6349848,11.5894359 26.63104,11.6845309 C26.6275882,11.7903509 26.6275882,11.8954559 26.6275882,12.0005609 L26.6275882,12.0027059 L26.6275882,29.4665823 L26.6275882,29.4687273 C26.6275882,29.5745473 26.6275882,29.6789373 26.63104,29.7847573 C26.6349848,29.8805673 26.6423814,29.9735173 26.65964,30.0657523 C26.6956365,30.2616623 26.7705883,30.4325473 26.8766055,30.5555273 C26.9821297,30.6785074 27.1113228,30.7450024 27.2439676,30.7450024 C27.3771055,30.7450024 27.5058056,30.6785074 27.6113297,30.5555273 C27.717347,30.4325473 27.7922987,30.2616623 27.8282952,30.0657523 C27.8455539,29.9735173 27.8529504,29.8805673 27.8568952,29.7847573 C27.860347,29.6789373 27.860347,29.5745473 27.860347,29.4687273 L27.860347,29.4665823 L27.860347,12.0027059 L27.860347,12.0005609 C27.860347,11.8954559 27.860347,11.7903509 27.8568952,11.6845309 L27.8568952,11.6845309 Z" id="Path" transform="translate(27.243968, 20.735002) scale(-1, 1) translate(-27.243968, -20.735002) "></path>
                <path d="M24.8696743,7.11282055 C24.8336778,6.91762553 24.758726,6.74674052 24.6527088,6.62376051 C24.5471846,6.5007805 24.4184846,6.43500049 24.2853467,6.43500049 C24.1527019,6.43500049 24.0235087,6.5007805 23.9179846,6.62376051 C23.8119673,6.74674052 23.7370156,6.91762553 23.7010191,7.11282055 C23.6837604,7.20577055 23.6763639,7.29943556 23.6724191,7.39453057 C23.6689673,7.50035058 23.6689673,7.60545558 23.6689673,7.71056059 L23.6689673,7.71270559 L23.6689673,33.7565826 L23.6689673,33.7587276 C23.6689673,33.8645476 23.6689673,33.9689376 23.6724191,34.0747576 C23.6763639,34.1705676 23.6837604,34.2635176 23.7010191,34.3557526 C23.7370156,34.5516626 23.8119673,34.7225477 23.9179846,34.8455277 C24.0235087,34.9685077 24.1527019,35.0350027 24.2853467,35.0350027 C24.4184846,35.0350027 24.5471846,34.9685077 24.6527088,34.8455277 C24.758726,34.7225477 24.8336778,34.5516626 24.8696743,34.3557526 C24.8869329,34.2635176 24.8943295,34.1705676 24.8982743,34.0747576 C24.901726,33.9689376 24.901726,33.8645476 24.901726,33.7587276 L24.901726,7.71056059 C24.901726,7.60545558 24.901726,7.50035058 24.8982743,7.39453057 C24.8943295,7.29943556 24.8869329,7.20577055 24.8696743,7.11282055 L24.8696743,7.11282055 Z" id="Path" transform="translate(24.285347, 20.735002) scale(-1, 1) translate(-24.285347, -20.735002) "></path>
                <path d="M21.9396534,9.53953073 C21.9357086,9.44443572 21.928312,9.35077072 21.9110534,9.25782071 C21.8750569,9.0626257 21.8001051,8.89174068 21.6940879,8.76876067 C21.5885637,8.64578066 21.4598637,8.58000066 21.3267258,8.58000066 C21.1940809,8.58000066 21.0648878,8.64578066 20.9593637,8.76876067 C20.8533464,8.89174068 20.7783947,9.0626257 20.7423981,9.25782071 C20.7251395,9.35077072 20.717743,9.44443572 20.7137981,9.53953073 C20.7103464,9.64535074 20.7103464,9.75045575 20.7103464,9.85556076 L20.7103464,9.85770576 L20.7103464,31.6115824 L20.7103464,31.6137274 C20.7103464,31.7195474 20.7103464,31.8239374 20.7137981,31.9297574 C20.717743,32.0255675 20.7251395,32.1185175 20.7423981,32.2107525 C20.7783947,32.4066625 20.8533464,32.5775475 20.9593637,32.7005275 C21.0648878,32.8235075 21.1940809,32.8900025 21.3267258,32.8900025 C21.4598637,32.8900025 21.5885637,32.8235075 21.6940879,32.7005275 C21.8001051,32.5775475 21.8750569,32.4066625 21.9110534,32.2107525 C21.928312,32.1185175 21.9357086,32.0255675 21.9396534,31.9297574 C21.9431051,31.8239374 21.9431051,31.7195474 21.9431051,31.6137274 L21.9431051,31.6115824 L21.9431051,9.85770576 L21.9431051,9.85556076 C21.9431051,9.75045575 21.9431051,9.64535074 21.9396534,9.53953073 L21.9396534,9.53953073 Z" id="Path" transform="translate(21.326726, 20.735002) scale(-1, 1) translate(-21.326726, -20.735002) "></path>
                <path d="M18.9810325,14.5445311 C18.9770877,14.4494361 18.9696911,14.3557711 18.9524325,14.2628211 C18.9164359,14.0676261 18.8414842,13.8967411 18.735467,13.7737611 C18.6299428,13.650781 18.5012428,13.585001 18.3681049,13.585001 C18.23546,13.585001 18.1062669,13.650781 18.0007428,13.7737611 C17.8947255,13.8967411 17.8197738,14.0676261 17.7837772,14.2628211 C17.7665186,14.3557711 17.7591221,14.4494361 17.7551772,14.5445311 C17.7517255,14.6503511 17.7517255,14.7554561 17.7517255,14.8605611 L17.7517255,14.8627061 L17.7517255,26.606582 L17.7517255,26.608727 C17.7517255,26.714547 17.7517255,26.8189371 17.7551772,26.9247571 C17.7591221,27.0205671 17.7665186,27.1135171 17.7837772,27.2057521 C17.8197738,27.4016621 17.8947255,27.5725471 18.0007428,27.6955271 C18.1062669,27.8185071 18.23546,27.8850021 18.3681049,27.8850021 C18.5012428,27.8850021 18.6299428,27.8185071 18.735467,27.6955271 C18.8414842,27.5725471 18.9164359,27.4016621 18.9524325,27.2057521 C18.9696911,27.1135171 18.9770877,27.0205671 18.9810325,26.9247571 C18.9844842,26.8189371 18.9844842,26.714547 18.9844842,26.608727 L18.9844842,26.606582 L18.9844842,14.8627061 L18.9844842,14.8605611 C18.9844842,14.7554561 18.9844842,14.6503511 18.9810325,14.5445311 L18.9810325,14.5445311 Z" id="Path" transform="translate(18.368105, 20.735002) scale(-1, 1) translate(-18.368105, -20.735002) "></path>
                <path d="M15.9938116,9.25782071 C15.957815,9.0626257 15.8828633,8.89174068 15.776846,8.76876067 C15.6713219,8.64578066 15.5426219,8.58000066 15.4094839,8.58000066 C15.2768391,8.58000066 15.147646,8.64578066 15.0421218,8.76876067 C14.9361046,8.89174068 14.8611529,9.0626257 14.8251563,9.25782071 C14.8078977,9.35077072 14.8005011,9.44443572 14.7965563,9.53953073 C14.7931046,9.64535074 14.7931046,9.75045575 14.7931046,9.85556076 L14.7931046,9.85770576 L14.7931046,31.6115824 L14.7931046,31.6137274 C14.7931046,31.7195474 14.7931046,31.8239374 14.7965563,31.9297574 C14.8005011,32.0255675 14.8078977,32.1185175 14.8251563,32.2107525 C14.8611529,32.4066625 14.9361046,32.5775475 15.0421218,32.7005275 C15.147646,32.8235075 15.2768391,32.8900025 15.4094839,32.8900025 C15.5426219,32.8900025 15.6713219,32.8235075 15.776846,32.7005275 C15.8828633,32.5775475 15.957815,32.4066625 15.9938116,32.2107525 C16.0110702,32.1185175 16.0184667,32.0255675 16.0224116,31.9297574 C16.0258633,31.8239374 16.0258633,31.7195474 16.0258633,31.6137274 L16.0258633,9.85556076 C16.0258633,9.75045575 16.0258633,9.64535074 16.0224116,9.53953073 C16.0184667,9.44443572 16.0110702,9.35077072 15.9938116,9.25782071 L15.9938116,9.25782071 Z" id="Path" transform="translate(15.409484, 20.735002) scale(-1, 1) translate(-15.409484, -20.735002) "></path>
                <path d="M13.0637907,10.9695308 C13.0598458,10.8744358 13.0524493,10.7807708 13.0351907,10.6878208 C12.9991941,10.4926258 12.9242424,10.3217408 12.8182251,10.1987608 C12.712701,10.0757808 12.584001,10.0100008 12.450863,10.0100008 C12.3182182,10.0100008 12.1890251,10.0757808 12.0835009,10.1987608 C11.9774837,10.3217408 11.9025319,10.4926258 11.8665354,10.6878208 C11.8492768,10.7807708 11.8418802,10.8744358 11.8379354,10.9695308 C11.8344837,11.0753508 11.8344837,11.1804559 11.8344837,11.2855609 L11.8344837,11.2877059 L11.8344837,30.1815823 L11.8344837,30.1837273 C11.8344837,30.2895473 11.8344837,30.3939373 11.8379354,30.4997573 C11.8418802,30.5955673 11.8492768,30.6885174 11.8665354,30.7807524 C11.9025319,30.9766624 11.9774837,31.1475474 12.0835009,31.2705274 C12.1890251,31.3935074 12.3182182,31.4600024 12.450863,31.4600024 C12.584001,31.4600024 12.712701,31.3935074 12.8182251,31.2705274 C12.9242424,31.1475474 12.9991941,30.9766624 13.0351907,30.7807524 C13.0524493,30.6885174 13.0598458,30.5955673 13.0637907,30.4997573 C13.0672424,30.3939373 13.0672424,30.2895473 13.0672424,30.1837273 L13.0672424,30.1815823 L13.0672424,11.2877059 L13.0672424,11.2855609 C13.0672424,11.1804559 13.0672424,11.0753508 13.0637907,10.9695308 L13.0637907,10.9695308 Z" id="Path" transform="translate(12.450863, 20.735002) scale(-1, 1) translate(-12.450863, -20.735002) "></path>
                <path d="M10.0765697,17.1228213 C10.0405732,16.9276263 9.96562145,16.7567413 9.8596042,16.6337613 C9.75408006,16.5107813 9.62538005,16.4450013 9.49224211,16.4450013 C9.35959727,16.4450013 9.23040416,16.5107813 9.12488001,16.6337613 C9.01886276,16.7567413 8.94391103,16.9276263 8.90791448,17.1228213 C8.89065585,17.2157713 8.8832593,17.3094363 8.87931447,17.4045313 C8.87586275,17.5103513 8.87586275,17.6154564 8.87586275,17.7205614 L8.87586275,23.7487268 C8.87586275,23.8538318 8.87586275,23.9589368 8.87931447,24.0647568 C8.8832593,24.1605669 8.89065585,24.2535169 8.90791448,24.3464669 C8.94391103,24.5416619 9.01886276,24.7125469 9.12488001,24.8355269 C9.23040416,24.9585069 9.35959727,25.0250019 9.49224211,25.0250019 C9.62538005,25.0250019 9.75408006,24.9585069 9.8596042,24.8355269 C9.96562145,24.7125469 10.0405732,24.5416619 10.0765697,24.3464669 C10.0938284,24.2535169 10.1012249,24.1605669 10.1051697,24.0647568 C10.1086215,23.9589368 10.1086215,23.8538318 10.1086215,23.7487268 L10.1086215,17.7205614 C10.1086215,17.6154564 10.1086215,17.5103513 10.1051697,17.4045313 C10.1012249,17.3094363 10.0938284,17.2157713 10.0765697,17.1228213 L10.0765697,17.1228213 Z" id="Path" transform="translate(9.492242, 20.735002) scale(-1, 1) translate(-9.492242, -20.735002) "></path>
                <path d="M7.14654882,15.9745312 C7.142604,15.8794362 7.13520744,15.7857712 7.11794882,15.6928212 C7.08195227,15.4976262 7.00700054,15.3267412 6.90098329,15.2037612 C6.79545914,15.0807812 6.66675913,15.0150012 6.53362119,15.0150012 C6.40097635,15.0150012 6.27178324,15.0807812 6.16625909,15.2037612 C6.06024184,15.3267412 5.98529011,15.4976262 5.94929356,15.6928212 C5.93203494,15.7857712 5.92463839,15.8794362 5.92069356,15.9745312 C5.91724183,16.0803512 5.91724183,16.1854562 5.91724183,16.2905612 L5.91724183,16.2927062 L5.91724183,25.1765819 L5.91724183,25.1787269 C5.91724183,25.2838319 5.91724183,25.3889369 5.92069356,25.494757 C5.92463839,25.590567 5.93203494,25.683517 5.94929356,25.775752 C5.98529011,25.971662 6.06024184,26.142547 6.16625909,26.265527 C6.27178324,26.388507 6.40097635,26.455002 6.53362119,26.455002 C6.66675913,26.455002 6.79545914,26.388507 6.90098329,26.265527 C7.00700054,26.142547 7.08195227,25.971662 7.11794882,25.775752 C7.13520744,25.683517 7.142604,25.590567 7.14654882,25.494757 C7.15000055,25.3889369 7.15000055,25.2838319 7.15000055,25.1787269 L7.15000055,25.1765819 L7.15000055,16.2927062 L7.15000055,16.2905612 C7.15000055,16.1854562 7.15000055,16.0803512 7.14654882,15.9745312 L7.14654882,15.9745312 Z" id="Path" transform="translate(6.533621, 20.735002) scale(-1, 1) translate(-6.533621, -20.735002) "></path>
                <path d="M4.15932791,17.8378214 C4.12333135,17.6426264 4.04837962,17.4717413 3.94236237,17.3487613 C3.83683823,17.2257813 3.70813822,17.1600013 3.57500027,17.1600013 C3.44235544,17.1600013 3.31316232,17.2257813 3.20763818,17.3487613 C3.10162093,17.4717413 3.0266692,17.6426264 2.99067264,17.8378214 C2.97341402,17.9307714 2.96601747,18.0244364 2.96207264,18.1195314 C2.95862092,18.2253514 2.95862092,18.3304564 2.95862092,18.4355614 L2.95862092,23.0337268 C2.95862092,23.1388318 2.95862092,23.2439368 2.96207264,23.3497568 C2.96601747,23.4455668 2.97341402,23.5385168 2.99067264,23.6314668 C3.0266692,23.8266618 3.10162093,23.9975468 3.20763818,24.1205268 C3.31316232,24.2435069 3.44235544,24.3100019 3.57500027,24.3100019 C3.70813822,24.3100019 3.83683823,24.2435069 3.94236237,24.1205268 C4.04837962,23.9975468 4.12333135,23.8266618 4.15932791,23.6314668 C4.17658653,23.5385168 4.18398308,23.4455668 4.18792791,23.3497568 C4.19137963,23.2439368 4.19137963,23.1388318 4.19137963,23.0337268 L4.19137963,18.4355614 C4.19137963,18.3304564 4.19137963,18.2253514 4.18792791,18.1195314 C4.18398308,18.0244364 4.17658653,17.9307714 4.15932791,17.8378214 L4.15932791,17.8378214 Z" id="Path" transform="translate(3.575000, 20.735002) scale(-1, 1) translate(-3.575000, -20.735002) "></path>
                <path d="M1.22930699,19.5495315 C1.22536216,19.4544365 1.21796561,19.3607715 1.20070699,19.2678215 C1.16471043,19.0726265 1.0897587,18.9017414 0.983741455,18.7787614 C0.878217309,18.6557814 0.749517299,18.5900014 0.616379358,18.5900014 C0.48373452,18.5900014 0.354541407,18.6557814 0.24901726,18.7787614 C0.143000011,18.9017414 0.0680482811,19.0726265 0.0320517266,19.2678215 C0.0147931046,19.3607715 0.00739655229,19.4544365 0.0034517244,19.5495315 C1.77635684e-15,19.6553515 1.77635684e-15,19.7604565 1.77635684e-15,19.8655615 L1.77635684e-15,19.8677065 L1.77635684e-15,21.6015817 L1.77635684e-15,21.6037267 C1.77635684e-15,21.7088317 1.77635684e-15,21.8139367 0.0034517244,21.9197567 C0.00739655229,22.0155667 0.0147931046,22.1085167 0.0320517266,22.2014667 C0.0680482811,22.3966617 0.143000011,22.5675467 0.24901726,22.6905267 C0.354541407,22.8135067 0.48373452,22.8800018 0.616379358,22.8800018 C0.749517299,22.8800018 0.878217309,22.8135067 0.983741455,22.6905267 C1.0897587,22.5675467 1.16471043,22.3966617 1.20070699,22.2014667 C1.21796561,22.1085167 1.22536216,22.0155667 1.22930699,21.9197567 C1.23275872,21.8139367 1.23275872,21.7088317 1.23275872,21.6037267 L1.23275872,21.6015817 L1.23275872,19.8677065 L1.23275872,19.8655615 C1.23275872,19.7604565 1.23275872,19.6553515 1.22930699,19.5495315 L1.22930699,19.5495315 Z" id="Path" transform="translate(0.616379, 20.735002) scale(-1, 1) translate(-0.616379, -20.735002) "></path>
            </g>
            <rect fill="#FFFFFF" opacity="0.701803" x="0" y="21" width="161" height="26"></rect>
        </g>
    </g>
</svg>