<?xml version="1.0" encoding="UTF-8"?>
<svg width="224px" height="224px" viewBox="0 0 224 224" version="1.1" xmlns="http://www.w3.org/2000/svg" xmlns:xlink="http://www.w3.org/1999/xlink">
    <title>1</title>
    <g id="Page-1" stroke="none" stroke-width="1" fill="none" fill-rule="evenodd">
        <g id="1">
            <path d="M48.4052205,10.1366354 C93.8987626,-15.0305069 154.844165,11.1158743 186.601819,40.1015616 C195.673505,48.3821051 217.673084,69.0388548 222.866942,102.146429 C229.32008,143.2723 208.198754,193.12048 159.756981,214.442852 C107.029331,237.650976 48.0755375,215.655951 20.4821572,179.952664 C-5.32228794,146.561753 -0.158156135,107.244852 1.68752781,93.1989113 C3.85208541,76.720554 10.2917118,31.2219034 48.4052205,10.1366354" id="Fill-193" fill="#EDEBF1"></path>
            <path d="M53.0721256,48.9885195 C59.0415485,46.4382267 65.9486761,49.1996696 68.50507,55.1562105 C71.0614638,61.1130217 68.2942891,68.0093292 62.3248662,70.5598923 C56.3581456,73.1101851 49.4483156,70.3490126 46.8919218,64.3922013 C44.3382302,58.4356604 47.105405,51.5390826 53.0721256,48.9885195 Z M35.0854896,66.9595267 L36.8825318,71.1492741 L41.787241,70.2449245 C42.3763465,71.1406226 43.0330101,71.9768418 43.7491247,72.7443899 L41.7142784,77.2826295 L45.3705161,80.0140626 L49.1645721,76.7824661 C50.1130861,77.2561344 51.0994326,77.6505876 52.1155046,77.9612296 L52.6262429,82.9141994 L57.1607344,83.4554573 L58.8253629,78.7698722 C59.8738627,78.7079601 60.9277672,78.5543964 61.9735647,78.3126958 L64.897474,82.3456352 L69.0941755,80.5515355 L68.1888986,75.6564225 C69.0860686,75.0675814 69.9237875,74.4130432 70.6939484,73.6979447 L75.2392492,75.7288786 L77.9766984,72.0803891 L74.7393201,68.2923946 C75.2149283,67.3453284 75.6094669,66.3606824 75.9202336,65.3481894 L80.8816914,64.8372116 L81.4248576,60.3119492 L76.7309293,58.6495141 C76.668776,57.6021448 76.5147438,56.5518016 76.2715351,55.507136 L80.3115021,52.5888851 L78.5144599,48.3994081 L73.6124531,49.3034873 C73.0206452,48.4077892 72.366684,47.5718404 71.6478671,46.8040219 L73.6827134,42.2660527 L70.0291779,39.5346196 L66.2324196,42.7659457 C65.2839056,42.2922774 64.2975591,41.8978242 63.2841894,41.5869118 L62.7707488,36.6344828 L58.2389597,36.0929545 L56.5716288,40.7788099 C55.523129,40.8407221 54.4692245,40.9942857 53.423427,41.235716 L50.4995178,37.203047 L46.3028162,38.9968763 L47.2080931,43.8919893 C46.3109232,44.4808304 45.4732042,45.1350982 44.7030433,45.8504671 L40.1577426,43.8195332 L37.4202933,47.4680227 L40.6576716,51.2560172 C40.1847658,52.202813 39.7875248,53.1879998 39.4767581,54.2002224 L34.5153003,54.7112002 L33.9721341,59.236733 L38.6687647,60.8988977 C38.7282158,61.946267 38.8822479,62.9968805 39.1254567,64.0412759 L35.0854896,66.9595267 L35.0854896,66.9595267 Z" id="Fill-194" fill="#D9D2E5"></path>
            <path d="M97.0550713,196.305845 L145.342811,196.305845 C162.507942,196.305845 176.419481,182.385891 176.419481,165.214605 L176.419481,34.5930049 C176.419481,17.4217185 162.507942,3.50176472 145.342811,3.50176472 L97.0550713,3.50176472 C79.8926427,3.50176472 65.9784016,17.4217185 65.9784016,34.5930049 L65.9784016,165.214605 C65.9784016,182.385891 79.8926427,196.305845 97.0550713,196.305845" id="Fill-195" fill="#FFFFFF"></path>
            <path d="M176.419481,34.8798554 L176.419481,164.927484 C176.419481,182.2572 162.345803,196.305845 144.983403,196.305845 L97.417182,196.305845 C92.3503337,196.305845 87.5645266,195.108156 83.3272902,192.983138 L165.658846,11.2437539 C172.252505,16.9959037 176.419481,25.4519099 176.419481,34.8798554" id="Fill-196" fill="#D9D2E5"></path>
            <path d="M144.983403,196.711383 L97.417182,196.711383 C79.8575125,196.711383 65.5730537,182.45321 65.5730537,164.927484 L65.5730537,115.472135 C65.5730537,115.248278 65.7541091,115.066597 65.9784016,115.066597 C66.2026941,115.066597 66.3837495,115.248278 66.3837495,115.472135 L66.3837495,164.927484 C66.3837495,182.006037 80.3060975,195.900307 97.417182,195.900307 L144.983403,195.900307 C162.094487,195.900307 176.014133,182.006037 176.014133,164.927484 L176.014133,153.364246 C176.014133,153.140389 176.197891,152.958708 176.419481,152.958708 C176.643773,152.958708 176.824829,153.140389 176.824829,153.364246 L176.824829,164.927484 C176.824829,182.45321 162.54037,196.711383 144.983403,196.711383" id="Fill-197" fill="#000000"></path>
            <path d="M65.9784016,88.5200852 C65.7541091,88.5200852 65.5730537,88.3384042 65.5730537,88.1145473 L65.5730537,34.8801258 C65.5730537,17.3543992 79.8575125,3.09595645 97.417182,3.09595645 L144.983403,3.09595645 C154.790119,3.09595645 163.905041,7.50766826 169.990664,15.1999114 C170.128482,15.3756445 170.098757,15.6305927 169.923106,15.769557 C169.747455,15.908251 169.493437,15.8790523 169.352917,15.7033192 C163.424028,8.20654526 154.541506,3.90703228 144.983403,3.90703228 L97.417182,3.90703228 C80.3060975,3.90703228 66.3837495,17.8015723 66.3837495,34.8801258 L66.3837495,88.1145473 C66.3837495,88.3384042 66.2026941,88.5200852 65.9784016,88.5200852" id="Fill-198" fill="#000000"></path>
            <path d="M153.365997,56.9749129 C153.365997,74.7066527 138.965338,89.0810793 121.200292,89.0810793 C103.435247,89.0810793 89.0318859,74.7066527 89.0318859,56.9749129 C89.0318859,39.243173 103.435247,24.8684761 121.200292,24.8684761 C138.965338,24.8684761 153.365997,39.243173 153.365997,56.9749129" id="Fill-199" fill="#EDEBF1"></path>
            <path d="M121.562403,68.2526519 L120.835479,68.2526519 C117.276525,68.2526519 114.393151,65.3665738 114.393151,61.8062212 L114.393151,42.091401 C114.393151,38.5313188 117.276525,35.6452406 120.835479,35.6452406 L121.562403,35.6452406 C125.121357,35.6452406 128.007434,38.5313188 128.007434,42.091401 L128.007434,61.8062212 C128.007434,65.3665738 125.121357,68.2526519 121.562403,68.2526519" id="Fill-200" fill="#4A3274"></path>
            <path d="M121.200292,73.3564818 C115.095754,73.3564818 110.131593,68.4008085 110.131593,62.3093586 C110.131593,61.5777682 110.726104,60.9848718 111.458432,60.9848718 C112.190761,60.9848718 112.785271,61.5777682 112.785271,62.3093586 C112.785271,66.9400609 116.560411,70.7075081 121.200292,70.7075081 C125.840174,70.7075081 129.612612,66.9400609 129.612612,62.3093586 C129.612612,61.5777682 130.207122,60.9848718 130.942153,60.9848718 C131.674481,60.9848718 132.268992,61.5777682 132.268992,62.3093586 C132.268992,68.4008085 127.302129,73.3564818 121.200292,73.3564818" id="Fill-201" fill="#4A3274"></path>
            <path d="M121.200292,81.4101944 C120.467964,81.4101944 119.873454,80.817298 119.873454,80.0857076 L119.873454,72.3055979 C119.873454,71.5740075 120.467964,70.981111 121.200292,70.981111 C121.932621,70.981111 122.527131,71.5740075 122.527131,72.3055979 L122.527131,80.0857076 C122.527131,80.817298 121.932621,81.4101944 121.200292,81.4101944" id="Fill-202" fill="#4A3274"></path>
            <path d="M104.308096,109.003805 C104.308096,110.585133 103.024494,111.866903 101.438233,111.866903 C99.8546739,111.866903 98.5710723,110.585133 98.5710723,109.003805 C98.5710723,107.422478 99.8546739,106.140437 101.438233,106.140437 C103.024494,106.140437 104.308096,107.422478 104.308096,109.003805" id="Fill-203" fill="#4A3274"></path>
            <path d="M118.200718,109.003805 C118.200718,110.585133 116.917117,111.866903 115.333558,111.866903 C113.747296,111.866903 112.463695,110.585133 112.463695,109.003805 C112.463695,107.422478 113.747296,106.140437 115.333558,106.140437 C116.917117,106.140437 118.200718,107.422478 118.200718,109.003805" id="Fill-204" fill="#4A3274"></path>
            <path d="M132.096043,109.003805 C132.096043,110.585133 130.812442,111.866903 129.22618,111.866903 C127.642621,111.866903 126.35902,110.585133 126.35902,109.003805 C126.35902,107.422478 127.642621,106.140437 129.22618,106.140437 C130.812442,106.140437 132.096043,107.422478 132.096043,109.003805" id="Fill-205" fill="#4A3274"></path>
            <path d="M145.988666,109.003805 C145.988666,110.585133 144.705064,111.866903 143.121505,111.866903 C141.537946,111.866903 140.251642,110.585133 140.251642,109.003805 C140.251642,107.422478 141.537946,106.140437 143.121505,106.140437 C144.705064,106.140437 145.988666,107.422478 145.988666,109.003805" id="Fill-206" fill="#4A3274"></path>
            <path d="M104.308096,120.423212 C104.308096,122.00481 103.024494,123.28658 101.438233,123.28658 C99.8546739,123.28658 98.5710723,122.00481 98.5710723,120.423212 C98.5710723,118.842155 99.8546739,117.560115 101.438233,117.560115 C103.024494,117.560115 104.308096,118.842155 104.308096,120.423212" id="Fill-207" fill="#4A3274"></path>
            <path d="M118.200718,120.423212 C118.200718,122.00481 116.917117,123.28658 115.333558,123.28658 C113.747296,123.28658 112.463695,122.00481 112.463695,120.423212 C112.463695,118.842155 113.747296,117.560115 115.333558,117.560115 C116.917117,117.560115 118.200718,118.842155 118.200718,120.423212" id="Fill-208" fill="#4A3274"></path>
            <path d="M132.096043,120.423212 C132.096043,122.00481 130.812442,123.28658 129.22618,123.28658 C127.642621,123.28658 126.35902,122.00481 126.35902,120.423212 C126.35902,118.842155 127.642621,117.560115 129.22618,117.560115 C130.812442,117.560115 132.096043,118.842155 132.096043,120.423212" id="Fill-209" fill="#4A3274"></path>
            <path d="M145.988666,120.423212 C145.988666,122.00481 144.705064,123.28658 143.121505,123.28658 C141.537946,123.28658 140.251642,122.00481 140.251642,120.423212 C140.251642,118.842155 141.537946,117.560115 143.121505,117.560115 C144.705064,117.560115 145.988666,118.842155 145.988666,120.423212" id="Fill-210" fill="#4A3274"></path>
            <path d="M169.669088,44.3310517 C168.874606,44.3310517 168.231454,44.9736941 168.231454,45.7666559 L168.231454,67.5002439 C168.231454,68.2929354 168.874606,68.9355778 169.669088,68.9355778 C170.46357,68.9355778 171.106722,68.2929354 171.106722,67.5002439 L171.106722,45.7666559 C171.106722,44.9736941 170.46357,44.3310517 169.669088,44.3310517" id="Fill-211" fill="#EDEBF1"></path>
            <path d="M176.170868,36.7985905 C175.376386,36.7985905 174.733234,37.4412329 174.733234,38.2341947 L174.733234,75.0324348 C174.733234,75.8253966 175.376386,76.468039 176.170868,76.468039 C176.965349,76.468039 177.608501,75.8253966 177.608501,75.0324348 L177.608501,38.2341947 C177.608501,37.4412329 176.965349,36.7985905 176.170868,36.7985905" id="Fill-212" fill="#FFFFFF"></path>
            <path d="M182.672647,45.9910536 C181.878166,45.9910536 181.235014,46.6339664 181.235014,47.4266578 L181.235014,65.8399717 C181.235014,66.6329335 181.878166,67.2753056 182.672647,67.2753056 C183.467129,67.2753056 184.110281,66.6329335 184.110281,65.8399717 L184.110281,47.4266578 C184.110281,46.6339664 183.467129,45.9910536 182.672647,45.9910536" id="Fill-213" fill="#FFFFFF"></path>
            <path d="M189.174427,39.8414766 C188.379945,39.8414766 187.734091,40.4841191 187.734091,41.2770809 L187.734091,71.9895486 C187.734091,72.7825105 188.379945,73.4251529 189.174427,73.4251529 C189.968909,73.4251529 190.612061,72.7825105 190.612061,71.9895486 L190.612061,41.2770809 C190.612061,40.4841191 189.968909,39.8414766 189.174427,39.8414766" id="Fill-214" fill="#FFFFFF"></path>
            <path d="M195.673505,45.3384079 C194.879023,45.3384079 194.235871,45.9813207 194.235871,46.7740121 L194.235871,66.4926174 C194.235871,67.2855792 194.879023,67.9282216 195.673505,67.9282216 C196.467986,67.9282216 197.113841,67.2855792 197.113841,66.4926174 L197.113841,46.7740121 C197.113841,45.9813207 196.467986,45.3384079 195.673505,45.3384079" id="Fill-215" fill="#9787B2"></path>
            <path d="M202.175284,47.3998923 C201.380803,47.3998923 200.737651,48.0425347 200.737651,48.8354965 L200.737651,64.431133 C200.737651,65.2240948 201.380803,65.8667372 202.175284,65.8667372 C202.969766,65.8667372 203.612918,65.2240948 203.612918,64.431133 L203.612918,48.8354965 C203.612918,48.0425347 202.969766,47.3998923 202.175284,47.3998923" id="Fill-216" fill="#9787B2"></path>
            <path d="M208.677064,50.3297686 C207.882582,50.3297686 207.23943,50.9726813 207.23943,51.7653728 L207.23943,61.5012567 C207.23943,62.2939482 207.882582,62.9368609 208.677064,62.9368609 C209.471546,62.9368609 210.114698,62.2939482 210.114698,61.5012567 L210.114698,51.7653728 C210.114698,50.9726813 209.471546,50.3297686 208.677064,50.3297686" id="Fill-217" fill="#9787B2"></path>
            <path d="M215.178844,44.3310517 C214.384362,44.3310517 213.74121,44.9736941 213.74121,45.7666559 L213.74121,67.5002439 C213.74121,68.2929354 214.384362,68.9355778 215.178844,68.9355778 C215.973326,68.9355778 216.616478,68.2929354 216.616478,67.5002439 L216.616478,45.7666559 C216.616478,44.9736941 215.973326,44.3310517 215.178844,44.3310517" id="Fill-218" fill="#9787B2"></path>
            <path d="M163.167308,45.3384079 C162.375529,45.3384079 161.729674,45.9813207 161.729674,46.7740121 L161.729674,66.4926174 C161.729674,67.2855792 162.375529,67.9282216 163.167308,67.9282216 C163.96179,67.9282216 164.607644,67.2855792 164.607644,66.4926174 L164.607644,46.7740121 C164.607644,45.9813207 163.96179,45.3384079 163.167308,45.3384079" id="Fill-219" fill="#EDEBF1"></path>
            <path d="M156.668231,47.3998923 C155.873749,47.3998923 155.227895,48.0425347 155.227895,48.8354965 L155.227895,64.431133 C155.227895,65.2240948 155.873749,65.8667372 156.668231,65.8667372 C157.462713,65.8667372 158.105864,65.2240948 158.105864,64.431133 L158.105864,48.8354965 C158.105864,48.0425347 157.462713,47.3998923 156.668231,47.3998923" id="Fill-220" fill="#EDEBF1"></path>
            <path d="M150.166451,50.3297686 C149.371969,50.3297686 148.728817,50.9726813 148.728817,51.7653728 L148.728817,61.5012567 C148.728817,62.2939482 149.371969,62.9368609 150.166451,62.9368609 C150.960933,62.9368609 151.604085,62.2939482 151.604085,61.5012567 L151.604085,51.7653728 C151.604085,50.9726813 150.960933,50.3297686 150.166451,50.3297686" id="Fill-221" fill="#4A3274"></path>
            <path d="M143.664671,44.3310517 C142.870189,44.3310517 142.227037,44.9736941 142.227037,45.7666559 L142.227037,67.5002439 C142.227037,68.2929354 142.870189,68.9355778 143.664671,68.9355778 C144.459153,68.9355778 145.102305,68.2929354 145.102305,67.5002439 L145.102305,45.7666559 C145.102305,44.9736941 144.459153,44.3310517 143.664671,44.3310517" id="Fill-222" fill="#4A3274"></path>
            <path d="M137.162891,47.203612 C136.36841,47.203612 135.725258,47.8462544 135.725258,48.6389458 L135.725258,64.6276837 C135.725258,65.4203751 136.36841,66.0630175 137.162891,66.0630175 C137.957373,66.0630175 138.603227,65.4203751 138.603227,64.6276837 L138.603227,48.6389458 C138.603227,47.8462544 137.957373,47.203612 137.162891,47.203612" id="Fill-223" fill="#4A3274"></path>
            <path d="M27.1163506,98.6417708 C14.0938748,101.410784 7.78395971,125.264794 7.50832316,140.706597 C7.04082196,166.981398 23.6276566,192.164492 46.5190017,204.268176 C76.9363056,220.350729 122.28122,215.350987 137.216938,189.219475 C146.129186,173.627083 144.907738,149.296971 132.509498,139.522967 C120.081532,129.725171 105.25661,143.978477 82.7733148,134.282876 C49.7969148,120.062824 43.4005255,95.1782067 27.1163506,98.6417708" id="Fill-224" fill="#4A3274"></path>
            <path d="M47.8215195,171.848935 C47.7701755,171.848935 47.7161291,171.838661 47.664785,171.817573 C47.4594088,171.731058 47.3621253,171.493413 47.4458972,171.286859 C50.5481595,163.858216 60.5467402,162.470194 60.968302,162.415041 C61.1898921,162.384761 61.3952684,162.54238 61.4249939,162.764345 C61.4520171,162.986309 61.2979849,163.189889 61.0736924,163.219088 C60.9764089,163.232065 51.1156465,164.605216 48.1944396,171.599664 C48.1295839,171.75512 47.9809564,171.848935 47.8215195,171.848935" id="Fill-225" fill="#FFFFFF"></path>
            <path d="M61.7708907,176.370412 C61.5655145,176.370412 61.3898638,176.216037 61.3682452,176.008132 C60.6007866,168.849847 64.7272278,164.261591 64.9028786,164.069906 C65.0542085,163.905258 65.3109288,163.894714 65.4757702,164.045304 C65.6406117,164.196705 65.651421,164.453005 65.5000911,164.618194 C65.4595563,164.662532 61.4466125,169.140482 62.1735363,175.921617 C62.1978572,176.144392 62.0384203,176.343917 61.8141279,176.367979 C61.8006163,176.369601 61.7844023,176.370412 61.7708907,176.370412" id="Fill-226" fill="#FFFFFF"></path>
            <path d="M134.663246,188.364061 C134.755125,188.609546 144.521306,198.424105 144.521306,198.424105 L138.519456,201.149319 L130.617875,192.606258 L134.663246,188.364061" id="Fill-227" fill="#FFFFFF"></path>
            <path d="M131.174552,192.610313 L138.616739,200.65943 L143.824108,198.296225 C137.473658,191.913599 135.365849,189.734509 134.657842,188.95912 L131.174552,192.610313 Z M138.519456,201.554857 C138.408661,201.554857 138.300568,201.509707 138.2222,201.424815 L130.320619,192.881212 C130.174694,192.724134 130.177397,192.481082 130.326024,192.326166 L134.371396,188.08424 C134.468679,187.982855 134.6092,187.939057 134.747018,187.967174 C134.857813,187.990425 134.952394,188.058826 135.011845,188.154533 C135.387468,188.633068 141.059636,194.370618 144.810454,198.138065 C144.902333,198.23188 144.94557,198.365978 144.92125,198.496831 C144.896929,198.627685 144.810454,198.738532 144.68885,198.793414 L138.686999,201.5189 C138.632953,201.542962 138.576204,201.554857 138.519456,201.554857 L138.519456,201.554857 Z" id="Fill-228" fill="#000000"></path>
            <path d="M138.184368,196.956868 C138.392447,196.427777 138.768069,195.815955 139.451756,195.402847 C140.481339,194.780752 141.802773,194.902413 142.770204,195.61643 C145.188779,197.401338 151.760819,202.463262 155.59541,207.442998 C156.951974,209.203032 156.346655,211.56894 153.355187,211.569752 C148.450478,211.570833 140.602944,209.701844 133.984964,204.216808 C133.225612,203.587143 132.833776,202.61953 132.963488,201.645968 C133.068878,200.851114 133.25804,199.854302 133.593128,198.908587 C133.917406,198.004778 134.863218,197.475416 135.814434,197.645742 L136.671069,197.799576 C137.314221,197.914749 137.946564,197.56085 138.184368,196.956868" id="Fill-229" fill="#FFFFFF"></path>
            <path d="M135.452323,198.018837 C134.792958,198.018837 134.198447,198.418968 133.976857,199.045118 C133.701221,199.813478 133.495844,200.706742 133.363431,201.699499 C133.252636,202.532204 133.582319,203.356257 134.244387,203.904544 C140.702929,209.257104 148.34779,211.163943 153.349783,211.163943 C153.352485,211.163943 153.352485,211.163943 153.355187,211.163943 C154.522589,211.163943 155.357606,210.774356 155.706205,210.067098 C156.041293,209.38255 155.876451,208.471982 155.273834,207.690376 C151.506801,202.797155 145.10771,197.844726 142.529697,195.943024 C141.67036,195.309033 140.519172,195.231981 139.662537,195.749988 C139.168012,196.048734 138.797794,196.504829 138.55999,197.104755 C138.254628,197.887172 137.430421,198.347323 136.600809,198.198626 L135.744174,198.044791 C135.644188,198.027489 135.546905,198.018837 135.452323,198.018837 Z M153.349783,211.975019 C148.204567,211.975019 140.351628,210.019515 133.725542,204.529072 C132.84999,203.801537 132.412214,202.703881 132.560842,201.592708 C132.69866,200.543446 132.92025,199.594487 133.212101,198.772597 C133.601235,197.680078 134.728102,197.037706 135.884694,197.246423 L136.744032,197.400257 C137.189915,197.480823 137.641202,197.232364 137.806043,196.808712 C138.103298,196.049545 138.600525,195.443401 139.240975,195.055436 C140.375949,194.369266 141.89195,194.463621 143.01071,195.290108 C145.615746,197.212357 152.085097,202.220751 155.916986,207.195619 C156.708765,208.223793 156.906035,209.461225 156.433129,210.425053 C156.149385,211.003891 155.371118,211.974749 153.355187,211.975019 C153.352485,211.975019 153.352485,211.975019 153.349783,211.975019 L153.349783,211.975019 Z" id="Fill-230" fill="#000000"></path>
            <path d="M151.650024,209.658046 C148.701794,209.658046 143.448486,208.510373 135.217222,202.99668 C135.030762,202.872044 134.98212,202.620341 135.106427,202.434064 C135.230733,202.248057 135.482049,202.198311 135.668509,202.322676 C148.961217,211.227207 154.214525,208.408718 154.265869,208.37952 C154.457734,208.268132 154.706347,208.333559 154.819844,208.526054 C154.93064,208.718279 154.868486,208.964305 154.676622,209.078126 C154.587445,209.131928 153.647038,209.658046 151.650024,209.658046" id="Fill-231" fill="#000000"></path>
            <path d="M146.593985,204.47473 C146.502106,204.47473 146.410227,204.443639 146.334562,204.380105 C146.164316,204.236004 146.139995,203.980244 146.285921,203.808567 L148.620724,201.017925 C148.76665,200.846518 149.020668,200.823808 149.193616,200.967638 C149.363862,201.111469 149.388183,201.367228 149.242258,201.539177 L146.904752,204.329548 C146.826385,204.425525 146.710185,204.47473 146.593985,204.47473" id="Fill-232" fill="#000000"></path>
            <path d="M144.299716,202.802022 C144.202433,202.802022 144.105149,202.767956 144.029484,202.698204 C143.86194,202.548425 143.848429,202.292125 143.997056,202.125584 L146.583176,199.245454 C146.731803,199.078913 146.988524,199.064584 147.156067,199.214633 C147.320909,199.364412 147.337123,199.620712 147.185793,199.787253 L144.602376,202.667383 C144.521306,202.756601 144.410511,202.802022 144.299716,202.802022" id="Fill-233" fill="#000000"></path>
            <polyline id="Fill-234" fill="#FFFFFF" points="115.774036 194.911606 113.62299 207.365134 108.785839 204.109205 110.285626 192.169358 115.774036 194.911606"></polyline>
            <path d="M109.21821,203.912114 L113.331139,206.679234 L115.325451,195.139788 L110.615309,192.787939 L109.21821,203.912114 Z M113.62299,207.770943 C113.544622,207.770943 113.466255,207.747421 113.398697,207.701731 L108.558844,204.445802 C108.431835,204.360098 108.364277,204.21059 108.383193,204.058648 L109.88298,192.118801 C109.899194,191.988488 109.977561,191.874127 110.093761,191.811674 C110.209961,191.750032 110.347779,191.747869 110.466681,191.806537 L115.955091,194.548784 C116.11723,194.62854 116.203704,194.804273 116.173979,194.980817 L114.022933,207.434076 C113.998612,207.569525 113.909436,207.684157 113.782427,207.737959 C113.731082,207.759858 113.677036,207.770943 113.62299,207.770943 L113.62299,207.770943 Z" id="Fill-235" fill="#000000"></path>
            <path d="M115.101158,205.049242 C115.028196,208.89266 114.768773,216.626268 112.147523,222.240535 C111.444921,223.749136 108.380491,223.803208 107.161745,221.86744 C104.61616,217.829364 101.270689,210.915754 102.543481,202.282392 C102.643467,201.607848 103.062327,201.019277 103.667646,200.699443 C104.381058,200.324726 105.51333,199.841054 107.140126,199.455252 C107.950822,199.263027 108.761518,199.791038 108.904741,200.605899 L109.437097,203.595524 L109.796506,203.075354 C110.33697,202.292936 111.347637,201.977157 112.242105,202.31105 C112.72582,202.490839 113.258177,202.689552 113.739189,202.869341 C114.641764,203.205126 115.120074,204.094606 115.101158,205.049242" id="Fill-236" fill="#FFFFFF"></path>
            <path d="M107.480618,199.821048 C107.399549,199.821048 107.315777,199.83024 107.234707,199.849976 C105.605209,200.235778 104.49996,200.72026 103.856808,201.058209 C103.364986,201.317212 103.024494,201.796828 102.943425,202.341601 C101.986804,208.832641 103.521721,215.329358 107.502237,221.651154 C108.153496,222.683923 109.350623,222.989429 110.180235,222.935357 C110.939587,222.889396 111.553013,222.556855 111.780008,222.070209 C114.479625,216.283994 114.636359,208.11619 114.69581,205.041672 C114.712024,204.194368 114.293165,203.507658 113.598669,203.249195 L112.101584,202.691175 C111.377363,202.421086 110.566667,202.674142 110.131593,203.30597 L109.772185,203.82641 C109.677604,203.96159 109.512762,204.026746 109.350623,203.99187 C109.191186,203.956994 109.06688,203.828573 109.039856,203.666899 L108.5075,200.676733 C108.456156,200.395289 108.296719,200.153048 108.05351,199.994618 C107.880562,199.879986 107.683292,199.821048 107.480618,199.821048 Z M109.982966,223.754544 C108.691257,223.754544 107.467107,223.113794 106.81855,222.083727 C102.729941,215.593228 101.157192,208.911315 102.140836,202.223184 C102.259738,201.423193 102.759667,200.71972 103.478484,200.340677 C104.162171,199.980559 105.337679,199.466337 107.048247,199.060799 C107.542772,198.942923 108.072426,199.036197 108.499393,199.316288 C108.929061,199.598542 109.215507,200.031387 109.304684,200.534524 L109.669497,202.585735 C110.345077,201.840897 111.417897,201.570808 112.385328,201.930926 L113.882412,202.488946 C114.89308,202.865556 115.530827,203.873723 115.506506,205.057083 C115.447055,208.178643 115.287618,216.471083 112.515039,222.413565 C112.158333,223.181383 111.301698,223.678843 110.228877,223.746433 C110.147807,223.75184 110.066738,223.754544 109.982966,223.754544 L109.982966,223.754544 Z" id="Fill-237" fill="#000000"></path>
            <path d="M109.523572,221.380795 C109.399265,221.380795 109.274958,221.321316 109.193889,221.213173 C103.329856,213.089978 104.045971,203.022634 104.054078,202.92179 C104.072994,202.698745 104.262156,202.532744 104.489151,202.549507 C104.713444,202.56708 104.880987,202.762279 104.862071,202.985325 C104.853964,203.083465 104.164873,212.862606 109.853255,220.737341 C109.982966,220.918482 109.942431,221.172619 109.761376,221.302391 C109.688413,221.356463 109.604641,221.380795 109.523572,221.380795" id="Fill-238" fill="#000000"></path>
            <path d="M114.43909,210.752457 C114.409365,210.752457 114.379639,210.748943 114.347211,210.742184 L110.677462,209.904072 C110.461276,209.854326 110.323458,209.636958 110.3721,209.418238 C110.423444,209.200328 110.639629,209.064068 110.858517,209.113273 L114.528267,209.951385 C114.747154,210.001401 114.88227,210.218499 114.833629,210.437219 C114.790392,210.625118 114.622848,210.752457 114.43909,210.752457" id="Fill-239" fill="#000000"></path>
            <path d="M113.91484,213.904839 C113.874305,213.904839 113.833771,213.898891 113.793236,213.886454 L110.312649,212.797179 C110.099166,212.730131 109.980264,212.503029 110.045119,212.288905 C110.112677,212.075052 110.339672,211.956094 110.553155,212.023143 L114.036445,213.111877 C114.249928,213.178926 114.36883,213.406297 114.301272,213.620151 C114.247225,213.793721 114.087789,213.904839 113.91484,213.904839" id="Fill-240" fill="#000000"></path>
            <path d="M81.1897558,140.409473 C81.1897558,140.409473 98.373803,137.438231 114.436388,145.33838 C118.484462,147.329572 121.121925,151.343045 121.340813,155.818291 C121.781291,164.702546 121.72184,180.988678 117.006293,195.377704 C116.738764,196.19635 115.830784,196.625409 115.020089,196.320174 L107.837324,193.620373 C107.356312,193.438962 106.999606,193.028287 106.891513,192.528124 C106.197017,189.300042 103.775739,177.012243 105.029615,167.936575 C106.483463,157.402593 71.9964662,148.179849 71.9964662,148.179849 L81.1897558,140.409473" id="Fill-241" fill="#000000"></path>
            <path d="M136.673772,190.429601 L130.644898,194.83942 C130.242252,195.13384 129.682872,195.094909 129.326166,194.746957 C125.251069,190.773497 102.248929,168.467289 96.6362118,165.68638 C90.4722219,162.632139 79.0197936,158.151756 68.87799,158.758982 C58.7334841,159.366478 56.209518,152.494502 56.209518,152.494502 L70.1724008,142.445543 C70.1724008,142.445543 95.3634195,143.906291 106.413202,151.868082 C116.387462,159.056917 133.655281,184.235685 136.914278,189.056719 C137.21964,189.505244 137.111547,190.108685 136.673772,190.429601" id="Fill-242" fill="#000000"></path>
            <path d="M121.883979,168.168002 C121.765077,168.168002 121.648877,168.116904 121.567808,168.017953 C117.025209,162.420719 110.026203,154.972609 106.175398,152.197378 C102.00572,149.191802 95.3309917,146.768037 86.3376737,144.993132 C86.1187859,144.949875 85.975563,144.736562 86.0188001,144.516761 C86.0620372,144.297229 86.2755204,144.153669 86.4944082,144.197467 C95.6039259,145.995081 102.384045,148.465078 106.648304,151.539055 C110.555858,154.353759 117.622422,161.868376 122.197448,167.506975 C122.337969,167.680546 122.310946,167.936305 122.137997,168.077432 C122.062332,168.138533 121.973156,168.168002 121.883979,168.168002" id="Fill-243" fill="#4A3274"></path>
            <path d="M51.8695936,158.240975 C51.8695936,158.240975 51.6642173,158.96094 53.3585714,158.831708 C55.0691394,158.701395 62.5356471,155.619578 62.5356471,155.619578 L62.5356471,151.833476 C62.5356471,151.833476 53.8233703,154.387013 52.7748705,155.28947 C51.7263706,156.191927 51.8695936,158.240975 51.8695936,158.240975" id="Fill-244" fill="#000000"></path>
            <path d="M51.2912973,127.416038 C46.3541603,131.034517 46.4325275,129.61892 38.6066114,133.828674 C31.5940933,137.602069 30.8455509,140.359727 26.6596586,140.363245 C23.7573679,140.365674 21.582001,139.04281 17.7744334,136.72881 C13.3912718,134.065237 10.5835623,132.359275 10.3889953,129.839532 C10.0701217,125.753062 16.9637377,123.876773 16.4827249,120.163668 C16.077377,117.025886 11.0186357,117.311385 9.26212826,113.225725 C7.34348169,108.767512 10.5160043,101.791178 15.069412,99.6742704 C17.7636242,98.4219693 18.7661845,99.8827168 22.6872496,98.4944254 C27.2082294,96.8939024 27.3838802,94.4187693 30.4996541,94.0708178 C34.5990722,93.613371 35.5692047,97.7525614 39.4956744,97.609812 C44.7435781,97.4186685 45.8163988,89.9110802 51.2750834,89.9091873 C54.2719552,89.9083766 57.1093903,91.0484789 59.0091206,91.9963562 C60.9196602,92.9480185 62.0897644,93.5525403 62.5653726,94.8359327 C63.1571804,96.4356446 62.0681459,97.4605741 62.4491728,100.176326 C62.6410375,101.5511 63.0058506,101.900133 63.3571521,103.139186 C64.1246107,105.830066 63.5409098,108.187052 63.0301715,110.249347 C60.4386474,120.711415 51.2912973,127.416038 51.2912973,127.416038" id="Fill-245" fill="#000000"></path>
            <path d="M43.0357124,112.400321 C43.0357124,112.400321 53.0613163,108.410368 64.1246107,113.07081 C64.1246107,113.07081 67.1025663,113.914599 67.9186667,115.690585 C70.4156096,121.132093 69.7157089,129.830881 77.0714215,135.873396 C79.2954301,137.700209 84.4406457,139.861726 84.4406457,139.861726 C81.4248576,147.014063 70.6939484,150.948051 60.781842,153.341536 C57.6795796,154.0907 53.617994,155.499268 52.3397971,157.794342 C52.1533371,158.126072 51.9101283,158.510793 51.9101283,158.510793 C51.9101283,158.510793 50.2265835,157.84544 48.6160014,153.006291 C47.164856,148.646218 45.9001707,140.864756 45.9001707,140.864756 L43.0357124,112.400321" id="Fill-246" fill="#FFFFFF"></path>
            <path d="M96.4362402,97.6071084 L90.2965712,104.442044 C90.2965712,104.442044 89.6777401,118.652634 83.3272902,121.952631 C76.1499307,125.681147 69.0752593,117.044541 69.0752593,117.044541 L63.7273698,124.378288 C63.7273698,124.378288 76.3688185,135.309428 86.1322975,129.968223 C95.8984787,124.626748 93.0988761,109.280653 93.0988761,109.280653 C93.0961738,109.292819 95.6363537,108.639092 95.6931024,105.934965 C95.7417442,103.632861 94.9796902,102.563052 94.9796902,102.563052 C94.9796902,102.563052 97.9441343,99.2914426 96.4362402,97.6071084" id="Fill-247" fill="#FFFFFF"></path>
            <path d="M92.4097847,108.476336 C92.2854781,108.476336 92.1638737,108.420371 92.0828041,108.31385 C91.9503905,108.134602 91.9855206,107.880465 92.166576,107.746097 C92.174683,107.738797 93.2177782,106.934751 93.0096996,105.96903 C92.8421558,105.188234 93.0664483,104.474487 93.2853361,104.013256 C93.4177498,103.734516 93.4609869,103.42847 93.4123451,103.128642 L91.6774563,104.661305 C91.5099125,104.809462 91.2531922,104.793511 91.1045646,104.625618 C90.9559371,104.457725 90.972151,104.201425 91.1396948,104.053269 L93.3420848,102.108309 C93.4420706,102.019631 93.5825912,101.986377 93.7096002,102.019091 C93.8393115,102.052074 93.944702,102.14697 93.9906414,102.272687 L94.0987342,102.565756 C94.3149197,103.157571 94.2878965,103.795076 94.0176646,104.360937 C93.8528231,104.708618 93.682577,105.239873 93.8041814,105.797893 C94.1230551,107.275132 92.7124445,108.350619 92.6502911,108.395769 C92.5773285,108.450111 92.4935566,108.476336 92.4097847,108.476336" id="Fill-248" fill="#000000"></path>
            <path d="M80.4006786,132.548255 C77.5091972,132.548255 74.4096372,131.357326 71.2317099,128.996554 C67.4619748,126.194287 64.9434134,122.790743 64.8380229,122.647453 C64.7056093,122.466853 64.7434418,122.212986 64.9244971,122.080511 C65.1055525,121.947764 65.3568682,121.986426 65.4919842,122.167025 C65.59197,122.302745 75.5743367,135.681712 84.9135515,130.572745 C94.325729,125.424576 92.7124445,109.484773 92.6935282,109.324451 C92.6773143,109.158721 92.7610862,108.998668 92.9097138,108.921346 C92.9475462,108.90161 92.988081,108.888362 93.0286158,108.881333 C93.1664341,108.843483 95.2391128,108.232743 95.2877546,105.926313 C95.333694,103.81292 94.6554119,102.806645 94.647305,102.796642 C94.5392122,102.641726 94.5527238,102.430847 94.6797328,102.291071 C95.3553126,101.54353 96.8145649,99.5271953 96.3740869,98.2827346 L90.6938121,104.605882 C90.6073379,106.215867 89.7209772,119.08683 83.5137503,122.312208 C82.1869116,123.000811 80.8654775,123.283606 79.5872806,123.283606 C73.7421644,123.284417 68.8212413,117.374649 68.7617903,117.301652 C68.742874,117.278131 67.4781887,115.665982 66.5566979,114.950343 C66.3810471,114.813001 66.3486193,114.558323 66.4864376,114.381238 C66.6215535,114.204424 66.8782739,114.172251 67.0539246,114.309593 C68.056485,115.087415 69.3400866,116.725518 69.3941329,116.795 C69.4562863,116.871511 76.3417954,125.125019 83.1381279,121.592513 C89.2102389,118.43878 89.8831164,104.563976 89.8912233,104.424201 C89.8939257,104.330386 89.9317581,104.240627 89.9939115,104.170875 L96.1335805,97.3362091 C96.2092454,97.2505054 96.3200405,97.2015705 96.4362402,97.2015705 C96.5497376,97.2015705 96.6605327,97.2505054 96.7361976,97.3364795 C98.238687,99.0102696 96.1470921,101.796585 95.4715123,102.610635 C95.714721,103.090251 96.1362828,104.183041 96.0984503,105.943346 C96.0579155,107.978065 94.7418861,108.964603 93.9609159,109.371493 C93.7906698,109.459089 93.6501492,109.523975 93.5312472,109.571288 C93.7393257,112.007219 94.5284029,126.238085 85.3026855,131.284599 C83.7596613,132.128388 82.1166513,132.548255 80.4006786,132.548255" id="Fill-249" fill="#000000"></path>
            <polyline id="Fill-250" fill="#D9D2E5" points="71.3722305 132.554203 70.7398879 132.184893 78.0766842 118.888927 83.3435041 118.80836 83.9785491 119.17767 71.3722305 132.554203"></polyline>
            <polyline id="Fill-251" fill="#000000" points="76.6417528 132.473636 71.3722305 132.554203 78.7090269 119.257967 83.9785491 119.17767 76.6417528 132.473636"></polyline>
            <path d="M66.8053112,115.035506 C66.7134324,115.035506 66.6242559,115.005226 66.5485909,114.943043 C64.0354342,112.872367 62.4680891,112.452229 62.4518752,112.448174 C62.2356896,112.39248 62.1059783,112.172138 62.1600247,111.955581 C62.2140711,111.739023 62.4329589,111.607088 62.6518468,111.66143 C62.7194048,111.679004 64.3867356,112.112389 67.0620316,114.316893 C67.23498,114.459372 67.2620032,114.714861 67.1187803,114.88789 C67.0377107,114.985219 66.921511,115.035506 66.8053112,115.035506" id="Fill-252" fill="#000000"></path>
            <path d="M56.8040282,136.821543 C55.1583159,136.749358 53.4936873,136.433579 51.8858075,135.764712 C43.2140655,132.157857 48.367388,118.248988 48.367388,118.248988 L43.0357124,112.400321 C28.7512536,123.603981 34.0180736,141.019672 46.4325275,145.070725 C50.7616427,146.483079 54.8097167,146.217316 58.3632664,145.144533 C55.2150646,141.887793 55.896049,138.701888 56.8040282,136.821543" id="Fill-253" fill="#FFFFFF"></path>
            <path d="M77.6929549,128.128162 L77.2849047,125.621938 L72.8747199,130.474605 L74.1312983,128.105182 C74.1312983,128.105182 73.0665846,128.461785 72.2153541,129.363972 C71.3911468,130.238582 70.393991,132.902155 70.33454,133.062748 C68.5780326,134.076322 62.8247952,137.085143 56.8040282,136.821543 C55.896049,138.701888 54.9313211,141.582559 58.0795229,144.839569 C66.5161631,142.293061 72.4504558,135.503004 72.4504558,135.503004 C76.3039629,133.587784 77.6929549,128.128162 77.6929549,128.128162" id="Fill-254" fill="#FFFFFF"></path>
            <path d="M57.0553439,137.236274 C56.1392577,139.230168 55.650138,141.617164 58.2011272,144.377796 C66.2972752,141.840751 72.0856428,135.302398 72.1450938,135.23589 C72.1802239,135.196147 72.2207587,135.163164 72.2694005,135.139913 C75.6689179,133.450172 77.0903377,128.770534 77.2795001,128.106534 L77.0200774,126.516555 L73.1746774,130.747397 C73.0368591,130.899068 72.807162,130.92367 72.6423205,130.806335 C72.4747767,130.688729 72.4207303,130.465142 72.5153115,130.284543 L73.1530588,129.086043 C72.9395756,129.238525 72.7179854,129.42318 72.5099069,129.642171 C71.8937781,130.29779 71.0668685,132.258701 70.715567,133.203875 C70.6831392,133.292552 70.6182835,133.366631 70.5372139,133.413944 C68.8942039,134.362632 63.1220503,137.404707 57.0553439,137.236274 Z M58.0795229,145.245107 C57.9714301,145.245107 57.8660396,145.201579 57.7876724,145.121553 C54.5367825,141.757481 55.4609756,138.672689 56.4392152,136.64527 C56.5094755,136.499276 56.6635076,136.411139 56.8202422,136.416276 C62.6167166,136.670954 68.2321357,133.791634 70.0075594,132.783197 C70.2453635,132.156235 71.1317241,129.922803 71.9208013,129.085773 C72.8287805,128.120592 73.9556476,127.736413 74.0042893,127.720732 C74.1610238,127.668012 74.3339723,127.716406 74.442065,127.843204 C74.4907068,127.902413 74.5231346,127.973517 74.5339439,128.047325 L76.9849473,125.349146 C77.0903377,125.233703 77.2524769,125.188283 77.4011044,125.233162 C77.549732,125.277501 77.6605271,125.403218 77.6848479,125.556782 L78.0928981,128.063006 C78.1010051,128.117889 78.0983028,128.174123 78.0847912,128.228195 C78.0280425,128.457189 76.6228365,133.826781 72.6990692,135.830679 C72.0775358,136.518742 66.218908,142.805931 58.1957226,145.227804 C58.1578901,145.239429 58.1200576,145.245107 58.0795229,145.245107 L58.0795229,145.245107 Z" id="Fill-255" fill="#000000"></path>
            <path d="M53.7287891,136.934013 C53.685552,136.934013 53.6423149,136.926983 53.5990778,136.912654 C46.8027452,134.615147 46.3001139,129.059277 46.6189875,124.475888 C46.6324991,124.252572 46.8270661,124.083327 47.0513586,124.099549 C47.2729488,124.114959 47.4431949,124.308806 47.426981,124.532393 C46.9756937,130.994775 48.8997449,134.467801 53.8585004,136.144295 C54.0719836,136.21594 54.185481,136.446015 54.1125184,136.658247 C54.0557697,136.827491 53.8990352,136.934013 53.7287891,136.934013" id="Fill-256" fill="#000000"></path>
            <path d="M52.991056,146.486593 C50.7589404,146.486593 48.5673596,146.042124 46.7351873,145.589814 C46.5162994,145.536283 46.3838858,145.316481 46.4379322,145.099113 C46.4919785,144.881474 46.7108664,144.748188 46.9297542,144.802259 C49.6645012,145.476804 53.2126461,146.136209 56.4013827,145.24024 C56.6175682,145.17995 56.8418607,145.305397 56.9013117,145.521143 C56.9634651,145.736619 56.8364561,145.960746 56.6202705,146.021306 C55.4312501,146.354929 54.2043973,146.486593 52.991056,146.486593" id="Fill-257" fill="#000000"></path>
            <path d="M55.963607,105.580795 L55.3826084,110.14553 L59.0955948,111.540039 C59.0955948,111.540039 56.0014395,115.825764 46.2244489,111.523548 L50.264416,109.741344 L52.2506205,103.667197 L55.963607,105.580795" id="Fill-258" fill="#FFFFFF"></path>
            <path d="M47.2486279,111.515707 C54.0936022,114.282557 57.3066596,112.552532 58.360564,111.696577 L55.2393855,110.525113 C55.0637347,110.459146 54.9583443,110.280709 54.9799628,110.094162 L55.5258313,105.81114 L52.4884246,104.245764 L50.6508476,109.867331 C50.6130152,109.976826 50.5346479,110.066044 50.4292575,110.112546 L47.2486279,111.515707 Z M53.9422723,113.854039 C51.974984,113.854309 49.3942693,113.361175 46.0623098,111.89502 C45.9163846,111.830134 45.8191011,111.684681 45.8191011,111.523818 C45.8191011,111.363225 45.9136823,111.217502 46.0623098,111.152616 L49.9347331,109.443408 L51.8668912,103.54121 C51.9020214,103.4282 51.9884956,103.337359 52.0965884,103.292209 C52.2073834,103.246789 52.3316901,103.252467 52.4370806,103.306809 L56.150067,105.220137 C56.3013969,105.29827 56.3878711,105.462648 56.3662525,105.631893 L55.8257887,109.878686 L59.2388177,111.160186 C59.3577198,111.204795 59.4468963,111.301853 59.4847288,111.422704 C59.5198589,111.543824 59.4982404,111.674948 59.4252778,111.777414 C59.3361012,111.900968 57.8579327,113.853768 53.9422723,113.854039 L53.9422723,113.854039 Z" id="Fill-259" fill="#000000"></path>
            <path d="M60.1143691,99.5071887 C59.5387752,96.6354396 57.4769057,97.8409686 56.2284343,98.1843241 C54.9799628,98.5274091 54.3638341,95.9660317 52.9343073,96.429156 C51.5047805,96.8922803 52.8018936,98.95025 52.9343073,99.773492 C53.0694232,100.596464 51.6831335,99.5666676 51.0832187,99.8332412 C50.6859778,100.009245 50.5319456,100.545636 50.9210796,101.278578 C51.1642883,101.737918 51.5696361,102.18455 51.9317469,102.398404 C52.2560252,104.878674 54.4881408,107.262155 56.7418749,106.819848 C59.0091206,106.374568 60.1359877,99.6069511 60.1143691,99.5071887" id="Fill-260" fill="#FFFFFF"></path>
            <path d="M51.3264274,100.191196 C51.2939996,100.191196 51.2669764,100.194981 51.2453578,100.203903 C51.1859068,100.230398 51.1480744,100.274737 51.1237535,100.342867 C51.0967303,100.425327 51.0534932,100.662972 51.2777857,101.088787 C51.4831619,101.47621 51.8371657,101.871204 52.1398255,102.0491 C52.2452159,102.112635 52.3181785,102.22213 52.3343924,102.345684 C52.5100432,103.689096 53.3180366,105.05711 54.3908573,105.830336 C54.9097025,106.202079 55.7231006,106.606806 56.6635076,106.42161 C58.3929919,106.08204 59.6009285,100.539959 59.706319,99.5336839 C59.5576914,98.8366994 59.309078,98.3824969 58.9631812,98.1829723 C58.4254197,97.8742227 57.6309379,98.1462035 56.9283349,98.3854709 C56.7202563,98.4565752 56.5229871,98.5236241 56.336527,98.5752626 C55.4961058,98.8058785 54.9205118,98.1664804 54.4097735,97.602242 C53.8774166,97.0125898 53.5234128,96.6654494 53.058614,96.8149577 C52.8397261,96.8863324 52.7667635,96.9909612 52.7316333,97.0631469 C52.5451733,97.4535447 52.8424284,98.2532655 53.0613163,98.8369697 C53.1883253,99.1738366 53.296418,99.4650128 53.3369528,99.7080652 C53.3937015,100.05872 53.2639902,100.253919 53.1477905,100.356115 C52.8505354,100.614578 52.4343782,100.484805 51.9966026,100.347463 C51.8128449,100.289877 51.4966735,100.191196 51.3264274,100.191196 Z M56.1851972,107.279458 C55.4177385,107.279458 54.6448753,107.011533 53.9179514,106.488659 C52.7019078,105.612968 51.8101425,104.150328 51.5588269,102.63659 C51.1805022,102.362716 50.8021775,101.923384 50.5616711,101.46837 C50.2184766,100.820861 50.2617137,100.354763 50.3589972,100.077645 C50.4535783,99.7980946 50.65355,99.5796448 50.9183772,99.4625796 C51.3183205,99.284954 51.8074402,99.4382473 52.237109,99.5731562 C52.3127739,99.5964071 52.4046527,99.6250651 52.4884246,99.6488567 C52.4424852,99.4979965 52.3749272,99.3130713 52.3019646,99.1208463 C52.0182211,98.3600572 51.6642173,97.4129909 52.0020072,96.7103289 C52.1560394,96.3913058 52.4289736,96.1669081 52.8100006,96.0433542 C53.804454,95.7218978 54.4746292,96.4626804 55.0123907,97.0588212 C55.4798919,97.5768283 55.7879563,97.8836853 56.1203415,97.7931151 C56.2905876,97.7466135 56.4743453,97.6838903 56.66621,97.6176524 C57.4904173,97.3375609 58.5145962,96.9887983 59.3658267,97.4800399 C59.9414207,97.8106885 60.3143408,98.4476533 60.51161,99.4271626 C60.5683587,99.7045505 59.8036024,103.886458 58.4308243,105.93875 C57.9417046,106.673584 57.3985384,107.103995 56.8202422,107.217816 C56.6094613,107.258911 56.3986804,107.279458 56.1851972,107.279458 L56.1851972,107.279458 Z" id="Fill-261" fill="#000000"></path>
            <path d="M199.078427,188.69498 L175.589869,188.69498 C174.292756,188.69498 173.333433,189.910782 173.646902,191.167139 C175.168307,197.264807 177.459874,202.300506 179.15693,205.516422 C180.405402,207.879356 182.859107,209.360381 185.534403,209.360381 L189.133892,209.360381 C191.811891,209.360381 194.262894,207.879356 195.511365,205.516422 C197.208422,202.300777 199.499988,197.264807 201.024096,191.167139 C201.337565,189.910782 200.37554,188.69498 199.078427,188.69498" id="Fill-262" fill="#4A3274"></path>
            <path d="M175.589869,189.100518 C175.092642,189.100518 174.633248,189.324915 174.327886,189.716395 C174.025226,190.102737 173.919836,190.595601 174.038738,191.068728 C175.560144,197.158826 177.857115,202.183711 179.516339,205.326901 C180.697252,207.564659 183.005033,208.954843 185.534403,208.954843 L189.133892,208.954843 C191.665965,208.954843 193.971044,207.564659 195.151957,205.326901 C196.811181,202.183982 199.108152,197.159367 200.629558,191.068458 C200.74846,190.595601 200.643069,190.103007 200.34041,189.716395 C200.035048,189.324915 199.575653,189.100518 199.078427,189.100518 L175.589869,189.100518 Z M189.133892,209.765919 L185.534403,209.765919 C182.702373,209.765919 180.121658,208.210275 178.800224,205.705673 C177.119382,202.522741 174.792685,197.434322 173.252363,191.265549 C173.07401,190.548018 173.233447,189.801828 173.690139,189.217042 C174.149533,188.62739 174.841327,188.289442 175.589869,188.289442 L199.078427,188.289442 C199.826969,188.289442 200.521465,188.62766 200.980859,189.217583 C201.437551,189.802098 201.596988,190.548288 201.415933,191.265549 C199.875611,197.434592 197.548914,202.523012 195.868072,205.705673 C194.546638,208.210275 191.965923,209.765919 189.133892,209.765919 L189.133892,209.765919 Z" id="Fill-263" fill="#000000"></path>
            <path d="M156.257478,97.363245 C155.581898,97.363245 155.230597,97.4986946 155.122504,97.6419847 C154.903616,97.930187 155.030625,99.0029699 158.324752,102.952369 C160.946002,106.091502 165.091359,110.525654 170.341965,116.13911 C174.398146,120.477554 178.621871,124.717588 182.905047,128.755394 C182.872619,123.157349 181.572804,118.045408 179.038028,113.547182 C173.317219,103.395216 161.602665,97.7082225 156.654719,97.3770332 C156.511496,97.3675707 156.379083,97.363245 156.257478,97.363245 Z M183.302288,130.092318 C183.202302,130.092318 183.102316,130.054467 183.026651,129.982822 C178.497564,125.743059 174.030631,121.272679 169.750157,116.695508 C157.127625,103.196232 153.195751,98.8458916 154.473948,97.1531763 C154.825249,96.6889706 155.576494,96.4918792 156.708765,96.5678499 C161.513489,96.8895767 173.595558,102.239433 179.743334,113.148944 C182.491592,118.020806 183.823835,123.587489 183.707636,129.69435 C183.704933,129.854672 183.60765,129.997962 183.461725,130.060415 C183.410381,130.082044 183.356334,130.092318 183.302288,130.092318 L183.302288,130.092318 Z" id="Fill-264" fill="#000000"></path>
            <path d="M204.199321,76.4585765 C203.385923,76.4585765 201.283519,77.3456231 196.562568,83.5235877 C194.241275,86.5599852 188.588024,95.2966237 186.204578,110.827374 C185.296599,116.74985 184.996642,122.845085 185.315516,128.957623 C191.703798,123.320916 196.432856,116.783374 199.372979,109.514783 C201.002478,105.488603 201.799662,101.170165 203.385923,92.5668128 C204.89652,84.3730544 206.20174,77.3002028 204.531707,76.5226515 C204.458744,76.4896677 204.353354,76.4585765 204.199321,76.4585765 Z M184.956107,130.212357 C184.904763,130.212357 184.850717,130.201813 184.799373,130.180455 C184.658852,130.120435 184.561568,129.985256 184.553462,129.831692 C184.158923,123.385261 184.445369,116.949915 185.404692,110.704361 C187.815161,94.9886853 193.560291,86.1168675 195.916713,83.0318054 C200.186378,77.4453854 203.199463,75.0083729 204.872199,75.787276 C207.012436,76.7832772 206.107159,82.2750716 204.183107,92.7098326 C202.586037,101.371311 201.783448,105.716515 200.124224,109.819207 C197.038176,117.442779 192.025374,124.271226 185.220934,130.114757 C185.145269,130.178832 185.053391,130.212357 184.956107,130.212357 L184.956107,130.212357 Z" id="Fill-265" fill="#000000"></path>
            <path d="M168.928652,125.445935 C168.750299,125.445935 168.569244,125.448908 168.388189,125.454856 C164.513063,125.584899 161.086522,126.909115 161.072932,127.640706 C161.04869,128.674557 166.672216,130.334829 172.644341,131.056416 C175.873613,131.446814 179.159633,131.48899 182.421332,131.182133 C179.732524,128.78243 174.916992,125.445935 168.928652,125.445935 Z M178.10843,132.195708 C176.246533,132.195708 174.387337,132.08432 172.547058,131.861815 C172.422751,131.846675 160.202864,130.338074 160.262099,127.622862 C160.30285,125.731704 165.645335,124.735432 168.361165,124.644321 C175.422325,124.403972 180.964782,128.649954 183.637375,131.199436 C183.750873,131.30812 183.791408,131.473039 183.740063,131.622277 C183.691422,131.771515 183.559008,131.878307 183.402274,131.89588 C181.643064,132.095675 179.873045,132.195708 178.10843,132.195708 L178.10843,132.195708 Z" id="Fill-266" fill="#000000"></path>
            <path d="M187.798947,135.754438 C188.925814,137.465808 190.147262,139.134191 191.438971,140.726062 C193.725133,143.542929 195.930225,145.866391 197.994797,147.632373 C202.626572,151.597993 208.666255,154.835267 211.071319,154.835809 C211.463155,154.836078 211.76041,154.749023 211.936061,154.564909 C212.152247,154.33943 212.230614,153.871439 212.157651,153.247451 C211.844182,150.554409 208.623018,144.864171 203.618323,141.619868 C201.632118,140.332691 199.613486,139.59299 195.943737,138.250389 C193.276548,137.274664 190.541801,136.436553 187.798947,135.754438 Z M211.087533,155.617955 C207.788001,155.617955 200.964645,151.243824 197.467845,148.24852 C195.368143,146.450906 193.12792,144.092027 190.812033,141.237311 C189.285222,139.358589 187.855695,137.374156 186.563987,135.339167 C186.47481,135.199932 186.480215,135.021225 186.574796,134.886857 C186.669377,134.752219 186.836921,134.688684 186.99906,134.726805 C190.101323,135.455962 193.203585,136.384914 196.219373,137.487707 C199.824267,138.806787 201.996931,139.602182 204.058801,140.939105 C208.901357,144.077157 212.571106,149.788213 212.962942,153.153366 C213.068333,154.047442 212.919705,154.711173 212.522464,155.125903 C212.195484,155.466555 211.703662,155.617955 211.087533,155.617955 L211.087533,155.617955 Z" id="Fill-267" fill="#000000"></path>
            <path d="M187.507096,186.864922 C187.501692,186.864922 187.496287,186.864922 187.490882,186.864922 C187.26659,186.85573 187.093641,186.66729 187.101748,186.443433 C188.239425,157.763792 184.42375,132.550688 184.385918,132.299255 C184.350788,132.078102 184.50482,131.871007 184.723708,131.836942 C184.942595,131.800984 185.153376,131.954548 185.188507,132.175971 C185.226339,132.427946 189.052823,157.714586 187.912444,186.475606 C187.904337,186.694056 187.723282,186.864922 187.507096,186.864922" id="Fill-268" fill="#000000"></path>
            <path d="M185.396585,186.864922 C185.185804,186.864922 185.007451,186.703248 184.991237,186.490205 C184.972321,186.211195 182.783443,158.406434 174.27384,141.404663 C174.171152,141.204327 174.252221,140.960734 174.452193,140.860431 C174.654867,140.760398 174.898075,140.841235 174.998061,141.041571 C183.580627,158.186903 185.780314,186.148472 185.801933,186.428834 C185.818147,186.65215 185.650603,186.846808 185.426311,186.863841 C185.418204,186.864382 185.407394,186.864922 185.396585,186.864922" id="Fill-269" fill="#000000"></path>
            <path d="M173.809041,146.579326 C174.454895,147.266578 177.351781,150.495471 177.341002,155.484398 C177.32746,160.400329 174.49543,165.072126 173.328028,164.787979 C172.347086,164.549252 171.949845,160.667173 173.809041,146.579326" id="Fill-270" fill="#FFFFFF"></path>
            <path d="M172.779457,142.629928 C169.817715,146.161082 165.099466,150.946429 158.227469,154.905831 C150.625845,159.285911 140.36514,162.672152 139.173417,160.67285 C138.195177,159.03637 143.491723,154.113951 146.19134,151.924046 C150.150237,148.711645 158.459868,143.316639 172.779457,142.629928" id="Fill-271" fill="#FFFFFF"></path>
            <path d="M171.993082,139.669771 C169.07728,136.249194 164.226617,131.543603 157.041151,128.369052 C141.735215,121.607113 124.15663,125.466752 123.875588,128.386625 C123.726961,129.953353 128.677609,129.984174 142.502674,136.333817 C151.70407,140.560333 155.365713,143.236342 161.605368,142.918671 C166.072301,142.691029 169.655576,141.041301 171.993082,139.669771" id="Fill-272" fill="#FFFFFF"></path>
            <path d="M174.879159,139.356696 C178.497564,135.775256 184.729112,130.691973 193.668384,128.260097 C199.289208,126.73149 208.209563,125.643296 209.106733,127.979735 C210.066056,130.4865 201.842899,137.077573 193.006316,139.557302 C185.469548,141.672318 178.762392,140.439212 174.879159,139.356696" id="Fill-273" fill="#FFFFFF"></path>
            <path d="M52.9586282,17.8845724 C52.8154052,17.8845724 52.6748846,17.8069795 52.601922,17.6707188 C52.4965316,17.473357 52.5694942,17.227601 52.7667635,17.1216204 C58.5172985,14.032503 64.7002047,11.6544286 71.1452357,10.0528242 C71.3614212,9.99848213 71.5830114,10.1312282 71.6370578,10.3485965 C71.6911042,10.5659649 71.5586905,10.7860368 71.342505,10.8398381 C64.9596273,12.425221 58.8415768,14.7792334 53.1504928,17.8361783 C53.0910418,17.8688916 53.0234838,17.8845724 52.9586282,17.8845724" id="Fill-274" fill="#000000"></path>
            <path d="M15.9990098,87.640879 C15.8692985,87.640879 15.7395871,87.5773447 15.6612199,87.4600091 C15.5369132,87.2734616 15.5882573,87.0217577 15.7747173,86.8976631 C16.906989,86.1444441 17.5231178,85.405554 17.5609502,84.760208 C17.5960804,84.132976 17.0745328,83.6636334 16.5205574,83.1669847 C15.9341541,82.6400557 15.2693836,82.0425632 15.4207135,81.191204 C15.5666387,80.3576884 16.3611205,79.9480951 17.1258768,79.5517493 C17.787945,79.2108271 18.4094784,78.8891004 18.5310828,78.3697415 C18.6689011,77.7906334 18.0960094,77.1790822 17.5447363,76.5878079 C16.9042867,75.9038006 16.2449208,75.1968128 16.5475806,74.3697859 C16.7745754,73.7530979 17.3852995,73.5516807 17.923061,73.3737847 C18.42299,73.2083253 18.8958959,73.0523283 19.1228907,72.6192139 C19.3336716,72.2128649 19.1985556,71.8154377 18.939133,71.1481927 C18.7256498,70.5917946 18.4581202,69.8994062 18.4689294,69.0434509 C18.4878457,67.5380941 19.3742063,65.9370304 21.0982859,64.2851393 C21.2577228,64.1302238 21.5144431,64.135631 21.6711776,64.2975758 C21.8252098,64.4592503 21.8198051,64.7160909 21.657666,64.8710064 C20.0957255,66.3669006 19.2958391,67.7741172 19.2796252,69.0539949 C19.2715182,69.7534126 19.4877037,70.3141363 19.6957823,70.8562054 C19.9579073,71.5377794 20.2308415,72.2423339 19.8417075,72.9928495 C19.4633829,73.7187623 18.7499706,73.954515 18.177079,74.1440364 C17.6960662,74.3030073 17.3961088,74.4125025 17.3096345,74.6487959 C17.1772209,75.0075618 17.6447221,75.5061031 18.1365442,76.0338431 C18.8013147,76.746238 19.5552617,77.5537992 19.32016,78.5549371 C19.1147837,79.4381987 18.2554462,79.8813165 17.4987969,80.2725254 C16.8799658,80.5920893 16.2962649,80.8940798 16.2178976,81.3320608 C16.1503397,81.7127257 16.4935342,82.0512147 17.0637235,82.5635443 C17.669043,83.109939 18.4256923,83.7896206 18.3689436,84.8058986 C18.3175996,85.7418801 17.6149966,86.6470407 16.2233023,87.573019 C16.1557443,87.6189799 16.077377,87.640879 15.9990098,87.640879" id="Fill-275" fill="#000000"></path>
            <path d="M11.2618444,100.039254 C11.0510635,100.039254 10.8727104,99.876769 10.8564965,99.6637264 C8.70815284,70.5274493 18.863468,43.9682305 38.7228111,26.796133 C38.8930572,26.6495986 39.1497775,26.6682533 39.2957028,26.8377682 C39.441628,27.007283 39.4227118,27.2633126 39.2524657,27.409847 C19.5903919,44.4127 9.53506249,70.7264332 11.6644899,99.6039771 C11.6807039,99.8272933 11.5131601,100.021681 11.2915699,100.038443 C11.2807606,100.039254 11.2699514,100.039254 11.2618444,100.039254" id="Fill-276" fill="#000000"></path>
            <path d="M14.129005,90.8446285 L14.1911583,94.7991639 L17.3798948,92.5641093 C16.6962081,92.179389 15.4612483,91.4988963 14.129005,90.8446285 Z M13.799322,95.9754942 C13.7344664,95.9754942 13.672313,95.9606245 13.612862,95.9311554 C13.4804484,95.8627547 13.3939742,95.7262236 13.3939742,95.5761745 L13.3075,90.1998232 C13.3047976,90.0597775 13.3750579,89.9283832 13.49396,89.8526828 C13.612862,89.7769823 13.7587872,89.7669791 13.8857962,89.8269987 C16.1422327,90.8965374 18.3203019,92.1664117 18.3419204,92.1791186 C18.4608225,92.2488711 18.5364874,92.3743175 18.5418921,92.5124708 C18.5472967,92.650624 18.482441,92.7820183 18.3689436,92.8612334 L14.0317215,95.9019567 C13.9614612,95.9506212 13.8803916,95.9754942 13.799322,95.9754942 L13.799322,95.9754942 Z" id="Fill-277" fill="#000000"></path>
            <path d="M34.8449832,34.6822233 C34.5017887,34.6822233 34.1775104,34.8879662 34.0450968,35.2240219 C33.9613249,35.4359831 33.9667295,35.6679508 34.0586083,35.876938 C34.1477849,36.0864659 34.3153287,36.24787 34.5288119,36.3316812 C34.9665876,36.5038996 35.4665166,36.2878831 35.639465,35.8493614 C35.7232369,35.6374002 35.7178323,35.4054326 35.6286557,35.1964453 C35.5367769,34.9869174 35.3692331,34.8255133 35.1557499,34.7417022 C35.0530618,34.7014187 34.9476713,34.6822233 34.8449832,34.6822233 Z M34.8395786,37.2022359 C34.6369046,37.2022359 34.4315284,37.1649264 34.2315568,37.0865224 C33.8181019,36.9234962 33.4911213,36.6090691 33.3154706,36.2005572 C33.1371175,35.7928564 33.1290106,35.3402761 33.2911497,34.9266275 C33.6289396,34.0722942 34.5990722,33.6505348 35.453005,33.9868609 C35.8664598,34.1498872 36.1934404,34.4643142 36.3717935,34.8728261 C36.5501466,35.2805269 36.5555512,35.7331072 36.3934121,36.1467559 C36.1366917,36.8015644 35.5070514,37.2022359 34.8395786,37.2022359 L34.8395786,37.2022359 Z" id="Fill-278" fill="#000000"></path>
            <path d="M37.4554235,32.0919174 L40.8171084,32.8159378 C40.6495646,32.1211162 40.3523095,30.9264015 39.9820918,29.6814001 L37.4554235,32.0919174 Z M41.3548699,33.75246 C41.3278467,33.75246 41.2981212,33.7494861 41.271098,33.7435382 L36.536635,32.7234751 C36.3880074,32.6918432 36.2718077,32.5815369 36.2312729,32.436895 C36.1907381,32.2922532 36.2339752,32.1370673 36.342068,32.0332496 L39.8983199,28.6405194 C40.0010081,28.5440014 40.144231,28.5064215 40.2793469,28.5415682 C40.4171652,28.5764444 40.5225556,28.6791807 40.5657927,28.8127378 C41.2467772,30.9896654 41.7467062,33.2371565 41.7521108,33.2595963 C41.7818363,33.3945052 41.7413016,33.5350917 41.6440181,33.6329615 C41.5656508,33.7102841 41.4629627,33.75246 41.3548699,33.75246 L41.3548699,33.75246 Z" id="Fill-279" fill="#000000"></path>
            <path d="M89.5885636,127.428204 C89.507494,127.428204 89.4237221,127.403061 89.3534618,127.350881 C89.1697041,127.217865 84.8486959,124.04764 84.9243608,120.580561 C84.9297655,120.356704 85.1108208,120.173671 85.340518,120.184215 C85.5621081,120.189082 85.7404612,120.374548 85.7350566,120.598405 C85.6674986,123.644805 89.7858329,126.6639 89.82907,126.69418 C90.0101254,126.825575 90.0506602,127.079171 89.9182465,127.260311 C89.8398793,127.369806 89.7155726,127.428204 89.5885636,127.428204" id="Fill-280" fill="#000000"></path>
        </g>
    </g>
</svg>