<?xml version="1.0" encoding="UTF-8"?>
<svg width="478px" height="278px" viewBox="0 0 478 278" version="1.1" xmlns="http://www.w3.org/2000/svg" xmlns:xlink="http://www.w3.org/1999/xlink">
    <title>T_r</title>
    <g id="Page-1" stroke="none" stroke-width="1" fill="none" fill-rule="evenodd">
        <g id="T_r" transform="translate(0.500000, 1.000000)">
            <g id="Group-2" transform="translate(0.000000, 153.500000)">
                <path d="M24.648,63.73 C25.08,63.73 25.508,63.89 25.84,64.199 C27.553,65.793 29.776,66.671 32.098,66.671 C37.173,66.671 41.3,62.543 41.3,57.47 C41.3,53.318 38.496,49.668 34.48,48.593 C33.827,48.418 33.332,47.881 33.212,47.215 C32.59,43.787 29.61,41.3 26.126,41.3 C25.847,41.3 25.55,41.322 25.187,41.369 C24.444,41.463 23.729,41.084 23.396,40.418 C21.822,37.277 18.672,35.326 15.175,35.326 C10.101,35.326 5.973,39.454 5.973,44.527 C5.973,45.361 6.093,46.207 6.331,47.041 C6.566,47.872 6.162,48.75 5.377,49.11 C2.11,50.607 0,53.889 0,57.47 C0,62.543 4.128,66.671 9.201,66.671 C11.704,66.671 14.048,65.678 15.799,63.874 C16.405,63.251 17.379,63.164 18.084,63.678 C19.734,64.877 22.007,64.993 23.767,63.969 C24.042,63.809 24.345,63.73 24.648,63.73 Z" id="Fill-125" stroke="#000000"></path>
                <path d="M110.873,31.801 C106.302,31.801 102.585,35.519 102.585,40.089 C102.585,40.74 102.667,41.391 102.837,42.08 C103.051,42.953 102.57,43.848 101.721,44.147 C98.417,45.318 96.196,48.455 96.196,51.953 C96.196,56.523 99.915,60.241 104.485,60.241 C107.341,60.241 109.962,58.79 111.494,56.359 C111.776,55.912 112.246,55.616 112.771,55.555 C113.296,55.496 113.823,55.673 114.2,56.044 C115.759,57.573 117.819,58.416 119.999,58.416 C124.569,58.416 128.287,54.698 128.287,50.128 C128.287,45.811 125.048,42.265 120.752,41.878 C119.85,41.797 119.159,41.04 119.159,40.135 C119.159,40.098 119.161,40.037 119.164,39.999 C119.161,35.519 115.443,31.801 110.873,31.801 Z" id="Fill-127" stroke="#000000"></path>
                <path d="M51.82,0 C45.667,0 40.66,5.007 40.66,11.161 C40.66,11.684 40.709,12.251 40.809,12.895 C40.938,13.716 40.472,14.514 39.695,14.805 C35.358,16.431 32.444,20.626 32.444,25.246 C32.444,31.185 37.094,36.072 43.03,36.375 C43.447,36.396 43.843,36.566 44.146,36.853 C46.234,38.836 48.96,39.928 51.82,39.928 C54.72,39.928 57.472,38.812 59.568,36.788 C59.948,36.419 60.474,36.245 61,36.311 C61.526,36.376 61.966,36.406 62.383,36.406 C65.495,36.406 68.386,35.146 70.526,32.859 C71.157,32.186 72.202,32.116 72.915,32.702 C74.902,34.334 77.415,35.232 79.99,35.232 C86.143,35.232 91.15,30.226 91.15,24.072 C91.15,18.686 87.306,14.073 82.01,13.104 C81.172,12.95 80.565,12.214 80.576,11.359 C80.577,11.291 80.581,11.224 80.586,11.156 C80.587,5.007 75.58,0 69.426,0 C66.599,0 63.898,1.07 61.819,3.014 C61.145,3.643 60.101,3.643 59.429,3.014 C57.349,1.07 54.646,0 51.82,0 Z" id="Fill-129" stroke="#000000"></path>
                <path d="M59.712,120.922 C59.4357143,120.922 59.212,120.139 59.212,119.172 L59.212,39.158 C59.212,38.191 59.4357143,37.408 59.712,37.408 C59.988,37.408 60.212,38.191 60.212,39.158 L60.212,119.172 C60.212,120.139 59.988,120.922 59.712,120.922" id="Fill-130" fill="#000000"></path>
                <path d="M69.2,120.922 L49.723,120.922 C48.757,120.922 47.973,120.139 47.973,119.172 C47.973,118.205 48.757,117.422 49.723,117.422 L69.2,117.422 C70.167,117.422 70.95,118.205 70.95,119.172 C70.95,120.139 70.167,120.922 69.2,120.922" id="Fill-131" fill="#000000"></path>
                <path d="M58.461,64.064 C58.204,64.064 57.944,64.0496951 57.698,64.0187445 L41.125,61.9289289 C40.256,61.8194314 39.892,61.5471181 40.313,61.3208406 C40.735,61.094303 41.784,61.0001508 42.652,61.1096483 L59.225,63.1992039 C60.094,63.3089614 60.458,63.5812747 60.037,63.8075522 C59.734,63.9695877 59.11,64.064 58.461,64.064" id="Fill-132" fill="#000000"></path>
                <path d="M61.316,63.915 C60.743,63.915 60.181,63.8295782 59.846,63.6727181 C59.32,63.4261803 59.55,63.0969567 60.361,62.9367527 L95.517,56.0011679 C96.329,55.840356 97.412,55.9114902 97.938,56.15742 C98.465,56.4042617 98.234,56.7334854 97.424,56.8933854 L62.267,63.8292742 C61.972,63.8873367 61.642,63.915 61.316,63.915" id="Fill-133" fill="#000000"></path>
            </g>
            <g id="Group" transform="translate(291.744000, 0.000000)">
                <path d="M100.836,63.2 L100.756,63.36 L100.756,84 L80.756,104 L72.756,92 L72.756,71.36 C73.956,71.76 75.276,72 76.756,72 C89.236,72 92.756,56 92.756,56 C92.756,56 95.956,61.12 100.836,63.2" id="Fill-57" fill="#F1D3BB"></path>
                <path d="M124.876,63.44 L124.756,64 L120.756,76 L100.756,84 L100.756,63.36 L100.836,63.2 C102.036,63.68 103.356,64 104.756,64 C111.756,64 116.756,56 116.756,56 C116.756,56 118.716,61.68 124.876,63.44" id="Fill-58" fill="#F1D3BB"></path>
                <path d="M64.756,122 L64.756,148 L48.756,148 L36.756,132 C49.512,132 48.756,120 48.756,120 C49.676,123.92 59.076,125.92 64.756,122" id="Fill-59" fill="#F1D3BB"></path>
                <path d="M12.596,156.36 C6.756,155 0.756,150.76 0.756,144 C0.756,134.08 8.716,126.76 9.192,126.32 C11.916,127.76 14.716,128 16.756,128 C22.276,128 25,124.04 25,124.04 C25,124.6 25.236,132 36.756,132 L48.756,148 L64.756,148 L77.556,160.8 C77.476,166.2 72.756,176 60.756,176 C44.756,176 40.756,168 40.756,168 C40.756,168 36.396,176 24.756,176 C11.276,176 11.036,160 12.596,156.36" id="Fill-60" fill="#F1D3BB"></path>
                <path d="M178.356,120.36 C178.356,120.36 188.756,132 182.276,145.76 C175.596,159.8 156.756,156 156.756,156 C156.756,156 156.756,166 147.236,170.48 C144.356,171.88 141.756,172 139.516,172 C132.516,172 128.996,168 128.996,168 C120.636,183.36 104.756,172 104.756,172 L122.956,147.72 L148.756,144 L161.196,121.6 C163.036,122.96 165.516,124 168.756,124 C172.356,124 175.676,122.84 178.316,120.32 L178.356,120.36" id="Fill-61" fill="#F1D3BB"></path>
                <path d="M161.196,121.6 L148.756,144 L122.956,147.72 L140.756,124 C152.996,124 156.756,116 156.756,116 C156.756,116 157.956,119.24 161.196,121.6" id="Fill-62" fill="#F1D3BB"></path>
                <polygon id="Fill-63" fill="#F1D3BB" points="122.956 147.72 104.756 172 104.756 276.798089 84.756 276.798089 84.756 148 80.756 124 80.756 104 88.756 124 96.756 136 112.996 107.48 100.756 148 104.756 156 140.756 124"></polygon>
                <path d="M128.756,100 C128.756,100.04 128.756,100.04 128.716,100.08 C128.316,100.96 124.956,108 116.756,108 C115.356,108 114.076,107.8 112.996,107.48 C106.756,105.68 104.756,99.48 104.756,96" id="Stroke-64" stroke="#000000" stroke-linejoin="round"></path>
                <path d="M48.756,48 C48.756,48 48.756,48 48.716,48 C47.872,47.72 36.756,44 36.756,32 C36.756,19.52 45.236,12 52.756,12 C60.276,12 64.756,16 64.756,16 C64.756,16 64.116,4 76.756,4 C85.956,4 88.756,12 88.756,12 C88.756,12 95.756,0 108.756,0 C121.756,0 124.756,16 124.756,16 C124.756,16 141.596,11.16 148.516,17.84 C158.996,28 152.276,44 152.276,44 C152.276,44 176.756,44 176.756,64 C176.756,74.68 168.756,80 168.756,80 C168.756,80 184.756,84.76 184.756,100 C184.756,110.16 182.276,116.72 178.316,120.32 C175.676,122.84 172.356,124 168.756,124 C165.516,124 163.036,122.96 161.196,121.6 C157.956,119.24 156.756,116 156.756,116 C156.756,116 152.996,124 140.756,124 C130.316,124 124.796,110.56 128.716,100.08" id="Path" stroke="#000000" stroke-linejoin="round"></path>
                <path d="M140.756,56 C140.756,56 137.996,64 128.756,64 C127.316,64 125.996,63.8 124.876,63.44 C118.716,61.68 116.756,56 116.756,56 C116.756,56 111.756,64 104.756,64 C103.356,64 102.036,63.68 100.836,63.2 C95.956,61.12 92.756,56 92.756,56 C92.756,56 89.236,72 76.756,72 C75.276,72 73.956,71.76 72.756,71.36 C67.156,69.44 64.756,64 64.756,64 C64.756,64 62.276,72 52.756,72 C45,72 40.756,66.12 40.756,60 C40.756,48.24 48.156,48 48.716,48" id="Path" stroke="#000000" stroke-linejoin="round"></path>
                <path d="M25,124.04 C25,124.6 25.236,132 36.756,132 C49.512,132 48.756,120 48.756,120 C49.676,123.92 59.076,125.92 64.756,122 C66.676,120.68 68.156,118.76 68.756,116" id="Path" stroke="#000000" stroke-linejoin="round"></path>
                <path d="M40.756,60 C34.756,60 22.756,62.24 28.756,80.48 C28.756,80.48 0,82.48 0,104.24 C0,118.04 4.476,123.88 9.192,126.32 C11.916,127.76 14.716,128 16.756,128 C22.276,128 25,124.04 25,124.04 L25,124" id="Path" stroke="#000000" stroke-linejoin="round"></path>
                <path d="M9.236,126.28 C9.236,126.28 9.236,126.28 9.192,126.32 C8.716,126.76 0.756,134.08 0.756,144 C0.756,150.76 6.756,155 12.596,156.36 C15.64,157.04 18.64,156.92 20.756,156" id="Path" stroke="#000000" stroke-linejoin="round"></path>
                <path d="M12.756,156 C12.676,156.12 12.64,156.24 12.596,156.36 C11.036,160 11.276,176 24.756,176 C36.396,176 40.756,168 40.756,168 C40.756,168 44.756,176 60.756,176 C72.756,176 77.476,166.2 77.556,160.8" id="Path" stroke="#000000" stroke-linejoin="round"></path>
                <polyline id="Path" stroke="#000000" stroke-linejoin="round" points="84.756 276.798089 84.756 148 80.756 124 80.756 104 72.756 92 72.756 71.36"></polyline>
                <polyline id="Path" stroke="#000000" stroke-linejoin="round" points="104.756 276.798089 104.756 172 122.956 147.72 140.756 124 104.756 156 100.756 148 112.996 107.48 96.756 136 88.756 124 80.756 104 100.756 84 100.756 63.36"></polyline>
                <polyline id="Path" stroke="#000000" stroke-linejoin="round" points="100.756 84 120.756 76 124.756 64"></polyline>
                <polyline id="Path" stroke="#000000" stroke-linejoin="round" points="122.956 147.72 148.756 144 161.196 121.6"></polyline>
                <polyline id="Path" stroke="#000000" stroke-linejoin="round" points="64.756 122 64.756 148 84.756 168"></polyline>
                <polyline id="Path" stroke="#000000" stroke-linejoin="round" points="36.756 132 48.756 148 64.756 148"></polyline>
                <path d="M104.756,172 C104.756,172 120.636,183.36 128.996,168 C128.996,168 132.516,172 139.516,172 C141.756,172 144.356,171.88 147.236,170.48 C156.756,166 156.756,156 156.756,156 C156.756,156 175.596,159.8 182.276,145.76 C188.756,132 178.356,120.36 178.356,120.36" id="Path" stroke="#000000" stroke-linejoin="round"></path>
            </g>
        </g>
    </g>
</svg>