<?xml version="1.0" encoding="UTF-8"?>
<svg width="37px" height="37px" viewBox="0 0 37 37" version="1.1" xmlns="http://www.w3.org/2000/svg" xmlns:xlink="http://www.w3.org/1999/xlink">
    <title>Group 77</title>
    <g id="Page-1" stroke="none" stroke-width="1" fill="none" fill-rule="evenodd">
        <g id="Group-77" transform="translate(0.201500, 0.459400)">
            <path d="M18.1484,0.5697 C8.4394,0.5697 0.5694,8.4397 0.5694,18.1487 C0.5694,27.8577 8.4394,35.7277 18.1484,35.7287 C22.8104,35.7287 27.2824,33.8757 30.5794,30.5797 C33.8754,27.2827 35.7274,22.8117 35.7274,18.1487 C35.7274,13.4867 33.8754,9.0147 30.5794,5.7187 C27.2824,2.4217 22.8104,0.5697 18.1484,0.5697" id="Fill-168" fill="#FFFFFF"></path>
            <polygon id="Fill-170" fill="#333333" points="17.5793 18.1487 18.7183 18.1487 18.7183 0.5697 17.5793 0.5697"></polygon>
            <polygon id="Fill-172" fill="#333333" points="34.6701 12.1782 17.9731 17.6082 18.3241 18.6902 35.0221 13.2612"></polygon>
            <polygon id="Fill-173" fill="#333333" points="18.6095 17.8148 17.6885 18.4848 28.0115 32.6858 28.9325 32.0158"></polygon>
            <polygon id="Fill-174" fill="#333333" points="17.6886 17.8148 7.3686 32.0238 8.2916 32.6938 18.6096 18.4828"></polygon>
            <polygon id="Fill-175" fill="#333333" points="1.6143 12.1826 1.2623 13.2656 17.9733 18.6906 18.3243 17.6066"></polygon>
            <polygon id="Fill-176" fill="#000000" points="22.3803 23.9791 13.9173 23.9791 11.3013 15.9231 18.1483 10.9441 24.9953 15.9231"></polygon>
            <path d="M18.149,0.5704 C16.098,0.5754 14.063,0.9394 12.138,1.6454 L18.146,6.0114 L24.149,1.6494 C22.227,0.9424 20.197,0.5774 18.149,0.5704" id="Fill-177" fill="#000000"></path>
            <path d="M31.991,7.3217 L29.692,14.3957 L35.697,18.7577 C35.71,18.5557 35.72,18.3527 35.727,18.1497 C35.725,14.2247 34.41,10.4127 31.99,7.3217 L31.991,7.3217 Z" id="Fill-178" fill="#000000"></path>
            <path d="M4.3103,7.3422 C1.8933,10.4272 0.5773,14.2312 0.5693,18.1502 C0.5733,18.3572 0.5803,18.5642 0.5913,18.7712 L6.6053,14.4032 L4.3103,7.3422 Z" id="Fill-179" fill="#000000"></path>
            <path d="M25.2854,27.9686 L22.9874,35.0436 C26.9644,33.9046 30.4114,31.3986 32.7234,27.9686 L25.2854,27.9686 Z" id="Fill-180" fill="#000000"></path>
            <path d="M3.5881,27.9686 C5.8991,31.3926 9.3411,33.8926 13.3121,35.0316 L11.0171,27.9686 L3.5881,27.9686 Z" id="Fill-181" fill="#000000"></path>
            <polygon id="Fill-182" fill="#333333" points="12.472 1.1848 11.803 2.1058 18.147 6.7158 24.484 2.1098 23.815 1.1878 18.147 5.3078"></polygon>
            <polygon id="Fill-183" fill="#333333" points="31.4491 7.1463 29.0221 14.6143 35.3621 19.2183 36.0321 18.2973 30.3611 14.1783 32.5321 7.4983"></polygon>
            <polygon id="Fill-184" fill="#333333" points="4.8521 7.1718 3.7681 7.5248 5.9351 14.1918 0.2561 18.3158 0.9261 19.2378 7.2731 14.6268"></polygon>
            <polygon id="Fill-185" fill="#333333" points="24.8714 27.4047 22.4454 34.8737 23.5284 35.2247 25.6984 28.5437 32.7234 28.5437 32.7234 27.4047"></polygon>
            <polygon id="Fill-186" fill="#333333" points="3.5884 27.3981 3.5884 28.5371 10.6024 28.5371 12.7704 35.2071 13.8534 34.8541 11.4294 27.3981"></polygon>
            <path d="M0.00569999999,17.7439 C0.00269999999,17.8789 0.00069999999,18.0139 0.00069999999,18.1489 C0.00069999999,28.1649 8.1327,36.2969 18.1497,36.2969 C28.1657,36.2969 36.2977,28.1649 36.2977,18.1489 C36.2977,18.0139 36.2967,17.8789 36.2937,17.7439 L35.1547,17.7439 C35.1577,17.8789 35.1587,18.0139 35.1587,18.1489 C35.1587,27.5499 27.5507,35.1579 18.1497,35.1579 C8.7487,35.1579 1.1397,27.5499 1.1397,18.1489 C1.1397,18.0139 1.1417,17.8789 1.1447,17.7439 L0.00569999999,17.7439 Z" id="Fill-187" fill="#333333"></path>
            <polygon id="Fill-188" fill="#333333" points="11.2929 17.7439 13.5019 24.5489 22.7929 24.5489 22.9199 24.1559 25.0009 17.7429 23.8049 17.7429 21.9659 23.4079 14.3299 23.4079 12.4889 17.7429"></polygon>
            <path d="M18.149,0 C8.132,0 0,8.132 0,18.149 C0,18.284 0.002,18.419 0.005,18.553 L1.144,18.553 C1.141,18.419 1.138,18.284 1.138,18.149 C1.138,8.748 8.747,1.139 18.148,1.139 C27.549,1.139 35.157,8.748 35.157,18.149 C35.157,18.284 35.156,18.419 35.151,18.553 L36.29,18.553 C36.294,18.419 36.295,18.284 36.295,18.149 C36.295,8.132 28.163,0 18.147,0 L18.149,0 Z" id="Fill-189" fill="#333333"></path>
            <polygon id="Fill-190" fill="#333333" points="18.1481 10.2416 10.6321 15.7076 11.5561 18.5536 12.7521 18.5536 11.9671 16.1396 18.1481 11.6486 24.3261 16.1406 23.5421 18.5536 24.7381 18.5536 25.6631 15.7056"></polygon>
        </g>
    </g>
</svg>