<?xml version="1.0" encoding="UTF-8"?>
<svg width="323px" height="238px" viewBox="0 0 323 238" version="1.1" xmlns="http://www.w3.org/2000/svg" xmlns:xlink="http://www.w3.org/1999/xlink">
    <title>Group 33 Copy</title>
    <defs>
        <polygon id="path-1" points="0 0 92.5830622 0 92.5830622 26.6198703 0 26.6198703"></polygon>
    </defs>
    <g id="Page-1" stroke="none" stroke-width="1" fill="none" fill-rule="evenodd">
        <g id="Group-33-Copy" transform="translate(0.530596, 1.000000)">
            <g id="Group-61" transform="translate(161.469404, 0.000000)">
                <path d="M117.100166,17.5607527 C105.232235,17.5607527 89.9343274,18.24583 75.2742066,19.1152934 C75.2352806,18.9773785 75.1753945,18.8424618 75.0735881,18.7285321 C62.2340052,4.27445132 53.9158239,-1.71285408 49.6309724,0.420329594 C47.6592221,1.40222369 46.9181315,2.98674593 47.3627859,5.26533987 C47.7221025,7.10620392 48.8195156,9.31284227 50.2118677,12.1056189 L51.047279,13.7920783 C51.4065957,14.5236268 52.6477354,16.7752374 54.7242865,20.4644609 C45.9839081,21.0895752 38.4143032,21.6877061 33.2416401,22.1119443 C27.9956165,22.5436779 22.8484049,20.8107472 18.7521947,17.2354534 C14.3011593,13.3498511 6.17161925,7.05673445 1.7490297,8.56630294 C1.03189348,8.81065216 0.50639283,9.32633394 0.230916704,10.0563834 C-0.643420566,12.3709552 0.951047229,16.9656199 5.39309976,24.8882311 L0.786360414,26.6766276 C0.412072199,26.8220378 0.165041978,27.1833149 0.165041978,27.585067 L0.165041978,36.3921324 C0.165041978,36.8208678 0.445009562,37.2001338 0.853732293,37.324557 C1.10824828,37.4025089 26.4834921,45.0522884 65.5741532,48.0414439 C65.5202557,48.1313884 65.4708497,48.2138375 65.4169522,48.303782 C57.8114157,61.000947 48.3449181,76.8056943 45.6141113,82.3687615 L44.7787,84.0537217 C43.387845,86.8464984 42.2889348,89.0531367 41.9296181,90.8954998 C41.4849637,93.1725947 42.2275515,94.758616 44.1978047,95.7405101 C44.5481385,95.9159019 44.9523697,95.9998501 45.4060071,95.9998501 C54.1014709,95.9998501 80.7492946,64.9465123 94.4901635,48.1958486 L121.874586,48.1958486 C143.583303,48.1958486 155.728207,45.963726 159.005475,41.3690613 C160.474181,39.3093323 160.029527,37.2001338 159.478575,35.5916264 C156.755254,27.6435309 136.256237,17.5607527 117.100166,17.5607527 Z" id="Fill-1" stroke="#333333" fill="#FFFFFF"></path>
                <path d="M157.420738,40.2374096 C155.465457,42.9792177 147.711702,46.2472011 121.875335,46.2472011 L96.0838828,46.2472011 C98.4418985,43.3539864 100.316334,41.0109322 101.491599,39.5328443 C101.825464,39.1131033 101.755098,38.4999817 101.335895,38.1641889 C100.915195,37.8298952 100.30286,37.8988526 99.9674973,38.3200927 C65.5359758,81.6628471 48.0207845,95.460333 45.0654048,93.9957368 C43.8976256,93.4140957 43.5652576,92.6750517 43.8392366,91.2689194 C44.1491472,89.6858963 45.1956571,87.5841932 46.5206374,84.9248342 L47.3605401,83.2278813 C50.0554153,77.7382688 59.4994555,61.9724974 67.0870262,49.305314 C69.5528369,45.1873551 71.8225207,41.3991927 73.5996411,38.3995437 C73.8736201,37.9363295 73.7209105,37.3381986 73.2582903,37.0638679 C72.7971672,36.7895372 72.1998032,36.9424428 71.9258242,37.405657 C70.4631059,39.8746334 68.6575395,42.8937704 66.6917778,46.1752455 C30.8634128,43.5218828 6.4463468,36.9019678 2.11208927,35.6622328 L2.11208927,28.2523052 L7.14551718,26.2975115 C7.41051324,26.1955744 7.61562318,25.9827058 7.71144096,25.7143713 C7.80576159,25.447536 7.77881284,25.1507191 7.63957763,24.9048709 C1.91446509,14.868564 1.68090925,11.7265029 2.050706,10.7461078 C2.13155226,10.5317401 2.24084442,10.4567864 2.37708533,10.410315 C4.81594733,9.57682937 10.7461698,12.8328202 17.4728776,18.7046968 C21.9688276,22.6292751 27.6295626,24.528603 33.4010869,24.0548954 C49.0118997,22.7746853 86.439224,19.9024577 112.09743,19.5471769 C112.408838,21.6458819 113.655966,26.288517 118.651965,29.7768645 C122.773627,32.6535893 128.422385,34.0927013 135.541346,34.0927013 C140.898159,34.0927013 147.087389,33.2772045 154.08059,31.6447119 C154.092567,31.6417137 154.100053,31.6327193 154.11203,31.6297211 C155.895139,33.1842619 157.131788,34.7477971 157.637825,36.2243859 C158.083977,37.525583 158.365442,38.9122273 157.420738,40.2374096 M52.7937078,12.9332582 L51.9538051,11.2363054 C50.6273277,8.57544729 49.5808178,6.4737442 49.2724043,4.89072104 C48.9984254,3.48458872 49.3307933,2.74554477 50.4985725,2.16390368 C51.9897368,1.42186158 57.1504227,1.64972097 72.9304138,19.2563564 C67.3774738,19.5951473 61.953289,19.9564244 56.8734494,20.3132042 C53.9734643,15.1713771 53.049721,13.4519381 52.7937078,12.9332582 M152.141777,30.0766795 C137.384342,33.3131823 126.203604,32.6715782 119.765847,28.1773515 C115.564836,25.2466599 114.398554,21.4420077 114.06918,19.5246908 C115.099221,19.5156964 116.115788,19.5097001 117.100915,19.5097001 C130.189025,19.5097001 144.428446,24.528603 152.141777,30.0766795 M159.479323,35.5917763 C156.756002,27.6436808 136.256985,17.5609026 117.100915,17.5609026 C105.232984,17.5609026 89.935076,18.2459799 75.2749552,19.1154434 C75.2360292,18.9760294 75.1746459,18.8426117 75.0728395,18.728682 C62.2347538,4.27460123 53.9165725,-1.71270417 49.6302239,0.418980427 C47.6599707,1.4023736 46.91888,2.98689584 47.3620373,5.2639907 C47.7228511,7.10635383 48.8202642,9.31299218 50.2111192,12.1057688 L51.0480276,13.7922282 C51.4073443,14.5237767 52.648484,16.7753873 54.725035,20.4646108 C45.9831595,21.0897251 38.4150518,21.687856 33.2408915,22.1120942 C27.9948679,22.5438278 22.8476564,20.8108971 18.7529433,17.2356033 C14.3019078,13.350001 6.17236782,7.05538528 1.74977828,8.56645284 C1.03114491,8.81080206 0.507141406,9.32648385 0.230168127,10.0565334 C-0.644169142,12.3711051 0.950298652,16.9657699 5.39384834,24.888381 L0.787108991,26.6767775 C0.411323623,26.8221877 0.165790554,27.1834648 0.165790554,27.5852169 L0.165790554,36.3922823 C0.165790554,36.8210177 0.444260986,37.1987846 0.854480869,37.3247069 C1.10899686,37.4026588 26.4842407,45.0524383 65.5734047,48.0415938 C65.5210043,48.1315383 65.4701011,48.2139874 65.4177008,48.3039319 C57.8106671,61.0010969 48.3456667,76.8058442 45.6133627,82.3674123 L44.7779514,84.0538716 C43.3870964,86.8466483 42.2896834,89.0532866 41.9288696,90.8956498 C41.4857123,93.1727446 42.226803,94.7587659 44.1985533,95.74066 C44.5488871,95.9160518 44.9516212,96 45.4067556,96 C54.1007223,96 80.7500432,64.9466622 94.4909121,48.1959985 L121.875335,48.1959985 C143.584052,48.1959985 155.728956,45.9638759 159.004726,41.3692112 C160.47493,39.3094822 160.030276,37.2002837 159.479323,35.5917763" id="Fill-145"></path>
                <path d="M61.6102913,36.8971707 L60.6221704,36.8971707 C58.9693137,36.8971707 57.6278647,35.5539996 57.6278647,33.8990208 C57.6278647,32.2440421 58.9693137,30.9008709 60.6221704,30.9008709 L61.6102913,30.9008709 C63.2631481,30.9008709 64.604597,32.2440421 64.604597,33.8990208 C64.604597,35.5539996 63.2631481,36.8971707 61.6102913,36.8971707" id="Fill-147" fill="#BDCFF2"></path>
                <path d="M51.731927,36.8971707 L50.7438062,36.8971707 C49.0909494,36.8971707 47.7495004,35.5539996 47.7495004,33.8990208 C47.7495004,32.2440421 49.0909494,30.9008709 50.7438062,30.9008709 L51.731927,30.9008709 C53.3847838,30.9008709 54.7262328,32.2440421 54.7262328,33.8990208 C54.7262328,35.5539996 53.3847838,36.8971707 51.731927,36.8971707" id="Fill-149" fill="#BDCFF2"></path>
                <path d="M41.8541616,36.8971707 L40.8660407,36.8971707 C39.2116868,36.8971707 37.871735,35.5539996 37.871735,33.8990208 C37.871735,32.2440421 39.2116868,30.9008709 40.8660407,30.9008709 L41.8541616,30.9008709 C43.5070184,30.9008709 44.8484673,32.2440421 44.8484673,33.8990208 C44.8484673,35.5539996 43.5070184,36.8971707 41.8541616,36.8971707" id="Fill-151" fill="#BDCFF2"></path>
                <line x1="54.7262328" y1="20.4646108" x2="75.2742066" y2="19.1152934" id="Path-2" stroke="#333333"></line>
            </g>
            <g id="Group-50" transform="translate(69.509919, 158.831038) rotate(26.000000) translate(-69.509919, -158.831038) translate(23.218388, 95.178658)">
                <path d="M46.2910925,0.377470418 C22.3754668,0.392551492 2.4479719,18.9103364 0.415306012,43.0063446 C2.31901122,42.5485897 4.26833518,42.3126152 6.2246774,42.303744 C14.0360097,42.303744 21.4192277,45.9107821 26.2741147,52.0975711 C31.1228606,45.9196533 38.4920421,42.3135023 46.2910925,42.303744 C54.1024248,42.303744 61.4856428,45.9107821 66.3405297,52.0975711 C71.1892757,45.9196533 78.5584571,42.3135023 86.3575075,42.303744 C88.314727,42.3143895 90.264051,42.5521382 92.1677562,43.0116674 C90.1385994,18.9129978 70.20935,0.392551492 46.2910925,0.377470418" id="Fill-1" fill="#FFFFFF"></path>
                <path d="M46.2910047,0.377381706 C55.401594,12.8955605 52.0012431,42.95569 52.0012431,42.95569 C57.6149802,44.2553237 62.6918199,47.4471887 66.340442,52.0974823 C71.189188,45.9186775 78.5583694,42.3134136 86.3574198,42.3027682 C88.3146393,42.3134136 90.2639632,42.5511623 92.1676685,43.0115787 C90.1385117,18.912022 70.2092623,0.391575658 46.2910047,0.377381706" id="Fill-3" fill="#BDCFF2"></path>
                <path d="M46.2910047,0.377381705 C22.375379,0.39246278 2.44788417,18.9102477 0.415218284,43.0062559 C2.31892349,42.548501 4.26824745,42.3125265 6.22458967,42.3036553 C14.035922,42.3036553 21.41914,45.9106934 26.2740269,52.0974823 C24.987052,8.33486619 46.2910047,0.377381705 46.2910047,0.377381705" id="Fill-5" fill="#FFFFFF"></path>
                <path d="M46.2925838,0.377381705 C70.2082095,0.39246278 90.1357044,18.9102477 92.1683703,43.0062559 C90.2646651,42.548501 88.3153411,42.3125265 86.3589989,42.3036553 C78.5476666,42.3036553 71.1644486,45.9106934 66.3095616,52.0974823 C67.5965365,8.33486619 46.2925838,0.377381705 46.2925838,0.377381705" id="Fill-7" fill="#BDCFF2"></path>
                <path d="M46.2910047,0.377381706 C46.2910047,0.377381706 20.0812827,4.99662604 17.5064556,44.9534888 C20.8752242,46.6266009 23.8816748,49.0475569 26.2740269,52.0965952 C24.987052,8.33397906 46.2910047,0.376494583 46.2910047,0.377381706" id="Fill-9" fill="#BDCFF2"></path>
                <path d="M46.2925838,0.377381705 C46.2925838,0.377381705 72.5023059,4.99662604 75.077133,44.9534888 C71.7083643,46.6266009 68.7019138,49.0475569 66.3095616,52.0965952 C67.5965365,8.33397906 46.2925838,0.376494583 46.2925838,0.377381705" id="Fill-11" fill="#FFFFFF"></path>
                <g id="Group-15" transform="translate(0.000000, 26.084049)">
                    <mask id="mask-2" fill="white">
                        <use xlink:href="#path-1"></use>
                    </mask>
                    <g id="Clip-14"></g>
                    <path d="M4.71101243,0 C2.18180408,5.14796906 0.554443177,10.8450666 0.0438641754,16.8899161 L0,17.4106567 L0.501806166,17.289121 C2.3774383,16.838463 4.29693462,16.6051499 6.22520377,16.5962787 C13.9224893,16.5962787 21.1978014,20.1509766 25.9825056,26.2481662 L26.274641,26.6198703 L26.5667765,26.2481662 C31.3444624,20.1598478 38.6048607,16.6069241 46.2907415,16.5962787 C53.988027,16.5962787 61.2642164,20.1509766 66.0489207,26.2481662 L66.3410561,26.6198703 L66.6331915,26.2481662 C71.4100002,20.1607349 78.6703985,16.6078113 86.355402,16.5962787 C88.2836712,16.6069241 90.2049221,16.8411243 92.0814315,17.2944437 L92.5832377,17.4159794 L92.5393735,16.8961259 C92.030549,10.8486151 90.4023109,5.1497433 87.8722252,0 L87.0186284,0 C89.5302911,5.01401363 91.1708112,10.5673975 91.7305181,16.4649846 C89.9645464,16.0773123 88.1669925,15.8519833 86.3589112,15.842225 C78.5931976,15.8519833 71.2626166,19.3924873 66.3428107,25.4479821 C61.4151092,19.3827289 54.0696144,15.842225 46.2924961,15.842225 C38.5267825,15.8519833 31.1953242,19.3924873 26.2763956,25.4479821 C21.3486941,19.3827289 14.0040766,15.842225 6.22608105,15.842225 C4.41887703,15.8502091 2.6222004,16.0746509 0.856228703,16.4614361 C1.41593558,10.5647361 3.05645574,5.01312651 5.56724114,0 L4.71101243,0 Z" id="Fill-13" fill="#333333" mask="url(#mask-2)"></path>
                </g>
                <path d="M46.4533022,0.0235974456 L46.1953808,0.731520814 C46.1953808,0.731520814 47.4700738,1.20435685 49.4158886,2.61133237 C51.3617034,4.01830788 53.9523216,6.34966454 56.509603,10.0427535 C61.6232886,17.4289314 66.609768,30.2682483 65.9675965,52.0870143 L66.7132875,52.1091924 C67.3589682,30.1653422 62.3373974,17.1441652 57.1210696,9.61072507 C54.5129058,5.84311787 51.8582459,3.44966267 49.8501439,1.99744393 C47.8411647,0.545225191 46.4533022,0.0235974456 46.4533022,0.0235974456" id="Fill-16" fill="#333333"></path>
                <path d="M46.1617809,0.0235974456 C46.1617809,0.0235974456 44.7739184,0.545225191 42.7649391,1.99744393 C40.7568372,3.44966267 38.1021773,5.84311787 35.4940134,9.61072507 C30.2776857,17.1441652 25.2561149,30.1653422 25.9017956,52.1091924 L26.6474865,52.0861272 C26.0061923,30.2682483 30.9917945,17.4289314 36.10548,10.0427535 C38.6627614,6.34966454 41.2533796,4.01830788 43.2000717,2.61133237 C45.1458866,1.20435685 46.4205795,0.730633692 46.4205795,0.730633692 L46.1617809,0.0235974456 Z" id="Fill-18" fill="#333333"></path>
                <polygon id="Fill-20" fill="#333333" points="0.711827838 42.7764026 0.11966147 43.2359318 46.2919697 104.083631 92.4634007 43.2359318 91.8721116 42.7764026 46.2919697 102.843434"></polygon>
                <polygon id="Fill-22" fill="#333333" points="26.6216067 51.95918 25.9267981 52.2359621 46.2911802 104.493659 66.6564395 52.2359621 65.9625083 51.95918 46.2911802 102.433761"></polygon>
                <polygon id="Fill-24" fill="#333333" points="45.9185979 103.463887 46.6651661 103.463887 46.6651661 42.3030343 45.9185979 42.3030343"></polygon>
                <path d="M46.2908293,0 C27.9766588,0.0115325862 11.9802713,10.7909522 4.45230153,26.6207574 L5.30326653,26.6207574 C12.7671946,11.2238677 28.3960003,0.768247666 46.2908293,0.754940835 L46.2943384,0.754940835 C64.1900447,0.767360544 79.8188504,11.2238677 87.2836557,26.6207574 L88.1311116,26.6207574 C80.6031418,10.7909522 64.6058771,0.0115325862 46.2908293,0" id="Fill-26" fill="#333333"></path>
                <path d="M34.7786764,115.891935 C32.0459383,119.492763 29.3500461,125.53229 30.8151096,126.668693 C32.2792957,127.805096 37.3508717,123.608122 40.0827325,120.008181 C42.8154707,116.407352 41.7934354,114.471652 40.7082357,113.629773 C39.6239133,112.788782 37.5105373,112.291106 34.7786764,115.891935" id="Fill-27" fill="#FFFFFF"></path>
                <path d="M62.4451278,115.892112 C65.1769886,119.49294 67.8737581,125.532467 66.4086947,126.66887 C64.9445085,127.805274 59.8729325,123.608299 57.1410717,120.008358 C54.4083336,116.40753 55.4303689,114.47183 56.5146913,113.629951 C57.599891,112.788959 59.7132669,112.291284 62.4451278,115.892112" id="Fill-28" fill="#FFFFFF"></path>
                <path d="M21.3953656,93.8189195 C17.8344719,91.0564215 13.6840436,85.9279691 14.8078438,84.4464754 C15.9316439,82.9658687 21.9050674,85.6919947 25.4650838,88.4553798 C29.0259776,91.2178777 28.5346988,93.3549546 27.7021568,94.4514375 C26.8696147,95.5479203 24.9562594,96.5814174 21.3953656,93.8189195" id="Fill-29" fill="#FFFFFF"></path>
                <path d="M75.8285263,93.8188307 C79.3894201,91.0563328 83.5398484,85.9278804 82.4160482,84.4463866 C81.292248,82.96578 75.3188246,85.691906 71.7579308,88.455291 C68.1979144,91.217789 68.6891931,93.3548659 69.5217352,94.4513487 C70.3534,95.5487187 72.2676326,96.5813287 75.8285263,93.8188307" id="Fill-30" fill="#FFFFFF"></path>
                <path d="M38.9854263,113.466543 C38.016028,113.466543 36.7158939,114.068012 35.1262562,116.162507 C33.7866443,117.926993 32.4470323,120.305367 31.6302814,122.3697 C30.6521103,124.83856 30.7240475,126.038836 31.0819792,126.316505 C31.4399109,126.594175 32.6040661,126.353765 34.7104238,124.759606 C36.4702545,123.427149 38.3958918,121.502981 39.7346264,119.737609 C42.354195,116.28493 41.3023321,114.649964 40.4417169,113.981961 C40.1030855,113.719373 39.6135613,113.466543 38.9854263,113.466543 M31.4486837,127.304759 C31.0916293,127.304759 30.7915984,127.209837 30.5477136,127.02088 C29.682712,126.349329 29.7721949,124.673555 30.815285,122.03969 C31.660109,119.906162 33.0453397,117.447059 34.4305704,115.62225 C37.6300233,111.405759 40.0741352,112.578534 40.9759826,113.278473 C41.87783,113.978412 43.6306425,116.061375 40.4303123,120.277866 C39.0459589,122.102676 37.0554026,124.092491 35.2367939,125.470191 C33.6234695,126.690871 32.3557949,127.304759 31.4486837,127.304759" id="Fill-31" fill="#333333"></path>
                <path d="M58.2385534,113.46672 C57.6095411,113.46672 57.1208942,113.71955 56.7813855,113.982138 C55.9216476,114.650141 54.8689074,116.285107 57.488476,119.737786 C60.3370155,123.491199 65.1085605,127.121303 66.1420005,126.316683 C67.1754404,125.514725 64.9453858,119.91521 62.0968462,116.161797 C60.5080858,114.068189 59.2070744,113.46672 58.2385534,113.46672 M65.781437,127.299614 C63.3732937,127.299614 58.8938841,123.046751 56.7927901,120.278043 C53.5933372,116.061552 55.3461496,113.97859 56.2479971,113.278651 C57.1507218,112.578711 59.5939564,111.405936 62.792532,115.62154 C65.1954116,118.787678 68.6457676,125.492546 66.6762661,127.021058 C66.4288722,127.212676 66.1262094,127.299614 65.781437,127.299614" id="Fill-32" fill="#333333"></path>
                <path d="M15.9640157,84.4706938 C15.5288831,84.4706938 15.2674526,84.5700515 15.1560376,84.7173137 C14.8814479,85.0792595 15.1191917,86.2573575 16.6956702,88.3864504 C18.01335,90.1660171 19.9161779,92.1123628 21.6619721,93.4669982 C23.1612496,94.6300151 24.4762976,95.1951118 25.5509699,95.1392232 C26.4747494,95.0948671 27.0414746,94.5936431 27.3537875,94.1820185 C27.6669777,93.7695068 27.9985909,93.0864228 27.8020794,92.1726871 C27.5722311,91.1019309 26.6967021,89.969076 25.1983019,88.8069462 C23.4525077,87.4523109 21.1005106,86.0976756 19.0599492,85.2708779 C17.6089223,84.6836031 16.6009235,84.4706938 15.9640157,84.4706938 M25.4132364,96.0298937 C24.1595982,96.0298937 22.7190987,95.4053598 21.1285837,94.1704859 C19.3231343,92.7706074 17.3553874,90.7577275 15.9938433,88.9178365 C14.3120909,86.6468041 13.7953709,85.0517587 14.4603518,84.1770564 C15.1235781,83.301467 16.7825212,83.3928405 19.3854214,84.4476286 C21.4961655,85.3019271 23.9271181,86.7026928 25.7316903,88.1034584 C27.3994062,89.3968823 28.3845956,90.702726 28.6600626,91.9837301 C28.9267568,93.2310237 28.4758331,94.1607276 28.0494733,94.7213887 C27.6248681,95.2829369 26.8528586,95.9642466 25.5930795,96.025458 C25.5334242,96.0290065 25.4737689,96.0298937 25.4132364,96.0298937" id="Fill-33" fill="#333333"></path>
                <path d="M81.2840015,84.4565886 C79.444338,84.4565886 75.1061711,86.4162411 72.0251514,88.8070349 C68.6116413,91.4559813 69.2090713,93.3109534 69.8696658,94.1821072 C70.1819788,94.5937318 70.7487039,95.0940686 71.6724834,95.1393119 C72.754174,95.1916521 74.0639583,94.6292167 75.5614812,93.4670869 C77.3072754,92.1124515 79.2101033,90.1661058 80.5277832,88.3865391 C82.1042616,86.2574462 82.3428827,85.0784611 82.068293,84.7165153 C81.9331913,84.5390909 81.6612334,84.4565886 81.2840015,84.4565886 M71.8102169,96.0299824 C71.7496844,96.0299824 71.6900291,96.0282081 71.6303738,96.0255468 C70.371472,95.9643353 69.5994625,95.2830256 69.17398,94.7214774 C68.4818033,93.809516 67.3220345,91.337994 71.4908857,88.10266 C74.6210333,85.6746071 81.2524193,82.1837819 82.7639788,84.176258 C83.4280824,85.0518474 82.9113624,86.6468928 81.22961,88.9179252 C79.8671887,90.7578162 77.9003191,92.7706961 76.0948696,94.1705746 C74.5043546,95.4054485 73.0638551,96.0299824 71.8102169,96.0299824" id="Fill-34" fill="#333333"></path>
                <path d="M48.6114196,70.3663409 C34.9784339,70.3663409 23.9272936,81.5414169 23.9272936,95.327293 C23.9272936,101.946998 26.5275619,108.29613 31.1569869,112.977473 C35.786412,117.658816 42.0651301,120.288245 48.6114196,120.288245 C55.1577091,120.288245 61.4364272,117.658816 66.0658523,112.977473 C70.6952773,108.29613 73.2955457,101.946998 73.2955457,95.327293 C73.2955457,81.5414169 62.2444053,70.3663409 48.6114196,70.3663409" id="Fill-35" fill="#BDCFF2"></path>
                <path d="M46.2859165,71.5710526 C40.6721793,71.5710526 35.2882904,73.8261167 31.3185826,77.8403438 C27.3488747,81.854571 25.11882,87.2988388 25.11882,92.9755326 C25.11882,98.6522263 27.3488747,104.096494 31.3185826,108.110721 C35.2882904,112.124948 40.6721793,114.380013 46.2859165,114.380013 C51.8996536,114.380013 57.2835425,112.124948 61.2532504,108.110721 C65.2229583,104.096494 67.4530129,98.6522263 67.4530129,92.9755326 C67.4530129,87.2988388 65.2229583,81.854571 61.2532504,77.8403438 C57.2835425,73.8261167 51.8996536,71.5710526 46.2859165,71.5710526" id="Fill-36" fill="#FFFFFF"></path>
                <path d="M48.6114196,69.9889592 C48.4535086,69.9889592 48.2973521,69.9916205 48.1403184,69.995169 L48.1403184,70.7492227 C48.2973521,70.7465614 48.4535086,70.7439 48.6114196,70.7439 C62.0426301,70.7439 72.9227002,81.7451001 72.9227002,95.3269382 C72.9227002,108.908776 62.0426301,119.910863 48.6114196,119.910863 C48.4535086,119.910863 48.2973521,119.908202 48.1403184,119.904654 L48.1403184,120.659594 C48.2973521,120.663143 48.4535086,120.665804 48.6114196,120.665804 C62.4461805,120.665804 73.6692684,109.316852 73.6692684,95.3269382 C73.6692684,81.337024 62.4461805,69.9889592 48.6114196,69.9889592" id="Fill-37" fill="#333333"></path>
                <path d="M48.6114196,69.9889592 C34.7766587,69.9889592 23.5544481,81.337024 23.5544481,95.3269382 C23.5544481,109.316852 34.7766587,120.665804 48.6114196,120.665804 C48.7693306,120.665804 48.9263644,120.662256 49.0833981,120.659594 L49.0833981,119.904654 C48.9263644,119.908202 48.7693306,119.910863 48.6114196,119.910863 C35.1802091,119.910863 24.3010163,108.908776 24.3010163,95.3269382 C24.3010163,81.7451001 35.1802091,70.7439 48.6114196,70.7439 C48.7693306,70.7439 48.9263644,70.7465614 49.0833981,70.7501098 L49.0833981,69.995169 C48.9263644,69.9916205 48.7693306,69.9889592 48.6114196,69.9889592" id="Fill-38" fill="#333333"></path>
                <path d="M48.6867783,61.9415205 C42.5800078,61.9477304 36.5013103,63.6554402 32.1166474,66.8446439 C31.3516562,67.4017565 30.8726594,68.2729103 30.8077404,69.2239051 C30.7893174,69.4953645 30.7796673,69.7677109 30.7796673,70.0400574 C30.7796673,73.0864344 31.9833003,76.1195046 34.0800079,78.296502 C36.1758382,80.4734994 39.148952,81.7598263 42.147507,81.7598263 L42.1527707,81.7598263 C44.4995041,81.7562778 46.7821958,80.8957695 48.6885328,79.5091978 C50.5957472,80.8966566 52.8810707,81.757165 55.2286814,81.7598263 L55.2321905,81.7598263 C58.2307455,81.7598263 61.2029821,80.4734994 63.2996896,78.296502 C65.3955199,76.1195046 66.5991529,73.0864344 66.5991529,70.0400574 C66.5991529,70.0249763 66.5991529,70.0098952 66.5991529,69.9948142 C66.5956438,69.7189192 66.5824845,69.4447985 66.5596752,69.1706778 C66.4824742,68.2365383 66.005232,67.3840141 65.2525227,66.8375469 C60.868737,63.6527789 54.7953033,61.9468432 48.6937965,61.9406334 C48.692042,61.9406334 48.6894101,61.9406334 48.6867783,61.9415205" id="Fill-39" fill="#BDCFF2"></path>
                <path d="M48.6896733,64.7387049 C43.072427,64.7440277 37.7218749,66.3071367 33.9653469,69.0394725 C33.9521877,69.2390749 33.9451694,69.4377903 33.9451694,69.6373927 C33.9451694,74.3426879 37.6174782,78.1573125 42.1468929,78.1573125 C44.7199654,78.1528769 47.1412679,76.895825 48.6879187,74.7614095 C50.2354468,76.8967122 52.6585039,78.1537641 55.2315764,78.1573125 C59.7618684,78.1573125 63.4341772,74.3426879 63.4341772,69.6373927 C63.4315454,69.436016 63.4218952,69.2355264 63.4052268,69.0341497 C59.6486989,66.3053624 54.3025332,64.7449148 48.6896733,64.7387049" id="Fill-40" fill="#FFFFFF"></path>
                <path d="M30.5060426,71.5821416 C30.838533,74.1867318 32.0000564,76.6777704 33.8125241,78.5593562 C35.9802917,80.8108719 39.0437657,82.1371193 42.1475947,82.1371193 L42.1537357,82.1371193 C44.5031009,82.1335708 46.7700015,81.2908049 48.6886206,79.9512507 C50.6089942,81.291692 52.876772,82.134458 55.2287691,82.1371193 L55.2322782,82.1371193 C58.3361073,82.1371193 61.3995813,80.8108719 63.5673488,78.5593562 C65.3789393,76.6777704 66.5404626,74.1867318 66.8729531,71.5821416 L66.1184893,71.5821416 C65.7886307,73.9897907 64.7025537,76.296308 63.0322059,78.0306315 C61.0083128,80.1331107 58.124682,81.3795171 55.2322782,81.3795171 L55.2278918,81.3795171 C52.9706414,81.3759686 50.7581323,80.5465096 48.9061869,79.1998583 L48.6877433,79.0410635 L48.470177,79.1998583 C46.6191088,80.5465096 44.4083543,81.3759686 42.1511039,81.3795171 L42.1467174,81.3795171 C39.2543137,81.3795171 36.3715601,80.1331107 34.3467898,78.0306315 C32.676442,76.296308 31.5894877,73.9897907 31.2596291,71.5821416 L30.5060426,71.5821416 Z" id="Fill-41" fill="#333333"></path>
                <path d="M33.7780469,71.5821416 C34.6342756,75.554674 38.054804,78.5345168 42.1473315,78.5345168 C44.6914537,78.5309683 47.0671374,77.3235953 48.6874801,75.3124897 C50.3078227,77.3244824 52.6843837,78.5318555 55.2302605,78.5345168 C59.322788,78.5345168 62.7433164,75.554674 63.5986679,71.5821416 L62.8345539,71.5821416 C61.9976255,75.1457107 58.9113421,77.779576 55.2311378,77.779576 C52.7782531,77.7760275 50.4674883,76.5792999 48.9883883,74.5380321 L48.6874801,74.122859 L48.3865718,74.5380321 C46.9083491,76.5784128 44.5984617,77.7760275 42.1464543,77.779576 C38.4671272,77.779576 35.3808438,75.1457107 34.5430381,71.5821416 L33.7780469,71.5821416 Z" id="Fill-42" fill="#333333"></path>
                <path d="M48.6883574,64.358928 L48.6883574,64.3624765 C43.0035602,64.3686863 37.5854573,65.9433279 33.747342,68.7351009 L33.605222,68.8380071 L33.5938173,69.0145443 C33.5797808,69.2221309 33.5718853,69.4314917 33.5718853,69.6390782 C33.5718853,70.4995866 33.6903185,71.3325942 33.9105167,72.1203585 L34.6877899,72.1203585 C34.4474142,71.3379169 34.3175762,70.5049093 34.3175762,69.6390782 C34.3175762,69.5131069 34.3245945,69.3871356 34.3298582,69.2602771 C37.9986578,66.6468157 43.20709,65.1227401 48.6883574,65.1174173 C54.1661156,65.1236272 59.3727932,66.6459286 63.0407156,69.2567286 C63.0486111,69.3844742 63.0573839,69.5122198 63.0591385,69.6408525 C63.0591385,70.5057964 62.9293005,71.338804 62.6898021,72.1203585 L63.4661981,72.1203585 C63.6863962,71.3325942 63.8048295,70.4995866 63.8048295,69.6390782 L63.8048295,69.6355297 L63.8048295,69.6310941 C63.8004431,69.4208462 63.7925475,69.2105983 63.7750018,69.0012375 L63.7609653,68.8273616 L63.6205999,68.7262297 C59.7833619,65.9380052 54.3687681,64.366025 48.6883574,64.358928" id="Fill-43" fill="#333333"></path>
                <path d="M48.5533434,61.5635178 L48.5401842,61.5741633 C42.4149907,61.6078739 36.329275,63.3155838 31.8989933,66.5384981 C31.0445192,67.1603706 30.5076217,68.1353177 30.4356844,69.1980899 C30.4155069,69.4784204 30.4067341,69.7596381 30.4067341,70.0399687 C30.4067341,70.7372466 30.4681439,71.4327502 30.5865772,72.1184956 L31.3463047,72.1184956 C31.2190986,71.4327502 31.1533024,70.7354723 31.1533024,70.0373073 C31.1533024,69.7738321 31.1620752,69.5094697 31.1796209,69.2468816 C31.2366443,68.4076642 31.6594949,67.6394165 32.3350032,67.1479509 C36.6380788,64.0172973 42.6492254,62.3220071 48.6875678,62.3157973 L48.6875678,62.3202329 L48.7033589,62.3202329 C54.7329285,62.328217 60.7353022,64.0208458 65.0348687,67.1452895 C65.6989723,67.6278839 66.1191911,68.3783891 66.1876192,69.2025255 C66.2095513,69.467775 66.2218333,69.7339116 66.2253424,70.0009353 L66.2253424,70.0381944 C66.2253424,70.7363595 66.1586689,71.4336374 66.03234,72.1193827 L66.7929448,72.1193827 C66.9105008,71.4345245 66.9719107,70.7399079 66.9719107,70.0435172 L66.9719107,70.0390816 L66.9719107,69.9902898 C66.9675243,69.7064108 66.9552423,69.4225318 66.9324329,69.1395398 C66.8455818,68.0962843 66.3113162,67.1435153 65.4708786,66.5322882 C61.0055055,63.288083 54.8636437,61.5706148 48.6937088,61.5644049 L48.5533434,61.5635178 Z" id="Fill-44" fill="#333333"></path>
                <path d="M45.1350083,89.2495314 L44.2577247,89.2495314 C44.2577247,87.9614302 43.5725663,86.7611541 42.4689437,86.1171035 C41.365321,85.4721658 39.9950042,85.4721658 38.8913815,86.1171035 C37.7877589,86.7611541 37.1026005,87.9614302 37.1026005,89.2495314 L36.225317,89.2495314 C36.225317,87.6456148 37.0789138,86.1508142 38.4527398,85.3479688 C39.8265658,84.5460105 41.5337595,84.5460105 42.9075854,85.3479688 C44.2814114,86.1508142 45.1350083,87.6456148 45.1350083,89.2495314" id="Fill-45" fill="#333333"></path>
                <path d="M60.9984873,89.2495314 L60.1212038,89.2495314 C60.1212038,87.9614302 59.4360453,86.7611541 58.3324227,86.1171035 C57.2296773,85.4721658 55.8584832,85.4721658 54.7548606,86.1171035 C53.6521152,86.7611541 52.9669568,87.9614302 52.9669568,89.2495314 L52.0896733,89.2495314 C52.0896733,87.6456148 52.9423928,86.1508142 54.3162188,85.3479688 C55.6909221,84.5460105 57.3972385,84.5460105 58.7710644,85.3479688 C60.1448904,86.1508142 60.9984873,87.6456148 60.9984873,89.2495314" id="Fill-46" fill="#333333"></path>
                <path d="M39.9729844,94.5548759 C38.9746357,94.5548759 38.171044,95.3674796 38.171044,96.3770245 L38.171044,98.4324862 C38.171044,104.263539 42.8460879,108.991012 48.6124723,108.991012 C54.3788568,108.991012 59.0530234,104.263539 59.0530234,98.4324862 L59.0530234,96.3770245 C59.0530234,95.3674796 58.2494317,94.5548759 57.251083,94.5548759 L39.9729844,94.5548759 Z" id="Fill-47" fill="#FFFFFF"></path>
                <path d="M48.3466554,94.1774942 L48.3466554,94.932435 L57.251083,94.932435 C58.0485338,94.932435 58.6793006,95.5702757 58.6793006,96.3766697 L58.6793006,98.4330185 C58.6793006,104.060033 54.1770816,108.612744 48.6124723,108.612744 C48.5238667,108.612744 48.4352611,108.612744 48.3466554,108.609195 L48.3466554,109.364136 C48.4352611,109.367684 48.5238667,109.367684 48.6124723,109.367684 C54.580632,109.367684 59.4258689,104.46811 59.4258689,98.4330185 L59.4258689,96.3766697 C59.4258689,95.164861 58.4494523,94.1774942 57.251083,94.1774942 L48.3466554,94.1774942 Z" id="Fill-48" fill="#333333"></path>
                <path d="M39.9730721,94.1773168 C38.7747028,94.1773168 37.7982863,95.1646836 37.7982863,96.3764922 L37.7982863,98.4328411 C37.7982863,104.467932 42.6444004,109.367507 48.6125601,109.367507 C48.7011657,109.367507 48.7888941,109.367507 48.8774997,109.363959 L48.8774997,108.609018 C48.7888941,108.613453 48.7011657,108.613453 48.6125601,108.613453 C43.0479508,108.613453 38.5448545,104.059856 38.5448545,98.4328411 L38.5448545,96.3764922 C38.5448545,95.5700983 39.1756214,94.9322576 39.9730721,94.9322576 L48.8774997,94.9322576 L48.8774997,94.1773168 L39.9730721,94.1773168 Z" id="Fill-49" fill="#333333"></path>
            </g>
        </g>
    </g>
</svg>