<?xml version="1.0" encoding="UTF-8"?>
<svg width="1013px" height="66px" viewBox="0 0 1013 66" version="1.1" xmlns="http://www.w3.org/2000/svg" xmlns:xlink="http://www.w3.org/1999/xlink">
    <title>Fill 393</title>
    <defs>
        <rect id="path-1" x="0" y="0" width="1013" height="66"></rect>
    </defs>
    <g id="Page-1" stroke="none" stroke-width="1" fill="none" fill-rule="evenodd">
        <g id="Fill-393">
            <mask id="mask-2" fill="white">
                <use xlink:href="#path-1"></use>
            </mask>
            <g id="Mask"></g>
            <path d="M1030.4354,29.9714611 C1031.1374,30.1354371 1031.681,29.8687508 1032.2336,29.3876344 C1032.428,30.3336498 1032.58622,31.1048776 1032.7808,32.0599027 C1031.6504,31.6508637 1031.1032,30.7913411 1030.4354,29.9714611 Z M836.3198,30.1282293 C837.0362,30.0597558 837.6644,30.0147075 838.1666,29.3299725 C838.37,30.3823021 838.5158,31.1481241 838.6886,32.0418834 C837.5546,31.7553759 837.23042,30.6616018 836.3198,30.1282293 Z M772.7384,29.4885427 C772.7204,29.2993396 772.6862,29.1119385 772.688,28.9245373 C772.7096,27.5640771 772.7078,27.5550674 771.4406,28.113667 C771.176,28.2289908 770.924,28.331701 770.6738,28.1713289 C770.3174,27.9424832 770.3804,27.6307486 770.5604,27.3118063 C770.6558,27.1388206 770.753,26.9586272 770.8034,26.7694241 C770.9546,26.2054187 770.4758,25.3062536 771.5954,25.2594033 C772.62662,25.2161569 773.678,25.2179588 774.308,26.2432594 C774.4124,26.4126412 774.4772,26.6036462 774.551,26.7892454 C775.2296,28.5173002 774.776,29.2110449 772.7384,29.4885427 Z M709.931,34.2006005 C709.8482,34.7447846 710.1722,35.497993 709.4072,35.7358484 C708.6296,35.9773075 707.9582,35.7052155 707.5622,34.8348813 C708.20822,34.0942864 709.4144,34.1014941 709.9886,33.256387 C709.9724,33.5717255 709.9778,33.8906678 709.931,34.2006005 Z M690.7916,34.4276442 C690.3002,34.3051127 690.131,34.7826252 689.888,35.0943598 C688.9232,36.3358924 687.4652,36.9809848 686.225,37.8909616 C685.9694,38.0801647 685.586,38.2333291 685.2872,37.9558312 C684.9776,37.6657198 685.1558,37.3125407 685.37,37.0674777 C686.6876,35.5484472 687.9818,34.0059916 689.375,32.5554346 C690.1778,31.7175352 691.3046,32.1121588 692.3036,32.1806323 C692.66,32.2058594 692.6528,32.297758 693.0488,33.831204 C692.1938,33.7032667 691.7312,34.6618956 690.7916,34.4276442 Z M644.5298,35.7592735 C644.4038,36.4187814 643.7342,36.3557137 643.1438,36.4422065 C642.8666,36.3989601 642.512,36.3989601 642.2024,36.2836363 C641.549,36.0439791 641.1962,35.5232201 641.4032,34.8799296 C641.5922,34.2888952 642.1898,34.5123351 642.638,34.5826105 C642.971,34.6330647 643.3022,34.7375768 643.6082,34.87092 C644.0258,35.0529153 644.6414,35.1736449 644.5298,35.7592735 Z M422.912,28.1262805 C422.4512,29.1461752 421.9526,30.1480506 421.3046,31.5013032 C420.923,30.5642974 420.6656,30.0309249 420.4874,29.4723253 C420.1994,28.578566 420.374,27.756884 421.0868,27.0973761 C421.4612,26.7532067 421.8104,26.1351433 422.4404,26.5423804 C422.9894,26.8973615 423.2,27.4919997 422.912,28.1262805 Z M416.0288,33.1248458 C415.6472,31.040008 416.0108,29.1605907 416.7434,27.2325212 C418.4786,28.906518 418.2086,31.0616312 416.0288,33.1248458 Z M186.5846,26.8054628 C185.8088,26.7550087 185.0402,26.7369893 185.0528,25.816201 C185.0672,24.8990165 185.8286,24.8719875 186.527,24.8773933 C187.2074,24.884601 188.0174,24.8647798 187.985,25.8017855 C187.9562,26.6522984 187.2056,26.7550087 186.5846,26.8054628 Z M183.8648,24.859374 C183.7568,25.4846451 183.2024,25.4035581 182.7164,25.40536 C181.055,25.4107658 179.4548,25.8594474 177.8222,26.0828872 C176.861,26.2144284 175.961,26.5387766 175.2572,27.2559463 C175.025,27.4938016 174.7298,27.6830047 174.44,27.8559904 C173.9756,28.1352902 173.5202,28.196556 173.2376,27.6181351 C172.982,27.0937723 173.1476,26.6937429 173.7218,26.5243611 C174.35,26.3387619 175.043,26.2955155 175.4876,25.7495294 C174.9854,24.9764997 174.197,25.762143 173.7452,25.2359782 C174.3824,23.0682514 175.1582,22.5637099 177.2102,23.1817733 C178.625,23.6088317 180.0596,23.545764 181.4942,23.5890104 C181.973,23.6016239 182.4644,23.5115272 182.9108,23.7187497 C183.4058,23.9493972 183.98,24.1908564 183.8648,24.859374 Z M182.8982,27.9695123 C181.6292,28.2596237 180.353,28.5281118 179.0678,28.7497497 C178.0976,28.9173296 177.2174,29.1930255 176.627,30.0165094 C176.0114,29.8993837 175.5938,29.6381033 175.8044,28.9317451 C175.9952,28.2884546 176.1392,27.4901978 176.9996,27.5082171 C178.9166,27.5478597 180.5726,26.6595061 182.3618,26.2594768 C182.909,26.1369453 183.5192,25.9765731 183.7622,26.6541003 C184.0196,27.3694682 183.5894,27.812744 182.8982,27.9695123 Z M180.7652,30.1228235 C179.6222,30.4814084 178.3928,30.3372537 177.2534,30.7877372 C176.7278,30.9967616 176.7188,30.4003214 176.6342,30.0381326 C178.0508,30.1732777 179.2046,29.2921319 180.533,29.0885134 C180.9056,29.0326534 181.4204,28.7677691 181.523,29.3515957 C181.5986,29.7858619 181.2008,29.9876785 180.7652,30.1228235 Z M175.6406,31.9770138 C175.5596,32.2653232 175.2554,32.3139754 174.9926,32.3770431 C174.8594,32.407676 174.6686,32.490565 174.5984,32.436507 C173.2916,31.4328297 171.794,32.3337967 170.4242,32.0292699 C170.75,31.4274239 170.66,30.3354518 171.983,30.9967616 C172.3934,31.2021821 173.045,30.931892 173.5868,30.9156746 C174.1268,30.8994572 174.6938,30.8183701 175.1618,31.1805589 C175.421,31.3805736 175.754,31.5841921 175.6406,31.9770138 Z M168.4028,34.8276736 C167.7314,33.9032813 168.8942,33.0491646 168.0536,32.3031638 C168.9518,32.0959414 169.7312,32.544623 170.3936,32.052695 C169.8284,32.9987104 169.3118,33.9807645 168.4028,34.8276736 Z M167.321,28.8290348 C166.9682,27.8325653 165.7352,27.8469807 164.3816,28.1497057 C166.0214,26.22524 167.3048,26.1225298 168.644,27.4865939 C169.0652,27.9154542 169.5512,28.2884546 169.9616,28.7281265 C170.2298,29.0128321 170.048,29.3515957 169.913,29.6543207 C169.7834,29.946234 169.544,30.0327268 169.2506,29.9174031 C168.5702,29.645311 167.7152,29.9444321 167.321,28.8290348 Z M158.933,30.1985048 C160.0112,28.7353343 161.2532,28.742542 162.5096,28.8578658 C161.5664,29.7065768 160.4594,30.0056978 158.933,30.1985048 Z M154.3916,31.998637 C153.6266,31.9950331 154.4042,33.0203336 153.4106,33.3771166 C153.4484,32.4184876 152.9498,32.0977433 152.0264,31.8184436 C150.707,31.4166122 149.2202,31.0742448 148.403,29.7444174 C148.1528,29.3335764 147.7568,29.3119532 147.3194,29.4633157 C147.0008,29.5750356 146.6084,29.7209922 146.4842,29.2542913 C146.3816,28.8686774 146.7362,28.6164066 147.0296,28.5010828 C149.5964,27.4938016 151.922,25.8720609 154.9496,26.0864911 C156.7586,26.2144284 158.6054,25.8720609 160.5494,25.9963944 C160.4288,26.7838396 159.7808,27.0703471 159.2084,27.3514489 C158.537,27.6794009 157.8044,27.8866233 157.1114,28.1767347 C156.5354,28.4181939 155.8874,28.7227207 155.882,29.3930402 C155.8766,30.1138139 156.7154,29.9210069 157.1402,30.1967028 C157.2392,30.2633744 157.2986,30.3877079 157.4192,30.5408723 C156.3338,30.8904475 155.711,32.0022408 154.3916,31.998637 Z M134.57666,21.657337 C135.27596,23.4484595 134.69006,24.6773786 132.87026,25.2503937 C133.87088,24.2449144 134.48486,23.0682514 134.57666,21.657337 Z M1044.155,35.5178143 C1043.2496,35.3736596 1042.7438,34.6312627 1043.2712,33.9897742 C1043.813,33.3320682 1043.5502,33.0581742 1043.0966,32.708599 C1042.2956,32.0923375 1041.4676,31.506709 1040.85902,30.8291817 C1040.1608,30.8291817 1040.204,31.4039987 1039.8908,31.6328443 C1039.502,31.9175499 1039.1078,31.8977287 1038.79622,31.533738 C1038.5066,31.1949743 1038.728,30.9535152 1039.0088,30.7066502 C1039.3634,30.3931137 1039.6406,29.9966882 1040.0024,29.6975671 C1040.7332,29.097523 1040.996,28.387561 1040.4848,27.5802945 C1040.2238,27.1658496 1039.0988,27.6091254 1038.4328,28.3929668 C1038.13742,28.7407401 1038.0008,29.3497938 1037.3762,29.126354 C1036.42742,28.7893923 1035.6338,29.124552 1034.804,29.481335 C1034.219,29.7336058 1033.85,29.6308955 1033.56902,28.9227354 C1033.1714,27.9190581 1032.473,27.0361104 1032.03902,25.9621576 C1031.7962,27.0000717 1031.3516,27.8217537 1030.6874,28.3497204 C1029.8162,28.2001598 1029.9926,26.8739363 1029.2816,27.2469367 C1028.4878,27.6631835 1028.1836,27.6848067 1027.7966,26.9171827 C1027.6742,26.6757236 1027.3232,26.7514048 1027.0658,26.9189847 C1026.3296,27.4037049 1025.4368,28.1587153 1025.93522,26.3441677 C1026.0272,26.0108099 1025.8094,25.8810706 1025.5088,25.7945778 C1024.5566,25.5242876 1024.0634,25.7711526 1023.7844,26.773028 C1023.6116,27.3874875 1023.491,28.0812322 1022.6216,27.7136376 C1021.95902,27.4325359 1021.4048,27.1027819 1020.746,27.6775989 C1020.2528,28.1100631 1019.5184,28.2812469 1019.3978,29.0885134 C1019.2664,29.9786688 1018.6562,29.8957798 1018.00622,29.6092723 C1017.4412,29.3588035 1016.8922,29.0867114 1016.44022,28.6542472 C1016.3756,28.5929815 1016.2046,28.6362279 1016.05682,28.6290202 C1015.895,29.0110302 1016.2838,29.6236878 1015.40522,29.8417218 C1015.2974,28.8704793 1014.5486,28.1352902 1014.2786,27.2487386 C1013.7584,25.5441089 1012.034,25.02335 1011.026,23.8214599 C1010.94122,23.7205516 1010.5868,23.707938 1010.4518,23.792629 C1009.71182,24.2593299 1008.74,24.0268804 1007.95682,24.4683542 C1008.2576,25.1566931 1008.7796,25.3080556 1009.32122,25.4341909 C1009.7768,25.5405051 1010.0396,25.816201 1010.0684,26.2720903 C1010.1224,27.0955742 1008.047,28.6848801 1007.48,28.1785366 C1006.4828,27.2847773 1005.806,27.7983285 1004.9474,28.2542179 C1004.4812,28.5010828 1003.7882,28.7587594 1003.3706,28.5965853 C1002.1934,28.140696 1001.4662,28.8380445 1000.5662,29.5335911 C1000.4132,28.6668608 999.6968,28.3353049 999.4862,27.7046279 C999.3044,27.15684 999.1712,26.6432887 998.4134,26.7982551 C997.5584,26.9712408 997.89122,27.5802945 997.9346,28.0812322 C997.95242,28.2902565 997.9112,28.4704499 997.5746,28.497479 C996.8006,28.3244933 996.2066,27.729855 995.5082,27.3136082 C995.02022,27.0216949 994.475,27.0054775 994.3292,27.5748887 C994.1384,28.3262952 993.8036,28.3028701 993.161,28.1497057 C992.306,27.947889 991.4708,27.9965413 991.3088,29.1335617 C991.244,29.5822433 991.2908,30.1786835 990.587,30.1210216 C989.96402,30.0687655 989.6006,29.6633303 989.6402,29.0200399 C989.678,28.3839571 989.4908,27.9857297 988.7312,28.003749 C988.4288,28.0127587 988.1768,27.7604879 988.1822,27.4919997 C988.2038,26.3171387 987.35402,25.5729399 986.8052,24.666567 C986.06522,23.4484595 986.2958,23.0087876 987.77,22.4447822 C987.734,21.9816852 987.32522,21.7636511 987.023,21.5456171 C986.4434,21.1275684 986.726,19.8049487 985.73402,20.0626253 C984.8918,20.2824613 985.2266,21.3329889 985.0988,22.0267335 C984.6434,24.4791659 983.9108,25.2431859 981.7688,25.4486064 C981.6446,25.6450172 981.6824,25.816201 981.8228,25.9945925 C982.541,26.9189847 981.6212,27.2703618 981.12962,27.7082318 C980.471,28.2956623 980.0192,27.8343672 979.625,27.3045986 C979.4648,27.0883665 979.2812,26.8883518 979.1102,26.6793274 C978.5522,26.0018002 978.365,25.3729252 979.3784,24.9260455 C980.1974,24.5656587 980.4998,23.7890251 980.9156,23.1151017 C981.0506,22.8970677 981.0272,22.5637099 980.7284,22.4159513 C980.4512,22.2790043 980.1794,22.3907242 980.0192,22.6303814 C979.8734,22.8520193 979.8068,23.1241114 979.6772,23.3565609 C979.3568,23.9295759 978.9122,23.8538947 978.4838,23.5061214 C977.7566,22.916889 977.6108,21.2987521 976.025,22.2177385 C975.9944,22.2357579 975.7172,21.9654677 975.6506,21.794284 C975.4832,21.3600179 975.3572,20.9077324 975.2384,20.4572489 C974.603,18.0768939 974.41742,17.9976088 972.3854,19.2805859 C972.3278,19.3166246 972.2738,19.3580691 972.2144,19.3905039 C971.651,19.6932288 971.2694,19.9292822 970.71122,19.1526486 C969.9302,18.0660823 968.6396,18.183208 967.80242,19.3094168 C967.4426,19.7923352 966.9242,19.932886 966.4886,20.2284032 C965.9018,20.6284326 965.414,20.3329154 965.4716,19.6661998 C965.5274,19.00489 965.9558,18.4048459 965.8496,17.7111013 C965.819,17.5092846 965.7128,17.3236854 965.48402,17.2912506 C965.2574,17.2570139 965.0468,17.3993667 965.0162,17.5849659 C964.8362,18.6427012 964.4186,19.6139437 963.9506,20.5761765 C963.758,20.972602 963.92522,21.3780372 964.2206,21.686168 C964.9568,22.4483861 964.6994,22.9385122 963.839,23.3853918 C963.3008,23.6664936 962.8688,24.1386003 962.3306,24.419702 C961.0796,25.0738041 960.8546,24.9855093 959.9636,23.9025469 C959.537,23.3835899 959.015,22.9403141 958.58462,22.4249609 C958.1006,21.8447382 957.5948,21.8159072 956.9612,22.1835018 C956.4212,22.4970383 955.9874,22.8213865 955.7066,23.4322421 C955.1612,24.612509 954.2612,24.9728958 953.0732,24.7062096 C952.41242,24.558451 952.0922,24.1836487 952.274,23.5565756 C952.5278,22.6844395 952.8626,21.8357285 953.16122,20.9798098 C953.9894,21.2266748 953.5034,22.2754004 954.4124,22.5366809 C954.281,21.8050956 954.1604,21.1491916 954.3278,20.4932876 C954.4286,20.0968621 954.4988,19.6391708 954.047,19.4247406 C953.129,18.9886726 953.363,18.2210486 953.3666,17.5056808 C953.372,16.4389358 953.3756,15.3721908 953.3774,14.3036438 C953.37902,13.9000106 953.3468,13.5017831 953.1272,13.1431983 C953.0156,12.9648068 952.841,12.8044346 952.6358,12.8783139 C952.47182,12.9377778 952.2578,13.1197731 952.2416,13.2639278 C952.2074,13.588276 952.3082,13.9216338 952.3118,14.2513877 C952.3406,16.7128298 952.3784,19.1742718 952.0022,21.6176945 C951.95,21.9510523 951.8618,22.3510816 951.42962,22.3042314 C950.9744,22.2555791 951.0194,21.8429362 951.0806,21.5149842 C951.2138,20.8140318 951.32,20.1743452 950.2796,20.044606 C949.5488,19.9527073 949.8422,19.4013155 949.8134,18.9526339 C949.7738,18.3039376 950.519,17.5056808 949.8926,17.0876321 C948.92402,16.4407377 949.4588,15.7920414 949.6208,15.1505529 C949.988,13.6909862 951.0464,12.5737871 951.77,11.2872061 C951.8708,11.1052108 951.84902,10.9033941 951.716,10.7610413 C951.4424,10.5556208 951.176,10.6385098 950.9096,10.6979736 C950.59622,10.7664471 950.2868,11.0313315 949.9628,10.7268046 C949.6658,10.2312727 950.2724,9.65285185 949.835,9.19696251 C949.322,8.65998614 948.8162,9.4077888 948.2924,9.25642634 C947.9234,9.15011222 947.5112,8.77711186 947.1962,9.25642634 C946.8938,9.71591954 947.32022,11.2385539 945.9524,9.96458645 C945.8426,9.86367814 945.569,10.085316 945.5258,10.2889346 C945.3494,11.125032 944.8346,11.9377043 945.23402,12.822454 C945.6194,13.669363 945.8264,14.4550063 944.9984,15.1974032 C944.7122,15.4550797 944.8652,15.8190704 945.0146,16.1344089 C945.272,16.6803949 945.56,17.2173713 945.7634,17.7831786 C946.136,18.8264985 945.8156,20.208582 945.1406,20.6933022 C943.8788,21.5978732 943.553,22.587135 944.4602,23.7403729 C944.9426,24.3566343 944.8238,24.7314366 944.669,25.3350846 C944.4872,26.0450466 944.0264,26.6667139 944.0246,27.4325359 C944.0228,27.8776136 943.715,28.1695269 943.256,28.2434062 C942.76622,28.3244933 942.446,28.0433916 942.2948,27.6523719 C942.0104,26.9081731 941.41622,26.472105 940.7738,26.0738776 C940.484,25.8954861 940.1618,25.6972733 939.8486,26.0108099 C939.5696,26.2919116 939.6632,26.6342791 939.791,26.9478156 C940.06622,27.6289467 940.6748,28.1569134 940.754,28.9281412 C940.8206,29.5732336 940.6928,30.1732777 940.01402,30.4273504 C939.3608,30.6742154 939.2384,30.0705675 939.0026,29.6867555 C938.612,29.0488708 938.1962,28.5173002 937.4312,29.2993396 C936.9902,29.7516251 936.443,29.5714317 935.8958,29.5966588 C934.5458,29.6615284 933.2462,29.3191609 931.9394,29.1191462 C931.889,29.3966441 931.84022,29.5263833 931.844,29.6543207 C931.89242,31.2472304 931.8008,31.3337233 930.38402,30.6994425 C929.9198,30.4904181 929.5616,30.2273357 929.1116,30.6958386 C928.7606,31.0616312 928.42022,30.9138726 928.0262,30.6597999 C927.0758,30.0471423 927.0164,30.8417953 926.903,31.4184142 C926.804,31.9193519 927.1964,32.2689271 927.4124,32.6833719 C927.9038,33.6275854 927.5978,34.213214 926.5772,34.078069 C925.1876,33.8924697 923.6396,34.4078229 922.41902,33.2924257 C922.25522,33.1446671 921.9062,33.1644884 921.6398,33.1482709 C919.2062,33.009522 918.6536,32.544623 917.9912,30.2165241 C917.8274,29.6344994 917.939,28.9011122 917.3234,28.4560345 C916.8482,28.85246 916.8392,29.288528 916.976,29.645311 C917.55902,31.176955 917.1578,32.434705 916.085,33.640199 C915.3434,34.4744945 914.816,34.5033254 914.31902,33.4672133 C914.1194,33.0509665 914.069,32.5698501 913.9448,32.1193666 C913.7126,31.2688536 913.3652,30.4742007 912.7082,29.8417218 C912.5102,29.6507168 912.27962,29.4921466 911.9774,29.5714317 C911.6624,29.6543207 911.5706,29.8957798 911.5706,30.1822874 C911.5688,30.3823021 911.5688,30.5841187 911.5778,30.7823314 C911.6264,31.6760908 911.5022,32.3337967 910.3232,31.7427623 C909.9524,31.5571631 909.4682,31.4454432 909.2198,31.8743035 C908.9408,32.353618 909.1334,32.7590532 909.6824,33.0041162 C910.1522,33.2131406 910.235,33.6167738 909.9578,33.9969819 C909.5726,34.5249486 909.52022,35.279959 908.5484,35.7574716 C908.291,34.213214 907.1138,34.0077935 905.8034,34.0023877 C905.3138,34.0005858 904.8512,33.8474214 904.475,33.5194694 C903.6362,32.7878841 904.0538,34.4438616 903.40742,34.0456341 C902.8118,33.6798415 901.9172,33.6726338 901.856,32.6689565 C901.8218,32.1409898 901.9118,31.4670664 901.2548,31.1265009 C900.6176,31.5697766 901.24742,32.7067971 900.25022,32.7302222 C899.4728,32.7482416 898.60682,33.2509812 897.8996,32.5392172 C897.2048,31.8364629 896.8916,32.9860969 896.2814,32.8293286 C896.1032,32.3049658 896.4434,31.6040134 895.6784,31.1373125 C894.4724,32.8509518 893.468,31.2616459 892.3934,30.8472011 C891.641,31.9842215 892.181,32.7194106 892.973,33.3464837 C893.3402,33.6365951 893.8082,33.8077788 894.2312,34.0330206 C894.6272,34.2456488 894.872,34.5447699 894.7514,35.006065 C894.6308,35.472766 894.1934,35.582684 893.8028,35.6781865 C893.29682,35.8025199 892.7498,35.6169207 892.4924,35.2547319 C891.7346,34.186185 890.33402,34.1681657 889.4144,33.3338702 C888.73022,32.7122029 888.03902,33.036551 888.0896,33.9591413 C888.15242,35.1033695 887.62682,35.6944039 886.6964,36.1611048 C886.4606,36.2782305 886.2284,36.4800471 886.0988,36.6998831 C885.4814,37.7468068 884.6408,38.0297105 883.63622,37.4026374 C883.0676,37.8819519 883.7264,38.563083 883.0496,38.9649143 C881.1668,38.0098892 879.1418,37.5539999 876.9512,37.5954444 C875.7344,37.6170676 874.235,37.5918405 873.3602,36.950352 C872.2856,36.1629067 871.9022,36.4512162 871.2542,37.195415 C870.8816,37.6224734 870.3182,37.9089809 869.79242,37.5630096 C869.2166,37.1828015 869.4434,36.620598 869.753,36.1358777 C869.897,35.908834 870.08402,35.7070174 870.2138,35.472766 C870.599,34.7844271 870.2858,34.4690887 869.5658,34.431248 C868.5938,34.3807939 867.6866,34.788031 866.6156,34.3393494 C865.6958,33.9555374 864.9524,34.843891 865.1396,35.9268534 C865.2314,36.4548201 865.01522,36.5719458 864.66242,36.8440378 C863.3216,37.8765461 861.5594,37.3503813 860.141,38.0639472 C859.88522,38.1936865 859.59182,37.9918699 859.5506,37.6837391 C859.484,37.1828015 859.6478,36.3791388 858.78182,36.6782599 C858.089,36.9161152 858.9368,37.4494877 858.8504,37.8675364 C858.8234,37.9936718 858.7766,38.1144014 858.7064,38.343247 C858.14462,38.1846768 857.44622,38.3036045 857.1638,37.606256 C856.8722,36.8836804 856.5572,36.9197191 855.9524,37.332362 C855.2306,37.8260919 854.786,37.5161593 854.7788,36.6710522 C854.7752,36.2043512 854.7626,35.7268387 854.8508,35.2709493 C855.1406,33.7537208 855.1496,32.2292845 855.0272,30.6994425 C854.9948,30.2759879 854.9012,29.8669489 854.363,29.8525334 C853.778,29.838118 853.4828,30.2399493 853.4216,30.7318773 C853.38182,31.0418099 853.481,31.3985929 853.616,31.6923082 C854.0642,32.6689565 853.9886,33.6456048 853.7024,34.6330647 C853.6466,34.8222677 853.5476,34.9970554 853.2902,35.0384998 C852.7142,34.8853354 852.5666,34.0474361 851.825,34.1123057 C851.7494,34.2204218 851.6684,34.3213301 851.609,34.43305 C851.582,34.487108 851.618,34.5736008 851.58902,34.6294608 C851.1734,35.4547466 850.3274,35.8259451 849.6434,35.3808673 C849.0548,34.9970554 848.5346,34.4889099 849.3644,33.7843537 C849.8378,33.3807204 849.44,33.0527684 849.1394,32.7986957 C848.621,32.3590238 848.018,32.0076466 847.5374,31.5373418 C846.9614,30.9751384 846.5132,30.3174324 845.9066,31.5157186 C845.6996,31.9247577 845.2046,31.9319654 844.8356,31.6364482 C844.3766,31.2688536 844.616,30.9787423 844.98662,30.6760173 C845.3504,30.3768963 845.6204,29.9714611 845.984,29.6705381 C846.794,28.9984166 846.9326,28.2632275 846.3044,27.320816 C845.9732,27.4091107 845.6564,27.5280384 845.3288,27.5712848 C844.35122,27.6956183 844.4378,29.0272476 843.5864,29.1065327 C842.798,29.180412 841.9754,28.7713729 841.1834,29.2416778 C840.143,29.8615431 839.7434,29.5462046 839.3204,28.4199958 C839.0162,27.6181351 838.5788,26.7423951 837.9164,25.6720462 C837.65,26.9171827 837.2432,27.7731014 836.5124,28.4073823 C835.7888,28.0830341 835.7672,26.308129 834.5144,27.6559757 C834.4712,27.7046279 834.1814,27.648768 834.1616,27.5911061 C833.7908,26.526163 833.303,26.7297816 832.4966,27.2595502 C831.85742,27.6794009 831.4202,27.3424392 831.7874,26.5387766 C832.043,25.9747712 831.72242,25.8450319 831.2348,25.7783604 C830.4014,25.6630366 829.7354,25.652225 829.6904,26.7766319 C829.6526,27.7190434 829.1486,28.1551115 828.1874,27.5406519 C827.633,27.1856709 827.2118,27.457763 826.6718,27.6559757 C825.4064,28.1190728 825.5108,29.236272 825.329,30.2723841 C823.9178,29.9336205 822.8018,28.3154836 821.1242,30.2363454 C821.4032,28.5028848 820.091,27.7911208 819.983,26.5477862 C819.9308,25.9441383 819.2972,26.0090079 818.8202,26.2414574 C817.6574,26.8090667 816.7214,27.5748887 816.6836,28.9533683 C815.735,28.7227207 815.4488,28.0361838 814.925,27.6181351 C814.3832,27.1856709 814.1672,26.7333854 814.24622,26.2126265 C813.782,26.1495588 812.603,30.904863 812.1728,30.685027 C811.6616,30.4237465 811.9784,25.1440795 811.676,24.693596 C811.3196,24.8431565 810.9452,24.9584803 810.5546,25.0305577 C809.2532,25.2738188 809.7698,30.8688243 808.778,29.9786688 C808.4522,30.3786982 806.213,26.9766466 805.8692,27.3676663 C805.9898,26.7369893 806.258,24.1223829 806.4128,23.5025176 C806.3336,23.3853918 803.3186,25.3747271 803.2502,25.2449879 C802.451,26.4378683 801.038,20.4212102 799.9526,21.4230856 C798.7268,22.5547002 800.3684,27.8019324 798.9356,27.0343084 C798.4784,27.3496469 797.9978,27.6055216 797.5046,27.785715 C797.2724,28.086638 800.4566,31.0490177 800.147,31.2940807 C799.0778,32.1391878 794.4338,29.9156011 793.03682,29.5426008 C792.0992,29.2921319 791.4674,28.7713729 790.9958,28.084836 C791.1758,29.288528 791.31962,30.5282587 791.5106,31.9193519 C790.4828,31.5751824 789.57542,31.0508196 788.5172,32.3211832 C788.5478,29.4975524 789.6656,27.155038 789.7682,24.747654 C789.626,23.9710204 789.5378,23.1799713 789.4334,22.4015358 C789.4082,22.2357579 789.383,22.068178 789.3542,21.904202 C789.3182,21.7023854 789.2768,21.5041726 789.23162,21.3059599 C789.212,21.3311869 789.1904,21.356414 789.17042,21.3816411 C788.6324,21.4447088 788.56022,21.0500852 788.4524,20.7689835 C788.1968,20.1094756 787.94462,19.4463638 787.6946,18.7832521 C786.9656,18.1994254 786.2492,17.6029852 785.5202,17.0209605 C785.12402,16.7038201 784.7282,16.3902836 784.3304,16.076747 C785.1314,18.5147639 785.9756,20.9365634 786.5984,23.4322421 C787.3166,26.2991193 786.1016,28.7749768 785.4212,31.6778927 C784.5878,30.903061 783.7922,30.6075438 782.7428,30.6057419 C783.23042,30.0327268 784.14122,29.8543354 783.5384,28.9785954 C783.16022,28.4308074 783.6554,27.9749181 784.0388,27.5893042 C784.9352,26.690139 785.1746,25.652225 784.7372,24.1944603 C784.24022,25.3278768 784.406,26.6108539 783.0542,27.1802651 C782.8418,26.0720756 783.1856,24.9098281 782.183,23.9782282 C781.7204,24.5764703 781.9904,25.2341763 781.9544,25.8234087 C781.9184,26.4234528 781.9598,27.0343084 781.679,27.5911061 C781.4432,28.057807 780.9896,28.4578364 780.545,28.0415896 C779.3498,26.9279943 778.772,27.6343525 778.1996,28.632624 C778.1096,28.7911942 777.9242,28.8975083 777.7478,29.0614843 C776.9,28.3515223 778.4858,27.4397436 777.4886,26.7387912 C777.3266,26.6252694 777.7802,26.2108246 778.1582,26.1928052 C779.2796,26.1351433 779.5496,25.6143844 779.2598,24.58548 C778.8458,23.1169037 779.4794,21.6122887 780.8762,20.9401672 C782.0912,20.3545386 782.62022,19.5923205 782.3,18.1922177 C781.4972,18.7526192 781.6574,20.2770555 780.5108,19.9653209 C779.6216,19.7238617 780.068,18.5544064 779.85542,17.8156134 C779.5982,16.9200522 779.2922,16.0749451 778.5002,15.4226449 C778.9556,17.2155694 779.4434,18.9832668 778.7828,20.8626841 C777.5282,20.563563 776.8424,19.716654 775.973,18.7940637 C775.73162,19.7905333 776.2628,20.1923646 776.73962,20.6500558 C778.007,21.8627575 778.1834,22.6538066 777.467,24.2142815 C777.08522,25.0467751 776.729,25.9135054 775.9802,26.7676222 C775.0352,24.5079968 774.2918,22.3186468 772.3856,20.8266454 C771.3272,19.9977557 770.3228,19.0805712 768.7784,18.8481217 C769.4408,19.4265426 770.0744,20.042804 770.7728,20.5761765 C771.653,21.248298 772.3856,22.0447528 772.9994,22.9313044 C773.651,23.8683102 773.4422,24.2377067 772.29902,24.2791512 C771.1976,24.3205956 770.0942,24.3079821 768.9908,24.338615 C768.3014,24.3584363 767.6372,24.4683542 767.1422,25.1188525 C767.8424,25.6053747 768.7352,24.8557701 769.4192,25.762143 C768.3482,25.8306164 767.7956,26.8342938 766.406,26.2847038 C765.398,25.8882783 764.309,27.59471 764.5376,28.8668755 C764.5718,29.0632863 764.6474,29.2524894 764.696,29.4470982 C764.7644,29.7245961 764.73902,30.0074998 764.49242,30.1768816 C764.0246,30.5012297 763.98662,30.0687655 763.787,29.809287 C763.2956,29.1677985 762.9644,29.618282 762.7178,30.0507462 C762.635,30.1949009 762.71042,30.4345581 762.7412,30.6273651 C762.8078,31.0201867 762.9518,31.5247283 762.3614,31.5499554 C761.8322,31.5733805 761.8574,31.0183848 761.76902,30.6453844 C761.6468,30.1246255 761.5298,29.6020646 761.4272,29.0777017 C761.2418,28.1424979 761.1716,27.1189994 759.6974,27.4667726 C759.4112,27.5334442 759.1016,27.320816 759.089,27.0451201 C759.0242,25.6215921 757.5374,26.7333854 757.0496,25.9567518 C756.9038,25.7243023 756.6554,26.1892013 756.5888,26.4108392 C756.4538,26.8577189 756.4142,27.3334295 756.2666,27.7767053 C755.786,29.2182526 754.20542,30.0237172 752.7962,29.564224 C752.6756,29.5245814 752.474,29.4380886 752.474,29.3750209 C752.465,27.6271448 750.6362,27.4433475 749.75042,26.4522837 C749.3276,25.9765731 749.6858,24.7044076 748.451,25.0377654 C747.731,25.2323743 747.7238,26.1333414 747.1766,26.5567959 C746.8058,26.8415015 746.4746,27.1748593 746.1236,27.4901978 C746.021,27.3730721 745.8716,27.2829754 745.8788,27.2036903 C745.9382,26.5603998 746.3126,25.7261043 745.45742,25.4504083 C744.5936,25.1693066 744.1238,25.8522397 743.81402,26.5928346 C743.4974,27.3532508 742.98962,27.7100337 742.2644,27.0000717 C741.845,26.5892307 741.5786,25.8486358 740.8046,26.252269 C739.9028,26.7261777 738.8318,27.2667579 739.0244,28.4506287 C739.2422,29.7696445 738.37622,30.5787129 737.8022,31.5085109 C737.5106,31.9788157 736.8266,32.5518307 736.58162,31.3247136 C736.4576,30.6976405 736.0706,30.9481094 735.6638,31.1138873 C734.2976,31.668883 734.29022,31.6526656 734.3822,30.2453551 C734.42162,29.6705381 733.5236,28.6398318 732.7964,28.4902712 C731.2574,28.1713289 729.7778,27.7136376 728.2622,26.9063711 C728.1326,27.5694829 727.6124,28.1641211 727.0418,28.6290202 C726.1202,29.3822286 727.058,30.0849829 727.0526,30.766114 C726.4838,30.904863 726.3344,30.2057125 725.708,30.4832104 C725.8916,31.3805736 724.934,32.3031638 725.97962,33.3590972 C726.5702,33.9555374 725.9384,34.6654995 725.015,34.5555815 C724.4696,34.4889099 723.91682,34.4636829 723.3788,34.3627745 C722.792,34.2528566 722.3528,34.0186051 722.5148,33.2762083 C722.75402,32.1734246 722.1638,32.2364923 721.3196,32.4581302 C720.1316,32.7680628 719.0048,32.9356427 718.43402,34.3015088 C718.0328,35.2565339 717.8042,35.171843 716.3408,34.1249192 C715.88,34.1519483 715.8728,34.5357602 715.7504,34.8330794 C715.4894,35.4619544 715.088,35.4781718 714.6704,35.0042631 C714.4058,34.705142 714.2438,34.323132 714.008,33.99518 C713.77022,33.667228 713.4446,33.1933193 713.06822,33.3122469 C712.1054,33.6167738 711.3548,33.0960149 710.5124,32.926633 C710.3702,32.899604 710.1776,33.1068265 710.0048,33.2149425 C710.0048,32.955464 710.0138,32.6941835 710.0012,32.434705 C709.9742,31.8148397 709.9058,31.1841627 709.1552,30.9985635 C708.4874,30.8327856 708.1922,31.4076026 707.8214,31.7751971 C707.2598,32.3319948 707.2724,32.3446083 706.3958,31.7463662 C706.5146,32.9068118 706.4786,33.9573394 705.5516,34.6835188 C704.9774,35.1322004 705.1916,35.6151188 705.413,36.1214623 C705.5984,36.5485206 705.881,37.00441 705.4544,37.4206568 C704.9972,37.8693384 704.4392,37.6585121 703.892,37.5702173 C703.0514,37.4368742 702.9344,36.6818638 702.53822,36.1683125 C701.8508,35.279959 703.343,35.4385292 703.172,34.7141517 C702.6644,34.6276589 702.2144,34.9556109 701.7554,35.1754468 C700.841,35.6151188 700.0184,36.2674189 698.8754,36.0836216 C698.3642,36.0007327 698.015,36.4277911 697.6118,36.6800618 C696.5876,37.3215504 695.4338,37.5017438 694.244,37.3882219 C693.785,37.3449755 693.5186,36.9863906 693.5636,36.5286994 C693.614,36.0313655 693.9938,36.1701145 694.3394,36.1917377 C695.6894,36.2728247 694.8704,35.0637269 695.3492,34.5808086 C695.8064,34.7375768 695.5598,35.8259451 696.3266,35.445737 C696.9332,35.143012 698.1626,35.1322004 697.9718,34.3051127 C697.7558,33.3627011 698.35322,32.9951065 698.9636,32.1644149 C697.6856,32.5680482 696.728,32.8635654 695.774,33.1753 C695.234,33.3518895 694.7408,33.5338848 694.388,32.8437441 C694.0964,32.270729 693.8228,31.7481681 694.4294,31.2238053 C695.2664,30.4994278 695.5778,29.5534124 695.5274,28.5154983 C695.4644,27.1964825 696.6524,26.7856415 697.4444,25.9981963 C695.5328,26.2108246 694.883,26.8198783 694.57322,28.6019911 C694.2854,30.2723841 693.6014,30.9823461 692.156,31.1102834 C690.9788,31.2147956 690.6818,30.8976552 690.9644,29.7408135 C691.3316,28.2452082 691.7456,26.7604145 692.1272,25.2702149 C692.2226,24.8900068 692.3972,24.5043929 692.1002,23.9872378 C690.995,25.0972293 691.1246,26.7045545 690.275,28.0217683 C688.7612,26.9315982 688.034,25.4269832 687.2528,23.983634 C686.9054,23.3403435 687.2654,22.6880433 687.5516,22.0699799 C687.8558,21.412274 688.4768,20.9131382 688.5884,20.1310988 C686.2232,21.410472 685.6148,23.4340441 686.999,25.5098722 C687.7064,26.5730133 688.3184,27.7226473 689.3192,28.5695563 C689.9834,29.1317598 689.9492,29.7300019 689.5334,30.3462634 C688.4372,31.9734099 687.116,33.447392 685.6004,34.6925285 C684.362,35.7106213 683.1794,35.1934662 682.8914,33.667228 C682.7042,32.6797681 682.6358,31.6652792 683.03,30.6976405 C684.047,28.2073676 683.579,25.7315101 682.9076,23.2376332 C682.517,24.3332092 682.6502,25.4774374 682.5962,26.6036462 C682.5566,27.401903 682.526,28.2019618 682.4252,28.9948128 C682.3856,29.3155571 682.1714,29.6471129 681.7538,29.6381033 C681.4676,29.6326975 681.2822,29.4092576 681.122,29.1822139 C680.7116,28.5965853 680.6864,27.9280678 680.6594,27.2577483 C680.591,25.5296934 680.5496,23.8034406 679.8512,22.1853037 C679.736,22.8249903 679.5992,23.4610731 679.4714,24.0989578 C679.5506,24.6971999 679.6316,25.295442 679.6262,25.8936841 C679.61,27.6559757 679.8638,29.2651029 681.0014,30.7715198 C681.77,31.7914145 681.7934,33.1771019 681.6134,34.431248 C681.4622,35.4835776 681.3308,36.4818491 682.2776,37.6747295 C681.6332,37.3377678 681.0428,36.4277911 680.5496,35.1934662 C680.2616,36.2764286 679.3472,37.2170382 678.3284,37.633285 C676.9478,38.1990923 675.2972,37.9179906 674.2226,36.8800765 C673.3586,36.0439791 672.8834,35.0925579 672.3578,34.0852767 C671.627,34.0528419 670.8872,33.804175 670.2608,33.4509959 C670.0628,33.5446965 669.854,33.6203777 669.6362,33.6798415 C669.5354,33.7068705 669.4328,33.7284937 669.332,33.7465131 C669.2132,34.6006299 669.08,35.4529447 668.9648,36.3070615 C668.8622,37.0620719 668.5112,37.6549082 667.7498,37.988266 C667.64,37.7738359 667.5554,37.6675217 667.5284,37.5467922 C667.3952,36.977381 668.261,36.5214916 667.9352,36.0944332 C667.505,35.5322298 666.803,35.1556256 666.1892,34.7375768 C665.8922,34.5357602 665.5322,34.4943157 665.2856,34.8492968 C665.0696,35.1592294 665.0516,35.4745679 665.3828,35.7322445 C665.597,35.8980224 665.8706,36.0097423 666.0434,36.2079551 C666.7922,37.0710815 666.5636,37.7035604 665.4224,38.1053917 C665.0462,38.2387349 664.706,38.4693824 663.9122,38.8856292 C664.7474,37.4981399 663.1724,36.8332262 663.833,35.7790948 C662.969,35.4475389 662.1878,35.9322592 661.466,35.5052008 C661.124,35.3015822 660.6758,35.5520511 660.7946,35.9394669 C661.0718,36.8440378 660.5678,36.9251249 659.8712,37.0242313 C659.1602,37.1251396 658.6328,37.0728835 658.4924,36.2566073 C658.4726,36.1484913 658.334,36.0583946 658.2458,35.9538824 C657.6266,35.9773075 657.5816,36.5449168 657.308,36.894492 C656.9084,37.4062413 656.3684,37.743203 655.7276,37.7305894 C654.4208,37.7053624 652.7846,38.0315124 651.89,37.4026374 C650.5508,36.4602259 648.9182,36.265617 647.3774,35.3448286 C648.2612,34.7411807 648.8714,35.4096983 649.4852,35.2961764 C649.9676,35.2060797 650.5832,35.1916642 650.6696,34.6835188 C650.7866,34.0113974 650.0918,34.0798709 649.6562,34.0041897 C648.5024,33.804175 647.3396,33.6600202 646.1894,33.4509959 C645.6512,33.3518895 644.978,33.3068411 644.6324,32.9752853 C643.4408,31.8310571 642.1592,32.2022555 640.8812,32.6167004 C639.0434,33.2149425 637.1948,32.8167151 635.3498,32.7770725 C635.0132,32.7698648 634.6622,32.6761642 634.2428,33.0473626 C635.0294,34.0870786 636.6692,34.1717695 637.2344,35.4493408 C636.6206,36.0908294 636.0176,36.6854676 636.2048,37.7954591 C636.3434,38.6099333 635.24,39.0189723 634.8512,39.9343549 C634.421,39.2694412 634.1834,38.6838126 634.133,38.0279086 C634.1006,37.6080579 633.9908,37.2819078 633.5894,37.0242313 C632.7668,36.4998684 632.3258,36.6242019 632.261,37.5990482 C632.153,39.2081754 631.4186,40.3794326 630.0038,41.1939068 C629.4818,41.4930279 628.8914,41.6858348 628.5476,41.107414 C627.9482,40.0983309 626.9114,40.3361862 626.0744,40.011838 C625.5038,40.7398194 626.2472,41.543482 625.6028,42.3273234 C625.0052,41.2822016 625.5794,39.9523742 624.7604,39.0802381 C624.1718,39.0712284 624.0296,39.5289197 623.8496,39.8370504 C622.6832,41.8209799 622.1324,41.8840476 620.7356,40.1199541 C619.8896,40.2082489 620.5286,41.1038101 620.0174,41.3704964 C619.7726,41.408337 619.6322,41.2749939 619.5206,41.0948004 C618.4028,39.2802528 617.3048,39.0892478 615.4886,40.3938481 C614.4968,41.1056121 614.2736,41.0767811 613.4546,39.9776013 C612.974,39.3343108 612.3998,38.9036485 611.5538,39.027982 C610.3838,39.1991657 609.1634,38.590112 607.997,39.4550404 C607.538,39.7956059 606.701,39.4153978 606.1016,38.9829337 C605.0648,38.2333291 605.0378,38.2675658 604.5644,39.4964849 C604.5176,39.6172145 604.505,39.7487557 604.46,39.9523742 C603.8156,39.822635 603.9902,39.0333878 603.4772,38.8297693 C602.7626,38.7630977 603.2558,39.8875046 602.4584,39.8082195 C601.7618,39.7379441 601.2254,39.3487263 600.9878,38.836977 C600.5234,37.8314977 600.185,37.0927048 599.0024,38.2063 C598.5722,38.6117352 597.5246,37.7630242 597.3122,38.4117205 C596.7614,40.1037367 595.8506,39.3216973 594.992,38.8784215 C594.1496,38.4423534 593.696,38.6675952 593.4854,39.51991 C593.4692,39.5847796 593.4692,39.6532531 593.4584,39.7199247 C593.3612,40.3055533 593.1002,40.77766 592.4,40.6947711 C591.617,40.6010705 591.4172,40.011838 591.4838,39.3613398 C591.5504,38.7198513 591.3884,38.1864788 590.9942,37.6819372 C590.348,36.8548494 589.646,36.8188108 588.9926,37.6170676 C588.8666,37.7720339 588.7964,37.9684447 588.683,38.1360246 C588.3518,38.6225468 588.5318,39.3757553 587.8496,39.6712725 C586.9892,40.040669 586.3988,39.3090837 585.7832,39.0261801 C584.8238,38.5865081 584.048,37.7774397 582.8888,36.8908881 C583.2362,38.1234111 583.4018,39.0099627 581.9492,39.2838567 C581.1842,39.4280114 581.9294,40.5452105 581.2436,41.1794914 C580.5542,39.8352485 579.0746,40.2460895 577.9442,39.7757847 C577.5356,39.6064029 577.127,39.9091278 577.1396,40.4172732 C577.1756,41.8065644 576.335,41.3632886 575.6582,41.0551579 C575.2334,40.860549 574.8608,40.5217854 574.526,40.1920315 C574.022,39.6928957 573.5594,39.2442141 572.7512,39.6496493 C572.4236,39.8136253 572.0618,39.7019054 571.8602,39.3703495 C571.6478,39.0243781 571.8188,38.7468803 572.0834,38.4892037 C572.321,38.2585561 572.636,38.0513337 572.6126,37.6729275 C572.5946,37.3954297 572.4452,37.1521686 572.1806,37.0332409 C571.943,36.9287287 571.808,37.114328 571.6982,37.2855117 C571.0142,38.3594644 569.945,39.164929 569.5598,40.4154713 C569.315,40.3073552 569.1008,40.2605049 569.099,40.204645 C569.0126,38.1612517 569.0414,38.2189136 567.1226,39.0802381 C566.372,39.4153978 565.4756,39.4135959 565.7312,40.5830512 C565.7942,40.8641529 565.5278,41.0695734 565.211,41.0839888 C564.8834,41.0984043 564.8258,40.7470272 564.6422,40.6299014 C563.3768,39.8172292 562.5848,38.316218 560.855,38.1720633 C559.8074,38.0855705 558.8228,38.071155 557.9768,38.8676099 C557.0012,39.7865963 556.6304,39.7631711 555.6512,38.9036485 C555.3992,38.6820107 555.239,38.3540586 554.9726,38.154044 C553.4804,37.0242313 552.2096,37.305333 551.621,39.0387936 C551.3096,39.9541761 551.072,40.1577947 550.2476,39.5829777 C549.4142,39.0045569 548.4764,38.0134931 547.6772,38.0909763 C546.797,38.1774691 545.8376,38.6405662 544.853,38.8459867 C543.7874,39.0712284 542.882,39.0964555 541.8866,38.6315565 C540.938,38.1864788 539.8922,38.4369476 538.8932,38.5829043 C537.9518,38.7216532 537.0392,38.7198513 536.6522,37.6891449 C536.3732,36.9449462 535.8476,37.1089222 535.3094,37.1809995 C534.7046,37.2638885 534.6434,37.7089662 534.5156,38.1900826 C534.3428,38.8586002 534.8234,39.4532385 534.7694,40.1325676 C533.6066,40.3379881 532.9712,39.6280261 532.2908,39.1252864 C531.3746,38.4495611 530.4746,38.2135078 529.4324,38.8117499 C529.1048,39.000953 528.7232,39.4226056 528.3776,38.9072524 C527.5784,37.7125701 526.3598,38.1936865 525.35,38.2567542 C521.0444,38.5234404 519.6476,37.714372 518.2058,33.7879576 C516.6704,34.43305 514.793,33.9627452 513.4538,35.3430267 C513.0704,35.7358484 512.3396,35.7106213 511.9058,35.3502344 C511.031,34.6204511 510.095,34.843891 509.1788,35.0709347 C508.6622,35.198872 508.0934,35.2943745 507.854,34.8835335 C506.9414,33.310445 505.3448,34.0744651 504.0902,33.8348078 C502.823,33.5915467 502.0454,34.5609873 501.5306,35.6403458 C500.7692,37.2314537 500.7494,37.2314537 499.1006,37.031439 C497.4302,36.8296224 496.5536,37.1575744 496.0766,38.6549816 C495.8066,39.5018907 495.0668,39.8442582 494.7248,40.5362009 C494.5898,40.806491 494.2964,40.9092012 494.0732,40.6335053 C493.8878,40.4010558 493.4684,40.0803115 493.8914,39.7992098 C495.1316,38.973924 493.8104,38.3396432 493.733,37.6260773 C493.7096,37.4026374 493.2524,37.3629949 493.0022,37.4909322 C492.5846,37.7035604 492.2012,37.9774544 491.7584,38.2549523 C491.429,37.6675217 491.0276,37.1431589 490.4588,36.7629508 C489.9332,36.4115737 489.8144,35.3376209 488.9396,35.6835923 C487.9586,36.0692062 486.8282,36.2944479 486.2612,37.3990336 C485.3468,39.1829483 484.3604,39.5289197 482.4902,38.7739093 C481.799,38.4946095 480.9872,38.3973051 480.4706,37.8098745 C479.6552,36.8818785 478.4564,37.853121 477.5636,37.2152363 C477.3728,37.0782893 477.2234,37.5323767 477.0866,37.7504107 C476.8436,38.1396285 476.6834,38.5973197 476.1938,38.8622041 C475.6934,38.536054 475.1714,38.2225174 474.68,37.8693384 C474.1112,37.4639032 473.5136,37.3918258 472.9592,37.797261 C472.3634,38.2315271 471.683,38.3738799 471.008,38.3216238 C470.0018,38.2423387 469.352,38.426136 468.9398,39.4622481 C468.6482,40.1956353 468.02,40.123558 467.5718,39.4009824 C467.0318,38.5288463 466.7276,37.6098598 466.8536,36.5431148 C466.9166,36.0025346 466.2668,35.5033988 465.959,36.0619984 C465.1148,37.5990482 464.9528,35.7412542 464.2886,35.908834 C464.2886,37.4314684 462.5408,37.7233817 462.0422,38.9144602 C461.3384,38.7865228 461.4698,38.2423387 461.2232,37.9450196 C460.91,37.5666134 460.5302,37.415251 460.1972,37.8224881 C459.5978,38.5540733 459.3944,38.2729716 459.2072,37.5648115 C459.1298,37.2692943 458.7212,37.0963086 458.5952,37.3972316 C457.8752,39.1072671 457.4162,37.7197778 456.8726,37.2963233 C456.7682,37.2152363 456.6602,37.1377531 456.5306,37.0404487 C455.798,37.2638885 455.7692,38.0891743 455.2274,38.507223 C454.3148,39.2081754 453.9026,39.2225909 453.3932,38.1954884 C453.1718,37.7486088 453.0368,37.5269709 452.531,37.6819372 C451.82,37.8981693 451.9262,37.0674777 451.5014,36.9161152 C451.145,36.8836804 451.082,37.1593763 450.9434,37.3846181 C450.0704,38.7847209 448.5674,38.8856292 447.9176,37.3918258 C447.3596,36.1160565 446.744,36.5359071 446.375,37.1431589 C445.7738,38.1306188 445.1672,38.0999859 444.377,37.550396 C443.846,37.1791976 443.468,37.4188548 442.9136,37.5648115 C441.7994,37.8567248 440.4692,38.1342227 439.4576,37.7864494 C438.6332,37.5035457 437.1644,37.166584 437.42,35.5340317 C437.5424,34.761002 436.2896,33.8960736 435.3518,34.0095955 C433.5662,34.2258276 432.1226,33.200527 430.4936,32.8599615 C429.6602,32.6851739 430.0238,32.023864 430.1984,31.5517573 C430.2488,31.4130084 430.301,31.2760614 430.3514,31.1391144 C429.9734,30.8165682 429.6656,30.4201427 429.437,29.9750649 C428.5514,29.3299725 427.8206,28.4199958 427.2824,27.455961 C426.8972,26.7622164 426.6164,26.0234234 426.2726,25.3098575 C426.1556,25.0647944 426.0188,24.8323449 425.8838,24.5962916 C425.828,24.5350258 425.6606,24.3043782 425.6012,24.2485183 C425.2196,23.8827257 424.82,23.545764 424.4348,23.1943868 C424.307,24.09175 423.9524,24.9783016 423.3224,25.8522397 C423.9542,24.3980788 422.1578,23.8899334 422.3108,22.7583188 C420.2984,23.407015 421.58,25.8342203 419.9078,26.6829313 C419.159,25.9837809 419.906,24.8737894 419.0492,24.284557 C416.9576,25.0738041 415.73,26.5441824 415.3556,28.8452522 C413.7968,27.4127146 415.8704,26.4666992 415.5914,25.3278768 C414.7292,25.322471 414.7418,26.5171534 413.8994,26.3153367 C413.3216,26.0216215 413.4278,25.1747124 412.6988,25.0161422 C412.4666,25.6089786 412.751,26.1207278 412.9238,26.5928346 C413.2892,27.5965119 413.8004,28.551537 414.2108,29.5426008 C414.6644,30.6363748 414.7994,31.7643855 414.1604,32.8257247 C413.7194,33.5555081 412.8572,33.5501023 412.7204,32.791488 C412.4828,31.4544529 411.4046,32.0725163 410.78,31.9229557 C410.1374,31.7679894 410.1896,32.6293139 410.06,33.1014207 C409.538,35.0204805 409.079,35.3952828 407.1044,35.4187079 C406.7102,35.4241137 406.2818,35.6529594 405.8606,35.2349107 C406.2116,34.4853061 406.1198,33.8618369 405.137,33.5735274 C404.8238,33.4816288 403.193,31.668883 402.986,31.3283175 C402.5882,30.6706115 402.0482,30.6345728 401.5838,31.3625542 C401.0546,32.1932459 400.502,32.9500582 399.449,33.5555081 C399.5336,33.0852032 399.5822,32.8311305 399.6218,32.5752559 C399.7082,32.0202602 399.7208,31.422018 399.08,31.2183995 C398.4896,31.0309983 398.0414,31.4310277 397.7138,31.8959267 C397.5986,32.0581008 397.5338,32.2545116 397.4474,32.436507 C397.1684,33.0167298 396.6914,33.4509959 396.065,33.5176674 C395.4134,33.5879429 395.7734,32.4833573 395.0966,32.4977727 C394.5548,32.9644737 394.0526,33.4005417 393.5486,33.8348078 C393.2318,34.1105038 392.8916,34.3934074 392.4668,34.0636535 C392.1122,33.7861556 392.1086,33.3897301 392.1662,32.9662756 C392.2742,32.1932459 393.0014,31.7589797 393.2588,31.0472158 C392.9798,30.6597999 392.4506,30.8129643 392.1608,30.5769109 C391.3202,29.8885721 390.7244,30.05435 390.1556,30.9174765 C389.7002,31.6130231 388.8344,31.6202308 388.1198,31.7661875 C386.2784,32.1463956 385.796,31.6724869 386.0372,29.8507315 C386.1956,28.6398318 385.787,27.4757823 385.6142,26.3099309 C385.544,25.8360223 384.5054,25.4972586 383.7926,25.021548 C383.1824,26.445076 383.3462,27.8181498 383.015,29.099325 C382.5632,30.8453991 382.6082,30.8562107 384.3992,31.5859941 C384.1706,31.7283469 383.9636,31.8004242 383.8484,31.942777 C383.537,32.3283909 383.5064,33.0563723 382.7306,32.8635654 C381.9728,32.6743623 381.9278,32.025666 381.8918,31.4166122 C381.8666,31.0183848 381.9116,30.6147516 381.8972,30.2147222 C381.8846,29.8200986 381.8972,29.3786247 381.2042,29.4380886 C380.8028,30.1606642 381.0566,30.9877519 380.9162,31.7589797 C380.8514,32.108555 380.765,32.4329031 380.333,32.4491205 C379.9406,32.4653379 379.6598,32.2112652 379.5806,31.8779074 C379.4582,31.3607523 379.4852,30.8111624 379.3556,30.2976112 C379.1792,29.5984607 379.154,28.8074116 378.4844,28.3262952 C378.1658,28.0974496 377.3306,28.3028701 377.75,27.5190287 C378.0128,27.0289026 378.497,26.992864 379.0028,27.2559463 C379.3286,27.4253282 379.6904,27.4883958 379.8794,27.0901684 C380.099,26.6234675 379.9046,26.1639743 379.6868,25.7477275 C379.4924,25.3801329 379.154,25.3350846 378.839,25.6017708 C378.425,25.951346 378.0308,25.9333267 377.5088,25.7927758 C376.3226,25.4720316 376.3172,25.5170799 376.3568,26.7117622 C376.4396,29.153383 376.9004,31.5769844 376.805,34.1285231 C375.878,32.8815847 375.878,32.8815847 374.6054,32.5698501 C374.2616,34.8997509 373.5902,35.2403165 370.2764,34.7303691 C370.0946,35.2907706 369.9416,35.8727953 369.7148,36.4259891 C369.5114,36.9197191 369.2162,37.5882366 368.6312,37.469309 C367.9346,37.3251543 367.9616,36.5449168 367.9724,35.9682979 C367.9796,35.5844859 368.1902,35.2060797 368.3072,34.8258716 C368.4044,34.5069293 368.516,34.1843831 368.1146,33.804175 C367.2038,34.0041897 366.2858,34.2906972 365.744,35.3448286 C365.285,34.1717695 365.285,34.1699676 364.0412,34.105098 C363.5966,34.0816728 363.2456,33.9068852 363.0188,33.5356868 C362.8136,33.2041309 362.7344,32.7482416 362.1116,32.7950919 C361.7642,33.1356574 362.045,33.4960442 362.1404,33.858233 C362.2592,34.3159243 362.0666,34.6564898 361.6184,34.8060503 C361.2314,34.9357896 360.9974,34.678113 360.767,34.406021 C360.4376,34.0150013 360.2576,33.4365804 359.5664,33.4221649 C358.8356,33.9573394 358.796,34.9898476 357.9716,35.470964 C357.4784,35.7592735 357.0032,35.9214476 356.8574,35.2511281 C356.4416,33.3482856 354.7874,32.3986663 353.5832,31.1084815 C352.9334,30.4147369 351.5978,30.6724135 350.9696,31.6490617 C350.381,32.5644443 351.3224,32.7284203 351.8606,33.0707878 C351.9434,33.1248458 351.9632,33.2744063 352.0118,33.3807204 C350.2856,34.0600496 350.2856,34.0600496 350.219,35.4060944 C348.7124,34.9195722 348.7124,34.9195722 347.5802,35.5394375 C346.3418,36.2169648 346.3418,36.2169648 345.3572,35.1358043 C344.6642,35.3736596 344.7362,36.7485353 343.7714,36.3611195 C343.1342,36.1034429 343.631,35.2691474 343.595,34.6961324 C343.5878,34.6006299 343.4402,34.514137 343.2908,34.3483591 C342.0416,34.7898329 341.2712,36.5034723 339.4874,35.63494 C339.9464,37.3611929 339.9464,37.3611929 337.8962,37.8278939 C337.8836,37.3684007 337.979,36.8800765 337.3904,36.6332115 C335.783,35.9574862 335.7524,35.9448727 335.9828,34.3880016 C336.1016,33.584339 335.783,33.3158508 335.0072,33.2347638 C333.5204,33.0797974 332.579,33.8798562 331.7222,34.869118 C331.4252,35.2132875 331.2416,35.7845006 330.6296,35.5790801 C330.1364,35.4133021 330.2768,34.9321857 330.275,34.541166 C330.275,33.8257982 329.7728,33.5086578 329.1878,33.721286 C327.5552,34.3123204 327.0152,33.0761936 326.2448,32.2058594 C325.9154,31.834661 326.2232,31.0922641 325.3664,30.8994572 C324.731,31.6436559 324.0686,32.4148838 323.372,33.2311599 C322.8392,32.0977433 323.1632,31.1733511 323.6438,30.2543647 C323.8364,29.8867702 323.9426,29.4380886 323.444,29.23447 C323.0336,29.0668901 322.832,29.4218712 322.706,29.7444174 C322.5854,30.0579539 322.5206,30.5300607 322.2038,30.575109 C320.7584,30.7733218 320.4812,31.7589797 320.1716,32.9158214 C319.9862,33.6059622 319.1996,34.0420303 318.3698,34.0023877 C317.4698,33.9609432 317.1836,33.2365657 316.8074,32.5806617 C316.3538,31.7878107 317.4212,31.2778633 317.1224,30.4237465 C316.1036,30.6417806 315.2954,30.9895539 315.1262,32.106753 C315.0182,32.8167151 314.687,33.366305 313.9544,33.6221796 C313.5188,33.775344 313.319,34.1231173 313.2092,34.5213447 C312.9878,35.3123938 312.5126,35.6763845 311.6828,35.3394228 C311.0618,35.0871521 310.6316,35.4799737 310.133,35.663771 C309.7568,35.8025199 309.3734,36.045781 309.0062,35.6403458 C310.4912,33.8221943 310.4606,33.8672427 308.7254,32.6941835 C308.2304,32.3590238 307.8992,32.3229851 307.4384,32.571652 C307.0136,32.7986957 306.5762,32.9897007 306.0758,32.9987104 C305.7284,33.0059181 305.3144,33.0203336 305.3144,33.4690152 C305.3144,33.8330059 305.6492,34.0240109 305.9858,34.1519483 C306.3026,34.2744798 306.6428,34.3627745 306.929,34.5339583 C307.2332,34.7159536 307.3592,35.0024612 307.2926,35.389877 C307.1198,36.3935543 305.003,37.3377678 304.1426,36.7827721 C303.842,36.5899651 303.5594,35.9214476 303.1814,36.3701292 C302.3876,37.3143426 301.1762,37.1737918 300.2168,37.6531063 C299.5094,38.0062854 298.9982,39.0207743 298.0928,38.6333584 C297.2792,38.2837832 297.3656,37.1377531 296.7158,36.5467187 C296.6744,36.5088781 296.6942,36.4133756 296.6636,36.3557137 C296.1218,35.335819 295.5224,35.2367126 295.0148,36.2475976 C294.5882,37.0963086 294.1868,37.2242459 293.4524,36.7521392 C292.979,36.4476123 292.5578,36.4205833 292.2032,36.9035017 C291.8198,37.4260626 291.4976,37.4296664 290.8406,37.139555 C289.334,36.4764433 288.8858,36.7161005 288.3098,38.2423387 C288.101,38.7973344 287.8382,39.0081607 287.2568,38.8676099 C286.6484,38.7216532 285.8312,38.5937159 286.1228,37.7918552 C286.661,36.3088634 285.2984,35.6475536 284.8304,34.6150453 C284.6774,34.2798856 283.9808,34.1465425 283.8476,34.6654995 C283.4552,36.1989454 282.4688,35.6223265 281.6264,35.2961764 C280.4402,34.8384852 280.46,34.7898329 279.8912,35.9971288 C279.4304,36.9737771 278.8436,37.1359512 277.9634,36.5016704 C277.688,36.3034576 277.481,36.0223559 277.22,35.8079257 C276.293,35.0421037 275.6846,35.0132728 275.3282,36.0908294 C274.9448,37.2440672 274.1582,36.701685 273.5858,36.7827721 C272.801,36.894492 272.6498,36.1953416 272.5148,35.5898917 C272.4302,35.2042778 272.3564,34.7952387 272.1674,34.4546732 C271.883,33.9447258 271.442,33.8564311 270.992,34.2997069 C270.704,34.5844124 270.4628,34.9159683 270.1712,35.198872 C269.1362,36.2025493 267.761,36.0025346 266.4866,36.1538971 C265.511,36.2710228 264.9962,35.6871961 264.4958,34.9970554 C264.1016,34.4510693 263.6246,34.3898036 263.1962,35.033094 C262.9856,35.3502344 262.8362,35.798916 262.28,35.6475536 C260.6744,33.3897301 260.5826,33.3572953 258.3326,34.3303397 C258.1382,33.6365951 257.6576,33.0311452 258.1742,32.2563136 C258.5576,31.6832985 258.0842,31.7769991 257.7458,31.8364629 C257.2976,31.9121441 256.8242,31.9680041 257.0132,31.3102981 C257.4038,29.9624514 255.8414,29.8146928 255.5444,28.9858031 C255.1718,27.9424832 254.5328,27.9352755 253.6382,27.97672 C252.6806,28.0217683 251.7356,27.8974349 250.778,28.196556 C250.0004,28.4380151 249.1472,28.5425273 248.5406,27.7010241 C248.2634,27.3172121 247.8422,27.2955889 247.4822,27.6469661 C247.2356,27.8884252 246.944,28.3010681 247.2338,28.5154983 C248.1554,29.1948275 247.5074,29.753427 247.1996,30.3588769 C246.8306,31.0832544 246.6848,31.8238494 246.7064,32.6563429 C246.7424,34.1339289 245.81,35.2961764 244.3862,35.0979637 C243.0542,34.9141664 243.0272,35.5394375 242.8562,36.3304866 C242.786,36.6566367 242.8004,37.0098158 242.6762,37.3125407 C242.5214,37.6855411 242.2766,38.1017879 241.7996,37.5864347 C241.1804,36.9143133 240.7466,37.2638885 240.7394,37.9089809 C240.725,38.9973491 240.0878,39.0496052 239.2472,39.083842 C239.2472,38.5540733 239.429,37.8441113 239.2184,37.7071643 C237.7892,36.7827721 238.493,35.2565339 238.0412,34.0708612 C237.8234,33.4996481 238.007,32.8905944 237.0188,33.0311452 C236.4446,33.1140342 236.5922,32.5482269 236.4716,32.1806323 C236.1206,31.121095 236.9414,30.1444468 236.7308,29.1677985 C236.3096,28.9767934 236.0846,29.1425714 235.8488,29.2795184 C234.7238,29.9318185 234.2,31.531936 232.4828,31.2796653 C232.256,31.2472304 232.2794,31.5373418 232.283,31.7373565 C232.3046,32.8599615 232.364,33.9501316 230.7026,34.1159096 C230.2958,34.1555521 229.8494,34.7988426 229.619,35.2565339 C229.313,35.8709934 230.0978,35.9340611 230.3606,36.2728247 C230.5712,36.5449168 230.375,36.9125113 230.1374,36.8620572 C229.2158,36.6710522 227.8874,36.7251102 227.5382,35.9664959 C227.0666,34.9411954 226.343,34.9303838 225.5258,34.7537943 C223.994,34.4240403 223.8662,34.3843978 223.5368,35.7917083 C223.2578,36.9881926 222.5216,37.6188695 221.5136,38.125213 C221.024,38.370276 220.475,38.4099186 220.2644,37.8927635 C219.7784,36.7142986 218.5724,36.1340758 218.0198,34.9141664 C217.559,35.609713 216.983,36.0908294 217.3106,36.8422359 C217.6076,37.5269709 217.019,37.7918552 216.7022,38.1828749 C216.4484,38.4964114 216.0902,38.3090103 215.7662,38.3360393 C213.905,38.4946095 213.9446,38.509025 213.5144,36.8368301 C213.365,36.2548054 213.2642,35.5520511 212.5766,35.170041 C211.8188,35.991723 212.0492,37.440478 210.5732,37.6134637 C210.9098,36.5467187 209.882,35.5304279 210.7172,34.5177409 C211.0844,34.0744651 211.088,33.474421 210.413,33.1753 C209.7938,32.899604 209.2124,33.1753 209.0756,33.7230879 C208.865,34.5645912 208.442,34.7375768 207.6464,34.597026 C207.4448,34.5609873 207.1082,34.7790213 206.9642,34.9736302 C206.2586,35.9232495 205.6934,35.5358337 204.9248,34.980838 C204.3992,34.5988279 204.1958,33.8510253 203.5784,33.6978609 C202.8116,34.0690593 203.2562,34.81506 202.8116,35.3430267 C202.7486,35.006065 202.709,34.8132581 202.6784,34.6186492 C202.5848,34.0186051 202.5146,33.3050392 201.8144,33.1590825 C201.1358,33.0167298 200.7182,33.6690299 200.3582,34.103296 C199.7228,34.87092 199.3358,35.827747 198.4664,36.4259891 C197.5394,34.9231761 197.5394,34.9231761 195.9032,35.8187373 C195.2462,34.7447846 193.6478,33.8384117 193.0502,34.3609726 C191.9936,35.2853648 191.7236,34.7249633 191.3366,33.831204 C191.0486,33.1662903 190.6076,32.5590385 190.2098,31.942777 C189.704,31.1607376 189.1964,30.4093311 190.4888,29.8453257 C190.7588,29.726398 190.667,29.3588035 190.7768,29.1497791 C191.4338,27.893831 189.9632,27.7352608 189.5564,27.1063858 C189.6824,26.9406079 189.713,26.8703324 189.767,26.8378976 C189.9398,26.7315835 190.1108,26.609052 190.3034,26.5477862 C191.8154,26.0648679 193.2284,25.104437 194.8124,26.7243758 C195.653,27.5820964 197.3792,26.71897 197.5484,25.459418 C197.6456,24.7530598 197.8472,24.3079821 198.5474,24.1602235 C201.6812,23.5043195 204.869,23.4592711 207.9884,23.9800301 C210.5534,24.4088904 213.1472,24.693596 215.6996,25.2251666 C216.6176,25.4179735 217.6238,25.2648091 218.5832,25.185524 C218.9216,25.158495 219.4562,25.0846157 219.2654,24.3800595 C216.821,24.1548177 214.3568,23.6881168 212.2382,22.4303667 C210.548,21.4248875 208.9208,21.5528248 207.1766,21.8951923 C206.975,21.9348349 206.777,22.0231296 206.5754,22.0321393 C206.3864,22.041149 206.075,22.0321393 206.0228,21.931231 C205.4972,20.918544 204.6836,21.5330036 204.0248,21.6285061 C203.2832,21.7348202 202.5794,22.0573664 201.8468,22.2411637 C201.4922,22.3312604 201.1286,22.286212 201.1898,21.7780666 C201.3158,20.727539 200.7722,20.8969208 200.0648,21.1275684 C198.7364,21.5564287 197.498,22.0789896 196.8284,23.3853918 C196.3982,23.0412224 196.5818,22.2357579 195.6728,22.5637099 C192.4634,23.7205516 189.2756,22.724082 186.086,22.3438739 C185.5748,22.2844101 185.0708,22.1150283 185.0456,21.5582306 C185.0006,20.536534 184.277,19.5130354 184.9808,18.4985465 C185.3516,18.7219863 185.7026,19.114808 186.0392,19.1057983 C187.9562,19.0463345 189.8768,18.9400203 191.783,18.7364018 C192.341,18.676938 192.5858,18.1651887 191.9792,17.7399322 C191.225,17.2119655 191.2124,16.6335447 191.5526,15.8370898 C191.9522,14.9090937 191.675,14.5234798 190.6688,14.3504941 C189.9092,14.2207549 189.1532,14.2946342 188.4242,14.5433011 C187.1264,14.9847749 185.7728,15.2712825 184.5308,15.8785343 C183.8378,16.2172979 183.0854,16.4209164 182.3492,16.0190851 C180.6014,15.06406 178.859,15.7091525 177.1184,16.0064716 C176.7188,16.0731431 176.2238,16.2227037 176.1086,16.6227331 C175.7018,18.0426571 174.5444,17.9057102 173.4428,17.9237295 C171.5816,17.9543624 169.6916,17.9399469 168.0086,18.8463198 C166.8494,19.4733928 165.7766,20.1941665 164.3492,19.6301611 C164.0396,19.5076296 163.6274,19.6247553 163.5284,20.0301905 C163.4528,20.3347174 163.7372,20.482476 163.9676,20.6248288 C164.243,20.7924086 164.6318,20.8951189 164.396,21.4140759 C163.4366,21.9546561 162.4772,22.6934491 161.246,22.6592124 C159.5738,22.6105602 157.9358,22.8556232 156.3194,23.1565462 C153.434,23.6971264 150.5468,24.309784 148.2806,26.3513754 C147.9764,26.6252694 147.6488,26.6000423 147.3608,26.3441677 C147.0476,26.063066 147.1556,25.7585391 147.3698,25.4576161 C147.6398,25.0810119 148.2968,24.8647798 148.0376,24.2106777 C146.9594,24.1602235 146.5418,25.3927465 145.56026,25.2179588 C144.98732,25.1152486 144.44516,24.9062242 144.17804,25.5981669 C143.92748,26.2468632 144.23402,26.7622164 144.7499,27.1766612 C144.99722,27.374874 145.38764,27.4703765 145.26902,28.03258 C144.1091,28.5389234 143.51024,29.3479919 143.606,30.8147662 C143.65676,31.5950037 143.7599,32.8653673 142.44518,33.4005417 C142.02596,32.7140048 142.84082,32.025666 142.30514,31.4364335 C141.67334,30.7408869 140.85902,31.2814672 140.1554,31.1012738 C140.08898,31.0832544 140.02094,31.0706409 139.95272,31.0616312 C138.40004,30.8688243 138.40004,30.8688243 137.75078,32.2743329 C137.1152,32.133782 137.036,31.2652498 136.30268,31.2364188 C135.67952,31.4526509 135.5339,32.1445936 135.03404,32.490565 C134.60654,32.7860822 134.1236,32.8509518 133.67522,32.5806617 C133.28894,32.3482122 133.0796,31.8490764 133.30802,31.5355399 C133.88654,30.7426889 133.66982,29.9065914 133.7006,29.0632863 C133.72562,28.3767494 134.14106,27.8109421 134.66756,27.3442411 C135.2477,26.8306899 135.77582,26.636081 136.12052,27.5676809 C136.24472,27.5172268 136.39214,27.4956036 136.4897,27.4145165 C137.07434,26.9352021 137.5724,26.3820083 137.87804,25.6936695 C138.01448,25.3873407 138.11942,25.0251519 137.77652,24.7818908 C137.52956,24.6053012 137.26136,24.7728811 137.0054,24.8719875 C136.34264,25.1260602 135.89714,25.7963797 135.0236,25.8342203 C136.04798,24.8323449 135.98714,23.65388 135.85574,22.4609996 C135.812,22.0627722 135.7049,21.6591389 135.74378,21.2699212 C135.81722,20.534732 135.4592,20.1491181 134.80238,19.9130648 C134.47964,19.797741 134.15114,19.6770114 133.86044,19.5022238 C133.38254,19.2175182 133.43906,18.8192908 133.8248,18.5363871 C134.08148,18.347184 134.4611,18.3219569 134.77646,18.1994254 C135.0839,18.0804978 135.15716,17.8300289 135.05888,17.5471253 C134.96168,17.2678255 134.69438,17.0281682 134.43716,17.1795307 C133.10444,17.9669759 131.27222,17.7165071 130.22444,19.0661557 C129.4796,20.0247847 128.306,20.3275096 127.32554,20.9257518 C126.85592,21.2122593 126.51536,21.1059452 126.02234,20.8554763 C124.63652,20.1509201 123.79934,20.4176063 122.9519,21.713197 C121.72214,23.5944162 120.3662,25.3116594 117.97472,25.897288 C117.55496,26.0018002 117.30458,26.3766025 117.15032,26.7514048 C116.82524,27.5406519 116.1398,28.0361838 115.50926,28.5191022 C115.00868,28.9029141 114.3272,29.4867408 113.66552,29.126354 C112.8296,28.6722666 111.98774,29.0236437 111.03662,28.7047014 C111.92636,29.890374 111.6713,30.6634038 110.45396,31.1553318 C109.85582,31.396791 109.86374,31.7806029 110.1008,32.2923522 C110.25092,32.6167004 110.13356,32.9842949 109.78184,33.1428651 C109.33616,33.3428798 108.97004,33.0870052 108.70598,32.7662609 C108.542,32.5680482 108.461,32.2941542 108.38198,32.0436853 C107.69222,29.8453257 107.85728,27.8289614 109.6625,26.1225298 C110.36486,25.459418 110.97038,24.7080115 111.14984,23.4214305 C110.23202,23.9097547 109.81046,24.4106924 109.55144,25.0395674 C109.18118,25.9351286 108.4124,26.5405785 107.84936,27.2955889 C107.507,27.7550821 107.01902,28.1569134 106.45652,27.8505846 C105.95774,27.5784926 105.44474,27.1460284 105.76676,26.3964238 C105.8654,26.1675781 105.84578,25.8684571 105.80996,25.6107805 C105.67622,24.6521515 105.27338,24.4124943 104.33288,24.9458668 C103.80782,25.2431859 103.48202,25.0611906 103.01672,24.9801035 C102.20798,24.8359488 101.7362,25.2774227 101.8442,25.9135054 C102.09044,27.3604585 102.09116,27.4703765 100.7066,27.4938016 C99.8093,27.5082171 99.28172,27.922662 98.78924,28.4740538 C98.20802,29.124552 97.68962,29.8309102 97.16168,30.5246549 C96.95486,30.7967469 96.7988,31.1102834 96.22334,30.7372831 C97.26986,29.5155717 97.43654,28.1515076 96.65336,26.6721197 C95.39696,27.0162891 93.98504,26.3657909 92.75294,27.3009947 C93.02672,26.3748006 93.41714,25.6396114 94.32902,25.2882343 C94.7792,25.1152486 95.01788,24.8233353 94.69946,24.3638421 C94.43486,23.981832 94.07396,23.8574986 93.63746,24.1097694 C93.46034,24.2124796 93.26882,24.3079821 93.12554,24.446731 C92.28476,25.2648091 91.35236,25.6594327 90.13556,25.2738188 C89.50034,25.0720022 88.86368,25.2467898 88.52348,25.8522397 C88.21136,26.4090373 87.90392,26.1783897 87.53276,25.9729692 C87.00356,25.6810559 86.89862,25.2557995 87.20624,24.7945043 C87.61718,24.1782429 88.13252,23.6286529 88.5449,23.0141934 C89.01002,22.3204488 89.87978,22.3600913 90.45218,21.9510523 C91.31546,21.3347908 89.58584,20.6140171 90.3809,19.8139584 C90.65828,19.5346586 91.09658,18.9976822 90.39692,18.648107 C89.8175,18.3561937 89.41304,18.676938 88.96376,19.0841751 C88.20794,19.770712 87.55058,20.6626694 86.3183,20.6500558 C85.95614,20.646452 85.61972,20.9834136 85.59182,21.2861386 C85.43792,22.9637393 83.82224,23.1385269 82.79534,23.9079527 C82.49132,24.1367984 82.2125,24.1025616 81.99164,23.6899187 C81.42014,22.6231737 80.99372,22.4718112 80.31818,23.3637686 C79.00526,25.0972293 77.23388,25.6269979 75.18746,25.6828579 C74.5625,25.3062536 75.50588,24.7008038 75.03392,24.3260015 C74.46746,24.3133879 74.297,25.0359635 73.58456,24.8017121 C73.57358,23.6610878 73.88462,22.5763234 74.80064,21.8086995 C75.4247,21.2861386 75.7001,20.6356404 75.98234,19.9707267 C76.49696,18.758025 76.60154,17.3471106 77.96216,16.5794866 C78.27716,16.4028971 78.25322,15.9830464 78.0365,15.6785196 C77.74724,15.2748863 77.30318,15.2406496 76.9565,15.5217513 C76.11338,16.2064863 75.32966,16.9578928 74.50742,17.6660529 C74.13302,17.9885991 73.86464,18.5796335 73.10972,18.2498796 C73.01306,15.9001575 75.91412,14.5523107 75.36476,11.9755449 C74.21168,12.2152022 74.03456,13.0458938 73.83422,13.9018125 C73.6877,14.5270837 73.61282,15.1343355 72.58772,15.1703741 C71.68538,15.202809 71.08274,16.7020182 71.46254,17.5110866 C72.05726,18.7778463 72.11144,18.9616436 71.17292,19.3346439 C70.31468,19.6770114 69.92138,20.3239058 69.39848,20.9275537 C69.08042,21.2951482 68.83634,21.7744627 68.2679,21.9816852 C68.17952,20.8392589 69.1085,20.0572195 69.02048,18.9634455 C68.12408,18.7778463 67.13462,19.9418957 66.41642,18.7418076 C66.38744,18.6931554 66.12662,18.7129766 66.02474,18.7778463 C64.92494,19.467987 63.55262,19.5959244 62.50142,20.3815676 C62.21756,20.5923939 61.9076,20.891515 62.36336,21.1437858 C63.02792,21.5113803 63.07022,21.9348349 62.6105,22.4195551 C62.20028,22.8538213 62.3216,23.6682955 61.5674,23.819658 C61.1633,23.900745 60.5225,23.844885 60.70052,23.3349377 C61.15646,22.0303374 60.50918,21.410472 59.21714,21.0681045 C60.40712,19.3977116 61.45706,17.9129179 62.52032,16.4353319 C62.97734,15.8010511 63.2972,15.1541567 62.84432,14.3991463 C62.75036,14.2423781 62.58224,14.0856098 62.41178,14.024344 C62.19272,13.943257 62.01722,14.1126388 61.92506,14.298238 C61.80734,14.5378953 61.69772,14.7865622 61.63256,15.0424368 C60.98564,17.5741543 59.27744,19.359871 57.242,20.9131382 C56.61524,21.3906508 55.90622,21.7744627 55.2125,21.0915297 C54.48926,20.3815676 53.98526,20.7491622 53.51132,21.3095637 C52.59116,22.3979319 51.72518,23.5349524 51.22478,24.8683836 C50.81546,25.9585538 49.97846,26.5585978 48.99908,27.10098 C48.44666,27.4055069 48.18458,27.2703618 47.79506,26.8487092 C46.84628,25.8216068 46.79786,24.7350405 47.75186,23.2394352 C48.74996,21.6735544 48.74996,21.6735544 47.59598,20.235611 C47.05184,20.5113069 46.81064,21.0050369 46.77122,21.5420132 C46.70228,22.4826228 46.38962,23.1943868 45.42968,23.6034259 C44.88302,23.8358754 44.81606,24.2791512 45.27416,24.7278328 C45.52616,24.9746977 45.77654,25.2972439 45.3575,25.5495147 C44.99732,25.7639449 44.72372,25.4395967 44.5106,25.1819202 C44.21072,24.8197314 43.95422,24.4413252 43.52942,24.1728371 C42.38174,23.4430537 42.3587,23.3962034 43.14926,22.3168449 C44.29712,20.7473603 45.506,19.2211221 46.68554,17.6750626 C46.85384,17.4552266 47.00468,17.1777288 46.83836,16.9362696 C46.57286,16.5506557 46.2134,16.7362549 45.956,16.9560909 C44.96456,17.801198 43.83794,18.4408846 42.70592,19.0823731 C42.26708,19.332842 41.93246,19.7400791 42.02984,20.3383212 C42.95144,20.2247994 43.34204,19.2751801 44.72174,19.3941077 C43.20128,20.0752388 42.95,21.3582159 41.97476,22.0033084 C40.16702,23.1997926 38.28026,24.2665376 37.53578,26.4901243 C37.2998,27.1964825 36.53498,27.5244345 35.9282,26.745999 C35.29532,25.9351286 34.814,26.2558729 34.24988,26.7622164 C33.77018,27.1928787 33.30164,27.6956183 32.51,27.5064152 C32.86046,25.268413 32.61584,25.0557848 30.50606,25.6954714 C30.0494,25.8342203 29.61884,26.0576601 29.18576,26.2612787 C28.86482,26.4126412 28.48142,26.5874288 28.21304,26.3513754 C27.01928,25.2990459 25.90454,26.1009066 24.76568,26.4198489 C24.42728,28.5857737 24.03506,28.9533683 21.67418,29.3245667 C21.60506,29.0650882 21.8171,28.989407 21.97928,28.879489 C22.32254,28.6470395 22.71404,28.3803532 22.5848,27.9352755 C22.43882,27.430734 21.9008,27.6505699 21.52964,27.5496616 C20.08496,27.155038 18.9443,27.4253282 17.83442,28.5335176 C16.87898,29.4867408 15.65228,30.330046 13.93904,29.7101806 C14.68496,28.5677544 14.94632,27.4721784 14.76002,26.3838102 C13.3238,25.9675634 13.06514,27.4613668 12.03914,27.7406666 C11.6237,26.773028 10.95014,26.0648679 11.19026,24.91163 C11.32022,24.2863589 10.8947,23.5277446 11.03096,22.77814 C11.09432,22.4303667 10.7993,22.1384534 10.4267,22.0825935 C9.97958,22.01412 9.72722,22.3997339 9.78428,22.6934491 C10.03646,23.9854359 8.92154,24.3332092 8.24564,25.0269538 C7.45976,25.8360223 5.99294,25.8810706 5.70026,27.2235115 C5.59496,27.7046279 5.34872,28.113667 4.72502,28.0451935 C4.1015,27.97672 3.69488,27.6235409 3.60182,27.0379123 C3.4922,26.3477715 3.54944,25.6306018 2.98316,24.9837074 C3.67004,24.8719875 4.15424,24.8395527 4.60802,24.7080115 C5.03642,24.5818761 5.33792,24.2683396 5.1563,23.7962328 C4.97252,23.3187203 4.83464,22.5294731 4.17872,22.7132704 C3.1817,22.9943721 2.0243,22.8502174 1.16534,23.4610731 C1.36928,24.1854506 1.99982,23.6322568 2.30762,24.1728371 C1.21502,24.4251078 0.31232,24.9963209 -0.61252,25.5495147 C-1.2382,25.924317 -2.068,26.3171387 -2.73328,26.2216362 C-4.29874,25.9963944 -5.7013,26.1279356 -7.0477,26.9514195 C-7.30366,27.1081877 -7.97164,27.1352168 -7.86976,26.7550087 C-7.54792,25.5549205 -8.92024,25.2828285 -9.00214,24.4377214 C-8.85004,22.8448116 -6.22852,22.8303961 -6.6166,20.64465 C-8.46286,21.2897424 -9.22984,23.3061067 -11.17726,23.6773052 C-10.51684,22.122236 -10.51684,22.122236 -12.56758,22.313241 C-12.37444,24.0863442 -12.65146,24.7638714 -13.78186,25.2972439 C-14.1145,25.4540122 -14.5825,25.5549205 -14.65126,25.160297 C-14.80444,24.284557 -15.04474,24.4413252 -15.67762,24.8197314 C-16.64458,25.3999542 -16.90684,25.2287705 -17.32012,24.2232912 C-17.54332,23.680909 -17.56546,23.217812 -17.13994,22.7421014 C-16.80244,22.3636952 -16.21366,22.1060186 -16.3312,21.4501146 C-17.23354,21.4573223 -17.61982,21.5618345 -18.50794,22.0339412 C-18.88756,21.5798538 -17.79694,21.136578 -18.4849,20.671679 C-20.1355,21.8447382 -20.5873,22.3907242 -20.9923,24.0773345 C-21.14818,24.7260308 -21.5062,25.0557848 -22.10344,25.0143403 C-22.8967,24.9584803 -23.58466,25.2215627 -24.31114,25.4197755 C-24.63856,25.5080702 -25.14868,25.7405197 -25.27792,24.8431565 C-23.6068,25.0864177 -23.45002,23.9674166 -23.17948,22.4934344 C-24.30592,22.9295025 -25.17928,23.2664642 -26.05264,23.6034259 C-26.42146,23.7457787 -26.82142,24.1782429 -27.18232,23.8611024 C-28.1725,22.9907683 -28.64338,23.8484889 -29.2093,24.3602382 C-29.9968,25.0738041 -30.75604,25.816201 -31.95142,26.0558582 C-31.86826,25.1909298 -30.83902,24.8179295 -31.25482,23.8574986 C-32.16796,24.0034552 -33.02764,24.5350258 -34,24.4124943 L-34,65.7236361 C326,65.7236361 686,65.7236361 1046,65.7236361 L1046,35.6439497 C1045.3844,35.6061091 1044.7598,35.6133168 1044.155,35.5178143 L1044.155,35.5178143 Z" fill="#B3AAC6" mask="url(#mask-2)"></path>
        </g>
    </g>
</svg>