<?xml version="1.0" encoding="UTF-8"?>
<svg width="439px" height="290px" viewBox="0 0 439 290" version="1.1" xmlns="http://www.w3.org/2000/svg" xmlns:xlink="http://www.w3.org/1999/xlink">
    <title>T_L</title>
    <g id="Page-1" stroke="none" stroke-width="1" fill="none" fill-rule="evenodd">
        <g id="T_L" transform="translate(1.000000, 1.000000)">
            <path d="M111.907331,82.0384496 L108.043067,78.2475866 L106.49688,78.2475866 L102.635021,82.0384496 C100.203925,164.177984 90.6093931,236.591705 69.4557341,282.478117 L145.084213,282.478117 C123.930554,236.591705 114.336022,164.177984 111.907331,82.0384496" id="Fill-7" fill="#F1D3BB"></path>
            <path d="M110.147131,74.9548425 L180.901395,145.531291 C184.62138,125.845344 178.470299,105.839909 164.203542,91.6104479 C149.93919,77.3814663 129.884454,71.2447488 110.147131,74.9548425 Z" id="Path" stroke="#000000" stroke-width="1.2"></path>
            <path d="M34.5176896,1.06070442 L105.270511,71.6337954 C105.359483,71.1516847 105.44605,70.6642971 105.525404,70.1735516 C104.517857,63.72694 104.517857,57.1865448 105.525404,50.7262614 C103.48386,38.1556447 97.6261458,26.744972 88.5748229,17.7165497 C74.3092685,3.48756812 54.2542915,-2.65010882 34.5176896,1.06070442 Z" id="Fill-10" stroke="#000000" stroke-width="1.2"></path>
            <path d="M106.037593,75.4592598 L1.27059162,75.4592598 C0.807937989,75.4592598 0.381834955,75.2086102 0.158203002,74.8046926 C-0.0651884866,74.4005351 -0.0512415476,73.907391 0.19523453,73.5169053 C11.838524,55.0595012 31.8232853,44.0400336 53.6540922,44.0400336 C65.5743967,44.0400336 77.1883495,47.3783504 87.240726,53.6947201 C87.3208007,53.7450899 87.3951042,53.8040945 87.4617129,53.8710143 L106.93693,73.295758 C107.300031,73.6581806 107.40824,74.2033734 107.211059,74.6768493 C107.013879,75.150565 106.552187,75.4592598 106.037593,75.4592598 L106.037593,75.4592598 Z" id="Path" stroke="#000000" stroke-width="1.2"></path>
            <path d="M78.640274,75.4592598 C67.5765039,77.9921399 57.4748321,83.5750297 49.4187916,91.6104479 C35.1534776,105.839909 29.0007134,125.845344 32.7209391,145.531291 L102.969266,75.4592598 L78.640274,75.4592598 Z M167.764821,6.08869327e-05 C151.891762,6.08869327e-05 136.578985,6.2137722 125.048714,17.7165497 C110.950282,31.7790711 104.775154,51.4839667 108.223415,70.9451686 C113.015872,64.1258207 119.200618,58.2301585 126.260654,53.7709944 L179.105125,1.06070442 C175.322619,0.349771035 171.525685,6.08869327e-05 167.764821,6.08869327e-05 Z" id="Fill-12" stroke="#000000" stroke-width="1.2"></path>
            <path d="M135.266049,72.9244609 L210,72.9244609 C198.674124,56.3811081 180.143932,46.5745927 159.968963,46.5745927 C140.02965,46.5745927 121.696639,56.1532448 110.337098,72.3464077 C118.560982,70.9055923 127.114303,71.097717 135.266049,72.9244609 Z" id="Path" stroke="#000000" stroke-width="1.2"></path>
            <path d="M108.528805,241.792405 L82.7933357,241.792405 C82.09142,241.792405 81.5227215,241.523037 81.5227215,241.192295 C81.5227215,240.860416 82.09142,240.591049 82.7933357,240.591049 L108.528805,240.591049 C109.228556,240.591049 109.798457,240.860416 109.798457,241.192295 C109.798457,241.523037 109.228556,241.792405 108.528805,241.792405" id="Fill-14" fill="#231F20"></path>
            <path d="M106.037593,97.4499007 L101.469249,97.4499007 C100.767574,97.4499007 100.198635,97.1810507 100.198635,96.8492227 C100.198635,96.5173947 100.767574,96.2485447 101.469249,96.2485447 L106.037593,96.2485447 C106.739749,96.2485447 107.307245,96.5173947 107.307245,96.8492227 C107.307245,97.1810507 106.739749,97.4499007 106.037593,97.4499007" id="Fill-15" fill="#231F20"></path>
            <path d="M106.037593,127.389935 L99.7775814,127.389935 C99.0759061,127.389935 98.5069672,127.121084 98.5069672,126.789256 C98.5069672,126.457542 99.0759061,126.188578 99.7775814,126.188578 L106.037593,126.188578 C106.739749,126.188578 107.307245,126.457542 107.307245,126.789256 C107.307245,127.121084 106.739749,127.389935 106.037593,127.389935" id="Fill-16" fill="#231F20"></path>
            <path d="M144.624926,283 L68.996687,283 C68.5650533,283 68.1627562,282.781731 67.9290248,282.419548 C67.6950529,282.059764 67.6611474,281.604038 67.8390911,281.210674 C87.0897144,238.775338 98.2148029,170.406764 100.905119,78.0074907 C100.914738,77.6841647 101.047715,77.3766692 101.276877,77.1483262 L105.138256,73.295758 C105.376316,73.0578208 105.700943,72.9244609 106.037593,72.9244609 L107.586184,72.9244609 C107.922834,72.9244609 108.245057,73.0578208 108.483116,73.295758 L112.344976,77.1483262 C112.575822,77.3766692 112.708077,77.6841647 112.717696,78.0074907 C115.408493,170.406764 126.532379,238.775338 145.783964,281.210674 C145.961908,281.604038 145.928243,282.059764 145.692588,282.419548 C145.459337,282.781731 145.057762,283 144.624926,283 L144.624926,283 Z" id="Path" stroke="#000000" stroke-width="1.2"></path>
            <path d="M176.330166,283 L37.2924091,283 C36.5907337,283 36.0217948,282.43394 36.0217948,281.73356 C36.0217948,281.03318 36.5907337,280.464721 37.2924091,280.464721 L176.330166,280.464721 C177.032322,280.464721 177.599818,281.03318 177.599818,281.73356 C177.599818,282.43394 177.032322,283 176.330166,283" id="Fill-18" fill="#231F20"></path>
            <path d="M424.468139,225 C420.757636,225 417.738567,229.014982 417.738567,233.949998 C417.738567,234.920259 417.857155,235.87896 418.090785,236.799791 C418.149488,237.031394 418.086845,237.277746 417.924525,237.451947 C416.342696,239.148508 415.471606,241.365279 415.471606,243.694861 C415.471606,244.71216 415.639048,245.715906 415.968415,246.677397 C416.041695,246.890663 416.008207,247.126252 415.878981,247.310418 C413.430396,250.794827 411.968336,255.32404 411.968336,259.425923 C411.968336,266.634714 416.641333,270.938702 424.468139,270.938702 C432.295733,270.938702 436.968336,266.634714 436.968336,259.425923 C436.968336,255.32404 435.506276,250.794827 433.057691,247.310418 C432.928465,247.126252 432.894977,246.890264 432.968257,246.677397 C433.298018,245.716305 433.464672,244.712559 433.464672,243.694861 C433.464672,241.365279 432.593582,239.148508 431.012147,237.451947 C430.850221,237.277746 430.787184,237.031394 430.845887,236.799791 C431.079517,235.87896 431.197711,234.920259 431.197711,233.949998 C431.197711,229.014982 428.179037,225 424.468139,225 Z" id="Fill-72" stroke="#000000"></path>
            <path d="M424.50704,278 C424.231118,278 424.007182,277.687476 424.007182,277.302401 L424.007182,245.296948 C424.007182,244.911474 424.231118,244.599349 424.50704,244.599349 C424.782961,244.599349 425.007182,244.911474 425.007182,245.296948 L425.007182,277.302401 C425.007182,277.687476 424.782961,278 424.50704,278" id="Fill-73" fill="#000000"></path>
            <path d="M423.673087,251.742714 C423.513132,251.742714 423.352388,251.717067 423.22198,251.664863 L419.816811,250.301557 C419.529206,250.186417 419.498475,249.985423 419.747471,249.852639 C419.99686,249.719674 420.432208,249.705304 420.720207,249.820626 L424.125376,251.183749 C424.412982,251.299071 424.444106,251.500065 424.194717,251.632849 C424.058006,251.705425 423.866138,251.742714 423.673087,251.742714" id="Fill-75" fill="#000000"></path>
            <path d="M424.835328,255.905568 C424.621397,255.905568 424.410618,255.860722 424.275877,255.77619 C424.052884,255.636846 424.122619,255.442156 424.431893,255.34143 L428.658904,253.964363 C428.966996,253.863993 429.398405,253.895136 429.621397,254.034836 C429.843996,254.174358 429.774261,254.369048 429.465381,254.469596 L425.23837,255.846663 C425.116236,255.886348 424.975585,255.905568 424.835328,255.905568" id="Fill-76" fill="#000000"></path>
            <path d="M123.59047,197.845598 C123.59155,197.845598 123.59281,197.845598 123.59389,197.845598 C123.59407,197.843796 123.59425,197.841994 123.59461,197.841994 L123.59047,197.845598" id="Fill-3" fill="#102219"></path>
            <path d="M131.30599,188.742226 C131.30833,188.740424 131.31049,188.740424 131.31265,188.738623 C131.31211,188.738623 131.31157,188.736821 131.31103,188.736821 L131.30599,188.742226" id="Fill-4" fill="#102219"></path>
            <path d="M143.55283,179.319913 C143.55301,179.319913 143.55319,179.319913 143.55337,179.321715 C143.55355,179.321715 143.55391,179.321715 143.55409,179.321715 L143.55283,179.319913" id="Fill-5" fill="#102219"></path>
            <path d="M132.28501,183.923855 C132.28663,183.925656 132.28807,183.927458 132.28987,183.92926 C132.29005,183.92926 132.29041,183.92926 132.29059,183.92926 L132.28501,183.923855" id="Fill-6" fill="#102219"></path>
            <path d="M142.44835,175.449358 C142.44979,175.452962 142.45105,175.454764 142.45267,175.458368 C142.45267,175.454764 142.45267,175.45116 142.45267,175.447556 L142.44835,175.449358" id="Fill-7" fill="#102219"></path>
            <path d="M140.73565,183.300385 C140.73817,183.300385 140.74015,183.300385 140.74267,183.300385 C140.74195,183.298583 140.74087,183.296781 140.74033,183.29498 L140.73565,183.300385" id="Fill-8" fill="#102219"></path>
            <path d="M201.84277,216.473993 L201.84277,216.475795 C201.84277,216.475795 201.84457,216.475795 201.84457,216.473993 L201.84277,216.473993" id="Fill-9" fill="#102219"></path>
            <path d="M143.67847,179.631647 C143.67667,179.631647 143.67487,179.633449 143.67307,179.633449 C143.67361,179.635251 143.67379,179.635251 143.67433,179.637053 L143.67847,179.631647" id="Fill-10" fill="#102219"></path>
            <path d="M205.39237,208.936502 C205.39237,208.938304 205.39237,208.940106 205.39237,208.941908 C205.39417,208.940106 205.39597,208.940106 205.39597,208.940106 L205.39237,208.936502" id="Fill-11" fill="#102219"></path>
            <path d="M195.59677,209.565377 C195.59497,209.567179 195.59497,209.568981 195.59317,209.570783 C195.59497,209.570783 195.59857,209.568981 195.60037,209.568981 L195.59677,209.565377" id="Fill-12" fill="#102219"></path>
            <path d="M202.20817,208.102207 C202.20997,208.102207 202.20997,208.104009 202.21177,208.104009 C202.21177,208.102207 202.21177,208.100405 202.21357,208.098603 L202.20817,208.102207" id="Fill-13" fill="#102219"></path>
            <path d="M208.45597,214.484657 L208.45417,214.486459 C208.45597,214.486459 208.45597,214.486459 208.45777,214.486459 L208.45597,214.484657" id="Fill-14" fill="#102219"></path>
            <path d="M203.68417,199.101546 C203.68237,199.099744 203.68057,199.099744 203.67877,199.097942 L203.68417,199.101546" id="Fill-15" fill="#102219"></path>
            <path d="M147.59311,204.336164 C147.59707,204.336164 147.60103,204.334362 147.60499,204.334362 C147.60265,204.33256 147.60049,204.33256 147.59815,204.330759 L147.59311,204.336164" id="Fill-16" fill="#102219"></path>
            <path d="M171.72157,216.36948 C171.72157,216.36948 171.72157,216.36948 171.72157,216.367679 C171.71797,216.367679 171.71617,216.365877 171.71437,216.365877 L171.72157,216.36948" id="Fill-17" fill="#102219"></path>
            <path d="M154.93909,218.355212 C154.93819,218.358816 154.93711,218.36242 154.93639,218.366023 C154.93981,218.364222 154.94251,218.36242 154.94593,218.360618 L154.93909,218.355212" id="Fill-18" fill="#102219"></path>
            <path d="M160.20697,183.296781 C160.20679,183.298583 160.20661,183.298583 160.20661,183.300385 C160.20733,183.300385 160.20823,183.298583 160.20895,183.298583 L160.20697,183.296781" id="Fill-19" fill="#102219"></path>
            <path d="M169.02697,218.989493 L169.02697,218.989493 C169.02517,218.985889 169.02337,218.984087 169.02157,218.982285 L169.02697,218.989493" id="Fill-20" fill="#102219"></path>
            <path d="M184.33057,195.540924 C184.33057,195.540924 184.33057,195.542726 184.33057,195.544528 C184.33237,195.544528 184.33417,195.544528 184.33417,195.542726 L184.33057,195.540924" id="Fill-21" fill="#102219"></path>
            <path d="M170.85937,213.441337 C170.86117,213.441337 170.86297,213.441337 170.86477,213.441337 C170.86477,213.439536 170.86477,213.437734 170.86477,213.435932 L170.85937,213.441337" id="Fill-22" fill="#102219"></path>
            <path d="M173.92117,204.336164 C173.92297,204.334362 173.92477,204.334362 173.92657,204.33256 C173.92657,204.330759 173.92657,204.330759 173.92657,204.328957 L173.92117,204.336164" id="Fill-23" fill="#102219"></path>
            <path d="M168.65257,182.666105 C168.65437,182.667906 168.65437,182.669708 168.65437,182.67151 C168.65797,182.67151 168.65977,182.67151 168.66337,182.67151 L168.65257,182.666105" id="Fill-24" fill="#102219"></path>
            <path d="M168.89917,182.67151 C168.90097,182.67151 168.90277,182.67151 168.90457,182.67151 C168.90457,182.669708 168.90457,182.669708 168.90457,182.667906 L168.89917,182.67151" id="Fill-25" fill="#102219"></path>
            <path d="M174.28657,181.830007 C174.28837,181.831809 174.28837,181.833611 174.28837,181.835413 C174.29017,181.835413 174.29197,181.835413 174.29377,181.835413 L174.28657,181.830007" id="Fill-27" fill="#102219"></path>
            <path d="M185.31157,186.228528 C185.31157,186.228528 185.31157,186.23033 185.31337,186.23033 C185.31337,186.228528 185.31337,186.228528 185.31337,186.226726 L185.31157,186.228528" id="Fill-28" fill="#102219"></path>
            <path d="M352.76557,256.09492 C352.70437,256.139969 352.68097,256.210244 352.66837,256.280519 C352.64317,256.419268 352.62697,256.561621 352.61077,256.702172 C352.60897,256.720191 352.63237,256.758032 352.64317,256.758032 C352.67377,256.758032 352.72057,256.750824 352.73497,256.729201 C352.84297,256.583244 352.91137,256.42107 352.91317,256.222858 C352.89877,256.188621 352.88617,256.141771 352.86097,256.10393 C352.83937,256.075099 352.79617,256.071495 352.76557,256.09492" id="Fill-35" fill="#102219"></path>
            <path d="M354.11377,246.524848 C354.12097,246.560887 354.18757,246.625756 354.26497,246.609539 C354.30097,246.602331 354.32437,246.571698 354.32437,246.533858 C354.32257,246.449167 354.24877,246.382495 354.16057,246.389703 C354.12277,246.393307 354.10117,246.420336 354.11377,246.524848" id="Fill-36" fill="#102219"></path>
            <path d="M344.57017,261.309718 C344.56657,261.291698 344.54677,261.268273 344.52877,261.262867 C344.47477,261.243046 344.41717,261.295302 344.41357,261.360172 C344.41717,261.401616 344.43877,261.428645 344.47657,261.428645 C344.53597,261.430447 344.58277,261.372785 344.57017,261.309718" id="Fill-37" fill="#102219"></path>
            <path d="M344.60437,260.286219 C344.55217,260.279011 344.51437,260.30604 344.51797,260.3619 C344.52157,260.412354 344.55757,260.441185 344.60797,260.446591 C344.65837,260.444789 344.70337,260.428572 344.69977,260.37091 C344.69437,260.320456 344.65297,260.293427 344.60437,260.286219" id="Fill-38" fill="#102219"></path>
            <path d="M378.08797,204.410044 C378.08797,204.408242 378.08797,204.408242 378.08977,204.408242 L378.08437,204.411846 C378.08617,204.410044 378.08617,204.410044 378.08797,204.410044" id="Fill-39" fill="#102219"></path>
            <path d="M337.28657,190.825362 C325.443419,190.825362 313.726445,235.549795 313.726445,251.65438 C313.726445,263.310731 320.992391,268.508407 337.28657,268.508407 C353.58075,268.508407 360.846696,263.310731 360.846696,251.65438 C360.846696,235.549795 349.130418,190.825362 337.28657,190.825362 Z" id="Fill-78" stroke="#000000"></path>
            <path d="M336.363775,288.369325 C336.087775,288.369325 335.863775,287.819173 335.863775,287.141307 L335.863775,230.800521 C335.863775,230.121953 336.087775,229.572502 336.363775,229.572502 C336.640061,229.572502 336.863775,230.121953 336.863775,230.800521 L336.863775,287.141307 C336.863775,287.819173 336.640061,288.369325 336.363775,288.369325" id="Fill-79" fill="#000000"></path>
            <path d="M343.43366,288.369325 L329.85541,288.369325 C329.181307,288.369325 328.635472,287.819173 328.635472,287.141307 C328.635472,286.46344 329.181307,285.913288 329.85541,285.913288 L343.43366,285.913288 C344.107065,285.913288 344.653597,286.46344 344.653597,287.141307 C344.653597,287.819173 344.107065,288.369325 343.43366,288.369325" id="Fill-80" fill="#000000"></path>
            <path d="M334.880506,242.62686 C334.596783,242.62686 334.312363,242.588388 334.081621,242.510079 L328.056525,240.465058 C327.54694,240.292343 327.492566,239.990843 327.933834,239.791661 C328.374406,239.59248 329.144709,239.570652 329.654991,239.743639 L335.680087,241.788387 C336.189673,241.961375 336.244047,242.262876 335.802778,242.462057 C335.561579,242.570925 335.222088,242.62686 334.880506,242.62686" id="Fill-81" fill="#000000"></path>
            <path d="M337.239167,250.656427 C336.860638,250.656427 336.487686,250.566734 336.249275,250.397671 C335.85541,250.118983 335.978101,249.729603 336.524632,249.52815 L344.004591,246.774018 C344.549728,246.573277 345.31306,246.635564 345.706926,246.914963 C346.101488,247.194007 345.978101,247.583387 345.431569,247.784483 L337.95161,250.538616 C337.736204,250.617987 337.48664,250.656427 337.239167,250.656427" id="Fill-82" fill="#000000"></path>
            <path d="M368.16997,226.545002 C368.17357,226.55221 368.18077,226.56122 368.18977,226.568428 C368.18797,226.537795 368.18797,226.507162 368.18797,226.478331 C368.17357,226.499954 368.16457,226.528785 368.16997,226.545002" id="Fill-41" fill="#102219"></path>
            <path d="M322.12957,250.74678 C322.03777,250.591813 322.01077,250.462074 322.20157,250.276475 C321.83797,250.332335 321.79657,250.379185 321.83977,250.586408 C321.87577,250.753987 321.90277,250.921567 321.94777,251.085543 C321.97477,251.181046 321.91897,251.337814 322.09177,251.345022 C322.16377,251.348626 322.26457,251.096355 322.23037,250.991843 C322.20157,250.908954 322.17097,250.815253 322.12957,250.74678" id="Fill-42" fill="#102219"></path>
            <path d="M321.94057,249.935909 C321.89557,250.011591 321.85777,250.035016 321.78217,250.007987 C321.72457,249.986364 321.67057,249.984562 321.62917,250.036818 C321.59497,250.081866 321.55897,250.134122 321.58957,250.191784 C321.61477,250.240436 321.66337,250.218813 321.70657,250.209803 C321.93157,250.162953 322.12777,250.074658 322.25197,249.863832 C322.03777,249.793557 322.02697,249.788151 321.94057,249.935909" id="Fill-43" fill="#102219"></path>
            <path d="M311.83717,186.918669 C311.83717,186.918669 311.83717,186.918669 311.83717,186.920471 C311.83897,186.920471 311.84077,186.922273 311.84257,186.922273 L311.83717,186.918669" id="Fill-44" fill="#102219"></path>
            <polyline id="Fill-45" fill="#102219" points="309.64297 185.087904 309.64477 185.087904 309.64297 185.087904"></polyline>
            <path d="M48.2896304,177.096326 C48.3515504,177.121553 48.4172504,177.144978 48.4831304,177.153988 C48.6508904,177.177413 48.8195504,177.193631 48.9585104,177.269312 C49.0227704,177.287331 49.0753304,177.290935 49.0913504,177.229669 C49.0983704,177.204442 49.0828904,177.159394 49.0618304,177.141374 C48.8685104,176.975597 48.6642104,176.826036 48.4338104,176.716118 C48.3051104,176.654852 48.1665104,176.705306 48.1362704,176.811621 C48.1044104,176.92334 48.1670504,177.045872 48.2896304,177.096326" id="Fill-46" fill="#102219"></path>
            <path d="M49.5348704,176.83865 C49.5055304,176.689089 49.4133704,176.570161 49.2562304,176.505292 C49.2268904,176.878292 49.2268904,176.878292 49.4355104,177.208046 C49.5417104,177.101732 49.5598904,176.964785 49.5348704,176.83865" id="Fill-47" fill="#102219"></path>
            <path d="M51.4349504,178.582922 C51.3444104,178.577516 51.2788904,178.613555 51.2502704,178.703651 C51.3141704,178.700047 51.3784304,178.698246 51.4412504,178.689236 C51.4855304,178.682028 51.5469104,178.67482 51.5253104,178.606347 C51.5199104,178.59013 51.4666304,178.584724 51.4349504,178.582922" id="Fill-48" fill="#102219"></path>
            <path d="M51.2477504,178.709057 C51.2484704,178.707255 51.2495504,178.705453 51.2502704,178.703651 C51.2479304,178.703651 51.2454104,178.703651 51.2430704,178.703651 L51.2477504,178.709057" id="Fill-49" fill="#102219"></path>
            <path d="M4.61245039,128.712953 C4.61353039,128.71025 4.61443039,128.707367 4.61551039,128.704664 C4.61533039,128.704484 4.61533039,128.704304 4.61515039,128.704124 L4.61245039,128.712953" id="Fill-50" fill="#102219"></path>
            <path d="M2.86933039,130.892212 C2.65027039,130.587145 2.66791039,130.282798 2.82523039,129.978271 C2.93701039,129.761859 3.08983039,129.56689 3.26605039,129.299122 C2.91487039,129.360028 2.78545039,129.552655 2.62957039,129.710684 C2.57503039,129.765823 2.50447039,129.806006 2.43697039,129.743299 C2.40619039,129.714829 2.38801039,129.648878 2.39647039,129.606532 C2.45929039,129.289572 2.53291039,128.974774 2.59501039,128.657634 C2.60221039,128.621956 2.56873039,128.556906 2.53633039,128.540688 C2.50393039,128.524471 2.44813039,128.548256 2.40529039,128.562672 C2.38423039,128.56988 2.36425039,128.592764 2.35219039,128.613306 C2.05069039,129.127578 1.88689039,129.65987 2.13583039,130.247841 C2.25427039,130.527681 2.35183039,130.811666 2.19451039,131.109706 C1.88005039,131.706326 2.12863039,132.275017 2.28451039,132.84623 C2.30287039,132.912901 2.35723039,132.979573 2.41339039,133.024621 C2.46631039,133.064264 2.54947039,133.105708 2.60833039,133.093095 C2.69995039,133.073273 2.68429039,132.979573 2.65315039,132.914703 C2.48935039,132.570534 2.44039039,132.199335 2.38621039,131.829939 C2.36353039,131.675874 2.38459039,131.529376 2.48521039,131.407205 C2.55577039,131.321613 2.66953039,131.287917 2.74351039,131.369725 C2.87599039,131.516042 2.97715039,131.690649 3.09883039,131.847958 C3.18505039,131.957876 3.26317039,132.168702 3.42139039,132.087615 C3.61903039,131.984905 3.43543039,131.833723 3.37207039,131.720922 C3.21403039,131.439099 3.05743039,131.153853 2.86933039,130.892212" id="Fill-51" fill="#102219"></path>
            <path d="M99.3603104,114.164137 C99.3577904,114.164858 99.3552704,114.165939 99.3527504,114.16684 L99.3527504,114.16666 C99.3543704,114.168462 99.3561704,114.170083 99.3577904,114.171705 C99.3597704,114.171525 99.3615704,114.171345 99.3633704,114.171165 C99.3621104,114.168822 99.3613904,114.16648 99.3603104,114.164137" id="Fill-52" fill="#102219"></path>
            <path d="M100.15141,113.649865 C100.18579,113.59851 100.18147,113.508774 100.16761,113.442462 C100.16095,113.411109 100.09147,113.376872 100.04737,113.372007 C99.7701704,113.341014 99.5750504,113.493457 99.4044104,113.683561 C99.2730104,113.830058 99.2825504,113.996017 99.3603104,114.164137 C99.6690104,114.061967 99.9622304,113.931688 100.15141,113.649865" id="Fill-53" fill="#102219"></path>
            <path d="M28.1503304,77.8984108 C28.1251304,78.0443675 28.4115104,78.0285105 28.8046304,77.8578673 C28.9169504,77.8090349 29.0260304,77.7519136 29.1333104,77.6928101 C29.1752504,77.6697454 29.2184504,77.63677 29.2427504,77.5971274 C29.2652504,77.5605482 29.2812704,77.5016249 29.2668704,77.4657664 C29.2535504,77.4315297 29.1918104,77.3875625 29.1608504,77.3940494 C28.9938104,77.4284664 28.8296504,77.4772988 28.7860904,77.4888312 C28.2635504,77.702 28.1733704,77.7648875 28.1503304,77.8984108" id="Fill-54" fill="#102219"></path>
            <path d="M28.6253504,77.101055 C28.5542504,77.0988926 28.4808104,77.1035777 28.4118704,77.1201555 C28.2707504,77.1538516 28.1328704,77.2030444 28.0997504,77.3702639 C28.0788704,77.4749563 28.2433904,77.5194641 28.4604704,77.4673882 C28.5069104,77.456036 28.5520904,77.4396384 28.5978104,77.4255833 C28.6379504,77.3998156 28.6854704,77.3808953 28.7158904,77.3468388 C28.7446904,77.3145842 28.7720504,77.2655715 28.7706104,77.225028 C28.7677304,77.1408777 28.7013104,77.1035777 28.6253504,77.101055" id="Fill-55" fill="#102219"></path>
            <path d="M27.2830904,81.5383177 C27.1833704,81.553454 27.0874304,81.5992231 27.0771704,81.7113034 C27.0670904,81.822663 27.1498904,81.886992 27.2492504,81.9120389 C27.5014304,81.9756472 27.7266104,81.8902355 27.9442304,81.7734702 C27.7561304,81.6046289 27.5442704,81.498495 27.2830904,81.5383177" id="Fill-56" fill="#102219"></path>
            <path d="M84.1495904,89.2390634 C84.1927904,89.1988803 84.2208704,89.102657 84.2052104,89.0462565 C84.1602104,88.8862447 83.9512304,88.8338085 83.7809504,88.9249863 C83.7184904,88.9752603 83.6823104,89.0435536 83.7217304,89.1150904 C83.8117304,89.2774446 84.0360104,89.3450172 84.1495904,89.2390634" id="Fill-57" fill="#102219"></path>
            <path d="M4.61245039,128.712953 L4.61515039,128.704124 C4.61137039,128.705745 4.60741039,128.707367 4.60363039,128.708989 C4.60687039,128.710431 4.60921039,128.711512 4.61245039,128.712953" id="Fill-58" fill="#102219"></path>
            <path d="M3.92719039,128.992433 C4.17145039,128.890083 4.38781039,128.799446 4.60363039,128.708989 C4.16317039,128.504469 4.16029039,128.507533 3.92719039,128.992433" id="Fill-59" fill="#102219"></path>
            <path d="M4.08253039,127.444211 C4.17091039,127.425111 4.17235039,127.345826 4.15687039,127.269964 C4.11583039,127.1723 4.05265039,127.099501 3.93763039,127.138784 C3.86113039,127.164731 3.82567039,127.240773 3.85195039,127.316094 C3.88777039,127.418984 3.97777039,127.466736 4.08253039,127.444211" id="Fill-60" fill="#102219"></path>
            <path d="M29.7053509,77.1545724 C29.7055304,77.0542047 29.6581904,76.9756403 29.5777304,76.9192398 C29.5642304,76.9100499 29.5363304,76.9217625 29.5149104,76.9237446 C29.5100504,76.945548 29.4961904,76.9702345 29.5019504,76.9886143 C29.5298504,77.0772694 29.5604504,77.1673661 29.6643104,77.1949357 C29.6743904,77.1974584 29.7053509,77.1688077 29.7053509,77.1545724" id="Fill-61" fill="#102219"></path>
            <path d="M70.5648104,122.950548 C70.4307104,123.08299 70.3509704,123.227866 70.5171104,123.385175 C70.5612104,123.426799 70.6652504,123.457973 70.7115104,123.434367 C70.8744104,123.351478 70.8292304,123.191467 70.8171704,123.048753 C70.8630704,123.057223 70.9087904,123.065692 70.9545104,123.073981 C71.0682704,123.094162 71.1969704,123.134526 71.2731104,123.01776 C71.3512304,122.897932 71.2529504,122.799906 71.1885104,122.704944 C71.1638504,122.668726 71.1355904,122.634669 71.1085904,122.599892 C70.8778304,122.639354 70.7021504,122.764949 70.5648104,122.950548" id="Fill-62" fill="#102219"></path>
        </g>
    </g>
</svg>