<?xml version="1.0" encoding="UTF-8"?>
<svg xmlns="http://www.w3.org/2000/svg" version="1.1" width="1000" height="1000" viewBox="0 0 1000 1000"><rect x="0" y="0" width="1000" height="1000" fill="#ffffff"/><g transform="scale(40)"><g transform="translate(0,0)"><path fill-rule="evenodd" d="M10 0L10 2L11 2L11 3L10 3L10 4L12 4L12 5L11 5L11 6L10 6L10 5L9 5L9 2L8 2L8 8L9 8L9 9L8 9L8 10L3 10L3 9L7 9L7 8L2 8L2 11L1 11L1 12L0 12L0 17L1 17L1 12L2 12L2 14L3 14L3 15L2 15L2 17L4 17L4 16L5 16L5 17L8 17L8 18L9 18L9 19L8 19L8 23L9 23L9 24L8 24L8 25L9 25L9 24L10 24L10 25L11 25L11 24L12 24L12 23L10 23L10 20L12 20L12 19L11 19L11 18L9 18L9 17L11 17L11 16L10 16L10 15L11 15L11 13L12 13L12 17L13 17L13 16L14 16L14 17L16 17L16 20L15 20L15 21L16 21L16 22L17 22L17 23L16 23L16 24L22 24L22 25L25 25L25 24L24 24L24 23L25 23L25 21L23 21L23 22L22 22L22 23L21 23L21 21L22 21L22 19L25 19L25 15L23 15L23 14L22 14L22 15L23 15L23 16L24 16L24 18L22 18L22 19L21 19L21 17L22 17L22 16L17 16L17 15L19 15L19 14L20 14L20 15L21 15L21 13L22 13L22 12L19 12L19 14L17 14L17 15L16 15L16 13L18 13L18 12L14 12L14 10L15 10L15 9L16 9L16 10L17 10L17 11L19 11L19 10L20 10L20 11L21 11L21 9L23 9L23 8L18 8L18 9L16 9L16 8L17 8L17 6L16 6L16 8L15 8L15 9L14 9L14 7L15 7L15 5L17 5L17 4L16 4L16 3L17 3L17 2L16 2L16 3L14 3L14 2L15 2L15 1L16 1L16 0L14 0L14 1L13 1L13 2L12 2L12 0ZM13 4L13 5L12 5L12 6L11 6L11 7L10 7L10 6L9 6L9 7L10 7L10 9L11 9L11 10L12 10L12 6L13 6L13 7L14 7L14 6L13 6L13 5L15 5L15 4ZM0 8L0 9L1 9L1 8ZM13 9L13 10L14 10L14 9ZM18 9L18 10L19 10L19 9ZM24 9L24 10L25 10L25 9ZM8 10L8 11L6 11L6 12L5 12L5 13L6 13L6 14L5 14L5 16L8 16L8 15L10 15L10 13L9 13L9 12L8 12L8 11L10 11L10 12L11 12L11 11L10 11L10 10ZM22 10L22 11L23 11L23 10ZM3 11L3 12L4 12L4 11ZM6 12L6 13L7 13L7 14L6 14L6 15L7 15L7 14L9 14L9 13L7 13L7 12ZM23 12L23 13L24 13L24 14L25 14L25 12ZM13 13L13 14L14 14L14 13ZM14 15L14 16L16 16L16 15ZM17 17L17 20L20 20L20 17ZM14 18L14 19L13 19L13 21L12 21L12 22L13 22L13 21L14 21L14 19L15 19L15 18ZM18 18L18 19L19 19L19 18ZM17 21L17 22L18 22L18 21ZM19 21L19 23L20 23L20 21ZM14 22L14 23L13 23L13 25L15 25L15 24L14 24L14 23L15 23L15 22ZM23 22L23 23L22 23L22 24L23 24L23 23L24 23L24 22ZM0 0L7 0L7 7L0 7ZM1 1L1 6L6 6L6 1ZM2 2L5 2L5 5L2 5ZM18 0L25 0L25 7L18 7ZM19 1L19 6L24 6L24 1ZM20 2L23 2L23 5L20 5ZM0 18L7 18L7 25L0 25ZM1 19L1 24L6 24L6 19ZM2 20L5 20L5 23L2 23Z" fill="#000000"/></g></g></svg>
