<?xml version="1.0" encoding="UTF-8"?>
<svg width="500px" height="125px" viewBox="0 0 500 125" version="1.1" xmlns="http://www.w3.org/2000/svg" xmlns:xlink="http://www.w3.org/1999/xlink">
    <title>04</title>
    <defs>
        <rect id="path-1" x="0" y="0" width="500" height="125"></rect>
        <polygon id="path-3" points="0 0 57 0 57 57.0000285 0 57.0000285"></polygon>
        <polygon id="path-5" points="0 0 57 0 57 57.0000285 0 57.0000285"></polygon>
        <polygon id="path-7" points="0 0 63 0 63 63 0 63"></polygon>
    </defs>
    <g id="Page-1" stroke="none" stroke-width="1" fill="none" fill-rule="evenodd">
        <g id="04">
            <g id="Group-60">
                <mask id="mask-2" fill="white">
                    <use xlink:href="#path-1"></use>
                </mask>
                <g id="Mask"></g>
            </g>
            <g id="Group-39-Copy" transform="translate(21.000000, 3.000000)">
                <g id="Group-66" transform="translate(0.335512, 7.372422)" fill="#E51D74">
                    <path d="M12.1459441,6.938694 C12.6841743,5.925444 13.6250798,5.169444 14.7269504,4.864419 C15.2341006,4.724139 15.5329308,4.197144 15.3929657,3.689259 C15.2522656,3.183894 14.7273704,2.885064 14.2181201,3.023979 C12.6136143,3.468024 11.2440986,4.567794 10.4597482,6.042099 C10.2126831,6.506934 10.3896082,7.086009 10.8542334,7.333494 L10.8545484,7.333494 C10.9924135,7.406784 11.1470786,7.445529 11.3023737,7.445529 C11.6562238,7.445529 11.979414,7.251069 12.1459441,6.938694" id="Fill-4"></path>
                    <path d="M1.90984595,34.345605 L1.90984595,10.376205 L38.1974441,34.345605 L1.90984595,34.345605 Z M15.8468179,1.90953 C19.7018949,1.90953 22.8388764,5.046195 22.8388764,8.901585 C22.8388764,12.75729 19.7018949,15.893955 15.8468179,15.893955 C11.991531,15.893955 8.85444443,12.75729 8.85444443,8.901585 C8.85444443,5.046195 11.991531,1.90953 15.8468179,1.90953 L15.8468179,1.90953 Z M41.900271,34.503735 L41.900586,34.503735 L16.5735233,17.77419 C21.1433356,17.403225 24.7480924,13.56558 24.7480924,8.901585 C24.7480924,3.993255 20.7548354,0 15.8468179,0 C10.9381705,0 6.94491347,3.993255 6.94491347,8.901585 C6.94491347,9.866955 7.09852855,10.8108 7.4025037,11.71653 L1.90984595,8.08836 L1.90984595,4.3806 C1.90984595,3.85434 1.48123574,3.426045 0.954870477,3.426045 C0.428610214,3.426045 0,3.85434 0,4.3806 L0,35.30058 C0,35.82684 0.428610214,36.255135 0.954870477,36.255135 L41.3746407,36.255135 C41.7990509,36.255135 42.1669711,35.98182 42.2894011,35.574525 C42.4095212,35.173845 42.2492911,34.73337 41.900271,34.503735 L41.900271,34.503735 Z" id="Fill-6"></path>
                    <path d="M27.7531099,18.5979675 L31.6646768,21.3602025 C31.2192666,21.4477725 30.8859964,21.8460375 30.8947114,22.3158075 C30.9047915,22.8319875 31.3334017,23.2518825 31.8677469,23.2518825 L34.5898733,23.1994875 C34.6537133,23.1981225 34.7077884,23.1852075 34.7723634,23.1701925 C34.7947284,23.1680925 34.8310584,23.1643125 34.8659184,23.1524475 L34.9078135,23.1353325 C34.9807885,23.1077175 35.0519785,23.0700225 35.1228536,23.0197275 L35.1629636,22.9904325 C35.2323686,22.9356225 35.2924286,22.8738825 35.3398887,22.8082575 L35.3654037,22.7691975 C35.4076137,22.7052525 35.4414237,22.6376325 35.4648387,22.5733725 L35.4930837,22.4892675 C35.5122988,22.4166075 35.5220638,22.3402725 35.5231138,22.2588975 C35.5235338,22.2359025 35.5231138,22.2138525 35.5217488,22.1964225 C35.5168138,22.1001375 35.5025338,22.0190775 35.4771237,21.9423225 L34.6160183,19.3598475 C34.5353783,19.1165625 34.3647532,18.9201075 34.1361681,18.8062875 C33.908528,18.6925725 33.6502278,18.6747225 33.4084127,18.7560975 C33.1669126,18.8367375 32.9706675,19.0066275 32.8565324,19.2345825 C32.7679124,19.4119275 32.7368324,19.6080675 32.7654974,19.8003225 L28.8543504,17.0374575 C28.4246902,16.7345325 27.8281849,16.8371175 27.5234748,17.2670925 C27.2204446,17.6974875 27.3234497,18.2943075 27.7531099,18.5979675" id="Fill-8"></path>
                </g>
                <g id="Group-67" transform="translate(72.000000, 62.000000)" fill="#E51D74">
                    <path d="M26.7654042,37.6362893 C27.6104535,37.2009024 28.4561073,36.7478582 29.299585,36.2751007 C30.3114681,35.7040183 31.3014694,35.1172136 32.2665665,34.518073 C32.1092834,36.3000145 31.8896189,38.0191878 31.6111999,39.652735 C30.0293014,39.068712 28.4066617,38.3938624 26.7654042,37.6362893 M17.4975463,39.8370488 C17.1694399,38.0076984 16.9141117,36.0657522 16.7362766,34.0580142 C18.0192041,34.8720666 19.3510937,35.6649544 20.7211859,36.4293002 C21.4585186,36.8396523 22.1969394,37.2353706 22.9346348,37.6166969 C21.0928141,38.4646127 19.2710619,39.2082776 17.4975463,39.8370488 M10.5363467,27.4827055 C11.8548171,26.4075419 13.2847518,25.3439886 14.7948392,24.3113961 C14.7555486,25.3776101 14.7360847,26.4544669 14.7392279,27.5385801 C14.7427339,28.6228143 14.768847,29.7008804 14.8145449,30.7686667 C13.2828175,29.6920518 11.8491351,28.5910068 10.5363467,27.4827055 M6.56304324,23.7037896 C3.3476245,20.1782447 1.97221303,17.0704293 2.91482385,15.3853613 C4.10937784,13.22294 9.11862232,13.0878492 15.7291083,15.0209667 C15.3382579,17.2893321 15.0605643,19.7076641 14.9007424,22.2101709 C12.8751628,23.5478969 10.96951,24.9434327 9.24652821,26.3563839 C8.26656113,25.4700089 7.36747217,24.5829082 6.56304324,23.7037896 M20.5664415,20.735298 C21.9818689,19.9434987 23.3994724,19.2050342 24.8063163,18.5243795 C26.3249872,19.2419212 27.8507909,20.0254965 29.3764736,20.874259 C30.4055237,21.4423178 31.4113621,22.0308157 32.3925381,22.6351568 C32.4962652,24.2194811 32.5533272,25.8433531 32.5605808,27.4923807 C32.5642076,29.1624521 32.5168172,30.8076096 32.4213109,32.4126148 C31.139955,33.2348912 29.8072191,34.0357611 28.433621,34.8061539 C27.2342313,35.4803988 26.0312147,36.1155798 24.8321876,36.709641 C23.7367667,36.1654074 22.6372355,35.5871895 21.5400012,34.9761967 C19.8148432,34.015443 18.1544845,33.0081272 16.5804441,31.97106 C16.4924333,30.512756 16.4444384,29.02978 16.4394817,27.5385801 C16.4351295,26.0563298 16.4724858,24.5900437 16.5480445,23.1501227 C17.8474137,22.3152684 19.1922389,21.5061746 20.5664415,20.735298 M31.5876256,15.6713863 C31.8550432,17.2318853 32.0691465,18.8686979 32.2278804,20.5611433 C31.5595782,20.1642156 30.8817253,19.7736978 30.1961352,19.3900736 C29.0619073,18.758158 27.9263496,18.1605896 26.7928471,17.5985777 C28.4221361,16.8690629 30.0272462,16.2239647 31.5876256,15.6713863 M38.0168914,13.8854537 C42.7000847,12.9884359 46.054048,13.4524857 46.9971424,15.1377955 C47.9396323,16.8232263 46.5795744,19.9465222 43.3802346,23.4720671 C41.0286037,26.0633444 37.8631142,28.7308144 34.1882981,31.2421498 C34.2413706,30.0044418 34.2662748,28.7472623 34.2608346,27.4769003 C34.2553943,26.2217768 34.2214231,24.9806825 34.1607343,23.7589386 C35.1132584,24.383235 36.0391859,25.0207139 36.9351316,25.6677471 C37.0892715,25.7756263 37.2594903,25.8221885 37.4293464,25.8221885 C37.6922909,25.8221885 37.9393984,25.6987079 38.1096172,25.481982 C38.3876735,25.0958181 38.3105431,24.5700885 37.9239239,24.2915619 C36.6837929,23.3893436 35.379588,22.5128857 34.0289598,21.6631557 C33.854147,19.3828172 33.5820145,17.1883466 33.2186071,15.1226779 C34.8908134,14.5905385 36.5000339,14.1732928 38.0168914,13.8854537 M48.9910478,35.6873285 C48.7746474,35.269599 48.2645955,35.0995563 47.8472693,35.3164031 C47.4297013,35.5325243 47.2594825,36.0427735 47.4758828,36.4606239 C48.0789022,37.6354427 48.6664473,39.2901545 48.0014092,40.4808166 C47.0587984,42.150767 43.704835,42.6454148 39.0211582,41.7642402 C37.2116162,41.4260898 35.2671565,40.9065282 33.2394008,40.2265991 C33.6197335,38.0668385 33.8987569,35.7621908 34.0683713,33.3650235 C36.4398287,31.8018638 38.6281317,30.1707354 40.5643706,28.5240056 C41.2230013,29.0806961 41.8512877,29.6492387 42.4373819,30.198189 C42.607359,30.3529932 42.8085266,30.4301534 43.0246852,30.4301534 C43.25656,30.4301534 43.4729603,30.3373918 43.627342,30.1827085 C43.9519425,29.842744 43.936468,29.301534 43.5966349,28.976808 C43.0406432,28.4547066 42.4589011,27.9240184 41.8468146,27.3974422 C42.8751393,26.4631746 43.8188381,25.5278186 44.6629203,24.6008074 C48.4964703,20.3794902 49.8562864,16.7304648 48.4964703,14.3029413 C47.1360496,11.8907773 43.3027415,11.1485637 37.7075236,12.2155033 C36.1832916,12.5044308 34.5705651,12.9180483 32.8971498,13.443536 C32.5186306,11.6214421 32.0653988,9.91690268 31.5405978,8.36523238 C29.7165486,2.96885445 27.1817633,0 24.4149823,0 L24.3997496,0 C22.9466033,0 20.7983162,0.850455617 18.8044109,4.80872665 C18.5880105,5.22645613 18.7579876,5.73670531 19.1753138,5.95318932 C19.59264,6.16967333 20.102692,5.9993887 20.3190923,5.5819011 C21.5864245,3.07709645 23.0395708,1.70091123 24.4149823,1.70091123 C26.3316364,1.70091123 28.4029139,4.39123905 29.9329489,8.92204377 C30.4525515,10.4619828 30.9002221,12.160959 31.2713668,13.9826901 C29.1756686,14.7137771 27.0016311,15.6089808 24.7990627,16.6465319 C22.9433392,15.7936574 21.0993424,15.0401963 19.2835139,14.39534 C18.8507133,14.2254182 18.3561358,14.4573827 18.2015123,14.9058311 C18.0315353,15.3385572 18.2635309,15.8335679 18.7114434,15.9882512 C20.0655775,16.4738284 21.4337353,17.018062 22.8103557,17.6179283 C21.7904936,18.1342245 20.7677301,18.6788208 19.7470217,19.2508708 C18.7078165,19.8364661 17.6854157,20.4428632 16.6858637,21.0649826 C16.9139908,18.2337588 17.2979503,15.5347232 17.8307303,13.065717 C17.9388096,12.6175105 17.645037,12.1534607 17.1814084,12.06082 C16.7331333,11.952578 16.2693838,12.2462222 16.1766581,12.7102721 C16.1320482,12.9150248 16.0896144,13.122922 16.0470596,13.3306983 C8.40643554,11.1246174 3.08673517,11.5544409 1.43121221,14.5503861 C0.0866287148,16.9776677 1.46228198,20.627056 5.31106458,24.8169286 C7.77415972,27.5227369 11.0908877,30.2847826 14.9324166,32.8771483 C15.1158129,35.4989027 15.4284449,38.0303144 15.8646305,40.3886597 C15.2923182,40.5715222 14.7261714,40.7415649 14.1672782,40.8983042 C13.7192449,41.0220266 13.4566631,41.501315 13.5803377,41.9494006 C13.6885379,42.3206888 14.0287337,42.5682546 14.3995157,42.5682546 C14.4766461,42.5682546 14.5541392,42.5682546 14.6620975,42.5214505 C15.4451282,42.301822 16.2436334,42.0544981 17.0527772,41.7844373 C17.0969035,41.7734317 17.1397,41.7598864 17.1803204,41.7424709 C19.6621541,40.9076166 22.2513417,39.8421283 24.8661588,38.5830138 C27.0487798,39.6368918 29.2098816,40.553502 31.3012276,41.3149452 C30.9540199,43.0246851 30.5383862,44.6234014 30.0567444,46.0781981 C28.5572956,50.5932805 26.5173296,53.3145692 24.5852011,53.3145692 C22.49857,53.3145692 20.3190923,50.2374727 18.7579876,45.1040201 C18.6188385,44.6555716 18.1397355,44.3925254 17.6914604,44.5318492 C17.2431853,44.6710521 16.9806034,45.1502195 17.1197525,45.5987888 C18.9589135,51.6600992 21.6020198,55 24.5696058,55 C27.3672147,55 29.8712929,52.0156651 31.6797468,46.6039277 C32.1561903,45.1520336 32.5719448,43.5675883 32.9227793,41.879013 C34.9486007,42.5495088 36.8941485,43.0635071 38.7122739,43.402867 C40.35063,43.7123544 41.8495951,43.8667958 43.1635924,43.8667958 C46.3479414,43.8667958 48.5271773,42.9853794 49.4855044,41.315429 C50.3043197,39.8310017 50.1503007,37.9446883 48.9910478,35.6873285" id="Fill-4"></path>
                    <path d="M17.9388458,11.3492891 C19.2835502,11.3492891 20.3810263,10.2513886 20.3810263,8.90616424 C20.3810263,7.5610608 19.2835502,6.4630394 17.9388458,6.4630394 C16.5942623,6.4630394 15.4966654,7.5610608 15.4966654,8.90616424 C15.4966654,10.2513886 16.5942623,11.3492891 17.9388458,11.3492891" id="Fill-8"></path>
                    <path d="M10.5041526,39.9240899 C9.15944823,39.9240899 8.06197215,41.0219903 8.06197215,42.3668519 C8.06197215,43.7123181 9.15944823,44.8103396 10.5041526,44.8103396 C11.848857,44.8103396 12.9463331,43.7123181 12.9463331,42.3668519 C12.9463331,41.0219903 11.848857,39.9240899 10.5041526,39.9240899" id="Fill-10"></path>
                    <path d="M5.95993915,29.2705006 C0.905722092,34.2184301 -1.02640643,38.4707081 0.519102958,41.2381962 C1.13735507,42.3362176 2.60597585,43.6658406 6.11432084,43.8050435 L6.14539061,43.8050435 C6.60914014,43.8050435 6.98004305,43.4341181 7.01099192,42.9856696 C7.02646636,42.5217408 6.65532166,42.1197336 6.19181392,42.1041322 C4.67701162,42.0424524 2.72940866,41.702246 2.00295638,40.4033419 C0.905722092,38.4552277 2.88403213,34.6668785 7.14989917,30.4918816 C7.4899741,30.1671556 7.4899741,29.6259455 7.16537361,29.285981 C6.84077311,28.9457745 6.30001408,28.9457745 5.95993915,29.2705006" id="Fill-6"></path>
                    <path d="M43.4264644,32.9967225 C43.4264644,34.3421888 44.5239405,35.4398474 45.8686449,35.4398474 C47.2132284,35.4398474 48.3108254,34.3421888 48.3108254,32.9967225 C48.3108254,31.6516191 47.2132284,30.5535977 45.8686449,30.5535977 C44.5239405,30.5535977 43.4264644,31.6516191 43.4264644,32.9967225" id="Fill-12"></path>
                </g>
                <path d="M301.709189,37.9775126 L301.709189,37.9775126 C299.183662,37.9775126 296.8097,37.3097751 294.748499,36.141005 C298.312103,33.1117485 300.581849,28.569642 300.581849,23.4998853 C300.581849,18.430358 298.312103,13.8881368 294.748499,10.858995 C296.8097,9.69011014 299.183662,9.02248738 301.709189,9.02248738 C309.59094,9.02248738 316.003253,15.517095 316.003253,23.5 C316.003253,31.482905 309.59094,37.9775126 301.709189,37.9775126 L301.709189,37.9775126 Z M293.857003,12.7520652 L288.363032,18.3165443 C289.314565,15.811955 290.934211,13.641005 293.000057,12.0283387 C293.294919,12.2586049 293.580945,12.4997705 293.857003,12.7520652 L293.857003,12.7520652 Z M287.416937,23.6489215 C287.416484,23.5992428 287.415011,23.5497935 287.415011,23.4998853 C287.415011,22.7509179 287.471537,22.0150298 287.580397,21.2963515 L294.934727,13.8476365 C295.276259,14.2335934 295.597742,14.6381368 295.897361,15.0595457 L287.416937,23.6489215 Z M287.961803,27.4710877 C287.796984,26.8864158 287.667734,26.2867141 287.576319,25.6746214 L296.740261,16.3930702 C297.004085,16.8653052 297.243101,17.3536026 297.454251,17.8568151 L287.961803,27.4710877 Z M298.58227,23.2755851 C298.583403,23.3503901 298.584989,23.4249656 298.584989,23.5 C298.584989,24.2182194 298.532315,24.9242772 298.432064,25.6147315 L291.02993,33.1118632 C290.689644,32.7245296 290.369068,32.3190684 290.070808,31.896168 L298.58227,23.2755851 Z M288.52366,29.0891464 L298.020866,19.4699403 C298.187837,20.0523176 298.319692,20.6494952 298.4136,21.2592933 L289.232779,30.5579394 C288.970428,30.0839835 288.732998,29.5939651 288.52366,29.0891464 L288.52366,29.0891464 Z M293.000057,34.9715466 C292.691035,34.7303809 292.391415,34.4775126 292.103124,34.2120239 L297.683411,28.5601193 C296.738675,31.1167967 295.099773,33.332492 293.000057,34.9715466 L293.000057,34.9715466 Z M284.290924,37.9775126 C276.409173,37.9775126 269.99686,31.482905 269.99686,23.4998853 C269.99686,15.5169803 276.409173,9.02248738 284.290924,9.02248738 C286.816452,9.02248738 289.190413,9.69011014 291.251615,10.858995 C287.68801,13.8881368 285.418264,18.430358 285.418264,23.5 C285.418264,28.569642 287.68801,33.1118632 291.251615,36.141005 C289.190413,37.3097751 286.816452,37.9775126 284.290924,37.9775126 L284.290924,37.9775126 Z M301.709189,7 C298.508413,7 295.520713,7.94033961 293.000057,9.56172556 C290.4794,7.94033961 287.4917,7 284.290924,7 C275.308113,7 268,14.4019045 268,23.5 C268,32.5980955 275.308113,40 284.290924,40 C287.4917,40 290.4794,39.0596604 293.000057,37.4381597 C295.520713,39.0596604 298.508413,40 301.709189,40 C310.692,40 318,32.5980955 318,23.4998853 C318,14.4019045 310.692,7 301.709189,7 L301.709189,7 Z" id="Fill-4" fill="#E51D74"></path>
                <g id="Algebra-and-Geometry" transform="translate(354.000000, 0.000000)">
                    <g id="Group-3">
                        <mask id="mask-4" fill="white">
                            <use xlink:href="#path-3"></use>
                        </mask>
                        <g id="Clip-2"></g>
                    </g>
                    <path d="M43.1230866,37.073322 C43.1230866,37.3757072 43.2900016,37.6399023 43.5366218,37.7785074 L36.1672781,43.9200705 L36.1672781,20.3057187 L44.8378374,13.080205 L44.8378374,36.2647766 L43.931917,36.2647766 C43.4858917,36.2647766 43.1230866,36.6274868 43.1230866,37.073322 M32.1745211,37.8818674 L34.5499023,37.8818674 L34.5499023,44.8378659 L13.4260717,44.8378659 C13.4521967,44.7692759 13.4691067,44.6966958 13.4758517,44.6215508 C13.4952317,44.4063757 13.4296817,44.1965206 13.2910766,44.0303655 C13.1519016,43.8639254 12.9562965,43.7619904 12.7401714,43.7430854 C12.5292713,43.7248454 12.3235012,43.7881154 12.1620961,43.9203555 L12.1620961,20.7354989 L34.5499023,20.7354989 L34.5499023,36.2647766 L32.1745211,36.2647766 C31.7286859,36.2647766 31.3659757,36.6274868 31.3659757,37.073322 C31.3659757,37.5191573 31.7286859,37.8818674 32.1745211,37.8818674 M21.6414858,15.4437112 C21.1954606,15.4437112 20.8326554,15.8065164 20.8326554,16.2523516 L20.8326554,19.1182181 L13.5872868,19.1182181 L20.8327504,13.07992 C20.8389254,13.5204353 21.1993556,13.8769704 21.6414858,13.8769704 C22.087321,13.8769704 22.4500312,13.5141653 22.4500312,13.06833 L22.4500312,12.1624096 L43.4131217,12.1624096 L35.0658475,19.1182181 L22.4500312,19.1182181 L22.4500312,16.2523516 C22.4500312,15.8065164 22.087321,15.4437112 21.6414858,15.4437112 M45.6464778,10.5450338 L21.6414858,10.5450338 C21.4520557,10.5450338 21.2678506,10.6119138 21.1236406,10.7327539 L10.8351354,19.3063182 C10.6507403,19.4605982 10.5450053,19.6867933 10.5450053,19.9270485 L10.5450053,45.6465063 C10.5450053,46.0923415 10.9077155,46.4550517 11.3535507,46.4550517 L35.3658577,46.4550517 C35.5505378,46.4539117 35.7312279,46.3878867 35.8746779,46.2691366 L46.1647981,37.6939573 C46.3491932,37.5397723 46.4550232,37.3135772 46.4550232,37.073322 L46.4550232,11.3535792 C46.4550232,10.907744 46.092313,10.5450338 45.6464778,10.5450338" id="Fill-4" fill="#E51D74"></path>
                    <path d="M21.6414383,26.6137123 C22.0872735,26.6137123 22.4499837,26.2510021 22.4499837,25.8051669 L22.4499837,22.6209553 C22.4499837,22.1751201 22.0872735,21.8123149 21.6414383,21.8123149 C21.1956031,21.8123149 20.8328929,22.1751201 20.8328929,22.6209553 L20.8328929,25.8051669 C20.8328929,26.2510021 21.1956031,26.6137123 21.6414383,26.6137123" id="Fill-6" fill="#E51D74"></path>
                    <path d="M21.6414383,32.9825155 C22.0872735,32.9825155 22.4499837,32.6198053 22.4499837,32.1739701 L22.4499837,28.9897585 C22.4499837,28.5439233 22.0872735,28.1811181 21.6414383,28.1811181 C21.1956031,28.1811181 20.8328929,28.5439233 20.8328929,28.9897585 L20.8328929,32.1739701 C20.8328929,32.6198053 21.1956031,32.9825155 21.6414383,32.9825155" id="Fill-8" fill="#E51D74"></path>
                    <path d="M23.3561702,36.2645676 L22.4501547,36.2645676 L22.4501547,35.3586472 C22.4501547,34.912812 22.0873495,34.5501018 21.6413243,34.5501018 C21.1954891,34.5501018 20.8327789,34.912812 20.8327789,35.3586472 L20.8327789,36.6934928 L19.8063984,37.5489683 C19.6406233,37.6872883 19.5386883,37.8819434 19.5193083,38.0972135 C19.4999282,38.3124837 19.5654783,38.5222438 19.7030384,38.6869738 C19.8423084,38.8547439 20.0383885,38.957629 20.2550836,38.976439 C20.2790236,38.978529 20.3027737,38.979574 20.3264287,38.979574 C20.5160488,38.979574 20.6974038,38.913359 20.8437039,38.7896689 L21.9328795,37.8819434 L23.3561702,37.8819434 C23.8020054,37.8819434 24.1647156,37.5192333 24.1647156,37.073398 C24.1647156,36.6273728 23.8020054,36.2645676 23.3561702,36.2645676" id="Fill-10" fill="#E51D74"></path>
                    <path d="M40.9921785,36.2645676 L38.052782,36.2645676 C37.6069468,36.2645676 37.2441416,36.6273728 37.2441416,37.073398 C37.2441416,37.5192333 37.6069468,37.8819434 38.052782,37.8819434 L40.9921785,37.8819434 C41.4382037,37.8819434 41.8010089,37.5192333 41.8010089,37.073398 C41.8010089,36.6273728 41.4382037,36.2645676 40.9921785,36.2645676" id="Fill-12" fill="#E51D74"></path>
                    <path d="M29.2349916,36.2645676 L26.2955951,36.2645676 C25.8497599,36.2645676 25.4870497,36.6273728 25.4870497,37.073398 C25.4870497,37.5192333 25.8497599,37.8819434 26.2955951,37.8819434 L29.2349916,37.8819434 C29.6810168,37.8819434 30.043822,37.5192333 30.043822,37.073398 C30.043822,36.6273728 29.6810168,36.2645676 29.2349916,36.2645676" id="Fill-14" fill="#E51D74"></path>
                    <path d="M17.8415694,39.4908167 C17.6256343,39.4719117 17.4162542,39.5389818 17.2549441,39.6764468 L14.7034329,41.8013129 C14.5375628,41.939728 14.4355327,42.1344781 14.4162477,42.3497482 C14.3969627,42.5648283 14.4626077,42.7744934 14.6002628,42.9392235 C14.7397229,43.1071836 14.935993,43.2100686 15.1528781,43.2288786 C15.1765331,43.2309686 15.2001881,43.2319186 15.2236531,43.2319186 C15.4131782,43.2319186 15.5946283,43.1657036 15.7407384,43.0419185 L18.2905396,40.9182875 C18.4564097,40.7798724 18.5583448,40.5852173 18.5778198,40.3701372 C18.5972948,40.1548671 18.5317448,39.945107 18.3939947,39.7802819 C18.2547246,39.6124168 18.0585495,39.5096268 17.8415694,39.4908167" id="Fill-16" fill="#E51D74"></path>
                </g>
                <g id="Group-15" transform="translate(424.000000, 42.000000)" fill="#E51D74">
                    <path d="M24.8071249,4.30160346 C24.8071249,4.92667826 24.3038196,5.4352539 23.6851503,5.4352539 L11.3148684,5.4352539 C10.6959507,5.4352539 10.1925212,4.92667826 10.1925212,4.30160346 L10.1925212,3.33639606 C10.1925212,2.7111964 10.6959507,2.20262075 11.3148684,2.20262075 L23.6851503,2.20262075 C24.3038196,2.20262075 24.8071249,2.7111964 24.8071249,3.33639606 L24.8071249,4.30160346 Z M17.9501031,34.0780643 L18.0581405,34.0454745 C19.3172108,33.6660094 20.5063672,33.3075216 22.9129934,33.3075216 C25.390651,33.3075216 26.5806767,33.6766229 27.8419823,34.0679502 L27.8747661,34.0779394 C29.105399,34.4540331 30.3771357,34.8424885 32.6743585,34.9086671 C32.7887291,35.6581075 32.8465974,36.4000561 32.8465974,37.116657 C32.8465974,41.9309567 30.6847318,46.401128 26.9153443,49.3809093 C25.7600893,50.2942977 24.2789835,50.7972544 22.7451008,50.7972544 L12.271434,50.7972544 C10.7576686,50.7972544 9.27606608,50.2936733 8.10032116,49.3800352 C4.34210991,46.4293475 2.18670175,41.9842741 2.18670175,37.1843339 C2.18670175,35.8911058 2.35049638,34.5957551 2.67361513,33.3318703 C4.64001993,33.3925547 5.71108033,33.718203 6.84361029,34.062581 L6.89514537,34.0780643 C8.25604403,34.490244 9.66326217,34.9162838 12.4225621,34.9162838 C15.1826072,34.9162838 16.589577,34.4901192 17.9501031,34.0780643 L17.9501031,34.0780643 Z M13.0961194,15.3414284 L13.0961194,7.63812438 L21.8866381,7.63812438 L21.8866381,15.3752668 C21.8866381,19.0426803 23.6445432,22.5438983 26.5888727,24.741025 C29.224861,26.7085248 31.1917625,29.516117 32.148949,32.6692111 C30.5121204,32.5661974 29.5356858,32.2746373 28.50486,31.9669696 L28.4210379,31.9417469 C27.0605118,31.5301914 25.653542,31.1046511 22.8958564,31.1046511 C20.1390401,31.1046511 18.7324428,31.5300666 17.3719167,31.9414972 L17.2633826,31.9743367 C16.0036914,32.3544261 14.8137899,32.7132885 12.4057977,32.7132885 C9.92590481,32.7132885 8.73575491,32.3436877 7.47370426,31.951861 L7.4298684,31.9387501 C6.33955995,31.6134765 5.21385995,31.2775893 3.38082544,31.1534734 C4.44654607,28.5984832 6.17576532,26.3795052 8.39400903,24.7240434 C11.3383386,22.5271664 13.0961194,19.0197051 13.0961194,15.3414284 L13.0961194,15.3414284 Z M27.8633414,22.9758068 C25.4794404,21.2003496 24.0562029,18.3590438 24.0562029,15.3752668 L24.0562029,7.61739677 C25.7168743,7.42997423 26.9934541,6.00651183 26.9934541,4.30160346 L26.9934541,3.33639606 C26.9934541,1.49663335 25.509368,0 23.6851503,0 L11.3148684,0 C9.49040234,0 8.00619203,1.49663335 8.00619203,3.33639606 L8.00619203,4.30160346 C8.00619203,6.00638697 9.28277185,7.42984936 10.9434432,7.61727191 L10.9434432,15.35841 C10.9434432,18.3343205 9.51399671,21.1756263 7.11954029,22.9588251 C2.66156958,26.275992 0,31.5938727 0,37.1843339 C0,42.6751528 2.46374938,47.7530427 6.75966399,51.1162848 C8.31751358,52.3309727 10.2751015,53 12.271434,53 L22.7451008,53 C24.7591911,53 26.7172758,52.3304732 28.2584851,51.1149113 C32.5770006,47.7130859 35.0339201,42.6039797 34.9996461,37.0984267 C34.982385,31.5667769 32.3146064,26.2873547 27.8633414,22.9758068 L27.8633414,22.9758068 Z" id="Fill-4"></path>
                    <path d="M14.1667346,49.6349206 C16.0047186,49.6349206 17.5,48.1253985 17.5,46.2699099 C17.5,44.4144212 16.0047186,42.9047619 14.1667346,42.9047619 C12.3286147,42.9047619 10.8333333,44.4144212 10.8333333,46.2699099 C10.8333333,48.1253985 12.3286147,49.6349206 14.1667346,49.6349206" id="Fill-6"></path>
                    <path d="M20.4166667,42.9047619 C22.4844225,42.9047619 24.1666667,41.2064678 24.1666667,39.1191113 C24.1666667,37.0316275 22.4844225,35.3333333 20.4166667,35.3333333 C18.3489108,35.3333333 16.6666667,37.0316275 16.6666667,39.1191113 C16.6666667,41.2064678 18.3489108,42.9047619 20.4166667,42.9047619" id="Fill-8"></path>
                </g>
                <path d="M199.552854,84.8171324 L191.874847,76.8874676 L207.230631,76.8874676 L199.552854,84.8171324 Z M202.794931,96.2205 C202.794931,96.8911838 202.59693,97.5331622 202.221565,98.0832135 L196.884142,98.0832135 C196.509121,97.5333946 196.311006,96.8915324 196.311006,96.2205 C196.311006,94.7767459 197.270284,93.4888378 198.62155,93.0756892 L198.62155,93.6816405 C198.62155,94.2018243 199.039336,94.6250838 199.552854,94.6250838 C200.066028,94.6250838 200.483584,94.2018243 200.483584,93.6816405 L200.483584,93.0751081 C201.835309,93.4882568 202.794931,94.7763973 202.794931,96.2205 L202.794931,96.2205 Z M206.261952,99.8544649 L209.750297,116.228865 L189.355066,116.228865 L192.844673,99.8544649 L206.261952,99.8544649 Z M220.069041,75 L178.931074,75 C178.417785,75 178,75.4232595 178,75.9434432 C178,76.4639757 178.417785,76.8874676 178.931074,76.8874676 L189.240989,76.8874676 L198.62155,86.5431757 L198.62155,91.2580676 C196.261362,91.7096838 194.563737,93.7728703 194.563737,96.2205 C194.563737,96.8649189 194.681369,97.4901622 194.914682,98.0832135 L192.139689,98.0832135 C191.731305,98.0832135 191.372106,98.3773568 191.285431,98.7820216 L187.41851,116.927557 C187.36279,117.190554 187.425963,117.461222 187.592435,117.670759 C187.75948,117.880065 188.007239,118 188.272425,118 L210.832709,118 C211.097895,118 211.345654,117.880065 211.5127,117.670759 C211.679401,117.461454 211.742688,117.190903 211.686968,116.927557 L207.821194,98.7820216 C207.735091,98.3773568 207.376236,98.0832135 206.967509,98.0832135 L204.190682,98.0832135 C204.423995,97.4901622 204.54197,96.8649189 204.54197,96.2205 C204.54197,93.7726378 202.844001,91.7093351 200.483584,91.2580676 L200.483584,86.5434081 L209.864374,76.8874676 L220.069041,76.8874676 C220.582215,76.8874676 221,76.4639757 221,75.9434432 C221,75.4232595 220.582215,75 220.069041,75 L220.069041,75 Z" id="Fill-4" fill="#E51D74"></path>
                <g id="General-Mathematics" transform="translate(260.000000, 60.000000)">
                    <g id="Group-3">
                        <mask id="mask-6" fill="white">
                            <use xlink:href="#path-5"></use>
                        </mask>
                        <g id="Clip-2"></g>
                    </g>
                    <path d="M51.7692119,35.4762667 C51.3353467,35.3740467 50.9003415,35.6427068 50.7978364,36.076762 C50.014276,39.3979637 48.061835,41.7988049 45.5750188,42.4990502 C43.5423978,43.0714255 41.4678817,42.4225752 39.7334659,40.6717243 C38.4573302,39.3834287 37.3435497,37.0420575 36.1643141,34.5632213 C33.6360778,29.2488236 30.5557013,22.7709604 23.7607279,21.4892197 L44.2825431,14.2553461 C44.7032034,14.1071461 44.9239835,13.6459208 44.7756884,13.2253556 C44.6274883,12.8047904 44.1662631,12.5841053 43.7456979,12.7322104 L21.6926718,20.5057793 C21.1198216,19.7014139 20.1802711,19.1762536 19.1175056,19.1762536 C17.3722597,19.1762536 15.957519,20.5910893 15.957519,22.3362402 C15.957519,22.3997002 15.959894,22.4625902 15.963599,22.5251953 L5.14774857,26.3377372 C4.72708836,26.4859372 4.50640325,26.9471625 4.65460333,27.3677277 C4.8028984,27.7883879 5.26412363,28.008978 5.68459384,27.8608729 L13.3162327,25.1707566 C12.3697472,26.3317522 11.5428668,27.7448779 10.8482264,29.4002537 C9.21717061,33.2868006 8.88666544,37.1080826 8.87336544,37.2688226 C8.83669542,37.7131379 9.16701058,38.1028281 9.61132581,38.1397831 C10.057066,38.1767381 10.4458062,37.8463279 10.4828562,37.4021077 C10.4859912,37.3649627 10.8111764,33.6446658 12.3512222,29.992484 C13.4643377,27.3525277 14.8915234,25.4406517 16.6172943,24.2676861 C17.1952746,25.0148615 18.099865,25.4965117 19.1175056,25.4965117 C20.6649613,25.4965117 21.951642,24.3839662 22.2238171,22.9154555 C29.0889955,23.4523007 32.066107,29.7079589 34.7058734,35.2570066 C35.945719,37.8632379 37.1168796,40.3250692 38.5861503,41.8083049 C40.2100811,43.4476257 42.1650871,44.3134562 44.1458381,44.3134562 C44.7687534,44.3134562 45.3942337,44.2277661 46.012779,44.053631 C49.0729205,43.1918856 51.4493467,40.3485342 52.3697072,36.4476422 C52.4721172,36.013587 52.2032671,35.5786768 51.7692119,35.4762667" id="Fill-4" fill="#E51D74"></path>
                </g>
                <path d="M227.881393,35.032483 L227.866573,34.911833 L227.805963,34.7905179 C227.797223,34.7734179 226.923603,33.050592 225.474282,29.9764855 L225.584292,28.4357747 C226.139948,24.7906229 225.258442,20.947966 223.102131,17.6159343 C220.92264,14.2478976 217.603148,11.5922663 213.755266,10.1381956 C211.756085,9.38294519 209.669599,9 207.554138,9 C204.180117,9 200.924085,9.96197048 198.138209,11.7817914 C195.290772,13.6415123 193.170656,16.2527786 192.007096,19.3333452 C191.338865,21.1023411 191,22.991702 191,24.948703 C191,29.2358651 192.756551,33.2655771 195.945892,36.2956036 C199.124879,39.3158452 203.347441,40.979106 207.835338,40.979106 C211.893455,40.979106 215.711602,39.4748752 218.586494,36.7433389 C221.47155,34.0020175 223.060426,30.3559157 223.060426,26.4764937 C223.060426,22.5977368 221.47155,18.95192 218.586494,16.2105986 C215.711507,13.4792522 211.893455,11.9750215 207.835338,11.9750215 C204.206907,11.9750215 200.79251,13.3203172 198.221429,15.7628634 C195.640182,18.2153846 194.218507,21.4775912 194.218507,24.948703 C194.218507,28.4200047 195.639992,31.6820213 198.221239,34.1338776 C200.79194,36.5763288 204.206337,37.9214345 207.835338,37.9214345 C211.03399,37.9214345 214.044162,36.7350739 216.311243,34.5809478 C218.588679,32.4174167 219.842964,29.5392003 219.842964,26.4764937 C219.842964,23.4143572 218.588679,20.5364258 216.311243,18.3728947 C214.043592,16.2188636 211.033515,15.032693 207.835338,15.032693 C205.066372,15.032693 202.460236,16.0599285 200.49706,17.9251595 C198.523719,19.7998904 197.436918,22.2942116 197.436918,24.948703 C197.436918,27.6028143 198.523719,30.0969455 200.49706,31.9715815 C202.460046,33.8366224 205.066182,34.8637629 207.835338,34.8637629 C210.17386,34.8637629 212.375391,33.9953675 214.034662,32.4186517 C215.704097,30.8324359 216.623508,28.7221049 216.623508,26.4764937 C216.623508,24.2305026 215.704192,22.1201716 214.034947,20.5342408 C212.375581,18.95762 210.17386,18.0894145 207.835338,18.0894145 C205.926407,18.0894145 204.128247,18.7987799 202.772406,20.0868855 C201.406685,21.3843012 200.654475,23.1108321 200.654475,24.948703 C200.654475,26.7861939 201.406685,28.5126298 202.772406,29.8099504 C204.128342,31.097771 205.926407,31.8070414 207.835338,31.8070414 C209.314489,31.8070414 210.70814,31.2568011 211.7596,30.2576856 C212.821226,29.2486901 213.405951,27.9058645 213.405951,26.4764937 C213.405951,25.047598 212.821226,23.7051524 211.7596,22.6961568 C210.70776,21.6972313 209.314109,21.1470861 207.835338,21.1470861 C206.785398,21.1470861 205.795592,21.5383913 205.048037,22.2488016 C204.290317,22.968712 203.872981,23.9275475 203.872981,24.948703 C203.872981,25.9693835 204.290317,26.928219 205.048322,27.6486043 C205.796637,28.3590147 206.786443,28.7503199 207.835338,28.7503199 C208.455404,28.7503199 209.041174,28.5179498 209.484634,28.0960545 C209.938449,27.6650393 210.188395,27.089909 210.188395,26.4764937 L210.188395,26.3897587 L208.700504,26.3897587 L208.700504,26.4764937 C208.700504,26.6807438 208.615669,26.8737839 208.461674,27.020179 C208.297514,27.1764541 208.075024,27.2624291 207.835338,27.2624291 C207.166063,27.2624291 206.539538,27.017519 206.071283,26.5728238 C205.613192,26.1375336 205.360872,25.5607883 205.360872,24.948703 C205.360872,24.3364277 205.613002,23.7596824 206.070903,23.3245822 C206.538778,22.8799819 207.165303,22.6349768 207.835338,22.6349768 C208.934014,22.6349768 209.964479,23.038822 210.73683,23.7719374 C211.49854,24.4956477 211.917965,25.4560982 211.917965,26.4764937 C211.917965,27.4973642 211.49854,28.4581947 210.73683,29.1818101 C209.965049,29.9152105 208.934584,30.3190557 207.835338,30.3190557 C206.306408,30.3190557 204.871622,29.7561804 203.795271,28.7340749 C202.729371,27.7219444 202.142461,26.3775987 202.142461,24.948703 C202.142461,23.5195223 202.729371,22.1749866 203.795271,21.1625711 C204.871527,20.1403706 206.306313,19.5774003 207.835338,19.5774003 C209.794144,19.5774003 211.63249,20.2993056 213.012081,21.6100213 C214.381317,22.910857 215.135522,24.6391928 215.135522,26.4764937 C215.135522,28.3136047 214.381317,30.0419405 213.011701,31.3429662 C211.6323,32.6538718 209.793954,33.3757772 207.835338,33.3757772 C205.446182,33.3757772 203.203421,32.4950317 201.52002,30.8958959 C199.846594,29.3061652 198.924999,27.1940291 198.924999,24.948703 C198.924999,22.7029969 199.846594,20.5906708 201.52002,19.000845 C203.203421,17.4015192 205.446277,16.5206788 207.835338,16.5206788 C210.653705,16.5206788 213.300501,17.5604543 215.288282,19.4485802 C217.265803,21.3269212 218.354884,23.8228574 218.354884,26.4764937 C218.354884,29.1301301 217.265803,31.6262563 215.288282,33.5052623 C213.300976,35.3934832 210.65418,36.4334487 207.835338,36.4334487 C204.586337,36.4334487 201.53522,35.2347381 199.244009,33.058287 C196.962773,30.8910509 195.706397,28.0111245 195.706397,24.948703 C195.706397,21.8864714 196.962963,19.006165 199.244389,16.8386439 C201.535695,14.6619078 204.586717,13.4630072 207.835338,13.4630072 C211.51355,13.4630072 214.968417,14.8208429 217.563533,17.2862841 C220.148675,19.7427954 221.57244,23.006617 221.57244,26.4764937 C221.57244,29.9469405 220.148675,33.2110471 217.563533,35.6675583 C214.968417,38.1331896 211.51355,39.4911202 207.835338,39.4911202 C203.727441,39.4911202 199.868254,37.9742545 196.968663,35.2199181 C194.079332,32.4749867 192.487986,28.8272699 192.487986,24.948703 C192.487986,23.1658371 192.793601,21.4525112 193.396376,19.8566054 C194.447932,17.072534 196.367123,14.7103579 198.946469,13.025437 C201.48791,11.3654062 204.464357,10.4879857 207.554138,10.4879857 C209.496129,10.4879857 211.406485,10.8376809 213.232006,11.5273813 C216.785483,12.8700169 219.848949,15.3192132 221.85801,18.4235297 C223.826696,21.4658112 224.627167,24.959153 224.111982,28.2607846 L224.103432,28.3209197 L223.966631,30.2332706 L223.964921,30.2558806 L224.048237,30.4325807 C225.257492,33.001477 226.152583,34.8000179 226.412028,35.3174832 C226.412503,35.7842184 225.975977,35.8664884 225.361327,35.9309935 C224.527227,36.0188685 223.739391,36.1019936 223.621781,37.030999 C223.487166,37.4968792 223.411641,37.9603845 223.397296,38.4087847 C223.383236,38.8677299 223.433016,39.3175552 223.545401,39.7459104 C223.561076,39.8918304 223.548346,40.0045005 223.508446,40.0720455 C223.471301,40.1346506 223.380861,40.1913656 223.246721,40.2363956 L222.705696,40.4176557 L222.741131,40.986231 C222.760986,41.3033412 222.761841,41.5534763 222.743696,41.7312214 C222.334816,41.8430364 221.9931,42.0254365 221.72729,42.2737666 C221.365625,42.6117768 221.15387,43.054477 221.09763,43.5896123 L221.07578,43.7985174 L221.167265,43.9879475 C221.396405,44.4631377 221.503565,44.933673 221.48599,45.3864432 C221.469175,45.8105234 221.341875,46.2434386 221.107225,46.6734088 C220.505305,47.2244091 219.722599,47.5938643 218.780389,47.7717044 C217.740993,47.9681645 216.476638,47.9400445 215.025892,47.6885793 C213.447276,47.3585492 211.160625,46.999069 209.535744,47.6858243 C207.587103,48.5096648 206.973308,50.4777807 207.711648,53.5357373 L207.731978,53.6200973 L209.173604,53.2713521 L209.153179,53.1870871 C208.611109,50.941191 208.933539,49.5500103 210.111255,49.05202 C211.356515,48.5262898 213.352941,48.8543249 214.745642,49.1467351 L214.772242,49.1523401 C216.396933,49.4341102 217.837608,49.4605202 219.054084,49.2306201 C220.32718,48.990175 221.389945,48.4651097 222.213026,47.6701493 L222.280476,47.6052643 L222.340991,47.5076043 C222.730016,46.8370939 222.941106,46.1431186 222.968181,45.4448682 C222.992976,44.8220479 222.872231,44.1922926 222.608891,43.5725123 C222.637201,43.4858722 222.681091,43.4147172 222.739231,43.3604722 C222.858646,43.2488471 223.056246,43.1687621 223.332601,43.1208821 L223.338111,43.1193621 C223.790406,43.033862 224.075217,42.7018369 224.184847,42.1323116 C224.223322,41.9339515 224.242227,41.6859063 224.241087,41.3944462 C224.468992,41.2449161 224.652532,41.054536 224.787052,40.8280559 C225.005552,40.4607857 225.081077,40.0158055 225.010207,39.5000503 L224.990827,39.4074252 C224.906752,39.1027601 224.869417,38.7823249 224.879772,38.4552397 C224.890127,38.1230246 224.952637,37.7643044 225.065402,37.3891492 L225.085542,37.3227442 L225.090007,37.2901591 C225.097797,37.2941491 225.105587,37.2981391 225.112522,37.3017492 C225.206572,37.3507692 225.348977,37.4255342 225.512947,37.4074842 C226.255943,37.3291092 227.098213,37.2401891 227.564473,36.6533738 C227.865528,36.2746086 227.969173,35.7444134 227.881393,35.032483" id="Fill-4" fill="#E51D74"></path>
                <path d="M30.1247969,72.5537456 L30.0119874,73.1838305 C29.088029,79.2857168 28.6195593,85.1574021 28.6195593,90.6358895 C28.6195593,95.1954167 30.8988403,97.9476863 32.4300402,98.6849755 C33.0223477,98.9761563 33.6159188,99.097424 34.1930625,99.097424 C35.6132909,99.097424 36.9358735,98.3638236 37.9087696,97.6238831 C38.6511069,97.0485532 39.1991866,96.1663652 39.5431293,94.9955325 C39.0624826,98.2207692 38.1728726,100.549409 36.8945177,101.92416 C35.5524059,103.394358 33.8422271,104.219832 32.1629504,104.219832 C32.0746097,104.219832 31.986384,104.217641 31.898273,104.213031 C30.2448437,104.15159 28.699399,103.284733 27.5478687,101.773844 C26.7955371,100.744797 25.0457257,97.7080328 25.0457257,91.7497771 C25.0457257,88.5620043 25.5568149,82.3891095 26.5650932,73.4001988 L26.6399932,72.5854458 L15.7859239,72.5854458 L15.7485888,73.2889599 C14.9747752,86.6122687 13.9474272,95.6144358 12.7783207,99.3203629 C12.1699304,101.116439 10.3285617,103.850265 8.4525001,104.31182 C8.26582444,104.361272 8.08385876,104.386171 7.90568403,104.386171 C7.3237155,104.386171 6.77919697,104.120927 6.224799,103.575338 C4.6409853,101.988483 5.61261773,100.003012 7.56001815,97.5087249 C9.26652083,95.2487883 10.4583731,92.9138087 11.1022605,90.5704142 C12.2930789,86.516707 13.0456402,80.8988539 13.4026789,73.3955878 L13.4398992,72.6174919 L12.6511515,72.6174919 C9.7637099,72.6174919 7.94945229,72.9188167 6.3889587,73.6576045 C4.62903806,74.4906859 3.15631075,75.9606533 1.75779418,78.2808779 L1.60833878,78.2808779 C2.81340193,74.8094171 4.01708655,72.5620453 5.50256525,71.0053922 C7.2339963,69.1911029 9.43481611,68.3092608 12.2307005,68.3092608 L34.2228157,68.3092608 C39.2198645,68.3092608 41.7027082,65.2771072 43.3046725,62.6138287 L43.3917495,62.6138287 C42.149581,66.3554906 41.0729507,68.8290289 39.3003935,70.3679299 C37.5122131,71.9204331 35.0384447,72.5537456 30.7620214,72.5537456 L30.1247969,72.5537456 Z M40.3526698,71.5884455 C42.4147178,69.7981331 43.58796,67.1290909 44.9175501,63.1239139 C45.0809057,62.6318114 44.9986535,62.0908329 44.6962964,61.6700847 C44.3940542,61.2493365 43.9085826,61 43.3917495,61 L43.3046725,61 C42.7413141,61 42.218852,61.295907 41.9277529,61.7799404 C40.4657091,64.210597 38.4068777,66.6954321 34.2228157,66.6954321 L12.2307005,66.6954321 C10.6340205,66.6954321 9.16726682,66.958832 7.87099108,67.4782543 C6.55036134,68.0074748 5.36275954,68.8186543 4.34104061,69.8891991 C2.6858881,71.6237192 1.37456342,74.0480357 0.0895456547,77.7499283 C-0.0818513155,78.2435293 -0.00430912055,78.7896951 0.297358737,79.2156306 C0.598911717,79.6416814 1.08748498,79.8947066 1.60833878,79.8947066 L1.75779418,79.8947066 C2.32069308,79.8947066 2.84269565,79.599376 3.13402454,79.1160343 C4.36137389,77.079613 5.6137665,75.8089534 7.07523584,75.1171973 C8.2452614,74.5631929 9.63757459,74.2979486 11.7497091,74.2425021 C11.3829058,81.1528014 10.6650374,86.3511743 9.55957289,90.1140465 C9.55693071,90.1231531 9.55428853,90.1322597 9.55176123,90.1414815 C8.96324469,92.2836086 7.86455795,94.4308077 6.28614349,96.5234825 C5.03742696,98.1242853 4.33908769,99.3314292 4.02248578,100.436441 C3.55459043,102.06952 3.92323177,103.549862 5.08843249,104.717352 C5.09176393,104.720695 5.09521025,104.724038 5.09854169,104.727496 C5.95656044,105.571874 6.90096694,106 7.90568403,106 C8.21596769,106 8.53314398,105.958271 8.848712,105.875966 C9.68455942,105.667205 10.9656714,105.054642 12.3459224,103.32554 C13.1880881,102.270557 13.9190525,100.967506 14.3010196,99.8397852 C14.3046957,99.8289495 14.308142,99.8182291 14.3115883,99.8073934 C15.7951141,95.104927 16.7529613,83.4611528 17.3060956,74.1992745 L24.8577864,74.1992745 C23.915103,82.7184458 23.4374431,88.6201022 23.4374431,91.7497771 C23.4374431,94.4975511 23.7902314,96.9743171 24.4859285,99.1113721 C25.0692755,100.903183 25.7677297,102.06733 26.2511335,102.728423 C26.2574517,102.737069 26.2638848,102.745714 26.270318,102.754245 C27.7166235,104.651877 29.6894118,105.742133 31.8265896,105.825245 C31.9379057,105.830894 32.050945,105.83366 32.1629504,105.83366 C34.2858834,105.83366 36.4405225,104.808187 38.0755715,103.019604 C39.5758694,101.402778 40.6048256,98.7834191 41.1338357,95.2342639 C41.2587073,94.395534 40.7154524,93.6027983 39.8902886,93.419744 C39.7736881,93.3939228 39.6569728,93.3814732 39.5420954,93.3814732 C38.8434115,93.381358 38.2057275,93.8407228 38.0005566,94.5392801 C37.7554084,95.3736295 37.3954977,95.9803139 36.9305892,96.3427337 C36.243393,96.8644614 35.2128285,97.4835953 34.1930625,97.4835953 C33.8221236,97.4835953 33.4768024,97.4024428 33.1375696,97.2357573 C33.1335489,97.2337977 33.129758,97.2319533 33.1258521,97.2299936 C32.6909266,97.020657 31.9651316,96.3893042 31.3504231,95.2991629 C30.8383,94.3908078 30.2278418,92.8444141 30.2278418,90.6358895 C30.2278418,85.4581506 30.6533475,79.9190293 31.4927561,74.1612343 C35.756428,74.0853843 38.3542639,73.3234266 40.3526698,71.5884455 L40.3526698,71.5884455 Z" id="Fill-4" fill="#E51D74"></path>
                <g id="Pure-Mathematics" transform="translate(101.903764, 11.350032)" fill="#E51D74">
                    <path d="M49.087892,24.557925 L49.081067,24.545745 C48.975017,24.339 48.8043919,24.238725 48.6799668,24.19095 L48.6570768,24.18024 L45.7036354,22.53552 C45.6075603,22.473045 45.4686452,22.437345 45.3221702,22.437345 C45.04581,22.437345 44.7512849,22.61028 44.6058598,22.85808 C44.5261648,22.987335 44.4509847,23.18841 44.5337248,23.430855 C44.5850698,23.5809 44.6743198,23.716245 44.7917099,23.822295 L45.1364251,24.13383 L41.9705685,24.13383 L41.9635335,23.962365 C41.9455785,23.528085 41.5929883,23.20059 41.1433781,23.20059 C40.946818,23.20059 40.7276829,23.294985 40.5714428,23.447025 L40.5567428,23.45994 C40.3738327,23.60232 40.3285777,23.81148 40.3226977,23.96205 L40.3160827,24.13383 L35.8330004,24.13383 L35.8259654,23.962365 C35.8080104,23.528085 35.4554202,23.20059 35.0056,23.20059 C34.8088299,23.20059 34.5897998,23.294985 34.4340847,23.44692 L34.4191747,23.45994 C34.2361596,23.60253 34.1906946,23.811585 34.1849196,23.96205 L34.1783046,24.13383 L29.7873074,24.13383 L29.7736574,23.96982 C29.7387974,23.54877 29.3942922,23.24322 28.954657,23.24322 C28.5151268,23.24322 28.1707266,23.54877 28.1358666,23.96982 L28.1222166,24.13383 L24.6405198,24.13383 L24.6405198,20.52162 L24.7981249,20.50293 C25.2178101,20.452845 25.5108653,20.12829 25.5108653,19.71375 C25.5108653,19.298895 25.2178101,18.974235 24.7981249,18.92415 L24.6405198,18.90546 L24.6405198,14.584185 L24.7907749,14.560035 C25.1891451,14.495775 25.4672902,14.173215 25.4672902,13.775475 C25.4672902,13.378155 25.1891451,13.0557 24.7907749,12.99144 L24.6405198,12.96729 L24.6405198,8.603595 L24.7908799,8.57934 C25.1891451,8.51508 25.4672902,8.19273 25.4672902,7.7952 C25.4672902,7.397775 25.1891451,7.075215 24.7907749,7.010955 L24.6405198,6.9867 L24.6405198,3.71679 L24.948065,4.03578 C25.090865,4.183935 25.2883701,4.26552 25.5039353,4.26552 C25.6844303,4.26552 25.8263904,4.232655 25.9258255,4.167555 C26.1194456,4.05363 26.2495406,3.87786 26.2809356,3.69327 C26.3173707,3.47907 26.2796756,3.266865 26.1747806,3.09582 L24.6211998,0.66318 L24.5983098,0.564165 C24.5683848,0.38955 24.4402847,0.21588 24.2561146,0.10605 C24.1092196,0.0357 23.9617995,0 23.8179494,0 L23.7990494,0.001365 C23.7816194,0.00126 23.7745844,0.00063 23.7674444,0 L23.7670244,0 C23.6269543,0 23.4806892,0.0357 23.3348442,0.105945 C23.1517241,0.21567 23.024149,0.38955 22.993069,0.57225 L22.984354,0.62895 L21.4002182,3.09876 C21.2966881,3.267285 21.2587831,3.479175 21.2955331,3.69306 C21.3267182,3.875865 21.4549232,4.04964 21.6391983,4.15947 C22.0302185,4.34784 22.4441287,4.27392 22.6785938,3.987795 L22.995694,3.60066 L22.995694,6.98901 L22.8309489,7.001925 C22.3966687,7.03605 22.0815635,7.36974 22.0815635,7.7952 C22.0815635,8.220555 22.3966687,8.554245 22.8309489,8.588475 L22.995694,8.60139 L22.995694,12.9696 L22.8309489,12.982515 C22.3966687,13.016745 22.0815635,13.350225 22.0815635,13.775475 C22.0815635,14.200935 22.3966687,14.53473 22.8309489,14.56896 L22.995694,14.581875 L22.995694,18.905355 L22.8381939,18.92415 C22.4184037,18.974445 22.1251386,19.299105 22.1251386,19.71375 C22.1251386,20.128185 22.4182987,20.45274 22.8379839,20.50293 L22.995694,20.52183 L22.995694,24.13383 L19.4705272,24.13383 L19.4568772,23.96982 C19.4220172,23.54877 19.077512,23.24322 18.6378768,23.24322 C18.1981366,23.24322 17.8538414,23.54877 17.8190864,23.96982 L17.8054364,24.13383 L13.2840291,24.13383 L13.2769941,23.962365 C13.2590391,23.528085 12.906344,23.20059 12.4565237,23.20059 C12.0068085,23.20059 11.6541133,23.52819 11.6360533,23.96247 L11.6289133,24.13383 L7.23823112,24.13383 L7.22458111,23.96982 C7.18972109,23.54877 6.84521592,23.24322 6.4056857,23.24322 C5.96626048,23.24322 5.62186031,23.54877 5.58700029,23.96982 L5.57335029,24.13383 L1.74798837,24.13383 C1.27916314,24.13383 0.925522963,24.47634 0.925522963,24.93057 C0.925522963,25.3848 1.27916314,25.727415 1.74798837,25.727415 L5.57093529,25.727415 L5.5961353,25.876305 C5.66197033,26.26302 5.9947155,26.533185 6.4056857,26.533185 C6.81676091,26.533185 7.14971607,26.26302 7.21555111,25.8762 L7.24075112,25.727415 L11.6226133,25.727415 L11.6529583,25.868535 C11.7330734,26.240865 12.0559485,26.49087 12.4565237,26.49087 C12.8570989,26.49087 13.1799741,26.240865 13.2600891,25.868535 L13.2904341,25.727415 L17.8028114,25.727415 L17.8281164,25.8762 C17.8938464,26.26302 18.2269066,26.533185 18.6378768,26.533185 C19.015877,26.533185 19.3448422,26.2584 19.4376622,25.86507 L19.4703172,25.727415 L22.995694,25.727415 L22.995694,29.2992 L22.8309489,29.312115 C22.3966687,29.346345 22.0815635,29.679825 22.0815635,30.105075 C22.0815635,30.53064 22.3966687,30.864435 22.8309489,30.898665 L22.995694,30.91158 L22.995694,35.2842 L22.8238089,35.291025 C22.3757737,35.308455 22.0379885,35.650125 22.0379885,36.08556 C22.0379885,36.521205 22.3757737,36.86298 22.8238089,36.88041 L22.995694,36.887235 L22.995694,40.36914 L22.8309489,40.382055 C22.3966687,40.416285 22.0815635,40.74987 22.0815635,41.17533 C22.0815635,41.60079 22.3966687,41.93448 22.8309489,41.96871 L22.995694,41.981625 L22.995694,46.689195 C22.995694,47.143425 23.3492292,47.485935 23.8179494,47.485935 C24.2407846,47.485935 24.6405198,47.098695 24.6405198,46.689195 L24.6405198,41.98383 L24.7907749,41.959575 C25.1891451,41.895315 25.4672902,41.572755 25.4672902,41.17533 C25.4672902,40.777905 25.1891451,40.455345 24.7907749,40.391085 L24.6405198,40.366935 L24.6405198,36.89301 L24.7834249,36.86382 C25.1665701,36.78549 25.4239252,36.472695 25.4239252,36.08556 C25.4239252,35.698635 25.1665701,35.385945 24.7834249,35.307615 L24.6405198,35.278425 L24.6405198,30.913785 L24.7907749,30.88953 C25.1891451,30.82527 25.4672902,30.50271 25.4672902,30.105075 C25.4672902,29.707755 25.1891451,29.385405 24.7908799,29.321145 L24.6405198,29.296995 L24.6405198,25.727415 L28.1195916,25.727415 L28.1448966,25.8762 C28.2106266,26.26302 28.5436868,26.533185 28.954657,26.533185 C29.3243622,26.533185 29.6867173,26.235615 29.7626324,25.8699 L29.7922424,25.727415 L34.1716896,25.727415 L34.2020346,25.868535 C34.2821496,26.240865 34.6050248,26.49087 35.0056,26.49087 C35.2022651,26.49087 35.4211902,26.39658 35.5773253,26.24475 L35.5921303,26.231835 C35.7039554,26.14458 35.7770354,26.02257 35.8093754,25.86927 L35.8393004,25.727415 L40.3094677,25.727415 L40.3398127,25.868535 C40.4199277,26.240865 40.7428029,26.49087 41.1433781,26.49087 C41.2808231,26.49087 41.5359733,26.460735 41.7016634,26.25924 L41.7298034,26.23194 C41.8417334,26.14458 41.9147085,26.02257 41.9469435,25.869375 L41.9767635,25.727415 L45.1258201,25.727415 L44.7712349,26.040315 C44.6696998,26.12988 44.5942048,26.253885 44.5338298,26.430495 C44.4510897,26.672625 44.5262698,26.873805 44.6039698,26.99991 L44.6107948,27.01209 C44.7409949,27.266085 45.01368,27.4239 45.3221702,27.4239 C45.4684352,27.4239 45.6075603,27.388095 45.7039504,27.325515 L45.7143454,27.319425 L48.7613419,25.62252 C48.8968969,25.55637 48.990347,25.467435 49.064477,25.338285 C49.073402,25.323795 49.078547,25.31655 49.083692,25.309305 C49.1582421,25.189185 49.1942571,25.061715 49.1924905,24.935085 C49.1948871,24.801105 49.1587671,24.672795 49.087892,24.557925" id="Fill-4"></path>
                    <path d="M15.3657077,16.1678265 C18.2922691,12.7709715 19.7764449,8.0844015 19.7764449,2.2387365 C19.7764449,1.7637165 19.3909897,1.3914915 18.8990644,1.3914915 C18.4071392,1.3914915 18.021789,1.7637165 18.021789,2.2387365 C18.021789,5.4066915 17.5032988,9.9615915 15.0334875,13.6702965 C12.1750711,17.9623815 7.41226871,20.1387165 0.877380439,20.1387165 C0.385455193,20.1387165 0,20.5108365 0,20.9858565 C0,21.4609815 0.385455193,21.8331015 0.877380439,21.8331015 C7.23261362,21.8331015 12.1072411,19.9270365 15.3657077,16.1678265" id="Fill-6"></path>
                    <path d="M47.0632915,28.7913885 C41.0437435,28.8751785 36.2597311,30.3925335 32.8480694,33.3010335 C29.0481175,36.5459535 27.1647316,41.3203035 27.2505166,47.4911535 C27.2505166,47.9284785 27.6468918,48.2949285 28.1181321,48.2999685 C28.6161473,48.2626935 29.0048575,47.8737735 29.0048575,47.4105135 C28.9270525,41.0218935 31.0942535,36.3399435 35.4464007,33.4980135 C39.1995226,31.0474185 43.8569049,30.4843035 47.1030866,30.4434585 C47.5591018,30.4434585 47.941092,30.0555885 47.941092,29.5963185 C47.941092,29.1600435 47.5391518,28.7913885 47.0632915,28.7913885" id="Fill-8"></path>
                </g>
                <g id="Pure-Mathematics-Copy" transform="translate(345.000000, 57.000000)">
                    <g id="Group-3">
                        <mask id="mask-8" fill="white">
                            <use xlink:href="#path-7"></use>
                        </mask>
                        <g id="Clip-2"></g>
                    </g>
                    <path d="M55.991656,31.9079565 L55.984831,31.8957765 C55.8787809,31.6890315 55.7081559,31.5887565 55.5837308,31.5409815 L55.5608408,31.5302715 L52.6073993,29.8855515 C52.5113243,29.8230765 52.3724092,29.7873765 52.2259341,29.7873765 C51.949574,29.7873765 51.6550488,29.9603115 51.5096238,30.2081115 C51.4299287,30.3373665 51.3547487,30.5384415 51.4374887,30.7808865 C51.4888337,30.9309315 51.5780838,31.0662765 51.6954738,31.1723265 L52.040189,31.4838615 L48.8743324,31.4838615 L48.8672974,31.3123965 C48.8493424,30.8781165 48.4967522,30.5506215 48.047142,30.5506215 C47.8505819,30.5506215 47.6314468,30.6450165 47.4752067,30.7970565 L47.4605067,30.8099715 C47.2775966,30.9523515 47.2323416,31.1615115 47.2264616,31.3120815 L47.2198466,31.4838615 L42.7367644,31.4838615 L42.7297294,31.3123965 C42.7117744,30.8781165 42.3591842,30.5506215 41.909364,30.5506215 C41.7125939,30.5506215 41.4935637,30.6450165 41.3378487,30.7969515 L41.3229387,30.8099715 C41.1399236,30.9525615 41.0944585,31.1616165 41.0886835,31.3120815 L41.0820685,31.4838615 L36.6910713,31.4838615 L36.6774213,31.3198515 C36.6425613,30.8988015 36.2980561,30.5932515 35.8584209,30.5932515 C35.4188907,30.5932515 35.0744905,30.8988015 35.0396305,31.3198515 L35.0259805,31.4838615 L31.5442838,31.4838615 L31.5442838,27.8716515 L31.7018889,27.8529615 C32.1215741,27.8028765 32.4146292,27.4783215 32.4146292,27.0637815 C32.4146292,26.6489265 32.1215741,26.3242665 31.7018889,26.2741815 L31.5442838,26.2554915 L31.5442838,21.9342165 L31.6945388,21.9100665 C32.092909,21.8458065 32.3710542,21.5232465 32.3710542,21.1255065 C32.3710542,20.7281865 32.092909,20.4057315 31.6945388,20.3414715 L31.5442838,20.3173215 L31.5442838,15.9536265 L31.6946438,15.9293715 C32.092909,15.8651115 32.3710542,15.5427615 32.3710542,15.1452315 C32.3710542,14.7478065 32.092909,14.4252465 31.6945388,14.3609865 L31.5442838,14.3367315 L31.5442838,11.0668215 L31.8518289,11.3858115 C31.994629,11.5339665 32.1921341,11.6155515 32.4076992,11.6155515 C32.5881943,11.6155515 32.7301544,11.5826865 32.8295894,11.5175865 C33.0232095,11.4036615 33.1533046,11.2278915 33.1846996,11.0433015 C33.2211346,10.8291015 33.1834396,10.6168965 33.0785445,10.4458515 L31.5249638,8.0132115 L31.5020738,7.9141965 C31.4721487,7.7395815 31.3440487,7.5659115 31.1598786,7.4560815 C31.0129835,7.3857315 30.8655634,7.3500315 30.7217134,7.3500315 L30.7028134,7.3513965 C30.6853833,7.3512915 30.6783483,7.3506615 30.6712083,7.3500315 L30.6707883,7.3500315 C30.5307183,7.3500315 30.3844532,7.3857315 30.2386081,7.4559765 C30.055488,7.5657015 29.927913,7.7395815 29.8968329,7.9222815 L29.8881179,7.9789815 L28.3039822,10.4487915 C28.2004521,10.6173165 28.1625471,10.8292065 28.1992971,11.0430915 C28.2304821,11.2258965 28.3586872,11.3996715 28.5429623,11.5095015 C28.9339825,11.6978715 29.3478927,11.6239515 29.5823578,11.3378265 L29.8994579,10.9506915 L29.8994579,14.3390415 L29.7347129,14.3519565 C29.3004327,14.3860815 28.9853275,14.7197715 28.9853275,15.1452315 C28.9853275,15.5705865 29.3004327,15.9042765 29.7347129,15.9385065 L29.8994579,15.9514215 L29.8994579,20.3196315 L29.7347129,20.3325465 C29.3004327,20.3667765 28.9853275,20.7002565 28.9853275,21.1255065 C28.9853275,21.5509665 29.3004327,21.8847615 29.7347129,21.9189915 L29.8994579,21.9319065 L29.8994579,26.2553865 L29.7419579,26.2741815 C29.3221677,26.3244765 29.0289025,26.6491365 29.0289025,27.0637815 C29.0289025,27.4782165 29.3220627,27.8027715 29.7417479,27.8529615 L29.8994579,27.8718615 L29.8994579,31.4838615 L26.3742912,31.4838615 L26.3606412,31.3198515 C26.3257812,30.8988015 25.981276,30.5932515 25.5416408,30.5932515 C25.1019006,30.5932515 24.7576054,30.8988015 24.7228504,31.3198515 L24.7092004,31.4838615 L20.1877931,31.4838615 L20.1807581,31.3123965 C20.1628031,30.8781165 19.8101079,30.5506215 19.3602877,30.5506215 C18.9105725,30.5506215 18.5578773,30.8782215 18.5398173,31.3125015 L18.5326773,31.4838615 L14.1419951,31.4838615 L14.1283451,31.3198515 C14.093485,30.8988015 13.7489799,30.5932515 13.3094497,30.5932515 C12.8700244,30.5932515 12.5256243,30.8988015 12.4907642,31.3198515 L12.4771142,31.4838615 L8.65175233,31.4838615 C8.18292709,31.4838615 7.82928691,31.8263715 7.82928691,32.2806015 C7.82928691,32.7348315 8.18292709,33.0774465 8.65175233,33.0774465 L12.4746992,33.0774465 L12.4998992,33.2263365 C12.5657343,33.6130515 12.8984794,33.8832165 13.3094497,33.8832165 C13.7205249,33.8832165 14.05348,33.6130515 14.1193151,33.2262315 L14.1445151,33.0774465 L18.5263773,33.0774465 L18.5567223,33.2185665 C18.6368373,33.5908965 18.9597125,33.8409015 19.3602877,33.8409015 C19.7608629,33.8409015 20.083738,33.5908965 20.1638531,33.2185665 L20.1941981,33.0774465 L24.7065754,33.0774465 L24.7318804,33.2262315 C24.7976104,33.6130515 25.1306706,33.8832165 25.5416408,33.8832165 C25.919641,33.8832165 26.2486061,33.6084315 26.3414262,33.2151015 L26.3740812,33.0774465 L29.8994579,33.0774465 L29.8994579,36.6492315 L29.7347129,36.6621465 C29.3004327,36.6963765 28.9853275,37.0298565 28.9853275,37.4551065 C28.9853275,37.8806715 29.3004327,38.2144665 29.7347129,38.2486965 L29.8994579,38.2616115 L29.8994579,42.6342315 L29.7275729,42.6410565 C29.2795376,42.6584865 28.9417525,43.0001565 28.9417525,43.4355915 C28.9417525,43.8712365 29.2795376,44.2130115 29.7275729,44.2304415 L29.8994579,44.2372665 L29.8994579,47.7191715 L29.7347129,47.7320865 C29.3004327,47.7663165 28.9853275,48.0999015 28.9853275,48.5253615 C28.9853275,48.9508215 29.3004327,49.2845115 29.7347129,49.3187415 L29.8994579,49.3316565 L29.8994579,54.0392265 C29.8994579,54.4934565 30.2529931,54.8359665 30.7217134,54.8359665 C31.1445486,54.8359665 31.5442838,54.4487265 31.5442838,54.0392265 L31.5442838,49.3338615 L31.6945388,49.3096065 C32.092909,49.2453465 32.3710542,48.9227865 32.3710542,48.5253615 C32.3710542,48.1279365 32.092909,47.8053765 31.6945388,47.7411165 L31.5442838,47.7169665 L31.5442838,44.2430415 L31.6871888,44.2138515 C32.070334,44.1355215 32.3276892,43.8227265 32.3276892,43.4355915 C32.3276892,43.0486665 32.070334,42.7359765 31.6871888,42.6576465 L31.5442838,42.6284565 L31.5442838,38.2638165 L31.6945388,38.2395615 C32.092909,38.1753015 32.3710542,37.8527415 32.3710542,37.4551065 C32.3710542,37.0577865 32.092909,36.7354365 31.6946438,36.6711765 L31.5442838,36.6470265 L31.5442838,33.0774465 L35.0233555,33.0774465 L35.0486605,33.2262315 C35.1143906,33.6130515 35.4474507,33.8832165 35.8584209,33.8832165 C36.2281261,33.8832165 36.5904813,33.5856465 36.6663963,33.2199315 L36.6960063,33.0774465 L41.0754535,33.0774465 L41.1057986,33.2185665 C41.1859136,33.5908965 41.5087888,33.8409015 41.909364,33.8409015 C42.1060291,33.8409015 42.3249542,33.7466115 42.4810892,33.5947815 L42.4958942,33.5818665 C42.6077193,33.4946115 42.6807993,33.3726015 42.7131394,33.2193015 L42.7430644,33.0774465 L47.2132316,33.0774465 L47.2435766,33.2185665 C47.3236917,33.5908965 47.6465668,33.8409015 48.047142,33.8409015 C48.1845871,33.8409015 48.4397372,33.8107665 48.6054273,33.6092715 L48.6335673,33.5819715 C48.7454974,33.4946115 48.8184724,33.3726015 48.8507074,33.2194065 L48.8805274,33.0774465 L52.029584,33.0774465 L51.6749988,33.3903465 C51.5734638,33.4799115 51.4979687,33.6039165 51.4375937,33.7805265 C51.3548537,34.0226565 51.4300337,34.2238365 51.5077338,34.3499415 L51.5145588,34.3621215 C51.6447588,34.6161165 51.917444,34.7739315 52.2259341,34.7739315 C52.3721992,34.7739315 52.5113243,34.7381265 52.6077143,34.6755465 L52.6181093,34.6694565 L55.6651058,32.9725515 C55.8006609,32.9064015 55.8941109,32.8174665 55.968241,32.6883165 C55.977166,32.6738265 55.982311,32.6665815 55.987456,32.6593365 C56.062006,32.5392165 56.098021,32.4117465 56.0962544,32.2851165 C56.098651,32.1511365 56.062531,32.0228265 55.991656,31.9079565" id="Fill-4" fill="#E51D74"></path>
                    <path d="M22.2694716,23.517858 C25.1960331,20.121003 26.6802088,15.434433 26.6802088,9.588768 C26.6802088,9.113748 26.2947536,8.741523 25.8028284,8.741523 C25.3109032,8.741523 24.925553,9.113748 24.925553,9.588768 C24.925553,12.756723 24.4070627,17.311623 21.9372515,21.020328 C19.078835,25.312413 14.3160327,27.488748 7.78114439,27.488748 C7.28921914,27.488748 6.90376395,27.860868 6.90376395,28.335888 C6.90376395,28.811013 7.28921914,29.183133 7.78114439,29.183133 C14.1363776,29.183133 19.011005,27.277068 22.2694716,23.517858" id="Fill-6" fill="#E51D74"></path>
                    <path d="M53.9670555,36.14142 C47.9475075,36.22521 43.1634951,37.742565 39.7518334,40.651065 C35.9518815,43.895985 34.0684955,48.670335 34.1542806,54.841185 C34.1542806,55.27851 34.5506558,55.64496 35.021896,55.65 C35.5199113,55.612725 35.9086215,55.223805 35.9086215,54.760545 C35.8308164,48.371925 37.9980175,43.689975 42.3501647,40.848045 C46.1032866,38.39745 50.7606689,37.834335 54.0068505,37.79349 C54.4628657,37.79349 54.8448559,37.40562 54.8448559,36.94635 C54.8448559,36.510075 54.4429157,36.14142 53.9670555,36.14142" id="Fill-8" fill="#E51D74"></path>
                </g>
            </g>
        </g>
    </g>
</svg>