<?xml version="1.0" encoding="UTF-8"?>
<svg width="500px" height="125px" viewBox="0 0 500 125" version="1.1" xmlns="http://www.w3.org/2000/svg" xmlns:xlink="http://www.w3.org/1999/xlink">
    <title>02</title>
    <defs>
        <rect id="path-1" x="0" y="0" width="500" height="125"></rect>
    </defs>
    <g id="Page-1" stroke="none" stroke-width="1" fill="none" fill-rule="evenodd">
        <g id="02">
            <g id="Group-60">
                <mask id="mask-2" fill="white">
                    <use xlink:href="#path-1"></use>
                </mask>
                <g id="Mask"></g>
            </g>
            <g transform="translate(20.015000, 10.323000)" fill="#5E4B43" fill-rule="nonzero" id="Group-44">
                <g>
                    <g id="أ" transform="translate(411.008000, 82.630000)">
                        <path d="M2.046,7.347 L3.441,7.347 L3.441,29.047 L2.046,29.047 L2.046,7.347 Z M0,4.867 L1.426,4.65 C1.054,4.42266667 0.785333333,4.13333333 0.62,3.782 C0.454666667,3.43066667 0.372,3.07933333 0.372,2.728 C0.372,1.90133333 0.651,1.24 1.209,0.744 C1.767,0.248 2.49033333,0 3.379,0 C4.061,0 4.62933333,0.144666667 5.084,0.434 L4.712,1.302 C4.54666667,1.19866667 4.34516667,1.11083333 4.1075,1.0385 C3.86983333,0.966166667 3.60633333,0.93 3.317,0.93 C2.80033333,0.93 2.3405,1.09533333 1.9375,1.426 C1.5345,1.75666667 1.333,2.21133333 1.333,2.79 C1.333,3.20333333 1.44666667,3.55466667 1.674,3.844 C1.90133333,4.13333333 2.17,4.34 2.48,4.464 L2.79,4.402 C3.038,4.36066667 3.35833333,4.31416667 3.751,4.2625 C4.14366667,4.21083333 4.52083333,4.16433333 4.8825,4.123 C5.24416667,4.08166667 5.487,4.07133333 5.611,4.092 L5.611,5.022 C5.21833333,5.06333333 4.81016667,5.10983333 4.3865,5.1615 C3.96283333,5.21316667 3.5185,5.26483333 3.0535,5.3165 C2.5885,5.36816667 2.10283333,5.43533333 1.5965,5.518 C1.09016667,5.60066667 0.558,5.69366667 0,5.797 L0,4.867 Z" id="Shape"></path>
                    </g>
                    <g id="أ-copy" transform="translate(59.008000, 44.630000)">
                        <path d="M2.046,7.347 L3.441,7.347 L3.441,29.047 L2.046,29.047 L2.046,7.347 Z M0,4.867 L1.426,4.65 C1.054,4.42266667 0.785333333,4.13333333 0.62,3.782 C0.454666667,3.43066667 0.372,3.07933333 0.372,2.728 C0.372,1.90133333 0.651,1.24 1.209,0.744 C1.767,0.248 2.49033333,0 3.379,0 C4.061,0 4.62933333,0.144666667 5.084,0.434 L4.712,1.302 C4.54666667,1.19866667 4.34516667,1.11083333 4.1075,1.0385 C3.86983333,0.966166667 3.60633333,0.93 3.317,0.93 C2.80033333,0.93 2.3405,1.09533333 1.9375,1.426 C1.5345,1.75666667 1.333,2.21133333 1.333,2.79 C1.333,3.20333333 1.44666667,3.55466667 1.674,3.844 C1.90133333,4.13333333 2.17,4.34 2.48,4.464 L2.79,4.402 C3.038,4.36066667 3.35833333,4.31416667 3.751,4.2625 C4.14366667,4.21083333 4.52083333,4.16433333 4.8825,4.123 C5.24416667,4.08166667 5.487,4.07133333 5.611,4.092 L5.611,5.022 C5.21833333,5.06333333 4.81016667,5.10983333 4.3865,5.1615 C3.96283333,5.21316667 3.5185,5.26483333 3.0535,5.3165 C2.5885,5.36816667 2.10283333,5.43533333 1.5965,5.518 C1.09016667,5.60066667 0.558,5.69366667 0,5.797 L0,4.867 Z" id="Shape"></path>
                    </g>
                    <g id="ب" transform="translate(253.000000, 65.859000)">
                        <path d="M9.951,20.367 C9.579,20.367 9.3,20.2636667 9.114,20.057 C8.928,19.8503333 8.835,19.5506667 8.835,19.158 C8.835,18.7653333 8.93316667,18.4656667 9.1295,18.259 C9.32583333,18.0523333 9.59966667,17.949 9.951,17.949 C10.323,17.949 10.602,18.0626667 10.788,18.29 C10.974,18.5173333 11.067,18.8066667 11.067,19.158 C11.067,19.53 10.974,19.8245 10.788,20.0415 C10.602,20.2585 10.323,20.367 9.951,20.367 Z M5.642,14.818 C3.906,14.818 2.53166667,14.2858333 1.519,13.2215 C0.506333333,12.1571667 0,10.7363333 0,8.959 C0,8.54566667 0.0258333333,8.06 0.0775,7.502 C0.129166667,6.944 0.217,6.386 0.341,5.828 C0.465,5.27 0.599333333,4.78433333 0.744,4.371 L2.015,4.371 C1.829,5.07366667 1.6895,5.78666667 1.5965,6.51 C1.5035,7.23333333 1.457,7.998 1.457,8.804 C1.457,10.1886667 1.80316667,11.3201667 2.4955,12.1985 C3.18783333,13.0768333 4.28833333,13.516 5.797,13.516 L16.244,13.516 L16.244,0 L17.639,0 L17.639,14.818 L5.642,14.818 Z" id="Shape"></path>
                    </g>
                    <g id="ت" transform="translate(314.000000, 97.131000)">
                        <path d="M7.068,2.418 C6.79933333,2.418 6.54616667,2.33533333 6.3085,2.17 C6.07083333,2.00466667 5.952,1.69466667 5.952,1.24 C5.952,0.785333333 6.07083333,0.465 6.3085,0.279 C6.54616667,0.093 6.79933333,0 7.068,0 C7.41933333,0 7.69316667,0.1085 7.8895,0.3255 C8.08583333,0.5425 8.184,0.847333333 8.184,1.24 C8.184,1.63266667 8.091,1.92716667 7.905,2.1235 C7.719,2.31983333 7.44,2.418 7.068,2.418 Z M11.036,2.418 C10.6846667,2.418 10.4056667,2.31983333 10.199,2.1235 C9.99233333,1.92716667 9.889,1.63266667 9.889,1.24 C9.889,0.847333333 9.99233333,0.5425 10.199,0.3255 C10.4056667,0.1085 10.6846667,0 11.036,0 C11.408,0 11.687,0.118833333 11.873,0.3565 C12.059,0.594166667 12.152,0.888666667 12.152,1.24 C12.152,1.59133333 12.059,1.8755 11.873,2.0925 C11.687,2.3095 11.408,2.418 11.036,2.418 Z M5.642,17.546 C3.906,17.546 2.53166667,17.0138333 1.519,15.9495 C0.506333333,14.8851667 0,13.4643333 0,11.687 C0,11.2736667 0.0258333333,10.788 0.0775,10.23 C0.129166667,9.672 0.217,9.114 0.341,8.556 C0.465,7.998 0.599333333,7.51233333 0.744,7.099 L2.015,7.099 C1.829,7.80166667 1.6895,8.51466667 1.5965,9.238 C1.5035,9.96133333 1.457,10.726 1.457,11.532 C1.457,12.9166667 1.80316667,14.0481667 2.4955,14.9265 C3.18783333,15.8048333 4.28833333,16.244 5.797,16.244 L16.244,16.244 L16.244,2.728 L17.639,2.728 L17.639,17.546 L5.642,17.546 Z" id="Shape"></path>
                    </g>
                    <g id="ث" transform="translate(47.000000, 94.775000)">
                        <path d="M9.486,2.294 C9.15533333,2.294 8.89183333,2.19583333 8.6955,1.9995 C8.49916667,1.80316667 8.401,1.519 8.401,1.147 C8.401,0.775 8.49916667,0.490833333 8.6955,0.2945 C8.89183333,0.0981666667 9.15533333,0 9.486,0 C9.81666667,0 10.0801667,0.0981666667 10.2765,0.2945 C10.4728333,0.490833333 10.571,0.775 10.571,1.147 C10.571,1.53966667 10.4676667,1.829 10.261,2.015 C10.0543333,2.201 9.796,2.294 9.486,2.294 Z M7.533,5.425 C7.20233333,5.425 6.9285,5.32166667 6.7115,5.115 C6.4945,4.90833333 6.386,4.619 6.386,4.247 C6.386,3.83366667 6.48933333,3.52883333 6.696,3.3325 C6.90266667,3.13616667 7.18166667,3.038 7.533,3.038 C7.905,3.038 8.184,3.14133333 8.37,3.348 C8.556,3.55466667 8.649,3.85433333 8.649,4.247 C8.649,4.619 8.55083333,4.90833333 8.3545,5.115 C8.15816667,5.32166667 7.88433333,5.425 7.533,5.425 Z M11.501,5.425 C11.129,5.425 10.8448333,5.3165 10.6485,5.0995 C10.4521667,4.8825 10.354,4.59833333 10.354,4.247 C10.354,3.85433333 10.4521667,3.55466667 10.6485,3.348 C10.8448333,3.14133333 11.129,3.038 11.501,3.038 C11.8523333,3.038 12.1261667,3.14133333 12.3225,3.348 C12.5188333,3.55466667 12.617,3.85433333 12.617,4.247 C12.617,4.619 12.5188333,4.90833333 12.3225,5.115 C12.1261667,5.32166667 11.8523333,5.425 11.501,5.425 Z M5.642,19.902 C3.906,19.902 2.53166667,19.3698333 1.519,18.3055 C0.506333333,17.2411667 0,15.8203333 0,14.043 C0,13.6296667 0.0258333333,13.144 0.0775,12.586 C0.129166667,12.028 0.217,11.47 0.341,10.912 C0.465,10.354 0.599333333,9.86833333 0.744,9.455 L2.015,9.455 C1.829,10.1576667 1.6895,10.8706667 1.5965,11.594 C1.5035,12.3173333 1.457,13.082 1.457,13.888 C1.457,15.2726667 1.80316667,16.4041667 2.4955,17.2825 C3.18783333,18.1608333 4.28833333,18.6 5.797,18.6 L16.244,18.6 L16.244,5.084 L17.639,5.084 L17.639,19.902 L5.642,19.902 Z" id="Shape"></path>
                    </g>
                    <g id="ث-copy" transform="translate(369.000000, 13.775000)">
                        <path d="M9.486,2.294 C9.15533333,2.294 8.89183333,2.19583333 8.6955,1.9995 C8.49916667,1.80316667 8.401,1.519 8.401,1.147 C8.401,0.775 8.49916667,0.490833333 8.6955,0.2945 C8.89183333,0.0981666667 9.15533333,0 9.486,0 C9.81666667,0 10.0801667,0.0981666667 10.2765,0.2945 C10.4728333,0.490833333 10.571,0.775 10.571,1.147 C10.571,1.53966667 10.4676667,1.829 10.261,2.015 C10.0543333,2.201 9.796,2.294 9.486,2.294 Z M7.533,5.425 C7.20233333,5.425 6.9285,5.32166667 6.7115,5.115 C6.4945,4.90833333 6.386,4.619 6.386,4.247 C6.386,3.83366667 6.48933333,3.52883333 6.696,3.3325 C6.90266667,3.13616667 7.18166667,3.038 7.533,3.038 C7.905,3.038 8.184,3.14133333 8.37,3.348 C8.556,3.55466667 8.649,3.85433333 8.649,4.247 C8.649,4.619 8.55083333,4.90833333 8.3545,5.115 C8.15816667,5.32166667 7.88433333,5.425 7.533,5.425 Z M11.501,5.425 C11.129,5.425 10.8448333,5.3165 10.6485,5.0995 C10.4521667,4.8825 10.354,4.59833333 10.354,4.247 C10.354,3.85433333 10.4521667,3.55466667 10.6485,3.348 C10.8448333,3.14133333 11.129,3.038 11.501,3.038 C11.8523333,3.038 12.1261667,3.14133333 12.3225,3.348 C12.5188333,3.55466667 12.617,3.85433333 12.617,4.247 C12.617,4.619 12.5188333,4.90833333 12.3225,5.115 C12.1261667,5.32166667 11.8523333,5.425 11.501,5.425 Z M5.642,19.902 C3.906,19.902 2.53166667,19.3698333 1.519,18.3055 C0.506333333,17.2411667 0,15.8203333 0,14.043 C0,13.6296667 0.0258333333,13.144 0.0775,12.586 C0.129166667,12.028 0.217,11.47 0.341,10.912 C0.465,10.354 0.599333333,9.86833333 0.744,9.455 L2.015,9.455 C1.829,10.1576667 1.6895,10.8706667 1.5965,11.594 C1.5035,12.3173333 1.457,13.082 1.457,13.888 C1.457,15.2726667 1.80316667,16.4041667 2.4955,17.2825 C3.18783333,18.1608333 4.28833333,18.6 5.797,18.6 L16.244,18.6 L16.244,5.084 L17.639,5.084 L17.639,19.902 L5.642,19.902 Z" id="Shape"></path>
                    </g>
                    <g id="و" transform="translate(134.000000, 52.859000)">
                        <path d="M4.898,22.258 C3.906,22.258 2.99666667,22.103 2.17,21.793 C1.34333333,21.483 0.62,21.0903333 0,20.615 L0.682,19.561 C1.364,19.995 2.046,20.336 2.728,20.584 C3.41,20.832 4.185,20.956 5.053,20.956 C6.58233333,20.956 7.79133333,20.5116667 8.68,19.623 C9.56866667,18.7343333 10.013,17.5873333 10.013,16.182 L10.013,14.818 L6.882,14.818 C4.75333333,14.818 3.1,14.229 1.922,13.051 C0.744,11.873 0.155,10.137 0.155,7.843 C0.155,6.293 0.465,4.93416667 1.085,3.7665 C1.705,2.59883333 2.604,1.67916667 3.782,1.0075 C4.96,0.335833333 6.39633333,0 8.091,0 L11.377,0 L11.377,15.996 C11.377,17.9386667 10.8086667,19.468 9.672,20.584 C8.53533333,21.7 6.944,22.258 4.898,22.258 Z M10.013,13.516 L10.013,1.302 L8.06,1.302 C6.09666667,1.302 4.526,1.86516667 3.348,2.9915 C2.17,4.11783333 1.581,5.74533333 1.581,7.874 C1.581,9.75466667 2.0305,11.1651667 2.9295,12.1055 C3.8285,13.0458333 5.177,13.516 6.975,13.516 L10.013,13.516 Z" id="Shape"></path>
                    </g>
                    <g id="س" transform="translate(420.907000, 11.859000)">
                        <path d="M27.218,14.818 C26.288,14.818 25.3941667,14.6785 24.5365,14.3995 C23.6788333,14.1205 22.9296667,13.5676667 22.289,12.741 C21.917,13.361 21.3745,13.8621667 20.6615,14.2445 C19.9485,14.6268333 19.0753333,14.818 18.042,14.818 L14.508,14.818 C14.5286667,17.3186667 14.0171667,19.1838333 12.9735,20.4135 C11.9298333,21.6431667 10.1783333,22.258 7.719,22.258 L6.262,22.258 C4.87733333,22.258 3.72,21.9583333 2.79,21.359 C1.86,20.7596667 1.1625,19.8968333 0.6975,18.7705 C0.2325,17.6441667 0,16.2853333 0,14.694 C0,13.4126667 0.1085,12.1313333 0.3255,10.85 C0.5425,9.56866667 0.837,8.45266667 1.209,7.502 L2.573,7.502 C2.18033333,8.432 1.891,9.51183333 1.705,10.7415 C1.519,11.9711667 1.426,13.2783333 1.426,14.663 C1.46733333,16.7296667 1.891,18.2951667 2.697,19.3595 C3.503,20.4238333 4.712,20.956 6.324,20.956 L7.688,20.956 C9.56866667,20.956 10.943,20.5013333 11.811,19.592 C12.679,18.6826667 13.113,17.236 13.113,15.252 L13.113,2.418 L14.508,2.418 L14.508,13.516 L18.166,13.516 C19.1993333,13.516 20.026,13.2008333 20.646,12.5705 C21.266,11.9401667 21.576,11.1083333 21.576,10.075 L21.576,2.418 L22.971,2.418 L22.971,10.633 C22.971,10.7363333 22.9606667,10.8603333 22.94,11.005 C22.9193333,11.1496667 22.8883333,11.284 22.847,11.408 C23.3843333,12.214 24.0043333,12.7668333 24.707,13.0665 C25.4096667,13.3661667 26.2673333,13.516 27.28,13.516 L29.078,13.516 L29.078,0 L30.442,0 L30.442,14.818 L27.218,14.818 Z" id="Path"></path>
                    </g>
                    <g id="ق" transform="translate(93.938000, 0.000000)">
                        <path d="M14.353,2.418 C14.0843333,2.418 13.8311667,2.33533333 13.5935,2.17 C13.3558333,2.00466667 13.237,1.69466667 13.237,1.24 C13.237,0.764666667 13.3558333,0.439166667 13.5935,0.2635 C13.8311667,0.0878333333 14.0843333,0 14.353,0 C14.7043333,0 14.9781667,0.103333333 15.1745,0.31 C15.3708333,0.516666667 15.469,0.826666667 15.469,1.24 C15.469,1.612 15.376,1.90133333 15.19,2.108 C15.004,2.31466667 14.725,2.418 14.353,2.418 Z M18.321,2.418 C17.9696667,2.418 17.6906667,2.31466667 17.484,2.108 C17.2773333,1.90133333 17.174,1.612 17.174,1.24 C17.174,0.826666667 17.2773333,0.516666667 17.484,0.31 C17.6906667,0.103333333 17.9696667,0 18.321,0 C18.693,0 18.972,0.113666667 19.158,0.341 C19.344,0.568333333 19.437,0.868 19.437,1.24 C19.437,1.59133333 19.344,1.8755 19.158,2.0925 C18.972,2.3095 18.693,2.418 18.321,2.418 Z M6.634,28.117 C5.55933333,28.117 4.60866667,27.9723333 3.782,27.683 C2.95533333,27.3936667 2.263,26.9493333 1.705,26.35 C1.147,25.7506667 0.723333333,25.0066667 0.434,24.118 C0.144666667,23.2293333 0,22.1856667 0,20.987 C0,19.8296667 0.093,18.6568333 0.279,17.4685 C0.465,16.2801667 0.744,15.066 1.116,13.826 L2.449,13.826 C2.18033333,14.8386667 1.94266667,15.9288333 1.736,17.0965 C1.52933333,18.2641667 1.426,19.4886667 1.426,20.77 C1.426,22.878 1.86516667,24.4125 2.7435,25.3735 C3.62183333,26.3345 5.01166667,26.815 6.913,26.815 L13.702,26.815 C15.4793333,26.815 16.8743333,26.3913333 17.887,25.544 C18.8996667,24.6966667 19.406,23.3946667 19.406,21.638 L19.406,20.677 L15.934,20.677 C14.4666667,20.677 13.2628333,20.3928333 12.3225,19.8245 C11.3821667,19.2561667 10.6898333,18.476 10.2455,17.484 C9.80116667,16.492 9.579,15.3863333 9.579,14.167 C9.579,12.5343333 9.91483333,11.0928333 10.5865,9.8425 C11.2581667,8.59216667 12.1985,7.61566667 13.4075,6.913 C14.6165,6.21033333 16.0373333,5.859 17.67,5.859 L20.801,5.859 L20.801,21.514 C20.801,23.6013333 20.212,25.2236667 19.034,26.381 C17.856,27.5383333 16.089,28.117 13.733,28.117 L6.634,28.117 Z M19.406,19.375 L19.406,7.161 L17.732,7.161 C16.3266667,7.161 15.1176667,7.46066667 14.105,8.06 C13.0923333,8.65933333 12.3225,9.47566667 11.7955,10.509 C11.2685,11.5423333 11.005,12.7203333 11.005,14.043 C11.005,15.0556667 11.1703333,15.965 11.501,16.771 C11.8316667,17.577 12.3535,18.2125 13.0665,18.6775 C13.7795,19.1425 14.725,19.375 15.903,19.375 L19.406,19.375 Z" id="Shape"></path>
                    </g>
                    <g id="ك" transform="translate(314.000000, 37.117000)">
                        <path d="M6.293,12.586 L7.843,12.369 C7.471,12.183 7.18166667,11.9143333 6.975,11.563 C6.76833333,11.2116667 6.665,10.8396667 6.665,10.447 C6.665,9.641 6.944,8.99516667 7.502,8.5095 C8.06,8.02383333 8.773,7.781 9.641,7.781 C9.99233333,7.781 10.3178333,7.82233333 10.6175,7.905 C10.9171667,7.98766667 11.1703333,8.091 11.377,8.215 L11.005,9.083 C10.5503333,8.85566667 10.0646667,8.742 9.548,8.742 C9.114,8.742 8.6955,8.8815 8.2925,9.1605 C7.8895,9.4395 7.688,9.889 7.688,10.509 C7.688,10.943 7.812,11.315 8.06,11.625 C8.308,11.935 8.60766667,12.121 8.959,12.183 C9.04166667,12.1623333 9.28966667,12.1261667 9.703,12.0745 C10.1163333,12.0228333 10.5451667,11.9711667 10.9895,11.9195 C11.4338333,11.8678333 11.7386667,11.842 11.904,11.842 L11.904,12.803 C11.5733333,12.8236667 11.1393333,12.865 10.602,12.927 C10.0646667,12.989 9.51183333,13.0561667 8.9435,13.1285 C8.37516667,13.2008333 7.85333333,13.2731667 7.378,13.3455 C6.90266667,13.4178333 6.541,13.485 6.293,13.547 L6.293,12.586 Z M5.549,23.56 C3.689,23.56 2.29916667,23.126 1.3795,22.258 C0.459833333,21.39 0,20.1293333 0,18.476 C0,18.042 0.0206666667,17.6286667 0.062,17.236 C0.103333333,16.8433333 0.1705,16.4403333 0.2635,16.027 C0.3565,15.6136667 0.475333333,15.159 0.62,14.663 L1.86,14.663 C1.71533333,15.3036667 1.5965,15.9081667 1.5035,16.4765 C1.4105,17.0448333 1.364,17.6596667 1.364,18.321 C1.364,19.5403333 1.674,20.5013333 2.294,21.204 C2.914,21.9066667 3.94733333,22.258 5.394,22.258 L16.244,22.258 L16.244,0 L17.639,0 L17.639,23.56 L5.549,23.56 Z" id="Shape"></path>
                    </g>
                    <g id="م" transform="translate(0.000000, 63.355000)">
                        <path d="M0,16.585 C0,15.7996667 0.118833333,15.1383333 0.3565,14.601 C0.594166667,14.0636667 0.997166667,13.6606667 1.5655,13.392 C2.13383333,13.1233333 2.93466667,12.9993333 3.968,13.02 C3.51333333,11.78 3.16716667,10.6123333 2.9295,9.517 C2.69183333,8.42166667 2.573,7.347 2.573,6.293 C2.573,5.673 2.635,5.01166667 2.759,4.309 C2.883,3.60633333 3.1,2.93466667 3.41,2.294 C4.07133333,1.59133333 4.84633333,1.03333333 5.735,0.62 C6.62366667,0.206666667 7.63633333,0 8.773,0 C9.951,0 10.9843333,0.279 11.873,0.837 C12.741,1.37433333 13.3971667,2.14933333 13.8415,3.162 C14.2858333,4.17466667 14.508,5.301 14.508,6.541 C14.508,7.38833333 14.4511667,8.16333333 14.3375,8.866 C14.2238333,9.56866667 14.043,10.2093333 13.795,10.788 C13.299,11.9453333 12.6118333,12.8236667 11.7335,13.423 C10.8551667,14.0223333 9.765,14.322 8.463,14.322 L3.782,14.322 C2.93466667,14.322 2.31983333,14.4976667 1.9375,14.849 C1.55516667,15.2003333 1.364,15.7686667 1.364,16.554 L1.364,24.242 L0,24.242 L0,16.585 Z M3.999,6.014 C3.999,7.08866667 4.11266667,8.20466667 4.34,9.362 C4.56733333,10.5193333 4.929,11.7386667 5.425,13.02 L8.587,13.02 C9.55833333,13.02 10.3746667,12.772 11.036,12.276 C11.6973333,11.78 12.2036667,11.0411667 12.555,10.0595 C12.9063333,9.07783333 13.082,7.89466667 13.082,6.51 C13.082,4.96 12.6945,3.7045 11.9195,2.7435 C11.1445,1.7825 10.1163333,1.302 8.835,1.302 C8.00833333,1.302 7.24366667,1.4415 6.541,1.7205 C5.83833333,1.9995 5.15633333,2.42833333 4.495,3.007 C4.35033333,3.29633333 4.2315,3.72 4.1385,4.278 C4.0455,4.836 3.999,5.41466667 3.999,6.014 Z" id="Shape"></path>
                    </g>
                    <g id="م-copy" transform="translate(365.000000, 57.355000)">
                        <path d="M0,16.585 C0,15.7996667 0.118833333,15.1383333 0.3565,14.601 C0.594166667,14.0636667 0.997166667,13.6606667 1.5655,13.392 C2.13383333,13.1233333 2.93466667,12.9993333 3.968,13.02 C3.51333333,11.78 3.16716667,10.6123333 2.9295,9.517 C2.69183333,8.42166667 2.573,7.347 2.573,6.293 C2.573,5.673 2.635,5.01166667 2.759,4.309 C2.883,3.60633333 3.1,2.93466667 3.41,2.294 C4.07133333,1.59133333 4.84633333,1.03333333 5.735,0.62 C6.62366667,0.206666667 7.63633333,0 8.773,0 C9.951,0 10.9843333,0.279 11.873,0.837 C12.741,1.37433333 13.3971667,2.14933333 13.8415,3.162 C14.2858333,4.17466667 14.508,5.301 14.508,6.541 C14.508,7.38833333 14.4511667,8.16333333 14.3375,8.866 C14.2238333,9.56866667 14.043,10.2093333 13.795,10.788 C13.299,11.9453333 12.6118333,12.8236667 11.7335,13.423 C10.8551667,14.0223333 9.765,14.322 8.463,14.322 L3.782,14.322 C2.93466667,14.322 2.31983333,14.4976667 1.9375,14.849 C1.55516667,15.2003333 1.364,15.7686667 1.364,16.554 L1.364,24.242 L0,24.242 L0,16.585 Z M3.999,6.014 C3.999,7.08866667 4.11266667,8.20466667 4.34,9.362 C4.56733333,10.5193333 4.929,11.7386667 5.425,13.02 L8.587,13.02 C9.55833333,13.02 10.3746667,12.772 11.036,12.276 C11.6973333,11.78 12.2036667,11.0411667 12.555,10.0595 C12.9063333,9.07783333 13.082,7.89466667 13.082,6.51 C13.082,4.96 12.6945,3.7045 11.9195,2.7435 C11.1445,1.7825 10.1163333,1.302 8.835,1.302 C8.00833333,1.302 7.24366667,1.4415 6.541,1.7205 C5.83833333,1.9995 5.15633333,2.42833333 4.495,3.007 C4.35033333,3.29633333 4.2315,3.72 4.1385,4.278 C4.0455,4.836 3.999,5.41466667 3.999,6.014 Z" id="Shape"></path>
                    </g>
                    <g id="ل" transform="translate(0.000000, 0.117000)">
                        <path d="M5.766,31 C4.464,31 3.38416667,30.7003333 2.5265,30.101 C1.66883333,29.5016667 1.03333333,28.6285 0.62,27.4815 C0.206666667,26.3345 0,24.924 0,23.25 C0,22.4646667 0.0413333333,21.6328333 0.124,20.7545 C0.206666667,19.8761667 0.341,19.0185 0.527,18.1815 C0.713,17.3445 0.940333333,16.5953333 1.209,15.934 L2.511,15.965 C2.18033333,16.833 1.91683333,17.8921667 1.7205,19.1425 C1.52416667,20.3928333 1.426,21.7103333 1.426,23.095 C1.426,25.265 1.77733333,26.908 2.48,28.024 C3.18266667,29.14 4.371,29.698 6.045,29.698 L7.688,29.698 C9.50666667,29.698 10.8396667,29.2743333 11.687,28.427 C12.5343333,27.5796667 12.958,26.164 12.958,24.18 L12.958,0 L14.353,0 L14.353,24.087 C14.353,26.381 13.8363333,28.1066667 12.803,29.264 C11.7696667,30.4213333 10.0646667,31 7.688,31 L5.766,31 Z" id="Path"></path>
                    </g>
                    <path d="M436.169,73.117 C434.784333,73.117 433.627,72.8173333 432.697,72.218 C431.767,71.6186667 431.0695,70.7558333 430.6045,69.6295 C430.1395,68.5031667 429.907,67.1443333 429.907,65.553 C429.907,64.2716667 430.0155,62.9903333 430.2325,61.709 C430.4495,60.4276667 430.744,59.3116667 431.116,58.361 L432.48,58.361 C432.087333,59.291 431.798,60.3708333 431.612,61.6005 C431.426,62.8301667 431.333,64.1373333 431.333,65.522 C431.374333,67.63 431.803167,69.2058333 432.6195,70.2495 C433.435833,71.2931667 434.660333,71.815 436.293,71.815 L437.595,71.815 C439.475667,71.815 440.85,71.3603333 441.718,70.451 C442.586,69.5416667 443.02,68.095 443.02,66.111 L443.02,50.611 L444.415,50.611 L444.415,58.826 C444.993667,56.9246667 445.753167,55.3643333 446.6935,54.145 C447.633833,52.9256667 448.672333,52.0215 449.809,51.4325 C450.945667,50.8435 452.103,50.549 453.281,50.549 C455.368333,50.549 456.97,51.1431667 458.086,52.3315 C459.202,53.5198333 459.76,55.3643333 459.76,57.865 L459.76,65.677 L444.415,65.677 C444.435667,68.1983333 443.924167,70.0686667 442.8805,71.288 C441.836833,72.5073333 440.085333,73.117 437.626,73.117 L436.169,73.117 Z M458.396,64.375 L458.396,58.113 C458.396,55.9636667 457.962,54.3826667 457.094,53.37 C456.226,52.3573333 454.903333,51.851 453.126,51.851 C452.01,51.851 450.914667,52.1661667 449.84,52.7965 C448.765333,53.4268333 447.763,54.4395 446.833,55.8345 C445.903,57.2295 445.097,59.0533333 444.415,61.306 L444.415,64.375 L458.396,64.375 Z" id="Shape"></path>
                    <g id="ش" transform="translate(170.907000, 9.675000)">
                        <path d="M22.134,2.294 C21.8033333,2.294 21.5398333,2.19583333 21.3435,1.9995 C21.1471667,1.80316667 21.049,1.519 21.049,1.147 C21.049,0.775 21.1471667,0.490833333 21.3435,0.2945 C21.5398333,0.0981666667 21.8033333,0 22.134,0 C22.4646667,0 22.7281667,0.0981666667 22.9245,0.2945 C23.1208333,0.490833333 23.219,0.775 23.219,1.147 C23.219,1.53966667 23.1156667,1.829 22.909,2.015 C22.7023333,2.201 22.444,2.294 22.134,2.294 Z M20.181,5.425 C19.8503333,5.425 19.5765,5.32166667 19.3595,5.115 C19.1425,4.90833333 19.034,4.619 19.034,4.247 C19.034,3.83366667 19.1373333,3.52883333 19.344,3.3325 C19.5506667,3.13616667 19.8296667,3.038 20.181,3.038 C20.553,3.038 20.832,3.14133333 21.018,3.348 C21.204,3.55466667 21.297,3.85433333 21.297,4.247 C21.297,4.619 21.1988333,4.90833333 21.0025,5.115 C20.8061667,5.32166667 20.5323333,5.425 20.181,5.425 Z M24.149,5.425 C23.777,5.425 23.4928333,5.3165 23.2965,5.0995 C23.1001667,4.8825 23.002,4.59833333 23.002,4.247 C23.002,3.85433333 23.1001667,3.55466667 23.2965,3.348 C23.4928333,3.14133333 23.777,3.038 24.149,3.038 C24.5003333,3.038 24.7741667,3.14133333 24.9705,3.348 C25.1668333,3.55466667 25.265,3.85433333 25.265,4.247 C25.265,4.619 25.1668333,4.90833333 24.9705,5.115 C24.7741667,5.32166667 24.5003333,5.425 24.149,5.425 Z M27.218,23.002 C26.288,23.002 25.3941667,22.8625 24.5365,22.5835 C23.6788333,22.3045 22.9296667,21.7516667 22.289,20.925 C21.917,21.545 21.3745,22.0461667 20.6615,22.4285 C19.9485,22.8108333 19.0753333,23.002 18.042,23.002 L14.508,23.002 C14.5286667,25.5026667 14.0171667,27.3678333 12.9735,28.5975 C11.9298333,29.8271667 10.1783333,30.442 7.719,30.442 L6.262,30.442 C4.87733333,30.442 3.72,30.1423333 2.79,29.543 C1.86,28.9436667 1.1625,28.0808333 0.6975,26.9545 C0.2325,25.8281667 0,24.4693333 0,22.878 C0,21.5966667 0.1085,20.3153333 0.3255,19.034 C0.5425,17.7526667 0.837,16.6366667 1.209,15.686 L2.573,15.686 C2.18033333,16.616 1.891,17.6958333 1.705,18.9255 C1.519,20.1551667 1.426,21.4623333 1.426,22.847 C1.46733333,24.9136667 1.891,26.4791667 2.697,27.5435 C3.503,28.6078333 4.712,29.14 6.324,29.14 L7.688,29.14 C9.56866667,29.14 10.943,28.6853333 11.811,27.776 C12.679,26.8666667 13.113,25.42 13.113,23.436 L13.113,10.602 L14.508,10.602 L14.508,21.7 L18.166,21.7 C19.1993333,21.7 20.026,21.3848333 20.646,20.7545 C21.266,20.1241667 21.576,19.2923333 21.576,18.259 L21.576,10.602 L22.971,10.602 L22.971,18.817 C22.971,18.9203333 22.9606667,19.0443333 22.94,19.189 C22.9193333,19.3336667 22.8883333,19.468 22.847,19.592 C23.3843333,20.398 24.0043333,20.9508333 24.707,21.2505 C25.4096667,21.5501667 26.2673333,21.7 27.28,21.7 L29.078,21.7 L29.078,8.184 L30.442,8.184 L30.442,23.002 L27.218,23.002 Z" id="Shape"></path>
                    </g>
                    <g id="ض" transform="translate(236.907000, 4.938000)">
                        <path d="M22.971,2.387 C22.6196667,2.387 22.3458333,2.28883333 22.1495,2.0925 C21.9531667,1.89616667 21.855,1.59133333 21.855,1.178 C21.855,0.785333333 21.9531667,0.490833333 22.1495,0.2945 C22.3458333,0.0981666667 22.6196667,0 22.971,0 C23.2603333,0 23.5186667,0.093 23.746,0.279 C23.9733333,0.465 24.087,0.764666667 24.087,1.178 C24.087,1.59133333 23.9836667,1.89616667 23.777,2.0925 C23.5703333,2.28883333 23.3016667,2.387 22.971,2.387 Z M6.262,28.179 C4.87733333,28.179 3.72,27.8793333 2.79,27.28 C1.86,26.6806667 1.1625,25.8178333 0.6975,24.6915 C0.2325,23.5651667 0,22.2063333 0,20.615 C0,19.3336667 0.1085,18.0523333 0.3255,16.771 C0.5425,15.4896667 0.837,14.3736667 1.209,13.423 L2.573,13.423 C2.18033333,14.353 1.891,15.4328333 1.705,16.6625 C1.519,17.8921667 1.426,19.1993333 1.426,20.584 C1.46733333,22.692 1.89616667,24.2678333 2.7125,25.3115 C3.52883333,26.3551667 4.75333333,26.877 6.386,26.877 L7.688,26.877 C9.56866667,26.877 10.943,26.4223333 11.811,25.513 C12.679,24.6036667 13.113,23.157 13.113,21.173 L13.113,5.673 L14.508,5.673 L14.508,13.888 C15.0866667,11.9866667 15.8461667,10.4263333 16.7865,9.207 C17.7268333,7.98766667 18.7653333,7.0835 19.902,6.4945 C21.0386667,5.9055 22.196,5.611 23.374,5.611 C25.4613333,5.611 27.063,6.20516667 28.179,7.3935 C29.295,8.58183333 29.853,10.4263333 29.853,12.927 L29.853,20.739 L14.508,20.739 C14.5286667,23.2603333 14.0171667,25.1306667 12.9735,26.35 C11.9298333,27.5693333 10.1783333,28.179 7.719,28.179 L6.262,28.179 Z M28.489,19.437 L28.489,13.175 C28.489,11.0256667 28.055,9.44466667 27.187,8.432 C26.319,7.41933333 24.9963333,6.913 23.219,6.913 C22.103,6.913 21.0076667,7.22816667 19.933,7.8585 C18.8583333,8.48883333 17.856,9.5015 16.926,10.8965 C15.996,12.2915 15.19,14.1153333 14.508,16.368 L14.508,19.437 L28.489,19.437 Z" id="Shape"></path>
                    </g>
                    <g id="ع" transform="translate(187.000000, 85.549000)">
                        <path d="M6.138,24.986 C4.898,24.986 3.81816667,24.7741667 2.8985,24.3505 C1.97883333,23.9268333 1.26583333,23.2965 0.7595,22.4595 C0.253166667,21.6225 0,20.5943333 0,19.375 C0,18.569 0.155,17.7991667 0.465,17.0655 C0.775,16.3318333 1.23483333,15.6343333 1.8445,14.973 C2.45416667,14.3116667 3.20333333,13.6813333 4.092,13.082 C3.55466667,12.6273333 3.069,12.1055 2.635,11.5165 C2.201,10.9275 1.86516667,10.2403333 1.6275,9.455 C1.38983333,8.66966667 1.271,7.781 1.271,6.789 C1.271,5.34233333 1.5965,4.11266667 2.2475,3.1 C2.8985,2.08733333 3.75616667,1.3175 4.8205,0.7905 C5.88483333,0.2635 7.037,0 8.277,0 C8.79366667,0 9.27416667,0.0361666667 9.7185,0.1085 C10.1628333,0.180833333 10.5761667,0.273833333 10.9585,0.3875 C11.3408333,0.501166667 11.6766667,0.630333333 11.966,0.775 L11.439,1.984 C10.9636667,1.798 10.4521667,1.63783333 9.9045,1.5035 C9.35683333,1.36916667 8.76266667,1.302 8.122,1.302 C7.04733333,1.302 6.10183333,1.5345 5.2855,1.9995 C4.46916667,2.4645 3.83366667,3.10516667 3.379,3.9215 C2.92433333,4.73783333 2.697,5.68333333 2.697,6.758 C2.697,7.688 2.821,8.53016667 3.069,9.2845 C3.317,10.0388333 3.63216667,10.6846667 4.0145,11.222 C4.39683333,11.7593333 4.78433333,12.152 5.177,12.4 C6.02433333,11.9453333 6.8975,11.5268333 7.7965,11.1445 C8.6955,10.7621667 9.63066667,10.4366667 10.602,10.168 L11.036,11.377 C10.3126667,11.563 9.58416667,11.7955 8.8505,12.0745 C8.11683333,12.3535 7.44,12.6583333 6.82,12.989 C5.16666667,13.7743333 3.85433333,14.7043333 2.883,15.779 C1.91166667,16.8536667 1.426,17.9903333 1.426,19.189 C1.426,20.8216667 1.88066667,21.979 2.79,22.661 C3.69933333,23.343 5.01166667,23.684 6.727,23.684 C7.18166667,23.684 7.64666667,23.6633333 8.122,23.622 C8.59733333,23.5806667 9.0985,23.529 9.6255,23.467 C10.1525,23.405 10.6846667,23.3326667 11.222,23.25 L11.439,24.428 C10.8396667,24.552 10.2403333,24.6553333 9.641,24.738 C9.04166667,24.8206667 8.45266667,24.8826667 7.874,24.924 C7.29533333,24.9653333 6.71666667,24.986 6.138,24.986 Z" id="Path"></path>
                    </g>
                </g>
            </g>
        </g>
    </g>
</svg>