<?xml version="1.0" encoding="UTF-8"?>
<svg width="500px" height="125px" viewBox="0 0 500 125" version="1.1" xmlns="http://www.w3.org/2000/svg" xmlns:xlink="http://www.w3.org/1999/xlink">
    <title>05</title>
    <defs>
        <polygon id="path-1" points="0 0 51 0 51 51 0 51"></polygon>
        <polygon id="path-3" points="0 0 57 0 57 57.0000285 0 57.0000285"></polygon>
    </defs>
    <g id="Page-1" stroke="none" stroke-width="1" fill="none" fill-rule="evenodd">
        <g id="05" transform="translate(0.000000, -0.000000)">
            <rect id="Rectangle-Copy-2" x="0" y="0" width="500" height="125"></rect>
            <g id="Group-64" transform="translate(19.000000, 2.000000)">
                <g id="Group-7" transform="translate(90.000000, 77.000000)" fill="#78B517">
                    <path d="M32.7600829,36.0615998 C32.5564917,36.2302929 32.2901246,36.2964115 32.0302991,36.24286 C31.7698998,36.1893084 31.5527665,36.0240118 31.4343301,35.7894265 L31.3584712,35.6389614 C30.6838889,34.3017573 29.134117,33.6161162 27.6730575,34.0088654 C26.2141786,34.4010485 25.2309962,35.764632 25.3349723,37.2510559 C25.398781,38.162791 25.4778533,39.2948462 25.5501546,40.3440266 C25.5916992,40.9473591 25.3921247,41.5301994 24.9881557,41.9848782 C24.5843015,42.439557 24.0250569,42.7111642 23.41348,42.7495447 C22.7877872,42.7896234 22.1888343,42.5798326 21.7274833,42.1608171 C21.2660176,41.7416884 21.0053888,41.170283 20.9935681,40.551553 L20.8434569,32.6919271 C20.8180941,31.3683091 19.7934818,30.2593502 18.4598103,30.1122816 C18.3612281,30.1012995 18.2629902,30.0960916 18.1653261,30.0960916 C17.0953821,30.0960916 16.1029038,30.7353138 15.6866551,31.7239232 C15.4243048,32.3471819 15.0930961,33.1314349 14.7808235,33.8632685 C14.6203835,34.2396013 14.3210792,34.5311346 13.938112,34.6842038 C13.5529643,34.8381787 13.1276493,34.8342161 12.7403211,34.6732218 L12.6811029,34.6486537 C12.4127848,34.5371351 12.1702887,34.3347034 11.9940113,34.0917401 C11.9563687,33.958031 11.8892319,33.8328132 11.7948959,33.7271819 C11.7763042,33.6786119 11.7593191,33.6297022 11.7465803,33.5802264 C11.6920674,33.3666995 11.6720985,33.0570514 11.8868218,32.7938223 C14.5020619,29.5879744 15.026533,28.8503667 15.7523,27.8294905 C16.1351525,27.290918 16.5690748,26.6805661 17.3993918,25.579872 C17.5358461,25.3989515 17.6623159,25.2303716 17.7800637,25.0733399 C18.6620244,23.8972434 18.9641978,23.5169481 19.1660675,23.5169481 L25.3573512,23.5169481 C25.5837804,23.5169481 25.8137673,23.8368988 26.1388935,24.3248634 C26.7412893,25.2292395 27.1666044,26.062855 27.6591711,27.0280286 C28.6865377,29.0412503 29.8509324,31.3230224 33.043435,35.1186168 C33.1562479,35.2527787 33.1398367,35.4908737 33.0306962,35.7147034 C32.989496,35.7684814 32.9538044,35.8257691 32.9256872,35.8865666 C32.8778307,35.9503077 32.8225145,36.0098597 32.7600829,36.0615998 M18.8142013,15.3044253 C18.63012,15.1158061 18.3732784,15.013458 18.108518,15.0221757 C17.8434134,15.0311199 17.5946052,15.1506768 17.424066,15.3510706 C16.8449673,16.0317302 15.9969767,16.4219887 15.0973424,16.4219887 C13.4230516,16.4219887 12.0609187,15.0783313 12.0609187,13.4267241 C12.0609187,12.0063057 13.0834652,10.7717893 14.4924218,10.4911248 C14.8476161,10.4204775 15.1294763,10.1536254 15.215664,9.80650258 C15.3019664,9.45926655 15.1772181,9.09402904 14.8954726,8.86929363 C13.9484408,8.11368447 13.4053779,6.99374354 13.4053779,5.79670194 C13.4053779,3.61795717 15.2021218,1.84543441 17.4106386,1.84543441 C19.5054244,1.84543441 21.2284898,3.44043318 21.4005209,5.46384445 C20.4435046,5.8548954 19.6395834,6.57065223 19.1485086,7.51974895 C18.9137016,7.97363524 19.096291,8.52941669 19.5563796,8.76105833 C20.0164681,8.99269998 20.5798442,8.81257199 20.8147659,8.3586857 C21.1580248,7.69523505 21.7647816,7.22844204 22.4735636,7.05261629 C22.4953687,7.04933301 22.5172886,7.04684223 22.538979,7.04208713 C22.6901231,7.00846173 22.8302498,6.98785626 22.9639498,6.97913857 C23.0107734,6.9766478 23.0574824,6.97438346 23.1047651,6.97438346 C23.1669671,6.97438346 23.2290544,6.97721388 23.2907974,6.98174255 C23.2994047,6.98242186 23.308012,6.98298794 23.3166193,6.98366724 C23.7777407,7.0223874 24.2207294,7.18689146 24.6089757,7.46585774 C24.6351419,7.48465174 24.6625705,7.50095496 24.6901138,7.51680532 C25.2883781,7.98122077 25.6737554,8.70116663 25.6737554,9.50874231 C25.6737554,10.0183313 26.0925289,10.4314595 26.6090813,10.4314595 C27.1256337,10.4314595 27.5444072,10.0183313 27.5444072,9.50874231 C27.5444072,8.29856756 27.0441513,7.20149643 26.2371314,6.40807285 C26.6579707,5.43825745 27.6375955,4.77548609 28.7381814,4.77548609 C30.2388344,4.77548609 31.4595782,5.97988678 31.4595782,7.46031012 C31.4595782,8.26403643 31.0852183,9.02224957 30.4326707,9.54066946 C30.1859282,9.7366478 30.0564745,10.0425597 30.088838,10.3534531 C30.1210866,10.6642333 30.3106766,10.9378784 30.5925368,11.0805316 C31.6060169,11.5930642 32.2356118,12.5976372 32.2356118,13.7020674 C32.2356118,15.3344278 30.8895458,16.662348 29.2349944,16.662348 C28.4944229,16.662348 27.7831161,16.3940241 27.2323641,15.9066256 C26.8633981,15.5802215 26.3002516,15.5942604 25.9486149,15.9390057 C25.8608205,16.0250505 23.9440336,17.9489441 23.6613701,21.6715137 L21.3200714,21.6715137 C21.0298335,17.62254 18.9108325,15.4032636 18.8142013,15.3044253 M41.678272,44.380886 C39.312873,42.3524932 36.6687123,39.8091903 34.8291615,36.2792026 C35.144418,35.429397 34.9751412,34.5252474 34.4831483,33.940256 C31.4262967,30.3058824 30.3126276,28.1236279 29.330019,26.1981492 C28.8330912,25.2243712 28.3637068,24.3045976 27.7022076,23.3113463 C27.2884837,22.6904652 26.6726605,21.7694462 25.5362682,21.6803446 C25.6349651,20.5580261 25.9172844,19.5207334 26.3810454,18.5876003 C26.5238117,18.3004824 26.6673813,18.0584248 26.7960317,17.8626729 C27.5318979,18.2828206 28.3711664,18.5077824 29.2349944,18.5077824 C31.9209291,18.5077824 34.1062636,16.3520207 34.1062636,13.7020674 C34.1062636,12.3047453 33.4919324,11.0075068 32.449417,10.1087915 C33.0178426,9.34401181 33.3303448,8.42276643 33.3303448,7.46031012 C33.3303448,4.96240709 31.2703325,2.93005169 28.7381814,2.93005169 C26.9897532,2.93005169 25.4194385,3.92024612 24.6487988,5.40259414 C24.3352638,5.28745262 24.0047437,5.2072951 23.6625177,5.16472557 C23.6392206,5.16178193 23.6159236,5.15849865 23.5925117,5.15589466 C23.5600335,5.15238494 23.5273258,5.14966773 23.4945033,5.14683731 C23.4552541,5.14344081 23.4158901,5.14038395 23.3764113,5.1380064 C23.3497861,5.13630815 23.3230461,5.13483633 23.2963061,5.13370416 C23.2801244,5.13302486 23.2641722,5.13177947 23.2479905,5.13121339 C22.9124208,2.24701452 20.4226176,0 17.4106386,0 C14.1706237,0 11.5347261,2.60036426 11.5347261,5.79670194 C11.5347261,7.04616293 11.9374327,8.23799655 12.6692822,9.22060546 C11.1740231,10.0642973 10.1902668,11.6563524 10.1902668,13.4267241 C10.1902668,16.0959242 12.3916683,18.2674231 15.0973424,18.2674231 C16.1620072,18.2674231 17.1816846,17.9293576 18.0187726,17.3166281 C18.5415223,18.125336 19.2714208,19.5937583 19.4450586,21.6715137 L19.1660675,21.6715137 C18.0041976,21.6715137 17.4983183,22.3460596 16.2761973,23.9758159 C16.1594824,24.131489 16.0340454,24.2987103 15.8987388,24.478159 C15.0526992,25.5995717 14.6106286,26.2212454 14.2207756,26.769781 C13.5155513,27.7616736 13.0059995,28.4784494 10.4294348,31.6367462 C9.88488006,32.3043859 9.70848792,33.1548708 9.93285137,34.0317352 C9.96154235,34.1440463 9.99757822,34.2543195 10.0383194,34.3628944 C8.27325038,37.8255181 5.73145917,40.9376224 1.85519313,44.3925474 C1.47188165,44.7342358 1.44192827,45.3177554 1.78817101,45.6958996 C1.97282615,45.8974255 2.22725775,46 2.4824927,46 C2.70605281,46 2.93041626,45.9214275 3.10933321,45.761905 C6.8734749,42.4069505 9.44476044,39.340699 11.2921152,35.9799705 C11.4985755,36.1266995 11.7204141,36.2518041 11.9546473,36.3492838 L12.0139802,36.3738518 C12.8605936,36.725843 13.7935095,36.7332021 14.6404672,36.3945705 C15.4879987,36.055939 16.1501865,35.4111691 16.5051513,34.5791386 C16.8184568,33.8444745 17.1509279,33.0573911 17.4143111,32.4316416 C17.5534049,32.1013881 17.8904666,31.906542 18.2519729,31.9462811 C18.6554828,31.9907753 18.9654602,32.3262368 18.9731493,32.7266847 L19.1232605,40.5864238 C19.1448362,41.7134974 19.6196145,42.7548659 20.4603749,43.5184002 C21.2341133,44.2211371 22.2197058,44.5999606 23.260844,44.5998474 C23.3509337,44.5998474 23.4415972,44.597017 23.5324902,44.5912429 C24.6442083,44.5213881 25.660787,44.0277627 26.3950466,43.2012798 C27.1293061,42.3746837 27.4920748,41.315427 27.4164454,40.2188088 C27.3441442,39.1688358 27.2650718,38.0361014 27.2011483,37.1239134 C27.1583414,36.512316 27.5636875,35.950987 28.1648209,35.7894265 C28.7669872,35.6274132 29.4057631,35.9101157 29.6837213,36.461142 L29.7595803,36.6116072 C30.1352026,37.3560079 30.8237861,37.8800886 31.6488239,38.0495742 C32.2944857,38.1820379 32.9509353,38.0817278 33.515459,37.7760423 C35.4690851,41.2422889 38.0941949,43.7525326 40.4511015,45.7736795 C40.6281822,45.9256165 40.8466927,46 41.0641703,46 C41.3257173,46 41.5855428,45.8925572 41.770657,45.6826532 C42.1094401,45.2980556 42.0681251,44.7152154 41.678272,44.380886" id="Fill-4"></path>
                    <path d="M5.23931707,21.6702456 C6.42230351,21.6702456 7.38471371,20.7208093 7.38471371,19.5536569 C7.38471371,18.3866178 6.42230351,17.4371814 5.23931707,17.4371814 C4.05621585,17.4371814 3.09380565,18.3866178 3.09380565,19.5536569 C3.09380565,20.7208093 4.05621585,21.6702456 5.23931707,21.6702456" id="Fill-10"></path>
                    <path d="M38.9670778,27.1567221 C40.335867,27.1567221 41.4494213,26.0581792 41.4494213,24.7079552 C41.4494213,23.357618 40.335867,22.2591883 38.9670778,22.2591883 C37.5982886,22.2591883 36.4847343,23.357618 36.4847343,24.7079552 C36.4847343,26.0581792 37.5982886,27.1567221 38.9670778,27.1567221" id="Fill-12"></path>
                    <path d="M4.96445749,30.2073271 C4.96445749,28.8569899 3.85090321,27.7585602 2.48222874,27.7585602 C1.11343951,27.7585602 0,28.8569899 0,30.2073271 C0,31.5575511 1.11343951,32.656094 2.48222874,32.656094 C3.85090321,32.656094 4.96445749,31.5575511 4.96445749,30.2073271" id="Fill-14"></path>
                </g>
                <g id="Group-7-Copy" transform="translate(419.000000, 6.000000)" fill="#78B517">
                    <path d="M32.7600829,36.0615998 C32.5564917,36.2302929 32.2901246,36.2964115 32.0302991,36.24286 C31.7698998,36.1893084 31.5527665,36.0240118 31.4343301,35.7894265 L31.3584712,35.6389614 C30.6838889,34.3017573 29.134117,33.6161162 27.6730575,34.0088654 C26.2141786,34.4010485 25.2309962,35.764632 25.3349723,37.2510559 C25.398781,38.162791 25.4778533,39.2948462 25.5501546,40.3440266 C25.5916992,40.9473591 25.3921247,41.5301994 24.9881557,41.9848782 C24.5843015,42.439557 24.0250569,42.7111642 23.41348,42.7495447 C22.7877872,42.7896234 22.1888343,42.5798326 21.7274833,42.1608171 C21.2660176,41.7416884 21.0053888,41.170283 20.9935681,40.551553 L20.8434569,32.6919271 C20.8180941,31.3683091 19.7934818,30.2593502 18.4598103,30.1122816 C18.3612281,30.1012995 18.2629902,30.0960916 18.1653261,30.0960916 C17.0953821,30.0960916 16.1029038,30.7353138 15.6866551,31.7239232 C15.4243048,32.3471819 15.0930961,33.1314349 14.7808235,33.8632685 C14.6203835,34.2396013 14.3210792,34.5311346 13.938112,34.6842038 C13.5529643,34.8381787 13.1276493,34.8342161 12.7403211,34.6732218 L12.6811029,34.6486537 C12.4127848,34.5371351 12.1702887,34.3347034 11.9940113,34.0917401 C11.9563687,33.958031 11.8892319,33.8328132 11.7948959,33.7271819 C11.7763042,33.6786119 11.7593191,33.6297022 11.7465803,33.5802264 C11.6920674,33.3666995 11.6720985,33.0570514 11.8868218,32.7938223 C14.5020619,29.5879744 15.026533,28.8503667 15.7523,27.8294905 C16.1351525,27.290918 16.5690748,26.6805661 17.3993918,25.579872 C17.5358461,25.3989515 17.6623159,25.2303716 17.7800637,25.0733399 C18.6620244,23.8972434 18.9641978,23.5169481 19.1660675,23.5169481 L25.3573512,23.5169481 C25.5837804,23.5169481 25.8137673,23.8368988 26.1388935,24.3248634 C26.7412893,25.2292395 27.1666044,26.062855 27.6591711,27.0280286 C28.6865377,29.0412503 29.8509324,31.3230224 33.043435,35.1186168 C33.1562479,35.2527787 33.1398367,35.4908737 33.0306962,35.7147034 C32.989496,35.7684814 32.9538044,35.8257691 32.9256872,35.8865666 C32.8778307,35.9503077 32.8225145,36.0098597 32.7600829,36.0615998 M18.8142013,15.3044253 C18.63012,15.1158061 18.3732784,15.013458 18.108518,15.0221757 C17.8434134,15.0311199 17.5946052,15.1506768 17.424066,15.3510706 C16.8449673,16.0317302 15.9969767,16.4219887 15.0973424,16.4219887 C13.4230516,16.4219887 12.0609187,15.0783313 12.0609187,13.4267241 C12.0609187,12.0063057 13.0834652,10.7717893 14.4924218,10.4911248 C14.8476161,10.4204775 15.1294763,10.1536254 15.215664,9.80650258 C15.3019664,9.45926655 15.1772181,9.09402904 14.8954726,8.86929363 C13.9484408,8.11368447 13.4053779,6.99374354 13.4053779,5.79670194 C13.4053779,3.61795717 15.2021218,1.84543441 17.4106386,1.84543441 C19.5054244,1.84543441 21.2284898,3.44043318 21.4005209,5.46384445 C20.4435046,5.8548954 19.6395834,6.57065223 19.1485086,7.51974895 C18.9137016,7.97363524 19.096291,8.52941669 19.5563796,8.76105833 C20.0164681,8.99269998 20.5798442,8.81257199 20.8147659,8.3586857 C21.1580248,7.69523505 21.7647816,7.22844204 22.4735636,7.05261629 C22.4953687,7.04933301 22.5172886,7.04684223 22.538979,7.04208713 C22.6901231,7.00846173 22.8302498,6.98785626 22.9639498,6.97913857 C23.0107734,6.9766478 23.0574824,6.97438346 23.1047651,6.97438346 C23.1669671,6.97438346 23.2290544,6.97721388 23.2907974,6.98174255 C23.2994047,6.98242186 23.308012,6.98298794 23.3166193,6.98366724 C23.7777407,7.0223874 24.2207294,7.18689146 24.6089757,7.46585774 C24.6351419,7.48465174 24.6625705,7.50095496 24.6901138,7.51680532 C25.2883781,7.98122077 25.6737554,8.70116663 25.6737554,9.50874231 C25.6737554,10.0183313 26.0925289,10.4314595 26.6090813,10.4314595 C27.1256337,10.4314595 27.5444072,10.0183313 27.5444072,9.50874231 C27.5444072,8.29856756 27.0441513,7.20149643 26.2371314,6.40807285 C26.6579707,5.43825745 27.6375955,4.77548609 28.7381814,4.77548609 C30.2388344,4.77548609 31.4595782,5.97988678 31.4595782,7.46031012 C31.4595782,8.26403643 31.0852183,9.02224957 30.4326707,9.54066946 C30.1859282,9.7366478 30.0564745,10.0425597 30.088838,10.3534531 C30.1210866,10.6642333 30.3106766,10.9378784 30.5925368,11.0805316 C31.6060169,11.5930642 32.2356118,12.5976372 32.2356118,13.7020674 C32.2356118,15.3344278 30.8895458,16.662348 29.2349944,16.662348 C28.4944229,16.662348 27.7831161,16.3940241 27.2323641,15.9066256 C26.8633981,15.5802215 26.3002516,15.5942604 25.9486149,15.9390057 C25.8608205,16.0250505 23.9440336,17.9489441 23.6613701,21.6715137 L21.3200714,21.6715137 C21.0298335,17.62254 18.9108325,15.4032636 18.8142013,15.3044253 M41.678272,44.380886 C39.312873,42.3524932 36.6687123,39.8091903 34.8291615,36.2792026 C35.144418,35.429397 34.9751412,34.5252474 34.4831483,33.940256 C31.4262967,30.3058824 30.3126276,28.1236279 29.330019,26.1981492 C28.8330912,25.2243712 28.3637068,24.3045976 27.7022076,23.3113463 C27.2884837,22.6904652 26.6726605,21.7694462 25.5362682,21.6803446 C25.6349651,20.5580261 25.9172844,19.5207334 26.3810454,18.5876003 C26.5238117,18.3004824 26.6673813,18.0584248 26.7960317,17.8626729 C27.5318979,18.2828206 28.3711664,18.5077824 29.2349944,18.5077824 C31.9209291,18.5077824 34.1062636,16.3520207 34.1062636,13.7020674 C34.1062636,12.3047453 33.4919324,11.0075068 32.449417,10.1087915 C33.0178426,9.34401181 33.3303448,8.42276643 33.3303448,7.46031012 C33.3303448,4.96240709 31.2703325,2.93005169 28.7381814,2.93005169 C26.9897532,2.93005169 25.4194385,3.92024612 24.6487988,5.40259414 C24.3352638,5.28745262 24.0047437,5.2072951 23.6625177,5.16472557 C23.6392206,5.16178193 23.6159236,5.15849865 23.5925117,5.15589466 C23.5600335,5.15238494 23.5273258,5.14966773 23.4945033,5.14683731 C23.4552541,5.14344081 23.4158901,5.14038395 23.3764113,5.1380064 C23.3497861,5.13630815 23.3230461,5.13483633 23.2963061,5.13370416 C23.2801244,5.13302486 23.2641722,5.13177947 23.2479905,5.13121339 C22.9124208,2.24701452 20.4226176,0 17.4106386,0 C14.1706237,0 11.5347261,2.60036426 11.5347261,5.79670194 C11.5347261,7.04616293 11.9374327,8.23799655 12.6692822,9.22060546 C11.1740231,10.0642973 10.1902668,11.6563524 10.1902668,13.4267241 C10.1902668,16.0959242 12.3916683,18.2674231 15.0973424,18.2674231 C16.1620072,18.2674231 17.1816846,17.9293576 18.0187726,17.3166281 C18.5415223,18.125336 19.2714208,19.5937583 19.4450586,21.6715137 L19.1660675,21.6715137 C18.0041976,21.6715137 17.4983183,22.3460596 16.2761973,23.9758159 C16.1594824,24.131489 16.0340454,24.2987103 15.8987388,24.478159 C15.0526992,25.5995717 14.6106286,26.2212454 14.2207756,26.769781 C13.5155513,27.7616736 13.0059995,28.4784494 10.4294348,31.6367462 C9.88488006,32.3043859 9.70848792,33.1548708 9.93285137,34.0317352 C9.96154235,34.1440463 9.99757822,34.2543195 10.0383194,34.3628944 C8.27325038,37.8255181 5.73145917,40.9376224 1.85519313,44.3925474 C1.47188165,44.7342358 1.44192827,45.3177554 1.78817101,45.6958996 C1.97282615,45.8974255 2.22725775,46 2.4824927,46 C2.70605281,46 2.93041626,45.9214275 3.10933321,45.761905 C6.8734749,42.4069505 9.44476044,39.340699 11.2921152,35.9799705 C11.4985755,36.1266995 11.7204141,36.2518041 11.9546473,36.3492838 L12.0139802,36.3738518 C12.8605936,36.725843 13.7935095,36.7332021 14.6404672,36.3945705 C15.4879987,36.055939 16.1501865,35.4111691 16.5051513,34.5791386 C16.8184568,33.8444745 17.1509279,33.0573911 17.4143111,32.4316416 C17.5534049,32.1013881 17.8904666,31.906542 18.2519729,31.9462811 C18.6554828,31.9907753 18.9654602,32.3262368 18.9731493,32.7266847 L19.1232605,40.5864238 C19.1448362,41.7134974 19.6196145,42.7548659 20.4603749,43.5184002 C21.2341133,44.2211371 22.2197058,44.5999606 23.260844,44.5998474 C23.3509337,44.5998474 23.4415972,44.597017 23.5324902,44.5912429 C24.6442083,44.5213881 25.660787,44.0277627 26.3950466,43.2012798 C27.1293061,42.3746837 27.4920748,41.315427 27.4164454,40.2188088 C27.3441442,39.1688358 27.2650718,38.0361014 27.2011483,37.1239134 C27.1583414,36.512316 27.5636875,35.950987 28.1648209,35.7894265 C28.7669872,35.6274132 29.4057631,35.9101157 29.6837213,36.461142 L29.7595803,36.6116072 C30.1352026,37.3560079 30.8237861,37.8800886 31.6488239,38.0495742 C32.2944857,38.1820379 32.9509353,38.0817278 33.515459,37.7760423 C35.4690851,41.2422889 38.0941949,43.7525326 40.4511015,45.7736795 C40.6281822,45.9256165 40.8466927,46 41.0641703,46 C41.3257173,46 41.5855428,45.8925572 41.770657,45.6826532 C42.1094401,45.2980556 42.0681251,44.7152154 41.678272,44.380886" id="Fill-4"></path>
                    <path d="M5.23931707,21.6702456 C6.42230351,21.6702456 7.38471371,20.7208093 7.38471371,19.5536569 C7.38471371,18.3866178 6.42230351,17.4371814 5.23931707,17.4371814 C4.05621585,17.4371814 3.09380565,18.3866178 3.09380565,19.5536569 C3.09380565,20.7208093 4.05621585,21.6702456 5.23931707,21.6702456" id="Fill-10"></path>
                    <path d="M38.9670778,27.1567221 C40.335867,27.1567221 41.4494213,26.0581792 41.4494213,24.7079552 C41.4494213,23.357618 40.335867,22.2591883 38.9670778,22.2591883 C37.5982886,22.2591883 36.4847343,23.357618 36.4847343,24.7079552 C36.4847343,26.0581792 37.5982886,27.1567221 38.9670778,27.1567221" id="Fill-12"></path>
                    <path d="M4.96445749,30.2073271 C4.96445749,28.8569899 3.85090321,27.7585602 2.48222874,27.7585602 C1.11343951,27.7585602 0,28.8569899 0,30.2073271 C0,31.5575511 1.11343951,32.656094 2.48222874,32.656094 C3.85090321,32.656094 4.96445749,31.5575511 4.96445749,30.2073271" id="Fill-14"></path>
                </g>
                <path d="M293.881393,104.032483 L293.866573,103.911833 L293.805963,103.790518 C293.797223,103.773418 292.923603,102.050592 291.474282,98.9764855 L291.584292,97.4357747 C292.139948,93.7906229 291.258442,89.947966 289.102131,86.6159343 C286.92264,83.2478976 283.603148,80.5922663 279.755266,79.1381956 C277.756085,78.3829452 275.669599,78 273.554138,78 C270.180117,78 266.924085,78.9619705 264.138209,80.7817914 C261.290772,82.6415123 259.170656,85.2527786 258.007096,88.3333452 C257.338865,90.1023411 257,91.991702 257,93.948703 C257,98.2358651 258.756551,102.265577 261.945892,105.295604 C265.124879,108.315845 269.347441,109.979106 273.835338,109.979106 C277.893455,109.979106 281.711602,108.474875 284.586494,105.743339 C287.47155,103.002018 289.060426,99.3559157 289.060426,95.4764937 C289.060426,91.5977368 287.47155,87.95192 284.586494,85.2105986 C281.711507,82.4792522 277.893455,80.9750215 273.835338,80.9750215 C270.206907,80.9750215 266.79251,82.3203172 264.221429,84.7628634 C261.640182,87.2153846 260.218507,90.4775912 260.218507,93.948703 C260.218507,97.4200047 261.639992,100.682021 264.221239,103.133878 C266.79194,105.576329 270.206337,106.921434 273.835338,106.921434 C277.03399,106.921434 280.044162,105.735074 282.311243,103.580948 C284.588679,101.417417 285.842964,98.5392003 285.842964,95.4764937 C285.842964,92.4143572 284.588679,89.5364258 282.311243,87.3728947 C280.043592,85.2188636 277.033515,84.032693 273.835338,84.032693 C271.066372,84.032693 268.460236,85.0599285 266.49706,86.9251595 C264.523719,88.7998904 263.436918,91.2942116 263.436918,93.948703 C263.436918,96.6028143 264.523719,99.0969455 266.49706,100.971581 C268.460046,102.836622 271.066182,103.863763 273.835338,103.863763 C276.17386,103.863763 278.375391,102.995367 280.034662,101.418652 C281.704097,99.8324359 282.623508,97.7221049 282.623508,95.4764937 C282.623508,93.2305026 281.704192,91.1201716 280.034947,89.5342408 C278.375581,87.95762 276.17386,87.0894145 273.835338,87.0894145 C271.926407,87.0894145 270.128247,87.7987799 268.772406,89.0868855 C267.406685,90.3843012 266.654475,92.1108321 266.654475,93.948703 C266.654475,95.7861939 267.406685,97.5126298 268.772406,98.8099504 C270.128342,100.097771 271.926407,100.807041 273.835338,100.807041 C275.314489,100.807041 276.70814,100.256801 277.7596,99.2576856 C278.821226,98.2486901 279.405951,96.9058645 279.405951,95.4764937 C279.405951,94.047598 278.821226,92.7051524 277.7596,91.6961568 C276.70776,90.6972313 275.314109,90.1470861 273.835338,90.1470861 C272.785398,90.1470861 271.795592,90.5383913 271.048037,91.2488016 C270.290317,91.968712 269.872981,92.9275475 269.872981,93.948703 C269.872981,94.9693835 270.290317,95.928219 271.048322,96.6486043 C271.796637,97.3590147 272.786443,97.7503199 273.835338,97.7503199 C274.455404,97.7503199 275.041174,97.5179498 275.484634,97.0960545 C275.938449,96.6650393 276.188395,96.089909 276.188395,95.4764937 L276.188395,95.3897587 L274.700504,95.3897587 L274.700504,95.4764937 C274.700504,95.6807438 274.615669,95.8737839 274.461674,96.020179 C274.297514,96.1764541 274.075024,96.2624291 273.835338,96.2624291 C273.166063,96.2624291 272.539538,96.017519 272.071283,95.5728238 C271.613192,95.1375336 271.360872,94.5607883 271.360872,93.948703 C271.360872,93.3364277 271.613002,92.7596824 272.070903,92.3245822 C272.538778,91.8799819 273.165303,91.6349768 273.835338,91.6349768 C274.934014,91.6349768 275.964479,92.038822 276.73683,92.7719374 C277.49854,93.4956477 277.917965,94.4560982 277.917965,95.4764937 C277.917965,96.4973642 277.49854,97.4581947 276.73683,98.1818101 C275.965049,98.9152105 274.934584,99.3190557 273.835338,99.3190557 C272.306408,99.3190557 270.871622,98.7561804 269.795271,97.7340749 C268.729371,96.7219444 268.142461,95.3775987 268.142461,93.948703 C268.142461,92.5195223 268.729371,91.1749866 269.795271,90.1625711 C270.871527,89.1403706 272.306313,88.5774003 273.835338,88.5774003 C275.794144,88.5774003 277.63249,89.2993056 279.012081,90.6100213 C280.381317,91.910857 281.135522,93.6391928 281.135522,95.4764937 C281.135522,97.3136047 280.381317,99.0419405 279.011701,100.342966 C277.6323,101.653872 275.793954,102.375777 273.835338,102.375777 C271.446182,102.375777 269.203421,101.495032 267.52002,99.8958959 C265.846594,98.3061652 264.924999,96.1940291 264.924999,93.948703 C264.924999,91.7029969 265.846594,89.5906708 267.52002,88.000845 C269.203421,86.4015192 271.446277,85.5206788 273.835338,85.5206788 C276.653705,85.5206788 279.300501,86.5604543 281.288282,88.4485802 C283.265803,90.3269212 284.354884,92.8228574 284.354884,95.4764937 C284.354884,98.1301301 283.265803,100.626256 281.288282,102.505262 C279.300976,104.393483 276.65418,105.433449 273.835338,105.433449 C270.586337,105.433449 267.53522,104.234738 265.244009,102.058287 C262.962773,99.8910509 261.706397,97.0111245 261.706397,93.948703 C261.706397,90.8864714 262.962963,88.006165 265.244389,85.8386439 C267.535695,83.6619078 270.586717,82.4630072 273.835338,82.4630072 C277.51355,82.4630072 280.968417,83.8208429 283.563533,86.2862841 C286.148675,88.7427954 287.57244,92.006617 287.57244,95.4764937 C287.57244,98.9469405 286.148675,102.211047 283.563533,104.667558 C280.968417,107.13319 277.51355,108.49112 273.835338,108.49112 C269.727441,108.49112 265.868254,106.974254 262.968663,104.219918 C260.079332,101.474987 258.487986,97.8272699 258.487986,93.948703 C258.487986,92.1658371 258.793601,90.4525112 259.396376,88.8566054 C260.447932,86.072534 262.367123,83.7103579 264.946469,82.025437 C267.48791,80.3654062 270.464357,79.4879857 273.554138,79.4879857 C275.496129,79.4879857 277.406485,79.8376809 279.232006,80.5273813 C282.785483,81.8700169 285.848949,84.3192132 287.85801,87.4235297 C289.826696,90.4658112 290.627167,93.959153 290.111982,97.2607846 L290.103432,97.3209197 L289.966631,99.2332706 L289.964921,99.2558806 L290.048237,99.4325807 C291.257492,102.001477 292.152583,103.800018 292.412028,104.317483 C292.412503,104.784218 291.975977,104.866488 291.361327,104.930993 C290.527227,105.018869 289.739391,105.101994 289.621781,106.030999 C289.487166,106.496879 289.411641,106.960384 289.397296,107.408785 C289.383236,107.86773 289.433016,108.317555 289.545401,108.74591 C289.561076,108.89183 289.548346,109.004501 289.508446,109.072046 C289.471301,109.134651 289.380861,109.191366 289.246721,109.236396 L288.705696,109.417656 L288.741131,109.986231 C288.760986,110.303341 288.761841,110.553476 288.743696,110.731221 C288.334816,110.843036 287.9931,111.025437 287.72729,111.273767 C287.365625,111.611777 287.15387,112.054477 287.09763,112.589612 L287.07578,112.798517 L287.167265,112.987947 C287.396405,113.463138 287.503565,113.933673 287.48599,114.386443 C287.469175,114.810523 287.341875,115.243439 287.107225,115.673409 C286.505305,116.224409 285.722599,116.593864 284.780389,116.771704 C283.740993,116.968164 282.476638,116.940044 281.025892,116.688579 C279.447276,116.358549 277.160625,115.999069 275.535744,116.685824 C273.587103,117.509665 272.973308,119.477781 273.711648,122.535737 L273.731978,122.620097 L275.173604,122.271352 L275.153179,122.187087 C274.611109,119.941191 274.933539,118.55001 276.111255,118.05202 C277.356515,117.52629 279.352941,117.854325 280.745642,118.146735 L280.772242,118.15234 C282.396933,118.43411 283.837608,118.46052 285.054084,118.23062 C286.32718,117.990175 287.389945,117.46511 288.213026,116.670149 L288.280476,116.605264 L288.340991,116.507604 C288.730016,115.837094 288.941106,115.143119 288.968181,114.444868 C288.992976,113.822048 288.872231,113.192293 288.608891,112.572512 C288.637201,112.485872 288.681091,112.414717 288.739231,112.360472 C288.858646,112.248847 289.056246,112.168762 289.332601,112.120882 L289.338111,112.119362 C289.790406,112.033862 290.075217,111.701837 290.184847,111.132312 C290.223322,110.933951 290.242227,110.685906 290.241087,110.394446 C290.468992,110.244916 290.652532,110.054536 290.787052,109.828056 C291.005552,109.460786 291.081077,109.015806 291.010207,108.50005 L290.990827,108.407425 C290.906752,108.10276 290.869417,107.782325 290.879772,107.45524 C290.890127,107.123025 290.952637,106.764304 291.065402,106.389149 L291.085542,106.322744 L291.090007,106.290159 C291.097797,106.294149 291.105587,106.298139 291.112522,106.301749 C291.206572,106.350769 291.348977,106.425534 291.512947,106.407484 C292.255943,106.329109 293.098213,106.240189 293.564473,105.653374 C293.865528,105.274609 293.969173,104.744413 293.881393,104.032483" id="Fill-4" fill="#78B517"></path>
                <path d="M93.0705874,60.0718371 L57.6004225,60.0718371 L57.6004225,59.700965 C57.6004225,58.2123276 57.9593431,57.0987102 58.6670233,56.3914358 C59.3747036,55.6841615 60.4883876,55.3255898 61.9777361,55.3255898 L61.9787379,55.3255898 L88.6928445,55.3255898 L88.6937031,55.3255898 C90.1827654,55.3255898 91.2965926,55.6841615 92.0042728,56.3914358 C92.7119531,57.0987102 93.0705874,58.2121846 93.0705874,59.700965 L93.0705874,60.0718371 Z M64.8671323,49.8085637 C62.309895,47.8011631 60.3567262,45.0535917 59.2783903,41.9761973 L64.0473967,41.9761973 C66.1435328,45.9908554 70.5759438,48.6476039 75.2788333,48.6476039 C82.0709895,48.6476039 87.596763,43.1251427 87.596763,36.3368821 C87.596763,32.3532612 85.7087093,28.7003214 82.5628595,26.4038608 C83.9551792,25.5742974 85.0027463,24.2238253 85.4340807,22.623912 C89.7882104,25.8358959 92.3461633,30.8599039 92.3461633,36.3368821 C92.3461633,45.7422724 84.6897642,53.3942803 75.2788333,53.3942803 C71.4554995,53.3942803 67.8551315,52.1543689 64.8671323,49.8085637 L64.8671323,49.8085637 Z M80.2529167,25.2654995 C80.2334537,25.2689322 80.2139907,25.272937 80.1946708,25.2775139 C79.9190405,25.3320076 79.6341079,25.3607563 79.3425923,25.3607563 C76.9284653,25.3604702 74.9642769,23.3974084 74.9642769,20.9850951 C74.9645632,18.5724957 76.9284653,16.6098629 79.3424492,16.6098629 L79.3428785,16.6098629 C81.7568625,16.6098629 83.7207646,18.5726387 83.7207646,20.9852381 C83.7207646,23.0860361 82.2315592,24.8457118 80.2529167,25.2654995 L80.2529167,25.2654995 Z M74.2560242,24.7086908 L71.3285607,27.6343323 L66.0144473,22.3229807 L83.3496797,4.99754776 L88.6640793,10.3088994 L83.0681818,15.9014444 C82.02362,15.1348133 80.7351983,14.681557 79.3430217,14.681557 L79.3423061,14.681557 C75.8650129,14.681557 73.0352937,17.5092242 73.0350075,20.9849521 C73.0350075,22.3767593 73.4885239,23.6645851 74.2560242,24.7086908 L74.2560242,24.7086908 Z M68.6569783,32.9738604 L60.6715688,24.9928878 L63.314386,22.3517294 L70.6463541,29.6794923 C70.6476421,29.6809226 70.6490732,29.6822098 70.6505043,29.6836401 L71.2999387,30.332702 L68.6569783,32.9738604 Z M61.9787379,34.3087425 L59.3357776,31.667155 L61.9785948,29.0262826 L64.6215551,31.6677271 L61.9787379,34.3087425 Z M88.692272,2.32764066 L91.3353755,4.96965726 L88.6927014,7.61052964 L86.049741,4.96908515 L88.692272,2.32764066 Z M93.368543,55.0279482 C92.2859138,53.9457969 90.7132752,53.3972838 88.6938462,53.3972838 L88.6927014,53.3972838 L83.6105697,53.3972838 C89.9204443,50.3067309 94.2754327,43.8202597 94.2754327,36.3368821 C94.2754327,33.0313578 93.4123347,29.7763224 91.7794466,26.9231962 C90.2786493,24.3009175 88.1571827,22.0583786 85.6242742,20.411123 C85.5180864,19.2415815 85.0911885,18.1634351 84.4320226,17.2652181 L90.7105561,10.9907147 C90.8914474,10.8099271 90.9930557,10.5646337 90.9930557,10.3088994 C90.9930557,10.053308 90.8914474,9.80801465 90.7105561,9.62722703 L90.0569715,8.97401732 L93.3817091,5.65147261 C93.7583753,5.27502243 93.7583753,4.66457815 93.3817091,4.28798494 L89.3744786,0.282480662 C89.1935873,0.10155001 88.9482963,0 88.6924151,0 L88.692272,0 C88.436534,0 88.1910999,0.10155001 88.0102085,0.282480662 L84.6854709,3.60545445 L84.0318863,2.95238776 C83.655077,2.57593758 83.0444255,2.57593758 82.6676162,2.95238776 L64.6500341,20.9596361 L63.9965926,20.3065694 C63.6199264,19.9301192 63.0091318,19.9301192 62.6323225,20.3065694 L58.625092,24.3110725 C58.4442006,24.4918601 58.3425923,24.7371534 58.3424492,24.9928878 C58.3424492,25.2484792 58.4442006,25.4937725 58.625092,25.6745601 L60.6143247,27.6627949 L57.2894439,30.9851966 C57.1085525,31.1659842 57.0068011,31.4112775 57.0068011,31.6670119 C57.0068011,31.9227463 57.1084094,32.1678966 57.2893008,32.3486843 L61.2965313,36.3539025 C61.6731975,36.7306387 62.2839921,36.7306387 62.6608014,36.3540455 L65.9858253,33.0312147 L67.9749148,35.0190204 C68.351581,35.3956136 68.9623756,35.3956136 69.3391849,35.0190204 L73.3464154,31.0145174 C73.5273068,30.8337297 73.6289151,30.5884364 73.6289151,30.332702 C73.6289151,30.0771106 73.5273068,29.8318173 73.3464154,29.6510297 L72.6928308,28.99782 L75.6208668,26.0716064 C76.6648562,26.8365211 77.9518468,27.2887762 79.3425923,27.2889192 C79.6540003,27.2889192 79.95997,27.2663208 80.2594998,27.2225542 C83.6034142,29.0481659 85.6674935,32.5118794 85.6674935,36.3368821 C85.6674935,42.0618712 81.0071078,46.719441 75.2788333,46.719441 C71.6458362,46.719441 68.2081845,44.8630782 66.2856413,41.9761973 L68.6569783,41.9761973 C69.1897778,41.9761973 69.6216846,41.5445383 69.6216846,41.0121874 C69.6216846,40.4796935 69.1897778,40.0480344 68.6569783,40.0480344 L64.6706419,40.0480344 C64.6567602,40.0476053 64.6425923,40.0476053 64.6285675,40.0480344 L57.9931171,40.0480344 C57.9792354,40.0476053 57.9652106,40.0476053 57.9511858,40.0480344 L53.9645632,40.0480344 C53.4317637,40.0480344 53,40.4796935 53,41.0121874 C53,41.5445383 53.4317637,41.9761973 53.9645632,41.9761973 L57.2467971,41.9761973 C58.3916792,45.6554543 60.6546817,48.9536842 63.6753101,51.3249485 C64.7079937,52.1356322 65.806365,52.8280317 66.9571146,53.3972838 L61.9787379,53.3972838 L61.9777361,53.3972838 C59.9583072,53.3972838 58.3853823,53.94594 57.3027532,55.0279482 C56.220124,56.1099564 55.6710099,57.6822652 55.6710099,59.700965 L55.6710099,61.03599 C55.6710099,61.5683409 56.1029167,62 56.6357162,62 L94.0352937,62 C94.5680932,62 95,61.5683409 95,61.03599 L95,59.701108 C95,57.6822652 94.4513152,56.1100994 93.368543,55.0279482 L93.368543,55.0279482 Z" id="Fill-4" fill="#78B517"></path>
                <path d="M391.070587,111.071837 L355.600423,111.071837 L355.600423,110.700965 C355.600423,109.212328 355.959343,108.09871 356.667023,107.391436 C357.374704,106.684161 358.488388,106.32559 359.977736,106.32559 L359.978738,106.32559 L386.692844,106.32559 L386.693703,106.32559 C388.182765,106.32559 389.296593,106.684161 390.004273,107.391436 C390.711953,108.09871 391.070587,109.212185 391.070587,110.700965 L391.070587,111.071837 Z M362.867132,100.808564 C360.309895,98.8011631 358.356726,96.0535917 357.27839,92.9761973 L362.047397,92.9761973 C364.143533,96.9908554 368.575944,99.6476039 373.278833,99.6476039 C380.070989,99.6476039 385.596763,94.1251427 385.596763,87.3368821 C385.596763,83.3532612 383.708709,79.7003214 380.562859,77.4038608 C381.955179,76.5742974 383.002746,75.2238253 383.434081,73.623912 C387.78821,76.8358959 390.346163,81.8599039 390.346163,87.3368821 C390.346163,96.7422724 382.689764,104.39428 373.278833,104.39428 C369.4555,104.39428 365.855132,103.154369 362.867132,100.808564 L362.867132,100.808564 Z M378.252917,76.2654995 C378.233454,76.2689322 378.213991,76.272937 378.194671,76.2775139 C377.91904,76.3320076 377.634108,76.3607563 377.342592,76.3607563 C374.928465,76.3604702 372.964277,74.3974084 372.964277,71.9850951 C372.964563,69.5724957 374.928465,67.6098629 377.342449,67.6098629 L377.342879,67.6098629 C379.756862,67.6098629 381.720765,69.5726387 381.720765,71.9852381 C381.720765,74.0860361 380.231559,75.8457118 378.252917,76.2654995 L378.252917,76.2654995 Z M372.256024,75.7086908 L369.328561,78.6343323 L364.014447,73.3229807 L381.34968,55.9975478 L386.664079,61.3088994 L381.068182,66.9014444 C380.02362,66.1348133 378.735198,65.681557 377.343022,65.681557 L377.342306,65.681557 C373.865013,65.681557 371.035294,68.5092242 371.035007,71.9849521 C371.035007,73.3767593 371.488524,74.6645851 372.256024,75.7086908 L372.256024,75.7086908 Z M366.656978,83.9738604 L358.671569,75.9928878 L361.314386,73.3517294 L368.646354,80.6794923 C368.647642,80.6809226 368.649073,80.6822098 368.650504,80.6836401 L369.299939,81.332702 L366.656978,83.9738604 Z M359.978738,85.3087425 L357.335778,82.667155 L359.978595,80.0262826 L362.621555,82.6677271 L359.978738,85.3087425 Z M386.692272,53.3276407 L389.335375,55.9696573 L386.692701,58.6105296 L384.049741,55.9690852 L386.692272,53.3276407 Z M391.368543,106.027948 C390.285914,104.945797 388.713275,104.397284 386.693846,104.397284 L386.692701,104.397284 L381.61057,104.397284 C387.920444,101.306731 392.275433,94.8202597 392.275433,87.3368821 C392.275433,84.0313578 391.412335,80.7763224 389.779447,77.9231962 C388.278649,75.3009175 386.157183,73.0583786 383.624274,71.411123 C383.518086,70.2415815 383.091188,69.1634351 382.432023,68.2652181 L388.710556,61.9907147 C388.891447,61.8099271 388.993056,61.5646337 388.993056,61.3088994 C388.993056,61.053308 388.891447,60.8080147 388.710556,60.627227 L388.056971,59.9740173 L391.381709,56.6514726 C391.758375,56.2750224 391.758375,55.6645781 391.381709,55.2879849 L387.374479,51.2824807 C387.193587,51.10155 386.948296,51 386.692415,51 L386.692272,51 C386.436534,51 386.1911,51.10155 386.010209,51.2824807 L382.685471,54.6054544 L382.031886,53.9523878 C381.655077,53.5759376 381.044425,53.5759376 380.667616,53.9523878 L362.650034,71.9596361 L361.996593,71.3065694 C361.619926,70.9301192 361.009132,70.9301192 360.632322,71.3065694 L356.625092,75.3110725 C356.444201,75.4918601 356.342592,75.7371534 356.342449,75.9928878 C356.342449,76.2484792 356.444201,76.4937725 356.625092,76.6745601 L358.614325,78.6627949 L355.289444,81.9851966 C355.108553,82.1659842 355.006801,82.4112775 355.006801,82.6670119 C355.006801,82.9227463 355.108409,83.1678966 355.289301,83.3486843 L359.296531,87.3539025 C359.673197,87.7306387 360.283992,87.7306387 360.660801,87.3540455 L363.985825,84.0312147 L365.974915,86.0190204 C366.351581,86.3956136 366.962376,86.3956136 367.339185,86.0190204 L371.346415,82.0145174 C371.527307,81.8337297 371.628915,81.5884364 371.628915,81.332702 C371.628915,81.0771106 371.527307,80.8318173 371.346415,80.6510297 L370.692831,79.99782 L373.620867,77.0716064 C374.664856,77.8365211 375.951847,78.2887762 377.342592,78.2889192 C377.654,78.2889192 377.95997,78.2663208 378.2595,78.2225542 C381.603414,80.0481659 383.667494,83.5118794 383.667494,87.3368821 C383.667494,93.0618712 379.007108,97.719441 373.278833,97.719441 C369.645836,97.719441 366.208185,95.8630782 364.285641,92.9761973 L366.656978,92.9761973 C367.189778,92.9761973 367.621685,92.5445383 367.621685,92.0121874 C367.621685,91.4796935 367.189778,91.0480344 366.656978,91.0480344 L362.670642,91.0480344 C362.65676,91.0476053 362.642592,91.0476053 362.628568,91.0480344 L355.993117,91.0480344 C355.979235,91.0476053 355.965211,91.0476053 355.951186,91.0480344 L351.964563,91.0480344 C351.431764,91.0480344 351,91.4796935 351,92.0121874 C351,92.5445383 351.431764,92.9761973 351.964563,92.9761973 L355.246797,92.9761973 C356.391679,96.6554543 358.654682,99.9536842 361.67531,102.324948 C362.707994,103.135632 363.806365,103.828032 364.957115,104.397284 L359.978738,104.397284 L359.977736,104.397284 C357.958307,104.397284 356.385382,104.94594 355.302753,106.027948 C354.220124,107.109956 353.67101,108.682265 353.67101,110.700965 L353.67101,112.03599 C353.67101,112.568341 354.102917,113 354.635716,113 L392.035294,113 C392.568093,113 393,112.568341 393,112.03599 L393,110.701108 C393,108.682265 392.451315,107.110099 391.368543,106.027948 L391.368543,106.027948 Z" id="Fill-4-Copy" fill="#78B517"></path>
                <g id="Group-3" transform="translate(221.000000, 6.000000)">
                    <mask id="mask-2" fill="white">
                        <use xlink:href="#path-1"></use>
                    </mask>
                    <g id="Clip-2"></g>
                    <path d="M50.2502814,13.688009 C49.6568243,13.4694447 48.9955436,13.774645 48.776278,14.3684387 C48.239031,15.8362575 47.499242,17.1909617 46.5774673,18.3949238 L46.2628538,18.8059223 L34.6960155,7.23931512 C34.2473805,6.79115365 33.5175793,6.79115365 33.0689443,7.23943125 C32.8517693,7.45683427 32.7321487,7.74565976 32.7321487,8.05283443 C32.7321487,8.36012524 32.8517693,8.64895073 33.0690605,8.86600535 L44.6698106,20.4659431 L44.291322,20.7841505 C43.0072017,21.8633846 41.511597,22.7703919 39.846317,23.4800873 L39.56457,23.60017 L30.4836317,14.5202259 C30.0354612,14.0719483 29.30566,14.0719483 28.8569089,14.5202259 C28.6395016,14.7373967 28.5197649,15.0262222 28.5197649,15.3332807 C28.5197649,15.6404554 28.6395016,15.929397 28.8570251,16.1469162 L37.1439388,24.4337805 L36.3238996,24.6055428 C33.0150571,25.2989795 29.8295514,24.9517385 26.850304,24.5365591 L26.5110695,24.4892926 L26.4639181,24.150181 C25.9751,20.6423508 25.6005601,16.8936584 26.8291672,13.0203541 C27.6738273,10.3606511 28.9510956,8.08012595 30.6256665,6.24230393 C32.2763133,4.43072822 34.2978999,3.07869511 36.6346806,2.22359979 C37.2270925,2.00480316 37.5311376,1.34423244 37.3124527,0.751019493 C37.2065363,0.463471479 36.9949358,0.234455049 36.7167891,0.106126876 C36.4386424,-0.0223174302 36.1271645,-0.0345115099 35.8401914,0.0714027826 C33.1610405,1.05192293 30.8391252,2.60626162 28.9392496,4.69121699 C27.032522,6.78406947 25.5882496,9.35063292 24.6464994,12.3198333 C23.4471587,16.1005787 23.5509846,19.550458 24.0758051,23.5670717 L24.1521067,24.1516908 L23.567476,24.0753907 C19.5512466,23.5503484 16.1015306,23.4466407 12.3198967,24.6459575 C9.35086931,25.587805 6.78413845,27.0321647 4.69124416,28.9390865 C2.60647941,30.8386918 1.0522258,33.1596317 0.071802206,35.836987 C-0.0345787481,36.125348 -0.0223844247,36.4374003 0.105946311,36.7158898 C0.234277047,36.994031 0.463298053,37.2056273 0.750735675,37.3115416 C1.03828943,37.4176882 1.34988343,37.4054941 1.62814627,37.2771659 C1.90640912,37.1488377 2.11800966,36.9197052 2.22415834,36.6319249 C2.76163766,35.1642222 3.50154275,33.8094019 4.42331746,32.6053236 L4.73781486,32.1943251 L16.3050016,43.7605839 C16.7534043,44.2088615 17.4830893,44.2087454 17.9318404,43.7603516 C18.380127,43.3118418 18.3800109,42.5822874 17.9317243,42.1340098 L6.33167099,30.533956 L6.70992729,30.2159808 C7.99288624,29.1374435 9.48837483,28.2303201 11.1549323,27.5196956 L11.4366793,27.3994968 L20.5173854,36.4799054 C20.9660204,36.928183 21.6957054,36.9282991 22.1441081,36.4797892 C22.5925108,36.0313955 22.5925108,35.301725 22.1441081,34.8533313 L13.8570783,26.5663508 L14.6771175,26.3945885 C15.9459078,26.1287576 17.2637077,25.9995003 18.7056574,25.9995003 C20.6552393,25.9995003 22.5386235,26.2388527 24.1508292,26.4633399 L24.4900637,26.5104903 L24.5372151,26.8498341 C25.0255687,30.3582451 25.3995279,34.1076343 24.1713854,37.9797772 C23.3278866,40.6383188 22.0507345,42.9187279 20.3750022,44.7577112 C18.724936,46.5689385 16.7035817,47.9209716 14.3665687,48.7766476 C14.0798279,48.8822135 13.8512714,49.0936937 13.7230568,49.3718349 C13.5947261,49.649976 13.5825318,49.9614476 13.6885643,50.2487634 C13.7944807,50.5363114 14.0060813,50.765444 14.2844603,50.8940044 C14.4375281,50.9646139 14.6005836,51.0000348 14.7642198,51.0000348 C14.8978928,51.0000348 15.0319142,50.9763435 15.1609418,50.9287285 C17.8404411,49.94786 20.1618918,48.3934051 22.0610706,46.3087982 C23.9677982,44.2160618 25.4124191,41.6493822 26.3549822,38.6800658 C27.55351,34.9002494 27.4498002,31.4502539 26.9253281,27.4330596 L26.8489104,26.8485567 L27.4336572,26.9248568 C31.4498866,27.4497829 34.8996026,27.5536067 38.6811204,26.3539416 C41.6501477,25.4120941 44.2168786,23.9676182 46.3097729,22.0608126 C48.3948861,20.1609749 49.9490235,17.839919 50.9290987,15.1626797 C51.1478997,14.5685377 50.84339,13.9070379 50.2502814,13.688009" id="Fill-1" fill="#78B517" mask="url(#mask-2)"></path>
                </g>
                <g id="Group-12-Copy" transform="translate(307.000000, 9.000000)">
                    <g id="Group-67" fill="#78B517">
                        <path d="M26.7654042,37.6362893 C27.6104535,37.2009024 28.4561073,36.7478582 29.299585,36.2751007 C30.3114681,35.7040183 31.3014694,35.1172136 32.2665665,34.518073 C32.1092834,36.3000145 31.8896189,38.0191878 31.6111999,39.652735 C30.0293014,39.068712 28.4066617,38.3938624 26.7654042,37.6362893 M17.4975463,39.8370488 C17.1694399,38.0076984 16.9141117,36.0657522 16.7362766,34.0580142 C18.0192041,34.8720666 19.3510937,35.6649544 20.7211859,36.4293002 C21.4585186,36.8396523 22.1969394,37.2353706 22.9346348,37.6166969 C21.0928141,38.4646127 19.2710619,39.2082776 17.4975463,39.8370488 M10.5363467,27.4827055 C11.8548171,26.4075419 13.2847518,25.3439886 14.7948392,24.3113961 C14.7555486,25.3776101 14.7360847,26.4544669 14.7392279,27.5385801 C14.7427339,28.6228143 14.768847,29.7008804 14.8145449,30.7686667 C13.2828175,29.6920518 11.8491351,28.5910068 10.5363467,27.4827055 M6.56304324,23.7037896 C3.3476245,20.1782447 1.97221303,17.0704293 2.91482385,15.3853613 C4.10937784,13.22294 9.11862232,13.0878492 15.7291083,15.0209667 C15.3382579,17.2893321 15.0605643,19.7076641 14.9007424,22.2101709 C12.8751628,23.5478969 10.96951,24.9434327 9.24652821,26.3563839 C8.26656113,25.4700089 7.36747217,24.5829082 6.56304324,23.7037896 M20.5664415,20.735298 C21.9818689,19.9434987 23.3994724,19.2050342 24.8063163,18.5243795 C26.3249872,19.2419212 27.8507909,20.0254965 29.3764736,20.874259 C30.4055237,21.4423178 31.4113621,22.0308157 32.3925381,22.6351568 C32.4962652,24.2194811 32.5533272,25.8433531 32.5605808,27.4923807 C32.5642076,29.1624521 32.5168172,30.8076096 32.4213109,32.4126148 C31.139955,33.2348912 29.8072191,34.0357611 28.433621,34.8061539 C27.2342313,35.4803988 26.0312147,36.1155798 24.8321876,36.709641 C23.7367667,36.1654074 22.6372355,35.5871895 21.5400012,34.9761967 C19.8148432,34.015443 18.1544845,33.0081272 16.5804441,31.97106 C16.4924333,30.512756 16.4444384,29.02978 16.4394817,27.5385801 C16.4351295,26.0563298 16.4724858,24.5900437 16.5480445,23.1501227 C17.8474137,22.3152684 19.1922389,21.5061746 20.5664415,20.735298 M31.5876256,15.6713863 C31.8550432,17.2318853 32.0691465,18.8686979 32.2278804,20.5611433 C31.5595782,20.1642156 30.8817253,19.7736978 30.1961352,19.3900736 C29.0619073,18.758158 27.9263496,18.1605896 26.7928471,17.5985777 C28.4221361,16.8690629 30.0272462,16.2239647 31.5876256,15.6713863 M38.0168914,13.8854537 C42.7000847,12.9884359 46.054048,13.4524857 46.9971424,15.1377955 C47.9396323,16.8232263 46.5795744,19.9465222 43.3802346,23.4720671 C41.0286037,26.0633444 37.8631142,28.7308144 34.1882981,31.2421498 C34.2413706,30.0044418 34.2662748,28.7472623 34.2608346,27.4769003 C34.2553943,26.2217768 34.2214231,24.9806825 34.1607343,23.7589386 C35.1132584,24.383235 36.0391859,25.0207139 36.9351316,25.6677471 C37.0892715,25.7756263 37.2594903,25.8221885 37.4293464,25.8221885 C37.6922909,25.8221885 37.9393984,25.6987079 38.1096172,25.481982 C38.3876735,25.0958181 38.3105431,24.5700885 37.9239239,24.2915619 C36.6837929,23.3893436 35.379588,22.5128857 34.0289598,21.6631557 C33.854147,19.3828172 33.5820145,17.1883466 33.2186071,15.1226779 C34.8908134,14.5905385 36.5000339,14.1732928 38.0168914,13.8854537 M48.9910478,35.6873285 C48.7746474,35.269599 48.2645955,35.0995563 47.8472693,35.3164031 C47.4297013,35.5325243 47.2594825,36.0427735 47.4758828,36.4606239 C48.0789022,37.6354427 48.6664473,39.2901545 48.0014092,40.4808166 C47.0587984,42.150767 43.704835,42.6454148 39.0211582,41.7642402 C37.2116162,41.4260898 35.2671565,40.9065282 33.2394008,40.2265991 C33.6197335,38.0668385 33.8987569,35.7621908 34.0683713,33.3650235 C36.4398287,31.8018638 38.6281317,30.1707354 40.5643706,28.5240056 C41.2230013,29.0806961 41.8512877,29.6492387 42.4373819,30.198189 C42.607359,30.3529932 42.8085266,30.4301534 43.0246852,30.4301534 C43.25656,30.4301534 43.4729603,30.3373918 43.627342,30.1827085 C43.9519425,29.842744 43.936468,29.301534 43.5966349,28.976808 C43.0406432,28.4547066 42.4589011,27.9240184 41.8468146,27.3974422 C42.8751393,26.4631746 43.8188381,25.5278186 44.6629203,24.6008074 C48.4964703,20.3794902 49.8562864,16.7304648 48.4964703,14.3029413 C47.1360496,11.8907773 43.3027415,11.1485637 37.7075236,12.2155033 C36.1832916,12.5044308 34.5705651,12.9180483 32.8971498,13.443536 C32.5186306,11.6214421 32.0653988,9.91690268 31.5405978,8.36523238 C29.7165486,2.96885445 27.1817633,0 24.4149823,0 L24.3997496,0 C22.9466033,0 20.7983162,0.850455617 18.8044109,4.80872665 C18.5880105,5.22645613 18.7579876,5.73670531 19.1753138,5.95318932 C19.59264,6.16967333 20.102692,5.9993887 20.3190923,5.5819011 C21.5864245,3.07709645 23.0395708,1.70091123 24.4149823,1.70091123 C26.3316364,1.70091123 28.4029139,4.39123905 29.9329489,8.92204377 C30.4525515,10.4619828 30.9002221,12.160959 31.2713668,13.9826901 C29.1756686,14.7137771 27.0016311,15.6089808 24.7990627,16.6465319 C22.9433392,15.7936574 21.0993424,15.0401963 19.2835139,14.39534 C18.8507133,14.2254182 18.3561358,14.4573827 18.2015123,14.9058311 C18.0315353,15.3385572 18.2635309,15.8335679 18.7114434,15.9882512 C20.0655775,16.4738284 21.4337353,17.018062 22.8103557,17.6179283 C21.7904936,18.1342245 20.7677301,18.6788208 19.7470217,19.2508708 C18.7078165,19.8364661 17.6854157,20.4428632 16.6858637,21.0649826 C16.9139908,18.2337588 17.2979503,15.5347232 17.8307303,13.065717 C17.9388096,12.6175105 17.645037,12.1534607 17.1814084,12.06082 C16.7331333,11.952578 16.2693838,12.2462222 16.1766581,12.7102721 C16.1320482,12.9150248 16.0896144,13.122922 16.0470596,13.3306983 C8.40643554,11.1246174 3.08673517,11.5544409 1.43121221,14.5503861 C0.0866287148,16.9776677 1.46228198,20.627056 5.31106458,24.8169286 C7.77415972,27.5227369 11.0908877,30.2847826 14.9324166,32.8771483 C15.1158129,35.4989027 15.4284449,38.0303144 15.8646305,40.3886597 C15.2923182,40.5715222 14.7261714,40.7415649 14.1672782,40.8983042 C13.7192449,41.0220266 13.4566631,41.501315 13.5803377,41.9494006 C13.6885379,42.3206888 14.0287337,42.5682546 14.3995157,42.5682546 C14.4766461,42.5682546 14.5541392,42.5682546 14.6620975,42.5214505 C15.4451282,42.301822 16.2436334,42.0544981 17.0527772,41.7844373 C17.0969035,41.7734317 17.1397,41.7598864 17.1803204,41.7424709 C19.6621541,40.9076166 22.2513417,39.8421283 24.8661588,38.5830138 C27.0487798,39.6368918 29.2098816,40.553502 31.3012276,41.3149452 C30.9540199,43.0246851 30.5383862,44.6234014 30.0567444,46.0781981 C28.5572956,50.5932805 26.5173296,53.3145692 24.5852011,53.3145692 C22.49857,53.3145692 20.3190923,50.2374727 18.7579876,45.1040201 C18.6188385,44.6555716 18.1397355,44.3925254 17.6914604,44.5318492 C17.2431853,44.6710521 16.9806034,45.1502195 17.1197525,45.5987888 C18.9589135,51.6600992 21.6020198,55 24.5696058,55 C27.3672147,55 29.8712929,52.0156651 31.6797468,46.6039277 C32.1561903,45.1520336 32.5719448,43.5675883 32.9227793,41.879013 C34.9486007,42.5495088 36.8941485,43.0635071 38.7122739,43.402867 C40.35063,43.7123544 41.8495951,43.8667958 43.1635924,43.8667958 C46.3479414,43.8667958 48.5271773,42.9853794 49.4855044,41.315429 C50.3043197,39.8310017 50.1503007,37.9446883 48.9910478,35.6873285" id="Fill-4"></path>
                        <path d="M17.9388458,11.3492891 C19.2835502,11.3492891 20.3810263,10.2513886 20.3810263,8.90616424 C20.3810263,7.5610608 19.2835502,6.4630394 17.9388458,6.4630394 C16.5942623,6.4630394 15.4966654,7.5610608 15.4966654,8.90616424 C15.4966654,10.2513886 16.5942623,11.3492891 17.9388458,11.3492891" id="Fill-8"></path>
                        <path d="M10.5041526,39.9240899 C9.15944823,39.9240899 8.06197215,41.0219903 8.06197215,42.3668519 C8.06197215,43.7123181 9.15944823,44.8103396 10.5041526,44.8103396 C11.848857,44.8103396 12.9463331,43.7123181 12.9463331,42.3668519 C12.9463331,41.0219903 11.848857,39.9240899 10.5041526,39.9240899" id="Fill-10"></path>
                        <path d="M5.95993915,29.2705006 C0.905722092,34.2184301 -1.02640643,38.4707081 0.519102958,41.2381962 C1.13735507,42.3362176 2.60597585,43.6658406 6.11432084,43.8050435 L6.14539061,43.8050435 C6.60914014,43.8050435 6.98004305,43.4341181 7.01099192,42.9856696 C7.02646636,42.5217408 6.65532166,42.1197336 6.19181392,42.1041322 C4.67701162,42.0424524 2.72940866,41.702246 2.00295638,40.4033419 C0.905722092,38.4552277 2.88403213,34.6668785 7.14989917,30.4918816 C7.4899741,30.1671556 7.4899741,29.6259455 7.16537361,29.285981 C6.84077311,28.9457745 6.30001408,28.9457745 5.95993915,29.2705006" id="Fill-6"></path>
                        <path d="M43.4264644,32.9967225 C43.4264644,34.3421888 44.5239405,35.4398474 45.8686449,35.4398474 C47.2132284,35.4398474 48.3108254,34.3421888 48.3108254,32.9967225 C48.3108254,31.6516191 47.2132284,30.5535977 45.8686449,30.5535977 C44.5239405,30.5535977 43.4264644,31.6516191 43.4264644,32.9967225" id="Fill-12"></path>
                    </g>
                    <g id="Algebra-and-Geometry-Copy" transform="translate(96.000000, 40.000000)">
                        <g id="Group-3">
                            <mask id="mask-4" fill="white">
                                <use xlink:href="#path-3"></use>
                            </mask>
                            <g id="Clip-2"></g>
                        </g>
                        <path d="M43.1230866,37.073322 C43.1230866,37.3757072 43.2900016,37.6399023 43.5366218,37.7785074 L36.1672781,43.9200705 L36.1672781,20.3057187 L44.8378374,13.080205 L44.8378374,36.2647766 L43.931917,36.2647766 C43.4858917,36.2647766 43.1230866,36.6274868 43.1230866,37.073322 M32.1745211,37.8818674 L34.5499023,37.8818674 L34.5499023,44.8378659 L13.4260717,44.8378659 C13.4521967,44.7692759 13.4691067,44.6966958 13.4758517,44.6215508 C13.4952317,44.4063757 13.4296817,44.1965206 13.2910766,44.0303655 C13.1519016,43.8639254 12.9562965,43.7619904 12.7401714,43.7430854 C12.5292713,43.7248454 12.3235012,43.7881154 12.1620961,43.9203555 L12.1620961,20.7354989 L34.5499023,20.7354989 L34.5499023,36.2647766 L32.1745211,36.2647766 C31.7286859,36.2647766 31.3659757,36.6274868 31.3659757,37.073322 C31.3659757,37.5191573 31.7286859,37.8818674 32.1745211,37.8818674 M21.6414858,15.4437112 C21.1954606,15.4437112 20.8326554,15.8065164 20.8326554,16.2523516 L20.8326554,19.1182181 L13.5872868,19.1182181 L20.8327504,13.07992 C20.8389254,13.5204353 21.1993556,13.8769704 21.6414858,13.8769704 C22.087321,13.8769704 22.4500312,13.5141653 22.4500312,13.06833 L22.4500312,12.1624096 L43.4131217,12.1624096 L35.0658475,19.1182181 L22.4500312,19.1182181 L22.4500312,16.2523516 C22.4500312,15.8065164 22.087321,15.4437112 21.6414858,15.4437112 M45.6464778,10.5450338 L21.6414858,10.5450338 C21.4520557,10.5450338 21.2678506,10.6119138 21.1236406,10.7327539 L10.8351354,19.3063182 C10.6507403,19.4605982 10.5450053,19.6867933 10.5450053,19.9270485 L10.5450053,45.6465063 C10.5450053,46.0923415 10.9077155,46.4550517 11.3535507,46.4550517 L35.3658577,46.4550517 C35.5505378,46.4539117 35.7312279,46.3878867 35.8746779,46.2691366 L46.1647981,37.6939573 C46.3491932,37.5397723 46.4550232,37.3135772 46.4550232,37.073322 L46.4550232,11.3535792 C46.4550232,10.907744 46.092313,10.5450338 45.6464778,10.5450338" id="Fill-4" fill="#78B517"></path>
                        <path d="M21.6414383,26.6137123 C22.0872735,26.6137123 22.4499837,26.2510021 22.4499837,25.8051669 L22.4499837,22.6209553 C22.4499837,22.1751201 22.0872735,21.8123149 21.6414383,21.8123149 C21.1956031,21.8123149 20.8328929,22.1751201 20.8328929,22.6209553 L20.8328929,25.8051669 C20.8328929,26.2510021 21.1956031,26.6137123 21.6414383,26.6137123" id="Fill-6" fill="#78B517"></path>
                        <path d="M21.6414383,32.9825155 C22.0872735,32.9825155 22.4499837,32.6198053 22.4499837,32.1739701 L22.4499837,28.9897585 C22.4499837,28.5439233 22.0872735,28.1811181 21.6414383,28.1811181 C21.1956031,28.1811181 20.8328929,28.5439233 20.8328929,28.9897585 L20.8328929,32.1739701 C20.8328929,32.6198053 21.1956031,32.9825155 21.6414383,32.9825155" id="Fill-8" fill="#78B517"></path>
                        <path d="M23.3561702,36.2645676 L22.4501547,36.2645676 L22.4501547,35.3586472 C22.4501547,34.912812 22.0873495,34.5501018 21.6413243,34.5501018 C21.1954891,34.5501018 20.8327789,34.912812 20.8327789,35.3586472 L20.8327789,36.6934928 L19.8063984,37.5489683 C19.6406233,37.6872883 19.5386883,37.8819434 19.5193083,38.0972135 C19.4999282,38.3124837 19.5654783,38.5222438 19.7030384,38.6869738 C19.8423084,38.8547439 20.0383885,38.957629 20.2550836,38.976439 C20.2790236,38.978529 20.3027737,38.979574 20.3264287,38.979574 C20.5160488,38.979574 20.6974038,38.913359 20.8437039,38.7896689 L21.9328795,37.8819434 L23.3561702,37.8819434 C23.8020054,37.8819434 24.1647156,37.5192333 24.1647156,37.073398 C24.1647156,36.6273728 23.8020054,36.2645676 23.3561702,36.2645676" id="Fill-10" fill="#78B517"></path>
                        <path d="M40.9921785,36.2645676 L38.052782,36.2645676 C37.6069468,36.2645676 37.2441416,36.6273728 37.2441416,37.073398 C37.2441416,37.5192333 37.6069468,37.8819434 38.052782,37.8819434 L40.9921785,37.8819434 C41.4382037,37.8819434 41.8010089,37.5192333 41.8010089,37.073398 C41.8010089,36.6273728 41.4382037,36.2645676 40.9921785,36.2645676" id="Fill-12" fill="#78B517"></path>
                        <path d="M29.2349916,36.2645676 L26.2955951,36.2645676 C25.8497599,36.2645676 25.4870497,36.6273728 25.4870497,37.073398 C25.4870497,37.5192333 25.8497599,37.8819434 26.2955951,37.8819434 L29.2349916,37.8819434 C29.6810168,37.8819434 30.043822,37.5192333 30.043822,37.073398 C30.043822,36.6273728 29.6810168,36.2645676 29.2349916,36.2645676" id="Fill-14" fill="#78B517"></path>
                        <path d="M17.8415694,39.4908167 C17.6256343,39.4719117 17.4162542,39.5389818 17.2549441,39.6764468 L14.7034329,41.8013129 C14.5375628,41.939728 14.4355327,42.1344781 14.4162477,42.3497482 C14.3969627,42.5648283 14.4626077,42.7744934 14.6002628,42.9392235 C14.7397229,43.1071836 14.935993,43.2100686 15.1528781,43.2288786 C15.1765331,43.2309686 15.2001881,43.2319186 15.2236531,43.2319186 C15.4131782,43.2319186 15.5946283,43.1657036 15.7407384,43.0419185 L18.2905396,40.9182875 C18.4564097,40.7798724 18.5583448,40.5852173 18.5778198,40.3701372 C18.5972948,40.1548671 18.5317448,39.945107 18.3939947,39.7802819 C18.2547246,39.6124168 18.0585495,39.5096268 17.8415694,39.4908167" id="Fill-16" fill="#78B517"></path>
                    </g>
                </g>
                <g id="Group-8" transform="translate(138.000000, 11.000000)" fill="#78B517">
                    <path d="M1.36685117,18.3172345 C0.618380156,18.3172345 0,17.7098691 0,16.9745097 L0,1.34272487 C0,0.607365456 0.618380156,0 1.36685117,0 L17.2823459,0 C18.030817,0 18.6491971,0.607365456 18.6491971,1.34272487 L18.6491971,16.9745097 C18.6491971,17.7098691 18.030817,18.3172345 17.2823459,18.3172345 L1.36685117,18.3172345 Z M1.4316723,16.9108431 L17.2170762,16.9108431 L17.2170762,1.40661169 L1.4316723,1.40661169 L1.4316723,16.9108431 Z" id="Fill-5"></path>
                    <path d="M22.7176541,18.3172345 C21.969183,18.3172345 21.3505786,17.7098691 21.3505786,16.9745097 L21.3505786,1.34272487 C21.3505786,0.607365456 21.969183,0 22.7176541,0 L38.6331488,0 C39.3816198,0 40,0.607365456 40,1.34272487 L40,16.9745097 C40,17.7098691 39.3816198,18.3172345 38.6331488,18.3172345 L22.7176541,18.3172345 Z M22.7826995,16.9108431 L38.5681034,16.9108431 L38.5681034,1.40661169 L22.7826995,1.40661169 L22.7826995,16.9108431 Z" id="Fill-7"></path>
                    <path d="M1.36685117,39 C0.618380156,39 0,38.3926345 0,37.6572751 L0,22.0254903 C0,21.2901309 0.618380156,20.6827655 1.36685117,20.6827655 L17.2823459,20.6827655 C18.030817,20.6827655 18.6491971,21.2901309 18.6491971,22.0254903 L18.6491971,37.6572751 C18.6491971,38.3926345 18.030817,39 17.2823459,39 L1.36685117,39 Z M1.4316723,37.5936086 L17.2170762,37.5936086 L17.2170762,22.0893772 L1.4316723,22.0893772 L1.4316723,37.5936086 Z" id="Fill-9"></path>
                    <path d="M22.7176541,39 C21.969183,39 21.3505786,38.3926345 21.3505786,37.6572751 L21.3505786,22.0254903 C21.3505786,21.2901309 21.969183,20.6827655 22.7176541,20.6827655 L38.6331488,20.6827655 C39.3816198,20.6827655 40,21.2901309 40,22.0254903 L40,37.6572751 C40,38.3926345 39.3816198,39 38.6331488,39 L22.7176541,39 Z M22.7826995,37.5936086 L38.5681034,37.5936086 L38.5681034,22.0893772 L22.7826995,22.0893772 L22.7826995,37.5936086 Z" id="Fill-11"></path>
                    <path d="M4.6866801,10.0058007 C4.29618324,10.0058007 3.9707318,9.68592592 3.9707318,9.30238466 C3.9707318,8.91884339 4.29618324,8.59918896 4.6866801,8.59918896 L13.897337,8.59918896 C14.2878339,8.59918896 14.6135096,8.91884339 14.6135096,9.30238466 C14.6135096,9.68592592 14.2878339,10.0058007 13.897337,10.0058007 L4.6866801,10.0058007 Z" id="Fill-13"></path>
                    <path d="M12.2375123,34.1728876 C12.0098533,34.1728876 11.8142684,34.0770573 11.6841775,33.91712 L5.79330469,26.9483889 C5.66321384,26.7884516 5.59794412,26.6287345 5.63046683,26.437074 C5.66321384,26.2449729 5.72803497,26.0852559 5.89087284,25.9572619 C6.02118799,25.8614317 6.18380156,25.7973245 6.34641513,25.7973245 C6.57452272,25.7973245 6.769659,25.8935954 6.89974986,26.0530922 L12.790847,33.0220435 C12.9209378,33.1819809 12.9859833,33.3416979 12.9536849,33.5335787 C12.9209378,33.7252392 12.8558924,33.8851766 12.6932788,34.0129502 C12.563188,34.1409442 12.4003501,34.1728876 12.2375123,34.1728876" id="Fill-15"></path>
                    <path d="M6.44427485,34.2687619 C6.28143699,34.2687619 6.11859912,34.2046548 6.02103098,34.1090448 C5.85819312,33.9812712 5.76062497,33.8211135 5.76062497,33.629453 C5.72810226,33.4375722 5.79337198,33.2459118 5.89094013,33.1181381 L11.5539297,25.957306 C11.6842448,25.7973686 11.9121281,25.669595 12.1072644,25.669595 C12.2701023,25.669595 12.4329401,25.7339224 12.5305083,25.8295323 C12.856184,26.0533565 12.8884824,26.5010049 12.6605991,26.8206593 L6.99760958,33.9812712 C6.90004144,34.1731519 6.67193385,34.2687619 6.44427485,34.2687619" id="Fill-17"></path>
                    <path d="M26.0374606,10.0378322 C25.6469637,10.0378322 25.321288,9.71773715 25.321288,9.33419589 C25.321288,8.95065463 25.6469637,8.63122049 26.0374606,8.63122049 L35.2481175,8.63122049 C35.6386143,8.63122049 35.9642901,8.95065463 35.9642901,9.33419589 C35.9642901,9.71773715 35.6386143,10.0378322 35.2481175,10.0378322 L26.0374606,10.0378322 Z" id="Fill-19"></path>
                    <path d="M26.0374606,30.5286067 C25.6469637,30.5286067 25.321288,30.2089523 25.321288,29.8251907 C25.321288,29.4416495 25.6469637,29.1222153 26.0374606,29.1222153 L35.2481175,29.1222153 C35.6386143,29.1222153 35.9642901,29.4416495 35.9642901,29.8251907 C35.9642901,30.2089523 35.6386143,30.5286067 35.2481175,30.5286067 L26.0374606,30.5286067 Z" id="Fill-21"></path>
                    <path d="M9.34088234,14.3851986 C8.95038548,14.3851986 8.62470975,14.0653239 8.62470975,13.6817826 L8.59241133,4.63518758 C8.59241133,4.25164631 8.91786276,3.93177158 9.30835963,3.93177158 C9.69885649,3.93177158 10.0245322,4.25164631 10.0245322,4.63518758 L10.0570549,13.6817826 C10.0570549,13.8736634 9.99178521,14.0336007 9.86169435,14.1933178 C9.7313792,14.2893684 9.53601863,14.3851986 9.34088234,14.3851986" id="Fill-23"></path>
                    <path d="M30.5941395,27.5237229 C30.0405805,27.5237229 29.5852625,27.0760745 29.5852625,26.5328161 C29.5852625,25.9893375 30.0405805,25.5416891 30.5941395,25.5416891 C31.1474742,25.5416891 31.6027922,25.9893375 31.6027922,26.5328161 C31.6027922,27.0760745 31.1474742,27.5237229 30.5941395,27.5237229" id="Fill-25"></path>
                    <path d="M30.6914385,34.0450258 C30.1383281,34.0450258 29.6827858,33.5973774 29.6827858,33.0541191 C29.6827858,32.5106405 30.1383281,32.0629921 30.6914385,32.0629921 C31.2447732,32.0629921 31.7005398,32.5106405 31.7005398,33.0541191 C31.7005398,33.5973774 31.2447732,34.0450258 30.6914385,34.0450258" id="Fill-27"></path>
                </g>
                <g id="Group-15" transform="translate(0.000000, 52.000000)" fill="#78B517">
                    <path d="M24.8071249,4.30160346 C24.8071249,4.92667826 24.3038196,5.4352539 23.6851503,5.4352539 L11.3148684,5.4352539 C10.6959507,5.4352539 10.1925212,4.92667826 10.1925212,4.30160346 L10.1925212,3.33639606 C10.1925212,2.7111964 10.6959507,2.20262075 11.3148684,2.20262075 L23.6851503,2.20262075 C24.3038196,2.20262075 24.8071249,2.7111964 24.8071249,3.33639606 L24.8071249,4.30160346 Z M17.9501031,34.0780643 L18.0581405,34.0454745 C19.3172108,33.6660094 20.5063672,33.3075216 22.9129934,33.3075216 C25.390651,33.3075216 26.5806767,33.6766229 27.8419823,34.0679502 L27.8747661,34.0779394 C29.105399,34.4540331 30.3771357,34.8424885 32.6743585,34.9086671 C32.7887291,35.6581075 32.8465974,36.4000561 32.8465974,37.116657 C32.8465974,41.9309567 30.6847318,46.401128 26.9153443,49.3809093 C25.7600893,50.2942977 24.2789835,50.7972544 22.7451008,50.7972544 L12.271434,50.7972544 C10.7576686,50.7972544 9.27606608,50.2936733 8.10032116,49.3800352 C4.34210991,46.4293475 2.18670175,41.9842741 2.18670175,37.1843339 C2.18670175,35.8911058 2.35049638,34.5957551 2.67361513,33.3318703 C4.64001993,33.3925547 5.71108033,33.718203 6.84361029,34.062581 L6.89514537,34.0780643 C8.25604403,34.490244 9.66326217,34.9162838 12.4225621,34.9162838 C15.1826072,34.9162838 16.589577,34.4901192 17.9501031,34.0780643 L17.9501031,34.0780643 Z M13.0961194,15.3414284 L13.0961194,7.63812438 L21.8866381,7.63812438 L21.8866381,15.3752668 C21.8866381,19.0426803 23.6445432,22.5438983 26.5888727,24.741025 C29.224861,26.7085248 31.1917625,29.516117 32.148949,32.6692111 C30.5121204,32.5661974 29.5356858,32.2746373 28.50486,31.9669696 L28.4210379,31.9417469 C27.0605118,31.5301914 25.653542,31.1046511 22.8958564,31.1046511 C20.1390401,31.1046511 18.7324428,31.5300666 17.3719167,31.9414972 L17.2633826,31.9743367 C16.0036914,32.3544261 14.8137899,32.7132885 12.4057977,32.7132885 C9.92590481,32.7132885 8.73575491,32.3436877 7.47370426,31.951861 L7.4298684,31.9387501 C6.33955995,31.6134765 5.21385995,31.2775893 3.38082544,31.1534734 C4.44654607,28.5984832 6.17576532,26.3795052 8.39400903,24.7240434 C11.3383386,22.5271664 13.0961194,19.0197051 13.0961194,15.3414284 L13.0961194,15.3414284 Z M27.8633414,22.9758068 C25.4794404,21.2003496 24.0562029,18.3590438 24.0562029,15.3752668 L24.0562029,7.61739677 C25.7168743,7.42997423 26.9934541,6.00651183 26.9934541,4.30160346 L26.9934541,3.33639606 C26.9934541,1.49663335 25.509368,0 23.6851503,0 L11.3148684,0 C9.49040234,0 8.00619203,1.49663335 8.00619203,3.33639606 L8.00619203,4.30160346 C8.00619203,6.00638697 9.28277185,7.42984936 10.9434432,7.61727191 L10.9434432,15.35841 C10.9434432,18.3343205 9.51399671,21.1756263 7.11954029,22.9588251 C2.66156958,26.275992 0,31.5938727 0,37.1843339 C0,42.6751528 2.46374938,47.7530427 6.75966399,51.1162848 C8.31751358,52.3309727 10.2751015,53 12.271434,53 L22.7451008,53 C24.7591911,53 26.7172758,52.3304732 28.2584851,51.1149113 C32.5770006,47.7130859 35.0339201,42.6039797 34.9996461,37.0984267 C34.982385,31.5667769 32.3146064,26.2873547 27.8633414,22.9758068 L27.8633414,22.9758068 Z" id="Fill-4"></path>
                    <path d="M14.1667346,49.6349206 C16.0047186,49.6349206 17.5,48.1253985 17.5,46.2699099 C17.5,44.4144212 16.0047186,42.9047619 14.1667346,42.9047619 C12.3286147,42.9047619 10.8333333,44.4144212 10.8333333,46.2699099 C10.8333333,48.1253985 12.3286147,49.6349206 14.1667346,49.6349206" id="Fill-6"></path>
                    <path d="M20.4166667,42.9047619 C22.4844225,42.9047619 24.1666667,41.2064678 24.1666667,39.1191113 C24.1666667,37.0316275 22.4844225,35.3333333 20.4166667,35.3333333 C18.3489108,35.3333333 16.6666667,37.0316275 16.6666667,39.1191113 C16.6666667,41.2064678 18.3489108,42.9047619 20.4166667,42.9047619" id="Fill-8"></path>
                </g>
                <path d="M172.788991,86.1041667 L208.211009,86.1041667 L208.211009,82.8229167 L172.788991,82.8229167 L172.788991,86.1041667 Z M204.15604,90.4791667 L176.709314,90.4791667 L175.29209,87.9270833 L205.573607,87.9270833 L204.15604,90.4791667 Z M205.885264,97.6889333 C205.885264,99.96475 204.068336,101.816133 201.834874,101.816133 C200.146868,101.816133 198.773381,100.4166 198.773381,98.6965833 C198.773381,97.4211833 199.791818,96.3833167 201.043825,96.3833167 C201.946736,96.3833167 202.68111,97.1317333 202.68111,98.0517667 C202.68111,98.5551833 203.081615,98.9631667 203.575662,98.9631667 C204.069367,98.9631667 204.470101,98.5551833 204.470101,98.0517667 C204.470101,96.12665 202.933114,94.5604 201.043825,94.5604 C199.112975,94.5604 197.493781,95.94185 197.084917,97.7850667 L183.907526,97.7850667 C183.498777,95.94185 181.879583,94.5604 179.948732,94.5604 C178.059444,94.5604 176.522343,96.12665 176.522343,98.0517667 C176.522343,98.5551833 176.922848,98.9631667 177.416895,98.9631667 C177.910943,98.9631667 178.311334,98.5551833 178.311334,98.0517667 C178.311334,97.1317333 179.045822,96.3833167 179.948732,96.3833167 C181.20074,96.3833167 182.218833,97.4211833 182.218833,98.6965833 C182.218833,100.41695 180.84569,101.816133 179.157684,101.816133 C176.924222,101.816133 175.10695,99.96475 175.10695,97.6889333 C175.10695,94.7184833 177.478723,92.3020833 180.393891,92.3020833 L200.598667,92.3020833 C203.513835,92.3020833 205.885264,94.7184833 205.885264,97.6889333 L205.885264,97.6889333 Z M184.007824,102.160067 L196.981528,102.160067 L196.981528,99.6079833 L184.007824,99.6079833 L184.007824,102.160067 Z M209.105447,81 L171.894438,81 C171.40039,81 171,81.4079833 171,81.9115167 L171,87.0156833 C171,87.5191 171.40039,87.9270833 171.894438,87.9270833 L173.23621,87.9270833 L175.409562,91.8396167 C175.501044,92.0044667 175.639469,92.1315167 175.801594,92.2106167 C174.283385,93.5339667 173.31796,95.4982833 173.31796,97.6889333 C173.31796,100.969833 175.9375,103.63905 179.157684,103.63905 C180.317408,103.63905 181.383474,103.2215 182.218833,102.52675 L182.218833,122.0886 C182.218833,122.592017 182.619338,123 183.113386,123 C183.607433,123 184.007824,122.592017 184.007824,122.0886 L184.007824,103.982983 L192.060401,103.982983 L192.060401,122.0886 C192.060401,122.592017 192.461135,123 192.954953,123 C193.449001,123 193.849392,122.592017 193.849392,122.0886 L193.849392,103.982983 L196.981528,103.982983 L196.981528,118.570983 C196.981528,118.573433 196.981185,118.57565 196.981185,118.5781 L196.981185,122.0886 C196.981185,122.592017 197.38169,123 197.875623,123 C198.369785,123 198.770175,122.592017 198.770175,122.0886 L198.770175,119.42895 C198.770175,119.4265 198.770519,119.424283 198.770519,119.421833 L198.770519,102.5243 C199.606335,103.220333 200.673433,103.63905 201.834874,103.63905 C205.054714,103.63905 207.674255,100.969833 207.674255,97.6889333 C207.674255,95.4750667 206.688907,93.4916167 205.142761,92.1682667 C205.270652,92.0884667 205.379652,91.97705 205.455906,91.8396167 L207.629143,87.9270833 L209.105447,87.9270833 C209.599495,87.9270833 210,87.5191 210,87.0156833 L210,81.9115167 C210,81.4079833 209.599495,81 209.105447,81 L209.105447,81 Z" id="Fill-4" fill="#78B517"></path>
            </g>
        </g>
    </g>
</svg>