<?xml version="1.0" encoding="UTF-8"?>
<svg width="500px" height="125px" viewBox="0 0 500 125" version="1.1" xmlns="http://www.w3.org/2000/svg" xmlns:xlink="http://www.w3.org/1999/xlink">
    <title>01</title>
    <defs>
        <rect id="path-1" x="0" y="0" width="500" height="125"></rect>
    </defs>
    <g id="Page-1" stroke="none" stroke-width="1" fill="none" fill-rule="evenodd">
        <g id="01">
            <g id="Group-60">
                <mask id="mask-2" fill="white">
                    <use xlink:href="#path-1"></use>
                </mask>
                <g id="Mask"></g>
            </g>
            <g id="Group-68" transform="translate(19.999999, 8.862594)" fill="#F5AA00" fill-rule="nonzero">
                <g id="school" transform="translate(216.000000, 62.999990)">
                    <path d="M41.2147685,14.3355815 C42.2078045,14.3355815 43.0067149,15.1344907 43.0067149,16.1275279 L43.0067149,19.7114207 C43.0067149,20.7044568 42.2078045,21.5033671 41.2147685,21.5033671 L40.0201375,21.5033671 C39.0271015,21.5033671 38.2281911,20.7044568 38.2281911,19.7114207 L38.2281911,16.1275279 C38.2281911,15.1344907 39.0271015,14.3355815 40.0201375,14.3355815 L41.2147685,14.3355815 Z M39.4228221,19.7114207 C39.4228221,20.0399438 39.6916122,20.3087362 40.0201375,20.3087362 L41.2147685,20.3087362 C41.5432938,20.3087362 41.812084,20.0399438 41.812084,19.7114207 L41.812084,16.1275279 C41.812084,15.7990049 41.5432938,15.5302124 41.2147685,15.5302124 L40.0201375,15.5302124 C39.6916122,15.5302124 39.4228221,15.7990049 39.4228221,16.1275279 L39.4228221,19.7114207 Z M41.2147685,23.892629 C42.2078045,23.892629 43.0067149,24.6915394 43.0067149,25.6845754 L43.0067149,29.2684682 C43.0067149,30.2615043 42.2078045,31.0604146 41.2147685,31.0604146 L40.0201375,31.0604146 C39.0271015,31.0604146 38.2281911,30.2615043 38.2281911,29.2684682 L38.2281911,25.6845754 C38.2281911,24.6915394 39.0271015,23.892629 40.0201375,23.892629 L41.2147685,23.892629 Z M39.4228221,29.2684682 C39.4228221,29.5969913 39.6916122,29.8657837 40.0201375,29.8657837 L41.2147685,29.8657837 C41.5432938,29.8657837 41.812084,29.5969913 41.812084,29.2684682 L41.812084,25.6845754 C41.812084,25.3560524 41.5432938,25.0872599 41.2147685,25.0872599 L40.0201375,25.0872599 C39.6916122,25.0872599 39.4228221,25.3560524 39.4228221,25.6845754 L39.4228221,29.2684682 Z M24.4899354,12.5436351 L25.6845663,12.5436351 C26.0130893,12.5436351 26.2818818,12.8124275 26.2818818,13.1409506 C26.2818818,13.4694736 26.0130893,13.738266 25.6845663,13.738266 L23.8926199,13.738266 C23.5640968,13.738266 23.2953044,13.4694736 23.2953044,13.1409506 L23.2953044,10.7516887 C23.2953044,10.4231656 23.5640968,10.1543732 23.8926199,10.1543732 C24.2211429,10.1543732 24.4899354,10.4231656 24.4899354,10.7516887 L24.4899354,12.5436351 Z M17.9194652,13.1409506 C17.9194652,9.84078169 20.592451,7.10059834 23.8926199,7.10059834 C27.1927888,7.10059834 29.8657746,9.84078169 29.8657746,13.1409506 C29.8657746,16.4411183 27.1927888,19.1141053 23.8926199,19.1141053 C20.592451,19.1141053 17.9194652,16.4411183 17.9194652,13.1409506 Z M23.8926199,17.9194743 C26.5282735,17.9194743 28.6711436,15.7766053 28.6711436,13.1409506 C28.6711436,10.505297 26.5282735,8.29522928 23.8926199,8.29522928 C21.2569663,8.29522928 19.1140961,10.505297 19.1140961,13.1409506 C19.1140961,15.7766053 21.2569663,17.9194743 23.8926199,17.9194743 Z M4.77852489,16.1275279 C4.77852489,15.1344907 5.58116755,14.3355815 6.5704713,14.3355815 L7.76510223,14.3355815 C8.75813943,14.3355815 9.55704864,15.1344907 9.55704864,16.1275279 L9.55704864,19.7114207 C9.55704864,20.7044568 8.75813943,21.5033671 7.76510223,21.5033671 L6.5704713,21.5033671 C5.58116755,21.5033671 4.77852489,20.7044568 4.77852489,19.7114207 L4.77852489,16.1275279 Z M6.5704713,15.5302124 C6.24045464,15.5302124 5.97315583,15.7990049 5.97315583,16.1275279 L5.97315583,19.7114207 C5.97315583,20.0399438 6.24045464,20.3087362 6.5704713,20.3087362 L7.76510223,20.3087362 C8.09362642,20.3087362 8.36241884,20.0399438 8.36241884,19.7114207 L8.36241884,16.1275279 C8.36241884,15.7990049 8.09362642,15.5302124 7.76510223,15.5302124 L6.5704713,15.5302124 Z M4.77852489,25.6845754 C4.77852489,24.6915394 5.58116755,23.892629 6.5704713,23.892629 L7.76510223,23.892629 C8.75813943,23.892629 9.55704864,24.6915394 9.55704864,25.6845754 L9.55704864,29.2684682 C9.55704864,30.2615043 8.75813943,31.0604146 7.76510223,31.0604146 L6.5704713,31.0604146 C5.58116755,31.0604146 4.77852489,30.2615043 4.77852489,29.2684682 L4.77852489,25.6845754 Z M6.5704713,25.0872599 C6.24045464,25.0872599 5.97315583,25.3560524 5.97315583,25.6845754 L5.97315583,29.2684682 C5.97315583,29.5969913 6.24045464,29.8657837 6.5704713,29.8657837 L7.76510223,29.8657837 C8.09362642,29.8657837 8.36241884,29.5969913 8.36241884,29.2684682 L8.36241884,25.6845754 C8.36241884,25.3560524 8.09362642,25.0872599 7.76510223,25.0872599 L6.5704713,25.0872599 Z M34.3157753,8.40722593 L44.5298712,10.7292903 C46.4338142,11.1623431 47.7852386,12.8572266 47.7852386,14.8059677 L47.7852386,34.0469931 C47.7852386,36.3541237 45.9111632,38.2282014 43.6040304,38.2282014 L4.18120942,38.2282014 C1.8718379,38.2282014 0,36.3541237 0,34.0469931 L0,14.8059677 C0,12.8572266 1.35067933,11.1623431 3.25462239,10.7292903 L13.4694634,8.40722593 L23.5118297,0.136198563 C23.735823,-0.0453995211 24.0494145,-0.0453995211 24.2734078,0.136198563 L34.3157741,8.40722593 L34.3157753,8.40722593 Z M34.6442972,37.0335693 L43.6040292,37.0335693 C45.2541114,37.0335693 46.5906066,35.6970764 46.5906066,34.046992 L46.5906066,14.8059665 C46.5906066,13.4097418 45.6274335,12.2001771 44.2685445,11.8940525 L34.6442972,9.70638548 L34.6442972,37.0335693 L34.6442972,37.0335693 Z M33.4496663,37.0335682 L33.4496663,9.24346508 L23.8926187,1.37084702 L14.3355713,9.24346508 L14.3355713,37.0335682 L19.114095,37.0335682 L19.114095,28.6711516 C19.114095,26.035498 21.2569652,23.8926279 23.8926187,23.8926279 C26.5282723,23.8926279 28.6711425,26.035498 28.6711425,28.6711516 L28.6711425,37.0335682 L33.4496663,37.0335682 Z M1.19463094,14.8059654 L1.19463094,34.0469908 C1.19463094,35.6970753 2.53187122,37.0335682 4.18120828,37.0335682 L13.1409403,37.0335682 L13.1409403,9.70638548 L3.51968135,11.8940525 C2.15929528,12.2001771 1.19463094,13.4097418 1.19463094,14.8059665 L1.19463094,14.8059654 Z M27.4765116,37.0335693 L27.4765116,28.6711528 C27.4765116,26.6925453 25.8712262,25.0872599 23.8926187,25.0872599 C21.9140113,25.0872599 20.3087259,26.6925453 20.3087259,28.6711528 L20.3087259,37.0335693 L27.4765116,37.0335693 Z" id="Shape"></path>
                </g>
                <g id="book" transform="translate(212.000001, 0.000000)">
                    <path d="M33.4496663,28.6711425 L33.4496663,2.38926187 C33.4496663,1.06994033 32.3797259,0 31.0604044,0 L4.77852375,0 C2.13913557,0 0,2.13913557 0,4.77852375 L0,33.9797842 C0,36.2891546 1.8718379,38.1609925 4.11401075,38.1609925 L32.7179557,38.1615758 C33.1808738,38.1609925 33.4496663,37.9593976 33.4496663,37.563677 C33.4496663,37.2335111 33.1820678,36.9657645 32.8519019,36.9657645 L31.0604044,36.9657645 L31.0604044,31.0604044 C32.3819658,31.0604044 33.4496663,29.9927039 33.4496663,28.6711425 Z M1.1946298,4.77852375 C1.1946298,2.8021561 2.8021561,1.19463094 4.77852375,1.19463094 L8.36241656,1.19463094 L8.36241656,29.7985759 L4.18120828,29.7988676 C3.01046937,29.7988676 1.95471432,30.2853804 1.1946298,31.0629359 L1.1946298,4.77852375 L1.1946298,4.77852375 Z M29.8657734,36.9663615 L4.18120714,36.9663615 C2.43555232,36.9663615 1.03634042,35.462621 1.20881508,33.6826189 C1.35963756,32.1310921 2.75436977,30.9932068 4.31336351,30.9932068 L29.8657734,31.0604044 L29.8657734,36.9663615 L29.8657734,36.9663615 Z M9.5570475,29.7985759 L9.5570475,1.19463094 L31.0604044,1.19463094 C31.7201392,1.19463094 32.2550353,1.72952705 32.2550353,2.38926187 L32.2550353,28.6711425 C32.2550353,29.3299818 31.7190933,29.8657734 31.0604044,29.8657734 L9.5570475,29.7985759 Z M28.073827,9.48984997 L13.7382558,9.48984997 C13.4092838,9.48984997 13.1409403,9.75699725 13.1409403,10.0871654 C13.1409403,10.4173336 13.4092838,10.6844809 13.7382558,10.6844809 L28.073827,10.6844809 C28.402799,10.6844809 28.6711425,10.4173313 28.6711425,10.0871654 C28.6711425,9.75699953 28.4023501,9.48984997 28.073827,9.48984997 Z M28.073827,15.4630047 L13.7382558,15.4630047 C13.4092838,15.4630047 13.1409403,15.7301542 13.1409403,16.0603201 C13.1409403,16.390486 13.4092838,16.6576356 13.7382558,16.6576356 L28.073827,16.6576356 C28.402799,16.6576356 28.6711425,16.390486 28.6711425,16.0603201 C28.6711425,15.7301542 28.4023501,15.4630047 28.073827,15.4630047 Z" id="Shape"></path>
                </g>
                <g id="graduation-cap-copy" transform="translate(0.000000, 12.389262)">
                    <path d="M46.5234079,7.83229863 L25.4157716,0.276259316 C24.9603204,0.0918380736 24.4302047,0 23.8926199,0 C23.3550351,0 22.8249194,0.0918380736 22.309733,0.274764569 L1.19836439,7.83229863 C0.480689888,8.09362415 0,8.78053785 0,9.5570475 C0,10.3335572 0.480689888,11.0242032 1.19836439,11.281049 L5.98734111,12.9990783 C5.2913188,14.0884322 4.75537682,15.2920225 4.46119877,16.5979038 C4.44588445,16.6649829 4.48598741,16.7212489 4.49328228,16.7862818 C3.3151004,16.926428 2.38926074,17.8970656 2.38926074,19.114095 C2.38926074,20.0429207 2.93393764,20.8246574 3.70783491,21.220378 C3.66826285,21.2868305 3.60330402,21.3316296 3.5906112,21.4137586 L1.79866479,32.7627525 C1.74733299,33.0894094 1.97016878,33.3950852 2.29563056,33.4463805 C2.32728798,33.3824687 2.35864691,33.4496662 2.39000583,33.4496662 C2.67813654,33.4496662 2.93304102,33.239709 2.97970629,32.9456813 L4.77852261,21.6004197 C4.78421222,21.5636708 4.74848526,21.5365444 4.74760459,21.5006682 C4.75836403,21.49589 4.7673234,21.5033569 4.77852375,21.5033569 C4.7897241,21.5033569 4.7985046,21.4972343 4.80944291,21.4969427 C4.80839021,21.5332222 4.77255046,21.5630875 4.77852375,21.6004197 L6.57718968,32.9494136 C6.62422864,33.2406067 6.87883463,33.4496662 7.16703939,33.4496662 C7.19854073,33.4496662 7.22945191,33.4473284 7.26096806,33.4426619 C7.58643098,33.3913301 7.80930436,33.0856908 7.75793497,32.7590339 L5.96598856,21.41004 C5.95374348,21.3316296 5.88878579,21.2868305 5.84846636,21.2196329 C6.62273617,20.8239101 7.16778676,20.0399335 7.16778676,19.114095 C7.16778676,18.0867117 6.51275492,17.2288181 5.60281973,16.8913356 C5.6070465,16.8770444 5.62192675,16.8700423 5.62527968,16.8554594 C5.91043912,15.5973997 6.44951642,14.440101 7.14837556,13.4097327 L22.3052556,18.8378357 C22.8249217,19.0244968 23.3550373,19.114095 23.8926222,19.114095 C24.430207,19.114095 24.9640572,19.0224825 25.4762542,18.8390319 L46.5838927,11.2829926 C47.3073867,11.0204709 47.7852409,10.3335572 47.7852409,9.5570475 C47.7852409,8.78053785 47.3073867,8.09362415 46.5234102,7.83229863 L46.5234079,7.83229863 Z M5.97315811,19.114095 C5.97315811,19.7729343 5.43721613,20.3087259 4.77852603,20.3087259 C4.11983593,20.3087259 3.58389395,19.7711411 3.58389395,19.114095 C3.58389395,18.4570489 4.11998518,17.9194641 4.77852603,17.9194641 C5.43706688,17.9194641 5.97315811,18.4570489 5.97315811,19.114095 Z M46.1874202,10.154363 L25.0797839,17.7104046 C24.6915325,17.8522665 24.2958097,17.9194641 23.8926222,17.9194641 C23.4894347,17.9194641 23.0937118,17.8522665 22.712925,17.7178692 L7.90696648,12.4166955 C9.52718446,10.5575505 11.789517,9.28078818 14.2683771,8.96719893 L23.9000891,7.76360863 C24.2279399,7.72160988 24.4600723,7.42530364 24.4192311,7.09625651 C24.4451385,6.76459814 24.1390139,6.54060484 23.8179577,6.57793706 L14.1190483,7.78003489 C11.1772689,8.15335706 8.51921461,9.71384327 6.6951619,11.9836416 L1.60080792,10.154363 C1.35814851,10.0722316 1.19463322,9.82583992 1.19463322,9.5570475 C1.19463322,9.28825508 1.35785001,9.04492349 1.60073386,8.95801398 L22.7083702,1.40197467 C23.0937118,1.26406831 23.4894347,1.19463094 23.8926222,1.19463094 C24.2958097,1.19463094 24.6937724,1.26375615 25.0738141,1.39965964 L46.1814503,8.95569895 C46.4263473,9.04186336 46.59061,9.28825508 46.59061,9.5570475 C46.59061,9.82583992 46.4263473,10.0722316 46.1874202,10.154363 Z M37.0559609,17.3296155 C36.72811,17.3669477 36.4936626,17.6656054 36.5333099,17.9922623 L37.6308779,27.2749167 C37.6308779,29.6791124 32.1131768,32.2550353 23.8926222,32.2550353 C15.6720676,32.2550353 10.1543664,29.6813522 10.1468995,27.3458488 L11.2504397,17.9903962 C11.2901086,17.6637393 11.0556407,17.3650816 10.7277887,17.3277493 C10.4081498,17.2880793 10.1024741,17.5237435 10.0651418,17.8504004 L8.95973545,27.2749167 C8.95973545,30.7393482 15.5152729,33.4496662 23.8926222,33.4496662 C32.2699725,33.4496662 38.8255089,30.7386008 38.8180506,27.2054793 L37.714504,17.8500267 C37.683144,17.5237435 37.3770193,17.2848164 37.0559609,17.3296155 Z" id="Shape"></path>
                </g>
                <g id="chart-user" transform="translate(121.000002, 76.000000)">
                    <path d="M11.9463082,23.8926187 C15.9050168,23.8926187 19.1140939,20.6835406 19.1140939,16.7248331 C19.1140939,12.7661234 15.9050168,9.5570475 11.9463082,9.5570475 C7.92189458,9.5570475 4.77852147,12.7004206 4.77852147,16.7248331 C4.77852147,20.6820481 7.92189458,23.8926187 11.9463082,23.8926187 Z M11.9463082,10.7516784 C15.2397564,10.7516784 17.9194629,13.4313861 17.9194629,16.7248331 C17.9194629,20.0182802 15.2397564,22.6979878 11.9463082,22.6979878 C8.65286002,22.6979878 5.97315355,20.0175351 5.97315355,16.7248331 C5.97315355,13.4321311 8.6536074,10.7516784 11.9463094,10.7516784 L11.9463082,10.7516784 Z M43.6040292,0 L16.1275177,0 C13.8203871,0 11.9463094,1.87557021 11.9463094,4.18120828 L11.9463094,6.57047016 C11.9463094,6.89974058 12.2151018,7.16778562 12.5436248,7.16778562 C12.8721479,7.16778562 13.1409403,6.89974058 13.1409403,6.57047016 L13.1409403,4.18120828 C13.1409403,2.53411106 14.4804204,1.19463094 16.1275177,1.19463094 L43.6040292,1.19463094 C45.2511264,1.19463094 46.5906066,2.53411106 46.5906066,4.18120828 L46.5906066,26.8791961 C46.5906066,28.5262933 45.2511264,29.8657734 43.6040292,29.8657734 L25.6845652,29.8657734 C25.3555932,29.8657734 25.0872497,30.134117 25.0872497,30.4630889 C25.0872497,30.7920608 25.3560421,31.0604044 25.6845652,31.0604044 L43.6040292,31.0604044 C45.9096673,31.0604044 47.7852375,29.1848342 47.7852375,26.8791961 L47.7852375,4.18120828 C47.7852375,1.87557021 45.911162,0 43.6040292,0 Z M14.3355712,26.2818806 L9.5570475,26.2818806 C4.27901851,26.2818806 0,30.5601518 0,35.8389281 C0,37.1582497 1.06994147,38.22819 2.38926187,38.22819 L21.5033569,38.22819 C22.8226784,38.22819 23.8926187,37.1582497 23.8926187,35.8389281 C23.8926187,30.5601518 19.6143476,26.2818806 14.3355712,26.2818806 Z M21.5033569,37.0335591 L2.38926187,37.0335591 C1.73057178,37.0335591 1.1946298,36.4976171 1.1946298,35.8389281 C1.1946298,31.227652 4.94577135,27.4765116 9.55704636,27.4765116 L14.3355701,27.4765116 C18.9468451,27.4765116 22.6979867,31.227652 22.6979867,35.8389281 C22.6979867,36.4959742 22.1604018,37.0335591 21.5033557,37.0335591 L21.5033569,37.0335591 Z M23.1235749,12.7153521 C22.8902485,12.4820258 22.5122233,12.4820258 22.2791203,12.7153521 C22.0460172,12.9486785 22.0457939,13.3267059 22.2791203,13.5598067 L28.252275,19.5329614 C28.3650167,19.6516798 28.5143456,19.7114105 28.6711414,19.7114105 C28.8279371,19.7114105 28.9768171,19.6530743 29.0934438,19.5363975 L38.2281889,10.4007547 L38.2281889,16.1275177 C38.2281889,16.4560407 38.496979,16.7248331 38.8255043,16.7248331 C39.1540297,16.7248331 39.4228198,16.4564896 39.4228198,16.1275177 L39.4228198,8.95973203 C39.4228198,8.6307601 39.1544763,8.36241656 38.8255043,8.36241656 L31.6577187,8.36241656 C31.3291957,8.36241656 31.0604032,8.63120898 31.0604032,8.95973203 C31.0604032,9.28825508 31.3291957,9.5570475 31.6577187,9.5570475 L37.3837343,9.5570475 L28.6711414,18.2703867 L23.1235749,12.7153521 Z" id="Shape"></path>
                </g>
                <g id="question" transform="translate(11.000001, 83.389262)">
                    <path d="M10.7516784,29.8657734 C10.0946312,29.8657734 9.5570475,30.4033583 9.5570475,31.0604044 C9.5570475,31.7174505 10.0919436,32.2550353 10.7516784,32.2550353 C11.4114133,32.2550353 11.9463094,31.7174505 11.9463094,31.0604044 C11.9463094,30.4033583 11.4087257,29.8657734 10.7516784,29.8657734 Z M15.7691281,0 L8.1160237,0 C3.64213098,0 0,3.70186389 0,8.25041991 L0,8.95973203 C0,9.28825508 0.268343537,9.5570475 0.597315469,9.5570475 C0.926287401,9.5570475 1.19463094,9.28825508 1.19463094,8.95973203 L1.19463094,8.25041991 C1.19463094,4.36114984 4.29992446,1.19463094 8.1160237,1.19463094 L15.7765939,1.19463094 C19.5919469,1.19463094 22.6979878,4.36114984 22.6979878,8.25041991 C22.6979878,10.8136512 21.3308822,13.1782725 19.1073755,14.4386085 L11.9933483,18.9662609 C10.8562082,19.6068807 10.154363,20.8239101 10.154363,22.1454715 L10.154363,25.6845652 C10.154363,26.0130882 10.4231554,26.2818806 10.7516784,26.2818806 C11.0802015,26.2818806 11.3489939,26.0147311 11.3489939,25.6845652 L11.3489939,22.1447241 C11.3489939,21.2569629 11.8202755,20.4378939 12.6063427,19.9921495 L19.7203698,15.4644983 C22.2948003,14.0070482 23.8926187,11.2444642 23.8926187,8.25041991 C23.8926187,3.70186389 20.2489953,0 15.7691281,0 Z" id="Shape"></path>
                </g>
                <g id="file-signature" transform="translate(63.000002, 34.000000)">
                    <path d="M42.3496665,10.6322149 L39.5452706,7.82781894 C39.107811,7.39035937 38.5343158,7.17159313 37.9601438,7.17159313 C37.3859719,7.17159313 36.8125518,7.39035937 36.3750171,7.82781894 L20.5625834,23.6387601 C20.4583522,23.7429162 20.3872719,23.8755955 20.3581517,24.0202214 L19.1215608,29.8657734 L18.1658558,29.8657734 L16.3739094,28.073827 C15.9236077,27.6212104 15.1352267,27.6212104 14.6850003,28.073827 L13.3492536,29.4110673 L11.2571558,24.3898842 C10.8838337,23.4939109 9.42339753,23.4939109 9.05007536,24.3898842 L6.76982292,29.8657734 L5.37583808,29.8657734 C5.04582142,29.8657734 4.77852261,30.1345659 4.77852261,30.4630889 C4.77852261,30.791612 5.04582142,31.0604044 5.37583808,31.0604044 L7.16778449,31.0604044 C7.40924992,31.0604044 7.62629926,30.9157056 7.7196298,30.6917123 L10.154363,24.8483226 L12.5891702,30.6930544 C12.7527595,31.0850426 13.2592839,31.1877062 13.5635413,30.8867335 L15.5302022,28.9175342 L17.4968631,30.8841951 C17.6058737,31.0006737 17.7626683,31.0604044 17.9194641,31.0604044 C17.9194641,31.0604044 19.9555623,31.0554462 20.0063359,31.0452404 L26.1527126,29.8162645 C26.2974114,29.787101 26.4300907,29.7162144 26.534322,29.6121313 L42.3482504,13.7982052 C43.2232424,12.9244139 43.2232424,11.5057897 42.3496676,10.6322149 L42.3496665,10.6322149 Z M25.7890949,28.6711425 L20.4326692,29.7500445 L21.5048493,24.3876443 L33.2794292,12.6130622 L37.5636747,16.8973089 L25.7890949,28.6711425 Z M41.5059605,12.9542792 L38.4036542,16.0558404 L34.1194086,11.7715949 L37.2209698,8.67003366 C37.6294595,8.26169431 38.2924049,8.26109733 38.7015645,8.67003366 L41.5059605,11.4744296 C41.9166148,11.8791118 41.9166148,12.5436248 41.5059605,12.9542792 Z M28.073827,32.2550353 C27.7439596,32.2550353 27.4765116,32.5224834 27.4765116,32.8523508 L27.4765116,33.4496662 C27.4765116,35.4290211 25.8719736,37.0335591 23.8926187,37.0335591 L4.77852375,37.0335591 C2.79916889,37.0335591 1.1946298,35.4290211 1.1946298,33.4496662 L1.1946298,4.77852375 C1.1946298,2.79916889 2.79916889,1.19463094 4.77852375,1.19463094 L15.5302022,1.19463094 L15.5302022,10.154363 C15.5302022,11.8037 16.8674425,13.1409403 18.5167795,13.1409403 L28.4695476,13.1409403 C28.5815443,13.1409403 28.6711436,13.0513421 28.6711436,12.9393454 C28.6711436,12.3055955 28.4193004,11.6976755 27.9711634,11.2496889 L17.4266783,0.699382078 C16.9786917,0.251395476 16.3664436,0 15.7317959,0 L4.77329783,0 C2.13390965,0 0,2.13913557 0,4.77852375 L0.000485337047,33.4496662 C0.000485337047,36.0883071 2.13439499,38.22819 4.77378317,38.22819 L23.8926199,38.22819 C26.5320081,38.22819 28.6711436,36.0883071 28.6711436,33.4496662 L28.6711436,32.8523508 C28.6711436,32.5238277 28.4023512,32.2550353 28.0738282,32.2550353 L28.073827,32.2550353 Z M16.7248343,1.6896565 L26.983727,11.9463094 L18.5167807,11.9463094 C17.5312104,11.9463094 16.7248343,11.1399344 16.7248343,10.154363 L16.7248343,1.6896565 Z" id="Shape"></path>
                </g>
                <g id="clapperboard-play" transform="translate(135.000001, 7.389262)">
                    <path d="M15.351008,28.409817 C15.6496657,28.5815443 15.9856557,28.6711425 16.3291114,28.6711425 C16.713111,28.6711425 17.0824753,28.5619827 17.4027863,28.3518773 L25.3620143,23.2045111 C25.9384238,22.8323829 26.2818806,22.1977352 26.2818806,21.4361593 C26.2818806,20.6745835 25.9373779,20.106386 25.3597744,19.7338112 L17.396813,14.6566285 C17.0832226,14.4475679 16.7099005,14.3355712 16.3291114,14.3355712 C15.9856557,14.3355712 15.6421988,14.4251683 15.351008,14.5968968 C14.7238261,14.9552863 14.3355712,15.6272662 14.3355712,16.351511 L14.3355712,26.6477359 C14.3355712,27.3794487 14.7238261,28.0514286 15.351008,28.409817 Z M15.5302022,16.351511 C15.5302022,16.052107 15.6872964,15.7762214 15.9408566,15.6305507 C16.0603201,15.5675344 16.1947152,15.5302022 16.3291114,15.5302022 C16.475976,15.5302022 16.6222436,15.5716188 16.7493973,15.6551901 L24.7160922,20.8047951 C24.9453877,20.9583074 25.0872497,21.2196329 25.0872497,21.4361593 C25.0872497,21.6526857 24.9456862,21.9840479 24.7123599,22.1345707 L16.745665,27.2841768 C16.6203034,27.4317124 16.4709745,27.4765116 16.3291114,27.4765116 C16.196955,27.4765116 16.063157,27.4419501 15.9433949,27.3735495 C15.686998,27.2301198 15.5302022,26.886663 15.5302022,26.5880053 L15.5302022,16.351511 Z M33.4496663,0 L4.77852375,0 C2.13913557,0 0,2.13913557 0,4.77852375 L0,28.6711425 C0,31.3105307 2.13913557,33.4496662 4.77852375,33.4496662 L33.4496663,33.4496662 C36.0890544,33.4496662 38.22819,31.3105307 38.22819,28.6711425 L38.22819,4.77852375 C38.22819,2.13913557 36.0853198,0 33.4496663,0 Z M33.4496663,1.19463094 C33.7395879,1.19463094 34.0176382,1.23852546 34.2874013,1.30386595 L26.0354889,9.5570475 L16.3739105,9.5570475 L24.7363259,1.19463094 L33.4496663,1.19463094 Z M23.0489116,1.19463094 L14.686495,9.5570475 L5.02566284,9.5570475 L13.3880794,1.19463094 L23.0489116,1.19463094 Z M1.19463094,4.77852375 C1.19463094,2.8021561 2.8021561,1.19463094 4.77852375,1.19463094 L11.6991703,1.19463094 L3.33675372,9.5570475 L1.19463094,9.5570475 L1.19463094,4.77852375 Z M37.0335591,28.6711425 C37.0335591,30.6475101 35.4260339,32.2550353 33.4496663,32.2550353 L4.77852375,32.2550353 C2.8021561,32.2550353 1.19463094,30.6475101 1.19463094,28.6711425 L1.19463094,10.7516784 L37.0335591,10.7516784 L37.0335591,28.6711425 Z M37.0335591,9.5570475 L27.7229033,9.5570475 L35.465606,1.81434482 C36.4138452,2.46317894 37.0335591,3.54880044 37.0335591,4.77852375 L37.0335591,9.5570475 Z" id="Shape"></path>
                </g>
                <g id="building-columns" transform="translate(286.000001, 33.000002)">
                    <path d="M18.8677021,0.0529359168 C19.0244979,-0.0176453056 19.2036932,-0.0176453056 19.3604867,0.0529359168 L37.175421,8.10108877 C37.8175356,8.3848127 38.22819,9.02692729 38.22819,9.72877251 L38.22819,10.1543607 C38.22819,11.1473967 37.4292796,11.9463071 36.4362436,11.9463071 L1.79194641,11.9463071 C0.802642661,11.9463071 0,11.1473967 0,10.1543607 L0,9.72877251 C0,9.02692729 0.41252054,8.3848127 1.05426144,8.10108877 L18.8677021,0.0529359168 Z M36.4362436,10.7516762 C36.7647666,10.7516762 37.0335591,10.4828837 37.0335591,10.1543607 L37.0335591,9.72877251 C37.0335591,9.49731459 36.899164,9.28078591 36.6826353,9.18372305 L19.114095,1.25286683 L1.54629978,9.18372305 C1.33201322,9.28078591 1.19463094,9.49731459 1.19463094,9.72877251 L1.19463094,10.1543607 C1.19463094,10.4828837 1.46192975,10.7516762 1.79194641,10.7516762 L16.6576356,10.7516762 C16.2843134,10.2514235 16.1275177,9.63170966 16.1275177,8.89253222 C16.1275177,7.31039269 17.4640106,5.90595487 19.114095,5.90595487 C20.7641794,5.90595487 22.1006723,7.31039269 22.1006723,8.89253222 C22.1006723,9.63170966 21.876679,10.2514235 21.5033569,10.7516762 L36.4362436,10.7516762 Z M19.114095,10.7516762 C20.1071311,10.7516762 20.9060414,9.95276581 20.9060414,8.89253222 C20.9060414,7.9666937 20.1071311,7.10058581 19.114095,7.10058581 C18.1210578,7.10058581 17.3221486,7.9666937 17.3221486,8.89253222 C17.3221486,9.95276581 18.1210578,10.7516762 19.114095,10.7516762 Z M5.37583922,14.335569 C5.70585588,14.335569 5.97315469,14.6043614 5.97315469,14.9328844 L5.97315469,27.4765093 L13.7382558,27.4765093 L13.7382558,14.9328844 C13.7382558,14.6043614 14.0070482,14.335569 14.3355712,14.335569 C14.6640943,14.335569 14.9328867,14.6043614 14.9328867,14.9328844 L14.9328867,27.4765093 L23.2953033,27.4765093 L23.2953033,14.9328844 C23.2953033,14.6043614 23.5640957,14.335569 23.8926187,14.335569 C24.2211418,14.335569 24.4899342,14.6043614 24.4899342,14.9328844 L24.4899342,27.4765093 L32.2550353,27.4765093 L32.2550353,14.9328844 C32.2550353,14.6043614 32.5238277,14.335569 32.8523508,14.335569 C33.1808738,14.335569 33.4496663,14.6043614 33.4496663,14.9328844 L33.4496663,28.0738248 C33.4496663,28.4023478 33.1808738,28.6711402 32.8523508,28.6711402 L5.37583922,28.6711402 C5.04582256,28.6711402 4.77852375,28.4023478 4.77852375,28.0738248 L4.77852375,14.9328844 C4.77852375,14.6043614 5.04582256,14.335569 5.37583922,14.335569 Z M2.38926187,32.8523485 C2.38926187,32.5238255 2.65656068,32.255033 2.98657734,32.255033 L35.2416127,32.255033 C35.5701357,32.255033 35.8389281,32.5238255 35.8389281,32.8523485 C35.8389281,33.1808716 35.5701357,33.449664 35.2416127,33.449664 L2.98657734,33.449664 C2.65656068,33.449664 2.38926187,33.1808716 2.38926187,32.8523485 Z M2.27857769e-05,37.6308723 C2.27857769e-05,37.3023492 0.267448056,37.0335568 0.597315469,37.0335568 L37.6308745,37.0335568 C37.9593976,37.0335568 38.22819,37.3023492 38.22819,37.6308723 C38.22819,37.9593953 37.9593976,38.2281877 37.6308745,38.2281877 L0.597315469,38.2281877 C0.267448056,38.2281877 2.27857769e-05,37.9593953 2.27857769e-05,37.6308723 Z" id="Shape"></path>
                </g>
                <g id="screen-users" transform="translate(356.000000, 1.000000)">
                    <path d="M40.617453,19.114095 C37.989264,19.1290288 35.8538631,21.2569652 35.8538631,23.8926187 C35.8538631,26.5282723 37.989264,28.6562087 40.617453,28.603945 C43.245642,28.6562087 45.381043,26.5282723 45.381043,23.8926187 C45.381043,21.2569652 43.245642,19.1290288 40.617453,19.114095 Z M40.6249176,27.409314 C38.6537793,27.4690447 37.0559586,25.8637593 37.0559586,23.8926188 C37.0559586,21.9267052 38.6545221,20.3206725 40.6196906,20.3102184 C42.5811267,20.3236597 44.1789474,21.9289451 44.1789474,23.8926188 C44.1789474,25.8637593 42.5811267,27.4690447 40.6249176,27.409314 Z M2.98657848,17.9194641 C3.3164459,17.9194641 3.58389395,17.652016 3.58389395,17.3221486 L3.58389395,3.7055962 C3.58389395,2.32056959 4.65607526,1.19463094 5.97315583,1.19463094 L41.812084,1.19463094 C43.1291657,1.19463094 44.2013458,2.32056959 44.2013458,3.7055962 L44.2013458,17.3221486 C44.2013458,17.652016 44.4687916,17.9194641 44.7986613,17.9194641 C45.128531,17.9194641 45.3959768,17.6506716 45.3959768,17.3221486 L45.3959768,3.7055962 C45.3959768,1.66128365 43.7906914,0 41.812084,0 L5.97315583,0 C3.99454834,0 2.38926301,1.66128365 2.38926301,3.7055962 L2.38926301,17.3221486 C2.38926301,17.6506716 2.65656182,17.9194641 2.98657848,17.9194641 Z M19.1290299,23.8926187 C19.1290299,26.5252874 21.2621934,28.6599433 23.8918748,28.66965 C26.5208089,28.6562087 28.6562098,26.5282723 28.6562098,23.8926187 C28.6562098,21.2569652 26.5208089,19.1290288 23.8926199,19.114095 C21.2644309,19.1290288 19.1290299,21.2569652 19.1290299,23.8926187 Z M27.4541143,23.8926188 C27.4541143,25.8607721 25.8533086,27.4675522 23.894862,27.4750191 C21.9289462,27.4690447 20.3311255,25.8637593 20.3311255,23.8926188 C20.3311255,21.9267052 21.9296913,20.3206725 23.8948597,20.3102184 C25.8562936,20.3236597 27.4541143,21.9289451 27.4541143,23.8926188 Z M25.6696325,31.0604044 L22.1230719,31.0604044 C19.1439615,31.0604044 16.7248343,33.5616629 16.7248343,36.6378385 C16.7248343,37.511411 17.4192137,38.22819 18.2778547,38.22819 L29.4999193,38.22819 C30.3660272,38.22819 31.0604055,37.511411 31.0604055,36.6378385 C31.0604055,33.5616629 28.6412783,31.0604044 25.6696325,31.0604044 Z M29.5073862,37.0335591 L18.2778547,37.0335591 C18.0837267,37.0335591 17.9194652,36.8543649 17.9194652,36.6378385 C17.9194652,34.218709 19.8010098,32.2550353 22.1230719,32.2550353 L25.6696325,32.2550353 C27.9842299,32.2550353 29.8657746,34.218709 29.8657746,36.6378385 C29.8657746,36.8543649 29.7015119,37.0335591 29.5073862,37.0335591 Z M42.3944656,31.0604044 L38.847905,31.0604044 C35.8687946,31.0604044 33.4496674,33.5616629 33.4496674,36.6378385 C33.4496674,37.511411 34.1440457,38.22819 35.0026867,38.22819 L46.2247502,38.22819 C47.0908603,38.22819 47.7852386,37.511411 47.7852386,36.6378385 C47.7852386,33.5616629 45.3661092,31.0604044 42.3944656,31.0604044 Z M46.2322193,37.0335591 L35.0101559,37.0335591 C34.808561,37.0335591 34.6442983,36.8543649 34.6442983,36.6378385 C34.6442983,34.218709 36.525843,32.2550353 38.847905,32.2550353 L42.3944656,32.2550353 C44.7090631,32.2550353 46.5906077,34.218709 46.5906077,36.6378385 C46.5906077,36.8543649 46.426345,37.0335591 46.2322193,37.0335591 Z M8.94479937,31.0604044 L5.39823878,31.0604044 C2.4206208,31.0604044 0,33.5616629 0,36.6378385 C0,37.511411 0.697365536,38.22819 1.55526029,38.22819 L12.7773249,38.22819 C13.6411918,38.22819 14.3355712,37.511411 14.3355712,36.6378385 C14.3355712,33.5616629 11.9164441,31.0604044 8.94479937,31.0604044 Z M12.7825508,37.0335591 L1.55526029,37.0335591 C1.35665262,37.0335591 1.19463094,36.8543649 1.19463094,36.6378385 C1.19463094,34.218709 3.07841428,32.2550353 5.39450533,32.2550353 L8.94106592,32.2550353 C11.2593968,32.2550353 13.1409403,34.218709 13.1409403,36.6378385 C13.1409403,36.8543649 12.9766788,37.0335591 12.7825508,37.0335591 Z M2.40494191,23.8926187 C2.40494191,26.5252874 4.53810532,28.6599433 7.16778676,28.66965 C9.7959746,28.6562087 11.9313779,26.5282723 11.9313779,23.8926187 C11.9313779,21.2569652 9.7959746,19.1290288 7.16778676,19.114095 C4.53810532,19.1290288 2.40494191,21.2569652 2.40494191,23.8926187 Z M10.72928,23.8926188 C10.72928,25.8607721 9.12847438,27.4675522 7.17002661,27.4750191 C5.20485817,27.4690447 3.60405253,25.8637593 3.60405253,23.8926188 C3.60405253,21.9267052 5.20261833,20.3206725 7.16778676,20.3102184 C9.1314616,20.3236597 10.72928,21.9289451 10.72928,23.8926188 Z" id="Shape"></path>
                </g>
                <g id="image" transform="translate(339.000001, 81.389262)">
                    <path d="M34.6442972,0 L3.58389281,0 C1.60453909,0 0,1.60453795 0,3.58389281 L0,29.8657734 C0,31.8443809 1.60453909,33.4496663 3.58389281,33.4496663 L34.6442972,33.4496663 C36.6236521,33.4496663 38.22819,31.8451283 38.22819,29.8657734 L38.22819,3.58389281 C38.22819,1.60453795 36.6229047,0 34.6442972,0 Z M3.58389281,32.2550353 C2.26681225,32.2550353 1.19463094,31.1828551 1.19463094,29.8657734 L1.19463094,26.0347415 L9.13146046,18.0979132 C9.36478681,17.8645868 9.7428131,17.8645868 9.97591502,18.0979132 L15.8766451,23.9986432 L7.62323799,32.2550353 L3.58389167,32.2550353 L3.58389281,32.2550353 Z M37.0335591,29.8657734 C37.0335591,31.1828551 35.9613778,32.2550353 34.644296,32.2550353 L9.31065464,32.2550353 L28.2530212,13.3126687 C28.4863476,13.0793424 28.8643727,13.0793424 29.0974758,13.3126687 L37.0335591,21.2569652 L37.0335591,29.8657734 L37.0335591,29.8657734 Z M37.0335591,19.5695485 L29.938198,12.4741875 C29.238219,11.7765234 28.1044397,11.7765234 27.404087,12.4741875 L16.7248331,23.1534413 L10.7591453,17.2474842 C10.0591663,16.5498201 8.92538703,16.5498201 8.22503428,17.2474842 L1.19463094,24.3480723 L1.19463094,3.58389281 C1.19463094,2.26681111 2.26681225,1.19463094 3.58389281,1.19463094 L34.6442972,1.19463094 C35.9613789,1.19463094 37.0335591,2.26681111 37.0335591,3.58389281 L37.0335591,19.5695485 Z M9.5570475,5.37583922 C7.24767598,5.37583922 5.37583808,7.24991696 5.37583808,9.5570475 C5.37583808,11.864178 7.24767598,13.7382558 9.5570475,13.7382558 C11.8664179,13.7382558 13.7382558,11.864178 13.7382558,9.5570475 C13.7382558,7.24991696 11.864178,5.37583922 9.5570475,5.37583922 Z M9.5570475,12.5436248 C7.90696306,12.5436248 6.57046902,11.2071319 6.57046902,9.5570475 C6.57046902,7.90995028 7.91069537,6.57047016 9.55704636,6.57047016 C11.2033973,6.57047016 12.5436237,7.90696306 12.5436237,9.5570475 C12.5436237,11.2071319 11.2071308,12.5436248 9.55704636,12.5436248 L9.5570475,12.5436248 Z" id="Shape"></path>
                </g>
            </g>
        </g>
    </g>
</svg>