<?xml version="1.0" encoding="UTF-8"?>
<svg width="500px" height="125px" viewBox="0 0 500 125" version="1.1" xmlns="http://www.w3.org/2000/svg" xmlns:xlink="http://www.w3.org/1999/xlink">
    <title>03</title>
    <defs>
        <rect id="path-1" x="0" y="0" width="500" height="125"></rect>
    </defs>
    <g id="Page-1" stroke="none" stroke-width="1" fill="none" fill-rule="evenodd">
        <g id="03">
            <g id="Group-60">
                <mask id="mask-2" fill="white">
                    <use xlink:href="#path-1"></use>
                </mask>
                <g id="Mask"></g>
            </g>
            <g id="Group-41" transform="translate(21.000000, 4.862474)" fill="#B74333" fill-rule="nonzero">
                <g id="Group-13">
                    <g id="" transform="translate(5.000002, 71.000381)">
                        <path d="M4.24691098,0.00556941351 C3.92436008,-0.00609234709 3.66303456,0.173557553 3.59583589,0.465197268 L0.0696514717,15.9405951 C-0.114687742,16.7395043 0.0719881532,17.5906795 0.569014304,18.1506628 C1.02401892,18.7222941 1.68823343,19.0488758 2.38858619,19.0488758 C3.70716036,19.0488758 4.77635559,17.9012839 4.77635559,16.4923652 L4.77635559,0.598175062 C4.7762804,0.294887258 4.54780741,0.0382351032 4.24690984,0.00556941351 L4.24691098,0.00556941351 Z M3.58164946,16.5603101 C3.58164946,17.3114342 3.04496125,17.922936 2.38701852,17.922936 C2.04863948,17.922936 1.73363068,17.7642741 1.50523175,17.542147 C1.23195965,17.1277591 1.12892236,16.6573741 1.23419949,16.2093875 L3.58164946,5.97289322 L3.58164946,16.5603101 Z M42.9395127,15.9405951 L39.4116182,0.462658933 C39.3439445,0.171019218 39.0942944,-0.00630881197 38.7605465,0.00302424223 C38.4595009,0.0356899319 38.2308775,0.292348922 38.2308775,0.595634448 L38.2308775,16.5514248 C38.2308775,17.9603423 39.3015675,19.1079354 40.619392,19.1079354 C41.319444,19.1079354 41.9827653,18.7817263 42.4382165,18.2097224 C42.9320481,17.5906795 43.1187092,16.7395043 42.9395127,15.9405951 Z M41.49849,17.471216 C41.2697938,17.7605407 40.954785,17.8520051 40.6167033,17.8520051 C39.9586865,17.8520051 39.4220723,17.2407276 39.4220723,16.4893791 L39.4220723,5.90644078 L41.7717599,16.2101338 C41.8792814,16.6573741 41.7747494,17.1277591 41.49849,17.471216 Z M37.6383402,27.0730626 C36.9312679,24.49266 35.8628201,20.595923 35.8628201,15.850998 C35.8628201,6.86139952 22.2738931,0.335728484 21.6915115,0.0594691687 C21.5328496,-0.0198230562 21.3414855,-0.0198230562 21.1828236,0.0594691687 C20.6671131,0.332219475 7.07968091,6.86065443 7.07968091,15.850998 C7.07968091,20.5899508 6.01347289,24.4822059 5.30640061,27.0581311 C5.12907258,27.7067419 4.97272456,28.2803875 4.85602378,28.7776529 C4.54564391,30.1007068 5.18036678,31.458853 6.36125904,32.0046498 L19.4574002,38.1711851 C19.6463764,38.2551803 19.8564065,38.178652 20.0314195,38.1338529 C20.2041175,38.0241713 20.3090961,37.9023927 20.3090961,37.629868 L20.3091941,20.3077194 C20.3091941,20.1117252 20.2134004,19.9281995 20.0524235,19.8185931 L13.8577181,15.5299407 L29.1489955,15.5299407 L22.9555798,19.818666 C22.7946028,19.9283476 22.6989573,20.1118733 22.6989573,20.3077923 L22.6989208,37.6299409 C22.6989208,37.8352681 22.8038994,38.0242442 22.9765974,38.1339258 C23.0713088,38.1980632 23.1833054,38.2279285 23.2281045,38.2279285 C23.314417,38.2279285 23.4008025,38.2092624 23.4824872,38.1719302 L36.5860953,32.0053949 C37.7717669,31.4524297 38.4011875,30.0924925 38.0838637,28.7761582 C38.0340608,28.2826251 37.877265,27.7151772 37.6383402,27.0730626 Z M36.1450515,30.9257478 L23.8926175,36.6935753 L23.8926175,20.622056 L31.40386,15.4239185 C31.6185202,15.2769047 31.7118508,15.0062461 31.6325563,14.7566427 C31.5555768,14.5069653 31.3243422,14.3361323 31.0630167,14.3361323 L11.8791106,14.3361323 C11.6177851,14.3361323 11.3858031,14.5069642 11.3088236,14.7566427 C11.2967278,14.9400922 11.3863249,15.2760821 11.6028513,15.425411 L19.1140938,20.6235485 L19.1140938,36.6913332 L6.86464698,30.9257478 C6.19490692,30.615442 5.83801101,29.8266873 6.01795257,29.0546573 C6.13226426,28.5716535 6.28629725,28.0115951 6.45899635,27.3791872 C7.18197196,24.7360645 8.27281938,20.7489842 8.27281938,15.850998 C8.27281938,8.25015845 19.6367459,2.20233932 21.5033568,1.2690339 C23.3654879,2.20681901 34.7338953,8.25463813 34.7338953,15.850998 C34.7338953,20.7601834 35.8284762,24.7509983 36.5519747,27.394121 C36.7246727,28.0194357 36.8763166,28.5745656 36.9907035,29.0576445 C37.167954,29.813246 36.7423681,30.6121563 36.1450527,30.9257478 L36.1450515,30.9257478 Z" id="Shape"></path>
                    </g>
                    <g id="-copy-2" transform="translate(415.000002, 3.000381)">
                        <path d="M4.24691098,0.00556941351 C3.92436008,-0.00609234709 3.66303456,0.173557553 3.59583589,0.465197268 L0.0696514717,15.9405951 C-0.114687742,16.7395043 0.0719881532,17.5906795 0.569014304,18.1506628 C1.02401892,18.7222941 1.68823343,19.0488758 2.38858619,19.0488758 C3.70716036,19.0488758 4.77635559,17.9012839 4.77635559,16.4923652 L4.77635559,0.598175062 C4.7762804,0.294887258 4.54780741,0.0382351032 4.24690984,0.00556941351 L4.24691098,0.00556941351 Z M3.58164946,16.5603101 C3.58164946,17.3114342 3.04496125,17.922936 2.38701852,17.922936 C2.04863948,17.922936 1.73363068,17.7642741 1.50523175,17.542147 C1.23195965,17.1277591 1.12892236,16.6573741 1.23419949,16.2093875 L3.58164946,5.97289322 L3.58164946,16.5603101 Z M42.9395127,15.9405951 L39.4116182,0.462658933 C39.3439445,0.171019218 39.0942944,-0.00630881197 38.7605465,0.00302424223 C38.4595009,0.0356899319 38.2308775,0.292348922 38.2308775,0.595634448 L38.2308775,16.5514248 C38.2308775,17.9603423 39.3015675,19.1079354 40.619392,19.1079354 C41.319444,19.1079354 41.9827653,18.7817263 42.4382165,18.2097224 C42.9320481,17.5906795 43.1187092,16.7395043 42.9395127,15.9405951 Z M41.49849,17.471216 C41.2697938,17.7605407 40.954785,17.8520051 40.6167033,17.8520051 C39.9586865,17.8520051 39.4220723,17.2407276 39.4220723,16.4893791 L39.4220723,5.90644078 L41.7717599,16.2101338 C41.8792814,16.6573741 41.7747494,17.1277591 41.49849,17.471216 Z M37.6383402,27.0730626 C36.9312679,24.49266 35.8628201,20.595923 35.8628201,15.850998 C35.8628201,6.86139952 22.2738931,0.335728484 21.6915115,0.0594691687 C21.5328496,-0.0198230562 21.3414855,-0.0198230562 21.1828236,0.0594691687 C20.6671131,0.332219475 7.07968091,6.86065443 7.07968091,15.850998 C7.07968091,20.5899508 6.01347289,24.4822059 5.30640061,27.0581311 C5.12907258,27.7067419 4.97272456,28.2803875 4.85602378,28.7776529 C4.54564391,30.1007068 5.18036678,31.458853 6.36125904,32.0046498 L19.4574002,38.1711851 C19.6463764,38.2551803 19.8564065,38.178652 20.0314195,38.1338529 C20.2041175,38.0241713 20.3090961,37.9023927 20.3090961,37.629868 L20.3091941,20.3077194 C20.3091941,20.1117252 20.2134004,19.9281995 20.0524235,19.8185931 L13.8577181,15.5299407 L29.1489955,15.5299407 L22.9555798,19.818666 C22.7946028,19.9283476 22.6989573,20.1118733 22.6989573,20.3077923 L22.6989208,37.6299409 C22.6989208,37.8352681 22.8038994,38.0242442 22.9765974,38.1339258 C23.0713088,38.1980632 23.1833054,38.2279285 23.2281045,38.2279285 C23.314417,38.2279285 23.4008025,38.2092624 23.4824872,38.1719302 L36.5860953,32.0053949 C37.7717669,31.4524297 38.4011875,30.0924925 38.0838637,28.7761582 C38.0340608,28.2826251 37.877265,27.7151772 37.6383402,27.0730626 Z M36.1450515,30.9257478 L23.8926175,36.6935753 L23.8926175,20.622056 L31.40386,15.4239185 C31.6185202,15.2769047 31.7118508,15.0062461 31.6325563,14.7566427 C31.5555768,14.5069653 31.3243422,14.3361323 31.0630167,14.3361323 L11.8791106,14.3361323 C11.6177851,14.3361323 11.3858031,14.5069642 11.3088236,14.7566427 C11.2967278,14.9400922 11.3863249,15.2760821 11.6028513,15.425411 L19.1140938,20.6235485 L19.1140938,36.6913332 L6.86464698,30.9257478 C6.19490692,30.615442 5.83801101,29.8266873 6.01795257,29.0546573 C6.13226426,28.5716535 6.28629725,28.0115951 6.45899635,27.3791872 C7.18197196,24.7360645 8.27281938,20.7489842 8.27281938,15.850998 C8.27281938,8.25015845 19.6367459,2.20233932 21.5033568,1.2690339 C23.3654879,2.20681901 34.7338953,8.25463813 34.7338953,15.850998 C34.7338953,20.7601834 35.8284762,24.7509983 36.5519747,27.394121 C36.7246727,28.0194357 36.8763166,28.5745656 36.9907035,29.0576445 C37.167954,29.813246 36.7423681,30.6121563 36.1450527,30.9257478 L36.1450515,30.9257478 Z" id="Shape"></path>
                    </g>
                    <g id="" transform="translate(95.999999, 82.778644)">
                        <path d="M12.543626,12.8945475 L12.110572,13.3052018 C11.9537774,13.2081378 11.9612432,13.0812085 11.9463105,12.9468123 C11.3191297,5.65209853 17.1056233,0 23.8926199,0 C30.6796164,0 36.4661101,5.65209853 35.7717317,12.9468123 C35.8239955,13.0812085 35.7642648,13.2081378 35.6746666,13.3052018 L35.2416138,12.8945475 C35.6746666,13.3052018 35.6746666,13.3052018 35.6746666,13.3052018 L35.667202,13.3052018 L35.667202,13.3126687 L35.6522682,13.3201345 L35.614936,13.3574667 C35.5850706,13.3873332 35.5402715,13.4321311 35.4880055,13.4769303 C35.3760089,13.58146 35.2042816,13.7158562 34.9802883,13.8801177 C34.5248348,14.2086419 33.845388,14.5670314 32.9046179,15.0523503 C31.0230733,15.8960575 28.1036935,16.7248331 23.8926199,16.7248331 C19.6815463,16.7248331 16.7621665,15.8960575 14.880623,15.0523503 C13.9398507,14.5670314 13.260405,14.2086419 12.8049515,13.8801177 C12.5809582,13.7158562 12.4092298,13.58146 12.2972331,13.4769303 C12.1777707,13.4321311 12.2001691,13.3873332 12.1031063,13.3574667 L12.1329716,13.3201345 L12.1180389,13.3126687 L12.1180389,13.3052018 L12.110572,13.3052018 C12.110572,13.3052018 12.110572,13.3052018 12.4764284,12.8945475 L12.543626,12.8945475 Z M34.6666967,12.6108224 C35.0250874,6.17474957 29.9479059,1.19463094 23.8926199,1.19463094 C17.8373339,1.19463094 12.6929549,6.17474957 13.1185419,12.6108224 C13.208139,12.6854868 13.3350694,12.7900177 13.5067967,12.8497495 C13.8950527,13.1932052 14.4998339,13.58146 15.3659418,13.9622491 C17.0906895,14.7387587 19.8458067,15.5302022 23.8926199,15.5302022 C27.9394331,15.5302022 30.6945502,14.7387587 32.4192991,13.9622491 C33.2854047,13.5739943 33.8901871,13.1932052 34.2784431,12.8497495 C34.4501703,12.7900177 34.5771008,12.6854868 34.6666967,12.6108224 Z M7.16778676,18.5167795 C7.16778676,17.1952181 8.23548839,16.1275177 9.55704864,16.1275177 C10.8786089,16.1275177 11.9463105,17.1952181 11.9463105,18.5167795 C11.9463105,19.8383409 10.8786089,20.9060414 9.55704864,20.9060414 C8.23548839,20.9060414 7.16778676,19.8383409 7.16778676,18.5167795 Z M9.55704864,17.3221486 C8.9000014,17.3221486 8.3624177,17.8597334 8.3624177,18.5167795 C8.3624177,19.1738256 8.9000014,19.7114105 9.55704864,19.7114105 C10.2140959,19.7114105 10.7516796,19.1738256 10.7516796,18.5167795 C10.7516796,17.8597334 10.2140959,17.3221486 9.55704864,17.3221486 Z M21.503358,22.1006723 C21.503358,20.779111 22.5710585,19.7114105 23.8926199,19.7114105 C25.2141813,19.7114105 26.2818818,20.779111 26.2818818,22.1006723 C26.2818818,23.4222337 25.2141813,24.4899342 23.8926199,24.4899342 C22.5710585,24.4899342 21.503358,23.4222337 21.503358,22.1006723 Z M23.8926199,20.9060414 C23.2355738,20.9060414 22.697989,21.4436262 22.697989,22.1006723 C22.697989,22.7577184 23.2355738,23.2953033 23.8926199,23.2953033 C24.549666,23.2953033 25.0872508,22.7577184 25.0872508,22.1006723 C25.0872508,21.4436262 24.549666,20.9060414 23.8926199,20.9060414 Z M40.617453,18.5167795 C40.617453,19.8383409 39.5497525,20.9060414 38.2281911,20.9060414 C36.9066298,20.9060414 35.8389293,19.8383409 35.8389293,18.5167795 C35.8389293,17.1952181 36.9066298,16.1275177 38.2281911,16.1275177 C39.5497525,16.1275177 40.617453,17.1952181 40.617453,18.5167795 Z M38.2281911,19.7114105 C38.8852372,19.7114105 39.4228221,19.1738256 39.4228221,18.5167795 C39.4228221,17.8597334 38.8852372,17.3221486 38.2281911,17.3221486 C37.571145,17.3221486 37.0335602,17.8597334 37.0335602,18.5167795 C37.0335602,19.1738256 37.571145,19.7114105 38.2281911,19.7114105 Z M3.42485834,13.8427855 C1.94426249,15.1419462 1.19463094,16.5232382 1.19463094,17.8522665 C1.19463094,19.1215619 1.75162811,20.3161928 2.85666196,21.4585578 C3.96468188,22.600925 5.59610021,23.6536917 7.66057248,24.5496649 C11.7820501,26.3490782 17.5237446,27.4765116 23.892621,27.4765116 C30.2614963,27.4765116 36.0031931,26.3490782 40.1246707,24.5496649 C42.1854073,23.6536917 43.8205602,22.600925 44.9255929,21.4585578 C46.0306256,20.3161928 46.5906088,19.1215619 46.5906088,17.8522665 C46.5906088,16.5232382 45.7767647,15.1419462 44.3581405,13.8427855 C42.8797856,12.5510917 40.714517,11.393793 38.0340643,10.482886 C37.720475,10.3708894 37.5562124,10.0348994 37.6607421,9.72130903 C37.7727388,9.40771863 38.1087287,9.24345597 38.422318,9.347988 C41.1923712,10.2962249 43.5069686,11.5132554 45.1495862,12.9468123 C46.7847345,14.3729035 47.7852398,16.0603201 47.7852398,17.8522665 C47.7852398,19.5172825 47.0385954,20.9956396 45.7842339,22.2873334 C44.5373369,23.5790272 42.7528551,24.7064606 40.6025204,25.6472329 C36.2943839,27.5213107 30.3212292,28.6711425 23.892621,28.6711425 C17.3968153,28.6711425 11.4908582,27.5213107 7.18197433,25.6472329 C5.0286512,24.7064606 3.24939761,23.5790272 1.99951458,22.2873334 C0.679446801,20.9956396 0,19.5172825 0,17.8522665 C0,16.0603201 1.00349017,14.3729035 2.63864195,12.9468123 C4.27453996,11.5132554 6.59212462,10.2962249 9.3629218,9.347988 C9.67651333,9.24345597 10.0125033,9.40771863 10.1244999,9.72130903 C10.1618321,10.0348994 10.0647682,10.3708894 9.75117776,10.482886 C7.06773784,11.393793 4.90545534,12.5510917 3.42485948,13.8427855 L3.42485834,13.8427855 Z" id="Shape"></path>
                    </g>
                    <g id="" transform="translate(186.143020, 20.002686)">
                        <path d="M37.6268679,37.0309927 L19.7746014,37.0309927 C13.9836281,37.0309927 9.05278827,32.943115 8.29867817,27.5187443 C7.94775556,25.4430717 8.28374551,23.3897998 9.23945049,21.4111923 C9.31642996,21.2478274 9.31642996,21.0565362 9.23945049,20.8931713 C9.15731916,20.7242809 9.00799029,20.6048173 8.82879611,20.5674851 C3.77028073,19.4169059 0.473845304,14.4823338 1.33248629,9.33048786 C2.02163869,5.16794569 5.57491995,1.77743348 9.77703419,1.26672903 C12.6374285,0.914388007 15.3813464,1.77071396 17.51227,3.66047059 C19.6178056,5.52260175 20.8273704,8.20305446 20.8273704,11.0104376 C20.8273704,11.3394095 21.0957139,11.6077531 21.4246858,11.6077531 C21.7536578,11.6077531 22.0220013,11.3394095 22.0220013,11.0104376 C22.0220013,7.86034498 20.6690821,4.85510153 18.3096856,2.7674846 C15.9517826,0.676431582 12.7934768,-0.301224074 9.63517222,0.0814311484 C4.9148855,0.653062489 0.927057824,4.46087341 0.150025236,9.12889298 C-0.764838515,14.6689949 2.59058131,19.9776365 7.86562423,21.5455897 C7.0375948,23.5383836 6.7643227,25.6006149 7.05103499,27.6822596 C7.88802265,33.6934916 13.3385263,38.2256237 19.7223365,38.2256237 L37.6268668,38.2256237 C37.9558387,38.2256237 38.2241822,37.9572801 38.2241822,37.6283082 C38.2241822,37.2993363 37.9553898,37.0309927 37.6268668,37.0309927 L37.6268679,37.0309927 Z M19.1100872,34.0444154 C19.4390592,34.0444154 19.7074027,33.7760718 19.7074027,33.4470999 C19.7074027,28.5610592 21.0117905,21.5306559 22.9530657,15.9457571 C25.0160444,10.0174016 27.5023691,6.41633511 29.8617657,5.88920439 L29.8617657,7.53854145 C29.8617657,7.86751339 30.1301092,8.13585692 30.4590812,8.13585692 C34.1056918,8.13585692 36.3672781,11.1015283 36.9922191,14.0388269 C37.0995857,14.5498298 36.9712152,15.0774094 36.6421931,15.4858239 C36.3127723,15.8934911 35.8274535,16.1249513 35.3048024,16.1249513 L31.6537121,16.1249513 C31.325189,16.1249513 31.0563966,16.3937437 31.0563966,16.7222668 L31.0563966,23.9482906 C31.0563966,24.2073011 31.2220766,24.4359244 31.469366,24.5152918 C33.0328395,25.0262948 34.7083095,26.6969867 34.7083095,28.3702169 C34.7083095,29.8306531 34.2836191,31.823447 33.0888378,33.0277847 C32.8578265,33.261111 32.8578265,33.6391362 33.0935043,33.8722392 C33.2067314,33.9846847 33.3635272,34.0444154 33.512856,34.0444154 C33.666815,34.0444154 33.8208468,33.9860792 33.9375465,33.8670873 C35.3867834,32.4066512 35.9019675,30.0681606 35.9019675,28.3695447 C35.9019675,26.232649 34.1100211,24.3122797 32.2501298,23.5327828 L32.2501298,17.3195823 L35.3046521,17.3195823 C36.1864388,17.3195823 37.0129747,16.9252789 37.5699707,16.236948 C38.1269667,15.548617 38.3420029,14.6570483 38.1579531,13.7916878 C37.3356759,9.91286953 34.5208259,7.24212356 31.0563966,6.96437178 L31.0563966,5.23066354 C31.0563966,4.90161641 30.7880531,4.62662854 30.4590812,4.62662854 C23.5571007,4.62662854 18.5127718,23.5839278 18.5127718,33.3799024 C18.5127718,33.775623 18.7815642,34.0444154 19.1100872,34.0444154 Z M32.2435607,13.138374 C32.9032955,13.138374 33.3709941,12.6034779 33.3709941,11.943743 C33.3709941,11.2838578 32.8373671,10.7491121 32.1778556,10.7491121 C31.5183441,10.7491121 30.9891991,11.2866969 30.9891991,11.943743 C30.9891991,12.6007891 31.5865146,13.138374 32.2435607,13.138374 Z" id="Shape"></path>
                    </g>
                    <g id="-copy-3" transform="translate(406.143020, 52.002686)">
                        <path d="M37.6268679,37.0309927 L19.7746014,37.0309927 C13.9836281,37.0309927 9.05278827,32.943115 8.29867817,27.5187443 C7.94775556,25.4430717 8.28374551,23.3897998 9.23945049,21.4111923 C9.31642996,21.2478274 9.31642996,21.0565362 9.23945049,20.8931713 C9.15731916,20.7242809 9.00799029,20.6048173 8.82879611,20.5674851 C3.77028073,19.4169059 0.473845304,14.4823338 1.33248629,9.33048786 C2.02163869,5.16794569 5.57491995,1.77743348 9.77703419,1.26672903 C12.6374285,0.914388007 15.3813464,1.77071396 17.51227,3.66047059 C19.6178056,5.52260175 20.8273704,8.20305446 20.8273704,11.0104376 C20.8273704,11.3394095 21.0957139,11.6077531 21.4246858,11.6077531 C21.7536578,11.6077531 22.0220013,11.3394095 22.0220013,11.0104376 C22.0220013,7.86034498 20.6690821,4.85510153 18.3096856,2.7674846 C15.9517826,0.676431582 12.7934768,-0.301224074 9.63517222,0.0814311484 C4.9148855,0.653062489 0.927057824,4.46087341 0.150025236,9.12889298 C-0.764838515,14.6689949 2.59058131,19.9776365 7.86562423,21.5455897 C7.0375948,23.5383836 6.7643227,25.6006149 7.05103499,27.6822596 C7.88802265,33.6934916 13.3385263,38.2256237 19.7223365,38.2256237 L37.6268668,38.2256237 C37.9558387,38.2256237 38.2241822,37.9572801 38.2241822,37.6283082 C38.2241822,37.2993363 37.9553898,37.0309927 37.6268668,37.0309927 L37.6268679,37.0309927 Z M19.1100872,34.0444154 C19.4390592,34.0444154 19.7074027,33.7760718 19.7074027,33.4470999 C19.7074027,28.5610592 21.0117905,21.5306559 22.9530657,15.9457571 C25.0160444,10.0174016 27.5023691,6.41633511 29.8617657,5.88920439 L29.8617657,7.53854145 C29.8617657,7.86751339 30.1301092,8.13585692 30.4590812,8.13585692 C34.1056918,8.13585692 36.3672781,11.1015283 36.9922191,14.0388269 C37.0995857,14.5498298 36.9712152,15.0774094 36.6421931,15.4858239 C36.3127723,15.8934911 35.8274535,16.1249513 35.3048024,16.1249513 L31.6537121,16.1249513 C31.325189,16.1249513 31.0563966,16.3937437 31.0563966,16.7222668 L31.0563966,23.9482906 C31.0563966,24.2073011 31.2220766,24.4359244 31.469366,24.5152918 C33.0328395,25.0262948 34.7083095,26.6969867 34.7083095,28.3702169 C34.7083095,29.8306531 34.2836191,31.823447 33.0888378,33.0277847 C32.8578265,33.261111 32.8578265,33.6391362 33.0935043,33.8722392 C33.2067314,33.9846847 33.3635272,34.0444154 33.512856,34.0444154 C33.666815,34.0444154 33.8208468,33.9860792 33.9375465,33.8670873 C35.3867834,32.4066512 35.9019675,30.0681606 35.9019675,28.3695447 C35.9019675,26.232649 34.1100211,24.3122797 32.2501298,23.5327828 L32.2501298,17.3195823 L35.3046521,17.3195823 C36.1864388,17.3195823 37.0129747,16.9252789 37.5699707,16.236948 C38.1269667,15.548617 38.3420029,14.6570483 38.1579531,13.7916878 C37.3356759,9.91286953 34.5208259,7.24212356 31.0563966,6.96437178 L31.0563966,5.23066354 C31.0563966,4.90161641 30.7880531,4.62662854 30.4590812,4.62662854 C23.5571007,4.62662854 18.5127718,23.5839278 18.5127718,33.3799024 C18.5127718,33.775623 18.7815642,34.0444154 19.1100872,34.0444154 Z M32.2435607,13.138374 C32.9032955,13.138374 33.3709941,12.6034779 33.3709941,11.943743 C33.3709941,11.2838578 32.8373671,10.7491121 32.1778556,10.7491121 C31.5183441,10.7491121 30.9891991,11.2866969 30.9891991,11.943743 C30.9891991,12.6007891 31.5865146,13.138374 32.2435607,13.138374 Z" id="Shape"></path>
                    </g>
                    <g id="" transform="translate(252.139013, 28.000120)">
                        <path d="M25.0872497,4.18120828 C25.0872497,1.8718379 26.9613274,0 29.268458,0 C31.5755885,0 33.4496663,1.8718379 33.4496663,4.18120828 C33.4496663,6.49057867 31.5755885,8.36241656 29.268458,8.36241656 C26.9613274,8.36241656 25.0872497,6.49057867 25.0872497,4.18120828 Z M29.268458,7.16778563 C30.9185424,7.16778563 32.2550353,5.83054535 32.2550353,4.18120828 C32.2550353,2.53187122 30.9185424,1.19463094 29.268458,1.19463094 C27.6183735,1.19463094 26.2818806,2.53187122 26.2818806,4.18120828 C26.2818806,5.83054535 27.6183735,7.16778563 29.268458,7.16778563 Z M25.0648513,11.2892633 C24.3928714,10.7367446 23.4222337,10.7442115 22.7651853,11.3116617 L18.3450511,15.0971482 C17.4416121,15.873659 17.538675,17.3072159 18.5391791,17.9642632 L26.0056213,22.7950507 C26.1773509,22.9070473 26.2818806,23.0937084 26.2818806,23.2953033 L26.2818806,31.0604044 C26.2818806,31.3889274 26.0130882,31.6577198 25.6845652,31.6577198 C25.3560421,31.6577198 25.0872497,31.3889274 25.0872497,31.0604044 L25.0872497,23.6238263 L17.8895987,18.8975686 C16.2171147,17.8821318 16.0528532,15.4854031 17.5685415,14.1862424 L21.9812088,10.4082216 C23.0862438,9.46744927 24.6989937,9.44505085 25.8189602,10.3634225 L30.6796153,14.3355712 L36.4362436,14.3355712 C36.7647666,14.3355712 37.0335591,14.6043637 37.0335591,14.9328867 C37.0335591,15.2614098 36.7647666,15.5302022 36.4362436,15.5302022 L30.4630889,15.5302022 C30.3286938,15.5302022 30.1942965,15.4854031 30.0822998,15.395806 L25.0648513,11.2892633 Z M42.4093983,28.6711425 C42.4093983,30.978273 40.5353228,32.8523508 38.22819,32.8523508 C35.9210595,32.8523508 34.0469817,30.978273 34.0469817,28.6711425 C34.0469817,26.364012 35.9210595,24.4899342 38.22819,24.4899342 C40.5353228,24.4899342 42.4093983,26.364012 42.4093983,28.6711425 Z M38.22819,31.6577198 C39.8782722,31.6577198 41.2147673,30.3212269 41.2147673,28.6711425 C41.2147673,27.0210581 39.8782722,25.6845652 38.22819,25.6845652 C36.5781056,25.6845652 35.2416127,27.0210581 35.2416127,28.6711425 C35.2416127,30.3212269 36.5781056,31.6577198 38.22819,31.6577198 Z M38.6761766,19.114095 C39.7065449,19.114095 40.5801197,19.7636765 40.9161096,20.6745812 C41.2819672,20.7940448 41.6403555,20.9433736 41.9838101,21.1151009 C42.8648495,20.7119134 43.9400192,20.8687092 44.6717297,21.5929551 L45.3063774,22.2276028 C46.0306233,22.9593133 46.1874168,24.0344807 45.7842316,24.9155224 C45.9559589,25.258977 46.1052877,25.6173676 46.224749,25.9160254 C47.135656,26.3192128 47.7852375,27.1927876 47.7852375,28.2231559 L47.7852375,29.1191291 C47.7852375,30.1494974 47.135656,31.0230722 46.224749,31.3590621 C46.1052877,31.7249174 45.9559589,32.083308 45.7842316,32.4267626 C46.1874168,33.3078043 46.0306233,34.3829717 45.3063774,35.1146822 L44.6717297,35.7493299 C43.9400192,36.4735758 42.8648495,36.6303716 41.9838101,36.2271841 C41.6403555,36.3989114 41.2819672,36.5482402 40.9161096,36.6677038 C40.5801197,37.5786085 39.7065449,38.22819 38.6761766,38.22819 L37.7802034,38.22819 C36.7498351,38.22819 35.8762603,37.5786085 35.4730729,36.6677038 C35.1744151,36.5482402 34.8160245,36.3989114 34.4725699,36.2271841 C33.5915282,36.6303716 32.5163608,36.4735758 31.7846503,35.7493299 L31.1500026,35.1146822 C30.4257567,34.3829717 30.2689609,33.3078043 30.6721484,32.4267626 C30.5004211,32.083308 30.3510923,31.7249174 30.2316287,31.3590621 C29.320724,31.0230722 28.6711425,30.1494974 28.6711425,29.1191291 L28.6711425,28.2231559 C28.6711425,27.1927876 29.320724,26.3192128 30.2316287,25.9160254 C30.3510923,25.6173676 30.5004211,25.258977 30.6721484,24.9155224 C30.2689609,24.0344807 30.4257567,22.9593133 31.1500026,22.2276028 L31.7846503,21.5929551 C32.5163608,20.8687092 33.5915282,20.7119134 34.4725699,21.1151009 C34.8160245,20.9433736 35.1744151,20.7940448 35.4730729,20.6745812 C35.8762603,19.7636765 36.7498351,19.0468975 37.7802034,19.0468975 L38.6761766,19.114095 Z M36.5407733,21.6153535 L36.1898519,21.7198833 C35.6224017,21.8692121 35.2042804,22.070807 34.7562938,22.3171987 L34.4352377,22.4889283 L34.13658,22.2873334 C33.606462,21.9812088 33.0390119,22.0334748 32.6283575,22.4441292 L32.0011767,23.07131 C31.5905223,23.4819644 31.5382563,24.0494145 31.8443809,24.5795325 L32.0459758,24.8781902 L31.8742462,25.1992463 C31.6278545,25.6472329 31.4262596,26.0653542 31.2769308,26.6328044 L31.172401,26.9837258 L30.8214773,27.0509234 C30.2764278,27.16292 29.8657734,27.6482388 29.8657734,28.2231559 L29.8657734,29.1191291 C29.8657734,29.6940462 30.2764278,30.179365 30.8214773,30.2913616 L31.172401,30.3585592 L31.2769308,30.7094806 C31.4262596,31.2097332 31.6278545,31.6950521 31.8742462,32.1430387 L32.0459758,32.4640948 L31.8443809,32.7627525 C31.5382563,33.2256729 31.5905223,33.8603206 32.0011767,34.2037775 L32.6283575,34.8981558 C33.0390119,35.3088102 33.606462,35.3610762 34.13658,35.0549516 L34.4352377,34.8533567 L34.7562938,35.0250863 C35.2042804,35.271478 35.6224017,35.4730729 36.1898519,35.6224017 L36.5407733,35.7269315 L36.6079709,36.0778552 C36.7199675,36.6229047 37.2052863,37.0335591 37.7802034,37.0335591 L38.6761766,37.0335591 C39.2510937,37.0335591 39.7364125,36.6229047 39.8484091,36.0778552 L39.9156044,35.7269315 L40.2665281,35.6224017 C40.7667807,35.4730729 41.2520996,35.271478 41.7000862,35.0250863 L42.0211423,34.8533567 L42.3198,35.0549516 C42.7827204,35.3610762 43.4173681,35.3088102 43.7608227,34.8981558 L44.4552056,34.2037775 C44.86586,33.8603206 44.9181214,33.2256729 44.6119991,32.7627525 L44.4104042,32.4640948 L44.5821315,32.1430387 C44.8285278,31.6950521 45.0301181,31.2097332 45.1794469,30.7094806 L45.283979,30.3585592 L45.6349027,30.2913616 C46.1799522,30.179365 46.5906066,29.6940462 46.5906066,29.1191291 L46.5906066,28.2231559 C46.5906066,27.6482388 46.1799522,27.16292 45.6349027,27.0509234 L45.283979,26.9837258 L45.1794469,26.6328044 C45.0301181,26.0653542 44.8285278,25.6472329 44.5821315,25.1992463 L44.4104042,24.8781902 L44.6119991,24.5795325 C44.9181214,24.0494145 44.86586,23.4819644 44.4552056,23.07131 L43.7608227,22.4441292 C43.4173681,22.0334748 42.7827204,21.9812088 42.3198,22.2873334 L42.0211423,22.4889283 L41.7000862,22.3171987 C41.2520996,22.070807 40.7667807,21.8692121 40.2665281,21.7198833 L39.9156044,21.6153535 L39.8484091,21.2644298 C39.7364125,20.7193803 39.2510937,20.3087259 38.6761766,20.3087259 L37.7802034,20.3087259 C37.2052863,20.3087259 36.7199675,20.7193803 36.6079709,21.2644298 L36.5407733,21.6153535 Z M5.30864168,28.6711425 C5.30864168,26.364012 7.24767712,24.4899342 9.48984997,24.4899342 C11.8641792,24.4899342 13.6710594,26.364012 13.6710594,28.6711425 C13.6710594,30.978273 11.8641792,32.8523508 9.48984997,32.8523508 C7.24767712,32.8523508 5.30864168,30.978273 5.30864168,28.6711425 Z M9.48984997,25.6845652 C7.9069642,25.6845652 6.50327262,27.0210581 6.50327262,28.6711425 C6.50327262,30.3212269 7.9069642,31.6577198 9.48984997,31.6577198 C11.2071331,31.6577198 12.4764284,30.3212269 12.4764284,28.6711425 C12.4764284,27.0210581 11.2071331,25.6845652 9.48984997,25.6845652 Z M6.86838166,20.6745812 C7.20661145,19.7636765 8.07869263,19.114095 9.0418645,19.114095 L9.93783885,19.114095 C11.0354058,19.114095 11.9089794,19.7636765 12.2449694,20.6745812 C12.6108247,20.7940448 12.9692142,20.9433736 13.312671,21.1151009 C14.1937116,20.7119134 15.2688789,20.8687092 16.0005906,21.5929551 L16.6352383,22.2276028 C17.3594831,22.9593133 17.5162789,24.0344807 17.1130902,24.9155224 C17.2848187,25.258977 17.4341475,25.6173676 17.5536111,25.9160254 C18.4645169,26.3192128 19.0468997,27.1927876 19.0468997,28.2231559 L19.0468997,29.1191291 C19.0468997,30.1494974 18.4645169,31.0230722 17.5536111,31.3590621 C17.4341475,31.7249174 17.2848187,32.083308 17.1130902,32.4267626 C17.5162789,33.3078043 17.3594831,34.3829717 16.6352383,35.1146822 L16.0005906,35.7493299 C15.2688789,36.4735758 14.1937116,36.6303716 13.312671,36.2271841 C12.9692142,36.3989114 12.6108247,36.5482402 12.2449694,36.6677038 C11.9089794,37.5786085 11.0354058,38.22819 10.0050364,38.22819 L9.10906318,38.22819 C8.07869377,38.22819 7.20661259,37.5786085 6.8019315,36.6677038 C6.50103392,36.5482402 6.14488425,36.3989114 5.80217364,36.2271841 C4.91963948,36.6303716 3.84297849,36.4735758 3.11574649,35.7493299 L2.48259242,35.1146822 C1.7561078,34.3829717 1.59557972,33.3078043 1.99951458,32.4267626 C1.82927976,32.083308 1.68069713,31.7249174 1.55750127,31.3590621 C0.648087876,31.0230722 0,30.1494974 0,29.1191291 L0,28.2231559 C0,27.1927876 0.648012683,26.3192128 1.55750013,25.9160254 C1.68069599,25.6173676 1.82927862,25.258977 1.99951344,24.9155224 C1.59557858,24.0344807 1.75610666,22.9593133 2.48259128,22.2276028 L3.11574536,21.5929551 C3.84222998,20.8687092 4.91963834,20.7119134 5.8021725,21.1151009 C6.14488311,20.9433736 6.50103278,20.7940448 6.80193036,20.6745812 L6.86838166,20.6745812 Z M9.04186336,20.3087259 C8.53414499,20.3087259 8.04882617,20.7193803 7.93682952,21.2644298 L7.86963085,21.6153535 L7.5187071,21.7198833 C7.01621578,21.8692121 6.53462927,22.070807 6.08141561,22.3171987 L5.76558537,22.4889283 L5.4646878,22.2873334 C5.00102116,21.9812088 4.36935956,22.0334748 3.96094501,22.4441292 L3.32704356,23.07131 C2.91862902,23.4819644 2.86711038,24.0494145 3.17472748,24.5795325 L3.37482875,24.8781902 L3.20086049,25.1992463 C2.95297402,25.6472329 2.75212651,26.0653542 2.60503749,26.6328044 L2.50349381,26.9837258 L2.15033136,27.0509234 C1.60453453,27.16292 1.19462638,27.6482388 1.19462638,28.2231559 L1.19462638,29.1191291 C1.19462638,29.6940462 1.60453453,30.179365 2.15033136,30.2913616 L2.50349381,30.3585592 L2.60503749,30.7094806 C2.75212651,31.2097332 2.95297402,31.6950521 3.20086049,32.1430387 L3.37482875,32.4640948 L3.17472748,32.7627525 C2.86711038,33.2256729 2.91862902,33.8603206 3.32704356,34.2037775 L3.96094501,34.8981558 C4.36935956,35.3088102 5.00102116,35.3610762 5.4646878,35.0549516 L5.76558537,34.8533567 L6.08216298,35.0250863 C6.53462927,35.271478 7.01621578,35.4730729 7.5187071,35.6224017 L7.86963085,35.7269315 L7.93682952,36.0778552 C8.04882617,36.6229047 8.53414499,37.0335591 9.04186336,37.0335591 L9.93783771,37.0335591 C10.5799512,37.0335591 11.06527,36.6229047 11.1772666,36.0778552 L11.2444653,35.7269315 L11.5953879,35.6224017 C12.0956394,35.4730729 12.5809582,35.271478 13.0289448,35.0250863 L13.3500021,34.8533567 L13.6486598,35.0549516 C14.1115791,35.3610762 14.7462268,35.3088102 15.0896836,34.8981558 L15.7840619,34.2037775 C16.1947163,33.8603206 16.2469823,33.2256729 15.9408577,32.7627525 L15.739264,32.4640948 L15.9109924,32.1430387 C16.1573841,31.6950521 16.358979,31.2097332 16.5083079,30.7094806 L16.6128376,30.3585592 L16.9637602,30.2913616 C17.5088108,30.179365 17.8522677,29.6940462 17.8522677,29.1191291 L17.8522677,28.2231559 C17.8522677,27.6482388 17.5088108,27.16292 16.9637602,27.0509234 L16.6128376,26.9837258 L16.5083079,26.6328044 C16.358979,26.0653542 16.1573841,25.6472329 15.9109924,25.1992463 L15.739264,24.8781902 L15.9408577,24.5795325 C16.2469823,24.0494145 16.1947163,23.4819644 15.7840619,23.07131 L15.0896836,22.4441292 C14.7462268,22.0334748 14.1115791,21.9812088 13.6486598,22.2873334 L13.3500021,22.4889283 L13.0289448,22.3171987 C12.5809582,22.070807 12.0956394,21.8692121 11.5953879,21.7198833 L11.2444653,21.6153535 L11.1772666,21.2644298 C11.06527,20.7193803 10.5799512,20.3087259 10.0050352,20.3087259 L9.04186336,20.3087259 Z M20.6297821,8.53414385 L14.5147654,13.5366609 C13.9846486,13.969716 13.2006721,13.8726509 12.7974835,13.3201345 L10.1618299,9.81837302 C9.84823834,9.30318888 9.94530233,8.59387676 10.4306211,8.19068928 L13.6187922,5.57967394 C15.7392628,3.8459657 18.8826348,4.24392613 20.5028539,6.45249908 L20.831377,6.90571273 C21.212166,7.41791193 21.1151009,8.13095636 20.6297821,8.53414385 Z M19.5396832,7.15882626 C18.3226515,5.50276967 15.9707219,5.20411193 14.3803704,6.50476509 L11.1921981,9.1090609 L13.7606553,12.6108224 L19.8682062,7.54857469 L19.5396832,7.15882626 Z" id="Shape"></path>
                    </g>
                    <g id="" transform="translate(60.022471, 34.000120)">
                        <path d="M19.1364946,32.2550353 C14.4625017,32.2550353 10.400757,29.6268463 8.33255124,25.7666965 C7.66057134,24.4974011 8.98213273,23.2281057 10.3708905,23.6611586 C13.0588101,24.3779376 16.022989,24.7736582 19.1364946,24.7736582 C22.1828048,24.7736582 25.2141813,24.3779376 27.894634,23.6611586 C29.2833929,23.2281057 30.5452214,24.4974011 29.9329721,25.7666965 C27.8647687,29.6268463 23.8030217,32.2550353 19.1364946,32.2550353 Z M10.064767,24.8184573 C9.77357504,24.7363259 9.53464908,24.840858 9.41518553,24.9528546 C9.36292066,25.0051184 9.35545376,25.0424506 9.34798686,25.0573844 C9.34798686,25.0648513 9.34051996,25.1096481 9.39278597,25.1992463 C11.2593968,28.6935409 14.9254198,31.0604044 19.1364934,31.0604044 C23.3475693,31.0604044 27.0135912,28.6935409 28.880202,25.1992463 C28.932468,25.1096481 28.9250011,25.0648513 28.9175342,25.0573844 C28.9175342,25.0424506 28.9026027,25.0051184 28.8503367,24.9528546 C28.73834,24.840858 28.4919483,24.7363259 28.2007575,24.8184573 C25.4157727,25.5576347 22.3470641,25.9682891 19.1364934,25.9682891 C15.918457,25.9682891 12.8572152,25.5576347 10.0647659,24.8184573 L10.064767,24.8184573 Z M10.91594,10.6919478 C11.3788592,9.75864238 12.1329705,8.95973203 13.1409403,8.95973203 C14.1489102,8.95973203 14.9030214,9.75864238 15.3659407,10.6919478 C15.8437926,11.6551185 16.1275177,12.9468123 16.1275177,14.3355712 C16.1275177,15.7243302 15.8437926,17.016024 15.3659407,17.9791958 C14.9030214,18.9125013 14.1489102,19.7114105 13.1409403,19.7114105 C12.1329705,19.7114105 11.3788592,18.9125013 10.91594,17.9791958 C10.438088,17.016024 10.154363,15.7243302 10.154363,14.3355712 C10.154363,12.9468123 10.438088,11.6551185 10.91594,10.6919478 Z M11.9836416,11.2220635 C11.6028525,11.9911085 11.3489939,13.0886743 11.3489939,14.3355712 C11.3489939,15.5824671 11.6028525,16.680034 11.9836416,17.4490779 C12.3868291,18.2479871 12.8273499,18.5167795 13.1409403,18.5167795 C13.4545307,18.5167795 13.8950515,18.2479871 14.298239,17.4490779 C14.6790281,16.680034 14.9328867,15.5824671 14.9328867,14.3355712 C14.9328867,13.0886743 14.6790281,11.9911085 14.298239,11.2220635 C13.8950515,10.4231554 13.4545307,10.154363 13.1409403,10.154363 C12.8273499,10.154363 12.3868291,10.4231554 11.9836416,11.2220635 Z M27.3122489,10.6919478 C27.7901031,11.6551185 28.073827,12.9468123 28.073827,14.3355712 C28.073827,15.7243302 27.7901031,17.016024 27.3122489,17.9791958 C26.8493308,18.9125013 26.0952195,19.7114105 25.0872497,19.7114105 C24.0792798,19.7114105 23.3251686,18.9125013 22.8622505,17.9791958 C22.3843963,17.016024 22.1006723,15.7243302 22.1006723,14.3355712 C22.1006723,12.9468123 22.3843963,11.6551185 22.8622505,10.6919478 C23.3251686,9.75864238 24.0792798,8.95973203 25.0872497,8.95973203 C26.0952195,8.95973203 26.8493308,9.75864238 27.3122489,10.6919478 Z M23.929951,17.4490779 C24.3331385,18.2479871 24.7736582,18.5167795 25.0872497,18.5167795 C25.4008412,18.5167795 25.8413609,18.2479871 26.2445484,17.4490779 C26.6253375,16.680034 26.8791961,15.5824671 26.8791961,14.3355712 C26.8791961,13.0886743 26.6253375,11.9911085 26.2445484,11.2220635 C25.8413609,10.4231554 25.4008412,10.154363 25.0872497,10.154363 C24.7736582,10.154363 24.3331385,10.4231554 23.929951,11.2220635 C23.5491619,11.9911085 23.2953033,13.0886743 23.2953033,14.3355712 C23.2953033,15.5824671 23.5491619,16.680034 23.929951,17.4490779 Z M38.22819,19.114095 C38.22819,29.6716455 29.6716455,38.22819 19.114095,38.22819 C8.55654455,38.22819 0,29.6716455 0,19.114095 C0,8.55654455 8.55654455,0 19.114095,0 C29.6716455,0 38.22819,8.55654455 38.22819,19.114095 Z M19.114095,1.19463094 C9.22105755,1.19463094 1.19463094,9.22105755 1.19463094,19.114095 C1.19463094,29.0071325 9.22105755,37.0335591 19.114095,37.0335591 C29.0071325,37.0335591 37.0335591,29.0071325 37.0335591,19.114095 C37.0335591,9.22105755 29.0071325,1.19463094 19.114095,1.19463094 Z" id="Shape"></path>
                    </g>
                    <g id="" transform="translate(119.138990, 0.000000)">
                        <path d="M16.7845879,32.1954246 C11.9993446,31.6797916 4.53215384,27.6520934 3.55405045,22.5189136 L1.26035896,9.59449966 C0.94975464,7.81748705 1.76658373,6.05839318 3.29496477,5.2191634 C9.57125688,1.75174692 16.9361566,0.46229297 24.0442104,1.58972637 C24.9192777,1.72740715 25.7122136,2.14507956 26.3401417,2.79480915 C26.5687651,3.03515352 26.9467903,3.03866253 27.1845963,2.81113971 C27.4202377,2.58132237 27.4272557,2.20329494 27.1985959,1.96668287 C26.3892337,1.12670799 25.3648376,0.588378067 24.2306847,0.409183882 C16.866718,-0.753243917 9.22854626,0.579366292 2.71855411,4.17311623 C0.742111273,5.25649561 -0.317152782,7.51882932 0.0841685486,9.80355916 L2.38233972,22.7205062 C3.404496,28.4801217 11.3868709,32.8076716 16.6581792,33.3825887 C16.6800558,33.3825887 16.7024554,33.3825887 16.7248549,33.3825887 C17.0258277,33.3825887 17.2848382,33.1550863 17.3198554,32.8494106 C17.3520357,32.5239477 17.1205767,32.2252899 16.7845867,32.1954246 L16.7845879,32.1954246 Z M24.3854263,16.2471011 C24.7214162,16.3159347 25.020074,16.0861242 25.0760723,15.7617823 C25.190384,15.1061535 25.5520581,14.5380323 26.0885218,14.1624692 C26.6111729,13.7971357 27.239101,13.6560211 27.8715089,13.7715268 C29.1826161,14.0083621 30.0599232,15.2849751 29.8269706,16.6169884 C29.7686344,16.9413302 29.9879475,17.2504409 30.3122142,17.3076344 C30.347261,17.3146376 30.3822577,17.3169674 30.414953,17.3169674 C30.6995747,17.3169674 30.9516401,17.1128353 31.0029354,16.8223156 C31.3505734,14.8459479 30.0412571,12.950218 28.0865428,12.5955619 C27.1368111,12.4275669 26.1915591,12.6340585 25.4075826,13.1823481 C24.6049399,13.7411374 24.0703423,14.5845472 23.9001075,15.5566784 C23.8403745,15.8812447 24.0643678,16.1873694 24.3854263,16.2471011 Z M11.3639484,14.2684937 C13.3201563,13.9175699 14.6267839,12.0210938 14.2833282,10.0424863 C14.2235964,9.72143011 13.9174718,9.48996991 13.5889487,9.55716744 C13.2678914,9.61689808 13.0438981,9.92302271 13.1036299,10.2515458 C13.3369563,11.5843086 12.4596492,12.8603213 11.1481682,13.0970085 C10.5202401,13.2082578 9.88559237,13.0663958 9.36294133,12.7080075 C8.8328234,12.3272184 8.46696699,11.7597682 8.35497034,11.1027221 C8.29523856,10.7816637 7.99658083,10.5427389 7.66059088,10.6174033 C7.33803998,10.6099364 7.11927259,10.9832586 7.17751076,11.3117816 C7.34774672,12.2824193 7.88458418,13.1261265 8.68349453,13.6861097 C9.29014305,14.1097565 9.99684164,14.3302408 10.7203402,14.3302408 C10.9308933,14.3282243 11.1474208,14.3132928 11.3639472,14.2684937 L11.3639484,14.2684937 Z M10.7516991,23.8852718 C10.924323,23.8852718 11.0947071,23.8117717 11.2113338,23.6682965 C11.9761954,22.7503738 13.1558936,21.9663972 14.5371857,21.4586777 C14.8474915,21.3466811 15.0084673,21.0036731 14.8964707,20.6933673 C14.784474,20.3841825 14.432133,20.2243995 14.1311602,20.3363962 C12.5511124,20.9136282 11.1847531,21.824533 10.2887799,22.9071673 C10.0797192,23.1610282 10.1170514,23.5418149 10.37091,23.7508767 C10.4829067,23.8404727 10.6173029,23.8852718 10.7516991,23.8852718 Z M38.5194038,24.8932416 C36.4706115,26.122965 33.6333631,26.5373517 30.7244374,26.0296344 C27.8170042,25.5198254 25.2881201,24.1652634 23.7873646,22.3135864 C23.6313139,22.1231907 23.3774553,22.0410617 23.0787976,22.1231907 C22.9145349,22.1903905 22.7502745,22.3322525 22.7278738,22.6383771 C22.3685877,26.9308347 25.3851807,30.7469351 29.7485704,31.5159778 C30.2642034,31.6057994 30.7752064,31.6489556 31.2791913,31.6489556 C35.051985,31.6489556 38.399938,29.2246014 39.4026808,25.5608171 C39.4680121,25.3251757 39.3816768,25.0743043 39.1880205,24.9273633 C38.9897888,24.781245 38.7284633,24.7663135 38.5194038,24.8932416 Z M29.9553923,30.3437453 C26.7119692,29.769726 24.332414,27.2474111 23.9493851,24.2003558 C25.6293349,25.6869249 27.9461722,26.7576126 30.5198553,27.2078391 C33.0890587,27.6617978 35.6298893,27.4401196 37.7204934,26.6151537 C36.3018692,29.3507092 33.1808945,30.8439979 29.9553923,30.3437453 Z M45.067471,8.95238508 C38.5574788,5.35804043 30.9185608,4.03125198 23.5491803,5.19228529 C21.3167165,5.54619398 19.5471685,7.30902244 19.1365141,9.58703276 L16.8368505,22.5039798 C16.2698492,25.7018565 17.8866322,28.8497093 19.3448285,30.9261293 C21.9162718,34.5906609 25.8876732,37.616063 28.7898794,38.1185554 C29.1938142,38.1909777 29.6194024,38.2283099 30.0748536,38.2283099 C35.4648793,38.2283099 44.2685652,33.5027973 45.3959963,27.4990299 L47.6941698,14.574616 C48.0988497,12.2973531 47.0460785,10.0350194 45.067471,8.95238508 Z M46.5234274,14.3730234 L44.225254,27.2974373 C43.1680076,33.2496861 33.1151872,37.6683267 29.0609071,36.95155 C26.4827443,36.5047573 22.7562421,33.6230082 20.3849012,30.2489246 C18.509331,27.5729515 17.6872749,24.898471 18.0747835,22.7227483 L20.3729547,9.80580128 C20.6902785,8.02878868 22.0670908,6.65197634 23.7985592,6.37795686 C25.4740293,6.11200356 27.1629384,5.9813408 28.8503551,5.9813408 C34.317285,5.9813408 39.7513624,7.35889823 44.5522846,10.0072458 C46.0157102,10.8339297 46.837019,12.5960108 46.5234274,14.3730234 Z M37.645829,14.3879561 C36.6960973,14.2164532 35.7508453,14.427625 34.9668688,14.9747434 C34.1642261,15.5335315 33.6303759,16.3769413 33.4593937,17.3490726 C33.4010575,17.6735637 33.6203706,17.9826755 33.9447125,18.0398678 C34.2875723,18.1075291 34.576897,17.8788909 34.6352081,17.554549 C34.7495198,16.8987709 35.1111939,16.330799 35.6476576,15.955237 C36.1726237,15.592443 36.7982368,15.448937 37.4306447,15.5644438 C38.741752,15.8012792 39.6190591,17.0778922 39.3861064,18.4099054 C39.3277702,18.7342473 39.5470833,19.043358 39.8714252,19.1005515 C39.9064196,19.1075547 39.9414231,19.1098845 39.9740888,19.1098845 C40.2587105,19.1098845 40.5107759,18.9057524 40.5620712,18.6152326 C40.9086657,16.635356 39.6020381,14.7388787 37.645829,14.3879561 Z" id="Shape"></path>
                    </g>
                    <g id="" transform="translate(170.139012, 81.000120)">
                        <path d="M19.1140961,11.2817964 C17.4677452,11.2817964 16.1275188,12.6220216 16.1275188,14.2683737 C16.1275188,15.9147247 17.4677452,17.2549511 19.1140961,17.2549511 C20.7611934,17.2549511 22.1006735,15.9147247 22.1006735,14.2683737 C22.1006735,12.6220216 20.7641806,11.2817964 19.1140961,11.2817964 Z M19.1140961,16.1275177 C18.1270322,16.1275177 17.3221497,15.3226352 17.3221497,14.3355712 C17.3221497,13.3485073 18.1270322,12.5436248 19.1140961,12.5436248 C20.10116,12.5436248 20.9060425,13.3485073 20.9060425,14.3355712 C20.9060425,15.3226352 20.0996676,16.1275177 19.1140961,16.1275177 Z M14.3355724,0 C14.1862435,0 14.0443816,0.003329002 13.8950527,0.00770614973 C6.04782026,0.241032505 0,7.08216123 0,14.9331248 L0,34.6445353 C0,35.363479 0.590819244,35.8384189 1.20284407,35.8384189 C1.49657438,35.8384189 1.79642723,35.7300816 2.0383404,35.4848087 L3.90121779,34.1035166 C4.11296602,33.9436608 4.36234495,33.8678001 4.61060397,33.8678001 C4.94218943,33.8678001 5.27175835,34.0046606 5.43937964,34.2715116 L8.64995028,37.8785502 C8.95226741,38.1161945 9.25092515,38.2281911 9.55704978,38.2281911 C9.86272553,38.2281911 10.1714637,38.1133577 10.4044916,37.8800313 L13.4373605,34.4596538 C13.675391,34.1889952 14.0043618,34.0557189 14.3333337,34.0557189 C14.6623056,34.0557189 14.9912764,34.1889952 15.1621094,34.4596538 L18.1957257,37.8800313 C18.5018492,38.1161945 18.8079726,38.2281911 19.0468997,38.2281911 C19.2858268,38.2281911 19.6551159,38.1133577 19.8883671,37.8800313 L23.0989377,34.2729927 C23.3338318,34.0061416 23.6633255,33.8690578 23.9949109,33.8690578 C24.2430959,33.8690578 24.4924748,33.9451418 24.7042231,34.1049977 L26.5671016,35.4862897 C26.8093121,35.7315627 27.109239,35.8398999 27.4025968,35.8398999 C28.014322,35.8398999 28.6054397,35.3651833 28.6054397,34.6460164 L28.6054397,14.3355724 C28.6711448,6.41666274 22.2574704,0 14.3355735,0 L14.3355724,0 Z M27.4242478,34.5845677 L25.4919319,33.1547442 C25.0770212,32.8415264 24.5832648,32.676145 24.0628536,32.676145 C23.3769857,32.676145 22.7233734,32.9715922 22.2746395,33.4817748 L19.1603866,37.087321 L16.1305037,33.6744103 C15.6769916,33.1584788 15.02323,32.8628083 14.3370637,32.8628083 C13.6511959,32.8628083 12.9975836,33.158554 12.5481045,33.670678 L9.60931465,37.0858262 L6.40322369,33.487747 C5.94971154,32.9724125 5.29594887,32.6768923 4.61052877,32.6768923 C4.09049127,32.6768923 3.59658563,32.8422738 3.19041093,33.1487721 L1.25958863,34.58457 L1.19463094,34.6517652 L1.19463094,14.9328879 C1.19463094,7.56948178 6.90869995,1.41115848 13.9323838,1.20209898 C14.0667788,1.19687192 14.201175,1.19463208 14.3355713,1.19463208 C21.5810085,1.19463208 27.409314,7.08939002 27.409314,14.3355724 L27.4195198,34.6517652 L27.4242478,34.5845677 L27.4242478,34.5845677 Z M9.5570475,11.2817975 C7.91069651,11.2817975 6.57047016,12.6220227 6.57047016,14.2683749 C6.57047016,15.9147258 7.91069651,17.2549522 9.5570475,17.2549522 C11.2041447,17.2549522 12.5436248,15.9147258 12.5436248,14.2683749 C12.5436248,12.6220227 11.2071319,11.2817975 9.5570475,11.2817975 Z M9.5570475,16.1275188 C8.5714772,16.1275188 7.76510109,15.3211427 7.76510109,14.3355724 C7.76510109,13.350001 8.5699836,12.543626 9.48984997,12.543626 C10.4769139,12.543626 11.2817975,13.3485085 11.2817975,14.3355724 C11.2817975,15.3226363 10.5426189,16.1275188 9.55704864,16.1275188 L9.5570475,16.1275188 Z" id="Shape"></path>
                    </g>
                    <g id="" transform="translate(327.139013, 9.000307)">
                        <path d="M34.6442972,4.82985555 C33.9845624,4.82985555 33.4496663,5.36475166 33.4496663,6.02448649 C33.4496663,6.68422131 33.9845624,7.21911742 34.6442972,7.21911742 C35.304032,7.21911742 35.8389281,6.68422131 35.8389281,6.02448649 C35.8389281,5.36475166 35.3013433,4.82985555 34.6442972,4.82985555 Z M47.187922,2.38907503 L40.2150095,2.38911149 C40.3761368,2.07835906 40.5226995,1.75924426 40.5928843,1.4125017 C40.6628822,1.06717869 40.5742181,0.7102076 40.3479098,0.435144538 C40.1216015,0.158661921 39.7879266,0 39.4332705,0 L30.1450154,0 C25.0021289,0 20.6253001,4.31037629 20.3117109,9.5421137 C13.678524,9.40006489 12.3046989,3.13870658 12.252434,2.86767432 C12.200168,2.61680064 11.9911085,2.42565987 11.7372487,2.39355472 C11.4908559,2.37264877 11.2369973,2.49883184 11.1250006,2.72879729 C11.0354035,2.92218018 9.47491617,6.27610526 9.5645144,10.0123142 C8.43782837,10.416846 7.43209836,11.0740425 6.64364212,11.9483624 L5.37583922,11.9483624 C2.41240767,11.9483624 0,14.3600238 0,17.3242016 L0,23.2973563 C0,23.6275222 0.268343537,23.8946717 0.597315469,23.8946717 C0.926287401,23.8946717 1.19463094,23.6275222 1.19463094,23.2973563 L1.19463094,17.3242016 C1.19463094,15.0185635 3.07020228,13.1429933 5.37584036,13.1429933 L5.77245756,13.1429933 C5.15707298,14.2009893 4.77852375,15.4105518 4.77852375,16.7246463 C4.77852375,18.9212738 5.78798721,20.8632953 7.34399373,22.1781371 L6.51447183,23.8028337 C5.04432895,26.6699497 4.77852375,27.1926008 4.77852375,28.4394955 C4.77852375,28.8057996 4.84618498,29.3638415 4.93487178,29.7072984 L6.72457834,36.8713517 C6.91586835,37.63069 7.68102955,38.2272581 8.46276626,38.2272581 L13.1409415,38.2272581 C13.6962958,38.2272581 14.2116292,37.9764596 14.5528462,37.537806 C14.893465,37.1003465 15.0124809,36.5402903 14.867855,35.9661206 L12.5883499,28.7214307 L14.6558083,24.586514 L20.9060425,26.7520788 L20.9060425,36.4435214 C20.9060425,37.4313326 21.7116724,38.1682702 22.697989,38.1682702 L26.8791972,38.2280032 C27.8662611,38.2280032 28.6711436,37.423868 28.6711436,36.4360568 L28.6711436,24.4225498 C30.1278475,23.1106952 30.993208,21.2254182 30.993208,19.1109221 C30.993208,19.1082937 30.993208,19.1135504 30.993208,19.1109221 L31.0604055,11.3413402 L31.4850959,11.4929841 L32.7454319,14.0024569 C33.2529259,15.0111718 34.2902393,15.6092347 35.3639142,15.6092347 C35.7223777,15.6092347 36.0842774,15.5427389 36.432362,15.4027123 L38.7865338,14.4611938 C39.8131698,14.0517334 40.6158124,12.862628 40.6158124,11.7561028 L40.6112963,6.37204933 L47.4169612,3.53629332 C47.6806018,3.42661171 47.8299307,3.14662008 47.7739323,2.86782243 C47.7180388,2.58992254 47.4716471,2.38907503 47.1879232,2.38907503 L47.187922,2.38907503 Z M38.3401878,13.3572799 L35.9830311,14.2995447 C35.1564952,14.6326226 34.2007914,14.2485045 33.8102956,13.4715164 L32.5499596,10.9620458 C32.3014761,10.467394 31.1522413,9.81893355 30.3697572,10.3699574 C30.0524357,10.5946958 29.8657746,10.9530865 29.8657746,11.3413402 C29.8657746,11.3413402 29.8651913,19.128842 29.8657746,19.1437735 C29.8570248,20.8237232 29.1497429,22.3819696 27.8714882,23.5332962 C27.6183747,23.7580368 27.4765127,24.0865599 27.4765127,24.4225498 L27.4765127,36.4360568 C27.4765127,36.7653272 27.2084677,37.0333722 26.8791972,37.0333722 L22.697989,37.0333722 C22.36842,37.0333722 22.1006735,36.7653272 22.1006735,36.4360568 L22.1006735,26.7446142 C22.1006735,26.196279 21.7276498,25.7187256 21.1957409,25.585823 L14.9478205,23.4295115 C14.4718348,23.3104968 13.8689197,23.4942596 13.5889281,24.0542292 L11.5214697,28.1891458 C11.3831908,28.4662255 11.3575807,28.7864613 11.450598,29.0821318 L13.7114369,36.2603693 C13.827854,36.7197807 13.4918641,37.0333722 13.1409415,37.0333722 L8.45948169,37.0333722 C8.22443729,37.0333722 7.93742765,36.8090804 7.88023421,36.5827721 L6.0882878,29.4097594 C6.02840678,29.1637414 5.97315469,28.7082879 5.97315469,28.4394955 C5.97315469,27.50619 6.10874601,27.2149992 7.57844115,24.3463907 L8.40871043,22.7209468 C8.66100138,22.2262949 8.53937318,21.6233787 8.1155771,21.2649903 C6.75414516,20.1144111 5.97315469,18.4568609 5.97315469,16.7246463 C5.97315469,14.2457862 7.5007895,12.1357708 9.65709871,11.2368104 C9.7959746,12.3045109 10.0871666,13.3796806 10.6172834,14.3951162 C12.0777195,17.201752 14.9829129,18.9884725 19.2559581,19.7045041 C19.2886238,19.710335 19.3212895,19.7126728 19.3539187,19.7126728 C19.6409284,19.7126728 19.8929208,19.5061516 19.9419011,19.2145119 C19.9978995,18.8890501 19.7785362,18.5810593 19.4519522,18.5261809 C15.5675355,17.8744781 12.9542804,16.2990592 11.6775181,13.8500656 C10.0498344,10.7216263 10.9308738,6.82936899 11.6327201,4.73876485 C12.5734913,6.95256485 14.9552874,10.6245611 20.3087271,10.7290932 L21.503358,10.7514916 L21.5035973,9.55686066 C21.8145001,4.94035745 25.678086,1.26164163 30.1422709,1.26164163 L39.4155944,1.26164163 C39.2959828,1.83065944 38.9845559,2.34726313 38.5143942,2.75642505 C37.9398508,3.2557799 38.0220573,4.045879 38.4283824,4.47743933 C38.9580515,5.03973762 39.4124591,5.39879817 39.4124591,6.20666789 L39.4171256,11.826659 C39.3556223,12.3791753 38.9151048,13.1258197 38.3401878,13.3572799 Z M40.4233273,5.15688613 C40.2913202,4.78849025 40.0995824,4.44346802 39.8269096,4.15040875 L39.3025405,3.58691649 C39.3048783,3.58487716 39.3002027,3.58895581 39.3025405,3.58691649 L44.2013458,3.58370597 L40.4233273,5.15688613 Z" id="Shape"></path>
                    </g>
                    <g id="" transform="translate(0.000000, 6.229187)">
                        <path d="M19.114095,5.1333496 L20.1743309,3.8043236 C22.406797,0.937207522 26.1400187,-0.465735544 29.7612437,0.13829945 C34.6442972,0.952888694 38.22819,5.17814872 38.22819,10.1358667 L38.22819,11.024373 C38.22819,14.122947 36.9439608,17.0871259 34.6741625,19.2001284 L21.1823007,31.7960193 C20.6223175,32.3186703 19.8831378,32.6098612 19.114095,32.6098612 C18.3450511,32.6098612 17.6058737,32.3186703 17.0458904,31.7960193 L3.55328012,19.2001284 C1.28646787,17.0871259 0,14.122947 0,11.024373 L0,10.1358667 C0,5.17814872 3.5823992,0.952888694 8.46694631,0.13829945 C12.0881713,-0.465735544 15.7541955,0.936462427 18.0538603,3.8043236 L19.114095,5.1333496 Z M19.114095,7.04475956 L17.1205549,4.55096793 C15.0971482,2.02133656 11.864178,0.784146345 8.66854006,1.31650412 C4.35442917,2.03477561 1.1946298,5.76799729 1.1946298,10.1358667 L1.1946298,11.024373 C1.1946298,13.7272264 2.34371539,16.4375444 4.36861446,18.3265559 L17.8597311,30.9224445 C18.203188,31.236036 18.6511746,31.4152302 19.1140939,31.4152302 C19.5770143,31.4152302 20.0250009,31.236036 20.3684554,30.9224445 L33.8603195,18.3265559 C35.8837261,16.4375444 37.0335579,13.7272264 37.0335579,11.024373 L37.0335579,10.1358667 C37.0335579,5.76799729 33.8752533,2.03477561 29.5596477,1.31650412 C26.3640108,0.784146345 23.1310395,2.02133656 21.1076351,4.55096793 L19.1140939,7.04475956 L19.114095,7.04475956 Z" id="Shape"></path>
                    </g>
                    <g id="-copy" transform="translate(348.000000, 81.229187)">
                        <path d="M19.114095,5.1333496 L20.1743309,3.8043236 C22.406797,0.937207522 26.1400187,-0.465735544 29.7612437,0.13829945 C34.6442972,0.952888694 38.22819,5.17814872 38.22819,10.1358667 L38.22819,11.024373 C38.22819,14.122947 36.9439608,17.0871259 34.6741625,19.2001284 L21.1823007,31.7960193 C20.6223175,32.3186703 19.8831378,32.6098612 19.114095,32.6098612 C18.3450511,32.6098612 17.6058737,32.3186703 17.0458904,31.7960193 L3.55328012,19.2001284 C1.28646787,17.0871259 0,14.122947 0,11.024373 L0,10.1358667 C0,5.17814872 3.5823992,0.952888694 8.46694631,0.13829945 C12.0881713,-0.465735544 15.7541955,0.936462427 18.0538603,3.8043236 L19.114095,5.1333496 Z M19.114095,7.04475956 L17.1205549,4.55096793 C15.0971482,2.02133656 11.864178,0.784146345 8.66854006,1.31650412 C4.35442917,2.03477561 1.1946298,5.76799729 1.1946298,10.1358667 L1.1946298,11.024373 C1.1946298,13.7272264 2.34371539,16.4375444 4.36861446,18.3265559 L17.8597311,30.9224445 C18.203188,31.236036 18.6511746,31.4152302 19.1140939,31.4152302 C19.5770143,31.4152302 20.0250009,31.236036 20.3684554,30.9224445 L33.8603195,18.3265559 C35.8837261,16.4375444 37.0335579,13.7272264 37.0335579,11.024373 L37.0335579,10.1358667 C37.0335579,5.76799729 33.8752533,2.03477561 29.5596477,1.31650412 C26.3640108,0.784146345 23.1310395,2.02133656 21.1076351,4.55096793 L19.1140939,7.04475956 L19.114095,7.04475956 Z" id="Shape"></path>
                    </g>
                    <g id="" transform="translate(261.862243, 81.000120)">
                        <path d="M34.8757369,3.3487003 C32.7253998,1.20284293 29.9926834,0 27.006106,0 C23.5215182,0 19.71139,1.62917849 16.0677665,5.27280194 L9.66902364,11.6625854 C5.15257164,16.1700758 4.41488668,22.9145142 4.91887274,27.4242455 C4.94045885,27.6238991 4.98027016,27.8035399 5.00652963,27.9940107 C5.16153329,29.1184569 5.63968484,30.1562921 6.35347665,31.0268797 L0.174994766,37.2053615 C-0.0583315887,37.4386879 -0.0583315887,37.816713 0.174994766,38.0498161 C0.291620347,38.1684594 0.443338303,38.22819 0.597296101,38.22819 C0.751253899,38.22819 0.902971854,38.1698539 1.01959744,38.053177 L7.19658685,31.8761876 C8.06941426,32.5972959 9.11098288,33.0812704 10.2414024,33.2365737 C10.4248529,33.2618021 10.6124095,33.2849866 10.8041484,33.3059883 C11.5821516,33.3928978 12.4228728,33.4464329 13.3113802,33.4464329 C17.570239,33.4464329 22.8310966,32.2973462 26.5643183,28.5596471 L32.9570867,22.1579193 C39.7139947,15.395806 39.5347982,8.01895971 34.875738,3.3487003 L34.8757369,3.3487003 Z M6.18966172,27.8348999 C6.16501435,27.6558539 6.03495655,26.5267799 6.03495655,26.5267799 C5.70979212,22.0902182 6.71671725,16.36495 10.513329,12.5122671 L16.9150579,6.11949634 C20.1369781,2.89697911 23.6312727,1.19463094 27.0210376,1.19463094 C29.6529588,1.19463094 32.0810454,2.2287338 34.0402417,4.18270075 C37.4665914,7.61577223 37.914578,12.2151018 35.5551837,16.7248331 L22.3470458,16.7248331 L26.1056531,12.9662258 C26.3389795,12.7328995 26.3389795,12.354872 26.1056531,12.1217712 C25.8723268,11.8886705 25.4943016,11.8884449 25.2611986,12.1217712 L7.22973787,30.153232 C6.70036503,29.4700529 6.30837676,28.7010078 6.18966058,27.8348999 L6.18966172,27.8348999 Z M25.71441,27.7154387 C21.7758611,31.6621995 16.2544265,32.251303 13.3051813,32.251303 C12.649254,32.251303 11.9993,32.2227205 11.3668921,32.1659612 C11.3668921,32.1659612 10.570969,32.07629 10.3984943,32.0526201 C9.528653,31.9327829 8.75438205,31.5365405 8.0689631,30.996864 L13.984627,25.0872497 L28.3425978,25.0872497 L25.7144088,27.7154387 L25.71441,27.7154387 Z M32.1131517,21.3166958 L29.5372287,23.8926187 L15.1792579,23.8926187 L21.1524115,17.9194641 L34.8085359,17.9194641 C34.0768254,19.0692959 33.2107175,20.2116631 32.1131517,21.3166958 Z" id="Shape"></path>
                    </g>
                </g>
            </g>
        </g>
    </g>
</svg>