<?xml version="1.0" encoding="UTF-8"?>
<svg width="665px" height="185px" viewBox="0 0 665 185" version="1.1" xmlns="http://www.w3.org/2000/svg" xmlns:xlink="http://www.w3.org/1999/xlink">
    <title>Group 43 Copy 2</title>
    <g id="Page-1" stroke="none" stroke-width="1" fill="none" fill-rule="evenodd">
        <g id="Group-39">
            <rect id="Rectangle-Copy-2" x="0" y="0" width="665" height="185" rx="27"></rect>
            <g id="pen" transform="translate(24.700261, 137.904966)" fill="#FFA700" fill-rule="nonzero">
                <path d="M37.1380862,4.47183859 C38.5343098,5.87105162 38.5343098,8.14084995 37.1380862,9.53707349 L13.1409377,33.5342243 C12.2225649,34.3853984 11.0876658,35.1245758 9.84076997,35.4904311 L0.766054075,38.1634192 C0.556172006,38.2231498 0.329491123,38.1634192 0.174935199,38.0140903 C0.02040206,37.8572945 -0.0373952023,37.6333012 0.0242927314,37.4167748 L2.6938903,28.3450461 C3.06049294,27.0981492 3.73471268,25.9632489 4.65308545,24.9776797 L28.6487415,1.0499686 C30.044965,-0.349989532 32.3147633,-0.349989532 33.7109892,1.0499686 L37.1380862,4.47183859 Z M24.4973985,6.8864861 L31.2993289,13.6884165 L36.294379,8.6933663 C37.2276844,7.76006088 37.2276844,6.24959857 36.294379,5.31629315 L32.867282,1.89442316 C31.9339766,0.961117739 30.4257541,0.961117739 29.4252511,1.89442316 L24.4973985,6.8864861 Z M23.653689,7.73019556 L5.49754001,25.8885844 C4.72028298,26.6650964 4.15059299,27.6208002 3.83998867,28.6810361 L1.47909964,36.7074627 L9.50478002,34.3480661 C10.5650148,34.0344746 11.5207197,33.4670245 12.2972294,32.6905148 L30.4556194,14.5321248 L23.653689,7.73019556 Z" id="Shape"></path>
            </g>
            <g id="presentation-screen" transform="translate(111.700258, 130.862594)" fill="#FFA700" fill-rule="nonzero">
                <path d="M42.4093983,0 L0.597315469,0 C0.268343537,0 0,0.267149562 0,0.597315469 C0,0.927481375 0.268343537,1.19463094 0.597315469,1.19463094 L42.4093983,1.19463094 C42.7379236,1.19463094 43.0067137,0.927333268 43.0067137,0.597315469 C43.0067137,0.26729767 42.7379236,0 42.4093983,0 Z M40.0201364,3.58389281 C39.6911645,3.58389281 39.4228209,3.85104237 39.4228209,4.18120828 L39.4228209,23.2953033 C39.4228209,24.2831146 38.6179362,25.0872497 37.6308745,25.0872497 L5.37583922,25.0872497 C4.38877532,25.0872497 3.58389281,24.2831146 3.58389281,23.2953033 L3.58389281,4.18120828 C3.58389281,3.85104237 3.31554814,3.58389281 2.9865762,3.58389281 C2.65760427,3.58389281 2.3892596,3.85119276 2.3892596,4.18120828 L2.3892596,23.2953033 C2.3892596,24.9453877 3.72873972,26.2818806 5.37583694,26.2818806 L20.9060391,26.2818806 L20.9060391,30.2159498 L13.912968,37.2090209 C13.6796416,37.4423473 13.6796416,37.8203724 13.912968,38.0534755 C14.1462944,38.2865763 14.5243207,38.2868041 14.7574226,38.0534755 L21.2554681,31.5554299 C21.3390919,31.5979892 21.4062917,31.6577198 21.5033546,31.6577198 C21.6004174,31.6577198 21.6700052,31.5960319 21.7507922,31.5552066 L28.2488377,38.0532522 C28.3650156,38.1684594 28.5143445,38.2283865 28.6711402,38.2283865 C28.827936,38.2283865 28.976816,38.1698539 29.0934427,38.053177 C29.3267691,37.8198507 29.3267691,37.4418255 29.0934427,37.2087224 L22.1006701,30.2166972 L22.1006701,26.2818806 L37.6308723,26.2818806 C39.2809544,26.2818806 40.6174496,24.9453877 40.6174496,23.2953033 L40.6174496,4.18120828 C40.6174496,3.85119276 40.3486595,3.58389281 40.0201341,3.58389281 L40.0201364,3.58389281 Z" id="Shape"></path>
            </g>
            <g id="compass-drafting" transform="translate(204.700082, 141.862594)" fill="#FFA700" fill-rule="nonzero">
                <path d="M22.1979113,11.0876684 C21.3019381,11.6327178 20.2417045,11.9463094 19.1142711,11.9463094 C17.9868377,11.9463094 16.926603,11.6327178 16.0306298,11.0876684 L9.3929621,23.0339778 C12.1779457,24.7139275 15.448247,25.6845652 18.9500096,25.6845652 C25.7967379,25.6845652 31.7848264,21.9588104 34.9879302,16.3589779 C35.1521906,16.1424503 35.5180481,16.0453863 35.801772,16.209649 C36.085496,16.3739105 36.1825611,16.7397658 36.0182984,17.0234909 C32.6135998,22.9145142 26.2447245,26.8791961 18.9500096,26.8791961 C15.2391875,26.8791961 11.7747571,25.8562924 8.81057929,24.0792798 L1.11939526,37.9220654 C0.959613415,38.2057916 0.595773548,38.3103191 0.307344349,38.086328 C0.0189755324,37.9892629 -0.0849424208,37.563677 0.075287162,37.3396837 L7.8026083,23.4296984 C5.38049389,21.7646824 3.34887415,19.5770154 1.87275798,17.0234909 C1.70700285,16.7397658 1.80481307,16.3739105 2.09003176,16.209649 C2.37599667,16.0453863 2.74110571,16.1424503 2.90611461,16.3589779 C4.27471381,18.7930377 6.15177763,20.8239101 8.38499111,22.3769317 L15.059991,10.3634225 C13.8802927,9.27332356 13.1411153,7.70537046 13.1411153,5.97315469 C13.1411153,2.67448056 15.8141023,0 19.11427,0 C22.4144389,0 25.0874247,2.67448056 25.0874247,5.97315469 C25.0874247,7.70537046 24.3482472,9.27332356 23.1685478,10.3634225 L27.8649425,18.8229042 C28.0292029,19.0468975 27.8574756,19.4724834 27.6334823,19.5695485 C27.3422915,19.7935418 26.9839008,19.6890121 26.8196404,19.4052858 L22.1979102,11.0876684 L22.1979113,11.0876684 Z M19.11427,1.19463094 C16.4786153,1.19463094 14.3357462,3.3337665 14.3357462,5.97315469 C14.3357462,8.60880828 16.4786153,10.7516784 19.11427,10.7516784 C21.7499236,10.7516784 23.8927937,8.60880828 23.8927937,5.97315469 C23.8927937,3.3337665 21.7499236,1.19463094 19.11427,1.19463094 Z M31.4712337,27.7677024 C31.3069711,27.4765116 31.4115031,27.1181232 31.7026939,26.9538605 C31.9864179,26.7970648 32.3522732,26.9015945 32.5090689,27.1853207 L38.086503,37.3396837 C38.310494,37.563677 38.2059666,37.9892629 37.9222404,38.086328 C37.6310495,38.3103191 37.2726611,38.2057916 37.1083985,37.9220654 L31.4712337,27.7677024 Z" id="Shape"></path>
            </g>
            <g id="square-question" transform="translate(419.700258, 144.251856)" fill="#FFA700" fill-rule="nonzero">
                <path d="M15.5302022,23.8926187 C14.8731549,23.8926187 14.3355712,24.4302036 14.3355712,25.0872497 C14.3355712,25.7442958 14.8731549,26.2818806 15.5302022,26.2818806 C16.1872494,26.2818806 16.7248331,25.7469845 16.7248331,25.0872497 C16.7248331,24.4275149 16.1872494,23.8926187 15.5302022,23.8926187 Z M28.6711425,0 L4.77852375,0 C2.13913557,0 0,2.13913557 0,4.77852375 L0,28.6711425 C0,31.3105307 2.13913557,33.4496663 4.77852375,33.4496663 L28.6711425,33.4496663 C31.3105307,33.4496663 33.4496663,31.3105307 33.4496663,28.6711425 L33.4496663,4.77852375 C33.4496663,2.13913557 31.3067961,0 28.6711425,0 Z M32.2550353,28.6711425 C32.2550353,30.6475101 30.6475101,32.2550353 28.6711425,32.2550353 L4.77852375,32.2550353 C2.8021561,32.2550353 1.19463094,30.6475101 1.19463094,28.6711425 L1.19463094,4.77852375 C1.19463094,2.8021561 2.8021561,1.19463094 4.77852375,1.19463094 L28.6711425,1.19463094 C30.6475101,1.19463094 32.2550353,2.8021561 32.2550353,4.77852375 L32.2550353,28.6711425 Z M19.1588941,7.16778562 L14.2907721,7.16778562 C11.677517,7.16778562 9.5570475,9.28825508 9.5570475,11.9015103 L9.5570475,12.6929537 C9.5570475,13.0231196 9.82539104,13.2902692 10.154363,13.2902692 C10.4833349,13.2902692 10.7516784,13.0231196 10.7516784,12.6929537 L10.7516784,11.9015103 C10.7516784,9.95276809 12.3420311,8.36241656 14.2907721,8.36241656 L19.1581467,8.36241656 C21.1076363,8.36241656 22.6979878,9.95276809 22.6979878,11.9015103 C22.6979878,13.1857383 22.0003238,14.3714099 20.9015617,14.9829118 L15.9632561,17.449079 C15.253944,17.7776021 14.8134232,18.591444 14.8134232,19.4052858 L14.8134232,20.9060414 C14.8134232,21.2362073 15.0816927,21.5033569 15.4107386,21.5033569 C15.7397106,21.5033569 16.0080541,21.2362073 16.0080541,20.9060414 L16.0080541,19.4052858 C16.0080541,19.0261396 16.2133813,18.6761136 16.5213721,18.5048329 L21.4559442,16.0371732 C22.9593133,15.2091449 23.8926187,13.6187922 23.8926187,11.9015103 C23.8926187,9.28825508 21.7721493,7.16778562 19.1588941,7.16778562 Z" id="Shape"></path>
            </g>
            <g id="gallery-thumbnails" transform="translate(184.700258, 58.862594)" fill="#FFA700" fill-rule="nonzero">
                <path d="M38.22819,0 C40.8638436,0 43.0067137,2.13913557 43.0067137,4.77852375 L43.0067137,21.5033569 C43.0067137,24.1390105 40.8638436,26.2818806 38.22819,26.2818806 L4.77852375,26.2818806 C2.13913557,26.2818806 0,24.1390105 0,21.5033569 L0,4.77852375 C0,2.13913557 2.13913557,0 4.77852375,0 L38.22819,0 Z M38.22819,1.19463094 L4.77852375,1.19463094 C2.79917003,1.19463094 1.19463094,2.79916889 1.19463094,4.77852375 L1.19463094,21.5033569 C1.19463094,23.4819644 2.79917003,25.0872497 4.77852375,25.0872497 L38.22819,25.0872497 C40.2067975,25.0872497 41.8120828,23.4819644 41.8120828,21.5033569 L41.8120828,4.77852375 C41.8120828,2.79916889 40.2067975,1.19463094 38.22819,1.19463094 Z M4.77852375,31.0604044 C6.09784415,31.0604044 7.16778562,32.1281049 7.16778562,33.4496662 L7.16778562,35.8389281 C7.16778562,37.1604895 6.09784415,38.22819 4.77852375,38.22819 L2.38926187,38.22819 C1.06994147,38.22819 0,37.1604895 0,35.8389281 L0,33.4496662 C0,32.1281049 1.06994147,31.0604044 2.38926187,31.0604044 L4.77852375,31.0604044 Z M4.77852375,32.2550353 L2.38926187,32.2550353 C1.72922856,32.2550353 1.19463094,32.7926201 1.19463094,33.4496662 L1.19463094,35.8389281 C1.19463094,36.4959742 1.72922856,37.0335591 2.38926187,37.0335591 L4.77852375,37.0335591 C5.43855707,37.0335591 5.97315469,36.4959742 5.97315469,35.8389281 L5.97315469,33.4496662 C5.97315469,32.7926201 5.43855707,32.2550353 4.77852375,32.2550353 Z M11.9463094,33.4496662 C11.9463094,32.1281049 13.014011,31.0604044 14.3355712,31.0604044 L16.7248331,31.0604044 C18.0463934,31.0604044 19.114095,32.1281049 19.114095,33.4496662 L19.114095,35.8389281 C19.114095,37.1604895 18.0463934,38.22819 16.7248331,38.22819 L14.3355712,38.22819 C13.014011,38.22819 11.9463094,37.1604895 11.9463094,35.8389281 L11.9463094,33.4496662 Z M13.1409403,33.4496662 L13.1409403,35.8389281 C13.1409403,36.4959742 13.678524,37.0335591 14.3355712,37.0335591 L16.7248331,37.0335591 C17.3818804,37.0335591 17.9194641,36.4959742 17.9194641,35.8389281 L17.9194641,33.4496662 C17.9194641,32.7926201 17.3818804,32.2550353 16.7248331,32.2550353 L14.3355712,32.2550353 C13.678524,32.2550353 13.1409403,32.7926201 13.1409403,33.4496662 Z M28.6711425,31.0604044 C29.9927039,31.0604044 31.0604044,32.1281049 31.0604044,33.4496662 L31.0604044,35.8389281 C31.0604044,37.1604895 29.9927039,38.22819 28.6711425,38.22819 L26.2818806,38.22819 C24.9603192,38.22819 23.8926187,37.1604895 23.8926187,35.8389281 L23.8926187,33.4496662 C23.8926187,32.1281049 24.9603192,31.0604044 26.2818806,31.0604044 L28.6711425,31.0604044 Z M28.6711425,32.2550353 L26.2818806,32.2550353 C25.6248345,32.2550353 25.0872497,32.7926201 25.0872497,33.4496662 L25.0872497,35.8389281 C25.0872497,36.4959742 25.6248345,37.0335591 26.2818806,37.0335591 L28.6711425,37.0335591 C29.3281886,37.0335591 29.8657734,36.4959742 29.8657734,35.8389281 L29.8657734,33.4496662 C29.8657734,32.7926201 29.3281886,32.2550353 28.6711425,32.2550353 Z M35.8389281,33.4496662 C35.8389281,32.1281049 36.9066286,31.0604044 38.22819,31.0604044 L40.6174519,31.0604044 C41.9390133,31.0604044 43.0067137,32.1281049 43.0067137,33.4496662 L43.0067137,35.8389281 C43.0067137,37.1604895 41.9390133,38.22819 40.6174519,38.22819 L38.22819,38.22819 C36.9066286,38.22819 35.8389281,37.1604895 35.8389281,35.8389281 L35.8389281,33.4496662 Z M37.0335591,33.4496662 L37.0335591,35.8389281 C37.0335591,36.4959742 37.5711439,37.0335591 38.22819,37.0335591 L40.6174519,37.0335591 C41.274498,37.0335591 41.8120828,36.4959742 41.8120828,35.8389281 L41.8120828,33.4496662 C41.8120828,32.7926201 41.274498,32.2550353 40.6174519,32.2550353 L38.22819,32.2550353 C37.5711439,32.2550353 37.0335591,32.7926201 37.0335591,33.4496662 Z" id="Shape"></path>
            </g>
            <g id="image" transform="translate(399.700258, 61.251856)" fill="#FFA700" fill-rule="nonzero">
                <path d="M34.6442972,0 L3.58389281,0 C1.60453909,0 0,1.60453795 0,3.58389281 L0,29.8657734 C0,31.8443809 1.60453909,33.4496663 3.58389281,33.4496663 L34.6442972,33.4496663 C36.6236521,33.4496663 38.22819,31.8451283 38.22819,29.8657734 L38.22819,3.58389281 C38.22819,1.60453795 36.6229047,0 34.6442972,0 Z M3.58389281,32.2550353 C2.26681225,32.2550353 1.19463094,31.1828551 1.19463094,29.8657734 L1.19463094,26.0347415 L9.13146046,18.0979132 C9.36478681,17.8645868 9.7428131,17.8645868 9.97591502,18.0979132 L15.8766451,23.9986432 L7.62323799,32.2550353 L3.58389167,32.2550353 L3.58389281,32.2550353 Z M37.0335591,29.8657734 C37.0335591,31.1828551 35.9613778,32.2550353 34.644296,32.2550353 L9.31065464,32.2550353 L28.2530212,13.3126687 C28.4863476,13.0793424 28.8643727,13.0793424 29.0974758,13.3126687 L37.0335591,21.2569652 L37.0335591,29.8657734 L37.0335591,29.8657734 Z M37.0335591,19.5695485 L29.938198,12.4741875 C29.238219,11.7765234 28.1044397,11.7765234 27.404087,12.4741875 L16.7248331,23.1534413 L10.7591453,17.2474842 C10.0591663,16.5498201 8.92538703,16.5498201 8.22503428,17.2474842 L1.19463094,24.3480723 L1.19463094,3.58389281 C1.19463094,2.26681111 2.26681225,1.19463094 3.58389281,1.19463094 L34.6442972,1.19463094 C35.9613789,1.19463094 37.0335591,2.26681111 37.0335591,3.58389281 L37.0335591,19.5695485 Z M9.5570475,5.37583922 C7.24767598,5.37583922 5.37583808,7.24991696 5.37583808,9.5570475 C5.37583808,11.864178 7.24767598,13.7382558 9.5570475,13.7382558 C11.8664179,13.7382558 13.7382558,11.864178 13.7382558,9.5570475 C13.7382558,7.24991696 11.864178,5.37583922 9.5570475,5.37583922 Z M9.5570475,12.5436248 C7.90696306,12.5436248 6.57046902,11.2071319 6.57046902,9.5570475 C6.57046902,7.90995028 7.91069537,6.57047016 9.55704636,6.57047016 C11.2033973,6.57047016 12.5436237,7.90696306 12.5436237,9.5570475 C12.5436237,11.2071319 11.2071308,12.5436248 9.55704636,12.5436248 L9.5570475,12.5436248 Z" id="Shape"></path>
            </g>
            <g id="draw-square" transform="translate(279.700258, 57.251856)" fill="#FFA700" fill-rule="nonzero">
                <path d="M7.11850683,30.4630889 C6.83403552,32.1579725 5.35941295,33.4496663 3.58389281,33.4496663 C1.60453909,33.4496663 0,31.8443809 0,29.8657734 C0,28.0887608 1.29169493,26.6178706 2.98657734,26.3341466 L2.98657734,7.11551961 C1.29169493,6.83179567 0,5.36090542 0,3.58389281 C0,1.60453795 1.60453909,0 3.58389281,0 C5.35941295,0 6.83403552,1.29169379 7.11850683,2.98657734 L26.3341466,2.98657734 C26.6178706,1.29169379 28.0887608,0 29.8657734,0 C31.8443809,0 33.4496663,1.60453795 33.4496663,3.58389281 C33.4496663,5.36090542 32.1579725,6.83179567 30.4630889,7.11551961 L30.4630889,26.3341466 C32.1579725,26.6178706 33.4496663,28.0887608 33.4496663,29.8657734 C33.4496663,31.8443809 31.8443809,33.4496663 29.8657734,33.4496663 C28.0887608,33.4496663 26.6178706,32.1579725 26.3341466,30.4630889 L7.11850683,30.4630889 Z M3.58389281,5.97315469 C4.90321322,5.97315469 5.97315469,4.90321208 5.97315469,3.58389281 C5.97315469,2.26457355 4.90321322,1.19463094 3.58389281,1.19463094 C2.26457241,1.19463094 1.19463094,2.26457355 1.19463094,3.58389281 C1.19463094,4.90321208 2.26457241,5.97315469 3.58389281,5.97315469 Z M4.18120828,26.3341466 C5.68196385,26.5805384 6.86614181,27.7677024 7.11850796,29.268458 L26.3341478,29.268458 C26.5805395,27.7677024 27.7677035,26.5805384 29.2684591,26.3341466 L29.2684591,7.11551961 C27.7677035,6.80193036 26.5805395,5.68196385 26.3341478,4.18120828 L7.11850796,4.18120828 C6.86614181,5.68196385 5.68196385,6.80193036 4.18120828,7.11551961 L4.18120828,26.3341466 Z M3.58389281,27.4765116 C2.26457241,27.4765116 1.19463094,28.5442121 1.19463094,29.8657734 C1.19463094,31.1873348 2.26457241,32.2550353 3.58389281,32.2550353 C4.90321322,32.2550353 5.97315469,31.1873348 5.97315469,29.8657734 C5.97315469,28.5442121 4.90321322,27.4765116 3.58389281,27.4765116 Z M29.8657734,27.4765116 C28.5442121,27.4765116 27.4765116,28.5442121 27.4765116,29.8657734 C27.4765116,31.1873348 28.5442121,32.2550353 29.8657734,32.2550353 C31.1873348,32.2550353 32.2550353,31.1873348 32.2550353,29.8657734 C32.2550353,28.5442121 31.1873348,27.4765116 29.8657734,27.4765116 Z M29.8657734,1.19463094 C28.5442121,1.19463094 27.4765116,2.26457355 27.4765116,3.58389281 C27.4765116,4.90321208 28.5442121,5.97315469 29.8657734,5.97315469 C31.1873348,5.97315469 32.2550353,4.90321208 32.2550353,3.58389281 C32.2550353,2.26457355 31.1873348,1.19463094 29.8657734,1.19463094 Z" id="Shape"></path>
            </g>
            <g id="grid-2" transform="translate(494.700258, 57.251856)" fill="#FFA700" fill-rule="nonzero">
                <path d="M0,3.58389281 C0,1.60453795 1.60453909,0 3.58389281,0 L10.7516784,0 C12.7302859,0 14.3355712,1.60453795 14.3355712,3.58389281 L14.3355712,10.7516784 C14.3355712,12.7302859 12.7302859,14.3355713 10.7516784,14.3355713 L3.58389281,14.3355713 C1.60453909,14.3355713 0,12.7302859 0,10.7516784 L0,3.58389281 Z M1.19463094,3.58389281 L1.19463094,10.7516784 C1.19463094,12.0732387 2.26457241,13.1409403 3.58389281,13.1409403 L10.7516784,13.1409403 C12.0732387,13.1409403 13.1409403,12.0732387 13.1409403,10.7516784 L13.1409403,3.58389281 C13.1409403,2.26457355 12.0732387,1.19463094 10.7516784,1.19463094 L3.58389281,1.19463094 C2.26457241,1.19463094 1.19463094,2.26457355 1.19463094,3.58389281 Z M0,22.6979878 C0,20.7193803 1.60453909,19.114095 3.58389281,19.114095 L10.7516784,19.114095 C12.7302859,19.114095 14.3355712,20.7193803 14.3355712,22.6979878 L14.3355712,29.8657734 C14.3355712,31.8443809 12.7302859,33.4496663 10.7516784,33.4496663 L3.58389281,33.4496663 C1.60453909,33.4496663 0,31.8443809 0,29.8657734 L0,22.6979878 Z M1.19463094,22.6979878 L1.19463094,29.8657734 C1.19463094,31.1873348 2.26457241,32.2550353 3.58389281,32.2550353 L10.7516784,32.2550353 C12.0732387,32.2550353 13.1409403,31.1873348 13.1409403,29.8657734 L13.1409403,22.6979878 C13.1409403,21.3764264 12.0732387,20.3087259 10.7516784,20.3087259 L3.58389281,20.3087259 C2.26457241,20.3087259 1.19463094,21.3764264 1.19463094,22.6979878 Z M29.8657734,0 C31.8443809,0 33.4496662,1.60453795 33.4496662,3.58389281 L33.4496662,10.7516784 C33.4496662,12.7302859 31.8443809,14.3355713 29.8657734,14.3355713 L22.6979878,14.3355713 C20.7193803,14.3355713 19.114095,12.7302859 19.114095,10.7516784 L19.114095,3.58389281 C19.114095,1.60453795 20.7193803,0 22.6979878,0 L29.8657734,0 Z M29.8657734,1.19463094 L22.6979878,1.19463094 C21.3764264,1.19463094 20.3087259,2.26457355 20.3087259,3.58389281 L20.3087259,10.7516784 C20.3087259,12.0732387 21.3764264,13.1409403 22.6979878,13.1409403 L29.8657734,13.1409403 C31.1873348,13.1409403 32.2550353,12.0732387 32.2550353,10.7516784 L32.2550353,3.58389281 C32.2550353,2.26457355 31.1873348,1.19463094 29.8657734,1.19463094 Z M19.114095,22.6979878 C19.114095,20.7193803 20.7193803,19.114095 22.6979878,19.114095 L29.8657734,19.114095 C31.8443809,19.114095 33.4496662,20.7193803 33.4496662,22.6979878 L33.4496662,29.8657734 C33.4496662,31.8443809 31.8443809,33.4496663 29.8657734,33.4496663 L22.6979878,33.4496663 C20.7193803,33.4496663 19.114095,31.8443809 19.114095,29.8657734 L19.114095,22.6979878 Z M20.3087259,22.6979878 L20.3087259,29.8657734 C20.3087259,31.1873348 21.3764264,32.2550353 22.6979878,32.2550353 L29.8657734,32.2550353 C31.1873348,32.2550353 32.2550353,31.1873348 32.2550353,29.8657734 L32.2550353,22.6979878 C32.2550353,21.3764264 31.1873348,20.3087259 29.8657734,20.3087259 L22.6979878,20.3087259 C21.3764264,20.3087259 20.3087259,21.3764264 20.3087259,22.6979878 Z" id="Shape"></path>
            </g>
            <g id="signal-bars" transform="translate(609.089519, 54.862594)" fill="#FFA700" fill-rule="nonzero">
                <path d="M4.77852489,28.6711425 L2.38926301,28.6711425 C1.07367492,28.6711425 0,29.7448174 0,31.0604044 L0,35.8389281 C0,37.1545151 1.07367492,38.22819 2.38926188,38.22819 L4.77852375,38.22819 C6.09411184,38.22819 7.16778676,37.1545151 7.16778676,35.8389281 L7.16778676,31.0604044 C7.16778676,29.7463099 6.09261824,28.6711425 4.77852375,28.6711425 L4.77852489,28.6711425 Z M5.97315469,35.8389281 C5.97315469,36.4976171 5.43721271,37.0335591 4.77852261,37.0335591 L2.38926074,37.0335591 C1.73057064,37.0335591 1.19462866,36.4976171 1.19462866,35.8389281 L1.19462866,31.0604044 C1.19462866,30.4017154 1.73057064,29.8657734 2.38926074,29.8657734 L4.77852261,29.8657734 C5.43721271,29.8657734 5.97315469,30.4017154 5.97315469,31.0604044 L5.97315469,35.8389281 Z M16.7248331,19.114095 L14.3355713,19.114095 C13.0214768,19.114095 11.9463094,20.1892624 11.9463094,21.5033569 L11.9463094,35.8389281 C11.9463094,37.1545151 13.0199843,38.22819 14.3355713,38.22819 L16.7248331,38.22819 C18.0404201,38.22819 19.114095,37.1545151 19.114095,35.8389281 L19.114095,21.5033569 C19.114095,20.1892624 18.0389276,19.114095 16.7248331,19.114095 Z M17.9194641,35.8389281 C17.9194641,36.4976171 17.3835221,37.0335591 16.7248331,37.0335591 L14.3355713,37.0335591 C13.6768812,37.0335591 13.1409403,36.4976171 13.1409403,35.8389281 L13.1409403,21.5033569 C13.1409403,20.8446679 13.6768812,20.3087259 14.3355713,20.3087259 L16.7248331,20.3087259 C17.3835221,20.3087259 17.9194641,20.8446679 17.9194641,21.5033569 L17.9194641,35.8389281 Z M28.6711425,9.5570475 L26.2818806,9.5570475 C24.9662937,9.5570475 23.8926187,10.6307224 23.8926187,11.9463094 L23.8926187,35.8389281 C23.8926187,37.1545151 24.9662937,38.22819 26.2818806,38.22819 L28.6711425,38.22819 C29.9867295,38.22819 31.0604044,37.1545151 31.0604044,35.8389281 L31.0604044,11.9463094 C31.0604044,10.6322149 29.985237,9.5570475 28.6711425,9.5570475 Z M29.8657734,35.8389281 C29.8657734,36.4976171 29.3298315,37.0335591 28.6711425,37.0335591 L26.2818806,37.0335591 C25.6231917,37.0335591 25.0872497,36.4976171 25.0872497,35.8389281 L25.0872497,11.9463094 C25.0872497,11.2876181 25.6231917,10.7516784 26.2818806,10.7516784 L28.6711425,10.7516784 C29.3298315,10.7516784 29.8657734,11.2876181 29.8657734,11.9463094 L29.8657734,35.8389281 Z M40.6174519,0 L38.22819,0 C36.912603,0 35.8389281,1.07367492 35.8389281,2.38926187 L35.8389281,35.8389281 C35.8389281,37.1545151 36.912603,38.22819 38.22819,38.22819 L40.6174519,38.22819 C41.9330388,38.22819 43.0067138,37.1545151 43.0067138,35.8389281 L43.0067138,2.38926187 C43.0067138,1.07367492 41.9315441,0 40.6174519,0 Z M41.8120828,35.8389281 C41.8120828,36.4976171 41.2761431,37.0335591 40.6174519,37.0335591 L38.22819,37.0335591 C37.5694988,37.0335591 37.0335591,36.4976171 37.0335591,35.8389281 L37.0335591,2.38926187 C37.0335591,1.73057292 37.5694988,1.19463094 38.22819,1.19463094 L40.6174519,1.19463094 C41.2761431,1.19463094 41.8120828,1.73057292 41.8120828,2.38926187 L41.8120828,35.8389281 Z" id="Shape"></path>
            </g>
            <g id="earth-americas" transform="translate(344.700258, 96.862594)" fill="#FFA700" fill-rule="nonzero">
                <path d="M0,19.114095 C0,8.55654455 8.55654455,0 19.114095,0 C29.6716455,0 38.22819,8.55654455 38.22819,19.114095 C38.22819,29.6716455 29.6716455,38.22819 19.114095,38.22819 C8.55654455,38.22819 0,29.6716455 0,19.114095 Z M19.114095,37.0335591 C27.8647675,37.0335591 35.1445498,30.7617466 36.7199675,22.406797 L32.1355718,21.2196329 C31.172401,20.9583074 30.4033583,20.166864 30.0225692,19.2858223 L28.7831392,15.3734064 C28.2978203,13.91745 28.9921987,12.34203 30.3809576,11.7073823 L34.4576361,9.7885077 C31.3217299,4.66428726 25.6248345,1.19463094 19.114095,1.19463094 C18.8378368,1.19463094 18.5690444,1.20060309 18.3002531,1.21254967 L19.5396832,3.68991503 C20.0772657,4.76433733 19.9130054,6.05677849 19.1290288,6.96917796 L17.5685415,8.79546937 C17.1877524,9.23599135 17.1802866,9.89303745 17.5536088,10.3410241 L18.8901017,11.9388425 C19.4650187,12.6257562 19.5172825,13.6113253 19.017031,14.3579708 C18.449582,15.1195478 17.5610746,15.4406051 16.6949678,15.0896825 L14.8880876,14.5520977 C14.5670314,14.4475679 14.2086419,14.4699675 13.9025173,14.6192963 C13.2678696,14.9403536 13.0065441,15.7168633 13.3276014,16.351511 L13.3798663,16.4560407 C13.4470649,16.7323 13.7307889,16.9488264 14.0070482,17.0832226 L17.4266783,18.8005046 C17.7776021,19.0095652 18.3002531,19.114095 18.7631724,19.114095 L22.406797,19.114095 C23.452099,19.114095 24.5795325,19.5546147 25.363509,20.3385913 L25.6546998,20.6297821 C26.4386764,21.4137586 26.8791961,22.4739945 26.8791961,23.5864941 L26.8791961,24.1987434 C26.8791961,25.699499 26.0728211,27.0882556 24.7736582,27.8348999 L24.0942136,28.215689 C23.1609082,28.7532738 22.4963929,29.6567139 22.2574681,30.7094806 L21.8916128,32.3595651 C21.5929551,33.696058 20.4132557,34.6442972 19.0468975,34.6442972 C17.4341452,34.6442972 16.1275177,33.3376696 16.1275177,31.7249174 L16.1275177,28.8130045 C16.1275177,28.1559584 15.7915277,27.6781064 15.2614098,27.4167809 C14.3281044,26.9463936 13.7382558,25.9906898 13.7382558,24.9453877 L13.7382558,24.1016783 C13.7382558,22.8174514 12.9020144,21.6825511 11.677517,21.301762 L6.5406037,19.6964767 C5.14587149,19.255957 3.98857277,18.2703867 3.33525897,16.9637591 L1.90468815,14.1041111 C1.44251513,15.6944637 1.19462866,17.3744135 1.19462866,19.114095 C1.19462866,29.0145994 9.22105527,37.0335591 19.1140927,37.0335591 L19.114095,37.0335591 Z M2.44749776,12.5212264 L4.4037057,16.4336423 C4.91217031,17.4490779 5.81187696,18.2106549 6.89675223,18.5541117 L12.0359053,20.0921995 C13.7606542,20.6969819 14.9328856,22.2948003 14.9328856,24.1016783 L14.9328856,24.9453877 C14.9328856,25.5352363 15.2688755,26.0802857 15.7989935,26.3416113 C16.7322989,26.8119986 17.3221475,27.7677024 17.3221475,28.8130045 L17.3221475,31.7249174 C17.3221475,32.6806235 18.0911913,33.4496662 19.0468963,33.4496662 C19.8532713,33.4496662 20.5551165,32.889683 20.7268461,32.0982395 L21.0927014,30.455622 C21.398826,29.07433 22.2723985,27.879699 23.5043616,27.1778538 L24.1763415,26.7970648 C25.109647,26.2669468 25.684564,25.2739108 25.684564,24.1987434 L25.684564,23.5864941 C25.684564,22.7950507 25.3709725,22.0334748 24.8109892,21.4734916 L24.5197984,21.1823007 C23.9598151,20.6223175 23.1982393,20.2415284 22.4067958,20.2415284 L18.7631713,20.2415284 C18.1135909,20.2415284 17.4789432,20.0921995 16.8965604,19.8682062 L13.4694622,18.15839 C12.9692107,17.9045314 12.5585564,17.493877 12.3046977,16.9936255 L12.2598986,16.8890947 C11.6401836,15.6645984 12.1404362,14.1713086 13.3723994,13.5515947 C13.954781,13.2604039 14.6416947,13.2081378 15.2688755,13.4171996 L17.0757546,14.0219797 C17.4266772,14.1414433 17.8223989,14.0070482 18.0239927,13.6934567 C18.2330533,13.387332 18.2106538,12.9841445 17.9717278,12.7078875 L16.6352349,11.1026022 C15.8885906,10.206629 15.8363257,8.9000014 16.6576345,8.01895971 L18.2255876,6.19192093 C18.6959726,5.64388426 18.7930366,4.86886708 18.4645135,4.22376756 L17.0160228,1.31633433 C10.3634225,2.09284398 4.82780141,6.5084974 2.44749776,12.5212264 L2.44749776,12.5212264 Z M32.4491622,20.0697988 L36.9066275,21.2868305 C36.9887588,20.5700515 37.0335579,19.8458055 37.0335579,19.114095 C37.0335579,16.1499172 36.3167789,13.3574667 35.0474835,10.8338098 L30.8737422,12.7974835 C30.0449665,13.1708056 29.6268452,14.1190448 29.9180383,14.9926185 L31.2246659,18.9050344 C31.411327,19.4724834 31.8742451,19.9130054 32.4491622,20.0697988 Z" id="Shape"></path>
            </g>
            <g id="file-circle-question" transform="translate(559.700258, 96.862594)" fill="#FFA700" fill-rule="nonzero">
                <path d="M4.77852375,37.0335591 L23.2355726,37.0335591 C23.6686254,37.4442134 24.1315458,37.8250025 24.6168647,38.175924 C24.3854045,38.2057916 24.1390105,38.22819 23.8926187,38.22819 L4.77852375,38.22819 C2.13913557,38.22819 0,36.0853198 0,33.4496662 L0,4.77852375 C0,2.13913557 2.13913557,0 4.77852375,0 L15.2390114,0 C16.1872494,0 17.1056222,0.377578551 17.7776021,1.04978175 L27.6183735,10.8935404 C28.2903534,11.5655203 28.6711425,12.4838942 28.6711425,13.4321311 L28.6711425,14.828357 C28.267955,14.9478194 27.8647675,15.0150181 27.4765116,15.1643469 L27.4765116,13.4321311 C27.4765116,13.3350683 27.4690447,13.2380032 27.4615778,13.1409403 L18.5167795,13.1409403 C16.8666951,13.1409403 15.5302022,11.8044474 15.5302022,10.154363 L15.5302022,1.21254967 C15.4331382,1.20060309 15.3360742,1.19463094 15.2390114,1.19463094 L4.77852375,1.19463094 C2.79917003,1.19463094 1.19463094,2.79916889 1.19463094,4.77852375 L1.19463094,33.4496662 C1.19463094,35.4282737 2.79917003,37.0335591 4.77852375,37.0335591 Z M26.9613274,11.9463094 C26.9015945,11.8716449 26.8418639,11.8044474 26.7746663,11.7447145 L16.9264269,1.89423632 C16.8666951,1.82927862 16.7323,1.76805324 16.7248331,1.71205492 L16.7248331,10.154363 C16.7248331,11.147399 17.5237423,11.9463094 18.5167795,11.9463094 L26.9613274,11.9463094 Z M31.0604044,32.2550353 C31.0604044,31.5979892 31.5979892,31.0604044 32.2550353,31.0604044 C32.9120814,31.0604044 33.4496662,31.5979892 33.4496662,32.2550353 C33.4496662,32.9120814 32.9120814,33.4496662 32.2550353,33.4496662 C31.5979892,33.4496662 31.0604044,32.9120814 31.0604044,32.2550353 Z M27.4765116,23.735823 C27.4765116,22.1081392 28.6786094,20.9060414 30.3062931,20.9060414 L33.5317976,20.9060414 C35.465606,20.9060414 37.0335591,22.406797 37.0335591,24.4078029 C37.0335591,25.781628 36.2271841,27.028525 34.9728202,27.5959751 L32.8523508,28.551679 L32.8523508,29.268458 C32.8523508,29.596981 32.5835584,29.8657734 32.2550353,29.8657734 C31.9265123,29.8657734 31.6577198,29.596981 31.6577198,29.268458 L31.6577198,28.1634253 C31.6577198,27.9319651 31.7921149,27.7154387 32.0086436,27.5586429 L34.4800345,26.5058739 C35.3088102,26.1325518 35.8389281,25.311243 35.8389281,24.4078029 C35.8389281,23.1310406 34.8085599,22.0334748 33.5317976,22.0334748 L30.3062931,22.0334748 C29.402853,22.0334748 28.6711425,22.8323829 28.6711425,23.735823 L28.6711425,23.8254212 C28.6711425,24.2211418 28.4023501,24.4899342 28.073827,24.4899342 C27.745304,24.4899342 27.4765116,24.2211418 27.4765116,23.8254212 L27.4765116,23.735823 Z M43.0067138,27.4765116 C43.0067138,33.412334 38.1908578,38.22819 32.2550353,38.22819 C26.3192128,38.22819 21.5033569,33.412334 21.5033569,27.4765116 C21.5033569,21.5406891 26.3192128,16.7248331 32.2550353,16.7248331 C38.1908578,16.7248331 43.0067138,21.5406891 43.0067138,27.4765116 Z M32.2550353,17.9194641 C26.9762589,17.9194641 22.6979878,22.1977352 22.6979878,27.4765116 C22.6979878,32.7552879 26.9762589,37.0335591 32.2550353,37.0335591 C37.5338117,37.0335591 41.8120828,32.7552879 41.8120828,27.4765116 C41.8120828,22.1977352 37.5338117,17.9194641 32.2550353,17.9194641 Z" id="Shape"></path>
            </g>
            <g id="comment" transform="translate(267.702290, 109.251856)" fill="#FFA700" fill-rule="nonzero">
                <path d="M19.1120636,0 C8.55451319,0 0,6.95125922 0,15.5302022 C0,19.2328112 1.59632595,22.6255632 4.25363287,25.2888446 C3.32032745,29.0511865 0.201593743,32.4021243 0.164261526,32.4394566 C0.00089548103,32.6109605 -0.0433807013,32.8675831 0.0522648757,33.0915764 C0.150433977,33.3152712 0.357328831,33.4496663 0.595284117,33.4496663 C5.54628253,33.4496663 9.25635841,31.0768306 11.0931039,29.6126599 C13.5346307,30.5302864 16.2449499,31.0604044 19.1120636,31.0604044 C29.6696141,31.0604044 38.1589611,24.1098925 38.1589611,15.5302022 C38.1589611,6.95051185 29.6696141,0 19.1120636,0 Z M19.1120636,29.8657734 C16.4898491,29.8657734 13.9333385,29.4040493 11.5112241,28.4934408 L10.8765764,28.2530212 L10.3460859,28.6760688 C8.83786458,29.8789117 5.85576692,31.8149622 1.93140447,32.1897768 C3.00955908,30.8241637 4.72534744,28.3311195 5.40852769,25.5752549 L5.57069863,24.9213442 L5.09501135,24.4441644 C2.54402629,21.8841459 1.19259959,18.8005035 1.19259959,15.5302022 C1.19259959,7.62323913 9.23395886,1.19463094 19.1120636,1.19463094 C28.9901673,1.19463094 37.0315277,7.62547897 37.0315277,15.5302022 C37.0315277,23.4349254 28.9901673,29.8657734 19.1120636,29.8657734 Z" id="Shape"></path>
            </g>
            <g id="paperclip" transform="translate(484.509752, 108.466945)" fill="#FFA700" fill-rule="nonzero">
                <path d="M27.0333763,2.99945757 C24.6291829,0.593022059 20.7316986,0.593022059 18.3275052,2.99945757 L3.98894674,17.3380149 C0.263190818,21.0637708 0.263190818,27.0966561 3.98894674,30.8224109 C7.71768873,34.548168 13.7505752,34.548168 17.47633,30.8224109 L28.8253239,19.473417 C29.064251,19.2419591 29.4375732,19.2419591 29.6765002,19.473417 C29.9079582,19.7123441 29.9079582,20.0856663 29.6765002,20.3245934 L18.3275063,31.6735873 C14.1313643,35.8622602 7.33690081,35.8622602 3.14374594,31.6735873 C-1.04791531,27.4774452 -1.04791531,20.6829818 3.14374594,16.4868408 L17.47633,2.15425564 C20.3509107,-0.718085213 25.0099731,-0.718085213 27.8845538,2.15425564 C30.7516676,5.02659649 30.7516676,9.6849116 27.8845538,12.5594923 L14.1612296,26.2753474 C12.3020856,28.1344913 9.25577652,27.8955665 7.61315898,25.916959 C6.2169343,24.1623448 6.35133051,21.6386856 7.94168317,20.055801 L19.2682764,8.72173858 C19.5072035,8.49028066 19.8805257,8.49028066 20.1194527,8.72173858 C20.3509107,8.96066568 20.3509107,9.33398785 20.1194527,9.57291495 L8.78539036,20.8995082 C7.62809164,22.0568069 7.53102765,23.8935524 8.5464644,25.1703147 C9.74109534,26.6636033 11.9660957,26.7830669 13.3175224,25.4316402 L27.0333775,11.7083159 C29.44504,9.30412253 29.44504,5.40514572 27.0333775,2.99945757 L27.0333763,2.99945757 Z" id="Path"></path>
            </g>
            <g id="check" transform="translate(293.297519, 158.625829)" fill="#FFA700" fill-rule="nonzero">
                <path d="M32.0833633,0.173593441 C32.3148212,0.41252054 32.3148212,0.785842708 32.0833633,1.02476981 L11.7746373,21.3334957 C11.5357114,21.5649537 11.1623892,21.5649537 10.9234633,21.3334957 L0.174770896,10.5818162 C-0.0582569653,10.3428902 -0.0582569653,9.96956804 0.174770896,9.73064208 C0.408470938,9.49918188 0.786272789,9.49918188 1.01997283,9.73064208 L11.2818528,20.0642004 L31.2321881,0.173593441 C31.4711152,-0.0578644803 31.8444373,-0.0578644803 32.0833644,0.173593441 L32.0833633,0.173593441 Z" id="Path"></path>
            </g>
            <g id="chart-column" transform="translate(507.700260, 144.251856)" fill="#FFA700" fill-rule="nonzero">
                <path d="M1.1946298,28.073827 C1.1946298,30.3809576 3.0664677,32.2550353 5.37583922,32.2550353 L37.6308745,32.2550353 C37.9593976,32.2550353 38.22819,32.5238277 38.22819,32.8523508 C38.22819,33.1808738 37.9593976,33.4496663 37.6308745,33.4496663 L5.37583922,33.4496663 C2.40718175,33.4496663 0,31.0454706 0,28.073827 L0,0.597315469 C0,0.267299948 0.267448056,0 0.597315469,0 C0.927332129,0 1.19463094,0.267299948 1.19463094,0.597315469 L1.19463094,28.073827 L1.1946298,28.073827 Z M34.6442972,23.8926187 C34.6442972,25.2141801 33.5765967,26.2818806 32.2550353,26.2818806 C30.9334739,26.2818806 29.8657734,25.2141801 29.8657734,23.8926187 L29.8657734,7.16778562 C29.8657734,5.84622424 30.9334739,4.77852375 32.2550353,4.77852375 C33.5765967,4.77852375 34.6442972,5.84622424 34.6442972,7.16778562 L34.6442972,23.8926187 Z M31.0604044,7.16778562 L31.0604044,23.8926187 C31.0604044,24.5496649 31.5979892,25.0872497 32.2550353,25.0872497 C32.9120814,25.0872497 33.4496663,24.5496649 33.4496663,23.8926187 L33.4496663,7.16778562 C33.4496663,6.51073952 32.9120814,5.97315469 32.2550353,5.97315469 C31.5979892,5.97315469 31.0604044,6.51073952 31.0604044,7.16778562 Z M20.3087259,23.8926187 C20.3087259,25.2141801 19.2410254,26.2818806 17.9194641,26.2818806 C16.5979038,26.2818806 15.5302022,25.2141801 15.5302022,23.8926187 L15.5302022,11.9463094 C15.5302022,10.624748 16.5979038,9.5570475 17.9194641,9.5570475 C19.2410254,9.5570475 20.3087259,10.624748 20.3087259,11.9463094 L20.3087259,23.8926187 Z M16.7248331,11.9463094 L16.7248331,23.8926187 C16.7248331,24.5496649 17.2624168,25.0872497 17.9194641,25.0872497 C18.5765113,25.0872497 19.114095,24.5496649 19.114095,23.8926187 L19.114095,11.9463094 C19.114095,11.2892633 18.5765113,10.7516784 17.9194641,10.7516784 C17.2624168,10.7516784 16.7248331,11.2892633 16.7248331,11.9463094 Z M13.1409403,23.8926187 C13.1409403,25.2141801 12.0732387,26.2818806 10.7516784,26.2818806 C9.43011819,26.2818806 8.36241656,25.2141801 8.36241656,23.8926187 L8.36241656,19.114095 C8.36241656,17.7925336 9.43011819,16.7248331 10.7516784,16.7248331 C12.0732387,16.7248331 13.1409403,17.7925336 13.1409403,19.114095 L13.1409403,23.8926187 Z M9.5570475,19.114095 L9.5570475,23.8926187 C9.5570475,24.5496649 10.0946312,25.0872497 10.7516784,25.0872497 C11.4087257,25.0872497 11.9463094,24.5496649 11.9463094,23.8926187 L11.9463094,19.114095 C11.9463094,18.4570489 11.4087257,17.9194641 10.7516784,17.9194641 C10.0946312,17.9194641 9.5570475,18.4570489 9.5570475,19.114095 Z M25.0872497,14.3355713 C26.4088111,14.3355713 27.4765116,15.4032729 27.4765116,16.7248331 L27.4765116,23.8926187 C27.4765116,25.2141801 26.4088111,26.2818806 25.0872497,26.2818806 C23.7656883,26.2818806 22.6979878,25.2141801 22.6979878,23.8926187 L22.6979878,16.7248331 C22.6979878,15.4032729 23.7656883,14.3355713 25.0872497,14.3355713 Z M23.8926188,16.7248331 L23.8926188,23.8926187 C23.8926188,24.5496649 24.4302036,25.0872497 25.0872497,25.0872497 C25.7442958,25.0872497 26.2818806,24.5496649 26.2818806,23.8926187 L26.2818806,16.7248331 C26.2818806,16.0677859 25.7442958,15.5302022 25.0872497,15.5302022 C24.4302036,15.5302022 23.8926188,16.0677859 23.8926188,16.7248331 Z" id="Shape"></path>
            </g>
            <g id="check-copy-2" transform="translate(590.297519, 158.625829)" fill="#FFA700" fill-rule="nonzero">
                <path d="M32.0833633,0.173593441 C32.3148212,0.41252054 32.3148212,0.785842708 32.0833633,1.02476981 L11.7746373,21.3334957 C11.5357114,21.5649537 11.1623892,21.5649537 10.9234633,21.3334957 L0.174770896,10.5818162 C-0.0582569653,10.3428902 -0.0582569653,9.96956804 0.174770896,9.73064208 C0.408470938,9.49918188 0.786272789,9.49918188 1.01997283,9.73064208 L11.2818528,20.0642004 L31.2321881,0.173593441 C31.4711152,-0.0578644803 31.8444373,-0.0578644803 32.0833644,0.173593441 L32.0833633,0.173593441 Z" id="Path"></path>
            </g>
            <g id="users" transform="translate(94.700260, 56.862594)" fill="#FFA700" fill-rule="nonzero">
                <path d="M41.5507562,14.3355712 L35.838927,14.3355712 C35.3932554,14.3355712 34.9451936,14.3880674 34.5069138,14.4919181 C34.1860809,14.5677777 33.9877717,14.8897305 34.0635572,15.2105633 C34.1365788,15.5302022 34.457635,15.7392628 34.7786911,15.6571315 C35.1296149,15.5750013 35.4880032,15.5302022 35.838927,15.5302022 L41.5507562,15.5302022 C44.328274,15.5302022 46.5906054,17.9418636 46.5906054,20.9060414 C46.5906054,21.2345645 46.3516783,21.5033569 46.0604898,21.5033569 L33.4496651,21.5033569 C33.1194992,21.5033569 32.8523496,21.7705064 32.8523496,22.1006723 C32.8523496,22.4308383 33.1211421,22.6979878 33.4496651,22.6979878 L46.0604898,22.6979878 C47.0087244,22.6979878 47.7852364,21.8916128 47.7852364,20.9060414 C47.7852364,17.2848164 44.9853201,14.3355712 41.5507562,14.3355712 Z M38.2281889,11.9463094 C41.526863,11.9463094 44.2013435,9.27182882 44.2013435,5.97315469 C44.2013435,2.67448056 41.5283577,0 38.2281889,0 C34.9295147,0 32.2550342,2.67448056 32.2550342,5.97315469 C32.2550342,9.27182882 34.92802,11.9463094 38.2281889,11.9463094 Z M38.2281889,1.19463094 C40.8630951,1.19463094 43.0067126,3.33824619 43.0067126,5.97315469 C43.0067126,8.60806319 40.8630951,10.7516784 38.2281889,10.7516784 C35.5932826,10.7516784 33.4496651,8.60806319 33.4496651,5.97315469 C33.4496651,3.33824619 35.5925353,1.19463094 38.2281889,1.19463094 Z M9.55704636,11.9463094 C12.8557205,11.9463094 15.530201,9.27182882 15.530201,5.97315469 C15.530201,2.67448056 12.8572141,0 9.55704636,0 C6.25837109,0 3.58389053,2.67448056 3.58389053,5.97315469 C3.58389053,9.27182882 6.25837109,11.9463094 9.55704636,11.9463094 Z M9.55704636,1.19463094 C12.1919549,1.19463094 14.3355701,3.33824619 14.3355701,5.97315469 C14.3355701,8.60806319 12.1919549,10.7516784 9.55704636,10.7516784 C6.92213786,10.7516784 4.77852261,8.60806319 4.77852261,5.97315469 C4.77852261,3.33824619 6.922139,1.19463094 9.5570475,1.19463094 L9.55704636,1.19463094 Z M14.9328867,22.1006723 C14.9328867,21.7721493 14.6640943,21.5033569 14.3355713,21.5033569 L1.7240015,21.5033569 C1.43281066,21.5033569 1.19463094,21.2345645 1.19463094,20.9060414 C1.19463094,17.9418636 3.4554699,15.5302022 6.23448021,15.5302022 L11.9463094,15.5302022 C12.2997703,15.5302022 12.6556215,15.5722009 13.003558,15.6538469 C13.3276014,15.7392628 13.6486587,15.5302022 13.7233231,15.2091449 C13.7991827,14.888312 13.6007983,14.5663593 13.2799655,14.4904997 C12.775085,14.3878361 12.3270984,14.3355712 11.9463094,14.3355712 L6.23448021,14.3355712 C2.79618281,14.3355712 0,17.2848164 0,20.9060414 C0,21.8916128 0.773523578,22.6979878 1.7240015,22.6979878 L14.3355713,22.6979878 C14.6640943,22.6979878 14.9328867,22.4291954 14.9328867,22.1006723 Z M23.8851519,23.8926188 C28.1716373,23.8926188 31.5830554,20.4162429 31.5830554,16.1275177 C31.5830554,11.8387924 28.108172,8.36241656 23.8851519,8.36241656 C19.5986664,8.36241656 16.1872483,11.8387924 16.1872483,16.1275177 C16.1200508,20.4132557 19.5994138,23.8926188 23.8851519,23.8926188 Z M23.8851519,9.5570475 C27.5063769,9.5570475 30.4526348,12.5047979 30.4526348,16.1275177 C30.4526348,19.7502374 27.5063769,22.6979878 23.8851519,22.6979878 C20.2639268,22.6979878 17.3146817,19.7487427 17.3146817,16.1275177 C17.3146817,12.5062926 20.2639268,9.5570475 23.8851519,9.5570475 Z M27.6183735,26.2818806 L20.166864,26.2818806 C14.3057059,26.2818806 9.5570475,30.7393482 9.5570475,36.2346487 C9.5570475,37.3396837 10.5052856,38.22819 11.677517,38.22819 L36.1077205,38.22819 C37.2799508,38.22819 38.22819,37.3396837 38.22819,36.2346487 C38.22819,30.7393482 33.4795316,26.2818806 27.6183735,26.2818806 Z M36.1077205,37.0335591 L11.677517,37.0335591 C11.1697997,37.0335591 10.7516784,36.6751707 10.7516784,36.2346487 C10.7516784,31.4038612 14.9776858,27.4765116 20.166864,27.4765116 L27.6183735,27.4765116 C32.8105389,27.4765116 37.0335591,31.4061011 37.0335591,36.2346487 C37.0335591,36.6751707 36.6154378,37.0335591 36.1077205,37.0335591 Z" id="Shape"></path>
            </g>
            <g id="chalkboard-user" transform="translate(13.700258, 73.862594)" fill="#FFA700" fill-rule="nonzero">
                <path d="M45.9932911,0 L13.7382558,0 C12.7526855,0 11.9463094,0.80413513 11.9463094,1.79194641 L11.9463094,6.57047016 C11.9463094,6.90048568 12.2151018,7.16778562 12.5436248,7.16778562 C12.8721479,7.16778562 13.1409403,6.90048568 13.1409403,6.57047016 L13.1409403,1.79194641 C13.1409403,1.46297447 13.4092838,1.19463094 13.7382558,1.19463094 L45.9932911,1.19463094 C46.322263,1.19463094 46.5906066,1.46297447 46.5906066,1.79194641 L46.5906066,29.268458 C46.5906066,29.5974299 46.322263,29.8657734 45.9932911,29.8657734 L40.6174519,29.8657734 L40.6174519,25.0872497 C40.6174519,24.4273645 40.0825558,23.8926187 39.4228209,23.8926187 L29.8657734,23.8926187 C29.2060386,23.8926187 28.6711425,24.4273645 28.6711425,25.0872497 L28.6711425,29.8657734 L26.8791961,29.8657734 C26.5502242,29.8657734 26.2818806,30.132923 26.2818806,30.4630889 C26.2818806,30.7932548 26.550673,31.0604044 26.8791961,31.0604044 L45.9932911,31.0604044 C46.9803527,31.0604044 47.7852375,30.2562692 47.7852375,29.268458 L47.7852375,1.79194641 C47.7852375,0.80413513 46.9788625,0 45.9932911,0 Z M39.4228209,29.8657734 L29.8657734,29.8657734 L29.8657734,25.0872497 L39.4228209,25.0872497 L39.4228209,29.8657734 Z M14.3355712,26.2818806 L9.5570475,26.2818806 C4.27901851,26.2818806 0,30.5608991 0,35.8389281 C0,37.1582497 1.06994147,38.22819 2.38926187,38.22819 L21.5033569,38.22819 C22.8226784,38.22819 23.8926187,37.1582497 23.8926187,35.8389281 C23.8926187,30.5601518 19.6143476,26.2818806 14.3355712,26.2818806 Z M21.5033569,37.0335591 L2.38926187,37.0335591 C1.73057178,37.0335591 1.1946298,36.4976171 1.1946298,35.8389281 C1.1946298,31.227652 4.94577135,27.4765116 9.55704636,27.4765116 L14.3355701,27.4765116 C18.9468451,27.4765116 22.6979867,31.227652 22.6979867,35.8389281 C22.6979867,36.4959742 22.1604018,37.0335591 21.5033557,37.0335591 L21.5033569,37.0335591 Z M11.9463082,23.8926187 C15.9050168,23.8926187 19.1140939,20.6835406 19.1140939,16.7248331 C19.1140939,12.7661257 15.9035232,9.5570475 11.9463082,9.5570475 C7.98909326,9.5570475 4.77852261,12.7004206 4.77852261,16.7248331 C4.77852261,20.7492456 7.92189572,23.8926187 11.9463094,23.8926187 L11.9463082,23.8926187 Z M11.9463094,10.7516784 C15.2397576,10.7516784 17.9194641,13.4313861 17.9194641,16.7248331 C17.9194641,20.0182802 15.2397576,22.6979878 11.9463094,22.6979878 C8.65286116,22.6979878 5.97315469,20.0175351 5.97315469,16.7248331 C5.97315469,13.4321311 8.65360854,10.7516784 11.9463105,10.7516784 L11.9463094,10.7516784 Z" id="Shape"></path>
            </g>
        </g>
    </g>
</svg>