<?xml version="1.0" encoding="UTF-8"?>
<svg width="1210px" height="135px" viewBox="0 0 1210 135" version="1.1" xmlns="http://www.w3.org/2000/svg" xmlns:xlink="http://www.w3.org/1999/xlink">
    <title>Artboard</title>
    <g id="Artboard" stroke="none" stroke-width="1" fill="none" fill-rule="evenodd">
        <path d="M252.988,124.153 L-2,124.153 L-2,41.147 C9.18,41.237 19.53,44.841 27.99,50.912 C31.63,48.525 35.98,47.136 40.65,47.136 C52.5,47.136 62.27,56.054 63.61,67.544 C65.44,67.077 67.36,66.829 69.34,66.829 C75.32,66.829 80.77,69.1 84.87,72.826 C90.33,67.026 98.09,63.404 106.68,63.404 C119.95,63.404 131.2,72.025 135.15,83.969 C138.24,83.398 141.42,83.097 144.68,83.097 C154.98,83.097 164.58,86.079 172.67,91.224 C178.03,86.185 185.25,83.097 193.19,83.097 C206.527923,83.097 217.829967,91.8131598 221.709685,103.859837 C228.001779,100.855796 234.75104,98.6565279 241.826,97.395 C246.314,76.982 264.504,61.706 286.265,61.706 C298.32,61.706 309.277,66.395 317.419,74.046 C329.703,66.234 344.28,61.706 359.917,61.706 C364.863,61.706 369.702,62.162 374.398,63.029 C380.387,44.893 397.471,31.803 417.614,31.803 C430.67,31.803 442.44,37.303 450.738,46.111 C456.97,40.452 465.245,37.004 474.326,37.004 C477.327,37.004 480.239,37.381 483.018,38.089 C485.056,20.642 499.886,7.101 517.88,7.101 C524.98,7.101 531.586,9.211 537.11,12.835 C550.118,3.498 566.067,-2 583.301,-2 C590.976,-2 598.396,-0.908 605.415,1.126 L605.207,1.066 L605.879453,0.876667101 C612.637776,-0.997104167 619.758792,-2 627.114,-2 C644.348,-2 660.297,3.498 673.305,12.835 C678.829,9.211 685.435,7.101 692.535,7.101 C710.529,7.101 725.359,20.642 727.397,38.089 C730.176,37.381 733.088,37.004 736.089,37.004 C745.17,37.004 753.445,40.452 759.677,46.111 C767.975,37.303 779.745,31.803 792.801,31.803 C812.944,31.803 830.028,44.893 836.017,63.029 C840.713,62.162 845.552,61.706 850.498,61.706 C866.135,61.706 880.712,66.234 892.996,74.046 C901.138,66.395 912.095,61.706 924.15,61.706 C945.911,61.706 964.101,76.982 968.589,97.395 C975.66396,98.6565279 982.413221,100.855796 988.704474,103.859657 C992.585033,91.8131598 1003.88708,83.097 1017.225,83.097 C1025.165,83.097 1032.385,86.185 1037.745,91.224 C1045.835,86.079 1055.435,83.097 1065.735,83.097 C1068.995,83.097 1072.175,83.398 1075.265,83.969 C1079.215,72.025 1090.465,63.404 1103.735,63.404 C1112.325,63.404 1120.085,67.026 1125.545,72.826 C1129.645,69.1 1135.095,66.829 1141.075,66.829 C1143.055,66.829 1144.975,67.077 1146.805,67.544 C1148.145,56.054 1157.915,47.136 1169.765,47.136 C1174.435,47.136 1178.785,48.525 1182.425,50.912 C1190.71912,44.9600392 1200.82984,41.3792818 1211.75832,41.1563393 L1212.415,41.147 L1212.415,124.153 L957.427,124.153 C957.431293,124.147964 957.435587,124.14293 957.439882,124.137896 L252.975118,124.137896 C252.979413,124.14293 252.983707,124.147964 252.988,124.153 Z" id="01" stroke="#EBE2CF" stroke-width="3" fill="#FFFFFE" transform="translate(605.207500, 61.076500) scale(1, -1) translate(-605.207500, -61.076500) "></path>
    </g>
</svg>