<?xml version="1.0" encoding="UTF-8"?>
<svg width="322px" height="1300px" viewBox="0 0 322 1300" version="1.1" xmlns="http://www.w3.org/2000/svg" xmlns:xlink="http://www.w3.org/1999/xlink">
    <title>01_R</title>
    <defs>
        <rect id="path-1" x="0" y="0" width="322" height="1300"></rect>
    </defs>
    <g id="Page-1" stroke="none" stroke-width="1" fill="none" fill-rule="evenodd">
        <g id="01_R">
            <mask id="mask-2" fill="white">
                <use xlink:href="#path-1"></use>
            </mask>
            <g id="Mask"></g>
            <g id="Group-21-Copy" mask="url(#mask-2)">
                <g transform="translate(-313.753433, 24.092505)" id="Group-Copy">
                    <g id="Group-14" transform="translate(0.000000, 2.831757)" fill="#686874">
                        <path d="M561.556633,267.020429 C553.928433,227.029287 529.857033,202.355182 512.287233,184.337667 C507.307833,179.229121 502.999233,174.817195 499.619433,170.646076 C481.421833,148.242435 474.722433,113.996257 479.693233,68.8535672 C481.972233,48.1097746 486.762433,25.0783165 493.926233,0.395611303 C493.960633,0.266607617 494.003633,0.129003686 494.046633,0 L493.814433,0 C493.788633,0.111803194 493.754233,0.223606389 493.719833,0.335409583 C486.556033,25.026715 481.765833,48.0753736 479.478233,68.8277665 C474.498833,114.030658 481.215433,148.337038 499.447433,170.78368 C502.844433,174.954799 507.144433,179.375325 512.132433,184.483871 C529.685033,202.484185 553.730633,227.132489 561.350233,267.05483 C565.529833,288.968256 564.257033,312.713535 557.660833,335.744993 C550.995833,359.008657 539.196633,380.431869 523.536033,397.692563 C523.458633,397.778565 515.598233,406.370211 501.133033,416.552902 C487.777233,425.95297 465.924633,438.655533 437.587633,445.819538 C403.652033,454.402583 359.465233,448.649019 307.753433,429.203863 L307.753433,429.44467 C343.873433,443.015858 376.321233,449.904654 404.185233,449.904654 C416.216633,449.904654 427.396633,448.614618 437.639233,446.025944 C466.002033,438.861939 487.889033,426.133575 501.253433,416.724906 C515.735833,406.533615 523.613433,397.916169 523.690833,397.830167 C539.377233,380.552273 551.193633,359.10326 557.867233,335.796594 C564.472033,312.739335 565.744833,288.959656 561.556633,267.020429 Z M2029.18963,152.24155 C1966.53863,126.234407 1918.09483,80.2918941 1896.27663,26.1877482 C1892.88823,17.7853082 1890.08463,9.03025801 1887.88303,0 L1887.61643,0 C1889.83523,9.03885825 1892.65603,17.8111089 1896.07023,26.2737507 C1907.34483,54.215949 1925.41343,79.7586788 1949.78583,102.18812 C1972.21463,122.828709 1999.64863,140.209806 2029.10363,152.439355 C2056.40863,163.774479 2085.22723,170.585874 2112.43763,172.142518 C2112.87623,172.168319 2113.31483,172.19412 2113.75343,172.21132 L2113.75343,171.927512 C2086.38823,170.560073 2057.38903,163.946484 2029.18963,152.24155 Z M436.624433,947.119261 C425.736833,928.706134 412.699233,912.778479 397.890033,899.783508 C369.905633,875.221206 338.911233,864.367696 307.753433,859.671962 L307.753433,859.904169 C338.859633,864.582702 369.811033,875.427612 397.743833,899.938313 C412.535833,912.924684 425.556233,928.835138 436.443833,947.231064 C447.219633,965.446384 455.355233,985.166748 460.618433,1005.84174 C471.798433,1049.72019 468.702433,1093.62445 451.906633,1129.46167 C426.734433,1183.1616 362.836433,1234.26426 307.753433,1224.9072 L307.753433,1225.1308 C312.053433,1225.86182 316.473833,1226.21443 320.980233,1226.21443 C342.841433,1226.21443 366.895633,1217.78619 390.098433,1201.77254 C416.534833,1183.54002 439.135633,1157.21466 452.095833,1129.55627 C460.747433,1111.10875 465.795633,1090.70036 467.111433,1068.89014 C468.358433,1048.26675 466.242833,1027.03274 460.824833,1005.79014 C455.553033,985.089345 447.408833,965.351781 436.624433,947.119261 Z M342.179178,478.932652 C334.064684,466.82189 325.024572,455.778535 314.556094,445.192473 C295.049039,425.479183 273.993875,410.748493 251.70399,395.160675 C217.502722,371.24435 182.13894,346.503652 151.345579,301.772829 C122.532441,259.904852 103.834257,209.306211 95.0490226,155.119422 L94.6748987,155.293879 C96.6779366,167.4646 99.1745967,179.452587 102.181517,191.212125 C112.809508,232.867758 129.290939,270.104787 151.173056,301.891235 C181.980955,346.653236 217.367595,371.402254 251.579767,395.341963 C295.668661,426.177138 337.307335,455.298583 365.590823,523.604067 C374.148658,544.276229 414.38847,652.934702 365.992155,762.490882 C336.439993,829.392501 279.35678,884.26055 205.245446,916.978304 C139.697848,945.920977 65.8577832,954.618126 -1.30739863e-12,941.525408 L0.11994249,941.782625 C30.5720206,947.870757 62.4853392,949.339432 95.2224258,946.144295 C133.132792,942.444171 170.177231,932.695097 205.328517,917.176801 C241.157378,901.361525 273.09578,880.35728 300.269153,854.771162 C328.887773,827.827883 351.061522,796.810863 366.185921,762.580824 C377.63216,736.661017 384.995306,708.802013 388.058491,679.759702 C390.564246,656.054112 390.233541,631.393747 387.081763,606.483132 C381.884423,565.464579 370.459963,534.798897 365.789313,523.520999 C358.9744,507.074929 351.250789,492.485479 342.179178,478.932652 Z M1835.26371,1081.29579 C1843.85319,1015.91773 1870.32483,956.186715 1911.80721,908.538217 C1913.18497,906.960294 1946.18573,869.409869 2000.47118,837.822489 C2030.94222,820.082501 2062.19694,807.710531 2093.35592,801.042936 C2132.04355,792.773679 2170.75827,793.298557 2208.42908,802.614921 C2239.25475,810.233443 2268.93635,823.497255 2296.65198,842.041072 C2322.89782,859.587346 2346.22689,881.050382 2365.98583,905.824567 C2367.12944,907.249474 2368.24956,908.680675 2369.36107,910.126773 C2330.06187,859.373989 2272.32243,818.630011 2208.37802,802.823769 C2170.74129,793.517158 2132.05752,792.990285 2093.40084,801.257547 C2062.26535,807.918847 2031.02668,820.280221 2000.57599,838.002165 C1946.32578,869.580102 1913.35397,907.097588 1911.97191,908.682959 C1898.82889,923.775921 1887.28827,940.03236 1877.35527,957.236821 C1842.50807,1017.59394 1827.64225,1089.38801 1834.20976,1161.77914 L1833.76288,1161.52113 C1831.30683,1134.71104 1831.77727,1107.80307 1835.26371,1081.29579 Z M2980.97563,410.434212 C2958.73603,398.772279 2935.01723,388.408983 2910.48143,379.636732 C2887.16683,371.294494 2862.94063,364.328295 2838.48223,358.918741 C2792.26583,348.710249 2745.21523,344.117718 2702.43883,345.631361 C2683.47583,346.30218 2632.58103,349.78528 2569.74943,367.518986 C2531.52243,378.312295 2495.50563,392.580102 2462.71383,409.935398 C2422.47443,431.229607 2386.77583,457.357153 2356.60703,487.587017 C2336.26803,507.969599 2319.24003,529.435812 2302.77103,550.196806 C2284.90883,572.712249 2266.44463,596.001714 2243.81803,617.734535 C2218.47383,642.090431 2190.38623,661.974199 2157.95563,678.503872 C2136.89423,689.245578 2117.67323,698.705849 2095.61423,705.672048 C2069.42723,713.945484 2044.26363,716.869568 2018.67863,714.624904 C1914.53263,705.457042 1819.65743,614.05363 1807.19603,510.867882 C1805.13203,493.736192 1797.89083,405.016058 1858.77023,340.651819 C1913.05343,283.279579 1983.32403,285.575845 2057.72263,288.009715 C2091.91623,289.127747 2127.27943,290.280179 2162.04063,285.550044 C2180.80583,282.995771 2197.71343,278.988057 2213.72663,273.294694 C2231.76083,266.878911 2248.16103,258.536672 2263.85603,247.777765 C2317.40823,211.063316 2359.81483,147.051687 2380.20543,72.1607474 C2381.30623,68.118632 2382.33823,64.0679162 2383.29283,60 L2383.23263,60 C2365.47363,135.647761 2323.34223,206.728792 2263.73563,247.59716 C2198.39283,292.39584 2126.89243,290.056573 2057.73123,287.794708 C1983.28103,285.360839 1912.95883,283.064573 1858.61543,340.505614 C1797.66723,404.938655 1804.90843,493.744793 1806.98103,510.893683 C1813.16443,562.099546 1839.18803,611.516558 1880.24443,650.028458 C1899.75783,668.329781 1921.63623,683.268408 1945.27763,694.431527 C1969.35763,705.809652 1994.04823,712.672648 2018.66143,714.831309 C2044.27223,717.084574 2069.47023,714.16049 2095.68303,705.878454 C2117.75063,698.903654 2136.98883,689.443384 2158.05023,678.701677 C2190.50663,662.154804 2218.60283,642.262436 2243.96423,617.88934 C2266.59943,596.147919 2285.07223,572.849853 2302.94303,550.325809 C2319.40343,529.573416 2336.42283,508.115803 2356.76183,487.733221 C2484.40303,359.830367 2667.11003,347.102003 2702.44743,345.846367 C2745.21523,344.332724 2792.24003,348.925255 2838.43063,359.133747 C2862.88903,364.534701 2887.10663,371.5009 2910.41263,379.843138 C2934.93123,388.606789 2958.64143,398.970085 2980.87243,410.623418 C2981.82703,411.122232 2982.79023,411.629647 2983.75343,412.145661 L2983.75343,411.904854 C2982.83323,411.41464 2981.90443,410.924426 2980.97563,410.434212 Z" id="Fill-13"></path>
                    </g>
                    <path d="M497.476537,2.99968967 C497.476537,4.6568739 496.133449,6 494.476933,6 C492.819796,6 491.476709,4.6568739 491.476709,2.99968967 C491.476709,1.3431261 492.819796,0 494.476933,0 C496.133449,0 497.476537,1.3431261 497.476537,2.99968967" id="Fill-15" fill="#686874"></path>
                    <path d="M402.558347,452.839614 C402.558347,454.496503 401.215274,455.839614 399.558433,455.839614 C397.901591,455.839614 396.558519,454.496503 396.558519,452.839614 C396.558519,451.182725 397.901591,449.839614 399.558433,449.839614 C401.215274,449.839614 402.558347,451.182725 402.558347,452.839614" id="Fill-16" stroke="#FFFFFF" stroke-width="2" fill="#686874"></path>
                    <path d="M386.585747,891.21371 C386.585747,892.868271 385.242627,894.21371 383.585833,894.21371 C381.929039,894.21371 380.585919,892.868271 380.585919,891.21371 C380.585919,889.556616 381.929039,888.21371 383.585833,888.21371 C385.242627,888.21371 386.585747,889.556616 386.585747,891.21371" id="Fill-23" fill="#686874"></path>
                    <path d="M469.975867,1070.87998 C469.975867,1072.53683 468.632752,1073.87998 466.975953,1073.87998 C465.319154,1073.87998 463.976039,1072.53683 463.976039,1070.87998 C463.976039,1069.22313 465.319154,1067.87998 466.975953,1067.87998 C468.632752,1067.87998 469.975867,1069.22313 469.975867,1070.87998" id="Fill-24" stroke="#FFFFFF" stroke-width="2" fill="#686874"></path>
                    <path d="M481.753433,131.907495 C480.099162,131.907495 478.753433,133.253224 478.753433,134.907495 C478.753433,136.561766 480.099162,137.907495 481.753433,137.907495 C483.407704,137.907495 484.753433,136.561766 484.753433,134.907495 C484.753433,133.253224 483.407704,131.907495 481.753433,131.907495 Z M481.753433,138.907495 C479.547669,138.907495 477.753433,137.113259 477.753433,134.907495 C477.753433,132.701957 479.547669,130.907495 481.753433,130.907495 C483.958971,130.907495 485.753433,132.701957 485.753433,134.907495 C485.753433,137.113259 483.958971,138.907495 481.753433,138.907495 L481.753433,138.907495 Z" id="Fill-26" fill="#686874"></path>
                    <path d="M387.753433,690.907495 C384.445139,690.907495 381.753433,688.216015 381.753433,684.907641 C381.753433,681.599266 384.445139,678.907495 387.753433,678.907495 C391.061727,678.907495 393.753433,681.599266 393.753433,684.907641 C393.753433,688.216015 391.061727,690.907495 387.753433,690.907495 L387.753433,690.907495 Z" id="Fill-27" stroke="#686874"></path>
                    <path d="M559.753433,333.907495 C556.445073,333.907495 553.753433,331.215996 553.753433,327.907495 C553.753433,324.598994 556.445073,321.907495 559.753433,321.907495 C563.061934,321.907495 565.753433,324.598994 565.753433,327.907495 C565.753433,331.215996 563.061934,333.907495 559.753433,333.907495 L559.753433,333.907495 Z" id="Fill-36" stroke="#686874"></path>
                </g>
            </g>
        </g>
    </g>
</svg>