<?xml version="1.0" encoding="UTF-8"?>
<svg width="367px" height="339px" viewBox="0 0 367 339" version="1.1" xmlns="http://www.w3.org/2000/svg" xmlns:xlink="http://www.w3.org/1999/xlink">
    <title>02</title>
    <g id="Page-1" stroke="none" stroke-width="1" fill="none" fill-rule="evenodd">
        <g id="02">
            <rect id="Rectangle" x="0" y="0" width="367" height="339"></rect>
            <path d="M98.4979749,241.302193 C93.6014118,240.103231 88.1004617,240.164531 83.6215441,241.332844 C82.7725541,241.552804 81.91347,241.816035 81.0372619,241.767355 C80.1893535,241.720478 79.3881305,241.385129 78.5979029,241.075022 C68.5426895,237.112134 57.2109269,236.470284 46.7732174,239.273873 C42.7712482,240.348432 38.8366936,241.953059 35.6465823,244.597989 C31.0946623,248.371566 28.4029496,253.991365 26.963452,259.726553 C24.9078509,267.917362 25.2355502,276.901468 29.0543827,284.430593 C32.8733954,291.961521 40.4768123,297.75801 48.9025419,298.275457 C48.4041433,301.18542 49.8818545,304.088172 51.7498126,306.374314 C56.2512618,311.882331 63.2360517,315.116825 70.330976,315.610834 C77.4259002,316.104843 84.5774238,313.988178 90.6281445,310.25066 C93.8083419,308.285443 96.8227068,305.736069 98.2614834,302.28522 C98.9127362,300.723865 99.2690957,298.944352 100.496616,297.779645 C101.544966,296.786219 103.026642,296.438249 104.395841,295.978497 C112.981815,293.086563 118.786491,284.198012 119.289216,275.150802 C120.013291,262.115464 116.603632,250.740644 104.590154,243.696513 C102.780237,242.634575 100.700302,241.841276 98.4979749,241.302193" id="Fill-4" fill="#CFC8B3"></path>
        </g>
    </g>
</svg>