<?xml version="1.0" encoding="UTF-8"?>
<svg width="367px" height="339px" viewBox="0 0 367 339" version="1.1" xmlns="http://www.w3.org/2000/svg" xmlns:xlink="http://www.w3.org/1999/xlink">
    <title>01</title>
    <g id="Page-1" stroke="none" stroke-width="1" fill="none" fill-rule="evenodd">
        <g id="01">
            <rect id="Rectangle-Copy-4" x="0" y="0" width="367" height="339"></rect>
            <path d="M114.66916,82.4933692 C126.678312,77.2449778 140.480257,81.145663 153.583182,80.8831533 C195.052646,80.0525336 228.134413,37.6202535 269.518618,40.3977001 C288.409095,41.6655355 305.967504,52.9824809 316.450998,68.7525359 C326.934492,84.5225909 330.629671,104.293575 328.385526,123.098178 C326.921874,135.354641 323.07348,147.251055 321.918061,159.540152 C319.910046,180.908732 326.114342,202.17274 326.858786,223.622452 C327.603229,245.072165 320.713973,269.43725 301.453978,278.900941 C286.026155,286.482352 271.665427,280.253155 255.88611,280.76339 C236.364749,281.394423 215.6393,277.956195 196.527113,282.973808 C172.447162,289.294956 153.986408,309.477193 130.091036,316.461827 C105.200669,323.736736 77.0134822,314.851791 58.7149549,296.474308 C40.8524589,278.533139 24.9588624,242.658013 35.2662492,217.611413 C41.8615131,201.584978 52.7612102,187.63374 65.0834611,175.449395 C76.6704614,163.991639 82.4156539,158.270874 83.225529,142.367401 C84.0018771,127.121283 89.9055117,109.71523 98.4642676,97.1207136 C102.609538,91.0209685 107.91221,85.4462429 114.66916,82.4933692 Z" id="Fill-3" stroke="#F5EDDC" stroke-width="3" fill="#FFFFFF"></path>
            <path d="M68.7571561,296.855094 C131.535372,288.205738 175.691152,281.867642 201.224496,277.840806 C226.757841,273.81397 259.938147,272.857658 300.765413,274.97187 C301.732677,273.871955 302.502356,275.485693 303.07445,279.813084 C303.339589,281.818636 303.556572,284.363803 303.725397,287.448586 L303.725408,287.448586 C304.122861,294.712764 298.890337,301.070856 291.685414,302.078501 C218.532034,312.312823 163.18682,319.371858 125.649701,323.255094 C88.8008256,327.06713 70.6525687,327.335105 71.2049301,324.05902 C71.4200012,322.786303 71.4574735,321.489941 71.3168458,320.206864 L68.7571561,296.855094 L68.7571561,296.855094 Z" id="Rectangle" fill="#FFFFFF"></path>
        </g>
    </g>
</svg>