<?xml version="1.0" encoding="UTF-8"?>
<svg width="219px" height="267px" viewBox="0 0 219 267" version="1.1" xmlns="http://www.w3.org/2000/svg" xmlns:xlink="http://www.w3.org/1999/xlink">
    <title>Group 61</title>
    <g id="Page-1" stroke="none" stroke-width="1" fill="none" fill-rule="evenodd">
        <g id="Group-61" transform="translate(0.588477, 0.500000)">
            <rect id="Rectangle" fill-opacity="0" fill="#D8D8D8" x="0" y="0" width="218" height="266"></rect>
            <path d="M7.44200901,18.4540855 L1.02600901,18.4540855 C0.48600901,18.4540855 0.27900901,18.0080855 0.49700901,17.6130855 C1.30300901,16.1500855 3.38400901,12.5010855 3.85500901,11.7140855 C3.93900901,11.5730855 4.07700901,11.4970855 4.21700901,11.5000855 L4.21700901,11.5070855 C4.26600901,11.5050855 4.31700901,11.5040855 4.33100901,11.5070855 C4.44200901,11.5290855 4.54500901,11.6000855 4.61300901,11.7140855 C5.08400901,12.5010855 7.16500901,16.1500855 7.97200901,17.6130855 C8.18900901,18.0080855 7.98300901,18.4540855 7.44200901,18.4540855 Z M7.44200901,228.453086 L1.02600901,228.453086 C0.48600901,228.453086 0.27900901,228.008086 0.49700901,227.613086 C1.30300901,226.150086 3.38400901,222.501086 3.85500901,221.714086 C3.93900901,221.573086 4.07700901,221.497086 4.21700901,221.499047 L4.21700901,221.507086 C4.26600901,221.505086 4.31700901,221.504086 4.33100901,221.507086 C4.44200901,221.529086 4.54500901,221.600086 4.61300901,221.714086 C5.08400901,222.501086 7.16500901,226.150086 7.97200901,227.613086 C8.18900901,228.008086 7.98300901,228.453086 7.44200901,228.453086 Z M24.808009,254.854086 L18.391009,254.854086 C17.851009,254.854086 17.645009,254.408086 17.862009,254.013086 C18.669009,252.550086 20.750009,248.901086 21.220009,248.115086 C21.305009,247.973086 21.443009,247.897086 21.582009,247.900086 L21.582009,247.907086 C21.631009,247.905086 21.683009,247.904086 21.697009,247.907086 C21.807009,247.929086 21.911009,248.001086 21.979009,248.115086 C22.450009,248.901086 24.531009,252.550086 25.337009,254.013086 C25.555009,254.408086 25.348009,254.854086 24.808009,254.854086 Z M217.579009,254.854086 L211.163009,254.854086 C210.622009,254.854086 210.416009,254.408086 210.633009,254.013086 C211.440009,252.550086 213.521009,248.901086 213.992009,248.115086 C214.076009,247.973086 214.214009,247.897086 214.354009,247.900086 L214.354009,247.907086 C214.403009,247.905086 214.454009,247.904086 214.468009,247.907086 C214.579009,247.929086 214.682009,248.001086 214.750009,248.115086 C215.221009,248.901086 217.302009,252.550086 218.108009,254.013086 C218.326009,254.408086 218.119009,254.854086 217.579009,254.854086 Z M185.573009,254.854086 L179.157009,254.854086 C178.617009,254.854086 178.410009,254.408086 178.628009,254.013086 C179.434009,252.550086 181.515009,248.901086 181.986009,248.115086 C182.070009,247.973086 182.208009,247.897086 182.348009,247.900086 L182.348009,247.907086 C182.397009,247.905086 182.449009,247.904086 182.462009,247.907086 C182.573009,247.929086 182.676009,248.001086 182.744009,248.115086 C183.215009,248.901086 185.296009,252.550086 186.103009,254.013086 C186.320009,254.408086 186.114009,254.854086 185.573009,254.854086 Z M153.414009,254.854086 L146.997009,254.854086 C146.457009,254.854086 146.250009,254.408086 146.468009,254.013086 C147.274009,252.550086 149.356009,248.901086 149.826009,248.115086 C149.911009,247.973086 150.048009,247.897086 150.188009,247.900086 L150.188009,247.907086 C150.237009,247.905086 150.289009,247.904086 150.303009,247.907086 C150.413009,247.929086 150.517009,248.001086 150.585009,248.115086 C151.055009,248.901086 153.136009,252.550086 153.943009,254.013086 C154.160009,254.408086 153.954009,254.854086 153.414009,254.854086 Z M121.133009,254.854086 L114.717009,254.854086 C114.177009,254.854086 113.970009,254.408086 114.188009,254.013086 C114.994009,252.550086 117.075009,248.901086 117.546009,248.115086 C117.630009,247.973086 117.768009,247.897086 117.908009,247.900086 L117.908009,247.907086 C117.957009,247.905086 118.009009,247.904086 118.022009,247.907086 C118.133009,247.929086 118.236009,248.001086 118.304009,248.115086 C118.775009,248.901086 120.856009,252.550086 121.663009,254.013086 C121.880009,254.408086 121.674009,254.854086 121.133009,254.854086 Z M88.974009,254.854086 L82.557009,254.854086 C82.017009,254.854086 81.810009,254.408086 82.028009,254.013086 C82.834009,252.550086 84.915009,248.901086 85.386009,248.115086 C85.471009,247.973086 85.608009,247.897086 85.748009,247.900086 L85.748009,247.907086 C85.797009,247.905086 85.849009,247.904086 85.863009,247.907086 C85.973009,247.929086 86.077009,248.001086 86.145009,248.115086 C86.615009,248.901086 88.696009,252.550086 89.503009,254.013086 C89.720009,254.408086 89.514009,254.854086 88.974009,254.854086 Z M56.968009,254.854086 L50.551009,254.854086 C50.011009,254.854086 49.805009,254.408086 50.022009,254.013086 C50.829009,252.550086 52.910009,248.901086 53.380009,248.115086 C53.465009,247.973086 53.603009,247.897086 53.742009,247.900086 L53.742009,247.907086 C53.791009,247.905086 53.843009,247.904086 53.857009,247.907086 C53.967009,247.929086 54.071009,248.001086 54.139009,248.115086 C54.609009,248.901086 56.691009,252.550086 57.497009,254.013086 C57.714009,254.408086 57.508009,254.854086 56.968009,254.854086 Z M200.214009,228.453086 L193.797009,228.453086 C193.257009,228.453086 193.050009,228.008086 193.268009,227.613086 C194.074009,226.150086 196.155009,222.501086 196.626009,221.714086 C196.710009,221.573086 196.848009,221.497086 196.988009,221.499047 L196.988009,221.507086 C197.037009,221.505086 197.089009,221.504086 197.103009,221.507086 C197.213009,221.529086 197.317009,221.600086 197.385009,221.714086 C197.855009,222.501086 199.936009,226.150086 200.743009,227.613086 C200.960009,228.008086 200.754009,228.453086 200.214009,228.453086 Z M168.208009,228.453086 L161.791009,228.453086 C161.251009,228.453086 161.045009,228.008086 161.262009,227.613086 C162.069009,226.150086 164.150009,222.501086 164.620009,221.714086 C164.705009,221.573086 164.843009,221.497086 164.982009,221.499047 L164.982009,221.507086 C165.031009,221.505086 165.083009,221.504086 165.097009,221.507086 C165.207009,221.529086 165.311009,221.600086 165.379009,221.714086 C165.849009,222.501086 167.931009,226.150086 168.737009,227.613086 C168.955009,228.008086 168.748009,228.453086 168.208009,228.453086 Z M136.048009,228.453086 L129.631009,228.453086 C129.091009,228.453086 128.885009,228.008086 129.102009,227.613086 C129.909009,226.150086 131.990009,222.501086 132.460009,221.714086 C132.545009,221.573086 132.683009,221.497086 132.822009,221.499047 L132.822009,221.507086 C132.871009,221.505086 132.923009,221.504086 132.937009,221.507086 C133.048009,221.529086 133.151009,221.600086 133.219009,221.714086 C133.690009,222.501086 135.771009,226.150086 136.577009,227.613086 C136.795009,228.008086 136.588009,228.453086 136.048009,228.453086 Z M103.768009,228.453086 L97.351009,228.453086 C96.811009,228.453086 96.605009,228.008086 96.822009,227.613086 C97.629009,226.150086 99.710009,222.501086 100.180009,221.714086 C100.265009,221.573086 100.403009,221.497086 100.542009,221.499047 L100.542009,221.507086 C100.591009,221.505086 100.643009,221.504086 100.657009,221.507086 C100.767009,221.529086 100.871009,221.600086 100.939009,221.714086 C101.409009,222.501086 103.491009,226.150086 104.297009,227.613086 C104.515009,228.008086 104.308009,228.453086 103.768009,228.453086 Z M71.608009,228.453086 L65.191009,228.453086 C64.651009,228.453086 64.445009,228.008086 64.662009,227.613086 C65.469009,226.150086 67.550009,222.501086 68.020009,221.714086 C68.105009,221.573086 68.243009,221.497086 68.382009,221.499047 L68.382009,221.507086 C68.431009,221.505086 68.483009,221.504086 68.497009,221.507086 C68.608009,221.529086 68.711009,221.600086 68.779009,221.714086 C69.250009,222.501086 71.331009,226.150086 72.137009,227.613086 C72.355009,228.008086 72.148009,228.453086 71.608009,228.453086 Z M39.602009,228.453086 L33.186009,228.453086 C32.645009,228.453086 32.439009,228.008086 32.657009,227.613086 C33.463009,226.150086 35.544009,222.501086 36.015009,221.714086 C36.099009,221.573086 36.237009,221.497086 36.377009,221.499047 L36.377009,221.507086 C36.426009,221.505086 36.477009,221.504086 36.491009,221.507086 C36.602009,221.529086 36.705009,221.600086 36.773009,221.714086 C37.244009,222.501086 39.325009,226.150086 40.131009,227.613086 C40.349009,228.008086 40.143009,228.453086 39.602009,228.453086 Z M7.44200901,123.574086 L1.02600901,123.574086 C0.48600901,123.574086 0.27900901,123.128086 0.49700901,122.733086 C1.30300901,121.270086 3.38400901,117.621086 3.85500901,116.834086 C3.93900901,116.693086 4.07700901,116.617086 4.21700901,116.620086 L4.21700901,116.627086 C4.26600901,116.625086 4.31700901,116.624086 4.33100901,116.627086 C4.44200901,116.649086 4.54500901,116.720086 4.61300901,116.834086 C5.08400901,117.621086 7.16500901,121.270086 7.97200901,122.733086 C8.18900901,123.128086 7.98300901,123.574086 7.44200901,123.574086 Z M24.808009,202.539086 L18.391009,202.539086 C17.851009,202.539086 17.645009,202.094086 17.862009,201.699086 C18.669009,200.236086 20.750009,196.587086 21.220009,195.800086 C21.305009,195.659086 21.443009,195.583086 21.582009,195.585047 L21.582009,195.593086 C21.631009,195.591086 21.683009,195.590086 21.697009,195.593086 C21.807009,195.615086 21.911009,195.686086 21.979009,195.800086 C22.450009,196.587086 24.531009,200.236086 25.337009,201.699086 C25.555009,202.094086 25.348009,202.539086 24.808009,202.539086 Z M217.579009,202.539086 L211.163009,202.539086 C210.622009,202.539086 210.416009,202.094086 210.633009,201.699086 C211.440009,200.236086 213.521009,196.587086 213.992009,195.800086 C214.076009,195.659086 214.214009,195.583086 214.354009,195.585047 L214.354009,195.593086 C214.403009,195.591086 214.454009,195.590086 214.468009,195.593086 C214.579009,195.615086 214.682009,195.686086 214.750009,195.800086 C215.221009,196.587086 217.302009,200.236086 218.108009,201.699086 C218.326009,202.094086 218.119009,202.539086 217.579009,202.539086 Z M185.573009,202.539086 L179.157009,202.539086 C178.617009,202.539086 178.410009,202.094086 178.628009,201.699086 C179.434009,200.236086 181.515009,196.587086 181.986009,195.800086 C182.070009,195.659086 182.208009,195.583086 182.348009,195.585047 L182.348009,195.593086 C182.397009,195.591086 182.449009,195.590086 182.462009,195.593086 C182.573009,195.615086 182.676009,195.686086 182.744009,195.800086 C183.215009,196.587086 185.296009,200.236086 186.103009,201.699086 C186.320009,202.094086 186.114009,202.539086 185.573009,202.539086 Z M153.414009,202.539086 L146.997009,202.539086 C146.457009,202.539086 146.250009,202.094086 146.468009,201.699086 C147.274009,200.236086 149.356009,196.587086 149.826009,195.800086 C149.911009,195.659086 150.048009,195.583086 150.188009,195.585047 L150.188009,195.593086 C150.237009,195.591086 150.289009,195.590086 150.303009,195.593086 C150.413009,195.615086 150.517009,195.686086 150.585009,195.800086 C151.055009,196.587086 153.136009,200.236086 153.943009,201.699086 C154.160009,202.094086 153.954009,202.539086 153.414009,202.539086 Z M121.133009,202.539086 L114.717009,202.539086 C114.177009,202.539086 113.970009,202.094086 114.188009,201.699086 C114.994009,200.236086 117.075009,196.587086 117.546009,195.800086 C117.630009,195.659086 117.768009,195.583086 117.908009,195.585047 L117.908009,195.593086 C117.957009,195.591086 118.009009,195.590086 118.022009,195.593086 C118.133009,195.615086 118.236009,195.686086 118.304009,195.800086 C118.775009,196.587086 120.856009,200.236086 121.663009,201.699086 C121.880009,202.094086 121.674009,202.539086 121.133009,202.539086 Z M88.974009,202.539086 L82.557009,202.539086 C82.017009,202.539086 81.810009,202.094086 82.028009,201.699086 C82.834009,200.236086 84.915009,196.587086 85.386009,195.800086 C85.471009,195.659086 85.608009,195.583086 85.748009,195.585047 L85.748009,195.593086 C85.797009,195.591086 85.849009,195.590086 85.863009,195.593086 C85.973009,195.615086 86.077009,195.686086 86.145009,195.800086 C86.615009,196.587086 88.696009,200.236086 89.503009,201.699086 C89.720009,202.094086 89.514009,202.539086 88.974009,202.539086 Z M56.968009,202.539086 L50.551009,202.539086 C50.011009,202.539086 49.805009,202.094086 50.022009,201.699086 C50.829009,200.236086 52.910009,196.587086 53.380009,195.800086 C53.465009,195.659086 53.603009,195.583086 53.742009,195.585047 L53.742009,195.593086 C53.791009,195.591086 53.843009,195.590086 53.857009,195.593086 C53.967009,195.615086 54.071009,195.686086 54.139009,195.800086 C54.609009,196.587086 56.691009,200.236086 57.497009,201.699086 C57.714009,202.094086 57.508009,202.539086 56.968009,202.539086 Z M24.808009,149.974086 L18.391009,149.974086 C17.851009,149.974086 17.645009,149.528086 17.862009,149.134086 C18.669009,147.670086 20.750009,144.021086 21.220009,143.235086 C21.305009,143.093086 21.443009,143.018086 21.582009,143.020047 L21.582009,143.027086 C21.631009,143.025086 21.683009,143.024086 21.697009,143.027086 C21.807009,143.049086 21.911009,143.121086 21.979009,143.235086 C22.450009,144.021086 24.531009,147.670086 25.337009,149.134086 C25.555009,149.528086 25.348009,149.974086 24.808009,149.974086 Z M217.579009,149.974086 L211.163009,149.974086 C210.622009,149.974086 210.416009,149.528086 210.633009,149.134086 C211.440009,147.670086 213.521009,144.021086 213.992009,143.235086 C214.076009,143.093086 214.214009,143.018086 214.354009,143.020047 L214.354009,143.027086 C214.403009,143.025086 214.454009,143.024086 214.468009,143.027086 C214.579009,143.049086 214.682009,143.121086 214.750009,143.235086 C215.221009,144.021086 217.302009,147.670086 218.108009,149.134086 C218.326009,149.528086 218.119009,149.974086 217.579009,149.974086 Z M185.573009,149.974086 L179.157009,149.974086 C178.617009,149.974086 178.410009,149.528086 178.628009,149.134086 C179.434009,147.670086 181.515009,144.021086 181.986009,143.235086 C182.070009,143.093086 182.208009,143.018086 182.348009,143.020047 L182.348009,143.027086 C182.397009,143.025086 182.449009,143.024086 182.462009,143.027086 C182.573009,143.049086 182.676009,143.121086 182.744009,143.235086 C183.215009,144.021086 185.296009,147.670086 186.103009,149.134086 C186.320009,149.528086 186.114009,149.974086 185.573009,149.974086 Z M153.414009,149.974086 L146.997009,149.974086 C146.457009,149.974086 146.250009,149.528086 146.468009,149.134086 C147.274009,147.670086 149.356009,144.021086 149.826009,143.235086 C149.911009,143.093086 150.048009,143.018086 150.188009,143.020047 L150.188009,143.027086 C150.237009,143.025086 150.289009,143.024086 150.303009,143.027086 C150.413009,143.049086 150.517009,143.121086 150.585009,143.235086 C151.055009,144.021086 153.136009,147.670086 153.943009,149.134086 C154.160009,149.528086 153.954009,149.974086 153.414009,149.974086 Z M121.133009,149.974086 L114.717009,149.974086 C114.177009,149.974086 113.970009,149.528086 114.188009,149.134086 C114.994009,147.670086 117.075009,144.021086 117.546009,143.235086 C117.630009,143.093086 117.768009,143.018086 117.908009,143.020047 L117.908009,143.027086 C117.957009,143.025086 118.009009,143.024086 118.022009,143.027086 C118.133009,143.049086 118.236009,143.121086 118.304009,143.235086 C118.775009,144.021086 120.856009,147.670086 121.663009,149.134086 C121.880009,149.528086 121.674009,149.974086 121.133009,149.974086 Z M88.974009,149.974086 L82.557009,149.974086 C82.017009,149.974086 81.810009,149.528086 82.028009,149.134086 C82.834009,147.670086 84.915009,144.021086 85.386009,143.235086 C85.471009,143.093086 85.608009,143.018086 85.748009,143.020047 L85.748009,143.027086 C85.797009,143.025086 85.849009,143.024086 85.863009,143.027086 C85.973009,143.049086 86.077009,143.121086 86.145009,143.235086 C86.615009,144.021086 88.696009,147.670086 89.503009,149.134086 C89.720009,149.528086 89.514009,149.974086 88.974009,149.974086 Z M56.968009,149.974086 L50.551009,149.974086 C50.011009,149.974086 49.805009,149.528086 50.022009,149.134086 C50.829009,147.670086 52.910009,144.021086 53.380009,143.235086 C53.465009,143.093086 53.603009,143.018086 53.742009,143.020047 L53.742009,143.027086 C53.791009,143.025086 53.843009,143.024086 53.857009,143.027086 C53.967009,143.049086 54.071009,143.121086 54.139009,143.235086 C54.609009,144.021086 56.691009,147.670086 57.497009,149.134086 C57.714009,149.528086 57.508009,149.974086 56.968009,149.974086 Z M7.44200901,176.139086 L1.02600901,176.139086 C0.48600901,176.139086 0.27900901,175.694086 0.49700901,175.299086 C1.30300901,173.836086 3.38400901,170.187086 3.85500901,169.400086 C3.93900901,169.259086 4.07700901,169.183086 4.21700901,169.185047 L4.21700901,169.192086 C4.26600901,169.191086 4.31700901,169.190086 4.33100901,169.193086 C4.44200901,169.214086 4.54500901,169.286086 4.61300901,169.400086 C5.08400901,170.186086 7.16500901,173.836086 7.97200901,175.299086 C8.18900901,175.694086 7.98300901,176.139086 7.44200901,176.139086 Z M200.214009,176.139086 L193.797009,176.139086 C193.257009,176.139086 193.050009,175.694086 193.268009,175.299086 C194.074009,173.836086 196.155009,170.187086 196.626009,169.400086 C196.710009,169.259086 196.848009,169.183086 196.988009,169.185047 L196.988009,169.192086 C197.037009,169.191086 197.089009,169.190086 197.103009,169.193086 C197.213009,169.214086 197.317009,169.286086 197.385009,169.400086 C197.855009,170.186086 199.936009,173.836086 200.743009,175.299086 C200.960009,175.694086 200.754009,176.139086 200.214009,176.139086 Z M168.208009,176.139086 L161.791009,176.139086 C161.251009,176.139086 161.045009,175.694086 161.262009,175.299086 C162.069009,173.836086 164.150009,170.187086 164.620009,169.400086 C164.705009,169.259086 164.843009,169.183086 164.982009,169.185047 L164.982009,169.192086 C165.031009,169.191086 165.083009,169.190086 165.097009,169.193086 C165.207009,169.214086 165.311009,169.286086 165.379009,169.400086 C165.849009,170.186086 167.931009,173.836086 168.737009,175.299086 C168.955009,175.694086 168.748009,176.139086 168.208009,176.139086 Z M136.048009,176.139086 L129.631009,176.139086 C129.091009,176.139086 128.885009,175.694086 129.102009,175.299086 C129.909009,173.836086 131.990009,170.187086 132.460009,169.400086 C132.545009,169.259086 132.683009,169.183086 132.822009,169.185047 L132.822009,169.192086 C132.871009,169.191086 132.923009,169.190086 132.937009,169.193086 C133.048009,169.214086 133.151009,169.286086 133.219009,169.400086 C133.690009,170.186086 135.771009,173.836086 136.577009,175.299086 C136.795009,175.694086 136.588009,176.139086 136.048009,176.139086 Z M103.768009,176.139086 L97.351009,176.139086 C96.811009,176.139086 96.605009,175.694086 96.822009,175.299086 C97.629009,173.836086 99.710009,170.187086 100.180009,169.400086 C100.265009,169.259086 100.403009,169.183086 100.542009,169.185047 L100.542009,169.192086 C100.591009,169.191086 100.643009,169.190086 100.657009,169.193086 C100.767009,169.214086 100.871009,169.286086 100.939009,169.400086 C101.409009,170.186086 103.491009,173.836086 104.297009,175.299086 C104.515009,175.694086 104.308009,176.139086 103.768009,176.139086 Z M71.608009,176.139086 L65.191009,176.139086 C64.651009,176.139086 64.445009,175.694086 64.662009,175.299086 C65.469009,173.836086 67.550009,170.187086 68.020009,169.400086 C68.105009,169.259086 68.243009,169.183086 68.382009,169.185047 L68.382009,169.192086 C68.431009,169.191086 68.483009,169.190086 68.497009,169.193086 C68.608009,169.214086 68.711009,169.286086 68.779009,169.400086 C69.250009,170.186086 71.331009,173.836086 72.137009,175.299086 C72.355009,175.694086 72.148009,176.139086 71.608009,176.139086 Z M39.602009,176.139086 L33.186009,176.139086 C32.645009,176.139086 32.439009,175.694086 32.657009,175.299086 C33.463009,173.836086 35.544009,170.187086 36.015009,169.400086 C36.099009,169.259086 36.237009,169.183086 36.377009,169.185047 L36.377009,169.192086 C36.426009,169.191086 36.477009,169.190086 36.491009,169.193086 C36.602009,169.214086 36.705009,169.286086 36.773009,169.400086 C37.244009,170.186086 39.325009,173.836086 40.131009,175.299086 C40.349009,175.694086 40.143009,176.139086 39.602009,176.139086 Z M200.214009,123.574086 L193.797009,123.574086 C193.257009,123.574086 193.050009,123.128086 193.268009,122.733086 C194.074009,121.270086 196.155009,117.621086 196.626009,116.834086 C196.710009,116.693086 196.848009,116.617086 196.988009,116.620086 L196.988009,116.627086 C197.037009,116.625086 197.089009,116.624086 197.103009,116.627086 C197.213009,116.649086 197.317009,116.720086 197.385009,116.834086 C197.855009,117.621086 199.936009,121.270086 200.743009,122.733086 C200.960009,123.128086 200.754009,123.574086 200.214009,123.574086 Z M168.208009,123.574086 L161.791009,123.574086 C161.251009,123.574086 161.045009,123.128086 161.262009,122.733086 C162.069009,121.270086 164.150009,117.621086 164.620009,116.834086 C164.705009,116.693086 164.843009,116.617086 164.982009,116.620086 L164.982009,116.627086 C165.031009,116.625086 165.083009,116.624086 165.097009,116.627086 C165.207009,116.649086 165.311009,116.720086 165.379009,116.834086 C165.849009,117.621086 167.931009,121.270086 168.737009,122.733086 C168.955009,123.128086 168.748009,123.574086 168.208009,123.574086 Z M136.048009,123.574086 L129.631009,123.574086 C129.091009,123.574086 128.885009,123.128086 129.102009,122.733086 C129.909009,121.270086 131.990009,117.621086 132.460009,116.834086 C132.545009,116.693086 132.683009,116.617086 132.822009,116.620086 L132.822009,116.627086 C132.871009,116.625086 132.923009,116.624086 132.937009,116.627086 C133.048009,116.649086 133.151009,116.720086 133.219009,116.834086 C133.690009,117.621086 135.771009,121.270086 136.577009,122.733086 C136.795009,123.128086 136.588009,123.574086 136.048009,123.574086 Z M103.768009,123.574086 L97.351009,123.574086 C96.811009,123.574086 96.605009,123.128086 96.822009,122.733086 C97.629009,121.270086 99.710009,117.621086 100.180009,116.834086 C100.265009,116.693086 100.403009,116.617086 100.542009,116.620086 L100.542009,116.627086 C100.591009,116.625086 100.643009,116.624086 100.657009,116.627086 C100.767009,116.649086 100.871009,116.720086 100.939009,116.834086 C101.409009,117.621086 103.491009,121.270086 104.297009,122.733086 C104.515009,123.128086 104.308009,123.574086 103.768009,123.574086 Z M71.608009,123.574086 L65.191009,123.574086 C64.651009,123.574086 64.445009,123.128086 64.662009,122.733086 C65.469009,121.270086 67.550009,117.621086 68.020009,116.834086 C68.105009,116.693086 68.243009,116.617086 68.382009,116.620086 L68.382009,116.627086 C68.431009,116.625086 68.483009,116.624086 68.497009,116.627086 C68.608009,116.649086 68.711009,116.720086 68.779009,116.834086 C69.250009,117.621086 71.331009,121.270086 72.137009,122.733086 C72.355009,123.128086 72.148009,123.574086 71.608009,123.574086 Z M39.602009,123.574086 L33.186009,123.574086 C32.645009,123.574086 32.439009,123.128086 32.657009,122.733086 C33.463009,121.270086 35.544009,117.621086 36.015009,116.834086 C36.099009,116.693086 36.237009,116.617086 36.377009,116.620086 L36.377009,116.627086 C36.426009,116.625086 36.477009,116.624086 36.491009,116.627086 C36.602009,116.649086 36.705009,116.720086 36.773009,116.834086 C37.244009,117.621086 39.325009,121.270086 40.131009,122.733086 C40.349009,123.128086 40.143009,123.574086 39.602009,123.574086 Z M24.808009,97.4190855 L18.391009,97.4190855 C17.851009,97.4190855 17.645009,96.9740855 17.862009,96.5790855 C18.669009,95.1160855 20.750009,91.4670855 21.220009,90.6800855 C21.305009,90.5390855 21.443009,90.4630855 21.582009,90.4650471 L21.582009,90.4730855 C21.631009,90.4710855 21.683009,90.4700855 21.697009,90.4730855 C21.807009,90.4950855 21.911009,90.5660855 21.979009,90.6800855 C22.450009,91.4670855 24.531009,95.1160855 25.337009,96.5790855 C25.555009,96.9740855 25.348009,97.4190855 24.808009,97.4190855 Z M217.579009,97.4190855 L211.163009,97.4190855 C210.622009,97.4190855 210.416009,96.9740855 210.633009,96.5790855 C211.440009,95.1160855 213.521009,91.4670855 213.992009,90.6800855 C214.076009,90.5390855 214.214009,90.4630855 214.354009,90.4650471 L214.354009,90.4730855 C214.403009,90.4710855 214.454009,90.4700855 214.468009,90.4730855 C214.579009,90.4950855 214.682009,90.5660855 214.750009,90.6800855 C215.221009,91.4670855 217.302009,95.1160855 218.108009,96.5790855 C218.326009,96.9740855 218.119009,97.4190855 217.579009,97.4190855 Z M185.573009,97.4190855 L179.157009,97.4190855 C178.617009,97.4190855 178.410009,96.9740855 178.628009,96.5790855 C179.434009,95.1160855 181.515009,91.4670855 181.986009,90.6800855 C182.070009,90.5390855 182.208009,90.4630855 182.348009,90.4650471 L182.348009,90.4730855 C182.397009,90.4710855 182.449009,90.4700855 182.462009,90.4730855 C182.573009,90.4950855 182.676009,90.5660855 182.744009,90.6800855 C183.215009,91.4670855 185.296009,95.1160855 186.103009,96.5790855 C186.320009,96.9740855 186.114009,97.4190855 185.573009,97.4190855 Z M153.414009,97.4190855 L146.997009,97.4190855 C146.457009,97.4190855 146.250009,96.9740855 146.468009,96.5790855 C147.274009,95.1160855 149.356009,91.4670855 149.826009,90.6800855 C149.911009,90.5390855 150.048009,90.4630855 150.188009,90.4650471 L150.188009,90.4730855 C150.237009,90.4710855 150.289009,90.4700855 150.303009,90.4730855 C150.413009,90.4950855 150.517009,90.5660855 150.585009,90.6800855 C151.055009,91.4670855 153.136009,95.1160855 153.943009,96.5790855 C154.160009,96.9740855 153.954009,97.4190855 153.414009,97.4190855 Z M121.133009,97.4190855 L114.717009,97.4190855 C114.177009,97.4190855 113.970009,96.9740855 114.188009,96.5790855 C114.994009,95.1160855 117.075009,91.4670855 117.546009,90.6800855 C117.630009,90.5390855 117.768009,90.4630855 117.908009,90.4650471 L117.908009,90.4730855 C117.957009,90.4710855 118.009009,90.4700855 118.022009,90.4730855 C118.133009,90.4950855 118.236009,90.5660855 118.304009,90.6800855 C118.775009,91.4670855 120.856009,95.1160855 121.663009,96.5790855 C121.880009,96.9740855 121.674009,97.4190855 121.133009,97.4190855 Z M88.974009,97.4190855 L82.557009,97.4190855 C82.017009,97.4190855 81.810009,96.9740855 82.028009,96.5790855 C82.834009,95.1160855 84.915009,91.4670855 85.386009,90.6800855 C85.471009,90.5390855 85.608009,90.4630855 85.748009,90.4650471 L85.748009,90.4730855 C85.797009,90.4710855 85.849009,90.4700855 85.863009,90.4730855 C85.973009,90.4950855 86.077009,90.5660855 86.145009,90.6800855 C86.615009,91.4670855 88.696009,95.1160855 89.503009,96.5790855 C89.720009,96.9740855 89.514009,97.4190855 88.974009,97.4190855 Z M56.968009,97.4190855 L50.551009,97.4190855 C50.011009,97.4190855 49.805009,96.9740855 50.022009,96.5790855 C50.829009,95.1160855 52.910009,91.4670855 53.380009,90.6800855 C53.465009,90.5390855 53.603009,90.4630855 53.742009,90.4650471 L53.742009,90.4730855 C53.791009,90.4710855 53.843009,90.4700855 53.857009,90.4730855 C53.967009,90.4950855 54.071009,90.5660855 54.139009,90.6800855 C54.609009,91.4670855 56.691009,95.1160855 57.497009,96.5790855 C57.714009,96.9740855 57.508009,97.4190855 56.968009,97.4190855 Z M24.808009,44.8540855 L18.391009,44.8540855 C17.851009,44.8540855 17.645009,44.4080855 17.862009,44.0140855 C18.669009,42.5500855 20.750009,38.9010855 21.220009,38.1150855 C21.305009,37.9730855 21.443009,37.8980855 21.582009,37.9000466 L21.582009,37.9070855 C21.631009,37.9050855 21.683009,37.9040855 21.697009,37.9070855 C21.807009,37.9290855 21.911009,38.0010855 21.979009,38.1150855 C22.450009,38.9010855 24.531009,42.5500855 25.337009,44.0140855 C25.555009,44.4080855 25.348009,44.8540855 24.808009,44.8540855 Z M217.579009,44.8540855 L211.163009,44.8540855 C210.622009,44.8540855 210.416009,44.4080855 210.633009,44.0140855 C211.440009,42.5500855 213.521009,38.9010855 213.992009,38.1150855 C214.076009,37.9730855 214.214009,37.8980855 214.354009,37.9000466 L214.354009,37.9070855 C214.403009,37.9050855 214.454009,37.9040855 214.468009,37.9070855 C214.579009,37.9290855 214.682009,38.0010855 214.750009,38.1150855 C215.221009,38.9010855 217.302009,42.5500855 218.108009,44.0140855 C218.326009,44.4080855 218.119009,44.8540855 217.579009,44.8540855 Z M185.573009,44.8540855 L179.157009,44.8540855 C178.617009,44.8540855 178.410009,44.4080855 178.628009,44.0140855 C179.434009,42.5500855 181.515009,38.9010855 181.986009,38.1150855 C182.070009,37.9730855 182.208009,37.8980855 182.348009,37.9000466 L182.348009,37.9070855 C182.397009,37.9050855 182.449009,37.9040855 182.462009,37.9070855 C182.573009,37.9290855 182.676009,38.0010855 182.744009,38.1150855 C183.215009,38.9010855 185.296009,42.5500855 186.103009,44.0140855 C186.320009,44.4080855 186.114009,44.8540855 185.573009,44.8540855 Z M153.414009,44.8540855 L146.997009,44.8540855 C146.457009,44.8540855 146.250009,44.4080855 146.468009,44.0140855 C147.274009,42.5500855 149.356009,38.9010855 149.826009,38.1150855 C149.911009,37.9730855 150.048009,37.8980855 150.188009,37.9000466 L150.188009,37.9070855 C150.237009,37.9050855 150.289009,37.9040855 150.303009,37.9070855 C150.413009,37.9290855 150.517009,38.0010855 150.585009,38.1150855 C151.055009,38.9010855 153.136009,42.5500855 153.943009,44.0140855 C154.160009,44.4080855 153.954009,44.8540855 153.414009,44.8540855 Z M121.133009,44.8540855 L114.717009,44.8540855 C114.177009,44.8540855 113.970009,44.4080855 114.188009,44.0140855 C114.994009,42.5500855 117.075009,38.9010855 117.546009,38.1150855 C117.630009,37.9730855 117.768009,37.8980855 117.908009,37.9000466 L117.908009,37.9070855 C117.957009,37.9050855 118.009009,37.9040855 118.022009,37.9070855 C118.133009,37.9290855 118.236009,38.0010855 118.304009,38.1150855 C118.775009,38.9010855 120.856009,42.5500855 121.663009,44.0140855 C121.880009,44.4080855 121.674009,44.8540855 121.133009,44.8540855 Z M88.974009,44.8540855 L82.557009,44.8540855 C82.017009,44.8540855 81.810009,44.4080855 82.028009,44.0140855 C82.834009,42.5500855 84.915009,38.9010855 85.386009,38.1150855 C85.471009,37.9730855 85.608009,37.8980855 85.748009,37.9000466 L85.748009,37.9070855 C85.797009,37.9050855 85.849009,37.9040855 85.863009,37.9070855 C85.973009,37.9290855 86.077009,38.0010855 86.145009,38.1150855 C86.615009,38.9010855 88.696009,42.5500855 89.503009,44.0140855 C89.720009,44.4080855 89.514009,44.8540855 88.974009,44.8540855 Z M56.968009,44.8540855 L50.551009,44.8540855 C50.011009,44.8540855 49.805009,44.4080855 50.022009,44.0140855 C50.829009,42.5500855 52.910009,38.9010855 53.380009,38.1150855 C53.465009,37.9730855 53.603009,37.8980855 53.742009,37.9000466 L53.742009,37.9070855 C53.791009,37.9050855 53.843009,37.9040855 53.857009,37.9070855 C53.967009,37.9290855 54.071009,38.0010855 54.139009,38.1150855 C54.609009,38.9010855 56.691009,42.5500855 57.497009,44.0140855 C57.714009,44.4080855 57.508009,44.8540855 56.968009,44.8540855 Z M7.44200901,71.0190855 L1.02600901,71.0190855 C0.48600901,71.0190855 0.27900901,70.5740855 0.49700901,70.1790855 C1.30300901,68.7160855 3.38400901,65.0670855 3.85500901,64.2800855 C3.93900901,64.1390855 4.07700901,64.0630855 4.21700901,64.0650471 L4.21700901,64.0720855 C4.26600901,64.0710855 4.31700901,64.0700855 4.33100901,64.0730855 C4.44200901,64.0940855 4.54500901,64.1660855 4.61300901,64.2800855 C5.08400901,65.0660855 7.16500901,68.7160855 7.97200901,70.1790855 C8.18900901,70.5740855 7.98300901,71.0190855 7.44200901,71.0190855 Z M200.214009,71.0190855 L193.797009,71.0190855 C193.257009,71.0190855 193.050009,70.5740855 193.268009,70.1790855 C194.074009,68.7160855 196.155009,65.0670855 196.626009,64.2800855 C196.710009,64.1390855 196.848009,64.0630855 196.988009,64.0650471 L196.988009,64.0720855 C197.037009,64.0710855 197.089009,64.0700855 197.103009,64.0730855 C197.213009,64.0940855 197.317009,64.1660855 197.385009,64.2800855 C197.855009,65.0660855 199.936009,68.7160855 200.743009,70.1790855 C200.960009,70.5740855 200.754009,71.0190855 200.214009,71.0190855 Z M168.208009,71.0190855 L161.791009,71.0190855 C161.251009,71.0190855 161.045009,70.5740855 161.262009,70.1790855 C162.069009,68.7160855 164.150009,65.0670855 164.620009,64.2800855 C164.705009,64.1390855 164.843009,64.0630855 164.982009,64.0650471 L164.982009,64.0720855 C165.031009,64.0710855 165.083009,64.0700855 165.097009,64.0730855 C165.207009,64.0940855 165.311009,64.1660855 165.379009,64.2800855 C165.849009,65.0660855 167.931009,68.7160855 168.737009,70.1790855 C168.955009,70.5740855 168.748009,71.0190855 168.208009,71.0190855 Z M136.048009,71.0190855 L129.631009,71.0190855 C129.091009,71.0190855 128.885009,70.5740855 129.102009,70.1790855 C129.909009,68.7160855 131.990009,65.0670855 132.460009,64.2800855 C132.545009,64.1390855 132.683009,64.0630855 132.822009,64.0650471 L132.822009,64.0720855 C132.871009,64.0710855 132.923009,64.0700855 132.937009,64.0730855 C133.048009,64.0940855 133.151009,64.1660855 133.219009,64.2800855 C133.690009,65.0660855 135.771009,68.7160855 136.577009,70.1790855 C136.795009,70.5740855 136.588009,71.0190855 136.048009,71.0190855 Z M103.768009,71.0190855 L97.351009,71.0190855 C96.811009,71.0190855 96.605009,70.5740855 96.822009,70.1790855 C97.629009,68.7160855 99.710009,65.0670855 100.180009,64.2800855 C100.265009,64.1390855 100.403009,64.0630855 100.542009,64.0650471 L100.542009,64.0720855 C100.591009,64.0710855 100.643009,64.0700855 100.657009,64.0730855 C100.767009,64.0940855 100.871009,64.1660855 100.939009,64.2800855 C101.409009,65.0660855 103.491009,68.7160855 104.297009,70.1790855 C104.515009,70.5740855 104.308009,71.0190855 103.768009,71.0190855 Z M71.608009,71.0190855 L65.191009,71.0190855 C64.651009,71.0190855 64.445009,70.5740855 64.662009,70.1790855 C65.469009,68.7160855 67.550009,65.0670855 68.020009,64.2800855 C68.105009,64.1390855 68.243009,64.0630855 68.382009,64.0650471 L68.382009,64.0720855 C68.431009,64.0710855 68.483009,64.0700855 68.497009,64.0730855 C68.608009,64.0940855 68.711009,64.1660855 68.779009,64.2800855 C69.250009,65.0660855 71.331009,68.7160855 72.137009,70.1790855 C72.355009,70.5740855 72.148009,71.0190855 71.608009,71.0190855 Z M39.602009,71.0190855 L33.186009,71.0190855 C32.645009,71.0190855 32.439009,70.5740855 32.657009,70.1790855 C33.463009,68.7160855 35.544009,65.0670855 36.015009,64.2800855 C36.099009,64.1390855 36.237009,64.0630855 36.377009,64.0650471 L36.377009,64.0720855 C36.426009,64.0710855 36.477009,64.0700855 36.491009,64.0730855 C36.602009,64.0940855 36.705009,64.1660855 36.773009,64.2800855 C37.244009,65.0660855 39.325009,68.7160855 40.131009,70.1790855 C40.349009,70.5740855 40.143009,71.0190855 39.602009,71.0190855 Z M200.214009,18.4540855 L193.797009,18.4540855 C193.257009,18.4540855 193.050009,18.0080855 193.268009,17.6130855 C194.074009,16.1500855 196.155009,12.5010855 196.626009,11.7140855 C196.710009,11.5730855 196.848009,11.4970855 196.988009,11.5000855 L196.988009,11.5070855 C197.037009,11.5050855 197.089009,11.5040855 197.103009,11.5070855 C197.213009,11.5290855 197.317009,11.6000855 197.385009,11.7140855 C197.855009,12.5010855 199.936009,16.1500855 200.743009,17.6130855 C200.960009,18.0080855 200.754009,18.4540855 200.214009,18.4540855 Z M168.208009,18.4540855 L161.791009,18.4540855 C161.251009,18.4540855 161.045009,18.0080855 161.262009,17.6130855 C162.069009,16.1500855 164.150009,12.5010855 164.620009,11.7140855 C164.705009,11.5730855 164.843009,11.4970855 164.982009,11.5000855 L164.982009,11.5070855 C165.031009,11.5050855 165.083009,11.5040855 165.097009,11.5070855 C165.207009,11.5290855 165.311009,11.6000855 165.379009,11.7140855 C165.849009,12.5010855 167.931009,16.1500855 168.737009,17.6130855 C168.955009,18.0080855 168.748009,18.4540855 168.208009,18.4540855 Z M136.048009,18.4540855 L129.631009,18.4540855 C129.091009,18.4540855 128.885009,18.0080855 129.102009,17.6130855 C129.909009,16.1500855 131.990009,12.5010855 132.460009,11.7140855 C132.545009,11.5730855 132.683009,11.4970855 132.822009,11.5000855 L132.822009,11.5070855 C132.871009,11.5050855 132.923009,11.5040855 132.937009,11.5070855 C133.048009,11.5290855 133.151009,11.6000855 133.219009,11.7140855 C133.690009,12.5010855 135.771009,16.1500855 136.577009,17.6130855 C136.795009,18.0080855 136.588009,18.4540855 136.048009,18.4540855 Z M103.768009,18.4540855 L97.351009,18.4540855 C96.811009,18.4540855 96.605009,18.0080855 96.822009,17.6130855 C97.629009,16.1500855 99.710009,12.5010855 100.180009,11.7140855 C100.265009,11.5730855 100.403009,11.4970855 100.542009,11.5000855 L100.542009,11.5070855 C100.591009,11.5050855 100.643009,11.5040855 100.657009,11.5070855 C100.767009,11.5290855 100.871009,11.6000855 100.939009,11.7140855 C101.409009,12.5010855 103.491009,16.1500855 104.297009,17.6130855 C104.515009,18.0080855 104.308009,18.4540855 103.768009,18.4540855 Z M71.608009,18.4540855 L65.191009,18.4540855 C64.651009,18.4540855 64.445009,18.0080855 64.662009,17.6130855 C65.469009,16.1500855 67.550009,12.5010855 68.020009,11.7140855 C68.105009,11.5730855 68.243009,11.4970855 68.382009,11.5000855 L68.382009,11.5070855 C68.431009,11.5050855 68.483009,11.5040855 68.497009,11.5070855 C68.608009,11.5290855 68.711009,11.6000855 68.779009,11.7140855 C69.250009,12.5010855 71.331009,16.1500855 72.137009,17.6130855 C72.355009,18.0080855 72.148009,18.4540855 71.608009,18.4540855 Z M39.602009,18.4540855 L33.186009,18.4540855 C32.645009,18.4540855 32.439009,18.0080855 32.657009,17.6130855 C33.463009,16.1500855 35.544009,12.5010855 36.015009,11.7140855 C36.099009,11.5730855 36.237009,11.4970855 36.377009,11.5000855 L36.377009,11.5070855 C36.426009,11.5050855 36.477009,11.5040855 36.491009,11.5070855 C36.602009,11.5290855 36.705009,11.6000855 36.773009,11.7140855 C37.244009,12.5010855 39.325009,16.1500855 40.131009,17.6130855 C40.349009,18.0080855 40.143009,18.4540855 39.602009,18.4540855 L39.602009,18.4540855 Z" id="Fill-10-Copy-6" fill="#6A4C00"></path>
        </g>
    </g>
</svg>