<?xml version="1.0" encoding="UTF-8"?>
<svg width="654px" height="455px" viewBox="0 0 654 455" version="1.1" xmlns="http://www.w3.org/2000/svg" xmlns:xlink="http://www.w3.org/1999/xlink">
    <title>top_bg_right</title>
    <defs>
        <rect id="path-1" x="0" y="0" width="654" height="455"></rect>
    </defs>
    <g id="Page-1" stroke="none" stroke-width="1" fill="none" fill-rule="evenodd">
        <g id="top_bg_right">
            <mask id="mask-2" fill="white">
                <use xlink:href="#path-1"></use>
            </mask>
            <g id="path-1"></g>
            <g id="Group-79" mask="url(#mask-2)">
                <g transform="translate(41.000000, -229.000000)" id="Group">
                    <path d="M32.9697408,335.704245 C25.5313763,334.089284 19.780708,330.646271 17.8316178,322.89537 C17.1894977,320.335413 16.5473777,317.775457 15.8995751,315.2155 C15.0301559,321.158804 14.8483166,329.363735 8.87034908,332.57945 C6.12571192,334.058031 3.09695083,335.012119 0,335.376366 C5.04035851,337.066335 10.4273482,340.185447 13.132208,344.907019 C15.6779584,349.336511 14.6835247,354.958755 16.9565161,359.2155 C17.9339024,354.566664 17.4508918,350.145696 19.6443285,345.653128 C22.8435639,339.119983 26.9008537,337.388531 33.6743681,335.850285 C33.435704,335.80312 33.2027224,335.754819 32.9697408,335.704245" id="Fill-205-Copy" fill="#E1DDCC" fill-rule="nonzero"></path>
                    <path d="M261.969741,481.704245 C254.531376,480.089284 248.780708,476.646271 246.831618,468.89537 C246.189498,466.335413 245.547378,463.775457 244.899575,461.2155 C244.030156,467.158804 243.848317,475.363735 237.870349,478.57945 C235.125712,480.058031 232.096951,481.012119 229,481.376366 C234.040359,483.066335 239.427348,486.185447 242.132208,490.907019 C244.677958,495.336511 243.683525,500.958755 245.956516,505.2155 C246.933902,500.566664 246.450892,496.145696 248.644329,491.653128 C251.843564,485.119983 255.900854,483.388531 262.674368,481.850285 C262.435704,481.80312 262.202722,481.754819 261.969741,481.704245" id="Fill-205-Copy-Copy" fill="#E1DDCC" fill-rule="nonzero"></path>
                    <g id="Group-47-Copy" transform="translate(469.375823, 601.500000) scale(-1, 1) translate(-469.375823, -601.500000) translate(134.207184, 0.000000)">
                        <ellipse id="Oval" fill="#8F855A" fill-rule="nonzero" opacity="0.1" cx="234.337278" cy="388" rx="161" ry="388"></ellipse>
                        <path d="M462.308476,337.5 C458.311501,337.5 455.07249,340.850159 455.07249,344.982956 C455.07249,345.018969 455.062741,345.08464 455.045681,345.171025 C455.02862,345.08464 455.016434,345.018969 455.016434,344.982956 C455.016434,340.850159 451.777423,337.5 447.780448,337.5 C443.785911,337.5 440.544462,340.850159 440.544462,344.982956 C440.544462,355.683553 455.016434,359.5 455.016434,359.5 C455.016434,359.5 455.02862,359.485877 455.045681,359.460927 C455.062741,359.485877 455.07249,359.5 455.07249,359.5 C455.07249,359.5 469.544462,355.683553 469.544462,344.982956 C469.544462,340.850159 466.30545,337.5 462.308476,337.5" id="Fill-54" fill="#E1DDCC" transform="translate(455.044462, 348.500000) scale(-1, 1) translate(-455.044462, -348.500000) "></path>
                        <g id="Group" transform="translate(147.544462, 511.000000)">
                            <path d="M150.117228,137.723731 C139.184132,147.704163 124.874397,154.155285 109.988469,155.882518 C108.699313,156.032205 107.781674,154.719041 108.416067,153.620688 L110.391027,150.201214 C94.968679,155.200178 78.8993272,158.29695 62.6993136,159.390443 C59.9625961,159.575122 56.8280734,159.57415 55.3045599,156.994478 C54.8306081,156.191612 54.6234118,155.267246 54.6320601,154.339964 C54.6553255,151.926503 55.9180006,149.853241 57.2009491,147.873289 C65.6653439,134.813582 76.13186,123.085506 86.5547253,111.414778 L78.7693445,113.067167 C77.7517935,113.28295 77.003908,112.179737 77.6072605,111.356458 C85.2519884,100.91919 97.8632188,90.7842115 108.977708,83.8470925 L150.117228,137.723731" id="Fill-35" fill="#FFFFFF"></path>
                            <path d="M86.5547253,111.200939 C86.6294168,111.200939 86.7011983,111.240791 86.7399991,111.307859 C86.78559,111.387562 86.7758898,111.488649 86.7138085,111.557661 C76.4587568,123.040794 65.8544978,134.914669 57.3804028,147.989929 C56.0067574,150.109847 54.8680509,152.049946 54.8458643,154.341908 C54.8371073,155.278909 55.0593388,156.158564 55.4885727,156.885615 C56.9441848,159.349619 59.9657002,159.360311 62.6848603,159.176604 C78.8789567,158.083111 94.9075678,154.995087 110.325066,149.997096 C110.408488,149.96988 110.50258,149.997096 110.557871,150.067079 C110.613162,150.136091 110.620922,150.231346 110.576301,150.308134 L108.601341,153.72858 C108.353985,154.156257 108.366596,154.655862 108.635291,155.065071 C108.919507,155.500524 109.430708,155.730887 109.964219,155.669651 C124.802615,153.94825 138.951327,147.568083 149.827192,137.697487 L108.926297,84.1318867 C96.0706218,92.1819385 84.4352315,102.39662 77.778954,111.483789 C77.5180186,111.839539 77.5907701,112.222505 77.7450033,112.462587 C77.9099067,112.719193 78.2542638,112.958304 78.7247236,112.857216 L86.5101043,111.204827 C86.5246546,111.201911 86.540175,111.200939 86.5547253,111.200939 Z M60.9218489,159.675237 C58.6241625,159.675237 56.372843,159.224232 55.1205471,157.103342 C54.6514454,156.309223 54.4087464,155.352781 54.4181668,154.33802 C54.4415331,151.934279 55.6629823,149.853241 57.0215924,147.75665 C65.3937383,134.838854 75.8292138,123.103974 85.959133,111.759836 L78.8139654,113.277118 C78.2513538,113.396673 77.6906822,113.168254 77.3860959,112.694894 C77.0902398,112.236112 77.1086702,111.675272 77.4345969,111.230099 C84.1490756,102.062254 95.8989282,91.7581492 108.865186,83.6643577 C108.958308,83.6060381 109.0815,83.6293659 109.147462,83.7168453 L150.286981,137.593484 C150.353913,137.681936 150.343243,137.807323 150.260791,137.882166 C139.300535,147.887869 125.006319,154.355515 110.01272,156.095384 C109.317215,156.177032 108.650812,155.871826 108.277354,155.300293 C107.918446,154.753061 107.900986,154.084329 108.230793,153.513769 L109.927358,150.575432 C94.6398422,155.484 78.7577042,158.52148 62.7136699,159.604281 C62.1246738,159.644133 61.5215153,159.675237 60.9218489,159.675237 L60.9218489,159.675237 Z" id="Fill-36" fill="#000000"></path>
                            <path d="M95.8242367,113.85837 C95.7621554,113.85837 95.7010441,113.831154 95.6593333,113.78061 C95.5836717,113.689243 95.597252,113.554136 95.6884339,113.47832 L108.500458,102.893309 C108.59067,102.817494 108.726473,102.831101 108.801165,102.922469 C108.875856,103.013836 108.863246,103.148943 108.772064,103.223787 L95.9600395,113.808798 C95.9202687,113.841846 95.8717677,113.85837 95.8242367,113.85837" id="Fill-37" fill="#000000"></path>
                            <path d="M73.4303542,148.693652 C73.373123,148.693652 73.3168619,148.670324 73.274181,148.625613 C73.1936693,148.539105 73.1975494,148.403998 73.2838812,148.322351 C86.1948478,136.187981 99.9254814,124.654304 114.095534,114.041105 C114.190596,113.970149 114.324459,113.989589 114.3943,114.083873 C114.465112,114.179128 114.445711,114.313263 114.351619,114.384219 C100.194177,124.987698 86.4751836,136.511655 73.5768273,148.635333 C73.5351164,148.674212 73.4827353,148.693652 73.4303542,148.693652" id="Fill-38" fill="#000000"></path>
                            <path d="M112.673485,133.779381 C112.607523,133.779381 112.542532,133.748277 112.500821,133.690929 C112.43098,133.594702 112.45232,133.460567 112.548352,133.391555 L123.822895,125.179181 C123.918927,125.109197 124.05182,125.130581 124.121661,125.225836 C124.191502,125.322064 124.170162,125.456199 124.07413,125.52521 L112.799587,133.737585 C112.761756,133.765773 112.717136,133.779381 112.673485,133.779381" id="Fill-39" fill="#000000"></path>
                            <path d="M149.547826,132.085196 L155.428088,157.739998 C155.883997,159.728697 158.278976,160.512124 159.801908,159.167856 C170.217013,149.967936 200.816295,120.273528 196.366813,92.4492367 L149.547826,132.085196" id="Fill-40" fill="#EAE7D9"></path>
                            <path d="M149.785481,132.164899 L155.636642,157.69237 C155.834526,158.556472 156.452429,159.23298 157.290526,159.503194 C158.119893,159.770492 159.005521,159.584842 159.660285,159.006505 C164.975995,154.311776 175.139865,144.647242 183.483007,132.670336 C193.680828,118.031139 197.962496,104.63901 196.21355,92.8594181 L149.785481,132.164899 Z M158.049082,160.051399 C157.752256,160.051399 157.452519,160.005715 157.159573,159.910459 C156.176943,159.594562 155.451368,158.800443 155.219533,157.787625 L149.339272,132.132824 C149.321811,132.055064 149.348972,131.973417 149.410083,131.920929 L196.2281,92.2859418 C196.287271,92.2349661 196.368753,92.2217902 196.440534,92.248034 C196.513286,92.2752499 196.565667,92.3394015 196.577307,92.415217 C198.494067,104.399899 194.206578,118.025307 183.833184,132.915278 C175.464821,144.929121 165.272821,154.62087 159.942561,159.328235 C159.40614,159.802568 158.735856,160.051399 158.049082,160.051399 L158.049082,160.051399 Z" id="Fill-41" fill="#000000"></path>
                            <path d="M113.318548,86.0020025 L89.8770439,74.361406 C88.0601963,73.4593958 87.8526121,70.9312402 89.4997061,69.7454079 C100.772309,61.6370365 136.468076,38.4248549 162.33172,49.1587757 L113.318548,86.0020025" id="Fill-42" fill="#EAE7D9"></path>
                            <path d="M147.408932,46.5790073 C139.428577,46.5790073 130.440372,48.5828695 120.523857,52.5850535 C107.041548,58.0260799 95.3780275,65.7816176 89.6238686,69.9203668 C88.912844,70.4316355 88.5306561,71.2617181 88.6024375,72.1404004 C88.674219,73.0210267 89.1863896,73.7791818 89.9721058,74.1699232 L113.295267,85.7512282 L161.902001,49.214471 C157.529151,47.456912 152.689721,46.5790073 147.408932,46.5790073 Z M113.318548,86.2168131 C113.286537,86.2168131 113.253557,86.2090372 113.223486,86.1944573 L89.7819819,74.5538607 C88.8604629,74.0960517 88.2600205,73.2066775 88.1756287,72.1753922 C88.092207,71.1450788 88.5403563,70.1721131 89.3745735,69.571421 C95.1432826,65.4219799 106.840754,57.6450583 120.363803,52.1874109 C137.12575,45.422918 151.273492,44.3372982 162.414172,48.9608778 C162.484983,48.990232 162.534454,49.0556472 162.544155,49.1320459 C162.553855,49.2084446 162.521844,49.2840657 162.460733,49.3302354 L113.446591,86.1740454 C113.40876,86.2022332 113.364139,86.2168131 113.318548,86.2168131 L113.318548,86.2168131 Z" id="Fill-43" fill="#000000"></path>
                            <path d="M265.786297,0.993766343 L265.763986,0.965481326 C219.821897,-7.64239768 134.044966,60.5620114 110.583091,79.6850155 C107.421796,82.2617708 106.13264,86.5229912 107.345165,90.4381818 C113.606644,110.660511 125.789125,126.157006 143.894549,136.927668 C147.400202,139.013567 151.811853,138.724885 155.025529,136.214225 C178.872502,117.582078 263.584351,48.0222235 265.786297,0.993766343" id="Fill-44" fill="#FFFFFF"></path>
                            <path d="M257.206469,0.427580012 C238.167886,0.427580012 212.21403,10.3784627 179.855132,30.1092544 C158.496261,43.1328036 135.235181,59.8680079 110.717924,79.8512264 C107.60028,82.3920179 106.356714,86.5229912 107.548869,90.3750022 C113.764757,110.45056 126.02969,126.051059 144.004162,136.743962 C147.450643,138.793896 151.725521,138.520766 154.893607,136.045098 C165.683139,127.614997 193.466453,105.192074 218.368807,79.1047352 C232.04318,64.7785201 242.929715,51.3611191 250.724796,39.2258749 C260.023408,24.7496812 265.015131,11.9392902 265.564162,1.14646655 C262.947048,0.667273659 260.15824,0.427580012 257.206469,0.427580012 Z M148.942534,138.540206 C147.171277,138.540206 145.39226,138.067817 143.784937,137.112347 C134.752111,131.738194 127.089922,125.092673 121.009837,117.360463 C114.930721,109.627281 110.264925,100.590656 107.14049,90.5013614 C105.895955,86.4821674 107.194811,82.1704034 110.448259,79.5188046 C134.980065,59.5239222 158.256666,42.7766651 179.632027,29.7431044 C217.203813,6.83418489 246.195772,-2.91977189 265.802787,0.754850291 C265.854198,0.764375829 265.899789,0.792174849 265.9318,0.833095784 L265.95411,0.861380801 C265.986121,0.901815739 266.001641,0.952359411 265.999863,1.00377788 C265.48947,11.9069228 260.471557,24.8446449 251.084673,39.4578898 C243.275042,51.616073 232.371046,65.0545663 218.677274,79.4002213 C193.756489,105.507972 165.953775,127.947419 155.157452,136.383352 C153.326054,137.814127 151.139629,138.540206 148.942534,138.540206 L148.942534,138.540206 Z" id="Fill-45" fill="#000000"></path>
                            <path d="M167.811363,106.488714 C158.710635,113.750479 145.484412,112.196261 138.267463,103.016752 C131.050514,93.8372437 132.577326,80.5092661 141.677084,73.2465292 C150.776842,65.9847643 164.004035,67.5389822 171.220984,76.7184907 C178.437933,85.8979992 176.911121,99.2259768 167.811363,106.488714" id="Fill-46" fill="#EAE7D9"></path>
                            <path d="M154.679232,68.8861655 C150.015376,68.8861655 145.519333,70.4549633 141.810946,73.4146841 C132.816921,80.5918856 131.302719,93.8119719 138.435277,102.884561 C141.896308,107.286721 146.84923,110.064679 152.383195,110.708138 C157.898729,111.348682 163.328901,109.790576 167.677501,106.320559 C176.671526,99.1433574 178.185728,85.923271 171.05317,76.8506819 C167.592139,72.4485224 162.638246,69.6705644 157.104282,69.0271046 C156.293345,68.9328212 155.483379,68.8861655 154.679232,68.8861655 Z M154.810185,111.277727 C153.988578,111.277727 153.162121,111.230099 152.333724,111.133872 C146.686267,110.477776 141.631493,107.641498 138.09965,103.148943 C130.821589,93.8926474 132.366831,80.4033188 141.544191,73.0793463 C145.982032,69.5374013 151.524727,67.9472196 157.153753,68.6013713 C162.80121,69.2574671 167.856954,72.0927727 171.388797,76.5853276 C178.666857,85.8425956 177.121616,99.3319241 167.944256,106.655897 C164.159238,109.676853 159.570073,111.277727 154.810185,111.277727 L154.810185,111.277727 Z" id="Fill-47" fill="#000000"></path>
                            <path d="M163.77414,101.353671 C157.4855,106.372074 148.345001,105.298021 143.358128,98.9547906 C138.370285,92.6105877 139.425667,83.3999754 145.714307,78.3815719 C152.002947,73.3631685 161.143446,74.4372215 166.130319,80.7804524 C171.117192,87.1236833 170.06278,96.3352676 163.77414,101.353671" id="Fill-48" fill="#FFFFFF"></path>
                            <path d="M154.699603,75.434487 C151.491746,75.434487 148.398352,76.5134 145.8472,78.5497268 C139.660412,83.4864828 138.61958,92.5814279 143.525942,98.8216274 C145.906371,101.85036 149.314051,103.761299 153.12041,104.203557 C156.914158,104.644842 160.649705,103.572733 163.641247,101.185516 C169.827065,96.2487601 170.868866,87.1547871 165.962505,80.9136155 C163.582076,77.8848831 160.174396,75.9739435 156.368037,75.5316864 C155.810275,75.4665628 155.252514,75.434487 154.699603,75.434487 Z M154.789814,104.729405 C154.219443,104.729405 153.646161,104.696357 153.070939,104.62929 C149.151088,104.173425 145.641555,102.205138 143.189345,99.0869817 C138.138451,92.6611314 139.210323,83.2979161 145.580444,78.214389 C148.662198,75.755245 152.510267,74.6510601 156.417508,75.1059532 C160.337359,75.5608462 163.846891,77.5301054 166.298132,80.6482612 C171.349996,87.0741116 170.277154,96.4373269 163.907033,101.520854 C161.279248,103.618416 158.093703,104.729405 154.789814,104.729405 L154.789814,104.729405 Z" id="Fill-49" fill="#000000"></path>
                            <path d="M214.855395,69.4129861 C205.754667,76.674751 192.528444,75.1205331 185.311495,65.9419966 C178.094546,56.7624881 179.621357,43.4338301 188.721115,36.1716763 C197.820873,28.9095226 211.048066,30.4636433 218.265015,39.6429574 C225.481964,48.8223687 223.955153,62.1512211 214.855395,69.4129861" id="Fill-50" fill="#EAE7D9"></path>
                            <path d="M201.723264,31.810535 C197.059407,31.810535 192.563364,33.3793328 188.854978,36.339248 C179.860952,43.5165467 178.346751,56.7362442 185.479308,65.8088334 C188.94034,70.2109929 193.893262,72.9899229 199.427226,73.6333827 C204.94276,74.2739266 210.372932,72.7158207 214.721532,69.2448312 C223.715558,62.0676297 225.229759,48.8479322 218.097202,39.7755374 C214.63617,35.3734751 209.682278,32.5948367 204.148314,31.9515713 C203.337377,31.8572879 202.52741,31.810535 201.723264,31.810535 Z M201.854216,74.202971 C201.032609,74.202971 200.206152,74.1553433 199.377755,74.058144 C193.730299,73.4020482 188.675524,70.5667426 185.143681,66.0741877 C177.865621,56.8169197 179.410863,43.3277855 188.588222,36.0040074 C193.026064,32.4620624 198.568758,30.8718807 204.197785,31.525838 C209.845241,32.1823226 214.900986,35.0179198 218.432829,39.5103775 C225.710889,48.7673539 224.164677,62.2571684 214.988288,69.580169 C211.203269,72.6011254 206.613135,74.202971 201.854216,74.202971 L201.854216,74.202971 Z" id="Fill-51" fill="#000000"></path>
                            <path d="M210.818171,64.2779433 C204.529532,69.2963468 195.389033,68.2222938 190.40216,61.8790629 C185.414317,55.535832 186.469699,46.3250253 192.758338,41.3065246 C199.046978,36.2879268 208.187477,37.3619798 213.17435,43.7054051 C218.161223,50.0488304 217.106811,59.2595399 210.818171,64.2779433" id="Fill-52" fill="#FFFFFF"></path>
                            <path d="M201.743634,38.3589537 C198.535778,38.3589537 195.442384,39.4380612 192.891231,41.4740964 C186.704443,46.4113384 185.663612,55.5057002 190.569973,61.7468718 C192.950402,64.7746321 196.358083,66.6865437 200.164441,67.1288009 C203.95722,67.569114 207.693737,66.497977 210.685279,64.1107604 C216.871096,59.1730324 217.912898,50.0790594 213.006537,43.837985 C210.626107,40.8098359 207.218427,38.8984103 203.412068,38.4560559 C202.854307,38.3911267 202.296545,38.3589537 201.743634,38.3589537 Z M201.833846,67.6546495 C201.263474,67.6546495 200.690192,67.6216017 200.11497,67.5545341 C196.195119,67.0986691 192.685587,65.1303818 190.234346,62.011254 C185.182482,55.5863757 186.254354,46.2225772 192.624476,41.1388557 C195.706229,38.6801977 199.554299,37.5762072 203.461539,38.0302255 C207.38139,38.4859933 210.890923,40.4543778 213.342164,43.5728252 C218.394028,49.9984811 217.321186,59.3615992 210.951064,64.4460983 C208.32328,66.5426887 205.137734,67.6546495 201.833846,67.6546495 L201.833846,67.6546495 Z" id="Fill-53" fill="#000000"></path>
                            <path d="M240.928563,45.8527336 C240.890732,45.8527336 240.851932,45.8425276 240.817011,45.8208522 C229.176771,38.6283904 220.041122,27.0130657 215.749753,13.9529695 C215.712892,13.8406071 215.774004,13.7193995 215.886526,13.6824637 C215.998078,13.6452363 216.119331,13.7065691 216.156192,13.8189316 C220.41652,26.7844528 229.486207,38.3157 241.041086,45.4560629 C241.141968,45.5181733 241.173008,45.6501701 241.110927,45.7509658 C241.070186,45.8166726 241.000345,45.8527336 240.928563,45.8527336" id="Fill-54" fill="#000000"></path>
                            <path d="M0.249714979,163.963673 C0.138162676,163.963673 0.0439737305,163.876194 0.0365045762,163.763442 C-0.423478923,156.861315 3.50306516,149.754097 9.58489676,146.481395 C15.5237474,143.285479 23.3684934,143.824936 28.8448385,147.758594 C28.4603226,142.952085 31.2053822,137.993946 35.5122712,135.825428 C39.9151921,133.609282 45.6774021,134.444225 49.2848096,137.802463 C53.3551107,135.215988 58.9149745,131.802346 64.2937355,128.501455 C69.7355479,125.160713 75.3626341,121.707219 79.4435084,119.111024 C79.5424504,119.046872 79.6753432,119.077261 79.7383945,119.177119 C79.8014458,119.276263 79.7716594,119.409426 79.6724331,119.472606 C75.5886488,122.070745 69.9605926,125.52521 64.5168402,128.866925 C59.0778408,132.205723 53.4529857,135.658245 49.3735664,138.253468 C49.2907267,138.306928 49.1822785,138.296236 49.111079,138.227224 C45.6389893,134.894258 40.0008449,134.045707 35.7044322,136.208393 C31.4081164,138.372051 28.722616,143.411838 29.3191783,148.192103 C29.3297515,148.277639 29.2882347,148.36123 29.2134461,148.40497 C29.1391426,148.447738 29.0455356,148.441906 28.9772462,148.389418 C23.6174975,144.292465 15.7263846,143.662613 9.78743694,146.858528 C3.84829529,150.055415 0.0140971135,156.994478 0.46331339,163.735255 C0.47107355,163.852866 0.38192871,163.954925 0.264071276,163.962701 C0.259318178,163.963673 0.254565079,163.963673 0.249714979,163.963673" id="Fill-55" fill="#000000"></path>
                            <path d="M132.662687,166 C132.611276,166 132.560835,165.999028 132.509424,165.997084 C132.391082,165.993196 132.29893,165.893081 132.30281,165.775469 C132.30766,165.656886 132.409512,165.564547 132.524945,165.569407 C133.716129,165.616062 134.914104,165.075634 135.814283,164.092948 C136.714461,163.110263 137.14612,161.867083 136.998677,160.682222 C136.852204,159.497362 136.129539,158.398037 135.016926,157.666126 C133.904313,156.933243 132.609336,156.706768 131.466653,157.041134 C131.371591,157.069322 131.270709,157.028498 131.221238,156.942963 C131.172737,156.857427 131.188257,156.748564 131.260038,156.680524 L138.177251,150.093323 C138.263583,150.011676 138.398416,150.015564 138.479898,150.101099 C138.561379,150.186634 138.557499,150.322714 138.472137,150.404361 L132.086496,156.485154 C133.145757,156.373374 134.267101,156.659141 135.251671,157.30746 C136.470016,158.108383 137.260582,159.319487 137.423546,160.628763 C137.585539,161.93901 137.114109,163.307577 136.129539,164.382602 C135.182799,165.416804 133.927594,166 132.662687,166" id="Fill-56" fill="#000000"></path>
                        </g>
                        <g id="Group-2" transform="translate(44.544462, 409.218178)" fill="#738A99">
                            <path d="M422.857492,254.433016 C422.374322,254.433016 421.987786,254.042427 421.987786,253.563641 C421.987786,253.084854 422.374322,252.694265 422.857492,252.694265 C423.33646,252.694265 423.722996,253.084854 423.722996,253.563641 C423.722996,254.042427 423.33646,254.433016 422.857492,254.433016" id="Fill-3"></path>
                            <path d="M424.420441,245.378072 C423.941472,245.378072 423.550735,244.991683 423.550735,244.512896 C423.550735,244.02991 423.941472,243.643521 424.420441,243.643521 C424.899409,243.643521 425.290146,244.02991 425.290146,244.512896 C425.290146,244.991683 424.899409,245.378072 424.420441,245.378072" id="Fill-4"></path>
                            <path d="M425.441399,236.251729 C424.962431,236.251729 424.571694,235.86114 424.571694,235.382354 C424.571694,234.903567 424.962431,234.512978 425.441399,234.512978 C425.920367,234.512978 426.311105,234.903567 426.311105,235.382354 C426.311105,235.86114 425.920367,236.251729 425.441399,236.251729" id="Fill-5"></path>
                            <path d="M426.428746,227.116987 C425.949778,227.116987 425.559041,226.730598 425.559041,226.247612 C425.559041,225.768825 425.949778,225.382436 426.428746,225.382436 C426.907714,225.382436 427.298451,225.768825 427.298451,226.247612 C427.298451,226.730598 426.907714,227.116987 426.428746,227.116987" id="Fill-6"></path>
                            <path d="M427.420294,217.986445 C426.937124,217.986445 426.550589,217.595856 426.550589,217.11707 C426.550589,216.638283 426.937124,216.247694 427.420294,216.247694 C427.899262,216.247694 428.285798,216.638283 428.285798,217.11707 C428.285798,217.595856 427.899262,217.986445 427.420294,217.986445" id="Fill-7"></path>
                            <path d="M428.184963,208.834903 C427.705994,208.834903 427.315257,208.448514 427.315257,207.965528 C427.315257,207.486742 427.705994,207.100352 428.184963,207.100352 C428.663931,207.100352 429.054668,207.486742 429.054668,207.965528 C429.054668,208.448514 428.663931,208.834903 428.184963,208.834903" id="Fill-8"></path>
                            <path d="M428.500073,199.653963 C428.021105,199.653963 427.630368,199.267574 427.630368,198.784587 C427.630368,198.305801 428.021105,197.919412 428.500073,197.919412 C428.979041,197.919412 429.369779,198.305801 429.369779,198.784587 C429.369779,199.267574 428.979041,199.653963 428.500073,199.653963" id="Fill-9"></path>
                            <path d="M428.815184,190.473022 C428.336216,190.473022 427.94968,190.086633 427.94968,189.603646 C427.94968,189.12486 428.336216,188.738471 428.815184,188.738471 C429.298354,188.738471 429.684889,189.12486 429.684889,189.603646 C429.684889,190.086633 429.298354,190.473022 428.815184,190.473022" id="Fill-10"></path>
                            <path d="M429.134496,181.292081 C428.655528,181.292081 428.264791,180.905692 428.264791,180.422706 C428.264791,179.943919 428.655528,179.55753 429.134496,179.55753 C429.613464,179.55753 430,179.943919 430,180.422706 C430,180.905692 429.613464,181.292081 429.134496,181.292081" id="Fill-11"></path>
                            <path d="M428.916019,172.11534 C428.437051,172.11534 428.050515,171.724751 428.050515,171.245965 C428.050515,170.767178 428.437051,170.376589 428.916019,170.376589 C429.399189,170.376589 429.785725,170.767178 429.785725,171.245965 C429.785725,171.724751 429.399189,172.11534 428.916019,172.11534" id="Fill-12"></path>
                            <path d="M428.49167,162.938599 C428.012702,162.938599 427.621965,162.54801 427.621965,162.069224 C427.621965,161.590437 428.012702,161.199848 428.49167,161.199848 C428.970639,161.199848 429.361376,161.590437 429.361376,162.069224 C429.361376,162.54801 428.970639,162.938599 428.49167,162.938599" id="Fill-13"></path>
                            <path d="M428.06312,153.761858 C427.584152,153.761858 427.197616,153.37127 427.197616,152.892483 C427.197616,152.413697 427.584152,152.023108 428.06312,152.023108 C428.54629,152.023108 428.932825,152.413697 428.932825,152.892483 C428.932825,153.37127 428.54629,153.761858 428.06312,153.761858" id="Fill-14"></path>
                            <path d="M427.09678,144.635516 C426.617812,144.635516 426.231277,144.244927 426.231277,143.766141 C426.231277,143.287354 426.617812,142.896765 427.09678,142.896765 C427.575749,142.896765 427.966486,143.287354 427.966486,143.766141 C427.966486,144.244927 427.575749,144.635516 427.09678,144.635516" id="Fill-15"></path>
                            <path d="M425.853144,135.534373 C425.374176,135.534373 424.983438,135.143784 424.983438,134.664998 C424.983438,134.186211 425.374176,133.795622 425.853144,133.795622 C426.332112,133.795622 426.722849,134.186211 426.722849,134.664998 C426.722849,135.143784 426.332112,135.534373 425.853144,135.534373" id="Fill-16"></path>
                            <path d="M424.609507,126.42903 C424.130539,126.42903 423.739802,126.042641 423.739802,125.563855 C423.739802,125.080868 424.130539,124.694479 424.609507,124.694479 C425.088475,124.694479 425.479212,125.080868 425.479212,125.563855 C425.479212,126.042641 425.088475,126.42903 424.609507,126.42903" id="Fill-17"></path>
                            <path d="M422.71044,117.453884 C422.231472,117.453884 421.840735,117.067495 421.840735,116.584508 C421.840735,116.105722 422.231472,115.719333 422.71044,115.719333 C423.189408,115.719333 423.580146,116.105722 423.580146,116.584508 C423.580146,117.067495 423.189408,117.453884 422.71044,117.453884" id="Fill-18"></path>
                            <path d="M420.496263,108.537535 C420.017294,108.537535 419.626557,108.151146 419.626557,107.67236 C419.626557,107.189373 420.017294,106.802984 420.496263,106.802984 C420.975231,106.802984 421.361767,107.189373 421.361767,107.67236 C421.361767,108.151146 420.975231,108.537535 420.496263,108.537535" id="Fill-19"></path>
                            <path d="M418.282085,99.6211872 C417.798915,99.6211872 417.41238,99.2347981 417.41238,98.7560116 C417.41238,98.2772251 417.798915,97.8866361 418.282085,97.8866361 C418.761053,97.8866361 419.147589,98.2772251 419.147589,98.7560116 C419.147589,99.2347981 418.761053,99.6211872 418.282085,99.6211872" id="Fill-20"></path>
                            <path d="M415.185598,90.986231 C414.70663,90.986231 414.315892,90.5998419 414.315892,90.1168555 C414.315892,89.638069 414.70663,89.25168 415.185598,89.25168 C415.664566,89.25168 416.055303,89.638069 416.055303,90.1168555 C416.055303,90.5998419 415.664566,90.986231 415.185598,90.986231" id="Fill-21"></path>
                            <path d="M411.837022,82.4310725 C411.358054,82.4310725 410.971518,82.0446834 410.971518,81.565897 C410.971518,81.0829106 411.358054,80.6965215 411.837022,80.6965215 C412.31599,80.6965215 412.706727,81.0829106 412.706727,81.565897 C412.706727,82.0446834 412.31599,82.4310725 411.837022,82.4310725" id="Fill-22"></path>
                            <path d="M408.488446,73.8759141 C408.009478,73.8759141 407.622942,73.489525 407.622942,73.0107385 C407.622942,72.5277522 408.009478,72.1413631 408.488446,72.1413631 C408.967414,72.1413631 409.358151,72.5277522 409.358151,73.0107385 C409.358151,73.489525 408.967414,73.8759141 408.488446,73.8759141" id="Fill-23"></path>
                            <path d="M403.908838,65.9171388 C403.42987,65.9171388 403.043334,65.5265498 403.043334,65.0477634 C403.043334,64.5689769 403.42987,64.1783879 403.908838,64.1783879 C404.387806,64.1783879 404.778543,64.5689769 404.778543,65.0477634 C404.778543,65.5265498 404.387806,65.9171388 403.908838,65.9171388" id="Fill-24"></path>
                            <path d="M399.283013,57.9793629 C398.804045,57.9793629 398.417509,57.588774 398.417509,57.1099875 C398.417509,56.631201 398.804045,56.240612 399.283013,56.240612 C399.766183,56.240612 400.152719,56.631201 400.152719,57.1099875 C400.152719,57.588774 399.766183,57.9793629 399.283013,57.9793629" id="Fill-25"></path>
                            <path d="M394.367287,50.2473813 C393.884117,50.2473813 393.497582,49.8609922 393.497582,49.3822057 C393.497582,48.8992193 393.884117,48.5128302 394.367287,48.5128302 C394.846255,48.5128302 395.232791,48.8992193 395.232791,49.3822057 C395.232791,49.8609922 394.846255,50.2473813 394.367287,50.2473813" id="Fill-26"></path>
                            <path d="M388.401192,43.2587786 C387.922224,43.2587786 387.531487,42.8723895 387.531487,42.3894031 C387.531487,41.9106166 387.922224,41.5242276 388.401192,41.5242276 C388.88016,41.5242276 389.270897,41.9106166 389.270897,42.3894031 C389.270897,42.8723895 388.88016,43.2587786 388.401192,43.2587786" id="Fill-27"></path>
                            <path d="M382.439298,36.2701759 C381.96033,36.2701759 381.569593,35.8795869 381.569593,35.4008004 C381.569593,34.922014 381.96033,34.5356249 382.439298,34.5356249 C382.918267,34.5356249 383.304802,34.922014 383.304802,35.4008004 C383.304802,35.8795869 382.918267,36.2701759 382.439298,36.2701759" id="Fill-28"></path>
                            <path d="M375.859788,29.9199552 C375.38082,29.9199552 374.990083,29.5293662 374.990083,29.0505797 C374.990083,28.5717933 375.38082,28.1812043 375.859788,28.1812043 C376.338756,28.1812043 376.729493,28.5717933 376.729493,29.0505797 C376.729493,29.5293662 376.338756,29.9199552 375.859788,29.9199552" id="Fill-29"></path>
                            <path d="M368.645855,24.2291159 C368.162685,24.2291159 367.776149,23.8427268 367.776149,23.3597404 C367.776149,22.8809539 368.162685,22.4945649 368.645855,22.4945649 C369.124823,22.4945649 369.511359,22.8809539 369.511359,23.3597404 C369.511359,23.8427268 369.124823,24.2291159 368.645855,24.2291159" id="Fill-30"></path>
                            <path d="M361.42772,18.5382766 C360.948752,18.5382766 360.562216,18.1518875 360.562216,17.673101 C360.562216,17.1901146 360.948752,16.8037255 361.42772,16.8037255 C361.91089,16.8037255 362.297425,17.1901146 362.297425,17.673101 C362.297425,18.1518875 361.91089,18.5382766 361.42772,18.5382766" id="Fill-31"></path>
                            <path d="M353.491133,13.9940049 C353.012165,13.9940049 352.625629,13.6034159 352.625629,13.1246294 C352.625629,12.6458429 353.012165,12.255254 353.491133,12.255254 C353.974303,12.255254 354.360838,12.6458429 354.360838,13.1246294 C354.360838,13.6034159 353.974303,13.9940049 353.491133,13.9940049" id="Fill-32"></path>
                            <path d="M345.247838,9.93271955 C344.76887,9.93271955 344.378133,9.54633046 344.378133,9.06754398 C344.378133,8.58455761 344.76887,8.19816852 345.247838,8.19816852 C345.726806,8.19816852 346.117544,8.58455761 346.117544,9.06754398 C346.117544,9.54633046 345.726806,9.93271955 345.247838,9.93271955" id="Fill-33"></path>
                            <path d="M336.899507,6.1696258 C336.420538,6.1696258 336.029801,5.78323671 336.029801,5.30025035 C336.029801,4.82146386 336.420538,4.43507477 336.899507,4.43507477 C337.378475,4.43507477 337.769212,4.82146386 337.769212,5.30025035 C337.769212,5.78323671 337.378475,6.1696258 336.899507,6.1696258" id="Fill-34"></path>
                            <path d="M327.93776,4.13688319 C327.458791,4.13688319 327.068054,3.7504941 327.068054,3.27170762 C327.068054,2.78872126 327.458791,2.40233217 327.93776,2.40233217 C328.416728,2.40233217 328.807465,2.78872126 328.807465,3.27170762 C328.807465,3.7504941 328.416728,4.13688319 327.93776,4.13688319" id="Fill-35"></path>
                            <path d="M318.976013,2.10834047 C318.497044,2.10834047 318.106307,1.7177515 318.106307,1.23896502 C318.106307,0.760178536 318.497044,0.369589565 318.976013,0.369589565 C319.454981,0.369589565 319.845718,0.760178536 319.845718,1.23896502 C319.845718,1.7177515 319.454981,2.10834047 318.976013,2.10834047" id="Fill-36"></path>
                            <path d="M309.833602,1.73455102 C309.354634,1.73455102 308.963897,1.34816193 308.963897,0.865175572 C308.963897,0.38638909 309.354634,0 309.833602,0 C310.31257,0 310.703307,0.38638909 310.703307,0.865175572 C310.703307,1.34816193 310.31257,1.73455102 309.833602,1.73455102" id="Fill-37"></path>
                            <path d="M300.644975,1.81014889 C300.166007,1.81014889 299.77527,1.4237598 299.77527,0.944973318 C299.77527,0.466186837 300.166007,0.0755978655 300.644975,0.0755978655 C301.123944,0.0755978655 301.514681,0.466186837 301.514681,0.944973318 C301.514681,1.4237598 301.123944,1.81014889 300.644975,1.81014889" id="Fill-38"></path>
                            <path d="M291.561386,2.83491996 C291.082417,2.83491996 290.69168,2.44433098 290.69168,1.9655445 C290.69168,1.48675802 291.082417,1.09616905 291.561386,1.09616905 C292.040354,1.09616905 292.431091,1.48675802 292.431091,1.9655445 C292.431091,2.44433098 292.040354,2.83491996 291.561386,2.83491996" id="Fill-39"></path>
                            <path d="M282.582833,4.79626458 C282.103864,4.79626458 281.713127,4.4056756 281.713127,3.92688912 C281.713127,3.44810264 282.103864,3.05751367 282.582833,3.05751367 C283.061801,3.05751367 283.452538,3.44810264 283.452538,3.92688912 C283.452538,4.4056756 283.061801,4.79626458 282.582833,4.79626458" id="Fill-40"></path>
                            <path d="M273.696712,7.05580078 C273.217744,7.05580078 272.827007,6.66521181 272.827007,6.18642532 C272.827007,5.70763884 273.217744,5.31704987 273.696712,5.31704987 C274.17568,5.31704987 274.566418,5.70763884 274.566418,6.18642532 C274.566418,6.66521181 274.17568,7.05580078 273.696712,7.05580078" id="Fill-41"></path>
                            <path d="M265.192926,10.5333026 C264.713958,10.5333026 264.32322,10.1427136 264.32322,9.66392714 C264.32322,9.18514065 264.713958,8.79455168 265.192926,8.79455168 C265.671894,8.79455168 266.05843,9.18514065 266.05843,9.66392714 C266.05843,10.1427136 265.671894,10.5333026 265.192926,10.5333026" id="Fill-42"></path>
                            <path d="M256.684938,14.0108044 C256.20597,14.0108044 255.819434,13.6202154 255.819434,13.1414289 C255.819434,12.6626425 256.20597,12.2762534 256.684938,12.2762534 C257.163906,12.2762534 257.554644,12.6626425 257.554644,13.1414289 C257.554644,13.6202154 257.163906,14.0108044 256.684938,14.0108044" id="Fill-43"></path>
                            <path d="M248.647516,18.4332795 C248.164346,18.4332795 247.77781,18.0426906 247.77781,17.5639041 C247.77781,17.0851176 248.164346,16.6945286 248.647516,16.6945286 C249.126484,16.6945286 249.51302,17.0851176 249.51302,17.5639041 C249.51302,18.0426906 249.126484,18.4332795 248.647516,18.4332795" id="Fill-44"></path>
                            <path d="M240.706727,23.0615489 C240.227759,23.0615489 239.841223,22.6751598 239.841223,22.1921734 C239.841223,21.7133869 240.227759,21.3269978 240.706727,21.3269978 C241.189897,21.3269978 241.576433,21.7133869 241.576433,22.1921734 C241.576433,22.6751598 241.189897,23.0615489 240.706727,23.0615489" id="Fill-45"></path>
                            <path d="M232.99702,28.0258087 C232.51385,28.0258087 232.127314,27.6394196 232.127314,27.1606331 C232.127314,26.6776467 232.51385,26.2912577 232.99702,26.2912577 C233.475988,26.2912577 233.862524,26.6776467 233.862524,27.1606331 C233.862524,27.6394196 233.475988,28.0258087 232.99702,28.0258087" id="Fill-46"></path>
                            <path d="M225.682251,33.5906516 C225.199082,33.5906516 224.812546,33.2000626 224.812546,32.7212761 C224.812546,32.2424896 225.199082,31.8519007 225.682251,31.8519007 C226.161219,31.8519007 226.547755,32.2424896 226.547755,32.7212761 C226.547755,33.2000626 226.161219,33.5906516 225.682251,33.5906516" id="Fill-47"></path>
                            <path d="M218.367483,39.1512946 C217.884313,39.1512946 217.497777,38.7607056 217.497777,38.2819191 C217.497777,37.8031326 217.884313,37.4125436 218.367483,37.4125436 C218.846451,37.4125436 219.232986,37.8031326 219.232986,38.2819191 C219.232986,38.7607056 218.846451,39.1512946 218.367483,39.1512946" id="Fill-48"></path>
                            <path d="M211.250183,44.9471309 C210.771215,44.9471309 210.384679,44.5607418 210.384679,44.0777555 C210.384679,43.598969 210.771215,43.2125799 211.250183,43.2125799 C211.733353,43.2125799 212.119889,43.598969 212.119889,44.0777555 C212.119889,44.5607418 211.733353,44.9471309 211.250183,44.9471309" id="Fill-49"></path>
                            <path d="M204.565636,51.246953 C204.082466,51.246953 203.69593,50.8605639 203.69593,50.3817775 C203.69593,49.8987911 204.082466,49.512402 204.565636,49.512402 C205.044604,49.512402 205.43114,49.8987911 205.43114,50.3817775 C205.43114,50.8605639 205.044604,51.246953 204.565636,51.246953" id="Fill-50"></path>
                            <path d="M197.876887,57.5467751 C197.397919,57.5467751 197.007182,57.1603861 197.007182,56.6815996 C197.007182,56.2028131 197.397919,55.8122241 197.876887,55.8122241 C198.355855,55.8122241 198.742391,56.2028131 198.742391,56.6815996 C198.742391,57.1603861 198.355855,57.5467751 197.876887,57.5467751" id="Fill-51"></path>
                            <path d="M191.318384,63.9767936 C190.839416,63.9767936 190.448678,63.5862046 190.448678,63.1074181 C190.448678,62.6286317 190.839416,62.2380427 191.318384,62.2380427 C191.797352,62.2380427 192.188089,62.6286317 192.188089,63.1074181 C192.188089,63.5862046 191.797352,63.9767936 191.318384,63.9767936" id="Fill-52"></path>
                            <path d="M185.192633,70.8226003 C184.713665,70.8226003 184.322927,70.4362112 184.322927,69.9532249 C184.322927,69.4744384 184.713665,69.0880493 185.192633,69.0880493 C185.671601,69.0880493 186.058137,69.4744384 186.058137,69.9532249 C186.058137,70.4362112 185.671601,70.8226003 185.192633,70.8226003" id="Fill-53"></path>
                            <path d="M179.06268,77.668407 C178.583712,77.668407 178.197176,77.2820179 178.197176,76.8032314 C178.197176,76.3202451 178.583712,75.933856 179.06268,75.933856 C179.54585,75.933856 179.932386,76.3202451 179.932386,76.8032314 C179.932386,77.2820179 179.54585,77.668407 179.06268,77.668407" id="Fill-54"></path>
                            <path d="M173.029361,84.5898116 C172.546192,84.5898116 172.159656,84.2034225 172.159656,83.724636 C172.159656,83.2458495 172.546192,82.8552606 173.029361,82.8552606 C173.50833,82.8552606 173.894865,83.2458495 173.894865,83.724636 C173.894865,84.2034225 173.50833,84.5898116 173.029361,84.5898116" id="Fill-55"></path>
                            <path d="M167.411989,91.8640062 C166.933021,91.8640062 166.542283,91.4734172 166.542283,90.9946307 C166.542283,90.5158443 166.933021,90.1252553 167.411989,90.1252553 C167.890957,90.1252553 168.281694,90.5158443 168.281694,90.9946307 C168.281694,91.4734172 167.890957,91.8640062 167.411989,91.8640062" id="Fill-56"></path>
                            <path d="M161.794616,99.1340009 C161.315648,99.1340009 160.929112,98.7476118 160.929112,98.2646255 C160.929112,97.785839 161.315648,97.3994499 161.794616,97.3994499 C162.273584,97.3994499 162.664322,97.785839 162.664322,98.2646255 C162.664322,98.7476118 162.273584,99.1340009 161.794616,99.1340009" id="Fill-57"></path>
                            <path d="M156.299086,106.492193 C155.820118,106.492193 155.429381,106.101604 155.429381,105.622818 C155.429381,105.144031 155.820118,104.757642 156.299086,104.757642 C156.778055,104.757642 157.168792,105.144031 157.168792,105.622818 C157.168792,106.101604 156.778055,106.492193 156.299086,106.492193" id="Fill-58"></path>
                            <path d="M151.173286,114.119178 C150.694318,114.119178 150.303581,113.728589 150.303581,113.249802 C150.303581,112.771016 150.694318,112.380427 151.173286,112.380427 C151.652255,112.380427 152.042992,112.771016 152.042992,113.249802 C152.042992,113.728589 151.652255,114.119178 151.173286,114.119178" id="Fill-59"></path>
                        </g>
                        <ellipse id="Oval-Copy-4" fill="#8F855A" fill-rule="nonzero" opacity="0.1" cx="509.337278" cy="900" rx="161" ry="303"></ellipse>
                        <g id="Group-3" transform="translate(141.168639, 316.124822) scale(-1, 1) translate(-141.168639, -316.124822) translate(0.000000, 222.031467)" fill="#738A99" fill-rule="nonzero">
                            <path d="M3.74055586,9.63167241 C3.32633105,9.78758521 2.86107856,9.57710291 2.70499385,9.16153551 C2.54890914,8.74626791 2.75902317,8.28302715 3.1762496,8.12741423 C3.59347603,7.97150148 4.0557269,8.18198369 4.21181161,8.59755113 C4.36789632,9.01281874 4.15778229,9.47605951 3.74055586,9.63167241" id="Fill-94"></path>
                            <path d="M89.5991521,80.6535269 C89.1849273,80.8094397 88.7196748,80.5986576 88.5665918,80.18339 C88.4105071,79.7678226 88.6206211,79.3048817 89.0348459,79.1489689 C89.4520723,78.993356 89.9143232,79.2038382 90.0704079,79.6191058 C90.2264926,80.0346733 90.0163786,80.4976142 89.5991521,80.6535269" id="Fill-151"></path>
                            <path d="M81.9389949,76.956296 C81.5217685,77.1122087 81.0595176,76.9017265 80.9034329,76.4861591 C80.7473482,76.0708915 80.9574622,75.6076507 81.3746886,75.4520378 C81.7889134,75.2961251 82.2541659,75.5066073 82.4102507,75.9218749 C82.5663354,76.3374423 82.3532197,76.8003832 81.9389949,76.956296" id="Fill-152"></path>
                            <path d="M74.275836,73.262663 C73.8586096,73.4182759 73.3963587,73.2077937 73.240274,72.7925261 C73.0841893,72.3769587 73.2943033,71.9140178 73.7115298,71.758105 C74.1257546,71.6024921 74.5910071,71.8129743 74.7440902,72.2282419 C74.9001749,72.6438094 74.6900608,73.1067503 74.275836,73.262663" id="Fill-153"></path>
                            <path d="M66.6577016,69.4802797 C66.2404752,69.6358927 65.7782243,69.4254104 65.6221396,69.0101428 C65.4660549,68.5945754 65.6761689,68.1316345 66.0933953,67.9757217 C66.5076201,67.819809 66.9728726,68.0302912 67.1289573,68.4458586 C67.2820404,68.8611262 67.0719264,69.324367 66.6577016,69.4802797" id="Fill-154"></path>
                            <path d="M59.186647,65.4085584 C58.7724222,65.5641713 58.3071697,65.3536891 58.151085,64.9384215 C57.9950003,64.522854 58.2081159,64.0599131 58.6223407,63.9040004 C59.0395672,63.7483874 59.501818,63.9588696 59.6579027,64.3741373 C59.8139874,64.7897047 59.6038734,65.2526456 59.186647,65.4085584" id="Fill-155"></path>
                            <path d="M51.7786266,61.2354937 C51.3644018,61.3911066 50.8991493,61.1806244 50.7430646,60.7653568 C50.5869799,60.3497894 50.7970939,59.8868484 51.2143203,59.7309357 C51.6315468,59.575023 52.0937976,59.7855052 52.2498823,60.2010726 C52.405967,60.61664 52.195853,61.079581 51.7786266,61.2354937" id="Fill-156"></path>
                            <path d="M44.6737707,56.5590108 C44.2565443,56.7146237 43.7942934,56.5041415 43.6382087,56.0888739 C43.482124,55.6733064 43.692238,55.2103655 44.1094645,55.0544528 C44.5236893,54.8988399 44.9889418,55.1093221 45.1450265,55.5245897 C45.3011112,55.9401571 45.0909971,56.403098 44.6737707,56.5590108" id="Fill-157"></path>
                            <path d="M37.6229442,51.8081695 C37.2087193,51.9640822 36.7434669,51.7536 36.5873821,51.3380326 C36.4312974,50.922765 36.6414115,50.4595242 37.0586379,50.3039113 C37.4758643,50.1479985 37.9381152,50.3584807 38.0941999,50.7740482 C38.2502846,51.1893158 38.0401706,51.6525565 37.6229442,51.8081695" id="Fill-158"></path>
                            <path d="M31.1064076,46.3437275 C30.6891811,46.4993404 30.2269303,46.2888582 30.0708456,45.8735906 C29.9147608,45.4580232 30.1248749,44.9950822 30.5421013,44.8391695 C30.9563261,44.6832567 31.4215786,44.8937389 31.5776633,45.3093064 C31.733748,45.7248738 31.5206324,46.1878147 31.1064076,46.3437275" id="Fill-159"></path>
                            <path d="M24.6288922,40.8376088 C24.2146674,40.9935216 23.7494149,40.7830394 23.5933301,40.3674719 C23.4372454,39.9522043 23.6473595,39.4889636 24.0645859,39.3333507 C24.4788107,39.1774379 24.9440632,39.3879201 25.1001479,39.8034876 C25.2562326,40.2187552 25.0461186,40.6819959 24.6288922,40.8376088" id="Fill-160"></path>
                            <path d="M19.0278524,34.4385899 C18.6136276,34.5945026 18.1483751,34.3840204 17.9922904,33.968453 C17.8362057,33.5531854 18.0463197,33.0899446 18.4635462,32.9343317 C18.8807726,32.778419 19.3430235,32.9889012 19.4991082,33.4044686 C19.6551929,33.8197362 19.4450789,34.282977 19.0278524,34.4385899" id="Fill-161"></path>
                            <path d="M13.4598306,28.0176832 C13.0426042,28.1732961 12.5803533,27.9628139 12.4242686,27.5475463 C12.2681839,27.1319788 12.4782979,26.6690379 12.8925227,26.5131252 C13.3097491,26.3575122 13.772,26.5679944 13.9280847,26.9832621 C14.0841694,27.3988295 13.8740554,27.8617704 13.4598306,28.0176832" id="Fill-162"></path>
                            <path d="M9.20352066,20.657702 C8.78629423,20.8136147 8.32104173,20.6031325 8.16795865,20.1875651 C8.01187394,19.7719976 8.22198797,19.3090567 8.63621278,19.153144 C9.05343921,18.9975311 9.51569008,19.2080133 9.67177479,19.6232809 C9.82785949,20.0388483 9.61774546,20.5017892 9.20352066,20.657702" id="Fill-163"></path>
                            <path d="M4.94420909,13.2977208 C4.52998429,13.4536335 4.06473179,13.2431513 3.90864708,12.8275839 C3.755564,12.4120165 3.96567803,11.9490755 4.37990284,11.7931628 C4.79712927,11.6375499 5.25938014,11.8480321 5.41546485,12.2632997 C5.57154955,12.6788671 5.36143552,13.1421079 4.94420909,13.2977208" id="Fill-164"></path>
                        </g>
                        <path d="M339.839835,378.704245 C332.40147,377.089284 326.650802,373.646271 324.701712,365.89537 C324.059592,363.335413 323.417472,360.775457 322.769669,358.2155 C321.90025,364.158804 321.71841,372.363735 315.740443,375.57945 C312.995806,377.058031 309.967045,378.012119 306.870094,378.376366 C311.910452,380.066335 317.297442,383.185447 320.002302,387.907019 C322.548052,392.336511 321.553619,397.958755 323.82661,402.2155 C324.803996,397.566664 324.320986,393.145696 326.514422,388.653128 C329.713658,382.119983 333.770948,380.388531 340.544462,378.850285 C340.305798,378.80312 340.072816,378.754819 339.839835,378.704245" id="Fill-205-Copy-2" fill="#E1DDCC" fill-rule="nonzero" transform="translate(323.707278, 380.215500) scale(-1, 1) translate(-323.707278, -380.215500) "></path>
                        <path d="M322.839835,473.704245 C315.40147,472.089284 309.650802,468.646271 307.701712,460.89537 C307.059592,458.335413 306.417472,455.775457 305.769669,453.2155 C304.90025,459.158804 304.71841,467.363735 298.740443,470.57945 C295.995806,472.058031 292.967045,473.012119 289.870094,473.376366 C294.910452,475.066335 300.297442,478.185447 303.002302,482.907019 C305.548052,487.336511 304.553619,492.958755 306.82661,497.2155 C307.803996,492.566664 307.320986,488.145696 309.514422,483.653128 C312.713658,477.119983 316.770948,475.388531 323.544462,473.850285 C323.305798,473.80312 323.072816,473.754819 322.839835,473.704245" id="Fill-205-Copy-2-Copy" fill="#E1DDCC" fill-rule="nonzero" transform="translate(306.707278, 475.215500) scale(-1, 1) translate(-306.707278, -475.215500) "></path>
                    </g>
                </g>
            </g>
        </g>
    </g>
</svg>