<?xml version="1.0" encoding="UTF-8"?>
<svg width="571px" height="455px" viewBox="0 0 571 455" version="1.1" xmlns="http://www.w3.org/2000/svg" xmlns:xlink="http://www.w3.org/1999/xlink">
    <title>top_bg_left</title>
    <defs>
        <rect id="path-1" x="0" y="0" width="571" height="455"></rect>
        <path d="M27.3717763,13.7202178 C27.3717763,21.2978016 21.2442888,27.4405358 13.6863879,27.4405358 C6.12748744,27.4405358 0,21.2978016 0,13.7202178 C0,6.14283426 6.12748744,0 13.6863879,0 C21.2442888,0 27.3717763,6.14283426 27.3717763,13.7202178 L27.3717763,13.7202178 Z" id="path-3"></path>
        <path d="M27.3657787,13.7173147 C27.3657787,21.2931967 21.2402905,27.4346294 13.6833892,27.4346294 C6.12648785,27.4346294 0,21.2931967 0,13.7173147 C0,6.14143275 6.12648785,0 13.6833892,0 C21.2402905,0 27.3657787,6.14143275 27.3657787,13.7173147" id="path-5"></path>
        <path d="M27.2328332,13.6507428 C27.2328332,21.1898851 21.1363331,27.3014856 13.6164166,27.3014856 C6.09650014,27.3014856 0,21.1898851 0,13.6507428 C0,6.11160053 6.09650014,0 13.6164166,0 C21.1363331,0 27.2328332,6.11160053 27.2328332,13.6507428" id="path-7"></path>
        <path d="M27.3707767,13.7188163 C27.3707767,21.2959997 21.2432892,27.4386337 13.6853883,27.4386337 C6.12748744,27.4386337 0,21.2959997 0,13.7188163 C0,6.14263404 6.12748744,0 13.6853883,0 C21.2432892,0 27.3707767,6.14263404 27.3707767,13.7188163 L27.3707767,13.7188163 Z" id="path-9"></path>
    </defs>
    <g id="Page-1" stroke="none" stroke-width="1" fill="none" fill-rule="evenodd">
        <g id="top_bg_left">
            <mask id="mask-2" fill="white">
                <use xlink:href="#path-1"></use>
            </mask>
            <g id="path-1"></g>
            <g id="Group" mask="url(#mask-2)">
                <g transform="translate(-90.000000, -19.000000)">
                    <ellipse id="Oval" fill="#8F855A" fill-rule="nonzero" opacity="0.096522" cx="161" cy="303" rx="161" ry="303"></ellipse>
                    <g id="Group-2" transform="translate(15.000000, 197.218178)" fill="#738A99">
                        <path d="M422.857492,254.433016 C422.374322,254.433016 421.987786,254.042427 421.987786,253.563641 C421.987786,253.084854 422.374322,252.694265 422.857492,252.694265 C423.33646,252.694265 423.722996,253.084854 423.722996,253.563641 C423.722996,254.042427 423.33646,254.433016 422.857492,254.433016" id="Fill-3"></path>
                        <path d="M424.420441,245.378072 C423.941472,245.378072 423.550735,244.991683 423.550735,244.512896 C423.550735,244.02991 423.941472,243.643521 424.420441,243.643521 C424.899409,243.643521 425.290146,244.02991 425.290146,244.512896 C425.290146,244.991683 424.899409,245.378072 424.420441,245.378072" id="Fill-4"></path>
                        <path d="M425.441399,236.251729 C424.962431,236.251729 424.571694,235.86114 424.571694,235.382354 C424.571694,234.903567 424.962431,234.512978 425.441399,234.512978 C425.920367,234.512978 426.311105,234.903567 426.311105,235.382354 C426.311105,235.86114 425.920367,236.251729 425.441399,236.251729" id="Fill-5"></path>
                        <path d="M426.428746,227.116987 C425.949778,227.116987 425.559041,226.730598 425.559041,226.247612 C425.559041,225.768825 425.949778,225.382436 426.428746,225.382436 C426.907714,225.382436 427.298451,225.768825 427.298451,226.247612 C427.298451,226.730598 426.907714,227.116987 426.428746,227.116987" id="Fill-6"></path>
                        <path d="M427.420294,217.986445 C426.937124,217.986445 426.550589,217.595856 426.550589,217.11707 C426.550589,216.638283 426.937124,216.247694 427.420294,216.247694 C427.899262,216.247694 428.285798,216.638283 428.285798,217.11707 C428.285798,217.595856 427.899262,217.986445 427.420294,217.986445" id="Fill-7"></path>
                        <path d="M428.184963,208.834903 C427.705994,208.834903 427.315257,208.448514 427.315257,207.965528 C427.315257,207.486742 427.705994,207.100352 428.184963,207.100352 C428.663931,207.100352 429.054668,207.486742 429.054668,207.965528 C429.054668,208.448514 428.663931,208.834903 428.184963,208.834903" id="Fill-8"></path>
                        <path d="M428.500073,199.653963 C428.021105,199.653963 427.630368,199.267574 427.630368,198.784587 C427.630368,198.305801 428.021105,197.919412 428.500073,197.919412 C428.979041,197.919412 429.369779,198.305801 429.369779,198.784587 C429.369779,199.267574 428.979041,199.653963 428.500073,199.653963" id="Fill-9"></path>
                        <path d="M428.815184,190.473022 C428.336216,190.473022 427.94968,190.086633 427.94968,189.603646 C427.94968,189.12486 428.336216,188.738471 428.815184,188.738471 C429.298354,188.738471 429.684889,189.12486 429.684889,189.603646 C429.684889,190.086633 429.298354,190.473022 428.815184,190.473022" id="Fill-10"></path>
                        <path d="M429.134496,181.292081 C428.655528,181.292081 428.264791,180.905692 428.264791,180.422706 C428.264791,179.943919 428.655528,179.55753 429.134496,179.55753 C429.613464,179.55753 430,179.943919 430,180.422706 C430,180.905692 429.613464,181.292081 429.134496,181.292081" id="Fill-11"></path>
                        <path d="M428.916019,172.11534 C428.437051,172.11534 428.050515,171.724751 428.050515,171.245965 C428.050515,170.767178 428.437051,170.376589 428.916019,170.376589 C429.399189,170.376589 429.785725,170.767178 429.785725,171.245965 C429.785725,171.724751 429.399189,172.11534 428.916019,172.11534" id="Fill-12"></path>
                        <path d="M428.49167,162.938599 C428.012702,162.938599 427.621965,162.54801 427.621965,162.069224 C427.621965,161.590437 428.012702,161.199848 428.49167,161.199848 C428.970639,161.199848 429.361376,161.590437 429.361376,162.069224 C429.361376,162.54801 428.970639,162.938599 428.49167,162.938599" id="Fill-13"></path>
                        <path d="M428.06312,153.761858 C427.584152,153.761858 427.197616,153.37127 427.197616,152.892483 C427.197616,152.413697 427.584152,152.023108 428.06312,152.023108 C428.54629,152.023108 428.932825,152.413697 428.932825,152.892483 C428.932825,153.37127 428.54629,153.761858 428.06312,153.761858" id="Fill-14"></path>
                        <path d="M427.09678,144.635516 C426.617812,144.635516 426.231277,144.244927 426.231277,143.766141 C426.231277,143.287354 426.617812,142.896765 427.09678,142.896765 C427.575749,142.896765 427.966486,143.287354 427.966486,143.766141 C427.966486,144.244927 427.575749,144.635516 427.09678,144.635516" id="Fill-15"></path>
                        <path d="M425.853144,135.534373 C425.374176,135.534373 424.983438,135.143784 424.983438,134.664998 C424.983438,134.186211 425.374176,133.795622 425.853144,133.795622 C426.332112,133.795622 426.722849,134.186211 426.722849,134.664998 C426.722849,135.143784 426.332112,135.534373 425.853144,135.534373" id="Fill-16"></path>
                        <path d="M424.609507,126.42903 C424.130539,126.42903 423.739802,126.042641 423.739802,125.563855 C423.739802,125.080868 424.130539,124.694479 424.609507,124.694479 C425.088475,124.694479 425.479212,125.080868 425.479212,125.563855 C425.479212,126.042641 425.088475,126.42903 424.609507,126.42903" id="Fill-17"></path>
                        <path d="M422.71044,117.453884 C422.231472,117.453884 421.840735,117.067495 421.840735,116.584508 C421.840735,116.105722 422.231472,115.719333 422.71044,115.719333 C423.189408,115.719333 423.580146,116.105722 423.580146,116.584508 C423.580146,117.067495 423.189408,117.453884 422.71044,117.453884" id="Fill-18"></path>
                        <path d="M420.496263,108.537535 C420.017294,108.537535 419.626557,108.151146 419.626557,107.67236 C419.626557,107.189373 420.017294,106.802984 420.496263,106.802984 C420.975231,106.802984 421.361767,107.189373 421.361767,107.67236 C421.361767,108.151146 420.975231,108.537535 420.496263,108.537535" id="Fill-19"></path>
                        <path d="M418.282085,99.6211872 C417.798915,99.6211872 417.41238,99.2347981 417.41238,98.7560116 C417.41238,98.2772251 417.798915,97.8866361 418.282085,97.8866361 C418.761053,97.8866361 419.147589,98.2772251 419.147589,98.7560116 C419.147589,99.2347981 418.761053,99.6211872 418.282085,99.6211872" id="Fill-20"></path>
                        <path d="M415.185598,90.986231 C414.70663,90.986231 414.315892,90.5998419 414.315892,90.1168555 C414.315892,89.638069 414.70663,89.25168 415.185598,89.25168 C415.664566,89.25168 416.055303,89.638069 416.055303,90.1168555 C416.055303,90.5998419 415.664566,90.986231 415.185598,90.986231" id="Fill-21"></path>
                        <path d="M411.837022,82.4310725 C411.358054,82.4310725 410.971518,82.0446834 410.971518,81.565897 C410.971518,81.0829106 411.358054,80.6965215 411.837022,80.6965215 C412.31599,80.6965215 412.706727,81.0829106 412.706727,81.565897 C412.706727,82.0446834 412.31599,82.4310725 411.837022,82.4310725" id="Fill-22"></path>
                        <path d="M408.488446,73.8759141 C408.009478,73.8759141 407.622942,73.489525 407.622942,73.0107385 C407.622942,72.5277522 408.009478,72.1413631 408.488446,72.1413631 C408.967414,72.1413631 409.358151,72.5277522 409.358151,73.0107385 C409.358151,73.489525 408.967414,73.8759141 408.488446,73.8759141" id="Fill-23"></path>
                        <path d="M403.908838,65.9171388 C403.42987,65.9171388 403.043334,65.5265498 403.043334,65.0477634 C403.043334,64.5689769 403.42987,64.1783879 403.908838,64.1783879 C404.387806,64.1783879 404.778543,64.5689769 404.778543,65.0477634 C404.778543,65.5265498 404.387806,65.9171388 403.908838,65.9171388" id="Fill-24"></path>
                        <path d="M399.283013,57.9793629 C398.804045,57.9793629 398.417509,57.588774 398.417509,57.1099875 C398.417509,56.631201 398.804045,56.240612 399.283013,56.240612 C399.766183,56.240612 400.152719,56.631201 400.152719,57.1099875 C400.152719,57.588774 399.766183,57.9793629 399.283013,57.9793629" id="Fill-25"></path>
                        <path d="M394.367287,50.2473813 C393.884117,50.2473813 393.497582,49.8609922 393.497582,49.3822057 C393.497582,48.8992193 393.884117,48.5128302 394.367287,48.5128302 C394.846255,48.5128302 395.232791,48.8992193 395.232791,49.3822057 C395.232791,49.8609922 394.846255,50.2473813 394.367287,50.2473813" id="Fill-26"></path>
                        <path d="M388.401192,43.2587786 C387.922224,43.2587786 387.531487,42.8723895 387.531487,42.3894031 C387.531487,41.9106166 387.922224,41.5242276 388.401192,41.5242276 C388.88016,41.5242276 389.270897,41.9106166 389.270897,42.3894031 C389.270897,42.8723895 388.88016,43.2587786 388.401192,43.2587786" id="Fill-27"></path>
                        <path d="M382.439298,36.2701759 C381.96033,36.2701759 381.569593,35.8795869 381.569593,35.4008004 C381.569593,34.922014 381.96033,34.5356249 382.439298,34.5356249 C382.918267,34.5356249 383.304802,34.922014 383.304802,35.4008004 C383.304802,35.8795869 382.918267,36.2701759 382.439298,36.2701759" id="Fill-28"></path>
                        <path d="M375.859788,29.9199552 C375.38082,29.9199552 374.990083,29.5293662 374.990083,29.0505797 C374.990083,28.5717933 375.38082,28.1812043 375.859788,28.1812043 C376.338756,28.1812043 376.729493,28.5717933 376.729493,29.0505797 C376.729493,29.5293662 376.338756,29.9199552 375.859788,29.9199552" id="Fill-29"></path>
                        <path d="M368.645855,24.2291159 C368.162685,24.2291159 367.776149,23.8427268 367.776149,23.3597404 C367.776149,22.8809539 368.162685,22.4945649 368.645855,22.4945649 C369.124823,22.4945649 369.511359,22.8809539 369.511359,23.3597404 C369.511359,23.8427268 369.124823,24.2291159 368.645855,24.2291159" id="Fill-30"></path>
                        <path d="M361.42772,18.5382766 C360.948752,18.5382766 360.562216,18.1518875 360.562216,17.673101 C360.562216,17.1901146 360.948752,16.8037255 361.42772,16.8037255 C361.91089,16.8037255 362.297425,17.1901146 362.297425,17.673101 C362.297425,18.1518875 361.91089,18.5382766 361.42772,18.5382766" id="Fill-31"></path>
                        <path d="M353.491133,13.9940049 C353.012165,13.9940049 352.625629,13.6034159 352.625629,13.1246294 C352.625629,12.6458429 353.012165,12.255254 353.491133,12.255254 C353.974303,12.255254 354.360838,12.6458429 354.360838,13.1246294 C354.360838,13.6034159 353.974303,13.9940049 353.491133,13.9940049" id="Fill-32"></path>
                        <path d="M345.247838,9.93271955 C344.76887,9.93271955 344.378133,9.54633046 344.378133,9.06754398 C344.378133,8.58455761 344.76887,8.19816852 345.247838,8.19816852 C345.726806,8.19816852 346.117544,8.58455761 346.117544,9.06754398 C346.117544,9.54633046 345.726806,9.93271955 345.247838,9.93271955" id="Fill-33"></path>
                        <path d="M336.899507,6.1696258 C336.420538,6.1696258 336.029801,5.78323671 336.029801,5.30025035 C336.029801,4.82146386 336.420538,4.43507477 336.899507,4.43507477 C337.378475,4.43507477 337.769212,4.82146386 337.769212,5.30025035 C337.769212,5.78323671 337.378475,6.1696258 336.899507,6.1696258" id="Fill-34"></path>
                        <path d="M327.93776,4.13688319 C327.458791,4.13688319 327.068054,3.7504941 327.068054,3.27170762 C327.068054,2.78872126 327.458791,2.40233217 327.93776,2.40233217 C328.416728,2.40233217 328.807465,2.78872126 328.807465,3.27170762 C328.807465,3.7504941 328.416728,4.13688319 327.93776,4.13688319" id="Fill-35"></path>
                        <path d="M318.976013,2.10834047 C318.497044,2.10834047 318.106307,1.7177515 318.106307,1.23896502 C318.106307,0.760178536 318.497044,0.369589565 318.976013,0.369589565 C319.454981,0.369589565 319.845718,0.760178536 319.845718,1.23896502 C319.845718,1.7177515 319.454981,2.10834047 318.976013,2.10834047" id="Fill-36"></path>
                        <path d="M309.833602,1.73455102 C309.354634,1.73455102 308.963897,1.34816193 308.963897,0.865175572 C308.963897,0.38638909 309.354634,0 309.833602,0 C310.31257,0 310.703307,0.38638909 310.703307,0.865175572 C310.703307,1.34816193 310.31257,1.73455102 309.833602,1.73455102" id="Fill-37"></path>
                        <path d="M300.644975,1.81014889 C300.166007,1.81014889 299.77527,1.4237598 299.77527,0.944973318 C299.77527,0.466186837 300.166007,0.0755978655 300.644975,0.0755978655 C301.123944,0.0755978655 301.514681,0.466186837 301.514681,0.944973318 C301.514681,1.4237598 301.123944,1.81014889 300.644975,1.81014889" id="Fill-38"></path>
                        <path d="M291.561386,2.83491996 C291.082417,2.83491996 290.69168,2.44433098 290.69168,1.9655445 C290.69168,1.48675802 291.082417,1.09616905 291.561386,1.09616905 C292.040354,1.09616905 292.431091,1.48675802 292.431091,1.9655445 C292.431091,2.44433098 292.040354,2.83491996 291.561386,2.83491996" id="Fill-39"></path>
                        <path d="M282.582833,4.79626458 C282.103864,4.79626458 281.713127,4.4056756 281.713127,3.92688912 C281.713127,3.44810264 282.103864,3.05751367 282.582833,3.05751367 C283.061801,3.05751367 283.452538,3.44810264 283.452538,3.92688912 C283.452538,4.4056756 283.061801,4.79626458 282.582833,4.79626458" id="Fill-40"></path>
                        <path d="M273.696712,7.05580078 C273.217744,7.05580078 272.827007,6.66521181 272.827007,6.18642532 C272.827007,5.70763884 273.217744,5.31704987 273.696712,5.31704987 C274.17568,5.31704987 274.566418,5.70763884 274.566418,6.18642532 C274.566418,6.66521181 274.17568,7.05580078 273.696712,7.05580078" id="Fill-41"></path>
                        <path d="M265.192926,10.5333026 C264.713958,10.5333026 264.32322,10.1427136 264.32322,9.66392714 C264.32322,9.18514065 264.713958,8.79455168 265.192926,8.79455168 C265.671894,8.79455168 266.05843,9.18514065 266.05843,9.66392714 C266.05843,10.1427136 265.671894,10.5333026 265.192926,10.5333026" id="Fill-42"></path>
                        <path d="M256.684938,14.0108044 C256.20597,14.0108044 255.819434,13.6202154 255.819434,13.1414289 C255.819434,12.6626425 256.20597,12.2762534 256.684938,12.2762534 C257.163906,12.2762534 257.554644,12.6626425 257.554644,13.1414289 C257.554644,13.6202154 257.163906,14.0108044 256.684938,14.0108044" id="Fill-43"></path>
                        <path d="M248.647516,18.4332795 C248.164346,18.4332795 247.77781,18.0426906 247.77781,17.5639041 C247.77781,17.0851176 248.164346,16.6945286 248.647516,16.6945286 C249.126484,16.6945286 249.51302,17.0851176 249.51302,17.5639041 C249.51302,18.0426906 249.126484,18.4332795 248.647516,18.4332795" id="Fill-44"></path>
                        <path d="M240.706727,23.0615489 C240.227759,23.0615489 239.841223,22.6751598 239.841223,22.1921734 C239.841223,21.7133869 240.227759,21.3269978 240.706727,21.3269978 C241.189897,21.3269978 241.576433,21.7133869 241.576433,22.1921734 C241.576433,22.6751598 241.189897,23.0615489 240.706727,23.0615489" id="Fill-45"></path>
                        <path d="M232.99702,28.0258087 C232.51385,28.0258087 232.127314,27.6394196 232.127314,27.1606331 C232.127314,26.6776467 232.51385,26.2912577 232.99702,26.2912577 C233.475988,26.2912577 233.862524,26.6776467 233.862524,27.1606331 C233.862524,27.6394196 233.475988,28.0258087 232.99702,28.0258087" id="Fill-46"></path>
                        <path d="M225.682251,33.5906516 C225.199082,33.5906516 224.812546,33.2000626 224.812546,32.7212761 C224.812546,32.2424896 225.199082,31.8519007 225.682251,31.8519007 C226.161219,31.8519007 226.547755,32.2424896 226.547755,32.7212761 C226.547755,33.2000626 226.161219,33.5906516 225.682251,33.5906516" id="Fill-47"></path>
                        <path d="M218.367483,39.1512946 C217.884313,39.1512946 217.497777,38.7607056 217.497777,38.2819191 C217.497777,37.8031326 217.884313,37.4125436 218.367483,37.4125436 C218.846451,37.4125436 219.232986,37.8031326 219.232986,38.2819191 C219.232986,38.7607056 218.846451,39.1512946 218.367483,39.1512946" id="Fill-48"></path>
                        <path d="M211.250183,44.9471309 C210.771215,44.9471309 210.384679,44.5607418 210.384679,44.0777555 C210.384679,43.598969 210.771215,43.2125799 211.250183,43.2125799 C211.733353,43.2125799 212.119889,43.598969 212.119889,44.0777555 C212.119889,44.5607418 211.733353,44.9471309 211.250183,44.9471309" id="Fill-49"></path>
                        <path d="M204.565636,51.246953 C204.082466,51.246953 203.69593,50.8605639 203.69593,50.3817775 C203.69593,49.8987911 204.082466,49.512402 204.565636,49.512402 C205.044604,49.512402 205.43114,49.8987911 205.43114,50.3817775 C205.43114,50.8605639 205.044604,51.246953 204.565636,51.246953" id="Fill-50"></path>
                        <path d="M197.876887,57.5467751 C197.397919,57.5467751 197.007182,57.1603861 197.007182,56.6815996 C197.007182,56.2028131 197.397919,55.8122241 197.876887,55.8122241 C198.355855,55.8122241 198.742391,56.2028131 198.742391,56.6815996 C198.742391,57.1603861 198.355855,57.5467751 197.876887,57.5467751" id="Fill-51"></path>
                        <path d="M191.318384,63.9767936 C190.839416,63.9767936 190.448678,63.5862046 190.448678,63.1074181 C190.448678,62.6286317 190.839416,62.2380427 191.318384,62.2380427 C191.797352,62.2380427 192.188089,62.6286317 192.188089,63.1074181 C192.188089,63.5862046 191.797352,63.9767936 191.318384,63.9767936" id="Fill-52"></path>
                        <path d="M185.192633,70.8226003 C184.713665,70.8226003 184.322927,70.4362112 184.322927,69.9532249 C184.322927,69.4744384 184.713665,69.0880493 185.192633,69.0880493 C185.671601,69.0880493 186.058137,69.4744384 186.058137,69.9532249 C186.058137,70.4362112 185.671601,70.8226003 185.192633,70.8226003" id="Fill-53"></path>
                        <path d="M179.06268,77.668407 C178.583712,77.668407 178.197176,77.2820179 178.197176,76.8032314 C178.197176,76.3202451 178.583712,75.933856 179.06268,75.933856 C179.54585,75.933856 179.932386,76.3202451 179.932386,76.8032314 C179.932386,77.2820179 179.54585,77.668407 179.06268,77.668407" id="Fill-54"></path>
                        <path d="M173.029361,84.5898116 C172.546192,84.5898116 172.159656,84.2034225 172.159656,83.724636 C172.159656,83.2458495 172.546192,82.8552606 173.029361,82.8552606 C173.50833,82.8552606 173.894865,83.2458495 173.894865,83.724636 C173.894865,84.2034225 173.50833,84.5898116 173.029361,84.5898116" id="Fill-55"></path>
                        <path d="M167.411989,91.8640062 C166.933021,91.8640062 166.542283,91.4734172 166.542283,90.9946307 C166.542283,90.5158443 166.933021,90.1252553 167.411989,90.1252553 C167.890957,90.1252553 168.281694,90.5158443 168.281694,90.9946307 C168.281694,91.4734172 167.890957,91.8640062 167.411989,91.8640062" id="Fill-56"></path>
                        <path d="M161.794616,99.1340009 C161.315648,99.1340009 160.929112,98.7476118 160.929112,98.2646255 C160.929112,97.785839 161.315648,97.3994499 161.794616,97.3994499 C162.273584,97.3994499 162.664322,97.785839 162.664322,98.2646255 C162.664322,98.7476118 162.273584,99.1340009 161.794616,99.1340009" id="Fill-57"></path>
                        <path d="M156.299086,106.492193 C155.820118,106.492193 155.429381,106.101604 155.429381,105.622818 C155.429381,105.144031 155.820118,104.757642 156.299086,104.757642 C156.778055,104.757642 157.168792,105.144031 157.168792,105.622818 C157.168792,106.101604 156.778055,106.492193 156.299086,106.492193" id="Fill-58"></path>
                        <path d="M151.173286,114.119178 C150.694318,114.119178 150.303581,113.728589 150.303581,113.249802 C150.303581,112.771016 150.694318,112.380427 151.173286,112.380427 C151.652255,112.380427 152.042992,112.771016 152.042992,113.249802 C152.042992,113.728589 151.652255,114.119178 151.173286,114.119178" id="Fill-59"></path>
                        <path d="M146.047486,121.741963 C145.568518,121.741963 145.177781,121.351374 145.177781,120.872587 C145.177781,120.393801 145.568518,120.007412 146.047486,120.007412 C146.526455,120.007412 146.917192,120.393801 146.917192,120.872587 C146.917192,121.351374 146.526455,121.741963 146.047486,121.741963" id="Fill-60"></path>
                        <path d="M141.01832,129.431945 C140.539352,129.431945 140.152816,129.041356 140.152816,128.56257 C140.152816,128.083784 140.539352,127.693195 141.01832,127.693195 C141.50149,127.693195 141.888026,128.083784 141.888026,128.56257 C141.888026,129.041356 141.50149,129.431945 141.01832,129.431945" id="Fill-61"></path>
                        <path d="M136.081587,137.176527 C135.602619,137.176527 135.211881,136.790138 135.211881,136.311351 C135.211881,135.828365 135.602619,135.441976 136.081587,135.441976 C136.560555,135.441976 136.947091,135.828365 136.947091,136.311351 C136.947091,136.790138 136.560555,137.176527 136.081587,137.176527" id="Fill-62"></path>
                        <path d="M131.140652,144.925308 C130.661684,144.925308 130.270946,144.534719 130.270946,144.055933 C130.270946,143.577146 130.661684,143.186557 131.140652,143.186557 C131.61962,143.186557 132.010357,143.577146 132.010357,144.055933 C132.010357,144.534719 131.61962,144.925308 131.140652,144.925308" id="Fill-63"></path>
                        <path d="M126.082075,152.590092 C125.603107,152.590092 125.21237,152.203702 125.21237,151.724916 C125.21237,151.24613 125.603107,150.855541 126.082075,150.855541 C126.561044,150.855541 126.951781,151.24613 126.951781,151.724916 C126.951781,152.203702 126.561044,152.590092 126.082075,152.590092" id="Fill-64"></path>
                        <path d="M120.838634,160.137278 C120.359666,160.137278 119.97313,159.74669 119.97313,159.267903 C119.97313,158.789117 120.359666,158.402727 120.838634,158.402727 C121.321804,158.402727 121.708339,158.789117 121.708339,159.267903 C121.708339,159.74669 121.321804,160.137278 120.838634,160.137278" id="Fill-65"></path>
                        <path d="M115.599394,167.684465 C115.116225,167.684465 114.729689,167.293876 114.729689,166.81509 C114.729689,166.336303 115.116225,165.945714 115.599394,165.945714 C116.078362,165.945714 116.464898,166.336303 116.464898,166.81509 C116.464898,167.293876 116.078362,167.684465 115.599394,167.684465" id="Fill-66"></path>
                        <path d="M110.221506,175.126655 C109.742537,175.126655 109.356002,174.740266 109.356002,174.26148 C109.356002,173.782693 109.742537,173.392104 110.221506,173.392104 C110.704675,173.392104 111.091211,173.782693 111.091211,174.26148 C111.091211,174.740266 110.704675,175.126655 110.221506,175.126655" id="Fill-67"></path>
                        <path d="M104.440276,182.270654 C103.961307,182.270654 103.574772,181.880065 103.574772,181.401278 C103.574772,180.922492 103.961307,180.531903 104.440276,180.531903 C104.919244,180.531903 105.309981,180.922492 105.309981,181.401278 C105.309981,181.880065 104.919244,182.270654 104.440276,182.270654" id="Fill-68"></path>
                        <path d="M98.6590454,189.410452 C98.1800772,189.410452 97.78934,189.019863 97.78934,188.541076 C97.78934,188.06229 98.1800772,187.671701 98.6590454,187.671701 C99.1380136,187.671701 99.5287508,188.06229 99.5287508,188.541076 C99.5287508,189.019863 99.1380136,189.410452 98.6590454,189.410452" id="Fill-69"></path>
                        <path d="M92.7853828,196.466253 C92.3064146,196.466253 91.9198788,196.079864 91.9198788,195.601077 C91.9198788,195.118091 92.3064146,194.731702 92.7853828,194.731702 C93.264351,194.731702 93.6550882,195.118091 93.6550882,195.601077 C93.6550882,196.079864 93.264351,196.466253 92.7853828,196.466253" id="Fill-70"></path>
                        <path d="M86.25629,202.93407 C85.7773218,202.93407 85.3907861,202.543481 85.3907861,202.064695 C85.3907861,201.585908 85.7773218,201.195319 86.25629,201.195319 C86.7394597,201.195319 87.1259954,201.585908 87.1259954,202.064695 C87.1259954,202.543481 86.7394597,202.93407 86.25629,202.93407" id="Fill-71"></path>
                        <path d="M79.7271972,209.397688 C79.248229,209.397688 78.8616933,209.007099 78.8616933,208.528312 C78.8616933,208.049526 79.248229,207.663137 79.7271972,207.663137 C80.2103669,207.663137 80.5969026,208.049526 80.5969026,208.528312 C80.5969026,209.007099 80.2103669,209.397688 79.7271972,209.397688" id="Fill-72"></path>
                    </g>
                    <g transform="translate(61.000000, 186.000000)">
                        <path d="M0.220709499,131.952709 C0.220709499,135.759821 3.19239097,138.847155 6.85888753,138.847155 L202.140813,138.847155 C205.807309,138.847155 208.779091,135.759821 208.779091,131.952709 L208.779091,129.42598 L0.220709499,129.42598 L0.220709499,131.952709" id="Fill-3" fill="#FFFFFF"></path>
                        <path d="M142.56824,138.847155 L142.56824,153.117567 C142.56824,156.79654 139.591461,159.778761 135.917967,159.778761 L73.081733,159.778761 C69.4082393,159.778761 66.4304603,156.79654 66.4304603,153.117567 L66.4304603,138.847155 L142.56824,138.847155" id="Fill-4" fill="#FFFFFF"></path>
                        <path d="M135.917967,160 L73.081733,160 C69.2932864,160 66.2105505,156.912666 66.2105505,153.117567 L66.2105505,138.847155 C66.2105505,138.725023 66.3085103,138.625916 66.4304603,138.625916 C66.5524103,138.625916 66.6513697,138.725023 66.6513697,138.847155 L66.6513697,153.117567 C66.6513697,156.668402 69.5361868,159.557522 73.081733,159.557522 L135.917967,159.557522 C139.463513,159.557522 142.34833,156.668402 142.34833,153.117567 L142.34833,138.847155 C142.34833,138.725023 142.44629,138.625916 142.56824,138.625916 C142.69119,138.625916 142.78915,138.725023 142.78915,138.847155 L142.78915,153.117567 C142.78915,156.912666 139.706414,160 135.917967,160" id="Fill-5" fill="#000000"></path>
                        <path d="M139.732403,143.984703 L69.2672971,143.984703 C69.1453471,143.984703 69.0463877,143.885596 69.0463877,143.763465 C69.0463877,143.641333 69.1453471,143.542226 69.2672971,143.542226 L139.732403,143.542226 C139.854353,143.542226 139.953312,143.641333 139.953312,143.763465 C139.953312,143.885596 139.854353,143.984703 139.732403,143.984703" id="Fill-6" fill="#000000"></path>
                        <path d="M208.779091,129.42598 L0.220709499,129.42598 L0.220709499,8.08022664 C0.220709499,3.73973892 3.73416881,0.221238938 8.06839157,0.221238938 L200.931309,0.221238938 C205.265531,0.221238938 208.779091,3.73973892 208.779091,8.08022664 L208.779091,129.42598" id="Fill-7" fill="#FFFFFF"></path>
                        <path d="M0.441618915,129.204741 L208.558181,129.204741 L208.558181,8.08022664 C208.558181,3.86857806 205.136584,0.44227766 200.931309,0.44227766 L8.06839157,0.44227766 C3.86311594,0.44227766 0.441618915,3.86857806 0.441618915,8.08022664 L0.441618915,129.204741 Z M208.779091,129.647219 L0.220809458,129.647219 C0.0986595449,129.647219 0,129.548112 0,129.42598 L0,8.08022664 C0,3.6248148 3.61921595,0 8.06839157,0 L200.931309,0 C205.380484,0 209,3.6248148 209,8.08022664 L209,129.42598 C209,129.548112 208.901041,129.647219 208.779091,129.647219 L208.779091,129.647219 Z" id="Fill-8" fill="#000000"></path>
                        <path d="M7.56459815,121.80575 L201.435102,121.80575 L201.435102,8.40627878 C201.435102,8.09474232 201.182206,7.84116846 200.870334,7.84116846 L8.12936657,7.84116846 C7.81849404,7.84116846 7.56459815,8.09474232 7.56459815,8.40627878 L7.56459815,121.80575 Z M201.656011,122.248228 L7.34368874,122.248228 C7.22173874,122.248228 7.12377891,122.149121 7.12377891,122.026989 L7.12377891,8.40627878 C7.12377891,7.85087895 7.57459405,7.39899091 8.12936657,7.39899091 L200.870334,7.39899091 C201.425106,7.39899091 201.876921,7.85087895 201.876921,8.40627878 L201.876921,122.026989 C201.876921,122.149121 201.777961,122.248228 201.656011,122.248228 L201.656011,122.248228 Z" id="Fill-9" fill="#000000"></path>
                        <path d="M202.140813,139.068394 L6.85888753,139.068394 C3.07643851,139.068394 0,135.875946 0,131.952709 C0,131.830577 0.0986595449,131.73147 0.220809458,131.73147 C0.342759452,131.73147 0.441618915,131.830577 0.441618915,131.952709 C0.441618915,135.632683 3.3203385,138.625916 6.85888753,138.625916 L202.140813,138.625916 C205.679362,138.625916 208.558181,135.632683 208.558181,131.952709 C208.558181,131.830577 208.657141,131.73147 208.779091,131.73147 C208.901041,131.73147 209,131.830577 209,131.952709 C209,135.875946 205.923262,139.068394 202.140813,139.068394" id="Fill-10" fill="#000000"></path>
                        <path d="M145.027232,32.0977656 C145.027232,40.7493093 138.031101,47.7626837 129.401639,47.7626837 C120.772178,47.7626837 113.776046,40.7493093 113.776046,32.0977656 C113.776046,23.4464221 120.772178,16.4329476 129.401639,16.4329476 C138.031101,16.4329476 145.027232,23.4464221 145.027232,32.0977656" id="Fill-11" fill="#EAE7D9"></path>
                        <g id="Group-19" transform="translate(115.715251, 18.377548)">
                            <mask id="mask-4" fill="white">
                                <use xlink:href="#path-3"></use>
                            </mask>
                            <g id="Clip-13"></g>
                            <path d="M5.36380059,28.3330997 L22.0089753,28.3330997 L21.1693196,11.511132 C20.9104257,6.31712249 17.6237734,2.24832819 13.6863879,2.24832819 C9.74900244,2.24832819 6.46235013,6.31692228 6.20345629,11.5109318 L5.36380059,28.3330997 Z M22.2408802,28.7752773 L5.13189568,28.7752773 C5.07092068,28.7752773 5.01294445,28.7504505 4.97196126,28.7066031 C4.92997847,28.6627558 4.90798749,28.6035919 4.91098626,28.5431266 L5.76163745,11.4888079 C6.03352597,6.05924398 9.51409876,1.80615064 13.6863879,1.80615064 C17.8586771,1.80615064 21.3392499,6.05924398 21.6101388,11.4891082 L22.4617896,28.5431266 C22.4647884,28.6035919 22.4427974,28.6627558 22.4008146,28.7066031 C22.3598314,28.7504505 22.3018552,28.7752773 22.2408802,28.7752773 L22.2408802,28.7752773 Z" id="Fill-12" fill="#FFFFFF" mask="url(#mask-4)"></path>
                            <path d="M21.4272138,20.3371641 L13.6863879,18.5498338 L5.94556204,20.3371641 C3.86341581,20.8177832 2.20509581,22.3913827 1.61133927,24.4487046 L-0.0679721282,33.3453129 L27.440748,33.3453129 L25.7614366,24.4487046 C25.16768,22.3913827 23.5083604,20.8177832 21.4272138,20.3371641" id="Fill-14" fill="#FFFFFF" mask="url(#mask-4)"></path>
                            <path d="M13.6863879,23.3543227 C11.8431437,23.3543227 10.3487565,21.8563048 10.3487565,20.0084091 L11.4213167,13.7452449 L15.9514591,13.7452449 L17.0240193,20.0084091 C17.0240193,21.8563048 15.5296321,23.3543227 13.6863879,23.3543227" id="Fill-15" fill="#FFFFFF" mask="url(#mask-4)"></path>
                            <path d="M19.2760959,9.40445681 C19.0331955,9.34399151 18.7872963,9.36721659 18.5593898,9.4549113 C18.3654693,6.35856725 16.2583333,4.25889961 13.6863879,4.25889961 C11.1144425,4.25889961 9.00730657,6.35856725 8.81338609,9.4549113 C8.58447995,9.36721659 8.33858078,9.34399151 8.09568038,9.40445681 C7.37397632,9.5843511 6.96014601,10.4220558 7.17205911,11.2754775 C7.38397222,12.1287991 8.14066194,12.6747888 8.86236601,12.4948945 C8.97831846,12.4659632 9.08627419,12.4183118 9.18523361,12.3578465 C9.92892866,14.6445161 11.6642171,16.3949065 13.6863879,16.3949065 C15.7085587,16.3949065 17.4438472,14.6445161 18.1875422,12.3578465 C18.2865017,12.4183118 18.3934578,12.4659632 18.5104098,12.4948945 C19.2321139,12.6747888 19.9888036,12.1287991 20.2007167,11.2754775 C20.4116303,10.4220558 19.9987995,9.5843511 19.2760959,9.40445681" id="Fill-16" fill="#FFFFFF" mask="url(#mask-4)"></path>
                            <path d="M9.18523361,12.1367076 C9.21122296,12.1367076 9.2372123,12.1412125 9.26120246,12.1505226 C9.32517623,12.1738478 9.37415615,12.225003 9.39514754,12.2893725 C10.1508377,14.6128819 11.8751306,16.1738678 13.6863879,16.1738678 C15.4966456,16.1738678 17.2219382,14.6128819 17.9776283,12.2893725 C17.9986197,12.225003 18.0475996,12.1738478 18.1105738,12.1505226 C18.173548,12.1266968 18.2445189,12.1339046 18.3024951,12.1690426 C18.3874603,12.2208986 18.4754242,12.2584391 18.5633881,12.2802627 C18.8482713,12.3511392 19.1521467,12.2850679 19.4180377,12.0932607 C19.6949241,11.893545 19.8958418,11.5841108 19.9858049,11.22222 C20.1677303,10.4886277 19.8258704,9.7693509 19.2231176,9.61908862 C19.0351947,9.57213791 18.8322779,9.5868538 18.6373578,9.66133424 C18.5723844,9.68686181 18.4984148,9.67905338 18.4394389,9.64081208 C18.3804631,9.6028711 18.3424787,9.53890201 18.3384803,9.46872622 C18.1575545,6.57820446 16.2003571,4.48013855 13.6863879,4.48013855 C11.1714192,4.48013855 9.21422173,6.57820446 9.03429551,9.46872622 C9.02929756,9.53890201 8.99231272,9.6028711 8.9333369,9.64081208 C8.8733615,9.67905338 8.80039142,9.68686181 8.73441847,9.66133424 C8.54049799,9.58665359 8.33758119,9.57193769 8.14965825,9.61908862 C7.54690541,9.7693509 7.204046,10.4884275 7.3859714,11.22222 C7.47593451,11.5841108 7.67785171,11.893545 7.95473818,12.0932607 C8.22062915,12.2850679 8.52350496,12.3511392 8.80938773,12.2802627 C8.89835125,12.2582389 8.98331641,12.2217995 9.07028075,12.1688423 C9.10526641,12.1474192 9.14525001,12.1367076 9.18523361,12.1367076 Z M13.6863879,16.6161454 C11.7481827,16.6161454 9.91293522,15.0389421 9.05728608,12.6654787 C9.01030534,12.6829976 8.96332461,12.6977135 8.91534428,12.7096264 C8.50251356,12.8127378 8.06969104,12.7212389 7.69684393,12.4521483 C7.3349923,12.1912666 7.07309969,11.7922356 6.95814683,11.3288351 C6.71724561,10.3585873 7.204046,9.39895087 8.04270211,9.1897249 C8.22862587,9.14357506 8.42254635,9.13746847 8.61546725,9.1712049 C8.9133451,6.18057502 11.0104852,4.03786089 13.6863879,4.03786089 C16.3612911,4.03786089 18.4584312,6.18047491 18.7573086,9.1712049 C18.9492299,9.13746847 19.1431504,9.14337484 19.3300737,9.1897249 C20.1687299,9.39925119 20.6555302,10.3585873 20.414629,11.3288351 C20.2996762,11.7922356 20.0377835,12.1912666 19.6759319,12.4521483 C19.3030848,12.7210387 18.8692627,12.8119369 18.456432,12.7096264 C18.4094512,12.6977135 18.3614709,12.6829976 18.3154898,12.6654787 C17.4598406,15.0389421 15.6245932,16.6161454 13.6863879,16.6161454 L13.6863879,16.6161454 Z" id="Fill-17" fill="#EAE7D9" mask="url(#mask-4)"></path>
                            <path d="M8.73241929,10.2325512 C11.1684204,9.77285468 13.7093785,7.59670444 15.2337534,5.6363873 C15.5316313,7.37706723 17.0690009,9.41076362 18.6803402,10.1256357 C18.6803402,10.1256357 19.4470258,3.19575141 13.6863879,3.41909262 C7.92475047,3.64243383 8.73241929,10.2325512 8.73241929,10.2325512" id="Fill-18" fill="#EAE7D9" mask="url(#mask-4)"></path>
                        </g>
                        <path d="M47.9050566,32.1742482 C47.9050566,40.8237897 40.9109246,47.8356625 32.2834622,47.8356625 C23.6550003,47.8356625 16.6608682,40.8237897 16.6608682,32.1742482 C16.6608682,23.5247067 23.6550003,16.5128339 32.2834622,16.5128339 C40.9109246,16.5128339 47.9050566,23.5247067 47.9050566,32.1742482" id="Fill-20" fill="#EAE7D9"></path>
                        <g id="Group-28" transform="translate(18.600073, 18.456933)">
                            <mask id="mask-6" fill="white">
                                <use xlink:href="#path-5"></use>
                            </mask>
                            <g id="Clip-22"></g>
                            <path d="M21.4222159,20.3327594 L13.6833892,18.5458295 L5.94356285,20.3327594 C3.86241622,20.8132783 2.20409622,22.3865775 1.61033968,24.443499 L-0.0689717183,33.338005 L27.4347504,33.338005 L25.755439,24.443499 C25.1616825,22.3865775 23.5033625,20.8132783 21.4222159,20.3327594" id="Fill-21" fill="#FFFFFF" mask="url(#mask-6)"></path>
                            <path d="M13.9042986,23.3493173 L13.4624797,23.3493173 C11.7411856,23.3493173 10.3457577,21.9521083 10.3457577,20.2286469 L10.3457577,13.7423417 L17.020021,13.7423417 L17.020021,20.2286469 C17.020021,21.9521083 15.6245932,23.3493173 13.9042986,23.3493173" id="Fill-23" fill="#FFFFFF" mask="url(#mask-6)"></path>
                            <path d="M19.2181197,9.50506547 C18.978218,9.44520082 18.734318,9.46812558 18.5074111,9.55491931 C18.3154898,6.48910824 16.2303448,4.41006287 13.6833892,4.41006287 C11.1364335,4.41006287 9.05028895,6.48910824 8.85836765,9.55491931 C8.63146069,9.46812558 8.38856029,9.44520082 8.14765907,9.50506547 C7.43295213,9.68315781 7.02312018,10.5125536 7.23303411,11.3575662 C7.44194845,12.2025788 8.19164104,12.7432627 8.90634797,12.5650703 C9.02230043,12.5364394 9.12825698,12.4891883 9.22621681,12.4293237 C9.96291473,14.6935691 11.6812101,16.426841 13.6833892,16.426841 C15.6855682,16.426841 17.402864,14.6935691 18.1395619,12.4293237 C18.2375217,12.4891883 18.3444779,12.5364394 18.4594308,12.5650703 C19.1741377,12.7432627 19.9238303,12.2025788 20.1327446,11.3575662 C20.3426585,10.5125536 19.9328266,9.68315781 19.2181197,9.50506547" id="Fill-24" fill="#FFFFFF" mask="url(#mask-6)"></path>
                            <path d="M13.6833892,16.6479798 C11.6992028,16.6479798 9.8239717,14.9802787 9.01630288,12.4977976 C8.97831846,12.3818724 9.04129264,12.2570376 9.15824468,12.2189965 C9.27319755,12.181456 9.39814631,12.2447243 9.43613073,12.3609498 C10.1838241,14.6606335 11.8911241,16.2057022 13.6833892,16.2057022 C15.4746547,16.2057022 17.1819546,14.6606335 17.929648,12.3609498 C17.9676324,12.2445241 18.0925812,12.181456 18.2085336,12.2189965 C18.3244861,12.2570376 18.3874603,12.3818724 18.3504754,12.4977976 C17.541807,14.9802787 15.666576,16.6479798 13.6833892,16.6479798" id="Fill-25" fill="#EAE7D9" mask="url(#mask-6)"></path>
                            <path d="M15.317719,2.05872342 C11.1824147,1.36267169 6.37538579,2.2262043 8.4075525,8.75825892 L8.93533608,10.3249509 L9.77998974,10.8988708 C9.77998974,10.8988708 9.54208729,6.59272014 10.8885352,6.36867817 C12.1610134,6.15694951 12.2419802,7.00346374 13.7693539,6.96392103 C15.2967276,7.00346374 15.3776944,6.15694951 16.6501726,6.36867817 C17.9956209,6.59272014 17.7587181,10.8988708 17.7587181,10.8988708 L18.6023721,10.3249509 L19.1301557,8.75825892 C20.4736048,3.68287751 18.3204877,1.68251712 15.317719,2.05872342" id="Fill-26" fill="#EAE7D9" mask="url(#mask-6)"></path>
                            <path d="M16.2673296,6.11400312 C16.3942776,6.11400312 16.5332206,6.12521523 16.6861579,6.1507428 C17.9536381,6.3616706 18.0196111,9.29503864 17.9946213,10.4710087 L18.417448,10.1837985 L18.9212414,8.68758259 C19.5759729,6.21180875 19.422036,4.31996556 18.4714258,3.23058904 C17.7807091,2.43783286 16.6991525,2.10877748 15.3457075,2.27806031 C15.3237165,2.28056301 15.3027252,2.27996236 15.2817338,2.2767589 C13.5694359,1.98864774 10.4717061,1.76190286 8.97232092,3.48186041 C8.00671686,4.59035759 7.88776564,6.34335082 8.61846602,8.69228767 L9.12125985,10.1837985 L9.54308688,10.4710087 C9.51809712,9.29473832 9.58506966,6.36147039 10.8525499,6.1507428 C11.5682565,6.03191447 11.9630946,6.2247227 12.3459376,6.4109238 C12.6997925,6.58280943 13.0586453,6.7612021 13.7633564,6.7427822 C14.4680674,6.76090177 14.8389153,6.58300965 15.1917706,6.4109238 C15.4936469,6.26446562 15.8025202,6.11400312 16.2673296,6.11400312 Z M9.77998974,11.1201727 C9.73700736,11.1201727 9.6930254,11.107396 9.65604056,11.0818684 L8.81138691,10.5079486 C8.7714033,10.4809194 8.7414156,10.4413767 8.72642175,10.3956273 L8.19863817,8.82883514 C7.41695869,6.31822368 7.56589762,4.42317703 8.640457,3.19124655 C10.2707885,1.3197253 13.5134588,1.53435711 15.322717,1.83538221 C16.7911148,1.65879149 18.0286074,2.05041445 18.8042893,2.93967485 C19.5379885,3.78008249 20.2267061,5.48172026 19.344068,8.8147199 L18.8122861,10.3956273 C18.7962926,10.4413767 18.7663049,10.4809194 18.7273209,10.5079486 L17.8826673,11.0818684 C17.8126959,11.1294198 17.7227328,11.1328234 17.6497628,11.0913787 C17.5767927,11.0502343 17.5328107,10.9707484 17.5378087,10.8869579 C17.624773,9.2982421 17.4508443,6.72636447 16.6141874,6.58691387 C16.0374239,6.49040964 15.7495419,6.63096144 15.3856911,6.80865335 C15.0028481,6.99485444 14.5670268,7.20297922 13.7633564,7.18505986 C12.9636843,7.20488127 12.5358597,6.99485444 12.1530167,6.80865335 C11.7891659,6.63116165 11.5012839,6.49081007 10.9245204,6.58691387 C10.0868639,6.72636447 9.91293522,9.2982421 9.99989956,10.8869579 C10.0048975,10.9707484 9.96191514,11.0502343 9.88894506,11.0913787 C9.854959,11.1105994 9.81697457,11.1201727 9.77998974,11.1201727 L9.77998974,11.1201727 Z" id="Fill-27" fill="#FFFFFF" mask="url(#mask-6)"></path>
                        </g>
                        <path d="M47.7541185,85.247267 C47.7541185,93.8545629 40.7929729,100.832099 32.2074934,100.832099 C23.6210143,100.832099 16.6608682,93.8545629 16.6608682,85.247267 C16.6608682,76.6389701 23.6210143,69.6614343 32.2074934,69.6614343 C40.7929729,69.6614343 47.7541185,76.6389701 47.7541185,85.247267" id="Fill-29" fill="#EAE7D9"></path>
                        <g id="Group-38" transform="translate(18.591077, 71.596524)">
                            <mask id="mask-8" fill="white">
                                <use xlink:href="#path-7"></use>
                            </mask>
                            <g id="Clip-31"></g>
                            <path d="M21.3182585,20.2338526 L13.6164166,18.4559324 L5.91457474,20.2338526 C3.84342401,20.7123694 2.19310072,22.2780603 1.60234296,24.3252713 L-0.0689717183,33.1758299 L27.301805,33.1758299 L25.6304903,24.3252713 C25.0397325,22.2780603 23.3894092,20.7123694 21.3182585,20.2338526" id="Fill-30" fill="#FFFFFF" mask="url(#mask-8)"></path>
                            <path d="M13.8363264,23.236095 L13.3965068,23.236095 C11.6842089,23.236095 10.2957782,21.8455932 10.2957782,20.1307412 L10.2957782,13.6757698 L16.937055,13.6757698 L16.937055,20.1307412 C16.937055,21.8455932 15.5486243,23.236095 13.8363264,23.236095" id="Fill-32" fill="#FFFFFF" mask="url(#mask-8)"></path>
                            <path d="M19.1241582,9.45921595 C18.8852561,9.39915108 18.6423557,9.42217595 18.417448,9.50826893 C18.2265263,6.45697353 16.1503776,4.38873984 13.6164166,4.38873984 C11.0814561,4.38873984 9.00530739,6.45697353 8.81538527,9.50826893 C8.5894779,9.42217595 8.3465775,9.39915108 8.10767547,9.45921595 C7.39696689,9.63640732 6.98913412,10.4612982 7.19704887,11.3022064 C7.4059632,12.1431146 8.15165743,12.6816962 8.8633656,12.5035038 C8.97731887,12.4754735 9.08327542,12.4284227 9.18123525,12.3683578 C9.91393481,14.6217915 11.6242335,16.3466544 13.6164166,16.3466544 C15.6085997,16.3466544 17.3188984,14.6217915 18.051598,12.3693589 C18.1495578,12.4284227 18.2545148,12.4754735 18.3694676,12.5035038 C19.0811758,12.6816962 19.82687,12.1431146 20.0347848,11.3022064 C20.2436991,10.4612982 19.8358663,9.63640732 19.1241582,9.45921595" id="Fill-33" fill="#FFFFFF" mask="url(#mask-8)"></path>
                            <path d="M9.18123525,12.3683578 C9.91393481,14.6217915 11.6242335,16.3466544 13.6164166,16.3466544 C15.6085997,16.3466544 17.3188984,14.6217915 18.051598,12.3693589 L9.18123525,12.3683578" id="Fill-34" fill="#FFFFFF" mask="url(#mask-8)"></path>
                            <path d="M13.6164166,16.5678933 C11.6412265,16.5678933 9.77499179,14.9081007 8.97132133,12.4374324 C8.9333369,12.321307 8.99631108,12.1961719 9.11226354,12.1581308 C9.22821599,12.1210908 9.35316475,12.1841589 9.39114918,12.3002843 C10.1348442,14.5887559 11.8331478,16.1254154 13.6164166,16.1254154 C15.3986858,16.1254154 17.0969894,14.5887559 17.8416841,12.3002843 C17.8796685,12.1841589 18.0036177,12.1210908 18.1195701,12.1581308 C18.2355226,12.1961719 18.2994963,12.321307 18.2615119,12.4374324 C17.4578414,14.9081007 15.5906071,16.5678933 13.6164166,16.5678933" id="Fill-35" fill="#EAE7D9" mask="url(#mask-8)"></path>
                            <path d="M16.9330566,3.15040243 C13.1256179,0.803868178 6.3433989,2.21539262 8.36656931,8.71541265 L8.89235371,10.2750971 L9.45812172,10.6795339 L10.3657495,6.26676811 C10.3657495,6.26676811 11.16942,6.6872222 12.7417753,6.72226004 C14.2611522,6.76130221 16.8630853,6.16165459 16.8630853,6.16165459 L17.9806271,10.4693069 L18.512409,10.2750971 L19.0371938,8.71541265 C19.6229537,6.61714652 19.9208315,2.77599808 16.9330566,3.15040243" id="Fill-36" fill="#EAE7D9" mask="url(#mask-8)"></path>
                            <path d="M9.07827747,10.1359468 L9.31018238,10.3021263 L10.1498381,6.22171946 C10.1638323,6.15464702 10.2088139,6.09658431 10.2717881,6.06755296 C10.3337627,6.03752052 10.4067327,6.0385216 10.4687073,6.0705562 C10.4757045,6.07456053 11.2553848,6.46798542 12.7457736,6.5010211 C14.225167,6.54306651 16.7881161,5.95242862 16.8131058,5.94642214 C16.9310575,5.91839186 17.0470099,5.99046971 17.0769976,6.10559404 L18.1335644,10.1779922 L18.3364812,10.1039122 L18.8282795,8.64533696 C19.2980869,6.95751412 19.4130397,4.8212069 18.6023721,3.87818844 C18.2285254,3.4447203 17.6917455,3.27753974 16.9600456,3.36963921 C16.9100661,3.3756457 16.8600866,3.3646338 16.8171042,3.33860569 C14.5840199,1.96211909 11.4453069,1.96612341 9.67303359,3.34561326 C8.66444716,4.1304609 7.65586073,5.68814319 8.57748282,8.64934129 L9.07827747,10.1359468 Z M9.45812172,10.9007728 C9.41214057,10.9007728 9.36715902,10.8857566 9.32917459,10.8597285 L8.76340658,10.4552917 C8.72542216,10.4272614 8.69743364,10.3892204 8.68243978,10.3451728 L8.15765497,8.78648941 C7.37797468,6.28178433 7.8207931,4.22756577 9.40114508,2.99623593 C11.2923696,1.52464662 14.6070104,1.49561526 16.9830361,2.92215593 C17.8236914,2.83406079 18.4794226,3.05930405 18.9362352,3.58987707 C19.9168331,4.72910744 19.7189143,7.09566332 19.2501065,8.77547752 L18.7213234,10.3451728 C18.700332,10.409242 18.6513521,10.459296 18.5883779,10.4823209 L18.0565959,10.6765307 C17.9976201,10.6975534 17.9336463,10.693549 17.8776693,10.6645177 C17.8226918,10.6354863 17.7827082,10.5854323 17.7667148,10.5243663 L16.7031509,6.42393785 C16.0484194,6.56609138 14.0372441,6.97653466 12.7357777,6.94349898 C11.6312306,6.91847195 10.8925335,6.70924599 10.5276831,6.57410003 L9.67403318,10.7235815 C9.65903933,10.7966604 9.60806024,10.8577263 9.53808893,10.8847555 C9.51209958,10.8957674 9.48511065,10.9007728 9.45812172,10.9007728 L9.45812172,10.9007728 Z" id="Fill-37" fill="#FFFFFF" mask="url(#mask-8)"></path>
                        </g>
                        <path d="M145.025233,85.2452649 C145.025233,93.8966083 138.030101,100.910183 129.40064,100.910183 C120.771178,100.910183 113.776046,93.8966083 113.776046,85.2452649 C113.776046,76.5949225 120.771178,69.5813479 129.40064,69.5813479 C138.030101,69.5813479 145.025233,76.5949225 145.025233,85.2452649" id="Fill-39" fill="#EAE7D9"></path>
                        <g id="Group-47" transform="translate(115.715251, 71.526449)">
                            <mask id="mask-10" fill="white">
                                <use xlink:href="#path-9"></use>
                            </mask>
                            <g id="Clip-41"></g>
                            <path d="M12.8687232,15.2234413 C13.1755974,15.2234413 13.4444871,15.3095343 13.6474039,15.4717094 C13.8843068,15.6619149 14.0092555,15.9412165 14.0092555,16.280583 C14.0092555,17.4528491 14.9598657,18.4058783 16.1283866,18.4058783 C17.297907,18.4058783 18.2485172,17.4528491 18.2485172,16.280583 C18.2485172,16.0553398 18.2115324,15.8290954 18.1385623,15.6088576 C18.1155717,15.539783 18.1285664,15.4637008 18.1725484,15.404637 C18.2165304,15.3465743 18.2825033,15.3115365 18.3604713,15.318544 L18.4024541,15.3215473 C18.4244451,15.3225484 18.4464361,15.3245505 18.4694267,15.3245505 C19.5799713,15.3245505 20.4836007,14.417571 20.4836007,13.3043687 C20.4836007,13.2683298 20.4816016,13.234293 20.4796024,13.1992552 L20.4776032,13.1732271 C20.4736048,13.110159 20.4955958,13.049093 20.5395778,13.0040444 C20.5835598,12.9589957 20.6455343,12.9319665 20.7065093,12.9369719 L20.7574884,12.9399752 C20.7744815,12.9409763 20.7924741,12.9429784 20.8094671,12.9429784 C22.3248457,12.9429784 23.55834,11.7066432 23.55834,10.187002 C23.55834,8.75345373 22.4857798,7.5751812 21.063363,7.44504064 C20.9883938,7.43803308 20.9224208,7.3939855 20.8884347,7.32791415 C20.8534491,7.26184279 20.8534491,7.18275738 20.8904339,7.11668602 C21.0813556,6.77131302 21.1833138,6.37989028 21.1833138,5.98446322 C21.1833138,4.69707284 20.1377426,3.64994194 18.8532693,3.64994194 C18.6183656,3.64994194 18.3864607,3.68497978 18.1635521,3.75405438 C18.0935808,3.77607816 18.0146131,3.76006087 17.9576365,3.71301005 C17.8996603,3.66495815 17.8706722,3.59087815 17.8796685,3.51679814 C17.8926632,3.40067273 17.8996603,3.30356785 17.8996603,3.2104673 C17.8996603,1.78793097 16.7451337,0.629680054 15.3257157,0.629680054 C14.1851834,0.629680054 13.1686002,1.39750931 12.8537294,2.49669643 C12.832738,2.57077644 12.7727626,2.62883915 12.6977933,2.64886077 C12.6218244,2.66888239 12.5428568,2.64785969 12.4878794,2.59380131 C12.0750487,2.19036559 11.5322712,1.96812558 10.9585065,1.96812558 C9.83296801,1.96812558 8.87536068,2.849077 8.77940003,3.97329115 C8.7724029,4.0503744 8.72542216,4.11844792 8.65645044,4.15248468 C8.58647913,4.18652144 8.50451274,4.18151604 8.43953939,4.13947063 C8.08468489,3.91122412 7.67585253,3.7900933 7.25602468,3.7900933 C6.04851982,3.7900933 5.06692232,4.77415609 5.06692232,5.98446322 C5.06692232,6.6501822 5.36280099,7.2718536 5.88058868,7.69130661 C5.94556204,7.74436391 5.97554974,7.82945581 5.95755712,7.91054339 C5.93956449,7.99263204 5.87758991,8.05670124 5.79662311,8.07772394 C4.62610308,8.37804829 3.80943795,9.43218676 3.80943795,10.6424939 C3.80943795,11.5905178 4.3202285,12.4714692 5.14489035,12.9439795 C5.24285018,13.0010411 5.28283379,13.123173 5.23585305,13.2272855 C5.12389896,13.4745525 5.06692232,13.7358347 5.06692232,14.0041245 C5.06692232,15.0412445 5.90757761,15.8841549 6.94115379,15.8841549 C7.14606977,15.8841549 7.35098574,15.8501181 7.55090377,15.7810435 C7.62587303,15.7550154 7.71083819,15.7720338 7.769814,15.8260922 C7.82978941,15.8791495 7.85577875,15.9612381 7.83778613,16.0393225 C7.80679884,16.1744684 7.7908054,16.3096144 7.7908054,16.440756 C7.7908054,17.4388339 8.60147298,18.2517118 9.59606515,18.2517118 C10.5916569,18.2517118 11.4023245,17.4388339 11.4023245,16.440756 C11.4023245,15.6889441 12.1630126,15.2234413 12.8687232,15.2234413 Z M16.1283866,18.8483562 C14.7169653,18.8483562 13.5674367,17.6971129 13.5674367,16.280583 C13.5674367,15.7259841 13.0786371,15.6659192 12.8687232,15.6659192 C12.3729265,15.6659192 11.8431437,15.9772554 11.8431437,16.440756 C11.8431437,17.6830977 10.8355569,18.6931886 9.59606515,18.6931886 C8.357573,18.6931886 7.34998615,17.6830977 7.34998615,16.440756 C7.34998615,16.390702 7.35098574,16.3396468 7.3549841,16.2885917 C7.21804026,16.3136187 7.08009682,16.3266328 6.94115379,16.3266328 C5.66467721,16.3266328 4.62510349,15.2855083 4.62510349,14.0041245 C4.62510349,13.7378369 4.67008504,13.4765547 4.76004815,13.2262844 C3.89640229,12.6566692 3.36761912,11.6836183 3.36761912,10.6424939 C3.36761912,9.36111 4.15329695,8.2288872 5.31881903,7.76838986 C4.87400143,7.28486766 4.62510349,6.65318544 4.62510349,5.98446322 C4.62510349,4.53089336 5.80561942,3.34761542 7.25602468,3.34761542 C7.64986319,3.34761542 8.03570498,3.43571057 8.38856029,3.60589437 C8.64745413,2.41660994 9.71801515,1.52664878 10.9585065,1.52664878 C11.53527,1.52664878 12.0860441,1.71284988 12.5398581,2.05622072 C13.0006691,0.941016298 14.1022174,0.18820326 15.3257157,0.18820326 C16.9880341,0.18820326 18.3404795,1.54366716 18.3404795,3.2104673 C18.3404795,3.22548352 18.3404795,3.24049974 18.3404795,3.25451488 C18.5094103,3.22348136 18.6803402,3.20746406 18.8532693,3.20746406 C20.3816426,3.20746406 21.6241331,4.45280903 21.6241331,5.98446322 C21.6241331,6.34985785 21.5521626,6.71224923 21.4132196,7.04761142 C22.9076068,7.33091739 24.0001588,8.62931967 24.0001588,10.187002 C24.0001588,11.9118648 22.6307203,13.3223882 20.92442,13.3834541 C20.8844364,14.6488207 19.8868454,15.6769311 18.6363582,15.7610219 C18.6723434,15.9332079 18.6903361,16.107396 18.6903361,16.280583 C18.6903361,17.6971129 17.5408074,18.8483562 16.1283866,18.8483562 L16.1283866,18.8483562 Z" id="Fill-40" fill="#FFFFFF" mask="url(#mask-10)"></path>
                            <path d="M21.4252146,20.3359628 L13.6853883,18.549033 L5.94556204,20.3359628 C3.86341581,20.8164818 2.20509581,22.3901814 1.61133927,24.4474032 L-0.0689717183,33.3430105 L27.4397484,33.3430105 L25.7594374,24.4474032 C25.1656809,22.3901814 23.5073609,20.8164818 21.4252146,20.3359628" id="Fill-42" fill="#FFFFFF" mask="url(#mask-10)"></path>
                            <path d="M13.6853883,23.3532215 C11.8421442,23.3532215 10.3477569,21.854603 10.3477569,20.0066071 L11.4203171,13.7438434 L15.9504595,13.7438434 L17.0230197,20.0066071 C17.0230197,21.854603 15.5286325,23.3532215 13.6853883,23.3532215" id="Fill-43" fill="#FFFFFF" mask="url(#mask-10)"></path>
                            <path d="M19.2750963,9.40415649 C19.0321959,9.34309054 18.7862967,9.3661154 18.5573906,9.45421055 C18.3634701,6.3578665 16.2573337,4.25859929 13.6853883,4.25859929 C11.113443,4.25859929 9.00630698,6.3578665 8.81338609,9.45421055 C8.58447995,9.3661154 8.33858078,9.34309054 8.09568038,9.40415649 C7.37397632,9.58335002 6.96014601,10.421255 7.17105952,11.2741761 C7.38297263,12.1280983 8.13966235,12.6736876 8.86136642,12.4944941 C8.97831846,12.4654627 9.0852746,12.4174108 9.18423402,12.3573459 C9.92792907,14.6438153 11.6632175,16.3937052 13.6853883,16.3937052 C15.7075591,16.3937052 17.4428476,14.6438153 18.1865426,12.3573459 C18.2855021,12.4174108 18.3924582,12.4654627 18.5084107,12.4944941 C19.2311143,12.6736876 19.987804,12.1280983 20.1987176,11.2741761 C20.4106307,10.421255 19.9968004,9.58335002 19.2750963,9.40415649" id="Fill-44" fill="#FFFFFF" mask="url(#mask-10)"></path>
                            <path d="M9.18423402,12.136107 C9.21022337,12.136107 9.23621271,12.1401113 9.26120246,12.1491211 C9.32417664,12.173147 9.37315656,12.2242021 9.39414795,12.2882713 C10.1508377,14.6117807 11.8751306,16.1724663 13.6853883,16.1724663 C15.495646,16.1724663 17.2209386,14.6117807 17.9766287,12.2882713 C17.9976201,12.2242021 18.0466,12.173147 18.1095742,12.1491211 C18.1725484,12.1260962 18.2435193,12.1331038 18.3014955,12.1681416 C18.3864607,12.2201978 18.4744246,12.2572378 18.5623885,12.2792616 C18.8472717,12.3503384 19.1501475,12.284267 19.4160385,12.0920594 C19.692925,11.8928443 19.8948422,11.5835102 19.9848053,11.2211188 C20.1667307,10.4873263 19.8248709,9.76855003 19.222118,9.61838786 C19.0331955,9.57133704 18.8312783,9.58635326 18.6363582,9.66043327 C18.5713848,9.6854603 18.4974152,9.67845273 18.4384394,9.64041164 C18.3794635,9.60237056 18.3414791,9.53830137 18.3374808,9.46822568 C18.1565549,6.57710327 16.2003571,4.47983823 13.6853883,4.47983823 C11.1704196,4.47983823 9.21422173,6.57710327 9.03329592,9.46822568 C9.02929756,9.53830137 8.99131313,9.60237056 8.93233731,9.64041164 C8.8733615,9.67845273 8.79939183,9.6854603 8.73441847,9.66043327 C8.5394984,9.58635326 8.33758119,9.57133704 8.14865866,9.61838786 C7.54590582,9.76855003 7.204046,10.4873263 7.3859714,11.2211188 C7.47593451,11.5835102 7.67785171,11.8928443 7.95473818,12.0920594 C8.21962956,12.284267 8.52350496,12.3503384 8.80838814,12.2792616 C8.89835125,12.2572378 8.98331641,12.2211989 9.06928116,12.1681416 C9.10426681,12.1471189 9.14425042,12.136107 9.18423402,12.136107 Z M13.6853883,16.6149441 C11.7471831,16.6149441 9.91193563,15.0382413 9.05628649,12.6646779 C9.00930575,12.6816962 8.96232502,12.6967124 8.91434469,12.7087254 C8.50151397,12.8118368 8.06869145,12.7207384 7.69584434,12.4514476 C7.3349923,12.1901654 7.0721001,11.7917351 6.95714724,11.3282345 C6.71624602,10.3581868 7.20304641,9.39815 8.04270211,9.18892404 C8.22862587,9.1428743 8.42254635,9.13686782 8.61446766,9.17090458 C8.9133451,6.17967405 11.0104852,4.03736035 13.6853883,4.03736035 C16.3602915,4.03736035 18.4574316,6.17967405 18.756309,9.17090458 C18.9482303,9.13686782 19.1421508,9.1428743 19.3280746,9.18892404 C20.1677303,9.39815 20.6535311,10.3571858 20.4136294,11.3282345 C20.2986766,11.7917351 20.0357844,12.1901654 19.6739327,12.4514476 C19.3020852,12.7197373 18.8682631,12.8108357 18.4554324,12.7087254 C18.4084517,12.6967124 18.3604713,12.6816962 18.3144902,12.6646779 C17.458841,15.0382413 15.6235936,16.6149441 13.6853883,16.6149441 L13.6853883,16.6149441 Z" id="Fill-45" fill="#EAE7D9" mask="url(#mask-10)"></path>
                            <path d="M8.89835125,9.52228407 C11.3343524,9.06178673 13.7083789,7.5962039 15.2327538,5.63608697 C15.5306317,7.37596604 16.99803,8.80651103 18.6093693,9.52228407 C18.6093693,9.52228407 19.4460262,3.19545109 13.6853883,3.41869219 C7.92475047,3.64193329 8.89835125,9.52228407 8.89835125,9.52228407" id="Fill-46" fill="#EAE7D9" mask="url(#mask-10)"></path>
                        </g>
                        <path d="M56.8164026,54.2131502 L94.5639243,54.2131502 L94.5639243,24.4134665 L50.6129463,24.4134665 L56.7624247,31.5509751 C56.7974103,31.5911184 56.8164026,31.6422737 56.8164026,31.6954311 L56.8164026,54.2131502 Z M94.7848337,54.6554279 L56.5954931,54.6554279 C56.4735431,54.6554279 56.3745837,54.556521 56.3745837,54.434289 L56.3745837,31.7777199 L49.9642123,24.3368838 C49.9072356,24.2714131 49.894241,24.1790133 49.9302262,24.1004285 C49.9662115,24.0218436 50.0441795,23.971289 50.1311438,23.971289 L94.7848337,23.971289 C94.9067837,23.971289 95.0057431,24.0700957 95.0057431,24.1924278 L95.0057431,54.434289 C95.0057431,54.556521 94.9067837,54.6554279 94.7848337,54.6554279 L94.7848337,54.6554279 Z" id="Fill-48" fill="#000000"></path>
                        <path d="M83.6653932,30.4384736 L61.6984007,30.4384736 C61.5764507,30.4384736 61.4774913,30.3395667 61.4774913,30.2173347 C61.4774913,30.0951027 61.5764507,29.9961959 61.6984007,29.9961959 L83.6653932,29.9961959 C83.7873432,29.9961959 83.8863026,30.0951027 83.8863026,30.2173347 C83.8863026,30.3395667 83.7873432,30.4384736 83.6653932,30.4384736" id="Fill-49" fill="#000000"></path>
                        <path d="M90.1297425,36.7080447 L61.6984007,36.7080447 C61.5764507,36.7080447 61.4774913,36.6091379 61.4774913,36.4869059 C61.4774913,36.3646738 61.5764507,36.265767 61.6984007,36.265767 L90.1297425,36.265767 C90.2516925,36.265767 90.3506519,36.3646738 90.3506519,36.4869059 C90.3506519,36.6091379 90.2516925,36.7080447 90.1297425,36.7080447" id="Fill-50" fill="#000000"></path>
                        <path d="M90.1297425,42.9774156 L61.6984007,42.9774156 C61.5764507,42.9774156 61.4774913,42.8785088 61.4774913,42.7562768 C61.4774913,42.6340448 61.5764507,42.5351379 61.6984007,42.5351379 L90.1297425,42.5351379 C90.2516925,42.5351379 90.3506519,42.6340448 90.3506519,42.7562768 C90.3506519,42.8785088 90.2516925,42.9774156 90.1297425,42.9774156" id="Fill-51" fill="#000000"></path>
                        <path d="M83.6653932,49.2467865 L61.6984007,49.2467865 C61.5764507,49.2467865 61.4774913,49.1478797 61.4774913,49.0256477 C61.4774913,48.9034157 61.5764507,48.804609 61.6984007,48.804609 L83.6653932,48.804609 C83.7873432,48.804609 83.8863026,48.9034157 83.8863026,49.0256477 C83.8863026,49.1478797 83.7873432,49.2467865 83.6653932,49.2467865" id="Fill-52" fill="#000000"></path>
                        <path d="M56.6224821,107.177952 L94.1850796,107.177952 L94.1850796,77.5249269 L50.4510127,77.5249269 L56.5685042,84.6255956 C56.6034899,84.6656389 56.6224821,84.7176951 56.6224821,84.7707524 L56.6224821,107.177952 Z M94.405989,107.62043 L56.4015727,107.62043 C56.2796227,107.62043 56.1806632,107.521323 56.1806632,107.399191 L56.1806632,84.8528411 L49.8012791,77.4488448 C49.745302,77.3827734 49.7323074,77.2906739 49.7682926,77.2115885 C49.8042779,77.1335042 49.8822459,77.082449 49.9682106,77.082449 L94.405989,77.082449 C94.527939,77.082449 94.6268984,77.1815561 94.6268984,77.303688 L94.6268984,107.399191 C94.6268984,107.521323 94.527939,107.62043 94.405989,107.62043 L94.405989,107.62043 Z" id="Fill-53" fill="#000000"></path>
                        <path d="M87.7587147,83.520402 L61.4804901,83.520402 C61.3575405,83.520402 61.2595806,83.4222961 61.2595806,83.2991631 C61.2595806,83.1770312 61.3575405,83.0789252 61.4804901,83.0789252 L87.7587147,83.0789252 C87.8806647,83.0789252 87.9796241,83.1770312 87.9796241,83.2991631 C87.9796241,83.4222961 87.8806647,83.520402 87.7587147,83.520402" id="Fill-54" fill="#000000"></path>
                        <path d="M80.9375117,89.760141 L61.4804901,89.760141 C61.3575405,89.760141 61.2595806,89.6610339 61.2595806,89.538902 C61.2595806,89.4167701 61.3575405,89.3176631 61.4804901,89.3176631 L80.9375117,89.3176631 C81.0594617,89.3176631 81.1584212,89.4167701 81.1584212,89.538902 C81.1584212,89.6610339 81.0594617,89.760141 80.9375117,89.760141" id="Fill-55" fill="#000000"></path>
                        <path d="M89.7738884,95.9988788 L61.4804901,95.9988788 C61.3575405,95.9988788 61.2595806,95.8997718 61.2595806,95.7776399 C61.2595806,95.6555079 61.3575405,95.5564009 61.4804901,95.5564009 L89.7738884,95.5564009 C89.8958384,95.5564009 89.9947978,95.6555079 89.9947978,95.7776399 C89.9947978,95.8997718 89.8958384,95.9988788 89.7738884,95.9988788" id="Fill-56" fill="#000000"></path>
                        <path d="M81.1314322,102.237617 L61.4804901,102.237617 C61.3575405,102.237617 61.2595806,102.139511 61.2595806,102.016378 C61.2595806,101.894246 61.3575405,101.79614 61.4804901,101.79614 L81.1314322,101.79614 C81.2533822,101.79614 81.3523416,101.894246 81.3523416,102.016378 C81.3523416,102.139511 81.2533822,102.237617 81.1314322,102.237617" id="Fill-57" fill="#000000"></path>
                        <path d="M153.819627,54.031454 L191.386222,54.031454 L191.386222,24.3748248 L147.647158,24.3748248 L153.765649,31.4766948 C153.800634,31.5168382 153.819627,31.5679934 153.819627,31.6211508 L153.819627,54.031454 Z M191.607132,54.4736315 L153.598717,54.4736315 C153.476767,54.4736315 153.377808,54.3747247 153.377808,54.2524927 L153.377808,31.7034397 L146.997424,24.298142 C146.941447,24.2327714 146.928452,24.1403716 146.964438,24.0616866 C147.000423,23.9831017 147.078391,23.9325472 147.165355,23.9325472 L191.607132,23.9325472 C191.729082,23.9325472 191.828041,24.0315541 191.828041,24.153686 L191.828041,54.2524927 C191.828041,54.3747247 191.729082,54.4736315 191.607132,54.4736315 L191.607132,54.4736315 Z" id="Fill-58" fill="#000000"></path>
                        <path d="M184.958858,30.371301 L158.677635,30.371301 C158.555685,30.371301 158.456725,30.2723942 158.456725,30.1501622 C158.456725,30.0279302 158.555685,29.9290233 158.677635,29.9290233 L184.958858,29.9290233 C185.080808,29.9290233 185.179767,30.0279302 185.179767,30.1501622 C185.179767,30.2723942 185.080808,30.371301 184.958858,30.371301" id="Fill-59" fill="#000000"></path>
                        <path d="M178.138655,36.6110399 L158.677635,36.6110399 C158.555685,36.6110399 158.456725,36.5122332 158.456725,36.3899011 C158.456725,36.2677692 158.555685,36.1688624 158.677635,36.1688624 L178.138655,36.1688624 C178.260605,36.1688624 178.359564,36.2677692 178.359564,36.3899011 C178.359564,36.5122332 178.260605,36.6110399 178.138655,36.6110399" id="Fill-60" fill="#000000"></path>
                        <path d="M186.974032,42.8508789 L158.677635,42.8508789 C158.555685,42.8508789 158.456725,42.7519721 158.456725,42.6297401 C158.456725,42.5075081 158.555685,42.4086013 158.677635,42.4086013 L186.974032,42.4086013 C187.096981,42.4086013 187.194941,42.5075081 187.194941,42.6297401 C187.194941,42.7519721 187.096981,42.8508789 186.974032,42.8508789" id="Fill-61" fill="#000000"></path>
                        <path d="M180.54067,49.090718 L158.677635,49.090718 C158.555685,49.090718 158.456725,48.9918112 158.456725,48.8695791 C158.456725,48.7473471 158.555685,48.6484403 158.677635,48.6484403 L180.54067,48.6484403 C180.66262,48.6484403 180.761579,48.7473471 180.761579,48.8695791 C180.761579,48.9918112 180.66262,49.090718 180.54067,49.090718" id="Fill-62" fill="#000000"></path>
                        <path d="M153.817627,107.177952 L191.382224,107.177952 L191.382224,77.5229248 L147.645158,77.5229248 L153.76365,84.6245946 C153.798635,84.6646378 153.817627,84.7156929 153.817627,84.7687503 L153.817627,107.177952 Z M191.603134,107.62043 L153.596718,107.62043 C153.474768,107.62043 153.375809,107.521323 153.375809,107.399191 L153.375809,84.85184 L146.996424,77.4468426 C146.939448,77.3807712 146.926453,77.2886718 146.962438,77.2095864 C146.998424,77.131502 147.076392,77.0804469 147.163356,77.0804469 L191.603134,77.0804469 C191.725084,77.0804469 191.824043,77.1795539 191.824043,77.3016858 L191.824043,107.399191 C191.824043,107.521323 191.725084,107.62043 191.603134,107.62043 L191.603134,107.62043 Z" id="Fill-63" fill="#000000"></path>
                        <path d="M180.536671,83.519401 L158.675635,83.519401 C158.552686,83.519401 158.454726,83.4202939 158.454726,83.298162 C158.454726,83.1760301 158.552686,83.0769231 158.675635,83.0769231 L180.536671,83.0769231 C180.658621,83.0769231 180.757581,83.1760301 180.757581,83.298162 C180.757581,83.4202939 180.658621,83.519401 180.536671,83.519401" id="Fill-64" fill="#000000"></path>
                        <path d="M186.970033,89.7591399 L158.675635,89.7591399 C158.552686,89.7591399 158.454726,89.6600328 158.454726,89.5379009 C158.454726,89.415769 158.552686,89.316662 158.675635,89.316662 L186.970033,89.316662 C187.091983,89.316662 187.190943,89.415769 187.190943,89.5379009 C187.190943,89.6600328 187.091983,89.7591399 186.970033,89.7591399" id="Fill-65" fill="#000000"></path>
                        <path d="M171.507374,95.9978777 L158.675635,95.9978777 C158.552686,95.9978777 158.454726,95.8997718 158.454726,95.7766388 C158.454726,95.6545069 158.552686,95.5564009 158.675635,95.5564009 L171.507374,95.5564009 C171.629324,95.5564009 171.728283,95.6545069 171.728283,95.7766388 C171.728283,95.8997718 171.629324,95.9978777 171.507374,95.9978777" id="Fill-66" fill="#000000"></path>
                        <path d="M184.95486,102.237617 L158.675635,102.237617 C158.552686,102.237617 158.454726,102.13851 158.454726,102.016378 C158.454726,101.894246 158.552686,101.795139 158.675635,101.795139 L184.95486,101.795139 C185.07681,101.795139 185.175769,101.894246 185.175769,102.016378 C185.175769,102.13851 185.07681,102.237617 184.95486,102.237617" id="Fill-67" fill="#000000"></path>
                        <path d="M104.6218,115.123533 C104.49985,115.123533 104.400891,115.024426 104.400891,114.902294 L104.400891,14.1846194 C104.400891,14.0623874 104.49985,13.9634806 104.6218,13.9634806 C104.74375,13.9634806 104.842709,14.0623874 104.842709,14.1846194 L104.842709,114.902294 C104.842709,115.024426 104.74375,115.123533 104.6218,115.123533" id="Fill-68" fill="#000000"></path>
                        <path d="M183.570427,64.7646458 L32.2994557,64.7646458 C32.1775057,64.7646458 32.0785463,64.6658391 32.0785463,64.543507 C32.0785463,64.4213751 32.1775057,64.3223682 32.2994557,64.3223682 L183.570427,64.3223682 C183.693377,64.3223682 183.791337,64.4213751 183.791337,64.543507 C183.791337,64.6658391 183.693377,64.7646458 183.570427,64.7646458" id="Fill-69" fill="#000000"></path>
                    </g>
                    <g transform="translate(41.000000, 277.500000)">
                        <polyline id="Fill-240" stroke="#000000" stroke-width="0.3" fill="#EAE7D9" points="115.336965 48.1980983 106.177019 28.7380129 86.1448942 20.9233235 133 0 115.336965 48.1980983"></polyline>
                        <path d="M106.177019,28.9383742 C106.126954,28.9383742 106.078891,28.920542 106.040841,28.884477 C105.958734,28.8089408 105.954729,28.6821122 106.030828,28.6011662 L123.561691,9.81810146 C123.63779,9.73735588 123.763955,9.73314829 123.844059,9.80848412 C123.926166,9.88402031 123.930172,10.010849 123.854072,10.0917949 L106.32321,28.8746593 C106.283157,28.9169355 106.229087,28.9383742 106.177019,28.9383742" id="Fill-241" fill="#000000"></path>
                        <path d="M57.6957924,99.0433694 C47.172068,101.848026 38.0491704,110.033985 34.5015438,120.362006 C33.6668552,122.791786 32.0952055,128.864736 35.5176689,132.768774 C37.5198801,135.052492 41.0126352,136.079944 44.4164743,135.386093 C47.2982325,134.798233 50.085868,133.125217 52.6992762,130.413328 C59.0996232,123.76995 61.7270498,113.394444 59.3920045,103.980671 C58.9734587,102.297036 58.4027143,100.644857 57.6957924,99.0433694 Z M42.3051207,136 C39.5166842,136 36.8794449,134.929871 35.2164761,133.033051 C31.6558325,128.971328 33.2655318,122.72747 34.1226496,120.23157 C37.7055222,109.801365 46.9077232,101.529251 57.5295756,98.6737029 C54.443551,91.9287421 48.9043271,86.1008347 41.9829005,82.5093595 C33.8082396,78.2675117 23.9531872,77.0681493 14.2323097,79.1326716 C9.52457017,80.1324741 3.29925145,82.4222024 0.375037851,87.6522318 C0.320967335,87.7486056 0.199208544,87.7832681 0.102482399,87.7291705 C0.00595651553,87.675073 -0.0284884056,87.553053 0.0255821101,87.4564789 C3.02289103,82.0954132 9.36035601,79.7577986 14.1492014,78.740765 C23.9601963,76.6572084 33.910573,77.8691936 42.1673411,82.153518 C49.1886979,85.7968867 54.8040211,91.7187635 57.9220875,98.5705168 C59.642331,98.131325 61.3966188,97.8343896 63.1689302,97.6929346 C68.167449,97.2942157 73.2240435,98.0303429 78.1124186,98.7422264 C79.4741946,98.9407844 80.8820306,99.145754 82.2658353,99.3226729 C88.1354902,100.073427 94.9563856,100.49118 101.044325,97.896702 C106.479413,95.5797246 111.646151,89.8201404 111.003313,83.2947756 C110.422556,77.4077616 105.626301,72.996809 101.176498,69.3247885 C96.6946526,65.6267211 91.6160293,61.435164 90.3684022,55.5854172 C89.5933915,51.9452542 90.4104571,47.7312566 92.6674005,43.7194235 C94.6880357,40.1319556 97.5357495,37.0966831 100.291343,34.161391 C100.367442,34.0806454 100.493607,34.0768385 100.573711,34.1525751 C100.655819,34.2283116 100.659824,34.3551403 100.583724,34.4356855 C97.8441517,37.3537466 95.0124587,40.3709865 93.0178575,43.9161783 C90.8069742,47.8428579 90.0059295,51.9572759 90.7609141,55.5018666 C91.978502,61.2147666 97.0010522,65.3592389 101.430829,69.0154308 C105.942713,72.7387437 110.805055,77.216617 111.401833,83.2553044 C112.064697,89.9730161 106.771795,95.891086 101.200529,98.2651663 C95.026477,100.897312 88.1374928,100.477555 82.21577,99.7201896 C80.8279601,99.5426696 79.4181215,99.3374997 78.0563455,99.1389417 C73.1879965,98.430264 68.1554333,97.6969418 63.200972,98.0924549 C61.4727181,98.2303035 59.7644903,98.5176215 58.0883043,98.9411851 C58.7932236,100.545077 59.3619653,102.198859 59.7805112,103.883897 C62.1475982,113.428505 59.482122,123.951277 52.9876523,130.691429 C50.3161683,133.462826 47.460444,135.174311 44.4965787,135.778601 C43.7656255,135.92767 43.030667,136 42.3051207,136 L42.3051207,136 Z" id="Fill-251" fill="#000000"></path>
                    </g>
                    <path d="M373.762557,161.204245 C366.324192,159.589284 360.573524,156.146271 358.624434,148.39537 C357.982314,145.835413 357.340194,143.275457 356.692391,140.7155 C355.822972,146.658804 355.641132,154.863735 349.663165,158.07945 C346.918528,159.558031 343.889767,160.512119 340.792816,160.876366 C345.833174,162.566335 351.220164,165.685447 353.925024,170.407019 C356.470774,174.836511 355.476341,180.458755 357.749332,184.7155 C358.726718,180.066664 358.243708,175.645696 360.437144,171.153128 C363.63638,164.619983 367.69367,162.888531 374.467184,161.350285 C374.22852,161.30312 373.995538,161.254819 373.762557,161.204245" id="Fill-205-Copy-3" fill="#E1DDCC" fill-rule="nonzero"></path>
                    <path d="M218.762557,447.204245 C211.324192,445.589284 205.573524,442.146271 203.624434,434.39537 C202.982314,431.835413 202.340194,429.275457 201.692391,426.7155 C200.822972,432.658804 200.641132,440.863735 194.663165,444.07945 C191.918528,445.558031 188.889767,446.512119 185.792816,446.876366 C190.833174,448.566335 196.220164,451.685447 198.925024,456.407019 C201.470774,460.836511 200.476341,466.458755 202.749332,470.7155 C203.726718,466.066664 203.243708,461.645696 205.437144,457.153128 C208.63638,450.619983 212.69367,448.888531 219.467184,447.350285 C219.22852,447.30312 218.995538,447.254819 218.762557,447.204245" id="Fill-205-Copy-4" fill="#E1DDCC" fill-rule="nonzero"></path>
                    <path d="M608.764014,226 C604.767039,226 601.528028,229.350159 601.528028,233.482956 C601.528028,233.518969 601.518279,233.58464 601.501219,233.671025 C601.484158,233.58464 601.471972,233.518969 601.471972,233.482956 C601.471972,229.350159 598.232961,226 594.235986,226 C590.241449,226 587,229.350159 587,233.482956 C587,244.183553 601.471972,248 601.471972,248 C601.471972,248 601.484158,247.985877 601.501219,247.960927 C601.518279,247.985877 601.528028,248 601.528028,248 C601.528028,248 616,244.183553 616,233.482956 C616,229.350159 612.760988,226 608.764014,226" id="Fill-54-Copy" fill="#E1DDCC" fill-rule="nonzero"></path>
                </g>
            </g>
        </g>
    </g>
</svg>