<?xml version="1.0" encoding="UTF-8"?>
<svg width="207px" height="206px" viewBox="0 0 207 206" version="1.1" xmlns="http://www.w3.org/2000/svg" xmlns:xlink="http://www.w3.org/1999/xlink">
    <title>Group Copy 3 3</title>
    <g id="Page-1" stroke="none" stroke-width="1" fill="none" fill-rule="evenodd">
        <g id="Group-Copy-3">
            <path d="M157.544139,193.841092 C114.124699,219.104163 61.1654246,200.647026 32.1776613,171.6307 C-5.79506443,133.61524 -8.93768632,71.1483436 17.8778609,34.1163155 C29.0275748,18.7190477 52.3073613,-2.61277489 77.1621911,0.26290224 C98.2274618,2.70003861 101.036662,20.2384464 136.110612,47.7195078 C175.879832,78.8792049 193.068456,72.627582 202.349517,92.2860579 C216.179044,121.579788 195.225743,171.917276 157.544139,193.841092" id="Fill-170" fill="#F1F7E7"></path>
            <path d="M125.23709,202.908647 L54.7731873,202.20956 C42.0285244,202.20956 31.1301207,193.922404 28.8981873,181.306114 L16.8352967,113.118356 C15.3995937,104.994816 21.6101909,97.538631 29.8138523,97.538631 L75.7911818,97.538631 L125.23709,202.908647" id="Fill-171" fill="#C3D1AB"></path>
            <path d="M35.8975502,150.55868 C35.7183984,150.55868 35.5616405,150.431506 35.5292937,150.25128 L29.6844649,117.150253 C29.6471416,116.948212 29.7839937,116.755343 29.9855395,116.719645 C30.1895735,116.684939 30.3836547,116.819302 30.4184898,117.021591 L36.2658068,150.122123 C36.3006419,150.32466 36.166278,150.51728 35.962244,150.552978 C35.93985,150.556697 35.9199442,150.55868 35.8975502,150.55868" id="Fill-172" fill="#F1F7E7"></path>
            <path d="M97.8044644,42.5316376 C102.492271,43.5460575 106.140001,49.3008824 103.183996,55.7570254 C100.770423,61.0314139 93.4749615,59.3417057 90.7951486,62.5317241 C82.228207,72.7319492 67.7791134,96.9047425 51.772394,100.688241 C39.0028488,103.70671 16.8029498,95.5224342 10.5077531,79.0896747 C4.523584,63.4645839 8.69881719,44.8215194 22.471115,40.1254891 C34.8524978,35.9039455 40.2992115,51.417232 53.1384268,47.9029562 C65.7935138,44.438509 67.3760217,38.7982153 74.6441124,37.4483824 C82.4446822,35.9993882 84.512393,39.656952 97.8044644,42.5316376" id="Fill-173" fill="#000000"></path>
            <path d="M108.971596,92.3222518 C108.971596,92.3222518 114.821401,98.0753414 118.240215,113.245778 C121.656541,128.416214 140.818324,138.092124 150.699046,133.358164 C160.579767,128.624453 160.888307,126.187564 160.888307,126.187564 L160.107005,133.825958 C160.107005,133.825958 142.756647,166.04916 115.187169,147.015152 C109.51154,143.097785 101.576606,137.026636 99.4342485,132.156578 C91.1683816,113.364028 108.971596,92.3222518 108.971596,92.3222518" id="Fill-174" fill="#78B517"></path>
            <path d="M115.14487,141.524592 C107.717533,111.355764 117.125493,98.647502 106.478399,89.3223752 C96.7320415,80.7880596 79.8519569,83.5514365 72.5490312,84.7470737 C64.2632585,86.1036 57.3982594,87.2270973 52.7278705,92.4645482 C51.4887369,93.8555331 50.6103952,95.3122123 50.0057578,96.8625989 L50.0057578,96.8566492 C41.085489,113.587884 48.3162564,130.862027 52.7726584,138.843023 C53.5091716,170.840137 40.7968555,180.456302 49.1672276,192.30781 C58.2318132,205.139776 80.6382344,204.492749 92.4075151,201.936867 C96.5354722,201.040449 119.678407,195.49411 124.963386,178.877407 C128.429476,167.982805 120.604024,163.6916 115.14487,141.524592" id="Fill-175" fill="#78B517"></path>
            <path d="M38.201642,205.628145 L5.35962593,205.628145 C2.60516636,205.628145 0.373233003,202.995413 0.373233003,199.750112 L0.373233003,159.992637 C0.373233003,156.746344 2.60516636,154.1151 5.35962593,154.1151 L201.640374,154.1151 C204.394834,154.1151 206.626767,156.746344 206.626767,159.992637 L206.626767,199.750112 C206.626767,202.995413 204.394834,205.628145 201.640374,205.628145 L38.201642,205.628145" id="Fill-176" fill="#FFFFFF"></path>
            <path d="M201.640374,206 L183.598291,206 C183.391768,206 183.225058,205.833905 183.225058,205.628145 C183.225058,205.422386 183.391768,205.25629 183.598291,205.25629 L201.640374,205.25629 C204.183335,205.25629 206.253534,202.787175 206.253534,199.75036 L206.253534,159.992389 C206.253534,156.956566 204.183335,154.486706 201.640374,154.486706 L5.35962593,154.486706 C2.81666506,154.486706 0.746466006,156.956566 0.746466006,159.992389 L0.746466006,199.75036 C0.746466006,202.787175 2.81666506,205.25629 5.35962593,205.25629 L38.201642,205.25629 C38.4081642,205.25629 38.574875,205.422386 38.574875,205.628145 C38.574875,205.833905 38.4081642,206 38.201642,206 L5.35962593,206 C2.40362054,206 0,203.196215 0,199.75036 L0,159.992389 C0,156.546286 2.40362054,153.742997 5.35962593,153.742997 L201.640374,153.742997 C204.596379,153.742997 207,156.546286 207,159.992389 L207,199.75036 C207,203.196215 204.596379,206 201.640374,206" id="Fill-177" fill="#000000"></path>
            <path d="M171.142261,206 L117.981441,206 C117.777406,206 117.608208,205.833905 117.608208,205.628145 C117.608208,205.422386 117.777406,205.25629 117.981441,205.25629 L171.142261,205.25629 C171.348784,205.25629 171.515494,205.422386 171.515494,205.628145 C171.515494,205.833905 171.348784,206 171.142261,206" id="Fill-178" fill="#000000"></path>
            <polyline id="Fill-179" fill="#FFFFFF" points="158.932566 114.753029 121.28082 158.338378 140.099228 161.279998 178.843302 119.095302 158.932566 114.753029"></polyline>
            <path d="M121.999916,158.074609 L139.9574,160.881617 L178.129183,119.320398 L159.069418,115.163557 L121.999916,158.074609 Z M140.099228,161.651853 C140.079323,161.651853 140.059417,161.650117 140.041999,161.64739 L121.223591,158.705771 C121.089227,158.684699 120.977257,158.593223 120.929981,158.466792 C120.882705,158.340114 120.910075,158.198065 120.997163,158.095681 L158.648909,114.510332 C158.738484,114.406708 158.877825,114.360103 159.012189,114.389603 L178.922925,118.731876 C179.052313,118.760384 179.159306,118.856075 179.199118,118.982754 C179.238929,119.109432 179.209071,119.24801 179.117006,119.34618 L140.372932,161.531124 C140.303262,161.60847 140.203734,161.651853 140.099228,161.651853 L140.099228,161.651853 Z" id="Fill-180" fill="#000000"></path>
            <path d="M156.282611,143.763158 C156.282611,143.763158 162.630061,141.281151 165.275038,138.199218 C166.685859,136.557851 166.613701,132.758239 166.23798,129.564998 C166.048875,127.956602 163.851777,127.61276 163.165028,129.080099 L156.282611,143.763158" id="Fill-181" fill="#FFFFFF"></path>
            <path d="M164.630589,128.521325 C164.229986,128.521325 163.754736,128.703534 163.503426,129.237517 L157.031566,143.044486 C158.855431,142.24599 163.018223,140.255575 164.991381,137.957513 C166.061316,136.713534 166.362391,133.826454 165.867235,129.608133 C165.787612,128.928134 165.282503,128.609083 164.834624,128.537191 C164.76993,128.527027 164.702748,128.521325 164.630589,128.521325 Z M156.282611,144.135012 C156.183083,144.135012 156.083554,144.094108 156.011395,144.017506 C155.90689,143.906941 155.87952,143.743821 155.944213,143.605739 L162.82663,128.92268 C163.214792,128.096915 164.048346,127.65763 164.954058,127.80315 C165.854794,127.947925 166.504219,128.62247 166.608724,129.521862 C167.136227,134.014364 166.7829,137.015233 165.558696,138.440924 C162.883859,141.557811 156.683215,144.006351 156.419463,144.109231 C156.374675,144.126584 156.329887,144.135012 156.282611,144.135012 L156.282611,144.135012 Z" id="Fill-182" fill="#000000"></path>
            <path d="M109.215441,122.176491 C109.195536,122.176491 109.178118,122.175251 109.160701,122.172524 C108.956667,122.142776 108.814838,121.953874 108.844697,121.750841 C111.350334,104.680722 103.5,95.0206781 103.420377,94.9249875 C103.288501,94.7670732 103.310895,94.5328046 103.467653,94.4014159 C103.626899,94.2700272 103.86328,94.2918427 103.992668,94.4495092 C104.074779,94.5474309 112.141588,104.441743 109.583698,121.858431 C109.556328,122.043367 109.397081,122.176491 109.215441,122.176491" id="Fill-183" fill="#000000"></path>
            <path d="M141.385638,147.397171 C141.385638,147.397171 144.692482,149.711595 146.5686,148.999617 L141.385638,147.397171" id="Fill-184" fill="#FFFFFF"></path>
            <path d="M145.762417,149.504596 C143.774329,149.504596 141.293574,147.786627 141.171651,147.701596 C141.002452,147.583346 140.962641,147.351804 141.082075,147.183726 C141.199022,147.015896 141.430426,146.974744 141.602113,147.092993 C142.475478,147.704819 145.050786,149.178107 146.436725,148.652057 C146.628318,148.579173 146.844793,148.675112 146.916951,148.867237 C146.991598,149.059114 146.894557,149.273798 146.700476,149.346929 C146.411842,149.457246 146.09335,149.504596 145.762417,149.504596" id="Fill-185" fill="#C3D1AB"></path>
            <path d="M151.798839,128.016346 C151.798839,128.016346 152.67718,129.18397 154.605551,129.016884 C156.53641,128.849797 159.470021,129.100427 160.308551,130.186491 L151.798839,128.016346" id="Fill-186" fill="#FFFFFF"></path>
            <path d="M160.308551,130.558346 C160.19907,130.558346 160.0871,130.508517 160.014941,130.413322 C159.34561,129.549876 156.70312,129.208265 154.637898,129.387251 C152.530376,129.571195 151.540064,128.293998 151.500252,128.239459 C151.375841,128.075347 151.410677,127.84207 151.574899,127.718862 C151.739122,127.59615 151.970526,127.628626 152.094937,127.79125 C152.129772,127.835873 152.893656,128.7903 154.573204,128.646516 C156.464251,128.482404 159.629267,128.697336 160.604649,129.959907 C160.731549,130.122532 160.699202,130.356057 160.537468,130.481248 C160.470286,130.533308 160.388174,130.558346 160.308551,130.558346" id="Fill-187" fill="#C3D1AB"></path>
            <path d="M156.611056,135.624991 C156.499086,135.624991 156.389605,135.575163 156.314958,135.479968 C155.648115,134.616521 153.005626,134.274663 150.940403,134.453897 C148.830392,134.636849 147.842569,133.360644 147.800269,133.306105 C147.678346,133.141993 147.710693,132.908716 147.874916,132.785508 C148.039138,132.662796 148.273031,132.695271 148.397442,132.857896 C148.429789,132.900783 149.198649,133.857194 150.875709,133.712914 C152.766756,133.548802 155.931772,133.763982 156.907155,135.026553 C157.031566,135.189425 157.001707,135.422702 156.837484,135.547893 C156.770302,135.599953 156.690679,135.624991 156.611056,135.624991" id="Fill-188" fill="#C3D1AB"></path>
            <path d="M67.8015074,117.133892 L72.083734,127.046549 C75.8260169,131.299576 101.713458,136.605201 111.156253,137.269581 L67.8015074,117.133892" id="Fill-189" fill="#78B517"></path>
            <path d="M111.156253,137.641436 C111.1463,137.641436 111.138835,137.641188 111.128883,137.640444 C102.049368,137.001598 75.7613232,131.790177 71.8025652,127.291725 C71.777683,127.262473 71.755289,127.229502 71.7403596,127.193803 L67.458133,117.280898 C67.3760217,117.092244 67.4631094,116.873593 67.6522142,116.792281 C67.8413189,116.710969 68.0627705,116.798231 68.1423935,116.986885 L72.4022262,126.844012 C76.109674,130.894502 101.248161,136.199879 111.181135,136.898718 C111.387657,136.913096 111.541927,137.090843 111.526998,137.295611 C111.514557,137.491702 111.350334,137.641436 111.156253,137.641436" id="Fill-190" fill="#000000"></path>
            <path d="M109.715574,144.22277 C100.387237,144.527195 76.7267526,145.034901 76.7267526,145.034901 C68.8838831,145.034901 61.690439,140.699074 58.0476849,133.778856 L57.1593903,132.089396 L109.715574,144.22277" id="Fill-191" fill="#78B517"></path>
            <path d="M76.7342172,145.406508 C68.7196605,145.406756 61.4366405,141.017382 57.7167516,133.951397 L56.8284571,132.261937 C56.7314165,132.080223 56.8035749,131.855375 56.9852149,131.76018 C57.1693432,131.664738 57.393283,131.734894 57.4903236,131.916855 L58.3786181,133.606316 C61.9666314,140.426133 68.9983412,144.663046 76.7267526,144.663046 C76.9556688,144.65784 100.484277,144.15187 109.705621,143.851163 C109.907167,143.842982 110.08383,144.005607 110.089055,144.210871 C110.096271,144.416135 109.934537,144.587932 109.728015,144.594625 C100.504183,144.895332 76.9705981,145.401302 76.7342172,145.406508" id="Fill-192" fill="#000000"></path>
            <path d="M111.156253,137.269581 C113.358328,137.424521 114.73929,137.472862 114.863701,137.444849 C114.863701,137.444849 115.426039,137.44708 115.968471,137.064813 C117.643043,135.882315 121.121574,133.241154 123.500313,133.571113 C127.481465,134.12369 127.951738,137.362297 127.951738,137.362297 C127.951738,137.362297 131.310835,137.238345 131.243653,139.46402 C131.191401,141.172817 130.216018,143.343458 127.50137,144.538103 C123.798899,146.166331 120.088963,147.406839 115.995841,144.734194 C115.199611,144.215333 114.256575,143.97338 113.311052,144.068079 C112.922889,144.107495 111.616574,144.160794 109.715574,144.22277 L111.156253,137.269581" id="Fill-193" fill="#FFFFFF"></path>
            <path d="M120.992187,146.656684 C119.315126,146.656684 117.583325,146.214672 115.791807,145.045561 C115.062758,144.569339 114.196858,144.353911 113.350863,144.438446 C112.970165,144.476375 111.785773,144.527691 109.728015,144.594625 C109.521492,144.598344 109.349805,144.440181 109.344829,144.234917 C109.337364,144.029901 109.499098,143.857857 109.705621,143.851163 C111.716103,143.785717 112.915425,143.734401 113.273728,143.698207 C114.288922,143.596815 115.328998,143.85389 116.199875,144.423324 C120.156145,147.005236 123.731717,145.790014 127.349589,144.197732 C130.524558,142.800054 130.848026,140.212688 130.87042,139.452865 C130.882861,139.047295 130.75845,138.723286 130.494699,138.461996 C129.837809,137.812241 128.444406,137.716799 127.966667,137.733904 C127.775075,137.739606 127.610852,137.603507 127.583482,137.415844 C127.563576,137.295859 127.088326,134.444724 123.44806,133.939497 C121.390302,133.653417 118.257633,135.889008 116.575596,137.089851 L116.184946,137.368247 C115.592749,137.785964 114.973183,137.81472 114.873654,137.816704 C114.286434,137.861326 111.263246,137.649865 111.128883,137.640444 C110.924849,137.626066 110.768091,137.448071 110.78302,137.243303 C110.797949,137.038288 110.977101,136.880869 111.181135,136.898718 C113.403116,137.054649 114.624832,137.09233 114.799007,137.0782 C114.821401,137.074729 114.841307,137.069275 114.863701,137.072994 C114.866189,137.072994 115.324022,137.064813 115.751995,136.76138 L116.140158,136.485215 C118.031205,135.135383 121.193733,132.876736 123.550077,133.202729 C127.003726,133.681926 127.999014,136.114352 128.247836,136.992425 C128.859938,137.013745 130.230948,137.152075 131.022202,137.93421 C131.435246,138.342754 131.634304,138.86112 131.616886,139.475176 C131.589516,140.34482 131.226236,143.304785 127.650664,144.878226 C125.525724,145.813069 123.311208,146.656436 120.992187,146.656684" id="Fill-194" fill="#000000"></path>
            <path d="M105.853856,131.267349 L109.170653,125.485007 L111.892766,127.244376 C112.042059,127.341306 112.16647,127.472695 112.256046,127.626642 L112.420269,127.906029 C112.624303,128.257556 113.005,128.473728 113.408092,128.46877 C113.627055,128.466043 113.841042,128.528762 114.027659,128.648995 L134.269329,141.709528 C134.43604,141.817118 134.587821,141.946523 134.722185,142.093777 L138.81033,146.61107 L133.117283,145.32941 C132.808744,145.259749 132.507669,145.149928 132.224012,145.002178 L110.92236,133.90727 C110.74072,133.812571 110.588939,133.670275 110.479457,133.495999 L110.454575,133.452368 C110.248053,133.11745 109.879796,132.912187 109.491634,132.913674 L109.292576,132.914418 C109.113424,132.915161 108.934273,132.871531 108.772538,132.787243 L105.853856,131.267349" id="Fill-195" fill="#FFFFFF"></path>
            <path d="M109.494122,132.541819 C110.009184,132.541819 110.499363,132.815752 110.770579,133.257516 L110.800438,133.302386 C110.870108,133.418405 110.974613,133.514096 111.096536,133.577807 L132.398187,144.672714 C132.651986,144.805095 132.920714,144.904256 133.199394,144.966728 L137.745372,145.990072 L134.443504,142.34292 C134.331534,142.219464 134.204635,142.111627 134.065295,142.021638 L113.826113,128.961105 C113.70419,128.882272 113.562362,128.840624 113.420533,128.840624 C113.41058,128.840377 113.403116,128.840624 113.393163,128.840872 C112.863172,128.840872 112.365528,128.555288 112.0968,128.0927 L111.935066,127.813314 C111.875349,127.710186 111.788261,127.621437 111.688732,127.556486 L109.297553,126.011057 L106.371406,131.116624 L108.946714,132.45778 C109.053707,132.513806 109.170653,132.546777 109.292576,132.542563 L109.489146,132.541819 C109.491634,132.541819 109.491634,132.541819 109.494122,132.541819 Z M138.81033,146.982924 C138.78296,146.982924 138.755589,146.980197 138.728219,146.973752 L133.035172,145.692092 C132.694286,145.61549 132.363352,145.494018 132.052325,145.331641 L110.750673,134.236733 C110.509316,134.111294 110.305282,133.92264 110.163453,133.691098 L110.136083,133.645732 C109.999231,133.423859 109.752897,133.285529 109.494122,133.285529 L109.491634,133.285529 L109.295064,133.286273 C109.051219,133.28305 108.814838,133.228511 108.600851,133.116707 L105.682169,131.596812 C105.592593,131.549959 105.525411,131.468894 105.495552,131.371964 C105.468182,131.275034 105.480623,131.170667 105.530388,131.082909 L108.847185,125.300567 C108.896949,125.211569 108.981549,125.147858 109.083566,125.123812 C109.180606,125.099517 109.2876,125.117366 109.374687,125.173144 L112.094312,126.932514 C112.29337,127.060679 112.46008,127.236195 112.579515,127.439971 L112.743737,127.719358 C112.878101,127.952883 113.126923,128.097163 113.393163,128.097163 C113.403116,128.096915 113.41058,128.096915 113.420533,128.096915 C113.706679,128.096915 113.987847,128.179715 114.231693,128.336637 L134.470875,141.397417 C134.664956,141.522856 134.844108,141.673086 134.998377,141.844635 L139.089011,146.361927 C139.198493,146.482408 139.21591,146.659163 139.133799,146.79898 C139.066617,146.914751 138.942206,146.982924 138.81033,146.982924 L138.81033,146.982924 Z" id="Fill-196" fill="#000000"></path>
            <path d="M133.244182,144.634289 C133.186953,144.634289 133.129724,144.620655 133.074983,144.592642 C132.890855,144.498191 132.818697,144.274086 132.913249,144.091629 L134.129988,141.745226 C134.224541,141.562521 134.448481,141.491869 134.632609,141.585328 C134.816737,141.679531 134.886407,141.903884 134.791855,142.086092 L133.577604,144.432744 C133.510422,144.560662 133.381034,144.634289 133.244182,144.634289" id="Fill-197" fill="#000000"></path>
            <path d="M104.455476,122.621725 L109.277647,125.526407 L105.87625,131.299576 L101.051591,128.395142 C100.168273,127.862894 99.8647105,126.730224 100.374796,125.865042 L101.932421,123.224873 C102.442506,122.359691 103.572158,122.089724 104.455476,122.621725" id="Fill-198" fill="#78B517"></path>
            <path d="M103.482582,122.72039 C103.363148,122.72039 103.241225,122.735264 103.121791,122.765261 C102.753534,122.858472 102.444995,123.088526 102.253402,123.41328 L100.698264,126.053449 C100.290196,126.74262 100.53653,127.650193 101.245673,128.076835 L105.744374,130.786417 L108.77005,125.654573 L104.261395,122.940032 C104.020038,122.794761 103.753798,122.72039 103.482582,122.72039 Z M105.87625,131.671431 C105.809068,131.671431 105.741886,131.653086 105.682169,131.617636 L100.859999,128.713202 C99.802505,128.07733 99.4417131,126.715102 100.053815,125.676636 L101.608953,123.036467 C101.902563,122.538925 102.375325,122.186655 102.94015,122.044358 C103.519906,121.898095 104.127031,121.989819 104.649558,122.303665 L109.471728,125.207851 C109.645903,125.31321 109.703133,125.53905 109.601115,125.714565 L106.197231,131.487735 C106.147466,131.573509 106.062867,131.635485 105.968314,131.660028 C105.938456,131.667465 105.906109,131.671431 105.87625,131.671431 L105.87625,131.671431 Z" id="Fill-199" fill="#000000"></path>
            <path d="M110.626262,132.461251 C110.561568,132.461251 110.494386,132.444145 110.434669,132.407952 C110.258006,132.302097 110.200777,132.07353 110.305282,131.897519 L111.947507,129.181739 C112.0545,129.005728 112.283417,128.949454 112.46008,129.055061 C112.636744,129.160915 112.693973,129.389482 112.58698,129.565493 L110.947243,132.281273 C110.875084,132.397044 110.753161,132.461251 110.626262,132.461251" id="Fill-200" fill="#000000"></path>
            <path d="M120.312903,134.757826 C120.245721,134.757826 120.176051,134.739481 120.113845,134.700808 L114.074935,130.923755 C113.90076,130.814678 113.846019,130.585119 113.955501,130.411091 C114.06747,130.237063 114.296387,130.184508 114.470562,130.293833 L120.51196,134.070886 C120.686139,134.180211 120.738388,134.40977 120.628907,134.58355 C120.556748,134.696098 120.437314,134.757826 120.312903,134.757826" id="Fill-201" fill="#000000"></path>
            <path d="M132.903296,142.538764 C132.836114,142.538764 132.768932,142.520667 132.706727,142.482738 L130.347894,141.019117 C130.17123,140.910536 130.118978,140.680977 130.228459,140.506701 C130.337941,140.332177 130.566857,140.279374 130.741033,140.387708 L133.102354,141.851328 C133.276529,141.95991 133.328782,142.18922 133.221788,142.363496 C133.14963,142.476788 133.027707,142.538764 132.903296,142.538764" id="Fill-202" fill="#000000"></path>
            <path d="M105.338795,129.351057 C105.271613,129.351057 105.204431,129.333208 105.142225,129.296023 L101.467124,127.047541 C101.292949,126.939951 101.23572,126.710888 101.345201,126.536116 C101.452195,126.360849 101.681111,126.306062 101.857775,126.413652 L105.532876,128.662134 C105.709539,128.769724 105.76428,128.998787 105.657287,129.173558 C105.585128,129.28809 105.463206,129.351057 105.338795,129.351057" id="Fill-203" fill="#FFFFFF"></path>
            <path d="M121.502272,146.900373 C119.668454,146.900373 117.807265,146.364158 115.779366,145.03738 C115.057782,144.565868 114.196858,144.353167 113.350863,144.438198 C112.743737,144.499182 110.805414,144.566364 110.723303,144.569339 C110.519269,144.574297 110.345093,144.415639 110.337629,144.210623 C110.330164,144.005359 110.491898,143.833066 110.698421,143.825877 C110.718326,143.825381 112.693973,143.756712 113.276216,143.698207 C114.29141,143.596815 115.324022,143.850915 116.187434,144.415391 C120.064081,146.951689 123.19675,146.426134 126.993773,144.755514 C127.687987,144.449354 128.989326,143.42353 129.469552,142.915825 C130.248365,142.092538 130.434982,141.511453 130.716151,140.63214 L130.780844,140.430347 C131.049572,139.604829 131.029666,139.006143 130.726103,138.600078 C130.026914,137.673663 127.874603,137.7344 125.973603,137.787451 C124.746911,137.822157 123.589888,137.854385 122.838446,137.621604 C119.145927,136.479266 115.020459,137.78522 114.978159,137.798607 C114.968206,137.802077 114.955765,137.805052 114.945812,137.807531 C114.774125,137.846452 114.388451,137.849675 112.925377,137.750265 C112.718855,137.736135 112.564586,137.558884 112.579515,137.353868 C112.591956,137.148852 112.773596,136.992921 112.97763,137.008043 C114.251599,137.094809 114.659667,137.097536 114.771637,137.083158 C115.169752,136.958215 119.250433,135.732581 123.059898,136.911361 C123.694394,137.107205 124.789211,137.076713 125.951209,137.043989 C128.033849,136.985484 130.392682,136.919542 131.323276,138.153852 C131.776132,138.758736 131.833361,139.601607 131.492475,140.658666 L131.427782,140.858724 C131.13666,141.764314 130.907744,142.479515 130.011984,143.426009 C129.481993,143.98751 128.106008,145.07878 127.294848,145.435761 C125.294319,146.315817 123.415713,146.900373 121.502272,146.900373" id="Fill-204" fill="#000000"></path>
            <path d="M111.156253,137.269581 C113.358328,137.424521 114.73929,137.472862 114.863701,137.444849 C114.863701,137.444849 115.426039,137.44708 115.968471,137.064813 C117.643043,135.882315 121.121574,133.241154 123.500313,133.571113 C127.481465,134.12369 127.951738,137.362297 127.951738,137.362297 C127.951738,137.362297 131.310835,137.238345 131.243653,139.46402 C131.191401,141.172817 130.216018,143.343458 127.50137,144.538103 C123.798899,146.166331 120.088963,147.406839 115.995841,144.734194 C115.199611,144.215333 114.256575,143.97338 113.311052,144.068079 C112.922889,144.107495 111.616574,144.160794 109.715574,144.22277 L111.156253,137.269581" id="Fill-205" fill="#FFFFFF"></path>
            <path d="M120.992187,146.656684 C119.315126,146.656684 117.583325,146.214672 115.791807,145.045561 C115.062758,144.569339 114.196858,144.353911 113.350863,144.438446 C112.970165,144.476375 111.785773,144.527691 109.728015,144.594625 C109.521492,144.598344 109.349805,144.440181 109.344829,144.234917 C109.337364,144.029901 109.499098,143.857857 109.705621,143.851163 C111.716103,143.785717 112.915425,143.734401 113.273728,143.698207 C114.288922,143.596815 115.328998,143.85389 116.199875,144.423324 C120.156145,147.005236 123.731717,145.790014 127.349589,144.197732 C130.524558,142.800054 130.848026,140.212688 130.87042,139.452865 C130.882861,139.047295 130.75845,138.723286 130.494699,138.461996 C129.837809,137.812241 128.444406,137.716799 127.966667,137.733904 C127.775075,137.739606 127.610852,137.603507 127.583482,137.415844 C127.563576,137.295859 127.088326,134.444724 123.44806,133.939497 C121.390302,133.653417 118.257633,135.889008 116.575596,137.089851 L116.184946,137.368247 C115.592749,137.785964 114.973183,137.81472 114.873654,137.816704 C114.286434,137.861326 111.263246,137.649865 111.128883,137.640444 C110.924849,137.626066 110.768091,137.448071 110.78302,137.243303 C110.797949,137.038288 110.977101,136.880869 111.181135,136.898718 C113.403116,137.054649 114.624832,137.09233 114.799007,137.0782 C114.821401,137.074729 114.841307,137.069275 114.863701,137.072994 C114.866189,137.072994 115.324022,137.064813 115.751995,136.76138 L116.140158,136.485215 C118.031205,135.135383 121.193733,132.876736 123.550077,133.202729 C127.003726,133.681926 127.999014,136.114352 128.247836,136.992425 C128.859938,137.013745 130.230948,137.152075 131.022202,137.93421 C131.435246,138.342754 131.634304,138.86112 131.616886,139.475176 C131.589516,140.34482 131.226236,143.304785 127.650664,144.878226 C125.525724,145.813069 123.311208,146.656436 120.992187,146.656684" id="Fill-206" fill="#000000"></path>
            <path d="M84.8582556,79.8133042 C84.7139388,78.9002767 84.5671339,77.8873442 84.4402346,76.8332598 C86.2815175,77.8784197 88.3019521,78.266884 89.5933383,77.762401 C91.1833109,77.1401639 91.6585609,75.5731678 92.5045557,73.7352135 C92.857883,72.9669615 93.2062338,72.0621148 94.1492692,71.3543511 C94.6494014,70.9790257 95.1868569,70.7574002 95.6919656,70.6267552 C96.3115324,70.466114 96.7071593,69.8622218 96.6225599,69.2298207 L96.5155664,68.8458186 C95.6645952,65.8271014 95.4132849,62.6712936 95.7790533,59.5566378 L96.5006371,53.4064073 C93.3082508,51.6470383 92.0516997,51.7162033 91.5266853,52.1889547 C91.3326041,52.3632306 91.0663646,52.4604087 90.9568829,53.407151 C90.426892,57.9769986 86.3710934,56.9826589 83.0319021,55.7039741 C79.6951991,54.4250415 80.0858496,60.9431604 80.0858496,60.9431604 C80.0858496,60.9431604 78.3017958,57.9187413 75.6170064,60.0053426 C73.6936124,61.5006947 76.6471295,64.7276507 78.4784595,66.4364474 L75.4179488,79.4521092 C74.6142538,82.8778835 71.9195115,85.5470573 68.475815,86.3284482 L63.2754351,87.5087153 C63.2754351,87.5087153 83.1413838,91.5582141 98.3692903,86.1147556 L89.5485503,84.5747809 C87.125024,84.1511144 85.2414415,82.2368059 84.8582556,79.8133042" id="Fill-207" fill="#FFFFFF"></path>
            <path d="M65.1714588,87.4598784 C70.217569,88.2558956 84.806003,90.0224538 96.8589408,86.2287911 L89.4863448,84.940934 C86.9035725,84.490246 84.8955789,82.4527295 84.489999,79.8710656 C84.3257765,78.8427631 84.1864362,77.8357803 84.0694899,76.8776345 C84.0520723,76.7383129 84.116766,76.6012224 84.2337124,76.5236287 C84.3506587,76.4455392 84.5024401,76.440829 84.6243629,76.509994 C86.3959756,77.5154894 88.2919992,77.8712305 89.4564862,77.4163281 C90.6806905,76.937627 91.1857991,75.7925621 91.8252717,74.3428242 C91.9322651,74.0951689 92.0467232,73.8403244 92.1661578,73.580274 L92.2607102,73.3720353 C92.6015963,72.6156826 92.9897586,71.7586813 93.9253294,71.0573631 C94.408044,70.6954244 94.9703818,70.4294243 95.5974132,70.2667998 C96.0228988,70.1564829 96.3015795,69.7444677 96.2567915,69.3022084 L96.1572627,68.9464673 C95.2863857,65.8657743 95.0350755,62.6921175 95.4083085,59.5132547 L96.1000337,53.6121669 C93.061917,51.9725352 92.0865348,52.1857319 91.7755073,52.4651188 C91.7481368,52.4904049 91.7182782,52.5144516 91.6884196,52.538994 C91.5490792,52.6517899 91.4072507,52.7683044 91.3276277,53.4497903 C91.1484758,54.9803447 90.5712088,56.0515344 89.6057794,56.6333632 C87.8192374,57.7102548 85.0821954,56.8879598 82.8975382,56.0510386 C82.3551063,55.8430478 81.9246442,55.8641196 81.5787816,56.1152456 C80.4715237,56.9231621 80.3943889,59.8580881 80.4590826,60.921097 C80.4690355,61.092646 80.3595538,61.248825 80.1953313,61.2991494 C80.0311088,61.34873 79.8519569,61.2798129 79.7648692,61.1318147 C79.7574046,61.1199154 79.015915,59.8955215 77.851428,59.6766229 C77.206979,59.556142 76.5326714,59.7651244 75.8459227,60.2983642 C75.5398716,60.537095 75.3831138,60.8325956 75.3656962,61.2017234 C75.3159318,62.3100986 76.5426243,64.1190483 78.7322579,66.1652413 C78.8292985,66.2562218 78.8715982,66.3918249 78.8417396,66.5212303 L75.7837172,79.5368921 C74.9501635,83.0754624 72.1160809,85.8837099 68.5579262,86.6911306 L65.1714588,87.4598784 Z M79.3642658,89.3122111 C70.4315559,89.3122111 63.3202231,87.8971797 63.2007885,87.873133 C63.0291014,87.8379308 62.9046904,87.6879493 62.9022021,87.5129297 C62.9022021,87.33791 63.0216367,87.1849538 63.1933239,87.1462809 L68.3937037,85.9660137 C71.6731777,85.2213125 74.288297,82.6312199 75.0546687,79.3673263 L78.0654149,66.5599032 C76.4132368,64.9943945 74.5445836,62.8388762 74.6192302,61.1682565 C74.6466006,60.5770074 74.9053755,60.0871506 75.3880902,59.7120731 C76.2515025,59.0400075 77.1298442,58.7821882 77.9932566,58.9470438 C78.7148404,59.0836385 79.2896192,59.4914393 79.7001755,59.8856053 C79.7350106,58.5409784 79.9788561,56.3611655 81.1383667,55.5150719 C81.695728,55.1085107 82.3775002,55.0552115 83.166266,55.3569097 C85.1916771,56.1328467 87.7097557,56.9068005 89.2201053,55.9969957 C89.9864771,55.5341605 90.4343567,54.6729447 90.5861381,53.3645116 C90.6906433,52.4581775 90.9444418,52.1842445 91.2156578,51.9628669 C91.2355635,51.9462574 91.2579575,51.9301437 91.275375,51.9127905 C92.1288345,51.1472654 93.8457063,51.5186244 96.6822771,53.0811583 C96.8141528,53.1540418 96.8887994,53.299561 96.8713819,53.4495424 L96.1497981,59.599773 C95.7890062,62.6814576 96.0328517,65.7584322 96.8738701,68.7454178 L96.9833518,69.129172 C96.9883282,69.1465252 96.9908164,69.1641264 96.9933046,69.1817275 C97.1002981,70.0042703 96.5827483,70.7802073 95.7865179,70.9867107 C95.2540388,71.1245449 94.7787888,71.3484015 94.373209,71.6513392 C93.5919079,72.238126 93.2609746,72.9699363 92.9399942,73.6776999 L92.8429536,73.890153 C92.7260073,74.1467328 92.6140374,74.3978587 92.5070439,74.6417955 C91.8277599,76.1849929 91.2380517,77.5177205 89.7301904,78.1084739 C88.4910568,78.5923809 86.6870973,78.3536501 84.8980671,77.4936739 C84.9951077,78.2274674 85.1045894,78.9853075 85.2265122,79.7552948 C85.2265122,79.7555427 85.2265122,79.7555427 85.2265122,79.7555427 C85.5848158,82.0231133 87.3464756,83.8124786 89.6132441,84.20838 L98.433984,85.7486026 C98.6006948,85.7776073 98.7251058,85.9149457 98.7400351,86.083024 C98.7549644,86.2511024 98.6529474,86.4077772 98.4937013,86.464795 C92.360239,88.6574988 85.4404991,89.3122111 79.3642658,89.3122111 L79.3642658,89.3122111 Z" id="Fill-208" fill="#000000"></path>
            <path d="M84.4402346,77.2051146 C84.3830056,77.2051146 84.3282647,77.1927194 84.2735239,77.1661938 C80.5959347,75.3483196 79.682758,69.8704026 79.6454347,69.6381173 C79.6130878,69.4353325 79.7524281,69.2449428 79.9564622,69.2127154 C80.1604962,69.1802401 80.3520891,69.318818 80.384436,69.5213549 C80.3919007,69.5746541 81.2727306,74.8535048 84.6044572,76.5000779 C84.7910737,76.5913063 84.8657203,76.8144191 84.7736561,76.9983633 C84.7089624,77.1292562 84.5770867,77.2051146 84.4402346,77.2051146" id="Fill-209" fill="#000000"></path>
            <path d="M82.6785749,175.09961 C81.0786494,171.817371 80.926868,168.509599 82.6785749,165.168855 L81.4195355,163.665075 L47.0049644,164.792786 L48.1893571,175.685653 L81.504135,176.06792 L82.6785749,175.09961" id="Fill-210" fill="#FFFFFF"></path>
            <path d="M48.5252669,175.317517 L81.3722594,175.694577 L82.2182542,174.997474 C80.6606284,171.64136 80.6680931,168.353668 82.2356717,165.218436 L81.2503366,164.042879 L47.4180089,165.151254 L48.5252669,175.317517 Z M81.504135,176.439774 L81.5016468,176.439774 L48.1868689,176.057508 C47.9977642,176.055277 47.8385181,175.912732 47.8186124,175.725565 L46.6317314,164.832947 C46.6217785,164.730067 46.6541254,164.627435 46.7213073,164.549345 C46.7909775,164.471008 46.8880181,164.42465 46.9925233,164.421179 L81.4095827,163.293468 C81.526529,163.290245 81.6335225,163.338834 81.7081691,163.427087 L82.9647202,164.93062 C83.0617607,165.046143 83.0791783,165.208024 83.0095081,165.341148 C81.379724,168.448119 81.379724,171.586821 83.0144846,174.936985 C83.0891312,175.091181 83.0493196,175.276613 82.917444,175.385938 L81.7430041,176.354496 C81.6758222,176.40953 81.5912227,176.439774 81.504135,176.439774 L81.504135,176.439774 Z" id="Fill-211" fill="#000000"></path>
            <path d="M19.4379748,162.465719 L83.3180474,162.465719 C84.0645134,162.465719 84.6691509,163.068867 84.6691509,163.812825 C84.6691509,164.556782 84.0645134,165.159931 83.3180474,165.159931 L53.9495865,165.159931 C51.7997644,165.159931 50.0555222,166.896493 50.0555222,169.03912 L50.0555222,171.220172 C50.0555222,173.362552 51.7997644,175.09961 53.9495865,175.09961 L83.3180474,175.09961 C84.0645134,175.09961 84.6691509,175.702758 84.6691509,176.446468 C84.6691509,177.190425 84.0645134,177.793326 83.3180474,177.793326 L19.4379748,177.793326 C15.4742403,177.793326 12.25946,174.590912 12.25946,170.640327 L12.25946,169.618966 C12.25946,165.66838 15.4742403,162.465719 19.4379748,162.465719" id="Fill-212" fill="#FFFFFF"></path>
            <path d="M19.4379748,162.837574 C15.685739,162.837574 12.632693,165.879842 12.632693,169.618966 L12.632693,170.640327 C12.632693,174.379699 15.685739,177.421471 19.4379748,177.421471 L83.3180474,177.421471 C83.8579912,177.421471 84.2959179,176.98417 84.2959179,176.446468 C84.2959179,175.908766 83.8579912,175.471464 83.3180474,175.471464 L53.9495865,175.471464 C51.5982186,175.471464 49.6822892,173.564345 49.6822892,171.220172 L49.6822892,169.03912 C49.6822892,166.694947 51.5982186,164.788076 53.9495865,164.788076 L83.3180474,164.788076 C83.8579912,164.788076 84.2959179,164.350527 84.2959179,163.812825 C84.2959179,163.275123 83.8579912,162.837574 83.3180474,162.837574 L19.4379748,162.837574 Z M83.3180474,178.165181 L19.4379748,178.165181 C15.2751827,178.165181 11.886227,174.789483 11.886227,170.640327 L11.886227,169.618966 C11.886227,165.46981 15.2751827,162.093864 19.4379748,162.093864 L83.3180474,162.093864 C84.2685475,162.093864 85.0423839,162.865339 85.0423839,163.812825 C85.0423839,164.760559 84.2685475,165.531786 83.3180474,165.531786 L53.9495865,165.531786 C52.0087749,165.531786 50.4287552,167.104979 50.4287552,169.03912 L50.4287552,171.220172 C50.4287552,173.154313 52.0087749,174.727755 53.9495865,174.727755 L83.3180474,174.727755 C84.2685475,174.727755 85.0423839,175.498734 85.0423839,176.446468 C85.0423839,177.394202 84.2685475,178.165181 83.3180474,178.165181 L83.3180474,178.165181 Z" id="Fill-213" fill="#000000"></path>
            <path d="M66.6519497,168.420106 L64.1363593,168.420106 C63.929837,168.420106 63.7631263,168.253515 63.7631263,168.048251 C63.7631263,167.842987 63.929837,167.676396 64.1363593,167.676396 L66.6519497,167.676396 C66.858472,167.676396 67.0251827,167.842987 67.0251827,168.048251 C67.0251827,168.253515 66.858472,168.420106 66.6519497,168.420106" id="Fill-214" fill="#000000"></path>
            <path d="M81.5414583,168.420106 L68.2245048,168.420106 C68.0204707,168.420106 67.8512718,168.253515 67.8512718,168.048251 C67.8512718,167.842987 68.0204707,167.676396 68.2245048,167.676396 L81.5414583,167.676396 C81.7479806,167.676396 81.9146913,167.842987 81.9146913,168.048251 C81.9146913,168.253515 81.7479806,168.420106 81.5414583,168.420106" id="Fill-215" fill="#000000"></path>
            <path d="M81.4195355,170.04288 L65.6641264,170.04288 C65.4576041,170.04288 65.2908934,169.876289 65.2908934,169.671025 C65.2908934,169.465762 65.4576041,169.299171 65.6641264,169.299171 L81.4195355,169.299171 C81.6260578,169.299171 81.7927685,169.465762 81.7927685,169.671025 C81.7927685,169.876289 81.6260578,170.04288 81.4195355,170.04288" id="Fill-216" fill="#000000"></path>
            <path d="M64.5643331,172.951281 L61.7003919,172.951281 C61.4963578,172.951281 61.3271589,172.78469 61.3271589,172.579426 C61.3271589,172.373914 61.4963578,172.207571 61.7003919,172.207571 L64.5643331,172.207571 C64.7708554,172.207571 64.9375661,172.373914 64.9375661,172.579426 C64.9375661,172.78469 64.7708554,172.951281 64.5643331,172.951281" id="Fill-217" fill="#000000"></path>
            <path d="M81.5414583,172.951281 L65.7860491,172.951281 C65.5795269,172.951281 65.4128161,172.78469 65.4128161,172.579426 C65.4128161,172.373914 65.5795269,172.207571 65.7860491,172.207571 L81.5414583,172.207571 C81.7479806,172.207571 81.9146913,172.373914 81.9146913,172.579426 C81.9146913,172.78469 81.7479806,172.951281 81.5414583,172.951281" id="Fill-218" fill="#000000"></path>
            <path d="M95.4356789,196.96492 L26.3552265,196.96492 L26.3552265,180.10304 L95.4356789,180.10304 C93.3953385,185.798368 93.3405977,191.421309 95.4356789,196.96492" id="Fill-219" fill="#FFFFFF"></path>
            <path d="M26.7284595,196.592817 L94.9031998,196.592817 C93.0544524,191.376438 93.0569406,185.960001 94.9106645,180.474895 L26.7284595,180.474895 L26.7284595,196.592817 Z M95.4356789,197.336527 L26.3552265,197.336527 C26.1487042,197.336527 25.9819935,197.170432 25.9819935,196.964672 L25.9819935,180.10304 C25.9819935,179.897528 26.1487042,179.731185 26.3552265,179.731185 L95.4356789,179.731185 C95.5576017,179.731185 95.6720598,179.789938 95.74173,179.888852 C95.8114001,179.987517 95.8288177,180.114196 95.7865179,180.227983 C93.7611068,185.888605 93.7586186,191.475599 95.7840297,196.833779 C95.8288177,196.948063 95.8114001,197.076228 95.74173,197.176381 C95.6720598,197.276782 95.5576017,197.336527 95.4356789,197.336527 L95.4356789,197.336527 Z" id="Fill-220" fill="#000000"></path>
            <path d="M34.6708578,180.934755 L95.9109289,180.934755 C96.6474421,180.934755 97.2446149,180.340035 97.2446149,179.606242 C97.2446149,178.872696 96.6474421,178.277729 95.9109289,178.277729 L16.4421579,178.277729 C13.2049837,178.277729 10.5823997,180.891868 10.5823997,184.116097 L10.5823997,193.294465 C10.5823997,196.518942 13.2049837,199.133081 16.4421579,199.133081 L95.9109289,199.133081 C96.6474421,199.133081 97.2446149,198.538114 97.2446149,197.80432 C97.2446149,197.070527 96.6474421,196.475807 95.9109289,196.475807 L34.6708578,196.475807 C32.3841836,196.475807 30.5304597,194.629176 30.5304597,192.350946 L30.5304597,185.059617 C30.5304597,182.781634 32.3841836,180.934755 34.6708578,180.934755" id="Fill-221" fill="#78B517"></path>
            <path d="M16.4421579,178.649831 C13.4164824,178.649831 10.9556328,181.101842 10.9556328,184.116097 L10.9556328,193.294465 C10.9556328,196.30872 13.4164824,198.760979 16.4421579,198.760979 L95.9109289,198.760979 C96.4409198,198.760979 96.8713819,198.331858 96.8713819,197.80432 C96.8713819,197.276534 96.4409198,196.847662 95.9109289,196.847662 L34.6708578,196.847662 C32.1826378,196.847662 30.1572267,194.830473 30.1572267,192.350946 L30.1572267,185.059369 C30.1572267,182.580089 32.1826378,180.5629 34.6708578,180.5629 L95.9109289,180.5629 C96.4409198,180.5629 96.8713819,180.134028 96.8713819,179.606242 C96.8713819,179.078704 96.4409198,178.649831 95.9109289,178.649831 L16.4421579,178.649831 Z M95.9109289,199.504688 L16.4421579,199.504688 C13.0059261,199.504688 10.2091667,196.718752 10.2091667,193.294465 L10.2091667,184.116097 C10.2091667,180.69181 13.0059261,177.906122 16.4421579,177.906122 L95.9109289,177.906122 C96.8514761,177.906122 97.6178479,178.668672 97.6178479,179.606242 C97.6178479,180.54406 96.8514761,181.30661 95.9109289,181.30661 L34.6708578,181.30661 C32.5931941,181.30661 30.9036927,182.990121 30.9036927,185.059369 L30.9036927,192.350946 C30.9036927,194.420441 32.5931941,196.103952 34.6708578,196.103952 L95.9109289,196.103952 C96.8514761,196.103952 97.6178479,196.866502 97.6178479,197.80432 C97.6178479,198.74189 96.8514761,199.504688 95.9109289,199.504688 L95.9109289,199.504688 Z" id="Fill-222" fill="#000000"></path>
            <path d="M94.2139629,184.478779 L84.0122608,184.478779 C83.8082268,184.478779 83.6390278,184.312436 83.6390278,184.106925 C83.6390278,183.901661 83.8082268,183.73507 84.0122608,183.73507 L94.2139629,183.73507 C94.4204851,183.73507 94.5871959,183.901661 94.5871959,184.106925 C94.5871959,184.312436 94.4204851,184.478779 94.2139629,184.478779" id="Fill-223" fill="#000000"></path>
            <path d="M82.2655303,184.478779 L63.7208265,184.478779 C63.5167925,184.478779 63.3475935,184.312436 63.3475935,184.106925 C63.3475935,183.901661 63.5167925,183.73507 63.7208265,183.73507 L82.2655303,183.73507 C82.4720526,183.73507 82.6387633,183.901661 82.6387633,184.106925 C82.6387633,184.312436 82.4720526,184.478779 82.2655303,184.478779" id="Fill-224" fill="#000000"></path>
            <path d="M93.999976,186.729245 L68.5081618,186.729245 C68.3016396,186.729245 68.1349288,186.562902 68.1349288,186.35739 C68.1349288,186.151878 68.3016396,185.985535 68.5081618,185.985535 L93.999976,185.985535 C94.2064982,185.985535 94.373209,186.151878 94.373209,186.35739 C94.373209,186.562902 94.2064982,186.729245 93.999976,186.729245" id="Fill-225" fill="#000000"></path>
            <path d="M66.3508751,186.729245 L61.1629363,186.729245 C60.9589023,186.729245 60.7897033,186.562902 60.7897033,186.35739 C60.7897033,186.151878 60.9589023,185.985535 61.1629363,185.985535 L66.3508751,185.985535 C66.5573973,185.985535 66.7241081,186.151878 66.7241081,186.35739 C66.7241081,186.562902 66.5573973,186.729245 66.3508751,186.729245" id="Fill-226" fill="#000000"></path>
            <path d="M93.999976,191.426762 L66.9679536,191.426762 C66.7614314,191.426762 66.5947206,191.260171 66.5947206,191.054908 C66.5947206,190.849396 66.7614314,190.683053 66.9679536,190.683053 L93.999976,190.683053 C94.2064982,190.683053 94.373209,190.849396 94.373209,191.054908 C94.373209,191.260171 94.2064982,191.426762 93.999976,191.426762" id="Fill-227" fill="#000000"></path>
            <path d="M65.0694418,191.426762 L63.7208265,191.426762 C63.5167925,191.426762 63.3475935,191.260171 63.3475935,191.054908 C63.3475935,190.849396 63.5167925,190.683053 63.7208265,190.683053 L65.0694418,190.683053 C65.275964,190.683053 65.4426748,190.849396 65.4426748,191.054908 C65.4426748,191.260171 65.275964,191.426762 65.0694418,191.426762" id="Fill-228" fill="#000000"></path>
            <path d="M139.519473,169.278347 C139.952423,172.246492 143.475743,191.185305 163.722389,200.01636 C163.794548,200.04834 163.874171,200.055033 163.951305,200.034209 C165.658224,199.574845 185.349998,193.756309 197.507441,167.113656 C197.601993,166.906161 197.48007,166.663464 197.258619,166.620329 C194.464348,166.080395 178.985131,162.789976 172.595382,155.083905 C172.446089,154.902688 172.167408,154.911365 172.035532,155.1082 C170.512742,157.378745 161.963218,168.455308 139.862847,168.876991 C139.651349,168.880958 139.487126,169.068125 139.519473,169.278347" id="Fill-229" fill="#FFFFFF"></path>
            <path d="M139.892706,169.24835 C140.119134,170.789565 141.111934,176.166585 144.515819,182.267979 C148.905039,190.131468 155.416711,195.988181 163.871682,199.675741 C164.832135,199.411972 170.042468,197.85638 176.591463,193.092176 C185.180799,186.843032 192.100539,178.057839 197.15909,166.979788 C194.068721,166.38011 178.756215,163.071842 172.326654,155.342468 C170.764052,157.656893 162.087629,168.818238 139.892706,169.24835 Z M163.864218,200.417716 C163.764689,200.417716 163.66516,200.39714 163.570608,200.356732 C154.963855,196.602733 148.335237,190.638182 143.863905,182.629422 C140.380397,176.386475 139.375156,170.873356 139.148728,169.332142 C139.11887,169.127126 139.178587,168.919383 139.312951,168.761469 C139.449803,168.602315 139.646372,168.509103 139.855383,168.505385 C161.784066,168.086924 170.24899,157.099854 171.724505,154.901696 C171.851404,154.710563 172.057926,154.594544 172.284354,154.583141 C172.515759,154.572233 172.734722,154.66718 172.884015,154.84691 C179.161794,162.4206 194.347401,165.67904 197.328289,166.255415 C197.547252,166.297311 197.728892,166.434401 197.830909,166.631236 C197.935414,166.831046 197.940391,167.062836 197.845839,167.267604 C192.735035,178.472829 185.730695,187.363629 177.031878,193.692846 C170.37589,198.534395 165.051099,200.12395 164.050834,200.393421 C163.988629,200.409535 163.926423,200.417716 163.864218,200.417716 L163.864218,200.417716 Z" id="Fill-230" fill="#000000"></path>
            <path d="M190.149774,169.855465 C190.124892,169.855465 190.097521,169.852243 190.070151,169.846541 C180.453181,167.728952 171.592629,161.091096 171.505541,161.024658 C171.341319,160.900458 171.308972,160.667181 171.433383,160.503317 C171.557794,160.339949 171.791687,160.307969 171.955909,160.431921 C172.042997,160.497863 180.776649,167.038789 190.231885,169.120184 C190.433431,169.164559 190.56033,169.36313 190.515542,169.563683 C190.475731,169.736968 190.321461,169.855465 190.149774,169.855465" id="Fill-231" fill="#000000"></path>
            <path d="M187.731224,175.111013 C187.698877,175.111013 187.669019,175.107047 187.636672,175.098618 C183.172805,173.941654 178.738797,171.770022 174.45657,168.643715 C174.292348,168.522242 174.255025,168.289709 174.376947,168.124109 C174.49887,167.958262 174.732763,167.922564 174.899474,168.043789 C179.102077,171.114318 183.451486,173.24579 187.825777,174.378955 C188.024834,174.430767 188.144269,174.633552 188.092016,174.83237 C188.049716,174.999953 187.897935,175.111013 187.731224,175.111013" id="Fill-232" fill="#000000"></path>
            <path d="M171.80164,166.438863 C171.714552,166.438863 171.629952,166.409363 171.557794,166.348627 C169.609518,164.677263 168.524654,163.47295 168.479866,163.422625 C168.343014,163.269669 168.357943,163.034161 168.509724,162.897814 C168.663994,162.760476 168.900375,162.774606 169.037227,162.927563 C169.04718,162.939462 170.13702,164.148238 172.045485,165.784895 C172.202243,165.91901 172.219661,166.153775 172.085297,166.309458 C172.01065,166.394985 171.906145,166.438863 171.80164,166.438863" id="Fill-233" fill="#000000"></path>
            <path d="M183.498762,180.018009 C183.448997,180.018009 183.399233,180.008093 183.351957,179.987517 C171.259208,174.787747 165.20288,166.019659 165.143163,165.931901 C165.028705,165.76184 165.073493,165.530794 165.242692,165.415767 C165.414379,165.300988 165.645783,165.344867 165.76273,165.514928 C165.819959,165.601199 171.764316,174.195507 183.648055,179.304544 C183.83716,179.386104 183.924248,179.604755 183.842136,179.793409 C183.782419,179.933722 183.643079,180.018009 183.498762,180.018009" id="Fill-234" fill="#000000"></path>
            <path d="M179.624603,184.424241 C179.564886,184.424241 179.505169,184.41011 179.44794,184.38061 C166.899846,177.727136 161.44318,167.807041 161.388439,167.70788 C161.291398,167.526911 161.35858,167.301567 161.54022,167.204141 C161.72186,167.10721 161.948288,167.17464 162.045329,167.355362 C162.10007,167.453035 167.459696,177.181749 179.798779,183.723666 C179.980419,183.820348 180.050089,184.045445 179.953048,184.22691 C179.885866,184.352349 179.756479,184.424241 179.624603,184.424241" id="Fill-235" fill="#000000"></path>
            <path d="M174.640699,188.492828 C174.580981,188.492828 174.523752,188.479193 174.466523,188.450437 C172.222149,187.281573 170.047444,185.791675 168.007104,184.021894 C167.850346,183.887282 167.832929,183.65227 167.969781,183.497331 C168.104145,183.342391 168.340526,183.32603 168.497283,183.461137 C170.492836,185.192245 172.617776,186.64942 174.812386,187.791262 C174.996514,187.886209 175.066184,188.110809 174.971632,188.293018 C174.90445,188.420192 174.775063,188.492828 174.640699,188.492828" id="Fill-236" fill="#000000"></path>
            <path d="M165.118281,181.068623 C165.018752,181.068623 164.916735,181.028215 164.844576,180.948142 C159.706402,175.375278 157.2356,169.614999 157.213206,169.557734 C157.131094,169.368583 157.22067,169.150181 157.409775,169.070604 C157.601368,168.990531 157.820331,169.079528 157.899954,169.268678 C157.924837,169.324953 160.348363,174.97194 165.394473,180.445146 C165.533813,180.596615 165.52386,180.831628 165.372079,180.970701 C165.299921,181.036148 165.210345,181.068623 165.118281,181.068623" id="Fill-237" fill="#000000"></path>
            <path d="M126.625517,49.2468395 C126.563311,49.2468395 126.498618,49.2307258 126.4389,49.1970109 C112.36304,41.1056983 101.034174,26.1405258 100.922204,25.9902965 C100.800281,25.8259366 100.832628,25.5929076 100.996851,25.4696997 C101.163561,25.3467397 101.397454,25.3802067 101.519377,25.5448144 C101.631347,25.6938042 112.873125,40.5392395 126.812133,48.5527105 C126.991285,48.6555903 127.053491,48.8829176 126.948985,49.0606642 C126.879315,49.1801535 126.754904,49.2468395 126.625517,49.2468395" id="Fill-238" fill="#000000"></path>
            <path d="M124.134809,51.7273589 C124.072603,51.7273589 124.007909,51.7112452 123.95068,51.6775304 C116.157575,47.1976716 109.257741,40.6495564 104.843639,35.9450974 C104.704298,35.795116 104.711763,35.5598558 104.861056,35.4195426 C105.012838,35.2794773 105.249219,35.2869144 105.388559,35.4371437 C109.767826,40.1046652 116.607943,46.5992333 124.323913,51.0332299 C124.500577,51.1358619 124.562782,51.363437 124.458277,51.5411836 C124.391095,51.6606729 124.264196,51.7273589 124.134809,51.7273589" id="Fill-239" fill="#000000"></path>
            <path d="M101.290461,33.2486543 L102.835645,34.7415274 L103.201414,32.6643464 C102.736116,32.7957351 102.03195,33.0019906 101.290461,33.2486543 Z M103.081979,35.8687432 C102.987427,35.8687432 102.892874,35.8323014 102.823204,35.7638802 L100.334984,33.3614502 C100.24292,33.2719572 100.203108,33.1413122 100.230479,33.0156253 C100.257849,32.8899383 100.347425,32.7873064 100.469348,32.7441713 C101.987162,32.2057255 103.559717,31.7944541 103.577135,31.7904877 C103.699058,31.758756 103.830933,31.7912314 103.922997,31.876758 C104.01755,31.9625325 104.05985,32.0897068 104.037456,32.2144021 L103.450236,35.5610953 C103.427842,35.6966984 103.330801,35.8080069 103.198925,35.8506463 C103.161602,35.8627935 103.121791,35.8687432 103.081979,35.8687432 L103.081979,35.8687432 Z" id="Fill-240" fill="#000000"></path>
            <path d="M198.550005,126.175417 C198.530099,126.175417 198.507705,126.173434 198.485311,126.169467 C198.281277,126.133274 198.146913,125.939909 198.184236,125.737868 C200.27683,114.095342 198.22156,105.279904 196.126479,99.9346154 C193.854734,94.1411176 191.052998,91.0601766 191.025627,91.0296845 C190.886287,90.8784635 190.89624,90.6432034 191.048021,90.5043776 C191.199803,90.3653039 191.436184,90.375468 191.573036,90.5261931 C191.69247,90.6538632 194.484253,93.7167073 196.805763,99.6274633 C198.945632,105.067699 201.045689,114.036341 198.918261,125.869009 C198.885915,126.048987 198.729157,126.175417 198.550005,126.175417" id="Fill-241" fill="#000000"></path>
            <path d="M196.489759,109.814302 C196.30563,109.814302 196.146384,109.679938 196.121502,109.494011 C194.434489,97.5363998 188.594637,91.0936435 188.534919,91.0299324 C188.395579,90.8787115 188.405532,90.6434513 188.557313,90.5043776 C188.709095,90.3657997 188.945476,90.37522 189.084816,90.5261931 C189.144533,90.5916395 195.141143,97.2059449 196.860503,109.390635 C196.887874,109.593916 196.746045,109.782074 196.542011,109.810583 C196.524594,109.813062 196.507176,109.814302 196.489759,109.814302" id="Fill-242" fill="#000000"></path>
            <path d="M196.029438,112.52909 C195.895074,112.52909 195.758222,112.557846 195.631323,112.614864 C195.126214,112.841696 194.89481,113.447571 195.118749,113.965441 C195.228231,114.217558 195.427289,114.409931 195.678599,114.507109 C195.922444,114.60156 196.188684,114.594867 196.427553,114.487525 C196.93515,114.260941 197.164066,113.654818 196.940126,113.136948 C196.830645,112.884831 196.634075,112.692458 196.382765,112.59528 C196.268307,112.551153 196.148872,112.52909 196.029438,112.52909 Z M196.031926,115.317505 C195.820427,115.317505 195.608929,115.278584 195.407383,115.200495 C194.969456,115.030185 194.623594,114.696259 194.434489,114.259702 C194.048815,113.371217 194.449418,112.328784 195.325272,111.936601 C195.748269,111.746955 196.221031,111.73456 196.651493,111.902142 C197.091908,112.072204 197.43777,112.40613 197.626875,112.842439 C198.010061,113.73142 197.611946,114.773605 196.736092,115.166036 C196.509664,115.266933 196.270795,115.317505 196.031926,115.317505 L196.031926,115.317505 Z" id="Fill-243" fill="#000000"></path>
            <path d="M155.06836,95.5809394 C154.976296,95.5809394 154.884232,95.5464808 154.812073,95.4778116 C154.66278,95.3357631 154.657804,95.1002551 154.799632,94.9520089 L155.974072,93.7286067 C156.115901,93.5803605 156.352281,93.5754025 156.501575,93.7172031 C156.650868,93.8590037 156.655844,94.0945118 156.514016,94.2430058 L155.339576,95.4661602 C155.264929,95.5422665 155.167889,95.5809394 155.06836,95.5809394" id="Fill-244" fill="#000000"></path>
            <path d="M150.95782,99.8619798 C150.865756,99.8619798 150.771204,99.8277691 150.699046,99.758852 C150.549752,99.6168035 150.544776,99.3815433 150.689093,99.2330493 L151.863533,98.0098949 C152.005361,97.8614009 152.241742,97.8564429 152.391035,97.9982435 C152.540328,98.140292 152.545305,98.3758001 152.400988,98.5240462 L151.226548,99.7472006 C151.15439,99.8235548 151.054861,99.8619798 150.95782,99.8619798" id="Fill-245" fill="#000000"></path>
            <path d="M152.109866,95.6463858 C152.015314,95.6463858 151.920762,95.6109357 151.848603,95.5395395 L150.656746,94.3686927 C150.509941,94.2244131 150.507453,93.9891529 150.651769,93.84289 C150.796086,93.696875 151.032467,93.6946439 151.179272,93.8389236 L152.371129,95.0097704 C152.517934,95.1538022 152.520423,95.3893102 152.376106,95.5355731 C152.303947,95.6094482 152.206907,95.6463858 152.109866,95.6463858" id="Fill-246" fill="#000000"></path>
            <path d="M156.282611,99.7439778 C156.188059,99.7439778 156.093507,99.7085277 156.021348,99.6368836 L154.829491,98.4662847 C154.682686,98.3220051 154.680198,98.0867449 154.824514,97.940482 C154.968831,97.7942192 155.205212,97.7922359 155.352017,97.9365156 L156.546363,99.1073624 C156.693168,99.2513942 156.693168,99.4869022 156.548851,99.6331651 C156.476692,99.7070403 156.379652,99.7439778 156.282611,99.7439778" id="Fill-247" fill="#000000"></path>
            <path d="M143.478231,80.4605794 C143.216968,80.4605794 142.955705,80.5158618 142.711859,80.6259309 C141.741454,81.0597615 141.301039,82.2172215 141.729012,83.2056116 C141.938023,83.6877833 142.318721,84.0564154 142.801435,84.2433344 C143.271709,84.4257911 143.784282,84.4121564 144.247091,84.2056531 C145.215009,83.7715746 145.655424,82.6143624 145.22745,81.6259724 C145.018439,81.1435527 144.637742,80.7751686 144.155027,80.5882496 C143.936064,80.5032188 143.707147,80.4605794 143.478231,80.4605794 Z M143.478231,85.114962 C143.159739,85.114962 142.838759,85.0557132 142.530219,84.9364717 C141.860888,84.6769171 141.333385,84.1667323 141.044752,83.5001206 C140.455044,82.1406194 141.067146,80.5470976 142.405808,79.9476677 C143.050257,79.6586126 143.766865,79.6400198 144.426243,79.8951122 C145.098062,80.1549148 145.625565,80.6648517 145.914198,81.3317113 C146.501418,82.6907166 145.889316,84.2842384 144.553142,84.8839162 C144.209768,85.0378641 143.843999,85.114962 143.478231,85.114962 L143.478231,85.114962 Z" id="Fill-248" fill="#000000"></path>
            <path d="M130.584275,107.675145 C129.616357,108.108976 129.175942,109.266436 129.603916,110.254826 C129.812927,110.736997 130.193624,111.105629 130.676339,111.292301 C131.146613,111.474757 131.659186,111.461371 132.119507,111.254867 C133.089912,110.820789 133.530327,109.663577 133.102354,108.674939 C132.893343,108.192767 132.512645,107.824383 132.029931,107.637464 C131.559657,107.455007 131.047084,107.468642 130.584275,107.675145 Z M131.353135,112.164176 C131.034643,112.164176 130.713662,112.104679 130.405123,111.985438 C129.733304,111.725883 129.205801,111.215698 128.917168,110.549087 C128.329948,109.190081 128.94205,107.596312 130.278224,106.996634 C130.925161,106.707827 131.641768,106.689234 132.301147,106.944326 C132.970478,107.203881 133.497981,107.714066 133.786614,108.380677 C134.376322,109.739931 133.76422,111.333452 132.428046,111.93313 C132.082183,112.087078 131.718903,112.164176 131.353135,112.164176 L131.353135,112.164176 Z" id="Fill-249" fill="#000000"></path>
        </g>
    </g>
</svg>