<?xml version="1.0" encoding="UTF-8"?>
<svg width="208px" height="208px" viewBox="0 0 208 208" version="1.1" xmlns="http://www.w3.org/2000/svg" xmlns:xlink="http://www.w3.org/1999/xlink">
    <title>Group Copy 3 2</title>
    <g id="Page-1" stroke="none" stroke-width="1" fill="none" fill-rule="evenodd">
        <g id="Group-Copy-3">
            <path d="M3.18391916,168.819202 C9.30865468,183.588893 23.5854877,190.59041 32.7104981,195.065671 C68.6779215,212.703803 123.279714,210.714408 162.545207,178.682889 C171.733941,171.186658 217.020556,131.912035 206.395785,78.6323712 C197.000325,31.5318743 150.026793,4.15172666 110.492105,0.467457248 C77.7392084,-2.5848719 34.9862314,9.2428722 19.9090909,37.9478616 C10.4280816,55.9986744 21.8556695,61.7508611 14.136591,102.669683 C7.45565437,138.086435 -4.30786194,150.753086 3.18391916,168.819202" id="Fill-179" fill="#F1F7E7"></path>
            <path d="M170.876433,183.8651 C173.673746,180.149221 155.233558,173.498671 155.481929,160.446182 C155.708725,148.520097 171.266802,145.456228 170.808946,134.531363 C170.318977,122.840845 152.260127,120.553166 152.251848,108.636363 C152.245325,99.4527832 162.96794,98.0689871 163.837992,88.2459411 C164.883911,76.443284 149.720217,74.8738444 144.792932,59.2880752 C140.191039,44.7316236 150.773412,37.737633 143.052075,26.2119357 C142.046297,24.7112344 135.781571,15.746413 126.896652,15.613495 C112.4432,15.4014674 93.7717003,38.6038853 96.5200916,58.6789641 C98.8344604,75.5825507 114.60403,77.6223706 115.527018,95.5801108 C116.309262,110.800865 105.186493,113.347692 108.805188,125.153861 C113.087711,139.125536 130.094872,140.225348 133.593645,155.971924 C135.426073,164.220263 131.337732,166.517725 134.691998,172.352197 C141.775597,184.673903 167.793117,187.961297 170.876433,183.8651" id="Fill-180" fill="#C3D1AB"></path>
            <path d="M165.002828,181.787901 C164.965949,181.787901 164.928568,181.782633 164.891438,181.771093 C153.710967,178.306836 146.655717,173.424664 143.921626,167.260801 C141.842833,162.574559 143.02197,158.796966 144.270098,154.797353 C145.521488,150.788459 146.815277,146.642841 144.965538,141.11167 C143.008171,135.258885 139.491334,132.627514 136.090404,130.082945 C132.781546,127.606863 129.656082,125.268258 128.263698,120.258645 C126.294289,113.173087 129.976456,108.139892 133.537448,103.272522 C136.977265,98.5707261 140.533992,93.7091261 139.166194,86.883218 C138.062823,81.3773852 134.466708,78.163747 130.659352,74.7614549 C126.534883,71.0756802 121.859984,66.8979505 119.672058,59.1177349 C118.04485,53.3306773 118.214194,47.1397199 120.175324,40.7167082 C120.235786,40.5180196 120.445773,40.4061318 120.645222,40.4665913 C120.843919,40.5273018 120.955812,40.7377813 120.895099,40.9364699 C118.97687,47.2194964 118.809031,53.26796 120.3966,58.9140288 C122.525067,66.4832632 126.915217,70.4063604 131.160861,74.2002598 C135.064555,77.6886001 138.751489,80.9832692 139.904032,86.7354559 C141.33731,93.8859891 137.680733,98.8838112 134.144829,103.716812 C130.53065,108.656934 127.116925,113.322856 128.988741,120.057197 C130.312636,124.819452 133.338249,127.083299 136.541486,129.480357 C140.034991,132.094166 143.647414,134.797285 145.679292,140.873093 C147.606302,146.634813 146.275634,150.89834 144.988619,155.02138 C143.783893,158.88176 142.64565,162.528399 144.609539,166.955493 C147.251808,172.912389 154.150509,177.654826 165.113968,181.052101 C165.312665,181.113814 165.423805,181.324294 165.362089,181.522732 C165.312164,181.684292 165.163392,181.787901 165.002828,181.787901" id="Fill-181" fill="#F1F7E7"></path>
            <path d="M149.451274,204.756257 C150.625142,202.080734 135.731645,198.080871 123.211976,179.235805 C115.631133,167.825006 112.715655,156.683139 110.068118,146.222383 C103.518141,120.340428 108.893748,115.269101 101.945373,103.224857 C93.6066212,88.7697566 83.0902298,94.3337912 71.2203403,79.4479479 C56.5804838,61.0883147 67.5326539,46.2960458 52.5280178,29.7622408 C44.3295075,20.7279286 29.7603992,12.6923278 16.9554797,16.8118557 C9.20604472,19.3052477 1.10813734,26.5704283 0.896896304,34.4790891 C0.692679915,42.1115426 7.98551311,44.6603767 13.6927842,53.9550915 C23.8827806,70.5501086 11.7288949,80.4940737 18.2231767,97.3133682 C27.0363432,120.139482 54.7156921,115.537281 66.547197,142.738308 C71.3126642,153.693779 67.2185521,155.351022 71.4441253,165.813033 C85.7038985,201.119653 147.131386,210.044586 149.451274,204.756257" id="Fill-182" fill="#C3D1AB"></path>
            <path d="M138.738694,203.538286 C138.690274,203.538286 138.640851,203.529004 138.593434,203.508934 C126.358765,198.377148 116.571682,192.317646 109.503387,185.498762 C103.7773,179.974365 99.6859474,173.7957 97.3429783,167.134112 C94.8913781,160.164205 94.6144065,153.569849 94.3462157,147.192746 C93.945811,137.661963 93.5677348,128.659512 85.9899018,119.559472 C80.6514245,113.148502 75.0635723,110.609702 69.6596153,108.154192 C63.6236913,105.411435 57.9221905,102.820957 54.004698,94.9649788 C51.2798894,89.5005395 51.2307169,85.1145881 51.1735162,80.0357351 C51.11757,75.0316413 51.0538464,69.3599838 48.5849355,61.0281061 C46.1393564,52.7770084 42.2068111,44.9227862 36.8961815,37.683696 C36.7735011,37.5161152 36.8096278,37.2805488 36.9772157,37.1576227 C37.1445528,37.0346966 37.3801292,37.0708219 37.5030604,37.2384027 C42.8651204,44.5477363 46.8363013,52.479728 49.3064666,60.8143653 C51.8054832,69.2465907 51.8697085,74.9739413 51.9261565,80.0272056 C51.9843607,85.2186989 52.0302717,89.3194117 54.678311,94.6290646 C58.4766355,102.246215 63.8033215,104.666604 69.9712084,107.468816 C75.1967896,109.843296 81.1195667,112.534373 86.5684313,119.077802 C94.3088345,128.37352 94.6924302,137.4994 95.0983542,147.161137 C95.3640362,153.483048 95.6387499,160.020206 98.0529689,166.884497 C103.200777,181.520725 116.938469,193.609373 138.884455,202.815029 C139.076128,202.895308 139.166194,203.116073 139.085912,203.307235 C139.02545,203.451736 138.88571,203.538286 138.738694,203.538286" id="Fill-183" fill="#F1F7E7"></path>
            <path d="M60.2295347,16.2325981 C60.0215551,16.2325981 59.8532145,16.0640138 59.8532145,15.8562938 L59.8532145,13.9100483 C59.8532145,13.7020775 60.0215551,13.5337441 60.2295347,13.5337441 C60.4372634,13.5337441 60.6058548,13.7020775 60.6058548,13.9100483 L60.6058548,15.8562938 C60.6058548,16.0640138 60.4372634,16.2325981 60.2295347,16.2325981" id="Fill-184" fill="#000000"></path>
            <path d="M60.2295347,20.7660607 C60.0215551,20.7660607 59.8532145,20.5977273 59.8532145,20.3897565 L59.8532145,18.4437618 C59.8532145,18.235791 60.0215551,18.0674576 60.2295347,18.0674576 C60.4372634,18.0674576 60.6058548,18.235791 60.6058548,18.4437618 L60.6058548,20.3897565 C60.6058548,20.5977273 60.4372634,20.7660607 60.2295347,20.7660607" id="Fill-185" fill="#000000"></path>
            <path d="M58.9357461,17.5263321 L56.9894184,17.5263321 C56.7814388,17.5263321 56.6130982,17.3577478 56.6130982,17.1500278 C56.6130982,16.942057 56.7814388,16.7737236 56.9894184,16.7737236 L58.9357461,16.7737236 C59.1437256,16.7737236 59.3120662,16.942057 59.3120662,17.1500278 C59.3120662,17.3577478 59.1437256,17.5263321 58.9357461,17.5263321" id="Fill-186" fill="#000000"></path>
            <path d="M63.469651,17.5263321 L61.5233233,17.5263321 C61.3153437,17.5263321 61.1470031,17.3577478 61.1470031,17.1500278 C61.1470031,16.942057 61.3153437,16.7737236 61.5233233,16.7737236 L63.469651,16.7737236 C63.6773797,16.7737236 63.8459711,16.942057 63.8459711,17.1500278 C63.8459711,17.3577478 63.6773797,17.5263321 63.469651,17.5263321" id="Fill-187" fill="#000000"></path>
            <path d="M200.98681,82.4686675 C200.778579,82.4686675 200.61049,82.3003341 200.61049,82.0923633 L200.61049,80.1461177 C200.61049,79.9383978 200.778579,79.7698135 200.98681,79.7698135 C201.19504,79.7698135 201.36313,79.9383978 201.36313,80.1461177 L201.36313,82.0923633 C201.36313,82.3003341 201.19504,82.4686675 200.98681,82.4686675" id="Fill-188" fill="#000000"></path>
            <path d="M200.98681,87.002381 C200.778579,87.002381 200.61049,86.8340476 200.61049,86.6260768 L200.61049,84.6798312 C200.61049,84.4721113 200.778579,84.303527 200.98681,84.303527 C201.19504,84.303527 201.36313,84.4721113 201.36313,84.6798312 L201.36313,86.6260768 C201.36313,86.8340476 201.19504,87.002381 200.98681,87.002381" id="Fill-189" fill="#000000"></path>
            <path d="M199.692269,83.7624015 L197.747948,83.7624015 C197.539718,83.7624015 197.371628,83.5940681 197.371628,83.3860972 C197.371628,83.1781264 197.539718,83.009793 197.747948,83.009793 L199.692269,83.009793 C199.900499,83.009793 200.068589,83.1781264 200.068589,83.3860972 C200.068589,83.5940681 199.900499,83.7624015 199.692269,83.7624015" id="Fill-190" fill="#000000"></path>
            <path d="M204.228181,83.7624015 L202.281351,83.7624015 C202.073121,83.7624015 201.905031,83.5940681 201.905031,83.3860972 C201.905031,83.1781264 202.073121,83.009793 202.281351,83.009793 L204.228181,83.009793 C204.436411,83.009793 204.604501,83.1781264 204.604501,83.3860972 C204.604501,83.5940681 204.436411,83.7624015 204.228181,83.7624015" id="Fill-191" fill="#000000"></path>
            <path d="M69.5316664,10.8614822 C68.4022043,11.3687403 67.8889037,12.720676 68.3871515,13.8751774 C68.6300034,14.4386303 69.0738103,14.8691224 69.6360326,15.0876297 C70.1859617,15.3013705 70.7853142,15.2858166 71.3239538,15.0442293 C72.453165,14.5369712 72.9667166,13.1847846 72.4684687,12.0302832 C72.2256168,11.4670811 71.7818099,11.0363382 71.2195877,10.8178309 C70.6696585,10.6040901 70.070306,10.619644 69.5316664,10.8614822 Z M70.4288136,15.990509 C70.0693025,15.990509 69.7090387,15.9235269 69.3635768,15.7893117 C68.6116892,15.4970487 68.0196122,14.9233102 67.6959769,14.1734613 C67.0359114,12.6434082 67.7210649,10.8496913 69.2233348,10.1748524 C69.9471239,9.84972551 70.7532016,9.82890334 71.4922943,10.1163998 C72.243931,10.4086627 72.836008,10.9824013 73.1596434,11.7319993 C73.8197089,13.2623033 73.1345554,15.0557693 71.6322854,15.7306082 C71.2469336,15.9037082 70.8382499,15.990509 70.4288136,15.990509 L70.4288136,15.990509 Z" id="Fill-192" fill="#000000"></path>
            <path d="M201.358112,94.1810116 C202.677742,93.5892105 204.215637,94.1993251 204.79517,95.5439856 C205.374703,96.8883952 204.777608,98.4583365 203.460488,99.0501377 C202.140858,99.6419388 200.602963,99.0318242 200.02343,97.6871637 C199.443897,96.3425032 200.040992,94.7728128 201.358112,94.1810116" id="Fill-193" fill="#C3D1AB"></path>
            <path d="M201.190023,161.232407 L179.349657,170.969906 L118.856196,170.877837 C118.793226,170.877586 118.761615,170.843719 118.806271,170.8239 L140.568613,161.121272 L201.107232,161.14109 C201.212602,161.14109 201.265287,161.19879 201.190023,161.232407" id="Fill-194" fill="#FFFFFF"></path>
            <path d="M120.44778,170.504042 L179.269877,170.593602 L199.62704,161.516893 L140.648644,161.497576 L120.44778,170.504042 Z M179.349657,171.346211 C179.349406,171.346211 179.349406,171.346211 179.349155,171.346211 L118.855444,171.254142 C118.63492,171.25364 118.459053,171.122184 118.417658,170.927259 C118.378521,170.743622 118.47511,170.559735 118.652482,170.480209 L140.415326,160.777581 C140.463746,160.756006 140.515929,160.744967 140.568613,160.744967 C140.568864,160.744967 140.568864,160.744967 140.568864,160.744967 L201.107232,160.765037 C201.353095,160.765037 201.548781,160.90427 201.59394,161.111488 C201.634081,161.304657 201.533728,161.491304 201.34306,161.576098 L179.502945,171.313598 C179.454776,171.335172 179.402593,171.346211 179.349657,171.346211 L179.349657,171.346211 Z" id="Fill-195" fill="#000000"></path>
            <path d="M201.287866,161.149871 L201.287866,197.849569 L179.516241,207.560978 C179.454776,207.588574 179.349657,207.568504 179.349657,207.530874 L179.349657,170.969906 C179.349657,170.969906 200.974266,161.157146 201.287866,161.149871" id="Fill-196" fill="#C3D1AB"></path>
            <path d="M179.725977,171.212497 L179.725977,207.056731 L200.911546,197.605222 L200.911546,161.701031 C198.480518,162.7306 187.403159,167.729174 179.725977,171.212497 Z M179.447249,207.952335 C179.34489,207.952335 179.243033,207.924739 179.161497,207.872057 C179.043583,207.794287 178.973337,207.666344 178.973337,207.530874 L178.973337,170.969906 C178.973337,170.822144 179.05964,170.68818 179.194362,170.62747 C200.888967,160.782849 201.182496,160.775824 201.28034,160.773381 C201.380692,160.770305 201.478535,160.810194 201.55129,160.880939 C201.624045,160.951433 201.664186,161.04852 201.664186,161.149871 L201.664186,197.849569 C201.664186,197.997833 201.576378,198.13255 201.440903,198.193261 L179.669529,207.90467 C179.600537,207.934774 179.523768,207.952335 179.447249,207.952335 L179.447249,207.952335 Z" id="Fill-197" fill="#000000"></path>
            <path d="M179.349657,207.623721 L118.778173,207.533383 C118.907627,207.591083 118.824335,170.898659 118.824335,170.898659 L179.349657,170.969906 C179.349657,170.969906 179.349657,207.658817 179.349657,207.623721" id="Fill-198" fill="#78B517"></path>
            <path d="M119.175818,207.157078 L178.973337,207.247392 L178.973337,171.345709 L119.201407,171.275465 C119.205422,173.086743 119.22198,181.131626 119.225994,189.184286 C119.228753,194.496448 119.225492,198.732881 119.21646,201.775175 C119.211443,203.495387 119.203916,204.931866 119.193881,205.940361 C119.188362,206.504818 119.184598,206.891157 119.175818,207.157078 Z M179.349657,208 C179.349406,208 179.349406,208 179.349155,208 L118.77742,207.909687 C118.725739,207.909687 118.673807,207.899652 118.625136,207.877074 C118.462566,207.804322 118.373001,207.628713 118.410132,207.455613 C118.410633,207.453104 118.411386,207.448087 118.412139,207.445578 C118.503459,206.329209 118.475862,183.110234 118.448015,170.899412 C118.447764,170.799315 118.487152,170.703734 118.558151,170.632487 C118.628648,170.561993 118.724484,170.522355 118.824335,170.522355 C118.824335,170.522355 118.824586,170.522355 118.824836,170.522355 L179.350159,170.593602 C179.557887,170.593853 179.725977,170.762186 179.725977,170.969906 L179.725977,207.623696 C179.725977,207.724044 179.686338,207.819374 179.61559,207.892126 C179.545093,207.96237 179.449507,208 179.349657,208 L179.349657,208 Z" id="Fill-199" fill="#000000"></path>
            <path d="M153.074233,183.394469 C152.941016,183.394469 152.812063,183.323473 152.743824,183.19854 C152.643974,183.016409 152.710959,182.787365 152.893348,182.688021 L163.135026,177.088363 C163.317416,176.988266 163.546219,177.055248 163.645818,177.23763 C163.745417,177.420012 163.678432,177.648554 163.496294,177.7484 L153.254616,183.348309 C153.197164,183.379668 153.135197,183.394469 153.074233,183.394469" id="Fill-200" fill="#F1F7E7"></path>
            <path d="M147.762851,191.883642 C147.629633,191.883642 147.500681,191.812897 147.432191,191.687964 C147.332591,191.505331 147.399576,191.276789 147.581966,191.177193 L158.219533,185.360784 C158.402173,185.26144 158.630474,185.328171 158.730325,185.510553 C158.829924,185.693186 158.762939,185.921477 158.580549,186.021324 L147.942983,191.837482 C147.885782,191.868841 147.823815,191.883642 147.762851,191.883642" id="Fill-201" fill="#F1F7E7"></path>
            <path d="M163.684203,183.17847 C163.550985,183.17847 163.422033,183.107725 163.353794,182.982792 C163.253943,182.800159 163.321179,182.571617 163.503318,182.472022 L173.346849,177.089868 C173.529239,176.990022 173.758042,177.057255 173.857641,177.239386 C173.957491,177.421768 173.890255,177.650561 173.708116,177.749905 L163.864585,183.13206 C163.807134,183.163418 163.745167,183.17847 163.684203,183.17847" id="Fill-202" fill="#F1F7E7"></path>
            <polyline id="Fill-203" fill="#FFFFFF" points="153.219994 146.970476 148.597529 160.390991 142.14113 160.058338 146.752808 145.221916 153.219994 146.970476"></polyline>
            <path d="M142.644395,159.70712 L148.334105,160.000387 L152.733036,147.228621 L147.004691,145.679753 L142.644395,159.70712 Z M148.59778,160.767295 C148.591257,160.767295 148.584734,160.767044 148.578211,160.766793 L142.121812,160.433889 C142.005905,160.428119 141.89903,160.368663 141.832547,160.273333 C141.766064,160.178002 141.747248,160.057585 141.781869,159.946701 L146.393547,145.11053 C146.453508,144.917109 146.656219,144.806727 146.851152,144.858908 L153.318088,146.606966 C153.418691,146.634311 153.50374,146.702046 153.55241,146.794115 C153.601332,146.886184 153.609862,146.99456 153.575742,147.09265 L148.953528,160.513164 C148.900843,160.665944 148.75759,160.767295 148.59778,160.767295 L148.59778,160.767295 Z" id="Fill-204" fill="#000000"></path>
            <polyline id="Fill-205" fill="#FFFFFF" points="179.952271 148.671873 181.565179 160.058338 185.055674 160.058338 185.250106 148.859523 179.952271 148.671873"></polyline>
            <path d="M181.892076,159.682033 L184.685876,159.682033 L184.867514,149.222782 L180.38805,149.063982 L181.892076,159.682033 Z M185.055674,160.434642 L181.565179,160.434642 C181.377772,160.434642 181.218964,160.296664 181.192622,160.11102 L179.579714,148.724556 C179.564159,148.614675 179.598028,148.502787 179.67254,148.420251 C179.747302,148.337464 179.853424,148.293562 179.965818,148.295737 L185.263402,148.48347 C185.468622,148.490745 185.629938,148.660835 185.626482,148.866297 L185.431994,160.064609 C185.428481,160.270072 185.261144,160.434642 185.055674,160.434642 L185.055674,160.434642 Z" id="Fill-206" fill="#000000"></path>
            <path d="M153.297015,73.7537121 C153.297015,73.7537121 147.944739,108.521214 147.731992,116.823991 C147.519246,125.126517 143.477568,152.268087 143.477568,152.268087 C143.477568,152.268087 148.116592,154.517132 151.489674,154.499674 C151.489674,154.499674 169.33352,106.254859 170.514413,92.6153351 C171.695306,78.9758115 167.747457,72.7321715 167.747457,72.7321715 L153.297015,73.7537121" id="Fill-207" fill="#000000"></path>
            <path d="M158.53238,71.589461 C158.53238,71.589461 178.969323,132.176451 179.266114,154.823695 C179.266114,154.823695 180.510981,155.646547 186.258393,154.702274 C186.258393,154.702274 190.402179,87.7717978 179.779665,70.3526743 L158.53238,71.589461" id="Fill-208" fill="#000000"></path>
            <path d="M150.576722,158.837105 C150.764631,160.175243 151.068196,162.656844 151.093461,164.882056 C151.109089,166.27965 150.06593,167.458235 148.687595,167.636102 C144.790925,168.139095 135.95242,168.68875 128.423508,168.001869 C127.908201,167.954706 126.996503,167.577398 126.742863,166.282912 C125.890623,161.93735 133.408245,160.872158 141.650659,157.719481 C141.973542,157.595803 142.338572,157.669057 142.586944,157.910895 L143.475561,158.776395 C144.364931,159.642647 145.683807,159.887997 146.822552,159.399805 L149.525785,158.240286 C149.98615,158.042852 150.506475,158.338627 150.576722,158.837105" id="Fill-209" fill="#F1F7E7"></path>
            <path d="M141.968775,158.036831 C141.907059,158.036831 141.84484,158.04812 141.785131,158.07095 C139.846079,158.81252 137.989315,159.425143 136.193766,160.017697 C130.579572,161.870368 126.523343,163.208757 127.112158,166.210661 C127.358021,167.464256 128.276242,167.610513 128.457879,167.627321 C135.918802,168.30793 144.614807,167.782359 148.639426,167.263059 C149.837629,167.108021 150.730762,166.086732 150.717121,164.886572 C150.692127,162.668886 150.384798,160.177501 150.203914,158.889286 C150.186854,158.767614 150.116357,158.663754 150.010485,158.604298 C149.906119,158.545595 149.78369,158.538821 149.674055,158.585985 L146.971073,159.745503 C145.689327,160.29566 144.214152,160.020707 143.21314,159.046079 L142.324272,158.180579 C142.228185,158.087005 142.099735,158.036831 141.968775,158.036831 Z M136.267525,168.70305 C133.653355,168.70305 130.94962,168.610228 128.389389,168.376668 C127.62872,168.307428 126.644267,167.736199 126.373567,166.355162 C125.657054,162.702 130.20275,161.202052 135.957939,159.30297 C137.74546,158.713426 139.593443,158.103563 141.515937,157.368013 C141.975047,157.192405 142.498634,157.299777 142.849364,157.64121 L143.738232,158.50671 C144.520477,159.268601 145.67302,159.483596 146.674282,159.053856 L149.377515,157.894337 C149.704663,157.754352 150.069944,157.77392 150.379781,157.948525 C150.691625,158.124134 150.899354,158.42894 150.949279,158.784673 C151.132672,160.090198 151.444265,162.618461 151.469809,164.878042 C151.487667,166.459775 150.312294,167.80594 148.735764,168.009395 C146.059124,168.354843 141.332794,168.70305 136.267525,168.70305 L136.267525,168.70305 Z" id="Fill-210" fill="#000000"></path>
            <path d="M151.087514,164.547647 C151.087514,164.547647 151.092029,164.77343 151.093461,164.882056 C151.109089,166.27965 150.06593,167.458235 148.687595,167.636102 C144.790925,168.139095 135.95242,168.68875 128.423508,168.001869 C127.908201,167.954706 126.996503,167.577398 126.742863,166.282912 C126.66509,165.886287 126.712757,165.171058 126.712757,165.171058 L127.246881,165.197399 C134.854569,165.574958 142.479818,165.391572 150.060912,164.648246 L151.087514,164.547647" id="Fill-211" fill="#C3D1AB"></path>
            <path d="M127.075028,165.565676 C127.072519,165.786692 127.079293,166.043331 127.112158,166.210661 C127.358021,167.464256 128.276242,167.610513 128.457879,167.627321 C135.918802,168.30793 144.614807,167.782359 148.639426,167.263059 C149.81229,167.111534 150.69313,166.129379 150.716713,164.962084 L150.097541,165.022794 C142.523722,165.765368 134.829481,165.95051 127.228316,165.573202 L127.075028,165.565676 Z M136.267525,168.70305 C133.653355,168.70305 130.94962,168.610228 128.389389,168.376668 C127.62872,168.307428 126.644267,167.736199 126.373567,166.355162 C126.28877,165.922914 126.331921,165.224242 126.33719,165.145971 C126.350988,164.941011 126.525601,164.785221 126.731322,164.795255 L127.265446,164.821597 C134.829982,165.196898 142.487093,165.012508 150.024284,164.273949 L151.050885,164.173099 C151.155251,164.163064 151.259116,164.196681 151.337641,164.266423 C151.415916,164.335913 151.461827,164.435007 151.463834,164.53987 C151.463834,164.53987 151.46835,164.768162 151.469809,164.878042 C151.487667,166.459775 150.312294,167.80594 148.735764,168.009395 C146.059124,168.354843 141.332794,168.70305 136.267525,168.70305 L136.267525,168.70305 Z" id="Fill-212" fill="#000000"></path>
            <path d="M139.760278,162.789052 C139.663689,162.789052 139.566849,162.751923 139.493341,162.677917 L136.601447,159.768333 C136.454933,159.620821 136.455685,159.382746 136.602952,159.236238 C136.750469,159.089731 136.988555,159.090232 137.135319,159.237744 L140.027214,162.147328 C140.173728,162.294839 140.172976,162.532914 140.025709,162.679673 C139.952201,162.752425 139.856114,162.789052 139.760278,162.789052" id="Fill-213" fill="#000000"></path>
            <path d="M136.919312,163.090848 C136.820465,163.090848 136.721367,163.052214 136.647609,162.974696 L134.336752,160.560328 C134.192998,160.410057 134.198266,160.171982 134.348543,160.028233 C134.498319,159.884736 134.736655,159.889503 134.880409,160.040024 L137.191266,162.454392 C137.334769,162.604412 137.329752,162.842738 137.179474,162.986486 C137.106719,163.056228 137.01289,163.090848 136.919312,163.090848" id="Fill-214" fill="#000000"></path>
            <path d="M186.093063,171.140999 C188.164831,170.798061 189.332426,169.301624 189.396401,168.012657 C189.585815,164.181127 188.579284,160.539004 186.692666,158.066685 C186.486944,157.797251 186.074498,157.82008 185.893864,158.107326 L185.84419,158.152482 C185.518798,158.450264 185.0346,158.430195 184.699424,158.143451 C184.422703,157.906881 184.067708,157.766645 183.688628,157.761377 L183.161278,157.7536 C182.570205,157.745321 181.985905,158.077472 181.676068,158.573943 C181.532314,158.804492 181.200399,158.817788 181.020518,158.614584 L180.72172,158.277666 C180.519009,158.081235 180.180823,158.219966 180.172042,158.502947 L179.848657,168.98603 C180.00621,171.038143 183.380798,171.589805 186.093063,171.140999" id="Fill-215" fill="#F1F7E7"></path>
            <path d="M180.225479,168.976246 C180.26286,169.395199 180.466324,169.744158 180.846909,170.042693 C181.829105,170.813364 183.961084,171.112149 186.031346,170.769713 C187.918968,170.45738 188.963884,169.136803 189.020582,167.994092 C189.20523,164.259649 188.247621,160.724647 186.393617,158.295227 C186.36602,158.259102 186.33165,158.254335 186.304304,158.254084 C186.281975,158.255088 186.240078,158.263617 186.212231,158.30777 C186.194167,158.33662 186.172341,158.36246 186.147504,158.385038 L186.09808,158.430446 C185.638217,158.850652 184.946792,158.850652 184.454816,158.429442 C184.239561,158.245053 183.9656,158.141444 183.683109,158.137681 L183.15601,158.129817 C182.708941,158.124385 182.239294,158.381777 181.995187,158.773133 C181.866235,158.97985 181.651231,159.110553 181.405368,159.131124 C181.154237,159.153201 180.905364,159.051849 180.73878,158.863948 L180.544097,158.644437 L180.225479,168.976246 Z M184.323606,171.660048 C182.838145,171.660048 181.316808,171.367785 180.382279,170.634745 C179.828336,170.20049 179.522764,169.65535 179.473592,169.01463 C179.472588,169.001083 179.472086,168.987786 179.472588,168.97449 L179.795722,158.491156 C179.804753,158.208677 179.972592,157.96734 180.233758,157.861223 C180.494172,157.755857 180.78143,157.811801 180.983388,158.007229 C180.990413,158.013751 180.997186,158.020776 181.003458,158.0278 L181.302006,158.364969 C181.317059,158.381777 181.33738,158.381777 181.342648,158.380773 C181.741046,157.758868 182.443761,157.370271 183.166797,157.377202 L183.694147,157.385072 C184.151502,157.391846 184.59556,157.559427 184.944032,157.857209 C185.143231,158.028051 185.415185,158.035075 185.590299,157.87502 L185.607861,157.858965 C185.762403,157.646227 186.006258,157.514019 186.270686,157.501978 C186.552926,157.490187 186.821619,157.615621 186.991966,157.838644 C188.952343,160.407297 189.965648,164.122173 189.772219,168.031221 C189.700468,169.475477 188.435028,171.134728 186.154278,171.512286 C185.582773,171.606864 184.956325,171.660048 184.323606,171.660048 L184.323606,171.660048 Z" id="Fill-216" fill="#000000"></path>
            <path d="M179.935211,166.181309 C179.994419,166.410855 180.090004,166.630366 180.227486,166.823284 C180.694123,167.477301 181.96734,168.758241 184.688134,168.535469 C187.91094,168.271554 189.387118,166.014732 189.387118,166.014732 C189.426005,166.671258 189.429517,167.339072 189.396401,168.012657 C189.332426,169.301624 188.164831,170.798061 186.093063,171.140999 C183.380798,171.589805 180.00621,171.038143 179.848657,168.98603 L179.935211,166.181309" id="Fill-217" fill="#C3D1AB"></path>
            <path d="M180.225479,168.976246 C180.26286,169.395199 180.466324,169.744158 180.846909,170.042693 C181.829105,170.813364 183.961084,171.112149 186.031346,170.769713 C187.918968,170.45738 188.963884,169.136803 189.020582,167.994092 C189.03689,167.659433 189.044165,167.323017 189.042158,166.987604 C188.289267,167.71939 186.877314,168.733656 184.718993,168.910519 C182.308788,169.107451 180.942244,168.16644 180.272143,167.464256 L180.225479,168.976246 Z M184.323606,171.660048 C182.838145,171.660048 181.316808,171.367785 180.382279,170.634745 C179.828336,170.20049 179.522764,169.65535 179.473592,169.01463 C179.472588,169.001083 179.472086,168.987786 179.472588,168.97449 L179.559142,166.169519 C179.564912,165.98237 179.707412,165.828085 179.893816,165.807514 C180.08022,165.785939 180.253076,165.905855 180.29974,166.087484 C180.350167,166.283413 180.428943,166.457768 180.533811,166.604777 C181.010483,167.272843 182.179333,168.363623 184.657527,168.160419 C187.645258,167.915821 189.058716,165.829089 189.072766,165.808016 C189.162079,165.673048 189.328412,165.61008 189.484711,165.651975 C189.641009,165.69387 189.753152,165.831096 189.762937,165.992656 C189.802576,166.665989 189.805837,167.351867 189.772219,168.031221 C189.700468,169.475477 188.435028,171.134728 186.154278,171.512286 C185.582773,171.606864 184.956325,171.660048 184.323606,171.660048 L184.323606,171.660048 Z" id="Fill-218" fill="#000000"></path>
            <path d="M185.898882,163.649535 L182.155751,163.649535 C181.947771,163.649535 181.779431,163.48095 181.779431,163.27323 C181.779431,163.06551 181.947771,162.896926 182.155751,162.896926 L185.898882,162.896926 C186.10661,162.896926 186.275202,163.06551 186.275202,163.27323 C186.275202,163.48095 186.10661,163.649535 185.898882,163.649535" id="Fill-219" fill="#000000"></path>
            <path d="M185.51077,161.750954 L181.767639,161.750954 C181.559911,161.750954 181.391319,161.582621 181.391319,161.37465 C181.391319,161.16693 181.559911,160.998346 181.767639,160.998346 L185.51077,160.998346 C185.71875,160.998346 185.88709,161.16693 185.88709,161.37465 C185.88709,161.582621 185.71875,161.750954 185.51077,161.750954" id="Fill-220" fill="#000000"></path>
            <path d="M132.03568,13.3759471 C131.872357,12.7344738 131.718568,12.3792426 131.569545,12.0355514 C131.446864,11.7523198 131.331209,11.4851438 131.211539,11.0528956 C130.926037,10.0203168 131.128498,9.26519959 131.291068,8.65809541 C131.43708,8.11345773 131.58811,7.55000484 131.121975,7.14384713 C130.646055,6.72915986 129.90069,6.91982067 129.454877,7.34353925 C128.710264,8.05099123 128.604895,9.62845862 128.617188,10.0122889 C128.625216,10.2566358 128.640269,10.5742366 128.658081,10.8900813 C128.145533,10.6193931 127.424253,10.3552275 126.732075,10.4733871 C126.284254,10.5501531 125.666587,10.8243535 125.267437,11.6936163 C124.965127,12.3521487 124.760408,12.9482146 124.29904,14.4050138 C123.927486,15.5788322 123.946553,16.486478 124.356241,17.1026135 C124.731306,17.6670699 125.010536,17.9548172 126.110143,18.3421597 C126.547929,18.4964444 126.998008,18.6256422 127.449843,18.7269935 C127.287523,19.4898876 126.9245,21.346071 126.682401,23.7112686 C126.668602,23.8464873 126.728814,23.9784446 126.839703,24.0569668 C126.90443,24.102625 126.980446,24.1259559 127.056965,24.1259559 C127.111657,24.1259559 127.16685,24.1139142 127.21803,24.0895798 C128.603139,23.4330543 130.078063,22.7838041 131.726847,22.1049512 C131.889166,22.0379691 131.983748,21.8678796 131.954897,21.6947796 C131.642049,19.8298158 131.651081,18.0433741 131.981992,16.3843741 C131.982242,16.3831198 131.982493,16.3821163 131.982744,16.3806111 C131.997044,16.3053502 132.327704,14.523926 132.03568,13.3759471" id="Fill-221" fill="#FFFFFF"></path>
            <path d="M127.086569,10.8203396 C126.989227,10.8203396 126.891886,10.8278657 126.795548,10.8441722 C126.274219,10.9337326 125.875069,11.2721555 125.609637,11.8506606 C125.315104,12.4916322 125.113898,13.0791685 124.658049,14.5186577 C124.322121,15.5785813 124.326135,16.3778515 124.66959,16.8943918 C124.986953,17.3715456 125.186152,17.6173977 126.235082,17.9871793 C126.657814,18.1361958 127.094346,18.2616306 127.532132,18.3597205 C127.733337,18.404877 127.860784,18.6035657 127.817884,18.8052648 C127.670116,19.5001733 127.300067,21.372914 127.056965,23.7496516 C128.448346,23.0898649 129.92904,22.4381059 131.583845,21.7569952 C131.26322,19.8471258 131.273004,18.014775 131.612947,16.3108694 C131.728101,15.7015074 131.888413,14.3232304 131.6709,13.4687689 L131.6709,13.468518 C131.515355,12.8566473 131.367335,12.5154648 131.224585,12.1855714 C131.102155,11.9033432 130.975712,11.6118328 130.848766,11.1532434 C130.535919,10.021822 130.762464,9.17739526 130.927543,8.56075804 C131.088357,7.96168169 131.135271,7.65461742 130.874607,7.42758053 C130.56477,7.15739408 130.030897,7.315191 129.714036,7.61623439 C129.123213,8.17742945 128.978957,9.55997124 128.993257,10.0002472 C129.001285,10.2418345 129.016087,10.556174 129.0339,10.8690083 C129.041426,11.0044778 128.975696,11.1336756 128.861294,11.2069295 C128.747144,11.2804342 128.602386,11.2864551 128.482214,11.2229851 C128.116431,11.0295647 127.601625,10.8203396 127.086569,10.8203396 Z M127.056965,24.5022601 C126.900415,24.5022601 126.750138,24.4543441 126.62244,24.364031 C126.400913,24.2077393 126.280491,23.9428212 126.308088,23.6728856 C126.520834,21.5929266 126.829918,19.8905262 127.007541,19.0074656 C126.66233,18.9189086 126.319628,18.8150487 125.984954,18.69714 C124.837178,18.2924875 124.472398,17.957075 124.04264,17.311086 C123.566972,16.5953554 123.53235,15.5793339 123.940281,14.2913699 C124.406918,12.8185151 124.614647,12.2139196 124.925487,11.536572 C125.393128,10.5180418 126.131468,10.1946711 126.668602,10.1023511 C127.226309,10.0075224 127.783263,10.1224207 128.251405,10.2957715 C128.247391,10.1989358 128.243878,10.1076194 128.241119,10.0245815 C128.22431,9.50954647 128.363799,7.86108302 129.195717,7.07059324 C129.76371,6.53097295 130.731856,6.30493954 131.369092,6.86011373 C132.012348,7.42080705 131.805623,8.19248162 131.654593,8.75568364 C131.496037,9.34773565 131.316156,10.0188116 131.574311,10.9525478 C131.687208,11.3604616 131.797846,11.6158468 131.914756,11.8857823 C132.0698,12.2435222 132.229861,12.6128021 132.400209,13.2831254 C132.707537,14.4900586 132.389672,16.2534203 132.352542,16.4506037 C132.029157,18.0719732 132.020627,19.8130075 132.325948,21.632564 C132.384403,21.9807708 132.196996,22.3181903 131.87035,22.4529072 C130.227587,23.1290005 128.758684,23.7757421 127.379346,24.4297588 C127.278994,24.4771732 127.167603,24.5022601 127.056965,24.5022601 L127.056965,24.5022601 Z" id="Fill-222" fill="#000000"></path>
            <path d="M126.833681,17.7287838 C126.639249,17.7287838 126.474672,17.5792655 126.458867,17.3820821 C126.442308,17.1751148 126.597101,16.9937361 126.804078,16.9774296 C127.18115,16.9473253 128.06751,16.7935423 128.159081,16.0133381 L128.171876,15.9019521 C128.24162,15.2868201 128.337206,14.4441495 129.087839,12.9557407 C129.401439,12.3340861 128.781263,11.8393715 128.75467,11.8185493 C128.590846,11.690355 128.561994,11.4540359 128.689943,11.2902182 C128.818143,11.1264004 129.054723,11.0978013 129.218297,11.2254938 C129.611426,11.532809 130.230849,12.3609292 129.759947,13.2946654 C129.070026,14.6629077 128.986734,15.3969518 128.919749,15.986746 L128.906704,16.1008916 C128.798072,17.0263492 128.034393,17.6344568 126.864038,17.7275294 C126.853752,17.728282 126.843717,17.7287838 126.833681,17.7287838" id="Fill-223" fill="#000000"></path>
            <path d="M166.101934,23.187704 C166.101934,23.187704 170.155153,22.8555528 178.837109,25.9986967 C182.830618,27.4444576 186.427737,28.6140112 191.709264,32.1946715 C191.709264,32.1946715 182.290473,42.0114457 183.249337,52.5502223 C184.092043,61.8155854 185.260392,76.1261849 185.530339,79.4499549 C185.561448,79.8330326 185.264155,80.1614207 184.881814,80.1679434 L149.841141,80.7859054 C149.562414,80.7906014 149.340886,80.553028 149.365473,80.2738103 C149.622625,77.3413968 150.905876,62.785196 151.640955,55.8022436 C152.410404,48.4936626 150.444759,47.3057955 146.534542,40.0925449 C146.198613,39.4728973 151.0125,28.9762667 151.232021,28.306696 C152.590034,24.1648407 166.101934,23.187704 166.101934,23.187704" id="Fill-224" fill="#78B517"></path>
            <path d="M188.922488,62.8920664 L183.442766,68.427251 C182.942511,68.9325021 182.130161,68.9355126 181.626143,68.4342753 L179.679063,66.5843637 C179.208161,66.1162412 178.573685,65.8515739 177.911612,65.8473091 L175.546064,65.8091769 C173.410573,65.9802699 172.647897,67.7882864 172.647897,67.7882864 C172.286881,68.4927279 172.511669,69.4046385 173.219904,69.9798823 C173.219904,69.9798823 174.112786,70.7129229 174.915602,70.8516538 C176.294941,71.0897289 176.294941,71.0897289 176.294941,71.0897289 C176.294941,71.0897289 177.753809,71.5724018 178.81754,72.3305294 C179.881021,73.0886571 181.475113,73.830729 183.355961,73.7128204 L183.502977,73.7035382 C184.627923,73.6330439 185.69893,73.194524 186.552926,72.4549607 L192.775505,67.0660331 L188.922488,62.8920664" id="Fill-225" fill="#FFFFFF"></path>
            <path d="M175.558357,66.185732 C173.701092,66.3437798 173.021959,67.8708224 172.994112,67.9360485 C172.990599,67.9435746 172.986585,67.952355 172.982822,67.9598811 C172.696819,68.5180657 172.891753,69.2285281 173.456986,69.6878702 C173.466519,69.6956471 174.286395,70.360953 174.979828,70.4808687 L176.358915,70.7189438 C176.37723,70.7222051 176.395293,70.7267208 176.413106,70.7324908 C176.474822,70.7530621 177.938707,71.2420067 179.035806,72.0239669 C179.798231,72.5673503 181.370245,73.4609474 183.332378,73.3372687 L183.479394,73.3279866 C184.51578,73.2627605 185.519802,72.8518363 186.306562,72.1704747 L192.236113,67.0359287 L188.912955,63.4367041 L183.710204,68.6919183 C183.397356,69.007763 182.980895,69.1828699 182.537339,69.184626 C182.535081,69.184626 182.532823,69.184626 182.530566,69.184626 C182.089769,69.184626 181.674312,69.0130312 181.360712,68.7012005 L179.419652,66.8573097 C179.010467,66.4501485 178.476092,66.2273764 177.909104,66.2236133 L175.558357,66.185732 Z M182.964588,74.1014172 C180.965826,74.1014172 179.388543,73.1995414 178.599024,72.6368411 C177.667757,71.9730404 176.395795,71.5222279 176.201865,71.4554966 L174.851628,71.2224389 C173.961004,71.0686559 173.020705,70.3032531 172.981066,70.27064 C172.142123,69.5892785 171.865653,68.5037662 172.307202,67.6279808 C172.393756,67.4325534 173.257034,65.6150039 175.515958,65.434127 C175.528001,65.4331235 175.540545,65.4336253 175.551834,65.4328727 L177.917633,65.4710048 C178.679305,65.4760222 179.400335,65.7768147 179.944243,66.3176894 L181.885302,68.1615802 C182.063929,68.3389449 182.284452,68.4317666 182.534329,68.4320175 C182.776428,68.431014 183.004227,68.3351819 183.175327,68.1625837 L188.65505,62.6273991 C188.727555,62.5541452 188.830666,62.5147587 188.929262,62.5157435 C189.031872,62.5175183 189.129464,62.5614204 189.198958,62.6369321 L193.051473,66.8106479 C193.121719,66.8856579 193.156842,66.9852531 193.151825,67.0868553 C193.144298,67.1887083 193.09914,67.2837878 193.021367,67.3505191 L186.79929,72.7394467 C185.888595,73.5279296 184.726268,74.003829 183.526559,74.0790898 L183.379795,74.088372 C183.239553,74.0971524 183.101067,74.1014172 182.964588,74.1014172 L182.964588,74.1014172 Z" id="Fill-226" fill="#000000"></path>
            <path d="M183.402123,48.1454557 L183.439755,47.8765236 C183.480147,47.587522 183.599064,47.3083042 183.808549,47.1066052 C184.903389,46.0537059 186.939783,47.8138063 186.939783,47.8138063 C188.590574,49.1918324 189.046674,52.1197303 188.240596,53.9994954 L182.528308,65.1511462 L190.52511,71.8195083 C190.52511,71.8195083 207.125846,60.5993701 204.908066,48.1562431 C203.302433,39.1510317 191.69672,32.1863928 191.69672,32.1863928 L185.63345,36.2597608 L182.375271,42.9878298 L183.402123,48.1454557" id="Fill-227" fill="#78B517"></path>
            <path d="M153.669571,26.1128423 L151.55691,49.757794 C130.620716,46.436031 125.554695,37.6508321 126.77347,21.4406488 L131.405218,20.9532094 C141.481064,33.6695332 139.944675,34.3975565 153.669571,26.1128423" id="Fill-228" fill="#78B517"></path>
            <path d="M149.832862,81.1621392 C149.599042,81.1621392 149.374504,81.0648018 149.214694,80.8932071 C149.051371,80.7181002 148.969333,80.480025 148.990407,80.2409464 C149.241538,77.3787763 150.531563,62.7470639 151.266642,55.7628571 C151.517773,53.3788443 151.47989,51.6290295 151.144213,50.0891926 C151.100058,49.8862392 151.228759,49.6857944 151.431721,49.6413905 C151.634181,49.5967358 151.835136,49.7256827 151.879542,49.928887 C152.233283,51.5507583 152.274929,53.3743286 152.015268,55.8416301 C151.28044,62.8195651 149.991168,77.4455076 149.740288,80.3066742 C149.737026,80.3420468 149.752079,80.3661303 149.765125,80.3801789 C149.77817,80.3939768 149.798743,80.4122902 149.834618,80.4095307 L184.875291,79.7916391 C184.95482,79.7903848 185.028077,79.75727 185.081514,79.6983157 C185.135704,79.6386087 185.161796,79.5613409 185.155273,79.4805609 C185.068468,78.4113551 184.888587,76.2057105 184.656523,73.3972265 C184.639714,73.1900083 184.793504,73.008128 185.000731,72.9910688 C185.210216,72.9737588 185.389595,73.1280436 185.406906,73.3352618 C185.63897,76.1442475 185.8186,78.3503939 185.905404,79.4193488 C185.928736,79.7058417 185.831646,79.9915821 185.639221,80.2038177 C185.447297,80.4153007 185.173838,80.5394811 184.888337,80.5442476 L149.847664,81.1621392 C149.842898,81.1621392 149.83788,81.1621392 149.832862,81.1621392" id="Fill-229" fill="#000000"></path>
            <path d="M184.061185,62.1818549 C183.867756,62.1818549 183.70343,62.0338419 183.686621,61.8376619 C183.377035,58.217866 183.103827,55.1045755 182.874522,52.5843406 C182.735535,51.0545384 182.805279,49.450228 183.082,47.8158132 C183.116621,47.6108528 183.311555,47.4733764 183.516023,47.5074946 C183.720741,47.5423655 183.858725,47.7365385 183.824103,47.9414988 C183.55817,49.5119419 183.490935,51.0510262 183.624152,52.516355 C183.853456,55.0378443 184.126916,58.152389 184.436752,61.7734393 C184.454314,61.9806575 184.300775,62.1627888 184.093799,62.1806005 C184.082761,62.1813531 184.071973,62.1818549 184.061185,62.1818549" id="Fill-230" fill="#000000"></path>
            <path d="M191.440823,32.3893462 C191.368067,32.3893462 191.295312,32.3687749 191.232592,32.3258762 C186.494722,29.1541332 183.112858,27.9374161 179.532298,26.6494521 L178.708909,26.3526735 C170.202318,23.2727487 166.17218,23.55874 166.132792,23.5627539 C166.030182,23.57028 156.18339,24.3121011 152.664546,27.0543555 C152.500721,27.1817972 152.264643,27.1529472 152.136443,26.9886277 C152.008745,26.8248099 152.038098,26.5884909 152.202174,26.4605474 C155.900648,23.5783078 165.661138,22.8422567 166.074839,22.8124032 C166.240671,22.7988563 170.305681,22.5098546 178.965058,25.6447198 L179.786941,25.9412476 C183.412409,27.2452672 186.83642,28.4772873 191.649053,31.7004586 C191.82216,31.8161094 191.869828,32.0496689 191.754423,32.222518 C191.681668,32.3308936 191.561245,32.3893462 191.440823,32.3893462" id="Fill-231" fill="#000000"></path>
            <path d="M190.52511,72.1958125 C190.437302,72.1958125 190.352003,72.1664608 190.283011,72.1085099 L182.287212,65.4401479 C182.151902,65.3275075 182.113101,65.1363449 182.193383,64.9798024 L187.89965,53.8396915 C188.602616,52.1839529 188.283748,49.4256428 186.698687,48.1025571 C186.676359,48.083491 184.913926,46.6076257 184.08552,47.3627429 C184.009002,47.4766377 183.771669,47.945011 183.691639,48.1023062 C183.649491,48.1855949 183.617629,48.2480614 183.604332,48.2728974 C183.505235,48.4552796 183.276934,48.5235161 183.094042,48.4239209 C182.911402,48.3248274 182.843664,48.0962853 182.943012,47.9136523 C182.954804,47.8915758 182.983153,47.8358828 183.020534,47.7621271 C183.37277,47.0672186 183.464843,46.9151917 183.547633,46.8356661 C184.874789,45.5589912 187.092067,47.4480385 187.185896,47.5290694 C189.050939,49.0859655 189.417475,52.2097924 188.586309,54.1480102 C188.583048,54.1557871 188.579284,54.1635641 188.575521,54.1710901 L183.000213,65.0550632 L190.545181,71.3461175 C192.529642,69.9312136 206.546313,59.4870148 204.536763,48.2224727 C203.119291,40.2666484 193.209527,33.5882515 191.23761,32.3303919 C191.061994,32.2185041 191.011818,31.9859481 191.124714,31.8108411 C191.235101,31.6354834 191.468419,31.5838043 191.644036,31.6959429 C193.661111,32.9834052 203.804193,39.825118 205.279368,48.0902644 C206.205116,53.2955556 203.974792,59.1094562 198.829241,64.9040398 C194.968197,69.2493503 190.77599,72.1029908 190.73585,72.1313391 C190.670621,72.1744886 190.597866,72.1958125 190.52511,72.1958125" id="Fill-232" fill="#000000"></path>
            <path d="M151.865995,46.6813814 C151.854705,46.6813814 151.843415,46.6808796 151.832126,46.6798761 C151.624899,46.6613118 151.472113,46.4784279 151.490678,46.2717115 L152.743071,32.2533749 C152.761636,32.0464076 152.945782,31.8931263 153.151504,31.9119416 C153.35848,31.9305059 153.511266,32.1133898 153.492952,32.3203571 L152.240308,46.3384428 C152.222746,46.534121 152.05867,46.6813814 151.865995,46.6813814" id="Fill-233" fill="#000000"></path>
            <path d="M151.345669,50.09998 C151.32585,50.09998 151.305528,50.0987256 151.285207,50.0952135 C140.954216,48.42944 134.357575,45.4185043 130.525382,40.6201235 C127.003778,36.2105904 125.731063,30.286809 126.398404,21.4125514 C126.411952,21.2311728 126.553197,21.0854176 126.734082,21.0663515 L131.36583,20.5789121 C131.494281,20.565616 131.620223,20.6182986 131.700253,20.719399 C132.720332,22.0071121 133.627012,23.1806796 134.426818,24.2162689 C137.883946,28.6925333 139.619032,30.9393205 141.810721,31.1766431 C144.036278,31.4154708 146.945483,29.6598861 152.74257,26.1592532 L153.173832,25.8991015 C153.351957,25.7912276 153.583018,25.8486767 153.690394,26.0265432 C153.798022,26.2046605 153.740571,26.4359622 153.562947,26.5433343 L153.131685,26.803486 C141.202587,34.0072036 141.022455,33.987134 133.830978,24.6763636 C133.066295,23.6861817 132.20402,22.5695615 131.238634,21.3490814 L127.125957,21.7818313 C126.526604,30.2782794 127.760683,35.9521948 131.113445,40.1504958 C134.821703,44.7938393 141.269823,47.7179741 151.405128,49.352138 C151.610348,49.3852528 151.749837,49.5784223 151.716721,49.7836335 C151.686866,49.9685244 151.527056,50.09998 151.345669,50.09998" id="Fill-234" fill="#000000"></path>
            <path d="M170.114761,24.9746474 C167.30089,26.0375814 165.260733,25.7305172 163.513855,24.9039022 C163.193732,24.7526279 163.002561,24.3981493 163.033169,24.0273642 L163.50959,18.251094 L170.33102,18.251094 L170.854606,23.7426273 C170.906288,24.285258 170.598458,24.7920144 170.114761,24.9746474" id="Fill-235" fill="#FFFFFF"></path>
            <path d="M163.856306,18.6273983 L163.408235,24.058472 C163.390422,24.2734672 163.500057,24.4811871 163.674669,24.5637232 C165.65888,25.5027277 167.603953,25.5205394 169.981795,24.6226775 C170.310698,24.4984971 170.515667,24.1512937 170.480042,23.7782508 L169.98907,18.6273983 L163.856306,18.6273983 Z M166.745692,26.0293028 C165.576089,26.0293028 164.459673,25.7678967 163.35279,25.2440812 C162.89368,25.0270791 162.614701,24.525591 162.658103,23.9965072 L163.134524,18.2202371 C163.150832,18.0250606 163.313904,17.8747898 163.50959,17.8747898 L170.33102,17.8747898 C170.525201,17.8747898 170.687269,18.0223011 170.705835,18.2154706 L171.22917,23.706753 C171.296908,24.4169645 170.893242,25.083023 170.247727,25.3266173 C169.007878,25.7949906 167.853077,26.0293028 166.745692,26.0293028 L166.745692,26.0293028 Z" id="Fill-236" fill="#000000"></path>
            <path d="M172.938416,11.417409 C172.764556,11.3777716 172.586432,11.3995973 172.413324,11.4700916 C172.3067,7.45718313 169.888467,5.25229114 166.9188,5.25229114 C163.949383,5.25229114 161.530899,7.45718313 161.424275,11.4700916 C161.251418,11.3995973 161.073043,11.3777716 160.899183,11.417409 C160.235856,11.569185 159.891899,12.5405517 160.130988,13.5869284 C160.370077,14.6333051 161.101894,15.3585688 161.765472,15.2070436 C161.823927,15.1937475 161.87912,15.171671 161.932558,15.1460823 C162.807628,18.0501476 164.710804,20.4218678 166.9188,20.4218678 C169.127046,20.4218678 171.029972,18.0501476 171.905041,15.1460823 C171.958479,15.171671 172.013672,15.1937475 172.072127,15.2070436 C172.735705,15.3585688 173.467522,14.6333051 173.706611,13.5869284 C173.945951,12.5405517 173.601994,11.569185 172.938416,11.417409" id="Fill-237" fill="#FFFFFF"></path>
            <path d="M161.932558,14.7697781 C161.984239,14.7697781 162.036171,14.7805654 162.084591,14.8018894 C162.185194,14.8462933 162.261211,14.9323415 162.292822,15.0377067 C163.195488,18.0330885 165.05451,20.0455635 166.9188,20.0455635 C168.78309,20.0455635 170.642111,18.0330885 171.544778,15.0377067 C171.576639,14.9323415 171.652656,14.8462933 171.753259,14.8018894 C171.853611,14.7574855 171.968765,14.7592415 172.067862,14.8069067 C172.103989,14.8242167 172.132088,14.8350041 172.155921,14.8402724 C172.551559,14.9288293 173.134103,14.4035086 173.339825,13.503138 C173.43842,13.0718933 173.426127,12.6306139 173.306457,12.2921909 C173.248002,12.1278714 173.112025,11.8431345 172.854622,11.7841802 C172.763051,11.763358 172.662448,11.774898 172.555573,11.8185493 C172.441423,11.8654619 172.311216,11.8526676 172.207603,11.7851837 C172.10424,11.7176998 172.040517,11.6035542 172.037255,11.4801264 C171.942673,7.92555648 169.933626,5.62859538 166.9188,5.62859538 C163.903974,5.62859538 161.894926,7.92555648 161.800344,11.4801264 C161.797083,11.6035542 161.733359,11.7176998 161.629997,11.7851837 C161.526634,11.8526676 161.396427,11.8654619 161.282277,11.8185493 C161.175402,11.774898 161.074297,11.763358 160.982977,11.7841802 C160.588342,11.8744932 160.292053,12.6025165 160.497775,13.503138 C160.703496,14.4035086 161.285789,14.9300837 161.681678,14.8402724 C161.705511,14.8350041 161.734112,14.8239659 161.769988,14.8069067 C161.821167,14.7823215 161.877113,14.7697781 161.932558,14.7697781 Z M166.9188,20.798172 C164.762987,20.798172 162.732364,18.770143 161.681427,15.5999052 C160.851767,15.6658839 160.035403,14.8580841 159.76395,13.6707188 C159.474184,12.4025735 159.936054,11.2515843 160.815389,11.0506378 C160.89843,11.0315717 160.983479,11.0220387 161.06928,11.0217878 C161.3317,7.32698186 163.640048,4.87598689 166.9188,4.87598689 C170.197551,4.87598689 172.50615,7.32698186 172.76832,11.0217878 C172.854372,11.0220387 172.939169,11.0315717 173.02221,11.0506378 C173.46677,11.1522399 173.82879,11.5132411 174.015695,12.0410706 C174.184538,12.5172209 174.204859,13.0959768 174.073649,13.6707188 C173.802197,14.858335 172.980313,15.6666365 172.156172,15.5999052 C171.105236,18.770143 169.074863,20.798172 166.9188,20.798172 L166.9188,20.798172 Z" id="Fill-238" fill="#000000"></path>
            <path d="M161.332453,13.3122263 L162.283288,13.6366005 L162.322676,8.53366414 C162.322676,8.53366414 162.739639,7.19301755 165.567559,8.58785195 C168.395731,9.98268634 170.645122,7.95340299 170.645122,7.95340299 L171.286622,13.6366005 L172.231687,12.8661803 C172.231687,12.8661803 173.167219,6.97124892 172.805701,5.58770365 C172.444433,4.20390751 171.286622,4.31930748 171.286622,4.31930748 C171.286622,4.31930748 172.131084,-0.163730402 167.31519,0.933321901 C162.499547,2.03037421 158.454607,-1.80893255 156.808834,1.20752226 C155.163562,4.22397707 157.121932,7.32196447 160.324918,7.96669908 L161.332453,13.3122263" id="Fill-239" fill="#000000"></path>
            <path d="M42.9792709,53.8299076 C46.5056414,52.0898768 50.5553477,49.2236928 53.0573748,49.4075802 C55.0854894,49.5563458 55.4615586,50.0410256 57.5049769,49.2319715 C58.3426655,48.9005729 59.4954595,47.616372 60.4814183,48.0395888 C61.81886,48.61408 62.2044627,51.6250156 61.555185,54.0592024 C60.9101723,56.4773334 58.7280173,57.994843 57.4440131,60.030649 C55.4407356,63.2066568 54.5498604,68.4490766 51.9414602,71.2083902 C49.3087246,73.9932925 45.6927899,74.6540827 45.544018,78.4836056 C45.4090445,81.9553885 47.2876346,85.1778072 47.8124757,88.6124614 C49.0821798,96.9174961 42.6962782,102.454186 35.3151352,104.329937 C32.4169684,105.066239 29.2619005,105.079033 26.5155162,103.896184 C21.8584292,101.890482 22.0844721,98.2982818 20.1873169,94.3827107 C19.4090869,92.7763933 17.9261347,91.6509928 16.7178962,90.3366875 C13.0778771,86.3779668 9.92531792,75.1028882 17.6283401,73.4953165 C19.5503324,73.0939253 21.6918448,73.7075521 23.4271823,72.7876137 C25.0473659,71.9288874 25.2433033,70.1778183 26.3674969,66.7732684 C28.0202949,61.7679202 29.0132783,58.7607476 31.170847,56.8117425 C34.5251138,53.7814898 36.6703894,56.9431981 42.9792709,53.8299076" id="Fill-240" fill="#000000"></path>
            <path d="M68.2827854,202.469582 C68.0517248,201.879286 67.6583449,201.229785 66.9952688,200.622179 C65.0757853,198.862831 55.6238781,192.897656 55.6238781,192.897656 C55.6238781,192.897656 49.5854453,192.758926 51.8616803,195.941707 C51.8616803,195.941707 48.2730916,195.719186 47.08392,196.029009 C46.2103555,196.256297 46.2886301,200.713997 46.3917418,203.065899 C46.426865,203.865671 47.0851744,204.492844 47.8847292,204.492844 L66.8853833,204.492844 C67.9308006,204.492844 68.6638722,203.442705 68.2827854,202.469582" id="Fill-241" fill="#78B517"></path>
            <path d="M49.3586497,196.241496 C48.4770571,196.241496 47.6208033,196.277872 47.1787526,196.393021 C46.9379078,196.567375 46.5538103,198.175951 46.7678111,203.049341 C46.7939026,203.647414 47.284624,204.11654 47.8847292,204.11654 L66.8853833,204.11654 C67.262707,204.11654 67.6013951,203.935914 67.8146431,203.624083 C68.0231245,203.318775 68.066025,202.947739 67.9323059,202.606557 C67.6829311,201.96985 67.2822756,201.39561 66.7411273,200.899892 C64.9666524,199.273003 56.4793791,193.884828 55.5122364,193.272455 C54.2568325,193.259159 52.2279652,193.530098 51.8064867,194.327111 C51.6268565,194.667039 51.7482825,195.136416 52.167754,195.722698 C52.2520497,195.840857 52.2610814,195.997149 52.190835,196.12434 C52.1203377,196.25128 51.9821027,196.326792 51.8383485,196.317258 C51.3247969,196.285398 50.3265451,196.241496 49.3586497,196.241496 Z M66.8853833,204.869149 L47.8847292,204.869149 C46.8807071,204.869149 46.0598275,204.083927 46.0159234,203.082707 C45.7048321,195.999156 46.604739,195.764844 46.9890873,195.664998 C47.9007855,195.427675 50.0593578,195.482365 51.1825479,195.530281 C50.9156115,194.950271 50.9013113,194.429215 51.1414036,193.975141 C51.9321776,192.479959 55.2560879,192.51207 55.6326589,192.521603 C55.7006474,192.523108 55.7671306,192.543178 55.824833,192.579554 C56.211941,192.823901 65.327418,198.58261 67.2496612,200.344968 C67.8761088,200.918958 68.3417422,201.587776 68.633014,202.332105 C68.8555446,202.900074 68.7820368,203.541798 68.436324,204.048805 C68.0860954,204.563088 67.5060606,204.869149 66.8853833,204.869149 L66.8853833,204.869149 Z" id="Fill-242" fill="#000000"></path>
            <path d="M46.3907383,203.041564 C46.3909892,203.049592 46.3914909,203.058122 46.3917418,203.065899 C46.426865,203.865671 47.0851744,204.492844 47.8847292,204.492844 L66.8853833,204.492844 C67.7258316,204.492844 68.3633179,203.812988 68.3833883,203.041564 L46.3907383,203.041564" id="Fill-243" fill="#000000"></path>
            <path d="M63.1093872,201.212977 C63.0582076,201.212977 63.0062754,201.20244 62.9566012,201.180113 L53.81428,197.110257 C53.6243638,197.025714 53.5390645,196.803694 53.6236111,196.613535 C53.7081577,196.423878 53.9304375,196.338332 54.1203537,196.422875 L63.262424,200.49273 C63.4523402,200.577273 63.5378903,200.799544 63.4533437,200.989452 C63.3908746,201.129688 63.2533923,201.212977 63.1093872,201.212977" id="Fill-244" fill="#000000"></path>
            <path d="M7.95064078,188.89403 L9.14106678,186.133211 C13.6039726,184.953874 12.7271467,188.181059 12.5209233,189.88371 C12.3146999,191.586111 14.5896805,198.504088 16.0339971,199.937556 C17.4783138,201.370774 16.4640056,203.372712 16.4640056,203.372712 C16.4640056,203.372712 11.0700838,204.896744 7.38114298,201.823844 C3.69195133,198.751194 1.70297402,186.924705 1.70297402,186.924705 C4.13350028,183.391459 8.6255082,182.778083 8.6255082,182.778083 C8.6255082,182.778083 6.27400917,185.376338 7.95064078,188.89403" id="Fill-245" fill="#5479F7"></path>
            <path d="M2.10061895,187.013261 C2.34773584,188.393295 4.30309522,198.77026 7.62198786,201.534842 C10.7574872,204.146645 15.2735796,203.267849 16.1945604,203.052352 C16.3772011,202.59878 16.8009375,201.228531 15.7688169,200.204481 C14.226657,198.674177 11.9285954,191.645065 12.1473628,189.838554 C12.1656771,189.687029 12.1892598,189.523713 12.2138461,189.35262 C12.3568477,188.361936 12.5347217,187.129414 11.9233269,186.584526 C11.4862938,186.194925 10.6420823,186.150772 9.41327167,186.452317 L8.29610265,189.043047 C8.23764759,189.178516 8.10518291,189.267826 7.95766542,189.270083 C7.80061448,189.274097 7.6744218,189.189303 7.61094914,189.056092 C6.41199321,186.540122 7.17015283,184.441097 7.78731784,183.345299 C6.41650906,183.710314 3.77148032,184.683436 2.10061895,187.013261 Z M13.3182202,204.134101 C11.4438951,204.134101 9.08261172,203.730201 7.1402981,202.113347 C3.38713203,198.987012 1.41396016,187.475363 1.33192237,186.987171 C1.31561517,186.890837 1.33744173,186.791744 1.39288623,186.711215 C3.88914308,183.082638 8.38441244,182.43113 8.57457955,182.40504 C8.73163048,182.384468 8.88441645,182.46274 8.9581752,182.602474 C9.03193394,182.742459 9.01060913,182.913301 8.90448686,183.030457 C8.82395435,183.12052 7.09212912,185.100131 7.96594446,187.908113 L8.79535402,185.984697 C8.8410142,185.878328 8.93308719,185.799053 9.04472883,185.769451 C10.651114,185.34523 11.7567425,185.428017 12.4240836,186.022578 C13.3372871,186.836398 13.1185196,188.352905 12.9589599,189.460243 C12.9348754,189.625315 12.9122962,189.78261 12.8944837,189.928867 C12.7003025,191.533177 14.9348915,198.316437 16.2991774,199.67038 C17.5952239,200.956588 17.193314,202.765859 16.7996831,203.542802 C16.7520159,203.636627 16.6674693,203.707623 16.5663647,203.735219 C16.4549739,203.765323 15.1087514,204.134101 13.3182202,204.134101 L13.3182202,204.134101 Z" id="Fill-246" fill="#000000"></path>
            <path d="M5.51083195,195.724956 C3.81086849,191.953885 3.48296822,187.627641 3.46214517,185.052466 C2.82516064,185.560476 2.21752907,186.176361 1.70297402,186.924705 C1.70297402,186.924705 3.69195133,198.751194 7.38114298,201.823844 C11.0700838,204.896744 16.4640056,203.372712 16.4640056,203.372712 C16.4640056,203.372712 16.8420819,202.621609 16.8054534,201.710953 C9.33374268,202.732493 8.02063632,201.293255 5.51083195,195.724956" id="Fill-247" fill="#000000"></path>
            <path d="M16.8054534,201.710953 C16.7823724,201.133953 16.5942123,200.493483 16.0339971,199.937556 C14.5896805,198.504088 12.3146999,191.586111 12.5209233,189.88371 C12.7271467,188.181059 13.6039726,184.953874 9.1408159,186.133211 L7.95064078,188.89403 C6.27400917,185.376338 8.6255082,182.778083 8.6255082,182.778083 C8.6255082,182.778083 5.83471814,183.160408 3.46214517,185.052466 C3.48296822,187.627641 3.81086849,191.953885 5.51083195,195.724956 C8.02063632,201.293255 9.33374268,202.732493 16.8054534,201.710953" id="Fill-248" fill="#78B517"></path>
            <path d="M3.84047234,185.234095 C3.87308675,187.58123 4.18844302,191.875614 5.85378502,195.57042 C8.20653846,200.790262 9.23539769,202.311534 16.3930065,201.386077 C16.3117214,200.932254 16.1024874,200.53588 15.7688169,200.204732 C14.226657,198.674177 11.9285954,191.645065 12.1473628,189.838554 C12.1656771,189.687029 12.1892598,189.523713 12.2138461,189.35262 C12.3568477,188.361936 12.5347217,187.129414 11.9233269,186.584526 C11.4862938,186.194925 10.6420823,186.150772 9.41327167,186.452317 L8.29610265,189.043047 C8.23764759,189.178516 8.10518291,189.267826 7.95766542,189.270083 C7.80061448,189.274097 7.6744218,189.189303 7.61094914,189.056092 C6.41174233,186.539871 7.17040371,184.440093 7.7878196,183.344295 C6.8342244,183.597673 5.26471858,184.144067 3.84047234,185.234095 Z M13.0334713,202.397833 C8.66815782,202.397833 7.28781559,200.583294 5.16762799,195.879491 C3.48924022,192.156086 3.10915689,187.938217 3.0858109,185.055476 C3.08482153,184.939825 3.13725546,184.830446 3.22757229,184.758196 C5.65308096,182.823992 8.45616415,182.421346 8.57432867,182.40504 C8.73213224,182.383716 8.88441645,182.462489 8.9581752,182.602223 C9.03193394,182.742459 9.01060913,182.913301 8.90448686,183.030457 C8.82395435,183.12052 7.09212912,185.100131 7.96594446,187.908113 L8.79535402,185.984697 C8.8410142,185.878328 8.93308719,185.799053 9.04472883,185.769451 C10.651114,185.34523 11.7567425,185.428017 12.4240836,186.022578 C13.3372871,186.836398 13.1185196,188.352905 12.9589599,189.460243 C12.9348754,189.625315 12.9122962,189.78261 12.8944837,189.928867 C12.7003025,191.533177 14.9348915,198.316437 16.2991774,199.67038 C16.8528697,200.220035 17.1499117,200.901397 17.1815226,201.6959 C17.1892999,201.889823 17.0485562,202.057403 16.856382,202.083745 C15.3641473,202.287952 14.1082416,202.397833 13.0334713,202.397833 L13.0334713,202.397833 Z" id="Fill-249" fill="#000000"></path>
            <path d="M9.25120314,197.239956 C9.07960116,197.239956 8.92480815,197.121797 8.88466733,196.947694 C8.87638829,196.910565 8.03393296,193.209989 7.73814534,189.559336 C7.72133638,189.351867 7.87562763,189.170739 8.08285458,189.15368 C8.28807449,189.135367 8.47146783,189.291157 8.4882768,189.498375 C8.77979946,193.095592 9.60996166,196.742733 9.6182407,196.77936 C9.66465352,196.982063 9.53820995,197.183762 9.33574972,197.230173 C9.30740027,197.236695 9.27905083,197.239956 9.25120314,197.239956" id="Fill-250" fill="#000000"></path>
            <path d="M46.6782469,131.215621 C46.6782469,131.215621 18.8333171,175.865625 17.5382741,193.498238 C17.5382741,193.498238 13.5063803,189.989828 9.33574972,189.06136 C5.16486831,188.132892 0,183.0716 0,183.0716 C0,183.0716 1.76042556,162.536677 7.49027582,156.512046 C13.2196243,150.487666 21.5162287,143.062682 26.4537997,134.733564 C31.3916215,126.404446 32.3432097,119.752892 37.1809304,113.588025 C42.018651,107.422907 47.757533,101.656923 47.757533,101.656923 C47.757533,101.656923 60.3311411,100.050605 63.9463231,105.164329 C63.7784843,109.382449 63.496746,118.393681 63.0291055,125.980727 C62.2282963,138.975767 61.4114307,147.270265 61.086541,151.396316 C60.3080601,161.275306 60.1101157,175.652135 62.8672879,194.793477 C62.8672879,194.793477 60.1841254,197.04779 55.0646663,197.332527 C49.9449564,197.617264 45.0593177,197.675968 45.0593177,197.675968 C41.7976257,187.707668 41.654624,179.783704 42.1363138,174.368435 C43.0610578,163.970898 46.6729784,158.494668 47.3260192,145.628324 C47.636107,139.516642 47.1388627,134.483196 46.6782469,131.215621" id="Fill-251" fill="#000000"></path>
            <path d="M47.2459885,130.343097 C47.1880352,130.343097 47.1290784,130.32955 47.0741356,130.301202 C46.889237,130.205871 46.8167327,129.979085 46.9118162,129.794194 L52.5282687,118.897427 C52.5686604,118.818905 52.6356454,118.757191 52.7169305,118.722822 L57.1148584,116.871405 C57.306029,116.790876 57.5268035,116.880436 57.6075869,117.0721 C57.6883703,117.263765 57.5983043,117.484279 57.4068828,117.565059 L53.1348967,119.363542 L47.5809134,130.138889 C47.5141793,130.268589 47.3824673,130.343097 47.2459885,130.343097" id="Fill-252" fill="#F1F7E7"></path>
            <path d="M38.6867126,72.2954077 C54.4457452,65.1892784 54.1471979,72.0289843 67.906967,66.4175354 C73.6200083,64.0879613 81.016455,59.0015823 87.5541391,46.6615627 C88.6878662,47.0902986 89.8213424,47.5187837 90.9550696,47.9475197 C92.4044038,60.4839701 89.3080418,67.3598013 86.2146903,71.3212815 C81.2404909,77.6916106 75.0530354,78.0897405 70.8229462,85.0907555 C67.1417828,91.183372 67.457139,98.1158997 68.2338638,102.86787 C68.2925697,103.423796 67.3179006,107.225975 66.8108719,107.835838 C65.0231004,109.985288 59.3160803,107.132149 52.7615872,107.334099 C43.6057185,107.616077 38.5575094,111.94207 35.8690784,109.732663 C35.4019397,109.349083 35.0399197,108.513688 37.0133425,100.252555 C38.5718096,93.7274396 40.7996247,89.882112 39.4651935,88.3204494 C36.9333117,85.3579315 36.4471061,73.3054083 38.6867126,72.2954077" id="Fill-253" fill="#78B517"></path>
            <path d="M52.5097036,69.1429816 C49.3305511,69.1429816 45.537746,69.6191319 38.8412548,72.6385972 C38.6821968,72.7103459 38.2790325,73.0249362 37.9729588,74.3944328 C37.1234788,78.1923461 37.8997018,85.9095935 39.7511968,88.0758516 C40.7537137,89.2491682 40.0868744,91.3261168 39.077082,94.4702642 C38.5361846,96.154602 37.9230337,98.0637188 37.3793765,100.339858 C35.5835769,107.857915 35.7566841,109.153405 36.1079162,109.441905 C37.3565464,110.468463 39.2659947,109.880926 42.1561333,108.992096 C44.9060299,108.146666 48.3282852,107.094017 52.7500467,106.957795 C55.5872496,106.871747 58.2064377,107.336859 60.5182976,107.748034 C63.3778288,108.257299 65.6367531,108.658941 66.5216072,107.595254 C66.9591421,107.06893 67.9027021,103.372117 67.8598016,102.907005 C66.695718,95.7918447 67.5835826,89.7250677 70.5008162,84.8960807 C72.821457,81.0552688 75.7858561,79.1208141 78.6524119,77.2500803 C81.1137965,75.6437629 83.6592258,73.9827559 85.9181501,71.0894781 C90.1241547,65.7035609 91.7011869,58.0088917 90.6070989,48.2182079 L87.7307587,47.1304378 C82.4472241,56.9891072 75.8267495,63.5942501 68.049216,66.7659932 C61.4866948,69.4425198 58.0110021,69.3160816 54.6494598,69.1939081 C53.950257,69.1685703 53.2462875,69.1429816 52.5097036,69.1429816 Z M37.7943322,110.734635 C36.9669297,110.734635 36.2501652,110.532936 35.6302406,110.02342 C34.9754435,109.485556 34.6651049,108.463514 36.6473084,100.165002 C37.1977393,97.8607654 37.8425011,95.8533077 38.3605685,94.2402168 C39.2928389,91.3369042 39.9087495,89.4190069 39.1789394,88.5647962 C37.1553406,86.1970899 36.3439944,78.2287222 37.2383819,74.2301133 C37.5218764,72.9622188 37.9451111,72.2171364 38.5319196,71.9524691 L38.6867126,72.2954077 L38.5319196,71.9524691 C46.9409183,68.1605767 50.8729619,68.3030706 54.6770566,68.4418014 C58.1093471,68.5664835 61.3519722,68.6843922 67.7649689,66.0693286 C75.4514329,62.9347142 81.997647,56.3456269 87.2214721,46.4854523 C87.3105346,46.3178715 87.5097333,46.2423597 87.6873564,46.3095928 L91.0882869,47.5952989 C91.219748,47.645222 91.3128246,47.764385 91.3288809,47.9041193 C92.4967277,58.0068847 90.8757914,65.9634617 86.5112306,71.552834 C84.1752861,74.5444527 81.5766702,76.2403305 79.0638553,77.8802644 C76.1393461,79.7888795 73.3769055,81.5916277 71.1450763,85.2854302 C68.3226753,89.9568711 67.4681777,95.8518025 68.6054172,102.806908 C68.6776706,103.48827 67.6866943,107.371228 67.1001367,108.076422 C65.9358022,109.476525 63.4869617,109.041015 60.3863347,108.489102 C58.1106015,108.084199 55.5287945,107.625108 52.7731276,107.710153 C48.4527217,107.843364 45.0841548,108.879205 42.3774096,109.711589 C40.562543,110.269774 39.0507396,110.734635 37.7943322,110.734635 L37.7943322,110.734635 Z" id="Fill-254" fill="#000000"></path>
            <path d="M56.6023104,53.6605707 C57.1667906,54.0594532 57.4841539,54.1600519 57.9472785,54.5448857 C58.8888315,55.3275985 59.8441828,57.7773391 61.3597494,58.183246 C61.5792695,58.990544 60.9314971,59.134794 60.7174964,59.6106934 C60.9314971,59.999792 61.3770602,61.8549719 61.7852421,62.9786164 C61.9289964,63.3744885 61.7531294,63.8147644 61.3755549,64.0014113 C60.7450932,64.3137439 60.0255691,64.5407807 59.2097071,64.6629542 C58.8328852,65.0931954 58.2107026,65.9215664 57.8903287,67.1317609 C57.4417552,68.8273878 58.9615867,69.6133619 59.1565205,70.1607592 C63.841957,74.628494 48.7663218,72.0839247 50.4896171,70.3431413 C52.5277669,68.2840045 53.2324891,65.5811365 53.4730831,63.3724815 C53.3438798,63.3356037 51.6534498,62.8303525 51.3764782,61.4841868 C51.2748718,60.9899739 51.3237934,60.1871915 51.7608265,59.9837364 C52.1870718,59.7852986 52.9557684,60.1703833 53.4906447,61.0757713 C53.5761948,60.8442187 53.6429289,60.5507014 53.7086595,60.2130311 C53.7989763,59.7501769 53.851912,59.2243544 53.7028892,58.973234 C57.7177232,57.5518075 53.7312387,53.8477194 56.6023104,53.6605707" id="Fill-255" fill="#FFFFFF"></path>
            <path d="M52.0099504,60.3081106 C51.9740746,60.3081106 51.9434672,60.3138806 51.9196336,60.3249189 C51.7400035,60.4084584 51.6519445,60.9553539 51.7450211,61.4084242 C51.9785904,62.5443613 53.510966,62.9919125 53.5761948,63.0104768 C53.7525635,63.0603999 53.8672157,63.2307402 53.8473962,63.4131224 C53.5162345,66.4501485 52.4765874,68.8707882 50.7570553,70.6078086 C50.7317164,70.6333973 50.7259462,70.6471951 50.7256953,70.647446 C50.8132524,70.995402 52.9091047,71.8952709 55.9374782,72.2023351 C58.2403065,72.4361455 59.4826646,72.1215552 59.6622948,71.7307005 C59.7761943,71.4838449 59.4899402,70.9986633 58.8968596,70.4332035 C58.85421,70.3925626 58.8218465,70.3423887 58.802027,70.2869465 C58.7729249,70.2051631 58.613616,70.0328157 58.4728723,69.8807888 C57.9786385,69.3469385 57.1517378,68.4528397 57.5265526,67.0356779 C57.7801924,66.0771055 58.2643909,65.1709649 58.9267144,64.4150951 C58.9854203,64.348113 59.0659528,64.3039599 59.1540117,64.2909147 C59.9043941,64.1785252 60.5955687,63.9677948 61.2084687,63.6642427 C61.4141904,63.5626406 61.5100266,63.3230602 61.4315011,63.1073124 C61.2335568,62.562173 61.0278351,61.8517106 60.8464488,61.2247878 C60.6748468,60.6319831 60.4801639,59.9601546 60.38784,59.7920721 C60.3306393,59.688463 60.3256217,59.5640317 60.3742925,59.4564087 C60.4731392,59.2363961 60.6251726,59.0816097 60.7593934,58.9448858 C60.9347586,58.7662667 61.0356124,58.6636611 61.0285877,58.469739 C60.0524133,58.0876647 59.3361507,57.0352672 58.6989153,56.0987714 C58.3441708,55.5779663 58.0094968,55.0860112 57.7066845,54.8341382 C57.4683484,54.6362022 57.2696514,54.519297 57.0398453,54.3838275 C56.8822926,54.2910058 56.7071783,54.1878984 56.5002022,54.0476624 C56.2310079,54.079021 56.048618,54.1515223 55.9567959,54.2634101 C55.7786711,54.4811648 55.8446525,54.9731199 55.9143972,55.4941759 C56.0649252,56.6160643 56.2884594,58.2843464 54.1584875,59.1990166 C54.1936107,59.4754748 54.1665156,59.8319603 54.0782059,60.2850306 C54.0194999,60.5848197 53.945992,60.9285109 53.8438839,61.2057217 C53.793457,61.3421947 53.6692713,61.4375251 53.5247644,61.4505703 C53.3792539,61.4648699 53.2405172,61.3923686 53.1667585,61.2671847 C52.7620889,60.5825618 52.2573182,60.3081106 52.0099504,60.3081106 Z M57.4186742,73.034971 C54.7962247,73.034971 50.5440581,72.1192973 50.0372803,70.9284198 C49.9118403,70.6336482 49.9790761,70.3238244 50.2221789,70.078474 C51.7633353,68.5215779 52.7184358,66.3533128 53.0638977,63.6301245 C52.4730751,63.402335 51.2615751,62.7934747 51.0079354,61.5602003 C50.8840006,60.9581135 50.9401977,59.9506216 51.6020194,59.6425538 C52.1020234,59.4102487 52.7673574,59.6581078 53.3213006,60.2315954 C53.3275726,60.2009893 53.3335938,60.1706341 53.339364,60.1407807 C53.4906447,59.3650922 53.3837698,59.1729261 53.3790031,59.1651492 C53.3215515,59.0683136 53.3107637,58.9509066 53.3488974,58.8450397 C53.3872821,58.7391728 53.471076,58.6558841 53.5771983,58.6182537 C55.4833852,57.9436656 55.3303484,56.8024603 55.1685307,55.5942728 C55.0762068,54.9066395 54.9891514,54.2571384 55.3745033,53.7865072 C55.6208675,53.4857147 56.0144983,53.3218969 56.5777241,53.28527 C56.6652813,53.2789982 56.7493261,53.3035834 56.8195725,53.3532556 C57.0521384,53.5175751 57.2400476,53.6282086 57.4216847,53.7353298 C57.6690525,53.881085 57.9026219,54.0185615 58.1876216,54.2553823 C58.5722208,54.57499 58.9359969,55.1095929 59.3210979,55.6753036 C59.9342488,56.5766777 60.6294375,57.5982183 61.4570909,57.8197361 C61.586545,57.8546069 61.6879006,57.9552056 61.7230238,58.0846543 C61.9257349,58.8312419 61.5471569,59.2168283 61.2965277,59.4722135 C61.2385744,59.5311678 61.184886,59.5856065 61.1414838,59.6395434 C61.2506166,59.9212699 61.3845866,60.3770997 61.5692343,61.0155626 C61.7476101,61.6311963 61.9495685,62.3288644 62.138983,62.8504221 C62.3484679,63.4269202 62.0920684,64.0668883 61.5423901,64.3388308 C60.8981301,64.6576859 60.1796095,64.8842211 59.4053936,65.013168 C58.8639944,65.660913 58.4671021,66.4238072 58.2543557,67.2280948 C57.9851614,68.2453706 58.5619347,68.8687813 59.0253102,69.3697677 C59.2127177,69.5722193 59.3780476,69.7508384 59.4718768,69.942001 C60.300032,70.7482955 60.5935617,71.4191206 60.3692749,71.9913539 C60.1068543,72.660172 59.1663049,73.0108875 57.5734672,73.0337166 C57.5225385,73.0344693 57.4708572,73.034971 57.4186742,73.034971 L57.4186742,73.034971 Z" id="Fill-256" fill="#000000"></path>
            <path d="M55.7939748,64.4198616 C55.7939748,64.4198616 57.262125,65.182254 59.0772424,64.6877903 L55.7939748,64.4198616" id="Fill-257" fill="#FFFFFF"></path>
            <path d="M57.8198314,65.2316753 C56.5594099,65.2316753 55.6695382,64.7793576 55.6206166,64.7537689 C55.4362198,64.6581877 55.364468,64.4308999 55.4600534,64.2465108 C55.5558896,64.0623726 55.7821834,63.9903731 55.9665803,64.0854526 C55.9851454,64.0949857 57.3391452,64.7710789 58.9783957,64.3247821 C59.1788489,64.2698417 59.3858249,64.388503 59.4405168,64.5889477 C59.4949578,64.7896433 59.3767932,64.9963597 59.1760892,65.0510493 C58.6949012,65.1820032 58.2367941,65.2316753 57.8198314,65.2316753" id="Fill-258" fill="#000000"></path>
            <path d="M79.5683751,104.701726 L81.4454599,101.564101 L89.5205469,100.424401 C89.5205469,100.424401 89.5265583,101.035268 89.2377954,101.428882 C88.9492833,101.820991 88.3853048,101.987067 87.9909213,102.142857 C87.5965379,102.298647 85.6983791,102.686742 85.6983791,102.686742 C85.6983791,102.686742 85.1487009,105.610124 83.2329805,106.163542 C81.3172602,106.71696 79.5683751,104.701726 79.5683751,104.701726" id="Fill-259" fill="#FFFFFF"></path>
            <path d="M80.0392771,104.647287 C80.510179,105.10412 81.8012079,106.184615 83.1283635,105.802039 C84.7964652,105.320119 85.3235643,102.643843 85.3285819,102.616749 C85.3571822,102.466729 85.4735906,102.34857 85.6231151,102.317964 C86.3443953,102.170452 87.587757,101.897506 87.8529373,101.792894 C87.9096362,101.770566 87.9695965,101.747737 88.0320657,101.724406 C88.3697503,101.597467 88.7523424,101.453467 88.9344813,101.205859 C89.0044769,101.110529 89.0521441,100.987854 89.0842568,100.865931 L81.6762696,101.911555 L80.0392771,104.647287 Z M82.5445656,106.637184 C80.7725995,106.637184 79.3521165,105.026602 79.284128,104.94833 C79.177504,104.825404 79.1616985,104.64804 79.2452416,104.508556 L81.1225773,101.370931 C81.1810323,101.273343 81.2803808,101.207364 81.393026,101.19156 L89.4681033,100.05186 C89.57548,100.036807 89.6838602,100.068668 89.7661488,100.139162 C89.8481866,100.209656 89.8958538,100.312262 89.8969059,100.420638 C89.89761,100.496149 89.8940977,101.170738 89.5411094,101.651654 C89.2265058,102.079387 88.7109472,102.273058 88.296995,102.428848 C88.23854,102.450925 88.1823429,102.471998 88.1291563,102.49282 C87.7899664,102.626784 86.5536293,102.892706 86.0122301,103.005848 C85.8233174,103.766986 85.123362,106.009257 83.3373466,106.525045 C83.0679014,106.602815 82.8024703,106.637184 82.5445656,106.637184 L82.5445656,106.637184 Z" id="Fill-260" fill="#000000"></path>
            <path d="M38.8537988,72.7971467 C41.8227137,71.166495 42.7522244,80.3277472 49.5779189,90.8173534 C50.4043179,91.6680519 51.4349333,92.2927169 52.5714201,92.6318925 L82.2816433,101.145901 L79.7728424,105.494222 L49.335067,103.512103 C46.0302236,103.28331 42.9742533,101.675738 40.9135243,99.082249 L34.447341,90.9437917 C31.9751686,83.7894954 35.2579345,74.3023637 38.8537988,72.7971467" id="Fill-261" fill="#78B517"></path>
            <path d="M65.5562206,96.6721457 C65.5183377,96.6721457 65.4797022,96.6663757 65.4415684,96.654334 C55.946259,93.6203183 44.7705547,89.1673848 42.614993,81.5976486 C42.5580432,81.3977056 42.6739498,81.1894839 42.8739013,81.1325366 C43.0728492,81.0755892 43.2818323,81.1914909 43.3387821,81.3914339 C44.9444146,87.0294749 51.8318256,91.5157741 65.6706219,95.937349 C65.8685663,96.0005681 65.97795,96.2123019 65.9144774,96.410238 C65.8635487,96.5702927 65.7155295,96.6721457 65.5562206,96.6721457" id="Fill-262" fill="#000000"></path>
            <path d="M79.7730933,105.870527 C79.7685774,105.870527 79.7638107,105.870527 79.7592949,105.870276 C70.7785405,105.542138 61.3321526,105.055201 53.2224539,103.066307 C44.5723594,100.944704 38.1902209,97.2486438 33.7120114,91.7668945 C33.5805503,91.6060871 33.6046348,91.3687646 33.7654489,91.237309 C33.926263,91.1056025 34.1635956,91.129686 34.2950567,91.2907442 C43.7843451,102.906504 59.8153316,104.38839 79.7866408,105.118169 C79.9943695,105.125946 80.1566889,105.3003 80.149414,105.50802 C80.1416361,105.710974 79.9748009,105.870527 79.7730933,105.870527" id="Fill-263" fill="#000000"></path>
            <polyline id="Fill-264" fill="#78B517" points="96.3888813 69.7867128 87.1901121 90.2744719 97.2253155 85.5079514 104.417044 94.2045934 108.096702 73.4662157 96.3888813 69.7867128"></polyline>
            <path d="M97.2250646,85.1316472 C97.3346992,85.1316472 97.4420759,85.1793124 97.5153329,85.2681202 L104.188743,93.3380901 L107.66845,73.7261165 L96.5953556,70.2460548 L87.9522858,89.4957729 L97.0637487,85.1680233 C97.11543,85.1434381 97.1706237,85.1316472 97.2250646,85.1316472 Z M104.417044,94.5808976 C104.306657,94.5808976 104.199782,94.5322289 104.127278,94.4444246 L97.1219529,85.9735652 L87.351428,90.6144 C87.209179,90.6821348 87.0393332,90.6537865 86.9269389,90.543404 C86.8140429,90.4330214 86.7821811,90.2641862 86.8469082,90.120438 L96.0456774,69.6326789 C96.1237011,69.4585755 96.320391,69.3705203 96.5017774,69.4277185 L108.209598,73.1072214 C108.389981,73.1639179 108.500368,73.3457983 108.467252,73.5319435 L104.787594,94.270572 C104.762004,94.414822 104.654878,94.5312255 104.513131,94.568605 C104.481269,94.5768837 104.449157,94.5808976 104.417044,94.5808976 L104.417044,94.5808976 Z" id="Fill-265" fill="#000000"></path>
            <polyline id="Fill-266" fill="#78B517" points="108.919338 72.9802814 111.86166 95.639316 118.048363 86.2605599 128.015076 87.4918274 116.533549 65.7527313 108.919338 72.9802814"></polyline>
            <path d="M109.317234,73.121521 L112.104512,94.5876711 L117.734261,86.0533417 C117.813037,85.9339278 117.952777,85.8699561 118.094525,85.8870152 L127.345728,87.0299767 L116.432695,66.3673615 L109.317234,73.121521 Z M111.86166,96.0156203 C111.833561,96.0156203 111.805212,96.012359 111.776862,96.0058363 C111.623825,95.9704637 111.508671,95.8435238 111.48835,95.6877338 L108.546279,73.0286993 C108.530725,72.9095362 108.573124,72.7901224 108.66043,72.7073354 L116.274389,65.4797853 C116.359689,65.3987544 116.477853,65.3613749 116.594512,65.3814444 C116.71067,65.4005105 116.811273,65.4727609 116.866216,65.5768718 L128.347743,87.3159679 C128.413222,87.4401483 128.404442,87.5901683 128.324913,87.7055682 C128.245133,87.8212191 128.107149,87.8819295 127.968914,87.8653721 L118.234014,86.6627037 L112.175762,95.8465342 C112.105013,95.9536555 111.986096,96.0156203 111.86166,96.0156203 L111.86166,96.0156203 Z" id="Fill-267" fill="#000000"></path>
            <path d="M128.486981,52.0755773 C128.486981,64.3368238 118.546861,74.2765241 106.285348,74.2765241 C94.0235839,74.2765241 84.083464,64.3368238 84.083464,52.0755773 C84.083464,39.8143307 94.0235839,29.8748812 106.285348,29.8748812 C118.546861,29.8748812 128.486981,39.8143307 128.486981,52.0755773" id="Fill-268" fill="#FFFFFF"></path>
            <path d="M106.285348,30.2511855 C94.2506303,30.2511855 84.4597841,40.0416184 84.4597841,52.0755773 C84.4597841,64.109787 94.2506303,73.9002199 106.285348,73.9002199 C118.319815,73.9002199 128.110661,64.109787 128.110661,52.0755773 C128.110661,40.0416184 118.319815,30.2511855 106.285348,30.2511855 Z M106.285348,74.6528284 C93.8356747,74.6528284 83.7071439,64.5247251 83.7071439,52.0755773 C83.7071439,39.6266803 93.8356747,29.498577 106.285348,29.498577 C118.73477,29.498577 128.863301,39.6266803 128.863301,52.0755773 C128.863301,64.5247251 118.73477,74.6528284 106.285348,74.6528284 L106.285348,74.6528284 Z" id="Fill-269" fill="#000000"></path>
            <path d="M123.59507,51.9503934 C123.59507,61.5100264 115.845134,69.2593851 106.285348,69.2593851 C96.7253115,69.2593851 88.9753748,61.5100264 88.9753748,51.9503934 C88.9753748,42.3907604 96.7253115,34.6411508 106.285348,34.6411508 C115.845134,34.6411508 123.59507,42.3907604 123.59507,51.9503934" id="Fill-270" fill="#C3D1AB"></path>
            <path d="M106.473508,39.533106 C99.5223736,39.533106 93.8672856,45.1877044 93.8672856,52.1385455 C93.8672856,59.0891357 99.5223736,64.743985 106.473508,64.743985 C113.424392,64.743985 119.07948,59.0891357 119.07948,52.1385455 C119.07948,45.1877044 113.424392,39.533106 106.473508,39.533106 Z M106.473508,65.4965935 C99.1074179,65.4965935 93.1146453,59.5043248 93.1146453,52.1385455 C93.1146453,44.7730171 99.1074179,38.7804975 106.473508,38.7804975 C113.839347,38.7804975 119.83212,44.7730171 119.83212,52.1385455 C119.83212,59.5043248 113.839347,65.4965935 106.473508,65.4965935 L106.473508,65.4965935 Z" id="Fill-271" fill="#FFFFFF"></path>
            <path d="M88.6115987,37.8427473 C94.8836008,35.2086176 99.7341164,32.3236184 94.2754675,32.3868375 C92.050412,32.9808965 89.615119,34.1632444 88.6115987,37.8427473" id="Fill-272" fill="#FFFFFF"></path>
            <path d="M94.3271488,32.76264 C92.4871942,33.2598634 90.3047884,34.2232022 89.2187285,37.1756853 C95.0436623,34.6652343 96.2998189,33.3343716 96.2689606,33.058666 C96.268208,33.058666 96.0813023,32.7460826 94.3271488,32.76264 Z M88.6118496,38.2190515 C88.5220345,38.2190515 88.4334738,38.1869402 88.3637292,38.1257281 C88.2555998,38.0308994 88.2106923,37.8826355 88.2485752,37.7436538 C89.3273596,33.7886962 91.9841797,32.6091079 94.1783769,32.0233276 C94.2087334,32.0152998 94.2398425,32.0107841 94.2712025,32.0105333 C96.031879,31.9932233 96.8730799,32.2664201 97.0060463,32.9063882 C97.0918473,33.3203229 97.3532644,34.5796878 88.75736,38.1896998 C88.7104454,38.2092676 88.6610221,38.2190515 88.6118496,38.2190515 L88.6118496,38.2190515 Z" id="Fill-273" fill="#000000"></path>
        </g>
    </g>
</svg>