<?xml version="1.0" encoding="UTF-8"?>
<svg width="195px" height="462px" viewBox="0 0 195 462" version="1.1" xmlns="http://www.w3.org/2000/svg" xmlns:xlink="http://www.w3.org/1999/xlink">
    <title>Group 21</title>
    <g id="Page-1" stroke="none" stroke-width="1" fill="none" fill-rule="evenodd">
        <g id="Group-21">
            <g id="Group" transform="translate(101.000000, 329.000000) scale(-1, 1) translate(-101.000000, -329.000000) translate(8.000000, 196.000000)">
                <path d="M24.2992244,139.312051 C17.4311453,138.064441 9.65610653,142.287687 7.22696796,148.84484 C5.1088053,154.562145 7.05096201,159.789431 11.1644999,163.860006 C22.2499894,174.829243 45.8011241,163.459286 36.1759391,147.500571 C33.6179218,143.259402 29.1780195,140.198309 24.2992244,139.312051" id="Fill-5" stroke="#333333" fill="#C0DB93"></path>
                <path d="M17.9380039,13.9573523 C11.0699248,12.7097425 3.29488607,16.9329881 0.865747508,23.4904611 C-1.25241515,29.2074457 0.68974156,34.4350524 4.80327949,38.5053074 C15.8890895,49.4748637 39.4399037,38.1045871 29.8147186,22.1458718 C27.2567014,17.9050227 22.816799,14.8436097 17.9380039,13.9573523" id="Fill-6" stroke="#333333" fill="#C0DB93"></path>
                <path d="M70.6128334,210.042693 C63.7447542,208.795083 55.9697155,213.018329 53.5405769,219.575482 C51.4224143,225.292787 53.364571,230.520073 57.4781089,234.590648 C68.5635983,245.559885 92.1147331,234.189928 82.489548,218.231213 C79.9315308,213.990044 75.4916285,210.928951 70.6128334,210.042693" id="Fill-7" stroke="#333333" fill="#C0DB93"></path>
                <path d="M61.8237567,71.7007539 C54.9556776,70.4531441 47.1806389,74.6763897 44.7515003,81.2335426 C42.6333376,86.9508473 44.5754944,92.178454 48.6890323,96.248709 C59.7745217,107.217945 83.3256565,95.8479887 73.7004714,79.8892734 C71.1424542,75.6484243 66.7025518,72.5870113 61.8237567,71.7007539" id="Fill-8" stroke="#333333" fill="#C0DB93"></path>
                <path d="M21.0734104,261.651106 C32.5381622,248.918317 49.644081,241.920436 66.7580145,242.964485 C67.3254654,242.999052 68.4103545,242.18865 67.3703485,242.125277 C49.5264231,241.036419 31.5866401,248.369727 19.6377918,261.641505 C19.2126845,262.111999 20.7518549,262.009578 21.0734104,261.651106" id="Fill-9" fill="#333333"></path>
                <path d="M23.1264926,244.506874 C27.378527,237.778487 34.7047345,233.331836 41.9626556,230.458301 C49.3642026,227.527794 57.8538448,225.790166 65.7891803,227.225334 C66.3444487,227.325514 67.6172057,226.473183 66.7172991,226.31027 C58.3751301,224.801808 49.5511088,226.534315 41.73824,229.557641 C34.0112903,232.547679 26.183033,237.279827 21.6706765,244.420456 C21.2587136,245.072107 22.8222491,244.98857 23.1264926,244.506874" id="Fill-10" fill="#333333"></path>
                <path d="M28.7170057,224.41261 C32.3070141,220.109349 37.8157759,217.412169 43.041774,215.66782 C48.2004475,213.946195 54.0564122,212.792684 59.4542486,214.011488 C59.9797017,214.130232 61.2797092,213.334872 60.3923058,213.134512 C54.4738252,211.797925 48.0366241,213.058337 42.3938541,214.985763 C36.823859,216.888544 31.0974141,219.763039 27.2682427,224.353079 C26.8181292,224.892387 28.377497,224.819732 28.7170057,224.41261" id="Fill-11" fill="#333333"></path>
                <path d="M32.3506149,169.162188 C44.7518209,167.233802 55.9665096,162.57815 65.9642245,154.98815 C66.2594913,154.763785 64.8613821,154.904293 64.5683595,155.126738 C59.980984,158.609675 55.0781444,161.655725 49.7745626,163.9301 C44.3033103,166.27681 38.5223645,167.720619 32.6500494,168.633762 C32.0457303,168.727861 31.2554668,169.332462 32.3506149,169.162188" id="Fill-12" fill="#333333"></path>
                <path d="M22.1586202,150.860604 C40.7476054,151.413994 58.2568311,143.333977 71.264921,130.320811 C71.887514,129.697646 70.373991,129.76646 70.0338411,130.106368 C57.4688117,142.676565 40.7559409,150.567745 22.7738395,150.032278 C22.21793,150.015954 21.1186141,150.829557 22.1586202,150.860604" id="Fill-13" fill="#333333"></path>
                <path d="M20.0414193,130.602787 C30.1260151,130.947497 40.0993649,127.764459 48.9432631,123.108487 C52.8352708,121.059437 56.5791642,118.682321 60.0293937,115.952174 C62.5130332,113.987301 65.0139847,111.809905 66.8154008,109.180898 C67.1738246,108.658234 65.644272,108.833309 65.3890794,109.205543 C63.7072448,111.660115 61.4153203,113.690281 59.1076868,115.541212 C55.9081615,118.107486 52.4470318,120.346974 48.8425967,122.302566 C40.246838,126.965899 30.5421457,130.161739 20.6697829,129.824392 C20.1456122,129.806468 19.0052604,130.56758 20.0414193,130.602787" id="Fill-14" fill="#333333"></path>
                <path d="M22.2891018,108.68832 C35.8107828,107.185619 48.4549989,101.766294 58.5735776,92.6406266 C59.3503762,91.9400063 58.1298759,91.3830948 57.5409453,91.9140811 C47.7317395,100.760972 35.5418047,106.075317 22.4202246,107.533528 C21.5507745,107.630188 21.2356309,108.805463 22.2891018,108.68832" id="Fill-15" fill="#333333"></path>
                <path d="M27.2281685,39.5698405 C30.8479921,42.8127298 35.6540125,44.6182113 40.3119186,45.7675615 C45.1169771,46.9530788 50.1701752,47.5144712 55.1086008,46.9930868 C55.9844628,46.9005883 56.2890268,45.7137907 55.2361971,45.8248529 C50.4029263,46.3350351 45.4385326,45.7829245 40.7418347,44.5842845 C36.3333506,43.4586192 31.8450386,41.729633 28.4166094,38.658298 C27.8863474,38.1833229 26.5517158,38.9639592 27.2281685,39.5698405" id="Fill-16" fill="#333333"></path>
                <path d="M19.1059268,19.2832187 C23.5772473,25.0309295 31.0300894,27.8871814 37.8561707,29.7003444 C44.8547315,31.5589566 52.1841449,32.4932236 59.4250745,32.5108282 C59.7742011,32.5117873 61.1844928,31.8511751 60.4211592,31.8495747 C53.2658281,31.8319712 46.0383635,30.9165879 39.1228365,29.0797402 C32.3454854,27.2796997 25.0003628,24.4509734 20.5617429,18.7451909 C20.3238623,18.4395297 18.8488107,18.9525925 19.1059268,19.2832187" id="Fill-17" fill="#333333"></path>
                <path d="M18.7834095,3.74698794 C25.3664808,8.2717339 32.9472398,11.3049812 40.6132767,13.4503708 C48.3293261,15.6098432 56.3816784,16.9278671 64.4099862,16.8401695 C64.7350682,16.8366488 66.1572219,16.208363 65.4160093,16.2163646 C57.4726588,16.303102 49.5216142,14.9937198 41.8869955,12.8566519 C34.2802684,10.7272656 26.7754902,7.71290201 20.2430727,3.22304303 C19.8897784,2.98043446 18.574703,3.60359923 18.7834095,3.74698794" id="Fill-18" fill="#333333"></path>
                <path d="M13.4506537,1.11830161 C10.5771723,21.0371698 19.3335484,40.9221113 31.948911,55.9609624 C38.4194539,63.6745069 45.3420339,70.9703677 51.5211571,78.9345223 C57.8679509,87.1144001 63.6424848,95.839027 67.6803627,105.402862 C71.6598924,114.827469 73.678671,124.825311 72.6893188,135.05872 C71.7467733,144.805631 68.4193312,154.173907 63.725198,162.7305 C58.9124452,171.502817 52.7297954,179.488095 45.7963152,186.687937 C42.7083566,189.894659 39.4934428,192.915424 36.6962627,196.39164 C33.9442862,199.811845 31.5023239,203.477539 29.3412017,207.296223 C20.5540486,222.824132 15.6242791,241.426257 17.2698866,259.298635 C17.4593575,261.356648 17.7527008,263.401857 18.1406191,265.431063 C18.3605464,266.583294 21.4696643,265.821541 21.2372338,264.602097 C17.8540084,246.897432 21.9822936,227.819052 29.9080114,211.842734 C33.8022632,203.992842 38.7836483,196.685139 45.0708116,190.55047 C52.1068819,183.685096 58.5126648,176.111419 63.7421895,167.777911 C74.1159609,151.246281 79.3759419,131.449357 73.5908284,112.326488 C67.6720272,92.7612907 54.1423313,76.6150179 40.8376922,61.5563227 C34.0779738,53.9051908 27.7202799,46.2290939 23.1925349,37.0016463 C18.7760359,28.0020844 15.9150576,18.0167251 16.0000149,7.93822712 C16.0202123,5.5367863 16.2144921,3.14558752 16.5575274,0.76943176 C16.7453953,-0.534829384 13.6147977,-0.0201663361 13.4506537,1.11830161" id="Fill-19" fill="#78B517"></path>
                <path d="M68.5870017,9.29369852 C69.0916162,28.3903221 62.1623037,46.7331948 50.1660075,61.4955106 C44.2311767,68.7987328 36.8075087,74.6600664 31.0134185,82.0887538 C25.553387,89.0882353 21.2096628,96.9490092 18.4115208,105.377897 C12.6366663,122.77402 13.1047331,142.183346 20.3354037,159.074728 C23.9555479,167.531782 29.0574763,175.324382 35.2603234,182.116782 C38.3495644,185.499859 41.7119513,188.643849 45.2872124,191.509702 C48.9083184,194.412044 52.4428641,197.273737 55.5446082,200.747712 C67.1949838,213.796725 71.3242308,230.919513 72.7861381,247.924518 C72.987471,250.269308 73.139753,252.617618 73.2631816,254.967848 C73.3474977,256.57201 76.4694393,256.080071 76.3982675,254.72492 C75.5089405,237.790969 73.0435749,220.284744 63.4078102,205.87866 C61.0097693,202.292982 58.2119479,198.981278 55.100586,195.99252 C51.7991119,192.820685 48.0597068,190.194879 44.6264688,187.177635 C37.6131607,181.014161 31.6126082,173.653007 27.0303622,165.522419 C17.7696922,149.089049 15.343439,129.690285 19.7535261,111.38902 C21.8601474,102.64615 25.6393061,94.3023993 30.7332196,86.8897151 C33.325861,83.1167997 36.2503168,79.57241 39.4171415,76.2667881 C42.696174,72.8440228 46.2752822,69.7397213 49.4607014,66.2228571 C61.9468647,52.4364167 70.3505877,34.9161087 71.5922471,16.2451704 C71.7515822,13.8498108 71.7855652,11.4502903 71.7224082,9.05076988 C71.6797692,7.44724882 68.5510952,7.92958539 68.5870017,9.29369852" id="Fill-20" fill="#78B517"></path>
                <path d="M114.469033,177.776713 C115.318344,194.678977 123.095627,235.163883 127.772448,252.337882 C128.813095,256.159447 130.453894,259.762728 133.571027,258.546485 C135.158927,257.926841 135.585638,256.130001 136.092817,254.601375 C140.951735,239.958443 142.051051,217.958518 154.559977,180.769312 C155.607356,177.655088 114.324824,174.901257 114.469033,177.776713" id="Fill-21" fill="#FFFFFF"></path>
                <path d="M118.375847,212.203766 C119.870134,220.545276 121.500353,228.864062 123.308822,237.143479 C124.081453,240.681468 124.886143,244.212735 125.754311,247.728639 C126.473403,250.640262 127.027388,253.851145 128.468457,256.509597 C129.53924,258.485673 131.208892,259.634703 133.473566,258.911358 C136.031904,258.097755 136.567296,255.481231 137.275166,253.188932 C138.903462,247.915236 139.964627,242.476067 141.034448,237.068264 C142.707627,228.608971 144.367982,220.151597 146.371051,211.762398 C146.476847,211.317829 144.941203,211.552115 144.834446,211.999245 C141.924096,224.188566 140.057599,236.614093 137.024783,248.768847 C136.475606,250.969928 135.854616,253.151485 135.135203,255.303275 C134.634115,256.802136 133.671052,259.301836 131.638167,258.045585 C130.419591,257.293114 129.767182,255.72608 129.283086,254.449345 C128.305596,251.870908 127.736542,249.101074 127.085095,246.426938 C126.321762,243.293511 125.605555,240.148881 124.915958,236.998811 C123.083765,228.630415 121.434631,220.221691 119.924314,211.789603 C119.850257,211.37736 118.291851,211.735192 118.375847,212.203766" id="Fill-22" fill="#333333"></path>
                <path d="M184.505353,180.284735 C183.622117,183.203399 180.26518,204.726429 179.892651,206.646493 C176.33919,224.949998 171.580297,236.405412 168.551969,253.743923 C167.699189,258.626501 165.097571,260.409258 162.463894,258.802536 C161.121889,257.984772 150.593591,233.030336 143.232439,182.215041 C141.8401,172.603517 184.505353,180.284735 184.505353,180.284735" id="Fill-23" fill="#FFFFFF"></path>
                <path d="M178.041863,211.981001 C176.256156,220.182964 174.213654,228.323794 172.14903,236.459503 C171.270603,239.920676 170.38865,243.381208 169.556068,246.853584 C168.858777,249.760406 168.479194,252.895113 167.487918,255.714238 C166.902834,257.377931 164.848149,260.393255 163.162788,258.008777 C162.409714,256.943604 161.984606,255.491473 161.509807,254.292833 C159.450634,249.092752 157.733534,243.750242 156.11678,238.399091 C153.454249,229.587086 151.175469,220.657619 149.330131,211.639173 C149.225297,211.12579 147.670097,211.506986 147.781984,212.053656 C150.778574,226.699788 154.599089,241.559404 160.254041,255.436742 C160.682675,256.488473 161.103935,258.030542 161.908626,258.888953 C163.034871,260.089194 165.220679,259.903557 166.507542,259.116199 C168.998556,257.592694 169.398657,254.234902 169.957131,251.645903 C170.686802,248.263786 171.517781,244.904073 172.358698,241.548201 C174.841376,231.642538 177.415744,221.76088 179.588407,211.780641 C179.709912,211.221489 178.154071,211.464418 178.041863,211.981001" id="Fill-24" fill="#333333"></path>
                <path d="M128.878176,105.986339 C129.606565,101.977856 130.814562,97.9239244 131.484923,93.9285644 C131.556416,93.5028792 131.629832,93.0787943 131.706454,92.6566298 C133.005179,85.4846338 133.90733,77.7301211 136.719898,70.966847 C138.914683,65.6364997 142.690315,60.024176 148.555577,57.5507207 C150.716699,56.6394983 153.148402,56.2503003 155.550291,56.6814267 C165.098854,58.3944097 168.064346,69.6865906 168.232016,77.0118973 C168.393595,84.0641894 165.87437,90.7720924 165.905788,97.8093415 C165.921497,101.381257 166.583844,105.038949 168.31537,108.324087 C170.157502,111.819827 171.591197,115.552414 173.101835,119.191863 C177.177863,129.012389 180.322887,139.211871 182.088397,149.704852 C183.019401,155.23876 183.575952,160.83156 183.804214,166.438763 C184.002021,171.298616 187.266306,182.678814 179.426187,182.587825 C160.489037,182.363231 141.562466,181.239486 122.732394,179.220842 C124.192378,167.916819 124.891914,156.510375 125.737961,145.114173 C126.599396,133.51313 128.346632,121.612187 128.346632,109.983619 C128.445054,108.658874 128.634845,107.325167 128.878176,105.986339" id="Fill-25" fill="#FFFFFF"></path>
                <path d="M137.837167,89.1135203 C138.056133,89.3250827 138.212262,89.6189015 138.443731,89.8256629 C139.239124,90.5355651 140.536566,89.9968972 141.535536,90.370412 C142.135367,90.5947769 142.586443,91.1734528 142.656973,91.8091001 C142.868886,93.7246836 140.273038,96.1299652 138.430266,95.2453081 C136.868974,94.4960381 135.582111,91.2166614 136.211757,89.6227423 C136.421425,89.0920761 137.053957,88.6846345 137.571716,88.9256427 C137.672382,88.9723721 137.758942,89.0376652 137.837167,89.1135203" id="Fill-26" fill="#333333"></path>
                <path d="M150.521778,72.2675874 C151.092114,72.4327405 151.673351,72.5991738 152.267411,72.5870113 C154.206682,72.5463632 155.555099,70.7152766 156.585167,69.074308 C157.982635,70.9332402 158.786363,73.2300201 158.852406,75.5530452 C158.821308,74.4603464 172.925829,76.5436436 174.582016,76.2299808 C176.987751,64.3402401 169.166867,53.6523402 157.939355,50.8367364 C149.633734,48.7540794 141.193142,51.738357 136.320759,58.6946298 C135.310889,60.1361984 131.834691,65.2645852 132.561798,67.0995126 C133.145599,68.5718074 137.836526,68.6028536 139.411603,69.0528637 C143.118628,70.1119558 146.8186,71.1960128 150.521778,72.2675874" id="Fill-27" fill="#C0DB93"></path>
                <path d="M130.002819,105.919445 C133.281531,93.5864159 132.751269,79.9606477 138.612042,68.3685667 C141.402811,62.8481014 146.589376,56.6702244 153.388207,56.8401785 C158.355485,56.9646834 162.276026,60.3852083 164.464078,64.6119746 C166.4088,68.3679266 167.309989,72.6964733 167.448806,76.9027555 C167.665527,83.4509466 165.498313,89.7581294 165.173873,96.263752 C165.007484,99.5994599 165.340261,102.986378 166.487024,106.139649 C167.657191,109.356613 169.434563,112.38538 170.748997,115.557535 C173.192242,121.454076 175.554697,127.3695 177.420873,133.477923 C181.658481,147.34726 183.393854,161.722938 183.1159,176.201998 C183.11045,176.473092 184.65507,176.258329 184.664047,175.787835 C184.926292,162.135821 183.424952,148.548781 179.661502,135.403109 C177.786991,128.855238 175.333808,122.537813 172.749823,116.243112 C171.364537,112.867717 169.582677,109.645631 168.240993,106.265755 C166.930726,102.966534 166.544411,99.3757351 166.72202,95.8495891 C167.063773,89.0725521 169.364353,82.5102782 168.959123,75.6775501 C168.697197,71.2600257 167.621606,66.6827892 165.271654,62.8887495 C162.779358,58.8645838 158.670629,56.1293161 153.831588,56.1773272 C148.412592,56.2323768 143.525462,59.4695049 140.261818,63.6047329 C135.88379,69.1517635 133.96151,76.0993946 132.658938,82.9231609 C131.187092,90.6315843 130.490121,98.5925383 128.472625,106.180618 C128.37837,106.536209 129.894458,106.327527 130.002819,105.919445" id="Fill-28" fill="#333333"></path>
                <path d="M115.865277,173.247486 C115.597581,163.449364 115.825203,153.627878 117.725041,143.983387 C119.741255,133.748057 123.445074,123.940654 127.422039,114.326569 C127.598045,113.900883 126.076187,114.068917 125.879984,114.543252 C121.846273,124.294644 118.095327,134.245757 116.097708,144.637918 C114.258782,154.205593 114.051679,163.950264 114.31681,173.661649 C114.328351,174.082533 115.880345,173.799276 115.865277,173.247486" id="Fill-29" fill="#5D7183"></path>
                <path d="M131.237104,110.88716 C137.348262,118.052435 147.503388,116.893803 154.925774,112.589901 C155.831451,112.064676 155.008167,111.204023 154.233292,111.653393 C150.098594,114.050993 145.382981,115.643312 140.569267,114.725048 C137.527153,114.144452 134.665534,112.559495 132.652526,110.199342 C132.187024,109.653633 130.718384,110.279038 131.237104,110.88716" id="Fill-30" fill="#333333"></path>
                <path d="M132.495435,121.087282 C135.685663,123.138893 137.340247,118.92717 139.891211,117.854315 C139.546252,117.837672 139.201614,117.821348 138.856976,117.804705 C139.994763,119.254595 140.685642,121.517128 142.384148,122.446914 C143.107728,122.843154 143.868176,122.734332 144.636319,122.52341 C146.4512,122.02507 148.241395,121.398705 150.038643,120.837952 C150.956183,120.551495 150.741385,119.673879 149.80461,119.966418 C148.603987,120.340893 147.403684,120.715368 146.20306,121.089843 C144.922609,121.489603 143.87555,122.084922 142.837788,120.962777 C141.799064,119.839672 141.226484,118.369938 140.287786,117.173539 C140.067217,116.892522 139.517399,117.013187 139.253871,117.123929 C138.353003,117.502885 137.617881,118.114847 136.90456,118.771939 C135.97035,119.632591 135.037102,121.140413 133.714332,120.289683 C133.240815,119.985302 131.830203,120.659357 132.495435,121.087282" id="Fill-31" fill="#333333"></path>
                <path d="M129.237882,106.050031 C130.934143,111.473517 130.939594,119.410146 131.044107,125.090964 C131.156956,131.232994 129.335343,153.475207 128.592527,158.452524 C126.093499,175.204358 125.50521,192.239449 126.843047,209.123469 C123.249833,209.308786 119.656618,209.494103 116.063725,209.679421 C115.706583,209.697984 115.318665,209.707906 115.027886,209.500185 C114.68453,209.255016 114.5922,208.793803 114.528081,208.3774 C110.644729,183.133305 112.470831,155.597232 120.340124,131.228833 C121.570883,127.41751 128.169984,107.310764 129.237882,106.050031" id="Fill-32" fill="#78B517"></path>
                <path d="M128.463648,106.257113 C130.384325,112.630869 130.335595,119.740773 130.258973,126.348496 C130.201587,131.324852 129.801806,136.30729 129.428635,141.267963 C129.048732,146.319854 128.646066,151.376547 128.072203,156.411155 C127.221348,163.874409 126.150244,171.26757 125.722572,178.778513 C125.142618,188.959112 125.277588,199.164995 126.068813,209.330551 C126.34773,209.065538 126.626967,208.800845 126.905883,208.535832 C124.369667,208.666738 121.833129,208.797644 119.296912,208.92855 C118.322307,208.9788 116.025895,209.548514 115.384066,208.591843 C115.162856,208.262497 115.189786,207.43065 115.133362,207.046573 C115.023077,206.295703 114.918243,205.543872 114.818218,204.791082 C114.194984,200.093821 113.772441,195.370636 113.546102,190.637528 C113.092142,181.143787 113.406644,171.610358 114.494418,162.167828 C115.590528,152.656163 117.466643,143.219074 120.233687,134.049238 C121.674435,129.275162 123.297281,124.549415 124.897364,119.82687 C125.880945,116.924529 126.874465,114.024428 127.922486,111.144491 C128.458519,109.671236 128.969225,107.481358 129.88997,106.29392 C130.495251,105.513284 129.037511,105.223306 128.585474,105.806143 C127.717627,106.925727 127.310473,108.579498 126.827017,109.880238 C125.836703,112.545092 124.909546,115.23331 123.990725,117.923129 C122.338064,122.760897 120.689892,127.606348 119.16611,132.486365 C113.2207,151.525377 110.967567,171.715659 112.018153,191.609883 C112.30316,197.008083 112.832781,202.394442 113.626892,207.742073 C113.743588,208.52911 113.769556,209.515548 114.509807,209.997564 C115.271538,210.493023 116.435293,210.244654 117.268836,210.201445 C120.439188,210.037892 123.609539,209.87434 126.780211,209.710787 C127.223271,209.688062 127.653508,209.383361 127.617281,208.916388 C126.891136,199.585559 126.739175,190.213763 127.179991,180.865011 C127.558292,172.839404 128.605351,164.941823 129.565849,156.976068 C130.757496,147.090249 131.578537,137.031915 131.815135,127.076641 C131.980241,120.135412 132.029292,112.538371 130.012116,105.84295 C129.790586,105.107763 128.24308,105.525446 128.463648,106.257113" id="Fill-33" fill="#333333"></path>
                <path d="M152.015104,119.934731 C155.449945,114.206865 161.549561,108.063555 167.547228,105.222666 C167.547228,105.222666 174.428451,119.084321 177.477939,130.01771 C179.589689,137.589786 181.368985,145.259482 182.535946,153.029038 C184.554724,166.47333 185.300425,180.135265 185.007082,193.722946 C184.922766,197.619406 185.949628,205.459376 183.889492,209.02905 C183.756125,209.260457 183.663794,209.620209 183.331018,209.62917 C174.593236,209.860897 165.849364,209.880741 157.11062,209.689663 C152.867242,209.596844 147.927854,210.086222 143.773601,209.202845 C140.359599,208.47694 140.095109,206.574479 140.028746,203.361035 C139.754959,190.065573 140.628897,176.769151 142.038548,163.554025 C143.368691,151.085929 144.047709,138.10893 148.825196,126.347856 C149.719653,124.145815 150.783703,121.988583 152.015104,119.934731" id="Fill-34" fill="#78B517"></path>
                <path d="M152.755996,120.02595 C156.351454,114.131009 161.635159,108.728968 167.891545,105.683238 C167.540816,105.64355 167.189766,105.604182 166.839036,105.564494 C171.89512,115.766217 175.882664,126.37154 178.59617,137.427514 C182.813259,154.609514 184.406289,172.349386 184.27677,190.016283 C184.253046,193.265254 184.306905,196.485739 184.383848,199.733109 C184.421037,201.311345 184.423922,202.895342 184.284464,204.469097 C184.174821,205.702944 184.075437,207.613407 183.30505,208.647534 C182.750744,209.391043 181.40425,209.108106 180.521335,209.12699 C179.455361,209.149394 178.389707,209.168918 177.323733,209.185242 C175.085348,209.219488 172.846963,209.239973 170.608257,209.246374 C166.130524,209.259496 161.655036,209.189402 157.177945,209.118988 C153.161867,209.055936 149.080709,209.468818 145.094447,208.82997 C143.520332,208.57776 141.892678,208.202965 141.239628,206.592402 C140.675063,205.199484 140.813239,203.501864 140.790797,202.03725 C140.656468,193.174036 141.023869,184.308581 141.710901,175.472892 C142.45019,165.963788 143.3408,156.403793 144.598168,146.94782 C145.840148,137.60739 147.916954,128.222471 152.755996,120.02595 C153.195209,119.282121 151.623018,119.253315 151.274212,119.843833 C146.842003,127.351256 144.689858,135.902409 143.397865,144.453881 C142.062272,153.293731 141.306312,162.268968 140.510919,171.17123 C139.665834,180.629124 139.153204,190.122225 139.196485,199.619806 C139.208026,202.095502 138.576136,206.222728 140.448403,208.27978 C142.404666,210.429011 146.594505,210.260977 149.200932,210.304186 C158.410628,210.457176 167.657512,210.467098 176.869131,210.331711 C178.041542,210.314428 179.213954,210.293303 180.386365,210.268338 C181.348146,210.248174 182.544922,210.410447 183.474644,210.163998 C184.546709,209.879781 184.934307,208.62993 185.23823,207.684141 C186.198408,204.694422 186.020799,201.373437 185.912118,198.278098 C185.615248,189.833207 185.915645,181.397278 185.404618,172.951107 C184.86025,163.953145 183.867371,154.953583 182.14963,146.09965 C180.368412,136.919252 178.009804,127.832953 174.563742,119.12945 C172.653003,114.304164 170.561129,109.532329 168.25574,104.880837 C168.088069,104.54253 167.452973,104.640469 167.203231,104.762094 C160.600924,107.975857 155.066194,113.626268 151.274212,119.843833 C150.826342,120.57838 152.400137,120.609747 152.755996,120.02595" id="Fill-35" fill="#333333"></path>
                <path d="M123.997457,118.001544 C119.252029,126.397145 108.898776,128.664799 100.071869,126.160938 C90.1805912,123.355256 81.1241394,114.541332 77.8540836,104.860033 C76.8557547,101.904241 76.5547172,98.9788556 76.5906237,95.8780748 C76.6210801,93.242027 74.7863223,91.4653512 72.5402428,90.3665712 C72.0314605,90.1175614 70.6307866,90.8325845 71.323269,91.1715324 C72.6982955,91.8443071 74.0444685,92.7772939 74.6859765,94.2227033 C75.2258563,95.4405472 74.9680989,96.788017 75.0017613,98.0788354 C75.0780626,101.007422 75.7179676,103.8928 76.7977273,106.613024 C78.9017838,111.913605 82.5414842,116.551334 86.8893762,120.209026 C94.2582227,126.408348 103.769597,129.813509 113.334831,127.248836 C118.459521,125.874481 122.83274,122.729531 125.454556,118.091162 C125.841512,117.406865 124.281183,117.500004 123.997457,118.001544" id="Fill-36" fill="#333333"></path>
                <path d="M165.590965,121.118969 C166.683869,137.721653 160.402797,154.108614 147.149453,164.52798 C142.810858,167.938903 137.94649,170.584233 132.817952,172.606078 C131.805197,173.005518 132.742613,173.363989 133.393418,173.107298 C141.997512,169.714939 149.905597,164.564467 155.856137,157.427999 C161.256859,150.950542 164.835005,143.10225 166.368405,134.825713 C167.230481,130.172301 167.449767,125.42351 167.139112,120.704806 C167.113144,120.309847 165.556982,120.603985 165.590965,121.118969" id="Fill-37" fill="#333333"></path>
                <path d="M143.289825,158.887811 C143.345288,152.398832 146.361754,145.804871 149.118219,140.069643 C152.52613,132.979903 156.635821,126.030992 161.775579,120.046434 C163.8386,117.644033 166.175728,115.137291 169.076139,113.747253 C170.031188,113.289561 169.177447,112.501563 168.400648,112.873798 C162.631244,115.638831 158.431466,121.804866 155.003037,126.954377 C150.468239,133.765341 146.559881,141.177705 143.886771,148.920695 C142.771105,152.152702 141.75354,155.570027 141.724024,159.015836 C141.717313,159.801914 143.284054,159.557385 143.289825,158.887811" id="Fill-38" fill="#333333"></path>
                <path d="M130.540134,146.802191 C131.073602,142.1523 130.323412,137.411511 129.38247,132.8618 C128.334128,127.794545 126.902677,122.817229 125.500401,117.839272 C125.329524,117.233071 123.781377,117.648194 123.951933,118.253435 C125.306441,123.061438 126.686918,127.86816 127.725,132.756819 C128.708902,137.389426 129.527699,142.224634 128.983972,146.966384 C128.905106,147.652281 130.472168,147.393669 130.540134,146.802191" id="Fill-39" fill="#333333"></path>
                <path d="M128.91825,180.883575 C132.029292,181.094817 135.140012,181.306059 138.251054,181.517302 C138.658528,181.545147 140.041249,180.834605 139.2263,180.779234 C136.115258,180.567992 133.004538,180.356749 129.893496,180.145187 C129.486022,180.117662 128.103301,180.828204 128.91825,180.883575" id="Fill-40" fill="#5D7183"></path>
            </g>
            <g id="Group">
                <path d="M117.264702,12.8698089 C117.264702,12.8698089 67.9626013,10.5796038 64.7027434,14.353152 C63.0837195,16.2270379 64.398,28.6737526 64.398,28.6737526 L117.264702,12.8698089" id="Fill-18" fill="#F2FFDB"></path>
                <path d="M117.560482,12.5128354 C109.162113,12.1237913 100.751794,11.9022939 92.3474493,11.8381526 C86.4088374,11.792894 80.4543908,11.8036841 74.524742,12.1762433 C72.3703258,12.3114197 70.1997762,12.4738711 68.0725479,12.8542232 C66.868214,13.0694263 65.35107,13.2921226 64.3579651,14.0792026 C62.6618591,15.4237727 63.1482534,19.2572661 63.1850019,21.1299531 C63.2354937,23.7120912 63.4072853,26.2993245 63.6764753,28.8676752 C63.7048582,29.1359298 64.3636417,29.0079469 64.4783686,28.9737781 C70.4259436,27.1958045 76.3735185,25.4178309 82.3210934,23.6398572 C91.8096669,20.8038514 101.295551,17.9675459 110.781436,15.13154 C112.971406,14.477838 115.158387,13.8238362 117.345369,13.1698345 C118.184907,12.9189639 118.041499,12.313218 117.184035,12.5697833 C111.238551,14.347757 105.29008,16.1257306 99.3416086,17.9037042 C89.855724,20.7397101 80.3674493,23.5757159 70.880071,26.4117217 C68.6927903,27.0657235 66.5052109,27.7197253 64.3179302,28.3734273 C64.5850288,28.4087949 64.8524262,28.4441626 65.1195248,28.47983 C64.9112835,26.492348 64.7708625,24.4946753 64.6842198,22.4982015 C64.6172958,20.9558124 64.5787547,19.4068293 64.6549405,17.8641404 C64.7027434,16.8966255 64.6513553,15.3395498 65.2497877,14.5087097 C65.8037036,13.7393135 67.2168763,13.6407037 68.0886814,13.4938381 C70.1421139,13.1476547 72.2272159,12.9914976 74.3039524,12.8677108 C85.5456966,12.1969244 96.8707971,12.5323176 108.119413,12.8919886 C111.068253,12.9864022 114.020081,13.0901074 116.968922,13.2267824 C117.449938,13.2489621 118.522515,12.5574946 117.560482,12.5128354" id="Fill-19" fill="#333333"></path>
                <path d="M117.264702,12.8698089 L72.2251246,18.3964535 L64.398,28.6737526 C64.398,28.6737526 91.0209193,22.4166761 117.264702,12.8698089" id="Fill-20" fill="#B5CF8A"></path>
                <path d="M117.264702,12.8698089 C117.264702,12.8698089 74.1763785,11.6652108 64.7027434,14.353152 C64.7027434,14.353152 55.6617245,5.85142881 43.0528178,0.440778087 C43.0528178,0.440778087 84.839409,3.36580248 117.264702,12.8698089" id="Fill-21" fill="#C0DB93"></path>
                <path d="M71.5615608,18.412339 C68.9527185,21.8382052 66.3435774,25.2637718 63.734735,28.689638 C63.4174434,29.106257 64.3188265,29.0112439 64.4783686,28.9737781 C69.1549844,27.8725854 73.8020222,26.6365161 78.4380055,25.3758692 C79.2871042,25.1447806 79.1383177,24.5414325 78.2775671,24.7755184 C73.6418825,26.0361653 68.994546,27.2722346 64.3179302,28.3734273 C64.5659077,28.4681407 64.8135864,28.562854 65.0615638,28.6575674 C67.6704061,25.2320008 70.2795472,21.8061346 72.8883896,18.380568 C73.2319728,17.9294807 71.8125259,18.0829403 71.5615608,18.412339" id="Fill-22" fill="#333333"></path>
                <path d="M62.8453027,11.8882068 C56.9915409,7.12856058 50.542932,3.07686678 43.6222697,0.0730144905 C43.3414277,0.342468014 43.0608846,0.611621811 42.7800426,0.881075334 C60.230485,2.10725371 77.7128955,4.55151788 94.8600883,7.9803814 C102.248621,9.45773002 109.592339,11.1760582 116.828501,13.287327 C117.064527,13.0013885 117.300554,12.7154501 117.536581,12.4295116 C103.354063,12.034473 89.0687691,11.8069811 74.8993971,12.6683931 C71.4829848,12.8764029 67.9142008,13.0364565 64.5969795,13.956315 C63.7299548,14.1966952 63.933117,14.9924672 64.8088061,14.7496893 C67.6444133,13.9632087 70.6873656,13.8070516 73.607823,13.6080336 C77.9844756,13.3098064 82.3727803,13.1881177 86.758396,13.1143852 C95.0722136,12.9750127 103.392903,13.0364565 111.707617,13.1923139 C113.470348,13.2255835 115.230092,13.2612508 116.992823,13.3101061 C117.378234,13.3208963 118.543429,12.6977663 117.700903,12.4522908 C95.3889077,5.94224574 72.0590095,2.60539805 48.9546812,0.473747928 C47.0799119,0.300806123 45.2036488,0.132360205 43.3252942,0.000480839099 C43.0587932,-0.0184018883 41.8272714,0.523502416 42.483366,0.808241957 C49.3242573,3.77762578 55.7226731,7.76727633 61.5104072,12.4732716 C61.9307738,12.8149591 63.2773212,12.2394855 62.8453027,11.8882068" id="Fill-23" fill="#333333"></path>
                <path d="M117.264702,12.8698089 L72.2251246,18.3964535 C72.2251246,18.3964535 83.96372,23.3949812 88.0078439,32.5255292 C88.0078439,32.5255292 106.177421,18.6641087 117.264702,12.8698089" id="Fill-24" fill="#C0DB93"></path>
                <path d="M117.378234,12.5290206 C104.214515,14.1442431 91.0507961,15.7594656 77.8876748,17.3746882 C76.0383008,17.6015806 74.1889267,17.8284731 72.3395527,18.0553655 C72.149835,18.0787441 71.1166952,18.489968 71.6425269,18.7153618 C77.9662508,21.4260822 84.3808001,26.35897 87.2863191,32.7194519 C87.4688663,33.1192861 88.3391776,32.7799965 88.5746068,32.6004607 C97.8208794,25.5512089 107.396394,18.4486058 117.697916,13.0310614 C118.549404,12.5826715 117.246776,12.4906557 116.831488,12.7085564 C106.437349,18.1749561 96.769216,25.3381038 87.4407822,32.4502981 C87.8704106,32.4107343 88.2997402,32.3711704 88.7290698,32.3316066 C85.7620047,25.8359484 79.2646966,20.8455133 72.8077222,18.0775452 C72.5752807,18.297544 72.3428392,18.5175428 72.1106964,18.7372418 C85.2744153,17.1220193 98.4393292,15.5067968 111.603048,13.8915743 C113.452422,13.6646818 115.301796,13.4377893 117.15117,13.2108969 C117.799497,13.1311698 118.38807,12.4049341 117.378234,12.5290206" id="Fill-25" fill="#333333"></path>
                <path d="M1.44309727,96.5442695 C2.04481606,86.1293963 6.43551084,76.0220417 14.0959228,68.8834716 C20.7151282,62.715114 29.685638,58.699687 38.8222627,59.722951 C41.5948299,60.033467 45.4435595,60.8556149 46.6263821,63.7812388 C48.2250897,67.7358214 44.3706835,72.8110789 40.5993349,73.6137447 C35.1306851,74.7775801 31.0737142,70.1977694 29.7675004,65.3425106 C28.4296172,60.3706585 29.4248135,54.95761 31.2302686,50.2384268 C35.8546,38.1513831 47.6663935,28.2592318 60.9382664,28.513699 C61.2289677,28.5193938 62.5659546,27.968198 61.8826721,27.95501 C49.4975427,27.7176272 37.866205,35.2946962 31.9018991,46.0140909 C29.1439715,50.9703572 27.318499,56.904629 27.7938389,62.6266949 C28.2309365,67.8874827 31.2508836,73.6868778 37.0036618,74.2821333 C41.6832652,74.7664902 46.1316222,72.2649784 47.8313135,67.8359298 C49.2286515,64.194261 47.5603309,61.3414705 44.0226188,60.0676357 C35.8462345,57.1228294 26.0146753,60.0250746 18.9350684,64.354914 C7.60518763,71.2845752 0.761607425,83.7555677 0,96.9321147 C-0.00951282765,97.1008603 1.41979337,96.9488993 1.44309727,96.5442695" id="Fill-26" fill="#333333"></path>
            </g>
        </g>
    </g>
</svg>