<?xml version="1.0" encoding="UTF-8"?>
<svg width="87px" height="138px" viewBox="0 0 87 138" version="1.1" xmlns="http://www.w3.org/2000/svg" xmlns:xlink="http://www.w3.org/1999/xlink">
    <title>Group 39 Copy</title>
    <defs>
        <polygon id="path-1" points="-1.78976809e-16 0 41 0 41 51 -1.78976809e-16 51"></polygon>
    </defs>
    <g id="Page-1" stroke="none" stroke-width="1" fill="none" fill-rule="evenodd">
        <g id="Group-39-Copy" transform="translate(0.000000, 0.177377)">
            <g id="Group-Copy" transform="translate(0.000000, 50.822623)">
                <rect id="Rectangle" fill="#78B517" fill-rule="nonzero" x="0" y="0" width="86.3753713" height="86.5064815" rx="19.2"></rect>
                <g id="Group-2" transform="translate(14.395895, 18.262479)" fill="#FFFFFF">
                    <polygon id="Fill-3" points="28.1165414 7.999991 28.1194937 8.00303224 14.2833233 16.0029388 14.2833233 15.999982 14.280371 15.999982 0.450105097 8.00303224 14.2833233 0"></polygon>
                    <polygon id="Fill-4" points="28.1195106 42.0764992 14.7304845 49.8180689 14.7304845 34.3350139"></polygon>
                    <polygon id="Fill-5" points="0 41.8181117 0 8.78133714 43.3000411 33.8181207 43.3000411 49.8180182 13.8361704 32.7812257 13.8361704 49.8180182"></polygon>
                    <polygon id="Fill-6" points="43.3000411 15.7414847 29.9169196 8.00295621 43.3000411 0.261470909"></polygon>
                    <polygon id="Fill-7" points="58.0334526 8.26142812 58.0334526 41.8180864 44.1972822 49.8180774 44.1972822 33.2982117 15.1805559 16.5198403 29.0167263 8.51993381 29.0197629 8.51993381 44.1972822 17.2982297 44.1972822 0.261437117"></polygon>
                </g>
            </g>
            <g id="Group-32" transform="translate(41.500000, 31.322623) scale(-1, 1) rotate(-338.000000) translate(-41.500000, -31.322623) translate(21.000000, 5.822623)">
                <path d="M36.0913783,25.5755804 C34.6284159,23.7470619 32.8023325,22.9605637 30.5800805,23.0319186 C30.1871361,23.0426816 29.7567108,23.0861323 29.7289024,22.5527646 C29.700288,22.0488956 30.0988747,21.9600009 30.5006856,21.9356845 C30.6417426,21.9233269 30.7860237,21.9269146 30.9290958,21.9496365 C32.8942211,22.2545889 34.6723451,23.0303241 36.2727373,24.168813 C37.0324299,24.7057684 36.9602893,25.0178962 36.0913783,25.5755804 M35.9732934,28.054664 C35.7742016,27.9255077 35.5025661,27.8210665 35.3510306,27.6257375 C34.429324,26.4437978 33.2113978,25.9905548 31.7274783,26.058322 C31.2656175,26.0794494 30.7969053,25.9068424 30.0178677,25.7657271 C30.4515172,25.3714815 30.5413906,25.2287717 30.6626996,25.1920977 C32.2244019,24.6934109 35.1801502,25.6349763 36.1070961,26.9074051 C36.3783285,27.2825165 36.5266398,27.6520471 35.9732934,28.054664 M33.985196,30.9937673 C33.3875175,29.9286264 32.5629387,29.2908174 31.2619903,29.3203161 C31.0399263,29.3235051 30.812623,28.9731088 30.5869319,28.7833607 C30.831968,28.5425878 31.0451656,28.1467476 31.3220403,28.094527 C33.1142699,27.7756226 34.7658457,29.3848942 34.6352672,31.5602214 C34.3007607,31.2795854 34.0803088,31.1715565 33.985196,30.9937673 M32.6330641,34.0269474 C31.8931195,33.0299723 31.0117149,32.3467195 29.6950487,32.2837359 C29.3089556,32.2646016 28.9885548,31.9995123 29.1292087,31.5044131 C31.6533226,31.0547578 33.1811713,32.2191577 33.9799568,34.3215354 C33.3556789,34.6372509 32.9204174,34.4140177 32.6330641,34.0269474 M28.8402434,35.2264269 C29.1662866,34.4000657 29.6229082,34.4263753 30.0073892,34.6320687 C31.3325188,35.3396379 32.2421348,36.4243118 32.9716009,37.9825587 C30.9061237,37.707105 30.407185,35.7582001 28.8402434,35.2264269 M30.3580165,41.3035502 C29.8768107,40.46523 29.5894575,39.7887539 29.1433144,39.239441 C28.7382794,38.7375651 28.1619609,38.3748112 27.5026202,37.8155325 C28.9023085,37.1111523 29.4467884,37.9235614 29.9259792,38.5442292 C30.4636078,39.2446232 30.9907579,40.0538433 30.3580165,41.3035502 M27.5888665,42.5257515 C27.0230265,41.7970548 26.5385965,41.0001923 25.9904894,40.1810064 C26.0960806,40.037898 26.1718484,39.8114759 26.3112933,39.7676265 C26.5103851,39.706636 26.8803574,39.692684 26.9492739,39.802706 C27.4200011,40.5489425 27.8746076,41.3087324 28.2377286,42.1091826 C28.3767705,42.4105473 27.7847342,42.7784833 27.5888665,42.5257515 M35.8338485,22.6954744 C35.3191921,22.5962154 34.9476077,22.6085729 34.6848387,22.4515125 C34.2810127,22.2091451 33.963836,21.8344323 33.5974909,21.5330676 C32.4976494,20.6349529 31.3063225,20.0039206 29.7974158,20.2478826 C29.5753518,20.2845566 29.3266885,20.147029 28.9796883,20.0649111 C30.831968,18.8183933 34.1859,20.0860385 35.8338485,22.6954744 M25.2501418,43.4374197 C24.9027386,42.8637903 24.5259149,42.3061061 24.2349345,41.7097547 C24.1607789,41.5495052 24.3723643,41.0647704 24.44652,41.0647704 C24.728634,41.0647704 25.2025854,41.1500774 25.2537689,41.3139146 C25.4617272,41.9521221 25.5391071,42.6337804 25.6624312,43.2963045 C25.5254044,43.3417483 25.3875716,43.3919758 25.2501418,43.4374197 M14.3702153,31.328617 C13.57546,31.9576561 12.8335003,32.6568541 11.6595032,32.7664775 C9.35785628,32.9777517 7.98476733,32.2769592 6.88331382,30.2582939 C5.35707729,27.4567181 5.836268,24.843296 7.39071593,22.2529944 C7.91786602,21.3692304 8.76541696,20.917582 9.60289241,20.5356939 C11.5011163,19.6726586 13.4468966,19.053984 15.3979162,20.5165596 C16.3143835,21.2034001 16.9821876,21.9843174 17.0353862,23.1822023 C17.0688369,23.9822539 17.1780553,24.7787178 17.2659136,25.7151011 C17.1022875,27.8995967 16.2172557,29.8728181 14.3702153,31.328617 M34.1983936,17.4781973 C32.4799166,16.4477372 30.6397275,15.9020119 28.5952073,16.3516672 C27.9451361,16.4947756 27.2821683,16.5836702 26.6300821,16.7108334 C24.5609777,17.1190311 22.7510151,17.952169 21.4129889,19.6555175 C20.9886089,20.1940674 20.4332474,20.6297707 19.7775339,21.2643906 C19.294716,20.6090419 19.0005115,20.1872907 18.688574,19.7826807 C17.3436965,18.0478404 15.7449164,16.6865169 13.4662416,16.3588426 C12.8089161,16.2627726 12.1193489,16.3309384 11.474517,16.1826478 C9.87936409,15.8218872 8.52602311,16.3903344 7.33792032,17.2932327 C6.01964208,18.2937954 4.76625005,19.4023871 3.60313449,20.5775501 C2.31467972,21.8866529 1.53604519,23.4732026 1.24667687,25.3280308 C0.795697551,28.2216902 0.898064617,31.0336304 1.79679909,33.8511513 C2.73261141,36.8042067 3.86066423,39.6285044 5.93863507,42.0099236 C8.04642938,44.4260235 10.5878732,46.1656474 13.6810512,47.124354 C15.859777,47.7992356 17.7894365,47.650945 19.4128009,45.8638841 C19.9258453,45.3026122 20.4598467,45.3428739 20.9620096,45.9687239 C21.4327368,46.5511232 22.0529845,46.6886508 22.7050708,46.8301646 C24.790296,47.2865966 26.790484,47.2778268 28.8757092,46.5144492 C30.3930793,45.9583595 31.8084853,45.3077944 32.9276717,44.2287014 C36.8454286,40.4528725 39.1881835,35.8470947 39.8402698,30.458805 C40.0075231,29.0655911 40.0587066,27.6241429 39.884199,26.2345167 C39.6036971,23.9997937 38.4442087,22.0979271 37.1912197,20.2359237 C36.4013006,19.0591662 35.3844813,18.1857665 34.1983936,17.4781973" id="Fill-1" fill="#F9685F"></path>
                <path d="M9.77727914,9.3768677 C10.2476034,9.13808798 10.6901193,8.91126718 11.2172694,8.64298879 C10.9722333,8.41457347 10.7465421,8.20688693 10.5772737,8.04504291 C9.78936973,8.14270741 9.35048101,9.43108146 8.35300665,8.40580359 C8.79713463,7.99441683 9.20096061,7.62488627 9.63461008,7.22226938 C9.40005247,6.73753459 9.20096061,6.37159171 8.5541136,6.6817263 C7.95482295,6.96754444 7.32006653,7.19277072 6.68772824,7.39288327 C6.18193821,7.55672044 5.75352801,7.45746143 5.58788681,6.85074567 C6.24158516,6.01242555 7.5739691,6.75666886 8.17849901,5.58150589 C7.09639046,4.22377011 5.69871729,3.16181822 4.1793321,2.06558411 C3.29994258,3.13590724 3.48331666,4.15759743 3.57157803,5.11949304 C3.72311352,6.76543873 4.22527638,8.28382263 5.66365456,9.30351967 C7.90565451,10.8988393 10.3463433,12.0229775 13.1312111,12.2968367 C13.633777,12.3458683 14.1411791,12.4538972 14.705004,11.9065774 C13.7425924,10.9841462 12.8370066,10.1195165 11.9680956,9.29116213 C10.461204,10.1490151 10.461204,10.1490151 9.77727914,9.3768677" id="Fill-3" fill="#6CCB99"></path>
                <path d="M14.2468912,5.34455986 C12.5126964,2.17345355 9.71372289,0.763098532 6.09379775,0.930523379 C5.79919017,0.944475449 5.51385205,1.12385921 4.93592144,1.33154575 C6.02850852,2.27988791 6.93248225,3.06598743 8.05368374,4.04223374 C8.1681414,3.39366177 8.13106357,2.99981475 8.31081046,2.77857478 C8.46597314,2.58484031 8.87141121,2.53421423 9.16037651,2.53939643 C9.23453218,2.53939643 9.3683348,2.98068049 9.35785628,3.21587253 C9.35060192,3.49132627 9.17287012,3.75482109 9.12491075,4.02828167 C8.98788397,4.91922103 9.30667275,5.37605168 10.2848022,5.75235896 C10.524599,5.10059795 10.7148244,4.41893964 11.0356283,3.79827182 C11.1255018,3.6272593 11.5962291,3.57703184 11.87794,3.6117127 C11.9750678,3.62367162 12.1564268,4.18693664 12.0633292,4.28460113 C11.3052487,5.0934226 11.6631304,6.14819913 11.3475657,7.07381935 C11.7018203,7.3911293 12.0367299,7.69289265 12.4546615,8.06082868 C12.5727464,7.76424753 12.687204,7.59881583 12.6976826,7.42979646 C12.7206547,6.91356985 12.687204,6.39574872 12.706549,5.87473855 C12.7222668,5.41950242 12.8790415,4.95748957 13.4045795,4.97861699 C14.0248272,5.0061225 13.9510746,5.51916006 13.8555589,5.94768794 C13.6423613,6.9063945 13.4098188,7.86191202 13.1893669,8.81703091 C13.2881068,8.73531164 13.3868467,8.65319373 13.4855866,8.57147446 C14.1481513,9.41696994 14.807492,10.2604723 15.4684447,11.1059677 C15.5812903,11.0661047 15.6921208,11.0294307 15.8049663,10.989169 C15.8368049,10.4558012 16.0234031,9.87180744 15.8686435,9.40301787 C15.4104098,8.02056699 14.9433097,6.61539418 14.2468912,5.34455986" id="Fill-5" fill="#6CCB99"></path>
                <path d="M13.404378,20.86867 C11.8321972,20.5828519 10.4873197,21.1285771 9.20611927,21.8465108 C8.65640007,22.1586386 8.16270063,22.7007762 7.84028468,23.2552713 C6.37933738,25.7447193 6.69127481,28.7272734 8.60682861,30.8906416 C9.39110542,31.7748042 10.4401663,32.1531046 11.5694282,31.7624467 C14.3454296,30.8105168 16.0941331,28.6244267 16.1856187,25.2372626 C16.0800274,24.7230291 15.9002806,23.7065211 15.6604837,22.7059584 C15.383609,21.5451461 14.5501637,21.0831332 13.404378,20.86867" id="Fill-7" fill="#FEF2DC"></path>
                <g id="Group-11">
                    <mask id="mask-2" fill="white">
                        <use xlink:href="#path-1"></use>
                    </mask>
                    <g id="Clip-10"></g>
                    <path d="M4.07051672,0.189827885 C6.24158516,0.140796323 8.42353514,-0.359485063 10.5772737,0.494780284 C12.2429552,1.15730432 13.55277,2.24516719 14.5252571,3.64675233 C16.058748,5.85357126 17.1428716,8.31352061 17.0703281,11.0329785 C17.0300261,12.5585377 17.4459426,13.7596117 18.3728885,14.8909253 C18.6920803,15.2795901 18.9141443,15.7467852 19.2982223,16.3762229 C19.5521249,15.4366506 19.7423503,14.7147306 19.9434572,13.9912161 C20.5903043,11.6675984 21.3161432,9.34916288 22.8020777,7.39985931 C23.3580149,6.67366827 23.9755402,5.99420651 24.6072781,5.3253253 L25.5596224,4.32542033 L25.5596224,4.32542033 L26.0326856,3.82294705 C26.2212989,3.62403039 26.4876951,3.47733433 26.7411947,3.35535337 C27.7459234,2.86025419 28.1952906,3.10979693 28.3822919,4.23234067 C28.426221,4.5077944 28.4842559,4.78843033 28.5793686,5.05152652 C28.8368984,5.74036017 28.5761445,6.24223608 28.0312615,6.6504338 C27.7229512,6.87685598 27.4235074,7.12281105 27.091822,7.29860714 C25.7066425,8.03806688 24.6084131,9.04221732 23.9547148,10.4768888 C23.1494809,12.235647 22.3156326,13.977264 21.5611793,15.7591427 C21.2581083,16.4738874 21.1944312,17.2739389 21.3516089,18.2274633 C22.2185048,17.678549 22.8971904,17.1535525 23.6516438,16.7999672 C25.7912766,15.8009989 28.1038051,15.424293 30.4247969,15.1364817 C30.9696799,15.0687145 31.5758219,15.1875064 32.102972,15.3756601 C34.709302,16.2992872 36.8598164,17.7012709 38.4827777,20.0930544 C41.0403423,23.8652957 41.5304145,27.8157248 40.4869959,32.0990105 C40.3987345,32.4617643 40.3282061,32.8328894 40.2721863,33.2040144 C39.8808539,35.8210242 38.9958221,38.2215776 37.2878236,40.3012334 C36.4193156,41.3647798 35.6032002,42.4769592 34.7749942,43.5700042 C33.59737,45.1142991 32.0288163,46.2547812 30.3192057,47.0532383 C28.930399,47.7014116 27.314289,47.8776063 25.7824102,48.2000985 C25.2854866,48.3065329 24.7462459,48.2156451 24.141716,48.2156451 L24.141716,48.2156451 L21.4922272,47.4685291 C21.1227031,47.3643288 20.7309958,47.3686916 20.3638842,47.4810963 L20.3638842,47.4810963 L18.3853821,48.0868874 C17.6220624,48.2646766 16.9365254,48.3794822 16.2844392,48.5907565 C15.6109928,48.8088074 14.9996116,48.7577827 14.3281804,48.5680345 C12.1462304,47.9629133 10.1085615,47.0616095 8.25789394,45.7680533 C7.63925833,45.3359377 7.05044619,44.828481 6.54828334,44.2723913 C4.60089096,42.1193875 2.87717466,39.8216808 1.79143893,37.102223 C0.046765588,32.7268536 -0.62506866,28.2865075 0.6915975,23.6735544 C0.755274651,23.4487267 0.791949466,23.2063593 0.904795051,23.0078413 C2.47697586,20.2656615 4.27807199,17.7690381 7.24994106,16.2853351 C8.41829588,15.6997468 9.52861583,15.1819256 10.8682541,15.1364817 C12.865218,15.06712 14.7211248,15.5219575 16.4992488,16.3726352 C16.9260469,16.5731464 17.3242306,16.8258782 17.9271485,17.1607279 C17.5462946,15.7974112 16.8482641,14.8263471 16.3162777,13.9828448 C12.9022958,13.5674717 9.72448352,13.0795479 6.89729861,11.3327487 C6.73528459,11.2314965 6.58334607,11.1146977 6.41246562,11.0293908 C3.36361973,9.49864935 2.52815939,6.83659429 2.65148349,3.72169488 C2.66820882,3.30054167 2.7365207,2.88297613 2.81652016,2.46546042 L2.9802806,1.62944718 L2.9802806,1.62944718 L3.0516823,1.20952493 C3.14518292,0.609984524 3.50104954,0.203381325 4.07051672,0.189827885 Z M11.4743961,16.182887 C9.8796462,15.8217277 8.52590221,16.3901749 7.33779941,17.2930732 C6.01952117,18.293636 4.76653216,19.4026263 3.6034166,20.5773906 C2.31496184,21.8868921 1.53592428,23.4730432 1.24695898,25.3278713 C0.795576646,28.2219294 0.897943711,31.0338695 1.79667819,33.8509919 C2.7324905,36.8040473 3.86054333,39.628345 5.93851416,42.0097641 C8.04630847,44.4258641 10.5881553,46.1658866 13.6813333,47.1245932 C15.8596561,47.7990761 17.7893156,47.6507855 19.41268,45.8641232 C19.9257244,45.3028514 20.4597258,45.3427144 20.9618886,45.9685645 C21.4326159,46.5509637 22.0528636,46.6888899 22.7053529,46.8300052 C24.7901751,47.2864372 26.7907661,47.2780659 28.8755883,46.5142897 C30.3929584,45.9582001 31.8083644,45.3080336 32.9275508,44.2289406 C36.8457107,40.4531117 39.1880626,35.8469352 39.8401489,30.4586456 C40.0078052,29.0658303 40.0585857,27.6239835 39.8840781,26.2343573 C39.6039792,23.9996342 38.4444908,22.0977677 37.1910988,20.2357642 C36.4015827,19.0590067 35.3847634,18.1860057 34.1982727,17.4780378 C32.4801987,16.4475777 30.6400096,15.9022511 28.5954894,16.3519064 C27.9450152,16.4946161 27.2824504,16.5835108 26.6303642,16.7110726 C24.5612598,17.1188716 22.7508942,17.9520096 21.413271,19.6553581 C20.988488,20.193908 20.4335295,20.6300098 19.777816,21.2646297 C19.2945951,20.6088824 19.0003906,20.1871313 18.6884531,19.7825212 C17.3435756,18.0480795 15.7451985,16.6863575 13.4661207,16.3586831 C12.8087952,16.2630118 12.1196311,16.330779 11.4743961,16.182887 Z M4.17973512,2.0653848 C3.29994258,3.13570792 3.48331666,4.15739811 3.57157803,5.11969235 C3.72311352,6.76523941 4.22527638,8.28362332 5.66365456,9.30371899 C7.90565451,10.89864 10.3463433,12.0231769 13.1312111,12.2966374 C13.633777,12.345669 14.1411791,12.4536979 14.705004,11.9063781 C13.7429954,10.9843455 12.8370066,10.1193172 11.9680956,9.29136144 C10.461204,10.1492145 10.461204,10.1492145 9.77727914,9.37666839 C10.2480064,9.13788866 10.6901193,8.91146649 11.2172694,8.64318811 C10.9722333,8.41437415 10.7465421,8.20708624 10.5772737,8.0448436 C9.78977275,8.14250809 9.35048101,9.43088215 8.35300665,8.40560428 C8.79713463,7.99461614 9.20096061,7.62468696 9.63461008,7.22207007 C9.40005247,6.73733527 9.20096061,6.37139239 8.5541136,6.68152699 C7.95482295,6.96774375 7.32006653,7.1925714 6.68772824,7.39308259 C6.18193821,7.55691976 5.75352801,7.45766074 5.58788681,6.85054636 C6.24158516,6.01222623 7.57437212,6.75646954 8.17849901,5.5817052 C7.09639046,4.22357079 5.69871729,3.16201754 4.17973512,2.0653848 Z M14.2467703,5.34452 C12.5125755,2.17341368 9.71360198,0.763058669 6.09367684,0.930483515 C5.79947228,0.944435586 5.51373114,1.12381935 4.93580054,1.33150589 C6.02838761,2.27984805 6.93276437,3.06594757 8.05356283,4.04219388 C8.1680205,3.39362191 8.13134568,2.99977489 8.31109258,2.77853492 C8.46585224,2.58480045 8.8712903,2.534573 9.1602556,2.53975519 C9.23441127,2.53975519 9.36821389,2.98064062 9.35773537,3.21583267 C9.35048101,3.4912864 9.17274922,3.75478122 9.12519287,4.0282418 C8.98776306,4.91918117 9.30655184,5.37601182 10.2846812,5.75231909 C10.5244781,5.10055808 10.7147035,4.41889978 11.0355074,3.79823196 C11.1253809,3.62761807 11.5961081,3.57699198 11.8782221,3.61167284 C11.9749469,3.62403039 12.1567089,4.18729541 12.0632083,4.28456127 C11.3055308,5.09378136 11.6630095,6.14815926 11.3478479,7.07377949 C11.7021024,7.39108943 12.0366089,7.69285279 12.4545406,8.06078882 C12.5726255,7.76420766 12.6870831,7.59877597 12.6975617,7.4297566 C12.7205338,6.91352999 12.6870831,6.39570886 12.7064281,5.87469868 C12.7225489,5.41946255 12.8793237,4.9574497 13.4044586,4.97857712 C14.0247063,5.00648126 13.9509537,5.5191202 13.855438,5.94764808 C13.6426434,6.90675327 13.4096979,7.86187216 13.189649,8.81738967 L13.189649,8.81738967 L13.4854656,8.5714346 C14.1484335,9.41693008 14.8073711,10.260831 15.4683238,11.1059279 C15.5811694,11.0660648 15.6919998,11.0293908 15.8048454,10.9895277 C15.836684,10.45616 16.0236853,9.87176757 15.8685226,9.402978 C15.4102889,8.02052713 14.9431888,6.61535431 14.2467703,5.34452 Z" id="Combined-Shape" fill="#574440" mask="url(#mask-2)"></path>
                </g>
                <path d="M11.5696297,31.7624865 C10.4399648,32.1531445 9.39130693,31.7748441 8.60703012,30.8906814 C6.6910733,28.7273132 6.37913587,25.7447592 7.84008317,23.2553112 C8.16290214,22.700816 8.65619856,22.1586784 9.20632078,21.8465507 C10.4875212,21.1282184 11.8323987,20.5824931 13.4045795,20.8687098 C14.5499622,21.0831731 15.3838105,21.5451859 15.6602822,22.7059982 C15.900079,23.706561 16.0798259,24.723069 16.1858202,25.2373024 C16.0939316,28.6244665 14.3456311,30.8105567 11.5696297,31.7624865 M15.3979162,20.5163204 C13.4468966,19.0537448 11.5011163,19.6728181 9.60289241,20.5358533 C8.76541696,20.9173428 7.91786602,21.3689912 7.39071593,22.2527552 C5.836268,24.8434554 5.35707729,27.4564789 6.88331382,30.2580547 C7.98476733,32.27672 9.35785628,32.9775125 11.6595032,32.766637 C12.8335003,32.6570136 13.57546,31.9578155 14.3702153,31.3283778 C16.2172557,29.8725789 17.1022875,27.8993575 17.2659136,25.7148619 C17.1780553,24.7788773 17.0688369,23.9820147 17.0353862,23.1819631 C16.9821876,21.9844769 16.3143835,21.2035595 15.3979162,20.5163204" id="Fill-12" fill="#574440"></path>
                <path d="M36.2727776,24.1686934 C34.6723854,23.0302045 32.8942614,22.254868 30.9291361,21.949517 C30.786064,21.926795 30.6417829,21.9232073 30.5007259,21.9355649 C30.098915,21.9598813 29.7003283,22.048776 29.7289427,22.552645 C29.7567511,23.0860128 30.1871764,23.042562 30.5797178,23.0321976 C32.8023728,22.9608428 34.6284562,23.7469423 36.0914186,25.5754608 C36.9603296,25.0177766 37.0324702,24.7056488 36.2727776,24.1686934" id="Fill-14" fill="#574440"></path>
                <path d="M30.6627399,25.1920977 C30.5414309,25.2287717 30.4515575,25.3714815 30.017908,25.7657271 C30.7969456,25.9068424 31.2656578,26.0794494 31.7275186,26.058322 C33.2114381,25.9905548 34.4293643,26.4437978 35.3510709,27.6257375 C35.5026064,27.8210665 35.7742419,27.9255077 35.9733337,28.054664 C36.5266801,27.6516485 36.3783688,27.2821179 36.1071364,26.9074051 C35.1801905,25.6349763 32.2244422,24.6934109 30.6627399,25.1920977" id="Fill-16" fill="#574440"></path>
                <path d="M29.1294102,31.5045327 C28.9883533,31.9996319 29.3091571,32.2647212 29.6952502,32.2838555 C31.0119164,32.3464405 31.892918,33.0300919 32.6332656,34.027067 C32.9206189,34.4141373 33.3558804,34.6373704 33.9797553,34.321655 C33.1813728,32.2192773 31.6535242,31.0548774 29.1294102,31.5045327" id="Fill-18" fill="#574440"></path>
                <path d="M31.3220403,28.0945669 C31.0451656,28.1467875 30.831968,28.5426277 30.5869319,28.7834006 C30.812623,28.9731487 31.0399263,29.323545 31.2619903,29.320356 C32.5629387,29.2904587 33.3875175,29.9286662 33.985196,30.9938072 C34.0803088,31.1715964 34.3007607,31.2796253 34.6352672,31.5602612 C34.7658457,29.3845355 33.1142699,27.7756624 31.3220403,28.0945669" id="Fill-20" fill="#574440"></path>
                <path d="M33.59737,21.532948 C33.9641181,21.8343127 34.2812948,22.2094241 34.6851208,22.4513929 C34.9474868,22.6084533 35.3194742,22.5964944 35.8341306,22.6957534 C34.1861821,20.085919 30.8322501,18.8182737 28.9795674,20.0651902 C29.3269706,20.1469094 29.5752309,20.284437 29.7972949,20.2481616 C31.3062016,20.0038011 32.4975285,20.6348333 33.59737,21.532948" id="Fill-22" fill="#574440"></path>
                <path d="M30.0072683,34.6319491 C29.6231903,34.4262557 29.1665687,34.4003447 28.8405255,35.2267059 C30.4070641,35.7580805 30.9060028,37.707384 32.97148,37.9828378 C32.2420139,36.4241922 31.3323979,35.339917 30.0072683,34.6319491" id="Fill-24" fill="#574440"></path>
                <path d="M27.5027411,37.8153731 C28.1616788,38.3746518 28.7379973,38.7374056 29.1434353,39.2396802 C29.5895784,39.7885945 29.8769316,40.4650706 30.3577344,41.3037893 C30.9908788,40.0536838 30.4637287,39.2448624 29.9261001,38.5440698 C29.4465063,37.923402 28.9020264,37.1109928 27.5027411,37.8153731" id="Fill-26" fill="#574440"></path>
                <path d="M26.3112127,39.767786 C26.1721708,39.8112367 26.096403,40.0380575 25.9904088,40.1807672 C26.5385159,41.0003517 27.0233489,41.7968156 27.5891889,42.5255124 C27.7846536,42.7782441 28.3766899,42.4107067 28.237648,42.1089434 C27.874527,41.3088918 27.4199205,40.5487033 26.9491932,39.8024668 C26.8802768,39.6928434 26.5103045,39.7067955 26.3112127,39.767786" id="Fill-28" fill="#574440"></path>
                <path d="M24.4464797,41.0648502 C24.372324,41.0648502 24.1611416,41.5491863 24.2348942,41.7098345 C24.5258746,42.3061858 24.9031013,42.86387 25.2501015,43.4374994 C25.3875313,43.3920555 25.5253641,43.3414294 25.6623909,43.2963842 C25.5394698,42.6338602 25.4616869,41.9522018 25.2537286,41.3139943 C25.2025451,41.1501571 24.7285937,41.0648502 24.4464797,41.0648502" id="Fill-30" fill="#574440"></path>
            </g>
        </g>
    </g>
</svg>