<?xml version="1.0" encoding="UTF-8"?>
<svg width="279px" height="373px" viewBox="0 0 279 373" version="1.1" xmlns="http://www.w3.org/2000/svg" xmlns:xlink="http://www.w3.org/1999/xlink">
    <title>Group 40 Copy</title>
    <g id="Page-1" stroke="none" stroke-width="1" fill="none" fill-rule="evenodd">
        <g id="Group-40-Copy">
            <g id="Group" transform="translate(185.500000, 256.000000) scale(-1, 1) translate(-185.500000, -256.000000) translate(92.000000, 139.000000)">
                <path d="M89.8036256,201.71782 C79.3633834,197.937628 103.625562,182.949968 109.290314,117.619194 C115.483155,123.97955 122.129061,129.994289 128.548434,136.177166 C131.62479,139.140311 141.886772,146.030186 139.556896,149.947283 C135.068714,157.493364 119.231837,173.286395 107.040407,186.916689 C100.716415,193.986962 93.4566345,203.04045 89.8036256,201.71782" id="Fill-4" fill="#78B517"></path>
                <path d="M138.901437,149.925973 C136.210098,154.396525 132.550692,158.335515 129.088737,162.202696 C124.264974,167.591002 119.294067,172.844448 114.377249,178.14635 C109.408087,183.504591 104.647427,189.051986 99.685535,194.414605 C97.6505282,196.614123 95.5213027,198.966015 92.9707104,200.576757 C91.6775302,201.393512 90.5605737,201.686294 89.2592511,200.853192 C86.5318535,199.107298 88.656717,194.993456 89.5989036,192.807659 C92.4158672,186.273618 95.5593973,179.916765 98.0692778,173.246112 C103.220189,159.557437 106.50243,145.24233 108.515627,130.766382 C108.594724,130.197748 107.178536,130.441198 107.109617,130.936272 C105.201689,144.654721 102.160811,158.231304 97.4554025,171.266984 C94.8097192,178.597054 91.4294792,185.557571 88.3196817,192.685934 C87.2762972,195.077817 85.071755,199.344035 87.8715614,201.364321 C90.6324009,203.356585 93.6607749,201.36111 95.9042841,199.485609 C98.6494205,197.19093 101.040074,194.462478 103.409789,191.790656 C105.983355,188.889102 108.542962,185.977041 111.159565,183.114311 C116.936274,176.794822 122.844424,170.59735 128.595543,164.254216 C132.671082,159.759144 137.065045,155.196642 140.212356,149.968592 C140.557242,149.395871 139.148324,149.515553 138.901437,149.925973" id="Fill-5" fill="#333333"></path>
                <path d="M168.65825,126.931019 C165.27074,121.974151 163.253763,118.025236 161.984137,112.753692 C159.795007,103.666343 143.835703,108.011375 135.317056,107.531772 C129.831727,107.222643 124.346689,106.913806 118.861359,106.604969 C114.466233,106.357432 108.172485,106.628321 103.92363,105.848638 C102.247178,105.545639 103.798005,116.772081 104.034133,117.972693 C105.124918,123.514543 108.038717,128.638966 111.967694,132.650348 C116.119131,136.888542 121.470984,139.378507 126.650102,142.094991 C133.124146,145.490742 140.755858,147.43309 146.302255,152.411851 C152.855686,158.294356 152.12869,168.171313 148.111602,175.3998 C146.238279,178.771031 143.931376,181.918369 142.476512,185.491892 C141.216773,188.586103 138.903472,195.48853 142.541941,196.913327 C145.836686,198.203847 150.860809,193.33455 152.994978,191.434529 C163.613771,181.97967 174.389013,173.63464 178.757676,161.136944 C182.564517,150.245611 175.992766,137.663555 168.65825,126.931019" id="Fill-6" fill="#78B517"></path>
                <path d="M111.316887,132.930871 C116.08976,137.710552 122.558279,140.881535 128.622878,143.68384 C134.71016,146.496653 141.849259,148.537081 146.566009,153.588527 C150.82097,158.145192 151.228669,164.82431 149.489695,170.56524 C147.630912,176.70112 143.069449,181.521084 141.01903,187.59975 C140.008215,190.596465 138.29076,197.401103 143.396307,197.54297 C145.720658,197.607481 147.93974,196.163419 149.722043,194.825902 C151.731169,193.318495 153.551857,191.56326 155.435649,189.904938 C160.621747,185.339516 165.939867,180.859332 170.518778,175.659597 C174.637645,170.982375 178.467169,165.441985 179.983101,159.296764 C181.819201,151.853142 179.200853,144.100682 175.85231,137.497752 C172.171966,130.24095 166.570608,124.004946 163.788541,116.307073 C163.603302,115.794777 162.209215,116.200819 162.383985,116.6848 C164.718514,123.144113 169.106079,128.41157 172.504058,134.298746 C175.901746,140.185629 178.919651,146.789144 179.156361,153.700328 C179.376204,160.119065 176.415877,166.106365 172.750946,171.196634 C168.903393,176.540863 164.033974,181.049363 159.13315,185.398773 C156.781173,187.485907 154.398371,189.538303 152.057735,191.638572 C150.20157,193.304192 148.298876,195.100294 146.013201,196.155245 C143.487908,197.320829 141.444177,196.220632 141.297615,193.4157 C141.178969,191.144374 141.91847,188.801822 142.684723,186.69338 C144.827616,180.797447 149.294279,176.078775 151.012897,170.000984 C152.4381,164.960339 152.264493,159.261443 149.277994,154.805487 C145.411248,149.036242 137.960122,146.574884 131.900757,143.947723 C128.525461,142.484103 125.254852,140.784038 122.020593,139.030554 C118.622323,137.188039 115.365963,135.120755 112.618501,132.369534 C112.257911,132.008445 110.926054,132.539424 111.316887,132.930871" id="Fill-7" fill="#333333"></path>
                <path d="M149.316379,134.357127 C150.476665,131.884385 151.35284,128.913942 150.701452,126.173813 C150.099499,123.64269 147.753048,122.839654 146.062055,121.172867 C145.753518,120.868992 144.438528,121.387126 144.749391,121.693628 C146.393856,123.314587 148.710646,124.085512 149.296896,126.551541 C149.936361,129.240877 149.059604,132.136884 147.920257,134.564965 C147.762935,134.900657 149.122999,134.769007 149.316379,134.357127" id="Fill-8" fill="#333333"></path>
                <path d="M159.804894,44.9317863 C159.816526,44.644842 159.828449,44.3578977 159.840081,44.0709533 C159.897659,42.6651304 159.955237,41.2593075 160.013106,39.8534846 C160.522584,27.4287658 160.73952,7.23728404 143.804297,6.33354075 C137.109537,5.97741452 132.130197,12.5199205 130.078906,18.2891655 C127.067107,26.7605912 130.595364,35.8409345 129.083212,44.6524316 C127.580948,53.4061312 122.557988,60.368399 117.839785,67.6362933 C105.481146,86.6727 99.2406135,99.2287769 104.736121,121.433248 C105.124627,123.002246 150.708722,122.815426 163.575967,113.364361 C157.048126,87.3732762 157.554406,85.0123344 158.072027,68.2262368 L159.804894,44.9317863" id="Fill-9" fill="#FFFFFF"></path>
                <path d="M133.761285,63.8727396 C140.614821,60.7887448 148.739145,58.1157547 155.834043,62.074594 C161.518569,65.2467446 163.587599,71.9509669 163.644014,78.1183727 C163.761496,91.008099 155.973626,103.556294 144.139878,108.709032 C136.916738,111.854328 128.630148,112.127844 121.174951,109.641966 C120.788771,109.513235 119.780573,110.085373 119.847747,110.10785 C133.004337,114.494624 148.36954,110.348965 157.238599,99.5676806 C161.811694,94.0086085 164.608301,86.9704449 165.002624,79.7644349 C165.374555,72.9635915 163.518098,65.1562535 157.161246,61.6090027 C149.483879,57.3249793 140.346995,60.4116012 132.964498,63.733792 C132.126998,64.1103517 133.448677,64.0134386 133.761285,63.8727396" id="Fill-10" fill="#333333"></path>
                <path d="M148.111311,70.6931408 C157.853928,65.9254278 166.118126,58.8355967 171.992834,49.6635947 C177.57878,40.9420049 180.863929,30.9853576 183.318558,20.9793781 C184.708864,15.3117166 185.844141,9.58567384 186.997447,3.866053 C187.067239,3.5201435 185.68333,3.74024119 185.609758,4.10483272 C181.670022,23.6427352 177.634904,44.7221973 163.025486,59.3808785 C158.452973,63.9687769 153.096176,67.6377528 147.293877,70.4771298 C146.460449,70.8852154 147.760317,70.8650738 148.111311,70.6931408" id="Fill-11" fill="#333333"></path>
                <path d="M123.200362,43.3163744 C121.155177,44.3926346 118.550205,44.9618527 116.795237,44.6007641 C115.480247,44.3301665 114.126872,43.8240002 112.834564,44.1888837 C111.392786,44.5958017 110.46921,45.9549195 109.367375,46.9733822 C106.320681,49.7894066 101.175295,49.9230998 97.9875635,47.2687918 C96.0174047,45.6282759 94.9516288,43.0486959 94.9428433,40.5029772 C94.938252,39.1739257 95.1973534,37.7354093 95.8504864,36.5636956 C96.5385153,35.3298057 97.7540524,34.6940329 98.5863173,33.5398336 C100.723685,30.5766882 98.4432445,27.7866434 97.7226462,24.848602 C96.8482156,21.283253 98.2498636,18.2518014 101.800802,17.0637409 C103.997784,16.3287197 106.375351,16.3284278 108.608101,15.711337 C112.424247,14.656386 113.229759,11.7580439 114.957683,8.63084686 C116.143267,6.48474845 118.32251,5.37871377 120.739626,5.17817384 C126.128992,4.7309727 129.471719,6.81431117 134.891037,4.21663301 C137.611455,2.91239365 140.205958,1.28413781 143.103182,0.447824971 C147.090318,-0.70316334 153.432048,0.428267219 156.699168,3.11030643 C162.106272,7.54904045 165.437658,19.2527496 157.66171,23.2562507 C156.717488,23.7422754 155.602567,23.969087 154.581283,23.6798074 C153.219475,23.2944905 152.261876,22.093878 151.474394,20.913991 C149.998302,18.7033811 148.498654,17.0418479 145.700593,16.8456866 C143.147093,16.6664558 140.532525,17.9747819 139.326002,20.1334323 C138.984605,20.7438093 138.756037,21.4222006 138.673451,22.1543027 C138.290469,25.5459672 138.099124,29.1988883 135.225455,31.5329747 C133.080817,33.2747822 129.936414,33.6965875 128.263452,35.8984401 C127.085718,37.4484649 126.905714,39.5688756 125.812312,41.1799089 C125.258051,41.9963721 124.311793,42.7313933 123.200362,43.3163744" id="Fill-12" fill="#C0DB93"></path>
                <path d="M124.232696,122.149003 C131.908318,121.715229 139.603424,120.952185 147.151677,119.45412 C152.91181,118.311013 159.255576,116.883005 164.114235,113.386838 C164.164543,113.350642 164.300637,113.264821 164.278245,113.175498 C161.433074,101.833169 158.439305,90.419615 158.497174,78.646432 C158.537304,70.4768379 159.195381,62.3761337 159.800823,54.2354383 C160.463552,45.3261524 161.34409,36.3053581 160.659841,27.3744711 C160.261738,22.1779472 159.280294,16.6165398 156.211499,12.2793893 C153.219184,8.05082815 148.065074,5.68492395 142.897878,6.05798078 C136.431396,6.52473967 131.764373,12.183352 129.583676,17.8807879 C126.377334,26.2576359 129.650851,35.1841443 128.53622,43.8035668 C128.235535,46.128604 127.612063,48.398179 126.825454,50.6014911 C126.73298,50.8609962 128.08083,50.7194215 128.211108,50.354538 C129.873893,45.6971658 130.358072,41.041837 130.078033,36.1182459 C129.786363,30.9941148 128.970673,25.7593511 130.063493,20.6740436 C130.941123,16.5914358 133.082271,12.5517383 136.126348,9.68433832 C137.820539,8.08848412 139.923593,6.79358579 142.290691,6.62953419 C144.113415,6.50343048 146.048969,6.85430239 147.77951,7.4214772 C160.053818,11.4422008 159.740337,28.3363039 159.359682,38.7842302 C159.018285,48.1626102 158.180495,57.5147187 157.484323,66.8723733 C156.767796,76.5076313 156.892839,86.146684 158.734175,95.6467892 C159.506244,99.6301487 160.42982,103.583734 161.384511,107.526518 C161.67211,108.713703 161.96349,109.900012 162.257778,111.085445 C162.406376,111.684438 162.691359,112.381219 162.732943,112.991888 C162.777435,113.643424 162.627674,113.646927 162.076902,113.99342 C160.609242,114.916429 159.010724,115.621968 157.390977,116.227966 C149.168654,119.30408 140.113775,120.350274 131.42472,121.108647 C129.232392,121.299846 127.036864,121.453097 124.839592,121.57745 C124.460972,121.598759 123.311447,122.201254 124.232696,122.149003" id="Fill-13" fill="#333333"></path>
                <path d="M154.653111,42.5597521 C154.683644,42.7051217 154.720576,42.8493236 154.764777,42.9917741 C155.141361,44.2037709 156.488339,45.3284876 157.634957,44.0820458 C158.077261,43.6009835 158.390742,39.8158287 157.850438,39.917996 C156.731737,40.1296284 155.612745,40.3415527 154.494044,40.5531851 C154.504222,41.2248625 154.515854,41.9052972 154.653111,42.5597521" id="Fill-14" fill="#333333"></path>
                <path d="M44.0732595,195.351334 C42.7245367,189.438179 35.4167743,186.800802 29.4597702,187.820724 C26.1757845,188.383228 22.9307658,189.810652 20.7768224,192.361917 C18.6228791,194.913182 17.7720031,198.704467 19.2169801,201.71782 C15.8067879,198.652799 9.82012236,199.751828 7.19712129,203.517425 C3.47315768,208.863406 3.33066649,215.069927 8.12825759,219.766123 C5.33950146,220.675996 2.73278509,222.499829 1.45966993,225.150926 C0.186554778,227.804359 0.534058801,231.318916 2.71562799,233.286368 C4.24755367,234.667086 134.051502,233.619141 141.570675,233.619141 C142.659133,231.33643 141.800696,228.213028 140.069283,226.374016 C138.337869,224.537922 135.446171,223.913242 133.116294,224.876534 C134.694457,219.543106 129.732856,212.126047 123.773234,213.545298 C127.187789,212.175671 128.55076,207.612293 127.184299,204.1856 C125.817547,200.758615 122.385545,198.506262 118.815413,197.621785 C115.245282,196.737307 111.503871,197.012575 107.83923,197.317326 C108.172485,191.440076 101.811562,187.026446 95.9473223,187.02878 C93.6683357,187.029948 91.3149046,187.534363 89.5000322,188.918001 C87.6851597,190.301639 86.257049,192.021262 85.903729,195.304045 L44.0732595,195.351334" id="Fill-15" fill="#FFFFFF"></path>
                <path d="M44.724357,197.512904 C56.0215819,178.680832 74.3663047,147.095646 84.8458047,125.012316 L98.5325196,125.759598 L111.967694,127.947147 C106.472187,146.740687 98.6912955,184.023601 94.3261215,200.604196 L44.724357,197.512904" id="Fill-16" fill="#FFFFFF"></path>
                <path d="M48.4582077,192.406871 C58.5931116,175.506638 68.4619351,158.424547 77.5403686,140.925905 C80.1130616,135.967577 82.6142182,130.972176 85.0124321,125.926568 C85.3102096,125.300428 83.90798,125.441127 83.7000592,125.878695 C75.0557876,144.064486 65.1939433,161.664128 55.0392651,179.035498 C52.4340027,183.492039 49.8005329,187.93194 47.145544,192.358706 C46.7986215,192.937557 48.2087027,192.822838 48.4582077,192.406871" id="Fill-17" fill="#333333"></path>
                <path d="M92.5673731,128.02567 C86.5696572,143.5446 79.6303363,158.680841 72.9608763,173.91487 C71.2911122,177.728048 69.6350156,181.547648 68.0263192,185.387097 C67.7480251,186.051185 69.1482192,185.920703 69.3439265,185.453944 C75.676642,170.339304 82.5860107,155.475413 88.9230883,140.362233 C90.6603176,136.2192 92.3571259,132.059237 93.9768727,127.868624 C94.1719984,127.363917 92.760754,127.525633 92.5673731,128.02567" id="Fill-18" fill="#333333"></path>
                <path d="M102.056996,128.850306 C96.7257895,144.376534 91.6251865,159.981285 86.4178605,175.549548 C85.1272975,179.407679 83.8303368,183.263768 82.5138927,187.113142 C82.3443573,187.609091 83.7535661,187.432488 83.9204843,186.94442 C89.0583095,171.922023 93.9707659,156.82227 99.0245504,141.771266 C100.491046,137.403758 101.967139,133.039168 103.463296,128.681584 C103.633413,128.18651 102.224495,128.36253 102.056996,128.850306" id="Fill-19" fill="#333333"></path>
                <path d="M142.712058,232.077874 C143.242474,226.490778 137.966229,222.574266 132.812119,224.488298 C133.150027,224.596304 133.487935,224.707228 133.825842,224.815234 C135.455767,218.755541 130.046045,211.752699 123.651099,213.088464 C123.793299,213.37103 123.9355,213.653303 124.077409,213.935577 C129.020109,211.757369 129.551688,205.240843 126.313649,201.37337 C121.821105,196.007249 114.208295,196.307329 107.90844,196.826631 C108.121886,196.969957 108.335332,197.113283 108.548778,197.256609 C108.736343,191.350168 103.132368,187.337034 97.7671383,186.641129 C91.8086802,185.86816 85.9866066,189.116206 85.1941811,195.36447 C85.1069416,196.051326 86.5365062,195.847576 86.613277,195.243329 C87.3533588,189.408988 92.7627896,186.588002 98.2827238,187.793576 C102.798531,188.780221 107.288458,192.37914 107.129682,197.378043 C107.118632,197.721909 107.482711,197.831666 107.77002,197.808021 C113.436226,197.34097 120.102196,196.95361 124.457774,201.360526 C127.613227,204.553111 128.26287,211.042489 123.469059,213.155019 C122.685067,213.500636 123.218973,214.143415 123.895079,214.002132 C129.613919,212.807358 133.736276,219.994394 132.406746,224.937835 C132.261347,225.477862 133.190157,225.352342 133.420469,225.267689 C137.841767,223.627173 141.698335,227.929879 141.292962,232.200474 C141.226951,232.892293 142.65448,232.682121 142.712058,232.077874" id="Fill-20" fill="#333333"></path>
                <path d="M44.7755375,195.16247 C43.1860337,188.838603 35.7162966,186.469487 29.9029469,187.300838 C26.4372122,187.796496 22.9115731,189.233552 20.4999824,191.85254 C18.0354664,194.529033 17.0112746,198.504219 18.5147021,201.906684 C18.9645671,201.744968 19.4141414,201.583543 19.8640064,201.422119 C16.0120915,198.152763 9.76312589,199.233694 6.75307221,203.165678 C2.74238144,208.405112 2.79588833,215.320967 7.48123127,220.061824 C7.65890906,219.821001 7.83658685,219.580178 8.01426464,219.339063 C2.92122242,221.090212 -1.85194162,226.012051 0.717843355,231.748019 C0.970547117,232.311399 2.35649203,231.891053 2.12210856,231.36854 C-0.126925838,226.350663 3.60023655,221.789036 8.24225054,220.193182 C8.43883022,220.12546 9.0922541,219.791519 8.77499311,219.470421 C4.97513113,215.625717 4.19433757,210.375774 6.66088914,205.559897 C7.79122231,203.35279 9.34641186,201.549682 11.7638185,200.77934 C14.0922409,200.037313 16.6873253,200.41504 18.5702446,202.013522 C18.8729656,202.2704 20.1809766,202.121527 19.9192581,201.528957 C18.5589034,198.450216 19.3149791,194.862974 21.5041091,192.359874 C23.7330784,189.810944 27.1781664,188.449199 30.4906503,188.136275 C35.7014659,187.644412 41.9763126,189.990759 43.3712723,195.540198 C43.517253,196.121676 44.9235538,195.751246 44.7755375,195.16247" id="Fill-21" fill="#333333"></path>
                <path d="M62.8800608,210.157136 C60.3463349,212.329798 59.7810229,216.551062 62.2039547,219.048908 C64.4750898,221.390292 68.3476513,221.460349 70.9305222,219.628635 C71.7069538,219.077807 70.5239861,218.789986 70.0386437,219.134145 C67.6729992,220.812316 64.1956326,220.010449 62.7622875,217.479033 C61.4609649,215.181435 62.040526,212.150859 64.0228983,210.450794 C64.6516044,209.911643 63.2679858,209.824363 62.8800608,210.157136" id="Fill-22" fill="#333333"></path>
                <path d="M38.5495449,220.149104 C35.3821693,220.955935 32.067359,218.875515 31.10976,215.815749 C30.6793785,214.44116 30.6738533,212.935213 31.1394215,211.568797 C31.3828197,210.855377 31.7538784,210.061391 32.302324,209.535959 C32.7876665,209.070951 34.2468926,208.477213 34.8953729,208.585218 C35.3850773,208.66666 35.7948122,209.041469 36.130975,209.37395 C36.3982187,209.638418 37.6879094,209.118824 37.4523627,208.885882 C36.1106192,207.558291 34.061654,207.675637 32.4791294,208.508155 C30.4717485,209.564274 29.4010289,211.810496 29.3844534,214.030739 C29.347522,219.040734 34.1945489,221.756635 38.6740066,220.615571 C39.4940579,220.406858 39.3797742,219.937764 38.5495449,220.149104" id="Fill-23" fill="#333333"></path>
                <path d="M56.9274187,196.765914 C58.1793056,194.486706 60.4864997,192.936681 63.1641708,193.441388 C65.135202,193.812986 66.7968238,195.047167 67.8518402,196.73614 C68.0594702,197.068621 69.357594,196.520713 69.2563962,196.358412 C66.0727359,191.260845 58.3627993,191.891071 55.544091,197.021916 C55.4574331,197.18013 56.7346194,197.116786 56.9274187,196.765914" id="Fill-24" fill="#333333"></path>
                <path d="M77.932074,224.100062 C79.8237172,227.127135 83.1591743,229.275569 86.8095659,228.948633 C89.9978789,228.662565 93.0291609,226.619217 93.9213302,223.44911 C94.0504447,222.991108 92.6482151,223.189313 92.5208454,223.641769 C91.6673522,226.67468 88.6971379,228.642131 85.5716373,228.140052 C82.8744827,227.705111 80.6577269,225.831069 79.2403757,223.562954 C79.0129714,223.200989 77.6447652,223.641769 77.932074,224.100062" id="Fill-25" fill="#333333"></path>
                <path d="M102.164591,211.230477 C104.016104,210.024611 106.718784,210.966594 107.559482,212.992427 C108.380406,214.97097 107.370172,217.426782 105.415426,218.240034 C104.522093,218.611923 105.319462,219.274844 106.014761,218.985564 C108.674403,217.878946 110.256346,214.448457 108.573786,211.861872 C106.999986,209.44284 103.522619,209.185963 101.25352,210.663886 C100.456732,211.182897 101.631558,211.577846 102.164591,211.230477" id="Fill-26" fill="#333333"></path>
                <path d="M86.1450917,120.381799 L86.1450917,120.381799 C91.7586629,122.5711 98.0774202,119.777844 100.258408,114.143168 L119.467383,64.5155182 C121.648371,58.8805503 118.866012,52.5377086 113.252441,50.348408 C107.63887,48.1591074 101.320113,50.952363 99.1391249,56.587039 L79.9301494,106.214689 C77.7491618,111.849657 80.5318112,118.192499 86.1450917,120.381799" id="Fill-27" fill="#FFFFFF"></path>
                <path d="M99.1525016,119.412961 C98.4409181,122.015602 93.1696165,122.832065 87.3795306,121.236502 C81.589154,119.640648 77.472031,116.237307 78.1839054,113.634375 C78.8957797,111.031734 84.1667905,110.215271 89.9571672,111.810834 C95.7475438,113.406396 99.864376,116.810028 99.1525016,119.412961" id="Fill-28" fill="#C0DB93"></path>
                <path d="M94.0353232,121.559351 C93.6049416,123.133604 90.4169194,123.627219 86.9148349,122.662175 C83.4127504,121.697131 80.922935,119.638605 81.3533165,118.064644 C81.7839889,116.490391 84.9717203,115.996484 88.4738048,116.961528 C91.9758893,117.926572 94.4659955,119.985098 94.0353232,121.559351" id="Fill-29" fill="#F8F8F8"></path>
                <path d="M94.9269109,126.22227 C94.3618897,128.288094 90.1784647,128.936127 85.5826877,127.669543 C80.9869106,126.403252 77.7195004,123.701947 78.2845216,121.636123 C78.849252,119.570299 83.0329678,118.922266 87.628454,120.188849 C92.2242311,121.455141 95.4919321,124.156446 94.9269109,126.22227" id="Fill-30" fill="#FFFFFF"></path>
                <path d="M90.5980867,122.863299 C90.3517805,123.764415 88.5270209,124.047273 86.5225479,123.494693 C84.5177841,122.942405 83.0925814,121.763978 83.3391784,120.862862 C83.5854846,119.962038 85.4102442,119.67918 87.4147172,120.231759 C89.419481,120.784047 90.8446837,121.962475 90.5980867,122.863299" id="Fill-31" fill="#C0DB93"></path>
                <path d="M98.6494205,121.25752 L98.6494205,121.25752 C104.262992,123.44682 110.581749,120.653565 112.762737,115.018889 L131.971712,65.3912385 C134.1527,59.7562706 131.370341,53.4134288 125.75677,51.2241282 C120.143199,49.0348276 113.824441,51.8280833 111.643454,57.4627593 L92.4344783,107.090409 C90.2534907,112.725377 93.03614,119.068219 98.6494205,121.25752" id="Fill-32" fill="#FFFFFF"></path>
                <path d="M111.65683,120.288681 C110.945247,122.891322 105.673945,123.707785 99.8838595,122.112223 C94.0934828,120.516368 89.9763599,117.113028 90.6882342,114.510095 C91.4001086,111.907455 96.6711194,111.090991 102.461496,112.686554 C108.251873,114.282116 112.368705,117.685749 111.65683,120.288681" id="Fill-33" fill="#C0DB93"></path>
                <path d="M106.539652,122.435072 C106.10927,124.009325 102.921248,124.502939 99.4191637,123.537895 C95.9170793,122.572852 92.8107713,120.794264 93.2411529,119.220011 C93.6718252,117.645758 97.4292307,117.063695 100.978134,117.837248 C106.036571,118.940364 106.970324,120.860818 106.539652,122.435072" id="Fill-34" fill="#F8F8F8"></path>
                <path d="M107.43124,127.09799 C106.866219,129.163814 102.682794,129.811847 98.0870165,128.545264 C93.4912395,127.278972 90.2238293,124.577667 90.7888504,122.511843 C91.3535808,120.446019 95.5372966,119.797986 100.132783,121.064569 C104.72856,122.330861 107.996261,125.032166 107.43124,127.09799" id="Fill-35" fill="#FFFFFF"></path>
                <path d="M102.094509,123.393109 C101.899964,124.30707 100.094397,124.694138 98.0617171,124.258029 C96.0287458,123.821921 94.5386951,122.727562 94.7332392,121.813894 C94.9277833,120.900226 96.7333502,120.512866 98.7660306,120.948974 C100.799002,121.385083 102.289053,122.479441 102.094509,123.393109" id="Fill-36" fill="#C0DB93"></path>
                <path d="M110.1124,121.25752 L110.1124,121.25752 C115.725972,123.44682 122.044729,120.653565 124.225717,115.018889 L143.434692,65.3912385 C145.61568,59.7562706 142.83303,53.4134288 137.21975,51.2241282 L137.219459,51.2241282 C131.606179,49.0348276 125.287421,51.8280833 123.106434,57.4627593 L103.897458,107.090409 C101.716471,112.725377 104.498829,119.068219 110.1124,121.25752" id="Fill-37" fill="#FFFFFF"></path>
                <path d="M123.11981,120.288681 C122.407936,122.891322 117.136925,123.707785 111.346549,122.112223 C105.556172,120.516368 101.43934,117.113028 102.151214,114.510095 C102.863089,111.907455 108.134099,111.090991 113.924476,112.686554 C119.714853,114.282116 123.831685,117.685749 123.11981,120.288681" id="Fill-38" fill="#C0DB93"></path>
                <path d="M118.002632,122.435072 C117.57196,124.009325 114.383937,124.502939 110.882144,123.537895 C107.380059,122.572852 104.889953,120.514325 105.320625,118.940364 C105.751007,117.366111 108.939029,116.872205 112.441114,117.837248 C115.943198,118.802292 118.433014,120.860818 118.002632,122.435072" id="Fill-39" fill="#FFFFFF"></path>
                <path d="M118.89422,127.09799 C118.329199,129.163814 114.145483,129.811847 109.549996,128.545264 C104.954219,127.278972 101.686518,124.577667 102.25154,122.511843 C102.816561,120.446019 106.999986,119.797986 111.595763,121.064569 C116.19154,122.330861 119.45895,125.032166 118.89422,127.09799" id="Fill-40" fill="#FFFFFF"></path>
                <path d="M114.565396,123.978383 C114.319089,124.879499 112.49433,125.162064 110.489566,124.609777 C108.485093,124.057197 107.05989,122.879062 107.306196,121.977946 C107.552793,121.076829 109.377553,120.794264 111.382026,121.346551 C113.386499,121.899131 114.811993,123.077266 114.565396,123.978383" id="Fill-41" fill="#C0DB93"></path>
                <path d="M125.795446,50.7296382 C119.651459,48.814438 113.142228,51.9585656 110.801302,57.9467407 C109.563373,61.1127613 108.346964,64.2875391 107.119795,67.4576464 C102.927937,78.2876786 98.7360784,89.1177109 94.5442203,99.9477432 C93.2577284,103.271685 91.2785549,106.984447 91.0092756,110.592415 C90.9752522,111.050125 92.3739922,110.762304 92.4030721,110.375528 C92.6214616,107.446244 94.060041,104.582639 95.1089507,101.872576 C96.903758,97.2353457 98.6985654,92.598407 100.493373,87.9614683 C104.139984,78.5407618 107.786305,69.1200553 111.432625,59.6993488 C111.733892,58.9208335 112.023236,58.1361881 112.337299,57.3623433 C114.355148,52.3867928 119.48425,49.7231437 124.657552,51.3359285 C125.020178,51.4488964 126.281079,50.8811378 125.795446,50.7296382" id="Fill-42" fill="#333333"></path>
                <path d="M94.0873761,118.838197 C92.5083411,117.661812 89.8071152,114.848123 92.414704,113.214613 C94.6814771,111.794487 98.0873073,112.28022 100.547461,112.763909 C101.0898,112.870455 102.20792,112.047278 101.377109,111.884102 C98.2580059,111.271098 94.0309612,110.788868 91.2704125,112.817328 C88.3528327,114.961383 90.8726004,118.023193 92.9913571,119.601825 C93.4383142,119.934598 94.6992158,119.294155 94.0873761,118.838197" id="Fill-43" fill="#333333"></path>
                <path d="M94.5224104,118.995826 C95.2139289,117.099308 98.8364038,117.865563 100.220895,118.187245 C100.764688,118.31364 101.881353,117.50068 101.050252,117.307438 C98.9445808,116.818202 94.207185,116.103322 93.1928804,118.88461 C92.9299987,119.605911 94.3301927,119.522718 94.5224104,118.995826" id="Fill-44" fill="#333333"></path>
                <path d="M91.7025388,122.026402 C93.676478,119.794483 98.4083487,121.066905 100.756836,121.822067 C101.298884,121.996336 102.410025,121.20702 101.586484,120.94226 C98.5008226,119.950361 93.0820862,118.813676 90.5460338,121.680785 C89.9717071,122.329985 91.3224654,122.456089 91.7025388,122.026402" id="Fill-45" fill="#333333"></path>
                <path d="M114.99694,50.5959449 C108.781998,47.5008576 100.988602,50.3551218 98.3909008,56.8480037 C97.1989184,59.826912 96.0738196,62.8344273 94.9155698,65.8264714 C90.6504304,76.8456593 86.3855819,87.8645553 82.1204426,98.8837431 C80.7993457,102.296717 78.7759708,106.09238 78.4995651,109.796969 C78.4831369,110.016191 79.8714082,109.85535 79.9039776,109.419242 C80.1261475,106.442376 81.6374265,103.47602 82.7032024,100.723048 C84.5497719,95.9518317 86.3963414,91.1809078 88.2432017,86.409692 C91.8648043,77.053205 95.4864069,67.6964261 99.1080095,58.3396471 C99.4936081,57.3433694 99.8416937,56.3038895 100.335179,55.3549006 C102.918049,50.3869397 108.726746,48.6197362 113.675843,51.0843049 C114.048065,51.2696657 115.185378,50.689647 114.99694,50.5959449" id="Fill-46" fill="#333333"></path>
                <path d="M81.5830472,117.962476 C79.7390949,116.588763 77.1983898,113.51732 80.4183998,112.081431 C83.1678982,110.855423 86.7642013,111.518051 89.5424887,112.250737 C90.0862816,112.394063 91.2017841,111.58986 90.3718456,111.37093 C86.9520571,110.468938 82.3385413,109.72983 79.1205668,111.712169 C75.8011037,113.756684 78.1655851,116.996265 80.4870283,118.726104 C80.9339853,119.058878 82.1948869,118.418435 81.5830472,117.962476" id="Fill-47" fill="#333333"></path>
                <path d="M82.0180815,118.120106 C82.8832066,115.798572 87.658697,117.221617 89.2444204,117.782954 C89.7835606,117.973861 90.8917931,117.192718 90.0737773,116.903147 C87.804387,116.099819 81.9037978,114.748291 80.6885515,118.00889 C80.4207262,118.727856 81.8220835,118.64583 82.0180815,118.120106" id="Fill-48" fill="#333333"></path>
                <path d="M82.5162191,125.867895 C80.9537596,124.998597 76.8075568,121.809515 80.2570068,120.428505 C83.0693176,119.302328 86.722908,120.308239 89.396508,121.374574 C89.9307045,121.587958 91.0342842,120.817616 90.2258648,120.495059 C86.9971308,119.206875 82.0806032,118.036037 78.885311,120.083471 C75.5167029,122.242121 79.2633488,125.431494 81.4202001,126.631523 C81.9029254,126.900077 83.1626638,126.227816 82.5162191,125.867895" id="Fill-49" fill="#333333"></path>
                <path d="M124.72967,115.471636 C127.791486,107.988023 130.57966,100.380349 133.498113,92.8398139 C136.952797,83.9144731 140.407481,74.9891324 143.862166,66.0637916 C146.055367,60.3978816 144.214322,53.9114218 138.514675,51.1637035 C132.352076,48.1926766 124.895134,51.2559461 122.380019,57.5620076 C119.079749,65.8363963 115.946978,74.1823021 112.73133,82.4902601 C109.581403,90.6283284 106.359066,98.7424603 103.280093,106.907968 C102.833427,108.092817 102.555424,109.282337 102.460914,110.549504 C102.410316,111.226436 103.834064,110.999041 103.877393,110.418146 C104.099272,107.443325 105.5774,104.527176 106.642013,101.776831 C108.471425,97.0502768 110.301129,92.3234309 112.130541,87.5965849 C115.754761,78.233384 119.37869,68.870475 123.00291,59.5072741 C123.257358,58.8496082 123.501629,58.1869799 123.766837,57.5336926 C125.336857,53.663301 128.934033,50.9255076 133.17678,50.9584931 C140.713401,51.0171663 145.190532,58.9091572 142.643721,65.6577493 C139.570273,73.80078 136.358987,81.8941865 133.217492,90.0109456 C130.046918,98.2021409 126.906296,106.405888 123.705769,114.585115 C123.604862,114.842869 123.503664,115.098871 123.398977,115.355457 C123.107888,116.066542 124.514479,115.997652 124.72967,115.471636" id="Fill-50" fill="#333333"></path>
                <path d="M105.550356,118.838197 C103.62847,117.406394 101.147378,114.268396 104.531399,112.893516 C107.414083,111.722094 111.138046,112.413621 114.001828,113.267448 C116.616687,114.047131 119.464766,115.279561 121.320932,117.366403 C121.926083,118.047129 122.551009,118.939488 122.487324,119.901905 C122.380892,121.512646 120.596262,122.031073 119.286216,122.297292 C118.410622,122.475355 118.654311,123.339107 119.517691,123.163671 C122.082242,122.642325 125.056237,120.831044 123.41119,117.868774 C121.613766,114.632696 117.174148,112.954232 113.814263,112.108286 C110.524171,111.279855 105.994696,110.672397 102.960797,112.662325 C99.7809169,114.747999 102.205012,117.925988 104.454337,119.601825 C104.901294,119.934598 106.162196,119.294155 105.550356,118.838197" id="Fill-51" fill="#333333"></path>
                <path d="M105.98539,118.995826 C106.816492,116.765367 111.461123,118.036037 112.997702,118.581319 C114.451403,119.09741 117.666178,120.477253 117.294538,122.501918 C117.176765,123.144113 118.605166,122.94153 118.710435,122.368225 C119.248994,119.433686 114.405166,117.751428 112.333227,117.263652 C110.249076,116.772956 105.661732,116.18564 104.65586,118.88461 C104.388035,119.603576 105.789392,119.52155 105.98539,118.995826" id="Fill-52" fill="#333333"></path>
                <path d="M102.959634,122.444704 C103.599681,120.612114 106.781596,120.814989 108.264959,120.956856 C110.656484,121.185419 113.090757,121.928613 115.167057,123.150535 C116.339556,123.840894 118.094815,125.016695 118.228001,126.541032 C118.431269,128.866653 114.495604,128.827537 113.041321,128.755728 C112.41436,128.724786 111.582968,129.647795 112.532424,129.6945 C114.633152,129.798127 118.393756,129.712599 119.469419,127.39953 C120.397356,125.403763 118.062536,123.517462 116.619304,122.604377 C113.869515,120.864029 110.423555,119.920587 107.179699,119.948902 C105.16214,119.966416 102.315224,120.370415 101.543736,122.57869 C101.342213,123.155497 102.767997,122.993197 102.959634,122.444704" id="Fill-53" fill="#333333"></path>
            </g>
            <g id="Group-Copy-3">
                <path d="M34.0872355,65.986267 C23.0934975,66.0452896 10.743206,59.3239933 4.48015805,50.4483932 C0.188401953,44.3663596 -0.277716946,37.2041402 0.853150336,30.108666 C1.76628175,24.3789411 3.36390908,18.5959969 6.55031583,13.6607678 C10.7240996,7.19633959 17.3697882,3.37694433 24.696254,1.2606904 C27.8130315,0.360514534 31.0740685,0.126400546 34.3159992,0.01970929 C40.6983018,-0.190133701 47.050983,1.26347145 52.2872871,4.96543049 C56.8621767,8.19992002 59.9590784,12.6648985 62.829781,17.3449029 C66.6622144,23.5925355 68.3353697,31.0864585 67.4472432,38.3400734 C66.5560393,45.6182121 63.0009691,50.7696047 58.030231,56.0077156 C57.9089246,56.1353911 57.7874901,56.2626874 57.6656708,56.3898573 C52.9062571,61.3554251 46.2229968,64.3071323 39.4702355,65.4852869 C37.616916,65.8089002 35.8286095,65.9757633 34.0872355,65.986267" id="Fill-3" fill="#C0DB93"></path>
                <path d="M65.6558592,24.1469761 C68.2704849,32.0294879 68.0651874,40.9454132 63.8235695,48.2392269 C61.9662749,51.4330119 59.509886,54.339211 56.8747434,56.9367132 C53.9506968,59.8188941 50.3584396,61.9824259 46.5177994,63.4627039 C42.4223647,65.0403186 38.0222535,65.9239346 33.6175261,65.7545433 C29.7664992,65.6053778 25.9494535,64.7546288 22.3520671,63.4070828 C15.4074725,60.8067995 8.87398586,56.2826604 4.66096346,50.1819179 C-0.291694102,43.0102176 0.101717943,34.0874661 1.93670046,25.9710932 C2.1893151,24.8542481 2.47860375,23.7463782 2.80379702,22.6479892 C2.83418771,22.5452167 2.23817103,22.6129732 2.1943161,22.7607482 C-0.22270594,30.925916 -1.41935561,40.4618894 2.7745604,48.2729787 C4.58248622,51.6402003 7.28712991,54.5575235 10.2390026,56.9875306 C13.2817908,59.4921205 16.7191452,61.5336653 20.3685933,63.0569231 C23.9113534,64.5346729 27.6789021,65.5345874 31.5142848,65.8796906 C35.6998658,66.2551326 39.8464647,65.7355816 43.8638069,64.5485781 C47.6698248,63.4235163 51.3213246,61.7308671 54.5070902,59.3762012 C57.6393835,57.0609757 60.3418473,54.0186315 62.6196107,50.8922238 C64.8548015,47.8243445 66.5378305,44.4040302 67.343761,40.6990373 C68.2908736,36.3456801 68.1793128,31.7537845 67.2247628,27.41231 C66.96984,26.2531171 66.6490066,25.1104841 66.2750857,23.9833997 C66.2328977,23.8559769 65.6181593,24.0333322 65.6558592,24.1469761" id="Fill-4" fill="#333333"></path>
                <path d="M42.8882271,1.04692866 C46.1773467,1.84420561 49.2802752,3.19200439 52.0448027,5.12786919 C52.2388158,5.26376149 52.7982867,4.9909656 52.5296433,4.80286538 C49.7333146,2.84475216 46.5828124,1.48026707 43.2562494,0.673888495 C43.0231259,0.617382581 42.5244364,0.958693471 42.8882271,1.04692866" id="Fill-5" fill="#333333"></path>
                <path d="M21.1886292,4.82321762 C19.8182268,4.92118649 16.4837135,4.6451039 14.7768335,3.72824172 L2.06839347,17.4235308 C3.04012635,19.094058 4.61941668,22.0547403 4.2933258,24.5910595 L21.1886292,4.82321762" id="Fill-6" fill="#C0DB93"></path>
                <path d="M14.7768335,3.72824172 C16.1020987,4.92333548 14.3316162,8.95800943 10.8221962,12.7398605 C7.3129043,16.5217116 3.39365862,18.6186245 2.06839347,17.4235308 C0.743128323,16.228437 2.51361075,12.1937631 6.02303084,8.41191201 C9.5323227,4.63006094 13.4515684,2.53302155 14.7768335,3.72824172" id="Fill-7" fill="#F8F8F8"></path>
                <path d="M14.8459499,5.05594108 C15.8482017,5.95990929 14.1467075,9.40171359 11.0457024,12.7436528 C7.94456914,16.0854657 4.61813438,18.0619086 3.61575434,17.1580668 C2.61350253,16.254225 4.3149968,12.8122943 7.41600185,9.47048141 C10.5171351,6.12854216 13.8435699,4.15209928 14.8459499,5.05594108" id="Fill-8" fill="#C0DB93"></path>
                <path d="M21.3262208,4.71311326 C19.3103047,4.83927187 16.8736633,4.55939694 15.0697126,3.62812386 C14.9175027,3.54962236 14.4354832,3.80320371 14.4840826,3.82823317 C16.3916438,4.81297829 18.9247147,5.06643323 21.0510375,4.93332199 C21.2023499,4.92384113 21.7283525,4.68783097 21.3262208,4.71311326" id="Fill-9" fill="#333333"></path>
                <path d="M16.7437655,16.2611776 C14.8481298,15.8464217 13.317439,14.6522128 11.9180564,13.3831683 C11.7818753,13.2596643 11.2097096,13.4880898 11.3381968,13.6046412 C12.7578398,14.8920153 14.319819,16.1029105 16.2418702,16.5233549 C16.4036975,16.5587501 16.9506018,16.3063065 16.7437655,16.2611776" id="Fill-10" fill="#333333"></path>
                <path d="M4.60300314,24.5092713 C4.78586024,22.8391233 4.27255241,21.1883163 3.59498095,19.6749185 C3.29889607,19.0135339 2.96267496,18.3700996 2.60580869,17.7386745 C2.38602112,17.3497065 2.06429009,17.0216688 1.976452,16.5756893 C1.74948351,15.4221849 2.3655042,14.1211583 2.87945318,13.1230136 C3.69628327,11.53655 4.78368032,10.0845882 5.97507253,8.75385495 C7.2221169,7.36080088 8.61201037,6.06457797 10.1652698,5.00689344 C11.1312323,4.34904831 12.5410016,3.37593304 13.792534,3.53432657 C16.3395821,3.85667575 13.9660303,8.11206407 13.3611657,9.09642996 C12.2272209,10.9421634 10.7907796,12.6188847 9.20443659,14.1018174 C7.82839205,15.3880538 6.2682081,16.6411704 4.49272467,17.3473047 C4.08636132,17.5089849 4.46823259,17.596588 4.710717,17.5001361 C8.09549677,16.1537279 10.9459389,13.2425988 13.0400758,10.3779891 C14.0193743,9.03853352 14.9636658,7.5400523 15.3751584,5.92148022 C15.5817382,5.10903389 15.7091996,3.93896959 14.8314598,3.45810047 C14.0186049,3.01275297 12.8858142,3.3578562 12.0915527,3.66870193 C10.6274136,4.24159858 9.31433037,5.17388296 8.11806539,6.17000511 C6.51389828,7.50554198 5.07463597,9.04725591 3.84272283,10.7228396 C2.84380502,12.0815097 1.87553437,13.607043 1.46429825,15.2545633 C1.32850185,15.7987645 1.22950769,16.4233635 1.41698109,16.9675647 C1.49071379,17.1815793 1.61522588,17.3093813 1.74384136,17.4893911 C1.99799477,17.8446073 2.19213618,18.2640405 2.39448436,18.6487105 C3.36019039,20.4838253 4.21433564,22.5664538 3.98364846,24.6728477 C3.97390292,24.762347 4.5819733,24.7005318 4.60300314,24.5092713" id="Fill-11" fill="#333333"></path>
                <path d="M63.7967693,26.3009006 C63.8780676,24.9488038 64.5934672,21.7263234 65.7395939,20.1785417 L53.635762,5.96092059 C51.8282209,6.69119948 48.6436094,7.84596799 46.1359281,7.19431701 L63.7967693,26.3009006" id="Fill-12" fill="#C0DB93"></path>
                <path d="M65.7058692,20.0695751 C64.3358515,21.2147363 60.4994429,18.9739671 57.1368471,15.0645669 C53.7742512,11.1552931 52.1589281,7.05779266 53.5288175,5.91275783 C54.8988352,4.76759659 58.7352438,7.00836578 62.0978396,10.9176396 C65.4604355,14.8270398 67.0757587,18.9244138 65.7058692,20.0695751" id="Fill-13" fill="#F8F8F8"></path>
                <path d="M64.3609847,19.9694572 C63.32488,20.835502 60.0761531,18.7371985 57.1047894,15.2826266 C54.1334257,11.8280548 52.564522,8.32557299 53.6006268,7.45952821 C54.6367315,6.59348343 57.8853302,8.69178694 60.8566939,12.1463588 C63.8281858,15.6009306 65.3969612,19.1034124 64.3609847,19.9694572" id="Fill-14" fill="#C0DB93"></path>
                <path d="M64.1042667,26.119753 C64.2346774,24.0852873 64.8146653,21.7016732 66.0101609,20.0119314 C66.0351659,19.9765362 65.5030081,19.9837417 65.4014493,20.1272187 C64.1991575,21.8268205 63.6163486,24.2325566 63.4848928,26.2833294 C63.4809369,26.3450182 64.0936236,26.2854784 64.1042667,26.119753" id="Fill-15" fill="#333333"></path>
                <path d="M53.0528249,20.1019364 C53.7011597,18.3197879 55.0797689,16.9798266 56.5182618,15.78448 C56.772287,15.5733729 56.1603697,15.6258337 56.0343188,15.7306288 C54.5453029,16.967944 53.1097593,18.3502531 52.4383429,20.1959865 C52.3824343,20.3497028 52.9887095,20.2785332 53.0528249,20.1019364" id="Fill-16" fill="#333333"></path>
                <path d="M45.7820112,7.30568549 C47.2673084,7.6549603 48.807873,7.47558247 50.2744485,7.11986067 C51.0263938,6.93744896 51.765516,6.70118598 52.4913023,6.43572196 C53.0026866,6.24875944 53.5148404,5.95725465 54.004682,5.78053146 C54.4145075,5.63275649 55.0065491,5.8307168 55.4056033,5.97090709 C56.0459878,6.19591945 56.6464926,6.53154183 57.2149396,6.89573319 C58.6584336,7.82055929 59.9422802,8.98961229 61.1030252,10.2372932 C62.4323938,11.6663745 63.629941,13.2369103 64.5706421,14.9425799 C65.2037175,16.0903957 65.8508982,17.4246685 65.8825712,18.7590677 C65.8925732,19.1827988 65.8298684,19.6808599 65.5167288,20.0015657 C65.1693516,20.3571611 64.6347575,20.2425059 64.1991575,20.126713 C62.8570941,19.7702328 61.6414663,18.8976146 60.5809977,18.0433261 C58.8489845,16.6482494 57.3209865,14.9820202 56.0293178,13.1847024 C54.9655152,11.7045508 53.9900637,10.0759922 53.5184308,8.30838104 C53.4798334,8.16351353 52.8595811,8.32367682 52.8992044,8.47195744 C53.3608352,10.2025301 54.3069219,11.7999914 55.3423855,13.2542286 C56.5446773,14.9427063 57.9475221,16.5113458 59.5286077,17.8647067 C60.6662712,18.8385804 61.9481943,19.7918491 63.3896366,20.2781539 C64.1885143,20.5477895 65.1964083,20.6481602 65.9118078,20.108889 C66.7078645,19.5089403 66.546422,18.332429 66.3316354,17.496723 C65.8947532,15.7976268 64.944563,14.217231 63.9370538,12.7916892 C62.7661785,11.1348144 61.4001359,9.59537591 59.8662393,8.2560467 C58.7030579,7.24045719 57.3917699,6.24673685 55.9123713,5.72693301 C55.4084243,5.54983058 54.8675469,5.43808287 54.3312858,5.50204706 C53.8028467,5.56512637 53.3989197,5.84904646 52.9156179,6.03891644 C50.8527693,6.84934019 48.5160197,7.58543401 46.2887792,7.06171141 C46.1400315,7.02682185 45.5978718,7.26245278 45.7820112,7.30568549" id="Fill-17" fill="#333333"></path>
                <path d="M8.93502371,42.13406 C8.42799919,39.4356813 10.8910561,36.3225468 13.1645879,35.9072852 C15.4381197,35.49215 17.6922886,37.3429399 18.1994414,40.0413186 C18.7064659,42.7396972 17.2743845,45.2637544 15.0008527,45.6788896 C12.7271927,46.0941512 9.44204823,44.8324386 8.93502371,42.13406" id="Fill-18" fill="#F8F8F8"></path>
                <path d="M10.5618877,41.7836474 C10.1021803,39.3368276 12.1154036,36.5540061 14.0071924,36.2085237 C15.8991093,35.8630412 17.8053882,37.5665618 18.2650955,40.0132552 C18.7249311,42.4600751 17.5640578,44.7235983 15.6722691,45.0690808 C13.7804803,45.4145632 11.0217233,44.2303409 10.5618877,41.7836474" id="Fill-19" fill="#C0DB93"></path>
                <path d="M31.9578351,31.1638223 C31.5780155,29.1427562 33.1131944,27.1675774 35.3867262,26.7524423 C37.6603863,26.3373071 39.8113294,27.6390921 40.191149,29.6602846 C40.5709686,31.6814772 39.0357897,33.6565295 36.7621296,34.0717911 C34.4885978,34.4869263 32.3375264,33.1850148 31.9578351,31.1638223" id="Fill-20" fill="#F8F8F8"></path>
                <path d="M32.819033,31.9284851 C32.5332066,30.4076291 33.7692231,28.906746 35.5797136,28.5761801 C37.390204,28.2454878 39.0896466,29.2103863 39.3753448,30.7312424 C39.6611712,32.2520984 38.4251547,33.7529814 36.6146642,34.0836738 C34.8041738,34.4142397 33.1048594,33.4493412 32.819033,31.9284851" id="Fill-21" fill="#C0DB93"></path>
                <path d="M30.5033133,9.59550233 C30.2418507,8.20396519 31.2747497,6.84870813 32.8103133,6.56832756 C34.345877,6.28782057 35.8025787,7.18850209 36.0640412,8.58003922 C36.3255038,9.97144995 35.2927331,11.3268334 33.7571694,11.607214 C32.2216058,11.887721 30.7649041,10.9870395 30.5033133,9.59550233" id="Fill-22" fill="#F8F8F8"></path>
                <path d="M31.1022793,10.2434874 C30.9190375,9.26809669 31.8278091,8.28423645 33.1321726,8.0460773 C34.4366644,7.80791814 35.6425467,8.40546502 35.8259167,9.3808557 C36.0091585,10.3562464 35.1003869,11.3401066 33.7958951,11.5782658 C32.4915316,11.8164249 31.2855211,11.218878 31.1022793,10.2434874" id="Fill-23" fill="#C0DB93"></path>
                <path d="M55.5765349,37.0365186 C55.3468736,35.8139936 56.2624414,34.6218073 57.6215594,34.3736616 C58.9806775,34.125516 60.2686275,34.9152082 60.4984171,36.1377333 C60.7280784,37.3601319 59.8125106,38.5523182 58.4533925,38.8004639 C57.0942745,39.0487359 55.8063245,38.2589172 55.5765349,37.0365186" id="Fill-24" fill="#F8F8F8"></path>
                <path d="M57.2033989,34.6177621 C58.1325591,34.448118 59.0594112,35.2349028 59.2735566,36.375134 C59.4878303,37.5153651 58.9083554,38.5772212 57.9793233,38.7468654 C57.0502913,38.9165096 56.1234392,38.1297247 55.9091656,36.9894936 C55.6948919,35.8493888 56.2743668,34.7875327 57.2033989,34.6177621" id="Fill-25" fill="#C0DB93"></path>
                <path d="M17.6217617,39.1555536 C18.2209841,40.8560403 18.1210924,42.8768536 16.9344447,44.3202194 C15.8126818,45.6845781 14.0223236,45.8068179 12.422901,45.2868877 C10.9592749,44.8109486 9.63426617,43.740623 9.27765636,42.2094012 C8.8600087,40.4157492 9.79647812,38.4939161 11.086608,37.2626687 C11.8417591,36.5418706 12.7942574,35.9736512 13.8793463,36.0340759 C15.0870238,36.1013268 16.1047915,36.8247794 16.8353223,37.7314023 C16.9715034,37.9004144 17.5677765,37.6856414 17.4094115,37.4890716 C16.0882498,35.8492624 13.9338444,35.1600672 11.987814,36.1482254 C10.1647569,37.0736836 8.71549261,39.0910838 8.56943775,41.1234005 C8.29617795,44.923202 13.4888835,47.2303372 16.5292354,45.2365759 C18.5797739,43.8920639 19.0046025,41.1585429 18.2409881,38.9919772 C18.1634085,38.771642 17.5476443,38.9454578 17.6217617,39.1555536" id="Fill-26" fill="#333333"></path>
                <path d="M36.0414726,26.8815084 C37.8172125,26.8564789 39.5412754,27.9555 39.8814717,29.7420728 C40.2206421,31.5229572 38.953722,33.2134574 37.2632555,33.7477986 C35.5727891,34.2821397 33.5620022,33.6765025 32.6531024,32.1249285 C31.6643148,30.4372094 32.4616538,28.4493895 34.0388925,27.4541522 C34.3916554,27.2315416 33.8720642,27.0634144 33.6379148,27.2111894 C32.2627679,28.0788775 31.3395062,29.6030203 31.6481577,31.2456105 C31.941678,32.8080559 33.3007961,33.9343819 34.8357186,34.2504105 C37.8550406,34.8717227 41.6455426,32.2086129 40.3082237,28.9262134 C39.6266771,27.2534108 37.8517066,26.4498133 36.107255,26.4744635 C35.7697516,26.4792672 35.6180546,26.8874497 36.0414726,26.8815084" id="Fill-27" fill="#333333"></path>
                <path d="M30.8129906,9.51371412 C30.6071802,8.15264214 31.5807083,6.73481142 33.0426675,6.64657624 C34.2956105,6.5709822 35.5226509,7.42830459 35.7543639,8.66182742 C36.0024905,9.9819421 35.0187039,11.3263278 33.6695878,11.5113941 C32.338424,11.6940587 31.0972783,10.7768172 30.8129906,9.51371412 C30.7834976,9.38249905 30.1609371,9.53153814 30.1937642,9.67729053 C30.9712274,13.131736 37.0203864,11.9395497 36.3737186,8.49825102 C35.7191004,5.01460454 29.6710955,6.22158098 30.1937642,9.67729053 C30.2122294,9.79927757 30.8367133,9.67071713 30.8129906,9.51371412" id="Fill-28" fill="#333333"></path>
                <path d="M55.8862122,36.9547304 C55.7055351,35.7165303 56.623411,34.4393956 57.9702189,34.4527952 C59.0137611,34.4631609 59.9956242,35.1920493 60.1887397,36.2195215 C60.4209657,37.4554461 59.4055061,38.7343507 58.104733,38.7213303 C57.0281074,38.7105853 56.1220287,37.9779046 55.8862122,36.9547304 C55.8562062,36.8244002 55.233774,36.9747034 55.2668576,37.1183068 C55.9698187,40.1678564 61.3806449,39.1033457 60.8079662,36.0559451 C60.2273372,32.9659438 54.8213838,34.066229 55.2668576,37.1183068 C55.2844252,37.2380184 55.9090373,37.1111014 55.8862122,36.9547304" id="Fill-29" fill="#333333"></path>
                <path d="M26.9232381,54.4164483 C28.08783,55.1352238 30.6133353,57.2993877 31.4414497,59.0329942 L49.9015533,55.3799563 C50.1181351,53.4660871 50.6173376,50.1573941 52.3998737,48.3005364 L26.9232381,54.4164483" id="Fill-30" fill="#C0DB93"></path>
                <path d="M31.5546775,59.056001 C31.1921691,57.3217625 35.026526,55.0774538 40.1189551,54.0432818 C45.211256,53.0089834 49.6332945,53.5763179 49.9956747,55.3105565 C50.3580549,57.044795 46.5238263,59.2891037 41.4313972,60.3234021 C36.3390963,61.3579534 31.9170577,60.790366 31.5546775,59.056001" id="Fill-31" fill="#F8F8F8"></path>
                <path d="M32.2886705,57.9406729 C32.0146413,56.6290278 35.4403267,54.8248837 39.9402014,53.910929 C44.440076,52.9969743 48.3102093,53.3193234 48.5843667,54.6308421 C48.8585241,55.9424873 45.4327105,57.7466313 40.9328359,58.660586 C36.4329612,59.5745408 32.5628279,59.2521916 32.2886705,57.9406729" id="Fill-32" fill="#C0DB93"></path>
                <path d="M26.719864,54.5623271 C28.4722659,55.6536371 30.3132753,57.2935727 31.2450002,59.1377892 C31.3121931,59.2707741 31.9038499,59.0523351 31.8643548,58.9742128 C30.9269878,57.1189985 29.0648204,55.4578258 27.3056222,54.3622178 C27.1646966,54.2744883 26.6616473,54.5260471 26.719864,54.5623271" id="Fill-33" fill="#333333"></path>
                <path d="M37.4087975,47.9171305 C38.6985427,49.3483609 39.2268535,51.2117919 39.6051343,53.0482973 C39.6389873,53.2125058 40.2616759,53.0657421 40.2243608,52.8847209 C39.8408225,51.0217955 39.2955852,49.1458497 37.9886571,47.6956577 C37.8701718,47.5641898 37.283516,47.778078 37.4087975,47.9171305" id="Fill-34" fill="#333333"></path>
                <path d="M52.1762392,48.2379628 C50.3704933,50.2020173 49.8448753,53.1398192 49.7039497,55.6972491 C49.6473999,56.7247212 48.4443387,57.5080929 47.6563605,57.9841584 C46.1299013,58.9065827 44.3926306,59.4983147 42.6661314,59.9341813 C40.7097143,60.4281972 38.6785387,60.724632 36.656211,60.7094627 C35.344923,60.6993498 33.7798663,60.6217331 32.6310467,59.9161045 C30.1945336,58.4197723 33.9720842,56.261929 35.2136147,55.6924454 C37.2338907,54.7658496 39.4381779,54.2053412 41.6379769,53.8905767 C43.619399,53.6070359 45.7295648,53.4887148 47.6904699,53.9676877 C47.838833,54.0039678 48.3821468,53.7688425 48.197238,53.7237136 C46.470354,53.3018787 44.6366538,53.3356305 42.8783533,53.5124801 C40.8022969,53.7214382 38.7390636,54.1641311 36.7672589,54.8392946 C35.2737549,55.3507553 33.7522967,55.9983611 32.5082016,56.9785554 C31.8515318,57.4959574 30.9540445,58.3719887 31.2907785,59.2969412 C31.6598267,60.310761 33.1256328,60.6323517 34.0585118,60.7891019 C35.8132218,61.0849047 37.6332013,60.9951525 39.390476,60.7714043 C41.4748674,60.5063195 43.5502826,60.0136941 45.5110595,59.2634422 C46.9046717,58.7302388 48.3630404,58.0669579 49.4550538,57.0343029 C49.8253843,56.6841432 50.2177705,56.2307053 50.3036851,55.7140618 C50.4153741,55.0411737 50.4038333,54.3304886 50.5174458,53.6457178 C50.8359711,51.7243903 51.3814648,49.6758929 52.7389159,48.1994073 C52.8712501,48.0554247 52.2815167,48.1233076 52.1762392,48.2379628" id="Fill-35" fill="#333333"></path>
            </g>
        </g>
    </g>
</svg>