<?xml version="1.0" encoding="UTF-8"?>
<svg xmlns="http://www.w3.org/2000/svg" version="1.1" width="1000" height="1000" viewBox="0 0 1000 1000"><rect x="0" y="0" width="1000" height="1000" fill="#ffffff"/><g transform="scale(40)"><g transform="translate(0,0)"><path fill-rule="evenodd" d="M9 0L9 1L12 1L12 2L9 2L9 4L10 4L10 5L11 5L11 6L10 6L10 7L9 7L9 5L8 5L8 7L9 7L9 8L8 8L8 9L7 9L7 8L5 8L5 10L4 10L4 8L3 8L3 9L1 9L1 8L0 8L0 10L1 10L1 11L0 11L0 13L2 13L2 12L3 12L3 14L4 14L4 15L3 15L3 16L2 16L2 15L1 15L1 14L0 14L0 15L1 15L1 16L0 16L0 17L3 17L3 16L5 16L5 17L8 17L8 18L9 18L9 19L8 19L8 20L9 20L9 19L10 19L10 22L9 22L9 21L8 21L8 22L9 22L9 23L10 23L10 24L8 24L8 25L11 25L11 23L10 23L10 22L11 22L11 21L13 21L13 22L12 22L12 25L13 25L13 24L14 24L14 25L17 25L17 24L18 24L18 23L20 23L20 22L21 22L21 24L20 24L20 25L22 25L22 23L23 23L23 25L25 25L25 22L24 22L24 23L23 23L23 22L21 22L21 20L22 20L22 21L24 21L24 20L25 20L25 18L23 18L23 19L22 19L22 18L21 18L21 16L20 16L20 15L22 15L22 14L23 14L23 15L24 15L24 13L25 13L25 11L24 11L24 12L22 12L22 14L21 14L21 13L20 13L20 12L21 12L21 11L23 11L23 10L24 10L24 9L23 9L23 10L21 10L21 9L20 9L20 8L19 8L19 9L18 9L18 8L16 8L16 10L15 10L15 9L14 9L14 7L15 7L15 6L14 6L14 7L13 7L13 5L15 5L15 4L16 4L16 5L17 5L17 4L16 4L16 2L17 2L17 0L16 0L16 2L15 2L15 1L12 1L12 0ZM12 2L12 3L10 3L10 4L11 4L11 5L12 5L12 3L13 3L13 4L14 4L14 3L15 3L15 2L14 2L14 3L13 3L13 2ZM11 6L11 7L12 7L12 6ZM16 6L16 7L17 7L17 6ZM10 8L10 11L9 11L9 9L8 9L8 10L7 10L7 9L6 9L6 10L7 10L7 11L6 11L6 12L5 12L5 13L4 13L4 14L5 14L5 13L6 13L6 14L9 14L9 15L8 15L8 16L9 16L9 18L10 18L10 19L11 19L11 20L12 20L12 19L11 19L11 18L12 18L12 17L15 17L15 18L14 18L14 20L13 20L13 21L15 21L15 22L13 22L13 23L14 23L14 24L16 24L16 23L17 23L17 22L16 22L16 19L15 19L15 18L16 18L16 14L15 14L15 16L13 16L13 15L14 15L14 13L17 13L17 12L18 12L18 13L19 13L19 12L18 12L18 11L17 11L17 10L18 10L18 9L17 9L17 10L16 10L16 11L15 11L15 12L14 12L14 10L13 10L13 12L14 12L14 13L12 13L12 10L11 10L11 8ZM12 8L12 9L13 9L13 8ZM19 9L19 10L20 10L20 11L21 11L21 10L20 10L20 9ZM2 10L2 11L1 11L1 12L2 12L2 11L3 11L3 12L4 12L4 11L3 11L3 10ZM8 11L8 12L6 12L6 13L11 13L11 16L10 16L10 15L9 15L9 16L10 16L10 18L11 18L11 16L12 16L12 15L13 15L13 14L12 14L12 13L11 13L11 12L9 12L9 11ZM17 14L17 15L18 15L18 14ZM19 14L19 15L20 15L20 14ZM6 15L6 16L7 16L7 15ZM24 16L24 17L25 17L25 16ZM17 17L17 20L20 20L20 17ZM18 18L18 19L19 19L19 18ZM18 21L18 22L19 22L19 21ZM15 22L15 23L16 23L16 22ZM0 0L7 0L7 7L0 7ZM1 1L1 6L6 6L6 1ZM2 2L5 2L5 5L2 5ZM18 0L25 0L25 7L18 7ZM19 1L19 6L24 6L24 1ZM20 2L23 2L23 5L20 5ZM0 18L7 18L7 25L0 25ZM1 19L1 24L6 24L6 19ZM2 20L5 20L5 23L2 23Z" fill="#000000"/></g></g></svg>
