<?xml version="1.0" encoding="utf-8"?>
<!-- Generator: Adobe Illustrator 25.4.1, SVG Export Plug-In . SVG Version: 6.00 Build 0)  -->
<svg version="1.1" id="Layer_1" xmlns="http://www.w3.org/2000/svg" xmlns:xlink="http://www.w3.org/1999/xlink" x="0px" y="0px"
	 viewBox="0 0 138.5 120" style="enable-background:new 0 0 138.5 120;" xml:space="preserve">
<style type="text/css">
	.st0{fill:#171717;}
</style>
<path class="st0" d="M52.7,91.4l-2.9-5.1l0,0l0,0l0,0l0,0l0,0v0l0,0l0,0l0,0v0l0,0v0v0l0,0v0v0l0,0l0,0l0,0l0,0l0,0l0,0l0,0l0,0l0,0
	l0,0l0,0l0,0l0,0l0,0l0,0l0,0l0,0v0l0,0l0,0l-0.1-0.1l0,0l-0.1-0.2l0,0l-7.2-12.4l1.7-1l10.4,18.2L52.7,91.4z M36.2,62.8L25.8,44.6
	l1.7-1L38,61.8L36.2,62.8z M19.8,34.2L9.3,16.1l1.7-1l10.5,18.2L19.8,34.2z M3.3,5.7L0,0h14.5v2h-11L5,4.7L3.3,5.7z M47.5,2h-21V0
	h21V2z M80.5,2h-21V0h21V2z M113.5,2h-21V0h21V2z M134.5,6.9l-1.7-1L135,2h-9.5V0h13l-1.2,2L134.5,6.9z M118,35.5l-1.7-1l10.5-18.2
	l1.7,1L118,35.5z M101.5,64.1l-1.7-1l10.5-18.2l1.7,1L101.5,64.1z M85,92.7l-1.7-1l10.5-18.2l1.7,1l-9.4,16.3l0,0l0,0v0l0,0l0,0l0,0
	l0,0v0l0,0l0,0.1l0,0v0l0,0L86,91l0,0l0,0l0,0l0,0l0,0l-0.1,0.1l0,0v0l0,0v0l0,0l0,0v0l0,0l0,0l0,0l0,0l0,0l0,0l0,0l0,0l0,0l0,0l0,0
	l0,0l0,0l0,0l0,0l0,0l0,0l0,0l0,0l0,0l0,0l0,0l0,0l0,0.1l0,0l-0.1,0.1l0,0l-0.1,0.1l0,0l0,0v0L85,92.7z M69.2,120l-10.5-18.2l1.7-1
	l8.8,15.2l8-13.9l1.7,1l-8.5,14.7l0,0v0l0,0l-0.1,0.2l0,0L69.2,120z"/>
</svg>
