<svg xmlns="http://www.w3.org/2000/svg" width="138.462" height="120" viewBox="0 0 138.462 120"><path d="M85.722,28.584l2.933,5.083,0,0,.006.01h0l.013.023,0,0,0,.007,0,0,.02.035v0l0,.008,0,0,0,.007,0,.006.011.02,0,.005,0,.006,0,0,.007.012.007.013.006.011.023.04,0,0,.006.01h0l.007.012h0l.011.019.006.011h0l.005.009,0,0,0,0,.012.02,0,.005.026.045,0,0,.056.1h0l.114.2,0,0,7.173,12.433-1.732,1L83.989,29.584Zm16.491,28.584,10.494,18.19-1.732,1L100.48,58.168ZM118.7,85.752l10.494,18.19-1.732,1-10.494-18.19Zm16.491,28.584L138.462,120H124v-2h11l-1.537-2.664ZM91,118h21v2H91Zm-33,0H79v2H58Zm-33,0H46v2H25ZM4,113.07l1.732,1L3.463,118H13v2H0l1.154-2ZM20.489,84.486l1.732,1-10.494,18.19-1.732-1ZM36.979,55.9l1.732,1L28.218,75.092l-1.732-1L36.979,55.9ZM53.47,27.318l1.732,1L44.709,46.507l-1.732-1,9.4-16.3,0,0,.012-.02,0-.006,0,0,0,0,0,0,0,0,0-.006v0l.038-.066h0l0-.007v0l.074-.128,0,0,.017-.03h0l.014-.023v0l.064-.112,0,0,0-.007v0l0-.005h0l.024-.042,0-.005,0,0,.015-.027,0,0,.016-.027h0l.016-.027,0,0,.016-.027h0l.016-.027,0,0,.007-.012h0l.007-.012,0,0,.006-.011v0l.006-.01.01-.018.007-.011,0,0,.015-.025v0l.031-.053h0l.06-.1,0,0,.085-.147h0l.026-.046,0-.006ZM69.231,0,79.725,18.19l-1.732,1L69.231,4,61.2,17.923l-1.732-1L67.921,2.271l0,0,0-.006,0,0,.137-.237,0,0Z" fill="#171717"/></svg>