<svg xmlns="http://www.w3.org/2000/svg" width="139.719" height="124.114" viewBox="0 0 139.719 124.114"><g transform="translate(-1024.281 -344.231)"><path d="M85.45,28.608,95.917,46.813l-1.734,1L83.716,29.6ZM101.9,57.216l5.329,9.268v0l.106.184,0,0,0,0,.005.009,0,.008,0,0,.006.011h0l.006.01.006.01h0l0,.008.006.01,4.986,8.671-1.734,1L100.165,58.213l1.734-1Zm16.45,28.608,10.468,18.205-1.734,1L116.615,86.821Zm16.45,28.608L136.85,118h0l1.15,2H123.423v-2h11.12l-1.479-2.571ZM90.423,118h21v2h-21Zm-33,0h21v2h-21Zm-33,0h21v2h-21ZM4.275,112.565l1.734,1L3.457,118h8.966v2H0l1.15-2Zm16.45-28.608,1.734,1L11.991,103.159l-1.734-1L20.725,83.957Zm16.45-28.608,1.734,1L28.44,74.551l-1.734-1L37.174,55.349Zm16.45-28.608,1.734,1L44.89,45.943l-1.734-1ZM69,0l1.154,2.006.088.153h0l.036.062.007.012.041.071h0l.041.071,0,0,.041.072,0,0,.021.036h0l.018.031.006.011.042.072v0l.043.074,0,0,.043.074,0,.006,0,0v0l0,.008v0l.009.015.039.068,0,0,.009.015,0,0,0,0,0,.007,0,0,.008.014,0,.007,0,.006h0l0,.008.005.009,0,.008.009.017,0,.006,0,0,0,.006.015.025,0,0,0,.006,0,.006,0,0,0,.007,0,.005,0,.007h0l.006.01h0l.009.016,0,.007.022.038h0l.011.019,0,0,0,.005.01.017,0,0v0l.017.029,0,0,.022.038,0,.005L70.9,3.3h0l.022.038,0,.008.021.037v0l.018.031h0l0,.007,0,.008,0,.006h0l0,.007,0,.006,0,.008h0l0,.008,0,.005,0,.005,0,.006,0,0,.02.035.005.009,0,.007.008.014.006.011.007.012,0,.005,0,.006,0,0,0,.005,0,.007.035.061h0l.01.017.017.029.009.016,0,.007.019.033.007.013h0l0,.007,0,.007v0l.005.009,0,0v0l.006.01v0l0,0,0,.007.029.05.009.016,0,.007.011.019,0,0,.009.015.006.01.009.016,0,.006.009.016L71.3,4l.011.018v0l0,.008.022.038.01.017.007.013.007.012.019.034.018.032.046.08v0l.011.02.01.017,0,0,.01.017,0,.007.011.019,0,0,.01.017,0,.006.01.018,0,.005,0,.006.016.027.005.009v0l.006.011.014.025,0,.007,0,.006,0,.007.015.026.006.011h0l.011.02,0,.007,0,.007.037.065,0,0,.011.019h0l0,.008,0,0L71.7,4.7l0,.006,0,.006.009.015.02.035h0l.027.047h0l.006.01,0,0,.006.011v0l0,.006,0,.005.006.01h0l.019.034,0,0,0,.007,0,0,0,.008,0,0,.075.131h0l.019.034,0,0,.006.01v0l.027.047v0l7.506,13.054-1.734,1L69,4.012,61.339,17.335l-1.734-1L67.846,2.006h0Z" transform="translate(1026 347)" fill="#171717"/><path d="M0,0H4.1l.3,139.571-3.751,1.2Z" transform="translate(1094.668 344.231) rotate(30)" fill="#fff"/></g></svg>