<?xml version="1.0" encoding="UTF-8"?>
<svg width="197px" height="197px" viewBox="0 0 197 197" version="1.1" xmlns="http://www.w3.org/2000/svg" xmlns:xlink="http://www.w3.org/1999/xlink">
    <title>07</title>
    <g id="Page-1" stroke="none" stroke-width="1" fill="none" fill-rule="evenodd">
        <g id="07">
            <path d="M192.457674,135.106928 C190.255672,140.060744 181.926981,153.148759 173.826083,163.821699 C169.844446,169.068511 165.915012,173.731471 162.797092,176.554171 C161.330673,177.882165 159.517818,179.255107 157.401239,180.630427 C142.276715,190.46695 111.671741,200.475656 81.5650641,195.826251 C72.3109627,194.394567 25.4116511,186.080338 8.16105691,151.537045 C6.82751716,148.862269 -5.80314488,123.046777 6.08244335,108.683565 C10.2017049,103.703351 13.5189444,104.40207 17.5195636,100.299416 C32.5278179,84.9133349 4.25060584,56.258495 11.2813501,35.5540182 C20.7466349,7.67875619 97.7478774,-16.2179947 149.575591,14.1272783 C192.9797,39.5401395 204.635122,107.720389 192.457674,135.106928" id="Fill-147" fill="#F9EFEA"></path>
            <path d="M163.713717,166.942627 C165.094714,166.173038 174.004753,160.815639 176.247093,155.187362 C176.557936,154.404217 177.041996,153.188237 176.783356,151.682591 C176.266076,148.674866 173.456625,148.423014 172.963073,146.130655 C172.31054,143.106996 176.847423,141.919555 178.306724,135.971171 C178.655532,134.544481 179.201287,132.323231 178.183336,130.132898 C177.049115,127.68762 175.136601,127.797969 173.857636,125.578622 C172.263083,122.811572 174.239665,120.90591 173.805434,117.000886 C173.349847,112.887055 170.322095,107.467823 165.602503,106.496799 C161.49036,105.650155 157.653467,108.506626 155.7718,111.080803 C152.993197,114.884277 153.099975,119.969608 154.63758,123.553098 C156.849072,128.704306 161.89849,130.483922 161.241211,132.338452 C160.626644,134.065034 156.222641,132.595536 154.355211,135.232022 C153.052518,137.072758 153.448783,140.260038 154.917575,142.218734 C156.953478,144.933701 160.133092,144.069459 160.994435,146.120904 C161.89849,148.271997 158.820908,150.219039 157.96431,153.592295 C157.259575,156.374328 158.192104,160.702436 163.713717,166.942627" id="Fill-148" fill="#E4C0AE"></path>
            <path d="M165.089968,164.792248 C165.037766,164.792248 164.985563,164.78107 164.938106,164.757288 C164.760143,164.672623 164.684212,164.459774 164.769634,164.281883 C174.121022,144.624295 167.021466,123.867974 164.620145,117.974526 C164.546587,117.792355 164.634382,117.584024 164.817091,117.509586 C164.9998,117.434434 165.206238,117.522666 165.279796,117.705075 C167.707218,123.667015 174.889825,144.667341 165.412676,164.58891 C165.350982,164.717096 165.222848,164.792248 165.089968,164.792248" id="Fill-149" fill="#F4D4C3"></path>
            <path d="M164.216761,165.270744 C163.993713,165.751618 164.503875,166.240817 164.971326,165.995623 C179.863311,158.168689 183.496139,152.186534 183.693085,147.920973 C183.754779,146.606535 183.569697,143.913448 184.848661,140.576816 C186.509654,136.249659 189.020126,135.046522 191.215009,132.133688 C195.507488,126.435967 195.842059,117.848957 193.50006,111.63445 C191.865169,107.293262 187.527605,100.396923 181.495829,100.27064 C178.947392,100.21713 175.407105,101.359861 174.654913,103.678855 C173.575268,106.997413 179.569078,109.662199 179.132474,114.965137 C178.892817,117.858469 177.053861,117.896521 176.826067,120.971073 C176.467768,125.815729 180.869398,127.975146 179.822973,130.753849 C178.807394,133.445034 174.374917,132.09088 172.633248,135.180653 C170.647175,138.705401 174.806775,142.861327 172.569181,145.989389 C171.235641,147.852005 169.486853,146.76207 167.719082,148.74217 C165.569283,151.151774 166.9835,154.081018 166.046226,159.541155 C165.657079,161.815915 164.938106,163.714204 164.216761,165.270744" id="Fill-150" fill="#E4C0AE"></path>
            <path d="M165.346236,165.240778 C165.258441,165.240778 165.170645,165.209148 165.104206,165.145412 C164.959462,165.011043 164.949971,164.785351 165.085223,164.641231 C174.517288,154.475326 182.041584,141.654622 185.21408,130.345986 C189.497068,115.078577 184.93883,105.827094 184.893746,105.735533 C184.803577,105.560021 184.87239,105.345269 185.047981,105.255848 C185.223571,105.166189 185.437127,105.236346 185.527296,105.411145 C185.574752,105.505322 190.263497,114.982735 185.899832,130.539096 C182.69649,141.951898 175.110499,154.882 165.607249,165.1271 C165.536064,165.202489 165.44115,165.240778 165.346236,165.240778" id="Fill-151" fill="#F4D4C3"></path>
            <path d="M163.075422,86.3383595 C163.075422,129.093619 128.89694,163.753682 86.7362034,163.753682 C44.5754664,163.753682 10.396985,129.093619 10.396985,86.3383595 C10.396985,43.5831001 44.5754664,8.92303677 86.7362034,8.92303677 C128.89694,8.92303677 163.075422,43.5831001 163.075422,86.3383595" id="Fill-152" fill="#FFFFFF"></path>
            <path d="M72.0648933,15.8481526 C71.7516776,16.3149956 72.6842063,17.8853291 74.5373994,17.8853291 C76.3929654,17.8853291 77.3183755,17.5721186 78.0919235,19.6090572 C78.8654715,21.6464716 77.7834535,28.5416219 78.8654715,31.048971 C79.9474895,33.5560822 81.8006826,35.1233239 83.1911707,33.7128063 C84.5816588,32.3025266 84.4274237,28.5416219 86.1287547,27.6012769 C87.8277128,26.6609318 94.008978,22.9000272 94.317448,19.7660192 C94.6259181,16.6317735 92.4642549,14.2811487 87.0541648,13.6542519 C81.6464476,13.027593 74.3831644,12.4004585 72.0648933,15.8481526" id="Fill-153" fill="#F9EFEA"></path>
            <path d="M47.2733929,85.3668599 C46.466625,85.7756746 45.9825644,86.5602467 46.0205299,87.3980909 C46.1439179,90.0267287 45.04529,96.576087 42.7388832,98.6679624 C39.8012992,101.331798 40.88569,106.132457 40.8382331,108.070224 C40.7456921,112.006165 41.1656859,113.756767 45.8307022,115.637457 C50.4957184,117.517909 52.3204374,117.624691 52.666873,121.385596 C53.0133086,125.1465 53.5495719,139.675236 54.9329414,143.436378 C56.3139381,147.197283 59.2515221,153.308813 60.8057366,154.719092 C62.3623239,156.12961 65.9904062,156.913231 63.7433206,151.585084 C61.4986078,146.256938 60.1152383,143.749589 62.7063867,140.772305 C65.2975351,137.794784 69.6184886,130.899633 69.9625513,128.23556 C70.3089869,125.571725 71.8632014,124.004483 73.2465709,123.691035 C74.6275676,123.377586 77.5651516,122.437479 78.4288677,121.497134 C79.2925839,120.557027 77.5651516,117.892953 77.047871,115.542329 C76.5282177,113.191704 76.5282177,111.781424 80.8491712,109.900972 C85.1677518,108.020282 83.093884,102.692373 77.2210888,101.281855 C71.3459208,99.8715756 67.7178385,96.894054 68.4083369,93.9167703 C69.0988352,90.9392487 64.4338189,91.2524592 61.6694527,89.8421794 C58.9050865,88.4318997 58.9881362,86.2168329 55.9129271,85.1609067 C51.7533271,83.7337416 48.8347259,84.5763422 47.2733929,85.3668599" id="Fill-154" fill="#99B9FF"></path>
            <path d="M142.315388,82.0806464 C141.015068,80.0995957 141.176421,76.9632096 144.431967,72.6717258 C146.989895,69.3006102 143.319102,65.9294945 141.627262,64.6383632 C141.318792,64.4012554 141.456417,63.9089655 141.843191,63.8644929 C143.940787,63.6238179 148.80275,64.3382328 150.943057,75.3129682 C153.709797,89.5082785 154.848763,84.5563652 156.315182,82.9056482 C157.779228,81.2549312 155.038591,78.1722926 157.779228,74.9826345 C159.506661,72.9723318 160.384614,70.039045 160.830709,67.6477528 C155.325705,45.131554 140.106267,26.5049211 119.939445,16.6110831 C119.967919,19.0825211 119.381826,27.6933137 109.437226,24.1421673 C109.437226,24.1421673 103.251215,21.1708291 104.715262,33.2207543 C106.181681,45.2706794 111.226352,32.3957525 112.203965,31.9003709 C113.179205,31.4052271 115.784591,30.7450354 114.645624,38.8328592 C114.645624,38.8328592 114.481898,41.6391495 109.437226,41.1442435 C104.390182,40.648862 103.412569,43.1248186 103.412569,44.4456776 C103.412569,45.7658231 103.901375,49.2323051 101.134636,51.7084996 C98.3678971,54.1842184 99.1817834,60.6220385 102.926135,58.4759399 C106.668114,56.3300791 109.2735,49.5624009 112.692772,48.9022093 C116.109671,48.2417798 119.20149,52.6987871 122.457035,51.542976 C125.71258,50.3876405 124.248534,44.7755356 125.876307,44.7755356 C127.50408,44.7755356 130.923351,48.0767318 130.434545,50.5529263 C129.945739,53.0286451 124.898694,54.1842184 126.201387,57.1555566 C127.50408,60.126657 130.270819,59.1363694 131.084705,61.1171823 C131.898591,63.0977573 127.015273,65.4089039 123.109568,62.9327094 C119.20149,60.4569906 118.55133,64.0882827 116.598477,62.4375657 C114.645624,60.7868486 114.481898,57.3206045 111.715159,58.4759399 C108.94842,59.6315132 107.320647,61.9421841 103.740022,63.5929011 C100.159396,65.2436181 97.2289307,67.3894789 97.2289307,69.7003876 C97.2289307,72.0115342 98.5316235,74.4874908 97.8790907,78.1190207 C97.2289307,81.7503127 96.0899644,91.6541393 107.809453,89.6735642 C119.528942,87.6927513 118.062523,93.8002379 118.062523,94.4604295 C118.062523,95.1206212 117.90117,103.704064 119.040136,105.189733 C120.179102,106.675165 122.784488,110.966886 119.040136,116.579229 C115.295784,122.191334 116.75983,134.736641 120.179102,133.085924 C123.598374,131.435207 127.015273,124.997862 131.248431,121.696428 C135.479217,118.395232 141.340148,104.034398 138.898489,99.5776285 C136.456829,95.1206212 142.315388,91.4893292 143.129274,88.5179909 C143.94316,85.5468906 143.61808,84.0612215 142.315388,82.0806464" id="Fill-155" fill="#F4D4C3"></path>
            <path d="M32.0753109,32.094433 C32.1441234,34.8441218 31.8973474,38.5189352 30.1461867,41.3233229 C24.8571118,49.7857151 25.0279567,54.0165544 24.5154219,62.4789466 C24.002887,70.9413387 35.6440721,85.8584363 38.5436905,87.4256781 C41.443309,88.9924443 41.8917769,85.2650724 41.8917769,82.2877887 C41.8917769,79.3102671 40.6531511,75.7393816 38.9470744,72.2916875 C37.2409978,68.8442313 37.2409978,66.6500928 37.7535326,65.239813 C38.2636946,63.8292954 40.3114612,63.3593607 41.6758479,64.7698783 C43.0402347,66.1801581 46.3218814,67.4310976 47.8974515,66.5497322 C49.8336943,65.4664566 49.0791291,61.2251531 49.7625089,59.8148733 C50.4458887,58.4045936 54.197359,57.4642485 55.7325907,54.4869648 C57.2678224,51.5094432 59.8281238,50.2556498 62.8985872,48.84537 C65.9690506,47.4350902 68.6978241,46.8081935 69.210359,45.8680863 C69.720521,44.9277412 69.039514,42.7336027 69.8913659,40.2264915 C70.7455907,37.7193803 72.7909844,34.7416209 71.9391325,33.4880653 C71.0849077,32.2345097 68.5269792,30.1973332 63.7504391,33.3313411 C58.9738991,36.4655869 57.7803573,36.4655869 56.4159705,34.114962 C55.0515838,31.7640993 57.9512022,25.6525699 63.9212841,25.6525699 C69.8913659,25.6525699 71.0849077,23.7721175 71.2557527,22.3618378 C71.4265976,20.951558 69.549676,19.3843162 67.5042823,19.0708678 C65.4565158,18.7574195 65.1148259,19.8544887 56.5868155,22.9884966 C50.8943567,25.080372 45.6052818,23.9072 42.9026096,23.3490336 C39.0253783,25.9793362 35.4044146,28.9057262 32.0753109,32.094433" id="Fill-156" fill="#F4D4C3"></path>
            <path d="M159.475814,100.285384 C158.32261,100.025684 158.578878,102.884532 157.041273,103.40441 C155.503669,103.924049 154.863,104.704103 155.247401,107.563189 C155.631802,110.422038 154.991134,114.190791 153.453529,115.620334 C151.915925,117.049877 149.737651,118.089632 149.609518,121.598208 C149.481384,125.107022 146.278041,128.485986 144.356036,129.655353 C142.43403,130.825195 139.484582,132.644765 139.484582,135.633465 C139.484582,137.558152 139.434752,140.01865 139.876101,141.910518 C150.048494,131.904904 157.482623,119.053997 160.927996,104.622054 C160.626644,102.703551 160.135465,100.433785 159.475814,100.285384" id="Fill-157" fill="#99B9FF"></path>
            <path d="M86.7362034,164.110414 C70.7479635,164.110414 55.4264935,159.171581 42.4280403,149.827348 C42.2690595,149.71248 42.2334668,149.489642 42.3473635,149.329588 C42.4612601,149.169772 42.6843077,149.132672 42.8432884,149.24754 C55.7207265,158.504255 70.8974529,163.396951 86.7362034,163.396951 C99.4404237,163.396951 112.014137,160.154258 123.092958,154.019422 C123.266176,153.923105 123.482105,153.986127 123.577019,154.159023 C123.671932,154.331444 123.610238,154.548337 123.437021,154.643703 C112.253795,160.837043 99.5614389,164.110414 86.7362034,164.110414" id="Fill-158" fill="#5479F7"></path>
            <path d="M161.955438,71.6567049 C161.789339,71.6567049 161.63985,71.5385078 161.60663,71.3684656 C160.835455,67.4203957 159.7392,63.4882598 158.348711,59.6807422 C153.958945,47.6702954 146.596003,36.9053183 137.052414,28.5506591 C136.902925,28.4210466 136.888688,28.1953542 137.016821,28.0471916 C137.147328,27.899029 137.372748,27.8838085 137.519865,28.0131832 C147.153622,36.4470368 154.58775,47.3123745 159.017854,59.4355485 C160.422579,63.2780258 161.528326,67.2467862 162.304247,71.2312428 C162.342212,71.4248292 162.216451,71.6122323 162.024251,71.6498081 C162.000522,71.6545645 161.979167,71.6567049 161.955438,71.6567049" id="Fill-159" fill="#E4C0AE"></path>
            <path d="M11.8254386,101.678303 C11.6664579,101.678303 11.5217143,101.571284 11.4813759,101.410041 C10.9640954,99.385469 10.3400367,93.2011662 10.3139354,92.9390873 C10.1312262,90.7544616 10.0410581,88.5355897 10.0410581,86.3383595 C10.0410581,65.5653902 18.0185681,46.0357502 32.5024233,31.3467231 C46.9886513,16.6565069 66.2490465,8.56630495 86.7362034,8.56630495 C101.81327,8.56630495 116.406276,12.9995301 128.934906,21.386533 C129.098632,21.4959307 129.141344,21.7173423 129.032193,21.8812011 C128.923042,22.0452977 128.702367,22.088819 128.538641,21.9796591 C116.128653,13.6713751 101.673272,9.27976858 86.7362034,9.27976858 C44.8388523,9.27976858 10.752912,43.8482707 10.752912,86.3383595 C10.752912,88.5160884 10.8430802,90.7149833 11.0210437,92.8736864 C11.0281622,92.9312392 11.6664579,99.260375 12.1718742,101.233102 C12.2193312,101.424072 12.1054345,101.618372 11.913234,101.667126 C11.8847598,101.674736 11.8539128,101.678303 11.8254386,101.678303" id="Fill-160" fill="#E4C0AE"></path>
            <path d="M47.2686472,152.191766 C47.8974515,152.148483 48.3554109,151.493999 48.1513461,150.9394 C46.9293301,147.620129 46.5639118,145.723743 46.6493342,144.011668 C46.8201792,140.557315 49.0079437,140.667188 47.6910139,136.825424 C46.8771275,134.450542 44.2314036,134.999195 43.0876916,132.503737 C41.7233048,129.532399 43.9419163,127.482618 42.9334566,124.943877 C41.7066949,121.854817 37.6728558,123.012293 33.387495,120.718269 C27.8445255,117.750261 29.5007724,113.085873 25.4194764,109.440788 C18.7944889,103.524985 4.25368539,104.15212 1.03847835,109.529019 C-1.99164666,114.598892 5.04858898,124.204728 13.875578,128.22248 C23.2862874,132.505164 27.8184242,129.367589 33.4159692,134.75638 C37.2813362,138.480422 33.5464757,142.041319 38.9589386,148.332642 C42.0388934,151.910186 44.9574947,152.35182 47.2686472,152.191766" id="Fill-161" fill="#FFFFFF"></path>
            <path d="M47.2686472,152.191766 C47.8974515,152.148483 48.3554109,151.493999 48.1513461,150.9394 C46.9293301,147.620129 46.5639118,145.723743 46.6493342,144.011668 C46.8201792,140.557315 49.0079437,140.667188 47.6910139,136.825424 C46.8771275,134.450542 44.2314036,134.999195 43.0876916,132.503737 C41.7233048,129.532399 43.9419163,127.482618 42.9334566,124.943877 C41.7066949,121.854817 37.6728558,123.012293 33.387495,120.718269 C27.8445255,117.750261 29.5007724,113.085873 25.4194764,109.440788 C18.7944889,103.524985 6.2278937,100.496808 1.03847835,109.529019 C-1.90385134,114.651213 5.04858898,124.204728 13.875578,128.22248 C23.2862874,132.505164 27.8184242,129.367589 33.4159692,134.75638 C37.2813362,138.480422 33.5464757,142.041319 38.9589386,148.332642 C42.0388934,151.910186 44.9574947,152.35182 47.2686472,152.191766" id="Fill-162" fill="#FFFFFF"></path>
            <path d="M11.4268004,104.177329 C10.6508796,104.177329 9.8797045,104.235357 9.11327507,104.359262 C5.67976615,104.915763 3.06726213,106.715119 1.3469484,109.707147 C0.571027586,111.056783 0.504587883,112.839728 1.15474783,114.862636 C2.71608084,119.732738 8.12854376,125.214755 14.0226945,127.897378 C18.1775488,129.788533 21.3476717,130.212806 24.142885,130.587374 C27.683172,131.061827 30.480758,131.436396 33.6603724,134.499057 C35.537294,136.306023 35.7200031,138.123928 35.9098309,140.048377 C36.1328784,142.272244 36.3844002,144.792911 39.2294431,148.099577 C42.354482,151.72968 45.2991846,151.970593 47.2449187,151.835986 C47.4442378,151.821954 47.6316927,151.707325 47.7455893,151.528721 C47.8452489,151.376753 47.8713502,151.206949 47.8167747,151.062829 C46.6279786,147.832741 46.2008662,145.850739 46.2934073,143.993594 C46.3669655,142.505546 46.7964507,141.645347 47.1761062,140.886697 C47.6838953,139.871201 48.0825335,139.069268 47.3540696,136.941243 C46.9910241,135.880561 46.2222219,135.480545 45.3300316,135.016794 C44.4188585,134.541627 43.3842974,134.003438 42.7626116,132.652851 C41.9890637,130.964559 42.3022794,129.526691 42.5775296,128.257915 C42.8124414,127.180823 43.035489,126.163424 42.6036309,125.075867 C41.953471,123.441322 40.4277306,123.124782 38.3182701,122.686478 C36.7806655,122.367084 35.0366233,122.004882 33.2213958,121.033145 C29.9895788,119.303471 29.0997613,116.974488 28.2384181,114.722083 C27.5835124,113.014051 26.9072512,111.247753 25.1821917,109.707385 C21.9171549,106.791935 16.62808,104.177329 11.4268004,104.177329 Z M46.4808621,152.577037 C44.4212313,152.577037 41.6165268,151.96655 38.690807,148.565469 C35.6962747,145.088047 35.4352616,142.447993 35.2027226,140.11901 C35.0081492,138.174584 34.856287,136.638735 33.1691931,135.013702 C30.155678,132.112284 27.4601244,131.751509 24.0479711,131.294417 C21.2029281,130.913427 17.9806025,130.481781 13.7284616,128.547106 C7.56855198,125.743907 2.12049637,120.206478 0.476113725,115.080955 C-0.235740232,112.86137 -0.147944911,110.879844 0.730008303,109.350891 C2.53574451,106.208797 5.39502457,104.238924 9.00175128,103.654835 C15.1236953,102.662407 21.777157,105.712465 25.656761,109.174428 C27.5099542,110.830139 28.2170624,112.678961 28.9028151,114.466425 C29.754667,116.69481 30.5614348,118.799528 33.5559671,120.403632 C35.2810265,121.32733 36.9704933,121.678116 38.4630137,121.987759 C40.6151855,122.434625 42.4731243,122.820371 43.2632822,124.811886 C43.7758171,126.102304 43.5219225,127.275714 43.2727736,128.410359 C42.9975234,129.682227 42.7341375,130.883699 43.4103987,132.354623 C43.9276793,133.482847 44.7676669,133.920438 45.6598572,134.383476 C46.5995045,134.872912 47.5723715,135.378996 48.0279581,136.709605 C48.8537086,139.120637 48.3482923,140.133755 47.812029,141.206091 C47.4489835,141.935964 47.0717009,142.690571 47.0052612,144.029505 C46.9174659,145.781533 47.332714,147.684341 48.4859174,150.815733 C48.616424,151.172702 48.5665942,151.573907 48.3435466,151.916369 C48.1086348,152.282614 47.7147423,152.518533 47.2923756,152.547547 C47.0384811,152.565146 46.7656037,152.577037 46.4808621,152.577037 L46.4808621,152.577037 Z" id="Fill-163" fill="#000000"></path>
            <path d="M46.8035693,152.156331 C46.7134011,152.156331 46.6256058,152.123036 46.5544204,152.056208 C43.2561637,148.863221 41.7019492,144.448308 40.0575666,139.773932 C38.7311454,136.006844 37.3596401,132.11157 34.9678108,128.253635 C27.0804689,115.54328 5.39502457,113.634289 5.17672269,113.616452 C4.97977643,113.600518 4.83503279,113.428336 4.84926987,113.232133 C4.86587979,113.035455 5.0343519,112.88872 5.233671,112.905367 C5.28824647,112.909648 10.845453,113.37982 17.3162055,115.442682 C23.3100158,117.353337 31.3421013,121.061445 35.5705138,127.876926 C38.0050543,131.800976 39.3884239,135.733587 40.7267093,139.536586 C42.3449906,144.129389 43.8707309,148.467011 47.0503453,151.54299 C47.1903432,151.679737 47.1950889,151.90543 47.0598367,152.047409 C46.9886513,152.119707 46.8961103,152.156331 46.8035693,152.156331" id="Fill-164" fill="#E4C0AE"></path>
            <path d="M45.3608786,151.801977 C45.9184975,151.582231 46.1083252,150.883274 45.7429069,150.405016 C44.1388626,148.304579 41.2985653,145.096371 39.7016396,141.427503 C36.6881245,134.50643 38.7240268,131.560301 33.8905385,128.893611 C30.511605,127.02838 28.7295973,131.119142 24.6459284,129.011571 C21.8602066,127.574655 21.7747841,125.243531 18.4266977,124.249677 C17.788402,124.060371 15.7287712,123.478898 13.628802,124.318407 C11.680695,125.097034 11.4813759,126.384598 9.49530336,128.406554 C5.89569518,132.070903 3.13132898,131.31582 2.31506978,133.706875 C1.59135159,135.823246 2.83709602,139.108508 5.02723336,140.179893 C9.15361346,142.198281 14.0179488,135.084098 18.0422965,136.94267 C21.4805512,138.530127 19.82905,144.596232 23.6184859,146.387026 C27.0306392,148.000405 30.35737,144.017613 33.449189,145.942776 C35.814917,147.414889 34.9678108,150.42856 37.2789633,152.038847 C39.3741868,153.49907 42.7863401,152.815334 45.3608786,151.801977" id="Fill-165" fill="#F4D4C3"></path>
            <path d="M43.9253064,151.079477 C43.8612396,151.079477 43.7947999,151.06164 43.7354787,151.024302 C40.8168775,149.17334 39.2887643,146.926405 37.5186208,144.324403 C35.8006799,141.797552 33.8549458,138.933234 30.1485595,135.695298 C20.0544704,126.877839 7.88651342,134.45839 7.76549825,134.535444 C7.59939899,134.641512 7.37872426,134.592283 7.27431902,134.425808 C7.16754092,134.259809 7.2173707,134.039111 7.38346996,133.933519 C7.51160367,133.851232 10.5915585,131.911563 15.0074258,131.069438 C19.1005861,130.28986 25.1299891,130.365249 30.6160103,135.157346 C34.3912091,138.455689 36.3654174,141.360199 38.1070867,143.922961 C39.8321462,146.459086 41.3199209,148.649419 44.117507,150.421425 C44.2836062,150.526542 44.3310632,150.747002 44.2266579,150.913477 C44.1602182,151.020735 44.0439487,151.079477 43.9253064,151.079477" id="Fill-166" fill="#F4D4C3"></path>
            <path d="M31.5414204,145.048093 C32.243783,145.048093 32.9437727,145.208384 33.6366439,145.639792 C34.9464552,146.45433 35.3474662,147.684341 35.7366131,148.873923 C36.0996586,149.977413 36.4389756,151.019783 37.4830281,151.745852 C39.7775707,153.345913 43.6666661,152.085698 45.230372,151.469741 C45.3893527,151.406956 45.5079951,151.275679 45.555452,151.108729 C45.6029089,150.939162 45.5673162,150.76151 45.4605381,150.622146 C45.1734237,150.245913 44.8459709,149.833531 44.4924167,149.389757 C42.8931182,147.377552 40.7053537,144.621917 39.3741868,141.570195 C38.2138648,138.905171 37.7914982,136.809966 37.4498083,135.126668 C36.9016807,132.415981 36.571855,130.779771 33.7196935,129.206346 C32.2366644,128.388241 31.114308,128.818698 29.8139881,129.317409 C28.3736703,129.869154 26.7411519,130.495099 24.482202,129.328586 C23.198492,128.665303 22.4676553,127.829599 21.7629199,127.021007 C20.9086951,126.042849 20.1019273,125.119151 18.3246653,124.591901 C16.2294418,123.969285 14.6870916,124.279642 13.7593086,124.64993 C12.6155965,125.10726 12.1362815,125.736773 11.4125634,126.689722 C10.9807053,127.257877 10.4918989,127.901897 9.74919794,128.656979 C7.90312334,130.53648 6.29907909,131.269921 5.00825059,131.859004 C3.8052174,132.409085 3.01031381,132.772475 2.65201399,133.822456 C1.95676996,135.858681 3.23336139,138.905409 5.18384123,139.859547 C7.10347407,140.797039 9.22954455,139.566552 11.4813759,138.263054 C13.721343,136.965739 16.0372412,135.623952 18.1917859,136.618758 C20.0236234,137.464926 20.524294,139.447403 21.0083547,141.364718 C21.5090253,143.347195 21.9835946,145.2198 23.770348,146.064541 C25.3150711,146.795603 26.8384386,146.282623 28.4519742,145.739439 C29.4699254,145.397214 30.5068593,145.048093 31.5414204,145.048093 Z M40.3826466,153.232234 C39.200969,153.232234 38.0287828,152.996553 37.0748985,152.331605 C35.8386455,151.469265 35.4423801,150.262798 35.0603518,149.096285 C34.6949334,147.978764 34.3508707,146.923313 33.2617341,146.245998 C31.8309077,145.354644 30.3004217,145.870003 28.6797675,146.415803 C27.0045379,146.979914 25.2699871,147.563528 23.4666237,146.709512 C21.3761459,145.721365 20.8375097,143.595719 20.3202292,141.539754 C19.8551513,139.70425 19.4185475,137.970296 17.8928072,137.266583 C16.0752068,136.426836 14.015576,137.618558 11.8373029,138.880675 C9.52377752,140.220322 7.13194822,141.606106 4.87299833,140.500476 C2.59981136,139.389137 1.16661206,135.96689 1.97812557,133.591056 C2.43608495,132.250696 3.43979903,131.791463 4.71401762,131.20999 C5.95027065,130.644927 7.4878752,129.941927 9.24140878,128.156366 C9.95326274,127.433865 10.427832,126.808871 10.845453,126.257125 C11.5857811,125.285388 12.1671285,124.517701 13.4959226,123.986884 C14.5281108,123.575216 16.2365603,123.227045 18.5287301,123.90769 C20.5029384,124.493681 21.4141114,125.539857 22.2968104,126.55131 C22.9896815,127.344444 23.6445872,128.093343 24.807282,128.694079 C26.7838631,129.714332 28.13164,129.197785 29.5600936,128.651034 C30.9031247,128.136151 32.2912399,127.603907 34.0637563,128.581114 C37.2030322,130.314117 37.577942,132.172215 38.1474251,134.985164 C38.4819965,136.635405 38.8972446,138.689229 40.0267196,141.285048 C41.3199209,144.250678 43.4744656,146.96398 45.0500357,148.945269 C45.4059627,149.393086 45.7357883,149.808798 46.0252756,150.188123 C46.2696788,150.507279 46.3479827,150.912526 46.2412046,151.299937 C46.1344265,151.684494 45.8615492,151.988667 45.4913851,152.133976 L45.3608786,151.801977 L45.4913851,152.133976 C44.4378413,152.548498 42.3948204,153.232234 40.3826466,153.232234 L40.3826466,153.232234 Z" id="Fill-167" fill="#E4C0AE"></path>
            <path d="M40.9924681,115.443633 C40.7409464,115.660288 43.7188688,127.453604 48.2723613,134.826537 C52.8258537,142.198995 51.3096048,149.784778 47.7740635,150.770547 C44.2385222,151.756078 43.313112,152.55159 43.7473429,153.511198 C44.179201,154.470807 56.717322,156.427124 60.6728572,153.959967 C64.6283923,151.493048 69.1249365,130.270596 69.6778097,121.285235 C70.2283101,112.299636 50.6997832,107.065429 40.9924681,115.443633" id="Fill-168" fill="#000000"></path>
            <path d="M44.0605587,153.339967 C44.9242748,154.16592 56.7149492,156.008321 60.4854023,153.656983 C64.2368727,151.318249 68.7713824,130.230167 69.3218828,121.263118 C69.4974734,118.396421 67.4425883,115.679314 63.6816266,113.808612 C57.4078204,110.687446 47.3683067,110.523112 41.3365309,115.617242 C41.4646646,116.999459 44.2954705,127.710689 48.5760856,134.638421 C51.940782,140.088807 51.8695966,145.272834 50.7828329,148.056293 C50.1516557,149.68085 49.1147218,150.766742 47.8689773,151.114198 C45.5578248,151.758932 44.3073347,152.34088 44.0486944,152.893101 C44.0059832,152.986565 43.9680177,153.121172 44.0605587,153.339967 Z M54.0976995,155.521739 C50.4126688,155.521739 46.4784893,154.909825 44.6751259,154.361409 C43.7236145,154.071267 43.5100583,153.851996 43.422263,153.658172 C43.2537909,153.285506 43.2490452,152.926158 43.405653,152.591068 C43.7710714,151.807447 45.0476628,151.160098 47.6791496,150.426657 C48.7042193,150.141034 49.5703083,149.206872 50.1208087,147.796355 C51.1458784,145.16629 51.198081,140.240537 47.9710097,135.014178 C45.5269778,131.0604 43.6429377,126.060923 42.4921071,122.563049 C41.9202511,120.825289 41.4029706,119.06779 41.0375522,117.613989 C40.4823061,115.411765 40.5867114,115.321868 40.7599292,115.17323 C44.4924167,111.951704 49.1052304,111.07343 52.3156917,110.903626 C56.4112248,110.686257 60.6681115,111.513162 63.999588,113.169586 C68.0286814,115.173944 70.2259373,118.14005 70.0313639,121.306877 C69.5140833,129.754524 65.1551643,151.585798 60.8626849,154.262713 C59.3725373,155.191167 56.8027445,155.521739 54.0976995,155.521739 L54.0976995,155.521739 Z" id="Fill-169" fill="#F5E3CA"></path>
            <path d="M115.139176,116.459843 C115.139176,116.459843 120.100798,131.850918 123.259057,142.345255 C126.419689,152.839591 119.220472,157.369372 109.795526,157.331323 C100.368207,157.292556 107.318274,153.148045 107.951824,151.943481 C108.587747,150.738917 96.3391133,123.549769 96.3391133,123.549769 L115.139176,116.459843" id="Fill-170" fill="#000000"></path>
            <path d="M96.8184283,123.749539 C97.4804525,125.224744 100.140413,131.166707 102.710206,137.153856 C108.744355,151.206473 108.433512,151.794129 108.267413,152.109956 C108.106059,152.41508 107.69793,152.796546 107.178276,153.279323 C106.316933,154.081018 105.016613,155.292479 105.282372,155.972886 C105.424743,156.34032 106.200663,156.959606 109.795526,156.974589 C109.835864,156.974589 109.876203,156.974589 109.914168,156.974589 C115.516459,156.974589 119.80182,155.360972 121.987211,152.425307 C123.84515,149.926281 124.160739,146.569673 122.91974,142.448231 C120.062833,132.958214 115.677812,119.296336 114.916129,116.925497 L96.8184283,123.749539 Z M109.914168,157.688052 C109.87383,157.688052 109.833491,157.688052 109.793153,157.688052 C106.644386,157.674972 105.000003,157.21241 104.617975,156.232111 C104.176625,155.10032 105.571859,153.800865 106.694216,152.756592 C107.088108,152.389634 107.496238,152.010547 107.621999,151.804831 C107.731149,150.342469 100.574644,133.823407 96.0140333,123.696504 L95.8574254,123.349761 L115.364597,115.994189 L115.478493,116.350207 C115.528323,116.504315 120.475708,131.864712 123.600747,142.24204 C124.910558,146.59179 124.559377,150.161487 122.556695,152.851958 C120.233678,155.972648 115.746625,157.688052 109.914168,157.688052 L109.914168,157.688052 Z" id="Fill-171" fill="#F5E3CA"></path>
            <path d="M24.002887,104.570685 C24.002887,104.570685 20.3415848,101.569143 22.9849358,99.5938004 C25.6306597,97.6186952 27.6594435,101.706842 27.6594435,101.706842 L24.002887,104.570685" id="Fill-172" fill="#000000"></path>
            <path d="M24.4466093,99.4111537 C24.0313612,99.4111537 23.6184859,99.5662131 23.198492,99.8798993 C22.6622287,100.280628 22.3940971,100.734867 22.3822328,101.268537 C22.3561315,102.432672 23.5283177,103.649603 24.0171241,104.106696 L27.2014841,101.613378 C26.8716585,101.052358 25.9913324,99.731261 24.8547389,99.4601449 C24.7171138,99.4275634 24.5818616,99.4111537 24.4466093,99.4111537 Z M23.9981413,105.027302 L23.7774666,104.846795 C23.6896713,104.774973 21.6300405,103.065514 21.6703789,101.253792 C21.6869888,100.495856 22.0595257,99.8411344 22.7737525,99.3077015 C23.4998435,98.7657069 24.2567816,98.5828224 25.0208382,98.7666582 C26.7909817,99.1904556 27.929948,101.452373 27.9774049,101.548215 L28.1079115,101.808867 L23.9981413,105.027302 L23.9981413,105.027302 Z" id="Fill-173" fill="#F5E3CA"></path>
            <path d="M119.267929,100.498234 C119.899106,100.423321 126.576297,102.98085 126.991545,109.743534 C127.406793,116.50598 119.99402,110.900059 119.99402,110.900059 L119.267929,100.498234" id="Fill-174" fill="#000000"></path>
            <path d="M120.338083,110.710991 C121.496032,111.555969 124.383786,113.289924 125.771902,112.542214 C126.436299,112.184531 126.728159,111.250369 126.635618,109.765414 C126.277318,103.921909 121.128241,101.406711 119.654703,100.936539 L120.338083,110.710991 Z M124.960388,113.432854 C122.782115,113.432854 119.922835,111.292939 119.780464,111.184731 L119.649958,111.086986 L118.888274,100.183835 L119.225218,100.144119 C119.744871,100.079669 121.766537,100.880413 123.53668,102.363942 C125.152589,103.716431 127.124424,106.091076 127.347472,109.721654 C127.456623,111.509357 127.039002,112.669924 126.108846,113.170775 C125.767156,113.355087 125.375636,113.432854 124.960388,113.432854 L124.960388,113.432854 Z" id="Fill-175" fill="#CADDFF"></path>
            <path d="M25.0066011,122.831073 C25.0066011,122.831073 31.548539,124.48726 35.5135655,122.614894 C39.4762192,120.742765 48.6567624,112.105812 54.104818,115.325911 C59.5505008,118.546011 63.7931504,129.782825 63.7931504,129.782825 C63.7931504,129.782825 61.8569076,137.370273 58.6535648,141.034146 C55.450222,144.697782 55.032601,146.98919 58.4898384,150.459477 C61.9470758,153.930002 63.9284026,155.773829 67.3690301,156.171942 C70.8096575,156.570055 70.833386,152.267156 70.1333963,149.669672 C69.4310337,147.071951 69.4310337,147.071951 69.4310337,147.071951 C69.4310337,147.071951 76.9031274,145.023359 80.0898603,139.631477 C83.278966,134.239357 83.480658,133.806046 83.480658,133.806046 L91.9161274,132.161513 C91.9161274,132.161513 91.7239268,140.814875 88.8836295,143.654698 C86.0457051,146.494284 79.1573316,152.919499 80.1040974,154.944785 C81.053236,156.970546 93.2022102,159.855793 96.327249,156.799314 C99.4546608,153.742836 114.828333,133.315897 118.330655,126.462603 C121.832976,119.609309 125.235638,108.217197 121.560099,100.69301 C117.886933,93.1690604 108.388428,83.2269446 88.1361828,80.8368415 C67.8863106,78.4469761 68.3466428,76.4224042 63.7290835,75.4361596 C59.113897,74.4501529 35.1244187,96.4957035 26.9001326,99.4442108 C20.0402333,101.902569 15.5365706,118.045159 14.2267593,123.344291 C13.9704919,124.382381 14.5352294,125.460662 15.5223335,125.7753 C17.6389126,126.449761 21.4188571,126.805779 25.0066011,122.831073" id="Fill-176" fill="#000000"></path>
            <path d="M92.2815457,131.726775 L92.2720543,132.169599 C92.2649358,132.528709 92.0418882,140.999662 89.1351512,143.907027 C88.8266812,144.216432 88.4707542,144.568407 88.0792345,144.952489 C85.3552067,147.635112 79.6888492,153.217014 80.4268045,154.793293 C80.7613759,155.506994 83.3904898,156.689203 87.0541648,157.35534 C90.3951327,157.962974 94.5215128,158.068328 96.080473,156.544132 C99.1011066,153.590631 114.486643,133.201267 118.015066,126.299933 C121.707215,119.074211 124.768187,108.073316 121.242138,100.849734 C118.788614,95.8257611 110.647378,83.8528901 88.0958445,81.1909573 C73.4577543,79.4636618 69.6350985,77.9375631 66.8422581,76.8231329 C65.8076971,76.4107509 64.9155068,76.0544947 63.6555253,75.7850433 C61.3277628,75.2884726 52.7143299,81.8237995 45.1141025,87.5909639 C38.1094596,92.9055545 30.8651592,98.4016027 27.0187749,99.7800144 C20.2941279,102.191046 15.792838,118.491549 14.5731949,123.430145 C14.3596387,124.297003 14.8247167,125.177893 15.6314845,125.435453 C17.9497555,126.175077 21.4117386,126.280908 24.7432151,122.591587 L24.8855859,122.432723 L25.0943964,122.485281 C25.1584633,122.501215 31.5604032,124.087245 35.3617033,122.292408 C36.3535532,121.8239 37.6918386,120.912807 39.2436802,119.857594 C43.7995456,116.756644 50.0425048,112.509633 54.2851543,115.018646 C59.7759212,118.265144 63.9497582,129.19279 64.1253489,129.656542 L64.1656873,129.761897 L64.1372131,129.871057 C64.0565363,130.184267 62.144022,137.583598 58.9216964,141.269114 C55.6281855,145.03644 55.5878471,147.041272 58.7413601,150.207386 C62.1487677,153.62892 64.0826376,155.432556 67.4093685,155.817589 C68.2707118,155.917473 68.9113803,155.707002 69.3693397,155.174996 C70.3516982,154.031076 70.2757671,151.567248 69.7893335,149.76266 L68.9944299,146.822001 L69.3384927,146.728062 C69.4120509,146.707847 76.708554,144.651407 79.7837631,139.449544 C82.861345,134.248394 83.1508323,133.672629 83.1603237,133.650511 L83.2386276,133.492122 L83.4142183,133.455736 L92.2815457,131.726775 Z M91.3751184,158.482137 C89.5195524,158.482137 87.7517817,158.207454 86.9260311,158.057389 C83.8959061,157.506357 80.3674833,156.3446 79.7837631,155.096515 C78.903437,153.218203 82.970496,148.985699 87.5809368,144.443551 C87.9700836,144.061135 88.3260106,143.710348 88.6321078,143.402132 C90.978853,141.054599 91.4557951,134.384428 91.5435905,132.597915 L83.7155698,134.124013 C83.4996407,134.515943 82.7759226,135.790189 80.3983303,139.813172 C77.5248132,144.669006 71.3933778,146.837697 69.8652646,147.314767 L70.4750862,149.576446 C71.0279594,151.623374 71.065925,154.292203 69.9079759,155.640412 C69.2934086,156.355302 68.4273196,156.65353 67.3286917,156.526534 C63.7646762,156.113914 61.7596209,154.24892 58.2383167,150.711567 C54.4227794,146.883359 55.3481896,144.274223 58.3854331,140.799179 C61.2921701,137.476341 63.1667189,130.742909 63.4182406,129.803515 C62.9721455,128.658644 58.9216964,118.588105 53.9244817,115.633176 C50.0686061,113.353898 44.0415759,117.454173 39.6423184,120.447867 C38.0667484,121.519965 36.7071073,122.445565 35.6654277,122.937617 C31.9851427,124.675614 26.3021753,123.498875 25.1276163,123.226808 C21.3951287,127.238376 17.4490849,126.763922 15.4155554,126.115622 C14.2504878,125.744145 13.5789722,124.4894 13.8826966,123.258676 C15.4725038,116.817288 19.9120996,101.569857 26.7791174,99.1084073 C30.5234693,97.76662 37.7226856,92.3043424 44.6846173,87.0220955 C53.1556794,80.5937882 61.1592907,74.5214992 63.8026417,75.0872759 C65.1243173,75.3693318 66.0426089,75.7358143 67.1056441,76.1600874 C69.8605189,77.2600105 73.6333449,78.7658944 88.1788941,80.4827257 C111.079236,83.1853259 119.37708,95.4071958 121.880433,100.536286 C125.522753,107.996499 122.414324,119.252815 118.648616,126.625035 C115.098838,133.567274 99.6160143,154.082207 96.5763979,157.054497 C95.4374316,158.168689 93.3564452,158.482137 91.3751184,158.482137 L91.3751184,158.482137 Z" id="Fill-177" fill="#F4D4C3"></path>
            <path d="M35.6061065,104.773546 C35.5847509,104.773546 35.5633953,104.771644 35.5420397,104.767601 C35.3474662,104.732165 35.2193325,104.546189 35.2549252,104.352603 C35.2596709,104.328345 35.6844104,101.914935 34.7827288,100.679454 C34.4932415,100.285147 34.1064675,100.06207 33.5986783,99.9971452 C31.1712564,99.6867885 30.4143183,102.779416 30.4071998,102.810808 C30.3621157,103.002254 30.1699151,103.120213 29.9777146,103.075741 C29.7878868,103.030079 29.6692445,102.83792 29.7143286,102.646236 C30.0204258,101.348207 31.2471874,98.9764165 33.6888465,99.2891514 C34.3912091,99.3792857 34.9535737,99.7058142 35.3569576,100.259462 C36.4389756,101.743704 35.9762706,104.369964 35.9549149,104.481026 C35.9240679,104.653209 35.7745786,104.773546 35.6061065,104.773546" id="Fill-178" fill="#F5E3CA"></path>
            <path d="M83.480658,134.162778 C83.4213368,134.162778 83.3572699,134.146844 83.3026945,134.113549 C83.1318495,134.013902 83.0749012,133.795344 83.1745608,133.625302 C89.7378543,122.423685 82.1589825,114.000058 82.0830514,113.916345 C81.9477991,113.771512 81.9572905,113.54582 82.1020341,113.412164 C82.2467778,113.278033 82.4721982,113.287308 82.6050776,113.431903 C82.6881272,113.5218 84.6504713,115.675033 85.7918105,119.297763 C86.8453543,122.64034 87.3531435,127.902135 83.789128,133.986553 C83.7226883,134.099756 83.604046,134.162778 83.480658,134.162778" id="Fill-179" fill="#F4D4C3"></path>
            <path d="M92.3123927,132.447849 L92.1771405,131.747228 C100.700405,130.085809 105.377286,123.51029 105.424743,123.443938 L106.008463,123.853229 C105.961006,123.921721 101.115653,130.731732 92.3123927,132.447849" id="Fill-180" fill="#F4D4C3"></path>
            <path d="M24.9164329,113.726326 C25.1015149,114.03692 24.7788078,114.592946 24.1950876,114.968466 C23.6113673,115.343748 23.4120482,115.113299 23.2245933,114.802705 C23.0395113,114.492348 22.9398518,114.219805 23.523572,113.844285 C24.1072923,113.468765 24.7313509,113.415969 24.9164329,113.726326" id="Fill-181" fill="#CDB594"></path>
            <path d="M14.2267593,123.344291 C14.2267593,123.344291 16.7657051,122.444614 17.4775591,123.101 C18.189413,123.757625 16.1843577,125.95866 16.1843577,125.95866 C16.1843577,125.95866 13.7071059,125.352929 14.2267593,123.344291" id="Fill-182" fill="#FFFFFF"></path>
            <path d="M135.469725,121.530191 C135.469725,121.530191 140.860833,142.218258 140.035082,155.489395 L143.712994,155.489395 L146.482106,123.342627 L135.469725,121.530191" id="Fill-183" fill="#FFFFFF"></path>
            <path d="M140.412365,155.132663 L143.385541,155.132663 L146.100078,123.640854 L135.94904,121.970636 C136.770045,125.264935 141.045915,143.137913 140.412365,155.132663 Z M143.712994,155.846127 L140.035082,155.846127 C139.937795,155.846127 139.842881,155.80546 139.776442,155.733875 C139.710002,155.662053 139.674409,155.565736 139.681528,155.467278 C140.493041,142.405899 135.180238,121.826754 135.125663,121.620325 C135.094816,121.503555 135.125663,121.379412 135.206339,121.289992 C135.289389,121.200809 135.408031,121.159666 135.529046,121.178216 L146.539054,122.990413 C146.724136,123.020617 146.85227,123.187329 146.83566,123.373068 L144.066548,155.520074 C144.049938,155.704623 143.895703,155.846127 143.712994,155.846127 L143.712994,155.846127 Z" id="Fill-184" fill="#000000"></path>
            <path d="M166.810282,79.6037385 L162.674411,85.0774315 C162.674411,85.0774315 157.983293,85.1238066 155.600955,86.2137412 C153.218617,87.3036758 147.025488,92.1029079 146.199737,93.7441121 C145.373987,95.3850784 150.076969,97.9100262 155.014862,96.0925965 C155.014862,96.0925965 158.161257,99.4144832 151.942026,101.263781 C142.196745,104.161157 122.188903,99.2853463 114.436814,103.438656 C114.436814,103.438656 108.374191,105.745046 105.3061,108.63933 C103.592905,110.255087 105.904058,110.424416 108.28165,110.25913 C106.940992,112.892763 106.98133,115.38608 106.88167,118.960771 C106.70608,125.26446 101.89632,131.48182 101.801406,135.392314 C101.775305,136.523391 102.235637,155.287009 102.235637,155.287009 L103.974933,155.287009 C103.974933,155.287009 103.851545,137.682056 111.273809,132.783415 L115.082228,155.287009 L118.245232,155.287009 C118.245232,155.287009 114.104615,135.747857 118.245232,133.584159 C122.383477,131.420462 126.03766,130.58785 127.110187,128.10571 L142.149288,128.283362 C142.149288,128.283362 149.654602,143.29654 149.619009,155.287009 L153.218617,155.287009 C153.218617,155.287009 153.980301,140.486682 153.365734,135.392314 C152.751167,130.298183 154.908084,126.007651 159.425984,121.533045 C163.943884,117.058439 172.870532,113.043303 164.268964,88.6825632 C164.268964,88.6825632 171.641398,87.1873813 166.810282,79.6037385" id="Fill-185" fill="#FFFFFF"></path>
            <path d="M149.972563,154.930278 L152.8793,154.930278 C152.988451,152.693093 153.565053,140.015083 153.01218,135.435122 C152.411849,130.460378 154.3125,126.094456 159.176835,121.27929 C159.67276,120.787 160.213769,120.307552 160.787998,119.799804 C165.317762,115.788236 171.522755,110.293852 163.932019,88.8014738 C163.8988,88.7044428 163.908291,88.5969476 163.958121,88.5070512 C164.010323,88.4173926 164.095746,88.3538943 164.197778,88.3332039 C164.223879,88.3274962 166.924179,87.7510175 167.809251,85.6512941 C168.411954,84.2231777 168.065518,82.4028941 166.781808,80.2346782 L162.959152,85.2926597 C162.892713,85.3808914 162.788307,85.4329742 162.679156,85.4341633 C162.634072,85.4346389 158.033123,85.4926673 155.748072,86.5383672 C153.403699,87.6118921 147.303111,92.3440586 146.517699,93.9046414 C146.358718,94.2209436 146.569901,94.5631683 146.776339,94.7945683 C147.884458,96.0426541 151.322713,97.0724199 154.891474,95.7575064 C155.026726,95.7092287 155.176216,95.7437128 155.273502,95.8469272 C155.323332,95.8992479 156.481281,97.1451932 156.085016,98.6346674 C155.743326,99.9101026 154.383685,100.909665 152.044058,101.605768 C147.471583,102.964203 140.633039,102.633393 134.019916,102.313048 C126.47901,101.947993 118.679463,101.570095 114.602913,103.753293 C114.591049,103.760666 114.576812,103.766849 114.562575,103.772319 C114.500881,103.794912 108.530799,106.087509 105.550503,108.899269 C105.094917,109.327585 105.052206,109.549948 105.073561,109.599414 C105.083053,109.620105 105.329829,110.106449 108.255549,109.90335 C108.386055,109.893599 108.50707,109.955433 108.578256,110.062452 C108.649441,110.169472 108.65656,110.306695 108.597238,110.421324 C107.394205,112.787646 107.337257,115.054795 107.25658,118.192608 L107.237597,118.970759 C107.137938,122.56067 105.58135,126.086845 104.207472,129.197785 C103.1302,131.63783 102.197671,133.745164 102.157333,135.401113 C102.133604,136.425885 102.520378,152.35729 102.584445,154.930278 L103.621379,154.930278 C103.645108,152.319239 104.084084,137.10201 111.076863,132.485425 C111.178895,132.419311 111.304656,132.408371 111.41618,132.456173 C111.525331,132.504213 111.603635,132.604811 111.624991,132.723722 L115.383579,154.930278 L117.806256,154.930278 C117.113385,151.549887 114.040548,135.378758 118.079133,133.267857 C119.267929,132.647381 120.43537,132.126077 121.465185,131.666369 C124.037351,130.518882 126.07088,129.612545 126.782734,127.963968 C126.839682,127.83174 126.970189,127.753734 127.11256,127.748978 L142.154034,127.92663 C142.286913,127.928295 142.407929,128.00416 142.46725,128.123546 C142.543181,128.272898 149.863412,143.051822 149.972563,154.930278 Z M153.218617,155.643741 L149.619009,155.643741 C149.524095,155.643741 149.433927,155.606165 149.365115,155.538624 C149.298675,155.471559 149.263082,155.380473 149.263082,155.28582 C149.296302,144.247111 142.794703,130.433028 141.926241,128.637478 L127.333235,128.465295 C126.44579,130.225886 124.364804,131.154578 121.754672,132.318237 C120.684519,132.79602 119.576399,133.290212 118.408959,133.900461 C115.207989,135.572582 117.457447,149.851843 118.591668,155.212809 C118.615396,155.318164 118.589295,155.428037 118.520483,155.511513 C118.454043,155.595226 118.35201,155.643741 118.245232,155.643741 L115.082228,155.643741 C114.90901,155.643741 114.761894,155.518172 114.73342,155.346703 L111.017542,133.402939 C104.292895,138.552244 104.33086,155.114113 104.33086,155.284393 C104.333233,155.379284 104.295268,155.470845 104.228828,155.538149 C104.162388,155.605928 104.069847,155.643741 103.974933,155.643741 L102.235637,155.643741 C102.043436,155.643741 101.884456,155.489157 101.87971,155.295809 C101.860727,154.529311 101.419378,136.510549 101.445479,135.383514 C101.490563,133.586062 102.44682,131.418797 103.55494,128.90907 C104.902716,125.858299 106.43083,122.400617 106.525743,118.950782 L106.547099,118.174534 C106.620657,115.18084 106.677606,112.956736 107.700302,110.649633 C105.156611,110.759744 104.606111,110.305743 104.421029,109.885513 C104.143405,109.246488 104.833904,108.594144 105.061697,108.379629 C108.087076,105.527202 113.826992,103.290018 114.287324,103.113316 C118.541838,100.849259 126.077999,101.214314 134.053136,101.600536 C140.609311,101.918027 147.386161,102.246458 151.839993,100.921556 C153.894879,100.310831 155.124013,99.4577667 155.39689,98.4546368 C155.619938,97.6246408 155.147742,96.8486301 154.898593,96.512351 C150.952549,97.865078 147.417008,96.5889294 146.244821,95.2692595 C145.746524,94.7082392 145.616017,94.1096433 145.881776,93.5833449 C146.790576,91.779471 153.190143,86.9250645 155.453839,85.8893531 C157.641603,84.8883636 161.604257,84.7440061 162.496447,84.7237913 L166.527913,79.3885103 C166.596726,79.2955222 166.710623,79.241299 166.824519,79.2468013 C166.940789,79.2520009 167.047567,79.3135966 167.111634,79.4120546 C168.751271,81.9864692 169.204484,84.1808455 168.461783,85.9343013 C167.638406,87.8789654 165.597758,88.673526 164.731669,88.9303729 C172.282066,110.572103 165.915719,116.211558 161.260194,120.334426 C160.693084,120.835515 160.159193,121.30878 159.677506,121.787038 C154.986388,126.431924 153.147432,130.614961 153.719288,135.349744 C154.331482,140.416287 153.605391,154.699829 153.574544,155.305322 C153.565053,155.495103 153.408445,155.643741 153.218617,155.643741 L153.218617,155.643741 Z" id="Fill-186" fill="#000000"></path>
            <path d="M111.273809,133.140147 C111.102964,133.140147 110.951102,133.016956 110.922628,132.843108 C110.40772,129.796619 115.243582,126.120378 116.358819,125.317969 L111.746006,110.96213 C111.686685,110.774489 111.788717,110.57353 111.976172,110.513123 C112.163627,110.452955 112.362946,110.555931 112.42464,110.743334 L117.11813,125.349124 C117.165587,125.499427 117.108639,125.663762 116.980505,125.752944 C116.921184,125.793136 111.129066,129.804229 111.624991,132.723722 C111.65821,132.917784 111.527704,133.102096 111.33313,133.134915 C111.311775,133.138482 111.292792,133.140147 111.273809,133.140147" id="Fill-187" fill="#000000"></path>
            <path d="M108.28165,110.615862 C108.120296,110.615862 107.975553,110.507416 107.935214,110.345222 C107.887757,110.154013 108.004027,109.960427 108.196227,109.912863 C108.217583,109.907155 110.44094,109.348513 111.923969,108.592955 C112.09956,108.503296 112.313116,108.573691 112.403284,108.749204 C112.49108,108.924953 112.422267,109.139468 112.246676,109.228889 C110.692462,110.021785 108.461986,110.581854 108.367072,110.605398 C108.338598,110.612533 108.310124,110.615862 108.28165,110.615862" id="Fill-188" fill="#000000"></path>
            <path d="M157.302286,89.37058 C156.834835,88.7993334 155.150114,91.1325973 155.150114,91.1325973 C155.150114,91.1325973 158.510065,90.8450715 157.302286,89.37058" id="Fill-189" fill="#000000"></path>
            <path d="M158.498201,85.0774315 C158.498201,85.0774315 155.000625,82.8828174 154.461989,77.3946173 C153.92098,71.906655 151.557625,78.8098913 154.172502,82.3032471 C156.785006,85.7968406 149.863412,82.1814826 148.596312,77.3846288 C147.326839,72.5880128 146.154653,78.6567344 148.178691,81.0299523 C150.202729,83.4031702 142.619112,76.7315717 144.104514,70.1182395 C145.592289,63.5051451 147.564124,63.4758931 147.023115,62.4539753 C146.482106,61.4320576 142.320133,62.3819155 141.864547,66.4203575 C141.40896,70.4590373 142.747246,74.0394356 141.738786,73.9949631 C140.732699,73.9504905 139.209331,72.1694474 139.168993,67.4819914 C139.126282,62.7947731 138.364598,62.1229282 137.18292,62.7567217 C135.99887,63.3907531 135.391421,68.4254281 138.020535,71.4433793 C140.647276,74.4613304 140.438466,74.698676 138.893743,74.2820133 C137.351393,73.8653505 138.366971,77.4352847 142.149288,79.983539 C145.931606,82.5317932 150.731874,87.0071128 158.498201,85.0774315" id="Fill-190" fill="#000000"></path>
            <path d="M160.384614,85.0774315 C160.384614,85.0774315 163.88219,82.8828174 164.423199,77.3946173 C164.961835,71.906655 167.32519,78.8098913 164.712686,82.3032471 C162.097809,85.7968406 169.019402,82.1814826 170.288875,77.3846288 C171.555975,72.5880128 172.730534,78.6567344 170.706496,81.0299523 C168.682458,83.4031702 176.263703,76.7315717 174.778301,70.1182395 C173.290526,63.5051451 171.318691,63.4758931 171.8597,62.4539753 C172.400709,61.4320576 176.562681,62.3819155 177.018268,66.4203575 C177.473854,70.4590373 176.135569,74.0394356 177.144029,73.9949631 C178.150116,73.9504905 179.673483,72.1694474 179.716194,67.4819914 C179.756533,62.7947731 180.518217,62.1229282 181.702267,62.7567217 C182.883945,63.3907531 183.491393,68.4254281 180.864652,71.4433793 C178.235538,74.4613304 178.444349,74.698676 179.989072,74.2820133 C181.531422,73.8653505 180.515844,77.4352847 176.733526,79.983539 C172.951209,82.5317932 168.15094,87.0071128 160.384614,85.0774315" id="Fill-191" fill="#000000"></path>
            <path d="M97.3285903,151.385552 L96.3367404,151.385552 L96.3367404,155.252525 C96.3367404,155.428275 96.2086067,155.577389 96.0353889,155.599982 C94.7611703,155.766219 93.762202,155.382614 91.2137648,154.964762 C91.1852906,155.572157 88.9951533,156.039238 87.7256804,156.459944 C87.5595811,156.515118 87.5073785,156.721785 87.623648,156.8533 C88.1148272,157.40885 88.4351615,158.033369 88.45889,158.776798 C88.4612628,158.881915 88.5490581,158.964439 88.6534634,158.97086 C90.1175097,159.061945 91.0429198,158.632203 91.4202024,159.709533 L96.8374111,156.522966 C97.0628315,156.349357 97.193338,156.077765 97.1862195,155.791428 C97.162491,154.611122 97.3285903,151.385552 97.3285903,151.385552" id="Fill-192" fill="#E4C0AE"></path>
            <path d="M119.517078,145.308983 C104.641703,142.645385 103.419687,132.989606 94.0635535,132.989606 C92.817809,132.989606 91.6883341,133.041451 90.6680101,133.146806 C90.3808957,133.176296 90.1293739,132.960592 90.112764,132.671877 C89.9727661,130.56597 90.8958034,126.424314 91.5293534,122.834403 L86.3518023,124.499151 L82.1091527,137.373602 C81.7983098,138.492075 81.269165,141.226544 81.392553,142.700797 C81.9430534,149.248967 89.5836192,154.631812 98.9397531,154.631812 C108.295887,154.631812 126.032915,146.475734 119.517078,145.308983" id="Fill-193" fill="#F4D4C3"></path>
            <path d="M92.1913776,120.919942 C92.1913776,123.233704 90.328693,125.109638 88.0317776,125.109638 C85.7348622,125.109638 83.2125263,123.872017 83.2125263,121.558016 C83.2125263,119.244254 85.7348622,116.730246 88.0317776,116.730246 C90.328693,116.730246 92.1913776,118.606179 92.1913776,120.919942" id="Fill-194" fill="#F4D4C3"></path>
            <path d="M91.3157972,123.051533 L86.3518023,124.499151 L84.1165808,131.281812 C86.2307871,131.18383 88.428043,130.877516 90.2764904,129.983308 C90.5564863,127.865986 90.8910577,125.445204 91.3157972,123.051533" id="Fill-195" fill="#F4D4C3"></path>
            <path d="M84.1165808,131.638306 C83.9220074,131.638306 83.7630267,131.482057 83.7606272,131.287044 C83.758281,131.090128 83.9148889,130.927934 84.1118351,130.924842 C86.4372247,130.890358 88.4043145,130.476787 90.1246282,129.660585 C90.3025917,129.576158 90.5161479,129.652737 90.5991975,129.830627 C90.6822472,130.008755 90.6063161,130.221367 90.4307254,130.305794 C88.613125,131.166231 86.5511214,131.602157 84.1213265,131.638306 C84.1213265,131.638306 84.1189537,131.638306 84.1165808,131.638306" id="Fill-196" fill="#FFFFFF"></path>
            <path d="M90.6964842,142.203513 C93.9520297,144.419056 98.802128,145.821012 104.561026,146.434828 C104.860005,146.466696 103.531211,144.917529 103.834935,144.945116 C104.133914,144.972466 106.065411,146.576332 106.366763,146.599638 C107.043024,146.65077 107.728777,146.691913 108.424021,146.723068 C108.753846,146.737813 107.401324,145.731353 107.733522,145.741579 C108.222329,145.756562 110.400602,146.785377 110.896527,146.790609 C114.522236,146.82866 118.366248,146.609389 122.298054,146.137314 C113.240899,142.351676 103.085116,138.03641 98.0001058,135.124289 C96.2608093,134.127343 92.1012094,133.748731 90.5090294,134.941643 C89.154134,135.956188 88.7768514,137.223775 88.9595606,139.306375 C89.061593,140.460759 89.6927702,141.521442 90.6964842,142.203513" id="Fill-197" fill="#E4C0AE"></path>
            <path d="M82.8162609,121.854817 C81.779327,123.544061 80.697309,125.140555 79.7007135,126.181023 C79.5607155,126.328234 79.6580022,126.574379 79.8596942,126.588886 C81.2264538,126.686631 83.4521838,125.606447 85.3718166,124.546953 C85.5070689,124.472277 85.490459,124.274648 85.3457153,124.220187 C84.4962363,123.899366 83.9481087,123.056528 83.5684533,121.943049 C83.4521838,121.606294 83.001343,121.551833 82.8162609,121.854817" id="Fill-198" fill="#E4C0AE"></path>
            <path d="M88.0317776,117.086977 C85.9033343,117.086977 83.5684533,119.427138 83.5684533,121.558254 C83.5684533,122.915262 84.6006415,124.020655 86.3304466,124.515085 C86.4253605,124.541721 86.5036644,124.605219 86.5487485,124.691073 C86.5938326,124.777164 86.6009511,124.877762 86.572477,124.970037 L82.4484697,137.485378 C82.1566096,138.536548 81.6274648,141.246045 81.74848,142.67107 C82.0071203,145.751568 83.8959061,148.648468 87.0660291,150.827862 C90.3002189,153.050777 94.5167672,154.27508 98.9397531,154.27508 C106.708453,154.27508 119.773346,148.736224 120.537402,146.387264 C120.577741,146.26764 120.6774,146.177506 120.798415,146.149918 C120.931295,146.120429 121.059428,146.090225 121.187562,146.059309 C115.820183,143.812136 110.281959,141.461749 105.609825,139.316602 C105.583723,139.304948 105.559995,139.28949 105.536266,139.271653 C104.988139,138.833587 104.461367,138.39766 103.951205,137.976241 C100.826166,135.38946 98.3584057,133.346338 94.0635535,133.346338 C92.8320461,133.346338 91.7001983,133.398659 90.7036028,133.501635 C90.4710638,133.524704 90.2408977,133.45526 90.0629342,133.303054 C89.880225,133.14966 89.7710741,132.933718 89.756837,132.695183 C89.6453132,130.992859 90.1815766,128.13734 90.7486869,125.113681 C90.8649564,124.488687 90.9835987,123.863455 91.0927496,123.250828 C91.102241,123.200647 91.1235966,123.152845 91.1520708,123.110989 C91.5981659,122.46578 91.8354506,121.708081 91.8354506,120.919942 C91.8354506,118.806425 90.1293739,117.086977 88.0317776,117.086977 Z M98.9397531,154.988544 C89.479214,154.988544 81.6179734,149.604272 81.0389989,142.731001 C80.9084923,141.198243 81.4495013,138.423107 81.7674628,137.277998 L85.7823191,125.089661 C83.9409902,124.453014 82.8565993,123.152845 82.8565993,121.558254 C82.8565993,119.038538 85.5165603,116.373514 88.0317776,116.373514 C90.5208936,116.373514 92.5473045,118.413068 92.5473045,120.919942 C92.5473045,121.827943 92.2815457,122.701936 91.7808751,123.452738 C91.674097,124.04301 91.5602004,124.644222 91.4486766,125.245434 C90.9147861,128.092392 90.3619129,131.036143 90.4663181,132.64857 C90.4710638,132.706837 90.5019108,132.742272 90.5208936,132.757968 C90.5422492,132.776518 90.5802148,132.798398 90.6300445,132.791977 C91.6527414,132.686622 92.8083177,132.632874 94.0635535,132.632874 C98.6146731,132.632874 101.298363,134.854124 104.404419,137.426161 C104.900344,137.836878 105.412878,138.261389 105.946769,138.686375 C110.88229,140.951622 116.788305,143.447794 122.435679,145.807932 C122.575677,145.866436 122.663473,146.00675 122.653981,146.158242 C122.64449,146.309734 122.542457,146.438871 122.397714,146.48049 C121.999076,146.593931 121.574336,146.702853 121.135359,146.805116 C120.347574,148.411598 116.268651,150.457812 112.607349,151.874037 C107.567423,153.824171 102.456312,154.988544 98.9397531,154.988544 L98.9397531,154.988544 Z" id="Fill-199" fill="#000000"></path>
            <path d="M101.027858,152.967063 C100.650575,152.967063 100.344478,153.274566 100.344478,153.653891 L100.344478,156.837366 C100.344478,157.012164 100.216344,157.159138 100.043127,157.181493 C98.7689081,157.34773 95.5821752,157.671643 93.0313652,157.253791 C93.0028911,157.860948 93.0028911,157.620749 91.735791,158.041217 C91.5696918,158.096391 91.5174891,158.304723 91.6337586,158.436714 C92.122565,158.991788 92.4428993,159.615831 92.4666278,160.358071 C92.4713734,160.463188 92.5567959,160.54595 92.6612012,160.552371 C94.1252475,160.643457 95.3401449,160.963088 95.7174275,162.040181 L100.845149,158.104477 C101.070569,157.930868 101.201076,157.659276 101.193957,157.372939 C101.174974,156.415709 101.281753,154.1136 101.322091,153.27742 C101.32921,153.107854 101.19633,152.967063 101.027858,152.967063" id="Fill-200" fill="#E4C0AE"></path>
            <path d="M82.1827109,124.08011 C82.4769439,124.06156 82.7166014,123.802335 82.908802,123.333827 C82.9349033,123.271042 82.8684636,123.20802 82.8091424,123.239412 C82.4555883,123.425388 82.2183036,123.686516 82.1827109,124.08011" id="Fill-201" fill="#99B9FF"></path>
            <path d="M108.051484,147.213217 C108.025382,147.213217 107.999281,147.210363 107.97318,147.20418 C106.324051,146.830563 105.071188,146.071913 104.107813,145.326819 C104.200354,145.630517 104.349843,145.930885 104.551535,146.23268 C104.627466,146.347548 104.632212,146.497137 104.561026,146.61581 C104.489841,146.734483 104.354589,146.802024 104.219337,146.786328 C96.1231842,145.92375 91.2469846,144.107034 89.3131147,141.232251 C88.3426205,139.789866 88.1290643,138.07684 88.6819375,136.140499 C88.736513,135.950956 88.9334593,135.841796 89.1209142,135.895543 C89.3107419,135.949529 89.4198928,136.146921 89.3653173,136.336464 C88.8670196,138.084926 89.0426102,139.55585 89.9039535,140.833187 C91.6337586,143.406175 96.2418266,145.143221 103.607142,146.000329 C103.376976,145.499715 103.263079,144.985546 103.267825,144.46448 C103.267825,144.325354 103.350875,144.199785 103.476636,144.142232 C103.602396,144.085155 103.751886,144.107034 103.856291,144.197882 C104.696279,144.926804 105.825754,145.790333 107.363358,146.295941 L106.943364,145.479976 C106.872179,145.339186 106.900653,145.167241 107.01455,145.058081 C107.130819,144.948921 107.301664,144.928707 107.439289,145.008377 C109.997218,146.498327 114.695454,146.288568 119.671313,146.066919 L120.684519,146.022208 C120.879092,146.013409 121.047564,146.166566 121.057296,146.363244 C121.064174,146.559922 120.912312,146.726635 120.715366,146.735196 L119.704533,146.779669 C115.179515,146.980866 110.877544,147.173263 108.056229,146.088085 L108.367072,146.693102 C108.431139,146.816531 108.416902,146.965407 108.33148,147.075043 C108.26504,147.163275 108.160635,147.213217 108.051484,147.213217" id="Fill-202" fill="#000000"></path>
            <path d="M173.375949,163.901131 C169.394312,169.135339 165.464878,173.787359 162.346958,176.603162 C160.880539,177.927827 159.067684,179.297677 156.951105,180.669667 L139.826272,175.744628 C137.977824,175.218805 132.342314,177.433158 130.581661,178.146622 L112.317862,185.695067 C112.175491,185.751907 109.61519,186.455857 109.470446,186.508416 C102.601055,189.01743 95.7079361,186.04728 92.1866319,184.601328 C82.5172823,180.960047 70.4655948,175.247344 58.5467867,166.193728 C53.8129579,162.597871 49.7625089,158.980611 46.31239,155.529825 C45.8876505,155.261087 45.7215512,154.785207 45.8876505,154.354988 C47.3089856,150.654252 50.8350355,149.707962 54.8119263,151.239292 C57.3484992,152.217213 59.7355828,153.458164 61.9541943,154.899599 L71.0042309,160.785674 L78.0420937,163.967721 C79.4278361,160.340948 85.8202846,161.603541 90.2314063,161.292233 L105.211186,160.291005 L118.926239,154.148084 C124.713612,151.553692 131.466733,151.084946 137.659863,152.84958 L152.478289,158.283557 L173.375949,163.901131" id="Fill-203" fill="#FFFFFF"></path>
            <path d="M95.4303131,172.577563 C93.7598291,172.577563 92.1913776,172.497417 90.7225856,172.337125 C85.2033445,171.734249 81.1101843,169.993397 78.5570014,167.163087 C78.424122,167.017065 78.4359863,166.79161 78.5831027,166.659382 C78.7278464,166.527153 78.9532668,166.538093 79.0837734,166.684829 C84.0477683,172.187298 95.3520091,173.320516 111.776853,169.960816 C111.96668,169.921575 112.156508,170.045718 112.196847,170.239067 C112.234812,170.43194 112.111424,170.620294 111.919224,170.659772 C105.678637,171.936159 100.157023,172.577563 95.4303131,172.577563" id="Fill-204" fill="#000000"></path>
            <path d="M103.792224,187.840452 C99.1200894,187.840452 94.9177782,186.110779 92.3147656,185.039156 L92.0513796,184.930948 C79.6508837,180.261566 68.3015588,174.052054 58.3308577,166.477924 C53.9909214,163.180771 49.8716598,159.591098 46.0869696,155.808551 C45.5507063,155.44849 45.3324044,154.803995 45.555452,154.226327 C46.9862784,150.501095 50.5811409,149.228276 54.94006,150.906581 C57.4220574,151.862622 59.8471066,153.105475 62.1487677,154.600182 L71.1750759,160.47175 L77.8617574,163.494695 C79.1715687,160.866295 83.03219,160.922421 86.7717961,160.976644 C87.9938121,160.994718 89.1493883,161.01089 90.205305,160.936452 L105.123391,159.939268 L118.781496,153.822506 C124.606834,151.21004 131.523682,150.730355 137.757149,152.506404 C137.766641,152.508782 137.773759,152.511636 137.783251,152.514728 L152.585067,157.943472 L173.46849,163.556291 C173.658317,163.607422 173.769841,163.803149 173.720011,163.993406 C173.667809,164.183901 173.473235,164.295915 173.283408,164.245734 L152.385748,158.628635 C152.376257,158.625781 152.366765,158.622452 152.354901,158.618885 L137.550712,153.189188 C131.478597,151.462131 124.744459,151.930401 119.070983,154.473661 L105.35593,160.616583 C105.317965,160.633706 105.277626,160.64417 105.234915,160.647024 L90.2551348,161.648251 C89.1707439,161.724592 87.9439823,161.706755 86.7599319,161.690108 C83.1104939,161.637074 79.3352951,161.582375 78.3742922,164.095194 C78.3386996,164.186993 78.2675142,164.260004 78.177346,164.297579 C78.0871778,164.33468 77.9851454,164.33349 77.8949773,164.292823 L70.8571145,161.110775 C70.8405045,161.103403 70.8262675,161.094841 70.8096575,161.084853 L61.7596209,155.198778 C59.500671,153.731183 57.1207059,152.510922 54.6837926,151.572718 C50.6760548,150.02902 47.5130504,151.11729 46.219849,154.483174 C46.1130709,154.75976 46.2245947,155.05228 46.5022177,155.228268 C46.5235734,155.242299 46.544929,155.258946 46.5639118,155.277497 C50.331992,159.046963 54.4370165,162.624032 58.7627157,165.909532 C68.6788414,173.441805 79.9664723,179.618022 92.3123927,184.266951 L92.5852701,184.37944 C96.1469127,185.845132 102.776646,188.574131 109.349431,186.173326 C109.420616,186.147403 109.769425,186.048945 110.607039,185.814216 C111.233471,185.638228 112.092441,185.397315 112.189728,185.362118 L130.446409,177.816764 C133.827716,176.4462 138.215109,174.91487 139.923558,175.401452 L157.048392,180.327205 C157.238219,180.381428 157.34737,180.57882 157.292795,180.768363 C157.238219,180.957669 157.041273,181.066829 156.853818,181.012843 L139.728985,176.087566 C138.5829,175.76294 135.211085,176.65477 130.714541,178.477431 L112.453114,186.024925 C112.367692,186.059172 111.96668,186.173801 110.796867,186.501281 C110.26535,186.650633 109.662647,186.819962 109.589088,186.844695 C107.629117,187.560299 105.673892,187.840452 103.792224,187.840452" id="Fill-205" fill="#000000"></path>
            <path d="M5.99772759,57.2913525 C7.34313156,56.6822924 8.91395596,57.3101404 9.50716759,58.6935463 C10.1003792,60.0769523 9.48818482,61.6919962 8.14278084,62.3010563 C6.79737686,62.9098786 5.22417962,62.2820306 4.63334083,60.8986246 C4.0401292,59.5152186 4.64995076,57.9001748 5.99772759,57.2913525" id="Fill-206" fill="#F9EFEA"></path>
            <path d="M34.5145971,166.220602 C34.3651078,166.220602 34.2251098,166.126425 34.1752801,165.977073 L33.5702042,164.164875 C33.5085102,163.978186 33.6081697,163.776038 33.7956246,163.713253 C33.9807066,163.650944 34.1847714,163.75178 34.2464654,163.938707 L34.8515413,165.750905 C34.9132353,165.937595 34.8135758,166.139743 34.6261209,166.20229 C34.5881553,166.214894 34.5501898,166.220602 34.5145971,166.220602" id="Fill-207" fill="#000000"></path>
            <path d="M35.8742382,170.298522 C35.7271217,170.298522 35.5871237,170.204107 35.537294,170.054755 L34.9322181,168.24232 C34.8705241,168.05563 34.9701836,167.85372 35.1576385,167.790935 C35.3427205,167.72815 35.5444125,167.829224 35.6084794,168.016152 L36.2135552,169.828587 C36.2752492,170.015277 36.1755897,170.217425 35.9881348,170.28021 C35.9501693,170.292577 35.9122037,170.298522 35.8742382,170.298522" id="Fill-208" fill="#000000"></path>
            <path d="M32.1180221,168.419259 C31.9709056,168.419259 31.8309077,168.325557 31.7810779,168.176681 C31.7193839,167.989992 31.8190435,167.787606 32.0041255,167.724583 L33.8027431,167.11481 C33.990198,167.052025 34.19189,167.15191 34.2559568,167.338599 C34.3176508,167.525289 34.2179913,167.727437 34.0305364,167.790697 L32.2319188,168.400233 C32.1939532,168.413075 32.1559877,168.419259 32.1180221,168.419259" id="Fill-209" fill="#000000"></path>
            <path d="M36.1660983,167.047744 C36.0189818,167.047744 35.8789839,166.953805 35.8291541,166.805166 C35.7674601,166.618477 35.8671196,166.416329 36.0522017,166.353068 L37.8531922,165.743532 C38.0382742,165.68051 38.2399661,165.780633 38.304033,165.967084 C38.365727,166.153774 38.2660675,166.35616 38.0809854,166.419182 L36.2799949,167.028956 C36.2420294,167.041798 36.2040638,167.047744 36.1660983,167.047744" id="Fill-210" fill="#000000"></path>
            <path d="M186.825243,49.1084003 C186.685245,49.1084003 186.549992,49.0242115 186.495417,48.885324 C185.0812,45.372229 183.386988,41.9228702 181.460237,38.6333272 C173.833908,25.6107133 162.700512,15.238379 149.270201,8.63741349 C149.092237,8.55084657 149.018679,8.3370453 149.106474,8.16010632 C149.191897,7.98340516 149.405453,7.90968059 149.583416,7.99696097 C163.139489,14.6595222 174.374917,25.1286497 182.074804,38.2720768 C184.018165,41.5920609 185.728988,45.0728121 187.155068,48.6180129 C187.228627,48.8008974 187.140831,49.0087532 186.958122,49.0824777 C186.915411,49.1000765 186.870327,49.1084003 186.825243,49.1084003" id="Fill-211" fill="#000000"></path>
            <path d="M187.477775,40.3537258 C187.349642,40.3537258 187.226254,40.284282 187.162187,40.1627554 C180.197882,26.8607016 169.992269,15.5501626 157.653467,7.45306386 C157.489741,7.34509303 157.444657,7.12391931 157.551435,6.95934703 C157.660586,6.79406129 157.881261,6.74839961 158.044987,6.85613262 C170.483449,15.0193457 180.769738,26.4219215 187.793364,39.8309948 C187.883532,40.0055556 187.817092,40.2212594 187.643875,40.3128206 C187.589299,40.3406457 187.534724,40.3537258 187.477775,40.3537258" id="Fill-212" fill="#000000"></path>
            <path d="M182.715472,92.9509783 C182.518526,92.9509783 182.359545,92.7914003 182.359545,92.5944843 L182.357173,91.122371 C182.357173,90.9252172 182.516153,90.7654014 182.7131,90.7654014 C182.910046,90.7654014 183.069027,90.9249794 183.069027,91.1218954 L183.071399,92.5940087 C183.071399,92.7911625 182.912419,92.9509783 182.715472,92.9509783" id="Fill-213" fill="#000000"></path>
            <path d="M182.7131,87.7988196 C182.516153,87.7988196 182.357173,87.6392416 182.357173,87.4423256 L182.357173,85.9699745 C182.357173,85.7728207 182.516153,85.6130049 182.710727,85.6130049 C182.907673,85.6130049 183.069027,85.7725829 183.069027,85.9694988 L183.069027,87.44185 C183.069027,87.6390038 182.910046,87.7988196 182.7131,87.7988196" id="Fill-214" fill="#000000"></path>
            <path d="M186.001865,89.6402692 L186.001865,89.6402692 L184.540191,89.6395558 C184.343245,89.6395558 184.184264,89.4797399 184.184264,89.2825861 C184.184264,89.0856702 184.343245,88.9260921 184.540191,88.9260921 L186.001865,88.9268056 C186.198811,88.9268056 186.357792,89.0866215 186.357792,89.2837752 C186.357792,89.4806912 186.198811,89.6402692 186.001865,89.6402692" id="Fill-215" fill="#000000"></path>
            <path d="M180.886008,89.637891 L179.424334,89.6374154 C179.227388,89.6374154 179.068407,89.4775995 179.068407,89.2806836 C179.068407,89.0835298 179.227388,88.9239518 179.424334,88.9239518 L180.886008,88.9244274 C181.082954,88.9244274 181.241935,89.0842432 181.241935,89.2811592 C181.241935,89.478313 181.082954,89.637891 180.886008,89.637891" id="Fill-216" fill="#000000"></path>
            <path d="M138.651712,7.849274 C138.561544,7.849274 138.471376,7.8145521 138.400191,7.74534613 C138.262566,7.60645854 138.260193,7.38076621 138.400191,7.24092734 L139.432379,6.19950826 C139.572377,6.05966939 139.795425,6.05919374 139.935422,6.19808133 C140.07542,6.33696892 140.07542,6.56289907 139.937795,6.70250012 L138.905607,7.7439192 C138.834422,7.81407646 138.744254,7.849274 138.651712,7.849274" id="Fill-217" fill="#000000"></path>
            <path d="M142.267931,4.20442612 C142.177762,4.20442612 142.085221,4.16970422 142.016409,4.10049825 C141.876411,3.96161066 141.876411,3.73591833 142.014036,3.59607946 L143.048597,2.55466038 C143.186222,2.41482151 143.411643,2.41434586 143.551641,2.55323345 C143.691639,2.69212104 143.691639,2.91781337 143.551641,3.05765224 L142.519452,4.09907132 C142.45064,4.16922858 142.358099,4.20442612 142.267931,4.20442612" id="Fill-218" fill="#000000"></path>
            <path d="M143.300119,7.849274 C143.209951,7.849274 143.11741,7.81407646 143.048597,7.7439192 L142.014036,6.70250012 C141.876411,6.56289907 141.876411,6.33696892 142.016409,6.19808133 C142.156407,6.05919374 142.381827,6.05966939 142.519452,6.19950826 L143.551641,7.24092734 C143.691639,7.38076621 143.691639,7.60645854 143.551641,7.74534613 C143.482828,7.8145521 143.390287,7.849274 143.300119,7.849274" id="Fill-219" fill="#000000"></path>
            <path d="M139.686274,4.20442612 C139.593733,4.20442612 139.501192,4.16922858 139.432379,4.09907132 L138.400191,3.05765224 C138.260193,2.91781337 138.262566,2.69212104 138.400191,2.55323345 C138.540189,2.41434586 138.765609,2.41482151 138.905607,2.55466038 L139.937795,3.59607946 C140.07542,3.73591833 140.07542,3.96161066 139.935422,4.10049825 C139.86661,4.16970422 139.776442,4.20442612 139.686274,4.20442612" id="Fill-220" fill="#000000"></path>
            <path d="M189.74859,56.090831 C190.142482,53.1584955 193.877342,53.1601602 194.273608,56.0929714 C193.879715,59.0253069 190.144855,59.0236422 189.74859,56.090831" id="Fill-221" fill="#F9EFEA"></path>
            <path d="M46.3479827,177.379886 C46.7395024,174.447313 50.4767357,174.448978 50.873001,177.381789 C50.4791085,180.314362 46.7442481,180.312698 46.3479827,177.379886" id="Fill-222" fill="#FFFFFF"></path>
            <path d="M129.281342,12.0736922 C129.281342,13.81383 127.881362,15.2243476 126.151557,15.2243476 C124.424125,15.2243476 123.024145,13.81383 123.024145,12.0736922 C123.024145,10.3335544 124.424125,8.92303677 126.151557,8.92303677 C127.881362,8.92303677 129.281342,10.3335544 129.281342,12.0736922" id="Fill-223" fill="#FFFFFF"></path>
            <path d="M19.5134614,34.2723996 C19.3829548,34.2723996 19.2548211,34.1991507 19.1931271,34.072392 C19.1077046,33.8952152 19.1812629,33.6818896 19.3568535,33.5953227 L20.7425959,32.9161053 C20.9181865,32.8297762 21.1317427,32.9027873 21.219538,33.0799641 C21.3049605,33.2571409 21.2314023,33.4704665 21.0558116,33.5570334 L19.6700693,34.2362508 C19.6202395,34.2607464 19.565664,34.2723996 19.5134614,34.2723996" id="Fill-224" fill="#000000"></path>
            <path d="M22.7429055,32.690413 C22.6100261,32.690413 22.4842652,32.6169262 22.4225712,32.4904053 C22.3371487,32.3132285 22.4083341,32.0996651 22.5862976,32.0130981 L23.97204,31.3341186 C24.1476306,31.2475517 24.3611868,31.3208006 24.4489822,31.4977396 C24.5344046,31.6749164 24.4608464,31.8884798 24.2852557,31.9750467 L22.8995134,32.6542641 C22.8473107,32.6787597 22.7951081,32.690413 22.7429055,32.690413" id="Fill-225" fill="#000000"></path>
            <path d="M22.9422246,35.4662621 C22.8117181,35.4662621 22.6835843,35.3920619 22.6218903,35.2648276 L21.9480019,33.8685792 C21.8625794,33.6914024 21.9361377,33.477839 22.1141012,33.3919855 C22.2896918,33.3063699 22.503248,33.3805701 22.5886705,33.5577469 L23.2625589,34.9539952 C23.3479814,35.1314099 23.2744231,35.3447355 23.0988325,35.4305889 C23.0490027,35.4548467 22.9944272,35.4662621 22.9422246,35.4662621" id="Fill-226" fill="#000000"></path>
            <path d="M21.3737731,32.2138192 C21.2408937,32.2138192 21.1127599,32.139619 21.0510659,32.0123847 L20.3771775,30.6161363 C20.291755,30.4389595 20.3653133,30.2256339 20.5432768,30.1395426 C20.7212403,30.053927 20.9324236,30.1278894 21.0178461,30.3055418 L21.6917345,31.7017902 C21.7795298,31.878967 21.7035987,32.0922926 21.5280081,32.1783839 C21.4781783,32.2024038 21.4259757,32.2138192 21.3737731,32.2138192" id="Fill-227" fill="#000000"></path>
            <path d="M16.0752068,40.981336 C15.8830062,40.981336 15.6908056,41.0336567 15.515215,41.1432923 C15.282676,41.2914549 15.1213225,41.5200011 15.0620013,41.7870743 C15.0026801,42.048202 15.0525099,42.3157508 15.1972536,42.540254 C15.4986051,43.0120913 16.1392736,43.1483629 16.6185886,42.8444274 C16.8535004,42.6965026 17.014854,42.4679564 17.0741752,42.2008832 C17.1311235,41.9397555 17.0836665,41.6722066 16.9389229,41.4477034 C16.7443495,41.1461461 16.4145238,40.981336 16.0752068,40.981336 Z M16.0633425,43.7191339 C15.4891137,43.7193716 14.9267491,43.4392182 14.5969234,42.9267135 C14.3501473,42.5409675 14.2670977,42.0812591 14.3667573,41.6327283 C14.4664168,41.178252 14.7392942,40.7901278 15.1355595,40.5399398 C15.9470731,40.027673 17.0243454,40.2619268 17.5368802,41.0610061 C17.7860291,41.4467521 17.8690787,41.9064605 17.7694192,42.3552291 C17.6673868,42.8097055 17.3945094,43.1975919 16.9982441,43.4480176 C16.7087568,43.6316156 16.3836768,43.7191339 16.0633425,43.7191339 L16.0633425,43.7191339 Z" id="Fill-228" fill="#000000"></path>
        </g>
    </g>
</svg>