<?xml version="1.0" encoding="UTF-8"?>
<svg width="199px" height="197px" viewBox="0 0 199 197" version="1.1" xmlns="http://www.w3.org/2000/svg" xmlns:xlink="http://www.w3.org/1999/xlink">
    <title>06</title>
    <g id="Page-1" stroke="none" stroke-width="1" fill="none" fill-rule="evenodd">
        <g id="06">
            <path d="M150.574617,49.6413055 C129.856763,28.9482173 135.786744,15.9792194 121.611244,6.39852471 C99.7978147,-8.34324626 59.0869084,4.33968297 35.0679761,24.6169296 C5.65010638,49.4518561 -9.52767727,94.7977624 7.76231804,135.821143 C26.1742015,179.50913 74.5541345,201.552993 117.781515,194.716236 C156.387386,188.61407 194.402411,159.05759 198.205828,122.845751 C198.617266,118.920596 200.435251,97.7036799 187.675866,79.4111529 C177.129161,64.2911935 166.998678,66.0443112 150.574617,49.6413055" id="Fill-44" fill="#F9EFEA"></path>
            <g id="Group-Copy-3" transform="translate(3.411429, 50.924158)">
                <g id="Group-31" transform="translate(143.280000, 66.767230)">
                    <path d="M0.695838241,21.3784222 C0.66930892,20.5121135 4.18981574,21.4794662 5.55177291,19.4651968 C6.79811617,17.6247992 4.75899187,15.4878791 6.00152369,13.8735911 C7.33044831,12.1460577 10.3237049,13.7367052 11.6043512,11.9229985 C12.5915161,10.5252878 11.1075926,9.16329189 12.0299628,7.57416961 C13.1378235,5.66475715 15.6139938,7.05382516 18.0368038,5.20961463 C20.299533,3.48716521 19.4394164,1.28605991 21.850792,0.360141669 C22.1658717,0.239397355 24.0804887,-0.452912414 25.4475278,0.481013083 C27.6696016,2.00035786 28.0215252,7.53794631 25.4487983,10.2998136 C23.2826257,12.625222 20.6628909,11.2426361 18.595816,13.8779125 C16.8425503,16.1115552 18.2629496,17.69356 16.4448893,19.1027097 C14.292692,20.7703793 11.5865645,19.1119879 9.36449068,21.1340103 C8.19945829,22.1932557 8.57552109,22.9820338 7.43843932,23.5107668 C5.038498,24.6254275 0.725210147,22.3330649 0.695838241,21.3784222" id="Fill-52" fill="#F4D4C3"></path>
                    <path d="M4.62940266,22.3377676 C3.81121197,22.3377676 2.86470256,22.1640229 1.79368587,21.8166605 C1.69458824,21.7841231 1.63868702,21.6765971 1.67171956,21.5764429 C1.7047521,21.4764158 1.81147263,21.4215089 1.91184074,21.4539192 C3.9103096,22.1028881 5.436159,22.1248763 6.44619254,21.520265 C7.18180187,21.0802473 7.38380857,20.4539021 7.61757734,19.7288007 C7.85769852,18.9810756 8.13085224,18.1337048 9.07355021,17.440124 C10.065797,16.7109554 10.9627576,16.6855356 11.7555386,16.6631661 C12.5102052,16.6418134 13.1619627,16.623384 13.8429413,16.066435 C14.8059669,15.2789279 14.7869097,14.2302317 14.7678525,13.1201466 C14.7475247,11.9784138 14.727197,10.7979157 15.7512059,9.82636882 C16.573208,9.04661475 17.5082831,8.93858036 18.4967184,8.82406391 C19.5334321,8.70433639 20.6044488,8.5802875 21.7135799,7.67851812 C22.5432049,7.00400225 23.154307,6.08380347 23.5290993,4.94334165 C23.5621319,4.84356871 23.6701229,4.78840763 23.7692205,4.82183474 C23.8695886,4.85475345 23.9242194,4.96240654 23.8911868,5.06256077 C23.4922553,6.27330849 22.8404978,7.25298973 21.9537011,7.97440524 C20.7581771,8.94633342 19.5804399,9.08258384 18.5411853,9.20294686 C17.5768891,9.31454003 16.7434526,9.41075418 16.0141957,10.103191 C15.1121532,10.9590776 15.12994,12.005613 15.1489972,13.1134104 C15.1693249,14.2656924 15.1896526,15.4571211 14.0843329,16.3615595 C13.3029862,17.0008689 12.5216395,17.0228571 11.7657025,17.0443368 C10.9932492,17.0660708 10.1953862,17.0886945 9.29969608,17.74745 C8.45609574,18.3679487 8.2134336,19.1192326 7.97966483,19.845732 C7.74462558,20.5773155 7.50069296,21.3338104 6.64184683,21.8474186 C6.09680987,22.1741908 5.42345418,22.3377676 4.62940266,22.3377676" id="Fill-53" fill="#FFFFFF"></path>
                    <path d="M0.00357612604,21.0930843 C0.119190027,20.5205021 3.01334901,21.5831792 7.2300802,19.9457592 C9.78374989,18.9543848 11.5433681,17.4693568 13.1810199,16.0646556 C17.2325884,12.5891258 16.9391069,11.1407025 19.4622851,9.97278719 C22.4898447,8.57113635 23.5659433,10.6925504 27.2211213,9.62758555 C31.7275224,8.31401451 31.6424001,4.633982 35.9988844,3.66065573 C38.378498,3.12899945 41.6855637,3.49466407 43.3028879,5.64378577 C44.2811594,6.94439268 44.7677541,9.06517124 43.8911213,10.382174 C43.04498,11.6532938 41.559786,11.2292907 39.5562352,12.0907696 C35.9798271,13.628925 36.819616,16.6550317 33.8212775,18.6557015 C29.7519223,21.3707963 27.496816,17.259643 22.430132,20.3420547 C20.3897372,21.5835605 19.1027385,22.1125477 17.2071787,23.3353698 C10.8090292,27.4635544 -0.227651677,22.2250305 0.00357612604,21.0930843" id="Fill-54" fill="#E4C0AE"></path>
                    <path d="M6.59610946,22.8154067 C5.16427576,22.8154067 3.59522996,22.6283165 1.89532447,22.2532466 C1.79368587,22.2306229 1.72762079,22.1289435 1.75048947,22.0259931 C1.77335815,21.9234239 1.87372627,21.8577136 1.97790583,21.8809728 C6.59102754,22.8984025 10.1966567,22.5117665 12.6969661,20.7326308 C13.8683509,19.8987324 14.6598615,18.8689741 15.4272328,17.8730241 C16.6189454,16.3245736 17.7445928,14.8621693 20.117854,14.2247664 C21.7872679,13.7763602 23.0793485,14.0217889 24.2177008,14.238239 C25.5275682,14.4868452 26.6570271,14.7016429 28.1193523,13.9138816 C29.1408202,13.3636688 29.6134397,12.7082179 30.2131074,11.8783867 C30.8089637,11.0527498 31.4835898,10.117172 32.8760386,9.01700062 C34.2507006,7.93119148 35.8248283,7.08598128 37.5552254,6.50501048 C37.6555935,6.47120207 37.7635845,6.52521926 37.796617,6.6251193 C37.8309201,6.72501933 37.7762893,6.83292662 37.6771917,6.86648083 C35.98745,7.43347071 34.4514368,8.25758243 33.1123483,9.31606522 C31.7618255,10.383445 31.1024451,11.2961449 30.5218346,12.101573 C29.9196259,12.9367424 29.3987282,13.6579037 28.2997608,14.2495508 C26.7192807,15.1014973 25.4703965,14.8642029 24.1465538,14.6128005 C22.9942262,14.3938085 21.8012432,14.1674447 20.2169516,14.5929731 C17.9681977,15.1970759 16.8806648,16.6097844 15.7296077,18.1056158 C14.94572,19.123681 14.1351522,20.1765715 12.91803,21.0432614 C11.25878,22.2236324 9.14342674,22.8154067 6.59610946,22.8154067" id="Fill-55" fill="#F9EFEA"></path>
                </g>
                <g id="Group-54" transform="translate(0.000000, 55.450750)">
                    <path d="M51.1171269,45.1872988 C51.7592068,44.0879857 46.5024127,42.8846509 46.1419468,39.335046 C45.8115198,36.0917276 49.9625097,34.7534253 49.4781336,31.8040897 C48.9618414,28.6482018 43.9509902,28.6161378 43.558608,25.3830724 C43.2544649,22.891582 46.1400694,22.1664119 46.0555852,19.4728433 C45.9523268,16.2366088 41.7581561,16.3050246 39.8995039,12.2368019 C38.1647618,8.43720912 40.8269525,6.19440169 38.3393625,3.31907447 C38.0145677,2.94455862 36.0075988,0.716478292 33.5763316,0.97038102 C29.620594,1.38348561 25.2799841,8.28751464 26.6899314,13.6448249 C27.8764649,18.1559792 32.2527459,18.1951272 33.0957104,23.0375481 C33.8091325,27.141936 30.8521858,28.19539 32.2283394,31.2808115 C33.8579456,34.9322012 38.5402471,34.6762478 40.0140269,38.8345109 C40.7856492,41.0128173 39.7436775,41.7693058 40.8513591,43.2431347 C43.1925099,46.3554005 50.4093372,46.399209 51.1171269,45.1872988" id="Fill-56" fill="#E4C0AE"></path>
                    <path d="M49.431198,44.9926773 C49.4143011,44.9926773 49.3974043,44.9913724 49.3805075,44.9882033 C46.1588437,44.4030339 44.0298421,43.2804185 43.0535803,41.6514889 C42.2969775,40.3903641 42.5110041,39.2440735 42.717521,38.1354395 C42.9221605,37.0346351 43.1343097,35.8963604 42.4734555,34.5075386 C41.7694206,33.0333369 40.7462232,32.4481675 39.7568195,31.8818265 C38.7899448,31.3279755 37.7892765,30.7551098 37.2204163,29.3856756 C36.4168778,27.4480361 37.2786166,25.9244333 38.1140713,24.4509772 C38.9157324,23.0341926 39.6723353,21.6960767 39.0997202,19.9625661 C38.6359959,18.5605085 37.6203082,17.8562174 36.4450392,17.0406341 C35.1758989,16.1611091 33.7396677,15.1643265 32.8666644,13.0769925 C32.2189523,11.5280368 32.0574936,9.80943966 32.3879206,7.96911092 C32.416082,7.81717941 32.5643987,7.71651313 32.7145928,7.74298463 C32.8685418,7.77020181 32.9699228,7.91542224 32.9436389,8.06735376 C32.6319861,9.80067796 32.7803028,11.4139483 33.3867115,12.8626106 C34.1958823,14.799318 35.5025711,15.7056874 36.7660791,16.5820433 C37.9732643,17.4186919 39.1128622,18.2091086 39.6347867,19.7880779 C40.2862537,21.7555444 39.4301473,23.2651657 38.6040796,24.7251996 C37.8005411,26.1447806 37.0420608,27.4856927 37.7404635,29.1725986 C38.236104,30.3658669 39.0715588,30.8438453 40.0384334,31.3975098 C41.0522437,31.9780187 42.2031061,32.6360779 42.9822381,34.268363 C43.7219441,35.8203015 43.483511,37.1043558 43.2713618,38.2372243 C43.0667223,39.3361645 42.8902442,40.2852238 43.5379563,41.3651493 C44.4278565,42.8494177 46.4273157,43.8832976 49.4818885,44.4380807 C49.6358375,44.4658571 49.7372185,44.6116368 49.7090571,44.7633819 C49.6827731,44.8983493 49.5644953,44.9926773 49.431198,44.9926773" id="Fill-57" fill="#F9EFEA"></path>
                    <path d="M49.8367221,49.9137671 C50.0864198,49.0935233 45.3271438,49.2706214 40.9921661,44.2203433 C38.3656465,41.1623254 37.1171579,38.019114 35.9719277,35.0651179 C33.1388912,27.7563732 34.5375739,26.0910919 32.0743904,22.8263353 C29.1193212,18.90818 26.2318393,20.8967119 22.2254113,16.9763195 C17.2840248,12.1413554 19.9762544,7.45012032 14.9916871,3.15949977 C12.2694188,0.815093963 7.71290477,-1.01535456 4.1026137,0.632403306 C1.91728931,1.62974515 -0.202325152,4.02895816 0.0154563169,6.33980854 C0.223850653,8.56993948 2.45235585,9.05705242 4.45369245,11.5643885 C8.02831242,16.0412416 4.81415833,19.3624832 7.31113551,24.0339578 C10.6998903,30.3736965 18.6564236,28.0648967 23.0852726,35.5731098 C24.8688277,38.5971994 23.7273524,39.2230081 25.3344295,42.122197 C30.7620693,51.9065866 49.3429589,51.5356127 49.8367221,49.9137671" id="Fill-58" fill="#F4D4C3"></path>
                    <path d="M46.3878897,50.9241582 C46.3634832,50.9241582 46.3371992,50.9222941 46.3109152,50.9148373 C39.4395344,48.9704867 34.9017947,45.86139 32.8234836,41.6757234 C31.8490992,39.7088161 31.5318142,37.7851581 31.2276711,35.925069 C30.7789662,33.1923523 30.3546678,30.6110079 27.8539358,28.2651107 C26.0910323,26.611201 24.3806968,26.0731957 22.7285615,25.5529002 C20.8304834,24.9559864 19.0394186,24.3922552 17.5806582,22.1910192 C16.5668479,20.6625696 16.3960021,19.3688214 16.1969949,17.8711309 C16.0054974,16.4265698 15.7895934,14.7894378 14.7814154,12.4707578 C13.7807471,10.1709062 12.3614127,8.03715387 10.5628381,6.12934145 C10.4558248,6.01655793 10.4614571,5.83964626 10.5759801,5.73413309 C10.6886257,5.62806066 10.8669812,5.6343989 10.9739945,5.746996 C12.8176273,7.70215886 14.2726328,9.88978626 15.2977076,12.2491056 C16.3378019,14.6391841 16.5593382,16.3175147 16.756468,17.7982411 C16.9535978,19.2866107 17.1094242,20.4623555 18.0518922,21.8838007 C19.3998844,23.9191237 21.0219809,24.4291662 22.8975299,25.0199281 C24.5308909,25.5340718 26.3839108,26.1168177 28.2406856,27.8583444 C30.8803472,30.334362 31.319665,33.0063061 31.7833893,35.8350286 C32.0819001,37.6546648 32.3916755,39.5363785 33.3303887,41.4283453 C35.3336027,45.4663681 39.7530646,48.4764763 46.4648642,50.3760863 C46.6150583,50.4189627 46.7014199,50.5736905 46.6601165,50.7228257 C46.6244454,50.8458623 46.5117998,50.9241582 46.3878897,50.9241582" id="Fill-59" fill="#FFFFFF"></path>
                </g>
                <path d="M99.7617656,72.1544279 C107.322142,80.644566 107.602389,77.9095716 120.03088,88.4444109 C131.171493,97.8875587 131.669011,103.404917 138.980628,104.734394 C144.04712,105.655927 148.238232,103.810367 155.565594,100.582663 C164.00135,96.8666105 169.404767,94.4859562 170.481672,89.7221544 C172.23243,81.9961693 160.748593,76.2248201 162.675686,69.265481 C164.303639,63.3838096 173.054279,65.5294837 177.317814,58.2603698 C181.974956,50.3277642 178.482887,35.965304 171.149227,30.4716302 C166.810119,27.2214871 164.634267,29.7031143 158.19488,25.8050617 C150.769903,21.3111443 151.1887,16.5152432 145.84511,14.8641492 C138.820037,12.6922969 135.913653,20.3132578 129.102702,18.7992876 C119.989945,16.7742199 120.320574,2.0577313 110.782723,0.328414551 C105.552491,-0.61992044 100.265581,0.667484045 96.6664511,1.88165201 C93.0547261,3.10049465 90.8316416,3.88895588 89.625634,6.19637365 C88.1204862,9.0725431 89.726397,11.3802725 88.265333,16.461017 C87.5253545,19.0333328 86.7853759,19.5858789 85.8060852,21.8474849 C83.6806149,26.7593179 84.0080948,31.4576742 84.2946397,35.5685802 C85.7525548,56.4238473 99.7617656,72.1544279 99.7617656,72.1544279" id="Fill-60" fill="#000000"></path>
                <path d="M125.48153,145.74268 C117.716479,107.747285 107.183593,79.1157139 107.183593,79.1157139 L69.4446873,77.3772555 L44.9277812,145.74268 L125.48153,145.74268" id="Fill-61" fill="#FFFFFF"></path>
                <path d="M44.9277812,146.074574 C44.8899951,146.074574 44.8490601,146.072361 44.811274,146.065723 C44.5593664,146.019258 44.405073,145.840036 44.4680499,145.660813 L68.9881048,77.2960522 C69.0416352,77.1405048 69.2589055,77.0356264 69.4761758,77.0460258 L107.211933,78.7842629 C107.416607,78.7937772 107.589794,78.8937878 107.640175,79.0325193 C107.744087,79.3188328 118.267527,108.116794 125.947559,145.696215 C125.985346,145.87765 125.805861,146.04581 125.547656,146.072361 C125.289451,146.098913 125.050139,145.97058 125.012353,145.789145 C117.707032,110.036687 107.825957,82.2434788 106.80888,79.4310128 L69.8068045,77.7264076 L45.3843637,145.824547 C45.3308334,145.975006 45.1387538,146.074574 44.9277812,146.074574" id="Fill-62" fill="#000000"></path>
                <path d="M94.0119749,38.7763397 C94.0119749,38.7763397 80.3869232,38.4896265 70.5310388,46.6724829 C60.6783032,54.8553392 44.9907581,71.4778472 42.3457285,85.2472474 C39.7038476,99.0166476 58.2757346,96.778415 67.2656867,87.955752 C76.2524899,79.1334006 94.0119749,38.7763397 94.0119749,38.7763397" id="Fill-63" fill="#E4C0AE"></path>
                <path d="M122.077629,46.1068476 C122.077629,46.1068476 109.8916,31.2653894 81.0072456,41.0360758 L61.6324032,83.6762462 C60.4138003,86.3542096 61.493854,89.5152223 64.1168418,90.8870825 C70.6979276,94.3282639 84.9244086,99.0609012 109.060304,94.5386241 C112.964872,93.8075055 115.953126,90.6742292 116.469536,86.7755533 L122.077629,46.1068476" id="Fill-64" fill="#E4C0AE"></path>
                <path d="M48.5709947,59.7422406 C48.5709947,59.7422406 41.4734984,82.4109685 42.1347559,86.7902006 C42.7991621,91.169121 43.8603228,96.4991813 49.7707046,92.8470164 C55.6779376,89.1945399 53.5461696,65.8274161 53.5461696,65.8274161 L48.5709947,59.7422406" id="Fill-65" fill="#FFFFFF"></path>
                <path d="M48.7630743,60.7198702 C47.4940898,64.8538379 42.0339928,82.9656961 42.6039337,86.7210154 C43.0290278,89.5308046 43.6273083,92.5948958 45.3686195,93.3889666 C46.373101,93.8480194 47.7711882,93.5320116 49.518797,92.4502926 C54.8875775,89.1331459 53.2501782,67.9506518 53.0895871,66.0100399 L48.7630743,60.7198702 Z M46.373101,94.5339495 C45.8692859,94.5339495 45.4064057,94.4348464 44.9718651,94.2381986 C42.8054598,93.2487265 42.1505001,90.050628 41.6687268,86.8593857 C40.9980229,82.4256158 47.8278674,60.5335066 48.1175611,59.6038703 C48.1710914,59.4393219 48.3096406,59.3159106 48.4796782,59.2834995 C48.6528647,59.248907 48.8260512,59.3140407 48.9362607,59.4483596 L53.9145845,65.5335351 C53.9712637,65.605525 54.0090498,65.6934089 54.0184964,65.7856557 C54.106664,66.7511312 56.1061805,89.4824996 50.0194634,93.2434285 C48.6245251,94.1057496 47.4185175,94.5339495 46.373101,94.5339495 L46.373101,94.5339495 Z" id="Fill-66" fill="#000000"></path>
                <path d="M48.7536277,75.3410059 L57.1547458,75.3117009 C58.0773574,75.3082729 58.7228706,74.4069962 58.4205815,73.5449868 L49.559732,48.4123955 C49.3739502,47.879483 48.8638373,47.5220265 48.2938964,47.5210915 L39.1653952,47.5051957 C38.2270394,47.5036394 37.5752285,48.4326524 37.9058572,49.3027646 L47.490941,74.480856 C47.6893182,75.0000562 48.1931334,75.3431771 48.7536277,75.3410059" id="Fill-67" fill="#000000"></path>
                <path d="M67.6120596,80.8458885 C67.5553804,80.8458885 67.4955523,80.8359159 67.4388731,80.8137891 C67.1964121,80.7202957 67.076756,80.4491647 67.1712213,80.208575 L77.4521998,54.0996007 C77.5466651,53.8590109 77.8206146,53.7390277 78.0630757,53.8337677 C78.3055367,53.9275728 78.4283417,54.1983921 78.3338763,54.4392934 L68.0528979,80.5482678 C67.9804745,80.7330731 67.8009903,80.8458885 67.6120596,80.8458885" id="Fill-68" fill="#F9EFEA"></path>
                <path d="M87.7016898,88.4257123 C90.8820231,88.8074771 94.1757148,88.728631 97.4757042,87.9560636 C115.276124,83.7887499 109.869558,55.5225706 109.869558,55.5225706 L121.980015,46.0061864 C145.772687,71.9767904 130.066249,103.666699 104.941615,107.501176 C96.181529,108.838132 88.5014964,107.050226 82.0274714,103.872696 C89.11867,98.6302081 88.8384228,92.3134806 87.7016898,88.4257123" id="Fill-69" fill="#E4C0AE"></path>
                <path d="M53.1305221,62.2313473 L57.8537894,69.8844075 L57.6239237,66.7695182 C57.576691,66.122232 58.3513069,65.7585426 58.8330801,66.2007665 C59.4313607,66.7536243 60.1083623,67.6374488 60.7129405,68.5399721 C61.9693296,70.4117105 62.8321131,76.2238851 62.9454715,76.9001543 C62.9517692,76.9331886 62.9675134,76.960925 62.9927042,76.9821168 C66.0722745,79.5033229 76.0635592,86.9946395 87.6103733,88.4148047 C87.6670525,88.4213492 87.7111363,88.458435 87.7268806,88.5111029 C88.8447205,92.3848472 89.7043551,98.134693 82.7422592,103.324825 C82.7013242,103.356924 82.6414961,103.362845 82.5942634,103.33916 C67.2782821,95.7842682 58.1119947,80.9562108 58.1119947,80.9562108 C53.8705006,77.8989757 51.5623974,73.3745171 50.6114462,69.7756435 C49.824235,66.8019293 50.4414086,64.1323803 51.0869218,62.4304883 C51.4175505,61.5566364 52.6235581,61.4450676 53.1305221,62.2313473" id="Fill-70" fill="#FFFFFF"></path>
                <path d="M52.1606779,62.1702649 C52.1354871,62.1702649 52.1071475,62.1715115 52.0819568,62.1743163 C51.8269003,62.2011177 51.6190766,62.3581867 51.5277601,62.5947251 C50.9011399,64.2439491 50.3154548,66.8084738 51.0680287,69.6575301 C51.6222254,71.7536528 53.4454066,77.0145279 58.389093,80.5784973 C58.4394745,80.6146481 58.4835584,80.6601482 58.5150468,80.7121929 C58.6063633,80.8589776 67.7191203,95.3962705 82.6194542,102.829933 C88.8667624,98.0798435 88.4668591,92.8940748 87.333275,88.8504841 C75.6699536,87.3371371 65.533822,79.6688063 62.6904151,77.3426898 C62.5770567,77.2479498 62.5046332,77.1217337 62.4794425,76.9761956 L62.447954,76.7895204 C61.5725752,71.290237 60.7412801,69.42255 60.3224838,68.7989488 C59.6454821,67.7920246 59.018862,67.0119778 58.5087491,66.5429525 C58.3953907,66.4385515 58.2757346,66.4781304 58.2316508,66.4996338 C58.1844181,66.5208257 58.0836551,66.5862711 58.0931016,66.7352373 L58.3229673,69.8504383 C58.3387115,70.0654731 58.2033112,70.2636792 57.9954874,70.3297479 C57.7876636,70.39457 57.5640957,70.3122958 57.4475884,70.1278021 L52.7306188,62.4797281 C52.6015162,62.2827687 52.3936924,62.1702649 52.1606779,62.1702649 Z M82.6572403,103.820655 C82.562775,103.820655 82.4683096,103.799771 82.3832908,103.757076 C67.7033761,96.516945 58.5213445,82.474544 57.759324,81.2803213 C52.6267069,77.5402726 50.7311023,72.07714 50.1548637,69.8940685 C49.336164,66.8075389 49.9690819,64.0420033 50.6460835,62.2659398 C50.860205,61.6993697 51.3734667,61.3082555 51.9843426,61.2443683 C52.604665,61.1795462 53.1966478,61.462208 53.5304254,61.97985 C53.5304254,61.9826548 53.5335742,61.9851479 53.5367231,61.9879527 L57.2397646,67.9936588 L57.151597,66.8031758 C57.1169597,66.31701 57.3783138,65.866995 57.8223009,65.6566348 C58.2694369,65.445028 58.7921452,65.5244974 59.1542623,65.8588922 C59.8627524,66.5133462 60.6090286,67.5377225 61.1065461,68.2816186 C61.9157993,69.4855022 62.7030105,72.3769423 63.383161,76.6439823 L63.3926075,76.7025715 C66.3304797,79.0922635 76.2965737,86.5517923 87.6702014,87.9507656 C87.9126624,87.9816185 88.1141885,88.1505299 88.1803142,88.3814587 C89.4492987,92.7775196 90.0129419,98.489968 83.028804,103.698175 C82.9185945,103.779203 82.7894918,103.820655 82.6572403,103.820655 L82.6572403,103.820655 Z" id="Fill-71" fill="#000000"></path>
                <path d="M91.675532,89.2029543 C90.3719102,89.2029543 89.0242046,89.1035396 87.6292664,88.8878814 C87.3710611,88.8476793 87.1947258,88.6083361 87.2356608,88.3534107 C87.2765957,88.0984853 87.515908,87.9242758 87.7741132,87.9638547 C97.5607231,89.4815647 105.09276,85.0206817 109.690073,81.0123068 C114.703034,76.6414891 117.420488,71.8390434 117.448827,71.7907385 C117.574781,71.5651077 117.861326,71.4837684 118.091192,71.6081147 C118.317908,71.7333959 118.402927,72.0179275 118.273825,72.2435583 C118.163615,72.4445692 115.465055,77.2158504 110.335587,81.6944972 C106.235791,85.2749838 99.8688263,89.2029543 91.675532,89.2029543" id="Fill-72" fill="#F9EFEA"></path>
                <path d="M99.3776065,28.8604269 L98.6155861,38.7925452 L90.9009162,40.8503355 C90.9009162,40.8503355 95.8634957,49.0300754 116.000359,43.8798342 L109.293319,39.2039163 L107.444947,24.2032076 L99.3776065,28.8604269" id="Fill-73" fill="#FFFFFF"></path>
                <path d="M91.7196158,41.1164801 C93.2216148,42.7332931 99.1508897,47.4453618 114.885667,43.6741487 L109.022518,39.5859928 C108.912309,39.5099514 108.839885,39.3915264 108.824141,39.2606356 L107.063937,24.9648674 L99.8278914,29.1402838 L99.0879128,38.8277611 C99.0721686,39.0256555 98.9336194,39.1923854 98.738391,39.2438068 L91.7196158,41.1164801 Z M103.943432,46.0610358 C93.6624531,46.0616591 90.6553063,41.3533302 90.497864,41.0912369 C90.4191429,40.9653324 90.4065475,40.8113799 90.4632267,40.6755028 C90.519906,40.5396257 90.6364132,40.4370946 90.7781112,40.3990739 L98.171599,38.4272976 L98.9052798,28.8248993 C98.9178752,28.6715701 99.002894,28.5341348 99.1382943,28.4565352 L107.205635,23.799316 C107.344184,23.7198466 107.511073,23.7145486 107.65592,23.7843571 C107.797618,23.8544771 107.895232,23.9903543 107.914125,24.1464883 L109.737306,38.9411998 L116.274308,43.4974461 C116.422304,43.6024704 116.497876,43.7844709 116.466388,43.9636666 C116.43175,44.1428624 116.29635,44.2865306 116.120015,44.3323424 C111.229859,45.5829728 107.215081,46.0607242 103.943432,46.0610358 L103.943432,46.0610358 Z" id="Fill-74" fill="#000000"></path>
                <path d="M93.3696105,15.9168852 C95.3974666,10.5986675 98.9651079,13.558981 101.251169,14.6114053 C103.537231,15.663518 105.539896,10.9520726 108.134544,12.2908985 C110.726043,13.6297244 107.577199,17.1615944 107.05449,18.6955099 C106.531782,20.2294253 109.526334,18.6955099 110.590643,19.3957756 C111.295984,19.8582564 111.41564,20.9340541 110.43635,22.2149141 C109.822325,23.017711 108.896565,23.7441549 108.134544,24.0395941 C106.714415,28.6871524 101.666817,32.5468727 97.4851508,30.9874023 C93.2751452,29.4176477 93.2971871,16.1016906 93.3696105,15.9168852" id="Fill-75" fill="#FFFFFF"></path>
                <path d="M93.8324907,16.0281424 C93.7506208,17.1777999 94.0088261,29.1913936 97.6520396,30.5498531 C99.4878161,31.2348482 101.254318,30.7041172 102.413093,30.1387936 C104.815662,28.9657628 106.884453,26.5187282 107.68111,23.9040287 C107.725194,23.766905 107.829106,23.6562711 107.961358,23.6039148 C108.644657,23.33964 109.50744,22.6521517 110.058488,21.9325639 C110.521368,21.3273498 110.73549,20.7473789 110.659918,20.2998571 C110.618983,20.0757845 110.508773,19.90251 110.332438,19.7850199 C110.020702,19.5808926 109.249235,19.6880984 108.632062,19.7750473 C107.800767,19.8912908 107.085979,19.991952 106.708117,19.541937 C106.500294,19.2948027 106.465656,18.9597846 106.607354,18.546232 C106.752201,18.1233301 107.048193,17.612856 107.388268,17.0216659 C108.062121,15.8589193 108.896565,14.4116411 108.619466,13.4723438 C108.525001,13.151973 108.295135,12.9010989 107.914125,12.7056977 C106.909643,12.1868091 106.040562,12.7804924 104.730643,13.820451 C103.644291,14.6837069 102.409944,15.6622715 101.052792,15.0352422 C100.715866,14.8809781 100.363195,14.692433 99.9916313,14.4926687 C98.6659676,13.7827419 97.1608198,12.9777635 95.9075795,13.4418026 C95.0762845,13.7481494 94.3772409,14.6179499 93.8324907,16.0281424 Z M99.468923,31.8092095 C98.7289445,31.8092095 98.0047102,31.6814352 97.318262,31.4246399 C96.3326736,31.057834 95.4982297,30.1310025 94.8306746,28.669077 C92.8594977,24.3490574 92.7933719,16.1051187 92.9256234,15.7517135 C93.5868808,14.0223968 94.4528132,12.979945 95.5769508,12.5654575 C97.236392,11.9546338 99.0123405,12.9054619 100.441916,13.6702382 C100.800884,13.8631463 101.14096,14.0451468 101.449546,14.1872568 C102.221013,14.5428435 102.983034,14.0108659 104.13866,13.0912022 C105.350965,12.1285316 106.72701,11.0371516 108.351814,11.876411 C108.96269,12.1914838 109.356296,12.6402523 109.526334,13.2096272 C109.91679,14.5306893 108.968988,16.1696291 108.206968,17.4860166 C107.904678,18.0120729 107.618134,18.5088347 107.501626,18.8450993 C107.489031,18.8812501 107.482733,18.9108564 107.476436,18.9342297 C107.690557,18.9613428 108.169181,18.8955858 108.49981,18.8491507 C109.31851,18.7347771 110.241121,18.6054445 110.851997,19.005908 C111.245603,19.2642615 111.506957,19.6681531 111.588827,20.1434114 C111.673846,20.6417314 111.610869,21.4548125 110.811062,22.4969526 C110.200186,23.2956981 109.321659,24.0152858 108.518703,24.3842732 C107.596092,27.194374 105.432835,29.7071657 102.831889,30.977118 C101.698305,31.5309108 100.561572,31.8092095 99.468923,31.8092095 L99.468923,31.8092095 Z" id="Fill-76" fill="#000000"></path>
            </g>
            <path d="M87.4020267,50.9468489 L91.2054429,53.8217441 L92.8129245,50.0805914 L87.4020267,50.9468489 Z M91.3537522,54.7367849 C91.2772055,54.7367849 91.1982666,54.7116828 91.1360724,54.6640836 L86.3040593,51.0103145 C86.1916313,50.924115 86.1390054,50.7791862 86.1748867,50.6413617 C86.210768,50.503774 86.323196,50.4000505 86.4643291,50.3773165 L93.3415754,49.2766153 C93.470748,49.2550655 93.5999207,49.3064536 93.6812516,49.4080459 C93.7601904,49.5098749 93.7793271,49.6472258 93.7290933,49.7663421 L91.68386,54.5208125 C91.6408025,54.6216943 91.5522953,54.6970005 91.4446515,54.7251811 C91.4159464,54.7329959 91.3848493,54.7367849 91.3537522,54.7367849 L91.3537522,54.7367849 Z" id="Fill-45" fill="#000000"></path>
            <path d="M92.7483382,45.5487241 C92.7339856,45.5487241 92.7196331,45.5480136 92.7052806,45.546356 C92.5091296,45.5238588 92.3679965,45.3476709 92.3919174,45.1527748 L96.5900278,9.11144062 C96.6115565,8.91654451 96.790963,8.77706237 96.987114,8.79932267 C97.183265,8.82181979 97.3243981,8.99800777 97.3028693,9.19290388 L93.1047589,45.2340012 C93.0832302,45.4151622 92.9277446,45.5487241 92.7483382,45.5487241" id="Fill-46" fill="#000000"></path>
            <path d="M85.737135,45.1965849 C85.5864336,45.1965849 85.4453006,45.1004393 85.3950668,44.9493534 L77.3767956,20.0549872 C77.3169934,19.8681427 77.4198531,19.6680368 77.6088279,19.6088338 C77.7978026,19.54821 77.9987378,19.6524072 78.0609321,19.8390149 L86.0792033,44.7333811 C86.1390054,44.9202256 86.0361457,45.1203315 85.847171,45.1797713 C85.8112897,45.1913751 85.7730163,45.1965849 85.737135,45.1965849" id="Fill-47" fill="#000000"></path>
            <path d="M80.1492229,47.4621634 C78.8718491,47.4621634 77.9700328,47.1287324 77.4653027,46.4706324 C77.0945295,45.9863523 77.0873532,45.5205435 77.082569,45.109675 C77.0801769,44.7786121 77.0753928,44.4927803 76.9007705,44.1756893 C76.5682706,43.5713456 75.9152312,43.450098 75.1569401,43.3101422 C74.4034331,43.1708969 73.5494585,43.0129434 72.9801421,42.2970613 C72.2888293,41.427962 72.5567429,40.4115658 72.7935594,39.5149964 C73.0088471,38.687576 73.2145665,37.9060971 72.7863831,37.2157907 C72.2960056,36.4286283 71.2985058,36.2879621 70.241204,36.1390074 C69.0642978,35.9727656 67.8443341,35.8008402 67.1865106,34.716479 C66.6363309,33.808069 66.8564027,32.849218 67.0501617,32.0028527 C67.2223918,31.253817 67.3707012,30.6073208 66.9975358,30.1145154 C66.4688849,29.4156838 65.0719068,29.2532309 62.9596952,29.6456281 C62.7659362,29.6820971 62.5769615,29.5549291 62.5386881,29.3619275 C62.5028068,29.1691627 62.6319794,28.9835023 62.8257384,28.9472701 C65.2943708,28.4888025 66.8468344,28.7312977 67.5716364,29.688491 C68.1433448,30.4439206 67.9448017,31.3165721 67.7510428,32.1600957 C67.5716364,32.9453636 67.3994062,33.6872949 67.8036687,34.3508416 C68.2844779,35.1453452 69.2843697,35.286485 70.3440637,35.4356764 C71.5161856,35.6012079 72.7289731,35.772186 73.396365,36.8430489 C73.9872102,37.7914801 73.7216886,38.8019561 73.4872642,39.6937893 C73.2648003,40.5370761 73.0734334,41.2655092 73.5446743,41.8577755 C73.9465447,42.3633686 74.5995841,42.4841426 75.2885048,42.6117842 C76.1089902,42.7633438 77.0371194,42.9347955 77.5322811,43.8361012 C77.7906264,44.3075935 77.7954106,44.7291185 77.8001947,45.100913 C77.8049789,45.4599196 77.8097631,45.7433834 78.0370112,46.0410558 C78.4053924,46.5224942 79.1278023,46.7671208 80.2114171,46.7514912 C80.2138092,46.7514912 80.2138092,46.7514912 80.2138092,46.7514912 C80.4123523,46.7514912 80.5726489,46.9082606 80.5726489,47.1033935 C80.5750141,47.2994737 80.4171365,47.4600321 80.2185934,47.4619266 C80.1946725,47.4621634 80.1731437,47.4621634 80.1492229,47.4621634" id="Fill-48" fill="#000000"></path>
            <path d="M190.063168,140.553116 C190.015326,140.553116 189.969877,140.544354 189.924427,140.525646 C189.740236,140.450103 189.654121,140.241946 189.730668,140.061021 C193.213545,131.812393 194.761224,123.097245 194.335433,114.157837 C194.325865,113.961757 194.476566,113.795515 194.675109,113.786279 C194.876044,113.778228 195.041098,113.928366 195.050667,114.12421 C195.483634,123.16971 193.916818,131.988107 190.393276,140.334776 C190.335866,140.471179 190.201909,140.553116 190.063168,140.553116" id="Fill-49" fill="#000000"></path>
            <path d="M186.360219,136.487295 C186.317162,136.487295 186.271712,136.47948 186.228655,136.46314 C186.044464,136.391623 185.953565,136.185596 186.025327,136.002778 C193.699138,116.560766 187.950956,91.0066424 187.893546,90.7508856 C187.848097,90.5595417 187.970093,90.3689082 188.163852,90.3255717 C188.355219,90.2803406 188.548978,90.4013514 188.592035,90.5926954 C188.651837,90.8505834 194.450253,116.613102 186.692719,136.261376 C186.637701,136.401806 186.503744,136.487295 186.360219,136.487295" id="Fill-50" fill="#000000"></path>
            <path d="M59.6705773,17.3254945 C59.6514407,17.3254945 59.632304,17.3240736 59.6131673,17.3209951 C59.4170163,17.2899727 59.2854516,17.1081013 59.3165487,16.9143892 L59.6083831,15.0999373 C59.6394802,14.906462 59.8212787,14.7745579 60.0198219,14.8051066 C60.2135808,14.8361289 60.3475376,15.0182372 60.3164405,15.2119492 L60.024606,17.0261644 C59.995901,17.2011683 59.8428075,17.3254945 59.6705773,17.3254945" id="Fill-51" fill="#000000"></path>
            <path d="M58.991225,21.5518746 C58.9720883,21.5518746 58.9529516,21.5504537 58.933815,21.5473752 C58.7376639,21.5165896 58.6037071,21.3344814 58.6348042,21.1405325 L58.9266387,19.3263173 C58.9577358,19.1330789 59.1419264,19.0007011 59.3380774,19.0314867 C59.5342285,19.0622722 59.6681853,19.2443805 59.6370881,19.4383293 L59.3452537,21.2525445 C59.3165487,21.4270748 59.1634552,21.5518746 58.991225,21.5518746" id="Fill-52" fill="#000000"></path>
            <path d="M58.2592468,18.3392858 C58.2401101,18.3392858 58.2209734,18.3378649 58.2018367,18.3350232 L56.3694991,18.045876 C56.1733481,18.0148536 56.0393913,17.8327454 56.0704884,17.6390333 C56.1015855,17.4455581 56.2857761,17.3136539 56.4819271,17.3442026 L58.3142648,17.6333498 C58.5104158,17.6643722 58.6443726,17.8462436 58.6132755,18.0399557 C58.5845704,18.2149596 58.431477,18.3392858 58.2592468,18.3392858" id="Fill-53" fill="#000000"></path>
            <path d="M62.5267277,19.0125417 C62.507591,19.0125417 62.4884543,19.0111208 62.4693176,19.0080423 L60.63698,18.7193687 C60.443221,18.6885832 60.3092642,18.5062381 60.3403613,18.3125261 C60.3714585,18.1190508 60.553257,17.9873835 60.7518001,18.0176954 L62.5841377,18.3063689 C62.7778966,18.3371545 62.9118534,18.5194996 62.8807563,18.7132116 C62.8520513,18.8879787 62.7013499,19.0125417 62.5267277,19.0125417" id="Fill-54" fill="#000000"></path>
            <path d="M186.09709,84.7754136 C185.898547,84.7754136 185.702396,84.8168557 185.515813,84.8997398 C184.781443,85.2263033 184.446551,86.0975339 184.771874,86.8418334 C184.929752,87.204629 185.216802,87.4816988 185.582791,87.622365 C185.941604,87.7601895 186.329122,87.7497698 186.678367,87.5941844 C187.412737,87.2678578 187.747629,86.3966272 187.422305,85.6518541 C187.264428,85.2892952 186.974985,85.0122254 186.611388,84.8715592 C186.443942,84.8073832 186.26932,84.7754136 186.09709,84.7754136 Z M186.09709,88.4294196 C185.836352,88.4294196 185.575615,88.3813468 185.324446,88.2844908 C184.776659,88.0744387 184.348475,87.6621494 184.111659,87.1231658 C183.633242,86.0245959 184.130795,84.7363397 185.221586,84.251586 C185.747845,84.0178527 186.333906,84.0024599 186.869734,84.2091966 C187.415129,84.4192487 187.845704,84.8317749 188.080129,85.3705217 C188.560938,86.4695652 188.063384,87.7578214 186.972593,88.2423383 C186.692719,88.3669013 186.396101,88.4294196 186.09709,88.4294196 L186.09709,88.4294196 Z" id="Fill-55" fill="#000000"></path>
            <path d="M12.2355183,125.850182 C12.0728564,125.850182 11.9269392,125.740775 11.8862738,125.578086 C7.03033982,105.587145 8.93204794,84.027562 8.95118462,83.8123001 C8.97032131,83.6166935 9.14733565,83.4731856 9.34109459,83.4904729 C9.5396377,83.5084705 9.68555493,83.6811063 9.66641824,83.8764761 C9.64728156,84.0907907 7.75514178,105.537651 12.5847628,125.412081 C12.6302124,125.602714 12.5130002,125.794532 12.3192413,125.840236 C12.2929283,125.847104 12.2642233,125.850182 12.2355183,125.850182" id="Fill-56" fill="#000000"></path>
            <path d="M9.81472755,133.255287 C9.66402616,133.255287 9.52050102,133.158194 9.4726593,133.006398 C4.35359594,116.850624 4.25073626,97.5417006 4.25073626,97.3484622 C4.25073626,97.152382 4.411006,96.9930077 4.60954911,96.9925341 C4.80809222,96.9925341 4.96836196,97.1509612 4.96836196,97.3470413 C4.96836196,97.5390957 5.07122165,116.743111 10.1591879,132.793741 C10.2165979,132.981059 10.1113462,133.180218 9.92237141,133.238947 C9.88649013,133.250077 9.85060884,133.255287 9.81472755,133.255287" id="Fill-57" fill="#000000"></path>
            <path d="M8.23355892,79.4151787 L12.6302124,79.7355851 L11.2284502,75.1710377 L8.23355892,79.4151787 Z M13.1253741,80.4829631 C13.1158058,80.4829631 13.1086295,80.4827263 13.0990612,80.4820158 L7.55420658,80.0780149 C7.42503396,80.0685424 7.31021385,79.9915786 7.25519587,79.8764881 C7.2001779,79.7609239 7.21213833,79.6252308 7.28629299,79.5205599 L11.0610042,74.1650612 C11.139943,74.0535229 11.2762919,73.9957408 11.4126408,74.0175275 C11.5465976,74.0388405 11.6590256,74.1347493 11.6996911,74.2649958 L13.4698345,80.0244954 C13.5033237,80.1365074 13.4794028,80.2582287 13.4052482,80.349638 C13.3382698,80.4341798 13.2354101,80.4829631 13.1253741,80.4829631 L13.1253741,80.4829631 Z" id="Fill-58" fill="#000000"></path>
            <path d="M36.7232994,196.551528 L5.15016047,196.551528 C2.50451371,196.551528 0.358812852,194.427326 0.358812852,191.80724 L0.358812852,159.714743 C0.358812852,157.094657 2.50451371,154.970455 5.15016047,154.970455 L193.84984,154.970455 C196.495486,154.970455 198.641187,157.094657 198.641187,159.714743 L198.641187,191.80724 C198.641187,194.427326 196.495486,196.551528 193.84984,196.551528 L36.7232994,196.551528" id="Fill-72" fill="#FFFFFF"></path>
            <path d="M193.84984,196.906745 L176.502434,196.906745 C176.303891,196.906745 176.143621,196.748081 176.143621,196.551528 C176.143621,196.354974 176.303891,196.19631 176.502434,196.19631 L193.84984,196.19631 C196.294551,196.19631 198.282374,194.228404 198.282374,191.80724 L198.282374,159.714743 C198.282374,157.294763 196.294551,155.325673 193.84984,155.325673 L5.15016047,155.325673 C2.70544891,155.325673 0.717625705,157.294763 0.717625705,159.714743 L0.717625705,191.80724 C0.717625705,194.228404 2.70544891,196.19631 5.15016047,196.19631 L36.7232994,196.19631 C36.9218425,196.19631 37.0821122,196.354974 37.0821122,196.551528 C37.0821122,196.748081 36.9218425,196.906745 36.7232994,196.906745 L5.15016047,196.906745 C2.31075477,196.906745 0,194.619143 0,191.80724 L0,159.714743 C0,156.902839 2.31075477,154.615237 5.15016047,154.615237 L193.84984,154.615237 C196.689245,154.615237 199,156.902839 199,159.714743 L199,191.80724 C199,194.619143 196.689245,196.906745 193.84984,196.906745" id="Fill-73" fill="#000000"></path>
            <path d="M164.527653,196.906745 L113.423135,196.906745 C113.224592,196.906745 113.064322,196.748081 113.064322,196.551528 C113.064322,196.354974 113.224592,196.19631 113.423135,196.19631 L164.527653,196.19631 C164.726196,196.19631 164.886466,196.354974 164.886466,196.551528 C164.886466,196.748081 164.726196,196.906745 164.527653,196.906745" id="Fill-74" fill="#000000"></path>
            <path d="M53.5324855,180.763759 C52.5923958,177.783246 52.5014966,172.920315 53.5324855,169.88652 L52.793331,168.831049 L24.7437343,169.648761 L25.4398312,180.985888 L52.8411727,181.126318 L53.5324855,180.763759" id="Fill-75" fill="#FFFFFF"></path>
            <path d="M25.7771153,180.632092 L52.7526656,180.770626 L53.1043021,180.586624 C52.20727,177.473022 52.2192304,172.823223 53.1353993,169.944302 L52.6091404,169.192187 L25.1240759,169.993085 L25.7771153,180.632092 Z M52.8411727,181.481535 L52.8411727,181.481535 L25.4374391,181.341106 C25.2484644,181.340159 25.0929788,181.194046 25.0810184,181.007201 L24.3849214,169.670074 C24.3801373,169.574165 24.4136265,169.480151 24.4782128,169.409107 C24.5427991,169.338063 24.6360904,169.296385 24.7317739,169.293543 L52.7813706,168.476305 C52.905759,168.471095 53.0181871,168.530298 53.0875575,168.629049 L53.826712,169.684282 C53.8912983,169.776402 53.9080429,169.893387 53.8721617,169.999716 C52.9105432,172.828669 52.9129353,177.609899 53.8745537,180.657904 C53.9247875,180.821067 53.853025,180.997255 53.6999315,181.077534 L53.0110108,181.440093 C52.9583849,181.467327 52.9009749,181.481535 52.8411727,181.481535 L52.8411727,181.481535 Z" id="Fill-76" fill="#000000"></path>
            <path d="M12.1805003,168.258912 L53.9080429,168.258912 C54.3457946,168.258912 54.6998233,168.393184 54.6998233,169.068572 C54.6998233,169.744196 54.3457946,169.878468 53.9080429,169.878468 L28.0878701,169.878468 C26.8248488,169.878468 25.8010362,171.042161 25.8010362,172.987807 L25.8010362,177.65442 C25.8010362,179.599829 26.8248488,180.660509 28.0878701,180.660509 L53.9080429,180.660509 C54.3457946,180.660509 54.6998233,180.691294 54.6998233,181.366919 C54.6998233,182.042069 54.3457946,182.176578 53.9080429,182.176578 L12.1805003,182.176578 C9.85060884,182.176578 7.96325324,179.268766 7.96325324,175.681541 L7.96325324,174.753949 C7.96325324,171.166961 9.85060884,168.258912 12.1805003,168.258912" id="Fill-77" fill="#E4C0AE"></path>
            <path d="M53.9080429,182.531796 L12.1805003,182.531796 C9.6568499,182.531796 7.60444038,179.458689 7.60444038,175.681541 L7.60444038,174.753949 C7.60444038,170.976801 9.6568499,167.903694 12.1805003,167.903694 L36.5462851,167.903694 C36.7448282,167.903694 36.9050979,168.062832 36.9050979,168.258912 C36.9050979,168.454992 36.7448282,168.61413 36.5462851,168.61413 L12.1805003,168.61413 C10.0539361,168.61413 8.32206609,171.368488 8.32206609,174.753949 L8.32206609,175.681541 C8.32206609,179.067002 10.0539361,181.82136 12.1805003,181.82136 L53.9080429,181.82136 C54.2237982,181.82136 54.3410104,181.782286 54.3410104,181.366919 C54.3410104,181.015727 54.3099133,181.015727 53.9080429,181.015727 L28.0878701,181.015727 C26.7698309,181.015727 25.4422233,179.97636 25.4422233,177.65442 L25.4422233,172.987807 C25.4422233,170.94791 26.5306223,169.52325 28.0878701,169.52325 L36.7543965,169.52325 C36.9529396,169.52325 37.1132094,169.682388 37.1132094,169.878468 C37.1132094,170.074548 36.9529396,170.233686 36.7543965,170.233686 L28.0878701,170.233686 C26.9516294,170.233686 26.159849,171.36612 26.159849,172.987807 L26.159849,177.65442 C26.159849,179.26474 26.9157481,180.305291 28.0878701,180.305291 L53.9080429,180.305291 C54.2812083,180.305291 55.0586362,180.305291 55.0586362,181.366919 C55.0586362,181.898324 54.860093,182.531796 53.9080429,182.531796" id="Fill-78" fill="#000000"></path>
            <path d="M53.9080429,170.233686 L36.7543965,170.233686 C36.5558534,170.233686 36.3955837,170.074548 36.3955837,169.878468 C36.3955837,169.682388 36.5558534,169.52325 36.7543965,169.52325 L53.9080429,169.52325 C54.2237982,169.52325 54.3410104,169.484176 54.3410104,169.068572 C54.3410104,168.653204 54.2237982,168.61413 53.9080429,168.61413 L36.5462851,168.61413 C36.3477419,168.61413 36.1874722,168.454992 36.1874722,168.258912 C36.1874722,168.062832 36.3477419,167.903694 36.5462851,167.903694 L53.9080429,167.903694 C54.860093,167.903694 55.0586362,168.537166 55.0586362,169.068572 C55.0586362,169.599977 54.860093,170.233686 53.9080429,170.233686" id="Fill-79" fill="#000000"></path>
            <path d="M37.5246481,173.683086 L34.8455121,173.683086 C34.646969,173.683086 34.4866993,173.523949 34.4866993,173.327869 C34.4866993,173.131788 34.646969,172.972651 34.8455121,172.972651 L37.5246481,172.972651 C37.7231912,172.972651 37.883461,173.131788 37.883461,173.327869 C37.883461,173.523949 37.7231912,173.683086 37.5246481,173.683086" id="Fill-80" fill="#CADDFF"></path>
            <path d="M51.5829357,173.683086 L39.9741438,173.683086 C39.7756007,173.683086 39.615331,173.523949 39.615331,173.327869 C39.615331,173.131788 39.7756007,172.972651 39.9741438,172.972651 L51.5829357,172.972651 C51.7790867,172.972651 51.9417485,173.131788 51.9417485,173.327869 C51.9417485,173.523949 51.7790867,173.683086 51.5829357,173.683086" id="Fill-81" fill="#F4D4C3"></path>
            <path d="M51.508781,175.156292 L38.4695219,175.156292 C38.2709788,175.156292 38.1107091,174.997155 38.1107091,174.801075 C38.1107091,174.604995 38.2709788,174.445857 38.4695219,174.445857 L51.508781,174.445857 C51.7073241,174.445857 51.8675939,174.604995 51.8675939,174.801075 C51.8675939,174.997155 51.7073241,175.156292 51.508781,175.156292" id="Fill-82" fill="#F4D4C3"></path>
            <path d="M36.4984433,177.797454 L34.8168071,177.797454 C34.618264,177.797454 34.4579943,177.638317 34.4579943,177.442237 C34.4579943,177.246156 34.618264,177.087019 34.8168071,177.087019 L36.4984433,177.087019 C36.6969865,177.087019 36.8572562,177.246156 36.8572562,177.442237 C36.8572562,177.638317 36.6969865,177.797454 36.4984433,177.797454" id="Fill-83" fill="#F4D4C3"></path>
            <path d="M51.5829357,177.797454 L38.5412845,177.797454 C38.3427414,177.797454 38.1824717,177.638317 38.1824717,177.442237 C38.1824717,177.246156 38.3427414,177.087019 38.5412845,177.087019 L51.5829357,177.087019 C51.7790867,177.087019 51.9417485,177.246156 51.9417485,177.442237 C51.9417485,177.638317 51.7790867,177.797454 51.5829357,177.797454" id="Fill-84" fill="#F4D4C3"></path>
            <path d="M52.0517844,191.008 L12.618252,191.008 L12.618252,183.064622 L52.0517844,183.064385 C51.0184034,185.747463 50.9896984,188.39644 52.0517844,191.008" id="Fill-85" fill="#FFFFFF"></path>
            <path d="M12.9770648,190.652783 L51.5327019,190.652783 C50.697864,188.305978 50.7026481,185.877473 51.5422702,183.419603 L12.9770648,183.419603 L12.9770648,190.652783 Z M52.0517844,191.363218 L12.618252,191.363218 C12.4221009,191.363218 12.2594391,191.20408 12.2594391,191.008 L12.2594391,183.064385 C12.2594391,182.868305 12.4221009,182.709168 12.618252,182.709168 L52.0517844,182.709168 C52.1713887,182.709168 52.2814247,182.766713 52.3484031,182.862859 C52.4153815,182.959241 52.429734,183.08191 52.3890685,183.19108 C51.3772163,185.811402 51.3748242,188.396677 52.3842844,190.874912 C52.429734,190.984556 52.4177736,191.108882 52.3507952,191.206685 C52.2838168,191.304489 52.1713887,191.363218 52.0517844,191.363218 L52.0517844,191.363218 Z" id="Fill-86" fill="#000000"></path>
            <path d="M16.8426753,183.456309 L52.2933851,183.456309 C52.6689426,183.456309 52.9703453,183.176161 52.9703453,182.830652 C52.9703453,182.484907 52.6689426,182.204522 52.2933851,182.204522 L7.5853037,182.204522 C5.94194083,182.204522 4.60954911,183.435943 4.60954911,184.954854 L4.60954911,189.278801 C4.60954911,190.797711 5.94194083,192.029133 7.5853037,192.029133 L52.2933851,192.029133 C52.6689426,192.029133 52.9703453,191.748984 52.9703453,191.403239 C52.9703453,191.057731 52.6689426,190.777346 52.2933851,190.777346 L16.8426753,190.777346 C15.6825137,190.777346 14.740032,189.907299 14.740032,188.834305 L14.740032,185.39935 C14.740032,184.326355 15.6825137,183.456309 16.8426753,183.456309" id="Fill-87" fill="#F4D4C3"></path>
            <path d="M7.5853037,182.55974 C6.14287603,182.55974 4.96836196,183.634155 4.96836196,184.954854 L4.96836196,189.278801 C4.96836196,190.5995 6.14287603,191.673915 7.5853037,191.673915 L52.2933851,191.673915 C52.4703994,191.673915 52.6115325,191.552667 52.6115325,191.403239 C52.6115325,191.254048 52.4703994,191.132563 52.2933851,191.132563 L16.8426753,191.132563 C15.4863627,191.132563 14.3812191,190.101722 14.3812191,188.834305 L14.3812191,185.39935 C14.3812191,184.13217 15.4863627,183.101091 16.8426753,183.101091 L52.2933851,183.101091 C52.4703994,183.101091 52.6115325,182.979607 52.6115325,182.830652 C52.6115325,182.681224 52.4703994,182.55974 52.2933851,182.55974 L7.5853037,182.55974 Z M52.2933851,192.38435 L7.5853037,192.38435 C5.74578981,192.38435 4.25073626,190.991423 4.25073626,189.278801 L4.25073626,184.954854 C4.25073626,183.242468 5.74578981,181.849304 7.5853037,181.849304 L52.2933851,181.849304 C52.8650936,181.849304 53.3291582,182.2893 53.3291582,182.830652 C53.3291582,183.37153 52.8650936,183.811527 52.2933851,183.811527 L16.8426753,183.811527 C15.8810568,183.811527 15.0988448,184.523857 15.0988448,185.39935 L15.0988448,188.834305 C15.0988448,189.709798 15.8810568,190.422128 16.8426753,190.422128 L52.2933851,190.422128 C52.8650936,190.422128 53.3291582,190.862361 53.3291582,191.403239 C53.3291582,191.944354 52.8650936,192.38435 52.2933851,192.38435 L52.2933851,192.38435 Z" id="Fill-88" fill="#000000"></path>
            <path d="M49.7171088,185.306046 L41.2299888,185.306046 C41.0314457,185.306046 40.871176,185.146908 40.871176,184.950828 C40.871176,184.754748 41.0314457,184.595611 41.2299888,184.595611 L49.7171088,184.595611 C49.9156519,184.595611 50.0759217,184.754748 50.0759217,184.950828 C50.0759217,185.146908 49.9156519,185.306046 49.7171088,185.306046" id="Fill-89" fill="#E4C0AE"></path>
            <path d="M28.7433016,185.306046 L19.3256602,185.306046 C19.1271171,185.306046 18.9668474,185.146908 18.9668474,184.950828 C18.9668474,184.754748 19.1271171,184.595611 19.3256602,184.595611 L28.7433016,184.595611 C28.9394526,184.595611 29.1021144,184.754748 29.1021144,184.950828 C29.1021144,185.146908 28.9394526,185.306046 28.7433016,185.306046" id="Fill-90" fill="#E4C0AE"></path>
            <path d="M49.609465,186.985752 L40.5051869,186.985752 C40.3066437,186.985752 40.146374,186.826851 40.146374,186.630534 C40.146374,186.434454 40.3066437,186.275317 40.5051869,186.275317 L49.609465,186.275317 C49.8080081,186.275317 49.9682778,186.434454 49.9682778,186.630534 C49.9682778,186.826851 49.8080081,186.985752 49.609465,186.985752" id="Fill-91" fill="#E4C0AE"></path>
            <path d="M29.6188049,186.985752 L17.9286822,186.985752 C17.7301391,186.985752 17.5698693,186.826851 17.5698693,186.630534 C17.5698693,186.434454 17.7301391,186.275317 17.9286822,186.275317 L29.6188049,186.275317 C29.817348,186.275317 29.9776178,186.434454 29.9776178,186.630534 C29.9776178,186.826851 29.817348,186.985752 29.6188049,186.985752" id="Fill-92" fill="#E4C0AE"></path>
            <path d="M49.609465,189.302245 L32.5730307,189.302245 C32.3744876,189.302245 32.2142179,189.143107 32.2142179,188.947027 C32.2142179,188.750947 32.3744876,188.59181 32.5730307,188.59181 L49.609465,188.59181 C49.8080081,188.59181 49.9682778,188.750947 49.9682778,188.947027 C49.9682778,189.143107 49.8080081,189.302245 49.609465,189.302245" id="Fill-93" fill="#E4C0AE"></path>
            <path d="M28.8748663,189.302245 L17.9693476,189.302245 C17.7708045,189.302245 17.6105348,189.143107 17.6105348,188.947027 C17.6105348,188.750947 17.7708045,188.59181 17.9693476,188.59181 L28.8748663,188.59181 C29.0734094,188.59181 29.2336791,188.750947 29.2336791,188.947027 C29.2336791,189.143107 29.0734094,189.302245 28.8748663,189.302245" id="Fill-94" fill="#E4C0AE"></path>
            <path d="M192.957592,170.918545 C191.658689,168.274778 191.536693,165.610409 192.957592,162.91928 L191.936171,161.707987 L164.037276,162.616397 L164.998894,171.390511 L192.005541,171.69884 L192.957592,170.918545" id="Fill-95" fill="#FFFFFF"></path>
            <path d="M165.321826,171.039083 L191.878761,171.342202 L192.515056,170.820742 C191.268779,168.126534 191.273563,165.486556 192.529408,162.966879 L191.773509,162.068889 L164.436754,162.958827 L165.321826,171.039083 Z M192.005541,172.054058 C192.003149,172.054058 192.003149,172.054058 192.000757,172.054058 L164.99411,171.745729 C164.812311,171.743598 164.66161,171.607668 164.642473,171.428875 L163.680855,162.654761 C163.668894,162.556484 163.699992,162.458207 163.76697,162.383611 C163.831556,162.308779 163.924848,162.264732 164.025315,162.261417 L191.926603,161.353007 C192.02707,161.345665 192.14189,161.39658 192.213653,161.480411 L193.232681,162.691704 C193.325973,162.801821 193.342717,162.956696 193.275739,163.083864 C191.962484,165.569914 191.964876,168.081777 193.280523,170.763434 C193.352286,170.910731 193.314012,171.087629 193.187232,171.192063 L192.235182,171.972358 C192.170595,172.025167 192.089264,172.054058 192.005541,172.054058 L192.005541,172.054058 Z" id="Fill-96" fill="#000000"></path>
            <path d="M141.690411,160.742032 L193.474282,160.742032 C194.07948,160.742032 194.572249,161.227733 194.572249,161.826867 C194.572249,162.426001 194.07948,162.911939 193.474282,162.911939 L169.668245,162.911939 C167.924415,162.911939 166.510692,164.310786 166.510692,166.036907 L166.510692,167.793814 C166.510692,169.519698 167.924415,170.918545 169.668245,170.918545 L193.474282,170.918545 C194.07948,170.918545 194.572249,171.404483 194.572249,172.003617 C194.572249,172.602751 194.07948,173.088452 193.474282,173.088452 L141.690411,173.088452 C138.47784,173.088452 135.870467,170.508624 135.870467,167.326584 L135.870467,166.5039 C135.870467,163.32186 138.47784,160.742032 141.690411,160.742032" id="Fill-97" fill="#FFFFFF"></path>
            <path d="M141.690411,161.09725 C138.678775,161.09725 136.22928,163.522676 136.22928,166.5039 L136.22928,167.326584 C136.22928,170.307808 138.678775,172.733234 141.690411,172.733234 L193.474282,172.733234 C193.880937,172.733234 194.213437,172.40596 194.213437,172.003617 C194.213437,171.601274 193.880937,171.273763 193.474282,171.273763 L169.668245,171.273763 C167.730656,171.273763 166.151879,169.712463 166.151879,167.793814 L166.151879,166.036907 C166.151879,164.117784 167.730656,162.556721 169.668245,162.556721 L193.474282,162.556721 C193.880937,162.556721 194.213437,162.22921 194.213437,161.826867 C194.213437,161.424524 193.880937,161.09725 193.474282,161.09725 L141.690411,161.09725 Z M193.474282,173.44367 L141.690411,173.44367 C138.284081,173.44367 135.511654,170.699494 135.511654,167.326584 L135.511654,166.5039 C135.511654,163.13099 138.284081,160.386814 141.690411,160.386814 L193.474282,160.386814 C194.278023,160.386814 194.931062,161.032837 194.931062,161.826867 C194.931062,162.621134 194.278023,163.267156 193.474282,163.267156 L169.668245,163.267156 C168.12535,163.267156 166.869505,164.509471 166.869505,166.036907 L166.869505,167.793814 C166.869505,169.321013 168.12535,170.563328 169.668245,170.563328 L193.474282,170.563328 C194.278023,170.563328 194.931062,171.20935 194.931062,172.003617 C194.931062,172.797647 194.278023,173.44367 193.474282,173.44367 L193.474282,173.44367 Z" id="Fill-98" fill="#000000"></path>
            <path d="M179.963782,165.593832 L177.925725,165.593832 C177.727182,165.593832 177.566912,165.434931 177.566912,165.238614 C177.566912,165.042534 177.727182,164.883397 177.925725,164.883397 L179.963782,164.883397 C180.162325,164.883397 180.322595,165.042534 180.322595,165.238614 C180.322595,165.434931 180.162325,165.593832 179.963782,165.593832" id="Fill-99" fill="#000000"></path>
            <path d="M192.034246,165.593832 L181.241156,165.593832 C181.042613,165.593832 180.882343,165.434931 180.882343,165.238614 C180.882343,165.042534 181.042613,164.883397 181.241156,164.883397 L192.034246,164.883397 C192.23279,164.883397 192.393059,165.042534 192.393059,165.238614 C192.393059,165.434931 192.23279,165.593832 192.034246,165.593832" id="Fill-100" fill="#000000"></path>
            <path d="M191.936171,166.901033 L179.164826,166.901033 C178.966282,166.901033 178.806013,166.741896 178.806013,166.545816 C178.806013,166.349735 178.966282,166.190598 179.164826,166.190598 L191.936171,166.190598 C192.134714,166.190598 192.294984,166.349735 192.294984,166.545816 C192.294984,166.741896 192.134714,166.901033 191.936171,166.901033" id="Fill-101" fill="#000000"></path>
            <path d="M178.272578,169.244049 L175.952254,169.244049 C175.753711,169.244049 175.593442,169.084912 175.593442,168.888831 C175.593442,168.692514 175.753711,168.533614 175.952254,168.533614 L178.272578,168.533614 C178.471121,168.533614 178.63139,168.692514 178.63139,168.888831 C178.63139,169.084912 178.471121,169.244049 178.272578,169.244049" id="Fill-102" fill="#000000"></path>
            <path d="M192.034246,169.244049 L179.262901,169.244049 C179.06675,169.244049 178.904088,169.084912 178.904088,168.888831 C178.904088,168.692514 179.06675,168.533614 179.262901,168.533614 L192.034246,168.533614 C192.23279,168.533614 192.393059,168.692514 192.393059,168.888831 C192.393059,169.084912 192.23279,169.244049 192.034246,169.244049" id="Fill-103" fill="#000000"></path>
            <path d="M192.151459,185.701048 L145.376615,185.701048 L145.376615,174.356342 L192.151459,174.356342 C190.771225,178.188431 190.732952,181.971262 192.151459,185.701048" id="Fill-104" fill="#FFFFFF"></path>
            <path d="M145.735428,185.34583 L191.641944,185.34583 C190.448294,181.900692 190.450686,178.32815 191.649121,174.71156 L145.735428,174.71156 L145.735428,185.34583 Z M192.151459,186.056266 L145.376615,186.056266 C145.178072,186.056266 145.017802,185.897128 145.017802,185.701048 L145.017802,174.356342 C145.017802,174.160262 145.178072,174.001124 145.376615,174.001124 L192.151459,174.001124 C192.268671,174.001124 192.378707,174.057486 192.445685,174.151737 C192.512664,174.246225 192.529408,174.366999 192.488743,174.475695 C191.125254,178.259948 191.125254,181.99447 192.486351,185.575775 C192.529408,185.684945 192.512664,185.80714 192.445685,185.903048 C192.378707,185.998957 192.268671,186.056266 192.151459,186.056266 L192.151459,186.056266 Z" id="Fill-105" fill="#000000"></path>
            <path d="M151.007585,174.916165 L192.47439,174.916165 C192.971944,174.916165 193.376207,174.515953 193.376207,174.022201 C193.376207,173.528448 192.971944,173.128473 192.47439,173.128473 L138.666815,173.128473 C136.473272,173.128473 134.698345,174.887037 134.698345,177.05647 L134.698345,183.231575 C134.698345,185.401007 136.473272,187.159809 138.666815,187.159809 L192.47439,187.159809 C192.971944,187.159809 193.376207,186.75936 193.376207,186.265607 C193.376207,185.772091 192.971944,185.37188 192.47439,185.37188 L151.007585,185.37188 C149.459906,185.37188 148.206453,184.129565 148.206453,182.596919 L148.206453,177.691126 C148.206453,176.158717 149.459906,174.916165 151.007585,174.916165" id="Fill-106" fill="#F4D4C3"></path>
            <path d="M138.666815,173.483691 C136.6766,173.483691 135.057158,175.086196 135.057158,177.05647 L135.057158,183.231575 C135.057158,185.201612 136.6766,186.804591 138.666815,186.804591 L192.47439,186.804591 C192.773401,186.804591 193.017394,186.562806 193.017394,186.265607 C193.017394,185.968882 192.773401,185.727097 192.47439,185.727097 L151.007585,185.727097 C149.263754,185.727097 147.84764,184.322803 147.84764,182.596919 L147.84764,177.691126 C147.84764,175.965005 149.263754,174.560948 151.007585,174.560948 L192.47439,174.560948 C192.773401,174.560948 193.017394,174.319163 193.017394,174.022201 C193.017394,173.725239 192.773401,173.483691 192.47439,173.483691 L138.666815,173.483691 Z M192.47439,187.515026 L138.666815,187.515026 C136.279513,187.515026 134.339532,185.593535 134.339532,183.231575 L134.339532,177.05647 C134.339532,174.694509 136.279513,172.773255 138.666815,172.773255 L192.47439,172.773255 C193.170487,172.773255 193.735019,173.333552 193.735019,174.022201 C193.735019,174.710849 193.170487,175.271383 192.47439,175.271383 L151.007585,175.271383 C149.660841,175.271383 148.565265,176.356928 148.565265,177.691126 L148.565265,182.596919 C148.565265,183.931117 149.660841,185.016662 151.007585,185.016662 L192.47439,185.016662 C193.170487,185.016662 193.735019,185.576959 193.735019,186.265607 C193.735019,186.95473 193.170487,187.515026 192.47439,187.515026 L192.47439,187.515026 Z" id="Fill-107" fill="#000000"></path>
            <path d="M191.323797,177.405531 L184.417846,177.405531 C184.219303,177.405531 184.059033,177.246393 184.059033,177.050313 C184.059033,176.854233 184.219303,176.695095 184.417846,176.695095 L191.323797,176.695095 C191.52234,176.695095 191.68261,176.854233 191.68261,177.050313 C191.68261,177.246393 191.52234,177.405531 191.323797,177.405531" id="Fill-108" fill="#000000"></path>
            <path d="M183.233763,177.405531 L170.677706,177.405531 C170.481554,177.405531 170.318893,177.246393 170.318893,177.050313 C170.318893,176.854233 170.481554,176.695095 170.677706,176.695095 L183.233763,176.695095 C183.432306,176.695095 183.592576,176.854233 183.592576,177.050313 C183.592576,177.246393 183.432306,177.405531 183.233763,177.405531" id="Fill-109" fill="#000000"></path>
            <path d="M191.17788,178.919705 L173.918982,178.919705 C173.720439,178.919705 173.560169,178.760568 173.560169,178.564488 C173.560169,178.368408 173.720439,178.20927 173.918982,178.20927 L191.17788,178.20927 C191.376423,178.20927 191.536693,178.368408 191.536693,178.564488 C191.536693,178.760568 191.376423,178.919705 191.17788,178.919705" id="Fill-110" fill="#000000"></path>
            <path d="M172.459809,178.919705 L168.945835,178.919705 C168.747292,178.919705 168.587023,178.760568 168.587023,178.564488 C168.587023,178.368408 168.747292,178.20927 168.945835,178.20927 L172.459809,178.20927 C172.658352,178.20927 172.818622,178.368408 172.818622,178.564488 C172.818622,178.760568 172.658352,178.919705 172.459809,178.919705" id="Fill-111" fill="#000000"></path>
            <path d="M191.17788,182.080196 L172.876032,182.080196 C172.677489,182.080196 172.517219,181.921058 172.517219,181.724978 C172.517219,181.528898 172.677489,181.36976 172.876032,181.36976 L191.17788,181.36976 C191.376423,181.36976 191.536693,181.528898 191.536693,181.724978 C191.536693,181.921058 191.376423,182.080196 191.17788,182.080196" id="Fill-112" fill="#000000"></path>
            <path d="M171.591482,182.080196 L170.677706,182.080196 C170.481554,182.080196 170.318893,181.921058 170.318893,181.724978 C170.318893,181.528898 170.481554,181.36976 170.677706,181.36976 L171.591482,181.36976 C171.790025,181.36976 171.950295,181.528898 171.950295,181.724978 C171.950295,181.921058 171.790025,182.080196 171.591482,182.080196" id="Fill-113" fill="#000000"></path>
            <path d="M5.58312798,150.112972 C6.00174298,152.948793 9.3889363,171.04003 28.8509454,179.475976 C28.922708,179.506288 28.9992547,179.512919 29.0734094,179.493027 C30.7143802,179.053978 49.6453463,173.496005 61.3306848,148.045368 C61.4215841,147.847156 61.306764,147.615318 61.0914762,147.574349 C58.4075561,147.058336 43.523999,143.915133 37.383515,136.553839 C37.2375978,136.380492 36.9696842,136.389018 36.8429037,136.576809 C35.3789472,138.745769 27.1597408,149.326993 5.91562789,149.72981 C5.70990852,149.733599 5.55442295,149.912392 5.58312798,150.112972" id="Fill-114" fill="#FFFFFF"></path>
            <path d="M5.94194083,150.084554 C6.16201272,151.557287 7.1164549,156.693498 10.3888281,162.521673 C14.6084673,170.033343 20.8685555,175.628021 28.9944706,179.150597 C29.9202077,178.898629 34.926843,177.413346 41.2228126,172.861586 C49.4802923,166.892034 56.1326826,158.499661 60.9957928,147.917726 C58.0248224,147.344642 43.3063192,144.183441 37.1227777,136.800833 C35.62294,139.011472 27.2793451,149.673686 5.94194083,150.084554 Z M28.9872943,179.859375 C28.8916109,179.859375 28.7959274,179.839956 28.7074203,179.801356 C20.4331959,176.214841 14.0582876,170.517386 9.76210167,162.866944 C6.41078963,156.903076 5.4467791,151.636855 5.2290993,150.16436 C5.20039427,149.968753 5.25780433,149.770068 5.38697696,149.618982 C5.51614958,149.467423 5.70751644,149.378381 5.90845164,149.374592 C26.9899028,148.975091 35.1277782,138.479355 36.5462851,136.379545 C36.6682814,136.1972 36.8644325,136.086372 37.0845043,136.074936 C37.3045762,136.069085 37.5174718,136.155995 37.6586049,136.327447 C43.6938371,143.561337 58.2951281,146.674938 61.1608467,147.225525 C61.3689582,147.265547 61.5459725,147.396267 61.644048,147.584295 C61.7421235,147.774929 61.7469077,147.996821 61.6584005,148.192428 C56.7426645,158.896084 50.0089433,167.389102 41.6462117,173.435381 C35.2473825,178.060789 30.1283192,179.578516 29.1667007,179.83593 C29.1092907,179.85156 29.0470964,179.859375 28.9872943,179.859375 L28.9872943,179.859375 Z" id="Fill-115" fill="#000000"></path>
            <path d="M54.2596795,150.664269 C54.2333666,150.664269 54.2070536,150.661428 54.1807407,150.655744 C44.9353295,148.632898 36.4195045,142.292499 36.3333894,142.22856 C36.1755118,142.109917 36.1468067,141.887314 36.266411,141.731018 C36.3860153,141.574249 36.6108714,141.544647 36.768749,141.66258 C36.852472,141.725335 45.2486928,147.973614 54.3362263,149.962122 C54.5299852,150.004275 54.6519816,150.193961 54.608924,150.385542 C54.5730428,150.55131 54.4247334,150.664269 54.2596795,150.664269" id="Fill-116" fill="#000000"></path>
            <path d="M51.9345722,155.684679 C51.9034751,155.684679 51.872378,155.68089 51.843673,155.673313 C47.5498792,154.567638 43.2871825,152.49293 39.1727951,149.50697 C39.0125254,149.390932 38.9790362,149.168566 39.0962484,149.010376 C39.2134606,148.851712 39.4359246,148.818322 39.5961943,148.933886 C43.6388191,151.8668 47.8201849,153.902908 52.0230794,154.985611 C52.2144463,155.035105 52.3292664,155.229054 52.2814247,155.418977 C52.2383671,155.578588 52.0924499,155.684679 51.9345722,155.684679" id="Fill-117" fill="#000000"></path>
            <path d="M36.6204397,147.400529 C36.5367167,147.400529 36.4529937,147.372349 36.3860153,147.314567 C34.5106201,145.717745 33.4700629,144.56755 33.4270053,144.51924 C33.2954406,144.372891 33.307401,144.14863 33.4557104,144.01791 C33.6016276,143.887426 33.8288757,143.899741 33.9628325,144.046327 C33.9724009,144.057931 35.0177423,145.212862 36.8548641,146.776293 C37.0031734,146.904172 37.019918,147.128433 36.8907454,147.27715 C36.8213749,147.35885 36.7209073,147.400529 36.6204397,147.400529" id="Fill-118" fill="#000000"></path>
            <path d="M47.8656345,160.372369 C47.8177928,160.372369 47.7699511,160.363133 47.7221094,160.343241 C36.0965729,155.376351 30.2766285,147.000317 30.2192184,146.916249 C30.1091825,146.753796 30.1498479,146.533088 30.3149019,146.42297 C30.4775637,146.313563 30.7024197,146.355242 30.8124557,146.518169 C30.8698657,146.600342 36.5821663,154.810134 48.0067676,159.691061 C48.1885661,159.768736 48.2722891,159.97784 48.1957423,160.157817 C48.1359402,160.29209 48.0043755,160.372369 47.8656345,160.372369" id="Fill-119" fill="#000000"></path>
            <path d="M44.138765,164.581225 C44.081355,164.581225 44.0239449,164.567727 43.971319,164.539546 C31.9080309,158.183754 26.6597949,148.70773 26.6095611,148.612532 C26.5162698,148.439896 26.5808561,148.224871 26.7554784,148.131804 C26.9301006,148.038974 27.1477804,148.103624 27.2410718,148.276259 C27.2913055,148.369326 32.4462502,157.662768 44.3086031,163.912468 C44.4832253,164.004825 44.5502037,164.21985 44.4569124,164.39296 C44.3923261,164.513023 44.2679376,164.581225 44.138765,164.581225" id="Fill-120" fill="#000000"></path>
            <path d="M39.3474174,168.46778 C39.2923994,168.46778 39.2349894,168.454755 39.1823635,168.427285 C37.0223101,167.310718 34.9340193,165.887716 32.970117,164.197353 C32.8218076,164.068527 32.805063,163.844267 32.9342357,163.696259 C33.0658004,163.548252 33.2906564,163.532386 33.4413578,163.661211 C35.3622026,165.315342 37.4050438,166.707084 39.5148634,167.79784 C39.6894856,167.888538 39.7588561,168.10309 39.6655648,168.277147 C39.6033706,168.398394 39.47659,168.46778 39.3474174,168.46778" id="Fill-121" fill="#000000"></path>
            <path d="M30.1952976,161.375977 C30.0972221,161.375977 30.0015386,161.337377 29.9297761,161.261124 C24.9901191,155.937121 22.6171701,150.434799 22.5932493,150.379858 C22.5167025,150.199171 22.6028176,149.991014 22.7846161,149.914523 C22.9664146,149.838507 23.1769182,149.923049 23.2534649,150.103736 C23.2773858,150.157729 25.6072772,155.551828 30.458427,160.780396 C30.5923838,160.925088 30.5828154,161.149585 30.4368982,161.2822 C30.3675277,161.344955 30.2814127,161.375977 30.1952976,161.375977" id="Fill-122" fill="#000000"></path>
            <path d="M139.539926,1.52588524 C141.259836,3.17504257 151.88548,14.1820547 148.184924,31.1972189 C148.172963,31.25879 148.139474,31.3134935 148.08924,31.3532779 C146.998449,32.2304288 134.066834,42.1187421 111.155437,37.5657985 C110.978423,37.5305135 110.875563,37.3408273 110.95211,37.178848 C111.901768,35.1451084 116.975382,23.7350425 114.956462,16.0914682 C114.90862,15.9114913 115.044969,15.7374346 115.233944,15.7440653 C117.413134,15.821266 128.562645,15.4819147 139.121311,1.55998614 C139.221779,1.42642429 139.41793,1.40890022 139.539926,1.52588524" id="Fill-123" fill="#FFFFFF"></path>
            <path d="M111.320491,37.2363933 C120.809895,39.1079169 129.682141,38.7451212 137.693236,36.1581892 C143.745213,34.2042551 147.158719,31.6393466 147.840464,31.0958635 C149.376183,24.0144804 148.610715,17.1689619 145.570374,10.7501782 C143.250051,5.85338396 140.303002,2.76299005 139.353344,1.84273942 C128.86644,15.6251858 117.736065,16.1591964 115.329627,16.1023616 C117.274393,23.7260437 112.435203,34.8344113 111.320491,37.2363933 Z M122.931675,39.121652 C119.341155,39.121652 115.391821,38.7699865 111.086067,37.9141487 C110.889916,37.8753115 110.727254,37.752643 110.636355,37.5774023 C110.547848,37.4045297 110.545456,37.2048973 110.626787,37.0298934 C111.638639,34.8628287 116.587864,23.6739451 114.609609,16.1812199 C114.556983,15.9875079 114.602433,15.7788767 114.729213,15.6232913 C114.853602,15.4672324 115.042577,15.3826905 115.245904,15.3890845 C117.348547,15.4620225 128.378454,15.1359327 138.834261,1.34661871 C138.944297,1.20074265 139.111743,1.10885967 139.295933,1.09488778 C139.477732,1.07878458 139.657138,1.14461825 139.788703,1.27083894 C140.685735,2.12904488 143.795447,5.32671453 146.221022,10.4487168 C149.333125,17.01906 150.112945,24.025137 148.53656,31.2718147 C148.505463,31.4131913 148.426525,31.5396488 148.316489,31.6291636 C147.180248,32.5411259 138.446743,39.1209416 122.931675,39.121652 L122.931675,39.121652 Z" id="Fill-124" fill="#000000"></path>
            <path d="M116.114231,34.3174511 C116.066389,34.3174511 116.018548,34.3082155 115.970706,34.2883233 C115.788907,34.210649 115.705184,34.0015442 115.784123,33.8215672 C118.83164,26.8287518 118.657018,18.2431402 118.657018,18.1571775 C118.652234,17.9608605 118.80772,17.7981708 119.006263,17.7931978 C119.008655,17.7931978 119.011047,17.7931978 119.015831,17.7931978 C119.20959,17.7931978 119.367468,17.9466518 119.374644,18.1398903 C119.374644,18.2272738 119.551658,26.9689444 116.444339,34.1028996 C116.384537,34.2371719 116.252972,34.3174511 116.114231,34.3174511" id="Fill-125" fill="#000000"></path>
            <path d="M120.642449,35.2019432 C120.599392,35.2019432 120.556334,35.1943652 120.513277,35.1780252 C120.329086,35.1069817 120.235795,34.9011922 120.307557,34.7181367 C121.60646,31.4082182 122.247539,27.6523832 122.216442,23.5550655 C122.21405,23.3587486 122.374319,23.1986638 122.572862,23.1970061 C122.769013,23.198427 122.931675,23.3533019 122.934067,23.5493821 C122.967557,27.7371618 122.309733,31.5813277 120.977341,34.9753143 C120.922323,35.1159805 120.785974,35.2019432 120.642449,35.2019432" id="Fill-126" fill="#000000"></path>
            <path d="M122.438906,21.0176272 C122.254715,21.0176272 122.096837,20.8779082 122.082485,20.6927214 C121.910255,18.7212632 121.635165,17.4704233 121.632773,17.4578723 C121.589715,17.2665284 121.711712,17.0768421 121.905471,17.0344528 C122.096837,16.9932475 122.290596,17.1130743 122.333654,17.3046551 C122.343222,17.3569905 122.620704,18.609488 122.795326,20.6320976 C122.812071,20.8274673 122.666154,20.9996295 122.470003,21.0162063 C122.458042,21.0171535 122.448474,21.0176272 122.438906,21.0176272" id="Fill-127" fill="#000000"></path>
            <path d="M125.790218,34.768104 C125.763905,34.768104 125.737592,34.765499 125.713671,34.7598156 C125.519912,34.7174263 125.397916,34.5279768 125.438581,34.3363961 C127.656045,24.4023781 124.862088,16.6470287 124.833383,16.5698281 C124.766405,16.3855885 124.862088,16.1816935 125.046279,16.114439 C125.235254,16.046474 125.438581,16.1416723 125.507952,16.3256751 C125.536657,16.4045334 128.404767,24.343412 126.139462,34.4893765 C126.103581,34.6553816 125.955272,34.768104 125.790218,34.768104" id="Fill-128" fill="#000000"></path>
            <path d="M130.447609,34.3297653 C130.430864,34.3297653 130.414119,34.3285813 130.397375,34.32645 C130.201224,34.2999271 130.064875,34.1208973 130.091188,33.926238 C131.593418,23.0397631 127.794785,15.13167 127.756512,15.0530485 C127.670397,14.8766237 127.744552,14.6642036 127.923958,14.5784777 C128.100972,14.4929886 128.31626,14.5666371 128.402375,14.7425883 C128.443041,14.8231043 132.334964,22.9121215 130.801637,34.0226204 C130.777716,34.2007029 130.624623,34.3297653 130.447609,34.3297653" id="Fill-129" fill="#000000"></path>
            <path d="M135.401618,33.0273005 C135.384873,33.0273005 135.368129,33.0261164 135.348992,33.0235115 C135.152841,32.9955677 135.016492,32.8153539 135.045197,32.6211683 C135.327463,30.6968356 135.370521,28.6704371 135.179154,26.5983339 C135.162409,26.4029642 135.308327,26.2300916 135.504478,26.2120939 C135.700629,26.1945698 135.877643,26.3380777 135.894388,26.5336843 C136.090539,28.6609646 136.045089,30.7432507 135.755647,32.7227605 C135.729334,32.8998957 135.57624,33.0273005 135.401618,33.0273005" id="Fill-130" fill="#000000"></path>
            <path d="M135.023668,23.512913 C134.856222,23.512913 134.705521,23.3973489 134.672032,23.2294493 C133.478381,17.4870001 130.952339,13.3354526 130.928418,13.2942473 C130.825558,13.1265846 130.878184,12.9082441 131.048022,12.8061782 C131.21786,12.7041123 131.437932,12.757395 131.540792,12.9248209 C131.567105,12.9672102 134.152949,17.2167979 135.375305,23.0859414 C135.413578,23.2782326 135.28919,23.4660243 135.095431,23.5055719 C135.07151,23.5105449 135.047589,23.512913 135.023668,23.512913" id="Fill-131" fill="#000000"></path>
            <path d="M63.8854323,173.170626 L78.5178204,151.254878 C78.5178204,151.254878 88.5263069,148.26726 95.5040209,158.81841 C101.527293,156.234083 108.287327,155.830319 115.810436,164.013824 C108.394971,174.95145 100.168588,188.832173 100.168588,188.832173 L82.7326754,179.940838 L63.8854323,173.170626" id="Fill-132" fill="#FFFFFF"></path>
            <path d="M64.435612,172.990412 L82.8546718,179.606933 C82.8690243,179.612143 82.8833768,179.6183 82.8977293,179.625168 L100.029847,188.362813 C101.245027,186.323626 108.648532,173.963235 115.35594,164.047925 C107.462057,155.601085 100.682886,156.984303 95.647546,159.144263 C95.4872763,159.213412 95.3006936,159.157524 95.2050102,159.012832 C88.8588068,149.419823 79.8860934,151.278796 78.7426765,151.56297 L64.435612,172.990412 Z M100.168588,189.187391 C100.111178,189.187391 100.05616,189.17484 100.003534,189.147844 L82.5891503,180.266928 L63.7634359,173.50453 C63.6605763,173.467351 63.5792454,173.385414 63.5457562,173.281927 C63.5098749,173.178677 63.5242274,173.065481 63.5864216,172.974545 L78.2188097,151.059035 C78.2666514,150.989886 78.3336298,150.938734 78.4149608,150.91458 C78.5202125,150.88332 81.0366867,150.150625 84.4549771,150.729866 C87.5551201,151.255825 91.9924391,153.012732 95.6379777,158.375572 C100.522617,156.337333 107.859143,154.836893 116.075958,163.774644 C116.188386,163.895655 116.200346,164.075869 116.109447,164.211799 C108.784881,175.015153 100.558498,188.873142 100.477167,189.011914 C100.410189,189.124399 100.290584,189.187391 100.168588,189.187391 L100.168588,189.187391 Z" id="Fill-133" fill="#000000"></path>
            <path d="M63.8854323,173.170626 C63.8854323,173.170626 65.9258814,174.610441 66.528687,178.662291 C70.7937758,178.121176 77.4916157,178.779276 83.1656429,182.487275 C88.7607313,183.535641 92.1551009,184.328487 97.3961606,191.604292 C98.2931928,190.49625 100.168588,188.832173 100.168588,188.832173 C100.168588,188.832173 96.0876898,178.288128 83.2661105,179.034322 C78.199673,172.902791 66.8396581,172.796226 63.8854323,173.170626" id="Fill-134" fill="#F4D4C3"></path>
            <path d="M83.3019918,182.151476 C89.0693104,183.234416 92.3775649,184.156798 97.4200815,191.026945 C98.187941,190.160924 99.2954767,189.139318 99.7380125,188.73887 C99.4318256,188.060404 98.3673474,185.929098 96.2527437,183.886122 C92.8488058,180.599411 88.4856415,179.085947 83.2852472,179.38883 C83.1704271,179.396408 83.0603911,179.347388 82.9862365,179.259294 C78.3742953,173.675508 68.2844779,173.234802 64.7035256,173.454326 C65.3637413,174.190337 66.3803777,175.689593 66.8300898,178.26942 C71.2434879,177.787745 77.7714897,178.561883 83.3019918,182.151476 Z M97.3961606,191.95951 C97.3937686,191.95951 97.3913765,191.95951 97.3865923,191.959273 C97.2741643,191.956431 97.1713046,191.901254 97.1043262,191.810555 C91.8154247,184.469153 88.3469005,183.819578 83.0986645,182.836336 C83.0508228,182.827574 83.0077653,182.809813 82.9670998,182.783763 C77.4413819,179.172384 70.8774988,178.468579 66.5741366,179.014667 C66.3827698,179.038111 66.2033633,178.905497 66.1746583,178.714153 C65.6053419,174.884196 63.6940655,173.472797 63.6749288,173.458825 C63.5577166,173.373336 63.5026986,173.224145 63.5385799,173.083005 C63.5744612,172.941865 63.6940655,172.836484 63.8399827,172.818013 C66.641115,172.464216 78.1039896,172.430352 83.4263803,178.669869 C90.0787705,178.334307 94.3534277,181.050775 96.7766105,183.399711 C99.4246493,185.967224 100.460422,188.594414 100.50348,188.705006 C100.556106,188.842593 100.517832,188.998179 100.407797,189.096929 C100.38866,189.113269 98.5443618,190.753901 97.6760347,191.826422 C97.6090563,191.910727 97.5061966,191.95951 97.3961606,191.95951 L97.3961606,191.95951 Z" id="Fill-135" fill="#000000"></path>
            <path d="M83.2948155,182.452227 C83.0986645,182.452227 82.9383948,182.295458 82.9360027,182.100561 L82.9072977,179.037875 C82.9049056,178.972514 82.9240423,178.907865 82.9575315,178.85174 L95.1978339,158.635828 C95.2983015,158.467692 95.5183734,158.412278 95.6882115,158.51387 C95.8580495,158.614752 95.9154596,158.832855 95.8125999,159.001229 L83.6249234,179.131178 L83.6536284,182.093457 C83.6560205,182.289537 83.4981428,182.450096 83.2995997,182.452227 C83.2972076,182.452227 83.2972076,182.452227 83.2948155,182.452227" id="Fill-136" fill="#000000"></path>
            <path d="M110.925797,165.845563 C110.846858,165.845563 110.763135,165.818567 110.696157,165.763153 C106.541104,162.335065 102.266447,161.145323 97.6258009,162.127618 C97.434434,162.16835 97.2406751,162.046628 97.2000096,161.854337 C97.1593442,161.662756 97.2813405,161.473781 97.4750995,161.432812 C102.345386,160.401734 106.820978,161.640022 111.155437,165.217538 C111.308531,165.343048 111.33006,165.567072 111.203279,165.717685 C111.131517,165.80199 111.028657,165.845563 110.925797,165.845563" id="Fill-137" fill="#000000"></path>
            <path d="M108.906877,168.938562 C108.825546,168.938562 108.744215,168.911565 108.677237,168.856388 C104.519792,165.428064 100.245135,164.238558 95.6044885,165.220617 C95.4131216,165.261585 95.2193627,165.13939 95.1786972,164.947573 C95.1380318,164.755755 95.2600281,164.567016 95.4537871,164.526048 C100.324074,163.494969 104.799666,164.733258 109.136517,168.310537 C109.287219,168.436047 109.308747,168.660308 109.181967,168.810684 C109.110204,168.895225 109.007345,168.938562 108.906877,168.938562" id="Fill-138" fill="#000000"></path>
            <path d="M85.344833,169.616554 C85.2515416,169.616554 85.1582503,169.581032 85.0888798,169.510699 C80.6922263,165.098659 75.7573536,164.751493 73.2049981,164.9381 C73.006455,164.955151 72.8366169,164.805486 72.8222644,164.609879 C72.8079119,164.414273 72.9562212,164.243768 73.1523723,164.229559 C75.8291161,164.035847 81.0008054,164.396749 85.6007861,169.011737 C85.7395271,169.151456 85.737135,169.376427 85.596002,169.514251 C85.5266315,169.582453 85.4357322,169.616554 85.344833,169.616554" id="Fill-139" fill="#000000"></path>
            <path d="M83.4574774,172.79741 C83.364186,172.79741 83.2708947,172.762125 83.2015242,172.691792 C78.8048707,168.279515 73.8676059,167.932822 71.3176425,168.119193 C71.1167073,168.136244 70.9492613,167.986579 70.9325167,167.790972 C70.9181642,167.595365 71.0664735,167.424861 71.2650166,167.410415 C73.9393684,167.216703 79.1134498,167.577368 83.7110385,172.19283 C83.8521715,172.332549 83.8497794,172.55752 83.7086464,172.695344 C83.6392759,172.763546 83.5483766,172.79741 83.4574774,172.79741" id="Fill-140" fill="#000000"></path>
            <path d="M188.893438,149.476658 C187.953348,146.496145 187.862449,141.633215 188.893438,138.599419 L188.154284,137.544186 L160.104687,138.361423 L160.800784,149.698551 L188.204517,149.839217 L188.893438,149.476658" id="Fill-141" fill="#FFFFFF"></path>
            <path d="M161.138068,149.344991 L188.11601,149.483526 L188.465255,149.299523 C187.570615,146.185211 187.580183,141.535885 188.496352,138.656964 L187.970093,137.905087 L160.485028,138.705747 L161.138068,149.344991 Z M188.204517,150.194435 C188.202125,150.194435 188.202125,150.194435 188.202125,150.194435 L160.798392,150.053769 C160.609417,150.052821 160.453931,149.906945 160.444363,149.720101 L159.745874,138.382973 C159.74109,138.287064 159.774579,138.192813 159.839165,138.122006 C159.906144,138.050963 159.997043,138.009284 160.095118,138.006442 L188.144715,137.189205 C188.264319,137.180916 188.37914,137.243198 188.44851,137.341948 L189.187665,138.397182 C189.252345,138.489065 189.268995,138.606287 189.233114,138.712615 C188.273888,141.541332 188.273888,146.322562 189.235506,149.370803 C189.288132,149.533967 189.213977,149.710155 189.060884,149.790434 L188.371963,150.152993 C188.319337,150.180226 188.261927,150.194435 188.204517,150.194435 L188.204517,150.194435 Z" id="Fill-142" fill="#000000"></path>
            <path d="M147.541453,136.971812 L189.268995,136.971812 C189.706747,136.971812 190.063168,137.106321 190.063168,137.781471 C190.063168,138.457095 189.706747,138.591367 189.268995,138.591367 L163.448823,138.591367 C162.185801,138.591367 161.161989,139.755061 161.161989,141.700706 L161.161989,146.367319 C161.161989,148.312728 162.185801,149.373172 163.448823,149.373172 L189.268995,149.373172 C189.706747,149.373172 190.063168,149.404194 190.063168,150.079818 C190.063168,150.754968 189.706747,150.889477 189.268995,150.889477 L147.541453,150.889477 C145.213953,150.889477 143.324206,147.981429 143.324206,144.39444 L143.324206,143.466849 C143.324206,139.879624 145.213953,136.971812 147.541453,136.971812" id="Fill-143" fill="#E4C0AE"></path>
            <path d="M189.268995,151.244695 L147.541453,151.244695 C145.020194,151.244695 142.965393,148.171589 142.965393,144.39444 L142.965393,143.466849 C142.965393,139.6897 145.020194,136.616594 147.541453,136.616594 L171.907238,136.616594 C172.105781,136.616594 172.26605,136.775731 172.26605,136.971812 C172.26605,137.167892 172.105781,137.327029 171.907238,137.327029 L147.541453,137.327029 C145.414889,137.327029 143.683019,140.081387 143.683019,143.466849 L143.683019,144.39444 C143.683019,147.779902 145.414889,150.53426 147.541453,150.53426 L189.268995,150.53426 C189.584751,150.53426 189.704355,150.495186 189.704355,150.079818 C189.704355,149.728389 189.670866,149.728389 189.268995,149.728389 L163.448823,149.728389 C162.133175,149.728389 160.803176,148.689259 160.803176,146.367319 L160.803176,141.700706 C160.803176,139.660809 161.891575,138.23615 163.448823,138.23615 L172.115349,138.23615 C172.313892,138.23615 172.474162,138.395287 172.474162,138.591367 C172.474162,138.787448 172.313892,138.946585 172.115349,138.946585 L163.448823,138.946585 C162.314974,138.946585 161.520802,140.079019 161.520802,141.700706 L161.520802,146.367319 C161.520802,147.97764 162.279093,149.017954 163.448823,149.017954 L189.268995,149.017954 C189.642161,149.017954 190.421981,149.017954 190.421981,150.079818 C190.421981,150.611224 190.221046,151.244695 189.268995,151.244695" id="Fill-144" fill="#000000"></path>
            <path d="M189.268995,138.946585 L172.115349,138.946585 C171.916806,138.946585 171.756536,138.787448 171.756536,138.591367 C171.756536,138.395287 171.916806,138.23615 172.115349,138.23615 L189.268995,138.23615 C189.584751,138.23615 189.704355,138.197076 189.704355,137.781471 C189.704355,137.366103 189.584751,137.327029 189.268995,137.327029 L171.907238,137.327029 C171.711087,137.327029 171.548425,137.167892 171.548425,136.971812 C171.548425,136.775731 171.711087,136.616594 171.907238,136.616594 L189.268995,136.616594 C190.221046,136.616594 190.421981,137.250065 190.421981,137.781471 C190.421981,138.312877 190.221046,138.946585 189.268995,138.946585" id="Fill-145" fill="#000000"></path>
            <path d="M172.887993,142.395749 L170.206465,142.395749 C170.007922,142.395749 169.847652,142.236848 169.847652,142.040531 C169.847652,141.844451 170.007922,141.685313 170.206465,141.685313 L172.887993,141.685313 C173.086536,141.685313 173.246806,141.844451 173.246806,142.040531 C173.246806,142.236848 173.086536,142.395749 172.887993,142.395749" id="Fill-146" fill="#F4D4C3"></path>
            <path d="M186.943888,142.395749 L175.335096,142.395749 C175.136553,142.395749 174.976283,142.236848 174.976283,142.040531 C174.976283,141.844451 175.136553,141.685313 175.335096,141.685313 L186.943888,141.685313 C187.142431,141.685313 187.302701,141.844451 187.302701,142.040531 C187.302701,142.236848 187.142431,142.395749 186.943888,142.395749" id="Fill-147" fill="#F4D4C3"></path>
            <path d="M186.872126,143.869192 L173.830474,143.869192 C173.631931,143.869192 173.471662,143.710054 173.471662,143.513974 C173.471662,143.317894 173.631931,143.158756 173.830474,143.158756 L186.872126,143.158756 C187.070669,143.158756 187.230938,143.317894 187.230938,143.513974 C187.230938,143.710054 187.070669,143.869192 186.872126,143.869192" id="Fill-148" fill="#F4D4C3"></path>
            <path d="M171.859396,146.510354 L170.17776,146.510354 C169.979217,146.510354 169.818947,146.351216 169.818947,146.155136 C169.818947,145.958819 169.979217,145.799918 170.17776,145.799918 L171.859396,145.799918 C172.057939,145.799918 172.218209,145.958819 172.218209,146.155136 C172.218209,146.351216 172.057939,146.510354 171.859396,146.510354" id="Fill-149" fill="#F4D4C3"></path>
            <path d="M186.943888,146.510354 L173.902237,146.510354 C173.703694,146.510354 173.543424,146.351216 173.543424,146.155136 C173.543424,145.958819 173.703694,145.799918 173.902237,145.799918 L186.943888,145.799918 C187.142431,145.799918 187.302701,145.958819 187.302701,146.155136 C187.302701,146.351216 187.142431,146.510354 186.943888,146.510354" id="Fill-150" fill="#F4D4C3"></path>
            <path d="M187.415129,159.7209 L147.981597,159.7209 L147.981597,151.777522 L187.415129,151.777522 C186.379356,154.460363 186.350651,157.109102 187.415129,159.7209" id="Fill-151" fill="#FFFFFF"></path>
            <path d="M148.340409,159.365682 L186.896046,159.365682 C186.061209,157.018877 186.063601,154.590372 186.903223,152.132503 L148.340409,152.132739 L148.340409,159.365682 Z M187.415129,160.076117 L147.981597,160.076117 C147.783053,160.076117 147.622784,159.91698 147.622784,159.7209 L147.622784,151.777522 C147.622784,151.581442 147.783053,151.422304 147.981597,151.422304 L187.415129,151.422067 C187.532341,151.422067 187.642377,151.479612 187.709356,151.575758 C187.776334,151.671904 187.790686,151.794809 187.750021,151.903979 C186.738169,154.524302 186.738169,157.109576 187.747629,159.587811 C187.790686,159.697455 187.778726,159.821545 187.711748,159.919585 C187.644769,160.017388 187.534733,160.076117 187.415129,160.076117 L187.415129,160.076117 Z" id="Fill-152" fill="#000000"></path>
            <path d="M152.203628,152.169208 L187.65673,152.169208 C188.029895,152.169208 188.33369,151.88906 188.33369,151.543315 C188.33369,151.19757 188.029895,150.917421 187.65673,150.917421 L142.946256,150.917421 C141.302893,150.917421 139.970502,152.148843 139.970502,153.66799 L139.970502,157.9917 C139.970502,159.510611 141.302893,160.742032 142.946256,160.742032 L187.65673,160.742032 C188.029895,160.742032 188.33369,160.461884 188.33369,160.116139 C188.33369,159.77063 188.029895,159.490245 187.65673,159.490245 L152.203628,159.490245 C151.043466,159.490245 150.100984,158.620198 150.100984,157.547204 L150.100984,154.112249 C150.100984,153.039255 151.043466,152.169208 152.203628,152.169208" id="Fill-153" fill="#F4D4C3"></path>
            <path d="M142.946256,151.272639 C141.503829,151.272639 140.329314,152.347054 140.329314,153.667753 L140.329314,157.9917 C140.329314,159.312399 141.503829,160.386814 142.946256,160.386814 L187.65673,160.386814 C187.831352,160.386814 187.974877,160.26533 187.974877,160.116139 C187.974877,159.966947 187.831352,159.845463 187.65673,159.845463 L152.203628,159.845463 C150.847315,159.845463 149.742172,158.814621 149.742172,157.547204 L149.742172,154.112249 C149.742172,152.845069 150.847315,151.813991 152.203628,151.813991 L187.65673,151.813991 C187.831352,151.813991 187.974877,151.692506 187.974877,151.543315 C187.974877,151.394123 187.831352,151.272639 187.65673,151.272639 L142.946256,151.272639 Z M187.65673,161.09725 L142.946256,161.09725 C141.109134,161.09725 139.611689,159.704086 139.611689,157.9917 L139.611689,153.667753 C139.611689,151.955367 141.109134,150.562204 142.946256,150.562204 L187.65673,150.562204 C188.226046,150.562204 188.692503,151.0022 188.692503,151.543315 C188.692503,152.08443 188.226046,152.524426 187.65673,152.524426 L152.203628,152.524426 C151.242009,152.524426 150.459797,153.236756 150.459797,154.112249 L150.459797,157.547204 C150.459797,158.422697 151.242009,159.135027 152.203628,159.135027 L187.65673,159.135027 C188.226046,159.135027 188.692503,159.575024 188.692503,160.116139 C188.692503,160.657254 188.226046,161.09725 187.65673,161.09725 L187.65673,161.09725 Z" id="Fill-154" fill="#000000"></path>
            <path d="M185.080453,154.018945 L176.590941,154.018945 C176.392398,154.018945 176.232128,153.859808 176.232128,153.663728 C176.232128,153.467411 176.392398,153.30851 176.590941,153.30851 L185.080453,153.30851 C185.276604,153.30851 185.439266,153.467411 185.439266,153.663728 C185.439266,153.859808 185.276604,154.018945 185.080453,154.018945" id="Fill-155" fill="#E4C0AE"></path>
            <path d="M164.104254,154.018945 L154.686613,154.018945 C154.48807,154.018945 154.3278,153.859808 154.3278,153.663728 C154.3278,153.467411 154.48807,153.30851 154.686613,153.30851 L164.104254,153.30851 C164.302797,153.30851 164.463067,153.467411 164.463067,153.663728 C164.463067,153.859808 164.302797,154.018945 164.104254,154.018945" id="Fill-156" fill="#E4C0AE"></path>
            <path d="M184.970417,155.698651 L175.866139,155.698651 C175.669988,155.698651 175.507327,155.539514 175.507327,155.343434 C175.507327,155.147354 175.669988,154.988216 175.866139,154.988216 L184.970417,154.988216 C185.168961,154.988216 185.32923,155.147354 185.32923,155.343434 C185.32923,155.539514 185.168961,155.698651 184.970417,155.698651" id="Fill-157" fill="#E4C0AE"></path>
            <path d="M164.979757,155.698651 L153.289635,155.698651 C153.091092,155.698651 152.930822,155.539514 152.930822,155.343434 C152.930822,155.147354 153.091092,154.988216 153.289635,154.988216 L164.979757,154.988216 C165.178301,154.988216 165.33857,155.147354 165.33857,155.343434 C165.33857,155.539514 165.178301,155.698651 164.979757,155.698651" id="Fill-158" fill="#E4C0AE"></path>
            <path d="M184.970417,158.015144 L167.936375,158.015144 C167.737832,158.015144 167.577562,157.856007 167.577562,157.659927 C167.577562,157.46361 167.737832,157.304709 167.936375,157.304709 L184.970417,157.304709 C185.168961,157.304709 185.32923,157.46361 185.32923,157.659927 C185.32923,157.856007 185.168961,158.015144 184.970417,158.015144" id="Fill-159" fill="#E4C0AE"></path>
            <path d="M164.238211,158.015144 L153.3303,158.015144 C153.134149,158.015144 152.971487,157.856007 152.971487,157.659927 C152.971487,157.46361 153.134149,157.304709 153.3303,157.304709 L164.238211,157.304709 C164.436754,157.304709 164.597024,157.46361 164.597024,157.659927 C164.597024,157.856007 164.436754,158.015144 164.238211,158.015144" id="Fill-160" fill="#E4C0AE"></path>
            <g id="Group-55" transform="translate(150.396469, 37.459995)">
                <path d="M5.88931495,20.4467129 C5.51614958,19.9176754 4.94922528,19.2531815 4.13113197,18.6441016 C2.51886622,17.4425185 0.846798332,17.1453197 0,17.0567521 C0.43775168,16.7702098 1.09318316,16.4109664 1.94954983,16.171076 C2.67674388,15.9674179 3.31782284,15.9141352 3.79623998,15.910583 C3.1408085,15.202279 2.48537702,14.4939749 1.82994555,13.7856708 C2.47580868,13.7570166 4.32489091,13.7582006 6.19550192,14.9533898 C8.13548341,16.1926259 8.89138248,17.9462172 9.11623854,18.5370626 C8.04219206,19.1736127 6.96575351,19.8101628 5.88931495,20.4467129" id="Fill-161" fill="#E4C0AE"></path>
                <path d="M21.3230518,41.4118979 L25.1216838,42.065972 C27.8582299,40.7883724 30.9224916,39.1422936 34.1326706,37.0161973 C38.1968242,34.3253049 41.4835499,31.5328203 44.0670024,29.0337454 C42.7059057,25.8777546 40.9501148,22.4203024 38.6680651,18.8368664 C33.2619514,10.3504789 26.9731582,4.40887102 21.9593466,0.473532634 C20.7322066,3.50164504 19.8327824,5.57872128 19.8327824,5.57872128 L21.3230518,41.4118979" id="Fill-162" fill="#000000"></path>
                <path d="M21.7847243,41.0107387 L25.0523134,41.5736403 C28.1022226,40.142113 31.0660168,38.4768525 33.8671491,36.6226161 C37.2926158,34.354196 40.5314998,31.7641854 43.497686,28.9212598 C42.0122008,25.5178007 40.2516258,22.2114344 38.2638026,19.0893077 C33.9652246,12.3456183 28.5519347,6.34314975 22.1626738,1.24103966 C21.2130158,3.56818915 20.4953901,5.25121057 20.3159837,5.66610483 L21.7847243,41.0107387 Z M25.1216838,42.5395956 C25.0929788,42.5395956 25.0666659,42.5372275 25.0379608,42.5327281 L21.2417209,41.8786539 C21.0192569,41.8402904 20.854203,41.6541563 20.8446346,41.4313164 L19.3567573,5.59813985 C19.3519732,5.52756994 19.3663257,5.45723683 19.3950307,5.3923504 C19.402207,5.37174778 20.3040233,3.28472544 21.5144186,0.296871035 C21.5718287,0.158099324 21.691433,0.0539021351 21.8373502,0.0155386245 C21.9832674,-0.0221144507 22.138753,0.00938151788 22.2559652,0.102211741 C28.9490209,5.35564457 34.6063036,11.5738487 39.0723275,18.584425 C41.1462658,21.8398767 42.9738193,25.2930663 44.5071462,28.8476113 C44.5836929,29.0273515 44.5430275,29.2357459 44.4018944,29.3723863 C41.3280643,32.3450847 37.9623998,35.0492386 34.3981921,37.4097785 C31.518121,39.3177712 28.4658196,41.0284996 25.3250111,42.4941277 C25.2604248,42.5242028 25.1910543,42.5395956 25.1216838,42.5395956 L25.1216838,42.5395956 Z" id="Fill-163" fill="#000000"></path>
                <path d="M3.23649193,21.9994879 L21.1723504,41.4047935 C24.3514322,39.5171667 27.9610895,37.0512455 31.6616461,33.8504973 C34.283372,31.5839716 36.5127959,29.3307074 38.3857989,27.227345 C36.9864288,24.451674 35.2091092,21.3994068 32.8576889,18.311381 C28.9849022,13.2232428 22.8946521,6.87455542 14.0224063,1.83235871 C13.4602661,3.34463882 12.8335397,4.89173027 12.1398348,6.46723913 C9.46787513,12.5229903 6.34141914,17.6845402 3.23649193,21.9994879" id="Fill-164" fill="#FFFFFF"></path>
                <path d="M3.69577238,21.9710705 L21.2393288,40.9503517 C24.8394177,38.7934698 28.2648844,36.3159449 31.4272217,33.5831368 C33.7284081,31.5915496 35.9267349,29.435615 37.9576156,27.1716943 C36.3357815,23.9858652 34.5752065,21.1554906 32.5730307,18.525222 C29.1068986,13.9715681 23.1219002,7.49689681 14.211381,2.35073972 C13.6707697,3.78131977 13.0847087,5.21213663 12.4675506,6.60932621 C10.1017778,11.970982 7.15233619,17.1379786 3.69577238,21.9710705 Z M21.1723504,41.7600112 C21.0742749,41.7600112 20.9785914,41.7202268 20.9068289,41.6446838 L2.97097042,22.2391414 C2.8561503,22.1155257 2.84418988,21.9298652 2.94226539,21.7932248 C6.44188674,16.9326627 9.42481759,11.7282499 11.809727,6.32491524 C12.479511,4.81145107 13.1086295,3.25867614 13.6875143,1.7096902 C13.7233956,1.6114133 13.8023344,1.53421266 13.9004099,1.49845408 C14.0008775,1.4626955 14.1109134,1.47216797 14.2018127,1.52450337 C23.4209109,6.76349069 29.592492,13.4287954 33.1447392,18.0977768 C35.2186775,20.8218228 37.0390547,23.7561578 38.7063384,27.0686811 C38.7733168,27.1982172 38.7517881,27.3538025 38.6561046,27.4622623 C36.5582455,29.8147507 34.2857641,32.0542798 31.8984626,34.1180946 C28.6308735,36.9420752 25.0858026,39.4960904 21.356541,41.7093335 C21.2991309,41.7436712 21.2345446,41.7600112 21.1723504,41.7600112 L21.1723504,41.7600112 Z" id="Fill-165" fill="#000000"></path>
                <path d="M7.62357707,22.456061 C7.62357707,22.456061 14.1396185,11.9245669 15.9217223,7.83032782 C19.1869193,9.46054021 21.0981957,11.7237505 21.0981957,11.7237505 C21.0981957,11.7237505 16.4312366,20.4822347 10.9509683,25.5038288 C9.60183193,24.5151396 7.62357707,22.456061 7.62357707,22.456061" id="Fill-166" fill="#E4C0AE"></path>
            </g>
        </g>
    </g>
</svg>