<?xml version="1.0" encoding="UTF-8"?>
<svg width="195px" height="197px" viewBox="0 0 195 197" version="1.1" xmlns="http://www.w3.org/2000/svg" xmlns:xlink="http://www.w3.org/1999/xlink">
    <title>08</title>
    <g id="Page-1" stroke="none" stroke-width="1" fill="none" fill-rule="evenodd">
        <g id="08">
            <path d="M95.8597018,1.86065457 C82.7639334,4.05900394 33.4562037,12.3367247 11.0749838,57.3714939 C-10.524728,100.833197 1.26540354,161.807982 37.9615612,185.814325 C96.8553551,224.341689 190.975999,148.725885 186.611098,117.77778 C184.977588,106.190321 170.007649,104.207114 167.487102,88.3832414 C163.501294,63.364937 197.979648,49.8632705 194.791428,31.2538006 C191.112303,9.77837656 139.504454,-5.4662838 95.8597018,1.86065457" id="Fill-3" fill="#F9EFEA"></path>
            <path d="M172.152296,178.828636 L95.8245611,178.828636 C92.5777732,178.828636 89.9454152,176.008646 89.9454152,172.530801 L97.3867251,6.77538719 C97.3867251,3.29679235 100.019083,0.476909467 103.266936,0.476909467 L179.593606,0.476909467 C182.841459,0.476909467 185.473817,3.29679235 185.473817,6.77538719 L178.032507,172.530801 C178.032507,176.008646 175.400149,178.828636 172.152296,178.828636" id="Fill-4" fill="#000000"></path>
            <path d="M92.3562803,18.4725601 L92.8684827,7.13474306 C92.8684827,3.67146959 95.5008407,0.863800955 98.7476287,0.863800955 L175.075364,0.863800955 C178.322152,0.863800955 180.95451,3.67146959 180.95451,7.13474306 L173.5132,172.164374 C173.5132,175.627218 170.880842,178.434351 167.634054,178.434351 L91.3063187,178.434351 C88.0584659,178.434351 85.4261079,175.627218 85.4261079,172.164374 L87.2331919,126.829177 L92.3562803,18.4725601" id="Fill-5" fill="#F4D4C3"></path>
            <path d="M167.634054,178.790064 L91.3063187,178.790064 C87.869984,178.790064 85.073636,175.817932 85.073636,172.164374 L86.8796551,126.814177 C86.888174,126.618106 87.0542937,126.464892 87.2470352,126.473464 C87.4419063,126.482035 87.5931178,126.647035 87.5856637,126.843105 L85.7796446,172.178302 C85.7796446,175.425791 88.2586614,178.07971 91.3063187,178.07971 L167.634054,178.07971 C170.681711,178.07971 173.160728,175.425791 173.160728,172.164374 L180.603103,7.11867169 C180.602038,3.87279031 178.123021,1.21897827 175.075364,1.21897827 L98.7476287,1.21897827 C95.6999714,1.21897827 93.2209546,3.87279031 93.2209546,7.13474306 L92.7098171,18.4887386 C92.7002332,18.6848093 92.5298541,18.8369517 92.3403073,18.827416 C92.1454361,18.8185232 91.9952895,18.6524523 92.0038084,18.4564887 L92.5149459,7.11867169 C92.5149459,3.48107741 95.3112939,0.508730783 98.7476287,0.508730783 L175.075364,0.508730783 C178.511699,0.508730783 181.308047,3.48107741 181.308047,7.13474306 L173.865672,172.180445 C173.866737,175.817932 171.070389,178.790064 167.634054,178.790064" id="Fill-6" fill="#000000"></path>
            <path d="M164.84516,175.280077 L94.2815648,175.280077 C91.279697,175.280077 88.8464696,172.684015 88.8464696,169.482597 L96.1301788,12.2544392 C96.1301788,9.05259342 98.5634062,6.45706688 101.566339,6.45706688 L172.128869,6.45706688 C175.130737,6.45706688 177.563965,9.05259342 177.563965,12.2544392 L170.280255,169.482597 C170.280255,172.684015 167.847028,175.280077 164.84516,175.280077" id="Fill-7" fill="#FFFFFF"></path>
            <path d="M120.738254,0.513552194 L122.579414,3.40736339 C123.697527,5.16503574 125.570633,6.21931772 127.576848,6.21931772 L146.163085,6.21931772 C148.12564,6.21931772 149.96467,5.20971415 151.091302,3.51364872 L153.084738,0.513552194 L120.738254,0.513552194" id="Fill-8" fill="#E4C0AE"></path>
            <path d="M162.398089,154.254437 C162.473695,159.170134 158.454877,163.154763 153.424432,163.154763 C148.392922,163.154763 144.253773,159.170134 144.179232,154.254437 C144.103627,149.337669 148.12138,145.35304 153.15289,145.35304 C158.183335,145.35304 162.323548,149.337669 162.398089,154.254437" id="Fill-9" fill="#F9EFEA"></path>
            <path d="M147.616632,149.810167 L147.383426,158.872278 C147.374907,159.234419 147.805114,159.447633 148.093694,159.222634 L154.142154,154.510507 C154.361517,154.340151 154.355128,154.010152 154.129376,153.840867 L148.313057,149.490882 C148.029802,149.279812 147.625151,149.465168 147.616632,149.810167" id="Fill-10" fill="#E4C0AE"></path>
            <path d="M154.54361,149.521954 L154.311468,158.584064 C154.301884,158.946206 154.732092,159.15942 155.020672,158.93442 L161.069132,154.222294 C161.288495,154.051938 161.282106,153.721939 161.056353,153.552654 L155.240035,149.202669 C154.956779,148.991598 154.552129,149.176955 154.54361,149.521954" id="Fill-11" fill="#E4C0AE"></path>
            <path d="M112.576027,148.800885 L113.085035,157.862996 C113.105268,158.225137 112.68145,158.438351 112.386481,158.213351 L106.194263,153.501225 C105.968511,153.330869 105.965316,153.00087 106.186809,152.831585 L111.870019,148.4816 C112.146885,148.27053 112.55686,148.455886 112.576027,148.800885" id="Fill-13" fill="#99B9FF"></path>
            <path d="M105.640531,148.512672 L106.149538,157.574782 C106.169771,157.936924 105.745953,158.150137 105.450984,157.925138 L99.2577013,153.213012 C99.0330138,153.042655 99.0298191,152.712657 99.2502472,152.543372 L104.934522,148.193387 C105.210323,147.982316 105.620298,148.167673 105.640531,148.512672" id="Fill-14" fill="#99B9FF"></path>
            <path d="M140.260512,153.195869 C140.343572,158.657993 135.879637,163.08512 130.291201,163.08512 C124.7017,163.08512 120.103592,158.657993 120.019467,153.195869 C119.936407,147.734817 124.400341,143.30769 129.988778,143.30769 C135.578279,143.30769 140.177452,147.734817 140.260512,153.195869" id="Fill-15" fill="#F9EFEA"></path>
            <path d="M128.045391,148.6166 L127.813249,157.678711 C127.803665,158.040852 128.233873,158.254066 128.522452,158.029066 L134.570913,153.31694 C134.791341,153.145512 134.783886,152.816585 134.558134,152.6473 L128.741815,148.297315 C128.45856,148.085173 128.05391,148.271601 128.045391,148.6166" id="Fill-16" fill="#E4C0AE"></path>
            <path d="M161.745324,127.893102 L128.325451,128.007744 L128.325451,131.92273 L161.745324,132.037373 C162.933719,132.037373 163.859091,131.117019 163.859091,129.921309 L163.859091,129.942737 C163.859091,128.747027 162.933719,127.893102 161.745324,127.893102" id="Fill-17" fill="#E4C0AE"></path>
            <path d="M128.86534,127.799888 L100.678238,127.799888 C99.4898429,127.799888 98.5250709,128.769527 98.5250709,129.965237 C98.5250709,131.162019 99.4898429,132.131658 100.678238,132.131658 L128.86534,132.131658 L128.86534,127.799888" id="Fill-18" fill="#F9EFEA"></path>
            <path d="M130.983366,130.310236 C130.983366,131.742731 129.829047,132.903084 128.406381,132.903084 C126.983715,132.903084 125.829397,131.742731 125.829397,130.310236 C125.829397,128.878812 126.983715,127.718459 128.406381,127.718459 C129.829047,127.718459 130.983366,128.878812 130.983366,130.310236" id="Fill-19" fill="#FFFFFF"></path>
            <path d="M127.63861,119.284203 L186.328908,119.280989 C188.217987,119.280989 189.824875,117.748852 189.917519,115.857787 L193.842629,35.8376772 C193.936337,33.9471482 192.72771,31.5224068 189.694961,31.5224068 L132.476314,32.4144751 L127.63861,119.284203" id="Fill-20" fill="#E4C0AE"></path>
            <path d="M73.4282202,119.280989 L128.162526,119.280989 L132.424135,32.4144751 L77.689829,32.4144751 C75.80075,32.4144751 74.1938615,33.9471482 74.1012179,35.8376772 L70.1751495,115.857787 C70.0823994,117.748852 71.5391412,119.280989 73.4282202,119.280989" id="Fill-21" fill="#E4C0AE"></path>
            <path d="M127.320214,118.389564 L185.433352,118.389564 C187.322431,118.389564 188.92932,116.856355 189.021963,114.966362 L192.948138,34.945609 C193.040782,33.0550799 191.58404,31.5224068 189.694961,31.5224068 L131.581823,31.5224068 L127.320214,118.389564" id="Fill-22" fill="#E4C0AE"></path>
            <path d="M72.5337296,118.389564 L127.266971,118.389564 L131.52858,31.5224068 L76.7953384,31.5224068 C74.9051945,31.5224068 73.2983061,33.0550799 73.2056624,34.945609 L69.28002,114.966362 C69.1873763,116.856355 70.6439052,118.389564 72.5337296,118.389564" id="Fill-23" fill="#E4C0AE"></path>
            <polyline id="Fill-24" fill="#F4D4C3" points="185.528126 115.926358 127.388366 115.926358 134.909541 104.929254 178.453131 103.348903 185.020183 106.180678 185.528126 115.926358"></polyline>
            <polyline id="Fill-25" fill="#F4D4C3" points="188.14877 22.322725 189.775891 29.3290931 185.528126 115.926358 183.887161 109.189239 188.14877 22.322725"></polyline>
            <path d="M184.241763,109.154954 L185.294919,113.477081 L189.421289,29.361343 L188.376652,24.8663946 L184.241763,109.154954 Z M185.528126,116.281 C185.366265,116.281 185.224638,116.170643 185.185238,116.011001 L183.544273,109.273882 C183.535754,109.240668 183.53256,109.206382 183.534689,109.172096 L187.795233,22.3052608 C187.804817,22.1283686 187.94112,21.985012 188.116824,21.9690477 C188.290398,21.9527621 188.452258,22.0694402 188.491658,22.2418325 L190.119844,29.2482005 C190.127298,29.2804504 190.130493,29.3135575 190.129428,29.3465573 L185.880597,115.943501 C185.872079,116.120286 185.735775,116.262786 185.562201,116.279928 C185.550488,116.281 185.538774,116.281 185.528126,116.281 L185.528126,116.281 Z" id="Fill-26" fill="#FFFFFF"></path>
            <path d="M127.413923,115.926358 C131.296438,111.650302 136.771998,109.189239 142.406224,109.189239 L183.887161,109.189239 L188.14877,22.322725 L146.667833,22.322725 C141.033607,22.322725 135.558047,24.7828235 131.676597,29.0590941 L127.413923,115.926358" id="Fill-27" fill="#FFFFFF"></path>
            <path d="M132.022679,29.2048078 L127.813249,114.992076 C131.712802,111.067447 136.978583,108.834598 142.406224,108.834598 L183.550662,108.834598 L187.777131,22.6779024 L146.667833,22.6779024 C141.166716,22.6779024 135.837043,25.0551797 132.022679,29.2048078 Z M127.413923,116.281 C127.368133,116.281 127.322344,116.272428 127.278684,116.254214 C127.141316,116.196357 127.053997,116.058143 127.061008,115.908144 L131.324125,29.0416299 C131.327319,28.9591301 131.36033,28.8805947 131.415703,28.8195235 C135.3685,24.4650389 140.928185,21.9675477 146.667833,21.9675477 L188.147705,21.9675477 C188.244608,21.9675477 188.337252,22.0074047 188.404339,22.0779045 C188.470361,22.1482971 188.505501,22.2431182 188.500705,22.3401893 L184.239633,109.207453 C184.230049,109.396024 184.074578,109.544952 183.887161,109.544952 L142.406224,109.544952 C136.864642,109.544952 131.494504,111.957801 127.674816,116.165286 C127.606664,116.241357 127.510826,116.281 127.413923,116.281 L127.413923,116.281 Z" id="Fill-28" fill="#000000"></path>
            <path d="M132.87777,106.206393 C135.959503,104.897112 139.280832,104.199614 142.651144,104.199614 L179.145296,104.199614 L182.917065,27.3123503 L146.423978,27.3123503 C142.818329,27.3123503 139.310648,28.6638455 136.564349,31.0680155 L132.87777,106.206393" id="Fill-29" fill="#F9EFEA"></path>
            <polyline id="Fill-30" fill="#F4D4C3" points="93.2805873 42.0026554 127.388366 115.926358 73.2184408 115.926358 71.5764116 109.189239 93.2805873 42.0026554"></polyline>
            <path d="M127.388366,115.926358 C123.925409,111.650302 118.691575,109.189239 113.057349,109.189239 L71.5764116,109.189239 L75.8380205,22.322725 L117.318957,22.322725 C122.953183,22.322725 128.187018,24.7828235 131.649975,29.0590941 L127.388366,115.926358" id="Fill-31" fill="#FFFFFF"></path>
            <path d="M71.9480512,108.834598 L113.057349,108.834598 C118.496703,108.834598 123.556965,111.07709 127.079554,115.016719 L131.290049,29.1785579 C127.890984,25.0454297 122.807296,22.6779024 117.317893,22.6779024 L76.1745193,22.6779024 L71.9480512,108.834598 Z M127.388366,116.281 C127.284009,116.281 127.182846,116.234929 127.114694,116.150286 C123.714565,111.952444 118.591477,109.544952 113.057349,109.544952 L71.5764116,109.544952 C71.4805734,109.544952 71.3879297,109.50531 71.3208429,109.434595 C71.254821,109.363881 71.2196803,109.269596 71.223593,109.172096 L75.4855486,22.3052608 C75.4951324,22.1161543 75.6506034,21.9675477 75.8380205,21.9675477 L117.317893,21.9675477 C123.06606,21.9675477 128.389344,24.4706103 131.923646,28.8347377 C131.97902,28.9027732 132.006706,28.9889158 132.002874,29.0765583 L127.740838,115.943501 C127.733384,116.090286 127.636481,116.217786 127.498048,116.263857 C127.461842,116.275643 127.424572,116.281 127.388366,116.281 L127.388366,116.281 Z" id="Fill-32" fill="#000000"></path>
            <path d="M126.564157,31.0680155 C124.054259,28.6638455 120.678622,27.3123503 117.074037,27.3123503 L80.5798855,27.3123503 L76.8081168,104.199614 L113.301204,104.199614 C116.672581,104.199614 119.924694,104.897112 122.878642,106.206393 L126.564157,31.0680155" id="Fill-33" fill="#F9EFEA"></path>
            <path d="M146.36328,59.0405594 L176.640722,59.0405594 C177.325434,59.0405594 177.84722,58.47924 177.797171,57.7930996 C177.748187,57.1070663 177.1476,56.5456397 176.461824,56.5456397 L146.185447,56.5456397 C145.499671,56.5456397 144.97895,57.1070663 145.027934,57.7930996 C145.076918,58.4791329 145.677504,59.0405594 146.36328,59.0405594" id="Fill-34" fill="#F4D4C3"></path>
            <path d="M145.764824,38.6783458 L172.993544,38.6783458 C173.610103,38.6783458 174.078646,38.1170263 174.033921,37.4308859 C173.990262,36.7448526 173.449308,36.183426 172.832748,36.183426 L145.604028,36.183426 C144.987469,36.183426 144.518926,36.7448526 144.56365,37.4308859 C144.60731,38.1170263 145.148264,38.6783458 145.764824,38.6783458" id="Fill-35" fill="#FFFFFF"></path>
            <path d="M139.721688,53.337901 L169.998065,53.337901 C170.683841,53.337901 171.204562,52.7765816 171.155578,52.0905483 C171.106594,51.4044079 170.504943,50.8430884 169.819167,50.8430884 L139.542789,50.8430884 C138.857013,50.8430884 138.336292,51.4044079 138.385276,52.0905483 C138.435325,52.7765816 139.035911,53.337901 139.721688,53.337901" id="Fill-36" fill="#FFFFFF"></path>
            <path d="M145.840429,47.6554926 L176.116807,47.6554926 C176.802583,47.6554926 177.323304,47.094066 177.27432,46.4080327 C177.225336,45.7219994 176.623685,45.1605728 175.937908,45.1605728 L145.661531,45.1605728 C144.975755,45.1605728 144.455034,45.7218923 144.504018,46.4080327 C144.553002,47.094066 145.154653,47.6554926 145.840429,47.6554926" id="Fill-37" fill="#E4C0AE"></path>
            <path d="M139.4576,64.5649328 L169.733977,64.5649328 C170.419753,64.5649328 170.940475,64.0036133 170.891491,63.3174729 C170.842507,62.6314396 170.240855,62.070013 169.555079,62.070013 L139.278702,62.070013 C138.592926,62.070013 138.072204,62.6314396 138.121188,63.3174729 C138.170172,64.0035062 138.771824,64.5649328 139.4576,64.5649328" id="Fill-38" fill="#F4D4C3"></path>
            <path d="M145.895803,69.911021 L176.17218,69.911021 C176.857956,69.911021 177.378677,69.3497016 177.329693,68.6636683 C177.280709,67.9775278 176.679058,67.4162084 175.993282,67.4162084 L145.716904,67.4162084 C145.031128,67.4162084 144.510407,67.9775278 144.559391,68.6636683 C144.608375,69.3497016 145.210026,69.911021 145.895803,69.911021" id="Fill-39" fill="#F4D4C3"></path>
            <path d="M146.503843,82.4807622 L173.0191,82.4807622 C173.619687,82.4807622 174.075451,81.9193357 174.032856,81.2336238 C173.990262,80.5468405 173.463151,79.9854139 172.862565,79.9854139 L146.347307,79.9854139 C145.746721,79.9854139 145.290957,80.5468405 145.333551,81.2336238 C145.377211,81.9193357 145.903257,82.4807622 146.503843,82.4807622" id="Fill-40" fill="#F4D4C3"></path>
            <path d="M139.711039,77.0154244 L175.208473,77.0154244 C176.012449,77.0154244 176.62262,76.4539978 176.565117,75.7672146 C176.507614,75.0815027 175.80267,74.5200761 174.998693,74.5200761 L139.50126,74.5200761 C138.697283,74.5200761 138.087113,75.0815027 138.144615,75.7672146 C138.202118,76.4539978 138.907062,77.0154244 139.711039,77.0154244" id="Fill-41" fill="#F4D4C3"></path>
            <path d="M139.190318,88.2418133 L168.748973,88.2418133 C169.417711,88.2418133 169.926719,87.6803867 169.878799,86.9946748 C169.83088,86.3078916 169.244137,85.746465 168.574334,85.746465 L139.015679,85.746465 C138.345876,85.746465 137.837933,86.3078916 137.885852,86.9946748 C137.933771,87.6803867 138.520515,88.2418133 139.190318,88.2418133" id="Fill-42" fill="#E4C0AE"></path>
            <path d="M145.130161,93.588223 L166.863088,93.588223 C167.355058,93.588223 167.728827,93.0267964 167.693687,92.3400131 C167.658546,91.6543012 167.226209,91.0928746 166.734239,91.0928746 L145.001312,91.0928746 C144.509342,91.0928746 144.135573,91.6543012 144.170714,92.3400131 C144.205854,93.0267964 144.637126,93.588223 145.130161,93.588223" id="Fill-43" fill="#F4D4C3"></path>
            <path d="M89.8229551,43.0504017 L117.543645,43.0504017 C118.229421,43.0504017 118.750142,42.4890823 118.701158,41.8029419 C118.652174,41.1168014 118.050523,40.555482 117.364747,40.555482 L89.644057,40.555482 C88.9582809,40.555482 88.4375596,41.1168014 88.4865436,41.8029419 C88.5355276,42.4890823 89.137179,43.0504017 89.8229551,43.0504017" id="Fill-44" fill="#F4D4C3"></path>
            <path d="M87.2981489,37.4955999 L110.091686,37.4955999 C110.655002,37.4955999 111.084145,36.9342805 111.04368,36.2481401 C111.003215,35.5619996 110.50805,35.0006802 109.944734,35.0006802 L87.1511969,35.0006802 C86.5868159,35.0006802 86.1587383,35.5619996 86.1992033,36.2481401 C86.2396684,36.9342805 86.7337679,37.4955999 87.2981489,37.4955999" id="Fill-45" fill="#E4C0AE"></path>
            <path d="M86.0000727,48.574775 L113.192587,48.574775 C113.878363,48.574775 114.399085,48.0134556 114.350101,47.3273152 C114.301116,46.6412819 113.699465,46.0799624 113.013689,46.0799624 L85.8222394,46.0799624 C85.1364633,46.0799624 84.615742,46.6412819 84.664726,47.3273152 C84.71371,48.0134556 85.3153614,48.574775 86.0000727,48.574775" id="Fill-46" fill="#F4D4C3"></path>
            <path d="M83.5338343,53.9208633 L117.016534,53.9208633 C117.702311,53.9208633 118.223032,53.3595438 118.174048,52.6734034 C118.123999,51.9873701 117.523412,51.4260507 116.837636,51.4260507 L83.3549362,51.4260507 C82.66916,51.4260507 82.1484387,51.9873701 82.1974227,52.6734034 C82.2474716,53.3595438 82.8480581,53.9208633 83.5338343,53.9208633" id="Fill-47" fill="#F4D4C3"></path>
            <path d="M82.9939453,66.9648171 L110.714635,66.9648171 C111.400411,66.9648171 111.921133,66.4033905 111.872149,65.7173573 C111.823165,65.031324 111.221513,64.4698974 110.535737,64.4698974 L82.8150472,64.4698974 C82.1292711,64.4698974 81.6085497,65.0312168 81.6575337,65.7173573 C81.7065178,66.4033905 82.3081692,66.9648171 82.9939453,66.9648171" id="Fill-48" fill="#F4D4C3"></path>
            <path d="M81.8172642,87.8003863 L109.537954,87.8003863 C110.22373,87.8003863 110.744451,87.2389597 110.695467,86.5532478 C110.646483,85.8664646 110.044832,85.3061094 109.359056,85.3061094 L81.6383661,85.3061094 C80.95259,85.3061094 80.4318686,85.8664646 80.4808526,86.5532478 C80.5298367,87.2389597 81.1314881,87.8003863 81.8172642,87.8003863" id="Fill-49" fill="#F4D4C3"></path>
            <path d="M88.0041576,61.4100154 L110.797695,61.4100154 C111.361011,61.4100154 111.790154,60.8485888 111.749689,60.1625555 C111.709223,59.476415 111.214059,58.9150956 110.650743,58.9150956 L87.8572055,58.9150956 C87.2928246,58.9150956 86.8647469,59.476415 86.905212,60.1625555 C86.945677,60.8485888 87.4397766,61.4100154 88.0041576,61.4100154" id="Fill-50" fill="#FFFFFF"></path>
            <path d="M86.7060813,72.4897262 L113.898596,72.4897262 C114.584372,72.4897262 115.105093,71.9282996 115.056109,71.2417306 C115.007125,70.5556973 114.405474,69.9942707 113.719698,69.9942707 L86.5282481,69.9942707 C85.8424719,69.9942707 85.3217506,70.5556973 85.3707346,71.2417306 C85.4197186,71.9282996 86.0203052,72.4897262 86.7060813,72.4897262" id="Fill-51" fill="#F4D4C3"></path>
            <path d="M91.1774695,93.5614373 L118.369984,93.5614373 C119.05576,93.5614373 119.576481,93.0000107 119.527497,92.3142989 C119.478513,91.628587 118.876862,91.0671604 118.191086,91.0671604 L90.9985714,91.0671604 C90.3127952,91.0671604 89.7920739,91.628587 89.8410579,92.3142989 C89.8911068,93.0000107 90.4916933,93.5614373 91.1774695,93.5614373" id="Fill-52" fill="#F4D4C3"></path>
            <path d="M86.59427,82.099335 L120.07697,82.099335 C120.762746,82.099335 121.283468,81.5389799 121.234484,80.8521966 C121.1855,80.1664847 120.583848,79.6050581 119.898072,79.6050581 L86.4153719,79.6050581 C85.7306606,79.6050581 85.2099393,80.1664847 85.2589233,80.8521966 C85.3079073,81.5389799 85.9084939,82.099335 86.59427,82.099335" id="Fill-53" fill="#FFFFFF"></path>
            <path d="M20.5531767,91.9618001 C16.7816209,93.7135797 13.719162,97.0221394 11.7845066,101.214625 C6.84808979,111.910658 -5.78318243,143.120191 3.0646075,165.773325 C13.9020001,193.520012 87.0148935,187.072178 105.156015,173.494012 C109.764771,170.044024 127.995342,147.772317 101.22984,132.518442 C76.6952406,118.53742 67.9473355,130.881305 56.7158346,125.494182 C45.4842272,120.107058 35.7993431,95.7375011 31.5593512,92.4975125 C28.8210385,90.4039485 24.7800707,89.9989499 20.5531767,91.9618001" id="Fill-54" fill="#E4C0AE"></path>
            <path d="M47.113052,157.601568 C47.0318024,157.601568 46.9501269,157.572639 46.8835725,157.515854 C36.670939,148.720528 14.5435841,149.303383 14.3208134,149.309812 C14.1255163,149.31624 13.9631236,149.161955 13.9569798,148.965884 C13.9509841,148.769813 14.1040059,148.605885 14.2989836,148.600528 C14.5239905,148.593028 36.9220353,148.001602 47.3427444,156.975856 C47.4908678,157.103355 47.5081186,157.328355 47.3812927,157.477283 C47.3115437,157.558711 47.2125108,157.601568 47.113052,157.601568" id="Fill-55" fill="#B49281"></path>
            <path d="M56.2906321,157.12157 C56.1789272,157.12157 56.0691392,157.06907 56.0005615,156.969427 C55.8891762,156.808714 55.9286828,156.586929 56.0887328,156.4755 C56.3029846,156.325501 61.4243692,152.839085 69.4506121,155.709432 C69.6343022,155.774789 69.7303534,155.978359 69.6650769,156.162644 C69.5995874,156.348001 69.3970492,156.444429 69.214211,156.379072 C61.5262773,153.629796 56.5413024,157.02407 56.4918925,157.058356 C56.4304495,157.101213 56.3601681,157.12157 56.2906321,157.12157" id="Fill-56" fill="#B49281"></path>
            <path d="M100.731481,166.761178 C100.803892,166.977606 109.011908,175.746147 109.011908,175.746147 L103.790852,178.005781 L97.1641673,170.384737 L100.731481,166.761178" id="Fill-57" fill="#FFFFFF"></path>
            <path d="M97.6465533,170.399737 L103.88669,177.577212 L108.409192,175.619718 C103.085908,169.930453 101.3129,167.98046 100.713378,167.285105 L97.6465533,170.399737 Z M103.790852,178.360423 C103.690754,178.360423 103.593851,178.317566 103.524634,178.239352 L96.8990147,170.618308 C96.7765547,170.477951 96.7829439,170.26688 96.9139229,170.135095 L100.481237,166.511536 C100.567491,166.42368 100.693146,166.387251 100.811346,166.415108 C100.908249,166.437608 100.990244,166.500822 101.039228,166.586536 C101.3523,167.011892 106.118657,172.136517 109.269607,175.501862 C109.348407,175.586504 109.381418,175.704361 109.357991,175.817932 C109.334564,175.931503 109.257893,176.02686 109.151406,176.07186 L103.93035,178.331495 C103.885625,178.35078 103.837706,178.360423 103.790852,178.360423 L103.790852,178.360423 Z" id="Fill-58" fill="#000000"></path>
            <path d="M103.587462,174.337223 C103.775944,173.878653 104.113507,173.352584 104.709834,173.005442 C105.608585,172.482587 106.743736,172.615443 107.561556,173.258298 C109.606106,174.866507 115.160466,179.418991 118.3604,183.846118 C119.491292,185.410398 118.923716,187.464319 116.347796,187.405391 C112.126652,187.30682 105.411584,185.516469 99.8274066,180.593272 C99.186355,180.02756 98.8679589,179.174706 98.9989379,178.327209 C99.1064898,177.635069 99.2885825,176.768286 99.5984596,175.949717 C99.8934285,175.166506 100.719767,174.722936 101.534393,174.89115 L102.269153,175.042221 C102.819691,175.155792 103.371293,174.860078 103.587462,174.337223" id="Fill-59" fill="#FFFFFF"></path>
            <path d="M101.182986,175.210434 C100.631383,175.210434 100.128765,175.544719 99.9285692,176.075074 C99.67726,176.740429 99.4813239,177.517212 99.3482152,178.381852 C99.235339,179.107206 99.5015565,179.833632 100.060613,180.326488 C105.510617,185.131828 112.052112,186.950036 116.356315,187.049678 C117.355163,187.072178 118.07821,186.752893 118.393411,186.147538 C118.701158,185.55504 118.579763,184.753615 118.075015,184.055046 C114.931519,179.706133 109.524111,175.25222 107.344322,173.53794 C106.620211,172.969014 105.632012,172.877942 104.886603,173.312941 C104.455331,173.563654 104.127351,173.953653 103.913312,174.473294 C103.632186,175.151506 102.911269,175.53829 102.197807,175.390434 L101.464111,175.239363 C101.369338,175.219006 101.275629,175.210434 101.182986,175.210434 Z M116.459608,187.761104 C116.420207,187.761104 116.380807,187.761104 116.340342,187.760033 C111.911549,187.657176 105.186896,185.790754 99.595265,180.860057 C98.8541156,180.206488 98.5005789,179.240063 98.6496606,178.272566 C98.7912883,177.358641 98.9989379,176.534715 99.26835,175.823289 C99.6261462,174.87615 100.606891,174.337223 101.605739,174.542937 L102.339434,174.694007 C102.721723,174.773293 103.1104,174.565437 103.261612,174.200081 C103.533153,173.543297 103.972945,173.023656 104.533066,172.697943 C105.52659,172.120445 106.82999,172.232945 107.778789,172.978656 C109.982005,174.710079 115.450111,179.21542 118.645785,183.63719 C119.309199,184.555401 119.452956,185.643969 119.01849,186.477537 C118.766115,186.961821 118.100572,187.761104 116.459608,187.761104 L116.459608,187.761104 Z" id="Fill-60" fill="#000000"></path>
            <path d="M115.140234,185.703969 C112.644179,185.703969 108.086537,184.680758 100.909314,179.551847 C100.749584,179.438276 100.712313,179.216491 100.82519,179.056849 C100.938066,178.897207 101.158494,178.859707 101.317159,178.973278 C112.571768,187.014321 117.148578,184.661472 117.194368,184.636829 C117.363682,184.542544 117.578786,184.604687 117.672494,184.773972 C117.767268,184.944328 117.7087,185.158613 117.54045,185.255042 C117.464845,185.29897 116.710917,185.703969 115.140234,185.703969" id="Fill-61" fill="#000000"></path>
            <path d="M110.682689,181.073271 C110.600694,181.073271 110.517634,181.044342 110.450547,180.985414 C110.303595,180.856843 110.288687,180.632915 110.416472,180.485058 L112.484449,178.09471 C112.612233,177.946853 112.835856,177.930782 112.981743,178.059353 C113.128695,178.188995 113.144668,178.412923 113.016884,178.56078 L110.948906,180.951128 C110.878625,181.031485 110.780657,181.073271 110.682689,181.073271" id="Fill-62" fill="#000000"></path>
            <path d="M108.741431,179.565776 C108.655177,179.565776 108.567858,179.534705 108.500771,179.470419 C108.358078,179.336491 108.349559,179.112563 108.482668,178.968992 L110.764684,176.505787 C110.897793,176.362216 111.121415,176.353644 111.264108,176.487573 C111.4068,176.621501 111.414255,176.8465 111.281146,176.990071 L108.99913,179.453276 C108.929913,179.528276 108.83514,179.565776 108.741431,179.565776" id="Fill-63" fill="#000000"></path>
            <polyline id="Fill-64" fill="#FFFFFF" points="89.0967139 171.694018 87.4919552 182.612908 83.2633574 179.864703 84.3175784 169.407598 89.0967139 171.694018"></polyline>
            <path d="M83.6371266,179.684704 L87.2225432,182.015053 L88.7091013,171.901874 L84.6178717,169.944381 L83.6371266,179.684704 Z M87.4919552,182.968621 C87.4248684,182.968621 87.3577816,182.949335 87.3002786,182.911836 L83.0716808,180.163631 C82.9609343,180.090774 82.8991719,179.962203 82.9130152,179.829346 L83.9661714,169.371169 C83.977885,169.256527 84.0439069,169.154741 84.1440047,169.097956 C84.2441024,169.04117 84.3654976,169.036885 84.4687899,169.08617 L89.2479255,171.372591 C89.3884883,171.44009 89.4683535,171.591161 89.4459912,171.745446 L87.8412325,182.665408 C87.8231297,182.784336 87.7464591,182.887193 87.6367775,182.936478 C87.5909881,182.957907 87.5409392,182.968621 87.4919552,182.968621 L87.4919552,182.968621 Z" id="Fill-65" fill="#000000"></path>
            <path d="M88.7186852,180.56113 C88.7303987,183.918975 88.6601173,190.678594 86.5165345,195.635005 C85.94044,196.964643 83.3048873,197.073928 82.2165904,195.406791 C79.9473529,191.930018 76.9305768,185.957896 77.8548838,178.392566 C77.9272949,177.801139 78.2755074,177.279355 78.7919692,176.987928 C79.3978801,176.646143 80.3626521,176.201502 81.7565666,175.832932 C82.4508617,175.648647 83.1568704,176.09436 83.2974332,176.802571 L83.8149599,179.403991 L84.1141883,178.942207 C84.5635633,178.247923 85.4261079,177.95221 86.2034628,178.226495 C86.6219566,178.37328 87.085175,178.536137 87.5036688,178.683993 C88.2852832,178.95935 88.7154906,179.727561 88.7186852,180.56113" id="Fill-66" fill="#FFFFFF"></path>
            <path d="M82.0749627,176.145788 C81.9982921,176.145788 81.9216214,176.156502 81.8460157,176.175788 C80.453166,176.545429 79.5107563,176.990071 78.9644781,177.29757 C78.548114,177.533283 78.2637938,177.958639 78.205226,178.435423 C77.5109309,184.124688 78.9591537,189.768954 82.5115593,195.211792 C83.0908485,196.09786 84.1227073,196.342145 84.8329754,196.280003 C85.4857406,196.224288 86.0064619,195.922147 86.1928141,195.493577 C88.4024189,190.386095 88.3747322,183.249334 88.3651484,180.562201 C88.3619538,179.821846 87.9871196,179.23042 87.3865331,179.019349 L86.0863271,178.561851 C85.4623134,178.341137 84.7722778,178.577922 84.4091572,179.136135 L84.1099288,179.597919 C84.0321933,179.717918 83.8884359,179.778989 83.7478731,179.752204 C83.6073103,179.725418 83.4965638,179.615061 83.4688772,179.472562 L82.9513505,176.872214 C82.9023665,176.625786 82.7586091,176.416859 82.5467,176.28293 C82.4018777,176.192931 82.2400175,176.145788 82.0749627,176.145788 Z M84.607223,197 C83.5210558,197 82.489197,196.469645 81.9216214,195.601791 C78.2744425,190.01431 76.7889492,184.210402 77.5045416,178.349709 C77.5907961,177.647926 78.0071602,177.023285 78.6194603,176.678286 C79.2008792,176.35043 80.2018568,175.87686 81.6660527,175.489005 C82.0898709,175.376505 82.5467,175.446148 82.9204693,175.68079 C83.2931737,175.915432 83.5572614,176.299002 83.6435159,176.732929 L83.9970526,178.509351 C84.5656931,177.850425 85.482546,177.595426 86.3195336,177.891139 L87.6197396,178.348637 C88.4982571,178.658279 89.0668976,179.526133 89.0711571,180.560058 C89.0818058,183.287906 89.1084275,190.53288 86.83919,195.776433 C86.5463509,196.455716 85.8179799,196.908929 84.8926081,196.988214 C84.7978347,196.995714 84.7019964,197 84.607223,197 L84.607223,197 Z" id="Fill-67" fill="#000000"></path>
            <path d="M84.2323888,194.935364 C84.1259019,194.935364 84.0194149,194.88715 83.9501984,194.793936 C78.7419203,187.815747 79.1593493,179.009706 79.1646736,178.92185 C79.1753223,178.725779 79.3457015,178.576851 79.5363132,178.586494 C79.7311843,178.597208 79.8802661,178.76435 79.8696174,178.960421 C79.8642931,179.046135 79.4649669,187.601462 84.5145793,194.367509 C84.631715,194.523937 84.5997689,194.746794 84.4442979,194.86465 C84.3804057,194.912865 84.3069297,194.935364 84.2323888,194.935364" id="Fill-68" fill="#000000"></path>
            <path d="M88.2522722,185.556112 C88.2288451,185.556112 88.2043531,185.553969 88.1809259,185.548612 L85.0054843,184.889686 C84.8148726,184.850043 84.6924126,184.661472 84.7318128,184.469687 C84.7712129,184.277902 84.9575652,184.153617 85.1481768,184.194331 L88.3236185,184.853257 C88.5142302,184.8929 88.6366902,185.080399 88.59729,185.273256 C88.5632142,185.440398 88.4162622,185.556112 88.2522722,185.556112" id="Fill-69" fill="#000000"></path>
            <path d="M87.8635948,188.320388 C87.8316487,188.320388 87.7986377,188.315031 87.7656267,188.305388 L84.7477858,187.423605 C84.5603687,187.368963 84.4528169,187.17182 84.5071252,186.98325 C84.5614336,186.794679 84.7563048,186.686465 84.9437218,186.741108 L87.9626276,187.623962 C88.1489799,187.678604 88.2575966,187.875747 88.2032882,188.063246 C88.1574988,188.218602 88.016936,188.320388 87.8635948,188.320388" id="Fill-70" fill="#000000"></path>
            <path d="M57.3694516,130.627378 C57.3694516,130.627378 72.0875491,127.694888 86.0629,134.268079 C89.5897486,135.927716 91.9495001,139.384132 92.2284959,143.293761 C92.800331,151.315519 94.0451638,162.442265 89.8431877,175.420433 L82.8118526,174.028653 C82.8118526,174.028653 80.3711711,163.873689 79.594881,154.041223 C78.8633155,144.78197 49.6108105,137.594853 49.6108105,137.594853 L57.3694516,130.627378" id="Fill-71" fill="#000000"></path>
            <path d="M103.533153,168.072602 L97.1801404,173.018299 C97.1801404,173.018299 76.5280561,154.944434 71.1621773,152.398729 C65.7967245,149.853024 55.8530771,146.166251 47.1356272,146.896963 C38.4181773,147.627675 36.1102851,141.674839 36.1102851,141.674839 L47.9261865,132.622371 C47.9261865,132.622371 69.6352605,133.401296 79.3009769,140.136273 C88.9678647,146.87232 103.533153,168.072602 103.533153,168.072602" id="Fill-72" fill="#000000"></path>
            <path d="M93.1645165,154.068009 C93.0644187,154.068009 92.9643209,154.025152 92.8951044,153.941581 C88.6420146,148.864099 82.3252071,142.675549 79.1007814,140.428772 C75.4525376,137.886281 69.6609239,135.902002 61.8876941,134.529507 C61.695698,134.495221 61.5672747,134.310936 61.6010311,134.11808 C61.634894,133.925223 61.818797,133.796652 62.0096216,133.829866 C69.8842271,135.219504 75.7698688,137.243426 79.5022373,139.844845 C82.7692578,142.120551 89.1488926,148.366958 93.4349934,153.484083 C93.560648,153.634082 93.5414804,153.85801 93.3923986,153.984438 C93.3263767,154.041223 93.2454466,154.068009 93.1645165,154.068009" id="Fill-73" fill="#E4C0AE"></path>
            <path d="M43.7368824,144.94697 C43.7368824,144.94697 39.1367515,149.081598 36.3663863,148.21053 C33.5959146,147.339461 37.8663618,142.354122 39.2154453,142.069123 C40.5644223,141.784124 43.7368824,144.94697 43.7368824,144.94697" id="Fill-74" fill="#000000"></path>
            <path d="M16.7613884,107.643173 L22.5419275,106.346749 C23.3237548,106.171036 24.1242175,106.518177 24.5473967,107.202818 C25.1772672,108.220671 26.307094,109.495667 27.9235663,109.234239 C29.6984912,108.946026 29.0242157,105.792823 28.4007344,103.779615 C28.0891535,102.772476 27.1724072,102.082479 26.1250013,102.059979 C23.2544318,102.00105 17.4993432,101.997836 15.0538697,102.824976 C11.7301982,103.947829 16.7613884,107.643173 16.7613884,107.643173" id="Fill-75" fill="#FFFFFF"></path>
            <path d="M22.9449807,105.947108 C23.7049782,105.947108 24.4312194,106.342464 24.8471575,107.014247 C25.4515776,107.992458 26.466718,109.109954 27.8674477,108.882812 C28.1346235,108.839955 28.322786,108.716741 28.4597282,108.493885 C28.9020751,107.774958 28.7615123,106.138893 28.0638096,103.884615 C27.7973792,103.024261 27.0153389,102.433906 26.1176537,102.415692 C23.6401277,102.364263 17.6127518,102.334263 15.1662135,103.161403 C14.6281348,103.343546 14.3299713,103.599616 14.2800289,103.924258 C14.1391466,104.841397 15.7266545,106.412106 16.8423185,107.260675 L22.4651504,105.999608 C22.6248808,105.964251 22.7856762,105.947108 22.9449807,105.947108 Z M27.488354,109.625309 C25.9671876,109.625309 24.8974194,108.441385 24.2476359,107.390317 C23.902831,106.832105 23.248788,106.552463 22.6187046,106.693891 L16.8381655,107.989243 C16.7389197,108.011743 16.6352013,107.990315 16.5533129,107.930315 C16.2219254,107.68603 13.3232434,105.503538 13.5823262,103.816044 C13.6757153,103.208546 14.1328639,102.761762 14.941526,102.487477 C17.4008427,101.657123 23.0083404,101.641052 26.1322424,101.705337 C27.3338414,101.72998 28.3809279,102.520691 28.7377657,103.673544 C29.5193801,106.197821 29.6277839,107.945315 29.0598888,108.867812 C28.8140104,109.267453 28.4505703,109.508524 27.9795785,109.584595 C27.8110096,109.611381 27.6470196,109.625309 27.488354,109.625309 L27.488354,109.625309 Z" id="Fill-76" fill="#000000"></path>
            <path d="M42.6042869,99.1542747 L38.3051946,100.90284 C38.3051946,100.90284 37.0417267,101.651766 36.9655885,103.269617 C36.9004184,104.657112 36.4180324,105.779966 35.2647785,106.638177 C31.1285048,109.71638 30.096859,101.012125 30.096859,101.012125 C30.096859,101.012125 33.7933414,97.5096377 40.9916481,95.0025037 C48.1900612,92.4942982 42.6042869,99.1542747 42.6042869,99.1542747" id="Fill-77" fill="#FFFFFF"></path>
            <path d="M30.4709478,101.15141 C30.6783844,102.659977 31.4662815,106.142107 33.0360061,106.823533 C33.6254115,107.079604 34.2857372,106.925319 35.0548927,106.353178 C36.0535275,105.609609 36.548692,104.62497 36.6130101,103.252474 C36.6971348,101.463195 38.0677287,100.630698 38.1260836,100.596412 C38.1410982,100.587841 38.1567518,100.57927 38.1729378,100.572841 L42.3901416,98.8585615 C43.3980408,97.6371372 44.6524574,95.6217872 44.2420566,95.0207179 C44.1419588,94.8739327 43.6201726,94.4625056 41.1071865,95.3378596 C34.8122088,97.5310661 31.188244,100.523556 30.4709478,101.15141 Z M33.604753,107.653887 C33.3128722,107.653887 33.0296168,107.593888 32.7557323,107.47496 C30.4122734,106.457106 29.7724997,101.273553 29.7464104,101.053911 C29.7330995,100.941411 29.7734581,100.829983 29.8549206,100.75284 C30.0080489,100.608198 33.6890907,97.1710674 40.8763227,94.6671477 C43.0706998,93.9021504 44.3251164,93.8871505 44.8242209,94.6178622 C45.6979465,95.8992862 43.3529968,98.8124902 42.8740184,99.3835596 C42.8369609,99.427488 42.7897872,99.4617736 42.7365437,99.4832021 L38.465564,101.219982 C38.3156304,101.317481 37.3799293,101.974265 37.3182733,103.285689 C37.2440519,104.86604 36.6410162,106.056393 35.4746643,106.924247 C34.8215797,107.409603 34.1956492,107.653887 33.604753,107.653887 L33.604753,107.653887 Z" id="Fill-78" fill="#000000"></path>
            <path d="M56.1450644,97.3810667 C57.1194202,88.0521711 53.4827835,88.8225255 41.0651241,94.3950058 C38.9517836,95.3442882 38.9148326,97.7571368 39.172957,99.4028452 C39.2950976,100.181771 40.0615908,100.679984 40.8214819,100.488199 C42.3417965,100.1057 43.318495,99.9278434 45.4268307,99.6664157 C45.4268307,99.6664157 43.8957609,102.357835 39.4918855,104.741755 C38.7737373,105.130682 37.1150962,105.500324 35.3676449,105.804608 C31.2739661,106.518177 27.3391658,107.965672 23.7518325,110.075307 C22.8506332,110.604591 22.1795523,111.007447 22.0624166,111.100661 C20.8922312,111.624588 17.6290443,112.086372 14.2528747,108.982454 C14.2528747,108.982454 17.9343425,108.382456 18.9273335,107.83603 C20.186329,107.144961 19.4304845,103.67033 16.5330803,102.263549 C15.8832968,101.947479 15.1563102,101.830694 14.438588,101.903551 C12.5604772,102.096407 7.97972689,102.605334 6.09512038,103.171046 C3.69298715,103.892115 2.61523246,105.64068 3.70118665,108.0846 C3.70118665,108.0846 9.3656549,119.316346 17.6541752,123.312761 C17.6867602,123.328832 17.7194517,123.343832 17.7520368,123.359903 C23.7157334,126.202393 28.4376854,131.150233 30.8697415,137.322711 C33.601026,144.254829 36.1835481,149.22624 36.7575129,147.421961 C38.1831606,142.942334 44.1945634,141.192697 52.308871,137.024855 C60.4231787,132.857013 58.7706073,128.858455 58.7706073,128.858455 C58.7706073,128.858455 54.2908066,127.841673 51.760889,126.067394 C49.4350005,124.436685 47.2136822,121.665981 45.4094733,118.863134 C44.7801353,117.885994 44.905364,116.602427 45.706359,115.761359 C49.3978365,111.886015 55.3439628,105.050325 56.1450644,97.3810667" id="Fill-79" fill="#FFFFFF"></path>
            <path d="M14.8535677,102.237835 C14.7278066,102.237835 14.6011936,102.244264 14.4742611,102.257121 C12.6029655,102.448906 8.05032776,102.954618 6.19607003,103.511759 C5.02045381,103.864258 4.20870358,104.468542 3.84856463,105.25711 C3.50684792,106.007108 3.56562873,106.909247 4.02330975,107.938886 C4.07208079,108.034243 9.72409006,119.095633 17.8067711,122.992405 L17.9030353,123.038476 C24.0313608,125.960251 28.7529934,130.986305 31.1979344,137.191997 C34.2575182,144.956613 35.8939035,147.262319 36.3723495,147.430532 C36.3848085,147.410175 36.4024853,147.373747 36.4213335,147.313747 C37.5736291,143.693403 41.5430377,141.81091 47.0370203,139.204133 C48.5809749,138.47235 50.3307689,137.641996 52.1483952,136.708785 C58.9130868,133.233083 58.6557078,129.921309 58.4887362,129.156311 C57.5681563,128.932384 53.8364267,127.956316 51.5590962,126.358821 C48.9297198,124.514899 46.6025534,121.370268 45.1131201,119.057061 C44.3927357,117.937423 44.5319141,116.481356 45.4515357,115.516003 C49.5231717,111.241018 55.0250343,104.706398 55.7940833,97.3435668 L56.1450644,97.3810667 L55.7940833,97.3435668 C56.164232,93.7992936 55.84935,91.8675148 54.7730862,91.081089 C53.0075321,89.7910935 48.9926536,91.2268027 41.2088815,94.7196475 C39.3455724,95.5564303 39.2629385,97.6982084 39.5217019,99.3471312 C39.5645096,99.6203445 39.7148692,99.8549865 39.9454136,100.0082 C40.1773422,100.162485 40.4649635,100.211771 40.7357599,100.144271 C42.2861038,99.7532011 43.2851646,99.5742732 45.3834905,99.313917 C45.5152149,99.2967742 45.6466198,99.356774 45.7207347,99.4692736 C45.7947432,99.5817732 45.7995351,99.7253441 45.7331937,99.8421294 C45.6685561,99.9557004 44.1008549,102.650334 39.6590701,105.054611 C39.0046011,105.409253 37.5810832,105.778894 35.4279165,106.153893 C31.3645865,106.863176 27.4962341,108.284957 23.9299852,110.381735 C22.5712114,111.179946 22.3241616,111.346017 22.2810344,111.379231 C22.2582462,111.397446 22.2323698,111.413517 22.2059611,111.425303 C20.7524138,112.075658 17.3918978,112.348871 14.0147698,109.244953 C13.914885,109.152811 13.8760173,109.012454 13.9145656,108.88174 C13.9533268,108.751026 14.062689,108.654598 14.1963301,108.632098 C15.2038034,108.46817 17.987373,107.948529 18.7581257,107.524245 C19.0263664,107.37746 19.172786,106.994961 19.1597946,106.476392 C19.1278485,105.19711 18.1626505,103.448545 16.3797391,102.582834 C15.9105575,102.354621 15.3893037,102.237835 14.8535677,102.237835 Z M36.3995037,148.149459 C35.9540687,148.149459 35.2980024,147.746603 33.8600023,144.978041 C32.9030038,143.136262 31.7555002,140.533771 30.5415486,137.453425 C28.1628425,131.415946 23.5670776,126.524892 17.6009317,123.680259 L17.5017924,123.633117 C9.20060008,119.630274 3.61993709,108.708169 3.38641115,108.245314 C2.84226269,107.021747 2.78273647,105.891394 3.20698059,104.961397 C3.65433238,103.979972 4.61814601,103.243903 5.99427721,102.830333 C7.90625088,102.257121 12.5114932,101.74498 14.4028084,101.551052 C15.2000764,101.468552 15.9896773,101.604623 16.6865281,101.943193 C18.8191428,102.97819 19.8293847,105.009611 19.8654838,106.459249 C19.8853969,107.253175 19.6050166,107.868172 19.0964348,108.147814 C18.3380346,108.564599 16.1989242,108.99424 15.0523789,109.204239 C17.9426484,111.527088 20.7270699,111.289232 21.8839444,110.791019 C21.9809541,110.722448 22.2861457,110.525306 23.5737863,109.767809 C27.2130852,107.629245 31.1607704,106.177464 35.3072668,105.454252 C37.8958587,105.003183 38.9206894,104.64747 39.324701,104.428899 C42.3117672,102.812119 43.9564585,101.039982 44.6748197,100.1207 C43.1253277,100.327485 42.2158224,100.503198 40.9074169,100.833197 C40.4450504,100.948911 39.9527612,100.86534 39.5558842,100.600698 C39.1639056,100.340342 38.8973687,99.9235577 38.8244251,99.4585593 C38.404121,96.7799974 39.1487845,94.8664327 40.9213667,94.0714355 C49.1228872,90.3910914 53.1287143,89.0025249 55.1879594,90.5068053 C56.5099952,91.472159 56.9012284,93.5389374 56.4961519,97.4185665 C55.7044213,104.997825 50.1044841,111.657802 45.9611823,116.007787 C45.26923,116.734213 45.1641273,117.829209 45.7056136,118.670277 C47.1607581,120.930983 49.4274399,123.998473 51.9626819,125.775966 C54.4077293,127.491317 58.8041507,128.501671 58.8482363,128.512385 C58.9599411,128.537028 59.0525848,128.616313 59.0964574,128.722384 C59.1690815,128.898098 60.7789517,133.072369 52.4694534,137.340925 C50.6419239,138.279493 48.8866991,139.11199 47.3380589,139.846988 C42.0052976,142.376622 38.1522793,144.204472 37.0937988,147.531246 C36.9268272,148.055173 36.6031068,148.14303 36.4250606,148.149459 C36.4166481,148.149459 36.4080227,148.149459 36.3995037,148.149459 L36.3995037,148.149459 Z" id="Fill-80" fill="#000000"></path>
            <path d="M35.6747533,107.666745 L34.1477301,107.348531 C34.1453874,107.283175 30.8956178,101.270339 30.8956178,101.270339 L25.5067379,99.4467737 C25.5067379,99.4467737 27.6783268,108.452099 27.7083561,108.552813 L24.8239434,110.811376 C24.8239434,110.811376 30.505982,112.234228 33.4122245,110.401021 C35.935114,108.809955 35.6747533,107.666745 35.6747533,107.666745" id="Fill-81" fill="#FFFFFF"></path>
            <path d="M25.6417634,110.620663 C27.2429015,110.922804 31.0802662,111.45316 33.2248075,110.09995 C34.819237,109.094954 35.2084469,108.312814 35.3010905,107.951744 L34.0761708,107.696744 C33.9545627,107.67103 33.857979,107.584245 33.8167686,107.471745 C33.6836599,107.186746 31.883817,103.84283 30.6516562,101.562838 L26.0006245,99.9878432 C26.7665853,103.163546 28.0057742,108.297814 28.048369,108.457456 C28.0852135,108.59567 28.0371879,108.745669 27.9250571,108.833526 L25.6417634,110.620663 Z M29.2144014,111.696373 C26.9394137,111.696373 24.8808074,111.190661 24.7387538,111.155304 C24.6076683,111.123161 24.5066122,111.01709 24.4787126,110.884233 C24.4507065,110.751377 24.5006489,110.614234 24.6073489,110.530663 L27.3106273,108.414599 C27.0051161,107.165318 25.6205725,101.424624 25.1637433,99.5303448 C25.133501,99.4039167 25.1734336,99.2721314 25.268207,99.1842746 C25.362874,99.0974892 25.497793,99.0685607 25.6192946,99.1092749 L31.0080681,100.933911 C31.0925122,100.961768 31.1631131,101.021768 31.2057079,101.101054 C33.4178684,105.193896 34.1429382,106.55032 34.3817885,107.034604 L35.7463126,107.319603 C35.8815511,107.34746 35.9879315,107.45246 36.0187063,107.587459 C36.0510783,107.729959 36.2584085,109.025311 33.5997481,110.702091 C32.3900561,111.464945 30.7526058,111.696373 29.2144014,111.696373 L29.2144014,111.696373 Z" id="Fill-82" fill="#000000"></path>
            <path d="M30.3972588,90.6193049 C28.9511656,91.0425177 31.2480897,91.8760862 25.4666988,92.2071564 C23.1644503,92.3389417 25.0810029,94.4164343 24.4839305,94.4528628 C22.2785852,94.584648 22.353552,94.5782194 21.4675804,95.1857173 C20.8808371,95.588573 20.8811566,96.9407111 21.3176467,97.7946366 C21.8936347,98.9228469 22.971283,98.8821328 24.708405,101.079625 C25.9283198,102.622477 26.1549241,103.744258 26.9442056,103.750687 C27.742219,103.757116 27.9291036,102.614977 28.8011255,102.554977 C29.9298874,102.478906 30.3551964,104.343185 31.6154698,104.729969 C32.4098626,104.973183 33.952646,104.666755 35.8989084,102.673905 C36.2143229,102.350335 36.2572371,101.844622 35.9996451,101.470695 C35.6695355,100.99284 35.2494444,100.39177 34.8004953,99.8507008 C32.660533,97.2717814 31.3758741,96.9749967 31.4863011,96.0696427 C31.6555089,94.6821477 34.1054548,94.5675052 34.1322895,93.4682234 C34.1602956,92.3260846 32.3769582,90.0385927 30.3972588,90.6193049" id="Fill-83" fill="#000000"></path>
            <path d="M27.2452443,97.5021377 L27.9181355,98.1203498 C28.2352537,98.4117773 28.5316069,98.7246334 28.8060239,99.056775 C29.3205689,99.6803443 30.2134623,100.746412 30.7583561,101.304624 C31.5590317,102.125336 34.2491057,99.8121295 34.2491057,99.8121295 L34.2235488,99.1382033 L34.533213,98.8596329 C34.5930586,98.8060616 34.6424686,98.7396333 34.6678125,98.6624907 C34.7310658,98.4707057 34.6615298,98.2703492 34.5110637,98.1589211 C33.6884518,97.5471375 31.9272637,96.1424996 30.9534403,94.6650049 C30.9534403,94.6650049 28.4337454,94.8889326 27.2452443,97.5021377" id="Fill-84" fill="#FFFFFF"></path>
            <path d="M27.6782203,97.419638 L28.1561339,97.8578507 C28.4840073,98.1589211 28.7939908,98.4867771 29.0775657,98.829633 C29.5676187,99.4242737 30.4704153,100.503198 31.0103043,101.056054 C31.3333858,101.387124 32.754561,100.596412 33.8898186,99.6514158 L33.870864,99.1510604 C33.8668175,99.0449894 33.9100512,98.943204 33.9886386,98.87249 L34.2981962,98.594991 C34.3191741,98.5757053 34.3299293,98.5596339 34.332698,98.5510625 C34.3489905,98.501777 34.3259893,98.4621343 34.3012843,98.4439201 C33.4026407,97.7764224 31.7859554,96.4692842 30.7870011,95.0485749 C30.2243239,95.1557174 28.6113657,95.6110729 27.6782203,97.419638 Z M31.2300934,101.833908 C30.9495002,101.833908 30.7001077,101.751408 30.5065144,101.553195 C29.9487356,100.982125 29.0315633,99.8860578 28.5344821,99.2839171 C28.2714593,98.9646325 27.9840509,98.6624907 27.6802436,98.3828488 L27.0072459,97.7646367 C26.8939437,97.6607085 26.8604003,97.4946377 26.9242925,97.3542811 C28.1838205,94.5857194 30.8110672,94.3210775 30.9223461,94.3114347 C31.0520472,94.299649 31.1761045,94.3607202 31.2476638,94.4689341 C32.2058336,95.9228576 33.9957732,97.333924 34.7209495,97.8728507 C34.9988805,98.0796356 35.1122891,98.4417772 35.002927,98.7739189 C34.9602257,98.9035613 34.8791891,99.0257037 34.7682297,99.1253462 L34.5826229,99.2914171 L34.6018971,99.798201 C34.60605,99.9064149 34.5604736,100.011415 34.4784786,100.082129 C33.928154,100.554627 32.3370255,101.833908 31.2300934,101.833908 L31.2300934,101.833908 Z" id="Fill-85" fill="#000000"></path>
            <path d="M28.751609,99.9610576 C28.751609,99.9610576 27.1354562,98.4728485 26.6241057,99.3599882 C26.1126488,100.246057 27.9325112,101.839265 28.751609,99.9610576" id="Fill-86" fill="#FFFFFF"></path>
            <path d="M31.0596078,101.656052 C31.0596078,103.879258 29.2684968,105.681394 27.059105,105.681394 C24.8497132,105.681394 23.0587088,103.879258 23.0587088,101.656052 C23.0587088,99.4328451 24.8497132,97.6307087 27.059105,97.6307087 C29.2684968,97.6307087 31.0596078,99.4328451 31.0596078,101.656052" id="Fill-87" fill="#F4D4C3"></path>
            <path d="M27.059105,97.9864217 C25.047779,97.9864217 23.4116066,99.6321301 23.4116066,101.656052 C23.4116066,103.679973 25.047779,105.325681 27.059105,105.325681 C29.0703246,105.325681 30.7066034,103.679973 30.7066034,101.656052 C30.7066034,99.6321301 29.0703246,97.9864217 27.059105,97.9864217 Z M27.059105,106.036036 C24.6585691,106.036036 22.7057044,104.071043 22.7057044,101.656052 C22.7057044,99.2410601 24.6585691,97.276067 27.059105,97.276067 C29.4596409,97.276067 31.4125056,99.2410601 31.4125056,101.656052 C31.4125056,104.071043 29.4596409,106.036036 27.059105,106.036036 L27.059105,106.036036 Z" id="Fill-88" fill="#000000"></path>
            <path d="M25.2548962,98.9335612 C25.1051755,98.9335612 24.96621,98.837133 24.9186103,98.6849906 C23.4807167,94.1228639 24.4758375,91.5825158 25.7649688,90.7939471 C26.5845991,90.2925203 27.5668349,90.4575197 28.3284298,91.2235885 C28.4662239,91.3628737 28.4662239,91.5878729 28.3284298,91.7260867 C28.1905292,91.8653719 27.9671195,91.8653719 27.8293253,91.7260867 C27.2935893,91.18716 26.6747935,91.0693033 26.1317099,91.401445 C24.9765392,92.1075139 24.3615769,94.5675052 25.591395,98.4707057 C25.6503888,98.658205 25.5475224,98.85749 25.3615961,98.9164184 C25.3262424,98.9282041 25.2902498,98.9335612 25.2548962,98.9335612" id="Fill-89" fill="#F4D4C3"></path>
            <path d="M17.5648327,77.4964942 C17.5405536,77.4964942 17.5159551,77.4932799 17.4913566,77.4879228 C17.3006385,77.44828 17.1787109,77.2597093 17.2191759,77.0668528 C19.9201116,64.2341839 25.927042,52.213655 34.5906094,42.3050115 C38.7219847,37.5798139 43.3996381,33.3846502 48.4937621,29.835877 C48.6543445,29.7242346 48.8739206,29.764413 48.98488,29.9256624 C49.095733,30.087019 49.0559069,30.3081611 48.895644,30.4199107 C43.8486937,33.9357911 39.214061,38.0923835 35.1207016,42.7741884 C26.5371059,52.5913323 20.5856552,64.5005401 17.909744,77.2147094 C17.8746033,77.3818517 17.7280772,77.4964942 17.5648327,77.4964942" id="Fill-90" fill="#000000"></path>
            <path d="M8.65517379,88.6328833 C8.64388617,88.6328833 8.63259855,88.6318119 8.62131093,88.6307405 C8.42718517,88.6125263 8.28481208,88.4389555 8.30334082,88.2439561 C9.21146175,78.6504186 11.6986781,69.3205588 15.6960927,60.5141971 C19.8326858,51.4009793 25.4867183,43.082973 32.5014414,35.7911774 C32.6368929,35.6501779 32.860409,35.6466422 33.0006524,35.7830346 C33.1406828,35.9194269 33.1441968,36.144319 33.0086389,36.2852114 C19.3635042,50.4694826 10.8392217,68.9459887 9.00604838,88.3114559 C8.988691,88.4946695 8.8349238,88.6328833 8.65517379,88.6328833" id="Fill-91" fill="#000000"></path>
            <path d="M53.7957487,23.7139701 C53.3450958,23.7139701 52.8966791,23.9012552 52.5763663,24.2675753 C51.9853636,24.9435372 52.0510661,25.977355 52.7229989,26.5718886 C53.3946122,27.1666365 54.4223181,27.1005296 55.0131078,26.4244605 C55.0131078,26.4244605 55.0131078,26.4244605 55.0133208,26.4244605 C55.2994513,26.0970331 55.4419309,25.6770346 55.4142442,25.2417147 C55.3865576,24.806502 55.1921124,24.4081462 54.8666882,24.1201473 C54.5589408,23.8477911 54.1765461,23.7139701 53.7957487,23.7139701 Z M53.7935125,27.6879918 C53.2470213,27.6879918 52.6984004,27.4960996 52.2566924,27.1052438 C51.2925593,26.251854 51.1982119,24.7684664 52.0462741,23.7983984 C52.8945494,22.8284375 54.3689681,22.7335093 55.3328882,23.586792 C55.8000466,24.0002548 56.0791489,24.5717528 56.1188686,25.1963935 C56.1584817,25.8210341 55.9541332,26.4238177 55.5432,26.8936374 C55.0837087,27.4193856 54.4401014,27.6879918 53.7935125,27.6879918 L53.7935125,27.6879918 Z" id="Fill-92" fill="#000000"></path>
            <path d="M35.1196367,48.2150977 L34.0275063,50.3533402 L36.5502893,49.8038064 L35.1196367,48.2150977 Z M33.372079,51.2146586 C33.2636752,51.2146586 33.1597439,51.1644087 33.0920182,51.0758019 C33.0089584,50.9667309 32.995754,50.8193028 33.0581554,50.6971604 L34.724783,47.4340291 C34.7778135,47.3304223 34.8779113,47.2593868 34.9928107,47.2442797 C35.1072842,47.2290655 35.2225032,47.2714939 35.3003451,47.3579579 L37.4836476,49.7823779 C37.5681983,49.876449 37.5966303,50.0086628 37.558082,50.1294124 C37.5195337,50.250162 37.4198619,50.3411259 37.2966565,50.3680187 L33.4467263,51.2066229 C33.4219149,51.2120871 33.3968904,51.2146586 33.372079,51.2146586 L33.372079,51.2146586 Z" id="Fill-93" fill="#000000"></path>
            <path d="M62.120794,21.400014 C62.0906582,21.400014 62.060203,21.3961569 62.0296412,21.3880141 C61.8413722,21.3374428 61.7293479,21.1428721 61.7795033,20.9534442 C62.0410353,19.9656977 62.4879611,19.3386999 63.1075024,19.0899151 C63.5624147,18.9073443 63.9345867,19.0058082 64.2334957,19.0850936 C64.4664892,19.1468077 64.6677496,19.2001647 64.9146929,19.1422006 C65.3631095,19.037201 65.559578,18.6742022 65.8430463,18.0905972 C66.1027681,17.5557419 66.3970981,16.9496369 67.0644519,16.6678522 C67.8787579,16.3241391 68.5887065,16.7376019 69.2151694,17.1022078 C69.7622995,17.4205281 70.2794003,17.7210628 70.8369661,17.558099 C71.475249,17.3716711 71.7702179,16.689495 72.0832897,15.9672475 C72.4325669,15.1625004 72.8276336,14.2502893 73.7924056,13.9807188 C74.6017067,13.7547554 75.2757692,14.1195755 75.8699666,14.4411101 C76.3661959,14.7093948 76.7953384,14.941144 77.1957294,14.7834303 C77.7824727,14.5520025 78.163696,13.5897559 78.2968048,12.000833 C78.3138427,11.8055122 78.483157,11.6601199 78.679093,11.6769413 C78.8728993,11.6934412 79.0166567,11.8651906 79.0006837,12.0606185 C78.8388235,13.9913259 78.3319455,15.098322 77.452363,15.4448208 C76.7484841,15.7223198 76.1042379,15.3739996 75.5366623,15.0669293 C75.0116815,14.7834303 74.5165171,14.5157884 73.9819525,14.6652521 C73.3409009,14.8442872 73.0448671,15.5276419 72.7307305,16.2511751 C72.3835829,17.0526008 71.9895811,17.9608476 71.0343929,18.2401681 C70.1865436,18.4879886 69.4825582,18.0783829 68.8616327,17.7170985 C68.307155,17.3943853 67.8276441,17.1158149 67.3376975,17.3228142 C66.9148377,17.5013135 66.7023962,17.9389906 66.4773892,18.4023818 C66.1939209,18.9858797 65.8728627,19.6471631 65.0746363,19.8340196 C64.6574203,19.9318406 64.3225188,19.8432338 64.0537457,19.7719841 C63.7949823,19.7034129 63.6077782,19.6538059 63.3692474,19.7495913 C62.9681109,19.9107336 62.6627063,20.3772319 62.4616589,21.1363364 C62.4195965,21.2951215 62.2767975,21.400014 62.120794,21.400014" id="Fill-94" fill="#000000"></path>
        </g>
    </g>
</svg>