<?xml version="1.0" encoding="utf-8"?>
<!-- Generator: Adobe Illustrator 25.4.1, SVG Export Plug-In . SVG Version: 6.00 Build 0)  -->
<svg version="1.1" id="Layer_1" xmlns="http://www.w3.org/2000/svg" xmlns:xlink="http://www.w3.org/1999/xlink" x="0px" y="0px"
	 viewBox="0 0 19.4 149.8" style="enable-background:new 0 0 19.4 149.8;" xml:space="preserve">
<style type="text/css">
	.st0{fill:#D3D3D3;}
	.st1{opacity:0.4;fill:#FFFFFF;}
</style>
<g>
	<g>
		<path class="st0" d="M18,0L18,0c-0.8,0-1.4,14.1-1.4,15.3v19.6c0,1.1-0.6,2.1-1.3,2.2c-0.8,0-1.4-0.9-1.4-2.1V15.3
			c0-1.2-0.6-15.3-1.4-15.3c-0.8,0-1.4,14.1-1.4,15.3v19.6c0,1.1-0.6,2.1-1.3,2.2c-0.8,0-1.4-0.9-1.4-2.1V15.3C8.3,14.1,7.7,0,6.9,0
			C6.2,0,5.6,14.1,5.6,15.3v19.6C5.6,36,5,37,4.2,37.1c-0.8,0-1.4-0.9-1.4-2.1V15.3C2.8,14.1,2.2,0,1.4,0h0C0.6,0,0,14.1,0,15.3
			v19.5c0,6.4,3.3,11.6,7.4,12.1v25l-2.6,60.2v12.6c0,2.9,2.3,5.2,5.2,5.2s5.2-2.3,5.2-5.2v-12.6l-2.6-60.2V46.7
			c3.8-0.9,6.8-5.9,6.8-12V15.3C19.4,14.1,18.8,0,18,0z"/>
		<path class="st1" d="M7.6,84.3l-2,47.8v12.5c0,2.3,1.8,4.1,4.1,4.1c2.3,0,4.1-1.8,4.1-4.1C13.8,144.6,7.1,150.6,7.6,84.3z"/>
	</g>
</g>
</svg>
