<?xml version="1.0" encoding="utf-8"?>
<!-- Generator: Adobe Illustrator 25.4.1, SVG Export Plug-In . SVG Version: 6.00 Build 0)  -->
<svg version="1.1" id="Layer_1" xmlns="http://www.w3.org/2000/svg" xmlns:xlink="http://www.w3.org/1999/xlink" x="0px" y="0px"
	 viewBox="0 0 227.9 31" style="enable-background:new 0 0 227.9 31;" xml:space="preserve">
<style type="text/css">
	.st0{fill:#EAEAEA;}
	.st1{fill:#E7AC6C;}
	.st2{opacity:5.000000e-02;}
	.st3{fill:#010101;}
	.st4{opacity:0.15;fill:#010101;}
	.st5{opacity:0.1;fill:#010101;}
	.st6{fill:#F4F4F4;}
	.st7{fill:#CCCDC9;}
</style>
<g>
	<g>
		<path class="st0" d="M0,4.9h112.3V31h-3C106.1,5.2,15,28,0,4.9z"/>
		<g>
			<path class="st1" d="M201,0.6c1.5,0.1,3,0.2,4.4,0.4c1.3,0.1,2.6,0.3,3.9,0.4c0.8,0.1,1.6,0.2,2.3,0.3c0,0,0,0,0,0
				c1.1,0.1,2.3,0.3,3.4,0.5c3.6,0.5,7,1.2,10.3,2c0,0,0,0,0.1,0c1.5,0.4,2.5,1.7,2.5,3.2c0,0,0,0.1,0,0.1c0,1.1,0,2.1-0.1,3.1
				c-0.1,1.3-0.4,2.6-0.7,3.9c-0.3,0.9-0.6,1.8-0.9,2.6c-0.4,0.9-0.8,1.7-1.4,2.5c-0.4,0.6-0.9,1.3-1.4,1.9c-0.6,0.7-1.2,1.3-1.9,2
				c-0.5,0.5-1,0.9-1.6,1.3c-0.7,0.5-1.4,1-2.2,1.5c-0.8,0.5-1.7,0.6-2.6,0.3c-3.1-0.8-6.7-1.5-10.8-2.1c-0.9-0.1-1.7-0.2-2.6-0.3
				c-1.3-0.1-2.6-0.3-4-0.4c-1.5-0.1-3.1-0.2-4.8-0.3c-6-0.3-13-0.5-21.5-0.4c-0.8,0-1.7,0-2.5,0c-1.2,0-2.5,0-3.7,0.1
				c-1,0-1.9,0-2.9,0.1c-0.7,0-1.4,0-2.2,0.1c-2,0.1-4,0-5.8,0c-1.1,0-2.1-0.1-3.2-0.2c-1.4-0.1-2.8-0.3-4-0.4
				c-1.5-0.2-2.9-0.4-4.3-0.6c-4.5-0.6-8.4-1.2-12.1-0.8c-0.9,0.1-1.8,0.2-2.7,0.4c-1,0.2-1.9,0.5-2.9,0.9c-0.6,0.2-1.2,0.5-1.8,0.8
				c-1.1,0.6-2.1,1.2-3.3,2c-0.3,0.2-0.6,0.3-0.9,0.4l-6.6,0.9c-0.2,0-0.4-0.1-0.4-0.4V5.1c0,0,0-0.1,0-0.1c0-0.2,0.2-0.3,0.3-0.3
				c0.2,0,0.3,0,0.5-0.1c2.2-0.3,4.5-0.5,6.7-0.7c1.4-0.1,2.7-0.3,4.1-0.4c1.5-0.2,3-0.3,4.5-0.4c0.5,0,1-0.1,1.4-0.1
				c1.6-0.2,3.3-0.3,4.9-0.5c3.8-0.3,7.6-0.7,11.4-0.9c1.8-0.1,3.5-0.3,5.2-0.4c1.1-0.1,2.1-0.1,3.2-0.2c7.2-0.4,14.1-0.7,20.9-0.9
				c1.2,0,2.4,0,3.6,0C186.7-0.1,194.1,0.1,201,0.6z"/>
			<g class="st2">
				<path class="st3" d="M120.5,21.2c-3.1-2.2-5.8-1.4-8.4,0.4v-2c0.9-0.6,1.7-1.2,2.4-1.8c1.7-1.1,4.3-0.6,6,0.6
					c1.7,1.3,3.2,2.8,4.7,4.3c-0.6,0.2-1.2,0.5-1.8,0.8C122.4,22.7,121.5,21.9,120.5,21.2z"/>
				<path class="st3" d="M214.7,17.5c2.9,1.1,4.9,3.5,6.8,5.9c-0.5,0.5-1,0.9-1.6,1.3c-1.1-1.2-2.1-2.5-3.3-3.5
					c-2-1.7-4.5-1.1-6.8-0.3c-1.9,1-3.7,2.3-5.5,3.6c-0.9-0.1-1.7-0.2-2.6-0.3c3.2-2.1,6.2-4.4,9.6-6.1
					C212.4,17.8,213.5,17.2,214.7,17.5z"/>
				<path class="st3" d="M217.8,13c3.1,1.1,4.9,4.1,7,6.6c-0.4,0.6-0.9,1.3-1.4,1.9c-1.9-2.2-3.5-4.7-5.6-6.5
					c-1.1-0.9-2.6-0.9-3.7-0.6c-6.4,1.6-10.9,6.5-16.4,9.4c-1.5-0.1-3.1-0.2-4.8-0.3c0.9-0.2,1.7-0.5,2.7-0.8
					C203.6,20.1,209.8,9.9,217.8,13z"/>
				<path class="st3" d="M120.2,15c-3.2-1.9-5.7-0.9-8.1,1v-2c1.3-0.8,2.6-1.5,3.8-2.1c1.7-0.9,3.7-0.3,5.1,0.9
					c3.5,2.7,6.3,6.3,9.7,8.6c-0.9,0.1-1.8,0.2-2.7,0.4C125.5,19.4,123.2,16.7,120.2,15z"/>
				<path class="st3" d="M220.6,7c2.7,2,4.3,5,6.5,7.4c-0.3,0.9-0.6,1.8-0.9,2.6c-1.9-2.1-3.4-4.8-5.2-6.9c-1.7-2-4.8-2-7.1-0.9
					c-7.7,3.7-14.2,10.5-22.9,11c-1.2,0-2.4,0-3.6,0h-6.3c-3.6-0.2-6.7,1-9.6,2.8c-0.8,0-1.7,0-2.5,0c3.6-2.8,7.4-5.2,12.1-5.1
					c1.1,0,2.1,0,3.2,0h6.7c8.7-0.5,15.2-6.7,22.9-10.7C216.1,6.5,218.4,5.6,220.6,7z"/>
				<path class="st3" d="M140.9,18.6c2.4,0.8,4.4,2.4,6.3,4.1c-1.5-0.2-2.9-0.4-4.3-0.6c-0.6-0.4-1.3-0.7-2-1
					c-1.1-0.4-2.3-0.7-3.6-0.8c-6.5-0.6-10.5-6.5-15.3-10.5c-3.7-2.9-6.9-1.7-9.8,0.6V7.8c2.3-1.8,4.7-2.7,7.8-1.4
					c6.2,2.8,9.9,10.5,17.3,11.5C138.5,18,139.8,18.2,140.9,18.6z"/>
				<path class="st3" d="M113,4.6c-0.3,0.1-0.6,0.2-0.8,0.4c0-0.2,0.2-0.3,0.3-0.3C112.6,4.7,112.8,4.7,113,4.6z"/>
				<path class="st3" d="M154.3,23.3c-1.1,0-2.1-0.1-3.2-0.2c-3.1-3.1-5.9-6.7-10-8c-1.2-0.4-2.5-0.5-4-0.5
					c-2.8,0.1-5.4-1.4-6.8-3.3c-3.3-4.4-7-6.7-10.7-7.4c1.4-0.1,2.7-0.3,4.1-0.4c3.5,2.9,6.4,6.3,10.6,8.1c0.9,0.3,1.7,0.6,2.8,0.7
					c1.5-0.1,2.8,0,4,0.3C146.7,14,149.9,19.6,154.3,23.3z"/>
				<path class="st3" d="M215,2.2c3.6,0.5,7,1.2,10.3,2c0,0,0,0,0.1,0c0.9,1,1.7,2.1,2.5,3.2c0,0,0,0.1,0,0.1c0,1.1,0,2.1-0.1,3.1
					c-2.8-3.6-4.9-8.3-9.7-7.2c-9.9,2.3-16.7,11.6-27.1,11.3h-6.7c-1,0-2.1,0-3.2,0.1c-6.3,0.6-10.9,4.7-15.8,8.5
					c-1,0-1.9,0-2.9,0.1c6.3-3.7,11-10.1,18.8-10.8c1.1-0.1,2.2-0.1,3.2-0.1h6.7c7.6,0.1,14.1-3.6,20.6-8.1
					C212.7,3.5,213.8,2.8,215,2.2z"/>
				<path class="st3" d="M209.3,1.4c0.8,0.1,1.6,0.2,2.3,0.3c-5.5,3.2-10.8,6.6-17.2,7.3C193.3,9,192.1,9,190.9,9h-3.2
					c-1.1,0-2.1,0-3.2,0c-9-0.3-14.9,6.8-22,11.6c-2.3,1.4-5.1,1.7-7.4-0.3c-4-3.8-7.2-9.5-12.6-11c-1.1-0.3-2.2-0.4-3.5-0.3
					c-2.4,0.3-5.5-0.6-7-2.3c-1.2-1.4-2.5-2.7-3.8-3.7c0.5,0,1-0.1,1.4-0.1c2.8,2,5.7,3.7,9.3,3.8c1,0,2,0,3,0.1
					c6.8,1.2,9.3,7.4,13.9,11.7c1.1,0.9,2.8,1.4,4.3,1.1c8.8-3.4,14.5-13,24.3-12.9c1.1,0,2.2,0,3.2,0h3.2c1.2,0,2.4,0,3.5,0
					C199.9,6.4,204.6,4,209.3,1.4z"/>
				<path class="st3" d="M201,0.6c1.5,0.1,3,0.2,4.4,0.4c-2.3,1.1-4.8,2-7.5,2.2c-1.2,0.1-2.3,0.2-3.5,0.2h-5.8c-1,0-2,0-3,0
					c-9,0.2-15.2,7.9-22.9,11.9c-6.5,3.4-9.4-5.4-13.6-9.1c-1.7-1.4-3.7-2.3-6-2.7c-0.9-0.1-1.9-0.1-2.8-0.1c-2.1,0.1-4-0.2-5.7-0.9
					c3.8-0.3,7.6-0.7,11.4-0.9c5.7,1.9,7.9,9.3,13.3,11.8c1.7,0.9,3.4,0,5.1-0.8c7.1-4.3,12.8-11.1,21.1-11.4c1-0.1,2-0.1,3-0.1h5.8
					c1.2,0,2.3,0,3.5,0C199,0.8,200,0.8,201,0.6z"/>
				<path class="st3" d="M179,0c-5.6,3-10.5,7.9-16.5,10.1c-1.1,0.3-2.3-0.3-3.1-0.6c-3.3-2.2-5.5-5.8-8.1-8.5
					c1.1-0.1,2.1-0.1,3.2-0.2c1.5,1.9,3,3.9,4.6,5.5c1.4,1.4,3.7,1.7,5.7,0.6c3.7-2,7-4.7,10.6-7C176.5,0,177.8,0,179,0z"/>
			</g>
			<path class="st4" d="M112.5,4.7c-0.2,0-0.3,0.2-0.3,0.4v21.4c0,0.2,0.2,0.4,0.4,0.4l6.6-0.9c0.3,0,0.6-0.2,0.9-0.4
				c11.9-8.7,20.5-1.7,40-2.3c29.6-0.9,44.4,0.4,55.1,3.2c0.9,0.2,1.8,0.1,2.6-0.3c7.2-4.3,10.3-10.8,10.2-18.8
				c0-1.6-1.1-2.9-2.6-3.3C196.7-2.6,156.1-0.1,112.5,4.7z M224.8,6.6c0.4,0.1,0.6,0.4,0.6,0.8l0,0.2c0,7.4-2.9,12.8-9,16.4
				c-0.2,0.1-0.4,0.1-0.6,0.1c-12.1-3.2-28.3-4.1-55.8-3.3c-6.8,0.2-12.3-0.5-17.1-1.2c-8.8-1.2-15.8-2.2-24.2,3.9l-4,0.5V7
				C152.7,2.9,195.2-0.3,224.8,6.6z"/>
			<path class="st5" d="M133.4,12.2c0,2.5-2,4.5-4.5,4.5c-2.5,0-4.5-2-4.5-4.5s2-4.5,4.5-4.5C131.4,7.7,133.4,9.7,133.4,12.2z"/>
			<path class="st6" d="M129,15.7c-1.9,0-3.5-1.6-3.5-3.5c0-1.9,1.6-3.5,3.5-3.5c1.9,0,3.5,1.6,3.5,3.5
				C132.5,14.1,130.9,15.7,129,15.7z"/>
			<path class="st5" d="M174.5,11.6c0,2.5-2,4.5-4.5,4.5c-2.5,0-4.5-2-4.5-4.5s2-4.5,4.5-4.5C172.5,7.1,174.5,9.1,174.5,11.6z"/>
			<path class="st6" d="M170,15c-1.9,0-3.5-1.6-3.5-3.5c0-1.9,1.6-3.5,3.5-3.5c1.9,0,3.5,1.6,3.5,3.5C173.5,13.5,172,15,170,15z"/>
			<path class="st5" d="M215.6,13.5c0,2.5-2,4.5-4.5,4.5s-4.5-2-4.5-4.5c0-2.5,2-4.5,4.5-4.5S215.6,11,215.6,13.5z"/>
			<path class="st6" d="M211.1,17c-1.9,0-3.5-1.6-3.5-3.5c0-1.9,1.6-3.5,3.5-3.5c1.9,0,3.5,1.6,3.5,3.5C214.6,15.4,213,17,211.1,17z
				"/>
			<path class="st0" d="M129,15.7c-1.9,0-3.5-1.6-3.5-3.5c0-1.9,1.6-3.5,3.5-3.5c1.9,0,3.5,1.6,3.5,3.5
				C132.5,14.1,130.9,15.7,129,15.7z"/>
			<path class="st0" d="M170,15c-1.9,0-3.5-1.6-3.5-3.5c0-1.9,1.6-3.5,3.5-3.5c1.9,0,3.5,1.6,3.5,3.5C173.5,13.5,172,15,170,15z"/>
			<path class="st0" d="M211.1,17c-1.9,0-3.5-1.6-3.5-3.5c0-1.9,1.6-3.5,3.5-3.5c1.9,0,3.5,1.6,3.5,3.5C214.6,15.4,213,17,211.1,17z
				"/>
		</g>
		<path class="st7" d="M0,4.9h9.7c2.7,1.4,6.9,2.8,13.3,3.7c9.8,1.5,22.1,1.7,34,1.9c13.5,0.2,26.2,0.4,36.4,2.3
			c6,1.1,10.7,2.8,14.2,5c1.3,0.8,1.7,6.1,1.8,9.7c0,2,0,3.5,0,3.5C106.1,5.2,15,28,0,4.9z"/>
		<polygon class="st7" points="108.5,27.5 109.3,27.1 109.3,6.3 		"/>
		<g>
			<path class="st0" d="M0,4.9h1.2C8.6,15.2,33.1,15.6,56.8,16c24.3,0.4,47.3,0.8,52.4,11.6c0,2,0,3.5,0,3.5C106.1,5.2,15,28,0,4.9z
				"/>
		</g>
	</g>
</g>
</svg>
