<?xml version="1.0" encoding="utf-8"?>
<!-- Generator: Adobe Illustrator 25.4.1, SVG Export Plug-In . SVG Version: 6.00 Build 0)  -->
<svg version="1.1" id="Layer_1" xmlns="http://www.w3.org/2000/svg" xmlns:xlink="http://www.w3.org/1999/xlink" x="0px" y="0px"
	 viewBox="0 0 318.2 177" style="enable-background:new 0 0 318.2 177;" xml:space="preserve">
<style type="text/css">
	.st0{fill:#E7AC6C;}
	.st1{opacity:5.000000e-02;}
	.st2{fill:#010101;}
	.st3{opacity:0.15;fill:#FFFFFF;}
	.st4{fill:#464646;}
	.st5{opacity:0.15;fill:#010101;}
	.st6{opacity:0.2;fill:#FFFFFF;}
	.st7{opacity:0.1;fill:#010101;}
	.st8{opacity:0.2;fill:#010101;}
	.st9{opacity:5.000000e-02;fill:#FFFFFF;}
</style>
<g>
	<g>
		<g>
			<g>
				<g>
					<path class="st0" d="M96.1,98.2h-88c-0.1,0-0.2,0-0.3,0c-4.3-0.2-7.7-3.7-7.8-8c0-0.1,0-0.1,0-0.2V87c0-0.9,0.1-1.7,0.4-2.6
						c0,0,0,0,0,0c0.3-0.9,0.8-1.7,1.3-2.5c0.6-0.8,1.4-1.5,2.3-2c0.7-0.4,1.4-0.7,2.2-0.9c0.6-0.2,1.3-0.2,2-0.2h88V98.2z"/>
					<g class="st1">
						<path class="st2" d="M96.1,84.3c-1.2,0.1-2.5-0.6-3.5-1.6c-1-1.2-1.9-2.5-2.8-3.8h2.9c1.2,1.3,2.4,1.8,3.5,1.7V84.3z"/>
						<path class="st2" d="M7.7,83.8C6.3,83,5.1,81.6,4,79.9c0.7-0.4,1.4-0.7,2.2-0.9c1.8,2,3.9,1.2,5.9,0.1
							c0.1-0.1,0.3-0.2,0.4-0.3h3c-1.5,1.5-3.1,3-4.7,4.2C9.8,83.4,8.8,84.2,7.7,83.8z"/>
						<path class="st2" d="M4.9,90c-1.9-1-3.2-3.2-4.5-5.6c0,0,0,0,0,0c0.3-0.9,0.8-1.7,1.3-2.5c1,1.9,2,3.8,3.2,5.4
							c1,1.2,2.3,1.2,3.3,0.8c4.2-1.6,7.5-5.7,11-9.3H22C16.1,83.8,11.1,93.7,4.9,90z"/>
						<path class="st2" d="M92.1,90.4c-3.1-3.7-5.5-8.4-8.5-11.6h2.8c2.1,3,4.1,6.4,6.5,8.5c1.2,1,2.3,1.4,3.3,1.3v3.3
							C94.7,92.6,93.2,91.8,92.1,90.4z"/>
						<path class="st2" d="M7.8,98.2c-4.3-0.2-7.7-3.7-7.8-8c0-0.1,0-0.1,0-0.2v-0.4c0.7,1.5,1.4,3,2.1,4.3c1.5,2.7,4.3,2.7,6.4,1.2
							C15.4,90,21.3,80.7,29.1,80c1.1,0,2.1,0,3.2,0H38c1.8,0.2,3.5-0.3,5.1-1.1h3.4c-2.5,2.6-5.3,4.5-8.5,4.4c-1,0-1.9,0-2.8,0h-6
							c-7.8,0.6-13.7,9.2-20.6,14.6C8.3,97.9,8.1,98.1,7.8,98.2z"/>
						<path class="st2" d="M96.1,98.2h-4c-5-4.3-8.4-13.7-14.6-15c-1.2,0-2.3-0.3-3.3-0.8c-1.5-0.8-2.8-2-4.1-3.6h4
							c0,0,0.1,0,0.1,0.1c1,0.6,2.1,1,3.3,1.1c5.9,0.8,9.4,8.9,13.8,14.4c1.7,2,3.3,2.6,4.8,2.2V98.2z"/>
						<path class="st2" d="M87.4,98.2H86c-1.8-2.5-3.7-4.8-6-6.2c-0.8-0.4-1.5-0.8-2.6-0.9c-1.3,0.2-2.5,0-3.6-0.4
							c-4.1-1.6-6.7-7.1-9.8-11.8h2.5c2.2,3.5,4.4,6.9,7.3,8.3c1.1,0.5,2.3,0.8,3.6,0.7c2.6-0.1,4.9,1.9,6.1,4.6
							C84.8,94.7,86.1,96.7,87.4,98.2z"/>
						<path class="st2" d="M14.4,98.2h-2c5.4-4.8,10.3-10.8,16.7-10.5h6c0.9,0,1.9,0,2.9-0.1c4.7-0.7,8.3-4.6,11.9-8.8h2.2
							c-4.4,5-8.3,11.2-14.1,11.9c-1,0.2-1.9,0.2-2.9,0.2h-6C23.8,90.8,19.1,93.9,14.4,98.2z"/>
						<path class="st2" d="M56.8,81.1c-6.9,4.1-11.7,14.7-18.7,17.1H19.4c2.1-1.3,4.2-2.3,6.6-2.6c1.1-0.1,2.1-0.1,3.2-0.1H32
							c1,0,1.9,0,2.9,0c8.1,0.4,13.5-9.3,19.9-15.9c0.3-0.3,0.6-0.5,0.9-0.7h4.7c0.4,0.3,0.7,0.7,1.1,1.1C65,85.1,67.9,93,72.7,95
							c1,0.4,2,0.6,3.1,0.4c2.1-0.4,4.7,0.7,6,2.7h-9.9c-5.2-2.3-7.5-10.1-11.3-15.6C59.6,81.5,58.1,80.7,56.8,81.1z"/>
						<path class="st2" d="M57.6,89.6c-1.5-1.2-3.1,0-4.6,1.2c-2.4,2.2-4.6,4.9-6.9,7.4h-2.7c3.7-3.6,7.2-8.2,11.1-11.3
							c5.5-4.3,8.1,5.8,11.5,11.3h-2.4C61.8,94.8,60.1,91.4,57.6,89.6z"/>
						<path class="st2" d="M57.2,98.2c-1.3-1.2-3-1.3-4.5,0l0,0h-3.3c1.7-1.7,3.5-3.2,5.3-4.3c1-0.4,2,0.4,2.8,0.8
							c1,1,1.9,2.2,2.7,3.5H57.2z"/>
					</g>
					<path class="st3" d="M8.2,94.8h88v3.4h-88C3.7,98.2,0,94.5,0,90V87c0-0.1,0-0.1,0-0.2C0.1,91.2,3.7,94.8,8.2,94.8z"/>
					<rect x="95.8" y="78.8" class="st4" width="3" height="19.4"/>
					<g>
						
							<rect x="79.8" y="87.8" transform="matrix(-1.836970e-16 1 -1 -1.836970e-16 177.9525 -0.959)" class="st5" width="19.4" height="1.5"/>
						
							<rect x="76.3" y="87.8" transform="matrix(-1.836970e-16 1 -1 -1.836970e-16 174.5101 2.4833)" class="st5" width="19.4" height="1.5"/>
						
							<rect x="72.9" y="87.8" transform="matrix(-1.836970e-16 1 -1 -1.836970e-16 171.0678 5.9256)" class="st5" width="19.4" height="1.5"/>
					</g>
					<g>
						
							<rect x="9.2" y="87.8" transform="matrix(-1.836970e-16 1 -1 -1.836970e-16 107.3664 69.627)" class="st5" width="19.4" height="1.5"/>
						
							<rect x="5.7" y="87.8" transform="matrix(-1.836970e-16 1 -1 -1.836970e-16 103.9241 73.0693)" class="st5" width="19.4" height="1.5"/>
						
							<rect x="2.3" y="87.8" transform="matrix(-1.836970e-16 1 -1 -1.836970e-16 100.4818 76.5116)" class="st5" width="19.4" height="1.5"/>
					</g>
					<rect x="95.8" y="91" class="st6" width="3" height="3.2"/>
				</g>
				
					<rect x="122.3" y="55.3" transform="matrix(-1.836970e-16 1 -1 -1.836970e-16 220.493 -43.5)" class="st4" width="19.4" height="66.4"/>
				
					<rect x="126.8" y="50.8" transform="matrix(-1.836970e-16 1 -1 -1.836970e-16 216.0051 -47.988)" class="st7" width="10.4" height="66.4"/>
			</g>
			<g>
				
					<ellipse transform="matrix(0.7071 -0.7071 0.7071 0.7071 4.696 188.3306)" class="st4" cx="229.7" cy="88.5" rx="88.5" ry="88.5"/>
				<path class="st8" d="M229.7,174.2c-11.6,0-22.8-2.3-33.4-6.7c-10.2-4.3-19.4-10.5-27.3-18.4c-7.9-7.9-14.1-17-18.4-27.3
					c-4.5-10.6-6.7-21.8-6.7-33.4c0-11.6,2.3-22.8,6.7-33.4c4.3-10.2,10.5-19.4,18.4-27.3c7.9-7.9,17-14.1,27.3-18.4
					c10.6-4.5,21.8-6.7,33.4-6.7c11.6,0,22.8,2.3,33.4,6.7c10.2,4.3,19.4,10.5,27.3,18.4c7.9,7.9,14.1,17,18.4,27.3
					c4.5,10.6,6.7,21.8,6.7,33.4c0,11.6-2.3,22.8-6.7,33.4c-4.3,10.2-10.5,19.4-18.4,27.3s-17,14.1-27.3,18.4
					C252.5,172,241.3,174.2,229.7,174.2L229.7,174.2z M229.7,177c48.9,0,88.5-39.6,88.5-88.5c0-48.9-39.6-88.5-88.5-88.5
					s-88.5,39.6-88.5,88.5C141.2,137.4,180.8,177,229.7,177L229.7,177z"/>
				
					<ellipse transform="matrix(0.7071 -0.7071 0.7071 0.7071 4.6973 188.3377)" class="st9" cx="229.7" cy="88.5" rx="69.1" ry="69.1"/>
			</g>
		</g>
		<path class="st9" d="M171.4,99.3c0-38,30.8-68.9,68.9-68.9c16.2,0,31.1,5.6,42.8,14.9c-12.6-15.9-32.1-26-53.9-26
			c-38,0-68.9,30.8-68.9,68.9c0,21.8,10.2,41.3,26,53.9C177,130.4,171.4,115.5,171.4,99.3z"/>
	</g>
</g>
</svg>
