<?xml version="1.0" encoding="utf-8"?>
<!-- Generator: Adobe Illustrator 25.4.1, SVG Export Plug-In . SVG Version: 6.00 Build 0)  -->
<svg version="1.1" id="Layer_1" xmlns="http://www.w3.org/2000/svg" xmlns:xlink="http://www.w3.org/1999/xlink" x="0px" y="0px"
	 viewBox="0 0 188.8 43.1" style="enable-background:new 0 0 188.8 43.1;" xml:space="preserve">
<style type="text/css">
	.st0{fill:#FFFFFF;}
	.st1{fill:#DFE2E8;}
	.st2{fill:#EDF1F7;}
	.st3{fill:#F15D4A;}
</style>
<g>
	<g>
		<g>
			<rect x="38.8" y="40" class="st0" width="111.2" height="3.2"/>
			<rect x="38.8" y="40" class="st1" width="111.2" height="3.2"/>
			<path class="st2" d="M188.5,1.4l-14.2,9.8c-1,0.7-2,1.5-2.9,2.4c-2.9,2.8-5.1,6.4-6.2,10.4l-0.2,0.8l-0.9,3.2
				c-2,7.2-7.3,12-13.1,12H37.8c-5.9,0-11.1-4.8-13.1-12l-0.9-3.2l-0.2-0.8c-1.1-4-3.3-7.6-6.2-10.4c-0.9-0.9-1.9-1.7-2.9-2.4
				L0.3,1.4C-0.2,1,0,0,0.6,0h187.7C188.8,0,189,1,188.5,1.4z"/>
		</g>
		<path class="st3" d="M171.4,13.5c-2.9,2.8-5.1,6.4-6.2,10.4l-0.2,0.8H23.8l-0.2-0.8c-1.1-4-3.3-7.6-6.2-10.4H171.4z"/>
	</g>
</g>
</svg>
