<?xml version="1.0" encoding="utf-8"?>
<!-- Generator: Adobe Illustrator 25.4.1, SVG Export Plug-In . SVG Version: 6.00 Build 0)  -->
<svg version="1.1" id="Layer_1" xmlns="http://www.w3.org/2000/svg" xmlns:xlink="http://www.w3.org/1999/xlink" x="0px" y="0px"
	 viewBox="0 0 266.2 211" style="enable-background:new 0 0 266.2 211;" xml:space="preserve">
<style type="text/css">
	.st0{fill:#F15D4A;}
	.st1{opacity:0.1;fill:#010101;}
	.st2{opacity:0.2;fill:#FFFFFF;}
	.st3{opacity:0.4;fill:#6CBEC4;}
	.st4{fill:#C7C6C5;}
	.st5{opacity:0.1;fill:#FFFFFF;}
	.st6{fill:#464646;}
</style>
<g>
	<g>
		<g>
			<g>
				<path class="st0" d="M5.8,98.2h28.6c3.2,0,5.8-2.6,5.8-5.8v-9.1c0-3.2-2.6-5.8-5.8-5.8H5.8c-3.2,0-5.8,2.6-5.8,5.8v9.1
					C0,95.6,2.6,98.2,5.8,98.2z"/>
				<path class="st1" d="M5.8,98.2h28.6c3.2,0,5.8-2.6,5.8-5.8v-9.1c0-3.2-2.6-5.8-5.8-5.8H5.8c-3.2,0-5.8,2.6-5.8,5.8v9.1
					C0,95.6,2.6,98.2,5.8,98.2z"/>
			</g>
			<g>
				<path class="st0" d="M231.8,98.2h28.6c3.2,0,5.8-2.6,5.8-5.8v-9.1c0-3.2-2.6-5.8-5.8-5.8h-28.6c-3.2,0-5.8,2.6-5.8,5.8v9.1
					C225.9,95.6,228.5,98.2,231.8,98.2z"/>
				<path class="st1" d="M231.8,98.2h28.6c3.2,0,5.8-2.6,5.8-5.8v-9.1c0-3.2-2.6-5.8-5.8-5.8h-28.6c-3.2,0-5.8,2.6-5.8,5.8v9.1
					C225.9,95.6,228.5,98.2,231.8,98.2z"/>
			</g>
		</g>
		<path class="st0" d="M235.7,48.4v138c0,13.6-11.1,24.7-24.7,24.7H55.1c-13.6,0-24.7-11.1-24.7-24.7v-138H235.7z"/>
		<path class="st2" d="M201.8,48.4v149.4c0,4.6-0.8,9.1-2.3,13.2h-24.7c3.6-2.9,6-7.8,6-13.2V48.4H201.8z"/>
		<g>
			<g>
				<path class="st3" d="M234.5,45.3v-8.5c-15.3-9.2-54.9-15.7-101.4-15.7c-50.2,0-92.5,7.7-104.7,18.1v6.2H234.5z"/>
				<path class="st4" d="M238.1,40.4v9.8c0,2.7-2.2,4.9-4.9,4.9H33c-2.7,0-4.9-2.2-4.9-4.9v-9.8c0-2.7,2.2-5,4.9-5h200.1
					C235.9,35.5,238.1,37.7,238.1,40.4z"/>
				<path class="st1" d="M133.7,35.5v19.7H33c-2.7,0-4.9-2.2-4.9-4.9v-9.8c0-2.7,2.2-5,4.9-5H133.7z"/>
				<rect x="184.2" y="35.5" class="st5" width="14.1" height="19.7"/>
			</g>
			<g>
				<rect x="120.7" y="7" class="st6" width="24.8" height="12.8"/>
				<rect x="120.7" y="7" class="st1" width="12" height="12.8"/>
				<rect x="137.5" y="7" class="st5" width="4.1" height="12.8"/>
				<path class="st6" d="M155.5,10c0-5.5-10-10-22.4-10s-22.4,4.5-22.4,10H155.5z"/>
				<path class="st6" d="M154.8,23.1c-14.6,2.2-29,2.2-43.4,0v-4.2h43.4V23.1z"/>
			</g>
		</g>
	</g>
</g>
</svg>
