<?xml version="1.0" encoding="utf-8"?>
<!-- Generator: Adobe Illustrator 25.4.1, SVG Export Plug-In . SVG Version: 6.00 Build 0)  -->
<svg version="1.1" id="Layer_1" xmlns="http://www.w3.org/2000/svg" xmlns:xlink="http://www.w3.org/1999/xlink" x="0px" y="0px"
	 viewBox="0 0 53.5 164.6" style="enable-background:new 0 0 53.5 164.6;" xml:space="preserve">
<style type="text/css">
	.st0{fill:#D3D3D3;}
	.st1{opacity:0.4;fill:#FFFFFF;}
	.st2{opacity:0.3;fill:#010101;}
	.st3{opacity:0.2;fill:#010101;}
	.st4{opacity:0.2;}
	.st5{fill:#010101;}
	.st6{opacity:0.2;fill:#FFFFFF;}
</style>
<g>
	<g>
		<g>
			<path class="st0" d="M30.2,33.5c-2.3,0-4.5,0-6.8,0v29.1L20,141.4v16.4c0,3.7,3,6.8,6.8,6.8c3.7,0,6.8-3,6.8-6.8v-16.4l-3.3-78.8
				V33.5z"/>
			<path class="st1" d="M24,79l-2.7,62.5v16.4c0,3,2.4,5.4,5.4,5.4s5.4-2.4,5.4-5.4C32.1,157.8,23.3,165.6,24,79z"/>
		</g>
		<path class="st2" d="M30.2,31.6h-6.8v6.2c2.4-0.8,4.7-0.7,6.8,0V31.6z"/>
		<g>
			<path class="st0" d="M42.1,38.6V1.7c-10.3,4-20.5,4-30.8,0v36.9C21.6,34.6,31.9,34.6,42.1,38.6z"/>
			<path class="st3" d="M42.1,38.6V1.7c-10.3,4-20.5,4-30.8,0v36.9C21.6,34.6,31.9,34.6,42.1,38.6z"/>
			<g>
				<path class="st0" d="M42.1,38.6V1.7c0-0.9,0.8-1.7,1.7-1.7h4.3c0.9,0,1.7,0.8,1.7,1.7v36.9c0,0.9-0.8,1.7-1.7,1.7h-4.3
					C42.9,40.3,42.1,39.6,42.1,38.6z"/>
				<g>
					<g>
						<polygon class="st0" points="49.8,1.8 53.5,5.5 49.8,9.2 						"/>
						<polygon class="st0" points="49.8,9.2 53.5,12.8 49.8,16.5 						"/>
						<polygon class="st0" points="49.8,16.5 53.5,20.2 49.8,23.8 						"/>
						<polygon class="st0" points="49.8,23.8 53.5,27.5 49.8,31.2 						"/>
						<polygon class="st0" points="49.8,31.2 53.5,34.8 49.8,38.5 						"/>
					</g>
					<g class="st4">
						<polygon class="st5" points="49.8,1.8 53.5,5.5 49.8,9.2 						"/>
						<polygon class="st5" points="49.8,9.2 53.5,12.8 49.8,16.5 						"/>
						<polygon class="st5" points="49.8,16.5 53.5,20.2 49.8,23.8 						"/>
						<polygon class="st5" points="49.8,23.8 53.5,27.5 49.8,31.2 						"/>
						<polygon class="st5" points="49.8,31.2 53.5,34.8 49.8,38.5 						"/>
					</g>
				</g>
			</g>
			<g>
				<path class="st0" d="M11.4,1.7v36.9c0,0.9-0.8,1.7-1.7,1.7H5.4c-0.9,0-1.7-0.8-1.7-1.7V1.7C3.7,0.8,4.4,0,5.4,0h4.3
					C10.6,0,11.4,0.8,11.4,1.7z"/>
				<g>
					<g>
						<polygon class="st0" points="3.7,38.5 0,34.8 3.7,31.2 						"/>
						<polygon class="st0" points="3.7,31.2 0,27.5 3.7,23.8 						"/>
						<polygon class="st0" points="3.7,23.8 0,20.2 3.7,16.5 						"/>
						<polygon class="st0" points="3.7,16.5 0,12.8 3.7,9.2 						"/>
						<polygon class="st0" points="3.7,9.2 0,5.5 3.7,1.8 						"/>
					</g>
					<g class="st4">
						<polygon class="st5" points="3.7,38.5 0,34.8 3.7,31.2 						"/>
						<polygon class="st5" points="3.7,31.2 0,27.5 3.7,23.8 						"/>
						<polygon class="st5" points="3.7,23.8 0,20.2 3.7,16.5 						"/>
						<polygon class="st5" points="3.7,16.5 0,12.8 3.7,9.2 						"/>
						<polygon class="st5" points="3.7,9.2 0,5.5 3.7,1.8 						"/>
					</g>
				</g>
			</g>
		</g>
		<path class="st6" d="M3.7,23.8l7,0c0.5,0,0.9-0.1,1.4-0.2c9.8-3,19.6-3,29.4,0c0.4,0.1,0.9,0.2,1.4,0.2l7,0v7.3h-6.7
			c-0.7,0-1.3-0.2-2-0.4c-9.8-4.3-19.4-4.3-28.9,0c-0.6,0.3-1.3,0.4-2,0.4H3.7V23.8z"/>
	</g>
</g>
</svg>
