<?xml version="1.0" encoding="utf-8"?>
<!-- Generator: Adobe Illustrator 25.4.1, SVG Export Plug-In . SVG Version: 6.00 Build 0)  -->
<svg version="1.1" id="Layer_1" xmlns="http://www.w3.org/2000/svg" xmlns:xlink="http://www.w3.org/1999/xlink" x="0px" y="0px"
	 viewBox="0 0 142.2 246.8" style="enable-background:new 0 0 142.2 246.8;" xml:space="preserve">
<style type="text/css">
	.st0{fill:#E7AC6C;}
	.st1{opacity:7.000000e-02;}
	.st2{fill:#010101;}
	.st3{opacity:0.1;}
	.st4{fill:#FFFFFF;}
	.st5{opacity:0.2;}
	.st6{opacity:0.2;fill:#FFFFFF;}
</style>
<g>
	<g>
		<path class="st0" d="M141.9,80.4c-0.2-1.3-0.6-2.5-1.1-3.6c-0.5-1.2-1.2-2.4-1.9-3.4c-2.6-3.6-6.4-6.1-10.9-7
			c-1.1-0.2-2.1-0.3-3.2-0.3H106c-7,0-13-4.1-15.8-10.1c-0.2-0.5-0.4-0.9-0.6-1.4c-0.2-0.5-0.3-1-0.5-1.5c-0.1-0.5-0.2-0.9-0.3-1.4
			c-0.2-1-0.3-2-0.3-3V17.4c0-3.5-1-6.7-2.8-9.5c-0.6-1-1.3-1.9-2.1-2.7C80.4,2,76,0,71.1,0c-1.8,0-3.6,0.3-5.2,0.8
			c-1.1,0.4-2.2,0.8-3.2,1.4C61.2,3,59.9,4,58.8,5.1c-0.8,0.8-1.5,1.7-2.2,2.6c-0.4,0.6-0.8,1.3-1.2,2c-1.1,2.3-1.8,4.9-1.8,7.7
			v31.3c0,5-2.1,9.5-5.5,12.7c-0.1,0.1-0.2,0.2-0.4,0.3c-0.8,0.7-1.6,1.3-2.5,1.8c-0.1,0-0.1,0.1-0.2,0.1c-2.6,1.5-5.6,2.4-8.9,2.4
			H17.4c-1.6,0-3.1,0.2-4.5,0.6c-1.3,0.3-2.5,0.8-3.7,1.5C3.7,71.1,0,76.9,0,83.5v145.7c0,7.6,4.9,14.1,11.7,16.5
			c1.8,0.6,3.7,1,5.7,1h107.4c0,0,0.1,0,0.1,0c0.1,0,0.2,0,0.2,0c0.9,0,1.7-0.1,2.6-0.2c1.6-0.3,3.2-0.8,4.6-1.5
			c1.9-0.9,3.6-2.2,5.1-3.7c2.4-2.6,4.1-5.9,4.6-9.6c0.1-0.8,0.2-1.5,0.2-2.3V83.5C142.2,82.5,142.1,81.4,141.9,80.4z M65.3,12.7
			c1.4-1.7,3.5-2.7,5.8-2.7c4.2,0,7.6,3.4,7.6,7.6c0,0.9-0.2,1.8-0.5,2.6c-0.3,0.8-0.7,1.5-1.2,2.2c-1.4,1.8-3.6,2.9-6,2.9
			c-4.2,0-7.6-3.4-7.6-7.6c0-1,0.2-2,0.6-2.9C64.3,14,64.8,13.3,65.3,12.7z"/>
		<g class="st1">
			<g>
				<path class="st2" d="M86.1,40c-0.4,0-0.9-0.1-1.3-0.2h0c-0.7-0.1-1.4-0.2-2.1-0.4c-6.5-1.5-12.3-5-18.8-6.5
					c-1.4-0.4-2.8-0.5-4.2-0.5c-0.7,0-1.4,0.1-2.1,0.2c-1.3,0.2-2.5,0.5-3.8,1v2.5c1.2-0.6,2.5-0.9,3.8-1.1c0.7-0.1,1.3-0.2,2-0.2
					h0.1c0.9,0,1.8,0.1,2.7,0.3c7.1,1.5,13.3,5.4,20.4,7c0.1,0,0.2,0,0.3,0.1c0.6,0.1,1.2,0.2,1.9,0.3c1.2,0.2,2.5,0.3,3.8,0.3v-2.7
					C87.7,40.1,86.9,40.1,86.1,40z M47.1,242.9c-0.7-0.7-1.4-1.4-2.2-2.1c-14.8-15.1-25.6-34.1-32.4-54.2c-3.5-11.3-5.8-23.1-6.6-35
					c-0.4-6.2-0.4-12.5,0-18.7c1.1-15,4.8-29.7,11.7-43.4c3.2-6.3,7.1-12,11.5-17.4c0.6-0.7,1.2-1.4,1.8-2.1
					c0.9-1.1,1.8-2.2,2.8-3.2c0.2-0.2,0.3-0.4,0.5-0.5h-2.8c-1.1,1.3-2.2,2.5-3.3,3.8c-0.6,0.7-1.2,1.4-1.8,2.1
					c-0.2,0.3-0.5,0.6-0.7,0.9c0,0-0.1,0.1-0.1,0.1c-0.9,1.2-1.8,2.3-2.6,3.5c-0.1,0.2-0.3,0.4-0.4,0.6c-0.7,1-1.3,1.9-1.9,2.9
					c-0.2,0.2-0.3,0.5-0.5,0.7c-0.1,0.1-0.2,0.3-0.3,0.4c-0.2,0.3-0.3,0.5-0.5,0.8c-0.5,0.8-1,1.7-1.5,2.5
					c-5.5,9.7-9.4,20.3-11.9,31.2c-0.9,4.1-1.6,8.2-2.1,12.4c-0.4,3.3-0.7,6.5-0.9,9.8c-0.4,7.7-0.1,15.4,0.9,23
					c0.5,4.4,1.2,8.7,2.1,13c1,4.6,2.1,9.1,3.4,13.6c1.8,5.7,3.9,11.2,6.3,16.7c6,13.3,13.9,25.7,23.6,36.5c0.6,0.7,1.3,1.4,2,2.1
					c1.2,1.3,2.4,2.5,3.6,3.8h6.2C49.7,245.4,48.4,244.2,47.1,242.9z"/>
			</g>
			<g>
				<path class="st2" d="M89.6,54.6c-0.2-0.5-0.3-1-0.5-1.5c-0.7-0.1-1.4-0.3-2.1-0.5c-0.7-0.2-1.3-0.4-2-0.6c0,0,0,0,0,0
					c-0.8-0.3-1.5-0.6-2.3-0.9c-4.4-2-8.3-5-12.6-7.5c-3-1.7-6.9-3.6-10.6-3.4c-0.7,0-1.4,0.1-2.1,0.3c0,0,0,0-0.1,0
					c-1.4,0.4-2.7,1.1-3.7,2.1v3.4c1-1.4,2.3-2.4,3.8-3c0.7-0.3,1.4-0.4,2.1-0.5c0.6,0,1.3,0,2,0.2c6.5,1.4,11.4,6,17.1,9.2
					c1.5,0.8,3,1.6,4.6,2.2c0.8,0.3,1.6,0.6,2.5,0.9c1.5,0.5,2.9,0.8,4.4,1.1C89.9,55.6,89.7,55.1,89.6,54.6z M128,66.4
					c3.8,2.1,7.4,4.4,10.9,7C136.4,69.8,132.5,67.3,128,66.4z M66.3,242.9c-1-0.7-2-1.4-3-2.1c-16-12.1-28.4-29.1-36.2-47.5
					c-9.8-23.1-12.9-49.3-7.2-73.8c3.1-13.3,8.9-26.2,17.5-36.9c1.8-2.2,3.5-4.3,5-6.7c0.2-0.4,0.4-0.8,0.7-1.2
					c0.8-1.5,1.5-3,2.2-4.5c0.4-1,0.8-1.9,1.1-2.9c0.4-1.1,0.7-2.2,1.1-3.4c0.3-0.8,0.5-1.7,0.7-2.5c-0.1,0.1-0.2,0.2-0.4,0.3
					c-0.8,0.7-1.6,1.3-2.5,1.8c-0.1,0-0.1,0.1-0.2,0.1c-0.5,1.7-1.1,3.3-1.7,4.9c-0.3,0.9-0.7,1.7-1.1,2.6c-0.9,1.9-1.8,3.7-3,5.5
					c-1.8,2.7-4.1,5-6.1,7.6c-2.8,3.7-5.1,7.7-7.3,11.7c-1.6,3.2-3.1,6.4-4.4,9.7c-4.8,12.2-7.1,25.3-7.3,38.4
					c-0.5,30.2,10,60.8,29.4,84.1c3.7,4.5,7.8,8.7,12.2,12.5c0.8,0.7,1.7,1.4,2.5,2.1c1.6,1.3,3.2,2.6,4.8,3.8h8.8
					C70.1,245.5,68.2,244.2,66.3,242.9z"/>
			</g>
			<g>
				<path class="st2" d="M138.5,84.4c-0.7-0.6-1.4-1.1-2.2-1.7c-6-4.4-12.5-8-19.4-10.7c-2.1-0.8-4.2-1.5-6.4-2.1
					c-0.8-0.2-1.7-0.5-2.5-0.7c-4.2-1.1-8.4-1.6-12.5-2.9c-0.9-0.3-1.7-0.6-2.6-0.9c-0.9-0.3-1.7-0.7-2.6-1.1
					c-0.9-0.4-1.8-0.8-2.7-1.3c-2.1-1-4.2-2.2-6.2-3.4c-4.5-2.7-8.7-5.8-13.1-8.6c-1.7-1-3.5-1.5-5.4-1.4c-1.2,0.1-2.3,0.3-3.4,0.8
					c-0.8,0.4-1.6,0.9-2.3,1.6c-0.5,0.5-1,1.1-1.4,1.7c-0.6,1-1.1,2-1.5,3.1c-0.4,1.5-0.8,3-1.1,4.5c-0.3,1.4-0.5,2.7-0.7,4.1
					c-0.2,1-0.3,2-0.5,3c-1.2,7-2.6,13.7-6.1,19.9c0,0,0,0,0,0.1c-2.8,3.7-5.7,7.3-8,11.3c-4.7,7.9-8.1,16.6-10,25.6
					c-4,18.2-2.7,37.3,2.9,55.1c4.7,14.9,12.5,29.1,23.1,40.6c7,7.5,14.7,13.6,23.5,18.7c0.6,0.3,1.2,0.7,1.8,1
					c1.5,0.8,3,1.5,4.5,2.1c0.2,0.1,0.5,0.2,0.7,0.3c2.4,0.9,4.6,2.1,6.6,3.5h4.7c-1.6-1.4-3.3-2.7-5.1-3.8
					c-1.3-0.8-2.7-1.5-4.1-2.1c-0.2-0.1-0.4-0.2-0.6-0.2c-0.3-0.1-0.6-0.3-1-0.4c0,0,0,0,0,0c0,0-0.1,0-0.1-0.1c0,0,0.1,0,0.1,0
					c-16-7.5-29.6-19.7-38.9-34.8c-12.9-20.9-19.3-45.9-16.2-70.4c1.2-9.3,3.7-18.5,7.7-27c2.6-5.4,5.8-10.3,9.4-15
					c0.5-0.6,1-1.3,1.4-2c2-3,3.5-6.3,4.6-9.9c1.3-4.3,2-8.8,2.8-13.2c0.4-2.5,0.9-5,1.4-7.4c0.2-0.8,0.3-1.5,0.5-2.3
					c0-0.1,0.1-0.5,0.1-0.6c0,0,0,0,0,0c0,0,0-0.1,0-0.1c0.1-0.2,0.2-0.4,0.2-0.6c0,0,0,0,0,0c1.3-2.9,4.4-4.8,7.6-3.3
					c1,0.5,2.1,1.1,3.1,1.8c1.8,1.2,3.5,2.6,5.3,3.7c2.7,1.7,5.4,3.4,8.2,4.9c4.3,2.3,8.8,4.3,13.5,5.7c1.1,0.3,2.3,0.6,3.4,0.9
					c1,0.2,1.9,0.4,2.9,0.6c1.3,0.2,2.6,0.5,4,0.8c11.1,2.6,21.2,7.4,30.3,14.2c0.7,0.5,1.4,1.1,2.1,1.7c1.2,1,2.4,2,3.5,3
					c0.1,0.1,0.2,0.1,0.2,0.2v-3.7C141,86.4,139.7,85.4,138.5,84.4z"/>
			</g>
			<g>
				<path class="st2" d="M138.5,224.1c-0.6,0.6-1.2,1.2-1.7,1.9c-0.2,0.2-0.3,0.4-0.4,0.6c-3.2,4.1-5.5,8.8-7.7,13.4
					c0,0.1-0.1,0.1-0.1,0.2c-0.4,0.8-0.8,1.7-1.3,2.5c-0.7,1.3-1.4,2.7-2.1,4c0.9,0,1.7-0.1,2.6-0.2c0.8-1.5,1.6-3,2.3-4.6
					c0.2-0.3,0.3-0.6,0.4-0.9c0.4-0.8,0.8-1.7,1.2-2.5c1.4-2.8,2.8-5.5,4.5-8c0.7-1,1.4-2,2.2-3c0,0,0,0,0,0
					c1.1-1.4,2.4-2.6,3.8-3.9v-2.9C141,221.7,139.7,222.9,138.5,224.1z M138.5,100.7c-0.7-0.7-1.4-1.3-2.1-2
					c-1.8-1.6-3.6-3.1-5.6-4.5c-6.3-4.6-13-8-20-10.1c-7.6-2.3-14.9-5.7-23.1-10.7c-1.7-1.1-3.5-2.2-5.2-3.2c-2-1.2-4-2.5-6-3.7
					c-0.4-0.2-0.8-0.5-1.3-0.8c-2.2-1.4-4.7-3-7.5-3c-0.7,0-1.4,0.1-2,0.3c-4.2,1.3-4.9,5.4-5.4,8.6l0,0.1c-0.3,2.1-0.7,4.2-0.9,6.3
					c-0.3,1.8-0.5,3.7-0.8,5.6c-1.1,7-2.9,15.1-7.5,21.5c-0.2,0.3-0.5,0.7-0.7,1c-1.1,1.5-2.1,3-3.1,4.6c-1,1.8-1.9,3.6-2.8,5.5
					c-1.2,2.7-2.2,5.4-3.1,8.3c-0.4,1.2-0.7,2.3-1,3.5c-4.1,16-3.3,33.9,2.3,50.5c5.6,16.7,15.7,31.5,28.6,41.6
					c1.1,0.9,2.2,1.7,3.3,2.4c1.3,0.9,2.7,1.7,4,2.6c1.2,0.8,2.4,1.5,3.6,2.3c3.4,2.3,6.6,4.7,9.6,7.3c2.2,1.9,4.3,3.8,6.3,5.9
					c0.7,0.7,1.4,1.4,2,2.1c1.1,1.2,2.2,2.5,3.3,3.8h2.7c0.1,0,0.1,0.1,0.2,0.1c0,0-0.1-0.1-0.1-0.1c-1-1.3-2.1-2.5-3.1-3.8
					c-0.6-0.7-1.3-1.4-2-2.1c-2.3-2.5-4.8-4.9-7.5-7.1c-0.1-0.1-0.3-0.3-0.4-0.4c-3.1-2.6-6.4-5.1-9.8-7.4c-1.2-0.8-2.4-1.6-3.6-2.4
					c-2.4-1.5-4.9-3.1-7.1-4.9c-26-20.6-38.4-57.5-30.2-89.9c1-4,2.4-7.8,4-11.5c0.8-1.8,1.7-3.6,2.7-5.4c0.9-1.6,1.9-3,2.9-4.4
					c0.2-0.3,0.5-0.7,0.7-1c4.9-6.8,6.7-15.1,7.9-22.4c0.3-1.9,0.6-3.8,0.8-5.6c0.3-2,0.6-4.2,0.9-6.2l0-0.1c0.5-3.1,1-6.1,3.9-6.9
					c0.5-0.1,0.9-0.2,1.4-0.2c1.9,0,3.8,1.1,5.7,2.3c0.2,0.1,0.4,0.3,0.7,0.4c0.5,0.3,0.9,0.6,1.3,0.8c2,1.2,4,2.4,5.9,3.7
					c1.7,1.1,3.5,2.2,5.3,3.2c1.2,0.7,2.5,1.5,3.7,2.1c6.9,3.9,13.3,6.7,19.9,8.7c6.7,2.1,13.3,5.4,19.4,9.8
					c2.4,1.7,4.6,3.6,6.8,5.6c0.7,0.7,1.4,1.4,2.1,2.1c1.3,1.3,2.5,2.6,3.8,4v-3.2C141,103.2,139.8,101.9,138.5,100.7z"/>
			</g>
			<g>
				<path class="st2" d="M64.3,112.2c1.7-5,2.8-10.2,3.8-15.4c0.9-5,1.6-10.1,2.3-15.2c0.7-4.5,5.8-2.1,8.3-0.6
					c5.2,3.1,10.2,6.8,15.2,10.2c5.3,3.6,10.7,7,16.5,9.5c2.9,1.2,5.8,2.5,8.5,4c3.9,2.1,7.5,4.6,10.7,7.5c2.4,2.2,4.7,4.6,6.7,7.2
					c0.7,0.9,1.5,1.9,2.1,2.8c1.3,1.9,2.6,3.8,3.8,5.7v-5.2c-1.2-1.8-2.4-3.5-3.8-5.2c-0.7-0.9-1.4-1.7-2.1-2.6
					c-4.3-4.9-9.3-9.2-14.8-12.8c-3.6-2.3-7.6-3.8-11.4-5.8c-2.1-1.1-4.1-2.3-6.1-3.5c-5.9-3.7-11.5-8-17.2-12.1
					c-4.9-3.5-12.5-9.9-18.6-5.2c-1.8,1.4-2.6,3.4-3,5.6c-0.6,3.4-1.1,6.9-1.7,10.3c-1.2,6.7-2.5,13.4-4.9,19.8
					c-0.9,2.3-1.9,4.6-3.1,6.7c-0.7,1.2-1.3,2.5-1.9,3.8c-2.6,5.5-4.4,11.4-5.3,17.4c-2,12.9-0.4,26.3,4.1,38.5
					c4.4,11.8,11.7,22.7,21.3,30.9c2.2,1.8,4.4,3.7,6.5,5.7c3.9,3.5,7.7,7.2,11.4,10.9c5,5,9.9,10.2,14.8,15.4
					c0.2,0.2,0.3,0.3,0.5,0.5c0.5,0.5,1,1.1,1.6,1.7c2,1.9,4.3,3.8,6.8,3.8c1.1,0,2.3-0.4,3.5-1.3c1-0.8,1.8-1.6,2.6-2.5
					c0.6-0.6,1.1-1.3,1.6-2c0,0,0.1-0.1,0.1-0.1c3.2-4.8,4.8-10.7,6.6-16.1c1-3.1,2.2-6.1,4-8.8c0.9-1.3,1.8-2.6,2.7-3.8
					c0.7-0.9,1.4-1.7,2.1-2.6c1-1.1,2-2.3,3-3.4c0.2-0.3,0.5-0.6,0.7-0.9v-4.9c-0.9,1.3-1.9,2.5-3,3.7c0,0-0.1,0.1-0.1,0.1
					c-0.2,0.2-0.4,0.4-0.7,0.6c-0.7,0.7-1.5,1.5-2.1,2.2c-3.9,4.2-7.2,8.9-9.3,14.3c-2.7,6.7-4.2,14.2-9.4,19.4
					c-0.5,0.5-0.9,0.9-1.4,1.3c-1,0.8-2.6-0.3-3.7-1.3c-0.1-0.1-0.2-0.2-0.3-0.3c-1.6-1.5-3.3-3.7-4.9-5.5
					c-4.1-4.5-8.1-9.1-12.2-13.5c-4.8-5.1-9.7-10-15-14.6c-2.8-2.4-5.5-4.8-8-7.5c-7.7-8.5-12.8-18.7-16-29.6
					c-2.3-8-3.1-16.6-2.4-24.9c0.4-4.4,1.2-8.8,2.5-13c0.5-1.5,1-3.1,1.6-4.6c0.4-1,0.8-2,1.3-3c0.2-0.5,0.5-1,0.7-1.5
					c0.1-0.2,0.2-0.3,0.2-0.4c0,0,0,0.1,0,0.1c0-0.1,0.1-0.2,0.1-0.2c0,0,0,0.1-0.1,0.1C61.6,119.1,63.1,115.7,64.3,112.2z"/>
			</g>
			<g>
				<path class="st2" d="M141.9,145.6c-1-2.8-2.1-5.6-3.4-8.2c-0.3-0.7-0.7-1.3-1-2c-0.4-0.7-0.7-1.3-1.1-2c-2.7-4.6-6-8.8-9.9-12.5
					c-2.7-2.5-5.6-4.6-8.6-6.6c-1.2-0.7-2.3-1.5-3.4-2.3c-3.6-2.5-7.2-5-10.7-7.7c-3.7-2.8-7.5-5.6-10.9-8.7c-3-2.7-6.1-5.6-10-6.9
					c-0.3-0.1-0.6-0.2-0.9-0.3c-1.9-0.5-3.9-0.6-5.6,0.1c0,0,0,0,0,0c-0.8,0.3-1.6,0.9-2.3,1.7c-2.2,2.8-2.5,6.8-2.9,10.4
					c-0.1,0.6-0.2,1.2-0.2,1.7c-0.8,4.6-1.7,9.2-2.8,13.8c-1.1,4.8-2.3,9.7-3.5,14.5c-0.6,2.5-1.3,4.9-1.9,7.4
					c-0.5,2.2-1,4.5-1.3,6.8c-0.7,4.8-0.7,9.7-0.1,14.5c1,8.2,3.6,16.2,7.7,23.4c1.7,3,3.7,5.9,6,8.6c1.9,2.3,4.1,4.3,6.1,6.5
					c0.3,0.3,0.5,0.6,0.8,0.8c6.2,6.9,10.4,15.2,16.2,22.3c2.2,2.7,4.7,5.2,7.6,7.3c0.8,0.6,1.6,1.1,2.4,1.5
					c1.2,0.7,2.7,1.6,4.2,2.1c1,0.4,2,0.6,2.9,0.5c0.6,0,1.1-0.1,1.6-0.4c1.6-0.7,2.7-2.3,3.5-4c0.8-1.7,1.4-3.5,1.9-4.8
					c1.7-4.3,3.1-8.8,4.9-13.1c1.6-3.9,3.7-7.4,5.8-11c1.1-1.9,2.2-3.7,3.3-5.6c0.3-0.5,0.6-1,0.9-1.5c0.4-0.8,0.9-1.6,1.3-2.3
					c0,0,0,0,0,0c1.5-2.9,2.7-5.8,3.8-8.8v-34C142.1,146.4,142,146,141.9,145.6z M110.3,226.6c-4-2-7.3-5.2-10.2-8.6
					c-4.4-5.3-8-11.2-12.2-16.6c-1.5-2-3.1-3.9-4.8-5.7c-2-2.2-4.3-4.1-6.3-6.4c-1.2-1.4-2.3-2.8-3.3-4.2c-1.2-1.7-2.3-3.4-3.3-5.2
					c-0.6-1-1.1-2.1-1.6-3.2c-3.4-7.2-5.3-15.1-5.5-23c-0.2-8.5,2-16.6,4.2-24.8c0.3-1,0.5-2,0.8-3c2.3-9.1,4.5-18.2,5.9-27.5
					c0.4-2.9,1-7.8,4.8-7.7c3.5,0,6.6,2.3,9.1,4.5c7,6.2,14.1,12.4,21.7,18c2.1,1.6,4.3,3.1,6.4,4.6c4.1,2.9,7.9,6,11.2,10
					c4,4.9,7,10.4,9.2,16.3c0.2,0.5,0.4,1,0.6,1.5c0.2,0.4,0.3,0.9,0.5,1.3c0.4,1.5,0.8,3,1.1,4.5c1.8,8.1,2,16.7,0,24.8
					c-0.4,1.5-0.8,2.9-1.3,4.3c-0.3,0.7-0.5,1.4-0.8,2.1c-0.8,1.9-1.7,3.8-2.7,5.7c-2.4,4.5-5.1,8.9-7.5,13.4
					c-2.2,4.1-3.8,8.5-5.3,12.9c-0.8,2.3-1.6,4.6-2.4,7c-0.7,1.8-1.3,3.9-2.3,5.5c-0.9,1.4-1.4,1.3-2.8,0.7
					C112.3,227.5,111.3,227.1,110.3,226.6z"/>
			</g>
			<g>
				<path class="st2" d="M130.5,151.1c-1.3-4.2-2.9-8.1-5.2-11.9c-2.8-4.6-6.3-9-10-12.9c-7.8-8.7-16.9-16.1-25.7-23.8
					c-2.3-2.3-7.2-4.5-9.4-1c-1.2,1.8-2.2,3.7-3.1,5.7c-4.9,10.7-5.6,22.6-5.8,34.2c-0.1,4.2-0.1,8.5-0.2,12.7
					c-0.2,6.9,1.5,13.6,4.9,19.6c7.2,12.4,14.6,24.6,22.9,36.2c2.6,3.6,7.9,12.2,13.2,7.9c4.9-4,8.3-9.9,10.6-15.7
					c1.8-4.4,3-9,4.3-13.6c1.1-3.9,2.4-7.8,3.6-11.7C133.1,168.4,132.9,159.3,130.5,151.1z M129.8,170.7c-0.5,3.1-1.5,5.9-2.4,8.8
					c-0.3,1-0.7,2-1,3c-1.6,4.9-2.9,9.9-4.7,14.8c-2,5.5-4.8,11.8-9.2,16.1c-0.7,0.7-1.4,1.3-2.2,1.8c-0.5,0.4-1.1,0.5-1.7,0.3h0
					c-1.4-0.4-3-2.1-4.3-3.9c-1.3-1.8-2.5-3.8-3.2-4.8c-0.5-0.7-1-1.4-1.5-2.1c-3.1-4.7-6.1-9.4-9-14.2c-2.9-4.9-5.7-9.8-8.5-14.7
					c-2.5-4.4-5.1-8.7-6-13.8c-0.9-4.9-0.6-9.9-0.5-14.8c0-0.1,0-0.3,0-0.4c0.1-5.3,0.1-10.9,0.5-16.4c0.6-9.3,2.3-18.5,7.3-26.5
					c0.1-0.1,0.1-0.2,0.2-0.3c0,0,0,0,0,0c0,0,0.1,0,0.1-0.1c0,0,0,0,0,0.1c1-0.5,2.4,0.7,3.5,1.7c0.4,0.3,0.7,0.7,1,0.9
					c1.5,1.2,3,2.5,4.5,3.7c2.9,2.4,5.8,4.8,8.6,7.2c0.8,0.7,1.6,1.4,2.4,2.1c1.9,1.7,3.8,3.4,5.7,5.2c6,5.8,11.4,12.2,15.8,19.4
					c0.9,1.7,2,4.4,2.7,6.5C130,156.8,130.9,163.8,129.8,170.7z"/>
			</g>
			<g>
				<path class="st2" d="M121.3,161.5L121.3,161.5c0.2-0.3,0.3-0.4,0.2-1l0,0c0,0-0.1-0.2-0.1-0.4c-0.1-0.3-0.2-0.6-0.3-1.1
					c-0.3-1.1-0.9-2.8-1.6-5.3c0,0,0,0,0,0l0,0c0,0,0,0,0,0h0c-2.2-6.6-5.7-12.6-8.9-17.6c-4.3-6.7-9.7-15.1-17.6-19.3
					c-1.9-1.1-4-1.8-6.1-2.2l-0.8-0.2l-0.4,0.7c-1,1.8-1.9,3.8-2.7,5.8c-1.5,4.1-2.4,8.5-2.6,13.2c-1,18.2,6.5,36.1,14.4,52.8
					c0.3,0.7,0.6,1.3,0.9,2c1.1,2.3,2.2,4.6,3.3,6.9l0.1,0.2c1.2,2.4,2.7,5.3,5.2,6.8c0.7,0.4,1.4,0.6,2.2,0.6
					c2.1,0,3.9-1.6,5.3-2.8l0.1-0.1c2.3-2,4.2-4.5,5.7-7.5C122.1,184.5,123.4,173.3,121.3,161.5z M115.7,192.1
					c-1.4,2.7-3.2,5-5.3,6.8l-0.1,0.1c-1.1,1-2.6,2.3-3.9,2.3c-0.4,0-0.7-0.1-1.1-0.3c-2-1.2-3.3-3.7-4.4-5.9l-0.1-0.2
					c-1.2-2.2-2.2-4.6-3.3-6.8c-0.3-0.7-0.6-1.3-0.9-2c-7.7-16.5-15.2-34.1-14.2-51.8c0.3-4.5,1.1-8.8,2.5-12.6
					c0.6-1.7,1.3-3.3,2.1-4.8c1.6,0.4,3.2,1,4.7,1.8c7.4,4,12.4,11.8,16.8,18.6c3.1,4.8,6.6,10.6,8.6,17c0,0.1,0.1,0.2,0.1,0.3
					c0.1,0.2,0.2,0.5,0.3,0.9C121.5,169,120.8,182.4,115.7,192.1z"/>
			</g>
			<g>
				<path class="st2" d="M109.6,167.4c0-0.4-0.1-0.7-0.1-1.1c-0.2-4.5-1-8.9-2.3-13.2c-1.1-3.6-2.6-8.2-5.1-11.9
					c0-0.1-0.1-0.1-0.1-0.2c-1.2-1.7-3.5-4.5-6.3-4.5c-1.1,0-2.1,0.4-3,1.3c-1.6,1.5-2,3.6-1.8,5.6c0,0,0,0,0,0
					c0.1,1.2,0.4,2.5,0.7,3.6c0.3,1.1,0.7,2.2,1.1,3.2c0.7,2,1.4,3.9,1.6,5.9l0.5-0.1l0.5-0.1l-0.5,0.2l-0.5,0.2
					c0.4,1.3,1,2.6,1.5,3.9c0.5,1.3,1.1,2.7,1.5,4.1c0.2,0.5,0.3,0.9,0.4,1.4c0.8,2.6,1.6,5.2,3.3,7.5c0,0,0.2,0.2,0.5,0.6
					c0.9,1,2.9,3.1,4.8,3.1c1,0,1.9-0.6,2.4-1.6c0.1-0.2,0.2-0.4,0.2-0.5C109.9,172.5,109.7,169.7,109.6,167.4z M106.9,174.3
					c-0.2,0.4-0.4,0.4-0.5,0.4c-1,0-2.8-1.7-3.6-2.8c-1.4-2-2.2-4.5-3-6.9c-0.2-0.5-0.3-1-0.5-1.4c-0.5-1.4-1-2.8-1.6-4.2
					c-0.4-1.1-0.9-2.2-1.3-3.3c0,0,0-0.1,0-0.1c0-0.4-0.1-1.2-0.2-1.5c-0.1-0.8-0.2-1.4-0.6-1.7c-0.3-1.1-0.7-2.2-1.1-3.3
					c-0.4-1.1-0.7-2.1-1-3.1c-0.7-2.5-1.3-5.4,0.5-7.1c0.5-0.5,1-0.7,1.5-0.7c1.3,0,3,1.3,4.5,3.6c2.4,3.5,3.9,8,5,11.5
					c1.2,4.1,2,8.4,2.2,12.7c0,0.4,0,0.7,0.1,1.1C107.6,169.8,107.8,172.5,106.9,174.3z"/>
			</g>
		</g>
		<g class="st3">
			<g>
				<path class="st4" d="M4.3,234.8c-1.5-2.4-2.9-4.9-4.3-7.4v1.9c0,7.6,4.9,14.1,11.7,16.5C9.1,242.2,6.6,238.5,4.3,234.8z
					 M83.6,5.3c-2-0.1-4.1-0.2-6.1-0.6c-4-0.8-7.8-2.3-11.6-3.8c-1.1,0.4-2.2,0.8-3.2,1.4c1.7,0.7,3.3,1.4,5,2
					c1.7,0.7,3.4,1.3,5.1,1.8c0.9,0.3,1.8,0.6,2.7,0.8c0.1,0,0.1,0,0.2,0.1c1.6,0.4,3.3,0.7,5,0.8c1.7,0.2,3.4,0.2,5,0.3
					C85.1,7,84.4,6.1,83.6,5.3z"/>
			</g>
			<g>
				<path class="st4" d="M9.2,68.2c-1.8,2.8-3.5,5.8-5.1,8.7c-1.5,2.7-2.8,5.5-4.1,8.4v6.4c1.1-3.1,2.4-6.2,3.8-9.2
					c1.2-2.7,2.6-5.2,4-7.8c0.4-0.7,0.8-1.4,1.2-2c1.2-2.1,2.5-4.1,3.9-6.1C11.6,67.1,10.4,67.6,9.2,68.2z M84.8,22.1
					c-0.7-0.2-1.4-0.3-2.1-0.5c-1.5-0.4-2.9-0.9-4.3-1.4c-0.3,0.8-0.7,1.5-1.2,2.2c1.8,0.7,3.6,1.4,5.6,1.9c0.6,0.2,1.3,0.3,1.9,0.5
					c0.1,0,0.1,0,0.2,0c1.2,0.3,2.5,0.5,3.8,0.6v-2.7C87.3,22.6,86,22.4,84.8,22.1z M61.9,10.6c-0.6-0.4-1.2-0.7-1.9-1.1
					c-1.1-0.6-2.2-1.2-3.4-1.7c-0.4,0.6-0.8,1.3-1.2,2c1.1,0.5,2.3,1.1,3.4,1.7c0.6,0.4,1.2,0.7,1.8,1.1c1.1,0.7,2.3,1.5,3.4,2.2
					c0.3-0.7,0.7-1.4,1.2-2C64.1,12,63,11.3,61.9,10.6z M28.8,242.9c-0.6-0.7-1.2-1.4-1.7-2.1c-8.5-10.7-15.6-22.3-21.2-34.7
					c-0.7-1.7-1.5-3.3-2.1-5c-1.4-3.3-2.6-6.7-3.8-10.1v10.6c1.2,3.1,2.4,6.1,3.8,9.1c0.7,1.5,1.4,3.1,2.1,4.6
					c4.4,9,9.7,17.6,15.7,25.6c0.5,0.7,1.1,1.4,1.6,2.1c1,1.3,2,2.5,3,3.8H32C30.9,245.4,29.9,244.2,28.8,242.9z"/>
			</g>
			<g>
				<path class="st4" d="M84.8,36c-0.7-0.3-1.4-0.7-2.1-1c-7.4-3.6-14.3-8.3-20.9-12.9c-0.7-0.5-1.4-1-2.1-1.5
					c-0.6-0.4-1.2-0.8-1.7-1.2c-0.1-0.1-0.3-0.2-0.4-0.2c-1.2-0.7-2.5-1.1-3.8-1.4v3.5c1.3,0.4,2.6,1.1,3.8,2
					c0.6,0.4,1.2,0.9,1.8,1.3c0.1,0.1,0.2,0.1,0.3,0.2c7.5,5,15,9.8,23,13.6c0.7,0.3,1.4,0.7,2.1,1c0.4,0.2,0.9,0.4,1.3,0.6
					c0.8,0.3,1.6,0.7,2.4,1v-3.4C87.3,37.1,86,36.5,84.8,36z M49,242.9c-0.8-0.7-1.5-1.4-2.2-2.1c-2.7-2.7-5.2-5.4-7.7-8.4
					c-10.1-12.2-17.5-25.9-23.3-40.7c-4.7-11.9-7.3-24.8-8.3-37.5c-1.5-18.9,0.9-38.3,8-56c3.1-7.6,7-14.7,11.8-21.4
					c1.2-1.7,2.5-3.2,3.8-4.8c0.5-0.7,1.1-1.4,1.6-2.1c0.1-0.1,0.1-0.2,0.2-0.3c0.7-1.1,1.3-2.3,1.9-3.5h-4.3
					c-0.3,0.5-0.5,1-0.8,1.4c-0.6,0.8-1.2,1.5-1.8,2.3c-0.6,0.7-1.1,1.4-1.7,2.1c-0.2,0.3-0.5,0.6-0.7,0.9c0,0-0.1,0.1-0.1,0.1
					c-0.9,1.2-1.7,2.3-2.6,3.5c-0.1,0.2-0.3,0.4-0.4,0.6c-0.4,0.5-0.7,1-1.1,1.6c-0.3,0.5-0.6,0.9-0.9,1.4c-0.2,0.2-0.3,0.5-0.5,0.7
					c-0.1,0.1-0.2,0.3-0.3,0.4c-0.2,0.3-0.3,0.5-0.5,0.8c-2.9,4.8-5.4,9.9-7.4,15.1c-2.6,6.4-4.5,13.1-5.9,19.9
					c-1,5-1.7,10-2.1,15.1c-0.2,2-0.3,3.9-0.4,5.9c-0.2,5.4-0.1,10.8,0.4,16.2c0.4,5.3,1.1,10.5,2.1,15.7c2.5,13.1,6.9,25.9,13,37.8
					c6.1,12,13.8,23.3,23.2,33c0.7,0.7,1.4,1.4,2.1,2.1c1.3,1.3,2.6,2.5,4,3.8h5C51.7,245.5,50.3,244.2,49,242.9z"/>
			</g>
			<g>
				<path class="st4" d="M89.1,53.2c-0.1-0.5-0.2-0.9-0.3-1.4c-1.3-0.8-2.7-1.5-4-2.3c-0.7-0.4-1.4-0.9-2.2-1.3
					c-2.2-1.3-4.4-2.7-6.5-4c-2.9-1.8-5.8-3.6-8.8-5.4c-0.4-0.3-0.9-0.5-1.3-0.8c-1.9-1.2-4.1-2.5-6.4-3.1c0,0-0.1,0-0.1,0
					c-0.7-0.1-1.3-0.2-2-0.2h0c-0.3,0-0.5,0-0.8,0c-1,0.1-2,0.4-2.9,0.8v2.5c0.9-0.6,2-1,3.1-1.1c0.2,0,0.4,0,0.6,0h0
					c0.7,0,1.4,0.1,2.1,0.3c1.8,0.5,3.6,1.6,5.3,2.7c0.5,0.3,0.9,0.6,1.4,0.8c2.9,1.8,5.9,3.6,8.8,5.4c2.5,1.6,5.1,3.2,7.7,4.7
					c0.8,0.5,1.6,0.9,2.3,1.4c0,0,0,0,0,0c1.2,0.7,2.4,1.4,3.6,2.1c0.3,0.2,0.6,0.3,0.9,0.5C89.4,54.2,89.2,53.7,89.1,53.2z
					 M140.9,76.8c-5.5-4.3-11.4-7.9-17.5-10.7h-5.5c2.8,1.1,5.6,2.4,8.4,3.8c3.4,1.8,6.7,3.8,9.9,6.1c1.9,1.4,3.9,2.8,5.7,4.4
					C141.7,79.1,141.3,77.9,140.9,76.8z M74.2,242.9c-0.9-0.6-1.8-1.1-2.7-1.7c-0.3-0.2-0.5-0.3-0.8-0.5
					c-12.1-7.6-23.1-18.9-31.7-32.8c-18.8-30.4-23.1-68.4-11.3-99.2c1.5-3.9,3.3-7.7,5.2-11.3c1.1-2,2.1-3.7,3.4-5.3
					c1.3-1.6,2.5-3.4,3.6-5.2c3.3-5.6,5.2-11.8,6.4-17.2c0.2-0.9,0.4-1.8,0.6-2.7c0.2-0.9,0.3-1.7,0.5-2.6c0-0.2,0.1-0.3,0.1-0.5
					c0.1-0.7,0.2-1.5,0.4-2.2c-0.8,0.7-1.6,1.3-2.5,1.8c0,0.2-0.1,0.3-0.1,0.5c-0.2,1.3-0.5,2.7-0.8,4.2c-0.2,0.8-0.4,1.7-0.6,2.5
					c-0.4,1.7-0.9,3.4-1.4,5.1c-1.1,3.4-2.5,6.8-4.4,10c-1,1.8-2.2,3.4-3.4,5c-1.3,1.7-2.4,3.4-3.6,5.6c-2,3.6-3.8,7.5-5.3,11.5
					c-6,15.8-8.1,33.7-5.8,51.8c2.2,17.4,8.1,34.4,17.3,49.3c8.1,13.2,18.3,24,29.6,31.7c1.1,0.7,2.2,1.5,3.3,2.1
					c0.1,0.1,0.2,0.1,0.3,0.2c1.9,1.2,3.8,2.4,5.6,3.6h3.8C78,245.4,76.1,244.1,74.2,242.9z"/>
			</g>
			<g>
				<path class="st4" d="M138.3,231.5c-1.4,2.3-2.6,4.7-3.6,7.2c-0.1,0.1-0.1,0.3-0.2,0.4c-0.8,1.9-1.4,3.9-2.1,5.8
					c1.9-0.9,3.6-2.2,5.1-3.7c1-2.7,2-5.3,3.4-7.7c0.4-0.7,0.8-1.3,1.2-2c0.1-0.8,0.2-1.5,0.2-2.3v-3.5
					C140.8,227.6,139.5,229.5,138.3,231.5z M138.5,94.6c-0.6-0.6-1.2-1.1-1.8-1.7c-0.1-0.1-0.2-0.2-0.3-0.3
					c-6.3-5.5-13.6-9.4-21.1-12.9c-5.3-2.4-10.2-5.3-14.9-8.5c-0.4-0.2-0.7-0.5-1.1-0.7c-3-2-5.9-4.2-8.9-6.3
					c-1.3-0.9-2.6-1.9-3.8-2.8c-4.2-3-8.4-6-12.8-8.8c-2.6-1.6-5.3-3.1-8.4-3.2c-0.8,0-1.6,0-2.4,0.1c-1.2,0.2-2.4,0.6-3.4,1.2
					c-1,0.6-1.8,1.3-2.5,2.2c-0.6,0.8-1.1,1.7-1.5,2.7c-0.4,1-0.6,2.1-0.7,3.2c-0.1,0.5-0.2,1-0.2,1.4c-0.2,1.1-0.4,2.3-0.6,3.4
					c-0.5,2.9-0.9,5.8-1.4,8.7C51.4,78.8,50.2,85,48.4,91c-0.9,3.1-2,6.2-3.2,9.2c-2.8,6.5-6.5,12.5-8.7,19.3
					c-4.9,14.9-5.8,31.5-2.6,46.9c4.3,20.7,14.3,40.3,30.3,54.4c5.9,5.3,12.1,10.2,17.8,15.8c1.4,1.3,2.7,2.7,4,4
					c0.1,0.1,0.2,0.2,0.2,0.2c0.7,0.7,1.4,1.4,2.1,2.1c1.2,1.2,2.4,2.5,3.6,3.8h6.7c-1.1-1.3-2.3-2.5-3.5-3.8
					c-0.7-0.7-1.3-1.4-2-2.1c-3.2-3.4-6.4-6.7-9.7-9.9c-2.9-2.8-5.9-5.5-9-8.2c-3.1-2.7-6.2-5.4-9.1-8.3c-9.2-9.1-16.6-20.5-21-32.7
					c-2.8-7.6-4.8-15.4-5.8-23.5c-1.4-11.4-0.5-22.8,2.6-33.7c1.3-4.7,3.1-9.4,5.2-13.9c0,0,0,0.1-0.1,0.1c0-0.1,0.1-0.1,0.1-0.2
					c0,0,0,0.1,0,0.1c7.4-13,10-27.8,12.2-42.4c0.4-2.6,0.8-5.2,1.2-7.8c0.1-0.8,0.1-1.9,0.4-2.6c0.9-2.9,3.4-3.9,6.3-3.3
					c0.8,0.2,1.6,0.5,2.4,0.8c0.9,0.4,1.8,1,2.6,1.5c3.7,2.2,7.3,4.6,10.8,7c10.1,7,20,14.3,31.4,19.2c7.9,3.4,15.2,7.4,21.8,13
					c0.3,0.2,0.5,0.4,0.8,0.7c0.7,0.6,1.4,1.3,2.1,1.9c1.3,1.2,2.5,2.5,3.8,3.7v-4.3C141,97,139.8,95.8,138.5,94.6z"/>
			</g>
			<g>
				<path class="st4" d="M141.8,199.6c-0.9,1.6-1.7,3.1-2.6,4.6c-0.2,0.4-0.4,0.8-0.7,1.1c-0.7,1.2-1.4,2.4-2.1,3.7
					c-2.1,3.6-4.1,7.3-5.8,11.2c-1.9,4.4-3.4,8.9-5,13.5c-0.8,2.4-1.7,4.8-2.6,7.1c0,0,0,0.1-0.1,0.1c-0.2,0.7-0.5,1.3-0.7,2
					c-0.1,0.3-0.2,0.6-0.3,0.8c-0.3,0.9-0.7,2-1.3,2.9h4.2c0,0,0.1,0,0.1,0c0.4-0.8,0.7-1.6,1-2.3c0.2-0.5,0.4-1,0.6-1.6
					c0.3-0.8,0.6-1.6,0.9-2.3c1.2-3,2.2-6,3.3-9c1.6-4.5,3.4-8.8,5.5-12.9c0.7-1.4,1.4-2.7,2.1-4.1c0.7-1.2,1.4-2.4,2.1-3.6
					c0.6-0.9,1.1-1.8,1.7-2.8v-9.4C142.1,199,141.9,199.3,141.8,199.6z M139.3,116.7c-0.3-0.3-0.5-0.7-0.8-1
					c-0.7-0.8-1.4-1.6-2.1-2.4c-4.3-4.6-9.2-8.6-14.5-12c-8-5.1-15.6-10.8-23-16.7c-2.9-2.3-5.8-4.6-8.6-7c-0.8-0.7-1.6-1.4-2.4-2.2
					c-3.3-3-6.8-5.9-11.1-7.3c-1-0.3-2.2-0.6-3.3-0.8c-1.4-0.2-2.8-0.1-4.1,0.2c-4.4,1.3-5.7,6.2-6.3,10.2
					c-1.5,9.4-3.2,18.8-5.3,28.1c-1.3,5.4-2.7,10.8-4,16.3c-1,3.9-2,7.9-2.9,11.8c-2.2,9.4-2.4,19.3-0.7,28.8
					c2.6,15,9.4,29.1,19.8,40.2c1.8,1.9,3.7,3.7,5.5,5.7c1.7,1.9,3.4,3.9,4.9,5.9c1.3,1.7,2.5,3.5,3.7,5.2c3.2,4.6,6.2,9.4,9.6,14
					c1.8,2.5,3.8,4.9,5.9,7.1c0.4,0.4,0.8,0.8,1.1,1.2c0.3,0.3,0.6,0.6,1,1c1.4,1.4,2.9,2.6,4.5,3.8c0.1,0,0.1,0.1,0.2,0.1
					c0,0-0.1-0.1-0.1-0.1h6.9c-2.1-1-4.2-2.3-6-3.8c-0.4-0.3-0.9-0.7-1.3-1c-0.4-0.4-0.9-0.7-1.3-1.1c-5-4.5-9-9.9-12.8-15.4
					c-1.3-1.8-2.5-3.6-3.7-5.4c-4.2-6-8.7-11.6-13.9-16.7c-11.8-11.6-19.6-26.4-22.1-42.8c-1.5-9.5-0.9-19.2,1.4-28.5
					c1.7-6.9,3.5-13.7,5.2-20.6c0.7-2.7,1.3-5.4,1.9-8.1c1.1-4.7,2.1-9.4,3-14.1c0.9-4.5,1.3-9.2,2.5-13.6c0.8-3.1,2.3-5.9,5.9-5.8
					c3.7,0.3,6.9,1.9,9.9,4.2c2.7,2.1,4.9,4.6,7.5,6.7c3.5,3,7.1,6,10.7,8.9c1.4,1.1,2.8,2.2,4.2,3.4c5.7,4.5,11.5,8.7,17.5,12.7
					c2.9,1.9,5.6,4.1,8.1,6.5c2.5,2.4,4.7,4.9,6.7,7.7c0.7,1,1.5,2,2.1,3c1.4,2,2.6,4.1,3.8,6.3v-8.6
					C141.3,119.3,140.3,118,139.3,116.7z"/>
			</g>
			<g>
				<path class="st4" d="M138.5,149.6c-0.3-1.1-0.6-2.2-0.9-3.3c-0.2-0.5-0.3-1.1-0.5-1.6c-0.2-0.6-0.4-1.2-0.7-1.8
					c-4.2-10.8-11.7-20.1-19.7-28.5c-0.8-0.8-1.5-1.6-2.3-2.4c-9.2-9.3-19.2-17.6-29.1-26.2c-2.6-2.6-8.3-5.4-11.1-1.6
					c-1.6,2.2-2.9,4.8-4.1,7.3c-0.8,1.7-1.5,3.4-2.1,5.2c-1.8,5-3,10.1-3.8,15.4c-1.3,8.5-1.5,17.2-1.6,25.8c0,1.7,0,3.5-0.1,5.2
					c-0.1,4.4-0.3,8.8,0,13.2c0.4,7,2.3,13.8,5.9,20c0.1,0.1,0.1,0.2,0.2,0.3c1.6,2.8,3.2,5.6,4.9,8.4c2.5,4.2,5,8.4,7.5,12.5
					c3.1,5.1,6.3,10.1,9.7,15.1c3.5,5.3,7.1,10.7,11,15.7c2.3,3,5.9,7.5,10.2,6.7c1.7-0.3,3-1.5,4.2-2.7c0.2-0.2,0.4-0.4,0.6-0.6
					c1.3-1.3,2.4-2.6,3.5-4c6.5-8.3,9.8-18.6,12.7-28.8c1.1-3.7,2.1-7.3,3.2-10.9c0.1-0.2,0.1-0.3,0.2-0.5c0.7-2.2,1.5-4.4,2.1-6.7
					c0.1-0.5,0.3-0.9,0.4-1.4c1.2-4.6,1.8-9.4,1.7-14.2C140.6,160,139.8,154.8,138.5,149.6z M133.2,189.6c-1.4,4.5-2.7,9.1-4.2,13.7
					c-2.8,8.8-6.3,17.4-12.5,24.4c-1.1,1.3-2.4,2.5-3.7,3.6c-0.2,0.2-0.4,0.3-0.6,0.4c-1.5,0.8-3.2-0.2-4.6-1.5
					c-0.7-0.7-1.4-1.4-2.1-2.2c-1.5-1.8-2.7-3.7-4-5.6c-1.6-2.3-3.1-4.5-4.6-6.8c-3.1-4.7-6.1-9.4-9-14.2c-2.1-3.4-4.2-6.9-6.2-10.4
					c-2-3.5-4-6.9-6-10.4c-2-3.4-4.2-6.9-5.7-10.5c-2.7-6.5-3.2-13.3-3.1-20.2c0.1-4.9,0.1-9.7,0.2-14.6c0-2.1,0.1-4.2,0.1-6.3
					c0.1-4.2,0.4-8.5,0.8-12.7c0.6-5.3,1.5-10.5,3-15.6c1.3-4.2,3-8.3,5.2-12.1c0,0,0,0,0,0c0.4-0.7,0.8-1.3,1.2-2c0,0,0,0,0,0
					c1.1-1.2,4.5,1.4,5.2,2.2c0,0,0,0,0,0c0.4,0.3,0.8,0.6,1.1,0.9c8.5,7,17.1,13.9,25.2,21.5c2.3,2.2,4.6,4.4,6.8,6.7
					c1.8,1.9,3.6,3.9,5.4,5.9c4,4.7,7.4,9.6,10.6,14.8c1.3,2.3,2.6,5.7,3.5,8.4c0.4,1.1,0.7,2.2,1,3.3c1.1,3.8,1.8,7.7,2.1,11.7
					c0,0.7,0.1,1.4,0.1,2.2c0,0.8,0,1.6,0,2.4c-0.1,4.5-0.8,9-2,13.4c0,0.1-0.1,0.2-0.1,0.4c-0.8,2.7-1.8,5.4-2.7,8
					C133.5,188.8,133.4,189.2,133.2,189.6z"/>
			</g>
			<g>
				<path class="st4" d="M126.2,161.7l0.1-0.2c0.2-0.3,0.2-0.6,0.2-1l0,0c0,0,0,0,0-0.1c0-0.1-0.1-0.2-0.1-0.3l-0.5-1.5
					c-0.4-1.4-1.1-3.6-2.1-6.9l0,0c0,0,0,0,0,0l0,0c0,0,0,0,0,0c-2.5-7.6-6.3-14.3-9.8-19.9c-1.4-2.3-3-4.8-4.7-7.4
					c-2.4-3.6-5.2-7.3-8.2-10.8c-5.2-5.9-10.5-9.7-16.2-11.5c-0.8-0.3-1.6-0.5-2.4-0.6c-0.1,0-0.3,0-0.4,0c-1.3,0-1.8,1.2-2.1,2
					c-0.1,0.1-0.1,0.3-0.2,0.4c-0.8,1.6-1.5,3.3-2.2,5c-1.2,3.1-2.1,6.5-2.7,10c-1.7,9.6-1,19.3,0.7,28.4c1.8,9.6,4.9,18.5,7.6,25.5
					c2.2,5.8,4.7,11.6,7.5,17.8c1.1,2.3,2.2,4.7,3.4,7.1c0.6,1.2,1.1,2.4,1.7,3.7c1.9,4.4,4,8.9,7.4,12.2c1.4,1.4,3,2.1,4.5,2.1
					c0.3,0,0.6,0,0.9-0.1h0c0.5-0.1,1-0.3,1.5-0.6c0.8-0.5,1.6-1,2.4-1.6c1.6-1.2,3.2-2.7,4.7-4.5c3.8-4.5,6.6-10.2,8.3-17.1
					c1-3.9,1.6-8,1.8-12.2C127.6,173.7,127.3,167.7,126.2,161.7z M109,213.1c-0.5,0.3-0.9,0.4-1.4,0.4c-1.2,0-2.3-0.8-3-1.5
					c-0.1-0.1-0.2-0.2-0.3-0.3c-1.9-2-3.3-4.4-4.6-7c-0.7-1.4-1.3-2.8-2-4.2c-0.6-1.3-1.1-2.6-1.7-3.8c-4.3-8.8-7.8-16.9-10.8-24.8
					c-4.1-10.8-9.1-26-9.1-41.5c0-3.7,0.3-7.5,1-11.3c0.6-3.4,1.5-6.6,2.6-9.6c0.6-1.6,1.3-3.2,2.1-4.7c0.1-0.2,0.2-0.4,0.2-0.5
					c0.1-0.2,0.2-0.4,0.3-0.6c0.4,0.1,0.7,0.2,1.1,0.3c0.3,0.1,0.6,0.2,0.9,0.3c1,0.3,1.9,0.7,2.8,1.1c4.2,1.9,8.3,5.2,12.4,9.8
					c0.6,0.7,1.2,1.3,1.7,2c4.3,5.2,7.9,10.9,11,15.8c1.7,2.7,3.5,5.8,5.1,9c1.7,3.3,3.2,6.7,4.4,10.4l0,0.1c0,0,0,0,0,0.1
					c0.1,0.3,0.2,0.8,0.4,1.4c3.6,12.7,4.1,26,1.2,37.5c-1.6,6.5-4.3,12-7.9,16.2C113.4,209.9,111.3,211.8,109,213.1z"/>
			</g>
			<g>
				<path class="st4" d="M110.5,162.2c-1.2-9-4-17.5-8.3-25.4c-0.9-1.6-4-6.9-8.4-7.2c-3.5-0.2-5.9,3.3-6.2,6.6
					c-0.3,3.9,1,7.5,2.3,11c1,2.5,1.9,4.9,2.1,7.4l1.1-0.1l-1,0.3c0.5,1.6,1.2,3.2,1.8,4.7c0.5,1.3,1.1,2.7,1.6,4.1
					c0.4,1,0.7,2.1,1,3.2c0.4,1.4,0.9,2.8,1.4,4.2c0.8,2.1,2,4.9,4,7c0.9,1,3.2,3.2,5.4,3.2c0.4,0,0.9-0.1,1.2-0.3
					c2.5-1.1,2.6-4.8,2.6-7l0-0.3C111.3,169.9,111,166.1,110.5,162.2z M107.7,179c-0.1,0-0.2,0.1-0.4,0.1c-1,0-2.7-1.3-3.8-2.5
					c-0.8-0.8-1.4-1.8-2-2.8c-0.7-1.2-1.2-2.5-1.6-3.5c-0.5-1.3-0.9-2.7-1.4-4.1c-0.3-1.1-0.7-2.1-1.1-3.2c-0.5-1.4-1-2.8-1.6-4.1
					c-0.4-0.9-0.7-1.8-1.1-2.7c0,0,0-0.1,0-0.1c-0.2-0.4-0.3-0.9-0.5-1.3c0-0.1,0-0.1,0-0.2c0-0.5-0.1-1.5-0.2-1.9
					c-0.2-1.1-0.3-1.8-0.8-2.1c-0.4-1.4-0.9-2.8-1.4-4.1c-0.4-1-0.8-2.1-1.1-3.1c0,0,0,0,0,0c-0.8-2.3-1.3-4.6-1.1-7
					c0.2-2,1.7-4.8,3.9-4.6c2.6,0.2,5.2,3.2,6.7,6c0.6,1.1,1.2,2.3,1.7,3.4c3.2,6.7,5.3,13.9,6.3,21.3c0.5,3.8,0.7,7.5,0.6,11l0,0.3
					c0,0.2,0,0.5,0,0.8C109,176.3,108.8,178.5,107.7,179z"/>
			</g>
		</g>
		<g class="st5">
			<path class="st4" d="M9.7,237.8c-1.9-2-3-4.8-3-7.8v-77.7v-18.7V84.3c0-5.5,3.9-10.1,9.1-11.3c0.8-0.2,1.6-0.3,2.4-0.3H37
				c0.4,0,0.8,0,1.1,0c1.7-0.1,3.3-0.3,4.9-0.8c0.5-0.1,1-0.3,1.5-0.5c0.5-0.2,0.9-0.3,1.4-0.5c0,0,0,0,0,0c0.3-0.1,0.7-0.3,1-0.5
				c0.6-0.3,1.1-0.6,1.7-0.9c1.6-1,3.2-2.1,4.5-3.4c0.5-0.5,1-1,1.5-1.5c1.6-1.9,2.9-4,3.9-6.3c0.1-0.2,0.2-0.4,0.2-0.6c0,0,0,0,0,0
				c0.7-1.9,1.2-3.9,1.4-6c0-0.1,0-0.3,0-0.4c0-0.6,0.1-1.2,0.1-1.8V18.2c0-0.3,0-0.5,0-0.8c0.1-0.8,0.2-1.6,0.4-2.3
				c0.2-0.6,0.4-1.2,0.7-1.8c0.3-0.7,0.7-1.4,1.2-2c0.7-1,1.6-1.8,2.6-2.5c1.1-0.8,2.3-1.4,3.6-1.7c1-0.3,2-0.4,3-0.4
				c0.6,0,1.1,0,1.7,0.1c1,0.2,2,0.4,2.9,0.9c1.1,0.5,2.2,1.2,3.1,2c-1.1-1.2-2.4-2.1-3.9-2.8c-0.9-0.4-1.9-0.7-2.9-0.9
				c-0.6-0.1-1.1-0.1-1.7-0.1c-1,0-2,0.1-3,0.4c-1.3,0.4-2.5,0.9-3.6,1.7c-1,0.7-1.9,1.6-2.6,2.5c-0.5,0.6-0.9,1.3-1.2,2
				c-0.3,0.6-0.5,1.2-0.7,1.8c-0.2,0.7-0.3,1.5-0.4,2.3c0,0.3,0,0.5,0,0.8v31.3c0,0.6,0,1.2-0.1,1.8c0,0.1,0,0.3,0,0.4
				c-0.2,2.1-0.7,4.1-1.4,6c0,0,0,0,0,0c-0.1,0.2-0.2,0.4-0.2,0.6c-1,2.3-2.3,4.5-3.9,6.3c-0.5,0.5-0.9,1.1-1.5,1.5
				c-1.4,1.3-2.9,2.5-4.5,3.4c-0.5,0.3-1.1,0.6-1.7,0.9c-0.3,0.2-0.7,0.3-1,0.5c0,0,0,0,0,0c-0.5,0.2-0.9,0.4-1.4,0.5
				c-0.5,0.2-1,0.3-1.5,0.5c-1.6,0.4-3.2,0.7-4.9,0.8c-0.4,0-0.8,0-1.1,0H17.4c-0.8,0-1.6,0.1-2.4,0.3C9.8,73.4,5.9,78,5.9,83.5
				v49.3v18.7v77.7C5.9,232.6,7.4,235.7,9.7,237.8z"/>
			<path class="st4" d="M96.5,70.4c0.7,0.3,1.4,0.6,2.2,0.9c0.8,0.3,1.6,0.5,2.4,0.7c1.8,0.5,3.7,0.7,5.7,0.7h18.8
				c0.5,0,1,0,1.6,0.1c2.4,0.3,4.5,1.4,6.2,2.9c-1.8-1.9-4.2-3.3-7-3.7c-0.5-0.1-1-0.1-1.6-0.1H106c-2,0-3.9-0.2-5.7-0.7
				c-0.8-0.2-1.6-0.4-2.4-0.7c-0.7-0.3-1.5-0.6-2.2-0.9c-2.2-1.1-4.2-2.4-5.9-4.1C91.8,67.6,94,69.2,96.5,70.4z"/>
			<path class="st4" d="M83.7,12.1c0.5,1.1,0.8,2.3,1,3.5c0.1,0.6,0.1,1.2,0.1,1.8v13.5v17.8c0,0.2,0,0.5,0,0.7
				c0,0.9,0.1,1.8,0.3,2.6v0c0.2,1,0.4,1.9,0.7,2.9c0.3,0.9,0.6,1.8,1,2.7c1.1,2.4,2.7,4.6,4.6,6.4c-1.6-1.6-2.9-3.5-3.8-5.6
				c-0.4-0.9-0.8-1.8-1-2.7c-0.3-0.9-0.5-1.9-0.7-2.9v0c-0.1-0.9-0.2-1.7-0.3-2.6c0-0.2,0-0.5,0-0.7V31.7V18.2c0-0.6,0-1.2-0.1-1.8
				c-0.2-1.2-0.5-2.4-1-3.5c-0.7-1.7-1.7-3.1-3-4.4c-0.1-0.1-0.2-0.2-0.3-0.3C82.2,9.3,83.1,10.6,83.7,12.1z"/>
			<path class="st4" d="M139.2,82.9c-0.2-2.2-1-4.3-2.2-6.1c-0.6-0.9-1.3-1.8-2.1-2.5c0.5,0.5,1,1.1,1.4,1.7c1.2,1.8,2,3.9,2.2,6.1
				c0,0.5,0.1,0.9,0.1,1.4v3.7v103.3v38.7c0,0.8-0.1,1.5-0.2,2.3c-0.3,2-1.1,3.9-2.2,5.5c-0.4,0.6-0.9,1.2-1.4,1.7
				c-0.1,0.1-0.3,0.3-0.4,0.4c-1.2,1.2-2.7,2.1-4.2,2.8c-0.9,0.4-1.8,0.7-2.8,0.8c-0.2,0-0.5,0.1-0.7,0.1c-0.6,0.1-1.2,0.1-1.8,0.1
				h-6.4H78.5h-61c-1.2,0-2.4-0.2-3.5-0.5c-2.2-0.6-4.2-1.7-5.8-3.2c1.7,1.9,4,3.3,6.6,3.9c1.1,0.3,2.3,0.5,3.5,0.5h61h39.9h6.4
				c0.6,0,1.2,0,1.8-0.1c0.2,0,0.5-0.1,0.7-0.1c1-0.2,1.9-0.5,2.8-0.8c1.6-0.7,3-1.6,4.2-2.8c0.1-0.1,0.3-0.3,0.4-0.4
				c0.5-0.5,1-1.1,1.4-1.7c1.1-1.6,1.9-3.5,2.2-5.5c0.1-0.7,0.2-1.5,0.2-2.3v-38.7V88v-3.7C139.2,83.8,139.2,83.4,139.2,82.9z"/>
		</g>
		<g class="st5">
			<path class="st2" d="M136.3,84v108.9c0.3-0.3,0.6-0.6,0.9-0.9c0.4-0.5,0.9-0.9,1.3-1.4V87.3C137.8,86.2,137.1,85.1,136.3,84z
				 M124,69.9h-18c-1,0-1.9-0.1-2.9-0.2c-3.8-0.5-7.3-2-10.1-4.3c-2.6-2-4.7-4.7-6.2-7.7c-0.4-0.9-0.8-1.8-1-2.7
				C85.4,54,85.2,53,85,52v0c-0.1-0.9-0.2-1.7-0.3-2.6c0-0.2,0-0.5,0-0.7V30.9c-0.7-0.3-1.4-0.7-2.1-1v18.8c0,0.7,0,1.3,0.1,2
				c0,0.1,0,0.3,0,0.4c0.1,1,0.3,2,0.5,3c0.1,0.3,0.2,0.7,0.3,1c0.7,2.3,1.7,4.5,3,6.5c0.1,0.2,0.2,0.3,0.4,0.5
				c0.2,0.3,0.5,0.7,0.7,1c2.2,2.8,5,5.1,8.2,6.6c0.7,0.3,1.4,0.6,2.2,0.9c0.8,0.3,1.6,0.5,2.4,0.7c1.8,0.5,3.7,0.7,5.7,0.7h18.8
				c0.5,0,1,0,1.6,0.1C125.6,71.4,124.8,70.6,124,69.9z M75.7,240.8c0.9,0.7,1.8,1.4,2.7,2.1h39.9c0.4-0.7,0.8-1.4,1.2-2.1H75.7z
				 M75.7,240.8c0.9,0.7,1.8,1.4,2.7,2.1h39.9c0.4-0.7,0.8-1.4,1.2-2.1H75.7z M112.5,240.8c1.1,1,2.7,2.1,3.7,1.3
				c0.5-0.4,1-0.9,1.4-1.3H112.5z M5.9,151.6v-18.7C5.5,139.1,5.5,145.3,5.9,151.6z M112.5,240.8c1.1,1,2.7,2.1,3.7,1.3
				c0.5-0.4,1-0.9,1.4-1.3H112.5z M5.9,151.6v-18.7C5.5,139.1,5.5,145.3,5.9,151.6z M112.5,240.8c1.1,1,2.7,2.1,3.7,1.3
				c0.5-0.4,1-0.9,1.4-1.3H112.5z M5.9,151.6v-18.7C5.5,139.1,5.5,145.3,5.9,151.6z M138.4,82.1c-0.2-2.2-1-4.3-2.2-6.1
				c-1.7-2.6-4.3-4.6-7.3-5.5c-0.8-0.3-1.7-0.4-2.6-0.5c-0.5-0.1-1-0.1-1.5-0.1H106c-1,0-1.9-0.1-2.9-0.2c-3.8-0.5-7.3-2-10.1-4.3
				c-2.6-2-4.7-4.7-6.2-7.7c-0.4-0.9-0.8-1.8-1-2.7C85.4,54,85.2,53,85,52v0c-0.1-0.9-0.2-1.7-0.3-2.6c0-0.2,0-0.5,0-0.7V17.4
				c0-0.6,0-1.2-0.1-1.8c-0.2-1.2-0.5-2.4-1-3.5c-0.7-1.7-1.7-3.1-3-4.4c-2.5-2.4-5.9-3.9-9.6-3.9c-1.2,0-2.3,0.2-3.4,0.4
				c-0.7,0.2-1.5,0.5-2.2,0.8c-1.1,0.5-2.2,1.2-3.1,2c-0.9,0.7-1.7,1.6-2.4,2.6c-0.5,0.6-0.8,1.3-1.2,2c-0.3,0.6-0.5,1.2-0.7,1.8
				c-0.2,0.7-0.4,1.4-0.5,2.2c-0.1,0.7-0.2,1.3-0.2,2v31.3c0,1.1-0.1,2.3-0.3,3.4c-0.1,0.3-0.1,0.7-0.2,1c-0.4,2.1-1.2,4.1-2.2,6
				c-0.5,0.8-1,1.6-1.5,2.3c-1.3,1.7-2.9,3.3-4.6,4.5c-0.6,0.4-1.1,0.8-1.7,1.1c-0.2,0.1-0.3,0.2-0.5,0.3c-0.2,0.1-0.4,0.2-0.5,0.3
				c-0.4,0.2-0.9,0.4-1.4,0.6c-0.3,0.1-0.7,0.3-1,0.4c-1.7,0.6-3.4,1-5.2,1.2c-0.6,0.1-1.3,0.1-1.9,0.1H17.4c-0.4,0-0.8,0-1.2,0.1
				c-2.7,0.2-5.2,1.3-7.2,2.9c-3,2.3-4.9,5.8-5.2,9.8c0,0.3,0,0.6,0,1v145.7c0,0.8,0.1,1.7,0.2,2.5c0.9,5.2,4.9,9.4,10,10.8
				c1.1,0.3,2.3,0.5,3.5,0.5h107.4c0.6,0,1.2,0,1.8-0.1c0.2,0,0.5-0.1,0.7-0.1c1-0.2,1.9-0.5,2.8-0.8c1.6-0.7,3-1.6,4.2-2.8
				c0.1-0.1,0.3-0.3,0.4-0.4c0.5-0.5,1-1.1,1.4-1.7c1.1-1.6,1.9-3.5,2.2-5.5c0.1-0.7,0.2-1.5,0.2-2.3V83.5
				C138.5,83.1,138.4,82.6,138.4,82.1z M136.3,83.5v145.7c0,0.4,0,0.8-0.1,1.1c-0.3,3.3-2,6.2-4.5,8c-1,0.7-2.1,1.3-3.2,1.7
				c-0.3,0.1-0.7,0.2-1,0.3c-0.9,0.2-1.8,0.3-2.7,0.3H17.4c-6.4,0-11.5-5.2-11.5-11.5V83.5c0-5.5,3.9-10.1,9.1-11.3
				c0.8-0.2,1.6-0.3,2.4-0.3h18.8c0.4,0,0.8,0,1.1,0c1.7-0.1,3.3-0.3,4.9-0.8c0.5-0.1,1-0.3,1.5-0.5c0.5-0.2,0.9-0.3,1.4-0.5
				c0,0,0,0,0,0c0.3-0.1,0.7-0.3,1-0.5c0.6-0.3,1.1-0.6,1.7-0.9c1.6-1,3.2-2.1,4.5-3.4c0.5-0.5,1-1,1.5-1.5c1.6-1.9,2.9-4,3.9-6.3
				c0.1-0.2,0.2-0.4,0.2-0.6c0,0,0,0,0,0c0.7-1.9,1.2-3.9,1.4-6c0-0.1,0-0.3,0-0.4c0-0.6,0.1-1.2,0.1-1.8V17.4c0-0.3,0-0.5,0-0.8
				c0.1-0.8,0.2-1.6,0.4-2.3c0.2-0.6,0.4-1.2,0.7-1.8c0.3-0.7,0.7-1.4,1.2-2c0.7-1,1.6-1.8,2.6-2.5c1.1-0.8,2.3-1.4,3.6-1.7
				c1-0.3,2-0.4,3-0.4c0.6,0,1.1,0,1.7,0.1c1,0.2,2,0.4,2.9,0.9c2.1,0.9,3.9,2.5,5.2,4.5c0.7,1.1,1.2,2.4,1.5,3.7
				c0.2,0.7,0.2,1.5,0.2,2.3v31.3c0,0.7,0,1.3,0.1,2c0,0.1,0,0.3,0,0.4c0.1,1,0.3,2,0.5,3c0.1,0.3,0.2,0.7,0.3,1
				c0.7,2.3,1.7,4.5,3,6.5c0.1,0.2,0.2,0.3,0.4,0.5c0.2,0.3,0.5,0.7,0.7,1c2.2,2.8,5,5.1,8.2,6.6c0.7,0.3,1.4,0.6,2.2,0.9
				c0.8,0.3,1.6,0.5,2.4,0.7c1.8,0.5,3.7,0.7,5.7,0.7h18.8c0.5,0,1,0,1.6,0.1c5.4,0.7,9.6,5.1,9.9,10.6
				C136.3,83,136.3,83.3,136.3,83.5z M5.9,151.6v-18.7C5.5,139.1,5.5,145.3,5.9,151.6z M112.5,240.8c1.1,1,2.7,2.1,3.7,1.3
				c0.5-0.4,1-0.9,1.4-1.3H112.5z M5.9,151.6v-18.7C5.5,139.1,5.5,145.3,5.9,151.6z M112.5,240.8c1.1,1,2.7,2.1,3.7,1.3
				c0.5-0.4,1-0.9,1.4-1.3H112.5z M75.7,240.8c0.9,0.7,1.8,1.4,2.7,2.1h39.9c0.4-0.7,0.8-1.4,1.2-2.1H75.7z M137.4,135.4
				c-0.1-3.8-0.5-7.7-1.1-11.4v25.2c0.2-1.2,0.4-2.3,0.6-3.5c0-0.3,0.1-0.6,0.1-1C137.4,141.6,137.5,138.5,137.4,135.4z"/>
		</g>
		<g>
			<path class="st6" d="M71.1,26.3c-4.7,0-8.6-3.8-8.6-8.6s3.8-8.6,8.6-8.6c4.7,0,8.6,3.8,8.6,8.6S75.8,26.3,71.1,26.3z M71.1,10
				c-4.3,0-7.7,3.5-7.7,7.7s3.5,7.7,7.7,7.7c4.3,0,7.7-3.5,7.7-7.7S75.4,10,71.1,10z"/>
		</g>
	</g>
</g>
</svg>
