<?xml version="1.0" encoding="utf-8"?>
<!-- Generator: Adobe Illustrator 25.4.1, SVG Export Plug-In . SVG Version: 6.00 Build 0)  -->
<svg version="1.1" id="Layer_1" xmlns="http://www.w3.org/2000/svg" xmlns:xlink="http://www.w3.org/1999/xlink" x="0px" y="0px"
	 viewBox="0 0 76.4 208.5" style="enable-background:new 0 0 76.4 208.5;" xml:space="preserve">
<style type="text/css">
	.st0{fill:#D3D3D3;}
	.st1{opacity:0.4;fill:#FFFFFF;}
	.st2{fill:#464646;}
	.st3{opacity:0.1;fill:#010101;}
</style>
<g>
	<g>
		<path class="st0" d="M76.4,170.3c0,21.1-17.1,38.2-38.2,38.2C17.1,208.5,0,191.4,0,170.3H76.4z"/>
		<path class="st1" d="M48.1,170.3h19.3c-2.5,15-13.1,27.4-28.5,38.2C49,193.3,54.4,179.7,48.1,170.3z"/>
		<g>
			<rect x="33.7" y="62.9" class="st0" width="8.9" height="107.4"/>
			<path class="st2" d="M38.2,0L38.2,0c-4.1,0-7.5,3.3-7.5,7.5v56.1c0,0.8,0.6,1.4,1.4,1.4h12.1c0.8,0,1.4-0.6,1.4-1.4V7.5
				C45.6,3.3,42.3,0,38.2,0z M38.2,12.9c-2.8,0-5.1-2.3-5.1-5.1s2.3-5.1,5.1-5.1s5.1,2.3,5.1,5.1S41,12.9,38.2,12.9z"/>
			<path class="st1" d="M36.2,165.6L36.2,165.6c-0.4,0-0.7-0.3-0.7-0.7V68.8c0-0.4,0.3-0.7,0.7-0.7l0,0c0.4,0,0.7,0.3,0.7,0.7v96.1
				C36.9,165.2,36.6,165.6,36.2,165.6z"/>
		</g>
		<rect x="33.7" y="168.8" class="st3" width="8.9" height="1.5"/>
	</g>
</g>
</svg>
