<?xml version="1.0" encoding="utf-8"?>
<!-- Generator: Adobe Illustrator 25.4.1, SVG Export Plug-In . SVG Version: 6.00 Build 0)  -->
<svg version="1.1" id="Layer_1" xmlns="http://www.w3.org/2000/svg" xmlns:xlink="http://www.w3.org/1999/xlink" x="0px" y="0px"
	 viewBox="0 0 132.4 116.8" style="enable-background:new 0 0 132.4 116.8;" xml:space="preserve">
<style type="text/css">
	.st0{opacity:0.4;fill:#6CBEC4;}
	.st1{fill:#F15D4A;}
	.st2{opacity:0.4;fill:#FFFFFF;}
</style>
<g>
	<g>
		<g>
			<path class="st0" d="M130.4,50.4l-4.4,2c-1.8,0.8-3.8,0-4.6-1.7l-16.5-36.2c-0.7-1.6-2.3-2.6-4.1-2.6h-6.8
				c-0.9,0-1.7,0.8-1.7,1.7L89.5,115c0,1-0.8,1.8-1.8,1.8H11.3c-1,0-1.8-0.8-1.8-1.7L6.4,18.1L0,0h108.3c1.8,0,3.3,1,4.1,2.6
				l19.7,43.1C132.9,47.5,132.1,49.6,130.4,50.4z"/>
			<g>
				
					<rect x="52.5" y="107.3" transform="matrix(-1 -1.224647e-16 1.224647e-16 -1 120.2827 216.8576)" class="st1" width="15.4" height="2.2"/>
				<rect x="52.5" y="96.4" class="st1" width="7.7" height="2.2"/>
				<rect x="52.5" y="85.4" class="st1" width="7.7" height="2.2"/>
				<rect x="52.5" y="74.5" class="st1" width="15.4" height="2.2"/>
				<rect x="52.5" y="63.5" class="st1" width="7.7" height="2.2"/>
				<rect x="52.5" y="52.6" class="st1" width="7.7" height="2.2"/>
				<rect x="52.5" y="41.6" class="st1" width="15.4" height="2.2"/>
				<rect x="52.5" y="30.7" class="st1" width="7.7" height="2.2"/>
				<rect x="52.5" y="19.7" class="st1" width="7.7" height="2.2"/>
				
					<rect x="52.5" y="8.8" transform="matrix(-1 -1.224647e-16 1.224647e-16 -1 120.2827 19.7391)" class="st1" width="15.4" height="2.2"/>
			</g>
			<path class="st0" d="M132.1,45.8L112.4,2.6C111.7,1,110.1,0,108.3,0H89.5c0.2,0.4,0.2,2.8,0.2,2.8l-0.3,10.6l-2.7,100.5H12.3
				L9.2,18l0-0.4l-0.1-0.4L4,2.8L3.2,0H0l6.4,18.1L9.5,115c0,1,0.8,1.7,1.8,1.7h76.4c1,0,1.8-0.8,1.8-1.8l2.7-101.5
				c0-0.9,0.8-1.7,1.7-1.7h6.8c1.8,0,3.3,1,4.1,2.6l16.5,36.2c0.6,1.3,1.9,2,3.2,2c0.5,0,1-0.1,1.5-0.3l4.4-2
				C132.1,49.6,132.9,47.5,132.1,45.8z"/>
		</g>
		<polygon class="st2" points="57.9,0 57.9,116.8 73.4,116.8 74.5,0 		"/>
	</g>
</g>
</svg>
