<?xml version="1.0" encoding="utf-8"?>
<!-- Generator: Adobe Illustrator 25.4.1, SVG Export Plug-In . SVG Version: 6.00 Build 0)  -->
<svg version="1.1" id="Layer_1" xmlns="http://www.w3.org/2000/svg" xmlns:xlink="http://www.w3.org/1999/xlink" x="0px" y="0px"
	 viewBox="0 0 166.9 110.1" style="enable-background:new 0 0 166.9 110.1;" xml:space="preserve">
<style type="text/css">
	.st0{fill:#E7AC6C;}
	.st1{opacity:5.000000e-02;}
	.st2{fill:#010101;}
	.st3{opacity:0.1;fill:#010101;}
	.st4{opacity:0.15;fill:#FFFFFF;}
	.st5{fill:#CCCDC9;}
	.st6{opacity:0.15;fill:#010101;}
	.st7{opacity:0.2;fill:#FFFFFF;}
	.st8{fill:#D3D3D3;}
	.st9{opacity:0.4;}
	.st10{fill:#FFFFFF;}
</style>
<g>
	<g>
		<g>
			<g>
				<path class="st0" d="M102,27l55.7-26.5c0.1,0,0.1-0.1,0.2-0.1c2.8-1.2,6,0,7.4,2.7c0,0,0,0.1,0.1,0.1l0.9,2
					c0.3,0.6,0.4,1.1,0.5,1.7c0,0,0,0,0,0c0.1,0.7,0,1.3-0.1,2c-0.2,0.7-0.4,1.4-0.8,1.9c-0.3,0.5-0.7,0.9-1.1,1.2
					c-0.4,0.3-0.7,0.5-1.2,0.7l-55.7,26.5L102,27z"/>
				<g class="st1">
					<path class="st2" d="M106.2,35.9c0.8-0.4,1.8-0.4,2.7,0c1,0.4,2,1,3,1.6l-1.8,0.9c-1.2-0.4-2.1-0.4-2.7-0.1L106.2,35.9z"/>
					<path class="st2" d="M162.3,9.5c1.2,0.1,2.4,0.6,3.5,1.3c-0.3,0.5-0.7,0.9-1.1,1.2c-1.7-0.7-2.9,0.4-3.8,1.7
						c-0.1,0.1-0.1,0.2-0.2,0.3l-1.9,0.9c0.5-1.4,1-2.8,1.7-4.1C161.1,10.4,161.5,9.6,162.3,9.5z"/>
					<path class="st2" d="M162.2,4.8c1.5,0.1,3,1.1,4.6,2.2c0,0,0,0,0,0c0.1,0.7,0,1.3-0.1,2c-1.2-0.9-2.4-1.8-3.6-2.4
						c-1-0.4-1.8,0-2.3,0.5c-2.2,2.3-3.1,5.9-4.1,9.2l-1.7,0.8C157,12,157.2,4.3,162.2,4.8z"/>
					<path class="st2" d="M106.9,30.7c3,1.4,6,3.7,8.9,4.8l-1.8,0.8c-2.2-1.3-4.5-2.8-6.7-3.4c-1.1-0.3-1.9-0.2-2.5,0.1l-1-2.1
						C104.5,30.2,105.7,30.2,106.9,30.7z"/>
					<path class="st2" d="M157.9,0.5c2.8-1.2,6,0,7.4,2.7c0,0,0,0.1,0.1,0.1l0.1,0.2c-0.9-0.7-1.8-1.5-2.6-2.1
						c-1.8-1.3-3.6-0.4-4.4,1.2c-2.8,5.3-3.8,13-8.5,15.8c-0.7,0.3-1.3,0.7-2,1l-3.6,1.7c-1.2,0.4-2.2,1.2-2.9,2.3l-2.1,1
						c0.8-2.4,2-4.4,4.1-5.3c0.6-0.3,1.2-0.6,1.8-0.9l3.8-1.8c4.8-2.8,5.9-10,8.7-15.5C157.7,0.8,157.8,0.6,157.9,0.5z"/>
					<path class="st2" d="M102,27l2.5-1.2c4.5,1.2,9.4,6.2,13.8,5.1c0.8-0.4,1.5-0.5,2.3-0.5c1.2,0,2.4,0.4,3.7,1l-2.5,1.2
						c0,0,0,0-0.1,0c-0.8-0.1-1.6,0-2.4,0.3c-4,1.3-8.7-2.8-13.1-5c-1.7-0.8-2.9-0.6-3.7,0.1L102,27z"/>
					<path class="st2" d="M107.5,24.4l0.8-0.4c1.9,1,3.8,1.9,5.7,2.1c0.6,0,1.2,0,1.9-0.2c0.8-0.5,1.6-0.8,2.4-0.8
						c3-0.2,6.4,2.5,9.7,4.6l-1.6,0.7c-2.4-1.6-4.8-3.1-7.1-3.1c-0.8,0-1.7,0.2-2.5,0.6c-1.6,0.8-3.6,0.3-5.3-1.1
						C110.2,25.8,108.8,25,107.5,24.4z"/>
					<path class="st2" d="M153.7,2.4l1.3-0.6c-2,4.6-3.3,9.9-7.4,11.7l-3.8,1.8c-0.6,0.3-1.2,0.6-1.8,0.9c-2.7,1.9-3.9,5.4-4.9,9.2
						l-1.4,0.7c1.3-4.5,1.9-9.6,5.3-11.8c0.6-0.4,1.2-0.7,1.8-1l3.8-1.8C150,9.9,152.1,6.6,153.7,2.4z"/>
					<path class="st2" d="M132,26c3.2-4.7,3-12.8,6.7-16.5l11.8-5.6c-0.9,1.5-2,2.7-3.4,3.6c-0.7,0.4-1.3,0.7-2,1l-1.8,0.9
						c-0.6,0.3-1.2,0.6-1.8,0.9c-5.3,2.2-5.7,10-7.8,16.1c-0.1,0.3-0.2,0.5-0.4,0.7l-2.9,1.4c-0.3-0.1-0.7-0.2-1-0.4
						c-3.9-2.2-8.1-6.3-11.7-6.2c-0.7,0-1.4,0.2-2.1,0.7c-1.2,0.8-3.2,1-4.6,0.1l6.3-3c4-0.1,7.8,4.2,11.8,6.4
						C130.1,26.6,131.3,26.7,132,26z"/>
					<path class="st2" d="M129,20.9c1.3,0.3,1.9-0.9,2.6-2.1c0.9-2.1,1.5-4.5,2.1-6.7l1.7-0.8c-1.3,3.4-2.1,7.4-3.6,10.5
						c-2.2,4.4-6.8-1.2-10.7-3.7l1.5-0.7C124.7,18.8,126.9,20.5,129,20.9z"/>
					<path class="st2" d="M126.6,15.3c1.2,0.4,2.3-0.1,2.8-1.3l0,0l2.1-1c-0.6,1.6-1.2,3.1-2.1,4.3c-0.5,0.6-1.4,0.4-2,0.4
						c-0.9-0.3-1.8-0.8-2.7-1.4L126.6,15.3z"/>
				</g>
				<path class="st3" d="M160.3,6l-55.7,26.5l3.2,6.8l55.7-26.5c2.9-1.4,4.1-4.8,2.7-7.6l-0.9-2c0,0,0-0.1-0.1-0.1
					c-0.4-0.8-1-1.5-1.7-2C163.5,3.1,162.3,5.1,160.3,6z"/>
				<path class="st4" d="M158.7,2.7L103,29.2l-1-2.2l55.7-26.5c2.9-1.4,6.3-0.1,7.6,2.7l0.9,2c0,0,0,0.1,0,0.1
					C164.9,2.6,161.5,1.4,158.7,2.7z"/>
				
					<rect x="103.1" y="26.7" transform="matrix(0.9032 -0.4293 0.4293 0.9032 -4.3127 47.9559)" class="st5" width="2.1" height="13.6"/>
				<g>
					
						<rect x="102.3" y="30.7" transform="matrix(-0.4293 -0.9031 0.9031 -0.4293 127.7886 143.0999)" class="st6" width="13.6" height="1"/>
					
						<rect x="104.5" y="29.6" transform="matrix(-0.4293 -0.9031 0.9031 -0.4293 131.8421 143.5874)" class="st6" width="13.6" height="1"/>
					
						<rect x="106.7" y="28.6" transform="matrix(-0.4293 -0.9031 0.9031 -0.4293 135.8945 144.0752)" class="st6" width="13.6" height="1"/>
				</g>
				<g>
					
						<rect x="147" y="9.4" transform="matrix(-0.4293 -0.9031 0.9031 -0.4293 210.8873 153.1001)" class="st6" width="13.6" height="1"/>
					
						<rect x="149.2" y="8.4" transform="matrix(-0.4293 -0.9031 0.9031 -0.4293 214.9391 153.5881)" class="st6" width="13.6" height="1"/>
					
						<rect x="151.4" y="7.3" transform="matrix(-0.4293 -0.9031 0.9031 -0.4293 218.9908 154.0762)" class="st6" width="13.6" height="1"/>
				</g>
				
					<rect x="101.8" y="29.8" transform="matrix(0.9031 -0.4293 0.4293 0.9031 -3.3055 47.1705)" class="st7" width="2.1" height="2.3"/>
			</g>
			
				<rect x="78.5" y="20.7" transform="matrix(-0.4293 -0.9031 0.9031 -0.4293 77.7076 137.0726)" class="st5" width="7.4" height="46.5"/>
			
				<rect x="80.9" y="22.3" transform="matrix(-0.4293 -0.9031 0.9031 -0.4293 77.3637 139.9318)" class="st3" width="4" height="46.5"/>
		</g>
		<g>
			<path class="st8" d="M77.3,94.2c-0.2,4.5-1.8,8-5.3,10.4v2.3c0,1.7-1.4,3.2-3.2,3.2H8.5c-1.7,0-3.2-1.4-3.2-3.2v-2.3
				c-3.5-2.4-5.1-5.9-5.3-10.4c0-0.5,0-0.9,0-1.4c0.2-11.4,8.4-28.2,17.7-47.1c-3.1-6.2-6-12.2-8.6-17.8h59
				c-2.6,5.6-5.5,11.6-8.6,17.8c9.3,18.9,17.5,35.7,17.7,47.1C77.3,93.3,77.3,93.7,77.3,94.2z"/>
			<path class="st3" d="M71.9,104.5v2.4c0,1.7-1.4,3.2-3.2,3.2H8.5c-1.7,0-3.2-1.4-3.2-3.2v-2.4H71.9z"/>
			<path class="st3" d="M68.2,27.8c-2.6,5.6-5.5,11.6-8.6,17.8H17.7c-3.1-6.2-6-12.2-8.6-17.8H68.2z"/>
			<path class="st3" d="M77.3,94.2H0c0-0.5,0-0.9,0-1.4h77.3C77.3,93.3,77.3,93.7,77.3,94.2z"/>
		</g>
		<g class="st9">
			<path class="st10" d="M64.7,101.2c-0.2,1.1-0.5,2.2-1,3.3c-0.8,2.1-2.1,4-3.6,5.6h-8.4v-2.9l1.6-1.1c0.6-0.4,1.2-0.9,1.8-1.6
				c1.6-1.8,2.9-4.8,2.5-10.3c0-0.5-0.1-0.9-0.1-1.4c-0.2-1.3-0.4-2.7-0.8-4.3c-2.2-9.7-7.9-22.2-13.8-34.3
				c-1.3-2.7-2.1-5.6-2.5-8.6c-0.5-4.7,0.3-9.4,2.4-13.8c0.7-1.4,1.3-2.8,1.9-4h8.2c-1,2.2-2.2,4.6-3.5,7.3c-1.6,3.3-2.2,7-1.6,10.6
				c0.3,1.8,0.8,3.6,1.6,5.3c6,12.5,12,25.4,14.4,35.9c0.5,2.1,0.8,4.1,1,5.9c0,0.5,0.1,1,0.1,1.4C65.3,96.8,65.1,99.1,64.7,101.2z"
				/>
		</g>
	</g>
</g>
</svg>
