<?xml version="1.0" encoding="utf-8"?>
<!-- Generator: Adobe Illustrator 25.4.1, SVG Export Plug-In . SVG Version: 6.00 Build 0)  -->
<svg version="1.1" id="Layer_1" xmlns="http://www.w3.org/2000/svg" xmlns:xlink="http://www.w3.org/1999/xlink" x="0px" y="0px"
	 viewBox="0 0 63.8 147.2" style="enable-background:new 0 0 63.8 147.2;" xml:space="preserve">
<style type="text/css">
	.st0{opacity:0.4;fill:#6CBEC4;}
	.st1{opacity:0.1;fill:#010101;}
	.st2{opacity:0.2;fill:#FFFFFF;}
</style>
<g>
	<g>
		<g>
			<path class="st0" d="M63.8,17.4v126.4c0,1.8-1.5,3.3-3.3,3.3H3.3c-1.8,0-3.3-1.5-3.3-3.3V17.4c0-0.5,0.1-1,0.3-1.4
				c0-0.1,0.1-0.2,0.2-0.3c0.1-0.1,0.1-0.2,0.2-0.3c0.1-0.1,0.2-0.3,0.3-0.4l0.2-0.2c0,0,0.1-0.1,0.1-0.1l0.9-0.5c0,0,0.1,0,0.1,0
				c0,0,0.1,0,0.1,0l0.2,0c0,0,0.1,0,0.1,0l0.2,0c0,0,0.1,0,0.1,0c0.1,0,0.1,0,0.2,0c1.8,0,3.3-1.5,3.3-3.3v-0.1
				c0-0.4-0.2-0.9-0.5-1.1C6.1,9.4,6.1,9.3,6,9.3c0,0-0.1,0-0.1-0.1c0,0,0,0,0,0L5.7,9.1c0,0-0.1,0-0.1,0c0,0,0,0,0,0
				c0,0-0.1,0-0.1,0L5.4,9c0,0-0.1,0-0.1,0C5.2,9,5.1,9,5.1,9C4.2,9,3.5,8.3,3.5,7.4V1.6C3.5,0.7,4.2,0,5.1,0h53.7
				c0.9,0,1.6,0.7,1.6,1.6v5.8c0,0.9-0.7,1.6-1.6,1.6c-0.1,0-0.1,0-0.2,0c0,0-0.1,0-0.1,0c0,0,0,0-0.1,0c0,0-0.1,0-0.1,0
				c0,0-0.1,0-0.1,0c0,0,0,0-0.1,0c0,0-0.1,0-0.1,0c0,0,0,0-0.1,0c0,0,0,0,0,0c0,0,0,0,0,0c0,0-0.1,0.1-0.1,0.1c0,0-0.1,0.1-0.1,0.1
				c-0.1,0.1-0.1,0.1-0.2,0.2c0,0,0,0,0,0c0,0,0,0,0,0.1c0,0,0,0.1-0.1,0.1c-0.1,0.1-0.1,0.2-0.1,0.3c0,0,0,0.1,0,0.1c0,0,0,0,0,0
				c0,0,0,0.1,0,0.1c0,0,0,0,0,0c0,0,0,0,0,0.1c0,0,0,0.1,0,0.1v0.1c0,0.1,0,0.1,0,0.2c0,0,0,0.1,0,0.1c0,0,0,0.1,0,0.1
				c0,0.1,0,0.1,0,0.2c0,0.1,0,0.1,0,0.2c0,0,0,0,0,0c0,0.1,0,0.1,0,0.2v0c0,0,0,0.1,0,0.1c0,0.1,0.1,0.3,0.2,0.4
				c0,0.1,0.1,0.2,0.2,0.3c0.1,0.1,0.1,0.2,0.2,0.3c0,0.1,0.1,0.1,0.2,0.2c0.1,0.1,0.1,0.1,0.2,0.2c0.1,0.1,0.1,0.1,0.2,0.2
				c0.1,0.1,0.1,0.1,0.2,0.2c0.1,0.1,0.2,0.1,0.3,0.2c0.1,0.1,0.2,0.1,0.3,0.2c0.1,0.1,0.2,0.1,0.4,0.2c0,0,0.1,0,0.1,0h0
				c0.1,0,0.1,0,0.2,0c0,0,0,0,0,0c0.1,0,0.1,0,0.2,0c0.1,0,0.1,0,0.2,0c0,0,0.1,0,0.1,0c0,0,0.1,0,0.1,0c0.1,0,0.1,0,0.2,0
				c0.1,0,0.1,0,0.2,0c0,0,0.1,0,0.1,0c0,0,0,0,0,0c0.1,0,0.1,0,0.2,0c0,0,0.1,0,0.1,0c0.1,0,0.3,0.1,0.4,0.1c0,0,0.1,0,0.1,0
				c0,0,0.1,0,0.1,0c0.1,0,0.2,0.1,0.3,0.2c0,0,0.1,0,0.1,0.1c0.1,0,0.1,0.1,0.2,0.1c0,0,0.1,0.1,0.1,0.1c0.3,0.2,0.5,0.4,0.7,0.7
				c0,0,0.1,0.1,0.1,0.1c0,0,0.1,0.1,0.1,0.1c0,0,0,0.1,0.1,0.1c0,0,0,0.1,0.1,0.1c0,0,0,0.1,0.1,0.1c0,0.1,0.1,0.1,0.1,0.2
				c0,0,0,0.1,0,0.1c0,0.1,0,0.1,0.1,0.2c0,0,0,0.1,0,0.1c0,0.1,0,0.2,0.1,0.2c0,0,0,0.1,0,0.1c0,0.1,0,0.2,0,0.3
				C63.8,17.3,63.8,17.4,63.8,17.4z"/>
			<path class="st0" d="M63.8,17.4v126.4c0,1.8-1.5,3.3-3.3,3.3H3.3c-1.8,0-3.3-1.5-3.3-3.3V17.4c0-0.5,0.1-1,0.3-1.4
				c0-0.1,0.1-0.2,0.2-0.3c0.1-0.1,0.1-0.2,0.2-0.3c0.1-0.1,0.2-0.3,0.3-0.4l0.2-0.2c0,0,0.1-0.1,0.1-0.1l0.9-0.5c0,0,0.1,0,0.1,0
				c0,0,0.1,0,0.1,0l0.2,0c0,0,0.1,0,0.1,0l0.2,0c0,0,0.1,0,0.1,0c0.1,0,0.1,0,0.2,0c1.8,0,3.3-1.5,3.3-3.3v-0.1
				c0-0.4-0.2-0.9-0.5-1.1c0,0-0.1-0.1-0.1-0.1c0,0-0.1-0.1-0.1-0.1c0,0-0.1,0-0.1-0.1c0,0,0,0,0,0L5.7,9.1c0,0-0.1,0-0.1,0
				c0,0,0,0,0,0c0,0-0.1,0-0.1,0L5.4,9c0,0-0.1,0-0.1,0C5.2,9,5.1,9,5.1,9C4.2,9,3.5,8.3,3.5,7.4V1.6C3.5,0.7,4.2,0,5.1,0h0.7v6.7
				c1.4,0.3,2.5,1.2,3,2.5C8.9,9.6,9,10.1,9,10.6v0.1c0,1.3-0.4,2.4-1.1,3.4c-1,1.4-2.7,2.3-4.6,2.3c-0.6,0-1,0.5-1,1v126.4
				c0,0.6,0.5,1,1,1h57.1c0.6,0,1-0.5,1-1V17.4c0-0.6-0.5-1-1-1c-1.9,0-3.5-0.9-4.6-2.3c-0.7-0.9-1.1-2.1-1.1-3.4v-0.1
				c0-0.5,0.1-1,0.3-1.4c0.5-1.3,1.6-2.2,3-2.5V2.3H58V0h0.8c0.9,0,1.6,0.7,1.6,1.6v5.8c0,0.9-0.7,1.6-1.6,1.6c-0.1,0-0.1,0-0.2,0
				c0,0-0.1,0-0.1,0c0,0,0,0-0.1,0c0,0-0.1,0-0.1,0c0,0-0.1,0-0.1,0c0,0,0,0-0.1,0c0,0-0.1,0-0.1,0c0,0,0,0,0,0c0,0-0.1,0-0.1,0.1
				c-0.1,0.1-0.2,0.1-0.2,0.2c0,0,0,0-0.1,0.1c0,0,0,0,0,0c0,0-0.1,0.1-0.1,0.1c0,0-0.1,0.1-0.1,0.1c0,0,0,0.1-0.1,0.1
				c0,0,0,0.1,0,0.1c0,0,0,0,0,0.1c0,0,0,0,0,0.1c0,0,0,0,0,0.1c0,0,0,0.1,0,0.1c0,0,0,0.1,0,0.1c0,0,0,0,0,0c0,0.1,0,0.1,0,0.2v0.1
				c0,0.5,0.1,1,0.3,1.4c0,0.1,0.1,0.2,0.2,0.3c0.1,0.1,0.1,0.2,0.2,0.3c0.1,0.1,0.2,0.3,0.3,0.4c0.1,0.1,0.2,0.2,0.4,0.3
				c0.1,0.1,0.2,0.1,0.3,0.2c0.1,0.1,0.2,0.1,0.3,0.2c0.4,0.2,0.9,0.3,1.4,0.3c0.1,0,0.1,0,0.2,0c0,0,0.1,0,0.1,0c0,0,0,0,0,0
				c0.1,0,0.1,0,0.2,0c0,0,0.1,0,0.1,0c0.1,0,0.3,0.1,0.4,0.1c0,0,0.1,0,0.1,0c0,0,0.1,0,0.1,0c0.1,0,0.2,0.1,0.3,0.2
				c0,0,0.1,0,0.1,0.1c0.1,0,0.1,0.1,0.2,0.1c0,0,0.1,0.1,0.1,0.1c0.3,0.2,0.5,0.4,0.7,0.7c0,0,0.1,0.1,0.1,0.1c0,0,0.1,0.1,0.1,0.1
				c0,0,0,0.1,0.1,0.1c0,0,0,0.1,0.1,0.1c0,0,0,0.1,0.1,0.1c0,0.1,0.1,0.1,0.1,0.2c0,0,0,0.1,0,0.1c0,0.1,0,0.1,0.1,0.2
				c0,0,0,0.1,0,0.1c0,0.1,0,0.2,0.1,0.2c0,0,0,0.1,0,0.1c0,0.1,0,0.2,0,0.3C63.8,17.3,63.8,17.4,63.8,17.4z"/>
		</g>
		<path class="st1" d="M60.8,14.1H3c0.1,0,0.2,0,0.3,0c1.8,0,3.3-1.5,3.3-3.3v-0.1c0-0.4-0.2-0.9-0.5-1.1C6.1,9.4,6,9.3,5.8,9.2H58
			c-0.5,0.3-0.9,0.8-0.9,1.4v0.1c0,0.9,0.4,1.8,1,2.4c0.6,0.6,1.4,1,2.4,1C60.6,14.1,60.7,14.1,60.8,14.1z"/>
		<path class="st2" d="M47,0v9.2c-0.1,1.2,0.3,2.5,0.9,3.8c0.4,0.8,0.6,1.8,0.6,2.7v131.5h-8.8V15.6c0-0.9-0.2-1.8-0.5-2.6
			c-0.6-1.3-0.9-2.6-0.9-3.8V0H47z"/>
	</g>
</g>
</svg>
