<?xml version="1.0" encoding="utf-8"?>
<!-- Generator: Adobe Illustrator 25.4.1, SVG Export Plug-In . SVG Version: 6.00 Build 0)  -->
<svg version="1.1" id="Layer_1" xmlns="http://www.w3.org/2000/svg" xmlns:xlink="http://www.w3.org/1999/xlink" x="0px" y="0px"
	 viewBox="0 0 33 150.4" style="enable-background:new 0 0 33 150.4;" xml:space="preserve">
<style type="text/css">
	.st0{fill:#D3D3D3;}
	.st1{opacity:0.4;fill:#FFFFFF;}
</style>
<g>
	<g>
		<path class="st0" d="M33,23.6C33,10.6,25.6,0,16.5,0C7.4,0,0,10.6,0,23.6c0,11.8,6,21.5,13.9,23.3v25.6l-2.6,60.2v12.6
			c0,2.9,2.3,5.2,5.2,5.2l0,0c2.9,0,5.2-2.3,5.2-5.2v-12.6l-2.6-60.2V46.9C27,45.1,33,35.3,33,23.6z"/>
		<path class="st1" d="M19.9,1.8C29.5,14.5,15.2,41.9,4.5,38c2.8,5.1,7.1,8.3,12,8.3c8.5,0,15.4-10.1,15.4-22.5
			C31.9,13.2,26.8,4.1,19.9,1.8z"/>
		<path class="st1" d="M14.4,85l-2,47.8v12.5c0,2.3,1.8,4.1,4.1,4.1c2.3,0,4.1-1.8,4.1-4.1C20.6,145.3,13.9,151.3,14.4,85z"/>
	</g>
</g>
</svg>
